<?xml version="1.0" encoding="UTF-8" standalone="no"?>
<!DOCTYPE svg PUBLIC "-//W3C//DTD SVG 1.1//EN" "http://www.w3.org/Graphics/SVG/1.1/DTD/svg11.dtd">
<svg xmlns="http://www.w3.org/2000/svg" xmlns:xl="http://www.w3.org/1999/xlink" version="1.1" xmlns:dc="http://purl.org/dc/elements/1.1/" viewBox="-886.7741 -3167.9315 25 25" width="25" height="25">
  <defs/>
  <g id="SOURCES" stroke-opacity="1" fill="none" stroke="none" fill-opacity="1" stroke-dasharray="none">
    <title>SOURCES</title>
    <g id="SOURCES_Dark">
      <title>Dark</title>
      <g id="Graphic_11345">
        <path d="M -882.4341 -3167.4315 L -866.1141 -3167.4315 C -863.9933 -3167.4315 -862.2741 -3165.7123 -862.2741 -3163.5915 L -862.2741 -3147.2715 C -862.2741 -3145.1507 -863.9933 -3143.4315 -866.1141 -3143.4315 L -882.4341 -3143.4315 C -884.5549 -3143.4315 -886.2741 -3145.1507 -886.2741 -3147.2715 L -886.2741 -3163.5915 C -886.2741 -3165.7123 -884.5549 -3167.4315 -882.4341 -3167.4315 Z" fill="#666"/>
        <path d="M -882.4341 -3167.4315 L -866.1141 -3167.4315 C -863.9933 -3167.4315 -862.2741 -3165.7123 -862.2741 -3163.5915 L -862.2741 -3147.2715 C -862.2741 -3145.1507 -863.9933 -3143.4315 -866.1141 -3143.4315 L -882.4341 -3143.4315 C -884.5549 -3143.4315 -886.2741 -3145.1507 -886.2741 -3147.2715 L -886.2741 -3163.5915 C -886.2741 -3165.7123 -884.5549 -3167.4315 -882.4341 -3167.4315 Z" stroke="white" stroke-linecap="round" stroke-linejoin="round" stroke-width=".25"/>
      </g>
      <g id="Graphic_11344">
        <path d="M -873.4741 -3152.2315 L -872.2741 -3152.2315 C -872.0501 -3152.2315 -871.8741 -3152.0555 -871.8741 -3151.8315 C -871.8741 -3151.6075 -872.0501 -3151.4315 -872.2741 -3151.4315 L -875.4741 -3151.4315 C -875.6981 -3151.4315 -875.8741 -3151.6075 -875.8741 -3151.8315 C -875.8741 -3152.0555 -875.6981 -3152.2315 -875.4741 -3152.2315 L -874.2741 -3152.2315 L -874.2741 -3156.2315 L -875.4741 -3156.2315 C -875.6981 -3156.2315 -875.8741 -3156.4075 -875.8741 -3156.6315 C -875.8741 -3156.8555 -875.6981 -3157.0315 -875.4741 -3157.0315 L -873.8741 -3157.0315 C -873.6501 -3157.0315 -873.4741 -3156.8555 -873.4741 -3156.6315 Z M -874.2741 -3147.4315 C -878.6901 -3147.4315 -882.2741 -3151.0155 -882.2741 -3155.4315 C -882.2741 -3159.8475 -878.6901 -3163.4315 -874.2741 -3163.4315 C -869.8581 -3163.4315 -866.2741 -3159.8475 -866.2741 -3155.4315 C -866.2741 -3151.0155 -869.8581 -3147.4315 -874.2741 -3147.4315 Z M -874.2741 -3148.2315 C -870.2981 -3148.2315 -867.0741 -3151.4555 -867.0741 -3155.4315 C -867.0741 -3159.4075 -870.2981 -3162.6315 -874.2741 -3162.6315 C -878.2501 -3162.6315 -881.4741 -3159.4075 -881.4741 -3155.4315 C -881.4741 -3151.4555 -878.2501 -3148.2315 -874.2741 -3148.2315 Z M -874.6741 -3159.4315 L -873.8741 -3159.4315 C -873.6501 -3159.4315 -873.4741 -3159.2555 -873.4741 -3159.0315 L -873.4741 -3158.2315 C -873.4741 -3158.0075 -873.6501 -3157.8315 -873.8741 -3157.8315 L -874.6741 -3157.8315 C -874.8981 -3157.8315 -875.0741 -3158.0075 -875.0741 -3158.2315 L -875.0741 -3159.0315 C -875.0741 -3159.2555 -874.8981 -3159.4315 -874.6741 -3159.4315 Z" fill="#e3e6e1"/>
      </g>
    </g>
  </g>
</svg>
