<?xml version="1.0" encoding="UTF-8" standalone="no"?>
<!DOCTYPE svg PUBLIC "-//W3C//DTD SVG 1.1//EN" "http://www.w3.org/Graphics/SVG/1.1/DTD/svg11.dtd">
<svg xmlns="http://www.w3.org/2000/svg" xmlns:xl="http://www.w3.org/1999/xlink" version="1.1" xmlns:dc="http://purl.org/dc/elements/1.1/" viewBox="-850.7741 -3167.9315 25 25" width="25" height="25">
  <defs/>
  <g id="SOURCES" stroke-opacity="1" fill="none" stroke="none" fill-opacity="1" stroke-dasharray="none">
    <title>SOURCES</title>
    <g id="SOURCES_Dark">
      <title>Dark</title>
      <g id="Graphic_11341">
        <path d="M -846.4341 -3167.4315 L -830.1141 -3167.4315 C -827.9933 -3167.4315 -826.2741 -3165.7123 -826.2741 -3163.5915 L -826.2741 -3147.2715 C -826.2741 -3145.1507 -827.9933 -3143.4315 -830.1141 -3143.4315 L -846.4341 -3143.4315 C -848.5549 -3143.4315 -850.2741 -3145.1507 -850.2741 -3147.2715 L -850.2741 -3163.5915 C -850.2741 -3165.7123 -848.5549 -3167.4315 -846.4341 -3167.4315 Z" fill="#666"/>
        <path d="M -846.4341 -3167.4315 L -830.1141 -3167.4315 C -827.9933 -3167.4315 -826.2741 -3165.7123 -826.2741 -3163.5915 L -826.2741 -3147.2715 C -826.2741 -3145.1507 -827.9933 -3143.4315 -830.1141 -3143.4315 L -846.4341 -3143.4315 C -848.5549 -3143.4315 -850.2741 -3145.1507 -850.2741 -3147.2715 L -850.2741 -3163.5915 C -850.2741 -3165.7123 -848.5549 -3167.4315 -846.4341 -3167.4315 Z" stroke="white" stroke-linecap="round" stroke-linejoin="round" stroke-width=".25"/>
      </g>
      <g id="Graphic_11340">
        <path d="M -832.9408 -3162.5426 C -832.9408 -3163.0315 -832.5408 -3163.4315 -832.0519 -3163.4315 L -831.163 -3163.4315 C -830.6741 -3163.4315 -830.2741 -3163.0315 -830.2741 -3162.5426 L -830.2741 -3161.6537 C -830.2741 -3161.165 -830.6741 -3160.765 -831.163 -3160.765 L -831.163 -3150.098 C -830.6741 -3150.098 -830.2741 -3149.698 -830.2741 -3149.2093 L -830.2741 -3148.3204 C -830.2741 -3147.8315 -830.6741 -3147.4315 -831.163 -3147.4315 L -832.0519 -3147.4315 C -832.5408 -3147.4315 -832.9408 -3147.8315 -832.9408 -3148.3204 L -843.6074 -3148.3204 C -843.6074 -3147.8315 -844.0074 -3147.4315 -844.4963 -3147.4315 L -845.3852 -3147.4315 C -845.8741 -3147.4315 -846.2741 -3147.8315 -846.2741 -3148.3204 L -846.2741 -3149.2093 C -846.2741 -3149.698 -845.8741 -3150.098 -845.3852 -3150.098 L -845.3852 -3160.765 C -845.8741 -3160.765 -846.2741 -3161.165 -846.2741 -3161.6537 L -846.2741 -3162.5426 C -846.2741 -3163.0315 -845.8741 -3163.4315 -845.3852 -3163.4315 L -844.4963 -3163.4315 C -844.0074 -3163.4315 -843.6074 -3163.0315 -843.6074 -3162.5426 Z M -832.9408 -3161.6537 L -843.6074 -3161.6537 C -843.6074 -3161.165 -844.0074 -3160.765 -844.4963 -3160.765 L -844.4963 -3150.098 C -844.0074 -3150.098 -843.6074 -3149.698 -843.6074 -3149.2093 L -832.9408 -3149.2093 C -832.9408 -3149.698 -832.5408 -3150.098 -832.0519 -3150.098 L -832.0519 -3160.765 C -832.5408 -3160.765 -832.9408 -3161.165 -832.9408 -3161.6537 Z M -840.0519 -3158.987 L -840.0519 -3155.876 C -840.0519 -3155.627 -840.2474 -3155.4315 -840.4963 -3155.4315 C -840.7452 -3155.4315 -840.9408 -3155.627 -840.9408 -3155.876 L -840.9408 -3158.987 L -842.2741 -3158.987 C -842.523 -3158.987 -842.7185 -3159.1826 -842.7185 -3159.4315 C -842.7185 -3159.6804 -842.523 -3159.876 -842.2741 -3159.876 L -838.7185 -3159.876 C -838.4697 -3159.876 -838.2741 -3159.6804 -838.2741 -3159.4315 C -838.2741 -3159.1826 -838.4697 -3158.987 -838.7185 -3158.987 Z M -845.3852 -3162.5426 L -845.3852 -3161.6537 L -844.4963 -3161.6537 L -844.4963 -3162.5426 Z M -832.0519 -3162.5426 L -832.0519 -3161.6537 L -831.163 -3161.6537 L -831.163 -3162.5426 Z M -832.0519 -3149.2093 L -832.0519 -3148.3204 L -831.163 -3148.3204 L -831.163 -3149.2093 Z M -845.3852 -3149.2093 L -845.3852 -3148.3204 L -844.4963 -3148.3204 L -844.4963 -3149.2093 Z M -836.9408 -3158.987 C -837.1897 -3158.987 -837.3852 -3159.1826 -837.3852 -3159.4315 C -837.3852 -3159.6804 -837.1897 -3159.876 -836.9408 -3159.876 L -834.2741 -3159.876 C -834.0252 -3159.876 -833.8297 -3159.6804 -833.8297 -3159.4315 C -833.8297 -3159.1826 -834.0252 -3158.987 -834.2741 -3158.987 Z M -836.9408 -3156.3204 C -837.1897 -3156.3204 -837.3852 -3156.516 -837.3852 -3156.765 C -837.3852 -3157.0137 -837.1897 -3157.2093 -836.9408 -3157.2093 L -834.2741 -3157.2093 C -834.0252 -3157.2093 -833.8297 -3157.0137 -833.8297 -3156.765 C -833.8297 -3156.516 -834.0252 -3156.3204 -834.2741 -3156.3204 Z M -842.2741 -3153.6537 C -842.523 -3153.6537 -842.7185 -3153.8493 -842.7185 -3154.098 C -842.7185 -3154.347 -842.523 -3154.5426 -842.2741 -3154.5426 L -834.2741 -3154.5426 C -834.0252 -3154.5426 -833.8297 -3154.347 -833.8297 -3154.098 C -833.8297 -3153.8493 -834.0252 -3153.6537 -834.2741 -3153.6537 Z M -842.2741 -3150.987 C -842.523 -3150.987 -842.7185 -3151.1826 -842.7185 -3151.4315 C -842.7185 -3151.6804 -842.523 -3151.876 -842.2741 -3151.876 L -834.2741 -3151.876 C -834.0252 -3151.876 -833.8297 -3151.6804 -833.8297 -3151.4315 C -833.8297 -3151.1826 -834.0252 -3150.987 -834.2741 -3150.987 Z" fill="#c0e0ff"/>
      </g>
    </g>
  </g>
</svg>
