<svg height="25" viewBox="-850.774 -3167.932 25 25" width="25" xmlns="http://www.w3.org/2000/svg"><g fill="none"><path d="M-846.434-3167.432h16.32a3.84 3.84 0 0 1 3.84 3.84v16.32a3.84 3.84 0 0 1-3.84 3.84h-16.32a3.84 3.84 0 0 1-3.84-3.84v-16.32a3.84 3.84 0 0 1 3.84-3.84z" fill="#666"/><path d="M-846.434-3167.432h16.32a3.84 3.84 0 0 1 3.84 3.84v16.32a3.84 3.84 0 0 1-3.84 3.84h-16.32a3.84 3.84 0 0 1-3.84-3.84v-16.32a3.84 3.84 0 0 1 3.84-3.84z" stroke="#fff" stroke-linecap="round" stroke-linejoin="round" stroke-width=".25"/><path d="M-832.94-3162.543c0-.489.4-.889.888-.889h.889c.489 0 .889.4.889.89v.888c0 .489-.4.889-.889.889v10.667c.489 0 .889.4.889.889v.889c0 .488-.4.888-.889.888h-.889a.892.892 0 0 1-.889-.888h-10.666c0 .488-.4.888-.89.888h-.888a.892.892 0 0 1-.89-.888v-.89c0-.488.4-.888.89-.888v-10.667a.891.891 0 0 1-.89-.889v-.889c0-.489.4-.889.89-.889h.889c.489 0 .889.4.889.89zm0 .89h-10.667c0 .488-.4.888-.89.888v10.667c.49 0 .89.4.89.889h10.666c0-.489.4-.889.89-.889v-10.667a.891.891 0 0 1-.89-.889zm-7.112 2.666v3.111c0 .249-.195.445-.444.445s-.445-.196-.445-.445v-3.111h-1.333c-.249 0-.444-.196-.444-.445s.195-.444.444-.444h3.556c.248 0 .444.196.444.445s-.196.444-.444.444zm-5.333-3.556v.89h.889v-.89zm13.333 0v.89h.889v-.89zm0 13.334v.889h.889v-.89zm-13.333 0v.889h.889v-.89zm8.444-9.778c-.249 0-.444-.196-.444-.445s.195-.444.444-.444h2.667c.249 0 .444.196.444.444s-.195.445-.444.445zm0 2.667a.44.44 0 0 1-.444-.445.44.44 0 0 1 .444-.444h2.667a.44.44 0 0 1 .444.444.44.44 0 0 1-.444.445zm-5.333 2.666a.44.44 0 0 1-.444-.444.44.44 0 0 1 .444-.445h8a.44.44 0 0 1 .444.445.44.44 0 0 1-.444.444zm0 2.667c-.249 0-.444-.196-.444-.445s.195-.444.444-.444h8c.249 0 .444.196.444.445s-.195.444-.444.444z" fill="#c0e0ff"/></g></svg>