<svg height="25" viewBox="-850.774 -3167.932 25 25" width="25" xmlns="http://www.w3.org/2000/svg"><g fill="none"><path d="m-846.4341-3167.4315h16.32c2.1208 0 3.84 1.7192 3.84 3.84v16.32c0 2.1208-1.7192 3.84-3.84 3.84h-16.32c-2.1208 0-3.84-1.7192-3.84-3.84v-16.32c0-2.1208 1.7192-3.84 3.84-3.84z" fill="#666"/><path d="m-846.4341-3167.4315h16.32c2.1208 0 3.84 1.7192 3.84 3.84v16.32c0 2.1208-1.7192 3.84-3.84 3.84h-16.32c-2.1208 0-3.84-1.7192-3.84-3.84v-16.32c0-2.1208 1.7192-3.84 3.84-3.84z" stroke="#fff" stroke-linecap="round" stroke-linejoin="round" stroke-width=".25"/><path d="m-832.9408-3162.5426c0-.4889.4-.8889.8889-.8889h.8889c.4889 0 .8889.4.8889.8889v.8889c0 .4887-.4.8887-.8889.8887v10.667c.4889 0 .8889.4.8889.8887v.8889c0 .4889-.4.8889-.8889.8889h-.8889c-.4889 0-.8889-.4-.8889-.8889h-10.6666c0 .4889-.4.8889-.8889.8889h-.8889c-.4889 0-.8889-.4-.8889-.8889v-.8889c0-.4887.4-.8887.8889-.8887v-10.667c-.4889 0-.8889-.4-.8889-.8887v-.8889c0-.4889.4-.8889.8889-.8889h.8889c.4889 0 .8889.4.8889.8889zm0 .8889h-10.6666c0 .4887-.4.8887-.8889.8887v10.667c.4889 0 .8889.4.8889.8887h10.6666c0-.4887.4-.8887.8889-.8887v-10.667c-.4889 0-.8889-.4-.8889-.8887zm-7.1111 2.6667v3.111c0 .249-.1955.4445-.4444.4445s-.4445-.1955-.4445-.4445v-3.111h-1.3333c-.2489 0-.4444-.1956-.4444-.4445s.1955-.4445.4444-.4445h3.5556c.2488 0 .4444.1956.4444.4445s-.1956.4445-.4444.4445zm-5.3333-3.5556v.8889h.8889v-.8889zm13.3333 0v.8889h.8889v-.8889zm0 13.3333v.8889h.8889v-.8889zm-13.3333 0v.8889h.8889v-.8889zm8.4444-9.7777c-.2489 0-.4444-.1956-.4444-.4445s.1955-.4445.4444-.4445h2.6667c.2489 0 .4444.1956.4444.4445s-.1955.4445-.4444.4445zm0 2.6666c-.2489 0-.4444-.1956-.4444-.4446 0-.2487.1955-.4443.4444-.4443h2.6667c.2489 0 .4444.1956.4444.4443 0 .249-.1955.4446-.4444.4446zm-5.3333 2.6667c-.2489 0-.4444-.1956-.4444-.4443 0-.249.1955-.4446.4444-.4446h8c.2489 0 .4444.1956.4444.4446 0 .2487-.1955.4443-.4444.4443zm0 2.6667c-.2489 0-.4444-.1956-.4444-.4445s.1955-.4445.4444-.4445h8c.2489 0 .4444.1956.4444.4445s-.1955.4445-.4444.4445z" fill="#c0e0ff"/></g></svg>