<svg height="25" viewBox="-94.774 -3167.932 25 25" width="25" xmlns="http://www.w3.org/2000/svg"><g fill="none"><path d="m-90.4341-3167.4315h16.32c2.12077 0 3.84 1.7192 3.84 3.84v16.32c0 2.1208-1.71923 3.84-3.84 3.84h-16.32c-2.12077 0-3.84-1.7192-3.84-3.84v-16.32c0-2.1208 1.71923-3.84 3.84-3.84z" fill="#666"/><path d="m-90.4341-3167.4315h16.32c2.12077 0 3.84 1.7192 3.84 3.84v16.32c0 2.1208-1.71923 3.84-3.84 3.84h-16.32c-2.12077 0-3.84-1.7192-3.84-3.84v-16.32c0-2.1208 1.71923-3.84 3.84-3.84z" stroke="#fff" stroke-linecap="round" stroke-linejoin="round" stroke-width=".25"/><path d="m-76.05188-3160.765v11.1113c0 1.2273-.99492 2.2222-2.22222 2.2222h-8c-1.2273 0-2.22222-.9949-2.22222-2.2222v-11.1113h-.44445c-.24546 0-.44444-.199-.44444-.4443 0-.2454.19898-.4444.44444-.4444h4v-.4443c0-.7366.59696-1.3335 1.33334-1.3335h2.66666c.73638 0 1.33334.5969 1.33334 1.3335v.4443h4c.24546 0 .44444.199.44444.4444 0 .2453-.19898.4443-.44444.4443zm-11.55555 0v11.1113c0 .7364.59695 1.3333 1.33333 1.3333h8c.73638 0 1.33333-.5969 1.33333-1.3333v-11.1113zm7.11111-.8887v-.4443c0-.2456-.19899-.4446-.44445-.4446h-2.66666c-.24546 0-.44445.199-.44445.4446v.4443zm0 4c0-.2453.19898-.4443.44444-.4443s.44445.199.44445.4443v6.2222c0 .2455-.19899.4445-.44445.4445s-.44444-.199-.44444-.4445zm-4.44445 0c0-.2453.19899-.4443.44445-.4443s.44444.199.44444.4443v6.2222c0 .2455-.19898.4445-.44444.4445s-.44445-.199-.44445-.4445z" fill="#c0e0ff"/></g></svg>