<svg height="25" viewBox="-94.774 -3167.932 25 25" width="25" xmlns="http://www.w3.org/2000/svg"><g fill="none"><path d="M-90.434-3167.432h16.32a3.84 3.84 0 0 1 3.84 3.84v16.32a3.84 3.84 0 0 1-3.84 3.84h-16.32a3.84 3.84 0 0 1-3.84-3.84v-16.32a3.84 3.84 0 0 1 3.84-3.84z" fill="#666"/><path d="M-90.434-3167.432h16.32a3.84 3.84 0 0 1 3.84 3.84v16.32a3.84 3.84 0 0 1-3.84 3.84h-16.32a3.84 3.84 0 0 1-3.84-3.84v-16.32a3.84 3.84 0 0 1 3.84-3.84z" stroke="#fff" stroke-linecap="round" stroke-linejoin="round" stroke-width=".25"/><path d="M-76.052-3160.765v11.111a2.222 2.222 0 0 1-2.222 2.223h-8a2.222 2.222 0 0 1-2.222-2.223v-11.111h-.445a.444.444 0 1 1 0-.889h4v-.444c0-.737.597-1.333 1.334-1.333h2.666c.737 0 1.334.596 1.334 1.333v.444h4a.444.444 0 0 1 0 .889zm-11.555 0v11.111c0 .737.597 1.334 1.333 1.334h8c.736 0 1.333-.597 1.333-1.334v-11.111zm7.11-.889v-.444a.444.444 0 0 0-.444-.445h-2.666a.444.444 0 0 0-.445.445v.444zm0 4a.444.444 0 0 1 .89 0v6.223a.444.444 0 1 1-.89 0zm-4.444 0a.444.444 0 0 1 .89 0v6.223a.444.444 0 1 1-.89 0z" fill="#c0e0ff"/></g></svg>