<svg height="25" viewBox="-274.774 -3167.932 25 25" width="25" xmlns="http://www.w3.org/2000/svg"><g fill="none"><path d="m-270.4341-3167.4315h16.32c2.12077 0 3.84 1.7192 3.84 3.84v16.32c0 2.1208-1.71923 3.84-3.84 3.84h-16.32c-2.12077 0-3.84-1.7192-3.84-3.84v-16.32c0-2.1208 1.71923-3.84 3.84-3.84z" fill="#666"/><path d="m-270.4341-3167.4315h16.32c2.12077 0 3.84 1.7192 3.84 3.84v16.32c0 2.1208-1.71923 3.84-3.84 3.84h-16.32c-2.12077 0-3.84-1.7192-3.84-3.84v-16.32c0-2.1208 1.71923-3.84 3.84-3.84z" stroke="#fff" stroke-linecap="round" stroke-linejoin="round" stroke-width=".25"/><path d="m-257.82966-3151.96 3.42223 3.422c.17777.178.17777.4535 0 .6313-.17777.1777-.45334.1777-.63111 0l-3.42223-3.4223c-1.25333 1.111-2.89777 1.778-4.70223 1.778-3.92888 0-7.1111-3.1824-7.1111-7.1113 0-3.9287 3.18222-7.1111 7.1111-7.1111 3.9289 0 7.11112 3.1824 7.11112 7.1111 0 1.8043-.67555 3.4489-1.77778 4.7023zm-5.33334 1.52c3.44 0 6.22223-2.7823 6.22223-6.2223s-2.78223-6.2222-6.22223-6.2222-6.2222 2.7822-6.2222 6.2222 2.7822 6.2223 6.2222 6.2223z" fill="#c0e0ff"/></g></svg>