<svg height="25" viewBox="-706.774 -3167.932 25 25" width="25" xmlns="http://www.w3.org/2000/svg"><g fill="none"><path d="m-702.4341-3167.4315h16.32c2.1208 0 3.84 1.7192 3.84 3.84v16.32c0 2.1208-1.7192 3.84-3.84 3.84h-16.32c-2.1208 0-3.84-1.7192-3.84-3.84v-16.32c0-2.1208 1.7192-3.84 3.84-3.84z" fill="#666"/><path d="m-702.4341-3167.4315h16.32c2.1208 0 3.84 1.7192 3.84 3.84v16.32c0 2.1208-1.7192 3.84-3.84 3.84h-16.32c-2.1208 0-3.84-1.7192-3.84-3.84v-16.32c0-2.1208 1.7192-3.84 3.84-3.84z" stroke="#fff" stroke-linecap="round" stroke-linejoin="round" stroke-width=".25"/><path d="m-693.07665-3155.9997 2.1208-2.1208c.16005-.1601.40815-.1601.56825 0 .16.16.16.4081 0 .5682l-2.1208 2.1208 2.1208 2.1208c.16.16.16.4081 0 .5682-.1601.1601-.4082.1601-.56825 0l-2.1208-2.1208-2.12079 2.1208c-.16006.1601-.40816.1601-.56822 0-.16004-.1601-.16004-.4082 0-.5682l2.12076-2.1208-2.12076-2.1208c-.16004-.1601-.16004-.4082 0-.5682.16006-.1601.40816-.1601.56822 0zm-4.97785 4.5377c.2241.272.5682.432.9203.432h8.85135c.66425 0 1.20045-.536 1.20045-1.2003v-6.4024c0-.6643-.5362-1.2003-1.20045-1.2003h-8.84335c-.3601 0-.6962.16-.9203.432l-3.31325 3.9695zm-4.1296-4.2256 3.52136-4.2254c.37614-.4564.94434-.7205 1.53654-.7205h8.85135c1.10445 0 2.00075.8965 2.00075 2.0008v6.4024c0 1.1043-.8963 2.0007-2.00075 2.0007h-8.85135c-.5922 0-1.1604-.2641-1.53654-.7204l-3.52136-4.2254c-.12-.1521-.12-.3601 0-.5122z" fill="#fc6d7e"/></g></svg>