<svg height="25" viewBox="-562.774 -3167.932 25 25" width="25" xmlns="http://www.w3.org/2000/svg"><g fill="none"><path d="m-558.4341-3167.4315h16.32c2.1208 0 3.84 1.7192 3.84 3.84v16.32c0 2.1208-1.7192 3.84-3.84 3.84h-16.32c-2.1208 0-3.84-1.7192-3.84-3.84v-16.32c0-2.1208 1.7192-3.84 3.84-3.84z" fill="#666"/><path d="m-558.4341-3167.4315h16.32c2.1208 0 3.84 1.7192 3.84 3.84v16.32c0 2.1208-1.7192 3.84-3.84 3.84h-16.32c-2.1208 0-3.84-1.7192-3.84-3.84v-16.32c0-2.1208 1.7192-3.84 3.84-3.84z" stroke="#fff" stroke-linecap="round" stroke-linejoin="round" stroke-width=".25"/><path d="m-553.82966-3150.556h-4c-.24888 0-.44444-.1955-.44444-.4444s.19556-.4446.44444-.4446h4v-.8887c0-.4889.4-.8889.88889-.8889h1.77777c.4889 0 .8889.4.8889.8889v.8887h7.55556c.24888 0 .44444.1957.44444.4446s-.19556.4444-.44444.4444h-7.55556v.9156c0 .4889-.4.8889-.8889.8889h-1.77777c-.48889 0-.88889-.4-.88889-.8889zm5.33336-4.4444h-9.33336c-.24888 0-.44444-.1956-.44444-.4446 0-.2487.19556-.4443.44444-.4443h9.33336v-.8887c0-.489.4-.889.88887-.889h1.77777c.48889 0 .88889.4.88889.889v.8887h2.22223c.24888 0 .44444.1956.44444.4443 0 .249-.19556.4446-.44444.4446h-2.22223v.9154c0 .489-.4.889-.88889.889h-1.77777c-.48887 0-.88887-.4-.88887-.889zm-8-4.4446h-1.33336c-.24888 0-.44444-.1954-.44444-.4443 0-.2487.19556-.4444.44444-.4444h1.33336v-.8889c0-.4889.4-.8889.88887-.8889h1.77777c.48889 0 .88889.4.88889.8889v.8889h10.22223c.24888 0 .44444.1957.44444.4444 0 .2489-.19556.4443-.44444.4443h-10.22223v.9157c0 .4889-.4.8889-.88889.8889h-1.77777c-.48887 0-.88887-.4-.88887-.8889zm.88887-1.7776v2.6933h1.77777v-2.6933zm8 4.4446v2.693h1.77777v-2.693zm-5.33334 4.4443v2.6933h1.77777v-2.6933z" fill="#c0e0ff"/></g></svg>