<?xml version="1.0" encoding="UTF-8" standalone="no"?>
<!DOCTYPE svg PUBLIC "-//W3C//DTD SVG 1.1//EN" "http://www.w3.org/Graphics/SVG/1.1/DTD/svg11.dtd">
<svg xmlns="http://www.w3.org/2000/svg" xmlns:xl="http://www.w3.org/1999/xlink" version="1.1" xmlns:dc="http://purl.org/dc/elements/1.1/" viewBox="-814.7741 -3167.9315 25 25" width="25" height="25">
  <defs/>
  <g id="SOURCES" stroke-opacity="1" fill="none" stroke="none" fill-opacity="1" stroke-dasharray="none">
    <title>SOURCES</title>
    <g id="SOURCES_Dark">
      <title>Dark</title>
      <g id="Graphic_11337">
        <path d="M -810.4341 -3167.4315 L -794.1141 -3167.4315 C -791.9933 -3167.4315 -790.2741 -3165.7123 -790.2741 -3163.5915 L -790.2741 -3147.2715 C -790.2741 -3145.1507 -791.9933 -3143.4315 -794.1141 -3143.4315 L -810.4341 -3143.4315 C -812.5549 -3143.4315 -814.2741 -3145.1507 -814.2741 -3147.2715 L -814.2741 -3163.5915 C -814.2741 -3165.7123 -812.5549 -3167.4315 -810.4341 -3167.4315 Z" fill="#666"/>
        <path d="M -810.4341 -3167.4315 L -794.1141 -3167.4315 C -791.9933 -3167.4315 -790.2741 -3165.7123 -790.2741 -3163.5915 L -790.2741 -3147.2715 C -790.2741 -3145.1507 -791.9933 -3143.4315 -794.1141 -3143.4315 L -810.4341 -3143.4315 C -812.5549 -3143.4315 -814.2741 -3145.1507 -814.2741 -3147.2715 L -814.2741 -3163.5915 C -814.2741 -3165.7123 -812.5549 -3167.4315 -810.4341 -3167.4315 Z" stroke="white" stroke-linecap="round" stroke-linejoin="round" stroke-width=".25"/>
      </g>
      <g id="Graphic_11336">
        <path d="M -798.42065 -3160.8007 C -801.17635 -3162.0006 -804.5025 -3161.4736 -806.756 -3159.22 C -809.6977 -3156.2783 -809.6977 -3151.5093 -806.756 -3148.568 C -806.0561 -3147.866 -805.2241 -3147.3098 -804.308 -3146.931 L -803.7846 -3148.1643 C -804.5424 -3148.4756 -805.23065 -3148.9347 -805.8092 -3149.5148 C -808.2279 -3151.933 -808.2279 -3155.8545 -805.8092 -3158.273 C -803.9533 -3160.129 -801.2121 -3160.561 -798.9441 -3159.568 Z" fill="#ccc"/>
      </g>
      <g id="Graphic_11335">
        <path d="M -797.9386 -3148.1518 L -796.5162 -3148.1518 L -796.5162 -3152.7714 L -801.388 -3152.7714 L -801.388 -3151.4225 L -797.9386 -3151.4225 Z" fill="#ccc"/>
      </g>
      <g id="Graphic_11334">
        <path d="M -798.6155 -3151.4936 C -799.7129 -3150.2295 -801.5248 -3149.8647 -803.0259 -3150.6055 C -804.527 -3151.3463 -805.3396 -3153.0064 -805.0038 -3154.6463 C -804.668 -3156.2863 -803.2684 -3157.4934 -801.5969 -3157.5846 L -801.5969 -3158.925 C -802.8587 -3158.8765 -804.0555 -3158.3526 -804.9472 -3157.4585 C -806.9075 -3155.4974 -806.9075 -3152.3183 -804.9472 -3150.357 C -802.986 -3148.396 -799.8065 -3148.396 -797.8458 -3150.357 C -797.5003 -3150.7026 -797.2155 -3151.086 -796.9918 -3151.4936 Z" fill="#ccc"/>
      </g>
      <g id="Graphic_11333">
        <path d="M -793.0836 -3159.492 C -793.4464 -3160.03 -793.86015 -3160.5317 -794.3192 -3160.9903 C -798.2415 -3164.9126 -804.5997 -3164.9126 -808.5219 -3160.9903 C -811.6384 -3157.874 -812.2783 -3153.219 -810.4421 -3149.4702 L -809.2787 -3150.142 C -810.8213 -3153.376 -810.2533 -3157.3653 -807.5751 -3160.044 C -804.1759 -3163.4427 -798.6653 -3163.4427 -795.2661 -3160.044 C -794.8832 -3159.6607 -794.5434 -3159.251 -794.2469 -3158.8207 Z" fill="#ccc"/>
      </g>
    </g>
  </g>
</svg>
