<svg height="25" viewBox="-382.774 -3167.932 25 25" width="25" xmlns="http://www.w3.org/2000/svg"><g fill="none"><path d="M-378.434-3167.432h16.32a3.84 3.84 0 0 1 3.84 3.84v16.32a3.84 3.84 0 0 1-3.84 3.84h-16.32a3.84 3.84 0 0 1-3.84-3.84v-16.32a3.84 3.84 0 0 1 3.84-3.84z" fill="#666"/><path d="M-378.434-3167.432h16.32a3.84 3.84 0 0 1 3.84 3.84v16.32a3.84 3.84 0 0 1-3.84 3.84h-16.32a3.84 3.84 0 0 1-3.84-3.84v-16.32a3.84 3.84 0 0 1 3.84-3.84z" stroke="#fff" stroke-linecap="round" stroke-linejoin="round" stroke-width=".25"/><path d="M-376.274-3152.232a.4.4 0 0 1 .4.4v2.4a1.2 1.2 0 0 0 1.2 1.2h8.8a1.2 1.2 0 0 0 1.2-1.2v-9.999h-2.8a.4.4 0 0 1-.4-.4v-2.8h-6.8a1.2 1.2 0 0 0-1.2 1.2v1.6a.4.4 0 0 1-.8 0v-1.6a2 2 0 0 1 2-2h7.177a.392.392 0 0 1 .305.117l3.2 3.2a.391.391 0 0 1 .117.306v10.377a2 2 0 0 1-2 2h-8.8a2 2 0 0 1-2-2v-2.401a.4.4 0 0 1 .4-.4zm9.2-9.833v1.834h1.834zm-2.966 5.833l-1.717-1.717a.4.4 0 1 1 .565-.566l2.4 2.4a.4.4 0 0 1 0 .566l-2.4 2.4a.4.4 0 0 1-.565-.566l1.717-1.717h-6.234a.4.4 0 1 1 0-.8z" fill="#8eed62"/></g></svg>