<svg height="25" viewBox="-454.774 -3167.932 25 25" width="25" xmlns="http://www.w3.org/2000/svg"><g fill="none"><path d="m-450.4341-3167.4315h16.32c2.12077 0 3.84 1.7192 3.84 3.84v16.32c0 2.1208-1.71923 3.84-3.84 3.84h-16.32c-2.1208 0-3.84-1.7192-3.84-3.84v-16.32c0-2.1208 1.7192-3.84 3.84-3.84z" fill="#666"/><path d="m-450.4341-3167.4315h16.32c2.12077 0 3.84 1.7192 3.84 3.84v16.32c0 2.1208-1.71923 3.84-3.84 3.84h-16.32c-2.1208 0-3.84-1.7192-3.84-3.84v-16.32c0-2.1208 1.7192-3.84 3.84-3.84z" stroke="#fff" stroke-linecap="round" stroke-linejoin="round" stroke-width=".25"/><path d="m-435.2153-3160.608c0-.2635.2071-.4706.4706-.4706.26354 0 .4706.2071.4706.4706v4.706c0 .2634-.20706.4705-.4706.4705h-4.70587c-.26353 0-.47059-.2071-.47059-.4705 0-.2636.20706-.4707.47059-.4707h4.23527zm-14.1176 10.353c0 .2635-.2165.4706-.4706.4706-.26354 0-.4706-.2166-.4706-.4706 0-1.167 0-1.7694.0094-1.8824.2447-4.48 3.96236-8 8.4612-8h.2635c2.9271 0 5.63766 1.5059 7.1906 3.9906.1412.2165.0753.5082-.1506.6494-.21645.1412-.5082.0754-.6494-.1506-1.3741-2.2023-3.79294-3.5388-6.3906-3.5388h-.2635c-4 0-7.30354 3.1341-7.52 7.1058 0 .0848 0 .7154-.0094 1.8354z" fill="#8eed62"/></g></svg>