<svg height="25" viewBox="-130.774 -3167.932 25 25" width="25" xmlns="http://www.w3.org/2000/svg"><g fill="none"><path d="M-126.434-3167.432h16.32a3.84 3.84 0 0 1 3.84 3.84v16.32a3.84 3.84 0 0 1-3.84 3.84h-16.32a3.84 3.84 0 0 1-3.84-3.84v-16.32a3.84 3.84 0 0 1 3.84-3.84z" fill="#666"/><path d="M-126.434-3167.432h16.32a3.84 3.84 0 0 1 3.84 3.84v16.32a3.84 3.84 0 0 1-3.84 3.84h-16.32a3.84 3.84 0 0 1-3.84-3.84v-16.32a3.84 3.84 0 0 1 3.84-3.84z" stroke="#fff" stroke-linecap="round" stroke-linejoin="round" stroke-width=".25"/><path d="M-126.274-3161.326c0-1.162.943-2.105 2.105-2.105h11.79c1.162 0 2.105.943 2.105 2.105v11.79a2.106 2.106 0 0 1-2.105 2.105h-11.79a2.106 2.106 0 0 1-2.105-2.106zm.842 0v11.79c0 .698.564 1.262 1.263 1.262h11.79c.699 0 1.263-.564 1.263-1.263v-11.79c0-.698-.564-1.262-1.263-1.262h-11.79c-.699 0-1.263.564-1.263 1.263z" fill="#8eed62"/><path d="M-115.52-3152.324a4.385 4.385 0 0 0 1.65-3.444 4.415 4.415 0 0 0-4.135-4.405.28.28 0 0 1-.26-.294.28.28 0 0 1 .294-.261 4.961 4.961 0 0 1 4.657 4.951c0 1.524-.69 2.93-1.844 3.857h1.566a.28.28 0 0 1 .278.278.28.28 0 0 1-.278.278h-2.206a.28.28 0 0 1-.278-.278v-2.206c0-.152.126-.278.278-.278s.278.126.278.278v1.515zm-5.508-6.889a4.385 4.385 0 0 0-1.65 3.445 4.413 4.413 0 0 0 4.16 4.404c.151.008.27.135.26.295a.276.276 0 0 1-.294.26 4.958 4.958 0 0 1-4.674-4.951c0-1.524.69-2.93 1.845-3.857h-1.567a.28.28 0 0 1-.278-.278.28.28 0 0 1 .278-.278h2.207a.28.28 0 0 1 .277.278v2.207c0 .151-.126.278-.277.278s-.278-.127-.278-.278v-1.516z" fill="#8eed62"/><path d="M-115.52-3152.324a4.385 4.385 0 0 0 1.65-3.444 4.415 4.415 0 0 0-4.135-4.405.28.28 0 0 1-.26-.294.28.28 0 0 1 .294-.261 4.961 4.961 0 0 1 4.657 4.951c0 1.524-.69 2.93-1.844 3.857h1.566a.28.28 0 0 1 .278.278.28.28 0 0 1-.278.278h-2.206a.28.28 0 0 1-.278-.278v-2.206c0-.152.126-.278.278-.278s.278.126.278.278v1.515zm-5.508-6.889a4.385 4.385 0 0 0-1.65 3.445 4.413 4.413 0 0 0 4.16 4.404c.151.008.27.135.26.295a.276.276 0 0 1-.294.26 4.958 4.958 0 0 1-4.674-4.951c0-1.524.69-2.93 1.845-3.857h-1.567a.28.28 0 0 1-.278-.278.28.28 0 0 1 .278-.278h2.207a.28.28 0 0 1 .277.278v2.207c0 .151-.126.278-.277.278s-.278-.127-.278-.278v-1.516z" stroke="#518737" stroke-linejoin="round" stroke-width=".25"/></g></svg>