<svg height="25" viewBox="-166.774 -3167.932 25 25" width="25" xmlns="http://www.w3.org/2000/svg" xmlns:xlink="http://www.w3.org/1999/xlink"><clipPath id="a"><path d="m-166.7741-3167.9315h25v25h-25zm5.37156 12.2742h.00941c1.3736-2.2017 3.79153-3.5375 6.3882-3.5375h.26343c3.9985 0 7.3008 3.1235 7.5172 7.1032.0094.0846.0094.715.0094 1.8346 0 .2635.20698.4704.47042.4704.26343 0 .47041-.2069.47041-.4704 0-1.1666-.00941-1.7687-.00941-1.8816-.24462-4.4784-3.96087-7.997-8.45802-7.997h-.26343c-2.92597 0-5.64495 1.5053-7.19731 3.9796-.14112.226-.06586.508.15054.6492.2258.1412.50804.0658.64916-.1505zm4.30898-.715h-4.23371v-4.2337c0-.2635-.20698-.4705-.47041-.4705-.26344 0-.47042.207-.47042.4705v4.704c0 .2635.20698.4705.47042.4705h4.70412c.26343 0 .47041-.207.47041-.4705 0-.2633-.20698-.4703-.47041-.4703z"/></clipPath><g fill="none"><path d="m-162.4341-3167.4315h16.32c2.12077 0 3.84 1.7192 3.84 3.84v16.32c0 2.1208-1.71923 3.84-3.84 3.84h-16.32c-2.12077 0-3.84-1.7192-3.84-3.84v-16.32c0-2.1208 1.71923-3.84 3.84-3.84z" fill="#666"/><path d="m-162.4341-3167.4315h16.32c2.12077 0 3.84 1.7192 3.84 3.84v16.32c0 2.1208-1.71923 3.84-3.84 3.84h-16.32c-2.12077 0-3.84-1.7192-3.84-3.84v-16.32c0-2.1208 1.71923-3.84 3.84-3.84z" stroke="#fff" stroke-linecap="round" stroke-linejoin="round" stroke-width=".25"/><path d="m-161.40254-3155.6573c-.14112.2163-.42336.2917-.64916.1505-.2164-.1412-.29166-.4232-.15054-.6492 1.55236-2.4743 4.27134-3.9796 7.19731-3.9796h.26343c4.49715 0 8.2134 3.5186 8.45802 7.997 0 .1129.00941.715.00941 1.8816 0 .2635-.20698.4704-.47041.4704-.26344 0-.47042-.2069-.47042-.4704 0-1.1196 0-1.75-.0094-1.8346-.2164-3.9797-3.5187-7.1032-7.5172-7.1032h-.26343c-2.59667 0-5.0146 1.3358-6.3882 3.5375zm4.30898-.715c.26343 0 .47041.207.47041.4703 0 .2635-.20698.4705-.47041.4705h-4.70412c-.26344 0-.47042-.207-.47042-.4705v-4.704c0-.2635.20698-.4705.47042-.4705.26343 0 .47041.207.47041.4705v4.2337z" fill="#666"/><path clip-path="url(#a)" d="m-161.40254-3155.6573c-.14112.2163-.42336.2917-.64916.1505-.2164-.1412-.29166-.4232-.15054-.6492 1.55236-2.4743 4.27134-3.9796 7.19731-3.9796h.26343c4.49715 0 8.2134 3.5186 8.45802 7.997 0 .1129.00941.715.00941 1.8816 0 .2635-.20698.4704-.47041.4704-.26344 0-.47042-.2069-.47042-.4704 0-1.1196 0-1.75-.0094-1.8346-.2164-3.9797-3.5187-7.1032-7.5172-7.1032h-.26343c-2.59667 0-5.0146 1.3358-6.3882 3.5375zm4.30898-.715c.26343 0 .47041.207.47041.4703 0 .2635-.20698.4705-.47041.4705h-4.70412c-.26344 0-.47042-.207-.47042-.4705v-4.704c0-.2635.20698-.4705.47042-.4705.26343 0 .47041.207.47041.4705v4.2337z" stroke="#fc6c7e" stroke-linejoin="round" stroke-width="2"/></g></svg>