<?xml version="1.0" encoding="UTF-8" standalone="no"?>
<!DOCTYPE svg PUBLIC "-//W3C//DTD SVG 1.1//EN" "http://www.w3.org/Graphics/SVG/1.1/DTD/svg11.dtd">
<svg xmlns="http://www.w3.org/2000/svg" xmlns:xl="http://www.w3.org/1999/xlink" version="1.1" xmlns:dc="http://purl.org/dc/elements/1.1/" viewBox="-346.7741 -3167.9315 25 25" width="25" height="25">
  <defs/>
  <g id="SOURCES" stroke-opacity="1" fill="none" stroke="none" fill-opacity="1" stroke-dasharray="none">
    <title>SOURCES</title>
    <g id="SOURCES_Dark">
      <title>Dark</title>
      <g id="Graphic_11736">
        <title>views/view.other</title>
        <path d="M -342.4341 -3167.4315 L -326.1141 -3167.4315 C -323.99333 -3167.4315 -322.2741 -3165.7123 -322.2741 -3163.5915 L -322.2741 -3147.2715 C -322.2741 -3145.1507 -323.99333 -3143.4315 -326.1141 -3143.4315 L -342.4341 -3143.4315 C -344.55487 -3143.4315 -346.2741 -3145.1507 -346.2741 -3147.2715 L -346.2741 -3163.5915 C -346.2741 -3165.7123 -344.55487 -3167.4315 -342.4341 -3167.4315 Z" fill="#666"/>
        <path d="M -342.4341 -3167.4315 L -326.1141 -3167.4315 C -323.99333 -3167.4315 -322.2741 -3165.7123 -322.2741 -3163.5915 L -322.2741 -3147.2715 C -322.2741 -3145.1507 -323.99333 -3143.4315 -326.1141 -3143.4315 L -342.4341 -3143.4315 C -344.55487 -3143.4315 -346.2741 -3145.1507 -346.2741 -3147.2715 L -346.2741 -3163.5915 C -346.2741 -3165.7123 -344.55487 -3167.4315 -342.4341 -3167.4315 Z" stroke="white" stroke-linecap="round" stroke-linejoin="round" stroke-width=".25"/>
      </g>
      <g id="Graphic_11735">
        <path d="M -341.25827 -3153.267 C -341.03737 -3153.267 -340.8583 -3153.088 -340.8583 -3152.867 L -340.8583 -3150.4664 C -340.8583 -3149.8037 -340.32106 -3149.2665 -339.65836 -3149.2665 L -330.8588 -3149.2665 C -330.1961 -3149.2665 -329.65887 -3149.8037 -329.65887 -3150.4664 L -329.65887 -3160.466 L -332.45872 -3160.466 C -332.67963 -3160.466 -332.8587 -3160.645 -332.8587 -3160.866 L -332.8587 -3163.6658 L -339.65836 -3163.6658 C -340.32106 -3163.6658 -340.8583 -3163.1285 -340.8583 -3162.4658 L -340.8583 -3160.8667 C -340.8583 -3160.6458 -341.03737 -3160.4667 -341.25827 -3160.4667 C -341.47918 -3160.4667 -341.65825 -3160.6458 -341.65825 -3160.8667 L -341.65825 -3162.4658 C -341.65825 -3163.5703 -340.76287 -3164.4657 -339.65836 -3164.4657 L -332.4811 -3164.4657 C -332.3749 -3164.4724 -332.26438 -3164.437 -332.1759 -3164.3486 L -328.97606 -3161.1487 C -328.88758 -3161.0602 -328.85217 -3160.9497 -328.8589 -3160.8435 L -328.8589 -3150.4664 C -328.8589 -3149.362 -329.7543 -3148.4665 -330.8588 -3148.4665 L -339.65836 -3148.4665 C -340.76287 -3148.4665 -341.65825 -3149.362 -341.65825 -3150.4664 L -341.65825 -3152.867 C -341.65825 -3153.088 -341.47918 -3153.267 -341.25827 -3153.267 Z M -332.05875 -3163.1 L -332.05875 -3161.266 L -330.22452 -3161.266 Z M -335.02428 -3157.267 L -336.74135 -3158.984 C -336.89755 -3159.14 -336.89755 -3159.3934 -336.74135 -3159.5496 C -336.58515 -3159.7058 -336.3319 -3159.7058 -336.1757 -3159.5496 L -333.7758 -3157.1497 C -333.6196 -3156.9935 -333.6196 -3156.7403 -333.7758 -3156.584 L -336.1757 -3154.184 C -336.3319 -3154.028 -336.58515 -3154.028 -336.74135 -3154.184 C -336.89755 -3154.3404 -336.89755 -3154.5936 -336.74135 -3154.75 L -335.02428 -3156.467 L -341.25827 -3156.467 C -341.47918 -3156.467 -341.65825 -3156.646 -341.65825 -3156.867 C -341.65825 -3157.0878 -341.47918 -3157.267 -341.25827 -3157.267 Z" fill="#8eed62"/>
      </g>
      <g id="Graphic_11734">
        <path d="M -339.69 -3148.374 C -339.678 -3147.28 -338.78727 -3146.3965 -337.6902 -3146.3965 L -328.89065 -3146.3965 C -327.78613 -3146.3965 -326.89075 -3147.292 -326.89075 -3148.3964 L -326.89075 -3158.7735 C -326.884 -3158.8797 -326.9194 -3158.9902 -327.0079 -3159.0787 L -328.74177 -3160.8126 L -328.74177 -3159.6813 L -328.25637 -3159.196 L -328.74177 -3159.196 L -328.74177 -3158.396 L -327.6907 -3158.396 L -327.6907 -3148.3964 C -327.6907 -3147.7337 -328.22794 -3147.1965 -328.89065 -3147.1965 L -337.6902 -3147.1965 C -338.34546 -3147.1965 -338.87804 -3147.7217 -338.88994 -3148.374 Z" fill="#8eed62"/>
      </g>
    </g>
  </g>
</svg>
