<?xml version="1.0" encoding="UTF-8" standalone="no"?>
<!DOCTYPE svg PUBLIC "-//W3C//DTD SVG 1.1//EN" "http://www.w3.org/Graphics/SVG/1.1/DTD/svg11.dtd">
<svg xmlns="http://www.w3.org/2000/svg" xmlns:xl="http://www.w3.org/1999/xlink" version="1.1" xmlns:dc="http://purl.org/dc/elements/1.1/" viewBox="-670.7741 -3167.9315 25 25" width="25" height="25">
  <defs/>
  <g id="SOURCES" stroke-opacity="1" fill="none" stroke="none" fill-opacity="1" stroke-dasharray="none">
    <title>SOURCES</title>
    <g id="SOURCES_Dark">
      <title>Dark</title>
      <g id="Graphic_11314">
        <path d="M -666.4341 -3167.4315 L -650.1141 -3167.4315 C -647.9933 -3167.4315 -646.2741 -3165.7123 -646.2741 -3163.5915 L -646.2741 -3147.2715 C -646.2741 -3145.1507 -647.9933 -3143.4315 -650.1141 -3143.4315 L -666.4341 -3143.4315 C -668.5549 -3143.4315 -670.2741 -3145.1507 -670.2741 -3147.2715 L -670.2741 -3163.5915 C -670.2741 -3165.7123 -668.5549 -3167.4315 -666.4341 -3167.4315 Z" fill="#666"/>
        <path d="M -666.4341 -3167.4315 L -650.1141 -3167.4315 C -647.9933 -3167.4315 -646.2741 -3165.7123 -646.2741 -3163.5915 L -646.2741 -3147.2715 C -646.2741 -3145.1507 -647.9933 -3143.4315 -650.1141 -3143.4315 L -666.4341 -3143.4315 C -668.5549 -3143.4315 -670.2741 -3145.1507 -670.2741 -3147.2715 L -670.2741 -3163.5915 C -670.2741 -3165.7123 -668.5549 -3167.4315 -666.4341 -3167.4315 Z" stroke="white" stroke-linecap="round" stroke-linejoin="round" stroke-width=".25"/>
      </g>
      <g id="Graphic_11313">
        <path d="M -666.2741 -3160.8134 C -666.2741 -3161.9755 -665.3309 -3162.9187 -664.1688 -3162.9187 L -652.37936 -3162.9187 C -651.21725 -3162.9187 -650.2741 -3161.9755 -650.2741 -3160.8134 L -650.2741 -3149.024 C -650.2741 -3147.862 -651.21725 -3146.9187 -652.37936 -3146.9187 L -664.1688 -3146.9187 C -665.3309 -3146.9187 -666.2741 -3147.862 -666.2741 -3149.024 Z M -665.432 -3160.8134 L -665.432 -3149.024 C -665.432 -3148.325 -664.8678 -3147.7608 -664.1688 -3147.7608 L -652.37936 -3147.7608 C -651.6804 -3147.7608 -651.1162 -3148.325 -651.1162 -3149.024 L -651.1162 -3160.8134 C -651.1162 -3161.5124 -651.6804 -3162.0766 -652.37936 -3162.0766 L -664.1688 -3162.0766 C -664.8678 -3162.0766 -665.432 -3161.5124 -665.432 -3160.8134 Z" fill="#8eed62"/>
      </g>
      <g id="Graphic_11311">
        <path d="M -657.4404 -3151.5503 L -656.17725 -3151.5503 C -655.9415 -3151.5503 -655.7562 -3151.365 -655.7562 -3151.1292 C -655.7562 -3150.8934 -655.9415 -3150.708 -656.17725 -3150.708 L -659.5457 -3150.708 C -659.7815 -3150.708 -659.9667 -3150.8934 -659.9667 -3151.1292 C -659.9667 -3151.365 -659.7815 -3151.5503 -659.5457 -3151.5503 L -658.2825 -3151.5503 L -658.2825 -3155.7608 L -659.5457 -3155.7608 C -659.7815 -3155.7608 -659.9667 -3155.946 -659.9667 -3156.182 C -659.9667 -3156.4176 -659.7815 -3156.603 -659.5457 -3156.603 L -657.8615 -3156.603 C -657.6257 -3156.603 -657.4404 -3156.4176 -657.4404 -3156.182 L -657.4404 -3151.5503 Z" fill="#8eed62"/>
      </g>
      <g id="Graphic_11310">
        <path d="M -658.6246 -3159.1292 L -657.9404 -3159.1292 C -657.6643 -3159.1292 -657.4404 -3158.9054 -657.4404 -3158.6292 L -657.4404 -3157.945 C -657.4404 -3157.669 -657.6643 -3157.445 -657.9404 -3157.445 L -658.6246 -3157.445 C -658.9008 -3157.445 -659.1246 -3157.669 -659.1246 -3157.945 L -659.1246 -3158.6292 C -659.1246 -3158.9054 -658.9008 -3159.1292 -658.6246 -3159.1292 Z" fill="#8eed62"/>
      </g>
    </g>
  </g>
</svg>
