<svg height="25" viewBox="-166.774 -3167.932 25 25" width="25" xmlns="http://www.w3.org/2000/svg"><clipPath id="a"><path d="M-166.774-3167.932h25v25h-25zm5.371 12.275h.01a7.53 7.53 0 0 1 6.388-3.538h.263c3.999 0 7.301 3.124 7.518 7.103.01.085.01.715.01 1.835 0 .264.206.47.47.47.263 0 .47-.207.47-.47 0-1.167-.01-1.769-.01-1.882-.244-4.478-3.96-7.997-8.458-7.997h-.263a8.497 8.497 0 0 0-7.197 3.98.472.472 0 0 0 .8.499zm4.31-.715h-4.234v-4.234a.466.466 0 0 0-.47-.47.466.466 0 0 0-.471.47v4.704c0 .263.207.47.47.47h4.704c.264 0 .47-.207.47-.47a.466.466 0 0 0-.47-.47z"/></clipPath><g fill="none"><path d="M-162.434-3167.432h16.32a3.84 3.84 0 0 1 3.84 3.84v16.32a3.84 3.84 0 0 1-3.84 3.84h-16.32a3.84 3.84 0 0 1-3.84-3.84v-16.32a3.84 3.84 0 0 1 3.84-3.84z" fill="#666"/><path d="M-162.434-3167.432h16.32a3.84 3.84 0 0 1 3.84 3.84v16.32a3.84 3.84 0 0 1-3.84 3.84h-16.32a3.84 3.84 0 0 1-3.84-3.84v-16.32a3.84 3.84 0 0 1 3.84-3.84z" stroke="#fff" stroke-linecap="round" stroke-linejoin="round" stroke-width=".25"/><path d="M-161.403-3155.657a.472.472 0 0 1-.8-.499 8.497 8.497 0 0 1 7.198-3.98h.263c4.498 0 8.214 3.519 8.459 7.997 0 .113.009.715.009 1.882 0 .264-.207.47-.47.47a.466.466 0 0 1-.47-.47c0-1.12 0-1.75-.01-1.835-.217-3.98-3.519-7.103-7.517-7.103h-.264a7.53 7.53 0 0 0-6.388 3.538zm4.31-.715c.263 0 .47.207.47.47 0 .264-.207.47-.47.47h-4.705a.466.466 0 0 1-.47-.47v-4.704c0-.264.207-.47.47-.47.264 0 .47.206.47.47v4.234z" fill="#666"/><path clip-path="url(#a)" d="M-161.403-3155.657a.472.472 0 0 1-.8-.499 8.497 8.497 0 0 1 7.198-3.98h.263c4.498 0 8.214 3.519 8.459 7.997 0 .113.009.715.009 1.882 0 .264-.207.47-.47.47a.466.466 0 0 1-.47-.47c0-1.12 0-1.75-.01-1.835-.217-3.98-3.519-7.103-7.517-7.103h-.264a7.53 7.53 0 0 0-6.388 3.538zm4.31-.715c.263 0 .47.207.47.47 0 .264-.207.47-.47.47h-4.705a.466.466 0 0 1-.47-.47v-4.704c0-.264.207-.47.47-.47.264 0 .47.206.47.47v4.234z" stroke="#fc6c7e" stroke-linejoin="round" stroke-width="2"/></g></svg>