<svg height="25" viewBox="-814.774 -3167.932 25 25" width="25" xmlns="http://www.w3.org/2000/svg"><g fill="none"><path d="M-810.434-3167.432h16.32a3.84 3.84 0 0 1 3.84 3.84v16.32a3.84 3.84 0 0 1-3.84 3.84h-16.32a3.84 3.84 0 0 1-3.84-3.84v-16.32a3.84 3.84 0 0 1 3.84-3.84z" fill="#666"/><path d="M-810.434-3167.432h16.32a3.84 3.84 0 0 1 3.84 3.84v16.32a3.84 3.84 0 0 1-3.84 3.84h-16.32a3.84 3.84 0 0 1-3.84-3.84v-16.32a3.84 3.84 0 0 1 3.84-3.84z" stroke="#fff" stroke-linecap="round" stroke-linejoin="round" stroke-width=".25"/><g fill="#ccc"><path d="M-798.42-3160.8a7.534 7.534 0 1 0-5.888 13.869l.523-1.233a6.193 6.193 0 0 1 4.84-11.404zm.481 12.648h1.423v-4.62h-4.872v1.35h3.45z"/><path d="M-798.615-3151.494a3.682 3.682 0 1 1-2.982-6.09v-1.341a5.023 5.023 0 0 0-3.35 8.568 5.021 5.021 0 0 0 7.955-1.137z"/><path d="M-793.084-3159.492a10.1 10.1 0 0 0-1.235-1.498c-3.923-3.923-10.28-3.923-14.203 0-3.116 3.116-3.756 7.771-1.92 11.52l1.163-.672a8.704 8.704 0 1 1 15.032-8.679z"/></g></g></svg>