<svg height="25" viewBox="-310.774 -3167.932 25 25" width="25" xmlns="http://www.w3.org/2000/svg"><g fill="none"><path d="m-306.4341-3167.4315h16.32c2.12077 0 3.84 1.7192 3.84 3.84v16.32c0 2.1208-1.71923 3.84-3.84 3.84h-16.32c-2.12077 0-3.84-1.7192-3.84-3.84v-16.32c0-2.1208 1.71923-3.84 3.84-3.84z" fill="#666"/><path d="m-306.4341-3167.4315h16.32c2.12077 0 3.84 1.7192 3.84 3.84v16.32c0 2.1208-1.71923 3.84-3.84 3.84h-16.32c-2.12077 0-3.84-1.7192-3.84-3.84v-16.32c0-2.1208 1.71923-3.84 3.84-3.84z" stroke="#fff" stroke-linecap="round" stroke-linejoin="round" stroke-width=".25"/><g fill="#c0e0ff"><path d="m-304.2742-3152.232c.2209 0 .39998.179.39998.4v2.4006c0 .6627.53722 1.1999 1.19994 1.1999h8.79956c.66272 0 1.19994-.5372 1.19994-1.1999v-9.9996h-2.79986c-.2209 0-.39998-.179-.39998-.4v-2.7997h-6.79966c-.66272 0-1.19994.5372-1.19994 1.1999v1.5991c0 .2209-.17908.4-.39998.4s-.39998-.1791-.39998-.4v-1.5991c0-1.1045.89538-1.9999 1.9999-1.9999h7.17726c.10619-.0067.21672.0287.30522.1171l3.19983 3.1999c.08847.0885.12387.199.11715.3052v10.3771c0 1.1044-.89538 1.9999-1.9999 1.9999h-8.79956c-1.10452 0-1.9999-.8955-1.9999-1.9999v-2.4006c0-.221.17908-.4.39998-.4zm9.19954-9.833v1.834h1.83422zm-2.96554 5.833-1.71707-1.717c-.1562-.156-.1562-.4094 0-.5656s.40947-.1562.56567 0l2.39987 2.3999c.1562.1562.1562.4094 0 .5657l-2.39987 2.4c-.1562.156-.40947.156-.56567 0-.1562-.1564-.1562-.4096 0-.566l1.71707-1.717h-6.234c-.2209 0-.39998-.179-.39998-.4 0-.2208.17908-.4.39998-.4z"/><path d="m-295.50327-3150.259c0-.1093-.08861-.198-.19793-.198h-.3958c-.10932 0-.19793.0887-.19793.198v.3958c0 .1092.08861.1979.19793.1979h.3958c.10932 0 .19793-.0887.19793-.1979zm.39584 0v.3958c0 .3279-.26583.5938-.59377.5938h-.3958c-.32794 0-.59377-.2659-.59377-.5938v-.3958c0-.328.26583-.5938.59377-.5938h.3958c.32794 0 .59377.2658.59377.5938zm-2.77084 0c0-.1093-.08861-.198-.19793-.198h-.3958c-.10932 0-.19793.0887-.19793.198v.3958c0 .1092.08861.1979.19793.1979h.3958c.10932 0 .19793-.0887.19793-.1979zm.39584 0v.3958c0 .3279-.26583.5938-.59377.5938h-.3958c-.32794 0-.59377-.2659-.59377-.5938v-.3958c0-.328.26583-.5938.59377-.5938h.3958c.32794 0 .59377.2658.59377.5938zm-2.77084 0c0-.1093-.08861-.198-.19793-.198h-.3958c-.10932 0-.19793.0887-.19793.198v.3958c0 .1092.08861.1979.19793.1979h.3958c.10932 0 .19793-.0887.19793-.1979zm.39584 0v.3958c0 .3279-.26583.5938-.59377.5938h-.3958c-.32794 0-.59377-.2659-.59377-.5938v-.3958c0-.328.26583-.5938.59377-.5938h.3958c.32794 0 .59377.2658.59377.5938z"/></g></g></svg>