<svg height="25" viewBox="-814.774 -3167.932 25 25" width="25" xmlns="http://www.w3.org/2000/svg"><g fill="none"><path d="m-810.4341-3167.4315h16.32c2.1208 0 3.84 1.7192 3.84 3.84v16.32c0 2.1208-1.7192 3.84-3.84 3.84h-16.32c-2.1208 0-3.84-1.7192-3.84-3.84v-16.32c0-2.1208 1.7192-3.84 3.84-3.84z" fill="#666"/><path d="m-810.4341-3167.4315h16.32c2.1208 0 3.84 1.7192 3.84 3.84v16.32c0 2.1208-1.7192 3.84-3.84 3.84h-16.32c-2.1208 0-3.84-1.7192-3.84-3.84v-16.32c0-2.1208 1.7192-3.84 3.84-3.84z" stroke="#fff" stroke-linecap="round" stroke-linejoin="round" stroke-width=".25"/><g fill="#ccc"><path d="m-798.42065-3160.8007c-2.7557-1.1999-6.08185-.6729-8.33535 1.5807-2.9417 2.9417-2.9417 7.7107 0 10.652.6999.702 1.5319 1.2582 2.448 1.637l.5234-1.2333c-.7578-.3113-1.44605-.7704-2.0246-1.3505-2.4187-2.4182-2.4187-6.3397 0-8.7582 1.8559-1.856 4.5971-2.288 6.8651-1.295z"/><path d="m-797.9386-3148.1518h1.4224v-4.6196h-4.8718v1.3489h3.4494z"/><path d="m-798.6155-3151.4936c-1.0974 1.2641-2.9093 1.6289-4.4104.8881s-2.3137-2.4009-1.9779-4.0408c.3358-1.64 1.7354-2.8471 3.4069-2.9383v-1.3404c-1.2618.0485-2.4586.5724-3.3503 1.4665-1.9603 1.9611-1.9603 5.1402 0 7.1015 1.9612 1.961 5.1407 1.961 7.1014 0 .3455-.3456.6303-.729.854-1.1366z"/><path d="m-793.0836-3159.492c-.3628-.538-.77655-1.0397-1.2356-1.4983-3.9223-3.9223-10.2805-3.9223-14.2027 0-3.1165 3.1163-3.7564 7.7713-1.9202 11.5201l1.1634-.6718c-1.5426-3.234-.9746-7.2233 1.7036-9.902 3.3992-3.3987 8.9098-3.3987 12.309 0 .3829.3833.7227.793 1.0192 1.2233z"/></g></g></svg>