<svg height="25" viewBox="-670.774 -3167.932 25 25" width="25" xmlns="http://www.w3.org/2000/svg"><g fill="none"><path d="M-666.434-3167.432h16.32a3.84 3.84 0 0 1 3.84 3.84v16.32a3.84 3.84 0 0 1-3.84 3.84h-16.32a3.84 3.84 0 0 1-3.84-3.84v-16.32a3.84 3.84 0 0 1 3.84-3.84z" fill="#666"/><path d="M-666.434-3167.432h16.32a3.84 3.84 0 0 1 3.84 3.84v16.32a3.84 3.84 0 0 1-3.84 3.84h-16.32a3.84 3.84 0 0 1-3.84-3.84v-16.32a3.84 3.84 0 0 1 3.84-3.84z" stroke="#fff" stroke-linecap="round" stroke-linejoin="round" stroke-width=".25"/><g fill="#8eed62"><path d="M-666.274-3160.813c0-1.162.943-2.106 2.105-2.106h11.79c1.162 0 2.105.943 2.105 2.106v11.789a2.106 2.106 0 0 1-2.105 2.105h-11.79a2.106 2.106 0 0 1-2.105-2.105zm.842 0v11.789c0 .699.564 1.263 1.263 1.263h11.79c.699 0 1.263-.564 1.263-1.263v-11.79c0-.698-.564-1.263-1.263-1.263h-11.79c-.699 0-1.263.565-1.263 1.264z"/><path d="M-657.44-3151.55h1.263c.236 0 .42.185.42.42s-.184.422-.42.422h-3.369c-.235 0-.42-.185-.42-.421s.184-.421.42-.421h1.264v-4.21h-1.264a.417.417 0 0 1-.42-.422c0-.236.184-.421.42-.421h1.685c.235 0 .42.185.42.421zm-1.185-7.58h.685a.5.5 0 0 1 .5.5v.685a.5.5 0 0 1-.5.5h-.685a.5.5 0 0 1-.5-.5v-.684a.5.5 0 0 1 .5-.5z"/></g></g></svg>