<svg height="25" viewBox="-202.774 -3167.932 25 25" width="25" xmlns="http://www.w3.org/2000/svg"><g fill="none"><path d="m-198.4341-3167.4315h16.32c2.12077 0 3.84 1.7192 3.84 3.84v16.32c0 2.1208-1.71923 3.84-3.84 3.84h-16.32c-2.12077 0-3.84-1.7192-3.84-3.84v-16.32c0-2.1208 1.71923-3.84 3.84-3.84z" fill="#666"/><path d="m-198.4341-3167.4315h16.32c2.12077 0 3.84 1.7192 3.84 3.84v16.32c0 2.1208-1.71923 3.84-3.84 3.84h-16.32c-2.12077 0-3.84-1.7192-3.84-3.84v-16.32c0-2.1208 1.71923-3.84 3.84-3.84z" stroke="#fff" stroke-linecap="round" stroke-linejoin="round" stroke-width=".25"/><path d="m-188.4421-3155.4315h-6.232c-.224 0-.4-.176-.4-.4s.176-.4.4-.4h6.232l-1.72-1.72c-.16-.16-.16-.408 0-.568s.408-.16.568 0l2.4 2.4c.16.16.16.408 0 .568l-2.4 2.4c-.16.16-.408.16-.568 0s-.16-.408 0-.568l1.72-1.72zm-3.432-5.2c0 .224-.176.4-.4.4s-.4-.176-.4-.4c0-1.104.896-2 2-2h6.4c1.104 0 2 .896 2 2v10.4c0 1.104-.896 2-2 2h-6.4c-1.104 0-2-.896-2-2 0-.224.176-.4.4-.4s.4.176.4.4c0 .664.536 1.2 1.2 1.2h6.4c.664 0 1.2-.536 1.2-1.2v-10.4c0-.664-.536-1.2-1.2-1.2h-6.4c-.664 0-1.2.536-1.2 1.2zm-2 11.6c.224 0 .4.176.4.4s-.176.4-.4.4h-2.4c-1.104 0-2-.896-2-2v-10.4c0-1.104.896-2 2-2h2.4c.224 0 .4.176.4.4s-.176.4-.4.4h-2.4c-.664 0-1.2.536-1.2 1.2v10.4c0 .664.536 1.2 1.2 1.2z" fill="#c0e0ff"/></g></svg>