<svg height="25" viewBox="-562.774 -3167.932 25 25" width="25" xmlns="http://www.w3.org/2000/svg"><g fill="none"><path d="M-558.434-3167.432h16.32a3.84 3.84 0 0 1 3.84 3.84v16.32a3.84 3.84 0 0 1-3.84 3.84h-16.32a3.84 3.84 0 0 1-3.84-3.84v-16.32a3.84 3.84 0 0 1 3.84-3.84z" fill="#666"/><path d="M-558.434-3167.432h16.32a3.84 3.84 0 0 1 3.84 3.84v16.32a3.84 3.84 0 0 1-3.84 3.84h-16.32a3.84 3.84 0 0 1-3.84-3.84v-16.32a3.84 3.84 0 0 1 3.84-3.84z" stroke="#fff" stroke-linecap="round" stroke-linejoin="round" stroke-width=".25"/><path d="M-553.83-3150.556h-4c-.249 0-.444-.196-.444-.444s.195-.445.444-.445h4v-.889c0-.489.4-.889.89-.889h1.777c.489 0 .889.4.889.89v.888h7.555c.25 0 .445.196.445.445s-.196.444-.445.444h-7.555v.916c0 .488-.4.888-.889.888h-1.778a.892.892 0 0 1-.889-.888zm5.334-4.444h-9.334a.44.44 0 0 1-.444-.445.44.44 0 0 1 .444-.444h9.334v-.889c0-.489.4-.889.889-.889h1.777c.49 0 .89.4.89.889v.889h2.221a.44.44 0 0 1 .445.444.44.44 0 0 1-.445.445h-2.222v.915c0 .489-.4.889-.889.889h-1.777a.892.892 0 0 1-.89-.889zm-8-4.445h-1.334a.44.44 0 0 1-.444-.444.44.44 0 0 1 .444-.445h1.334v-.889c0-.488.4-.888.889-.888h1.777c.49 0 .89.4.89.888v.89h10.221a.44.44 0 0 1 .445.444.44.44 0 0 1-.445.444h-10.222v.916c0 .489-.4.889-.889.889h-1.777a.892.892 0 0 1-.89-.89zm.889-1.778v2.694h1.777v-2.694zm8 4.445v2.693h1.777v-2.693zm-5.334 4.444v2.694h1.778v-2.694z" fill="#c0e0ff"/></g></svg>