<svg height="25" viewBox="-598.774 -3167.932 25 25" width="25" xmlns="http://www.w3.org/2000/svg"><g fill="none"><path d="m-594.4341-3167.4315h16.32c2.1208 0 3.84 1.7192 3.84 3.84v16.32c0 2.1208-1.7192 3.84-3.84 3.84h-16.32c-2.1208 0-3.84-1.7192-3.84-3.84v-16.32c0-2.1208 1.7192-3.84 3.84-3.84z" fill="#666"/><path d="m-594.4341-3167.4315h16.32c2.1208 0 3.84 1.7192 3.84 3.84v16.32c0 2.1208-1.7192 3.84-3.84 3.84h-16.32c-2.1208 0-3.84-1.7192-3.84-3.84v-16.32c0-2.1208 1.7192-3.84 3.84-3.84z" stroke="#fff" stroke-linecap="round" stroke-linejoin="round" stroke-width=".25"/><path d="m-580.9408-3160.765h2.22226c.24888 0 .44444.1957.44444.4446s-.19556.4444-.44444.4444h-2.22226v2.2223c0 .2487-.1955.4444-.4444.4444s-.44446-.1957-.44446-.4444v-2.2223h-2.22224c-.2489 0-.4444-.1955-.4444-.4444s.1955-.4446.4444-.4446h2.22224v-2.222c0-.249.19556-.4445.44446-.4445s.4444.1955.4444.4445zm1.7778 4.889c0-.249.1956-.4444.44446-.4444.24888 0 .44444.1954.44444.4444v6.2223c0 1.2267-.99556 2.2222-2.2222 2.2222h-11.5556c-1.22664 0-2.2222-.9955-2.2222-2.2222v-11.5556c0-1.2267.99556-2.2222 2.2222-2.2222h6.22224c.24886 0 .44446.1955.44446.4445s-.1956.4444-.44446.4444h-6.22224c-.73776 0-1.3333.5956-1.3333 1.3333v11.5556c0 .7377.59554 1.3333 1.3333 1.3333h11.5556c.73776 0 1.3333-.5956 1.3333-1.3333z" fill="#8eed62"/></g></svg>