<?xml version="1.0" encoding="UTF-8" standalone="no"?>
<!DOCTYPE svg PUBLIC "-//W3C//DTD SVG 1.1//EN" "http://www.w3.org/Graphics/SVG/1.1/DTD/svg11.dtd">
<svg xmlns:dc="http://purl.org/dc/elements/1.1/" version="1.1" xmlns="http://www.w3.org/2000/svg" xmlns:xl="http://www.w3.org/1999/xlink" viewBox="-166.7741 -3167.9315 25 25" width="25" height="25">
  <defs>
    <clipPath id="outer_stroke_clip_path">
      <path d="M -166.7741 -3167.9315 L -141.7741 -3167.9315 L -141.7741 -3142.9315 L -166.7741 -3142.9315 Z M -161.40254 -3155.6573 L -161.39313 -3155.6573 C -160.01953 -3157.859 -157.6016 -3159.1948 -155.00493 -3159.1948 L -154.7415 -3159.1948 C -150.743 -3159.1948 -147.4407 -3156.0713 -147.2243 -3152.0916 C -147.2149 -3152.007 -147.2149 -3151.3766 -147.2149 -3150.257 C -147.2149 -3149.9935 -147.00792 -3149.7866 -146.74448 -3149.7866 C -146.48105 -3149.7866 -146.27407 -3149.9935 -146.27407 -3150.257 C -146.27407 -3151.4236 -146.28348 -3152.0257 -146.28348 -3152.1386 C -146.5281 -3156.617 -150.24435 -3160.1356 -154.7415 -3160.1356 L -155.00493 -3160.1356 C -157.9309 -3160.1356 -160.64988 -3158.6303 -162.20224 -3156.156 C -162.34336 -3155.93 -162.2681 -3155.648 -162.0517 -3155.5068 C -161.8259 -3155.3656 -161.54366 -3155.441 -161.40254 -3155.6573 Z M -157.09356 -3156.3723 L -161.32727 -3156.3723 L -161.32727 -3160.606 C -161.32727 -3160.8695 -161.53425 -3161.0765 -161.79768 -3161.0765 C -162.06112 -3161.0765 -162.2681 -3160.8695 -162.2681 -3160.606 L -162.2681 -3155.902 C -162.2681 -3155.6385 -162.06112 -3155.4315 -161.79768 -3155.4315 L -157.09356 -3155.4315 C -156.83013 -3155.4315 -156.62315 -3155.6385 -156.62315 -3155.902 C -156.62315 -3156.1653 -156.83013 -3156.3723 -157.09356 -3156.3723 Z"/>
    </clipPath>
  </defs>
  <g id="SOURCES" stroke="none" stroke-dasharray="none" fill-opacity="1" stroke-opacity="1" fill="none">
    <title>SOURCES</title>
    <g id="SOURCES_Dark">
      <title>Dark</title>
      <g id="Graphic_11277">
        <path d="M -162.4341 -3167.4315 L -146.1141 -3167.4315 C -143.99333 -3167.4315 -142.2741 -3165.7123 -142.2741 -3163.5915 L -142.2741 -3147.2715 C -142.2741 -3145.1507 -143.99333 -3143.4315 -146.1141 -3143.4315 L -162.4341 -3143.4315 C -164.55487 -3143.4315 -166.2741 -3145.1507 -166.2741 -3147.2715 L -166.2741 -3163.5915 C -166.2741 -3165.7123 -164.55487 -3167.4315 -162.4341 -3167.4315 Z" fill="#666"/>
        <path d="M -162.4341 -3167.4315 L -146.1141 -3167.4315 C -143.99333 -3167.4315 -142.2741 -3165.7123 -142.2741 -3163.5915 L -142.2741 -3147.2715 C -142.2741 -3145.1507 -143.99333 -3143.4315 -146.1141 -3143.4315 L -162.4341 -3143.4315 C -164.55487 -3143.4315 -166.2741 -3145.1507 -166.2741 -3147.2715 L -166.2741 -3163.5915 C -166.2741 -3165.7123 -164.55487 -3167.4315 -162.4341 -3167.4315 Z" stroke="white" stroke-linecap="round" stroke-linejoin="round" stroke-width=".25"/>
      </g>
      <g id="Graphic_11276">
        <path d="M -161.40254 -3155.6573 C -161.54366 -3155.441 -161.8259 -3155.3656 -162.0517 -3155.5068 C -162.2681 -3155.648 -162.34336 -3155.93 -162.20224 -3156.156 C -160.64988 -3158.6303 -157.9309 -3160.1356 -155.00493 -3160.1356 L -154.7415 -3160.1356 C -150.24435 -3160.1356 -146.5281 -3156.617 -146.28348 -3152.1386 C -146.28348 -3152.0257 -146.27407 -3151.4236 -146.27407 -3150.257 C -146.27407 -3149.9935 -146.48105 -3149.7866 -146.74448 -3149.7866 C -147.00792 -3149.7866 -147.2149 -3149.9935 -147.2149 -3150.257 C -147.2149 -3151.3766 -147.2149 -3152.007 -147.2243 -3152.0916 C -147.4407 -3156.0713 -150.743 -3159.1948 -154.7415 -3159.1948 L -155.00493 -3159.1948 C -157.6016 -3159.1948 -160.01953 -3157.859 -161.39313 -3155.6573 Z M -157.09356 -3156.3723 C -156.83013 -3156.3723 -156.62315 -3156.1653 -156.62315 -3155.902 C -156.62315 -3155.6385 -156.83013 -3155.4315 -157.09356 -3155.4315 L -161.79768 -3155.4315 C -162.06112 -3155.4315 -162.2681 -3155.6385 -162.2681 -3155.902 L -162.2681 -3160.606 C -162.2681 -3160.8695 -162.06112 -3161.0765 -161.79768 -3161.0765 C -161.53425 -3161.0765 -161.32727 -3160.8695 -161.32727 -3160.606 L -161.32727 -3156.3723 Z" fill="#666"/>
        <path d="M -161.40254 -3155.6573 C -161.54366 -3155.441 -161.8259 -3155.3656 -162.0517 -3155.5068 C -162.2681 -3155.648 -162.34336 -3155.93 -162.20224 -3156.156 C -160.64988 -3158.6303 -157.9309 -3160.1356 -155.00493 -3160.1356 L -154.7415 -3160.1356 C -150.24435 -3160.1356 -146.5281 -3156.617 -146.28348 -3152.1386 C -146.28348 -3152.0257 -146.27407 -3151.4236 -146.27407 -3150.257 C -146.27407 -3149.9935 -146.48105 -3149.7866 -146.74448 -3149.7866 C -147.00792 -3149.7866 -147.2149 -3149.9935 -147.2149 -3150.257 C -147.2149 -3151.3766 -147.2149 -3152.007 -147.2243 -3152.0916 C -147.4407 -3156.0713 -150.743 -3159.1948 -154.7415 -3159.1948 L -155.00493 -3159.1948 C -157.6016 -3159.1948 -160.01953 -3157.859 -161.39313 -3155.6573 Z M -157.09356 -3156.3723 C -156.83013 -3156.3723 -156.62315 -3156.1653 -156.62315 -3155.902 C -156.62315 -3155.6385 -156.83013 -3155.4315 -157.09356 -3155.4315 L -161.79768 -3155.4315 C -162.06112 -3155.4315 -162.2681 -3155.6385 -162.2681 -3155.902 L -162.2681 -3160.606 C -162.2681 -3160.8695 -162.06112 -3161.0765 -161.79768 -3161.0765 C -161.53425 -3161.0765 -161.32727 -3160.8695 -161.32727 -3160.606 L -161.32727 -3156.3723 Z" stroke="#fc6c7e" stroke-linecap="butt" stroke-linejoin="round" stroke-width="2" clip-path="url(#outer_stroke_clip_path)"/>
      </g>
    </g>
  </g>
</svg>
