<svg height="25" viewBox="-382.774 -3167.932 25 25" width="25" xmlns="http://www.w3.org/2000/svg"><g fill="none"><path d="m-378.4341-3167.4315h16.32c2.12077 0 3.84 1.7192 3.84 3.84v16.32c0 2.1208-1.71923 3.84-3.84 3.84h-16.32c-2.12077 0-3.84-1.7192-3.84-3.84v-16.32c0-2.1208 1.71923-3.84 3.84-3.84z" fill="#666"/><path d="m-378.4341-3167.4315h16.32c2.12077 0 3.84 1.7192 3.84 3.84v16.32c0 2.1208-1.71923 3.84-3.84 3.84h-16.32c-2.12077 0-3.84-1.7192-3.84-3.84v-16.32c0-2.1208 1.71923-3.84 3.84-3.84z" stroke="#fff" stroke-linecap="round" stroke-linejoin="round" stroke-width=".25"/><path d="m-376.2742-3152.232c.2209 0 .4.179.4.4v2.4006c0 .6627.5372 1.1999 1.19992 1.1999h8.79955c.66273 0 1.19993-.5372 1.19993-1.1999v-9.9996h-2.79984c-.22091 0-.39998-.179-.39998-.4v-2.7997h-6.79966c-.66272 0-1.19992.5372-1.19992 1.1999v1.5991c0 .2209-.1791.4-.4.4s-.39997-.1791-.39997-.4v-1.5991c0-1.1045.89537-1.9999 1.99989-1.9999h7.17725c.1062-.0067.21673.0287.30523.1171l3.1998 3.1999c.0885.0885.1239.199.11717.3052v10.3771c0 1.1044-.89537 1.9999-1.9999 1.9999h-8.79955c-1.10452 0-1.99989-.8955-1.99989-1.9999v-2.4006c0-.221.17907-.4.39997-.4zm9.19953-9.833v1.834h1.83423zm-2.96553 5.833-1.71707-1.717c-.1562-.156-.1562-.4094 0-.5656s.40947-.1562.56567 0l2.39987 2.3999c.1562.1562.1562.4094 0 .5657l-2.39987 2.4c-.1562.156-.40947.156-.56567 0-.1562-.1564-.1562-.4096 0-.566l1.71707-1.717h-6.234c-.2209 0-.39997-.179-.39997-.4 0-.2208.17907-.4.39997-.4z" fill="#8eed62"/></g></svg>