<svg height="25" viewBox="-130.774 -3167.932 25 25" width="25" xmlns="http://www.w3.org/2000/svg"><g fill="none"><path d="m-126.4341-3167.4315h16.32c2.12077 0 3.84 1.7192 3.84 3.84v16.32c0 2.1208-1.71923 3.84-3.84 3.84h-16.32c-2.12077 0-3.84-1.7192-3.84-3.84v-16.32c0-2.1208 1.71923-3.84 3.84-3.84z" fill="#666"/><path d="m-126.4341-3167.4315h16.32c2.12077 0 3.84 1.7192 3.84 3.84v16.32c0 2.1208-1.71923 3.84-3.84 3.84h-16.32c-2.12077 0-3.84-1.7192-3.84-3.84v-16.32c0-2.1208 1.71923-3.84 3.84-3.84z" stroke="#fff" stroke-linecap="round" stroke-linejoin="round" stroke-width=".25"/><path d="m-126.2741-3161.3262c0-1.1621.94316-2.1053 2.10526-2.1053h11.78948c1.1621 0 2.10526.9432 2.10526 2.1053v11.7894c0 1.1621-.94316 2.1053-2.10526 2.1053h-11.78948c-1.1621 0-2.10526-.9432-2.10526-2.1053zm.8421 0v11.7894c0 .6988.56422 1.2632 1.26316 1.2632h11.78948c.69894 0 1.26316-.5644 1.26316-1.2632v-11.7894c0-.699-.56422-1.2632-1.26316-1.2632h-11.78948c-.69894 0-1.26316.5642-1.26316 1.2632z" fill="#8eed62"/><path d="m-115.52042-3152.324c1.03579-.8254 1.65053-2.08 1.65053-3.4443 0-2.3327-1.81895-4.2611-4.13474-4.4043-.15157-.0084-.26947-.1431-.26105-.2947.00842-.1517.14316-.2695.29474-.261 2.61052.16 4.65684 2.3243 4.65684 4.9515 0 1.5242-.69053 2.9306-1.84421 3.8568h1.56631c.15158 0 .2779.1264.2779.278 0 .1515-.12632.278-.2779.278h-2.20631c-.15158 0-.27789-.1265-.27789-.278v-2.2063c0-.1517.12631-.2779.27789-.2779s.27789.1262.27789.2779v1.5157zm-5.50736-6.8886c-1.03579.8253-1.65053 2.08-1.65053 3.4443 0 2.341 1.82737 4.2693 4.16 4.4043.15158.0083.26947.1346.26105.2946-.00842.1514-.13474.2694-.29474.2611-2.61894-.1517-4.67368-2.3157-4.67368-4.9517 0-1.524.69053-2.9305 1.84421-3.8568h-1.56631c-.15158 0-.2779-.1262-.2779-.2779 0-.1515.12632-.2779.2779-.2779h2.20631c.15158 0 .2779.1264.2779.2779v2.2064c0 .1515-.12632.2778-.2779.2778s-.27789-.1263-.27789-.2778v-1.5157z" fill="#8eed62"/><path d="m-115.52042-3152.324c1.03579-.8254 1.65053-2.08 1.65053-3.4443 0-2.3327-1.81895-4.2611-4.13474-4.4043-.15157-.0084-.26947-.1431-.26105-.2947.00842-.1517.14316-.2695.29474-.261 2.61052.16 4.65684 2.3243 4.65684 4.9515 0 1.5242-.69053 2.9306-1.84421 3.8568h1.56631c.15158 0 .2779.1264.2779.278 0 .1515-.12632.278-.2779.278h-2.20631c-.15158 0-.27789-.1265-.27789-.278v-2.2063c0-.1517.12631-.2779.27789-.2779s.27789.1262.27789.2779v1.5157zm-5.50736-6.8886c-1.03579.8253-1.65053 2.08-1.65053 3.4443 0 2.341 1.82737 4.2693 4.16 4.4043.15158.0083.26947.1346.26105.2946-.00842.1514-.13474.2694-.29474.2611-2.61894-.1517-4.67368-2.3157-4.67368-4.9517 0-1.524.69053-2.9305 1.84421-3.8568h-1.56631c-.15158 0-.2779-.1262-.2779-.2779 0-.1515.12632-.2779.2779-.2779h2.20631c.15158 0 .2779.1264.2779.2779v2.2064c0 .1515-.12632.2778-.2779.2778s-.27789-.1263-.27789-.2778v-1.5157z" stroke="#518737" stroke-linejoin="round" stroke-width=".25"/></g></svg>