<svg height="25" viewBox="-598.774 -3167.932 25 25" width="25" xmlns="http://www.w3.org/2000/svg"><g fill="none"><path d="M-594.434-3167.432h16.32a3.84 3.84 0 0 1 3.84 3.84v16.32a3.84 3.84 0 0 1-3.84 3.84h-16.32a3.84 3.84 0 0 1-3.84-3.84v-16.32a3.84 3.84 0 0 1 3.84-3.84z" fill="#666"/><path d="M-594.434-3167.432h16.32a3.84 3.84 0 0 1 3.84 3.84v16.32a3.84 3.84 0 0 1-3.84 3.84h-16.32a3.84 3.84 0 0 1-3.84-3.84v-16.32a3.84 3.84 0 0 1 3.84-3.84z" stroke="#fff" stroke-linecap="round" stroke-linejoin="round" stroke-width=".25"/><path d="M-580.94-3160.765h2.221c.25 0 .445.196.445.445s-.196.444-.445.444h-2.222v2.222c0 .249-.195.445-.444.445s-.445-.196-.445-.445v-2.222h-2.222c-.249 0-.444-.196-.444-.444s.195-.445.444-.445h2.222v-2.222c0-.249.196-.445.445-.445s.444.196.444.445zm1.777 4.889a.44.44 0 0 1 .444-.444.44.44 0 0 1 .445.444v6.222a2.223 2.223 0 0 1-2.222 2.223h-11.556a2.223 2.223 0 0 1-2.222-2.223v-11.555c0-1.227.995-2.223 2.222-2.223h6.222c.25 0 .445.196.445.445s-.196.444-.445.444h-6.222c-.738 0-1.333.596-1.333 1.334v11.555c0 .738.595 1.334 1.333 1.334h11.556c.737 0 1.333-.596 1.333-1.334z" fill="#8eed62"/></g></svg>