<svg height="25" viewBox="-670.774 -3167.932 25 25" width="25" xmlns="http://www.w3.org/2000/svg"><g fill="none"><path d="m-666.4341-3167.4315h16.32c2.1208 0 3.84 1.7192 3.84 3.84v16.32c0 2.1208-1.7192 3.84-3.84 3.84h-16.32c-2.1208 0-3.84-1.7192-3.84-3.84v-16.32c0-2.1208 1.7192-3.84 3.84-3.84z" fill="#666"/><path d="m-666.4341-3167.4315h16.32c2.1208 0 3.84 1.7192 3.84 3.84v16.32c0 2.1208-1.7192 3.84-3.84 3.84h-16.32c-2.1208 0-3.84-1.7192-3.84-3.84v-16.32c0-2.1208 1.7192-3.84 3.84-3.84z" stroke="#fff" stroke-linecap="round" stroke-linejoin="round" stroke-width=".25"/><g fill="#8eed62"><path d="m-666.2741-3160.8134c0-1.1621.9432-2.1053 2.1053-2.1053h11.78944c1.16211 0 2.10526.9432 2.10526 2.1053v11.7894c0 1.162-.94315 2.1053-2.10526 2.1053h-11.78944c-1.1621 0-2.1053-.9433-2.1053-2.1053zm.8421 0v11.7894c0 .699.5642 1.2632 1.2632 1.2632h11.78944c.69896 0 1.26316-.5642 1.26316-1.2632v-11.7894c0-.699-.5642-1.2632-1.26316-1.2632h-11.78944c-.699 0-1.2632.5642-1.2632 1.2632z"/><path d="m-657.4404-3151.5503h1.26315c.23575 0 .42105.1853.42105.4211s-.1853.4212-.42105.4212h-3.36845c-.2358 0-.421-.1854-.421-.4212s.1852-.4211.421-.4211h1.2632v-4.2105h-1.2632c-.2358 0-.421-.1852-.421-.4212 0-.2356.1852-.421.421-.421h1.6842c.2358 0 .4211.1854.4211.421z"/><path d="m-658.6246-3159.1292h.6842c.2761 0 .5.2238.5.5v.6842c0 .276-.2239.5-.5.5h-.6842c-.2762 0-.5-.224-.5-.5v-.6842c0-.2762.2238-.5.5-.5z"/></g></g></svg>