<?xml version="1.0" encoding="UTF-8" standalone="no"?>
<!DOCTYPE svg PUBLIC "-//W3C//DTD SVG 1.1//EN" "http://www.w3.org/Graphics/SVG/1.1/DTD/svg11.dtd">
<svg xmlns="http://www.w3.org/2000/svg" xmlns:xl="http://www.w3.org/1999/xlink" version="1.1" xmlns:dc="http://purl.org/dc/elements/1.1/" viewBox="-202.7741 -3167.9315 25 25" width="25" height="25">
  <defs/>
  <g id="SOURCES" stroke-opacity="1" fill="none" stroke="none" fill-opacity="1" stroke-dasharray="none">
    <title>SOURCES</title>
    <g id="SOURCES_Dark">
      <title>Dark</title>
      <g id="Graphic_11265">
        <path d="M -198.4341 -3167.4315 L -182.1141 -3167.4315 C -179.99333 -3167.4315 -178.2741 -3165.7123 -178.2741 -3163.5915 L -178.2741 -3147.2715 C -178.2741 -3145.1507 -179.99333 -3143.4315 -182.1141 -3143.4315 L -198.4341 -3143.4315 C -200.55487 -3143.4315 -202.2741 -3145.1507 -202.2741 -3147.2715 L -202.2741 -3163.5915 C -202.2741 -3165.7123 -200.55487 -3167.4315 -198.4341 -3167.4315 Z" fill="#666"/>
        <path d="M -198.4341 -3167.4315 L -182.1141 -3167.4315 C -179.99333 -3167.4315 -178.2741 -3165.7123 -178.2741 -3163.5915 L -178.2741 -3147.2715 C -178.2741 -3145.1507 -179.99333 -3143.4315 -182.1141 -3143.4315 L -198.4341 -3143.4315 C -200.55487 -3143.4315 -202.2741 -3145.1507 -202.2741 -3147.2715 L -202.2741 -3163.5915 C -202.2741 -3165.7123 -200.55487 -3167.4315 -198.4341 -3167.4315 Z" stroke="white" stroke-linecap="round" stroke-linejoin="round" stroke-width=".25"/>
      </g>
      <g id="Graphic_11264">
        <path d="M -188.4421 -3155.4315 L -194.6741 -3155.4315 C -194.8981 -3155.4315 -195.0741 -3155.6075 -195.0741 -3155.8315 C -195.0741 -3156.0555 -194.8981 -3156.2315 -194.6741 -3156.2315 L -188.4421 -3156.2315 L -190.1621 -3157.9515 C -190.3221 -3158.1115 -190.3221 -3158.3595 -190.1621 -3158.5195 C -190.0021 -3158.6795 -189.7541 -3158.6795 -189.5941 -3158.5195 L -187.1941 -3156.1195 C -187.0341 -3155.9595 -187.0341 -3155.7115 -187.1941 -3155.5515 L -189.5941 -3153.1515 C -189.7541 -3152.9915 -190.0021 -3152.9915 -190.1621 -3153.1515 C -190.3221 -3153.3115 -190.3221 -3153.5595 -190.1621 -3153.7195 L -188.4421 -3155.4395 Z M -191.8741 -3160.6315 C -191.8741 -3160.4075 -192.0501 -3160.2315 -192.2741 -3160.2315 C -192.4981 -3160.2315 -192.6741 -3160.4075 -192.6741 -3160.6315 C -192.6741 -3161.7355 -191.7781 -3162.6315 -190.6741 -3162.6315 L -184.2741 -3162.6315 C -183.1701 -3162.6315 -182.2741 -3161.7355 -182.2741 -3160.6315 L -182.2741 -3150.2315 C -182.2741 -3149.1275 -183.1701 -3148.2315 -184.2741 -3148.2315 L -190.6741 -3148.2315 C -191.7781 -3148.2315 -192.6741 -3149.1275 -192.6741 -3150.2315 C -192.6741 -3150.4555 -192.4981 -3150.6315 -192.2741 -3150.6315 C -192.0501 -3150.6315 -191.8741 -3150.4555 -191.8741 -3150.2315 C -191.8741 -3149.5675 -191.3381 -3149.0315 -190.6741 -3149.0315 L -184.2741 -3149.0315 C -183.6101 -3149.0315 -183.0741 -3149.5675 -183.0741 -3150.2315 L -183.0741 -3160.6315 C -183.0741 -3161.2955 -183.6101 -3161.8315 -184.2741 -3161.8315 L -190.6741 -3161.8315 C -191.3381 -3161.8315 -191.8741 -3161.2955 -191.8741 -3160.6315 Z M -193.8741 -3149.0315 C -193.6501 -3149.0315 -193.4741 -3148.8555 -193.4741 -3148.6315 C -193.4741 -3148.4075 -193.6501 -3148.2315 -193.8741 -3148.2315 L -196.2741 -3148.2315 C -197.3781 -3148.2315 -198.2741 -3149.1275 -198.2741 -3150.2315 L -198.2741 -3160.6315 C -198.2741 -3161.7355 -197.3781 -3162.6315 -196.2741 -3162.6315 L -193.8741 -3162.6315 C -193.6501 -3162.6315 -193.4741 -3162.4555 -193.4741 -3162.2315 C -193.4741 -3162.0075 -193.6501 -3161.8315 -193.8741 -3161.8315 L -196.2741 -3161.8315 C -196.9381 -3161.8315 -197.4741 -3161.2955 -197.4741 -3160.6315 L -197.4741 -3150.2315 C -197.4741 -3149.5675 -196.9381 -3149.0315 -196.2741 -3149.0315 Z" fill="#c0e0ff"/>
      </g>
    </g>
  </g>
</svg>
