<svg height="25" viewBox="-346.774 -3167.932 25 25" width="25" xmlns="http://www.w3.org/2000/svg"><g fill="none"><path d="M-342.434-3167.432h16.32a3.84 3.84 0 0 1 3.84 3.84v16.32a3.84 3.84 0 0 1-3.84 3.84h-16.32a3.84 3.84 0 0 1-3.84-3.84v-16.32a3.84 3.84 0 0 1 3.84-3.84z" fill="#666"/><path d="M-342.434-3167.432h16.32a3.84 3.84 0 0 1 3.84 3.84v16.32a3.84 3.84 0 0 1-3.84 3.84h-16.32a3.84 3.84 0 0 1-3.84-3.84v-16.32a3.84 3.84 0 0 1 3.84-3.84z" stroke="#fff" stroke-linecap="round" stroke-linejoin="round" stroke-width=".25"/><g fill="#8eed62"><path d="M-341.258-3153.267a.4.4 0 0 1 .4.4v2.4a1.2 1.2 0 0 0 1.2 1.2h8.8a1.2 1.2 0 0 0 1.2-1.2v-9.999h-2.8a.4.4 0 0 1-.4-.4v-2.8h-6.8a1.2 1.2 0 0 0-1.2 1.2v1.6a.4.4 0 1 1-.8 0v-1.6a2 2 0 0 1 2-2h7.177a.392.392 0 0 1 .305.117l3.2 3.2a.391.391 0 0 1 .117.306v10.377a2 2 0 0 1-2 2h-8.8a2 2 0 0 1-2-2v-2.401a.4.4 0 0 1 .4-.4zm9.2-9.833v1.834h1.833zm-2.966 5.833l-1.717-1.717a.4.4 0 1 1 .565-.566l2.4 2.4a.4.4 0 0 1 0 .566l-2.4 2.4a.4.4 0 0 1-.565-.566l1.717-1.717h-6.234a.4.4 0 1 1 0-.8z"/><path d="M-339.69-3148.374a2 2 0 0 0 2 1.978h8.8a2 2 0 0 0 2-2v-10.377a.391.391 0 0 0-.118-.306l-1.734-1.734v1.132l.486.485h-.486v.8h1.051v10a1.2 1.2 0 0 1-1.2 1.2h-8.8a1.2 1.2 0 0 1-1.199-1.178z"/></g></g></svg>