<svg height="25" viewBox="-418.774 -3167.932 25 25" width="25" xmlns="http://www.w3.org/2000/svg"><g fill="none"><path d="M-414.434-3167.432h16.32a3.84 3.84 0 0 1 3.84 3.84v16.32a3.84 3.84 0 0 1-3.84 3.84h-16.32a3.84 3.84 0 0 1-3.84-3.84v-16.32a3.84 3.84 0 0 1 3.84-3.84z" fill="#666"/><path d="M-414.434-3167.432h16.32a3.84 3.84 0 0 1 3.84 3.84v16.32a3.84 3.84 0 0 1-3.84 3.84h-16.32a3.84 3.84 0 0 1-3.84-3.84v-16.32a3.84 3.84 0 0 1 3.84-3.84z" stroke="#fff" stroke-linecap="round" stroke-linejoin="round" stroke-width=".25"/><path d="M-408.683-3158.094h-3.369c-.738 0-1.333.596-1.333 1.334v5.333c0 .738.595 1.333 1.333 1.333h11.556c.737 0 1.333-.595 1.333-1.333v-5.333c0-.738-.596-1.334-1.333-1.334h-3.556a.44.44 0 0 1-.444-.444.44.44 0 0 1 .444-.445h3.556c1.226 0 2.222.996 2.222 2.223v5.333a2.223 2.223 0 0 1-2.222 2.222h-11.556a2.223 2.223 0 0 1-2.222-2.222v-5.333c0-1.227.995-2.223 2.222-2.223h3.369l-1.902-1.91a.44.44 0 0 1 0-.632.44.44 0 0 1 .63 0l2.668 2.667a.44.44 0 0 1 0 .631l-2.667 2.667a.44.44 0 0 1-.631 0 .44.44 0 0 1 0-.631l1.91-1.912z" fill="#e3e6e1"/></g></svg>