<?xml version="1.0" encoding="UTF-8" standalone="no"?>
<!DOCTYPE svg PUBLIC "-//W3C//DTD SVG 1.1//EN" "http://www.w3.org/Graphics/SVG/1.1/DTD/svg11.dtd">
<svg xmlns="http://www.w3.org/2000/svg" xmlns:xl="http://www.w3.org/1999/xlink" version="1.1" xmlns:dc="http://purl.org/dc/elements/1.1/" viewBox="-418.7741 -3167.9315 25 25" width="25" height="25">
  <defs/>
  <g id="SOURCES" stroke-opacity="1" fill="none" stroke="none" fill-opacity="1" stroke-dasharray="none">
    <title>SOURCES</title>
    <g id="SOURCES_Dark">
      <title>Dark</title>
      <g id="Graphic_11281">
        <path d="M -414.4341 -3167.4315 L -398.1141 -3167.4315 C -395.99333 -3167.4315 -394.2741 -3165.7123 -394.2741 -3163.5915 L -394.2741 -3147.2715 C -394.2741 -3145.1507 -395.99333 -3143.4315 -398.1141 -3143.4315 L -414.4341 -3143.4315 C -416.55487 -3143.4315 -418.2741 -3145.1507 -418.2741 -3147.2715 L -418.2741 -3163.5915 C -418.2741 -3165.7123 -416.55487 -3167.4315 -414.4341 -3167.4315 Z" fill="#666"/>
        <path d="M -414.4341 -3167.4315 L -398.1141 -3167.4315 C -395.99333 -3167.4315 -394.2741 -3165.7123 -394.2741 -3163.5915 L -394.2741 -3147.2715 C -394.2741 -3145.1507 -395.99333 -3143.4315 -398.1141 -3143.4315 L -414.4341 -3143.4315 C -416.55487 -3143.4315 -418.2741 -3145.1507 -418.2741 -3147.2715 L -418.2741 -3163.5915 C -418.2741 -3165.7123 -416.55487 -3167.4315 -414.4341 -3167.4315 Z" stroke="white" stroke-linecap="round" stroke-linejoin="round" stroke-width=".25"/>
      </g>
      <g id="Graphic_11280">
        <path d="M -408.683 -3158.0937 L -412.0519 -3158.0937 C -412.78966 -3158.0937 -413.3852 -3157.498 -413.3852 -3156.7604 L -413.3852 -3151.427 C -413.3852 -3150.6893 -412.78966 -3150.0937 -412.0519 -3150.0937 L -400.4963 -3150.0937 C -399.75854 -3150.0937 -399.163 -3150.6893 -399.163 -3151.427 L -399.163 -3156.7604 C -399.163 -3157.498 -399.75854 -3158.0937 -400.4963 -3158.0937 L -404.0519 -3158.0937 C -404.30077 -3158.0937 -404.4963 -3158.2893 -404.4963 -3158.538 C -404.4963 -3158.787 -404.30077 -3158.9826 -404.0519 -3158.9826 L -400.4963 -3158.9826 C -399.26966 -3158.9826 -398.2741 -3157.987 -398.2741 -3156.7604 L -398.2741 -3151.427 C -398.2741 -3150.2004 -399.26966 -3149.205 -400.4963 -3149.205 L -412.0519 -3149.205 C -413.27854 -3149.205 -414.2741 -3150.2004 -414.2741 -3151.427 L -414.2741 -3156.7604 C -414.2741 -3157.987 -413.27854 -3158.9826 -412.0519 -3158.9826 L -408.683 -3158.9826 L -410.5852 -3160.8937 C -410.763 -3161.0715 -410.763 -3161.347 -410.5852 -3161.525 C -410.40743 -3161.7026 -410.1319 -3161.7026 -409.9541 -3161.525 L -407.28743 -3158.858 C -407.10966 -3158.6804 -407.10966 -3158.405 -407.28743 -3158.227 L -409.9541 -3155.5604 C -410.1319 -3155.3826 -410.40743 -3155.3826 -410.5852 -3155.5604 C -410.763 -3155.738 -410.763 -3156.0137 -410.5852 -3156.1915 L -408.6741 -3158.1026 Z" fill="#e3e6e1"/>
      </g>
    </g>
  </g>
</svg>
