<?xml version="1.0" encoding="UTF-8" standalone="no"?>
<!DOCTYPE svg PUBLIC "-//W3C//DTD SVG 1.1//EN" "http://www.w3.org/Graphics/SVG/1.1/DTD/svg11.dtd">
<svg xmlns="http://www.w3.org/2000/svg" xmlns:xl="http://www.w3.org/1999/xlink" version="1.1" xmlns:dc="http://purl.org/dc/elements/1.1/" viewBox="-238.7741 -3167.9315 25 25" width="25" height="25">
  <defs/>
  <g id="SOURCES" stroke-opacity="1" fill="none" stroke="none" fill-opacity="1" stroke-dasharray="none">
    <title>SOURCES</title>
    <g id="SOURCES_Dark">
      <title>Dark</title>
      <g id="Graphic_11269">
        <path d="M -234.4341 -3167.4315 L -218.1141 -3167.4315 C -215.99333 -3167.4315 -214.2741 -3165.7123 -214.2741 -3163.5915 L -214.2741 -3147.2715 C -214.2741 -3145.1507 -215.99333 -3143.4315 -218.1141 -3143.4315 L -234.4341 -3143.4315 C -236.55487 -3143.4315 -238.2741 -3145.1507 -238.2741 -3147.2715 L -238.2741 -3163.5915 C -238.2741 -3165.7123 -236.55487 -3167.4315 -234.4341 -3167.4315 Z" fill="#666"/>
        <path d="M -234.4341 -3167.4315 L -218.1141 -3167.4315 C -215.99333 -3167.4315 -214.2741 -3165.7123 -214.2741 -3163.5915 L -214.2741 -3147.2715 C -214.2741 -3145.1507 -215.99333 -3143.4315 -218.1141 -3143.4315 L -234.4341 -3143.4315 C -236.55487 -3143.4315 -238.2741 -3145.1507 -238.2741 -3147.2715 L -238.2741 -3163.5915 C -238.2741 -3165.7123 -236.55487 -3167.4315 -234.4341 -3167.4315 Z" stroke="white" stroke-linecap="round" stroke-linejoin="round" stroke-width=".25"/>
      </g>
      <g id="Graphic_11268">
        <path d="M -219.8741 -3159.8075 L -219.8741 -3149.4315 C -219.8741 -3148.3275 -220.7701 -3147.4315 -221.8741 -3147.4315 L -230.6741 -3147.4315 C -231.7781 -3147.4315 -232.6741 -3148.3275 -232.6741 -3149.4315 L -232.6741 -3161.4315 C -232.6741 -3162.5355 -231.7781 -3163.4315 -230.6741 -3163.4315 L -223.4981 -3163.4315 C -223.3941 -3163.4315 -223.2821 -3163.3995 -223.1941 -3163.3115 L -219.9941 -3160.1115 C -219.9061 -3160.0235 -219.8741 -3159.9115 -219.8741 -3159.8075 Z M -223.8741 -3162.6315 L -230.6741 -3162.6315 C -231.3381 -3162.6315 -231.8741 -3162.0955 -231.8741 -3161.4315 L -231.8741 -3149.4315 C -231.8741 -3148.7675 -231.3381 -3148.2315 -230.6741 -3148.2315 L -221.8741 -3148.2315 C -221.2101 -3148.2315 -220.6741 -3148.7675 -220.6741 -3149.4315 L -220.6741 -3159.4315 L -223.4741 -3159.4315 C -223.6981 -3159.4315 -223.8741 -3159.6075 -223.8741 -3159.8315 Z M -223.0741 -3162.0635 L -223.0741 -3160.2315 L -221.2421 -3160.2315 Z M -223.8581 -3152.7835 L -222.3861 -3151.3115 C -222.2261 -3151.1515 -222.2261 -3150.9035 -222.3861 -3150.7435 C -222.5461 -3150.5835 -222.7941 -3150.5835 -222.9541 -3150.7435 L -224.4261 -3152.2155 C -225.0421 -3151.7195 -225.8261 -3151.4315 -226.6741 -3151.4315 C -228.6661 -3151.4315 -230.2741 -3153.0395 -230.2741 -3155.0315 C -230.2741 -3157.0235 -228.6661 -3158.6315 -226.6741 -3158.6315 C -224.6821 -3158.6315 -223.0741 -3157.0235 -223.0741 -3155.0315 C -223.0741 -3154.1835 -223.3701 -3153.3995 -223.8581 -3152.7835 Z M -226.6741 -3152.2315 C -225.1301 -3152.2315 -223.8741 -3153.4875 -223.8741 -3155.0315 C -223.8741 -3156.5755 -225.1301 -3157.8315 -226.6741 -3157.8315 C -228.2181 -3157.8315 -229.4741 -3156.5755 -229.4741 -3155.0315 C -229.4741 -3153.4875 -228.2181 -3152.2315 -226.6741 -3152.2315 Z" fill="#c0e0ff"/>
      </g>
    </g>
  </g>
</svg>
