<svg height="25" viewBox="-778.774 -3167.932 25 25" width="25" xmlns="http://www.w3.org/2000/svg"><g fill="none"><path d="M-774.434-3167.432h16.32a3.84 3.84 0 0 1 3.84 3.84v16.32a3.84 3.84 0 0 1-3.84 3.84h-16.32a3.84 3.84 0 0 1-3.84-3.84v-16.32a3.84 3.84 0 0 1 3.84-3.84z" fill="#666"/><path d="M-774.434-3167.432h16.32a3.84 3.84 0 0 1 3.84 3.84v16.32a3.84 3.84 0 0 1-3.84 3.84h-16.32a3.84 3.84 0 0 1-3.84-3.84v-16.32a3.84 3.84 0 0 1 3.84-3.84z" stroke="#fff" stroke-linecap="round" stroke-linejoin="round" stroke-width=".25"/><path d="M-769.83-3159.876v.889h-1.333c-.738 0-1.333.596-1.333 1.333v8c0 .738.595 1.334 1.333 1.334h6.222c.738 0 1.334-.596 1.334-1.334v-1.333h.888v1.333a2.223 2.223 0 0 1-2.222 2.222h-6.222a2.223 2.223 0 0 1-2.222-2.222v-8c0-1.226.995-2.222 2.222-2.222zm7.112-2.667h-4.89c-.737 0-1.333.596-1.333 1.334v8c0 .737.596 1.333 1.334 1.333h6.222c.738 0 1.333-.596 1.333-1.333v-6.667h-2.222a.44.44 0 0 1-.445-.444zm3.555 2.25v7.084a2.223 2.223 0 0 1-2.222 2.222h-6.222a2.223 2.223 0 0 1-2.223-2.222v-8c0-1.227.996-2.223 2.223-2.223h5.306c.116 0 .24.036.338.134l2.667 2.666a.468.468 0 0 1 .133.338zm-2.667-.472h1.147l-1.147-1.147zm-4.888 6.222c-.25 0-.445-.195-.445-.444s.196-.445.445-.445h1.777c.25 0 .445.196.445.445s-.196.444-.445.444zm0-1.777a.44.44 0 0 1-.445-.445.44.44 0 0 1 .445-.444h4.444a.44.44 0 0 1 .444.444.44.44 0 0 1-.444.445zm0-1.778c-.25 0-.445-.196-.445-.445s.196-.444.445-.444h4.444c.249 0 .444.196.444.444s-.195.445-.444.445z" fill="#c0e0ff"/></g></svg>