<?xml version="1.0" encoding="UTF-8" standalone="no"?>
<!DOCTYPE svg PUBLIC "-//W3C//DTD SVG 1.1//EN" "http://www.w3.org/Graphics/SVG/1.1/DTD/svg11.dtd">
<svg xmlns="http://www.w3.org/2000/svg" xmlns:xl="http://www.w3.org/1999/xlink" version="1.1" xmlns:dc="http://purl.org/dc/elements/1.1/" viewBox="-778.7741 -3167.9315 25 25" width="25" height="25">
  <defs/>
  <g id="SOURCES" stroke-opacity="1" fill="none" stroke="none" fill-opacity="1" stroke-dasharray="none">
    <title>SOURCES</title>
    <g id="SOURCES_Dark">
      <title>Dark</title>
      <g id="Graphic_11330">
        <path d="M -774.4341 -3167.4315 L -758.1141 -3167.4315 C -755.9933 -3167.4315 -754.2741 -3165.7123 -754.2741 -3163.5915 L -754.2741 -3147.2715 C -754.2741 -3145.1507 -755.9933 -3143.4315 -758.1141 -3143.4315 L -774.4341 -3143.4315 C -776.5549 -3143.4315 -778.2741 -3145.1507 -778.2741 -3147.2715 L -778.2741 -3163.5915 C -778.2741 -3165.7123 -776.5549 -3167.4315 -774.4341 -3167.4315 Z" fill="#666"/>
        <path d="M -774.4341 -3167.4315 L -758.1141 -3167.4315 C -755.9933 -3167.4315 -754.2741 -3165.7123 -754.2741 -3163.5915 L -754.2741 -3147.2715 C -754.2741 -3145.1507 -755.9933 -3143.4315 -758.1141 -3143.4315 L -774.4341 -3143.4315 C -776.5549 -3143.4315 -778.2741 -3145.1507 -778.2741 -3147.2715 L -778.2741 -3163.5915 C -778.2741 -3165.7123 -776.5549 -3167.4315 -774.4341 -3167.4315 Z" stroke="white" stroke-linecap="round" stroke-linejoin="round" stroke-width=".25"/>
      </g>
      <g id="Graphic_11329">
        <path d="M -769.82965 -3159.876 L -769.82965 -3158.987 L -771.163 -3158.987 C -771.9008 -3158.987 -772.4963 -3158.3915 -772.4963 -3157.6537 L -772.4963 -3149.6537 C -772.4963 -3148.916 -771.9008 -3148.3204 -771.163 -3148.3204 L -764.9408 -3148.3204 C -764.203 -3148.3204 -763.6074 -3148.916 -763.6074 -3149.6537 L -763.6074 -3150.987 L -762.7185 -3150.987 L -762.7185 -3149.6537 C -762.7185 -3148.427 -763.7141 -3147.4315 -764.9408 -3147.4315 L -771.163 -3147.4315 C -772.38965 -3147.4315 -773.3852 -3148.427 -773.3852 -3149.6537 L -773.3852 -3157.6537 C -773.3852 -3158.8804 -772.38965 -3159.876 -771.163 -3159.876 Z M -762.7185 -3162.5426 L -767.6074 -3162.5426 C -768.3452 -3162.5426 -768.9408 -3161.947 -768.9408 -3161.2093 L -768.9408 -3153.2093 C -768.9408 -3152.4715 -768.3452 -3151.876 -767.6074 -3151.876 L -761.3852 -3151.876 C -760.6474 -3151.876 -760.0519 -3152.4715 -760.0519 -3153.2093 L -760.0519 -3159.876 L -762.2741 -3159.876 C -762.523 -3159.876 -762.7185 -3160.0715 -762.7185 -3160.3204 Z M -759.163 -3160.2937 L -759.163 -3153.2093 C -759.163 -3151.9826 -760.1585 -3150.987 -761.3852 -3150.987 L -767.6074 -3150.987 C -768.8341 -3150.987 -769.82965 -3151.9826 -769.82965 -3153.2093 L -769.82965 -3161.2093 C -769.82965 -3162.436 -768.8341 -3163.4315 -767.6074 -3163.4315 L -762.3008 -3163.4315 C -762.1852 -3163.4315 -762.0608 -3163.396 -761.963 -3163.298 L -759.2963 -3160.6315 C -759.1985 -3160.5337 -759.163 -3160.4093 -759.163 -3160.2937 Z M -761.82965 -3160.765 L -760.683 -3160.765 L -761.82965 -3161.9115 Z M -766.7185 -3154.5426 C -766.9674 -3154.5426 -767.163 -3154.738 -767.163 -3154.987 C -767.163 -3155.236 -766.9674 -3155.4315 -766.7185 -3155.4315 L -764.9408 -3155.4315 C -764.6919 -3155.4315 -764.4963 -3155.236 -764.4963 -3154.987 C -764.4963 -3154.738 -764.6919 -3154.5426 -764.9408 -3154.5426 Z M -766.7185 -3156.3204 C -766.9674 -3156.3204 -767.163 -3156.516 -767.163 -3156.765 C -767.163 -3157.0137 -766.9674 -3157.2093 -766.7185 -3157.2093 L -762.2741 -3157.2093 C -762.0252 -3157.2093 -761.82965 -3157.0137 -761.82965 -3156.765 C -761.82965 -3156.516 -762.0252 -3156.3204 -762.2741 -3156.3204 Z M -766.7185 -3158.098 C -766.9674 -3158.098 -767.163 -3158.2937 -767.163 -3158.5426 C -767.163 -3158.7915 -766.9674 -3158.987 -766.7185 -3158.987 L -762.2741 -3158.987 C -762.0252 -3158.987 -761.82965 -3158.7915 -761.82965 -3158.5426 C -761.82965 -3158.2937 -762.0252 -3158.098 -762.2741 -3158.098 Z" fill="#c0e0ff"/>
      </g>
    </g>
  </g>
</svg>
