<svg height="25" viewBox="-742.774 -3167.932 25 25" width="25" xmlns="http://www.w3.org/2000/svg"><g fill="none"><path d="M-738.434-3167.432h16.32a3.84 3.84 0 0 1 3.84 3.84v16.32a3.84 3.84 0 0 1-3.84 3.84h-16.32a3.84 3.84 0 0 1-3.84-3.84v-16.32a3.84 3.84 0 0 1 3.84-3.84z" fill="#666"/><path d="M-738.434-3167.432h16.32a3.84 3.84 0 0 1 3.84 3.84v16.32a3.84 3.84 0 0 1-3.84 3.84h-16.32a3.84 3.84 0 0 1-3.84-3.84v-16.32a3.84 3.84 0 0 1 3.84-3.84z" stroke="#fff" stroke-linecap="round" stroke-linejoin="round" stroke-width=".25"/><path d="M-726.718-3162.372h-4.89c-.737 0-1.333.596-1.333 1.334v8c0 .737.596 1.333 1.334 1.333h6.222c.738 0 1.333-.596 1.333-1.333v-6.667h-2.222a.44.44 0 0 1-.444-.445zm3.555 2.25v7.084a2.223 2.223 0 0 1-2.222 2.222h-6.222a2.223 2.223 0 0 1-2.223-2.222v-8c0-1.227.996-2.223 2.223-2.223h5.306c.116 0 .24.036.338.134l2.667 2.666a.469.469 0 0 1 .133.338zm-2.667-.472h1.147l-1.147-1.147zm-4.888 2.667c-.25 0-.445-.196-.445-.445s.196-.444.445-.444h4.444c.249 0 .444.195.444.444s-.195.445-.444.445zm0 1.778a.44.44 0 0 1-.445-.445.44.44 0 0 1 .445-.444h4.444a.44.44 0 0 1 .444.444.44.44 0 0 1-.444.445zm0 1.777a.44.44 0 0 1-.445-.444.44.44 0 0 1 .445-.445h3.555a.44.44 0 0 1 .445.445.44.44 0 0 1-.445.444zm-6.667-.444a.44.44 0 0 1 .444-.445.44.44 0 0 1 .445.445v2.666a.44.44 0 0 1-.445.445.44.44 0 0 1-.444-.445zm4 7.555c-.25 0-.445-.195-.445-.444s.196-.445.445-.445h2.667c.248 0 .444.196.444.445s-.196.444-.444.444zm-1.778-12.444c.249 0 .445.196.445.444s-.196.445-.445.445c-.738 0-1.333.595-1.333 1.333a.44.44 0 0 1-.445.445.44.44 0 0 1-.444-.445c0-1.227.995-2.222 2.222-2.222zm-2.222 10.222a.44.44 0 0 1 .444-.444.44.44 0 0 1 .445.444c0 .738.595 1.334 1.333 1.334.249 0 .445.195.445.444s-.196.444-.445.444a2.223 2.223 0 0 1-2.222-2.222zm8.444 2.222c-.249 0-.444-.195-.444-.444s.195-.444.444-.444c.738 0 1.334-.596 1.334-1.334 0-.249.195-.444.444-.444s.445.195.445.444a2.223 2.223 0 0 1-2.223 2.222z" fill="#c0e0ff"/></g></svg>