<svg height="25" viewBox="-418.774 -3167.932 25 25" width="25" xmlns="http://www.w3.org/2000/svg"><g fill="none"><path d="m-414.4341-3167.4315h16.32c2.12077 0 3.84 1.7192 3.84 3.84v16.32c0 2.1208-1.71923 3.84-3.84 3.84h-16.32c-2.12077 0-3.84-1.7192-3.84-3.84v-16.32c0-2.1208 1.71923-3.84 3.84-3.84z" fill="#666"/><path d="m-414.4341-3167.4315h16.32c2.12077 0 3.84 1.7192 3.84 3.84v16.32c0 2.1208-1.71923 3.84-3.84 3.84h-16.32c-2.12077 0-3.84-1.7192-3.84-3.84v-16.32c0-2.1208 1.71923-3.84 3.84-3.84z" stroke="#fff" stroke-linecap="round" stroke-linejoin="round" stroke-width=".25"/><path d="m-408.683-3158.0937h-3.3689c-.73776 0-1.3333.5957-1.3333 1.3333v5.3334c0 .7377.59554 1.3333 1.3333 1.3333h11.5556c.73776 0 1.3333-.5956 1.3333-1.3333v-5.3334c0-.7376-.59554-1.3333-1.3333-1.3333h-3.5556c-.24887 0-.4444-.1956-.4444-.4443 0-.249.19553-.4446.4444-.4446h3.5556c1.22664 0 2.2222.9956 2.2222 2.2222v5.3334c0 1.2266-.99556 2.222-2.2222 2.222h-11.5556c-1.22664 0-2.2222-.9954-2.2222-2.222v-5.3334c0-1.2266.99556-2.2222 2.2222-2.2222h3.3689l-1.9022-1.9111c-.1778-.1778-.1778-.4533 0-.6313.17777-.1776.4533-.1776.6311 0l2.66667 2.667c.17777.1776.17777.453 0 .631l-2.66667 2.6666c-.1778.1778-.45333.1778-.6311 0-.1778-.1776-.1778-.4533 0-.6311l1.9111-1.9111z" fill="#e3e6e1"/></g></svg>