<?xml version="1.0" encoding="UTF-8" standalone="no"?>
<!DOCTYPE svg PUBLIC "-//W3C//DTD SVG 1.1//EN" "http://www.w3.org/Graphics/SVG/1.1/DTD/svg11.dtd">
<svg xmlns="http://www.w3.org/2000/svg" xmlns:xl="http://www.w3.org/1999/xlink" version="1.1" xmlns:dc="http://purl.org/dc/elements/1.1/" viewBox="-526.7741 -3167.9315 25 25" width="25" height="25">
  <defs/>
  <g id="SOURCES" stroke-opacity="1" fill="none" stroke="none" fill-opacity="1" stroke-dasharray="none">
    <title>SOURCES</title>
    <g id="SOURCES_Dark">
      <title>Dark</title>
      <g id="Graphic_11322">
        <path d="M -522.4341 -3167.4315 L -506.1141 -3167.4315 C -503.9933 -3167.4315 -502.2741 -3165.7123 -502.2741 -3163.5915 L -502.2741 -3147.2715 C -502.2741 -3145.1507 -503.9933 -3143.4315 -506.1141 -3143.4315 L -522.4341 -3143.4315 C -524.5549 -3143.4315 -526.2741 -3145.1507 -526.2741 -3147.2715 L -526.2741 -3163.5915 C -526.2741 -3165.7123 -524.5549 -3167.4315 -522.4341 -3167.4315 Z" fill="#666"/>
        <path d="M -522.4341 -3167.4315 L -506.1141 -3167.4315 C -503.9933 -3167.4315 -502.2741 -3165.7123 -502.2741 -3163.5915 L -502.2741 -3147.2715 C -502.2741 -3145.1507 -503.9933 -3143.4315 -506.1141 -3143.4315 L -522.4341 -3143.4315 C -524.5549 -3143.4315 -526.2741 -3145.1507 -526.2741 -3147.2715 L -526.2741 -3163.5915 C -526.2741 -3165.7123 -524.5549 -3167.4315 -522.4341 -3167.4315 Z" stroke="white" stroke-linecap="round" stroke-linejoin="round" stroke-width=".25"/>
      </g>
      <g id="Graphic_11321">
        <path d="M -510.9057 -3158.208 L -515.53726 -3158.208 C -516.2362 -3158.208 -516.8004 -3157.6437 -516.8004 -3156.9448 L -516.8004 -3149.366 C -516.8004 -3148.667 -516.2362 -3148.1027 -515.53726 -3148.1027 L -509.6425 -3148.1027 C -508.9436 -3148.1027 -508.37936 -3148.667 -508.37936 -3149.366 L -508.37936 -3155.6816 L -510.4846 -3155.6816 C -510.7204 -3155.6816 -510.9057 -3155.867 -510.9057 -3156.1027 Z M -507.53726 -3156.0774 L -507.53726 -3149.366 C -507.53726 -3148.2037 -508.4804 -3147.2606 -509.6425 -3147.2606 L -515.53726 -3147.2606 C -516.69936 -3147.2606 -517.6425 -3148.2037 -517.6425 -3149.366 L -517.6425 -3156.9448 C -517.6425 -3158.107 -516.69936 -3159.05 -515.53726 -3159.05 L -510.5099 -3159.05 C -510.4004 -3159.05 -510.2825 -3159.0164 -510.1899 -3158.9237 L -507.6636 -3156.3974 C -507.57094 -3156.3048 -507.53726 -3156.187 -507.53726 -3156.0774 Z M -510.0636 -3156.5237 L -508.97726 -3156.5237 L -510.0636 -3157.61 Z M -514.69515 -3153.9974 C -514.93094 -3153.9974 -515.1162 -3154.1827 -515.1162 -3154.4185 C -515.1162 -3154.6542 -514.93094 -3154.8395 -514.69515 -3154.8395 L -510.4846 -3154.8395 C -510.24884 -3154.8395 -510.0636 -3154.6542 -510.0636 -3154.4185 C -510.0636 -3154.1827 -510.24884 -3153.9974 -510.4846 -3153.9974 Z M -514.69515 -3152.3132 C -514.93094 -3152.3132 -515.1162 -3152.4985 -515.1162 -3152.7342 C -515.1162 -3152.97 -514.93094 -3153.1553 -514.69515 -3153.1553 L -510.4846 -3153.1553 C -510.24884 -3153.1553 -510.0636 -3152.97 -510.0636 -3152.7342 C -510.0636 -3152.4985 -510.24884 -3152.3132 -510.4846 -3152.3132 Z M -514.69515 -3150.629 C -514.93094 -3150.629 -515.1162 -3150.8142 -515.1162 -3151.05 C -515.1162 -3151.286 -514.93094 -3151.471 -514.69515 -3151.471 L -511.32673 -3151.471 C -511.09094 -3151.471 -510.9057 -3151.286 -510.9057 -3151.05 C -510.9057 -3150.8142 -511.09094 -3150.629 -511.32673 -3150.629 Z M -513.01094 -3161.5764 C -513.24673 -3161.5764 -513.432 -3161.7616 -513.432 -3161.9974 C -513.432 -3162.2332 -513.24673 -3162.4185 -513.01094 -3162.4185 C -511.84884 -3162.4185 -510.9057 -3161.4753 -510.9057 -3160.3132 L -510.9057 -3159.05 C -510.9057 -3158.8142 -511.09094 -3158.629 -511.32673 -3158.629 C -511.5625 -3158.629 -511.7478 -3158.8142 -511.7478 -3159.05 L -511.7478 -3160.3132 C -511.7478 -3161.012 -512.312 -3161.5764 -513.01094 -3161.5764 Z M -518.9057 -3162.4185 C -518.6699 -3162.4185 -518.4846 -3162.2332 -518.4846 -3161.9974 C -518.4846 -3161.7616 -518.6699 -3161.5764 -518.9057 -3161.5764 C -519.6046 -3161.5764 -520.16884 -3161.012 -520.16884 -3160.3132 L -520.16884 -3152.7342 C -520.16884 -3152.0353 -519.6046 -3151.471 -518.9057 -3151.471 L -517.6425 -3151.471 C -517.40673 -3151.471 -517.22147 -3151.286 -517.22147 -3151.05 C -517.22147 -3150.8142 -517.40673 -3150.629 -517.6425 -3150.629 L -518.9057 -3150.629 C -520.0678 -3150.629 -521.01094 -3151.572 -521.01094 -3152.7342 L -521.01094 -3160.3132 C -521.01094 -3161.4753 -520.0678 -3162.4185 -518.9057 -3162.4185 Z M -516.8004 -3161.9974 C -516.8004 -3161.7616 -516.9857 -3161.5764 -517.22147 -3161.5764 C -517.45726 -3161.5764 -517.6425 -3161.7616 -517.6425 -3161.9974 C -517.6425 -3162.6964 -517.0783 -3163.2606 -516.37936 -3163.2606 L -515.53726 -3163.2606 C -514.8383 -3163.2606 -514.2741 -3162.6964 -514.2741 -3161.9974 C -514.2741 -3161.7616 -514.45936 -3161.5764 -514.69515 -3161.5764 C -514.93094 -3161.5764 -515.1162 -3161.7616 -515.1162 -3161.9974 C -515.1162 -3162.2332 -515.30147 -3162.4185 -515.53726 -3162.4185 L -516.37936 -3162.4185 C -516.61515 -3162.4185 -516.8004 -3162.2332 -516.8004 -3161.9974 Z" fill="#c0e0ff"/>
      </g>
    </g>
  </g>
</svg>
