<?xml version="1.0" encoding="UTF-8" standalone="no"?>
<!DOCTYPE svg PUBLIC "-//W3C//DTD SVG 1.1//EN" "http://www.w3.org/Graphics/SVG/1.1/DTD/svg11.dtd">
<svg xmlns="http://www.w3.org/2000/svg" xmlns:xl="http://www.w3.org/1999/xlink" version="1.1" xmlns:dc="http://purl.org/dc/elements/1.1/" viewBox="-742.7741 -3167.9315 25 25" width="25" height="25">
  <defs/>
  <g id="SOURCES" stroke-opacity="1" fill="none" stroke="none" fill-opacity="1" stroke-dasharray="none">
    <title>SOURCES</title>
    <g id="SOURCES_Dark">
      <title>Dark</title>
      <g id="Graphic_11326">
        <path d="M -738.4341 -3167.4315 L -722.1141 -3167.4315 C -719.9933 -3167.4315 -718.2741 -3165.7123 -718.2741 -3163.5915 L -718.2741 -3147.2715 C -718.2741 -3145.1507 -719.9933 -3143.4315 -722.1141 -3143.4315 L -738.4341 -3143.4315 C -740.5549 -3143.4315 -742.2741 -3145.1507 -742.2741 -3147.2715 L -742.2741 -3163.5915 C -742.2741 -3165.7123 -740.5549 -3167.4315 -738.4341 -3167.4315 Z" fill="#666"/>
        <path d="M -738.4341 -3167.4315 L -722.1141 -3167.4315 C -719.9933 -3167.4315 -718.2741 -3165.7123 -718.2741 -3163.5915 L -718.2741 -3147.2715 C -718.2741 -3145.1507 -719.9933 -3143.4315 -722.1141 -3143.4315 L -738.4341 -3143.4315 C -740.5549 -3143.4315 -742.2741 -3145.1507 -742.2741 -3147.2715 L -742.2741 -3163.5915 C -742.2741 -3165.7123 -740.5549 -3167.4315 -738.4341 -3167.4315 Z" stroke="white" stroke-linecap="round" stroke-linejoin="round" stroke-width=".25"/>
      </g>
      <g id="Graphic_11325">
        <path d="M -726.7185 -3162.3717 L -731.6074 -3162.3717 C -732.3452 -3162.3717 -732.9408 -3161.776 -732.9408 -3161.0383 L -732.9408 -3153.0383 C -732.9408 -3152.3006 -732.3452 -3151.705 -731.6074 -3151.705 L -725.3852 -3151.705 C -724.6474 -3151.705 -724.0519 -3152.3006 -724.0519 -3153.0383 L -724.0519 -3159.705 L -726.2741 -3159.705 C -726.523 -3159.705 -726.7185 -3159.9006 -726.7185 -3160.1495 Z M -723.163 -3160.1228 L -723.163 -3153.0383 C -723.163 -3151.8117 -724.1585 -3150.816 -725.3852 -3150.816 L -731.6074 -3150.816 C -732.8341 -3150.816 -733.82965 -3151.8117 -733.82965 -3153.0383 L -733.82965 -3161.0383 C -733.82965 -3162.265 -732.8341 -3163.2606 -731.6074 -3163.2606 L -726.3008 -3163.2606 C -726.1852 -3163.2606 -726.0608 -3163.225 -725.963 -3163.1272 L -723.2963 -3160.4606 C -723.1985 -3160.3628 -723.163 -3160.2383 -723.163 -3160.1228 Z M -725.82965 -3160.594 L -724.683 -3160.594 L -725.82965 -3161.7406 Z M -730.7185 -3157.9272 C -730.9674 -3157.9272 -731.163 -3158.1228 -731.163 -3158.3717 C -731.163 -3158.6206 -730.9674 -3158.816 -730.7185 -3158.816 L -726.2741 -3158.816 C -726.0252 -3158.816 -725.82965 -3158.6206 -725.82965 -3158.3717 C -725.82965 -3158.1228 -726.0252 -3157.9272 -726.2741 -3157.9272 Z M -730.7185 -3156.1495 C -730.9674 -3156.1495 -731.163 -3156.345 -731.163 -3156.594 C -731.163 -3156.8428 -730.9674 -3157.0383 -730.7185 -3157.0383 L -726.2741 -3157.0383 C -726.0252 -3157.0383 -725.82965 -3156.8428 -725.82965 -3156.594 C -725.82965 -3156.345 -726.0252 -3156.1495 -726.2741 -3156.1495 Z M -730.7185 -3154.3717 C -730.9674 -3154.3717 -731.163 -3154.5672 -731.163 -3154.816 C -731.163 -3155.065 -730.9674 -3155.2606 -730.7185 -3155.2606 L -727.163 -3155.2606 C -726.9141 -3155.2606 -726.7185 -3155.065 -726.7185 -3154.816 C -726.7185 -3154.5672 -726.9141 -3154.3717 -727.163 -3154.3717 Z M -737.3852 -3154.816 C -737.3852 -3155.065 -737.18965 -3155.2606 -736.9408 -3155.2606 C -736.6919 -3155.2606 -736.4963 -3155.065 -736.4963 -3154.816 L -736.4963 -3152.1495 C -736.4963 -3151.9006 -736.6919 -3151.705 -736.9408 -3151.705 C -737.18965 -3151.705 -737.3852 -3151.9006 -737.3852 -3152.1495 Z M -733.3852 -3147.2606 C -733.6341 -3147.2606 -733.82965 -3147.456 -733.82965 -3147.705 C -733.82965 -3147.954 -733.6341 -3148.1495 -733.3852 -3148.1495 L -730.7185 -3148.1495 C -730.46965 -3148.1495 -730.2741 -3147.954 -730.2741 -3147.705 C -730.2741 -3147.456 -730.46965 -3147.2606 -730.7185 -3147.2606 Z M -735.163 -3159.705 C -734.9141 -3159.705 -734.7185 -3159.5095 -734.7185 -3159.2606 C -734.7185 -3159.0117 -734.9141 -3158.816 -735.163 -3158.816 C -735.9008 -3158.816 -736.4963 -3158.2206 -736.4963 -3157.4828 C -736.4963 -3157.234 -736.6919 -3157.0383 -736.9408 -3157.0383 C -737.18965 -3157.0383 -737.3852 -3157.234 -737.3852 -3157.4828 C -737.3852 -3158.7095 -736.38965 -3159.705 -735.163 -3159.705 Z M -737.3852 -3149.4828 C -737.3852 -3149.7317 -737.18965 -3149.9272 -736.9408 -3149.9272 C -736.6919 -3149.9272 -736.4963 -3149.7317 -736.4963 -3149.4828 C -736.4963 -3148.745 -735.9008 -3148.1495 -735.163 -3148.1495 C -734.9141 -3148.1495 -734.7185 -3147.954 -734.7185 -3147.705 C -734.7185 -3147.456 -734.9141 -3147.2606 -735.163 -3147.2606 C -736.38965 -3147.2606 -737.3852 -3148.256 -737.3852 -3149.4828 Z M -728.9408 -3147.2606 C -729.18965 -3147.2606 -729.3852 -3147.456 -729.3852 -3147.705 C -729.3852 -3147.954 -729.18965 -3148.1495 -728.9408 -3148.1495 C -728.203 -3148.1495 -727.6074 -3148.745 -727.6074 -3149.4828 C -727.6074 -3149.7317 -727.4119 -3149.9272 -727.163 -3149.9272 C -726.9141 -3149.9272 -726.7185 -3149.7317 -726.7185 -3149.4828 C -726.7185 -3148.256 -727.7141 -3147.2606 -728.9408 -3147.2606 Z" fill="#c0e0ff"/>
      </g>
    </g>
  </g>
</svg>
