<svg height="25" viewBox="-274.774 -3167.932 25 25" width="25" xmlns="http://www.w3.org/2000/svg"><g fill="none"><path d="M-270.434-3167.432h16.32a3.84 3.84 0 0 1 3.84 3.84v16.32a3.84 3.84 0 0 1-3.84 3.84h-16.32a3.84 3.84 0 0 1-3.84-3.84v-16.32a3.84 3.84 0 0 1 3.84-3.84z" fill="#666"/><path d="M-270.434-3167.432h16.32a3.84 3.84 0 0 1 3.84 3.84v16.32a3.84 3.84 0 0 1-3.84 3.84h-16.32a3.84 3.84 0 0 1-3.84-3.84v-16.32a3.84 3.84 0 0 1 3.84-3.84z" stroke="#fff" stroke-linecap="round" stroke-linejoin="round" stroke-width=".25"/><path d="M-257.83-3151.96l3.423 3.422a.44.44 0 0 1 0 .631.44.44 0 0 1-.632 0l-3.422-3.422a7.055 7.055 0 0 1-4.702 1.778 7.11 7.11 0 0 1-7.111-7.111 7.11 7.11 0 0 1 7.111-7.111 7.11 7.11 0 0 1 5.333 11.813zm-5.333 1.52c3.44 0 6.222-2.782 6.222-6.222s-2.782-6.223-6.222-6.223-6.222 2.783-6.222 6.223 2.782 6.222 6.222 6.222z" fill="#c0e0ff"/></g></svg>