<?xml version="1.0" encoding="UTF-8" standalone="no"?>
<!DOCTYPE svg PUBLIC "-//W3C//DTD SVG 1.1//EN" "http://www.w3.org/Graphics/SVG/1.1/DTD/svg11.dtd">
<svg xmlns="http://www.w3.org/2000/svg" xmlns:xl="http://www.w3.org/1999/xlink" version="1.1" xmlns:dc="http://purl.org/dc/elements/1.1/" viewBox="-274.7741 -3167.9315 25 25" width="25" height="25">
  <defs/>
  <g id="SOURCES" stroke-opacity="1" fill="none" stroke="none" fill-opacity="1" stroke-dasharray="none">
    <title>SOURCES</title>
    <g id="SOURCES_Dark">
      <title>Dark</title>
      <g id="Graphic_11273">
        <path d="M -270.4341 -3167.4315 L -254.1141 -3167.4315 C -251.99333 -3167.4315 -250.2741 -3165.7123 -250.2741 -3163.5915 L -250.2741 -3147.2715 C -250.2741 -3145.1507 -251.99333 -3143.4315 -254.1141 -3143.4315 L -270.4341 -3143.4315 C -272.55487 -3143.4315 -274.2741 -3145.1507 -274.2741 -3147.2715 L -274.2741 -3163.5915 C -274.2741 -3165.7123 -272.55487 -3167.4315 -270.4341 -3167.4315 Z" fill="#666"/>
        <path d="M -270.4341 -3167.4315 L -254.1141 -3167.4315 C -251.99333 -3167.4315 -250.2741 -3165.7123 -250.2741 -3163.5915 L -250.2741 -3147.2715 C -250.2741 -3145.1507 -251.99333 -3143.4315 -254.1141 -3143.4315 L -270.4341 -3143.4315 C -272.55487 -3143.4315 -274.2741 -3145.1507 -274.2741 -3147.2715 L -274.2741 -3163.5915 C -274.2741 -3165.7123 -272.55487 -3167.4315 -270.4341 -3167.4315 Z" stroke="white" stroke-linecap="round" stroke-linejoin="round" stroke-width=".25"/>
      </g>
      <g id="Graphic_11272">
        <path d="M -257.82966 -3151.96 L -254.40743 -3148.538 C -254.22966 -3148.36 -254.22966 -3148.0845 -254.40743 -3147.9067 C -254.5852 -3147.729 -254.86077 -3147.729 -255.03854 -3147.9067 L -258.46077 -3151.329 C -259.7141 -3150.218 -261.35854 -3149.551 -263.163 -3149.551 C -267.09188 -3149.551 -270.2741 -3152.7334 -270.2741 -3156.6623 C -270.2741 -3160.591 -267.09188 -3163.7734 -263.163 -3163.7734 C -259.2341 -3163.7734 -256.05188 -3160.591 -256.05188 -3156.6623 C -256.05188 -3154.858 -256.72743 -3153.2134 -257.82966 -3151.96 Z M -263.163 -3150.44 C -259.723 -3150.44 -256.94077 -3153.2223 -256.94077 -3156.6623 C -256.94077 -3160.1023 -259.723 -3162.8845 -263.163 -3162.8845 C -266.603 -3162.8845 -269.3852 -3160.1023 -269.3852 -3156.6623 C -269.3852 -3153.2223 -266.603 -3150.44 -263.163 -3150.44 Z" fill="#c0e0ff"/>
      </g>
    </g>
  </g>
</svg>
