<svg height="25" viewBox="-346.774 -3167.932 25 25" width="25" xmlns="http://www.w3.org/2000/svg"><g fill="none"><path d="m-342.4341-3167.4315h16.32c2.12077 0 3.84 1.7192 3.84 3.84v16.32c0 2.1208-1.71923 3.84-3.84 3.84h-16.32c-2.12077 0-3.84-1.7192-3.84-3.84v-16.32c0-2.1208 1.71923-3.84 3.84-3.84z" fill="#666"/><path d="m-342.4341-3167.4315h16.32c2.12077 0 3.84 1.7192 3.84 3.84v16.32c0 2.1208-1.71923 3.84-3.84 3.84h-16.32c-2.12077 0-3.84-1.7192-3.84-3.84v-16.32c0-2.1208 1.71923-3.84 3.84-3.84z" stroke="#fff" stroke-linecap="round" stroke-linejoin="round" stroke-width=".25"/><g fill="#8eed62"><path d="m-341.25827-3153.267c.2209 0 .39997.179.39997.4v2.4006c0 .6627.53724 1.1999 1.19994 1.1999h8.79956c.6627 0 1.19993-.5372 1.19993-1.1999v-9.9996h-2.79985c-.22091 0-.39998-.179-.39998-.4v-2.7998h-6.79966c-.6627 0-1.19994.5373-1.19994 1.2v1.5991c0 .2209-.17907.4-.39997.4-.22091 0-.39998-.1791-.39998-.4v-1.5991c0-1.1045.89538-1.9999 1.99989-1.9999h7.17726c.1062-.0067.21672.0287.3052.1171l3.19984 3.1999c.08848.0885.12389.199.11716.3052v10.3771c0 1.1044-.8954 1.9999-1.9999 1.9999h-8.79956c-1.10451 0-1.99989-.8955-1.99989-1.9999v-2.4006c0-.221.17907-.4.39998-.4zm9.19952-9.833v1.834h1.83423zm-2.96553 5.833-1.71707-1.717c-.1562-.156-.1562-.4094 0-.5656s.40945-.1562.56565 0l2.3999 2.3999c.1562.1562.1562.4094 0 .5657l-2.3999 2.4c-.1562.156-.40945.156-.56565 0-.1562-.1564-.1562-.4096 0-.566l1.71707-1.717h-6.23399c-.22091 0-.39998-.179-.39998-.4 0-.2208.17907-.4.39998-.4z"/><path d="m-339.69-3148.374c.012 1.094.90273 1.9775 1.9998 1.9775h8.79955c1.10452 0 1.9999-.8955 1.9999-1.9999v-10.3771c.00675-.1062-.02865-.2167-.11715-.3052l-1.73387-1.7339v1.1313l.4854.4853h-.4854v.8h1.05107v9.9996c0 .6627-.53724 1.1999-1.19995 1.1999h-8.79955c-.65526 0-1.18784-.5252-1.19974-1.1775z"/></g></g></svg>