<svg height="25" viewBox="-526.774 -3167.932 25 25" width="25" xmlns="http://www.w3.org/2000/svg"><g fill="none"><path d="m-522.4341-3167.4315h16.32c2.1208 0 3.84 1.7192 3.84 3.84v16.32c0 2.1208-1.7192 3.84-3.84 3.84h-16.32c-2.1208 0-3.84-1.7192-3.84-3.84v-16.32c0-2.1208 1.7192-3.84 3.84-3.84z" fill="#666"/><path d="m-522.4341-3167.4315h16.32c2.1208 0 3.84 1.7192 3.84 3.84v16.32c0 2.1208-1.7192 3.84-3.84 3.84h-16.32c-2.1208 0-3.84-1.7192-3.84-3.84v-16.32c0-2.1208 1.7192-3.84 3.84-3.84z" stroke="#fff" stroke-linecap="round" stroke-linejoin="round" stroke-width=".25"/><path d="m-510.9057-3158.208h-4.63156c-.69894 0-1.26314.5643-1.26314 1.2632v7.5788c0 .699.5642 1.2633 1.26314 1.2633h5.89476c.6989 0 1.26314-.5643 1.26314-1.2633v-6.3156h-2.10524c-.2358 0-.4211-.1854-.4211-.4211zm3.36844 2.1306v6.7114c0 1.1623-.94314 2.1054-2.10524 2.1054h-5.89476c-1.1621 0-2.10524-.9431-2.10524-2.1054v-7.5788c0-1.1622.94314-2.1052 2.10524-2.1052h5.02736c.1095 0 .2274.0336.32.1263l2.5263 2.5263c.09266.0926.12634.2104.12634.32zm-2.52634-.4463h1.08634l-1.08634-1.0863zm-4.63155 2.5263c-.23579 0-.42105-.1853-.42105-.4211 0-.2357.18526-.421.42105-.421h4.21055c.23576 0 .421.1853.421.421 0 .2358-.18524.4211-.421.4211zm0 1.6842c-.23579 0-.42105-.1853-.42105-.421 0-.2358.18526-.4211.42105-.4211h4.21055c.23576 0 .421.1853.421.4211 0 .2357-.18524.421-.421.421zm0 1.6842c-.23579 0-.42105-.1852-.42105-.421 0-.236.18526-.421.42105-.421h3.36842c.23579 0 .42103.185.42103.421 0 .2358-.18524.421-.42103.421zm1.68421-10.9474c-.23579 0-.42106-.1852-.42106-.421s.18527-.4211.42106-.4211c1.1621 0 2.10524.9432 2.10524 2.1053v1.2632c0 .2358-.18524.421-.42103.421-.23577 0-.42107-.1852-.42107-.421v-1.2632c0-.6988-.5642-1.2632-1.26314-1.2632zm-5.89476-.8421c.2358 0 .4211.1853.4211.4211s-.1853.421-.4211.421c-.6989 0-1.26314.5644-1.26314 1.2632v7.579c0 .6989.56424 1.2632 1.26314 1.2632h1.2632c.23577 0 .42103.185.42103.421 0 .2358-.18526.421-.42103.421h-1.2632c-1.1621 0-2.10524-.943-2.10524-2.1052v-7.579c0-1.1621.94314-2.1053 2.10524-2.1053zm2.1053.4211c0 .2358-.1853.421-.42107.421-.23579 0-.42103-.1852-.42103-.421 0-.699.5642-1.2632 1.26314-1.2632h.8421c.69896 0 1.26316.5642 1.26316 1.2632 0 .2358-.18526.421-.42105.421s-.42105-.1852-.42105-.421-.18527-.4211-.42106-.4211h-.8421c-.23579 0-.42104.1853-.42104.4211z" fill="#c0e0ff"/></g></svg>