<svg height="25" viewBox="-706.774 -3167.932 25 25" width="25" xmlns="http://www.w3.org/2000/svg"><g fill="none"><path d="M-702.434-3167.432h16.32a3.84 3.84 0 0 1 3.84 3.84v16.32a3.84 3.84 0 0 1-3.84 3.84h-16.32a3.84 3.84 0 0 1-3.84-3.84v-16.32a3.84 3.84 0 0 1 3.84-3.84z" fill="#666"/><path d="M-702.434-3167.432h16.32a3.84 3.84 0 0 1 3.84 3.84v16.32a3.84 3.84 0 0 1-3.84 3.84h-16.32a3.84 3.84 0 0 1-3.84-3.84v-16.32a3.84 3.84 0 0 1 3.84-3.84z" stroke="#fff" stroke-linecap="round" stroke-linejoin="round" stroke-width=".25"/><path d="M-693.077-3156l2.121-2.12c.16-.16.408-.16.568 0 .16.16.16.408 0 .568l-2.12 2.12 2.12 2.121c.16.16.16.408 0 .569a.396.396 0 0 1-.568 0l-2.12-2.121-2.121 2.12a.396.396 0 0 1-.569 0 .396.396 0 0 1 0-.568l2.121-2.12-2.12-2.121a.396.396 0 0 1 0-.568c.16-.16.407-.16.568 0zm-4.977 4.538c.224.272.568.432.92.432h8.851c.664 0 1.2-.536 1.2-1.2v-6.403c0-.664-.536-1.2-1.2-1.2h-8.843c-.36 0-.696.16-.92.432l-3.314 3.97zm-4.13-4.226l3.521-4.225c.376-.456.945-.72 1.537-.72h8.851c1.105 0 2 .896 2 2v6.403c0 1.104-.895 2-2 2h-8.851c-.592 0-1.16-.264-1.537-.72l-3.521-4.225a.41.41 0 0 1 0-.513z" fill="#fc6d7e"/></g></svg>