<?xml version="1.0" encoding="UTF-8" standalone="no"?>
<!DOCTYPE svg PUBLIC "-//W3C//DTD SVG 1.1//EN" "http://www.w3.org/Graphics/SVG/1.1/DTD/svg11.dtd">
<svg xmlns="http://www.w3.org/2000/svg" xmlns:xl="http://www.w3.org/1999/xlink" version="1.1" xmlns:dc="http://purl.org/dc/elements/1.1/" viewBox="-454.7741 -3167.9315 25 25" width="25" height="25">
  <defs/>
  <g id="SOURCES" stroke-opacity="1" fill="none" stroke="none" fill-opacity="1" stroke-dasharray="none">
    <title>SOURCES</title>
    <g id="SOURCES_Dark">
      <title>Dark</title>
      <g id="Graphic_11285">
        <path d="M -450.4341 -3167.4315 L -434.1141 -3167.4315 C -431.99333 -3167.4315 -430.2741 -3165.7123 -430.2741 -3163.5915 L -430.2741 -3147.2715 C -430.2741 -3145.1507 -431.99333 -3143.4315 -434.1141 -3143.4315 L -450.4341 -3143.4315 C -452.5549 -3143.4315 -454.2741 -3145.1507 -454.2741 -3147.2715 L -454.2741 -3163.5915 C -454.2741 -3165.7123 -452.5549 -3167.4315 -450.4341 -3167.4315 Z" fill="#666"/>
        <path d="M -450.4341 -3167.4315 L -434.1141 -3167.4315 C -431.99333 -3167.4315 -430.2741 -3165.7123 -430.2741 -3163.5915 L -430.2741 -3147.2715 C -430.2741 -3145.1507 -431.99333 -3143.4315 -434.1141 -3143.4315 L -450.4341 -3143.4315 C -452.5549 -3143.4315 -454.2741 -3145.1507 -454.2741 -3147.2715 L -454.2741 -3163.5915 C -454.2741 -3165.7123 -452.5549 -3167.4315 -450.4341 -3167.4315 Z" stroke="white" stroke-linecap="round" stroke-linejoin="round" stroke-width=".25"/>
      </g>
      <g id="Graphic_11284">
        <path d="M -435.2153 -3160.608 C -435.2153 -3160.8715 -435.0082 -3161.0786 -434.7447 -3161.0786 C -434.48116 -3161.0786 -434.2741 -3160.8715 -434.2741 -3160.608 L -434.2741 -3155.902 C -434.2741 -3155.6386 -434.48116 -3155.4315 -434.7447 -3155.4315 L -439.45057 -3155.4315 C -439.7141 -3155.4315 -439.92116 -3155.6386 -439.92116 -3155.902 C -439.92116 -3156.1656 -439.7141 -3156.3727 -439.45057 -3156.3727 L -435.2153 -3156.3727 Z M -449.3329 -3150.255 C -449.3329 -3149.9915 -449.5494 -3149.7844 -449.8035 -3149.7844 C -450.06704 -3149.7844 -450.2741 -3150.001 -450.2741 -3150.255 C -450.2741 -3151.422 -450.2741 -3152.0244 -450.2647 -3152.1374 C -450.02 -3156.6174 -446.30234 -3160.1374 -441.8035 -3160.1374 L -441.54 -3160.1374 C -438.6129 -3160.1374 -435.90234 -3158.6315 -434.3494 -3156.1468 C -434.2082 -3155.9303 -434.2741 -3155.6386 -434.5 -3155.4974 C -434.71645 -3155.3562 -435.0082 -3155.422 -435.1494 -3155.648 C -436.5235 -3157.8503 -438.94234 -3159.1868 -441.54 -3159.1868 L -441.8035 -3159.1868 C -445.8035 -3159.1868 -449.10704 -3156.0527 -449.3235 -3152.081 C -449.3235 -3151.9962 -449.3235 -3151.3656 -449.3329 -3150.2456 Z" fill="#8eed62"/>
      </g>
    </g>
  </g>
</svg>
