<?xml version="1.0" encoding="UTF-8" standalone="no"?>
<!DOCTYPE svg PUBLIC "-//W3C//DTD SVG 1.1//EN" "http://www.w3.org/Graphics/SVG/1.1/DTD/svg11.dtd">
<svg xmlns="http://www.w3.org/2000/svg" xmlns:xl="http://www.w3.org/1999/xlink" version="1.1" xmlns:dc="http://purl.org/dc/elements/1.1/" viewBox="-562.7741 -3167.9315 25 25" width="25" height="25">
  <defs/>
  <g id="SOURCES" stroke-opacity="1" fill="none" stroke="none" fill-opacity="1" stroke-dasharray="none">
    <title>SOURCES</title>
    <g id="SOURCES_Dark">
      <title>Dark</title>
      <g id="Graphic_11293">
        <path d="M -558.4341 -3167.4315 L -542.1141 -3167.4315 C -539.9933 -3167.4315 -538.2741 -3165.7123 -538.2741 -3163.5915 L -538.2741 -3147.2715 C -538.2741 -3145.1507 -539.9933 -3143.4315 -542.1141 -3143.4315 L -558.4341 -3143.4315 C -560.5549 -3143.4315 -562.2741 -3145.1507 -562.2741 -3147.2715 L -562.2741 -3163.5915 C -562.2741 -3165.7123 -560.5549 -3167.4315 -558.4341 -3167.4315 Z" fill="#666"/>
        <path d="M -558.4341 -3167.4315 L -542.1141 -3167.4315 C -539.9933 -3167.4315 -538.2741 -3165.7123 -538.2741 -3163.5915 L -538.2741 -3147.2715 C -538.2741 -3145.1507 -539.9933 -3143.4315 -542.1141 -3143.4315 L -558.4341 -3143.4315 C -560.5549 -3143.4315 -562.2741 -3145.1507 -562.2741 -3147.2715 L -562.2741 -3163.5915 C -562.2741 -3165.7123 -560.5549 -3167.4315 -558.4341 -3167.4315 Z" stroke="white" stroke-linecap="round" stroke-linejoin="round" stroke-width=".25"/>
      </g>
      <g id="Graphic_11292">
        <path d="M -553.82966 -3150.556 L -557.82966 -3150.556 C -558.07854 -3150.556 -558.2741 -3150.7515 -558.2741 -3151.0004 C -558.2741 -3151.2493 -558.07854 -3151.445 -557.82966 -3151.445 L -553.82966 -3151.445 L -553.82966 -3152.3337 C -553.82966 -3152.8226 -553.42966 -3153.2226 -552.94077 -3153.2226 L -551.163 -3153.2226 C -550.6741 -3153.2226 -550.2741 -3152.8226 -550.2741 -3152.3337 L -550.2741 -3151.445 L -542.71854 -3151.445 C -542.46966 -3151.445 -542.2741 -3151.2493 -542.2741 -3151.0004 C -542.2741 -3150.7515 -542.46966 -3150.556 -542.71854 -3150.556 L -550.2741 -3150.556 L -550.2741 -3149.6404 C -550.2741 -3149.1515 -550.6741 -3148.7515 -551.163 -3148.7515 L -552.94077 -3148.7515 C -553.42966 -3148.7515 -553.82966 -3149.1515 -553.82966 -3149.6404 Z M -548.4963 -3155.0004 L -557.82966 -3155.0004 C -558.07854 -3155.0004 -558.2741 -3155.196 -558.2741 -3155.445 C -558.2741 -3155.6937 -558.07854 -3155.8893 -557.82966 -3155.8893 L -548.4963 -3155.8893 L -548.4963 -3156.778 C -548.4963 -3157.267 -548.0963 -3157.667 -547.60743 -3157.667 L -545.82966 -3157.667 C -545.34077 -3157.667 -544.94077 -3157.267 -544.94077 -3156.778 L -544.94077 -3155.8893 L -542.71854 -3155.8893 C -542.46966 -3155.8893 -542.2741 -3155.6937 -542.2741 -3155.445 C -542.2741 -3155.196 -542.46966 -3155.0004 -542.71854 -3155.0004 L -544.94077 -3155.0004 L -544.94077 -3154.085 C -544.94077 -3153.596 -545.34077 -3153.196 -545.82966 -3153.196 L -547.60743 -3153.196 C -548.0963 -3153.196 -548.4963 -3153.596 -548.4963 -3154.085 L -548.4963 -3155.0004 Z M -556.4963 -3159.445 L -557.82966 -3159.445 C -558.07854 -3159.445 -558.2741 -3159.6404 -558.2741 -3159.8893 C -558.2741 -3160.138 -558.07854 -3160.3337 -557.82966 -3160.3337 L -556.4963 -3160.3337 L -556.4963 -3161.2226 C -556.4963 -3161.7115 -556.0963 -3162.1115 -555.60743 -3162.1115 L -553.82966 -3162.1115 C -553.34077 -3162.1115 -552.94077 -3161.7115 -552.94077 -3161.2226 L -552.94077 -3160.3337 L -542.71854 -3160.3337 C -542.46966 -3160.3337 -542.2741 -3160.138 -542.2741 -3159.8893 C -542.2741 -3159.6404 -542.46966 -3159.445 -542.71854 -3159.445 L -552.94077 -3159.445 L -552.94077 -3158.5293 C -552.94077 -3158.0404 -553.34077 -3157.6404 -553.82966 -3157.6404 L -555.60743 -3157.6404 C -556.0963 -3157.6404 -556.4963 -3158.0404 -556.4963 -3158.5293 Z M -555.60743 -3161.2226 L -555.60743 -3158.5293 L -553.82966 -3158.5293 L -553.82966 -3161.2226 Z M -547.60743 -3156.778 L -547.60743 -3154.085 L -545.82966 -3154.085 L -545.82966 -3156.778 L -547.60743 -3156.778 Z M -552.94077 -3152.3337 L -552.94077 -3149.6404 L -551.163 -3149.6404 L -551.163 -3152.3337 Z" fill="#c0e0ff"/>
      </g>
    </g>
  </g>
</svg>
