<svg height="25" viewBox="-526.774 -3167.932 25 25" width="25" xmlns="http://www.w3.org/2000/svg"><g fill="none"><path d="M-522.434-3167.432h16.32a3.84 3.84 0 0 1 3.84 3.84v16.32a3.84 3.84 0 0 1-3.84 3.84h-16.32a3.84 3.84 0 0 1-3.84-3.84v-16.32a3.84 3.84 0 0 1 3.84-3.84z" fill="#666"/><path d="M-522.434-3167.432h16.32a3.84 3.84 0 0 1 3.84 3.84v16.32a3.84 3.84 0 0 1-3.84 3.84h-16.32a3.84 3.84 0 0 1-3.84-3.84v-16.32a3.84 3.84 0 0 1 3.84-3.84z" stroke="#fff" stroke-linecap="round" stroke-linejoin="round" stroke-width=".25"/><path d="M-510.906-3158.208h-4.631c-.7 0-1.263.564-1.263 1.263v7.579c0 .699.564 1.263 1.263 1.263h5.894c.7 0 1.264-.564 1.264-1.263v-6.316h-2.106a.417.417 0 0 1-.42-.42zm3.369 2.13v6.712a2.106 2.106 0 0 1-2.106 2.105h-5.894a2.106 2.106 0 0 1-2.105-2.105v-7.579c0-1.162.943-2.105 2.105-2.105h5.027c.11 0 .228.034.32.126l2.526 2.527c.093.092.127.21.127.32zm-2.527-.446h1.087l-1.087-1.086zm-4.631 2.527a.417.417 0 0 1-.421-.422c0-.235.185-.42.42-.42h4.211c.236 0 .421.185.421.42a.417.417 0 0 1-.42.422zm0 1.684a.417.417 0 0 1-.421-.421c0-.236.185-.421.42-.421h4.211c.236 0 .421.185.421.42a.417.417 0 0 1-.42.422zm0 1.684a.417.417 0 0 1-.421-.421c0-.236.185-.421.42-.421h3.37c.235 0 .42.185.42.421a.417.417 0 0 1-.42.421zm1.684-10.947c-.236 0-.421-.186-.421-.421s.185-.421.421-.421c1.162 0 2.105.943 2.105 2.105v1.263a.417.417 0 0 1-.42.421.417.417 0 0 1-.422-.421v-1.263c0-.699-.564-1.263-1.263-1.263zm-5.895-.842c.236 0 .421.185.421.42s-.185.422-.42.422c-.7 0-1.264.564-1.264 1.263v7.579c0 .699.564 1.263 1.263 1.263h1.263c.236 0 .422.185.422.421a.417.417 0 0 1-.422.421h-1.263a2.106 2.106 0 0 1-2.105-2.105v-7.58c0-1.161.943-2.105 2.105-2.105zm2.106.42a.417.417 0 0 1-.421.422.417.417 0 0 1-.421-.421c0-.7.564-1.264 1.263-1.264h.842c.699 0 1.263.565 1.263 1.264 0 .235-.185.42-.421.42s-.421-.185-.421-.42-.185-.421-.421-.421h-.842a.417.417 0 0 0-.421.42z" fill="#c0e0ff"/></g></svg>