<svg height="25" viewBox="-742.774 -3167.932 25 25" width="25" xmlns="http://www.w3.org/2000/svg"><g fill="none"><path d="m-738.4341-3167.4315h16.32c2.1208 0 3.84 1.7192 3.84 3.84v16.32c0 2.1208-1.7192 3.84-3.84 3.84h-16.32c-2.1208 0-3.84-1.7192-3.84-3.84v-16.32c0-2.1208 1.7192-3.84 3.84-3.84z" fill="#666"/><path d="m-738.4341-3167.4315h16.32c2.1208 0 3.84 1.7192 3.84 3.84v16.32c0 2.1208-1.7192 3.84-3.84 3.84h-16.32c-2.1208 0-3.84-1.7192-3.84-3.84v-16.32c0-2.1208 1.7192-3.84 3.84-3.84z" stroke="#fff" stroke-linecap="round" stroke-linejoin="round" stroke-width=".25"/><path d="m-726.7185-3162.3717h-4.8889c-.7378 0-1.3334.5957-1.3334 1.3334v8c0 .7377.5956 1.3333 1.3334 1.3333h6.2222c.7378 0 1.3333-.5956 1.3333-1.3333v-6.6667h-2.2222c-.2489 0-.4444-.1956-.4444-.4445zm3.5555 2.2489v7.0845c0 1.2266-.9955 2.2223-2.2222 2.2223h-6.2222c-1.2267 0-2.22225-.9957-2.22225-2.2223v-8c0-1.2267.99555-2.2223 2.22225-2.2223h5.3066c.1156 0 .24.0356.3378.1334l2.6667 2.6666c.0978.0978.1333.2223.1333.3378zm-2.66665-.4712h1.14665l-1.14665-1.1466zm-4.88885 2.6668c-.2489 0-.4445-.1956-.4445-.4445s.1956-.4443.4445-.4443h4.4444c.2489 0 .44445.1954.44445.4443s-.19555.4445-.44445.4445zm0 1.7777c-.2489 0-.4445-.1955-.4445-.4445 0-.2488.1956-.4443.4445-.4443h4.4444c.2489 0 .44445.1955.44445.4443 0 .249-.19555.4445-.44445.4445zm0 1.7778c-.2489 0-.4445-.1955-.4445-.4443 0-.249.1956-.4446.4445-.4446h3.5555c.2489 0 .4445.1956.4445.4446 0 .2488-.1956.4443-.4445.4443zm-6.6667-.4443c0-.249.19555-.4446.4444-.4446.2489 0 .4445.1956.4445.4446v2.6665c0 .2489-.1956.4445-.4445.4445-.24885 0-.4444-.1956-.4444-.4445zm4 7.5554c-.2489 0-.44445-.1954-.44445-.4444s.19555-.4445.44445-.4445h2.6667c.24885 0 .4444.1955.4444.4445s-.19555.4444-.4444.4444zm-1.7778-12.4444c.2489 0 .4445.1955.4445.4444s-.1956.4446-.4445.4446c-.7378 0-1.3333.5954-1.3333 1.3332 0 .2488-.1956.4445-.4445.4445-.24885 0-.4444-.1957-.4444-.4445 0-1.2267.99555-2.2222 2.2222-2.2222zm-2.2222 10.2222c0-.2489.19555-.4444.4444-.4444.2489 0 .4445.1955.4445.4444 0 .7378.5955 1.3333 1.3333 1.3333.2489 0 .4445.1955.4445.4445s-.1956.4444-.4445.4444c-1.22665 0-2.2222-.9954-2.2222-2.2222zm8.4444 2.2222c-.24885 0-.4444-.1954-.4444-.4444s.19555-.4445.4444-.4445c.7378 0 1.3334-.5955 1.3334-1.3333 0-.2489.1955-.4444.4444-.4444s.4445.1955.4445.4444c0 1.2268-.9956 2.2222-2.2223 2.2222z" fill="#c0e0ff"/></g></svg>