<svg height="25" viewBox="-202.774 -3167.932 25 25" width="25" xmlns="http://www.w3.org/2000/svg"><g fill="none"><path d="M-198.434-3167.432h16.32a3.84 3.84 0 0 1 3.84 3.84v16.32a3.84 3.84 0 0 1-3.84 3.84h-16.32a3.84 3.84 0 0 1-3.84-3.84v-16.32a3.84 3.84 0 0 1 3.84-3.84z" fill="#666"/><path d="M-198.434-3167.432h16.32a3.84 3.84 0 0 1 3.84 3.84v16.32a3.84 3.84 0 0 1-3.84 3.84h-16.32a3.84 3.84 0 0 1-3.84-3.84v-16.32a3.84 3.84 0 0 1 3.84-3.84z" stroke="#fff" stroke-linecap="round" stroke-linejoin="round" stroke-width=".25"/><path d="M-188.442-3155.432h-6.232c-.224 0-.4-.176-.4-.4s.176-.4.4-.4h6.232l-1.72-1.72c-.16-.16-.16-.407 0-.567s.408-.16.568 0l2.4 2.4c.16.16.16.407 0 .567l-2.4 2.4c-.16.16-.408.16-.568 0s-.16-.407 0-.567l1.72-1.72zm-3.432-5.2c0 .225-.176.4-.4.4s-.4-.175-.4-.4a2 2 0 0 1 2-2h6.4a2 2 0 0 1 2 2v10.4a2 2 0 0 1-2 2h-6.4a2 2 0 0 1-2-2c0-.223.176-.4.4-.4s.4.177.4.4c0 .665.536 1.2 1.2 1.2h6.4c.664 0 1.2-.535 1.2-1.2v-10.4c0-.663-.536-1.2-1.2-1.2h-6.4c-.664 0-1.2.537-1.2 1.2zm-2 11.6c.224 0 .4.177.4.4s-.176.4-.4.4h-2.4a2 2 0 0 1-2-2v-10.4a2 2 0 0 1 2-2h2.4c.224 0 .4.177.4.4s-.176.4-.4.4h-2.4c-.664 0-1.2.537-1.2 1.2v10.4c0 .665.536 1.2 1.2 1.2z" fill="#c0e0ff"/></g></svg>