<?xml version="1.0" encoding="UTF-8" standalone="no"?>
<!DOCTYPE svg PUBLIC "-//W3C//DTD SVG 1.1//EN" "http://www.w3.org/Graphics/SVG/1.1/DTD/svg11.dtd">
<svg xmlns="http://www.w3.org/2000/svg" xmlns:xl="http://www.w3.org/1999/xlink" version="1.1" xmlns:dc="http://purl.org/dc/elements/1.1/" viewBox="-598.7741 -3167.9315 25 25" width="25" height="25">
  <defs/>
  <g id="SOURCES" stroke-opacity="1" fill="none" stroke="none" fill-opacity="1" stroke-dasharray="none">
    <title>SOURCES</title>
    <g id="SOURCES_Dark">
      <title>Dark</title>
      <g id="Graphic_11307">
        <path d="M -594.4341 -3167.4315 L -578.1141 -3167.4315 C -575.9933 -3167.4315 -574.2741 -3165.7123 -574.2741 -3163.5915 L -574.2741 -3147.2715 C -574.2741 -3145.1507 -575.9933 -3143.4315 -578.1141 -3143.4315 L -594.4341 -3143.4315 C -596.5549 -3143.4315 -598.2741 -3145.1507 -598.2741 -3147.2715 L -598.2741 -3163.5915 C -598.2741 -3165.7123 -596.5549 -3167.4315 -594.4341 -3167.4315 Z" fill="#666"/>
        <path d="M -594.4341 -3167.4315 L -578.1141 -3167.4315 C -575.9933 -3167.4315 -574.2741 -3165.7123 -574.2741 -3163.5915 L -574.2741 -3147.2715 C -574.2741 -3145.1507 -575.9933 -3143.4315 -578.1141 -3143.4315 L -594.4341 -3143.4315 C -596.5549 -3143.4315 -598.2741 -3145.1507 -598.2741 -3147.2715 L -598.2741 -3163.5915 C -598.2741 -3165.7123 -596.5549 -3167.4315 -594.4341 -3167.4315 Z" stroke="white" stroke-linecap="round" stroke-linejoin="round" stroke-width=".25"/>
      </g>
      <g id="Graphic_11306">
        <path d="M -580.9408 -3160.765 L -578.71854 -3160.765 C -578.46966 -3160.765 -578.2741 -3160.5693 -578.2741 -3160.3204 C -578.2741 -3160.0715 -578.46966 -3159.876 -578.71854 -3159.876 L -580.9408 -3159.876 L -580.9408 -3157.6537 C -580.9408 -3157.405 -581.1363 -3157.2093 -581.3852 -3157.2093 C -581.6341 -3157.2093 -581.82966 -3157.405 -581.82966 -3157.6537 L -581.82966 -3159.876 L -584.0519 -3159.876 C -584.3008 -3159.876 -584.4963 -3160.0715 -584.4963 -3160.3204 C -584.4963 -3160.5693 -584.3008 -3160.765 -584.0519 -3160.765 L -581.82966 -3160.765 L -581.82966 -3162.987 C -581.82966 -3163.236 -581.6341 -3163.4315 -581.3852 -3163.4315 C -581.1363 -3163.4315 -580.9408 -3163.236 -580.9408 -3162.987 Z M -579.163 -3155.876 C -579.163 -3156.125 -578.9674 -3156.3204 -578.71854 -3156.3204 C -578.46966 -3156.3204 -578.2741 -3156.125 -578.2741 -3155.876 L -578.2741 -3149.6537 C -578.2741 -3148.427 -579.26966 -3147.4315 -580.4963 -3147.4315 L -592.0519 -3147.4315 C -593.27854 -3147.4315 -594.2741 -3148.427 -594.2741 -3149.6537 L -594.2741 -3161.2093 C -594.2741 -3162.436 -593.27854 -3163.4315 -592.0519 -3163.4315 L -585.82966 -3163.4315 C -585.5808 -3163.4315 -585.3852 -3163.236 -585.3852 -3162.987 C -585.3852 -3162.738 -585.5808 -3162.5426 -585.82966 -3162.5426 L -592.0519 -3162.5426 C -592.78966 -3162.5426 -593.3852 -3161.947 -593.3852 -3161.2093 L -593.3852 -3149.6537 C -593.3852 -3148.916 -592.78966 -3148.3204 -592.0519 -3148.3204 L -580.4963 -3148.3204 C -579.75854 -3148.3204 -579.163 -3148.916 -579.163 -3149.6537 Z" fill="#8eed62"/>
      </g>
    </g>
  </g>
</svg>
