<svg height="25" viewBox="-778.774 -3167.932 25 25" width="25" xmlns="http://www.w3.org/2000/svg"><g fill="none"><path d="m-774.4341-3167.4315h16.32c2.1208 0 3.84 1.7192 3.84 3.84v16.32c0 2.1208-1.7192 3.84-3.84 3.84h-16.32c-2.1208 0-3.84-1.7192-3.84-3.84v-16.32c0-2.1208 1.7192-3.84 3.84-3.84z" fill="#666"/><path d="m-774.4341-3167.4315h16.32c2.1208 0 3.84 1.7192 3.84 3.84v16.32c0 2.1208-1.7192 3.84-3.84 3.84h-16.32c-2.1208 0-3.84-1.7192-3.84-3.84v-16.32c0-2.1208 1.7192-3.84 3.84-3.84z" stroke="#fff" stroke-linecap="round" stroke-linejoin="round" stroke-width=".25"/><path d="m-769.82965-3159.876v.889h-1.33335c-.7378 0-1.3333.5955-1.3333 1.3333v8c0 .7377.5955 1.3333 1.3333 1.3333h6.2222c.7378 0 1.3334-.5956 1.3334-1.3333v-1.3333h.8889v1.3333c0 1.2267-.9956 2.2222-2.2223 2.2222h-6.2222c-1.22665 0-2.2222-.9955-2.2222-2.2222v-8c0-1.2267.99555-2.2223 2.2222-2.2223zm7.11115-2.6666h-4.8889c-.7378 0-1.3334.5956-1.3334 1.3333v8c0 .7378.5956 1.3333 1.3334 1.3333h6.2222c.7378 0 1.3333-.5955 1.3333-1.3333v-6.6667h-2.2222c-.2489 0-.4444-.1955-.4444-.4444zm3.5555 2.2489v7.0844c0 1.2267-.9955 2.2223-2.2222 2.2223h-6.2222c-1.2267 0-2.22225-.9956-2.22225-2.2223v-8c0-1.2267.99555-2.2222 2.22225-2.2222h5.3066c.1156 0 .24.0355.3378.1335l2.6667 2.6665c.0978.0978.1333.2222.1333.3378zm-2.66665-.4713h1.14665l-1.14665-1.1465zm-4.88885 6.2224c-.2489 0-.4445-.1954-.4445-.4444s.1956-.4445.4445-.4445h1.7777c.2489 0 .4445.1955.4445.4445s-.1956.4444-.4445.4444zm0-1.7778c-.2489 0-.4445-.1956-.4445-.4446 0-.2487.1956-.4443.4445-.4443h4.4444c.2489 0 .44445.1956.44445.4443 0 .249-.19555.4446-.44445.4446zm0-1.7776c-.2489 0-.4445-.1957-.4445-.4446s.1956-.4444.4445-.4444h4.4444c.2489 0 .44445.1955.44445.4444s-.19555.4446-.44445.4446z" fill="#c0e0ff"/></g></svg>