<svg height="25" viewBox="-490.774 -3167.932 25 25" width="25" xmlns="http://www.w3.org/2000/svg"><g fill="none"><path d="m-486.4341-3167.4315h16.32c2.1208 0 3.84 1.7192 3.84 3.84v16.32c0 2.1208-1.7192 3.84-3.84 3.84h-16.32c-2.1208 0-3.84-1.7192-3.84-3.84v-16.32c0-2.1208 1.7192-3.84 3.84-3.84z" fill="#666"/><path d="m-486.4341-3167.4315h16.32c2.1208 0 3.84 1.7192 3.84 3.84v16.32c0 2.1208-1.7192 3.84-3.84 3.84h-16.32c-2.1208 0-3.84-1.7192-3.84-3.84v-16.32c0-2.1208 1.7192-3.84 3.84-3.84z" stroke="#fff" stroke-linecap="round" stroke-linejoin="round" stroke-width=".25"/><path d="m-472.6741-3150.6274v2.008c0 .224-.176.4-.4.4h-10.4c-.224 0-.4-.176-.4-.4v-2.016h-1.2c-.664 0-1.2-.536-1.2-1.2v-4c0-1.104.896-2 2-2h.4v-4.408c0-.216.176-.4.4-.4h10.4c.224-.008.4.168.4.392v4.408h.4c1.104 0 2 .896 2 2v4.016c0 .664-.536 1.2-1.2 1.2zm0-.8h1.2c.224 0 .4-.176.4-.4v-4.016c0-.664-.536-1.2-1.2-1.2h-.4v2.808c0 .224-.176.4-.4.4h-10.4c-.224 0-.4-.176-.4-.4v-2.808h-.4c-.664 0-1.2.536-1.2 1.2v4c0 .224.176.4.4.4h1.2v-1.2c0-.224.176-.4.4-.4h10.4c.224 0 .4.176.4.4zm-.8-6.016v-4.408h-9.6v7.216h9.6zm-7.6-2c-.224 0-.4-.176-.4-.4s.176-.4.4-.4h5.6c.224 0 .4.176.4.4s-.176.4-.4.4zm0 1.6c-.224 0-.4-.176-.4-.4s.176-.4.4-.4h5.6c.224 0 .4.176.4.4s-.176.4-.4.4zm0 1.6c-.224 0-.4-.176-.4-.4s.176-.4.4-.4h4c.224 0 .4.176.4.4s-.176.4-.4.4zm-2 4v3.216h9.6v-3.216z" fill="#c0e0ff"/></g></svg>