<svg xmlns="http://www.w3.org/2000/svg" viewBox="-920.5 -3695.231 25 25"><g fill="none"><circle cx="-908" cy="-3682.731" r="12" fill="#fff"/><circle cx="-908" cy="-3682.731" r="12" stroke="#000" stroke-linecap="round" stroke-linejoin="round" stroke-width=".25"/><path d="M-914.974-3682.856c1.498-3.857 5.83-5.767 9.679-4.27a7.476 7.476 0 0 1 4.269 4.27.316.316 0 0 1 0 .251c-1.49 3.85-5.83 5.767-9.679 4.27a7.497 7.497 0 0 1-4.269-4.27.316.316 0 0 1 0-.251zm4.528 3.87c3.45 1.336 7.327-.336 8.72-3.745a6.787 6.787 0 0 0-3.821-3.744 6.776 6.776 0 0 0-8.72 3.744 6.787 6.787 0 0 0 3.821 3.745zm2.45-.945a2.799 2.799 0 1 1 0-5.599 2.799 2.799 0 1 1 0 5.599zm0-.7a2.097 2.097 0 0 0 2.099-2.1 2.097 2.097 0 0 0-2.1-2.099 2.097 2.097 0 0 0-2.099 2.1c0 1.161.938 2.099 2.1 2.099z" fill="#9f4c4d"/></g></svg>