<?xml version="1.0" encoding="UTF-8" standalone="no"?>
<!DOCTYPE svg PUBLIC "-//W3C//DTD SVG 1.1//EN" "http://www.w3.org/Graphics/SVG/1.1/DTD/svg11.dtd">
<svg version="1.1" xmlns="http://www.w3.org/2000/svg" xmlns:xl="http://www.w3.org/1999/xlink" xmlns:dc="http://purl.org/dc/elements/1.1/" viewBox="-881.7865 -3695.231 24.999996 25" width="24.999996" height="25">
  <defs/>
  <g id="SOURCES" stroke-dasharray="none" fill="none" stroke="none" fill-opacity="1" stroke-opacity="1">
    <title>SOURCES</title>
    <g id="SOURCES_Calque_2">
      <title>Calque 2</title>
      <g id="Graphic_9175">
        <circle cx="-869.2865" cy="-3682.731" r="12.000018268838" fill="white"/>
        <circle cx="-869.2865" cy="-3682.731" r="12.000018268838" stroke="black" stroke-linecap="round" stroke-linejoin="round" stroke-width=".25"/>
      </g>
      <g id="Group_9187">
        <title>bell</title>
        <g id="Graphic_9188">
          <path d="M -867.0919 -3677.2865 C -867.4185 -3676.3688 -868.2897 -3675.731 -869.293 -3675.731 C -870.2963 -3675.731 -871.1674 -3676.3688 -871.4941 -3677.2865 L -872.7308 -3677.2865 C -873.8041 -3677.2865 -874.6752 -3678.1576 -874.6752 -3679.231 C -874.6752 -3679.503 -874.6208 -3679.7754 -874.5041 -3680.0243 L -873.9519 -3681.261 L -873.9519 -3683.5088 C -873.9519 -3685.5388 -872.653 -3687.2654 -870.8408 -3687.911 L -870.8408 -3688.1754 C -870.8408 -3689.031 -870.1408 -3689.731 -869.2852 -3689.731 C -868.4297 -3689.731 -867.7297 -3689.031 -867.7297 -3688.1754 L -867.7297 -3687.911 C -865.9174 -3687.273 -864.6185 -3685.5388 -864.6185 -3683.5088 L -864.6185 -3681.261 L -864.0663 -3680.0243 C -863.6308 -3679.0443 -864.0663 -3677.893 -865.0541 -3677.4576 C -865.303 -3677.3488 -865.5752 -3677.2865 -865.8474 -3677.2865 L -867.0841 -3677.2865 Z M -867.9397 -3677.2865 L -870.6385 -3677.2865 C -870.3663 -3676.82 -869.8608 -3676.5088 -869.293 -3676.5088 C -868.7252 -3676.5088 -868.2197 -3676.82 -867.9474 -3677.2865 Z M -868.5152 -3688.113 L -868.5152 -3688.1754 C -868.5152 -3688.603 -868.8652 -3688.953 -869.293 -3688.953 C -869.7208 -3688.953 -870.0708 -3688.603 -870.0708 -3688.1754 L -870.0708 -3688.113 C -869.8141 -3688.152 -869.5574 -3688.1754 -869.293 -3688.1754 C -869.0285 -3688.1754 -868.7719 -3688.152 -868.5152 -3688.113 Z M -869.293 -3687.3976 C -871.4397 -3687.3976 -873.1819 -3685.6554 -873.1819 -3683.5088 L -873.1819 -3681.1754 L -873.213 -3681.02 L -873.7963 -3679.7054 C -873.8663 -3679.5576 -873.8974 -3679.3943 -873.8974 -3679.231 C -873.8974 -3678.5854 -873.3763 -3678.0643 -872.7308 -3678.0643 L -865.8552 -3678.0643 C -865.6919 -3678.0643 -865.5285 -3678.0954 -865.3808 -3678.1654 C -864.7897 -3678.43 -864.5252 -3679.1143 -864.7897 -3679.7054 L -865.373 -3681.02 L -865.4041 -3681.1754 L -865.4041 -3683.5088 C -865.4041 -3685.6554 -867.1463 -3687.3976 -869.293 -3687.3976 Z" fill="#9f4c4d"/>
        </g>
      </g>
    </g>
  </g>
</svg>
