<svg height="25" viewBox="-881.787 -3695.231 25 25" width="25" xmlns="http://www.w3.org/2000/svg"><g fill="none"><circle cx="-869.287" cy="-3682.731" fill="#fff" r="12"/><circle cx="-869.287" cy="-3682.731" r="12" stroke="#000" stroke-linecap="round" stroke-linejoin="round" stroke-width=".25"/><path d="m-867.0919-3677.2865c-.3266.9177-1.1978 1.5555-2.2011 1.5555s-1.8744-.6378-2.2011-1.5555h-1.2367c-1.0733 0-1.9444-.8711-1.9444-1.9445 0-.272.0544-.5444.1711-.7933l.5522-1.2367v-2.2478c0-2.03 1.2989-3.7566 3.1111-4.4022v-.2644c0-.8556.7-1.5556 1.5556-1.5556.8555 0 1.5555.7 1.5555 1.5556v.2644c1.8123.638 3.1112 2.3722 3.1112 4.4022v2.2478l.5522 1.2367c.4355.98 0 2.1313-.9878 2.5667-.2489.1088-.5211.1711-.7933.1711h-1.2367zm-.8478 0h-2.6988c.2722.4665.7777.7777 1.3455.7777s1.0733-.3112 1.3456-.7777zm-.5755-10.8265v-.0624c0-.4276-.35-.7776-.7778-.7776s-.7778.35-.7778.7776v.0624c.2567-.039.5134-.0624.7778-.0624.2645 0 .5211.0234.7778.0624zm-.7778.7154c-2.1467 0-3.8889 1.7422-3.8889 3.8888v2.3334l-.0311.1554-.5833 1.3146c-.07.1478-.1011.3111-.1011.4744 0 .6456.5211 1.1667 1.1666 1.1667h6.8756c.1633 0 .3267-.0311.4744-.1011.5911-.2646.8556-.9489.5911-1.54l-.5833-1.3146-.0311-.1554v-2.3334c0-2.1466-1.7422-3.8888-3.8889-3.8888z" fill="#9f4c4d"/></g></svg>