<svg height="25" viewBox="-843.073 -3695.231 25 25" width="25" xmlns="http://www.w3.org/2000/svg"><g fill="none"><circle cx="-830.573" cy="-3682.731" fill="#fff" r="12"/><circle cx="-830.573" cy="-3682.731" r="12" stroke="#000" stroke-linecap="round" stroke-linejoin="round" stroke-width=".25"/><path d="M-830.204-3683.107a.365.365 0 0 1-.369.368.365.365 0 0 1-.368-.368v-2.947c0-.207.162-.369.368-.369.207 0 .369.162.369.368zm-.737 1.842h.737v.737h-.737zm.044-9.38c.14-.258.516-.258.649 0l6.631 12.526a.367.367 0 0 1-.324.538h-13.263a.364.364 0 0 1-.324-.538zm-5.695 12.327h12.04l-6.02-11.369z" fill="#9f4c4d"/></g></svg>