<?xml version="1.0" encoding="UTF-8" standalone="no"?>
<!DOCTYPE svg PUBLIC "-//W3C//DTD SVG 1.1//EN" "http://www.w3.org/Graphics/SVG/1.1/DTD/svg11.dtd">
<svg version="1.1" xmlns="http://www.w3.org/2000/svg" xmlns:xl="http://www.w3.org/1999/xlink" xmlns:dc="http://purl.org/dc/elements/1.1/" viewBox="-920.5 -3695.231 24.999996 25" width="24.999996" height="25">
  <defs/>
  <g id="SOURCES" stroke-dasharray="none" fill="none" stroke="none" fill-opacity="1" stroke-opacity="1">
    <title>SOURCES</title>
    <g id="SOURCES_Calque_2">
      <title>Calque 2</title>
      <g id="Graphic_9174">
        <circle cx="-908" cy="-3682.731" r="12.000018268838" fill="white"/>
        <circle cx="-908" cy="-3682.731" r="12.000018268838" stroke="black" stroke-linecap="round" stroke-linejoin="round" stroke-width=".25"/>
      </g>
      <g id="Group_9185">
        <title>eye</title>
        <g id="Graphic_9186">
          <path d="M -914.9738 -3682.8565 C -913.4761 -3686.7126 -909.1442 -3688.623 -905.2952 -3687.1254 C -903.3357 -3686.3626 -901.782 -3684.816 -901.0262 -3682.8565 C -900.9913 -3682.7725 -900.9913 -3682.6816 -901.0262 -3682.6046 C -902.5169 -3678.7555 -906.8558 -3676.838 -910.7048 -3678.3356 C -912.6643 -3679.0985 -914.2109 -3680.645 -914.9738 -3682.6046 C -915.0087 -3682.6886 -915.0087 -3682.7795 -914.9738 -3682.8565 Z M -910.4459 -3678.9865 C -906.9957 -3677.65 -903.1187 -3679.3224 -901.7261 -3682.7305 C -902.4329 -3684.445 -903.8115 -3685.803 -905.5471 -3686.4746 C -908.9972 -3687.8113 -912.8673 -3686.1387 -914.2669 -3682.7305 C -913.5601 -3681.016 -912.1815 -3679.6583 -910.4459 -3678.9865 Z M -907.9965 -3679.9312 C -909.5431 -3679.9312 -910.7958 -3681.184 -910.7958 -3682.7305 C -910.7958 -3684.277 -909.5431 -3685.53 -907.9965 -3685.53 C -906.4499 -3685.53 -905.1972 -3684.277 -905.1972 -3682.7305 C -905.1972 -3681.184 -906.4499 -3679.9312 -907.9965 -3679.9312 Z M -907.9965 -3680.631 C -906.8348 -3680.631 -905.897 -3681.569 -905.897 -3682.7305 C -905.897 -3683.8923 -906.8348 -3684.83 -907.9965 -3684.83 C -909.1582 -3684.83 -910.096 -3683.8923 -910.096 -3682.7305 C -910.096 -3681.569 -909.1582 -3680.631 -907.9965 -3680.631 Z" fill="#9f4c4d"/>
        </g>
      </g>
    </g>
  </g>
</svg>
