<svg xmlns="http://www.w3.org/2000/svg" viewBox="-881.787 -3695.231 25 25"><g fill="none"><circle cx="-869.287" cy="-3682.731" r="12" fill="#fff"/><circle cx="-869.287" cy="-3682.731" r="12" stroke="#000" stroke-linecap="round" stroke-linejoin="round" stroke-width=".25"/><path d="M-867.092-3677.287a2.338 2.338 0 0 1-2.201 1.556 2.338 2.338 0 0 1-2.201-1.555h-1.237a1.945 1.945 0 0 1-1.773-2.738l.552-1.237v-2.248a4.677 4.677 0 0 1 3.111-4.402v-.264c0-.856.7-1.556 1.556-1.556.855 0 1.555.7 1.555 1.556v.264a4.67 4.67 0 0 1 3.111 4.402v2.248l.553 1.237c.435.98 0 2.131-.988 2.566a1.994 1.994 0 0 1-.793.171h-1.237zm-.848 0h-2.698c.272.467.777.778 1.345.778s1.073-.311 1.346-.778zm-.575-10.826v-.062a.78.78 0 0 0-.778-.778.78.78 0 0 0-.778.778v.062c.257-.039.514-.062.778-.062s.521.023.778.062zm-.778.715a3.89 3.89 0 0 0-3.889 3.89v2.333l-.031.155-.583 1.315a1.165 1.165 0 0 0 1.065 1.641h6.876a1.162 1.162 0 0 0 1.065-1.641l-.583-1.315-.031-.155v-2.334a3.89 3.89 0 0 0-3.889-3.889z" fill="#9f4c4d"/></g></svg>