<svg height="25" viewBox="-920.5 -3695.231 25 25" width="25" xmlns="http://www.w3.org/2000/svg"><g fill="none"><circle cx="-908" cy="-3682.731" fill="#fff" r="12"/><circle cx="-908" cy="-3682.731" r="12" stroke="#000" stroke-linecap="round" stroke-linejoin="round" stroke-width=".25"/><path d="m-914.9738-3682.8565c1.4977-3.8561 5.8296-5.7665 9.6786-4.2689 1.9595.7628 3.5132 2.3094 4.269 4.2689.0349.084.0349.1749 0 .2519-1.4907 3.8491-5.8296 5.7666-9.6786 4.269-1.9595-.7629-3.5061-2.3094-4.269-4.269-.0349-.084-.0349-.1749 0-.2519zm4.5279 3.87c3.4502 1.3365 7.3272-.3359 8.7198-3.744-.7068-1.7145-2.0854-3.0725-3.821-3.7441-3.4501-1.3367-7.3202.3359-8.7198 3.7441.7068 1.7145 2.0854 3.0722 3.821 3.744zm2.4494-.9447c-1.5466 0-2.7993-1.2528-2.7993-2.7993s1.2527-2.7995 2.7993-2.7995 2.7993 1.253 2.7993 2.7995-1.2527 2.7993-2.7993 2.7993zm0-.6998c1.1617 0 2.0995-.938 2.0995-2.0995 0-1.1618-.9378-2.0995-2.0995-2.0995s-2.0995.9377-2.0995 2.0995c0 1.1615.9378 2.0995 2.0995 2.0995z" fill="#9f4c4d"/></g></svg>