<?xml version="1.0" encoding="UTF-8" standalone="no"?>
<!DOCTYPE svg PUBLIC "-//W3C//DTD SVG 1.1//EN" "http://www.w3.org/Graphics/SVG/1.1/DTD/svg11.dtd">
<svg version="1.1" xmlns="http://www.w3.org/2000/svg" xmlns:xl="http://www.w3.org/1999/xlink" xmlns:dc="http://purl.org/dc/elements/1.1/" viewBox="-843.073 -3695.231 24.999996 25" width="24.999996" height="25">
  <defs/>
  <g id="SOURCES" stroke-dasharray="none" fill="none" stroke="none" fill-opacity="1" stroke-opacity="1">
    <title>SOURCES</title>
    <g id="SOURCES_Calque_2">
      <title>Calque 2</title>
      <g id="Graphic_9176">
        <circle cx="-830.573" cy="-3682.731" r="12.0000182688379" fill="white"/>
        <circle cx="-830.573" cy="-3682.731" r="12.0000182688379" stroke="black" stroke-linecap="round" stroke-linejoin="round" stroke-width=".25"/>
      </g>
      <g id="Group_9189">
        <title>exclamation-mark</title>
        <g id="Graphic_9190">
          <path d="M -830.2041 -3683.107 C -830.2041 -3682.901 -830.3662 -3682.739 -830.5725 -3682.739 C -830.7789 -3682.739 -830.941 -3682.901 -830.941 -3683.107 L -830.941 -3686.0545 C -830.941 -3686.2608 -830.7789 -3686.423 -830.5725 -3686.423 C -830.3662 -3686.423 -830.2041 -3686.2608 -830.2041 -3686.0545 Z M -830.941 -3681.265 L -830.2041 -3681.265 L -830.2041 -3680.5283 L -830.941 -3680.5283 Z M -830.8967 -3690.645 C -830.7568 -3690.9027 -830.381 -3690.9027 -830.24835 -3690.645 L -823.617 -3678.119 C -823.4844 -3677.876 -823.6686 -3677.581 -823.9412 -3677.581 L -837.2039 -3677.581 C -837.4839 -3677.581 -837.6607 -3677.876 -837.5281 -3678.119 Z M -836.5923 -3678.318 L -824.5528 -3678.318 L -830.5725 -3689.687 Z" fill="#9f4c4d"/>
        </g>
      </g>
    </g>
  </g>
</svg>
