<svg height="25" viewBox="-843.073 -3695.231 25 25" width="25" xmlns="http://www.w3.org/2000/svg"><g fill="none"><circle cx="-830.573" cy="-3682.731" fill="#fff" r="12"/><circle cx="-830.573" cy="-3682.731" r="12" stroke="#000" stroke-linecap="round" stroke-linejoin="round" stroke-width=".25"/><path d="m-830.2041-3683.107c0 .206-.1621.368-.3684.368-.2064 0-.3685-.162-.3685-.368v-2.9475c0-.2063.1621-.3685.3685-.3685.2063 0 .3684.1622.3684.3685zm-.7369 1.842h.7369v.7367h-.7369zm.0443-9.38c.1399-.2577.5157-.2577.64835 0l6.63135 12.526c.1326.243-.0516.538-.3242.538h-13.2627c-.28 0-.4568-.295-.3242-.538zm-5.6956 12.327h12.0395l-6.0197-11.369z" fill="#9f4c4d"/></g></svg>