<svg height="25" viewBox="-238.774 -3215.705 25 25" width="25" xmlns="http://www.w3.org/2000/svg"><g fill="none"><path d="m-218.11414-3215.205h-16.32c-2.12076 0-3.84 1.719-3.84 3.84v16.32c0 2.1207 1.71924 3.84 3.84 3.84h16.32c2.12078 0 3.84-1.7193 3.84-3.84v-16.32c0-2.121-1.71922-3.84-3.84-3.84z" fill="#fff"/><path d="m-218.11414-3215.205h-16.32c-2.12076 0-3.84 1.719-3.84 3.84v16.32c0 2.1207 1.71924 3.84 3.84 3.84h16.32c2.12078 0 3.84-1.7193 3.84-3.84v-16.32c0-2.121-1.71922-3.84-3.84-3.84z" stroke="#000" stroke-linecap="round" stroke-linejoin="round" stroke-width=".25"/><path d="m-238.27414-3215.205h24v24h-24z"/><path d="m-217.4146-3206.455-1.81826-1.818-1.81826 1.818-.60608-.606 1.81825-1.818-1.81825-1.8184.60608-.6061 1.81826 1.8183 1.81826-1.8183.6061.6061-1.81827 1.8184 1.81827 1.818z" fill="#cf7837"/><path d="m-217.4146-3206.455-1.81826-1.818-1.81826 1.818-.60608-.606 1.81825-1.818-1.81825-1.8184.60608-.6061 1.81826 1.8183 1.81826-1.8183.6061.6061-1.81827 1.8184 1.81827 1.818z" stroke="#9f4c4b" stroke-linecap="round" stroke-linejoin="round" stroke-width=".25"/><path d="m-230.0391-3202.144c-2.97426-.3586-4.59439-3.745-2.92695-6.2556 2.38551-3.5944 7.82625-1.5371 7.49506 2.8396-.13036 1.7327-1.37095 2.6936-1.68005 4.26-.72438 3.6683 3.86581 5.4304 5.91804 2.4235 1.39514-2.0449-.06834-4.9172-2.5243-5.0938-.31644-.0221-.87366.1419-.97143-.2691-.11039-.4636.40583-.4921.72648-.491 3.05522.0126 5.04647 3.3138 3.59875 6-2.05748 3.8194-7.924 2.2489-7.56444-2.2006.18819-2.3265 2.41704-3.5397 1.61593-6.122-.89155-2.87-4.60701-3.337-6.08626-.7347-1.1691 2.0564.21342 4.6564 2.55897 4.8972-.1682-.3449-.51725-.6519-.69808-.9799-.22289-.4036.25653-.8474.64868-.4174.42685.4688.7738 1.0955 1.2143 1.5676.10935.1976.05678.4037-.06518.5824-.56668.3268-1.13125.9778-1.68636 1.2806-.31856.1734-.71912-.1115-.5488-.4668.11774-.246.96934-.757.97774-.82z" fill="#5c76a1"/></g></svg>