<svg xmlns="http://www.w3.org/2000/svg" viewBox="-670.483 -3200.806 25 25"><g fill="none"><circle cx="-657.983" cy="-3188.306" r="12" fill="#fff"/><circle cx="-657.983" cy="-3188.306" r="12" stroke="#000" stroke-linecap="round" stroke-linejoin="round" stroke-width=".25"/><path d="M-661.703-3194.018v11.433a.506.506 0 0 0 .787.42l8.313-5.637a.601.601 0 0 0 0-.99l-8.313-5.647a.51.51 0 0 0-.701.133.516.516 0 0 0-.086.28zm-.78 0c0-.257.078-.506.218-.725a1.3 1.3 0 0 1 1.794-.343l8.313 5.638a1.38 1.38 0 0 1 0 2.285l-8.313 5.638a1.26 1.26 0 0 1-.725.219c-.71 0-1.287-.577-1.287-1.287z" fill="#4e8135"/></g></svg>