<?xml version="1.0" encoding="UTF-8" standalone="no"?>
<!DOCTYPE svg PUBLIC "-//W3C//DTD SVG 1.1//EN" "http://www.w3.org/Graphics/SVG/1.1/DTD/svg11.dtd">
<svg xmlns:dc="http://purl.org/dc/elements/1.1/" xmlns:xl="http://www.w3.org/1999/xlink" version="1.1" xmlns="http://www.w3.org/2000/svg" viewBox="-274.77414 -3215.705 25 25" width="25" height="25">
  <defs/>
  <g id="SOURCES" stroke-dasharray="none" stroke="none" stroke-opacity="1" fill="none" fill-opacity="1">
    <title>SOURCES</title>
    <g id="SOURCES_New">
      <title>New</title>
      <g id="Group_10437">
        <g id="Group_7143">
          <g id="Graphic_7145">
            <path d="M -254.11414 -3215.205 L -270.43414 -3215.205 C -272.5549 -3215.205 -274.27414 -3213.486 -274.27414 -3211.365 L -274.27414 -3195.045 C -274.27414 -3192.9243 -272.5549 -3191.205 -270.43414 -3191.205 L -254.11414 -3191.205 C -251.99336 -3191.205 -250.27414 -3192.9243 -250.27414 -3195.045 L -250.27414 -3211.365 C -250.27414 -3213.486 -251.99336 -3215.205 -254.11414 -3215.205 Z" fill="white"/>
            <path d="M -254.11414 -3215.205 L -270.43414 -3215.205 C -272.5549 -3215.205 -274.27414 -3213.486 -274.27414 -3211.365 L -274.27414 -3195.045 C -274.27414 -3192.9243 -272.5549 -3191.205 -270.43414 -3191.205 L -254.11414 -3191.205 C -251.99336 -3191.205 -250.27414 -3192.9243 -250.27414 -3195.045 L -250.27414 -3211.365 C -250.27414 -3213.486 -251.99336 -3215.205 -254.11414 -3215.205 Z" stroke="black" stroke-linecap="round" stroke-linejoin="round" stroke-width=".25"/>
          </g>
          <g id="Graphic_7144">
            <rect x="-274.27414" y="-3215.205" width="24" height="24" stroke="gray" stroke-opacity="0" stroke-linecap="round" stroke-linejoin="round" stroke-width=".25"/>
          </g>
        </g>
        <g id="Graphic_7140">
          <path d="M -265.21215 -3196.5774 L -267.78356 -3196.5774 L -267.78356 -3194.006 L -268.6407 -3194.006 L -268.6407 -3196.5774 L -271.2121 -3196.5774 L -271.2121 -3197.4346 L -268.6407 -3197.4346 L -268.6407 -3200.006 L -267.78356 -3200.006 L -267.78356 -3197.4346 L -265.21215 -3197.4346 L -265.21215 -3196.5774 Z" fill="#cf7837"/>
          <path d="M -265.21215 -3196.5774 L -267.78356 -3196.5774 L -267.78356 -3194.006 L -268.6407 -3194.006 L -268.6407 -3196.5774 L -271.2121 -3196.5774 L -271.2121 -3197.4346 L -268.6407 -3197.4346 L -268.6407 -3200.006 L -267.78356 -3200.006 L -267.78356 -3197.4346 L -265.21215 -3197.4346 L -265.21215 -3196.5774 Z" stroke="#cf7839" stroke-linecap="round" stroke-linejoin="round" stroke-width=".25"/>
        </g>
        <g id="Graphic_10012">
          <path d="M -265.17572 -3201.9094 C -268.14997 -3202.268 -269.7701 -3205.6543 -268.10266 -3208.165 C -265.71716 -3211.7594 -260.27646 -3209.702 -260.60763 -3205.325 C -260.738 -3203.5926 -261.9786 -3202.6316 -262.28768 -3201.065 C -263.01206 -3197.397 -258.4219 -3195.635 -256.36967 -3198.6418 C -254.97453 -3200.6867 -256.438 -3203.559 -258.89394 -3203.7356 C -259.2104 -3203.7576 -259.7676 -3203.5936 -259.86538 -3204.0047 C -259.97578 -3204.4683 -259.45957 -3204.4967 -259.1389 -3204.4957 C -256.0837 -3204.483 -254.09246 -3201.182 -255.54016 -3198.4957 C -257.59764 -3194.676 -263.46413 -3196.247 -263.10457 -3200.696 C -262.91638 -3203.0227 -260.68754 -3204.236 -261.48866 -3206.818 C -262.3802 -3209.6883 -266.09565 -3210.155 -267.5749 -3207.553 C -268.74398 -3205.4966 -267.36146 -3202.8966 -265.01592 -3202.656 C -265.18413 -3203.0007 -265.53318 -3203.3077 -265.714 -3203.6357 C -265.9369 -3204.0394 -265.45748 -3204.483 -265.06533 -3204.053 C -264.63848 -3203.584 -264.29154 -3202.9576 -263.85103 -3202.4855 C -263.7417 -3202.288 -263.79426 -3202.0818 -263.9162 -3201.903 C -264.4829 -3201.576 -265.04746 -3200.9253 -265.60257 -3200.6225 C -265.92112 -3200.449 -266.3217 -3200.734 -266.15137 -3201.0893 C -266.03362 -3201.3353 -265.18203 -3201.8463 -265.17362 -3201.9094 Z" fill="#5c76a1"/>
        </g>
        <g id="Graphic_10014">
          <path d="M -254.45666 -3211.5253 C -254.45666 -3212.1546 -254.8648 -3212.6647 -255.36825 -3212.6647 L -258.40686 -3212.6647 C -258.91033 -3212.6647 -259.31845 -3212.1546 -259.31845 -3211.5253 L -259.31845 -3209.2465 C -259.31845 -3208.617 -258.91033 -3208.107 -258.40686 -3208.107 L -255.36825 -3208.107 C -254.8648 -3208.107 -254.45666 -3208.617 -254.45666 -3209.2465 Z" fill="white"/>
          <path d="M -254.45666 -3211.5253 C -254.45666 -3212.1546 -254.8648 -3212.6647 -255.36825 -3212.6647 L -258.40686 -3212.6647 C -258.91033 -3212.6647 -259.31845 -3212.1546 -259.31845 -3211.5253 L -259.31845 -3209.2465 C -259.31845 -3208.617 -258.91033 -3208.107 -258.40686 -3208.107 L -255.36825 -3208.107 C -254.8648 -3208.107 -254.45666 -3208.617 -254.45666 -3209.2465 Z" stroke="#528636" stroke-linecap="butt" stroke-linejoin="round" stroke-width=".5"/>
        </g>
        <g id="Graphic_7138">
          <path d="M -252.16198 -3209.3113 C -252.16198 -3209.9406 -252.5701 -3210.4507 -253.07356 -3210.4507 L -256.11218 -3210.4507 C -256.61565 -3210.4507 -257.02377 -3209.9406 -257.02377 -3209.3113 L -257.02377 -3207.0325 C -257.02377 -3206.403 -256.61565 -3205.893 -256.11218 -3205.893 L -253.07356 -3205.893 C -252.5701 -3205.893 -252.16198 -3206.403 -252.16198 -3207.0325 Z" fill="white"/>
          <path d="M -252.16198 -3209.3113 C -252.16198 -3209.9406 -252.5701 -3210.4507 -253.07356 -3210.4507 L -256.11218 -3210.4507 C -256.61565 -3210.4507 -257.02377 -3209.9406 -257.02377 -3209.3113 L -257.02377 -3207.0325 C -257.02377 -3206.403 -256.61565 -3205.893 -256.11218 -3205.893 L -253.07356 -3205.893 C -252.5701 -3205.893 -252.16198 -3206.403 -252.16198 -3207.0325 Z" stroke="#528636" stroke-linecap="butt" stroke-linejoin="round" stroke-width=".5"/>
        </g>
      </g>
    </g>
  </g>
</svg>
