<svg height="25" viewBox="-533.365 -3695.231 25 25" width="25" xmlns="http://www.w3.org/2000/svg"><g fill="none"><circle cx="-520.865" cy="-3682.731" fill="#fff" r="12"/><circle cx="-520.865" cy="-3682.731" r="12" stroke="#000" stroke-linecap="round" stroke-linejoin="round" stroke-width=".25"/><path d="M-524.75-3677.883a6.218 6.218 0 0 1-2.33-4.856c0-3.286 2.563-6.006 5.827-6.2a.385.385 0 0 0 .365-.412.385.385 0 0 0-.412-.365 6.992 6.992 0 0 0-3.963 12.416h-2.206c-.218 0-.389.171-.389.389s.171.388.389.388h3.108a.385.385 0 0 0 .388-.389v-3.107a.385.385 0 0 0-.388-.389.385.385 0 0 0-.389.389zm7.77-9.704a6.218 6.218 0 0 1 2.33 4.856 6.218 6.218 0 0 1-5.858 6.208.385.385 0 0 0-.365.412c.016.217.195.38.412.365a7.004 7.004 0 1 0 3.994-12.431h2.206a.385.385 0 0 0 .389-.389.385.385 0 0 0-.389-.389h-3.108a.385.385 0 0 0-.388.389v3.108c0 .217.17.388.388.388s.389-.17.389-.388v-2.137z" fill="#5c76a1"/></g></svg>