<svg viewBox="-238.774 -3215.705 25 25" xmlns="http://www.w3.org/2000/svg"><g fill="none"><path d="m-218.114-3215.205h-16.32a3.84 3.84 0 0 0 -3.84 3.84v16.32a3.84 3.84 0 0 0 3.84 3.84h16.32a3.84 3.84 0 0 0 3.84-3.84v-16.32a3.84 3.84 0 0 0 -3.84-3.84z" fill="#fff"/><path d="m-218.114-3215.205h-16.32a3.84 3.84 0 0 0 -3.84 3.84v16.32a3.84 3.84 0 0 0 3.84 3.84h16.32a3.84 3.84 0 0 0 3.84-3.84v-16.32a3.84 3.84 0 0 0 -3.84-3.84z" stroke="#000" stroke-linecap="round" stroke-linejoin="round" stroke-width=".25"/><path d="m-238.274-3215.205h24v24h-24z"/><path d="m-217.415-3206.455-1.818-1.818-1.818 1.818-.606-.606 1.818-1.818-1.818-1.818.606-.606 1.818 1.818 1.818-1.818.606.606-1.818 1.818 1.819 1.818z" fill="#cf7837"/><path d="m-217.415-3206.455-1.818-1.818-1.818 1.818-.606-.606 1.818-1.818-1.818-1.818.606-.606 1.818 1.818 1.818-1.818.606.606-1.818 1.818 1.819 1.818z" stroke="#9f4c4b" stroke-linecap="round" stroke-linejoin="round" stroke-width=".25"/><path d="m-230.04-3202.144c-2.973-.359-4.593-3.745-2.926-6.256 2.385-3.594 7.826-1.537 7.495 2.84-.13 1.733-1.37 2.694-1.68 4.26-.724 3.668 3.866 5.43 5.918 2.424 1.395-2.045-.068-4.918-2.524-5.094-.317-.022-.874.142-.972-.27-.11-.463.406-.492.727-.49 3.055.012 5.046 3.313 3.599 6-2.058 3.819-7.924 2.249-7.565-2.201.188-2.327 2.417-3.54 1.616-6.122-.892-2.87-4.607-3.337-6.086-.735-1.17 2.057.213 4.657 2.559 4.898-.169-.345-.518-.652-.698-.98-.223-.404.256-.848.648-.418.427.469.774 1.096 1.215 1.568.109.197.056.403-.066.582-.566.327-1.13.978-1.686 1.28-.319.174-.72-.11-.549-.466.118-.246.97-.757.978-.82z" fill="#5c76a1"/></g></svg>