<?xml version="1.0" encoding="UTF-8" standalone="no"?>
<!DOCTYPE svg PUBLIC "-//W3C//DTD SVG 1.1//EN" "http://www.w3.org/Graphics/SVG/1.1/DTD/svg11.dtd">
<svg version="1.1" xmlns:xl="http://www.w3.org/1999/xlink" xmlns="http://www.w3.org/2000/svg" xmlns:dc="http://purl.org/dc/elements/1.1/" viewBox="-742.4827 -3200.8064 24.999996 25" width="24.999996" height="25">
  <defs/>
  <g id="SOURCES" fill="none" stroke-dasharray="none" fill-opacity="1" stroke="none" stroke-opacity="1">
    <title>SOURCES</title>
    <g id="SOURCES_Light">
      <title>Light</title>
      <g id="Group_9221">
        <g id="Graphic_9177">
          <circle cx="-729.9827" cy="-3188.3064" r="12.0000182688379" fill="white"/>
          <circle cx="-729.9827" cy="-3188.3064" r="12.0000182688379" stroke="black" stroke-linecap="round" stroke-linejoin="round" stroke-width=".25"/>
        </g>
        <g id="Group_9191">
          <title>pause</title>
          <g id="Graphic_9192">
            <path d="M -733.4827 -3193.6398 C -734.12825 -3193.6398 -734.6494 -3193.193 -734.6494 -3192.6398 L -734.6494 -3183.973 C -734.6494 -3183.4198 -734.12825 -3182.973 -733.4827 -3182.973 L -732.7049 -3182.973 C -732.0594 -3182.973 -731.53825 -3183.4198 -731.53825 -3183.973 L -731.53825 -3192.6398 C -731.53825 -3193.193 -732.0594 -3193.6398 -732.7049 -3193.6398 Z M -733.4827 -3194.3064 L -732.7049 -3194.3064 C -731.6316 -3194.3064 -730.7605 -3193.5598 -730.7605 -3192.6398 L -730.7605 -3183.973 C -730.7605 -3183.053 -731.6316 -3182.3064 -732.7049 -3182.3064 L -733.4827 -3182.3064 C -734.556 -3182.3064 -735.4271 -3183.053 -735.4271 -3183.973 L -735.4271 -3192.6398 C -735.4271 -3193.5598 -734.556 -3194.3064 -733.4827 -3194.3064 Z M -727.2605 -3194.3064 L -726.4827 -3194.3064 C -725.4094 -3194.3064 -724.53825 -3193.5598 -724.53825 -3192.6398 L -724.53825 -3183.973 C -724.53825 -3183.053 -725.4094 -3182.3064 -726.4827 -3182.3064 L -727.2605 -3182.3064 C -728.3338 -3182.3064 -729.2049 -3183.053 -729.2049 -3183.973 L -729.2049 -3192.6398 C -729.2049 -3193.5598 -728.3338 -3194.3064 -727.2605 -3194.3064 Z M -727.2605 -3193.6398 C -727.906 -3193.6398 -728.42714 -3193.193 -728.42714 -3192.6398 L -728.42714 -3183.973 C -728.42714 -3183.4198 -727.906 -3182.973 -727.2605 -3182.973 L -726.4827 -3182.973 C -725.83714 -3182.973 -725.316 -3183.4198 -725.316 -3183.973 L -725.316 -3192.6398 C -725.316 -3193.193 -725.83714 -3193.6398 -726.4827 -3193.6398 Z" fill="#cf7738"/>
          </g>
        </g>
      </g>
    </g>
  </g>
</svg>
