<svg height="25" viewBox="-726.933 -3695.231 25 25" width="25" xmlns="http://www.w3.org/2000/svg"><g fill="none"><circle cx="-714.433" cy="-3682.731" fill="#fff" r="12"/><circle cx="-714.433" cy="-3682.731" r="12" stroke="#000" stroke-linecap="round" stroke-linejoin="round" stroke-width=".25"/><path d="m-719.8842-3687.133c1.3144-1.618 3.2978-2.598 5.4444-2.598 3.8656 0 7 3.1345 7 7 0 3.8656-3.1344 7-7 7-3.8655 0-6.75885-2.8855-6.9844-6.572-.0156-.218.1478-.397.36555-.4124.21775-.0156.39665.1478.41225.3654.2022 3.2746 2.9166 5.8412 6.2144 5.8412s6.2222-2.7842 6.2222-6.2222c0-3.4378-2.7922-6.222-6.23-6.222-1.9211 0-3.6944.8787-4.8611 2.333h2.1389c.2178 0 .3889.1712.3889.389 0 .218-.1711.389-.3889.389h-3.1111c-.2178 0-.3889-.171-.3889-.389v-3.111c0-.218.1711-.389.3889-.389s.3889.171.3889.389z" fill="#5c76a1"/></g></svg>