<svg height="25" viewBox="-562.483 -3200.806 25 25" width="25" xmlns="http://www.w3.org/2000/svg"><g fill="none"><circle cx="-549.983" cy="-3188.306" fill="#fff" r="12"/><circle cx="-549.983" cy="-3188.306" r="12" stroke="#000" stroke-linecap="round" stroke-linejoin="round" stroke-width=".25"/><path d="m-549.9827-3189.2007 5.1541-5.1417c.2484-.2484.6334-.2484.8818 0s.2484.6334 0 .8818l-5.1541 5.1542 5.1541 5.1541c.2484.2483.2484.6333 0 .8818s-.6334.2485-.8818 0l-5.1541-5.1542-5.15415 5.1293c-.2484.2484-.6334.2484-.8818 0-.24839-.2484-.24839-.6334 0-.8816l5.15415-5.1543-5.1417-5.1417c-.2484-.236-.2484-.6334 0-.8694.23595-.2484.6334-.2484.86935 0l5.15415 5.1542z" fill="#9f4c4d"/></g></svg>