<svg height="25" viewBox="-274.774 -3215.705 25 25" width="25" xmlns="http://www.w3.org/2000/svg"><g fill="none"><path d="m-254.11414-3215.205h-16.32c-2.12076 0-3.84 1.719-3.84 3.84v16.32c0 2.1207 1.71924 3.84 3.84 3.84h16.32c2.12078 0 3.84-1.7193 3.84-3.84v-16.32c0-2.121-1.71922-3.84-3.84-3.84z" fill="#fff"/><path d="m-254.11414-3215.205h-16.32c-2.12076 0-3.84 1.719-3.84 3.84v16.32c0 2.1207 1.71924 3.84 3.84 3.84h16.32c2.12078 0 3.84-1.7193 3.84-3.84v-16.32c0-2.121-1.71922-3.84-3.84-3.84z" stroke="#000" stroke-linecap="round" stroke-linejoin="round" stroke-width=".25"/><path d="m-274.27414-3215.205h24v24h-24z"/><path d="m-265.21215-3196.5774h-2.57141v2.5714h-.85714v-2.5714h-2.5714v-.8572h2.5714v-2.5714h.85714v2.5714h2.57141z" fill="#cf7837"/><path d="m-265.21215-3196.5774h-2.57141v2.5714h-.85714v-2.5714h-2.5714v-.8572h2.5714v-2.5714h.85714v2.5714h2.57141z" stroke="#cf7839" stroke-linecap="round" stroke-linejoin="round" stroke-width=".25"/><path d="m-265.17572-3201.9094c-2.97425-.3586-4.59438-3.7449-2.92694-6.2556 2.3855-3.5944 7.8262-1.537 7.49503 2.84-.13037 1.7324-1.37097 2.6934-1.68005 4.26-.72438 3.668 3.86578 5.43 5.91801 2.4232 1.39514-2.0449-.06833-4.9172-2.52427-5.0938-.31646-.022-.87366.142-.97144-.2691-.1104-.4636.40581-.492.72648-.491 3.0552.0127 5.04644 3.3137 3.59874 6-2.05748 3.8197-7.92397 2.2487-7.56441-2.2003.18819-2.3267 2.41703-3.54 1.61591-6.122-.89154-2.8703-4.60699-3.337-6.08624-.735-1.16908 2.0564.21344 4.6564 2.55898 4.897-.16821-.3447-.51726-.6517-.69808-.9797-.2229-.4037.25652-.8473.64867-.4173.42685.469.77379 1.0954 1.2143 1.5675.10933.1975.05677.4037-.06517.5825-.5667.327-1.13126.9777-1.68637 1.2805-.31855.1735-.71913-.1115-.5488-.4668.11775-.246.96934-.757.97775-.8201z" fill="#5c76a1"/><path d="m-254.45666-3211.5253c0-.6293-.40814-1.1394-.91159-1.1394h-3.03861c-.50347 0-.91159.5101-.91159 1.1394v2.2788c0 .6295.40812 1.1395.91159 1.1395h3.03861c.50345 0 .91159-.51.91159-1.1395z" fill="#fff"/><path d="m-254.45666-3211.5253c0-.6293-.40814-1.1394-.91159-1.1394h-3.03861c-.50347 0-.91159.5101-.91159 1.1394v2.2788c0 .6295.40812 1.1395.91159 1.1395h3.03861c.50345 0 .91159-.51.91159-1.1395z" stroke="#528636" stroke-linejoin="round" stroke-width=".5"/><path d="m-252.16198-3209.3113c0-.6293-.40812-1.1394-.91158-1.1394h-3.03862c-.50347 0-.91159.5101-.91159 1.1394v2.2788c0 .6295.40812 1.1395.91159 1.1395h3.03862c.50346 0 .91158-.51.91158-1.1395z" fill="#fff"/><path d="m-252.16198-3209.3113c0-.6293-.40812-1.1394-.91158-1.1394h-3.03862c-.50347 0-.91159.5101-.91159 1.1394v2.2788c0 .6295.40812 1.1395.91159 1.1395h3.03862c.50346 0 .91158-.51.91158-1.1395z" stroke="#528636" stroke-linejoin="round" stroke-width=".5"/></g></svg>