<?xml version="1.0" encoding="UTF-8" standalone="no"?>
<!DOCTYPE svg PUBLIC "-//W3C//DTD SVG 1.1//EN" "http://www.w3.org/Graphics/SVG/1.1/DTD/svg11.dtd">
<svg version="1.1" xmlns="http://www.w3.org/2000/svg" xmlns:xl="http://www.w3.org/1999/xlink" xmlns:dc="http://purl.org/dc/elements/1.1/" viewBox="-800.5 -3695.231 24.999996 25" width="24.999996" height="25">
  <defs/>
  <g id="SOURCES" stroke-dasharray="none" fill="none" stroke="none" fill-opacity="1" stroke-opacity="1">
    <title>SOURCES</title>
    <g id="SOURCES_Calque_2">
      <title>Calque 2</title>
      <g id="Group_9210">
        <g id="Graphic_9178">
          <circle cx="-788" cy="-3682.731" r="12.000018268838" fill="white"/>
          <circle cx="-788" cy="-3682.731" r="12.000018268838" stroke="black" stroke-linecap="round" stroke-linejoin="round" stroke-width=".25"/>
        </g>
        <g id="Group_9209">
          <g id="Group_9205">
            <title>play</title>
            <g id="Graphic_9206">
              <path d="M -793.8634 -3688.442 L -793.8634 -3677.01 C -793.8634 -3676.729 -793.6992 -3676.503 -793.4954 -3676.503 C -793.42175 -3676.503 -793.3481 -3676.534 -793.2915 -3676.589 L -787.2556 -3682.227 C -787.0574 -3682.414 -787.0064 -3682.7884 -787.1423 -3683.0614 C -787.1706 -3683.1238 -787.2103 -3683.1783 -787.2556 -3683.2173 L -793.2915 -3688.8633 C -793.4614 -3689.0193 -793.6879 -3688.957 -793.8011 -3688.7307 C -793.8408 -3688.645 -793.8634 -3688.5514 -793.8634 -3688.45 Z M -794.4296 -3688.442 C -794.4296 -3688.6995 -794.373 -3688.949 -794.2711 -3689.1674 C -793.97665 -3689.7523 -793.3991 -3689.9083 -792.9688 -3689.5106 L -786.9328 -3683.8724 C -786.8252 -3683.771 -786.7346 -3683.6462 -786.6667 -3683.506 C -786.3553 -3682.874 -786.4742 -3682.0164 -786.9328 -3681.5875 L -792.9688 -3675.9493 C -793.12165 -3675.801 -793.3085 -3675.731 -793.4954 -3675.731 C -794.0106 -3675.731 -794.4296 -3676.308 -794.4296 -3677.0177 Z" fill="#4e8135"/>
            </g>
          </g>
          <g id="Group_9207">
            <title>play</title>
            <g id="Graphic_9208">
              <path d="M -786.332 -3688.442 L -786.332 -3677.01 C -786.332 -3676.729 -786.1678 -3676.503 -785.9639 -3676.503 C -785.8903 -3676.503 -785.8167 -3676.534 -785.7601 -3676.589 L -779.7241 -3682.227 C -779.52595 -3682.414 -779.475 -3682.7884 -779.6109 -3683.0614 C -779.6392 -3683.1238 -779.6788 -3683.1783 -779.7241 -3683.2173 L -785.7601 -3688.8633 C -785.92995 -3689.0193 -786.1564 -3688.957 -786.2697 -3688.7307 C -786.3093 -3688.645 -786.332 -3688.5514 -786.332 -3688.45 Z M -786.8982 -3688.442 C -786.8982 -3688.6995 -786.8416 -3688.949 -786.7397 -3689.1674 C -786.4452 -3689.7523 -785.8677 -3689.9083 -785.4373 -3689.5106 L -779.4014 -3683.8724 C -779.2938 -3683.771 -779.2032 -3683.6462 -779.1353 -3683.506 C -778.8238 -3682.874 -778.9427 -3682.0164 -779.4014 -3681.5875 L -785.4373 -3675.9493 C -785.5902 -3675.801 -785.7771 -3675.731 -785.9639 -3675.731 C -786.4792 -3675.731 -786.8982 -3676.308 -786.8982 -3677.0177 Z" fill="#4e8135"/>
            </g>
          </g>
        </g>
      </g>
    </g>
  </g>
</svg>
