<svg xmlns="http://www.w3.org/2000/svg" viewBox="-649.505 -3695.231 25 25"><g fill="none"><circle cx="-637.005" cy="-3682.731" r="12" fill="#fff"/><circle cx="-637.005" cy="-3682.731" r="12" stroke="#000" stroke-linecap="round" stroke-linejoin="round" stroke-width=".25"/><path d="m-638.561-3681.304 6.214 4.216a.508.508 0 0 0 .7-.133.516.516 0 0 0 .086-.28v-11.402a.504.504 0 0 0-.786-.42l-6.214 4.216v3.81zm0-4.752 5.771-3.92c.21-.148.467-.218.723-.218.708 0 1.284.575 1.284 1.283v11.403c0 .256-.078.505-.218.723a1.296 1.296 0 0 1-1.789.342l-5.771-3.92v2.209a1.945 1.945 0 0 1-1.944 1.944h-.778a1.945 1.945 0 0 1-1.945-1.944v-10.111c0-1.073.871-1.945 1.945-1.945h.778c1.073 0 1.944.872 1.944 1.945zm-1.944 9.069c.645 0 1.166-.521 1.166-1.167v-10.111c0-.646-.52-1.167-1.166-1.167h-.778c-.646 0-1.167.521-1.167 1.167v10.111c0 .646.521 1.167 1.167 1.167z" fill="#66727e"/></g></svg>