<svg xmlns="http://www.w3.org/2000/svg" viewBox="-490.774 -3215.705 25 25"><g fill="none"><path d="M-470.114-3215.205h-16.32a3.84 3.84 0 0 0-3.84 3.84v16.32a3.84 3.84 0 0 0 3.84 3.84h16.32a3.84 3.84 0 0 0 3.84-3.84v-16.32a3.84 3.84 0 0 0-3.84-3.84z" fill="#fff"/><path d="M-470.114-3215.205h-16.32a3.84 3.84 0 0 0-3.84 3.84v16.32a3.84 3.84 0 0 0 3.84 3.84h16.32a3.84 3.84 0 0 0 3.84-3.84v-16.32a3.84 3.84 0 0 0-3.84-3.84z" stroke="#000" stroke-linecap="round" stroke-linejoin="round" stroke-width=".25"/><path d="M-490.274-3215.205h24v24h-24z"/><path d="M-481.312-3202.168c-2.974-.358-4.595-3.745-2.927-6.255 2.385-3.595 7.826-1.538 7.495 2.84-.13 1.732-1.371 2.693-1.68 4.26-.725 3.667 3.866 5.43 5.918 2.423 1.395-2.045-.069-4.918-2.524-5.094-.317-.022-.874.142-.972-.27-.11-.463.406-.491.727-.49 3.055.012 5.046 3.314 3.598 6-2.057 3.82-7.924 2.249-7.564-2.2.188-2.327 2.417-3.54 1.616-6.123-.892-2.87-4.607-3.337-6.086-.735-1.17 2.057.213 4.657 2.559 4.898-.169-.345-.518-.652-.699-.98-.222-.404.257-.848.65-.418.426.47.773 1.096 1.213 1.568.11.198.057.404-.065.582-.566.327-1.131.978-1.686 1.281-.319.173-.72-.111-.549-.467.118-.246.97-.757.978-.82z" fill="#5c76a1"/></g></svg>