<?xml version="1.0" encoding="UTF-8" standalone="no"?>
<!DOCTYPE svg PUBLIC "-//W3C//DTD SVG 1.1//EN" "http://www.w3.org/Graphics/SVG/1.1/DTD/svg11.dtd">
<svg xmlns:dc="http://purl.org/dc/elements/1.1/" xmlns:xl="http://www.w3.org/1999/xlink" version="1.1" xmlns="http://www.w3.org/2000/svg" viewBox="-454.77414 -3215.705 25 25" width="25" height="25">
  <defs/>
  <g id="SOURCES" stroke-dasharray="none" stroke="none" stroke-opacity="1" fill="none" fill-opacity="1">
    <title>SOURCES</title>
    <g id="SOURCES_New">
      <title>New</title>
      <g id="Group_10432">
        <g id="Group_7154">
          <g id="Graphic_7156">
            <path d="M -434.11414 -3215.205 L -450.43414 -3215.205 C -452.5549 -3215.205 -454.27414 -3213.486 -454.27414 -3211.365 L -454.27414 -3195.045 C -454.27414 -3192.9243 -452.5549 -3191.205 -450.43414 -3191.205 L -434.11414 -3191.205 C -431.99336 -3191.205 -430.27414 -3192.9243 -430.27414 -3195.045 L -430.27414 -3211.365 C -430.27414 -3213.486 -431.99336 -3215.205 -434.11414 -3215.205 Z" fill="white"/>
            <path d="M -434.11414 -3215.205 L -450.43414 -3215.205 C -452.5549 -3215.205 -454.27414 -3213.486 -454.27414 -3211.365 L -454.27414 -3195.045 C -454.27414 -3192.9243 -452.5549 -3191.205 -450.43414 -3191.205 L -434.11414 -3191.205 C -431.99336 -3191.205 -430.27414 -3192.9243 -430.27414 -3195.045 L -430.27414 -3211.365 C -430.27414 -3213.486 -431.99336 -3215.205 -434.11414 -3215.205 Z" stroke="black" stroke-linecap="round" stroke-linejoin="round" stroke-width=".25"/>
          </g>
          <g id="Graphic_7155">
            <rect x="-454.27414" y="-3215.205" width="24" height="24" stroke="gray" stroke-opacity="0" stroke-linecap="round" stroke-linejoin="round" stroke-width=".25"/>
          </g>
        </g>
        <g id="Graphic_7151">
          <path d="M -436.1085 -3211.893 L -436.1085 -3207.7408 L -438.1953 -3209.9915 L -438.82864 -3209.3084 L -435.662 -3205.893 L -432.4953 -3209.3084 L -433.12864 -3209.9915 L -435.2155 -3207.7408 L -435.2155 -3211.893 Z" fill="#508737"/>
          <path d="M -436.1085 -3211.893 L -436.1085 -3207.7408 L -438.1953 -3209.9915 L -438.82864 -3209.3084 L -435.662 -3205.893 L -432.4953 -3209.3084 L -433.12864 -3209.9915 L -435.2155 -3207.7408 L -435.2155 -3211.893 Z" stroke="#518737" stroke-linecap="round" stroke-linejoin="round" stroke-width=".25"/>
        </g>
        <g id="Graphic_10007">
          <path d="M -445.3349 -3201.9094 C -448.30914 -3202.268 -449.92926 -3205.6543 -448.26183 -3208.165 C -445.87633 -3211.7594 -440.43563 -3209.702 -440.7668 -3205.325 C -440.89717 -3203.5926 -442.13775 -3202.6316 -442.44685 -3201.065 C -443.1712 -3197.397 -438.58106 -3195.635 -436.52884 -3198.6418 C -435.1337 -3200.6867 -436.5972 -3203.559 -439.0531 -3203.7356 C -439.36957 -3203.7576 -439.9268 -3203.5936 -440.02455 -3204.0047 C -440.13495 -3204.4683 -439.61874 -3204.4967 -439.2981 -3204.4957 C -436.24287 -3204.483 -434.25163 -3201.182 -435.69933 -3198.4957 C -437.7568 -3194.676 -443.6233 -3196.247 -443.26374 -3200.696 C -443.07555 -3203.0227 -440.8467 -3204.236 -441.64783 -3206.818 C -442.53937 -3209.6883 -446.2548 -3210.155 -447.73406 -3207.553 C -448.90315 -3205.4966 -447.52063 -3202.8966 -445.1751 -3202.656 C -445.3433 -3203.0007 -445.69235 -3203.3077 -445.8732 -3203.6357 C -446.09606 -3204.0394 -445.61665 -3204.483 -445.2245 -3204.053 C -444.79765 -3203.584 -444.4507 -3202.9576 -444.0102 -3202.4855 C -443.90086 -3202.288 -443.9534 -3202.0818 -444.0754 -3201.903 C -444.64206 -3201.576 -445.20663 -3200.9253 -445.76174 -3200.6225 C -446.0803 -3200.449 -446.48086 -3200.734 -446.31054 -3201.0893 C -446.1928 -3201.3353 -445.3412 -3201.8463 -445.3328 -3201.9094 Z" fill="#5c76a1"/>
        </g>
      </g>
    </g>
  </g>
</svg>
