<svg height="25" viewBox="-382.774 -3215.705 25 25" width="25" xmlns="http://www.w3.org/2000/svg"><g fill="none"><path d="M-362.114-3215.205h-16.32a3.84 3.84 0 0 0-3.84 3.84v16.32a3.84 3.84 0 0 0 3.84 3.84h16.32a3.84 3.84 0 0 0 3.84-3.84v-16.32a3.84 3.84 0 0 0-3.84-3.84z" fill="#fff"/><path d="M-362.114-3215.205h-16.32a3.84 3.84 0 0 0-3.84 3.84v16.32a3.84 3.84 0 0 0 3.84 3.84h16.32a3.84 3.84 0 0 0 3.84-3.84v-16.32a3.84 3.84 0 0 0-3.84-3.84z" stroke="#000" stroke-linecap="round" stroke-linejoin="round" stroke-width=".25"/><path d="M-382.274-3215.205h24v24h-24z"/><path d="M-363.435-3211.893v4.152l-2.087-2.25-.633.683 3.167 3.415 3.166-3.415-.633-.683-2.087 2.25v-4.152z" fill="#528636"/><path d="M-363.435-3211.893v4.152l-2.087-2.25-.633.683 3.167 3.415 3.166-3.415-.633-.683-2.087 2.25v-4.152z" stroke="#528636" stroke-linecap="round" stroke-linejoin="round" stroke-width=".25"/><path d="M-373.335-3201.91c-2.974-.358-4.594-3.744-2.927-6.255 2.386-3.594 7.826-1.537 7.495 2.84-.13 1.732-1.37 2.693-1.68 4.26-.724 3.668 3.866 5.43 5.918 2.423 1.395-2.045-.068-4.917-2.524-5.094-.317-.022-.874.142-.972-.269-.11-.463.406-.492.727-.49 3.055.012 5.046 3.313 3.599 6-2.058 3.819-7.924 2.248-7.565-2.201.188-2.327 2.417-3.54 1.616-6.122-.891-2.87-4.607-3.337-6.086-.735-1.17 2.056.213 4.656 2.559 4.897-.168-.345-.517-.652-.698-.98-.223-.403.256-.847.648-.417.427.469.774 1.095 1.215 1.568.11.197.057.403-.065.582-.567.327-1.132.978-1.687 1.28-.318.174-.719-.111-.549-.466.118-.246.97-.757.978-.82z" fill="#5c76a1"/><path d="M-376.781-3194.006a2.432 2.432 0 1 1 .002-4.864 2.432 2.432 0 0 1-.002 4.864zm0-.243a2.188 2.188 0 1 0 0-4.376 2.188 2.188 0 0 0 0 4.376zm.921-1.68a.124.124 0 0 1 .03.17.123.123 0 0 1-.17.03l-.852-.608a.123.123 0 0 1-.046-.068l-.365-1.337c-.017-.066.02-.132.086-.149s.13.02.148.086l.352 1.295.817.584z" fill="#5c75a0"/><path d="M-376.781-3194.006a2.432 2.432 0 1 1 .002-4.864 2.432 2.432 0 0 1-.002 4.864zm0-.243a2.188 2.188 0 1 0 0-4.376 2.188 2.188 0 0 0 0 4.376zm.921-1.68a.124.124 0 0 1 .03.17.123.123 0 0 1-.17.03l-.852-.608a.123.123 0 0 1-.046-.068l-.365-1.337c-.017-.066.02-.132.086-.149s.13.02.148.086l.352 1.295.817.584z" stroke="#5c76a1" stroke-linejoin="round" stroke-width=".25"/></g></svg>