<svg height="25" viewBox="-610.792 -3695.231 25 25" width="25" xmlns="http://www.w3.org/2000/svg"><g fill="none"><circle cx="-598.292" cy="-3682.731" fill="#fff" r="12"/><circle cx="-598.292" cy="-3682.731" r="12" stroke="#000" stroke-linecap="round" stroke-linejoin="round" stroke-width=".25"/><path d="m-596.73645-3684.6365-6.21445-4.2155c-.2333-.1556-.5444-.0934-.7.132-.0544.0857-.08555.179-.08555.28v11.4024c0 .28.22555.5056.50555.5056.1011 0 .2022-.031.28-.0856l6.21445-4.2154v-3.8113zm0 4.7522-5.77111 3.92c-.21.1478-.46664.2178-.72334.2178-.7078 0-1.2833-.5755-1.2833-1.2835v-11.402c0-.2568.07775-.5056.21775-.7234.40445-.5834 1.19775-.7389 1.78889-.3422l5.77111 3.92v-2.2089c0-1.0735.87115-1.9445 1.94445-1.9445h.7778c1.0733 0 1.9444.871 1.9444 1.9445v10.1111c0 1.0734-.8711 1.9444-1.9444 1.9444h-.7778c-1.0733 0-1.94445-.871-1.94445-1.9444zm1.94445-9.0687c-.64556 0-1.1667.521-1.1667 1.1665v10.1111c0 .6454.52114 1.1666 1.1667 1.1666h.7778c.6455 0 1.16664-.5212 1.16664-1.1666v-10.1111c0-.6455-.52114-1.1665-1.16664-1.1665z" fill="#66727e"/></g></svg>