<svg xmlns="http://www.w3.org/2000/svg" viewBox="-562.483 -3200.806 25 25"><g fill="none"><circle cx="-549.983" cy="-3188.306" r="12" fill="#fff"/><circle cx="-549.983" cy="-3188.306" r="12" stroke="#000" stroke-linecap="round" stroke-linejoin="round" stroke-width=".25"/><path d="m-549.983-3189.2 5.154-5.142a.615.615 0 0 1 .882 0 .615.615 0 0 1 0 .881l-5.154 5.155 5.154 5.154a.615.615 0 0 1 0 .881.615.615 0 0 1-.882 0l-5.154-5.154-5.154 5.13a.615.615 0 0 1-.882 0 .615.615 0 0 1 0-.882l5.154-5.154-5.141-5.142a.6.6 0 0 1 0-.87.6.6 0 0 1 .87 0l5.153 5.155z" fill="#9f4c4d"/></g></svg>