<svg height="25" viewBox="-670.483 -3200.806 25 25" width="25" xmlns="http://www.w3.org/2000/svg"><g fill="none"><circle cx="-657.983" cy="-3188.306" fill="#fff" r="12"/><circle cx="-657.983" cy="-3188.306" r="12" stroke="#000" stroke-linecap="round" stroke-linejoin="round" stroke-width=".25"/><path d="m-661.7033-3194.0177v11.4323c0 .2808.2262.5069.5069.5069.1014 0 .2028-.0312.2808-.0858l8.3129-5.6381c.273-.1872.3432-.5616.156-.8346-.039-.0622-.0936-.117-.156-.1558l-8.3129-5.646c-.234-.1559-.5459-.0935-.7019.1326-.0546.0858-.0858.1792-.0858.2807zm-.7798 0c0-.2573.078-.5068.21836-.7253.40554-.5848 1.20094-.7407 1.79364-.343l8.31294 5.638c.14816.1015.27296.2263.36652.3667.42894.6316.26514 1.4893-.36652 1.9183l-8.31294 5.6382c-.2106.1482-.4679.2184-.7253.2184-.7096 0-1.2867-.5771-1.2867-1.2866z" fill="#4e8135"/></g></svg>