<?xml version="1.0" encoding="UTF-8" standalone="no"?>
<!DOCTYPE svg PUBLIC "-//W3C//DTD SVG 1.1//EN" "http://www.w3.org/Graphics/SVG/1.1/DTD/svg11.dtd">
<svg xmlns:xl="http://www.w3.org/1999/xlink" version="1.1" xmlns="http://www.w3.org/2000/svg" xmlns:dc="http://purl.org/dc/elements/1.1/" viewBox="-526.4827 -3200.8064 24.999996 25" width="24.999996" height="25">
  <defs/>
  <g id="SOURCES" fill-opacity="1" stroke-opacity="1" stroke-dasharray="none" stroke="none" fill="none">
    <title>SOURCES</title>
    <g id="SOURCES_Light">
      <title>Light</title>
      <g id="Graphic_9184">
        <circle cx="-513.9827" cy="-3188.3064" r="12.0000182688379" fill="white"/>
        <circle cx="-513.9827" cy="-3188.3064" r="12.0000182688379" stroke="black" stroke-linecap="round" stroke-linejoin="round" stroke-width=".25"/>
      </g>
      <g id="Group_9203">
        <title>refresh-double</title>
        <g id="Graphic_9204">
          <path d="M -517.86434 -3183.4344 C -519.3188 -3184.6022 -520.1977 -3186.3773 -520.1977 -3188.3002 C -520.1977 -3191.5934 -517.631 -3194.3183 -514.36434 -3194.513 C -514.14657 -3194.5285 -513.98323 -3194.7075 -513.9988 -3194.9255 C -514.01434 -3195.1435 -514.19323 -3195.307 -514.411 -3195.2914 C -518.0899 -3195.0656 -520.97546 -3192.006 -520.97546 -3188.3002 C -520.97546 -3186.1515 -519.99546 -3184.1662 -518.3777 -3182.8505 L -520.58657 -3182.8505 C -520.80434 -3182.8505 -520.97546 -3182.6792 -520.97546 -3182.4613 C -520.97546 -3182.2433 -520.80434 -3182.072 -520.58657 -3182.072 L -517.47546 -3182.072 C -517.2577 -3182.072 -517.08657 -3182.2433 -517.08657 -3182.4613 L -517.08657 -3185.5754 C -517.08657 -3185.7934 -517.2577 -3185.9646 -517.47546 -3185.9646 C -517.69323 -3185.9646 -517.86434 -3185.7934 -517.86434 -3185.5754 Z M -510.08657 -3193.1582 C -508.6321 -3191.9904 -507.75323 -3190.2154 -507.75323 -3188.2924 C -507.75323 -3184.9837 -510.33546 -3182.259 -513.6177 -3182.072 C -513.83546 -3182.0564 -513.9988 -3181.8774 -513.98323 -3181.6594 C -513.9677 -3181.4414 -513.7888 -3181.278 -513.571 -3181.2935 C -509.87657 -3181.5115 -506.97546 -3184.579 -506.97546 -3188.3002 C -506.97546 -3190.449 -507.95546 -3192.4342 -509.57323 -3193.75 L -507.36434 -3193.75 C -507.14657 -3193.75 -506.97546 -3193.9212 -506.97546 -3194.139 C -506.97546 -3194.357 -507.14657 -3194.5285 -507.36434 -3194.5285 L -510.47546 -3194.5285 C -510.69323 -3194.5285 -510.86434 -3194.357 -510.86434 -3194.139 L -510.86434 -3191.025 C -510.86434 -3190.807 -510.69323 -3190.6358 -510.47546 -3190.6358 C -510.2577 -3190.6358 -510.08657 -3190.807 -510.08657 -3191.025 L -510.08657 -3193.166 Z" fill="#5c76a1"/>
        </g>
      </g>
    </g>
  </g>
</svg>
