<?xml version="1.0" encoding="UTF-8" standalone="no"?>
<!DOCTYPE svg PUBLIC "-//W3C//DTD SVG 1.1//EN" "http://www.w3.org/Graphics/SVG/1.1/DTD/svg11.dtd">
<svg xmlns:dc="http://purl.org/dc/elements/1.1/" xmlns:xl="http://www.w3.org/1999/xlink" version="1.1" xmlns="http://www.w3.org/2000/svg" viewBox="-310.77414 -3215.705 25 25" width="25" height="25">
  <defs/>
  <g id="SOURCES" stroke-dasharray="none" stroke="none" stroke-opacity="1" fill="none" fill-opacity="1">
    <title>SOURCES</title>
    <g id="SOURCES_New">
      <title>New</title>
      <g id="Group_10436">
        <g id="Graphic_7150">
          <path d="M -290.11414 -3215.205 L -306.43414 -3215.205 C -308.5549 -3215.205 -310.27414 -3213.486 -310.27414 -3211.365 L -310.27414 -3195.045 C -310.27414 -3192.9243 -308.5549 -3191.205 -306.43414 -3191.205 L -290.11414 -3191.205 C -287.99336 -3191.205 -286.27414 -3192.9243 -286.27414 -3195.045 L -286.27414 -3211.365 C -286.27414 -3213.486 -287.99336 -3215.205 -290.11414 -3215.205 Z" fill="white"/>
          <path d="M -290.11414 -3215.205 L -306.43414 -3215.205 C -308.5549 -3215.205 -310.27414 -3213.486 -310.27414 -3211.365 L -310.27414 -3195.045 C -310.27414 -3192.9243 -308.5549 -3191.205 -306.43414 -3191.205 L -290.11414 -3191.205 C -287.99336 -3191.205 -286.27414 -3192.9243 -286.27414 -3195.045 L -286.27414 -3211.365 C -286.27414 -3213.486 -287.99336 -3215.205 -290.11414 -3215.205 Z" stroke="black" stroke-linecap="round" stroke-linejoin="round" stroke-width=".25"/>
        </g>
        <g id="Graphic_7149">
          <rect x="-310.27414" y="-3215.205" width="24" height="24" stroke="gray" stroke-opacity="0" stroke-linecap="round" stroke-linejoin="round" stroke-width=".25"/>
        </g>
        <g id="Graphic_7146">
          <path d="M -301.34583 -3196.5774 L -303.91724 -3196.5774 L -303.91724 -3194.006 L -304.77438 -3194.006 L -304.77438 -3196.5774 L -307.3458 -3196.5774 L -307.3458 -3197.4346 L -304.77438 -3197.4346 L -304.77438 -3200.006 L -303.91724 -3200.006 L -303.91724 -3197.4346 L -301.34583 -3197.4346 L -301.34583 -3196.5774 Z" fill="#cf7837"/>
          <path d="M -301.34583 -3196.5774 L -303.91724 -3196.5774 L -303.91724 -3194.006 L -304.77438 -3194.006 L -304.77438 -3196.5774 L -307.3458 -3196.5774 L -307.3458 -3197.4346 L -304.77438 -3197.4346 L -304.77438 -3200.006 L -303.91724 -3200.006 L -303.91724 -3197.4346 L -301.34583 -3197.4346 L -301.34583 -3196.5774 Z" stroke="#cf7839" stroke-linecap="round" stroke-linejoin="round" stroke-width=".25"/>
        </g>
        <g id="Graphic_6684">
          <path d="M -291.37353 -3206.6647 L -291.37353 -3210.817 L -289.2867 -3208.5663 L -288.65336 -3209.2493 L -291.82003 -3212.6647 L -294.9867 -3209.2493 L -294.35336 -3208.5663 L -292.26653 -3210.817 L -292.26653 -3206.6647 Z" fill="#5c76a2"/>
          <path d="M -291.37353 -3206.6647 L -291.37353 -3210.817 L -289.2867 -3208.5663 L -288.65336 -3209.2493 L -291.82003 -3212.6647 L -294.9867 -3209.2493 L -294.35336 -3208.5663 L -292.26653 -3210.817 L -292.26653 -3206.6647 Z" stroke="#5a77a1" stroke-linecap="round" stroke-linejoin="round" stroke-width=".25"/>
        </g>
        <g id="Graphic_10011">
          <path d="M -301.3349 -3201.9094 C -304.30914 -3202.268 -305.92926 -3205.6543 -304.26183 -3208.165 C -301.87633 -3211.7594 -296.43563 -3209.702 -296.7668 -3205.325 C -296.89717 -3203.5926 -298.13775 -3202.6316 -298.44685 -3201.065 C -299.17123 -3197.397 -294.58106 -3195.635 -292.52884 -3198.6418 C -291.1337 -3200.6867 -292.59717 -3203.559 -295.0531 -3203.7356 C -295.36957 -3203.7576 -295.92678 -3203.5936 -296.02455 -3204.0047 C -296.13495 -3204.4683 -295.61874 -3204.4967 -295.29808 -3204.4957 C -292.24287 -3204.483 -290.25163 -3201.182 -291.69933 -3198.4957 C -293.7568 -3194.676 -299.6233 -3196.247 -299.26374 -3200.696 C -299.07555 -3203.0227 -296.8467 -3204.236 -297.64783 -3206.818 C -298.53937 -3209.6883 -302.2548 -3210.155 -303.73406 -3207.553 C -304.90315 -3205.4966 -303.52063 -3202.8966 -301.1751 -3202.656 C -301.3433 -3203.0007 -301.69235 -3203.3077 -301.87318 -3203.6357 C -302.09606 -3204.0394 -301.61665 -3204.483 -301.2245 -3204.053 C -300.79765 -3203.584 -300.4507 -3202.9576 -300.0102 -3202.4855 C -299.90086 -3202.288 -299.95343 -3202.0818 -300.07538 -3201.903 C -300.64206 -3201.576 -301.20663 -3200.9253 -301.76174 -3200.6225 C -302.0803 -3200.449 -302.48086 -3200.734 -302.31054 -3201.0893 C -302.1928 -3201.3353 -301.3412 -3201.8463 -301.3328 -3201.9094 Z" fill="#5c76a1"/>
        </g>
      </g>
    </g>
  </g>
</svg>
