<?xml version="1.0" encoding="UTF-8" standalone="no"?>
<!DOCTYPE svg PUBLIC "-//W3C//DTD SVG 1.1//EN" "http://www.w3.org/Graphics/SVG/1.1/DTD/svg11.dtd">
<svg xmlns:dc="http://purl.org/dc/elements/1.1/" xmlns:xl="http://www.w3.org/1999/xlink" version="1.1" xmlns="http://www.w3.org/2000/svg" viewBox="-238.77414 -3215.705 25 25" width="25" height="25">
  <defs/>
  <g id="SOURCES" stroke-dasharray="none" stroke="none" stroke-opacity="1" fill="none" fill-opacity="1">
    <title>SOURCES</title>
    <g id="SOURCES_New">
      <title>New</title>
      <g id="Group_10438">
        <g id="Graphic_7137">
          <path d="M -218.11414 -3215.205 L -234.43414 -3215.205 C -236.5549 -3215.205 -238.27414 -3213.486 -238.27414 -3211.365 L -238.27414 -3195.045 C -238.27414 -3192.9243 -236.5549 -3191.205 -234.43414 -3191.205 L -218.11414 -3191.205 C -215.99336 -3191.205 -214.27414 -3192.9243 -214.27414 -3195.045 L -214.27414 -3211.365 C -214.27414 -3213.486 -215.99336 -3215.205 -218.11414 -3215.205 Z" fill="white"/>
          <path d="M -218.11414 -3215.205 L -234.43414 -3215.205 C -236.5549 -3215.205 -238.27414 -3213.486 -238.27414 -3211.365 L -238.27414 -3195.045 C -238.27414 -3192.9243 -236.5549 -3191.205 -234.43414 -3191.205 L -218.11414 -3191.205 C -215.99336 -3191.205 -214.27414 -3192.9243 -214.27414 -3195.045 L -214.27414 -3211.365 C -214.27414 -3213.486 -215.99336 -3215.205 -218.11414 -3215.205 Z" stroke="black" stroke-linecap="round" stroke-linejoin="round" stroke-width=".25"/>
        </g>
        <g id="Graphic_7136">
          <rect x="-238.27414" y="-3215.205" width="24" height="24" stroke="gray" stroke-opacity="0" stroke-linecap="round" stroke-linejoin="round" stroke-width=".25"/>
        </g>
        <g id="Graphic_7134">
          <path d="M -217.4146 -3206.455 L -219.23286 -3208.273 L -221.05112 -3206.455 L -221.6572 -3207.061 L -219.83895 -3208.879 L -221.6572 -3210.6974 L -221.05112 -3211.3035 L -219.23286 -3209.4852 L -217.4146 -3211.3035 L -216.8085 -3210.6974 L -218.62677 -3208.879 L -216.8085 -3207.061 L -217.4146 -3206.455 Z" fill="#cf7837"/>
          <path d="M -217.4146 -3206.455 L -219.23286 -3208.273 L -221.05112 -3206.455 L -221.6572 -3207.061 L -219.83895 -3208.879 L -221.6572 -3210.6974 L -221.05112 -3211.3035 L -219.23286 -3209.4852 L -217.4146 -3211.3035 L -216.8085 -3210.6974 L -218.62677 -3208.879 L -216.8085 -3207.061 L -217.4146 -3206.455 Z" stroke="#9f4c4b" stroke-linecap="round" stroke-linejoin="round" stroke-width=".25"/>
        </g>
        <g id="Graphic_10013">
          <path d="M -230.0391 -3202.144 C -233.01336 -3202.5026 -234.63349 -3205.889 -232.96605 -3208.3996 C -230.58054 -3211.994 -225.1398 -3209.9367 -225.47099 -3205.56 C -225.60135 -3203.8273 -226.84194 -3202.8664 -227.15104 -3201.3 C -227.87542 -3197.6317 -223.28523 -3195.8696 -221.233 -3198.8765 C -219.83786 -3200.9214 -221.30134 -3203.7937 -223.7573 -3203.9703 C -224.07374 -3203.9924 -224.63096 -3203.8284 -224.72873 -3204.2394 C -224.83912 -3204.703 -224.3229 -3204.7315 -224.00225 -3204.7304 C -220.94703 -3204.7178 -218.95578 -3201.4166 -220.4035 -3198.7304 C -222.46098 -3194.911 -228.3275 -3196.4815 -227.96794 -3200.931 C -227.77975 -3203.2575 -225.5509 -3204.4707 -226.35201 -3207.053 C -227.24356 -3209.923 -230.95902 -3210.39 -232.43827 -3207.7877 C -233.60737 -3205.7313 -232.22485 -3203.1313 -229.8793 -3202.8905 C -230.0475 -3203.2354 -230.39655 -3203.5424 -230.57738 -3203.8704 C -230.80027 -3204.274 -230.32085 -3204.7178 -229.9287 -3204.2878 C -229.50185 -3203.819 -229.1549 -3203.1923 -228.7144 -3202.7202 C -228.60505 -3202.5226 -228.65762 -3202.3165 -228.77958 -3202.1378 C -229.34626 -3201.811 -229.91083 -3201.16 -230.46594 -3200.8572 C -230.7845 -3200.6838 -231.18506 -3200.9687 -231.01474 -3201.324 C -230.897 -3201.57 -230.0454 -3202.081 -230.037 -3202.144 Z" fill="#5c76a1"/>
        </g>
      </g>
    </g>
  </g>
</svg>
