<?xml version="1.0" encoding="UTF-8" standalone="no"?>
<!DOCTYPE svg PUBLIC "-//W3C//DTD SVG 1.1//EN" "http://www.w3.org/Graphics/SVG/1.1/DTD/svg11.dtd">
<svg xmlns:dc="http://purl.org/dc/elements/1.1/" xmlns:xl="http://www.w3.org/1999/xlink" version="1.1" xmlns="http://www.w3.org/2000/svg" viewBox="-382.77414 -3215.705 25 25" width="25" height="25">
  <defs/>
  <g id="SOURCES" stroke-dasharray="none" stroke="none" stroke-opacity="1" fill="none" fill-opacity="1">
    <title>SOURCES</title>
    <g id="SOURCES_New">
      <title>New</title>
      <g id="Group_10434">
        <g id="Group_9214">
          <g id="Graphic_6689">
            <path d="M -362.11414 -3215.205 L -378.43414 -3215.205 C -380.5549 -3215.205 -382.27414 -3213.486 -382.27414 -3211.365 L -382.27414 -3195.045 C -382.27414 -3192.9243 -380.5549 -3191.205 -378.43414 -3191.205 L -362.11414 -3191.205 C -359.99336 -3191.205 -358.27414 -3192.9243 -358.27414 -3195.045 L -358.27414 -3211.365 C -358.27414 -3213.486 -359.99336 -3215.205 -362.11414 -3215.205 Z" fill="white"/>
            <path d="M -362.11414 -3215.205 L -378.43414 -3215.205 C -380.5549 -3215.205 -382.27414 -3213.486 -382.27414 -3211.365 L -382.27414 -3195.045 C -382.27414 -3192.9243 -380.5549 -3191.205 -378.43414 -3191.205 L -362.11414 -3191.205 C -359.99336 -3191.205 -358.27414 -3192.9243 -358.27414 -3195.045 L -358.27414 -3211.365 C -358.27414 -3213.486 -359.99336 -3215.205 -362.11414 -3215.205 Z" stroke="black" stroke-linecap="round" stroke-linejoin="round" stroke-width=".25"/>
          </g>
          <g id="Graphic_6688">
            <rect x="-382.27414" y="-3215.205" width="24" height="24" stroke="gray" stroke-opacity="0" stroke-linecap="round" stroke-linejoin="round" stroke-width=".25"/>
          </g>
        </g>
        <g id="Graphic_6683">
          <path d="M -363.43497 -3211.893 L -363.43497 -3207.7407 L -365.5218 -3209.9915 L -366.15514 -3209.3084 L -362.98847 -3205.893 L -359.8218 -3209.3084 L -360.45514 -3209.9915 L -362.54197 -3207.7407 L -362.54197 -3211.893 Z" fill="#528636"/>
          <path d="M -363.43497 -3211.893 L -363.43497 -3207.7407 L -365.5218 -3209.9915 L -366.15514 -3209.3084 L -362.98847 -3205.893 L -359.8218 -3209.3084 L -360.45514 -3209.9915 L -362.54197 -3207.7407 L -362.54197 -3211.893 Z" stroke="#528636" stroke-linecap="round" stroke-linejoin="round" stroke-width=".25"/>
        </g>
        <g id="Graphic_10009">
          <path d="M -373.3349 -3201.9094 C -376.30914 -3202.268 -377.92926 -3205.6543 -376.26183 -3208.165 C -373.87633 -3211.7594 -368.43563 -3209.702 -368.7668 -3205.325 C -368.89717 -3203.5926 -370.13775 -3202.6316 -370.44685 -3201.065 C -371.17123 -3197.397 -366.58106 -3195.635 -364.52884 -3198.6418 C -363.1337 -3200.6867 -364.59717 -3203.559 -367.0531 -3203.7356 C -367.36957 -3203.7576 -367.9268 -3203.5936 -368.02455 -3204.0047 C -368.13495 -3204.4683 -367.61874 -3204.4967 -367.29808 -3204.4957 C -364.24287 -3204.483 -362.25163 -3201.182 -363.69933 -3198.4957 C -365.7568 -3194.676 -371.6233 -3196.247 -371.26374 -3200.696 C -371.07555 -3203.0227 -368.8467 -3204.236 -369.64783 -3206.818 C -370.53937 -3209.6883 -374.2548 -3210.155 -375.73406 -3207.553 C -376.90315 -3205.4966 -375.52063 -3202.8966 -373.1751 -3202.656 C -373.3433 -3203.0007 -373.69235 -3203.3077 -373.8732 -3203.6357 C -374.09606 -3204.0394 -373.61665 -3204.483 -373.2245 -3204.053 C -372.79765 -3203.584 -372.4507 -3202.9576 -372.0102 -3202.4855 C -371.90086 -3202.288 -371.95343 -3202.0818 -372.0754 -3201.903 C -372.64206 -3201.576 -373.20663 -3200.9253 -373.76174 -3200.6225 C -374.0803 -3200.449 -374.48086 -3200.734 -374.31054 -3201.0893 C -374.1928 -3201.3353 -373.3412 -3201.8463 -373.3328 -3201.9094 Z" fill="#5c76a1"/>
        </g>
        <g id="Group_10019">
          <title>clock</title>
          <g id="Graphic_10020">
            <path d="M -376.7812 -3194.006 C -378.12307 -3194.006 -379.2121 -3195.095 -379.2121 -3196.437 C -379.2121 -3197.7788 -378.12307 -3198.8678 -376.7812 -3198.8678 C -375.43936 -3198.8678 -374.35032 -3197.7788 -374.35032 -3196.437 C -374.35032 -3195.095 -375.43936 -3194.006 -376.7812 -3194.006 Z M -376.7812 -3194.249 C -375.57306 -3194.249 -374.5934 -3195.2288 -374.5934 -3196.437 C -374.5934 -3197.645 -375.57306 -3198.6247 -376.7812 -3198.6247 C -377.98937 -3198.6247 -378.969 -3197.645 -378.969 -3196.437 C -378.969 -3195.2288 -377.98937 -3194.249 -376.7812 -3194.249 Z M -375.8599 -3195.929 C -375.80643 -3195.89 -375.79184 -3195.8146 -375.83074 -3195.7587 C -375.86963 -3195.7052 -375.945 -3195.6906 -376.0009 -3195.7295 L -376.8517 -3196.3372 C -376.8736 -3196.3543 -376.8906 -3196.376 -376.8979 -3196.4053 L -377.26254 -3197.7423 C -377.27955 -3197.808 -377.2431 -3197.8736 -377.17745 -3197.8906 C -377.1118 -3197.9076 -377.0462 -3197.871 -377.02917 -3197.8055 L -376.6767 -3196.51 L -375.8599 -3195.9264 Z" fill="#5c75a0"/>
            <path d="M -376.7812 -3194.006 C -378.12307 -3194.006 -379.2121 -3195.095 -379.2121 -3196.437 C -379.2121 -3197.7788 -378.12307 -3198.8678 -376.7812 -3198.8678 C -375.43936 -3198.8678 -374.35032 -3197.7788 -374.35032 -3196.437 C -374.35032 -3195.095 -375.43936 -3194.006 -376.7812 -3194.006 Z M -376.7812 -3194.249 C -375.57306 -3194.249 -374.5934 -3195.2288 -374.5934 -3196.437 C -374.5934 -3197.645 -375.57306 -3198.6247 -376.7812 -3198.6247 C -377.98937 -3198.6247 -378.969 -3197.645 -378.969 -3196.437 C -378.969 -3195.2288 -377.98937 -3194.249 -376.7812 -3194.249 Z M -375.8599 -3195.929 C -375.80643 -3195.89 -375.79184 -3195.8146 -375.83074 -3195.7587 C -375.86963 -3195.7052 -375.945 -3195.6906 -376.0009 -3195.7295 L -376.8517 -3196.3372 C -376.8736 -3196.3543 -376.8906 -3196.376 -376.8979 -3196.4053 L -377.26254 -3197.7423 C -377.27955 -3197.808 -377.2431 -3197.8736 -377.17745 -3197.8906 C -377.1118 -3197.9076 -377.0462 -3197.871 -377.02917 -3197.8055 L -376.6767 -3196.51 L -375.8599 -3195.9264 Z" stroke="#5c76a1" stroke-linecap="butt" stroke-linejoin="round" stroke-width=".25"/>
          </g>
        </g>
      </g>
    </g>
  </g>
</svg>
