<?xml version="1.0" encoding="UTF-8" standalone="no"?>
<!DOCTYPE svg PUBLIC "-//W3C//DTD SVG 1.1//EN" "http://www.w3.org/Graphics/SVG/1.1/DTD/svg11.dtd">
<svg version="1.1" xmlns:xl="http://www.w3.org/1999/xlink" xmlns="http://www.w3.org/2000/svg" xmlns:dc="http://purl.org/dc/elements/1.1/" viewBox="-670.4827 -3200.8064 24.999996 25" width="24.999996" height="25">
  <defs/>
  <g id="SOURCES" fill="none" stroke-dasharray="none" fill-opacity="1" stroke="none" stroke-opacity="1">
    <title>SOURCES</title>
    <g id="SOURCES_Light">
      <title>Light</title>
      <g id="Group_9223">
        <g id="Graphic_9180">
          <circle cx="-657.9827" cy="-3188.3064" r="12.0000182688379" fill="white"/>
          <circle cx="-657.9827" cy="-3188.3064" r="12.0000182688379" stroke="black" stroke-linecap="round" stroke-linejoin="round" stroke-width=".25"/>
        </g>
        <g id="Group_9195">
          <title>play</title>
          <g id="Graphic_9196">
            <path d="M -661.7033 -3194.0177 L -661.7033 -3182.5854 C -661.7033 -3182.3046 -661.4771 -3182.0785 -661.1964 -3182.0785 C -661.095 -3182.0785 -660.9936 -3182.1097 -660.9156 -3182.1643 L -652.6027 -3187.8024 C -652.3297 -3187.9896 -652.2595 -3188.364 -652.4467 -3188.637 C -652.4857 -3188.6992 -652.5403 -3188.754 -652.6027 -3188.7928 L -660.9156 -3194.4388 C -661.1496 -3194.5947 -661.4615 -3194.5323 -661.6175 -3194.3062 C -661.6721 -3194.2204 -661.7033 -3194.127 -661.7033 -3194.0255 Z M -662.4831 -3194.0177 C -662.4831 -3194.275 -662.4051 -3194.5245 -662.26474 -3194.743 C -661.8592 -3195.3278 -661.0638 -3195.4837 -660.4711 -3195.086 L -652.15816 -3189.448 C -652.01 -3189.3465 -651.8852 -3189.2217 -651.79164 -3189.0813 C -651.3627 -3188.4497 -651.5265 -3187.592 -652.15816 -3187.163 L -660.4711 -3181.5248 C -660.6817 -3181.3766 -660.939 -3181.3064 -661.1964 -3181.3064 C -661.906 -3181.3064 -662.4831 -3181.8835 -662.4831 -3182.593 Z" fill="#4e8135"/>
          </g>
        </g>
      </g>
    </g>
  </g>
</svg>
