<svg height="25" viewBox="-726.933 -3695.231 25 25" width="25" xmlns="http://www.w3.org/2000/svg"><g fill="none"><circle cx="-714.433" cy="-3682.731" fill="#fff" r="12"/><circle cx="-714.433" cy="-3682.731" r="12" stroke="#000" stroke-linecap="round" stroke-linejoin="round" stroke-width=".25"/><path d="M-719.884-3687.133a7 7 0 1 1 5.444 11.402c-3.865 0-6.759-2.885-6.984-6.572a.386.386 0 0 1 .365-.412.386.386 0 0 1 .413.365c.202 3.275 2.916 5.841 6.214 5.841s6.222-2.784 6.222-6.222a6.227 6.227 0 0 0-6.23-6.222 6.225 6.225 0 0 0-4.86 2.333h2.138c.218 0 .389.171.389.389a.385.385 0 0 1-.389.389h-3.111a.385.385 0 0 1-.389-.389v-3.111c0-.218.171-.389.389-.389s.389.171.389.389z" fill="#5c76a1"/></g></svg>