<svg height="25" viewBox="-533.365 -3695.231 25 25" width="25" xmlns="http://www.w3.org/2000/svg"><g fill="none"><circle cx="-520.865" cy="-3682.731" fill="#fff" r="12"/><circle cx="-520.865" cy="-3682.731" r="12" stroke="#000" stroke-linecap="round" stroke-linejoin="round" stroke-width=".25"/><path d="m-524.74986-3677.8827c-1.45294-1.1653-2.33091-2.9369-2.33091-4.856 0-3.2866 2.56401-6.006 5.82727-6.2003.21756-.0155.3807-.194.3652-.4118-.01555-.2175-.19425-.3807-.4118-.3652-3.6751.2254-6.55764 3.279-6.55764 6.9773 0 2.1444.97899 4.1257 2.59508 5.4387h-2.20659c-.21755 0-.38849.171-.38849.3885s.17094.3885.38849.3885h3.10785c.2176 0 .3885-.171.3885-.3885v-3.1079c0-.2176-.1709-.3886-.3885-.3886-.2175 0-.38846.171-.38846.3886zm7.76971-9.7043c1.45295 1.1654 2.33091 2.937 2.33091 4.856 0 3.302-2.57956 6.0215-5.85836 6.208-.21755.0156-.3807.1943-.3652.412.01557.2174.1943.3805.4118.365 3.69063-.2176 6.58873-3.279 6.58873-6.9927 0-2.1443-.97898-4.1258-2.59508-5.4388h2.2066c.21755 0 .38848-.171.38848-.3885 0-.2176-.17093-.3885-.38848-.3885h-3.10789c-.21756 0-.38846.1709-.38846.3885v3.108c0 .2174.1709.3883.38846.3883.21754 0 .38849-.1709.38849-.3883v-2.137z" fill="#5c76a1"/></g></svg>