<?xml version="1.0" encoding="UTF-8" standalone="no"?>
<!DOCTYPE svg PUBLIC "-//W3C//DTD SVG 1.1//EN" "http://www.w3.org/Graphics/SVG/1.1/DTD/svg11.dtd">
<svg xmlns:dc="http://purl.org/dc/elements/1.1/" xmlns:xl="http://www.w3.org/1999/xlink" version="1.1" xmlns="http://www.w3.org/2000/svg" viewBox="-418.77414 -3215.705 25 25" width="25" height="25">
  <defs/>
  <g id="SOURCES" stroke-dasharray="none" stroke="none" stroke-opacity="1" fill="none" fill-opacity="1">
    <title>SOURCES</title>
    <g id="SOURCES_New">
      <title>New</title>
      <g id="Group_10433">
        <g id="Group_7160">
          <g id="Graphic_7162">
            <path d="M -398.11414 -3215.205 L -414.43414 -3215.205 C -416.5549 -3215.205 -418.27414 -3213.486 -418.27414 -3211.365 L -418.27414 -3195.045 C -418.27414 -3192.9243 -416.5549 -3191.205 -414.43414 -3191.205 L -398.11414 -3191.205 C -395.99336 -3191.205 -394.27414 -3192.9243 -394.27414 -3195.045 L -394.27414 -3211.365 C -394.27414 -3213.486 -395.99336 -3215.205 -398.11414 -3215.205 Z" fill="white"/>
            <path d="M -398.11414 -3215.205 L -414.43414 -3215.205 C -416.5549 -3215.205 -418.27414 -3213.486 -418.27414 -3211.365 L -418.27414 -3195.045 C -418.27414 -3192.9243 -416.5549 -3191.205 -414.43414 -3191.205 L -398.11414 -3191.205 C -395.99336 -3191.205 -394.27414 -3192.9243 -394.27414 -3195.045 L -394.27414 -3211.365 C -394.27414 -3213.486 -395.99336 -3215.205 -398.11414 -3215.205 Z" stroke="black" stroke-linecap="round" stroke-linejoin="round" stroke-width=".25"/>
          </g>
          <g id="Graphic_7161">
            <rect x="-418.27414" y="-3215.205" width="24" height="24" stroke="gray" stroke-opacity="0" stroke-linecap="round" stroke-linejoin="round" stroke-width=".25"/>
          </g>
        </g>
        <g id="Graphic_7157">
          <path d="M -399.0488 -3205.893 L -399.0488 -3210.0453 L -396.962 -3207.7945 L -396.32864 -3208.4776 L -399.4953 -3211.893 L -402.662 -3208.4776 L -402.02864 -3207.7945 L -399.9418 -3210.0453 L -399.9418 -3205.893 Z" fill="#5c76a2"/>
          <path d="M -399.0488 -3205.893 L -399.0488 -3210.0453 L -396.962 -3207.7945 L -396.32864 -3208.4776 L -399.4953 -3211.893 L -402.662 -3208.4776 L -402.02864 -3207.7945 L -399.9418 -3210.0453 L -399.9418 -3205.893 Z" stroke="#5a77a1" stroke-linecap="round" stroke-linejoin="round" stroke-width=".25"/>
        </g>
        <g id="Graphic_10008">
          <path d="M -409.3349 -3201.9094 C -412.30914 -3202.268 -413.92926 -3205.6543 -412.26183 -3208.165 C -409.87633 -3211.7594 -404.43563 -3209.702 -404.7668 -3205.325 C -404.89717 -3203.5926 -406.13775 -3202.6316 -406.44685 -3201.065 C -407.17123 -3197.397 -402.58106 -3195.635 -400.52884 -3198.6418 C -399.1337 -3200.6867 -400.59717 -3203.559 -403.0531 -3203.7356 C -403.36957 -3203.7576 -403.9268 -3203.5936 -404.02455 -3204.0047 C -404.13495 -3204.4683 -403.61874 -3204.4967 -403.29808 -3204.4957 C -400.24287 -3204.483 -398.25163 -3201.182 -399.69933 -3198.4957 C -401.7568 -3194.676 -407.6233 -3196.247 -407.26374 -3200.696 C -407.07555 -3203.0227 -404.8467 -3204.236 -405.64783 -3206.818 C -406.53937 -3209.6883 -410.2548 -3210.155 -411.73406 -3207.553 C -412.90315 -3205.4966 -411.52063 -3202.8966 -409.1751 -3202.656 C -409.3433 -3203.0007 -409.69235 -3203.3077 -409.8732 -3203.6357 C -410.09606 -3204.0394 -409.61665 -3204.483 -409.2245 -3204.053 C -408.79765 -3203.584 -408.4507 -3202.9576 -408.0102 -3202.4855 C -407.90086 -3202.288 -407.95343 -3202.0818 -408.0754 -3201.903 C -408.64206 -3201.576 -409.20663 -3200.9253 -409.76174 -3200.6225 C -410.0803 -3200.449 -410.48086 -3200.734 -410.31054 -3201.0893 C -410.1928 -3201.3353 -409.3412 -3201.8463 -409.3328 -3201.9094 Z" fill="#5c76a1"/>
        </g>
      </g>
    </g>
  </g>
</svg>
