<?xml version="1.0" encoding="UTF-8" standalone="no"?>
<!DOCTYPE svg PUBLIC "-//W3C//DTD SVG 1.1//EN" "http://www.w3.org/Graphics/SVG/1.1/DTD/svg11.dtd">
<svg version="1.1" xmlns="http://www.w3.org/2000/svg" xmlns:xl="http://www.w3.org/1999/xlink" xmlns:dc="http://purl.org/dc/elements/1.1/" viewBox="-649.5055 -3695.231 24.999996 25" width="24.999996" height="25">
  <defs/>
  <g id="SOURCES" stroke-dasharray="none" fill="none" stroke="none" fill-opacity="1" stroke-opacity="1">
    <title>SOURCES</title>
    <g id="SOURCES_Calque_2">
      <title>Calque 2</title>
      <g id="Graphic_9181">
        <circle cx="-637.0055" cy="-3682.731" r="12.000018268838" fill="white"/>
        <circle cx="-637.0055" cy="-3682.731" r="12.000018268838" stroke="black" stroke-linecap="round" stroke-linejoin="round" stroke-width=".25"/>
      </g>
      <g id="Group_9199">
        <title>next</title>
        <g id="Graphic_9200">
          <path d="M -638.56106 -3681.304 L -632.3466 -3677.0885 C -632.1133 -3676.933 -631.8022 -3676.995 -631.6466 -3677.2208 C -631.5922 -3677.3063 -631.56106 -3677.3997 -631.56106 -3677.5008 L -631.56106 -3688.903 C -631.56106 -3689.183 -631.7866 -3689.4085 -632.0666 -3689.4085 C -632.1677 -3689.4085 -632.2688 -3689.3774 -632.3466 -3689.323 L -638.56106 -3685.1074 L -638.56106 -3681.2963 Z M -638.56106 -3686.0563 L -632.78995 -3689.9763 C -632.57995 -3690.124 -632.3233 -3690.194 -632.0666 -3690.194 C -631.3588 -3690.194 -630.7833 -3689.6185 -630.7833 -3688.9108 L -630.7833 -3677.5085 C -630.7833 -3677.252 -630.86106 -3677.003 -631.00106 -3676.785 C -631.4055 -3676.202 -632.1988 -3676.0463 -632.78995 -3676.443 L -638.56106 -3680.363 L -638.56106 -3678.154 C -638.56106 -3677.0808 -639.4322 -3676.2097 -640.5055 -3676.2097 L -641.2833 -3676.2097 C -642.3566 -3676.2097 -643.2277 -3677.0808 -643.2277 -3678.154 L -643.2277 -3688.265 C -643.2277 -3689.3385 -642.3566 -3690.2097 -641.2833 -3690.2097 L -640.5055 -3690.2097 C -639.4322 -3690.2097 -638.56106 -3689.3385 -638.56106 -3688.265 Z M -640.5055 -3676.9874 C -639.85995 -3676.9874 -639.3388 -3677.5085 -639.3388 -3678.154 L -639.3388 -3688.265 C -639.3388 -3688.9108 -639.85995 -3689.432 -640.5055 -3689.432 L -641.2833 -3689.432 C -641.9288 -3689.432 -642.44995 -3688.9108 -642.44995 -3688.265 L -642.44995 -3678.154 C -642.44995 -3677.5085 -641.9288 -3676.9874 -641.2833 -3676.9874 Z" fill="#66727e"/>
        </g>
      </g>
    </g>
  </g>
</svg>
