<svg viewBox="-800.5 -3695.231 25 25" xmlns="http://www.w3.org/2000/svg"><g fill="none"><circle cx="-788" cy="-3682.731" fill="#fff" r="12"/><circle cx="-788" cy="-3682.731" r="12" stroke="#000" stroke-linecap="round" stroke-linejoin="round" stroke-width=".25"/><g fill="#4e8135"><path d="M-793.863-3688.442v11.432c0 .281.164.507.368.507a.296.296 0 0 0 .203-.086l6.036-5.638c.199-.187.25-.561.114-.834a.455.455 0 0 0-.114-.156l-6.036-5.646c-.17-.156-.396-.094-.51.132a.661.661 0 0 0-.061.281zm-.567 0c0-.258.057-.507.159-.725.294-.585.872-.741 1.302-.344l6.036 5.639c.108.101.198.226.266.366.312.632.193 1.49-.266 1.918l-6.036 5.639a.75.75 0 0 1-.526.218c-.516 0-.935-.577-.935-1.287z"/><path d="M-786.332-3688.442v11.432c0 .281.164.507.368.507a.295.295 0 0 0 .204-.086l6.036-5.638c.198-.187.249-.561.113-.834a.454.454 0 0 0-.113-.156l-6.036-5.646c-.17-.156-.396-.094-.51.132a.663.663 0 0 0-.062.281zm-.566 0c0-.258.056-.507.158-.725.295-.585.872-.741 1.303-.344l6.036 5.639c.107.101.198.226.266.366.311.632.192 1.49-.266 1.918l-6.036 5.639a.75.75 0 0 1-.527.218c-.515 0-.934-.577-.934-1.287z"/></g></g></svg>