<svg height="25" viewBox="-742.483 -3200.806 25 25" width="25" xmlns="http://www.w3.org/2000/svg"><g fill="none"><circle cx="-729.983" cy="-3188.306" fill="#fff" r="12"/><circle cx="-729.983" cy="-3188.306" r="12" stroke="#000" stroke-linecap="round" stroke-linejoin="round" stroke-width=".25"/><path d="M-733.483-3193.64c-.645 0-1.166.447-1.166 1v8.667c0 .553.52 1 1.166 1h.778c.646 0 1.167-.447 1.167-1v-8.667c0-.553-.521-1-1.167-1zm0-.666h.778c1.073 0 1.944.746 1.944 1.666v8.667c0 .92-.87 1.667-1.944 1.667h-.778c-1.073 0-1.944-.747-1.944-1.667v-8.667c0-.92.871-1.666 1.944-1.666zm6.222 0h.778c1.074 0 1.945.746 1.945 1.666v8.667c0 .92-.871 1.667-1.945 1.667h-.778c-1.073 0-1.944-.747-1.944-1.667v-8.667c0-.92.871-1.666 1.945-1.666zm0 .666c-.645 0-1.166.447-1.166 1v8.667c0 .553.521 1 1.167 1h.777c.646 0 1.167-.447 1.167-1v-8.667c0-.553-.521-1-1.167-1z" fill="#cf7738"/></g></svg>