<svg height="25" viewBox="-490.774 -3215.705 25 25" width="25" xmlns="http://www.w3.org/2000/svg"><g fill="none"><path d="m-470.11414-3215.205h-16.32c-2.12076 0-3.84 1.719-3.84 3.84v16.32c0 2.1207 1.71924 3.84 3.84 3.84h16.32c2.12078 0 3.84-1.7193 3.84-3.84v-16.32c0-2.121-1.71922-3.84-3.84-3.84z" fill="#fff"/><path d="m-470.11414-3215.205h-16.32c-2.12076 0-3.84 1.719-3.84 3.84v16.32c0 2.1207 1.71924 3.84 3.84 3.84h16.32c2.12078 0 3.84-1.7193 3.84-3.84v-16.32c0-2.121-1.71922-3.84-3.84-3.84z" stroke="#000" stroke-linecap="round" stroke-linejoin="round" stroke-width=".25"/><path d="m-490.27414-3215.205h24v24h-24z"/><path d="m-481.31226-3202.168c-2.97424-.3585-4.59439-3.745-2.92694-6.2555 2.3855-3.5945 7.8262-1.537 7.49505 2.8397-.13035 1.7328-1.37095 2.6936-1.68005 4.2601-.7244 3.6681 3.8658 5.4302 5.91803 2.4233 1.39514-2.0448-.06833-4.9171-2.52429-5.0936-.31644-.0222-.87364.1418-.97144-.2693-.1104-.4637.4058-.492.7265-.491 3.0552.0126 5.04645 3.3139 3.59874 6.0001-2.05748 3.8195-7.92401 2.2488-7.56444-2.2005.1882-2.3266 2.41704-3.5399 1.6159-6.122-.8915-2.8703-4.607-3.337-6.08624-.7349-1.1691 2.0566.21344 4.6566 2.55898 4.8972-.16824-.3449-.51724-.6518-.69809-.9799-.22289-.4037.25655-.8474.64868-.4174.42687.4689.77377 1.0957 1.21431 1.5677.10936.1976.05676.4036-.06519.5824-.56665.3269-1.13125.9776-1.68635 1.2806-.31857.1734-.71913-.1115-.5488-.467.11774-.246.96933-.757.97774-.82z" fill="#5c76a1"/></g></svg>