<svg height="25" viewBox="-800.5 -3695.231 25 25" width="25" xmlns="http://www.w3.org/2000/svg"><g fill="none"><circle cx="-788" cy="-3682.731" fill="#fff" r="12"/><circle cx="-788" cy="-3682.731" r="12" stroke="#000" stroke-linecap="round" stroke-linejoin="round" stroke-width=".25"/><g fill="#4e8135"><path d="m-793.8634-3688.442v11.432c0 .281.1642.507.368.507.07365 0 .1473-.031.2039-.086l6.0359-5.638c.1982-.187.2492-.5614.1133-.8344-.0283-.0624-.068-.1169-.1133-.1559l-6.0359-5.646c-.1699-.156-.3964-.0937-.5096.1326-.0397.0857-.0623.1793-.0623.2807zm-.5662 0c0-.2575.0566-.507.1585-.7254.29445-.5849.872-.7409 1.3023-.3432l6.036 5.6382c.1076.1014.1982.2262.2661.3664.3114.632.1925 1.4896-.2661 1.9185l-6.036 5.6382c-.15285.1483-.3397.2183-.5266.2183-.5152 0-.9342-.577-.9342-1.2867z"/><path d="m-786.332-3688.442v11.432c0 .281.1642.507.3681.507.0736 0 .1472-.031.2038-.086l6.036-5.638c.19815-.187.2491-.5614.1132-.8344-.0283-.0624-.0679-.1169-.1132-.1559l-6.036-5.646c-.16985-.156-.3963-.0937-.5096.1326-.0396.0857-.0623.1793-.0623.2807zm-.5662 0c0-.2575.0566-.507.1585-.7254.2945-.5849.872-.7409 1.3024-.3432l6.0359 5.6382c.1076.1014.1982.2262.2661.3664.3115.632.1926 1.4896-.2661 1.9185l-6.0359 5.6382c-.1529.1483-.3398.2183-.5266.2183-.5153 0-.9343-.577-.9343-1.2867z"/></g></g></svg>