<?xml version="1.0" encoding="UTF-8" standalone="no"?>
<!DOCTYPE svg PUBLIC "-//W3C//DTD SVG 1.1//EN" "http://www.w3.org/Graphics/SVG/1.1/DTD/svg11.dtd">
<svg version="1.1" xmlns="http://www.w3.org/2000/svg" xmlns:xl="http://www.w3.org/1999/xlink" xmlns:dc="http://purl.org/dc/elements/1.1/" viewBox="-610.792 -3695.231 24.999996 25" width="24.999996" height="25">
  <defs/>
  <g id="SOURCES" stroke-dasharray="none" fill="none" stroke="none" fill-opacity="1" stroke-opacity="1">
    <title>SOURCES</title>
    <g id="SOURCES_Calque_2">
      <title>Calque 2</title>
      <g id="Graphic_9182">
        <circle cx="-598.292" cy="-3682.731" r="12.000018268838" fill="white"/>
        <circle cx="-598.292" cy="-3682.731" r="12.000018268838" stroke="black" stroke-linecap="round" stroke-linejoin="round" stroke-width=".25"/>
      </g>
      <g id="Group_9197">
        <title>next</title>
        <g id="Graphic_9198">
          <path d="M -596.73645 -3684.6365 L -602.9509 -3688.852 C -603.1842 -3689.0076 -603.4953 -3688.9454 -603.6509 -3688.72 C -603.7053 -3688.6343 -603.73645 -3688.541 -603.73645 -3688.44 L -603.73645 -3677.0376 C -603.73645 -3676.7576 -603.5109 -3676.532 -603.2309 -3676.532 C -603.1298 -3676.532 -603.0287 -3676.563 -602.9509 -3676.6176 L -596.73645 -3680.833 L -596.73645 -3684.6443 Z M -596.73645 -3679.8843 L -602.50756 -3675.9643 C -602.71756 -3675.8165 -602.9742 -3675.7465 -603.2309 -3675.7465 C -603.9387 -3675.7465 -604.5142 -3676.322 -604.5142 -3677.03 L -604.5142 -3688.432 C -604.5142 -3688.6888 -604.43645 -3688.9376 -604.29645 -3689.1554 C -603.892 -3689.7388 -603.0987 -3689.8943 -602.50756 -3689.4976 L -596.73645 -3685.5776 L -596.73645 -3687.7865 C -596.73645 -3688.86 -595.8653 -3689.731 -594.792 -3689.731 L -594.0142 -3689.731 C -592.9409 -3689.731 -592.0698 -3688.86 -592.0698 -3687.7865 L -592.0698 -3677.6754 C -592.0698 -3676.602 -592.9409 -3675.731 -594.0142 -3675.731 L -594.792 -3675.731 C -595.8653 -3675.731 -596.73645 -3676.602 -596.73645 -3677.6754 Z M -594.792 -3688.953 C -595.43756 -3688.953 -595.9587 -3688.432 -595.9587 -3687.7865 L -595.9587 -3677.6754 C -595.9587 -3677.03 -595.43756 -3676.5088 -594.792 -3676.5088 L -594.0142 -3676.5088 C -593.3687 -3676.5088 -592.84756 -3677.03 -592.84756 -3677.6754 L -592.84756 -3687.7865 C -592.84756 -3688.432 -593.3687 -3688.953 -594.0142 -3688.953 Z" fill="#66727e"/>
        </g>
      </g>
    </g>
  </g>
</svg>
