<svg height="25" viewBox="-742.483 -3200.806 25 25" width="25" xmlns="http://www.w3.org/2000/svg"><g fill="none"><circle cx="-729.983" cy="-3188.306" fill="#fff" r="12"/><circle cx="-729.983" cy="-3188.306" r="12" stroke="#000" stroke-linecap="round" stroke-linejoin="round" stroke-width=".25"/><path d="m-733.4827-3193.6398c-.64555 0-1.1667.4468-1.1667 1v8.6668c0 .5532.52115 1 1.1667 1h.7778c.6455 0 1.16665-.4468 1.16665-1v-8.6668c0-.5532-.52115-1-1.16665-1zm0-.6666h.7778c1.0733 0 1.9444.7466 1.9444 1.6666v8.6668c0 .92-.8711 1.6666-1.9444 1.6666h-.7778c-1.0733 0-1.9444-.7466-1.9444-1.6666v-8.6668c0-.92.8711-1.6666 1.9444-1.6666zm6.2222 0h.7778c1.0733 0 1.94445.7466 1.94445 1.6666v8.6668c0 .92-.87115 1.6666-1.94445 1.6666h-.7778c-1.0733 0-1.9444-.7466-1.9444-1.6666v-8.6668c0-.92.8711-1.6666 1.9444-1.6666zm0 .6666c-.6455 0-1.16664.4468-1.16664 1v8.6668c0 .5532.52114 1 1.16664 1h.7778c.64556 0 1.1667-.4468 1.1667-1v-8.6668c0-.5532-.52114-1-1.1667-1z" fill="#cf7738"/></g></svg>