<?xml version="1.0" encoding="UTF-8" standalone="no"?>
<!DOCTYPE svg PUBLIC "-//W3C//DTD SVG 1.1//EN" "http://www.w3.org/Graphics/SVG/1.1/DTD/svg11.dtd">
<svg version="1.1" xmlns="http://www.w3.org/2000/svg" xmlns:xl="http://www.w3.org/1999/xlink" xmlns:dc="http://purl.org/dc/elements/1.1/" viewBox="-533.365 -3695.231 24.999996 25" width="24.999996" height="25">
  <defs/>
  <g id="SOURCES" stroke-dasharray="none" fill="none" stroke="none" fill-opacity="1" stroke-opacity="1">
    <title>SOURCES</title>
    <g id="SOURCES_Calque_2">
      <title>Calque 2</title>
      <g id="Graphic_9184">
        <circle cx="-520.865" cy="-3682.731" r="12.000018268838" fill="white"/>
        <circle cx="-520.865" cy="-3682.731" r="12.000018268838" stroke="black" stroke-linecap="round" stroke-linejoin="round" stroke-width=".25"/>
      </g>
      <g id="Group_9203">
        <title>refresh-double</title>
        <g id="Graphic_9204">
          <path d="M -524.74986 -3677.8827 C -526.2028 -3679.048 -527.08077 -3680.8196 -527.08077 -3682.7387 C -527.08077 -3686.0253 -524.51676 -3688.7447 -521.2535 -3688.939 C -521.03594 -3688.9545 -520.8728 -3689.133 -520.8883 -3689.3508 C -520.90385 -3689.5683 -521.08255 -3689.7315 -521.3001 -3689.716 C -524.9752 -3689.4906 -527.85774 -3686.437 -527.85774 -3682.7387 C -527.85774 -3680.5943 -526.87875 -3678.613 -525.26266 -3677.3 L -527.46925 -3677.3 C -527.6868 -3677.3 -527.85774 -3677.129 -527.85774 -3676.9115 C -527.85774 -3676.694 -527.6868 -3676.523 -527.46925 -3676.523 L -524.3614 -3676.523 C -524.1438 -3676.523 -523.9729 -3676.694 -523.9729 -3676.9115 L -523.9729 -3680.0194 C -523.9729 -3680.237 -524.1438 -3680.408 -524.3614 -3680.408 C -524.5789 -3680.408 -524.74986 -3680.237 -524.74986 -3680.0194 Z M -516.98015 -3687.587 C -515.5272 -3686.4216 -514.64924 -3684.65 -514.64924 -3682.731 C -514.64924 -3679.429 -517.2288 -3676.7095 -520.5076 -3676.523 C -520.72515 -3676.5074 -520.8883 -3676.3287 -520.8728 -3676.111 C -520.85723 -3675.8936 -520.6785 -3675.7305 -520.461 -3675.746 C -516.77037 -3675.9636 -513.87227 -3679.025 -513.87227 -3682.7387 C -513.87227 -3684.883 -514.85125 -3686.8645 -516.46735 -3688.1775 L -514.26075 -3688.1775 C -514.0432 -3688.1775 -513.87227 -3688.3485 -513.87227 -3688.566 C -513.87227 -3688.7836 -514.0432 -3688.9545 -514.26075 -3688.9545 L -517.36864 -3688.9545 C -517.5862 -3688.9545 -517.7571 -3688.7836 -517.7571 -3688.566 L -517.7571 -3685.458 C -517.7571 -3685.2406 -517.5862 -3685.0697 -517.36864 -3685.0697 C -517.1511 -3685.0697 -516.98015 -3685.2406 -516.98015 -3685.458 L -516.98015 -3687.595 Z" fill="#5c76a1"/>
        </g>
      </g>
    </g>
  </g>
</svg>
