<svg xmlns="http://www.w3.org/2000/svg" viewBox="-610.792 -3695.231 25 25"><g fill="none"><circle cx="-598.292" cy="-3682.731" r="12" fill="#fff"/><circle cx="-598.292" cy="-3682.731" r="12" stroke="#000" stroke-linecap="round" stroke-linejoin="round" stroke-width=".25"/><path d="m-596.736-3684.637-6.215-4.215a.508.508 0 0 0-.7.132.516.516 0 0 0-.085.28v11.402a.505.505 0 0 0 .785.42l6.215-4.215v-3.811zm0 4.753-5.772 3.92c-.21.148-.466.217-.723.217a1.285 1.285 0 0 1-1.283-1.283v-11.402c0-.257.078-.506.218-.723a1.295 1.295 0 0 1 1.788-.343l5.772 3.92v-2.209c0-1.073.87-1.944 1.944-1.944h.778c1.073 0 1.944.871 1.944 1.945v10.11a1.945 1.945 0 0 1-1.944 1.945h-.778a1.945 1.945 0 0 1-1.944-1.944zm1.944-9.069c-.646 0-1.167.521-1.167 1.166v10.112c0 .645.521 1.166 1.167 1.166h.778c.645 0 1.166-.521 1.166-1.166v-10.111c0-.646-.52-1.167-1.166-1.167z" fill="#66727e"/></g></svg>