<svg height="25" viewBox="-454.774 -3215.705 25 25" width="25" xmlns="http://www.w3.org/2000/svg"><g fill="none"><path d="m-434.11414-3215.205h-16.32c-2.12076 0-3.84 1.719-3.84 3.84v16.32c0 2.1207 1.71924 3.84 3.84 3.84h16.32c2.12078 0 3.84-1.7193 3.84-3.84v-16.32c0-2.121-1.71922-3.84-3.84-3.84z" fill="#fff"/><path d="m-434.11414-3215.205h-16.32c-2.12076 0-3.84 1.719-3.84 3.84v16.32c0 2.1207 1.71924 3.84 3.84 3.84h16.32c2.12078 0 3.84-1.7193 3.84-3.84v-16.32c0-2.121-1.71922-3.84-3.84-3.84z" stroke="#000" stroke-linecap="round" stroke-linejoin="round" stroke-width=".25"/><path d="m-454.27414-3215.205h24v24h-24z"/><path d="m-436.1085-3211.893v4.1522l-2.0868-2.2507-.63334.6831 3.16664 3.4154 3.1667-3.4154-.63334-.6831-2.08686 2.2507v-4.1522z" fill="#508737"/><path d="m-436.1085-3211.893v4.1522l-2.0868-2.2507-.63334.6831 3.16664 3.4154 3.1667-3.4154-.63334-.6831-2.08686 2.2507v-4.1522z" stroke="#518737" stroke-linecap="round" stroke-linejoin="round" stroke-width=".25"/><path d="m-445.3349-3201.9094c-2.97424-.3586-4.59436-3.7449-2.92693-6.2556 2.3855-3.5944 7.8262-1.537 7.49503 2.84-.13037 1.7324-1.37095 2.6934-1.68005 4.26-.72435 3.668 3.86579 5.43 5.91801 2.4232 1.39514-2.0449-.06836-4.9172-2.52426-5.0938-.31647-.022-.8737.142-.97145-.2691-.1104-.4636.40581-.492.72645-.491 3.05523.0127 5.04647 3.3137 3.59877 6-2.05747 3.8197-7.92397 2.2487-7.56441-2.2003.18819-2.3267 2.41704-3.54 1.61591-6.122-.89154-2.8703-4.60697-3.337-6.08623-.735-1.16909 2.0564.21343 4.6564 2.55896 4.897-.1682-.3447-.51725-.6517-.6981-.9797-.22286-.4037.25655-.8473.6487-.4173.42685.469.7738 1.0954 1.2143 1.5675.10934.1975.0568.4037-.0652.5825-.56666.327-1.13123.9777-1.68634 1.2805-.31856.1735-.71912-.1115-.5488-.4668.11774-.246.96934-.757.97774-.8201z" fill="#5c76a1"/></g></svg>