<svg height="25" viewBox="-649.505 -3695.231 25 25" width="25" xmlns="http://www.w3.org/2000/svg"><g fill="none"><circle cx="-637.005" cy="-3682.731" fill="#fff" r="12"/><circle cx="-637.005" cy="-3682.731" r="12" stroke="#000" stroke-linecap="round" stroke-linejoin="round" stroke-width=".25"/><path d="M-638.561-3681.304l6.214 4.215a.508.508 0 0 0 .7-.132.516.516 0 0 0 .086-.28v-11.402a.504.504 0 0 0-.786-.42l-6.214 4.216v3.81zm0-4.752l5.771-3.92c.21-.148.467-.218.723-.218.708 0 1.284.575 1.284 1.283v11.402c0 .257-.078.506-.218.724a1.296 1.296 0 0 1-1.789.342l-5.771-3.92v2.209a1.945 1.945 0 0 1-1.944 1.944h-.778a1.945 1.945 0 0 1-1.945-1.944v-10.111c0-1.074.871-1.945 1.945-1.945h.778c1.073 0 1.944.871 1.944 1.945zm-1.944 9.069c.645 0 1.166-.521 1.166-1.167v-10.111c0-.646-.52-1.167-1.166-1.167h-.778c-.646 0-1.167.521-1.167 1.167v10.111c0 .645.521 1.167 1.167 1.167z" fill="#66727e"/></g></svg>