<svg viewBox="-346.774 -3215.705 25 25" xmlns="http://www.w3.org/2000/svg"><g fill="none"><path d="M-326.114-3215.205h-16.32a3.84 3.84 0 0 0-3.84 3.84v16.32a3.84 3.84 0 0 0 3.84 3.84h16.32a3.84 3.84 0 0 0 3.84-3.84v-16.32a3.84 3.84 0 0 0-3.84-3.84z" fill="#fff"/><path d="M-326.114-3215.205h-16.32a3.84 3.84 0 0 0-3.84 3.84v16.32a3.84 3.84 0 0 0 3.84 3.84h16.32a3.84 3.84 0 0 0 3.84-3.84v-16.32a3.84 3.84 0 0 0-3.84-3.84z" stroke="#000" stroke-linecap="round" stroke-linejoin="round" stroke-width=".25"/><path d="M-346.274-3215.205h24v24h-24z"/><path d="M-324.495-3208.798h-2.572v2.572h-.857v-2.572h-2.571v-.857h2.571v-2.571h.857v2.571h2.572z" fill="#cf7837"/><path d="M-324.495-3208.798h-2.572v2.572h-.857v-2.572h-2.571v-.857h2.571v-2.571h.857v2.571h2.572z" stroke="#cf7839" stroke-linecap="round" stroke-linejoin="round" stroke-width=".25"/><path d="M-337.335-3201.91c-2.974-.358-4.594-3.744-2.927-6.255 2.386-3.594 7.826-1.537 7.495 2.84-.13 1.732-1.37 2.693-1.68 4.26-.724 3.668 3.866 5.43 5.918 2.423 1.395-2.045-.068-4.917-2.524-5.094-.317-.022-.874.142-.972-.269-.11-.463.406-.492.727-.49 3.055.012 5.046 3.313 3.599 6-2.058 3.819-7.924 2.248-7.565-2.201.188-2.327 2.417-3.54 1.616-6.122-.891-2.87-4.607-3.337-6.086-.735-1.17 2.056.213 4.656 2.559 4.897-.168-.345-.517-.652-.698-.98-.223-.403.256-.847.649-.417.426.469.773 1.095 1.214 1.568.11.197.057.403-.065.582-.567.327-1.132.978-1.687 1.28-.318.174-.719-.111-.549-.466.118-.246.97-.757.978-.82z" fill="#5c76a1"/></g></svg>