<?xml version="1.0" encoding="UTF-8" standalone="no"?>
<!DOCTYPE svg PUBLIC "-//W3C//DTD SVG 1.1//EN" "http://www.w3.org/Graphics/SVG/1.1/DTD/svg11.dtd">
<svg xmlns:dc="http://purl.org/dc/elements/1.1/" xmlns:xl="http://www.w3.org/1999/xlink" version="1.1" xmlns="http://www.w3.org/2000/svg" viewBox="-490.77414 -3215.705 25 25" width="25" height="25">
  <defs/>
  <g id="SOURCES" stroke-dasharray="none" stroke="none" stroke-opacity="1" fill="none" fill-opacity="1">
    <title>SOURCES</title>
    <g id="SOURCES_New">
      <title>New</title>
      <g id="Group_10431">
        <g id="Group_7131">
          <g id="Graphic_7133">
            <path d="M -470.11414 -3215.205 L -486.43414 -3215.205 C -488.5549 -3215.205 -490.27414 -3213.486 -490.27414 -3211.365 L -490.27414 -3195.045 C -490.27414 -3192.9243 -488.5549 -3191.205 -486.43414 -3191.205 L -470.11414 -3191.205 C -467.99336 -3191.205 -466.27414 -3192.9243 -466.27414 -3195.045 L -466.27414 -3211.365 C -466.27414 -3213.486 -467.99336 -3215.205 -470.11414 -3215.205 Z" fill="white"/>
            <path d="M -470.11414 -3215.205 L -486.43414 -3215.205 C -488.5549 -3215.205 -490.27414 -3213.486 -490.27414 -3211.365 L -490.27414 -3195.045 C -490.27414 -3192.9243 -488.5549 -3191.205 -486.43414 -3191.205 L -470.11414 -3191.205 C -467.99336 -3191.205 -466.27414 -3192.9243 -466.27414 -3195.045 L -466.27414 -3211.365 C -466.27414 -3213.486 -467.99336 -3215.205 -470.11414 -3215.205 Z" stroke="black" stroke-linecap="round" stroke-linejoin="round" stroke-width=".25"/>
          </g>
          <g id="Graphic_7132">
            <rect x="-490.27414" y="-3215.205" width="24" height="24" stroke="gray" stroke-opacity="0" stroke-linecap="round" stroke-linejoin="round" stroke-width=".25"/>
          </g>
        </g>
        <g id="Graphic_10006">
          <path d="M -481.31226 -3202.168 C -484.2865 -3202.5265 -485.90665 -3205.913 -484.2392 -3208.4235 C -481.8537 -3212.018 -476.413 -3209.9605 -476.74415 -3205.5838 C -476.8745 -3203.851 -478.1151 -3202.8902 -478.4242 -3201.3237 C -479.1486 -3197.6556 -474.5584 -3195.8935 -472.50617 -3198.9004 C -471.11103 -3200.9452 -472.5745 -3203.8175 -475.03046 -3203.994 C -475.3469 -3204.0162 -475.9041 -3203.8522 -476.0019 -3204.2633 C -476.1123 -3204.727 -475.5961 -3204.7553 -475.2754 -3204.7543 C -472.2202 -3204.7417 -470.22895 -3201.4404 -471.67666 -3198.7542 C -473.73414 -3194.9347 -479.60067 -3196.5054 -479.2411 -3200.9547 C -479.0529 -3203.2813 -476.82406 -3204.4946 -477.6252 -3207.0767 C -478.5167 -3209.947 -482.2322 -3210.4137 -483.71144 -3207.8116 C -484.88054 -3205.755 -483.498 -3203.155 -481.15246 -3202.9144 C -481.3207 -3203.2593 -481.6697 -3203.5662 -481.85055 -3203.8943 C -482.07344 -3204.298 -481.594 -3204.7417 -481.20187 -3204.3117 C -480.775 -3203.8428 -480.4281 -3203.216 -479.98756 -3202.744 C -479.8782 -3202.5464 -479.9308 -3202.3404 -480.05275 -3202.1616 C -480.6194 -3201.8347 -481.184 -3201.184 -481.7391 -3200.881 C -482.05767 -3200.7076 -482.45823 -3200.9925 -482.2879 -3201.348 C -482.17016 -3201.594 -481.31857 -3202.105 -481.31016 -3202.168 Z" fill="#5c76a1"/>
        </g>
      </g>
    </g>
  </g>
</svg>
