<svg height="25" viewBox="-649.505 -3695.231 25 25" width="25" xmlns="http://www.w3.org/2000/svg"><g fill="none"><circle cx="-637.005" cy="-3682.731" fill="#fff" r="12"/><circle cx="-637.005" cy="-3682.731" r="12" stroke="#000" stroke-linecap="round" stroke-linejoin="round" stroke-width=".25"/><path d="m-638.56106-3681.304 6.21446 4.2155c.2333.1555.5444.0935.7-.1323.0544-.0855.08554-.1789.08554-.28v-11.4022c0-.28-.22554-.5055-.50554-.5055-.1011 0-.2022.0311-.28.0855l-6.21446 4.2156v3.8111zm0-4.7523 5.77111-3.92c.21-.1477.46665-.2177.72335-.2177.7078 0 1.2833.5755 1.2833 1.2832v11.4023c0 .2565-.07776.5055-.21776.7235-.40444.583-1.19774.7387-1.78889.342l-5.77111-3.92v2.209c0 1.0732-.87114 1.9443-1.94444 1.9443h-.7778c-1.0733 0-1.9444-.8711-1.9444-1.9443v-10.111c0-1.0735.8711-1.9447 1.9444-1.9447h.7778c1.0733 0 1.94444.8712 1.94444 1.9447zm-1.94444 9.0689c.64555 0 1.1667-.5211 1.1667-1.1666v-10.111c0-.6458-.52115-1.167-1.1667-1.167h-.7778c-.6455 0-1.16665.5212-1.16665 1.167v10.111c0 .6455.52115 1.1666 1.16665 1.1666z" fill="#66727e"/></g></svg>