<svg xmlns="http://www.w3.org/2000/svg" viewBox="-950.181 -4079.326 25 25"><g fill="none"><circle cx="-937.681" cy="-4066.826" r="12" fill="#fff"/><circle cx="-937.681" cy="-4066.826" r="12" stroke="#000" stroke-linecap="round" stroke-linejoin="round" stroke-width=".25"/><path d="m-933.531-4071.699 1.187-.242a1.2 1.2 0 0 1 1.28.575l.623 1.08a1.2 1.2 0 0 1-.141 1.396l-.803.906a6.43 6.43 0 0 1 0 2.316l.803.906c.342.387.4.949.141 1.396l-.623 1.08a1.2 1.2 0 0 1-1.28.576l-1.187-.243a6.395 6.395 0 0 1-2.005 1.159l-.383 1.148a1.2 1.2 0 0 1-1.138.82h-1.247a1.2 1.2 0 0 1-1.139-.82l-.382-1.148a6.395 6.395 0 0 1-2.005-1.16l-1.187.244a1.2 1.2 0 0 1-1.28-.576l-.624-1.08a1.2 1.2 0 0 1 .142-1.396l.803-.906a6.433 6.433 0 0 1 0-2.316l-.803-.906a1.2 1.2 0 0 1-.142-1.396l.624-1.08a1.2 1.2 0 0 1 1.28-.575l1.187.242a6.397 6.397 0 0 1 2.005-1.159l.383-1.147a1.2 1.2 0 0 1 1.138-.821h1.247a1.2 1.2 0 0 1 1.138.82l.383 1.148a6.397 6.397 0 0 1 2.005 1.16zm-2.444-.462a.4.4 0 0 1-.257-.255l-.446-1.336a.4.4 0 0 0-.38-.274h-1.246a.4.4 0 0 0-.38.274l-.445 1.336a.4.4 0 0 1-.258.255 5.597 5.597 0 0 0-2.06 1.19.4.4 0 0 1-.349.096l-1.382-.283a.4.4 0 0 0-.426.192l-.624 1.08a.4.4 0 0 0 .047.465l.935 1.055a.4.4 0 0 1 .092.35 5.627 5.627 0 0 0 0 2.38.4.4 0 0 1-.092.35l-.935 1.055a.4.4 0 0 0-.047.465l.624 1.08a.4.4 0 0 0 .426.192l1.382-.283a.4.4 0 0 1 .35.096 5.598 5.598 0 0 0 2.06 1.19.4.4 0 0 1 .257.255l.446 1.336a.4.4 0 0 0 .379.274h1.247a.4.4 0 0 0 .38-.273l.445-1.337a.4.4 0 0 1 .257-.255 5.598 5.598 0 0 0 2.06-1.19.4.4 0 0 1 .35-.096l1.381.283a.4.4 0 0 0 .427-.192l.623-1.08a.4.4 0 0 0-.047-.465l-.935-1.055a.4.4 0 0 1-.091-.35 5.621 5.621 0 0 0 0-2.38.4.4 0 0 1 .091-.35l.935-1.055a.4.4 0 0 0 .047-.465l-.623-1.08a.4.4 0 0 0-.427-.192l-1.382.283a.4.4 0 0 1-.349-.096 5.596 5.596 0 0 0-2.06-1.19zm-1.706 8.535a3.2 3.2 0 1 1 0-6.4 3.2 3.2 0 0 1 0 6.4zm0-.8a2.4 2.4 0 1 0 0-4.8 2.4 2.4 0 0 0 0 4.8z" fill="#66727e"/></g></svg>