<svg height="25" viewBox="-950.181 -4079.326 25 25" width="25" xmlns="http://www.w3.org/2000/svg"><g fill="none"><circle cx="-937.681" cy="-4066.826" fill="#fff" r="12"/><circle cx="-937.681" cy="-4066.826" r="12" stroke="#000" stroke-linecap="round" stroke-linejoin="round" stroke-width=".25"/><path d="m-933.531-4071.6986 1.187-.2429c.5061-.1035 1.0216.1285 1.2798.5755l.6234 1.08c.2583.447.2013 1.0096-.1413 1.396l-.8032.906c.0694.3793.1046.7665.1046 1.158 0 .3916-.0352.779-.1046 1.1583l.8032.9057c.3426.3865.3996.949.1413 1.396l-.6234 1.08c-.2582.447-.7737.679-1.2798.5756l-1.187-.243c-.5919.5044-1.271.8984-2.0053 1.1594l-.3825 1.1475c-.1634.49-.6219.8205-1.1385.8205h-1.2467c-.5166 0-.9751-.3305-1.1385-.8205l-.3825-1.1475c-.7343-.261-1.4134-.655-2.0053-1.1594l-1.1871.243c-.506.1034-1.0215-.1286-1.2798-.5756l-.6234-1.08c-.2582-.447-.2013-1.0095.1414-1.396l.8032-.9057c-.0694-.3793-.1047-.7667-.1047-1.1583 0-.3915.0353-.7787.1047-1.158l-.8032-.906c-.3427-.3864-.3996-.949-.1414-1.396l.6234-1.08c.2583-.447.7738-.679 1.2798-.5755l1.1871.2429c.5919-.5044 1.271-.8981 2.0053-1.1592l.3825-1.1476c.1634-.49.6219-.8206 1.1385-.8206h1.2467c.5166 0 .9751.3306 1.1385.8206l.3825 1.1476c.7343.2611 1.4134.6548 2.0053 1.1592zm-2.4436-.4628c-.1216-.0389-.2173-.1336-.2577-.2546l-.4455-1.3364c-.0544-.1636-.2073-.2736-.3795-.2736h-1.2467c-.1722 0-.3251.11-.3795.2736l-.4455 1.3364c-.0404.121-.1361.2157-.2578.2546-.7647.2444-1.4665.6514-2.0596 1.1904-.0944.086-.2242.1217-.3493.096l-1.382-.2827c-.1687-.0343-.3406.0427-.4266.1917l-.6234 1.08c-.0861.149-.0671.3365.0471.4653l.935 1.0544c.0846.0953.1186.2253.0916.35-.0839.388-.1267.7863-.1267 1.1903s.0428.8024.1267 1.1904c.027.1246-.007.2546-.0916.35l-.935 1.0546c-.1142.1286-.1332.316-.0471.465l.6234 1.08c.086.149.2579.2263.4266.192l1.382-.283c.1251-.0256.2549.01.3493.096.5931.539 1.2949.946 2.0596 1.1905.1217.0389.2174.1335.2578.2545l.4455 1.3365c.0544.1635.2073.2735.3795.2735h1.2467c.1722 0 .3251-.11.3795-.2735l.4455-1.3365c.0404-.121.1361-.2156.2577-.2545.7648-.2445 1.4666-.6515 2.0597-1.1905.0944-.086.2242-.1216.3492-.096l1.3821.283c.1687.0343.3405-.043.4266-.192l.6234-1.08c.0861-.149.0671-.3364-.0471-.465l-.935-1.0546c-.0846-.0954-.1186-.2254-.0917-.35.084-.388.1267-.7864.1267-1.1904s-.0427-.8023-.1267-1.1903c-.0269-.1247.0071-.2547.0917-.35l.935-1.0544c.1142-.1288.1332-.3163.0471-.4653l-.6234-1.08c-.0861-.149-.2579-.226-.4266-.1917l-1.3821.2827c-.125.0257-.2548-.01-.3492-.096-.5931-.539-1.2949-.946-2.0597-1.1904zm-1.7061 8.5354c-1.7673 0-3.2-1.4326-3.2-3.2 0-1.7673 1.4327-3.2 3.2-3.2 1.7674 0 3.2 1.4327 3.2 3.2 0 1.7674-1.4326 3.2-3.2 3.2zm0-.8c1.3255 0 2.4-1.0745 2.4-2.4 0-1.3254-1.0745-2.4-2.4-2.4-1.3254 0-2.4 1.0746-2.4 2.4 0 1.3255 1.0746 2.4 2.4 2.4z" fill="#66727e"/></g></svg>