<?xml version="1.0" encoding="UTF-8" standalone="no"?>
<!DOCTYPE svg PUBLIC "-//W3C//DTD SVG 1.1//EN" "http://www.w3.org/Graphics/SVG/1.1/DTD/svg11.dtd">
<svg version="1.1" xmlns="http://www.w3.org/2000/svg" xmlns:xl="http://www.w3.org/1999/xlink" xmlns:dc="http://purl.org/dc/elements/1.1/" viewBox="-950.1807 -4079.326 25.000035 25" width="25.000035" height="25">
  <defs/>
  <g id="SOURCES" stroke-dasharray="none" fill="none" stroke="none" fill-opacity="1" stroke-opacity="1">
    <title>SOURCES</title>
    <g id="SOURCES_Calque_2">
      <title>Calque 2</title>
      <g id="Graphic_8734">
        <circle cx="-937.6807" cy="-4066.826" r="12.0000278184555" fill="white"/>
        <circle cx="-937.6807" cy="-4066.826" r="12.0000278184555" stroke="black" stroke-linecap="round" stroke-linejoin="round" stroke-width=".2500004"/>
      </g>
      <g id="Graphic_8735">
        <path d="M -933.531 -4071.6986 L -932.344 -4071.9415 C -931.8379 -4072.045 -931.3224 -4071.813 -931.0642 -4071.366 L -930.4408 -4070.286 C -930.1825 -4069.839 -930.2395 -4069.2764 -930.5821 -4068.89 L -931.3853 -4067.984 C -931.3159 -4067.6047 -931.2807 -4067.2175 -931.2807 -4066.826 C -931.2807 -4066.4344 -931.3159 -4066.047 -931.3853 -4065.6677 L -930.5821 -4064.762 C -930.2395 -4064.3755 -930.1825 -4063.813 -930.4408 -4063.366 L -931.0642 -4062.286 C -931.3224 -4061.839 -931.8379 -4061.607 -932.344 -4061.7104 L -933.531 -4061.9534 C -934.1229 -4061.449 -934.802 -4061.055 -935.5363 -4060.794 L -935.9188 -4059.6465 C -936.0822 -4059.1565 -936.5407 -4058.826 -937.0573 -4058.826 L -938.304 -4058.826 C -938.8206 -4058.826 -939.2791 -4059.1565 -939.4425 -4059.6465 L -939.825 -4060.794 C -940.5593 -4061.055 -941.2384 -4061.449 -941.8303 -4061.9534 L -943.0174 -4061.7104 C -943.5234 -4061.607 -944.0389 -4061.839 -944.2972 -4062.286 L -944.9206 -4063.366 C -945.1788 -4063.813 -945.1219 -4064.3755 -944.7792 -4064.762 L -943.976 -4065.6677 C -944.0454 -4066.047 -944.0807 -4066.4344 -944.0807 -4066.826 C -944.0807 -4067.2175 -944.0454 -4067.6047 -943.976 -4067.984 L -944.7792 -4068.89 C -945.1219 -4069.2764 -945.1788 -4069.839 -944.9206 -4070.286 L -944.2972 -4071.366 C -944.0389 -4071.813 -943.5234 -4072.045 -943.0174 -4071.9415 L -941.8303 -4071.6986 C -941.2384 -4072.203 -940.5593 -4072.5967 -939.825 -4072.8578 L -939.4425 -4074.0054 C -939.2791 -4074.4954 -938.8206 -4074.826 -938.304 -4074.826 L -937.0573 -4074.826 C -936.5407 -4074.826 -936.0822 -4074.4954 -935.9188 -4074.0054 L -935.5363 -4072.8578 C -934.802 -4072.5967 -934.1229 -4072.203 -933.531 -4071.6986 Z M -935.9746 -4072.1614 C -936.0962 -4072.2003 -936.1919 -4072.295 -936.2323 -4072.416 L -936.6778 -4073.7524 C -936.7322 -4073.916 -936.8851 -4074.026 -937.0573 -4074.026 L -938.304 -4074.026 C -938.4762 -4074.026 -938.6291 -4073.916 -938.6835 -4073.7524 L -939.129 -4072.416 C -939.1694 -4072.295 -939.2651 -4072.2003 -939.3868 -4072.1614 C -940.1515 -4071.917 -940.8533 -4071.51 -941.4464 -4070.971 C -941.5408 -4070.885 -941.6706 -4070.8493 -941.7957 -4070.875 L -943.1777 -4071.1577 C -943.3464 -4071.192 -943.5183 -4071.115 -943.6043 -4070.966 L -944.2277 -4069.886 C -944.3138 -4069.737 -944.2948 -4069.5495 -944.1806 -4069.4207 L -943.2456 -4068.3663 C -943.161 -4068.271 -943.127 -4068.141 -943.154 -4068.0163 C -943.2379 -4067.6283 -943.2807 -4067.23 -943.2807 -4066.826 C -943.2807 -4066.422 -943.2379 -4066.0236 -943.154 -4065.6356 C -943.127 -4065.511 -943.161 -4065.381 -943.2456 -4065.2856 L -944.1806 -4064.231 C -944.2948 -4064.1024 -944.3138 -4063.915 -944.2277 -4063.766 L -943.6043 -4062.686 C -943.5183 -4062.537 -943.3464 -4062.4597 -943.1777 -4062.494 L -941.7957 -4062.777 C -941.6706 -4062.8026 -941.5408 -4062.767 -941.4464 -4062.681 C -940.8533 -4062.142 -940.1515 -4061.735 -939.3868 -4061.4905 C -939.2651 -4061.4516 -939.1694 -4061.357 -939.129 -4061.236 L -938.6835 -4059.8995 C -938.6291 -4059.736 -938.4762 -4059.626 -938.304 -4059.626 L -937.0573 -4059.626 C -936.8851 -4059.626 -936.7322 -4059.736 -936.6778 -4059.8995 L -936.2323 -4061.236 C -936.1919 -4061.357 -936.0962 -4061.4516 -935.9746 -4061.4905 C -935.2098 -4061.735 -934.508 -4062.142 -933.9149 -4062.681 C -933.8205 -4062.767 -933.6907 -4062.8026 -933.5657 -4062.777 L -932.1836 -4062.494 C -932.0149 -4062.4597 -931.8431 -4062.537 -931.757 -4062.686 L -931.1336 -4063.766 C -931.0475 -4063.915 -931.0665 -4064.1024 -931.1807 -4064.231 L -932.1157 -4065.2856 C -932.2003 -4065.381 -932.2343 -4065.511 -932.2074 -4065.6356 C -932.1234 -4066.0236 -932.0807 -4066.422 -932.0807 -4066.826 C -932.0807 -4067.23 -932.1234 -4067.6283 -932.2074 -4068.0163 C -932.2343 -4068.141 -932.2003 -4068.271 -932.1157 -4068.3663 L -931.1807 -4069.4207 C -931.0665 -4069.5495 -931.0475 -4069.737 -931.1336 -4069.886 L -931.757 -4070.966 C -931.8431 -4071.115 -932.0149 -4071.192 -932.1836 -4071.1577 L -933.5657 -4070.875 C -933.6907 -4070.8493 -933.8205 -4070.885 -933.9149 -4070.971 C -934.508 -4071.51 -935.2098 -4071.917 -935.9746 -4072.1614 Z M -937.6807 -4063.626 C -939.448 -4063.626 -940.8807 -4065.0586 -940.8807 -4066.826 C -940.8807 -4068.5933 -939.448 -4070.026 -937.6807 -4070.026 C -935.9133 -4070.026 -934.4807 -4068.5933 -934.4807 -4066.826 C -934.4807 -4065.0586 -935.9133 -4063.626 -937.6807 -4063.626 Z M -937.6807 -4064.426 C -936.3552 -4064.426 -935.2807 -4065.5005 -935.2807 -4066.826 C -935.2807 -4068.1514 -936.3552 -4069.226 -937.6807 -4069.226 C -939.0061 -4069.226 -940.0807 -4068.1514 -940.0807 -4066.826 C -940.0807 -4065.5005 -939.0061 -4064.426 -937.6807 -4064.426 Z" fill="#66727e"/>
      </g>
    </g>
  </g>
</svg>
