<svg height="24.75" viewBox="-750.056 -4079.201 24.75 24.75" width="24.75" xmlns="http://www.w3.org/2000/svg"><g fill="none"><path d="m-745.8407-4078.826h16.32c2.1208 0 3.84 1.7193 3.84 3.84v16.32c0 2.121-1.7192 3.84-3.84 3.84h-16.32c-2.1207 0-3.84-1.719-3.84-3.84v-16.32c0-2.1207 1.7193-3.84 3.84-3.84z" fill="#66727e"/><path d="m-745.6807-4071.6385c0-1.2081.8955-2.1875 2-2.1875h12c1.1046 0 2 .9794 2 2.1875v9.625c0 1.2082-.8954 2.1875-2 2.1875h-12c-1.1045 0-2-.9793-2-2.1875zm.8 0v9.625c0 .7249.5373 1.3125 1.2 1.3125h12c.6628 0 1.2-.5876 1.2-1.3125v-9.625c0-.7248-.5372-1.3125-1.2-1.3125h-12c-.6627 0-1.2.5877-1.2 1.3125zm10.4.4375h1.6c.4419 0 .8.392.8.875v1.75c0 .4833-.3581.875-.8.875h-1.6c-.4418 0-.8-.3917-.8-.875v-1.75c0-.483.3582-.875.8-.875zm0 .875v1.75h1.6v-1.75zm-10.5171 6.872c-.1562.1708-.4095.1708-.5657 0-.1562-.171-.1562-.448 0-.619l4-4.375c.1562-.1707.4095-.1707.5657 0l4.5171 4.941 2.1172-2.316c.1562-.1707.4095-.1707.5657 0l3.6 3.9377c.1562.1708.1562.4478 0 .6187s-.4095.1709-.5657 0l-3.3172-3.6281-2.1171 2.3157c-.1562.1708-.4095.1708-.5657 0l-4.5172-4.9407z" fill="#fff"/></g></svg>