<svg height="25" viewBox="-710.681 -4078.526 25 25" width="25" xmlns="http://www.w3.org/2000/svg"><g fill="none"><circle cx="-698.181" cy="-4066.026" fill="#fff" r="12"/><circle cx="-698.181" cy="-4066.026" r="12" stroke="#000" stroke-linecap="round" stroke-linejoin="round" stroke-width=".25"/><path d="m-692.94336-4061.3533 2.1406 2.1406c.16276.1627.16276.4267 0 .5893-.16274.1627-.42654.1627-.58924 0l-2.1406-2.1406-1.38474 2.077c-.18836.2827-.61756.2333-.73686-.0847l-2.49995-6.6667c-.12565-.3349.20145-.662.53645-.5366l6.6666 2.5c.318.1194.3674.5486.08484.737zm-.87794-.4162 1.816-1.2105-5.0467-1.8927 1.8925 5.0467 1.2107-1.816c.016-.025.0349-.049.0568-.0706.0219-.0219.0456-.0409.0707-.0569zm-9.776-11.7318c.2301 0 .4166.1865.4166.4167 0 .2301-.1865.4166-.4166.4166-.6904 0-1.25.5597-1.25 1.25 0 .23-.1866.4167-.4167.4167s-.41665-.1867-.41665-.4167c0-1.1506.93275-2.0833 2.08335-2.0833zm2.5.8333c-.23015 0-.4167-.1865-.4167-.4166 0-.2302.18655-.4167.4167-.4167h1.6666c.2301 0 .4167.1865.4167.4167 0 .2301-.1866.4166-.4167.4166zm4.1666 0c-.2301 0-.41665-.1865-.41665-.4166 0-.2302.18655-.4167.41665-.4167h1.6667c.2301 0 .4166.1865.4166.4167 0 .2301-.1865.4166-.4166.4166zm-4.1666 14.1666c-.23015 0-.4167-.1866-.4167-.4166s.18655-.4167.4167-.4167h1.6666c.2301 0 .4167.1867.4167.4167s-.1866.4166-.4167.4166zm-4.58335-10.4166c0-.23.18655-.4167.41665-.4167s.4167.1867.4167.4167v1.6667c0 .2303-.1866.4166-.4167.4166s-.41665-.1863-.41665-.4166zm0 4.1667c0-.2302.18655-.4167.41665-.4167s.4167.1865.4167.4167v1.6666c0 .2301-.1866.4167-.4167.4167s-.41665-.1866-.41665-.4167zm0 4.1666c0-.2303.18655-.4167.41665-.4167s.4167.1864.4167.4167c0 .6904.5596 1.25 1.25 1.25.2301 0 .4166.1867.4166.4167s-.1865.4166-.4166.4166c-1.1506 0-2.08335-.9326-2.08335-2.0833zm14.99995-6.6666c0 .2303-.1866.4166-.4167.4166s-.41665-.1863-.41665-.4166v-1.6667c0-.23.18655-.4167.41665-.4167s.4167.1867.4167.4167zm0-4.1667c0 .23-.1866.4167-.4167.4167s-.41665-.1867-.41665-.4167c0-.6903-.55965-1.25-1.24995-1.25-.23016 0-.4167-.1865-.4167-.4166 0-.2302.18654-.4167.4167-.4167 1.15055 0 2.0833.9327 2.0833 2.0833z" fill="#66727e"/></g></svg>