<?xml version="1.0" encoding="UTF-8" standalone="no"?>
<!DOCTYPE svg PUBLIC "-//W3C//DTD SVG 1.1//EN" "http://www.w3.org/Graphics/SVG/1.1/DTD/svg11.dtd">
<svg version="1.1" xmlns="http://www.w3.org/2000/svg" xmlns:xl="http://www.w3.org/1999/xlink" xmlns:dc="http://purl.org/dc/elements/1.1/" viewBox="-790.0557 -4079.201 24.75 24.75" width="24.75" height="24.75">
  <defs/>
  <g id="SOURCES" stroke-dasharray="none" fill="none" stroke="none" fill-opacity="1" stroke-opacity="1">
    <title>SOURCES</title>
    <g id="SOURCES_Calque_2">
      <title>Calque 2</title>
      <g id="Graphic_8738">
        <title>views/view.other</title>
        <path d="M -785.8407 -4078.826 L -769.5207 -4078.826 C -767.3999 -4078.826 -765.6807 -4077.1067 -765.6807 -4074.986 L -765.6807 -4058.666 C -765.6807 -4056.545 -767.3999 -4054.826 -769.5207 -4054.826 L -785.8407 -4054.826 C -787.9614 -4054.826 -789.6807 -4056.545 -789.6807 -4058.666 L -789.6807 -4074.986 C -789.6807 -4077.1067 -787.9614 -4078.826 -785.8407 -4078.826 Z" fill="#66727e"/>
      </g>
      <g id="Graphic_8739">
        <path d="M -775.014 -4065.048 L -775.014 -4068.6037 L -780.3473 -4068.6037 L -780.3473 -4065.048 Z M -775.014 -4064.1593 L -780.3473 -4064.1593 L -780.3473 -4060.6037 L -775.014 -4060.6037 Z M -784.7918 -4065.048 L -781.2362 -4065.048 L -781.2362 -4068.6037 L -784.7918 -4068.6037 Z M -784.7918 -4064.1593 L -784.7918 -4061.937 C -784.7918 -4061.2007 -784.1948 -4060.6037 -783.4584 -4060.6037 L -781.2362 -4060.6037 L -781.2362 -4064.1593 Z M -770.5696 -4065.048 L -770.5696 -4068.6037 L -774.1251 -4068.6037 L -774.1251 -4065.048 Z M -770.5696 -4064.1593 L -774.1251 -4064.1593 L -774.1251 -4060.6037 L -771.9029 -4060.6037 C -771.1665 -4060.6037 -770.5696 -4061.2007 -770.5696 -4061.937 Z M -775.014 -4069.4926 L -775.014 -4073.048 L -780.3473 -4073.048 L -780.3473 -4069.4926 Z M -784.7918 -4069.4926 L -781.2362 -4069.4926 L -781.2362 -4073.048 L -783.4584 -4073.048 C -784.1948 -4073.048 -784.7918 -4072.451 -784.7918 -4071.715 Z M -770.5696 -4069.4926 L -770.5696 -4071.715 C -770.5696 -4072.451 -771.1665 -4073.048 -771.9029 -4073.048 L -774.1251 -4073.048 L -774.1251 -4069.4926 Z M -783.4584 -4073.937 L -771.9029 -4073.937 C -770.6756 -4073.937 -769.6807 -4072.942 -769.6807 -4071.715 L -769.6807 -4061.937 C -769.6807 -4060.71 -770.6756 -4059.715 -771.9029 -4059.715 L -783.4584 -4059.715 C -784.6857 -4059.715 -785.68065 -4060.71 -785.68065 -4061.937 L -785.68065 -4071.715 C -785.68065 -4072.942 -784.6857 -4073.937 -783.4584 -4073.937 Z" fill="white"/>
      </g>
    </g>
  </g>
</svg>
