<?xml version="1.0" encoding="UTF-8" standalone="no"?>
<!DOCTYPE svg PUBLIC "-//W3C//DTD SVG 1.1//EN" "http://www.w3.org/Graphics/SVG/1.1/DTD/svg11.dtd">
<svg version="1.1" xmlns="http://www.w3.org/2000/svg" xmlns:xl="http://www.w3.org/1999/xlink" xmlns:dc="http://purl.org/dc/elements/1.1/" viewBox="-710.68065 -4078.526 24.999996 25" width="24.999996" height="25">
  <defs/>
  <g id="SOURCES" stroke-dasharray="none" fill="none" stroke="none" fill-opacity="1" stroke-opacity="1">
    <title>SOURCES</title>
    <g id="SOURCES_Calque_2">
      <title>Calque 2</title>
      <g id="Graphic_8753">
        <circle cx="-698.18065" cy="-4066.026" r="12.0000182688381" fill="white"/>
        <circle cx="-698.18065" cy="-4066.026" r="12.0000182688381" stroke="black" stroke-linecap="round" stroke-linejoin="round" stroke-width=".25"/>
      </g>
      <g id="Graphic_8757">
        <path d="M -692.94336 -4061.3533 L -690.80276 -4059.2127 C -690.64 -4059.05 -690.64 -4058.786 -690.80276 -4058.6234 C -690.9655 -4058.4607 -691.2293 -4058.4607 -691.392 -4058.6234 L -693.5326 -4060.764 L -694.91734 -4058.687 C -695.1057 -4058.4043 -695.5349 -4058.4537 -695.6542 -4058.7717 L -698.15415 -4065.4384 C -698.2798 -4065.7733 -697.9527 -4066.1004 -697.6177 -4065.975 L -690.9511 -4063.475 C -690.6331 -4063.3556 -690.5837 -4062.9264 -690.86626 -4062.738 L -692.94336 -4061.3533 Z M -693.8213 -4061.7695 L -692.0053 -4062.98 L -697.052 -4064.8727 L -695.1595 -4059.826 L -693.9488 -4061.642 C -693.9328 -4061.667 -693.9139 -4061.691 -693.892 -4061.7126 C -693.8701 -4061.7345 -693.8464 -4061.7535 -693.8213 -4061.7695 Z M -703.5973 -4073.5013 C -703.3672 -4073.5013 -703.1807 -4073.3148 -703.1807 -4073.0846 C -703.1807 -4072.8545 -703.3672 -4072.668 -703.5973 -4072.668 C -704.2877 -4072.668 -704.8473 -4072.1083 -704.8473 -4071.418 C -704.8473 -4071.188 -705.0339 -4071.0013 -705.264 -4071.0013 C -705.4941 -4071.0013 -705.68065 -4071.188 -705.68065 -4071.418 C -705.68065 -4072.5686 -704.7479 -4073.5013 -703.5973 -4073.5013 Z M -701.0973 -4072.668 C -701.32745 -4072.668 -701.514 -4072.8545 -701.514 -4073.0846 C -701.514 -4073.3148 -701.32745 -4073.5013 -701.0973 -4073.5013 L -699.4307 -4073.5013 C -699.2006 -4073.5013 -699.014 -4073.3148 -699.014 -4073.0846 C -699.014 -4072.8545 -699.2006 -4072.668 -699.4307 -4072.668 Z M -696.9307 -4072.668 C -697.1608 -4072.668 -697.34735 -4072.8545 -697.34735 -4073.0846 C -697.34735 -4073.3148 -697.1608 -4073.5013 -696.9307 -4073.5013 L -695.264 -4073.5013 C -695.0339 -4073.5013 -694.8474 -4073.3148 -694.8474 -4073.0846 C -694.8474 -4072.8545 -695.0339 -4072.668 -695.264 -4072.668 Z M -701.0973 -4058.5014 C -701.32745 -4058.5014 -701.514 -4058.688 -701.514 -4058.918 C -701.514 -4059.148 -701.32745 -4059.3347 -701.0973 -4059.3347 L -699.4307 -4059.3347 C -699.2006 -4059.3347 -699.014 -4059.148 -699.014 -4058.918 C -699.014 -4058.688 -699.2006 -4058.5014 -699.4307 -4058.5014 Z M -705.68065 -4068.918 C -705.68065 -4069.148 -705.4941 -4069.3347 -705.264 -4069.3347 C -705.0339 -4069.3347 -704.8473 -4069.148 -704.8473 -4068.918 L -704.8473 -4067.2513 C -704.8473 -4067.021 -705.0339 -4066.8347 -705.264 -4066.8347 C -705.4941 -4066.8347 -705.68065 -4067.021 -705.68065 -4067.2513 Z M -705.68065 -4064.7513 C -705.68065 -4064.9815 -705.4941 -4065.168 -705.264 -4065.168 C -705.0339 -4065.168 -704.8473 -4064.9815 -704.8473 -4064.7513 L -704.8473 -4063.0847 C -704.8473 -4062.8546 -705.0339 -4062.668 -705.264 -4062.668 C -705.4941 -4062.668 -705.68065 -4062.8546 -705.68065 -4063.0847 Z M -705.68065 -4060.5847 C -705.68065 -4060.815 -705.4941 -4061.0014 -705.264 -4061.0014 C -705.0339 -4061.0014 -704.8473 -4060.815 -704.8473 -4060.5847 C -704.8473 -4059.8943 -704.2877 -4059.3347 -703.5973 -4059.3347 C -703.3672 -4059.3347 -703.1807 -4059.148 -703.1807 -4058.918 C -703.1807 -4058.688 -703.3672 -4058.5014 -703.5973 -4058.5014 C -704.7479 -4058.5014 -705.68065 -4059.434 -705.68065 -4060.5847 Z M -690.6807 -4067.2513 C -690.6807 -4067.021 -690.8673 -4066.8347 -691.0974 -4066.8347 C -691.3275 -4066.8347 -691.51405 -4067.021 -691.51405 -4067.2513 L -691.51405 -4068.918 C -691.51405 -4069.148 -691.3275 -4069.3347 -691.0974 -4069.3347 C -690.8673 -4069.3347 -690.6807 -4069.148 -690.6807 -4068.918 Z M -690.6807 -4071.418 C -690.6807 -4071.188 -690.8673 -4071.0013 -691.0974 -4071.0013 C -691.3275 -4071.0013 -691.51405 -4071.188 -691.51405 -4071.418 C -691.51405 -4072.1083 -692.0737 -4072.668 -692.764 -4072.668 C -692.99416 -4072.668 -693.1807 -4072.8545 -693.1807 -4073.0846 C -693.1807 -4073.3148 -692.99416 -4073.5013 -692.764 -4073.5013 C -691.61345 -4073.5013 -690.6807 -4072.5686 -690.6807 -4071.418 Z" fill="#66727e"/>
      </g>
    </g>
  </g>
</svg>
