<?xml version="1.0" encoding="UTF-8" standalone="no"?>
<!DOCTYPE svg PUBLIC "-//W3C//DTD SVG 1.1//EN" "http://www.w3.org/Graphics/SVG/1.1/DTD/svg11.dtd">
<svg version="1.1" xmlns="http://www.w3.org/2000/svg" xmlns:xl="http://www.w3.org/1999/xlink" xmlns:dc="http://purl.org/dc/elements/1.1/" viewBox="-750.0557 -4079.201 24.75 24.75" width="24.75" height="24.75">
  <defs/>
  <g id="SOURCES" stroke-dasharray="none" fill="none" stroke="none" fill-opacity="1" stroke-opacity="1">
    <title>SOURCES</title>
    <g id="SOURCES_Calque_2">
      <title>Calque 2</title>
      <g id="Graphic_8740">
        <title>views/view.other</title>
        <path d="M -745.8407 -4078.826 L -729.5207 -4078.826 C -727.3999 -4078.826 -725.6807 -4077.1067 -725.6807 -4074.986 L -725.6807 -4058.666 C -725.6807 -4056.545 -727.3999 -4054.826 -729.5207 -4054.826 L -745.8407 -4054.826 C -747.9614 -4054.826 -749.6807 -4056.545 -749.6807 -4058.666 L -749.6807 -4074.986 C -749.6807 -4077.1067 -747.9614 -4078.826 -745.8407 -4078.826 Z" fill="#66727e"/>
      </g>
      <g id="Graphic_8741">
        <path d="M -745.6807 -4071.6385 C -745.6807 -4072.8466 -744.7852 -4073.826 -743.6807 -4073.826 L -731.6807 -4073.826 C -730.5761 -4073.826 -729.6807 -4072.8466 -729.6807 -4071.6385 L -729.6807 -4062.0135 C -729.6807 -4060.8053 -730.5761 -4059.826 -731.6807 -4059.826 L -743.6807 -4059.826 C -744.7852 -4059.826 -745.6807 -4060.8053 -745.6807 -4062.0135 Z M -744.8807 -4071.6385 L -744.8807 -4062.0135 C -744.8807 -4061.2886 -744.3434 -4060.701 -743.6807 -4060.701 L -731.6807 -4060.701 C -731.0179 -4060.701 -730.4807 -4061.2886 -730.4807 -4062.0135 L -730.4807 -4071.6385 C -730.4807 -4072.3633 -731.0179 -4072.951 -731.6807 -4072.951 L -743.6807 -4072.951 C -744.3434 -4072.951 -744.8807 -4072.3633 -744.8807 -4071.6385 Z M -734.4807 -4071.201 L -732.8807 -4071.201 C -732.4388 -4071.201 -732.0807 -4070.809 -732.0807 -4070.326 L -732.0807 -4068.576 C -732.0807 -4068.0927 -732.4388 -4067.701 -732.8807 -4067.701 L -734.4807 -4067.701 C -734.9225 -4067.701 -735.2807 -4068.0927 -735.2807 -4068.576 L -735.2807 -4070.326 C -735.2807 -4070.809 -734.9225 -4071.201 -734.4807 -4071.201 Z M -734.4807 -4070.326 L -734.4807 -4068.576 L -732.8807 -4068.576 L -732.8807 -4070.326 Z M -744.9978 -4063.454 C -745.154 -4063.2832 -745.4073 -4063.2832 -745.5635 -4063.454 C -745.7197 -4063.625 -745.7197 -4063.902 -745.5635 -4064.073 L -741.5635 -4068.448 C -741.4073 -4068.6187 -741.154 -4068.6187 -740.9978 -4068.448 L -736.4807 -4063.507 L -734.3635 -4065.823 C -734.2073 -4065.9937 -733.954 -4065.9937 -733.7978 -4065.823 L -730.1978 -4061.8853 C -730.0416 -4061.7145 -730.0416 -4061.4375 -730.1978 -4061.2666 C -730.354 -4061.0957 -730.6073 -4061.0957 -730.7635 -4061.2666 L -734.0807 -4064.8947 L -736.1978 -4062.579 C -736.354 -4062.4082 -736.6073 -4062.4082 -736.7635 -4062.579 L -741.2807 -4067.5197 Z" fill="white"/>
      </g>
    </g>
  </g>
</svg>
