<svg height="25" viewBox="-710.681 -4078.526 25 25" width="25" xmlns="http://www.w3.org/2000/svg"><g fill="none"><circle cx="-698.181" cy="-4066.026" fill="#fff" r="12"/><circle cx="-698.181" cy="-4066.026" r="12" stroke="#000" stroke-linecap="round" stroke-linejoin="round" stroke-width=".25"/><path d="M-692.943-4061.353l2.14 2.14a.417.417 0 1 1-.589.59l-2.14-2.141-1.385 2.077a.417.417 0 0 1-.737-.085l-2.5-6.666a.417.417 0 0 1 .536-.537l6.667 2.5c.318.12.367.549.085.737zm-.878-.417l1.816-1.21-5.047-1.893 1.893 5.047 1.21-1.816a.408.408 0 0 1 .128-.128zm-9.776-11.731a.417.417 0 1 1 0 .833c-.69 0-1.25.56-1.25 1.25a.417.417 0 0 1-.834 0c0-1.15.933-2.083 2.084-2.083zm2.5.833a.417.417 0 1 1 0-.833h1.666a.417.417 0 1 1 0 .833zm4.166 0a.417.417 0 1 1 0-.833h1.667a.417.417 0 1 1 0 .833zm-4.166 14.167a.417.417 0 1 1 0-.834h1.666a.417.417 0 0 1 0 .834zm-4.584-10.417a.417.417 0 0 1 .834 0v1.667a.417.417 0 1 1-.834 0zm0 4.167a.417.417 0 1 1 .834 0v1.666a.417.417 0 0 1-.834 0zm0 4.166a.417.417 0 1 1 .834 0c0 .69.56 1.25 1.25 1.25a.417.417 0 0 1 0 .834 2.083 2.083 0 0 1-2.084-2.084zm15-6.666a.417.417 0 1 1-.833 0v-1.667a.417.417 0 0 1 .833 0zm0-4.167a.417.417 0 0 1-.833 0c0-.69-.56-1.25-1.25-1.25a.417.417 0 1 1 0-.833c1.15 0 2.083.932 2.083 2.083z" fill="#66727e"/></g></svg>