<svg xmlns="http://www.w3.org/2000/svg" viewBox="-724.499 -4091.174 25 25"><g fill="none"><circle cx="-711.999" cy="-4078.674" r="12" fill="#fff"/><circle cx="-711.999" cy="-4078.674" r="12" stroke="#000" stroke-linecap="round" stroke-linejoin="round" stroke-width=".25"/><path d="M-715.242-4078.095a.4.4 0 0 1-.715-.358c.865-1.731 2.2-2.621 3.958-2.621 1.757 0 3.092.89 3.957 2.621a.4.4 0 0 1-.715.358c-.735-1.469-1.8-2.179-3.242-2.179-1.443 0-2.508.71-3.243 2.179zm.043-.579h2a.4.4 0 1 1 0 .8h-2.4a.4.4 0 0 1-.4-.4v-2.4a.4.4 0 1 1 .8 0zm-2-7.2a.4.4 0 1 1 0 .8 1.2 1.2 0 0 0-1.2 1.2.4.4 0 1 1-.8 0 2 2 0 0 1 2-2zm1.6.8a.4.4 0 1 1 0-.8h1.6a.4.4 0 1 1 0 .8zm-3.6 3.6a.4.4 0 1 1 .8 0v1.6a.4.4 0 1 1-.8 0zm0 4a.4.4 0 1 1 .8 0v1.6a.4.4 0 1 1-.8 0zm0 4a.4.4 0 1 1 .8 0 1.2 1.2 0 0 0 1.2 1.2.4.4 0 1 1 0 .8 2 2 0 0 1-2-2zm3.6 2a.4.4 0 1 1 0-.8h1.6a.4.4 0 1 1 0 .8zm3.6-14.8a.4.4 0 1 1 .8 0v3.2a.4.4 0 1 1-.8 0zm0 9.6a.4.4 0 1 1 .8 0v5.6a.4.4 0 1 1-.8 0zm2.8-8.4a.4.4 0 1 1 0-.8h2.4a2 2 0 0 1 2 2v10.4a2 2 0 0 1-2 2h-2.4a.4.4 0 1 1 0-.8h2.4a1.2 1.2 0 0 0 1.2-1.2v-10.4a1.2 1.2 0 0 0-1.2-1.2z" fill="#66727e"/></g></svg>