<svg xmlns="http://www.w3.org/2000/svg" viewBox="-750.056 -4079.201 24.75 24.75"><g fill="none"><path d="M-745.84-4078.826h16.32a3.84 3.84 0 0 1 3.84 3.84v16.32a3.84 3.84 0 0 1-3.84 3.84h-16.32a3.84 3.84 0 0 1-3.84-3.84v-16.32a3.84 3.84 0 0 1 3.84-3.84z" fill="#66727e"/><path d="M-745.68-4071.639c0-1.208.895-2.187 2-2.187h12c1.104 0 2 .98 2 2.188v9.624c0 1.209-.896 2.188-2 2.188h-12c-1.105 0-2-.98-2-2.188zm.8 0v9.626c0 .724.537 1.312 1.2 1.312h12c.662 0 1.2-.588 1.2-1.313v-9.624c0-.725-.538-1.313-1.2-1.313h-12c-.663 0-1.2.588-1.2 1.313zm10.4.438h1.6c.441 0 .8.392.8.875v1.75c0 .483-.359.875-.8.875h-1.6c-.442 0-.8-.392-.8-.875v-1.75c0-.483.357-.875.8-.875zm0 .875v1.75h1.6v-1.75zm-10.518 6.872a.376.376 0 0 1-.565 0 .467.467 0 0 1 0-.619l4-4.375a.377.377 0 0 1 .565 0l4.517 4.941 2.117-2.316c.157-.17.41-.17.566 0l3.6 3.938a.467.467 0 0 1 0 .618.376.376 0 0 1-.566 0l-3.317-3.628-2.117 2.316a.376.376 0 0 1-.566 0l-4.517-4.94z" fill="#fff"/></g></svg>