<svg height="24.75" viewBox="-869.207 -4079.201 24.75 24.75" width="24.75" xmlns="http://www.w3.org/2000/svg"><g fill="none"><path d="M-864.992-4078.826h16.32a3.84 3.84 0 0 1 3.84 3.84v16.32a3.84 3.84 0 0 1-3.84 3.84h-16.32a3.84 3.84 0 0 1-3.84-3.84v-16.32a3.84 3.84 0 0 1 3.84-3.84z" fill="#66727e"/><path d="M-850.35-4071.826h-2.482c-.246 0-.445-.224-.445-.5s.2-.5.445-.5h3.555c.246 0 .445.224.445.5v4c0 .276-.2.5-.445.5s-.444-.224-.444-.5v-2.793l-4.575 5.147a.41.41 0 0 1-.628 0l-2.353-2.647-3.241 3.647a.41.41 0 0 1-.629 0 .545.545 0 0 1 0-.707l3.556-4a.41.41 0 0 1 .629 0l2.352 2.646zm1.073 10c.246 0 .445.224.445.5s-.2.5-.445.5h-13.333c-1.227 0-2.222-1.12-2.222-2.5v-9c0-.276.199-.5.444-.5.246 0 .445.224.445.5v9c0 .829.596 1.5 1.333 1.5z" fill="#fff"/></g></svg>