<svg height="24.75" viewBox="-830.056 -4077.701 24.75 24.75" width="24.75" xmlns="http://www.w3.org/2000/svg"><g fill="none"><path d="M-825.84-4077.326h16.32a3.84 3.84 0 0 1 3.84 3.84v16.32a3.84 3.84 0 0 1-3.84 3.84h-16.32a3.84 3.84 0 0 1-3.84-3.84v-16.32a3.84 3.84 0 0 1 3.84-3.84z" fill="#66727e"/><path d="M-814.044-4070.365v7.476l1.09 1.099 1.091-1.099v-7.476zm0-.727h2.181v-1.444h-2.181zm2.909 1.454v6.899a.364.364 0 0 1-.106.256l-1.454 1.465a.363.363 0 0 1-.517 0l-1.454-1.465a.364.364 0 0 1-.106-.256v-1.808h-.363a1.09 1.09 0 0 1-1.091-1.09v-2.182c0-.603.488-1.091 1.09-1.091h.364v-.728h-7.272v5.455c0 .2-.163.363-.364.363h-.364a2.182 2.182 0 0 0 0 4.364h12.364v-10.182zm0-.727h1.09c.201 0 .364.163.364.364v10.909c0 .2-.162.363-.363.363h-12.728a2.909 2.909 0 0 1-2.909-2.909V-4070a3.273 3.273 0 0 1 3.273-3.273c.2 0 .364.163.364.364v2.545h7.272v-2.535c0-.2.163-.363.364-.363h2.91c.2 0 .363.162.363.363zm-3.637 2.182h-.363c-.201 0-.364.163-.364.363v2.182c0 .201.163.364.364.364h.363zm-10.181 4.621a2.902 2.902 0 0 1 2.181-.985v-7.974a2.546 2.546 0 0 0-2.181 2.52zm4.727-5.348h2.182c.602 0 1.09.488 1.09 1.09v2.182a1.09 1.09 0 0 1-1.09 1.091h-2.182a1.09 1.09 0 0 1-1.091-1.09v-2.182c0-.603.488-1.091 1.09-1.091zm0 .727c-.201 0-.364.163-.364.364v2.181c0 .201.163.364.364.364h2.182c.2 0 .363-.163.363-.364v-2.181c0-.201-.162-.364-.363-.364zm-.727 5.818a.364.364 0 1 1 0-.727h5.09a.363.363 0 1 1 0 .727zm0 1.455a.364.364 0 1 1 0-.728h5.818a.364.364 0 1 1 0 .728z" fill="#fff"/></g></svg>