<svg height="24.75" viewBox="-910.056 -4080.723 24.75 24.75" width="24.75" xmlns="http://www.w3.org/2000/svg"><g fill="none"><path d="M-905.84-4080.348h16.32a3.84 3.84 0 0 1 3.84 3.84v16.32a3.84 3.84 0 0 1-3.84 3.84h-16.32a3.84 3.84 0 0 1-3.84-3.84v-16.32a3.84 3.84 0 0 1 3.84-3.84z" fill="#66727e"/><path d="M-900.986-4068.909l-3.244 1.67a1.2 1.2 0 0 0-.65 1.067v.624a1.2 1.2 0 0 0 1.2 1.2.4.4 0 1 1 0 .8 2 2 0 0 1-2-2v-.624a2 2 0 0 1 1.084-1.778l2.686-1.383a4 4 0 1 1 5.94-5.261.4.4 0 1 1-.662.45 3.2 3.2 0 1 0-4.312 4.53.4.4 0 0 1-.042.705zm3.274 3.414l-3.265 1.485a1.2 1.2 0 0 0-.704 1.092v.57a1.2 1.2 0 0 0 1.2 1.2h8.8a1.2 1.2 0 0 0 1.2-1.2v-.57a1.2 1.2 0 0 0-.703-1.092l-3.266-1.485c-.498.223-1.05.347-1.63.347s-1.133-.124-1.632-.347zm-.83-.5a4 4 0 1 1 4.925 0l2.764 1.256a2 2 0 0 1 1.172 1.821v.57a2 2 0 0 1-2 2h-8.8a2 2 0 0 1-2-2v-.57a2 2 0 0 1 1.173-1.82zm2.461.047a3.2 3.2 0 1 0 0-6.4 3.2 3.2 0 0 0 0 6.4z" fill="#fff"/></g></svg>