<svg height="25" viewBox="-583.382 -4009.529 25 25" width="25" xmlns="http://www.w3.org/2000/svg"><g fill="none"><path d="m-579.04244-4009.0294h16.32c2.12078 0 3.84 1.7194 3.84 3.84v16.32c0 2.1208-1.71922 3.84-3.84 3.84h-16.32c-2.12076 0-3.84-1.7192-3.84-3.84v-16.32c0-2.1206 1.71924-3.84 3.84-3.84z" fill="#fff"/><path d="m-579.04244-4009.0294h16.32c2.12078 0 3.84 1.7194 3.84 3.84v16.32c0 2.1208-1.71922 3.84-3.84 3.84h-16.32c-2.12076 0-3.84-1.7192-3.84-3.84v-16.32c0-2.1206 1.71924-3.84 3.84-3.84z" stroke="#000" stroke-linecap="round" stroke-linejoin="round" stroke-width=".25"/><path d="m-570.88244-3995.8814 6.74114-3.548-6.74114-3.5479-6.74111 3.5479zm-7.78626-3.9019 7.59997-4c.11663-.0614.25597-.0614.37259 0l7.59994 4c.28494.1499.28494.5579 0 .7079l-7.59994 4c-.11662.0614-.25596.0614-.37259 0l-7.59997-4c-.2849-.15-.2849-.558 0-.7079zm7.78626 6.3019 7.41364-3.902c.1955-.1028.4374-.0276.5403.1677.10286.1957.0278.4374-.1677.5403l-7.59994 3.9999c-.11662.0615-.25596.0615-.37259 0l-7.59997-3.9999c-.1955-.1029-.27054-.3446-.16765-.5403.10289-.1953.34475-.2705.54025-.1677zm0 2.3999 7.41364-3.9019c.1955-.1029.4374-.0276.5403.1677.10286.1957.0278.4374-.1677.5403l-7.59994 3.9999c-.11662.0615-.25596.0615-.37259 0l-7.59997-3.9999c-.1955-.1029-.27054-.3446-.16765-.5403.10289-.1953.34475-.2706.54025-.1677z" fill="#66727e"/></g></svg>