<?xml version="1.0" encoding="UTF-8" standalone="no"?>
<!DOCTYPE svg PUBLIC "-//W3C//DTD SVG 1.1//EN" "http://www.w3.org/Graphics/SVG/1.1/DTD/svg11.dtd">
<svg version="1.1" xmlns="http://www.w3.org/2000/svg" xmlns:xl="http://www.w3.org/1999/xlink" xmlns:dc="http://purl.org/dc/elements/1.1/" viewBox="-830.0557 -4077.701 24.75 24.75" width="24.75" height="24.75">
  <defs/>
  <g id="SOURCES" stroke-dasharray="none" fill="none" stroke="none" fill-opacity="1" stroke-opacity="1">
    <title>SOURCES</title>
    <g id="SOURCES_Calque_2">
      <title>Calque 2</title>
      <g id="Graphic_8759">
        <title>views/view.other</title>
        <path d="M -825.8407 -4077.326 L -809.5207 -4077.326 C -807.3999 -4077.326 -805.6807 -4075.6067 -805.6807 -4073.486 L -805.6807 -4057.166 C -805.6807 -4055.045 -807.3999 -4053.326 -809.5207 -4053.326 L -825.8407 -4053.326 C -827.9614 -4053.326 -829.6807 -4055.045 -829.6807 -4057.166 L -829.6807 -4073.486 C -829.6807 -4075.6067 -827.9614 -4077.326 -825.8407 -4077.326 Z" fill="#66727e"/>
      </g>
      <g id="Graphic_8758">
        <path d="M -814.0443 -4070.365 L -814.0443 -4062.889 L -812.9534 -4061.79 L -811.8625 -4062.889 L -811.8625 -4070.365 Z M -814.0443 -4071.092 L -811.8625 -4071.092 L -811.8625 -4072.536 L -814.0443 -4072.536 Z M -811.1352 -4069.6377 L -811.1352 -4062.7393 C -811.1352 -4062.6433 -811.1732 -4062.551 -811.2408 -4062.483 L -812.6953 -4061.018 C -812.83755 -4060.8746 -813.0692 -4060.8746 -813.2115 -4061.018 L -814.666 -4062.483 C -814.7336 -4062.551 -814.7716 -4062.6433 -814.7716 -4062.7393 L -814.7716 -4064.5468 L -815.1352 -4064.5468 C -815.7377 -4064.5468 -816.2261 -4065.035 -816.2261 -4065.6377 L -816.2261 -4067.8195 C -816.2261 -4068.422 -815.7377 -4068.9104 -815.1352 -4068.9104 L -814.7716 -4068.9104 L -814.7716 -4069.6377 L -822.0443 -4069.6377 L -822.0443 -4064.183 C -822.0443 -4063.9823 -822.2071 -4063.8195 -822.408 -4063.8195 L -822.7716 -4063.8195 C -823.9766 -4063.8195 -824.9534 -4062.8426 -824.9534 -4061.6377 C -824.9534 -4060.4327 -823.9766 -4059.456 -822.7716 -4059.456 L -810.4079 -4059.456 L -810.4079 -4069.6377 Z M -811.1352 -4070.365 L -810.0443 -4070.365 C -809.8435 -4070.365 -809.6807 -4070.202 -809.6807 -4070.0013 L -809.6807 -4059.092 C -809.6807 -4058.8914 -809.8435 -4058.7286 -810.0443 -4058.7286 L -822.7716 -4058.7286 C -824.3783 -4058.7286 -825.6807 -4060.031 -825.6807 -4061.6377 L -825.6807 -4070.0013 C -825.6807 -4071.809 -824.2155 -4073.274 -822.408 -4073.274 C -822.2071 -4073.274 -822.0443 -4073.1112 -822.0443 -4072.9104 L -822.0443 -4070.365 L -814.7716 -4070.365 L -814.7716 -4072.8997 C -814.7716 -4073.1005 -814.6088 -4073.2633 -814.40795 -4073.2633 L -811.49885 -4073.2633 C -811.298 -4073.2633 -811.1352 -4073.1005 -811.1352 -4072.8997 Z M -814.7716 -4068.183 L -815.1352 -4068.183 C -815.3361 -4068.183 -815.4989 -4068.0203 -815.4989 -4067.8195 L -815.4989 -4065.6377 C -815.4989 -4065.437 -815.3361 -4065.274 -815.1352 -4065.274 L -814.7716 -4065.274 Z M -824.9534 -4063.562 C -824.4204 -4064.166 -823.6405 -4064.5468 -822.7716 -4064.5468 L -822.7716 -4072.521 C -824.0052 -4072.3446 -824.9534 -4071.2837 -824.9534 -4070.0013 L -824.9534 -4063.562 Z M -820.2261 -4068.9104 L -818.0443 -4068.9104 C -817.4418 -4068.9104 -816.9534 -4068.422 -816.9534 -4067.8195 L -816.9534 -4065.6377 C -816.9534 -4065.035 -817.4418 -4064.5468 -818.0443 -4064.5468 L -820.2261 -4064.5468 C -820.8286 -4064.5468 -821.3171 -4065.035 -821.3171 -4065.6377 L -821.3171 -4067.8195 C -821.3171 -4068.422 -820.8286 -4068.9104 -820.2261 -4068.9104 Z M -820.2261 -4068.183 C -820.427 -4068.183 -820.5898 -4068.0203 -820.5898 -4067.8195 L -820.5898 -4065.6377 C -820.5898 -4065.437 -820.427 -4065.274 -820.2261 -4065.274 L -818.0443 -4065.274 C -817.8435 -4065.274 -817.6807 -4065.437 -817.6807 -4065.6377 L -817.6807 -4067.8195 C -817.6807 -4068.0203 -817.8435 -4068.183 -818.0443 -4068.183 Z M -820.9534 -4062.365 C -821.1543 -4062.365 -821.3171 -4062.5277 -821.3171 -4062.7286 C -821.3171 -4062.9294 -821.1543 -4063.092 -820.9534 -4063.092 L -815.8625 -4063.092 C -815.6617 -4063.092 -815.4989 -4062.9294 -815.4989 -4062.7286 C -815.4989 -4062.5277 -815.6617 -4062.365 -815.8625 -4062.365 Z M -820.9534 -4060.9104 C -821.1543 -4060.9104 -821.3171 -4061.073 -821.3171 -4061.274 C -821.3171 -4061.475 -821.1543 -4061.6377 -820.9534 -4061.6377 L -815.1352 -4061.6377 C -814.9344 -4061.6377 -814.7716 -4061.475 -814.7716 -4061.274 C -814.7716 -4061.073 -814.9344 -4060.9104 -815.1352 -4060.9104 Z" fill="white"/>
      </g>
    </g>
  </g>
</svg>
