<svg height="24.75" viewBox="-910.056 -4080.723 24.75 24.75" width="24.75" xmlns="http://www.w3.org/2000/svg"><g fill="none"><path d="m-905.8407-4080.348h16.32c2.1208 0 3.84 1.719 3.84 3.84v16.32c0 2.1207-1.7192 3.84-3.84 3.84h-16.32c-2.1207 0-3.84-1.7193-3.84-3.84v-16.32c0-2.121 1.7193-3.84 3.84-3.84z" fill="#66727e"/><path d="m-900.9857-4068.909-3.2442 1.67c-.3996.2056-.6508.6174-.6508 1.067v.624c0 .6627.5373 1.2 1.2001 1.2.2209 0 .4.179.4.4s-.1791.4-.4.4c-1.1046 0-2.0001-.8955-2.0001-2v-.624c0-.7493.4187-1.4355 1.0847-1.7784l2.6862-1.3826c-.8574-.7477-1.3709-1.837-1.3709-3.015 0-2.209 1.7909-4 4-4 1.3413 0 2.5706.6655 3.3104 1.754.1242.1827.0767.4314-.106.5556-.1827.1244-.4315.0768-.5557-.106-.5923-.8716-1.5752-1.4036-2.6487-1.4036-1.7673 0-3.2 1.4326-3.2 3.2 0 1.1293.5895 2.1565 1.5363 2.734.1885.115.2482.361.1331.55-.043.0704-.1045.123-.1744.155zm3.2741 3.4144-3.2656 1.4843c-.4284.1948-.7035.6219-.7035 1.0923v.57c0 .6627.5373 1.2 1.2 1.2h8.8c.6628 0 1.2-.5373 1.2-1.2v-.57c0-.4704-.275-.8975-.7034-1.0923l-3.2656-1.4843c-.4981.2226-1.0501.3466-1.631.3466s-1.1328-.124-1.6309-.3466zm-.8313-.5009c-.9361-.7322-1.5378-1.8721-1.5378-3.1525 0-2.209 1.7909-4 4-4 2.2092 0 4 1.791 4 4 0 1.2804-.6016 2.4203-1.5377 3.1525l2.7653 1.2569c.714.3246 1.1724 1.0366 1.1724 1.8206v.57c0 1.1045-.8954 2-2 2h-8.8c-1.1045 0-2-.8955-2-2v-.57c0-.784.4584-1.496 1.1724-1.8206zm2.4622.0475c1.7673 0 3.2-1.433 3.2-3.2 0-1.7674-1.4327-3.2-3.2-3.2s-3.2 1.4326-3.2 3.2c0 1.767 1.4327 3.2 3.2 3.2z" fill="#fff"/></g></svg>