<svg viewBox="-526.872 -3651.197 24.75 24.75" xmlns="http://www.w3.org/2000/svg"><g fill="none"><path d="M-522.657-3650.822h16.32a3.84 3.84 0 0 1 3.84 3.84v16.32a3.84 3.84 0 0 1-3.84 3.84h-16.32a3.84 3.84 0 0 1-3.84-3.84v-16.32a3.84 3.84 0 0 1 3.84-3.84z" fill="#66727e"/><path d="M-515.5-3640.317v2.55c0 .33-.12.65-.33.91-.5.6-1.39.68-1.99.18l-.92-.77c-.28-.24-.64-.36-1.01-.36-.27 0-.51.15-.62.39l-.04.07c-.14.28-.09.61.1.85l4.41 5.32c.71.86 1.77 1.36 2.89 1.36 2.49 0 4.5-2.01 4.5-4.5v-4c0-.28-.22-.5-.5-.5s-.5.22-.5.5v1c0 .28-.22.5-.5.5s-.5-.22-.5-.5v-2c0-.28-.22-.5-.5-.5s-.5.22-.5.5v2c0 .28-.22.5-.5.5s-.5-.22-.5-.5v-3c0-.28-.22-.5-.5-.5s-.5.22-.5.5v3c0 .28-.22.5-.5.5s-.5-.22-.5-.5v-8c0-.28-.22-.5-.5-.5s-.5.22-.5.5v5zm-1 0v-1.84c-1.21-.57-2-1.79-2-3.16 0-1.93 1.57-3.5 3.5-3.5s3.5 1.57 3.5 3.5c0 1.37-.79 2.59-2 3.16v.42c.16-.06.32-.09.5-.09.69 0 1.27.47 1.45 1.11.17-.07.36-.11.55-.11.69 0 1.27.47 1.45 1.11.17-.07.36-.11.55-.11.83 0 1.5.67 1.5 1.5v4c0 3.04-2.46 5.5-5.5 5.5a4.74 4.74 0 0 1-3.66-1.72l-4.42-5.31c-.45-.54-.54-1.29-.24-1.93l.04-.07c.28-.59.88-.96 1.53-.96.6 0 1.18.21 1.65.6l.92.77c.18.15.44.12.58-.05.06-.07.1-.17.1-.27zm3-3a2.5 2.5 0 1 0-3 0v-2c0-.83.67-1.5 1.5-1.5s1.5.67 1.5 1.5z" fill="#fff"/></g></svg>