<svg xmlns="http://www.w3.org/2000/svg" viewBox="-790.056 -4079.201 24.75 24.75"><g fill="none"><path d="M-785.84-4078.826h16.32a3.84 3.84 0 0 1 3.84 3.84v16.32a3.84 3.84 0 0 1-3.84 3.84h-16.32a3.84 3.84 0 0 1-3.84-3.84v-16.32a3.84 3.84 0 0 1 3.84-3.84z" fill="#66727e"/><path d="M-775.014-4065.048v-3.556h-5.333v3.556zm0 .889h-5.333v3.555h5.333zm-9.778-.889h3.556v-3.556h-3.556zm0 .889v2.222c0 .736.597 1.333 1.334 1.333h2.222v-3.555zm14.222-.889v-3.556h-3.555v3.556zm0 .889h-3.555v3.555h2.222c.736 0 1.333-.597 1.333-1.333zm-4.444-5.334v-3.555h-5.333v3.555zm-9.778 0h3.556v-3.555h-2.222c-.737 0-1.334.597-1.334 1.333zm14.222 0v-2.222c0-.736-.596-1.333-1.333-1.333h-2.222v3.555zm-12.888-4.444h11.555c1.227 0 2.222.995 2.222 2.222v9.778a2.222 2.222 0 0 1-2.222 2.222h-11.555a2.222 2.222 0 0 1-2.223-2.222v-9.778c0-1.227.995-2.222 2.223-2.222z" fill="#fff"/></g></svg>