<svg height="24.75" viewBox="-790.056 -4079.201 24.75 24.75" width="24.75" xmlns="http://www.w3.org/2000/svg"><g fill="none"><path d="m-785.8407-4078.826h16.32c2.1208 0 3.84 1.7193 3.84 3.84v16.32c0 2.121-1.7192 3.84-3.84 3.84h-16.32c-2.1207 0-3.84-1.719-3.84-3.84v-16.32c0-2.1207 1.7193-3.84 3.84-3.84z" fill="#66727e"/><path d="m-775.014-4065.048v-3.5557h-5.3333v3.5557zm0 .8887h-5.3333v3.5556h5.3333zm-9.7778-.8887h3.5556v-3.5557h-3.5556zm0 .8887v2.2223c0 .7363.597 1.3333 1.3334 1.3333h2.2222v-3.5556zm14.2222-.8887v-3.5557h-3.5555v3.5557zm0 .8887h-3.5555v3.5556h2.2222c.7364 0 1.3333-.597 1.3333-1.3333zm-4.4444-5.3333v-3.5554h-5.3333v3.5554zm-9.7778 0h3.5556v-3.5554h-2.2222c-.7364 0-1.3334.597-1.3334 1.333zm14.2222 0v-2.2224c0-.736-.5969-1.333-1.3333-1.333h-2.2222v3.5554zm-12.8888-4.4444h11.5555c1.2273 0 2.2222.995 2.2222 2.222v9.778c0 1.227-.9949 2.222-2.2222 2.222h-11.5555c-1.2273 0-2.22225-.995-2.22225-2.222v-9.778c0-1.227.99495-2.222 2.22225-2.222z" fill="#fff"/></g></svg>