<svg height="25" viewBox="-724.499 -4091.174 25 25" width="25" xmlns="http://www.w3.org/2000/svg"><g fill="none"><circle cx="-711.999" cy="-4078.674" fill="#fff" r="12"/><circle cx="-711.999" cy="-4078.674" r="12" stroke="#000" stroke-linecap="round" stroke-linejoin="round" stroke-width=".25"/><path d="m-715.2416-4078.095c-.0988.1974-.3391.2775-.5367.1787-.1976-.0987-.2777-.339-.1789-.5367.8655-1.731 2.20066-2.621 3.9578-2.621 1.7571 0 3.09224.89 3.9578 2.621.09875.1977.0187.438-.1789.5367-.1976.0988-.4379.0187-.5367-.1787-.7345-1.469-1.79934-2.179-3.2422-2.179-1.4429 0-2.50776.71-3.2422 2.179zm.0422-.579h2c.2209 0 .4.179.4.4s-.1791.4-.4.4h-2.4c-.2209 0-.4-.179-.4-.4v-2.4c0-.221.1791-.4.4-.4s.4.179.4.4zm-2-7.2c.2209 0 .4.179.4.4s-.1791.4-.4.4c-.66275 0-1.2.537-1.2 1.2 0 .221-.1791.4-.4.4s-.4-.179-.4-.4c0-1.1046.8954-2 2-2zm1.6.8c-.2209 0-.4-.179-.4-.4s.1791-.4.4-.4h1.6c.2209 0 .4.179.4.4s-.1791.4-.4.4zm-3.6 3.6c0-.221.1791-.4.4-.4s.4.179.4.4v1.6c0 .221-.1791.4-.4.4s-.4-.179-.4-.4zm0 4c0-.221.1791-.4.4-.4s.4.179.4.4v1.6c0 .221-.1791.4-.4.4s-.4-.179-.4-.4zm0 4c0-.221.1791-.4.4-.4s.4.179.4.4c0 .6627.53725 1.2 1.2 1.2.2209 0 .4.179.4.4s-.1791.4-.4.4c-1.1046 0-2-.8955-2-2zm3.6 2c-.2209 0-.4-.179-.4-.4s.1791-.4.4-.4h1.6c.2209 0 .4.179.4.4s-.1791.4-.4.4zm3.6-14.8c0-.221.1791-.4.4-.4s.4.179.4.4v3.2c0 .221-.1791.4-.4.4s-.4-.179-.4-.4zm0 9.6c0-.221.1791-.4.4-.4s.4.179.4.4v5.6c0 .221-.1791.4-.4.4s-.4-.179-.4-.4zm2.8-8.4c-.2209 0-.4-.179-.4-.4s.1791-.4.4-.4h2.4c1.10456 0 2 .8954 2 2v10.4c0 1.1045-.89544 2-2 2h-2.4c-.2209 0-.4-.179-.4-.4s.1791-.4.4-.4h2.4c.6627 0 1.2-.5373 1.2-1.2v-10.4c0-.663-.5373-1.2-1.2-1.2z" fill="#66727e"/></g></svg>