<svg height="24.75" viewBox="-830.056 -4077.701 24.75 24.75" width="24.75" xmlns="http://www.w3.org/2000/svg"><g fill="none"><path d="m-825.8407-4077.326h16.32c2.1208 0 3.84 1.7193 3.84 3.84v16.32c0 2.121-1.7192 3.84-3.84 3.84h-16.32c-2.1207 0-3.84-1.719-3.84-3.84v-16.32c0-2.1207 1.7193-3.84 3.84-3.84z" fill="#66727e"/><path d="m-814.0443-4070.365v7.476l1.0909 1.099 1.0909-1.099v-7.476zm0-.727h2.1818v-1.444h-2.1818zm2.9091 1.4543v6.8984c0 .096-.038.1883-.1056.2563l-1.4545 1.465c-.14225.1434-.3739.1434-.5162 0l-1.4545-1.465c-.0676-.068-.1056-.1603-.1056-.2563v-1.8075h-.3636c-.6025 0-1.0909-.4882-1.0909-1.0909v-2.1818c0-.6025.4884-1.0909 1.0909-1.0909h.3636v-.7273h-7.2727v5.4547c0 .2007-.1628.3635-.3637.3635h-.3636c-1.205 0-2.1818.9769-2.1818 2.1818 0 1.205.9768 2.1817 2.1818 2.1817h12.3637v-10.1817zm0-.7273h1.0909c.2008 0 .3636.163.3636.3637v10.9093c0 .2006-.1628.3634-.3636.3634h-12.7273c-1.6067 0-2.9091-1.3024-2.9091-2.9091v-8.3636c0-1.8077 1.4652-3.2727 3.2727-3.2727.2009 0 .3637.1628.3637.3636v2.5454h7.2727v-2.5347c0-.2008.1628-.3636.36365-.3636h2.9091c.20085 0 .36365.1628.36365.3636zm-3.6364 2.182h-.3636c-.2009 0-.3637.1627-.3637.3635v2.1818c0 .2007.1628.3637.3637.3637h.3636zm-10.1818 4.621c.533-.604 1.3129-.9848 2.1818-.9848v-7.9742c-1.2336.1764-2.1818 1.2373-2.1818 2.5197zm4.7273-5.3484h2.1818c.6025 0 1.0909.4884 1.0909 1.0909v2.1818c0 .6027-.4884 1.0909-1.0909 1.0909h-2.1818c-.6025 0-1.091-.4882-1.091-1.0909v-2.1818c0-.6025.4885-1.0909 1.091-1.0909zm0 .7274c-.2009 0-.3637.1627-.3637.3635v2.1818c0 .2007.1628.3637.3637.3637h2.1818c.2008 0 .3636-.163.3636-.3637v-2.1818c0-.2008-.1628-.3635-.3636-.3635zm-.7273 5.818c-.2009 0-.3637-.1627-.3637-.3636 0-.2008.1628-.3634.3637-.3634h5.0909c.2008 0 .3636.1626.3636.3634 0 .2009-.1628.3636-.3636.3636zm0 1.4546c-.2009 0-.3637-.1626-.3637-.3636s.1628-.3637.3637-.3637h5.8182c.2008 0 .3636.1627.3636.3637s-.1628.3636-.3636.3636z" fill="#fff"/></g></svg>