<svg height="24.75" viewBox="-869.207 -4079.201 24.75 24.75" width="24.75" xmlns="http://www.w3.org/2000/svg"><g fill="none"><path d="m-864.9923-4078.826h16.32c2.1207 0 3.84 1.7193 3.84 3.84v16.32c0 2.121-1.7193 3.84-3.84 3.84h-16.32c-2.1208 0-3.84-1.719-3.84-3.84v-16.32c0-2.1207 1.7192-3.84 3.84-3.84z" fill="#66727e"/><path d="m-850.3498-4071.826h-2.4825c-.2455 0-.4445-.224-.4445-.5s.199-.5.4445-.5h3.5555c.2455 0 .4445.224.4445.5v4c0 .276-.199.5-.4445.5-.2454 0-.4444-.224-.4444-.5v-2.793l-4.5746 5.1466c-.1736.1954-.455.1954-.6286 0l-2.3524-2.6466-3.2413 3.6466c-.1735.1954-.4549.1954-.6285 0-.1736-.1953-.1736-.5118 0-.7071l3.5556-4c.1735-.1955.4549-.1955.6285 0l2.3524 2.6465zm1.073 10c.2455 0 .4445.224.4445.5s-.199.5-.4445.5h-13.3333c-1.2273 0-2.2222-1.1192-2.2222-2.5v-9c0-.276.199-.5.4444-.5.2455 0 .4445.224.4445.5v9c0 .8285.5969 1.5 1.3333 1.5z" fill="#fff"/></g></svg>