<?xml version="1.0" encoding="UTF-8" standalone="no"?>
<!DOCTYPE svg PUBLIC "-//W3C//DTD SVG 1.1//EN" "http://www.w3.org/Graphics/SVG/1.1/DTD/svg11.dtd">
<svg version="1.1" xmlns="http://www.w3.org/2000/svg" xmlns:xl="http://www.w3.org/1999/xlink" xmlns:dc="http://purl.org/dc/elements/1.1/" viewBox="-724.4994 -4091.174 24.999996 25" width="24.999996" height="25">
  <defs/>
  <g id="SOURCES" stroke-dasharray="none" fill="none" stroke="none" fill-opacity="1" stroke-opacity="1">
    <title>SOURCES</title>
    <g id="SOURCES_Calque_2">
      <title>Calque 2</title>
      <g id="Graphic_8756">
        <circle cx="-711.9994" cy="-4078.674" r="12.000018268838" fill="white"/>
        <circle cx="-711.9994" cy="-4078.674" r="12.000018268838" stroke="black" stroke-linecap="round" stroke-linejoin="round" stroke-width=".25"/>
      </g>
      <g id="Graphic_8795">
        <path d="M -715.2416 -4078.095 C -715.3404 -4077.8976 -715.5807 -4077.8175 -715.7783 -4077.9163 C -715.9759 -4078.015 -716.056 -4078.2553 -715.9572 -4078.453 C -715.0917 -4080.184 -713.75654 -4081.074 -711.9994 -4081.074 C -710.2423 -4081.074 -708.90716 -4080.184 -708.0416 -4078.453 C -707.94285 -4078.2553 -708.0229 -4078.015 -708.2205 -4077.9163 C -708.4181 -4077.8175 -708.6584 -4077.8976 -708.7572 -4078.095 C -709.4917 -4079.564 -710.55654 -4080.274 -711.9994 -4080.274 C -713.4423 -4080.274 -714.50716 -4079.564 -715.2416 -4078.095 Z M -715.1994 -4078.674 L -713.1994 -4078.674 C -712.9785 -4078.674 -712.7994 -4078.495 -712.7994 -4078.274 C -712.7994 -4078.053 -712.9785 -4077.874 -713.1994 -4077.874 L -715.5994 -4077.874 C -715.8203 -4077.874 -715.9994 -4078.053 -715.9994 -4078.274 L -715.9994 -4080.674 C -715.9994 -4080.895 -715.8203 -4081.074 -715.5994 -4081.074 C -715.3785 -4081.074 -715.1994 -4080.895 -715.1994 -4080.674 Z M -717.1994 -4085.874 C -716.9785 -4085.874 -716.7994 -4085.695 -716.7994 -4085.474 C -716.7994 -4085.253 -716.9785 -4085.074 -717.1994 -4085.074 C -717.86215 -4085.074 -718.3994 -4084.537 -718.3994 -4083.874 C -718.3994 -4083.653 -718.5785 -4083.474 -718.7994 -4083.474 C -719.0203 -4083.474 -719.1994 -4083.653 -719.1994 -4083.874 C -719.1994 -4084.9786 -718.304 -4085.874 -717.1994 -4085.874 Z M -715.5994 -4085.074 C -715.8203 -4085.074 -715.9994 -4085.253 -715.9994 -4085.474 C -715.9994 -4085.695 -715.8203 -4085.874 -715.5994 -4085.874 L -713.9994 -4085.874 C -713.7785 -4085.874 -713.5994 -4085.695 -713.5994 -4085.474 C -713.5994 -4085.253 -713.7785 -4085.074 -713.9994 -4085.074 Z M -719.1994 -4081.474 C -719.1994 -4081.695 -719.0203 -4081.874 -718.7994 -4081.874 C -718.5785 -4081.874 -718.3994 -4081.695 -718.3994 -4081.474 L -718.3994 -4079.874 C -718.3994 -4079.653 -718.5785 -4079.474 -718.7994 -4079.474 C -719.0203 -4079.474 -719.1994 -4079.653 -719.1994 -4079.874 Z M -719.1994 -4077.474 C -719.1994 -4077.695 -719.0203 -4077.874 -718.7994 -4077.874 C -718.5785 -4077.874 -718.3994 -4077.695 -718.3994 -4077.474 L -718.3994 -4075.874 C -718.3994 -4075.653 -718.5785 -4075.474 -718.7994 -4075.474 C -719.0203 -4075.474 -719.1994 -4075.653 -719.1994 -4075.874 Z M -719.1994 -4073.474 C -719.1994 -4073.695 -719.0203 -4073.874 -718.7994 -4073.874 C -718.5785 -4073.874 -718.3994 -4073.695 -718.3994 -4073.474 C -718.3994 -4072.8113 -717.86215 -4072.274 -717.1994 -4072.274 C -716.9785 -4072.274 -716.7994 -4072.095 -716.7994 -4071.874 C -716.7994 -4071.653 -716.9785 -4071.474 -717.1994 -4071.474 C -718.304 -4071.474 -719.1994 -4072.3695 -719.1994 -4073.474 Z M -715.5994 -4071.474 C -715.8203 -4071.474 -715.9994 -4071.653 -715.9994 -4071.874 C -715.9994 -4072.095 -715.8203 -4072.274 -715.5994 -4072.274 L -713.9994 -4072.274 C -713.7785 -4072.274 -713.5994 -4072.095 -713.5994 -4071.874 C -713.5994 -4071.653 -713.7785 -4071.474 -713.9994 -4071.474 Z M -711.9994 -4086.274 C -711.9994 -4086.495 -711.8203 -4086.674 -711.5994 -4086.674 C -711.3785 -4086.674 -711.1994 -4086.495 -711.1994 -4086.274 L -711.1994 -4083.074 C -711.1994 -4082.853 -711.3785 -4082.674 -711.5994 -4082.674 C -711.8203 -4082.674 -711.9994 -4082.853 -711.9994 -4083.074 Z M -711.9994 -4076.674 C -711.9994 -4076.895 -711.8203 -4077.074 -711.5994 -4077.074 C -711.3785 -4077.074 -711.1994 -4076.895 -711.1994 -4076.674 L -711.1994 -4071.074 C -711.1994 -4070.853 -711.3785 -4070.674 -711.5994 -4070.674 C -711.8203 -4070.674 -711.9994 -4070.853 -711.9994 -4071.074 Z M -709.1994 -4085.074 C -709.4203 -4085.074 -709.5994 -4085.253 -709.5994 -4085.474 C -709.5994 -4085.695 -709.4203 -4085.874 -709.1994 -4085.874 L -706.7994 -4085.874 C -705.69484 -4085.874 -704.7994 -4084.9786 -704.7994 -4083.874 L -704.7994 -4073.474 C -704.7994 -4072.3695 -705.69484 -4071.474 -706.7994 -4071.474 L -709.1994 -4071.474 C -709.4203 -4071.474 -709.5994 -4071.653 -709.5994 -4071.874 C -709.5994 -4072.095 -709.4203 -4072.274 -709.1994 -4072.274 L -706.7994 -4072.274 C -706.1367 -4072.274 -705.5994 -4072.8113 -705.5994 -4073.474 L -705.5994 -4083.874 C -705.5994 -4084.537 -706.1367 -4085.074 -706.7994 -4085.074 Z" fill="#66727e"/>
      </g>
    </g>
  </g>
</svg>
