<svg height="25" viewBox="-583.382 -4009.529 25 25" width="25" xmlns="http://www.w3.org/2000/svg"><g fill="none"><path d="M-579.042-4009.03h16.32a3.84 3.84 0 0 1 3.84 3.84v16.32a3.84 3.84 0 0 1-3.84 3.84h-16.32a3.84 3.84 0 0 1-3.84-3.84v-16.32a3.84 3.84 0 0 1 3.84-3.84z" fill="#fff"/><path d="M-579.042-4009.03h16.32a3.84 3.84 0 0 1 3.84 3.84v16.32a3.84 3.84 0 0 1-3.84 3.84h-16.32a3.84 3.84 0 0 1-3.84-3.84v-16.32a3.84 3.84 0 0 1 3.84-3.84z" stroke="#000" stroke-linecap="round" stroke-linejoin="round" stroke-width=".25"/><path d="M-570.882-3995.881l6.74-3.548-6.74-3.548-6.742 3.548zm-7.787-3.902l7.6-4a.4.4 0 0 1 .373 0l7.6 4a.4.4 0 0 1 0 .708l-7.6 4a.4.4 0 0 1-.373 0l-7.6-4a.4.4 0 0 1 0-.708zm7.787 6.302l7.413-3.902a.4.4 0 0 1 .373.708l-7.6 4a.4.4 0 0 1-.373 0l-7.6-4a.4.4 0 1 1 .373-.708zm0 2.4l7.413-3.902a.4.4 0 0 1 .373.708l-7.6 4a.4.4 0 0 1-.373 0l-7.6-4a.4.4 0 1 1 .373-.708z" fill="#66727e"/></g></svg>