<?xml version="1.0" encoding="UTF-8"?>
<svg viewBox="0 0 640 480" xmlns="http://www.w3.org/2000/svg">
 <path d="m361.33 463.61c-0.34293-0.54581-1.6181-0.99921-2.8338-1.0075-1.2157-0.008423-2.8912-0.45194-3.7235-0.98569-1.0419-0.66824 0.057983-0.7981 3.5308-0.41705 7.5052 0.82367 9.5838 1.3506 9.5838 2.4293 0 1.2796-5.752 1.263-6.5573-0.018982zm80.809-8.5273c-0.37753-0.96774 0.039093-2.4405 0.97949-3.4628 2.8725-3.1225-0.04837-5.2612-3.0938-2.2654-1.2316 1.2115-1.9408 1.3374-2.7959 0.49625-1.6403-1.6137-5.3172-1.3902-6.8408 0.41571-1.5921 1.8873-4.3199 3.3664-8.2558 4.4769-2.4684 0.69632-3.3926 0.43005-5.4167-1.5612-2.1196-2.0852-9.8232-5.451-12.476-5.451-0.49689 0-1.0485 0.99365-1.2257 2.2081-0.37741 2.585-4.1652 4.7322-7.0422 3.9922-1.1054-0.28445-2.4282-1.5993-2.9394-2.9222-0.51114-1.3228-1.3533-2.1475-1.8712-1.8326-0.51788 0.31485-1.5986-0.35019-2.4016-1.478-1.1469-1.611-2.0809-1.9037-4.3565-1.3656-1.593 0.37665-2.584 0.35187-2.2021-0.055115 0.38187-0.40695-0.47888-1.8095-1.9128-3.1168s-2.0868-2.377-1.4509-2.377 1.1561-0.6698 1.1561-1.4886c0-0.8187-0.68097-1.4886-1.5132-1.4886-0.83234 0-1.5133-0.66986-1.5133-1.4886 0-0.8187 0.56747-1.4955 1.261-1.5038 0.87561-0.010559 0.81836-0.29074-0.18735-0.91672-1.1885-0.73987-1.2158-1.1773-0.15198-2.4383 1.0692-1.2675 1.0075-1.8206-0.35193-3.158-1.3601-1.338-1.4217-1.8925-0.35239-3.1723 1.1418-1.3664 0.90591-1.4749-1.9828-0.91205-2.6858 0.52325-3.2758 0.32919-3.2632-1.0732 0.03894-4.3177 4.5264-6.052 16.126-6.2324 3.6065-0.056152 5.8763-0.37613 5.0441-0.71115-0.99863-0.40195-0.14096-1.0244 2.522-1.8302 2.2838-0.69122 3.1377-1.2543 1.9672-1.2975-1.9716-0.072754-4.4892-1.7851-4.4892-3.0535 0-0.68973 8.2875-0.27847 12.345 0.61267 1.9953 0.43817 2.9322 0.16922 3.3762-0.96912 1.0806-2.7702 13.157-7.6921 18.425-7.509 2.5812 0.089691 5.4466-0.14581 6.3674-0.52335 1.1572-0.47449 1.8686-0.084442 2.3033 1.263 0.69995 2.1694 4.2502 3.5192 5.2155 1.9828 0.3411-0.54291 1.1516 0.057281 1.8013 1.3336 0.64966 1.2764 2.0734 2.3672 3.1639 2.4237 1.0905 0.05661 3.3447 0.65405 5.0092 1.3276 4.7249 1.912 8.8836 2.3264 12.765 1.272 2.3451-0.63699 4.1831-0.63 5.3645 0.020447 2.0044 1.1034 9.0344-0.52533 11.63-2.6948 0.83231-0.69553 3.6386-1.4863 6.2361-1.7574 4.4072-0.45981 4.933-0.25928 7.8674 3.0013 2.1003 2.3338 2.8089 3.8243 2.1338 4.4884-0.59421 0.58462-0.6554 1.6472-0.14853 2.579 0.47412 0.87161 1.0204 2.0312 1.2138 2.5772 0.19339 0.54578 1.4866 0.99237 2.8737 0.99237 2.3078 0 2.6219 0.50302 2.169 3.4735-0.083191 0.54581-0.8808 0.9924-1.7724 0.9924-1.0999 0-1.4133 0.53287-0.97464 1.6574 1.7961 4.6046 2.6006 10.539 1.5908 11.736-0.76718 0.90939-0.67368 1.4088 0.33478 1.7896 0.76947 0.29044 1.6424 1.444 1.94 2.5633 0.51364 1.9325 0.19025 2.0156-6.4045 1.6469-3.8762-0.21668-7.2138 0.038818-7.5526 0.57809-0.38394 0.61118-1.0972 0.56616-1.9406-0.12253-0.92239-0.75308-1.5352-0.76788-1.9874-0.048187-0.35956 0.57236-2.653 1.0406-5.0966 1.0406-2.4435 0-6.7652 0.90054-9.6038 2.0012-4.4676 1.7324-5.7012 1.842-9.1817 0.81616-3.1415-0.92587-4.7712-0.91809-7.4533 0.036011-2.6198 0.93188-3.9486 0.94937-5.6118 0.073761-1.7124-0.90155-2.3655-0.85959-3.0491 0.19571-0.47846 0.73868-0.65265 1.9251-0.38705 2.6366 0.26553 0.71152-0.36252 2.1862-1.3957 3.2772-1.7145 1.8103-1.9359 1.8365-2.5354 0.29959zm-300.85-0.1716c-0.61902-0.40106-2.0781-2.5779-3.2423-4.8374-1.4132-2.7428-3.1349-4.4574-5.1796-5.1586-3.4221-1.1736-3.9046-3.1609-1.3724-5.6519 1.3803-1.3579 1.467-2.0145 0.47292-3.5805-0.97435-1.5348-0.92178-2.3328 0.26335-3.9973 1.306-1.8343 1.2981-2.3539-0.067139-4.4036-1.4031-2.1066-1.3898-2.4796 0.14232-3.9867 0.9296-0.91452 1.4706-2.4889 1.2021-3.4986-0.26842-1.0098-0.047195-2.1039 0.49161-2.4316 0.53882-0.32758 0.85043-1.8075 0.69249-3.2888-0.17554-1.6463 0.6115-3.8171 2.0245-5.5843 1.3263-1.6587 1.8508-3.0422 1.2304-3.2456-0.59467-0.19495-1.0812-1.2105-1.0812-2.2566 0-1.4217-0.71347-1.9021-2.8247-1.9021-1.5536 0-3.2638 0.43192-3.8005 0.95987-1.1268 1.1085-5.4806 0.23898-5.4806-1.0946 0-0.49255-1.1349-0.61536-2.522-0.27289-2.1623 0.53397-2.522 0.285-2.522-1.7451 0-1.3022-0.72035-3.3796-1.6008-4.6161-1.262-1.7725-1.3446-2.552-0.39009-3.6834 0.66587-0.78925 1.5722-1.2152 2.0141-0.94656 1.3074 0.79489 4.012-0.61148 4.012-2.0862 0-1.899 4.727-2.8957 6.5756-1.3864 0.94572 0.77212 3.3422 1.0554 6.4466 0.76193 2.7177-0.2569 5.7796 0.015869 6.8043 0.60614s6.1757 1.1768 11.447 1.3036c11.771 0.28302 16.226 0.81854 17.034 2.0475 1.4286 2.1733 7.108 4.0297 12.26 4.0074 8.4688-0.036652 9.0409 0.076324 9.0409 1.7851 0 0.96048 0.56267 1.3825 1.4146 1.0608 0.77802-0.29367 1.6842-0.26883 2.0137 0.055328 1.0712 1.0538 6.6599 1.2703 6.6599 0.25796 0-0.5412 0.45398-0.98407 1.0088-0.98407 0.55484 0 1.0088 1.2605 1.0088 2.801 0 3.2609-4.7696 6.8407-11.907 8.9368-2.3874 0.7012-4.6239 2.0314-4.9698 2.956-0.34598 0.92471-2.451 4.2447-4.6779 7.3778l-4.0489 5.6967 1.6603 3.4251c1.6444 3.3924 1.6318 3.4552-1.3216 6.5655-1.6401 1.7272-2.982 3.9863-2.982 5.0202 0 1.1946-0.70874 1.8799-1.9442 1.8799-1.0693 0-3.311 1.6312-4.9815 3.6249-2.7472 3.2788-3.5011 3.6196-7.8918 3.5681-2.6699-0.031311-7.5068 0.4169-10.749 0.99603-4.6318 0.82748-6.1249 1.5512-6.9714 3.3789-1.1528 2.4891-1.6286 2.7089-3.3921 1.5665zm202.35-5.4354c-0.94016-1.9833-1.6256-2.4474-2.5271-1.7114-1.5244 1.2446-2.8182-1.2898-1.3806-2.7041 0.58527-0.57571-0.010284-1.8093-1.5688-3.2497l-2.5122-2.3218 2.1488-1.8332c1.1818-1.0084 2.6467-1.8317 3.2554-1.8296 1.6395 0.005493 8.0422 3.992 8.987 5.5956 0.45023 0.76413 1.2447 1.1304 1.7654 0.81372 0.52072-0.31662 0.94681-0.10269 0.94681 0.47531 0 1.3324-1.5983 1.3417-4.1016 0.023651-2.3301-1.2268-2.4152-0.74908-0.51172 2.872 1.512 2.8763 0.61139 6.5716-0.98309 4.0336-0.60333-0.96033-0.98257-0.80072-1.5164 0.6384-0.64841 1.748-0.82678 1.6764-2.002-0.80249zm-55.684-1.7444c-0.69302-1.0917-2.1722-1.9924-3.2872-2.0018-2.8722-0.023956-11.383-5.2043-10.886-6.6262 0.22772-0.65164 1.0198-0.95615 1.7601-0.6767 0.7403 0.27951 1.6351 0.047974 1.9885-0.5145 0.43701-0.69559 1.3602-0.70096 2.887-0.016663 1.4471 0.64868 4.3015 0.68878 8.0345 0.11285 3.1845-0.4913 5.7739-0.62592 5.7543-0.29916-0.019653 0.32681-0.65985 1.7032-1.4226 3.0588-0.91138 1.6198-1.0733 3.0412-0.47229 4.146 2.1344 3.9233-1.9694 6.5774-4.3564 2.8174zm-165.29-1.6869c-2.4456-0.37317-2.584-0.6954-2.3006-5.3554 0.16582-2.727 0.51908-5.3046 0.78504-5.7279 0.68391-1.0886-2.7932-3.8197-4.2535-3.3409-1.6372 0.53696-1.5387-2.8284 0.15371-5.2533 2.409-3.4517 4.7084-15.79 3.6312-19.485-1.2849-4.4073-1.2673-4.492 1.0555-5.0896 1.1576-0.29776 2.0196-0.029846 2.0221 0.62857 0.002487 0.6312 1.5914 1.2275 3.5309 1.3252 1.9395 0.097656 3.5263-0.23727 3.5263-0.74432s1.0857-0.92188 2.4127-0.92188c3.2939 0 4.4858 4.3829 1.9434 7.1466-1.0525 1.144-1.6715 3.1074-1.4967 4.747 0.16397 1.5378-0.14272 3.0639-0.6815 3.3915-0.53883 0.32764-0.73532 1.5148-0.43671 2.6381 0.40031 1.506-0.028931 2.1897-1.6341 2.6026l-2.1771 0.5601 1.9535 3.2571c1.7618 2.9375 1.8053 3.4652 0.44302 5.3784-1.1567 1.6246-1.2378 2.4445-0.34656 3.501 0.89502 1.0609 0.77312 1.9662-0.52776 3.9194-0.9304 1.3968-1.4317 3.2063-1.1139 4.0209 0.47731 1.2237-2.3786 3.903-3.5682 3.3476-0.1752-0.081818-1.4895-0.32742-2.9207-0.54578zm232.6-6.2714c-0.34946-0.55621-2.7596-2.068-5.3558-3.3597-3.493-1.7378-6.0704-2.2809-9.9116-2.0885-4.5772 0.22925-5.3169-0.011597-6.2546-2.036-0.92053-1.9875-0.76526-2.3529 1.1558-2.7195 2.0362-0.38864 2.0499-0.43475 0.1669-0.55875-3.5146-0.23142-6.8494-9.067-3.4222-9.067 0.51416 0 0.93488-0.6152 0.93488-1.3671 0-0.75189 0.6759-1.919 1.5021-2.5935 0.82611-0.67456 1.2533-1.6224 0.94925-2.1064-0.47263-0.75229 1.5744-1.313 3.7569-1.0292 0.36292 0.04718 1.2129-0.56988 1.889-1.3711 0.676-0.8013 2.5354-1.4569 4.132-1.4569s2.903-0.44659 2.903-0.9924c0-0.54587 1.1054-0.99237 2.4564-0.99237s3.6984-0.46466 5.2165-1.0324c2.0444-0.76462 3.6963-0.67914 6.3708 0.32959 1.9858 0.74918 5.0584 1.2672 6.8279 1.1516 2.0541-0.1344 3.4229 0.31702 3.7864 1.2486 0.95578 2.4502-0.314 3.1677-3.7385 2.1123-3.5679-1.0994-4.0794-1.1254-7.8047-0.3971-1.3871 0.27124-3.43 0.66287-4.5397 0.8703-1.1097 0.20752-2.0787 1.0035-2.1534 1.7688-0.074707 0.76538-0.18854 1.8381-0.25293 2.384-0.064392 0.54587-1.2266 1.0553-2.5827 1.1321-1.7917 0.10153-2.566-0.44101-2.8327-1.9848-0.34222-1.9808-0.46018-1.9381-1.7433 0.63147-1.0528 2.1082-1.0981 3.0297-0.19308 3.9201 0.65076 0.6402 1.1832 1.9679 1.1832 2.9504 0 0.98251 0.681 1.7864 1.5132 1.7864 0.83228 0 1.5132 0.47299 1.5132 1.051 0 0.578-0.45398 0.77496-1.0088 0.43765-1.7642-1.0726-3.2551 0.51798-1.943 2.0732 0.94461 1.1197 0.8028 1.4086-0.70767 1.4419-1.4057 0.030945-1.0985 0.47531 1.2005 1.7367 5.2086 2.8579 7.183 4.5771 7.9308 6.9054 0.73785 2.2976 0.1831 3.0155-0.94391 1.2216zm-58.267-1.5718c-0.74426-0.73206 1.0455-5.5923 2.3516-6.3865 0.54804-0.33322 0.072388-3.1158-1.1327-6.6264-1.5906-4.6332-2.6284-6.1881-4.4272-6.6322-1.4013-0.34601-2.606-1.585-2.9849-3.0698-0.40753-1.5975-1.343-2.4897-2.6104-2.4897-1.0863 0-2.687-1.0688-3.5571-2.3751-1.0993-1.6505-2.9119-2.5713-5.9417-3.0182-3.7604-0.55475-5.4186-1.7134-12.06-8.4276-4.2353-4.2815-7.7031-8.394-7.7062-9.139-0.003082-0.745-0.45288-2.9383-0.99948-4.8739-0.79367-2.8105-1.9384-3.9708-5.6839-5.761l-4.6901-2.2416-3.835 3.0318c-4.2055 3.3247-5.0901 3.6611-4.7099 1.7913 0.13872-0.68228-0.60204-1.243-1.6461-1.246-1.044-0.00296-2.5748-1.0078-3.4017-2.233-1.1028-1.634-1.1709-2.2274-0.25551-2.2274 0.90936 0 0.83202-0.62436-0.28503-2.3015-1.4062-2.1112-1.3722-2.4003 0.41154-3.4961 1.5326-0.94159 1.7259-1.5965 0.91249-3.0916-1.5192-2.7925-1.3983-2.9388 3.0033-3.6312 3.6423-0.57288 4.5194-1.3343 4.1547-3.6064-0.25687-1.6004 1.8506-0.62064 3.7356 1.7367 2.3386 2.9247 3.1948 3.1215 3.2388 0.74442 0.043442-2.3511 2.6563-5.7118 3.198-4.1132 0.61995 1.8297 4.8405 2.1656 4.8405 0.38534 0-0.81528 0.45395-1.4824 1.0088-1.4824 0.55487 0 1.0088-0.71768 1.0088-1.5948 0-1.082 0.54169-1.3903 1.6848-0.95877 0.92664 0.34979 2.0078 0.12183 2.4026-0.50653 1.2068-1.921 7.3538-2.1404 8.7189-0.31107 0.6626 0.88797 2.658 1.9068 4.434 2.2641 2.7973 0.56284 3.2781 1.118 3.5943 4.15 0.33099 3.1742 0.058899 3.6117-2.9208 4.6968-5.5205 2.0104-6.001 2.5481-4.8768 5.4571 0.67984 1.759 0.67328 2.816-0.019958 3.2375-0.61017 0.371-0.73218 1.9008-0.29962 3.7567 0.40134 1.722 0.6831 3.9124 0.62616 4.8676-0.056946 0.9552 0.3222 1.7367 0.84259 1.7367 0.52032 0 0.94614-0.45074 0.94614-1.0015 0-0.55087 1.5982 0.007355 3.5516 1.2405 2.7407 1.7302 3.9063 3.4234 5.1051 7.4164 2.1083 7.0225 7.7188 11.62 12.993 10.646 3.5813-0.66095 4.5328 0.20334 2.4642 2.2383-0.80286 0.78986 0.65066 2.0704 5.2962 4.666 9.2827 5.1864 13.78 9.0921 12.237 10.626-0.96991 0.96344-1.3666 0.86429-1.8876-0.47159-0.36285-0.93021-2.0406-2.3937-3.7282-3.2522-2.9394-1.4953-3.1476-1.4625-4.9506 0.78101-3.917 4.8741-4.0544 5.633-1.3373 7.3843 3.046 1.9635 3.3158 5.0019 0.52142 5.8743-1.1097 0.34653-2.0176 1.2854-2.0176 2.0866 0 1.6952-2.9197 6.349-3.9832 6.349-0.39853 0-0.99829-0.26926-1.3327-0.5983zm-51.728-9.7321c-1.6842-1.2115-1.8111-1.8367-0.87019-4.289 0.81288-2.1186 0.78388-3.929-0.11081-6.9098-1.2024-4.0061-1.1861-4.0513 1.9978-5.545 3.0353-1.4239 3.2835-1.3902 4.5587 0.61847 0.74174 1.1685 1.5024 3.4237 1.6903 5.0114 0.43007 3.6336-1.4648 10.771-2.6658 10.04-0.49487-0.30084-1.2887 0.13672-1.764 0.97238-0.75436 1.326-1.1152 1.3388-2.836 0.10101zm82.286-6.7539c-0.012329-0.936-0.96924-2.2003-2.1265-2.8096-1.1572-0.60931-1.8542-1.3536-1.5488-1.654 0.30548-0.30051 0.13336-1.3221-0.38245-2.2702-0.51581-0.94812-0.65216-2.0048-0.30295-2.3484 1.0373-1.0204 1.106-9.9095 0.091705-11.857-1.1984-2.3009 0.72723-4.7659 3.0592-3.9162 3.3521 1.2215 5.1002 4.2005 4.522 7.7059-0.39835 2.4145 0.065735 4.326 1.67 6.8797 1.2218 1.9449 1.7611 3.5361 1.1984 3.5361-0.56271 0-1.2882 0.78149-1.6122 1.7368-0.324 0.95517-1.4794 2.8532-2.5676 4.2178-1.5699 1.9685-1.9832 2.1295-2.001 0.7792zm48.002-7.6227c-1.9611-0.7456-3.1816-5.604-1.6429-6.5395 0.46399-0.28214 0.60843-1.3977 0.32095-2.4791-0.65851-2.4771 4.1637-4.7059 6.3391-2.9298 0.74051 0.60458 1.8183 0.81232 2.395 0.46161 0.57681-0.35071 1.5327 0.40723 2.1242 1.6843 0.59146 1.277 2.5228 2.9769 4.2918 3.7776l3.2163 1.4556-5.3929 0.3033c-4.1372 0.23257-5.899 0.84927-7.5662 2.6482-1.5389 1.6605-2.7314 2.1327-4.0854 1.6179zm-42.42-3.6635c-0.8631-0.84912-1.5693-2.6233-1.5693-3.9427 0-2.6244 2.8901-6.5912 4.2152-5.7856 0.45587 0.27719 0.82886 0.083588 0.82886-0.43008 0-1.6827 7.7731-1.1566 9.3436 0.63232 3.3785 3.8484 2.265 8.1239-2.1158 8.1239-1.0652 0-2.4177 0.57022-3.0056 1.267-1.5573 1.846-5.8806 1.9218-7.697 0.13507zm28.66-4.1944c-2.58-1.2292-3.7079-1.2625-6.9629-0.20572-4.1635 1.3518-6.3554 0.79452-5.5-1.3983 0.29077-0.74551-0.39029-2.1979-1.5136-3.2273-1.8594-1.7042-2.0665-3.1288-1.2359-8.5032 0.063293-0.40948 0.79599-0.74432 1.6283-0.74432 0.83228 0 1.5132-0.66995 1.5132-1.4887 0-0.8187-0.44229-1.4886-0.98291-1.4886-0.54059 0-1.6942-1.3533-2.5637-3.0072-1.3667-2.5999-1.3865-3.1983-0.146-4.4186 1.6008-1.5748 2.8134-1.0083 2.0471 0.95633-0.56512 1.4487 3.6969 2.3663 13.247 2.852 4.6046 0.23422 6.6964-0.12918 8.7422-1.5189 4.4359-3.0132 8.378-3.309 12.467-0.93564 1.992 1.1563 4.277 2.1024 5.0775 2.1024 2.15 0 1.768 1.6729-0.51611 2.2606-1.1048 0.28421-2.2885 1.7488-2.6922 3.3313-0.3963 1.5532-1.3249 3.4186-2.0636 4.1453-1.5032 1.4788-1.8423 3.585-0.43997 2.7324 1.306-0.79401 2.3772 2.5641 1.1904 3.7316-0.65964 0.64896-1.4862 0.5853-2.4325-0.18722-1.944-1.5872-6.7463 0.23535-7.4337 2.8213-0.8869 3.3366-6.69 4.4489-11.43 2.1907zm-114.74-1.4255c-0.058807-0.68228-0.38425-2.6642-0.72325-4.4043-0.50398-2.587-0.21591-3.3746 1.5803-4.3203 2.2445-1.1817 3.904-0.07785 3.9422 2.622 0.060074 4.247-4.4635 9.9992-4.7992 6.1026zm84.511-4.7849c0-1.4926-2.2302-3.5164-4.7375-4.2993-1.5589-0.48666-2.6489-0.002686-4.1105 1.8252-1.8639 2.3311-2.0849 2.3801-3.5129 0.77957-2.0523-2.3004-3.2008-6.1739-1.8305-6.1739 0.59222 0 1.0768-0.69635 1.0768-1.5473 0-0.85089 0.45715-1.2692 1.0159-0.92944 0.55878 0.33969 1.2883-0.080566 1.6212-0.93393 0.33286-0.85336 1.2376-1.5516 2.0105-1.5516 1.6896 0 1.8557-1.5938 0.26694-2.5598-0.7731-0.47-0.59241-0.99268 0.56314-1.6288 1.5538-0.85544 1.5161-1.0949-0.43466-2.7593-1.822-1.5545-1.9508-2.1145-0.87604-3.8075 1.0146-1.5981 1.0021-2.2907-0.06369-3.5542-0.88446-1.0484-0.94803-1.5692-0.19153-1.5692 0.62277 0 1.1324-0.44666 1.1324-0.99246 0-1.8298-2.2003-1.016-2.7397 1.0134-0.414 1.5574-0.83829 1.7567-1.898 0.89145-1.2571-1.0264-5.7557-1.5833-17.556-2.1738-3.9759-0.19898-4.5784 0.040314-4.8515 1.9264-0.18988 1.3118 1.4911 4.691 4.3003 8.6448l4.6121 6.4912-3.2726-0.2091c-3.4061-0.21765-9.5955-5.5986-7.7385-6.7276 0.51978-0.31604 0.026398-1.3925-1.0964-2.3921-1.1228-0.99966-2.0415-2.624-2.0415-3.6099 0-0.98578-0.88419-2.6027-1.9649-3.5932-1.2506-1.1461-1.6632-2.2811-1.1349-3.1219 0.5806-0.92426 1.0372-0.99112 1.52-0.22269 1.1378 1.811 4.4243 1.241 5.1107-0.88648 0.3522-1.0917 1.1167-1.9848 1.6989-1.9848 0.58212 0 0.81946-0.89902 0.52734-1.9979-0.57474-2.1621 1.6482-3.8856 4.4377-3.4404 0.89093 0.14221 3.3951 1.4142 5.565 2.8268 4.5722 2.9766 10.469 4.4845 10.469 2.677 0-0.64627 0.466-0.89172 1.0356-0.5455 0.56955 0.34625 0.96973 1.1542 0.88928 1.7953-0.29883 2.3812 0.12427 3.6467 1.2193 3.6467 0.61954 0 0.90186-0.78152 0.62741-1.7367-0.27454-0.95517-0.66797-2.3473-0.87436-3.0935-0.20633-0.74625 0.30579-1.5198 1.1381-1.7189 6.5168-1.5596 6.9117-1.5377 8.9806 0.49753 1.164 1.1452 2.1164 2.7376 2.1164 3.5389s1.0214 2.0295 2.2698 2.7292c1.2484 0.69971 2.2698 2.1168 2.2698 3.1489 0 1.0322 0.9079 2.372 2.0176 2.9773 1.1097 0.60532 2.3926 1.5472 2.851 2.093 0.53995 0.64294 1.0136 0.55554 1.3451-0.24808 0.28143-0.68228 0.83118-1.2406 1.2218-1.2406 1.1317 0 1.1469 4.2537 0.019989 5.5894-1.0801 1.2803 1.0721 6.5528 3.2039 7.849 0.68356 0.41556 0.27768 1.2226-1.0884 2.1639-1.3759 0.94797-1.9956 2.1892-1.682 3.3689 0.61243 2.304-0.41876 2.9824-4.6239 3.0419-1.7958 0.02536-4.2706 0.66516-5.4995 1.4218-2.6865 1.6541-3.3142 1.7133-3.3142 0.31238zm-134.96-3.3766c-1.1943-1.9536-6.4146-3.1898-12.252-2.9013-5.627 0.27811-11.78-1.8129-10.646-3.6178 0.32832-0.52261-0.07428-0.95013-0.89465-0.95013-1.2941 0-1.3106-0.49271-0.12445-3.7216 0.75194-2.0469 1.7674-7.071 2.2565-11.165 0.79416-6.6468 0.51296-8.9882 0.91672-10.974 0.48558-2.3885 0.15094-3.0478-2.047-4.0329-2.9334-1.3148-6.07-5.4061-5.2028-6.7865 0.30978-0.49304-0.40154-1.5612-1.5807-2.3737-1.1791-0.81244-1.8409-1.9595-1.4706-2.5489 0.40042-0.63739-0.18489-1.0718-1.444-1.0718-1.1646 0-3.9307-0.91013-6.147-2.0224-2.2163-1.1124-4.4863-1.7448-5.0443-1.4055-0.63365 0.38528-0.7782-0.30981-0.38492-1.8513 0.45773-1.7942 0.12676-2.7451-1.2122-3.4823-2.4248-1.3349-1.1938-2.4118 2.9086-2.5446 1.8168-0.058746 3.865-0.77676 4.5516-1.5955 1.0871-1.2963 1.4928-1.1818 3.1402 0.88705 1.1276 1.416 2.3823 2.0775 3.106 1.6375 0.66777-0.40604 2.6941-0.73822 4.5028-0.73822h3.2887l-0.6981-4.1186c-0.38396-2.2652-1.0549-4.952-1.491-5.9707-0.70361-1.6437-0.54852-1.7235 1.3778-0.70938 1.1938 0.62851 2.1706 1.5166 2.1706 1.9734 0 1.0723 7.4398 2.2525 9.4399 1.4976 0.84135-0.31769 1.2815-1.2138 0.9781-1.9916-0.37428-0.9596 0.91188-2.0509 4.0018-3.3954 4.5045-1.9601 6.7654-5.2899 6.7654-9.9635 0-1.0282 1.1988-2.1508 2.9312-2.7449 2.5488-0.87412 3.0002-0.74573 3.4601 0.98428 0.3959 1.4894 1.0539 1.8256 2.6173 1.3375 1.4055-0.43884 2.0884-0.21555 2.0884 0.68289 0 1.7683 3.3065 4.4961 4.8404 3.9931 0.66688-0.21869 1.2693 0.086212 1.3386 0.67752 0.069366 0.59134 0.1938 1.6333 0.27655 2.3156 0.082748 0.68228 0.98494 1.1702 2.0049 1.0842 1.0199-0.08606 3.1653 0.99252 4.7674 2.3969 1.6022 1.4043 4.0535 2.6729 5.4473 2.8192 1.3938 0.14615 4.9975 1.4122 8.0082 2.8133 3.0106 1.4011 5.956 2.5475 6.5452 2.5475 1.3978 0 1.3589 1.5866-0.1049 4.2773-0.64693 1.1892-1.698 4.1743-2.3358 6.6336-0.68582 2.6448-1.7508 4.49-2.6068 4.5167-0.79602 0.024841-1.3518 0.52988-1.2352 1.1224 0.1167 0.59247-0.67772 1.8696-1.7654 2.8379-1.0877 0.96829-1.9776 2.3134-1.9776 2.9893 0 0.67569-0.70975 1.4966-1.5772 1.8239-0.86746 0.32752-1.2823 1.0647-0.92198 1.6383 0.36037 0.57364 0.04866 1.7972-0.69267 2.7191-1.1487 1.4285-0.91309 1.4026 1.5945-0.17471 2.848-1.7915 2.9857-1.7927 4.2913-0.036224 0.85438 1.1494 0.99663 2.1612 0.38796 2.76-0.60867 0.59876-0.42297 1.9686 0.50655 3.7368 1.3597 2.5867 1.3141 2.8723-0.62125 3.8914-1.6615 0.87472-1.846 1.3874-0.90187 2.5064 0.65274 0.77368 0.93442 2.0538 0.6259 2.8447-0.80914 2.0744 3.0698 6.5746 5.0293 5.8349 1.3483-0.50897 1.4148-0.27298 0.43182 1.5338-0.63893 1.1744-1.584 2.1354-2.1002 2.1354-0.51619 0-2.3712 1.3777-4.1222 3.0615-1.8745 1.8026-3.8592 2.8578-4.8267 2.5662-0.90366-0.27243-3.1184-0.98026-4.9217-1.5728-8.5981-2.8258-8.8718-2.8386-12.95-0.59897-2.5947 1.425-4.064 2.9905-4.2858 4.5665-0.1857 1.3189-0.69606 2.7661-1.1342 3.2161-1.3108 1.3461-6.0913 1.4854-6.8769 0.20044zm115.52-3.1618c-2.0742-1.4518-3.7711-3.4136-3.7711-4.3597 0-0.94611-0.58197-1.9398-1.2933-2.2083-1.9808-0.74774-9.8036-12.431-9.8036-14.642 0-2.4153 0.87863-2.4878 2.6309-0.21695 1.178 1.5266 1.3441 1.5431 1.3722 0.13648 0.023499-1.1719 0.7746-1.4977 2.8064-1.2172 1.5258 0.21063 4.9925 0.5917 7.7037 0.84674 2.7112 0.25513 5.5427 0.96448 6.2923 1.5764 0.74951 0.61194 2.0494 0.85346 2.8888 0.5365 0.93524-0.353 1.526-0.01181 1.526 0.88141 0 0.8016-0.45398 1.4575-1.0088 1.4575-0.55487 0-1.0088 0.89322-1.0088 1.9849 0 1.0916 0.43973 1.9849 0.97714 1.9849 0.53742 0 0.71362 0.67551 0.39154 1.5012-0.32208 0.82578-0.025299 2.1655 0.65961 2.9773 1.0346 1.2264 0.88837 1.476-0.86432 1.476-1.553 0-1.9396 0.43558-1.4653 1.6515 0.40253 1.032 0.24286 1.4074-0.42578 1.001-1.4402-0.8757-4.4492 3.7935-3.6933 5.7312 0.80597 2.0661 0.47461 1.9731-3.9143-1.099zm42.414-9.4244c-0.71109-0.44391-2.3411-0.81393-3.6222-0.82227-1.3355-0.008728-2.0559-0.45047-1.6885-1.0354 0.35251-0.56107-0.41513-1.886-1.7059-2.9443-1.3408-1.0993-1.7807-1.9383-1.0262-1.9571 0.72626-0.018219 1.0589-0.44955 0.73908-0.95856-0.31979-0.50903-1.9198-0.88815-3.5554-0.84241-3.4632 0.096832-6.395-1.9227-5.6317-3.8796 0.31271-0.8016-0.49667-1.8202-1.9717-2.4813-1.3762-0.61685-2.5021-1.9208-2.5021-2.8977 0-0.97699-0.79443-2.271-1.7654-2.8756-0.97095-0.60464-1.3115-1.3037-0.75659-1.5534 4.5479-2.0472 6.0032-3.236 6.5918-5.3853 0.72238-2.6372 7.0272-12.896 7.0272-11.434 0 0.47492 1.0445-0.10193 2.3212-1.2818 1.8715-1.7296 2.8976-1.9834 5.2963-1.3104 1.6363 0.45923 4.0859 0.66623 5.4436 0.46005 1.4071-0.21372 2.807 0.22009 3.2556 1.0087 0.66934 1.1766 1.5075 1.1576 5.602-0.12704 2.6482-0.83081 5.5316-2.1128 6.4075-2.8487 2.6704-2.2434 3.5354-1.607 7.9608 5.8571 3.5485 5.9849 4.3218 8.2361 4.598 13.385 0.18268 3.4044 0.62216 7.0887 0.97668 8.1875 0.71136 2.2049 4.4157 2.7192 6.2918 0.8735 1.2498-1.2294 4.3049-0.504 4.3049 1.0222 0 1.614-3.3964 4.4684-3.8221 3.2122-0.20972-0.61893-0.72556-1.1254-1.1464-1.1254-0.93012 0-3.102 6.8552-3.102 9.7913 0 1.4562-0.63034 2.1178-2.0176 2.1178-1.1097 0-2.0176-0.41193-2.0176-0.91547 0-1.4553-6.9141-3.3058-9.7424-2.6076-1.4155 0.34952-3.7436 1.3896-5.1737 2.3115-2.7703 1.7857-13.26 2.4976-15.569 1.0566zm71.268-6.444c-0.59549-0.21808-0.89481-1.6558-0.66519-3.1951 0.34308-2.2994-0.17352-3.1668-2.8957-4.8623l-3.3132-2.0638 3.761-1.7643c5.14-2.4114 4.5355-4.6776-1.3604-5.0995-2.4926-0.17838-5.2002-0.55139-6.0169-0.82889-1.3043-0.44318-1.3048-0.6141-0.004913-1.4044 1.2562-0.76373 1.1877-1.1101-0.45297-2.2903-1.0633-0.76486-2.6499-1.2559-3.526-1.0914-6.0549 1.137-7.1414 1.5985-7.1414 3.0329 0 3.0766-8.9346 9.8831-14.339 10.924-2.0198 0.38876-1.637-0.86722 2.2329-7.3274 2.3962-4.0002 4.0353-5.3365 4.0353-3.2901 0 0.51459 0.9693 0.75183 2.1541 0.52737 2.5071-0.47501 3.8181-1.4628 1.9413-1.4628-0.70666 0-1.0363-0.6373-0.73248-1.416 0.30377-0.77884-0.10159-1.95-0.90091-2.6026-0.79929-0.65262-1.4532-2.2483-1.4532-3.5461 0-1.5064-0.58673-2.3595-1.6226-2.3595-1.1902 0-1.4671-0.60938-1.0393-2.2862 0.38284-1.5007-0.017975-2.7794-1.1666-3.7216-5.3873-4.4192-16.707-5.9181-19.458-2.5763-2.2995 2.7936-11.734 5.7923-12.45 3.957-0.29697-0.76129-1.7332-1.2482-3.3261-1.1276-4.5973 0.34808-11.087-1.2154-12.807-3.0855-2.1269-2.312-0.35748-8.2622 2.1729-7.3071 1.2918 0.4877 1.4579 0.14334 0.86688-1.797-0.40213-1.3202-0.81558-2.8794-0.91876-3.4648-0.23047-1.3075 6.9825-9.3559 8.3847-9.3559 0.5563 0 1.0806-0.55823 1.1651-1.2405 0.084503-0.68231 0.22376-1.9105 0.30942-2.7292 0.085693-0.81873-0.58054-2.6051-1.4805-3.9698-1.632-2.4746-1.6258-5.9545 0.010498-5.9545 0.47455 0 1.5829-0.7084 2.4631-1.5743 2.6292-2.5865 19.056-1.9107 20.882 0.85904 0.35651 0.5408 2.702 1.0347 5.2123 1.0974 2.5102 0.062714 4.9007 0.44519 5.3119 0.84979 0.41128 0.40463 1.3279 0.26199 2.0371-0.31699 0.91184-0.74448 1.9102-0.7258 3.4096 0.063599 1.1661 0.61392 2.9573 0.85492 3.9803 0.53552 1.1573-0.36133 2.0839-0.007141 2.4523 0.93741 1.058 2.7121 2.6732 1.6042 2.6732-1.8338 0-4.3152 1.9778-5.8484 7.7933-6.0415 2.5794-0.085663 4.8537-0.63937 5.0539-1.2303 0.20026-0.59103 1.199-0.85977 2.2195-0.5972 1.0204 0.26248 2.1228 0.051697 2.4496-0.46851 1.147-1.8258 5.7497-5.19e-4 7.2643 2.8807 0.82516 1.5698 1.1134 2.8543 0.64038 2.8543s-0.6601 1.3397-0.4158 2.9773c0.41867 2.8064 1.5236 3.4882 4.9617 3.0616 1.412-0.17517 4.8999 4.6508 4.0006 5.5354-0.3331 0.32767-0.13995 1.4517 0.42917 2.4979 0.70355 1.2932 1.6619 1.7062 2.994 1.2902 1.1609-0.36246 2.6056 0.024109 3.5455 0.94864 1.4171 1.394 1.8169 1.4013 3.7522 0.067841 3.0859-2.1264 4.0739-1.8833 6.1068 1.5022 0.98908 1.6472 2.2135 2.7423 2.721 2.4338 1.1593-0.7049 10.295 2.4396 13.069 4.4985 1.9979 1.4825 2.0086 1.6156 0.27994 3.4983-1.8074 1.9685-2.3333 5.0764-1.171 6.9193 0.63864 1.0125 0.43372 3.5959-0.46869 5.9094-0.31335 0.80331-1.5136 1.0984-3.1875 0.78354-2.1001-0.3949-3.3287 0.18848-5.6406 2.6785-1.6256 1.7509-2.7312 3.5406-2.457 3.9771 0.27429 0.43652-1.5477 1.3574-4.0487 2.0462-2.501 0.6889-4.7894 1.6378-5.0853 2.1088-0.29584 0.47095-1.2067 0.85632-2.0241 0.85632-0.81726 0-3.1738 0.74121-5.2367 1.6471-2.0629 0.90582-4.0548 1.6874-4.4265 1.7367-1.635 0.21704-5.8815 4.6957-5.8815 6.2031 0 0.91336 0.2775 1.3876 0.61658 1.054 0.33911-0.33365 1.7532 0.72217 3.1424 2.3463 1.8712 2.1876 3.0839 2.796 4.6796 2.3473 1.1847-0.33307 2.9484-0.82361 3.9194-1.09 1.1002-0.30191 1.7654 0.061737 1.7654 0.965 0 1.8805-2.5467 2.8103-5.6193 2.0517-1.7046-0.4209-2.6185-0.12369-3.0542 0.99329-0.34195 0.87665-1.314 1.594-2.1602 1.594-0.8461 0-2.9539 0.83737-4.6839 1.8608-1.73 1.0235-3.6328 1.6825-4.2282 1.4644zm-142.78-13.002c-2.593-4.5728-1.9492-6.6467 2.1214-6.834 3.6396-0.16745 10.336-1.5735 13.265-2.7855 3.094-1.2801 3.0356 1.4344-0.068481 3.178-2.2104 1.2416-2.9127 2.2356-2.497 3.5339 0.40362 1.2602-0.03772 1.9649-1.4597 2.3307-1.2295 0.31634-1.823 1.0763-1.4958 1.9153 0.64154 1.6447-0.12079 1.7562-2.7048 0.39569-1.2635-0.66525-2.0974-0.66525-2.5153 0-1.1184 1.7802-3.0642 1.0538-4.6451-1.7341zm103.86 0.0586c-0.08078-0.98746-0.24115-4.1847-0.35632-7.105s-0.61652-5.5999-1.1141-5.9545c-0.93875-0.66913-1.6536-1.7508-5.8365-8.8312l-2.491-4.2166 2.4699-0.6098c2.5817-0.63745 8.4837 1.2281 8.4837 2.6815 0 0.46249 0.68094 0.58386 1.5132 0.26968 0.83228-0.31424 1.5133-0.076904 1.5133 0.52728 0 0.60428 0.68094 1.0986 1.5132 1.0986 1.7847 0 1.958 1.1504 0.40356 2.6795-0.80707 0.79401-0.55908 1.6334 0.90924 3.0778 1.1104 1.0924 2.3213 2.9234 2.6909 4.069 0.3696 1.1455 1.0811 2.0828 1.5812 2.0828 0.50003 0 0.64911 0.66675 0.33121 1.4816-0.38376 0.98392-1.3609 1.2883-2.9087 0.90613-1.9997-0.49374-2.6135 0.053009-4.3202 3.8486-2.2361 4.973-4.159 6.7257-4.3825 3.9946zm-77.296-2.4037c-6.1724-3.0056-8.5042-6.2601-7.6742-10.71 0.36597-1.9621 1.0571-3.7171 1.5358-3.9003 0.47876-0.18304 0.61392-0.74127 0.30026-1.2405-0.31363-0.49918 0.088959-0.90765 0.89456-0.90765 0.8057 0 1.7499-0.73065 2.0982-1.6237 0.57687-1.4788 0.78995-1.4843 2.3871-0.062408 2.1764 1.9376 10.31 1.2074 10.31-0.9256 0-0.78686 1.0606-1.3579 2.522-1.3579 1.3871 0 2.5221-0.40478 2.5221-0.89951 0-0.49475 0.85483-0.6796 1.8996-0.41086 1.1683 0.30057 2.4399-0.27014 3.303-1.4823 0.97302-1.3667 2.5557-1.971 5.162-1.971 2.0673 0 3.7587 0.40195 3.7587 0.89325 0 0.49127 1.0655 0.89316 2.3677 0.89316s3.4361 0.91159 4.742 2.0257c2.3687 2.0211 2.3693 2.027 0.23877 2.575-2.2292 0.57349-9.366 10.938-9.366 13.602 0 2.0754-1.2409 2.687-7.3709 3.6336-8.1112 1.2523-11.209 2.0194-12.25 3.0337-1.3962 1.3594-2.5826 1.1722-7.3803-1.164zm-76.005-2.1273c-0.87044-2.0672-1.7334-2.7401-3.0726-2.3956-2.2744 0.58514-3.4595-0.88571-1.354-1.6804 0.82907-0.31302 1.5074-1.1694 1.5074-1.9032 0-0.73376 1.2857-2.5459 2.8571-4.0269 2.7509-2.5927 5.0105-3.2597 13.832-4.0833 3.9514-0.36887 4.0863-0.28235 4.3088 2.7639 0.243 3.3281 2.7922 5.997 4.95 5.1825 1.8615-0.70267 1.5904 0.14755-0.79515 2.4944-1.6751 1.6479-2.3742 1.8152-3.5553 0.85098-0.80855-0.66013-1.5726-1.025-1.6979-0.81067-0.1253 0.2142-0.71423 1.256-1.3087 2.3153-1.5507 2.7628-3.5028 3.085-4.1412 0.68353-0.44603-1.678-0.90688-1.8774-2.4554-1.0621-1.0484 0.55197-1.9063 1.6072-1.9063 2.3447 0 0.73755-1.3407 1.5346-2.9793 1.7712-2.5242 0.36447-3.1642-0.008911-4.1896-2.4444zm45.504-4.0549c-4.1214-0.87183-5.8061-1.7483-6.5502-3.4078-0.64243-1.4326-1.5472-2.0185-2.5221-1.6332-0.83612 0.33038-2.5322 0.72067-3.769 0.86728s-2.8911 0.79096-3.6762 1.432c-1.1081 0.90469-1.7593 0.83896-2.9106-0.29364-0.95664-0.94113-1.83-1.1179-2.4602-0.49799-1.5967 1.5708-4.3409-0.1257-4.3409-2.6836 0-2.5505 0.66678-2.8712 2.9783-1.4327 0.8058 0.50146 1.9407 0.61313 2.522 0.24814 0.58136-0.36505 2.1919-0.73383 3.579-0.81967 1.3871-0.085754 4.5129-0.72052 6.9461-1.4106 3.3327-0.94507 4.8766-0.97653 6.2584-0.12762 2.4204 1.487 3.215 0.032196 1.8755-3.4337-0.89603-2.3183-0.77087-2.998 0.74939-4.0718 1.0037-0.70883 2.6341-1.9583 3.623-2.7764 1.3039-1.0787 2.3112-1.2174 3.6654-0.50436 1.4524 0.76456 2.4546 0.44769 4.5098-1.426 2.4974-2.2769 2.8565-2.3347 6.5454-1.0543 2.1466 0.74506 4.7262 1.283 5.7325 1.1956 1.3093-0.11389 2.0746 0.82852 2.6916 3.3144 1.4264 5.7472 1.3686 6.2903-0.73102 6.8782-1.1097 0.3107-2.063 1.1232-2.1185 1.8054-0.055542 0.68228-0.16901 2.3412-0.25226 3.6867-0.2085 3.3708-3.2814 4.8471-14.275 6.8581-1.3871 0.25378-5.0188-0.066803-8.0705-0.7124zm-24.779-9.6398c-1.6299-1.06-3.531-1.7185-4.2245-1.4632-0.69356 0.25519-1.261 0.075928-1.261-0.39841 0-0.96448-4.0524-0.76416-8.433 0.41678-2.8473 0.76752-2.875 0.73419-2.1467-2.5826 0.40578-1.8481 1.5676-4.9733 2.5818-6.9448l1.844-3.5846-6.2546-2.42c-5.3793-2.0814-6.2546-2.7728-6.2546-4.9406 0-1.3863-0.55667-3.183-1.237-3.9928-0.92787-1.1044-0.94887-1.7558-0.083893-2.6067 0.86493-0.85092 0.71876-2.082-0.58495-4.9261-1.3148-2.8684-1.4948-4.4213-0.73885-6.3771 0.54956-1.4219 0.76437-3.4688 0.47739-4.5485-0.38939-1.4648 0.095764-2.1157 1.9108-2.5638 3.0933-0.76373 5.5243-5.3978 3.2768-6.2462-1.9143-0.72266-1.9654-2.3414-0.074036-2.3414 1.8003 0 2.9751-5.0023 2.0978-8.9319-0.64197-2.8753-0.54114-2.9772 2.9463-2.9772 1.9861 0 3.4975 0.33496 3.3588 0.74429-0.28839 0.85107 0.58868 1.2406 2.7935 1.2406 1.1191 0 1.3665-0.65048 0.91714-2.4117-0.54614-2.1406-0.34985-2.3444 1.7462-1.8126 1.2988 0.32956 2.8155 1.1464 3.3703 1.8153 0.55484 0.66888 2.1437 1.5059 3.5308 1.86 2.3016 0.58756 2.35 0.53888 0.5538-0.55695-2.5277-1.5421-7.1877-6.9958-6.8589-8.0271 0.13872-0.43512-0.31526-0.80472-1.0088-0.82129-0.70297-0.016815-0.48285-0.47617 0.49738-1.0379 1.6461-0.94336 1.6516-1.1681 0.0858-3.519l-1.6727-2.5113 3.9495 0.6923c4.8414 0.8486 6.5282 2.1596 4.4454 3.4549-1.3548 0.84262-0.71187 1.3916 1.2694 1.0838 0.41614-0.064636 0.75662 0.25317 0.75662 0.70624 0 0.45303 1.5888 0.77188 3.5309 0.7085 3.5692-0.11652 4.7485 1.0476 2.0813 2.0545-0.79721 0.30096-1.2458 1.0684-0.99689 1.7056 0.50601 1.295 5.4729 1.8916 5.4729 0.65738 0-0.87274 7.5413-4.9573 9.1526-4.9573 0.56091 0 1.9776 0.87778 3.1481 1.9506s2.5333 1.7042 3.0285 1.4032c3.1305-1.9034 6.579 7.2783 4.3361 11.545-1.2802 2.4354-1.243 2.892 0.35223 4.3121 0.98123 0.8736 2.3019 3.7189 2.9349 6.3232 2.4987 10.28 2.5146 10.943 0.31604 13.106-1.1459 1.1272-2.8342 2.0496-3.7519 2.0496-0.91763 0-4.5876 1.6059-8.1555 3.5688-5.9669 3.2826-6.4346 3.78-5.8331 6.2026 0.35974 1.4486 3.0083 5.01 5.8857 7.9144l5.2317 5.2806-3.8369 3.1992c-3.5104 2.9271-3.7464 3.4332-2.7742 5.9487 1.4178 3.6686 1.3686 3.8175-0.81842 2.4739-1.4412-0.8855-2.9155-0.86237-6.3051 0.098938-2.4332 0.68994-5.559 1.3247-6.9461 1.4105-1.3871 0.085846-3.0043 0.45871-3.5938 0.82861-0.58942 0.36996-2.4053-0.19467-4.0353-1.2547zm53.724-4.4676c-3.6501-3.3635-3.4861-7.7111 0.31012-8.2207 2.8337-0.38046 6.0529-2.8366 6.0529-4.618 0-0.64661 1.1349-1.6843 2.522-2.306 1.8761-0.84094 2.522-0.84235 2.522-0.005432 0 0.65308 0.76743 0.44168 1.8296-0.504 1.4113-1.2565 2.1032-1.3596 3.0264-0.45148 0.65826 0.64755 1.1968 1.7579 1.1968 2.4675 0 1.6942 2.0344 1.5898 4.4802-0.23007 2.5758-1.9166 7.7283-1.85 12.002 0.15509l3.4366 1.6121-1.6369 3.8361c-1.5637 3.6646-3.4078 4.8623-4.5897 2.9811-0.30243-0.48138-2.3713-0.90002-4.5976-0.93021-3.0717-0.041718-4.3121 0.43118-5.1445 1.9612-0.7146 1.3136-1.7695 1.8431-3.0271 1.5196-1.0617-0.27313-2.1845-0.091949-2.4952 0.40268-0.31073 0.49457-1.6731 0.8992-3.0275 0.8992-1.5164 0-2.4625 0.57199-2.4625 1.4886 0 0.81876-0.7945 1.4948-1.7654 1.5022-0.97101 0.007446-2.6734 0.24689-3.7831 0.53198-1.3073 0.33591-3.0147-0.40039-4.8498-2.0914zm-28.394-12.482c-3.5903-3.4742-6.7882-7.4333-7.1064-8.7979-0.50821-2.1794 0.066376-2.8349 4.7264-5.392 6.7919-3.727 15.951-5.993 15.951-3.9465 0 0.76953 0.34048 1.3259 0.75662 1.2363 1.5289-0.32898 6.2765 1.3902 5.8248 2.1093-0.25647 0.40826 0.58649 1.7153 1.8732 2.9044 2.0731 1.9159 2.4856 1.9892 3.6209 0.6434 1.1348-1.3451 1.8732-1.2078 6.4565 1.1999 7.3975 3.8862 8.1874 5.2169 4.1664 7.0192-1.3871 0.62176-2.5221 1.7344-2.5221 2.4726 0 1.6948-4.4821 4.1213-5.9567 3.2248-0.60773-0.36954-1.105-0.20538-1.105 0.36484 0 1.2659-7.341 0.69537-11.571-0.89941-2.3488-0.8855-3.221-0.84882-4.0352 0.16943-3.5674 4.4611-4.2258 4.3239-11.08-2.3083zm63.508-1.5018c-4.7027-2.6819-10.196-2.9933-13.434-0.7615-2.156 1.4855-2.3971 1.4286-4.3628-1.0298-1.6024-2.0041-2.3919-2.3482-3.4344-1.4971-1.0392 0.84845-1.6598 0.6062-2.6711-1.0422-1.635-2.6648-15.505-9.825-14.616-7.545 0.93439 2.3954-0.86163 2.7631-2.8641 0.58627-1.3233-1.4384-1.4399-1.9614-0.43744-1.9614 2.1602 0-0.31143-1.9585-3.1459-2.4927-1.3464-0.25378-2.952-1.1365-3.568-1.9616-0.61603-0.8251-1.5467-1.5002-2.0681-1.5002-0.52139 0-0.94803-1.488-0.94803-3.3068 0-5.2698-2.5725-14.384-4.5593-16.153-1.6373-1.4577-1.6761-1.9005-0.38257-4.3613 1.0307-1.9608 1.1832-3.6188 0.53686-5.8359-1.0308-3.5359-0.74722-3.7747 7.7068-6.4888 2.8702-0.92145 5.6998-2.2456 6.2877-2.9426 1.547-1.8336 11.629-5.0067 13.574-4.2723 0.90903 0.34317 1.6528 1.4874 1.6528 2.5428 0 2.2705 5.3678 4.4854 7.9178 3.2671 2.3134-1.1052 25.179-0.76898 26.245 0.38592 0.96204 1.0429 4.1726 13.291 4.1726 15.918 0 0.91687-1.2234 2.7825-2.7187 4.1457-2.6958 2.4578-2.7017 2.4922-0.69559 4.0902 1.5104 1.2032 1.9949 2.7167 1.9119 5.9726-0.064941 2.5444 0.7175 6.0088 1.8784 8.317 1.7246 3.4291 1.7933 4.1032 0.51602 5.0603-0.81049 0.6073-3.4169 3.1973-5.7921 5.7555-3.7912 4.0833-4.1768 4.9116-3.1583 6.7838 1.5967 2.9351 1.1093 2.98-3.5429 0.3269zm-122.46-4.7026c-1.1688-1.2239-2.125-3.0472-2.125-4.0518 0-1.7067-0.12108-1.7188-1.8449-0.18411-1.9583 1.7434-3.2771 2.128-3.0797 0.89807 0.3694-2.3017-0.42639-3.4338-3.0449-4.3318-1.609-0.55176-3.166-1.9084-3.46-3.0146-0.4015-1.5103-1.0549-1.8489-2.6231-1.3593-1.5918 0.49701-2.0884 0.22092-2.0884-1.1609 0-2.5774 3.583-4.5832 5.9556-3.3342 1.3742 0.72357 2.9148 0.4859 5.7774-0.89102 2.2269-1.0711 4.0574-1.4576 4.2616-0.89969 0.19692 0.53784 1.4453 1.3845 2.7742 1.8815 1.6685 0.62412 2.4163 1.6791 2.4163 3.4094 0 1.5388 0.57014 2.5056 1.4777 2.5056 2.0465 0 3.655 3.2236 2.5026 5.0155-0.50764 0.7894-0.94374 0.98859-0.96915 0.44278-0.025345-0.54581-0.51393-0.20187-1.0858 0.76431-0.57181 0.96622-0.77148 2.5881-0.44366 3.6041 0.90605 2.8082-1.955 3.2673-4.4008 0.70612zm5.2295-0.6106c-0.11636-1.6364 0.1685-2.9753 0.63309-2.9753 1.5737 0 3.1477 2.7167 2.5144 4.3401-1.0328 2.6476-2.9204 1.8291-3.1475-1.3648zm-78.4-7.6893c5.2992-6.9508 6.8296-8.1525 10.406-8.1704 3.3712-0.016968 5.0243-1.2662 7.2456-5.4755 0.90328-1.7117 0.86623-1.7682-0.26926-0.41022-0.72417 0.86609-2.3753 2.1295-3.6692 2.8076-1.9827 1.0392-2.546 0.97269-3.5832-0.42276-0.67691-0.91064-1.8881-1.5454-2.6916-1.4106-0.80347 0.13486-2.2611-0.09848-3.2392-0.51858-1.0447-0.44873-2.3972-0.25845-3.2786 0.46118-0.82521 0.67371-1.5341 1.0586-1.5753 0.85535-0.8914-4.3951-0.80983-4.583 2.3722-5.466 2.227-0.61786 3.8064-1.9894 5.0136-4.3536 1.0358-2.0286 1.3451-3.5888 0.75032-3.7844-0.5566-0.18308-0.75537-0.74127-0.44174-1.2405 0.31361-0.49915-0.15349-0.90765-1.038-0.90765-1.2956 0-1.3984-0.3858-0.52843-1.9848 1.1658-2.143 6.432-2.7976 7.5964-0.94424 0.44849 0.7139 1.0919 0.68295 2.049-0.098572 1.1827-0.96561 1.1637-1.3669-0.12463-2.6343-0.92763-0.91257-1.1785-1.9377-0.64365-2.6306 1.4748-1.9109 0.88556-7.0899-0.80664-7.0899-3.1882 0-3.822-4.6757-1.0088-7.4432 2.0176-1.9848 2.0176-1.9848-0.50442-1.9848-1.3871 0-2.522 0.3988-2.522 0.88626 0 1.4634-3.1874 2.2027-4.5832 1.063-0.96979-0.79175-1.3868-0.62466-1.6376 0.65631-0.31873 1.6278-0.42912 1.6275-2.0912-0.007568-1.667-1.64-1.6548-1.9188 0.24469-5.5816 1.2843-2.4765 1.6266-4.082 0.95702-4.4891-0.57329-0.3486-0.74449-1.5569-0.38048-2.6852 0.50305-1.5592 0.30035-1.915-0.84485-1.4827-0.82867 0.3128-2.016 0.06778-2.6385-0.54456-0.83646-0.82288-1.1502-0.73788-1.2026 0.32568-0.042938 0.87112-0.38951 0.65573-0.87826-0.54587-0.53168-1.3071-0.14841-3.3403 1.1224-5.9545l1.9297-3.9697-2.4665 2.8724c-1.5902 1.8518-3.0391 2.6563-4.0779 2.2641-2.1572-0.81433-2.0546-2.6358 0.15402-2.7338 0.97104-0.04306 1.2199-0.29636 0.55308-0.5629-0.89828-0.35907-0.76761-1.4315 0.5044-4.1395 0.94423-2.0102 2.1708-3.9829 2.7256-4.384 0.56967-0.41174 0.24033-0.7357-0.75662-0.74429-2.6341-0.02269-2.4331-5.6275 0.23172-6.4596 1.0984-0.34297 1.9133-0.93127 1.8108-1.3074-0.10248-0.3761 0.35973-2.2469 1.0271-4.1573l1.2134-3.4735 6.5595-0.0921c7.6629-0.10754 8.3334 1.0065 3.0098 5.0011-1.9524 1.465-3.2954 3.0684-2.9845 3.5633 0.31088 0.49481-0.1868 2.0288-1.1059 3.4088-1.8756 2.8159-1.1228 3.1118 2.5961 1.0204 2.7217-1.5306 12.664-2.0172 13.515-0.66153 1.0346 1.6469-4.2863 12.564-6.8966 14.15-3.7209 2.2607-4.4529 3.2414-1.8267 2.4473 3.8326-1.159 2.5116 0.94748-1.4861 2.3696-3.619 1.2874-3.6688 1.3677-1.367 2.2054 1.3139 0.47812 3.1545 0.63028 4.0903 0.3381 2.3585-0.73639 8.2919 3.4378 9.1588 6.4433 0.3936 1.3646 1.225 4.3256 1.8476 6.5802 0.86174 3.1206 1.8626 4.3969 4.1926 5.3463 4.3773 1.7837 5.2436 3.9374 2.7851 6.9242l-2.0254 2.4606 3.0525 1.2253c3.7816 1.518 5.0099 4.7274 2.7496 7.1845-1.5282 1.6611-1.5179 1.8401 0.14203 2.4667 0.98434 0.37161 1.9497 0.20343 2.1452-0.37363 0.51004-1.5052 5.4008-1.2358 7.6233 0.42004 2.9047 2.164 1.4654 7.9814-2.47 9.9834-1.6578 0.84338-2.775 1.9142-2.4826 2.3796 0.29236 0.46539-0.17554 1.1131-1.0398 1.4393-2.4453 0.92316-0.65871 2.5921 2.7749 2.5921 2.6809 0 2.918 0.20438 1.7889 1.5428-2.3111 2.7394-5.3834 3.8379-11.051 3.951-11.165 0.22284-13.233 0.46176-12.608 1.4562 0.69872 1.1122-2.3199 0.8707-4.2984-0.34384-1.9721-1.2106-4.865 0.12845-6.1169 2.8314-0.99396 2.1461-1.4366 2.3175-3.5441 1.3729-1.8713-0.83868-3.1032-0.72595-5.5245 0.5058-4.5455 2.3124-4.7822 2.0017-1.6274-2.1363zm76.09-8.5546c-1.3871-0.59747-3.0639-1.5954-3.7261-2.2176-0.66222-0.62219-2.4781-0.96323-4.0352-0.75778l-2.8312 0.3735 2.8984-1.3444 2.8984-1.3443-3.0376-0.5977-3.0376-0.5977 2.409-4.6812c1.325-2.5746 2.409-5.2753 2.409-6.0016 0-0.72626 0.48123-1.3204 1.0694-1.3204 0.6225 0 0.86935 1.2485 0.59074 2.9878-0.62849 3.9229 2.5564 5.9959 5.3673 3.4935 1.5018-1.337 1.6181-2.0352 0.67268-4.0411-0.62854-1.3336-1.4833-2.4282-1.8994-2.4325-1.6301-0.016632-0.70506-4.8488 1.0088-5.2698 8.7324-2.145 13.564 2.2121 8.0705 7.2777-2.1092 1.9449-2.1476 2.1816-0.54308 3.3456 1.5272 1.1078 1.5591 1.488 0.27576 3.2906-0.79806 1.1208-2.6066 2.3233-4.0188 2.6719-2.155 0.53214-2.4028 0.93735-1.5415 2.5206 0.56447 1.0376 0.68799 2.7516 0.27443 3.8088-0.64038 1.6371-1.1259 1.7611-3.2739 0.83582zm178.46-1.6178c-0.3165-0.81873-1.8995-1.577-3.5178-1.6852-1.6184-0.10812-6.2913-0.39679-10.384-0.6416-4.0931-0.24478-7.7248-0.87619-8.0705-1.4031-1.803-2.7484-19.398-3.3356-22.308-0.74454-2.2614 2.0134-4.058 1.2648-3.3506-1.3961 0.33023-1.2422-0.21289-2.2767-1.5704-2.9914-2.2349-1.1766-1.9086-4.0395 0.46048-4.0395 2.1299 0 2.7723-4.3973 1.4402-9.8596-1.3805-5.6611-0.88824-7.0629 2.27-6.4645 2.757 0.52234 5.9978-0.39755 5.302-1.505-0.47784-0.76062 4.1482-2.528 5.7428-2.194 0.39618 0.082977 0.47867-0.46844 0.18344-1.2254-0.29529-0.75699-0.051971-1.6712 0.54068-2.0315 0.59265-0.36032 1.0776-1.2987 1.0776-2.0852 0-1.5697 3.5012-5.3997 4.9361-5.3997 1.3284 0 2.1859-2.7921 0.9791-3.1878-0.67505-0.22138-0.6023-1.269 0.20984-3.0225 0.98291-2.1222 1.7306-2.5633 3.5742-2.1081 1.7382 0.42917 2.9744-0.14371 4.859-2.2519 1.3903-1.5551 2.5421-2.2832 2.5596-1.6181 0.017517 0.66516 0.71283 0.95233 1.5451 0.63815 0.83228-0.31418 1.5132-0.050507 1.5132 0.58594 0 0.63641 0.41299 0.9061 0.91776 0.59915 1.5411-0.93695 4.0336 0.5162 3.4503 2.0117-0.65131 1.6696 0.81833 1.8619 2.3927 0.31314 1.6587-1.6317 6.5486 1.0097 8.2199 4.4402 1.0509 2.157 1.1147 3.4055 0.26755 5.2346-0.88229 1.9049 3.7049 9.7531 4.6758 10.466 0.97101 0.71323 1.7654 1.9661 1.7654 2.7841 0 0.81805 0.68097 1.5315 1.5132 1.5856 3.5298 0.22916 4.1238 0.44925 3.574 1.3244-0.31924 0.50818-0.11905 1.2044 0.44479 1.5473 1.7247 1.0486 1.1506 2.4774-1.4669 3.6506-1.8619 0.83462-2.8485 0.82614-3.9014-0.033447-1.7292-1.4119-4.3126 1.0569-3.1096 2.9717 0.41724 0.66412 1.0774 2.9229 1.4672 5.0195 0.63684 3.426 0.47421 3.8698-1.6064 4.3835-3.1731 0.78354-5.2539 3.2947-5.6707 6.8439-0.21365 1.8195-0.57342 2.3983-0.92511 1.4886zm-286.53-1.7846c-0.06572-0.38306-0.06572-1.0314 0-1.4408 0.065712-0.40936-0.3613-0.74429-0.94889-0.74429-0.58761 0-0.77654-0.46451-0.41988-1.0322 0.4217-0.67126-0.35124-0.81735-2.2103-0.41785l-2.8588 0.6144 2.356-1.8834c1.3345-1.0668 2.2093-2.6909 2.0176-3.7458-0.25836-1.422 0.61605-2.1507 3.6968-3.0809 3.5147-1.0612 3.6774-1.2282 1.261-1.2947-3.3093-0.090942-3.7269-2.4514-0.75662-4.2762 2.9191-1.7934 2.4848-2.7448-1.261-2.7621-1.8033-0.008423-3.945-0.42984-4.7595-0.93662-1.2462-0.77533-1.1263-1.2238 0.75662-2.8303 2.7842-2.3755 2.8748-4.1573 0.2113-4.1573-1.7736 0-1.8691-0.24738-0.76615-1.9848 1.4084-2.2186 4.3704-2.6466 5.1507-0.74432 0.40186 0.97971 0.52559 0.97574 0.58849-0.01889 0.054504-0.86172 0.92845-1.0499 2.7676-0.59582 2.2071 0.54498 2.5759 0.37653 2.0617-0.94168-1.2235-3.1367 1.5723-2.863 4.4687 0.43738l2.9417 3.352 1.9681-2.481c1.0824-1.3646 1.9782-1.9402 1.9905-1.2792 0.012329 0.66101 0.98909 2.0878 2.1706 3.1706 2.3897 2.1902 3.9456 11.45 2.6837 15.972-1.468 5.2606-1.9917 6.0454-3.3136 4.9662-0.92519-0.7554-1.5405-0.77154-1.9923-0.052277-0.35957 0.57236-1.434 1.0406-2.3877 1.0406-0.95364 0-2.5437 0.93036-3.5334 2.0675-0.98976 1.1372-2.4232 1.8322-3.1855 1.5444-0.76225-0.28778-1.5438-0.057434-1.7366 0.51181-0.42272 1.2476-6.791 4.0136-6.9608 3.0234zm236.59-30.395c-0.50165-1.1132-1.8686-2.4878-3.0375-3.0547-1.6992-0.82407-1.9529-1.4894-1.2653-3.3181 1.1108-2.9541-0.9826-5.1144-4.9558-5.1144-3.7334 0-5.8815-2.3905-6.7299-7.4894-0.55823-3.3548-0.3093-4.335 1.5121-5.9545 1.8394-1.6355 3.4062-1.8946 10.02-1.6567 4.3118 0.15509 8.8944 0.48175 10.184 0.72601 1.2892 0.24423 2.7143-0.10599 3.167-0.77817 0.61633-0.91516 1.0846-0.78592 1.8636 0.5145 0.57227 0.95523 1.8368 1.7367 2.8101 1.7367 2.7737 0 8.5871 6.445 7.9557 8.8201-0.2926 1.1008-0.012756 2.2108 0.62192 2.4669 0.63467 0.25601 0.35947 0.5007-0.61148 0.54379-0.97101 0.04306-1.7654 0.74823-1.7654 1.567 0 0.81876-0.68097 1.4886-1.5132 1.4886-0.90863 0-1.5132 0.91647-1.5132 2.294 0 2.6321-3.3911 6.6379-5.6195 6.6379-0.82806 0-1.7478 0.62091-2.0438 1.3798-0.88559 2.2703-7.976 1.6383-9.0789-0.80926zm-214.89 0.3895c-1.1712-0.43668-2.4534-1.613-2.8492-2.6138-0.66829-1.6899-0.85838-1.6525-2.6624 0.5231l-1.9427 2.3429-1.8904-2.2966c-1.8832-2.2878-1.876-2.3106 1.8586-5.948 4.7942-4.6694 7.984-5.7511 9.7908-3.3202 0.73584 0.98996 1.3379 2.6078 1.3379 3.5951s0.454 1.7952 1.0088 1.7952c1.6144 0 1.1658 2.8977-0.75659 4.8882-1.2628 1.3076-2.3717 1.602-3.8949 1.034zm141.46-3.5165c-0.8378-2.1478-0.44339-2.5359 1.4238-1.4007 1.0803 0.65683 1.1759 1.192 0.3569 1.9976-0.81897 0.80563-1.296 0.64575-1.7807-0.59695zm-156.17-4.6533c0.65356-0.77469 0.97032-1.623 0.70393-1.885-0.26642-0.26202 1.3562-1.4942 3.6059-2.738 2.2496-1.2439 4.3417-2.0142 4.649-1.7119 0.30731 0.30231-0.31207 2.0221-1.3764 3.8218-1.4873 2.515-2.7259 3.3473-5.3529 3.5969-2.856 0.27142-3.2225 0.093231-2.2295-1.0837zm125.04-1.4138c-1.1679-0.30026-1.7654-1.425-1.7654-3.3234 0-1.7305-0.70938-3.2431-1.787-3.8104-1.5006-0.79004-1.7724-2.2505-1.6958-9.1098 0.081055-7.26 0.3485-8.374 2.4032-10.011 1.2716-1.0129 3.2145-1.8417 4.3175-1.8417 1.1031 0 3.3433-1.4088 4.9783-3.1306 3.9536-4.1636 5.8491-2.7103 3.9292 3.0125-1.6839 5.0195-0.73941 9.0498 2.1208 9.0498 1.7867 0 1.9204 0.23895 0.8458 1.5126-0.70184 0.83194-1.5101 1.2824-1.7961 1.001-0.96429-0.94861-3.1128 1.5882-2.5554 3.0172 0.34222 0.87729-0.087097 1.4161-1.1283 1.4161-0.92436 0-1.4001 0.44656-1.0572 0.9924 0.34291 0.54584 0.029236 0.99387-0.69708 0.9956-0.88796 0.002136-1.3293 1.465-1.3473 4.4659-0.014694 2.4545 0.43927 4.4695 1.0088 4.4779 0.56953 0.008362 0.35457 0.44809-0.47771 0.97723-1.5859 1.0082-2.3914 1.0551-5.2963 0.30832zm19.712-2.7487c-1.781-1.2487-2.9926-2.512-2.6925-2.8073 0.30023-0.29529 0.06366-1.4231-0.52564-2.5063-0.94836-1.7434-0.53571-2.2171 3.596-4.1277 3.7502-1.7342 4.8336-1.9002 5.5138-0.84476 1.1893 1.8453 1.0864 5.0312-0.13849 4.2864-0.55875-0.33972-1.3059 0.12558-1.6602 1.034-0.35434 0.90845-0.08606 1.9911 0.59613 2.4058 0.91074 0.55374 0.78555 0.92584-0.47104 1.4002-1.3905 0.5249-1.4778 0.92304-0.46545 2.1229 1.7961 2.1291 8.54e-4 1.6681-3.7526-0.96344zm65.147 1.5499c0.759-0.47302 1.7735-1.471 2.2544-2.2178 0.64407-1.0002 0.87842-0.76965 0.88974 0.8753 0.011505 1.663-0.5639 2.2291-2.2544 2.2178-1.6722-0.011169-1.9064-0.2417-0.88974-0.8753zm-42.783-1.1604c-1.0858-1.7283 0.15085-2.0942 1.5344-0.45416 0.79572 0.94318 0.87225 1.5126 0.20331 1.5126-0.59009 0-1.372-0.47632-1.7378-1.0584zm-12.022-3.836c-0.36624-0.58301-0.43573-1.4266-0.15433-1.8745 0.28143-0.44797-0.36603-2.2343-1.4388-3.9697s-1.5032-3.1553-0.95651-3.1553c1.246 0 1.315-6.2177 0.08316-7.4927-1.9445-2.0127-8.4693-15.771-9.7855-20.634-1.6552-6.1154-1.8918-10.88-0.42725-8.6012 1.6238 2.5268 3.5688-0.56439 3.4607-5.5001-0.053223-2.4287 0.33582-4.4158 0.8645-4.4158 0.52869 0 0.73108-0.59029 0.44965-1.3118-0.28146-0.72145 0.30704-1.8148 1.3077-2.4296 2.2761-1.3984 3.3815-7.6286 2.1095-11.889-0.74124-2.4827-0.65778-3.2254 0.36221-3.2254 1.138 0 2.5109-2.799 2.5555-5.2102 0.007568-0.40935-1.0076-1.7491-2.256-2.9772-1.7331-1.7049-2.317-3.5238-2.4691-7.6912-0.10956-3.0021-0.2753-6.5748-0.36832-7.9394-0.092987-1.3646-0.096802-3.8208-0.008545-5.4583 0.088318-1.6375 0.12732-3.6472 0.086731-4.4659-0.25906-5.225 2.7358-11.374 6.0423-12.407 1.0128-0.31627 3.0037-0.28807 4.4241 0.062622 2.0974 0.51788 2.7963 0.17613 3.7204-1.8192 1.1822-2.5524-0.10193-6.6776-2.0786-6.6776-0.50616 0 0.40665-2.7912 2.0286-6.2026 2.2252-4.6803 3.0168-7.9349 3.2257-13.26 0.27036-6.8954 0.34647-7.0782 3.3032-7.9394 2.3102-0.67288 3.0297-1.4686 3.0402-3.3625 0.007568-1.3646 1.1844-4.2674 2.6152-6.4507 5.0257-7.669 5.2376-7.2033 3.4956-9.8188-1.9523-2.9313-1.9746-3.4419-0.14996-3.4419 0.78928 0 1.9816-1.6747 2.6496-3.7216s1.8882-4.4811 2.7116-5.4094c1.3331-1.503 1.743-1.5293 3.7423-0.24058 2.0842 1.3434 2.3295 1.2654 3.4195-1.088 0.64584-1.3944 1.1743-4.0773 1.1743-5.9621 0-1.8847 0.45392-3.4268 1.0088-3.4268 0.55487 0 1.0088 0.44658 1.0088 0.99242s0.93048 0.99242 2.0677 0.99242c1.1373 0 3.4877 0.72234 5.2232 1.6052 2.9652 1.5084 3.2379 1.4942 4.5245-0.23667 0.82953-1.116 0.96805-1.9734 0.35144-2.1756-0.59363-0.19465-0.33844-1.3534 0.61258-2.7813 1.2991-1.9505 1.4007-2.9432 0.49991-4.888-0.90155-1.9465-0.85022-2.4404 0.25339-2.4404 0.76102 0 1.6335 0.64049 1.9389 1.4233 0.30536 0.78281 3.8307 3.6862 7.834 6.452 9.6313 6.6539 12.401 10.682 12.116 17.618-0.11929 2.8997 0.21796 5.2721 0.74939 5.2721 0.5314 0 0.74262 0.84102 0.46942 1.8689-0.27328 1.0279 0.18765 2.0416 1.0242 3.6331 1.1969 2.2769 1.3095 3.8692 0.52847 7.4718-0.66504 3.0675-0.6485 5.8351 0.049988 8.3871 0.5734 2.0948 1.0556 4.2182 1.0716 4.7186 0.044037 1.3809-6.708 1.087-8.4921-0.36964-1.1438-0.93384-1.567-0.9627-1.567-0.1068 0 0.64488-0.45398 0.8965-1.0088 0.55915-0.58618-0.35639-1.0088 0.62327-1.0088 2.3384 0 1.9804-0.97626 3.8582-2.9669 5.7064-1.6318 1.5151-2.7276 3.1357-2.4351 3.6012 0.29251 0.46559-0.28784 2.055-1.2896 3.5321-2.0751 3.0595-1.9597 5.1165 0.38687 6.8961 1.4683 1.1136 1.3917 1.4788-0.78876 3.7621-1.3282 1.3909-2.8858 3.9453-3.4614 5.6767-0.7384 2.2212-2.5313 3.9936-6.0906 6.0212-4.6059 2.6238-13.619 12.151-13.619 14.396 0 0.51489-1.1653 1.6873-2.5895 2.6053-1.9358 1.2478-2.3184 1.9906-1.5154 2.9424 0.77582 0.9196 0.5 2.8993-0.99335 7.1286-1.5974 4.5245-1.92 7.1392-1.4188 11.503 0.58923 5.1312 0.90066 5.702 3.4073 6.2436 2.8954 0.62561 10.172 8.9435 10.172 11.628 0 0.8081-1.2439 2.0268-2.7642 2.7083-2.5821 1.1574-2.6446 1.325-0.94842 2.5451 1.9562 1.4072 0.58447 3.1577-1.4873 1.8981-0.64566-0.39258-0.89349-0.27643-0.55612 0.26059 0.33478 0.53279-0.2478 1.6901-1.2945 2.5718-1.3618 1.147-2.0418 1.268-2.3908 0.42512-0.30151-0.72852-0.51446-0.61-0.55814 0.31076-0.038788 0.81874-1.4578 2.6108-3.1535 3.9822-2.7237 2.203-3.1407 3.2438-3.5779 8.9318-0.27219 3.541-0.77185 7.3314-1.1104 8.4231-0.33853 1.0916-0.70529 3.4337-0.81509 5.2046s-1.037 5.0466-2.0605 7.2794c-1.8485 4.0326-1.8898 4.0554-6.2086 3.4183-3.6039-0.53165-4.3478-0.3663-4.3478 0.96661 0 0.8844-0.40256 1.3632-0.8945 1.0642-1.3896-0.84482-3.194 1.8961-2.9005 4.4057 0.19019 1.6264-0.30069 2.3222-1.7535 2.4853-1.1097 0.1246-2.7662 0.53787-3.6811 0.91849-0.91482 0.38052-1.9631 0.21484-2.3294-0.3682zm93.438-6.4845c-1.7217-1.929-3.8886-3.5073-4.8154-3.5073-0.92676 0-2.2534-0.76468-2.9481-1.6993-0.94357-1.2694-1.6097-1.4272-2.6333-0.62369-0.75363 0.59161-2.0512 0.96768-2.8834 0.83572-0.83224-0.13187-4.868-0.51889-8.9683-0.86005-6.4641-0.53778-7.9056-0.34631-10.845 1.4407l-3.3897 2.0609 0.0063-2.8101c0.003357-1.5455 0.68436-4.0892 1.5132-5.6527 0.82883-1.5635 1.514-3.7964 1.5225-4.9621 0.020996-2.8815 0.96524-3.9533 4.5242-5.1353 2.6808-0.8904 3.2856-0.70256 5.2963 1.6448 1.2484 1.4575 2.2698 3.128 2.2698 3.7123s0.90793 1.5404 2.0176 2.1246c4.0623 2.1387 8.7299-2.7268 7.5757-7.8966-0.5455-2.4433-0.20752-3.025 2.542-4.3744 3.583-1.7584 5.6336-0.95767 9.8951 3.8638 1.7058 1.9299 2.6363 2.3008 3.9532 1.5758 1.2108-0.66655 2.5682-0.45677 4.5696 0.70631 2.5275 1.4688 2.7871 2.0778 2.3115 5.4228-0.29987 2.1087-0.1376 3.5262 0.36832 3.2186 0.49731-0.30237 1.4298 1.0169 2.0721 2.9316 1.0439 3.1115 0.91861 3.7954-1.1797 6.4378-1.5747 1.9832-2.9997 2.8127-4.3281 2.52-1.0892-0.24014-2.731 0.23163-3.6483 1.0483-1.5034 1.3384-1.9766 1.139-4.7983-2.0225zm-56.659-18.441c0-2.853 3.9588-7.892 6.2002-7.892 1.4807 0 0.94034 2.0174-0.707 2.6392-0.91791 0.34653-1.446 1.5112-1.2732 2.8082 0.29645 2.2255-1.6813 5.4692-3.3346 5.4692-0.48691 0-0.88528-1.3611-0.88528-3.0246zm57.858-4.1381c-2.6992-3.2869-7.2712-5.9459-8.7065-5.0636-2.6959 1.6572-3.9675 1.1951-3.4889-1.2679 0.49893-2.5678-1.032-4.3763-2.1705-2.564-0.82498 1.3131-2.2297 0.39584-3.9044-2.5496-1.0203-1.7944-1.0203-2.2359 0-2.2482 0.78458-0.009369 0.88419-0.29369 0.26074-0.74428-0.5549-0.40103-1.1566-1.767-1.3371-3.0355-0.2356-1.6553 0.2627-2.4583 1.7654-2.8449 1.1515-0.29622 2.0937-0.86144 2.0937-1.256 0-1.2576 5.2067-3.1038 7.0927-2.5149 0.99927 0.31198 2.071 0.1627 2.3816-0.3317 0.67639-1.0767 4.0927-0.76701 7.9934 0.72464 1.562 0.59732 4.8269 1.086 7.2555 1.086h4.4155l-2.4514 4.2178c-2.5905 4.4572-3.2138 10.435-1.43 13.714 0.81528 1.4986 0.60998 2.3822-0.93155 4.01-1.0875 1.1483-2.4859 1.7786-3.1075 1.4007-0.62167-0.37798-1.7449-0.18536-2.4962 0.42801-1.053 0.85965-1.7941 0.59386-3.2345-1.1601zm-141.17-5.5963c0.29372-0.46747-1.2684-2.2749-3.4713-4.0164-2.5022-1.9782-3.9995-3.9869-3.9899-5.3527 0.012527-1.7754 0.19919-1.9064 0.99336-0.69759 0.76811 1.1693 0.98125 1.1965 0.99336 0.12663 0.012939-1.142 0.30072-1.1472 1.7809-0.032715 0.97096 0.73111 1.4107 0.92067 0.97717 0.42117-0.43355-0.49942 0.24741-1.4932 1.5132-2.2083 2.2146-1.2511 2.1872-1.2781-0.72498-0.71564-2.3113 0.44638-2.6689 0.33467-1.5132-0.47292 0.83228-0.58165 1.0593-1.0786 0.50441-1.1043-0.55484-0.025711-0.12761-0.70245 0.94942-1.5038 1.412-1.0506 1.5527-1.4659 0.50441-1.4886-1.0967-0.023788-1.0071-0.36482 0.36507-1.3884 1.2874-0.96036 1.4471-1.4788 0.54646-1.7741-1.6612-0.54469-7.0762 2.1188-6.4226 3.1592 0.27702 0.44093-0.39917 1.034-1.5026 1.3178-2.3863 0.61394-2.627-0.69159-0.45805-2.4843 0.8515-0.70381 2.1594-1.8166 2.9063-2.4729 0.74696-0.6563 1.5745-0.98044 1.8389-0.72034 0.2644 0.26012 1.1129-0.29138 1.8855-1.2255 1.2229-1.4786 1.197-1.622-0.19992-1.1083-0.88261 0.32463-2.2445 0.19179-3.0265-0.29517-0.78195-0.48697-0.92714-0.89227-0.32265-0.9006 0.60449-0.008362 1.6812-1.2433 2.3928-2.7444 1.2132-2.5592 1.0295-3.6146-0.30261-2.3834-2.3119 2.1366-2.445 2.1522-2.926 0.343-0.27714-1.0425-0.084686-2.6323 0.42763-3.5329 0.99678-1.7522 0.20418-3.9612-1.1302-3.15-0.44234 0.269-1.5857-0.36037-2.5407-1.3986-1.6793-1.8254-1.5757-1.9097 3.1438-2.5606 7.7741-1.0721 2.9447-1.9252-0.416-1.8721-6.0297 0.0952-6.8137-0.80624-2.0176-2.3198 3.0152-0.95154 3.076-1.0484 0.75661-1.2057-2.3298-0.15802-2.3682-0.23608-0.50441-1.024 1.1097-0.46907 1.4234-0.88426 0.69707-0.92264-0.72632-0.038391-1.04-0.51636-0.69707-1.0622 0.34291-0.54584-0.13983-0.99242-1.0728-0.99242-1.3934 0-1.4721-0.26576-0.44041-1.4886 1.6733-1.9835 3.702-1.8821 4.9633 0.24811 0.56557 0.95518 1.0421 1.2041 1.0589 0.55316 0.016861-0.65094 0.8638-1.0257 1.8821-0.83276 1.0183 0.1929 2.4937-0.049164 3.2787-0.53799 1.6718-1.041 1.2624-1.1234-9.0366-1.8182-1.1413-0.076981-1.1544-0.36621-0.074875-1.6458 0.88205-1.0456 2.1576-1.3467 3.9066-0.92221 2.0545 0.49861 2.3409 0.37405 1.371-0.59638-0.9639-0.96442-0.85611-1.503 0.50441-2.5197 2.755-2.0589 4.2497-1.5799 4.2844 1.3729 0.030457 2.5912 0.10564 2.6335 1.4868 0.83823 1.2966-1.6853 1.2294-2.0832-0.61816-3.6596-1.1401-0.97278-2.7172-1.5255-3.5045-1.2283-0.78734 0.29723-1.4315-0.016449-1.4315-0.69705 0-0.90752 1.5465-1.0933 5.8007-0.69681 3.1904 0.29738 4.9259 0.21463 3.8568-0.18382-2.6094-0.97252-0.11183-1.9585 3.8714-1.5284 2.124 0.22934 2.5719 0.020264 1.7302-0.80774-1.6642-1.6372-1.3877-3.154 0.32059-1.7592 1.1935 0.97438 1.4278 0.81726 1.2985-0.87091-0.086716-1.1329-0.85554-2.0951-1.7084-2.1382-0.85292-0.043106-0.20955-0.55733 1.4297-1.1428 3.6024-1.2865 7.6745-4.7334 5.592-4.7334-0.91937 0-0.72929-0.47662 0.55998-1.404 2.1202-1.5251 3.7096-0.34494 2.7722 2.0584-0.34427 0.8826 0.28154 1.3254 1.8588 1.3153 1.9053-0.012161 2.0771-0.20633 0.86456-0.97722-1.1483-0.73-0.72256-0.96567 1.7654-0.97723 2.5627-0.011871 3.2787-0.43401 3.2787-1.9332 0-1.0549 0.85904-2.1862 1.9088-2.5139 1.2551-0.39191 1.8597-1.4342 1.7654-3.0435-0.17529-2.9916-1.68-3.1105-4.8236-0.38094-1.7236 1.4965-1.8938 1.9164-0.61615 1.5198 2.7266-0.84656 2.086 0.91212-0.80408 2.2075-3.6114 1.6188-5.0184 1.4827-3.4834-0.3369 1.04-1.2328 0.9312-1.4912-0.63309-1.5039-1.5149-0.012161-1.6041-0.19254-0.45042-0.91078 0.79115-0.49258 1.5947-1.9021 1.7855-3.1323 0.43613-2.8115 2.1374-4.8735 4.0208-4.8735 0.79706 0 1.1687-0.44658 0.82578-0.99242-0.34296-0.54585-0.16531-0.99243 0.39471-0.99243 0.56003 0 1.3813 0.6238 1.825 1.3862 0.69061 1.1867 0.99402 1.1867 2.1075 0 0.71542-0.76244 0.94244-1.4176 0.5044-1.456-0.43799-0.038345 0.11157-0.45354 1.2212-0.92265 1.8548-0.78412 1.8141-0.86121-0.5044-0.95567l-2.522-0.1028 2.3816-1.9518c1.3099-1.0735 2.0161-1.9519 1.5694-1.9519-0.44669 0 0.69003-1.0903 2.526-2.4228 1.8361-1.3326 4.0492-3.4538 4.9182-4.714 1.5475-2.2442 1.5386-2.2558-0.43219-0.56798-1.5521 1.3292-2.2857 1.454-3.2089 0.54581-2.0933-2.0592-1.4538-3.9716 1.0651-3.1852 2.0102 0.62766 2.1088 0.52475 0.88605-0.92465-1.1185-1.3258-1.1431-2.1836-0.13205-4.5849 1.099-2.6102 1.4949-2.8245 3.4014-1.8413 2.054 1.0592 2.0774 1.0224 0.48648-0.76849-1.4889-1.676-1.5047-2.0314-0.14563-3.2587 1.1728-1.0591 1.7005-1.099 2.2824-0.17274 0.54492 0.86738 1.5746 0.48424 3.6765-1.3679l2.9196-2.5727-2.522 0.1706c-1.3872 0.093834-3.5759 0.10116-4.864 0.016251-1.9354-0.12752-2.1105-0.3793-1.0088-1.4504 0.73322-0.71286 2.2283-1.63 3.3225-2.0382 1.6684-0.62245 1.7498-0.89119 0.50436-1.666-1.2107-0.75325-1.1124-0.93953 0.53272-1.0088 2.0176-0.084938 2.0176-0.084938 0-0.9379-2.0176-0.85288-2.0176-0.85288 0-0.93786 1.5856-0.066757 1.7126-0.27487 0.59302-0.97212-1.2043-0.7499-1.1652-1.1424 0.25217-2.5367 0.92227-0.9073 1.6906-1.2827 1.7076-0.83436 0.016846 0.44833 0.48962 0.040199 1.0507-0.90704 1.0861-1.8337 5.5329-2.0962 7.7458-0.45732 0.87921 0.65116 1.261 1.5817 1.261 0.47216 0-1.4744-1.3832-2.0751-6.5458-2.8423-1.9127-0.28429-1.8922-0.41013 0.44134-2.7058 1.5385-1.5135 2.5957-1.97 2.8468-1.2292 0.2196 0.64822 1.0046 1.1785 1.7444 1.1785 0.73978 0 1.4964 0.432 1.6813 0.95999 0.18497 0.52798 0.85989-0.13958 1.4999-1.4835 1.0897-2.2882 1.0095-2.4055-1.261-1.8448-1.8342 0.4529-2.4246 0.19573-2.4246-1.0561 0-0.91012 0.36215-1.4346 0.80478-1.1655s1.3886 0.13429 2.1022-0.29957c1.0134-0.61616 0.95474-0.91815-0.26807-1.3798-0.86102-0.32504-1.8339-0.1639-2.1618 0.35811-0.85284 1.3576-3.7489 1.1769-3.2808-0.20474 0.45612-1.3461 3.0092-2.0654 7.5559-2.1288 3.2457-0.045258 5.1796-2.0364 3.1664-3.2604-0.71341-0.43375-0.61706-0.92889 0.28787-1.4791 1.089-0.66209 1.1085-1.0747 0.097931-2.0688-1.0105-0.99412-0.80768-1.4902 1.0172-2.4872 1.8376-1.004 1.9374-1.2522 0.51419-1.2806-0.97101-0.019341-1.7654-0.47269-1.7654-1.0074 0-1.2186 7.3671-4.977 9.7958-4.9975 1.5348-0.012947 1.5786-0.15951 0.29236-0.97725-0.83221-0.5291-1.0592-0.97572-0.5044-0.99242 0.55487-0.016701 0.35706-0.43609-0.43958-0.93198-1.2003-0.74718-1.2224-1.1695-0.1286-2.4658 0.72583-0.86036 1.945-1.5643 2.7093-1.5643 0.87753 0 1.3897-1.1188 1.3897-3.0358 0-1.6787 0.43121-2.7736 0.96478-2.4493 0.53061 0.32259 0.71472 1.3538 0.40918 2.2915-0.36078 1.1074-0.25183 1.2952 0.31097 0.53576 1.179-1.5908 4.7229-1.1588 5.5207 0.67299 0.52603 1.2079 0.79724 1.1143 1.4378-0.49619 0.43424-1.0917 1.4704-3.0306 2.3025-4.3087 0.83215-1.2781 1.6367-3.4653 1.7879-4.8604 0.15122-1.3951 0.79895-3.029 1.4394-3.6307 1.3727-1.2897 0.35324 8.4928-1.2304 11.807-0.93298 1.9527-0.92294 1.9537 0.62054 0.058426 0.86292-1.0595 1.5689-2.5109 1.5689-3.2254 0-1.5721 0.4892-1.6089 3.3449-0.25178 2.0007 0.95073 2.041 0.91782 0.43811-0.35754-2.6166-2.0819-2.0381-7.2783 0.60156-5.4036 0.19211 0.13645 1.0783-0.34702 1.9692-1.0744 1.6867-1.377 5.752-0.74577 5.752 0.8932 0 0.50906 0.46994 0.92555 1.0443 0.92555 0.69495 0 0.66898-0.68995-0.077667-2.0624-0.61713-1.1343-0.87991-2.6831-0.58395-3.4417 0.2959-0.7586 0.10385-1.6432-0.4267-1.9658-1.1844-0.72015 0.096436-0.46945 0.92929-0.46945 0.6228 0 7.5596 2.5621 6.5742 4.1741-0.6315 1.033-0.48233 1.0432 0.76242 0.052254 0.8511-0.67753 1.8462-0.93805 2.2113-0.5789 0.92618 0.91116 0.82779-0.11659-0.28744-3.0022-0.73184-1.8935-0.60071-2.5936 0.56833-3.0349 0.83578-0.31548 1.2784-0.95757 0.98352-1.4269-0.29483-0.46926 0.081238-1.6837 0.83572-2.6987 1.2147-1.6342 1.5741-1.6802 3.1396-0.4021 1.6045 1.3099 1.7057 1.2506 1.0952-0.64164-0.42865-1.3285-0.11539-2.5401 0.86328-3.3391 0.84479-0.68973 1.536-2.4647 1.536-3.9444 0-3.2405 2.6726-3.6946 3.6655-0.62279 0.58627 1.8139 0.74283 1.859 1.2758 0.36714 0.42789-1.1975 1.0432-1.4355 2.0805-0.8049 1.2748 0.77512 1.2503 1.1374-0.18222 2.6946-1.5046 1.6354-3.2508 5.2176-3.7781 7.75-0.11362 0.54584-0.629 1.4931-1.1452 2.105-0.53931 0.63926-0.57709 2.0741-0.088867 3.3724 0.83041 2.2084 0.89587 2.1831 2.8771-1.1126 1.115-1.8548 3.3248-5.9676 4.9105-9.1395 1.5858-3.1719 3.2488-5.9895 3.6958-6.2612 1.2912-0.78505 0.94156 3.0689-0.39795 4.3867-0.91293 0.8981-0.91916 1.1909-0.025208 1.1909 0.77554 0 0.97885 1.0159 0.58789 2.9388-0.57462 2.8264-0.50293 2.8949 1.8747 1.7911 1.7642-0.81907 2.4722-1.9499 2.4722-3.949 0-1.6121 0.82083-3.3956 1.9336-4.2013 1.8066-1.308 1.8176-1.4442 0.16812-2.0733-0.97098-0.37027-1.7645-0.9604-1.7634-1.3114 0.003143-0.99762 6.3944-1.1794 7.9455-0.22601 1.8254 1.1221 0.5498 3.0613-2.0138 3.0613-1.1446 0-1.736 0.44822-1.3668 1.0359 0.35791 0.56975 0.04425 1.7594-0.69708 2.6436-1.21 1.4432-1.1157 1.4859 0.92194 0.41783 2.5188-1.3203 2.7729-0.92168 1.2256 1.9225-0.57437 1.0558-0.68787 1.9128-0.25223 1.9044 1.7532-0.033657 3.0825-1.6565 4.255-5.195 1.2085-3.647 4.1032-5.2003 4.1032-2.2018 0 0.83589 0.7944 1.8082 1.7654 2.1606 0.97095 0.35245 2.0989 1.12 2.5066 1.7056 0.50275 0.72238 0.74609 0.67586 0.75653-0.1446 0.008636-0.67414 0.69653-0.95225 1.5544-0.6284 1.2665 0.47808 1.3112 0.85693 0.2522 2.1395-1.1029 1.3359-1.0127 1.4574 0.63092 0.8502 1.3119-0.48459 2.5391-0.05225 3.8845 1.3684 1.0818 1.1423 1.8076 2.1754 1.6132 2.2959-0.19449 0.1205-2.2416 1.4632-4.5491 2.9839-4.0931 2.6974-4.2744 2.7247-7.4298 1.1195-4.5754-2.3276-6.5813-0.27327-2.1502 2.2021 1.7523 0.97892 2.9814 2.3153 2.7314 2.9698-0.27154 0.71093 0.13394 0.96784 1.0073 0.63814 1.6396-0.61895 2.0218 1.1878 0.45306 2.1416-0.5549 0.33732-1.0088 1.0883-1.0088 1.6687 0 0.64283 0.62155 0.54792 1.5901-0.24285 1.3178-1.0759 1.747-1.0542 2.5065 0.1266 1.5621 2.4284 1.0584 3.7984-1.9608 5.3344-1.6494 0.83908-3.2019 2.6306-3.5867 4.1387-0.48099 1.8851-0.992 2.3508-1.7555 1.5997-0.76343-0.75105-0.44421-1.9338 1.0968-4.0627 2.9711-4.1048 1.987-7.1516-3.8674-11.974l-4.7509-3.9131-2.9588 1.9348c-1.6274 1.0641-4.707 2.4064-6.8437 2.9829-2.1367 0.57648-3.6461 1.2831-3.3542 1.5702 0.2919 0.28715-0.3735 2.5972-1.4786 5.1334-1.3238 3.0382-1.8037 5.6894-1.4066 7.7717 0.49921 2.6176 0.24091 3.2734-1.5038 3.8182-1.1586 0.36171-2.5232 1.736-3.0326 3.0538-1.1165 2.8888-1.6403 2.9336-5.4464 0.46532-2.9246-1.8966-2.9878-1.8963-5.7234 0.019936-3.7975 2.6601-6.7286 1.1967-10.371-5.1782-2.516-4.4032-3.1432-4.9104-5.3866-4.3565-1.3964 0.34479-3.1975 1.2748-4.0024 2.0665-0.80487 0.79182-2.3389 1.4397-3.409 1.4397-2.2694 0-2.3021 0.12923-0.83295 3.3012 0.84228 1.8186 0.79208 2.9752-0.2067 4.7607-0.72565 1.2972-1.1978 3.14-1.0492 4.0952 0.14856 0.95523 0.029968 1.7367-0.26349 1.7367-0.59369 0-7.1664-2.7178-9.9746-4.1245-2.6515-1.3282-3.7401-0.18814-3.7575 3.9349-0.021423 5.0944-1.3659 6.9905-3.8731 5.4626-1.6117-0.98219-2.2676-0.81744-3.9501 0.99238-1.1097 1.1936-2.3451 3.2866-2.7454 4.6513-0.40027 1.3646-1.6433 3.1943-2.7623 4.0661-1.9489 1.5185-1.9617 1.6943-0.30334 4.1842 1.6849 2.5296 1.6461 1.6157-1.4508 6.9406-1.7501 3.0091-3.6265 5.7413-4.1699 6.0717-0.54346 0.3304-0.69403 1.5121-0.33466 2.6259 0.72565 2.2492-0.88763 3.7228-4.1022 3.7471-1.82 0.013763-2.0412 0.76147-2.2578 7.6329-0.18915 6.0006-0.86118 8.9232-3.1659 13.768-2.8508 5.9929-2.877 6.1918-1.0209 7.7552 3.2691 2.7536 1.7789 7.3104-2.0044 6.1292-5.6998-1.7797-11.609 5.2636-11.208 13.358 0.040558 0.81874 0.001526 2.8284-0.086731 4.4659-0.088318 1.6375-0.084473 4.0937 0.008545 5.4583 0.092957 1.3646 0.25867 5.02 0.36832 8.1232 0.15576 4.4118 0.69418 6.0975 2.4691 7.73 1.2484 1.1483 2.2698 2.4804 2.2698 2.9604 0 2.0105-1.3217 4.0122-2.6492 4.0122-1.0695 0-1.2312 0.68007-0.64868 2.7292 1.5348 5.399 0.69467 11.336-1.8799 13.283-1.3135 0.99376-1.9922 1.8167-1.5082 1.8289 0.4841 0.012131 0.35107 0.64923-0.29565 1.4158-0.64664 0.76656-0.90582 2.4518-0.57587 3.7449 0.3299 1.2931 0.15124 3.4572-0.39703 4.8089-0.62451 1.5397-1.0208 1.8492-1.0608 0.82855-0.035187-0.89603-1.1988-1.9094-2.586-2.2518-2.5539-0.6306-2.865-1.4781-2.6741-7.2838 0.058289-1.7739-0.28198-3.2254-0.75623-3.2254-1.8876 0-2.9444 2.6906-2.4563 6.2537 0.52167 3.8083-1.0538 7.1453-2.8561 6.0495-0.52142-0.31702-1.7716 0.35777-2.7782 1.4995-1.0066 1.1418-2.3712 2.076-3.0325 2.076-0.66122 0-0.9139 0.45897-0.56148 1.0199 0.66278 1.055-5.4655 7.3489-6.3287 6.4997-0.26732-0.26297-1.1454 0.17047-1.9512 0.96323-1.5373 1.5123-9.9014 2.0633-8.9767 0.59138zm-0.2918-58.373c-1.1892-2.0119-1.4764-1.3679-0.50291 1.1277 0.34596 0.88695 0.84155 1.4036 1.1013 1.148 0.25974-0.25554-0.009537-1.2796-0.59837-2.2757zm115.89-136.15c0.83224-0.5291 1.0593-0.96203 0.5044-0.96203-0.55484 0-1.6898 0.43293-2.522 0.96203-0.83231 0.52914-1.0593 0.96204-0.50442 0.96204 0.55487 0 1.6898-0.4329 2.5221-0.96204zm-4.0353 191.39c0-1.2241 0.90533-2.1583 2.4647-2.5434 3.4166-0.84358 5.2692 0.4304 2.9056 1.9981-3.6608 2.4282-5.3703 2.6017-5.3703 0.54527zm2.6628-6.6309c-1.1361-1.1177-0.69192-2.2886 0.8681-2.2886 0.83231 0 1.5132 0.42021 1.5132 0.93384 0 1.2514-1.5753 2.1477-2.3813 1.3548zm3.728-15.756c-0.31085-0.79698-0.33166-2.3279-0.046143-3.4019 0.43527-1.6373 0.21988-1.7952-1.3332-0.97754-2.8758 1.514-5.3234 1.2216-4.631-0.55331 0.34888-0.89435 0.079712-1.4673-0.64865-1.381-0.68475 0.081146-2.1944-0.15776-3.3548-0.53093-1.712-0.55052-2.0561-1.3661-1.825-4.3255 0.15668-2.0058 0.36539-3.8702 0.46387-4.1432 0.09845-0.27289 0.14227-0.78087 0.097351-1.1288-0.044891-0.34796 0.33911-2.0757 0.8533-3.8395 0.69647-2.389 0.53955-3.959-0.61523-6.1558-0.8526-1.6219-1.2972-3.5974-0.98807-4.39 0.30917-0.79256 0.037964-3.369-0.60269-5.7255-1.0598-3.8978-0.96728-4.4932 1.0245-6.5964 1.2042-1.2715 2.0757-3.0089 1.9367-3.861-0.16876-1.0348 0.67786-1.6543 2.5498-1.8659 1.5414-0.17419 2.6897-0.84406 2.5519-1.4886-0.45312-2.1193 2.6746-7.6334 4.686-8.2614 2.5432-0.79408 3.4139-1.7327 7.5473-8.1358 4.5101-6.9867 5.9336-8.2884 8.2675-7.5597 1.7602 0.54961 1.8817 0.21585 1.3434-3.6879-1.0337-7.4952-1.4365-8.6127-3.3159-9.1995-5.7564-1.7973-9.0536-9.4886-7.379-17.213 0.78024-3.599 0.66824-5.1952-0.52371-7.4628-0.84799-1.6132-1.2493-2.8015-0.91058-4.1292 0.35571-1.3944 0.16089-2.3742-0.4722-2.3742-0.64459 0-0.98968-1.9018-0.85843-4.7313 0.29874-6.4411-3.2242-11.478-12.29-17.572-7.505-5.0445-11.198-9.2772-6.9315-7.9452 1.7895 0.55875 2.1314 0.38321 1.6513-0.84771-0.39478-1.012 0.10532-1.7743 1.4366-2.1899 1.1232-0.35074 2.1686-0.48522 2.323-0.29893 0.15439 0.18628 1.4827 2.3886 2.9517 4.894 3.5116 5.9888 6.9141 7.5952 10.557 4.9843 2.6558-1.9032 2.683-1.9011 6.8828 0.52006l4.2163 2.4308 0.6436-2.8828c0.38916-1.743 1.6517-3.3346 3.1933-4.0256 2.1839-0.97888 2.4529-1.5764 1.8749-4.165-0.87103-3.9013 3.0236-13.82 5.4294-13.828 0.90656-0.002792 3.4437-1.0742 5.6381-2.3808l3.9898-2.3758 4.2336 3.4128c5.3008 4.273 6.2347 7.3892 3.3917 11.317-1.1624 1.606-1.8134 3.3977-1.4465 3.9817 0.36685 0.58395-0.087952 1.8824-1.0107 2.8855-1.1064 1.2028-1.3109 2.0468-0.60046 2.4788 0.75983 0.46198 0.76263 1.2332 0.009613 2.6174-0.61304 1.1268-0.78525 3.8144-0.40454 6.3119 0.53351 3.5002 1.2011 4.5688 3.4187 5.4724 1.5157 0.61762 3.7006 2.7494 4.8555 4.7374l2.0997 3.6144-3.419 6.679-3.4191 5.5496 2.9731 7.0928c4.228 10.086 5.1996 13.903 3.6851 14.474-2.4811 0.93659-2.7829 14.03-0.3635 15.77 1.0457 0.75217 1.4174 1.9617 1.0397 3.3826-0.40155 1.5105 0.093597 2.8365 1.5615 4.1818 2.8208 2.5852 2.7152 4.4596-0.36301 6.4438l-2.5126 1.6195 2.0566 2.8413c1.1311 1.5627 3.3775 3.6089 4.9918 4.547 4.5707 2.6561 5.6203 6.2478 3.184 10.895-1.8847 3.595-9.1652 13.305-12.35 16.472-0.78781 0.78326-4.1001 4.3842-7.3605 8.0022-5.042 5.5948-6.3998 6.5606-9.0836 6.4614-1.7355-0.064224-4.6064 0.62141-6.3797 1.5236-1.7734 0.90212-4.1708 1.6403-5.3276 1.6403-1.1567 0-3.1997 0.70676-4.5399 1.5706-1.3402 0.86386-3.4806 1.7186-4.7564 1.8993-1.2758 0.18082-3.8189 0.78932-5.6512 1.3523-2.6769 0.82242-3.4426 0.73882-3.8968-0.42557zm-4.3731-1.2306c0-0.5329 0.71887-1.2403 1.5976-1.572 0.98248-0.3709 1.4436-0.14909 1.1979 0.57611-0.50269 1.4835-2.7955 2.3003-2.7955 0.99588zm-19.168-1.6775c0-0.81874 0.66669-1.4886 1.4815-1.4886 0.9025 0 1.2546 0.58183 0.90088 1.4886-0.31934 0.81874-0.98602 1.4886-1.4816 1.4886-0.49542 0-0.90082-0.66991-0.90082-1.4886zm-39.344-130.92c0-1.5187 4.1427-3.5823 6.3401-3.1582 0.67435 0.13014 1.163-0.54491 1.086-1.5001-0.077118-0.95522 0.23181-1.7367 0.68643-1.7367 0.45459 0 0.97162-0.96984 1.1489-2.1552 0.39975-2.6725 2.8325-3.6475 2.8765-1.1529 0.030273 1.7149 0.10846 1.7206 1.3608 0.098145 1.3871-1.7971 2.6424-1.3722 2.6424 0.89427 0 1.3132-1.8579 3.4253-5.5288 6.2854-1.7558 1.368-1.851 1.3323-1.174-0.44055 0.71851-1.8816 0.68579-1.8839-1.3243-0.094315-1.1336 1.0092-2.061 1.457-2.061 0.99521 0-0.46183-0.56744-0.14687-1.261 0.69991-1.8706 2.2839-4.7919 3.0552-4.7919 1.2651zm4.5325-7.0197c1.6184-2.4299 1.6068-2.4679-0.4256-1.3979-1.5396 0.81059-2.0893 0.80524-2.0893-0.020271 0-0.61613 0.90796-1.3538 2.0176-1.6393 1.1097-0.28547 2.0629-1.0252 2.1182-1.6438 0.055298-0.61862 0.43713-0.008293 0.84857 1.3563s0.37012 2.9687-0.091766 3.5648c-0.46194 0.59605-0.63632 1.284-0.38754 1.5288 0.24884 0.24475-0.47156 0.51348-1.6008 0.59716-1.9647 0.1456-1.9814 0.044479-0.38944-2.3457zm19.55-16.179c1.4764-0.77731 2.0802-0.67738 2.5062 0.41464 0.30868 0.79129 0.11966 1.7071-0.42001 2.0353-0.53964 0.32809-0.76099 0.94697-0.49197 1.3753 0.26907 0.42828-0.65283 1.2906-2.0486 1.9163-3.0858 1.3831-0.61536-5.1782 0.45444-5.7414zm10.843-0.4421c-0.78223-3.066 0.14835-5.5804 2.0652-5.5804 1.073 0 1.3822 0.97728 1.1531 3.6448-0.36728 4.2753-2.3215 5.4507-3.2183 1.9356zm-5.9167-3.0994c0.26514-1.3646 0.8346-2.4811 1.2654-2.4811 1.384 0 1.8878 2.6985 0.71857 3.8487-1.809 1.7797-2.5026 1.3015-1.984-1.3677zm4.2822-4.9621c-1.0286-1.2192-0.95966-1.4886 0.38092-1.4886 0.90018 0 1.6436-0.55822 1.6521-1.2405 0.010986-0.87795 0.27856-0.83172 0.91553 0.15813 0.9588 1.4899 0.3794 4.0597-0.91534 4.0597-0.42755 0-1.3425-0.6699-2.0332-1.4886zm34.713-14.763c-0.8429-2.1609-0.25296-2.7413 1.6256-1.5992 1.1537 0.70144 1.2095 1.1589 0.25601 2.0968-0.95346 0.93797-1.3639 0.82941-1.8816-0.49768z" fill="#bfbfbf"/>
</svg>
