<svg viewBox="0 0 640 480" xmlns="http://www.w3.org/2000/svg"><path d="M361.33 463.61c-.343-.546-1.618-1-2.834-1.008-1.215-.008-2.891-.451-3.723-.985-1.042-.668.058-.798 3.53-.417 7.506.823 9.584 1.35 9.584 2.43 0 1.279-5.752 1.262-6.557-.02zm80.809-8.527c-.378-.968.04-2.44.98-3.463 2.872-3.123-.049-5.261-3.094-2.266-1.232 1.212-1.941 1.338-2.796.497-1.64-1.614-5.317-1.39-6.841.415-1.592 1.888-4.32 3.367-8.256 4.477-2.468.697-3.392.43-5.417-1.56-2.12-2.086-9.823-5.452-12.476-5.452-.496 0-1.048.994-1.225 2.208-.378 2.585-4.165 4.732-7.042 3.992-1.106-.284-2.429-1.599-2.94-2.922-.51-1.323-1.353-2.147-1.871-1.832-.518.315-1.599-.35-2.402-1.478-1.147-1.611-2.08-1.904-4.356-1.366-1.593.377-2.584.352-2.202-.055.382-.407-.48-1.81-1.913-3.117s-2.087-2.377-1.45-2.377 1.155-.67 1.155-1.488c0-.82-.68-1.49-1.513-1.49-.832 0-1.513-.669-1.513-1.488 0-.818.567-1.495 1.26-1.503.876-.011.82-.291-.187-.917-1.188-.74-1.215-1.177-.152-2.438 1.07-1.268 1.008-1.821-.352-3.158-1.36-1.338-1.421-1.893-.352-3.173 1.142-1.366.906-1.475-1.983-.912-2.686.523-3.276.33-3.263-1.073.039-4.318 4.526-6.052 16.126-6.232 3.607-.057 5.876-.377 5.044-.712-.998-.402-.14-1.024 2.522-1.83 2.284-.691 3.138-1.254 1.967-1.297-1.971-.073-4.489-1.785-4.489-3.054 0-.69 8.288-.278 12.345.613 1.995.438 2.932.17 3.376-.97 1.08-2.77 13.157-7.691 18.425-7.508 2.582.09 5.447-.146 6.368-.524 1.157-.474 1.868-.084 2.303 1.263.7 2.17 4.25 3.52 5.216 1.983.34-.543 1.151.058 1.8 1.334.65 1.276 2.074 2.367 3.165 2.424 1.09.056 3.344.654 5.009 1.327 4.725 1.912 8.884 2.327 12.765 1.272 2.345-.637 4.183-.63 5.364.02 2.005 1.104 9.035-.525 11.63-2.694.833-.696 3.639-1.487 6.237-1.758 4.407-.46 4.933-.259 7.867 3.002 2.1 2.333 2.809 3.824 2.134 4.488-.594.585-.656 1.647-.149 2.58.474.87 1.02 2.03 1.214 2.576.193.546 1.487.993 2.874.993 2.308 0 2.622.503 2.169 3.473-.083.546-.881.993-1.773.993-1.1 0-1.413.532-.974 1.657 1.796 4.605 2.6 10.539 1.59 11.736-.767.91-.673 1.409.335 1.79.77.29 1.643 1.444 1.94 2.563.514 1.932.19 2.015-6.404 1.647-3.876-.217-7.214.039-7.553.578-.384.611-1.097.566-1.94-.123-.923-.753-1.536-.768-1.988-.048-.36.572-2.653 1.04-5.096 1.04-2.444 0-6.766.901-9.604 2.002-4.468 1.732-5.701 1.842-9.182.816-3.141-.926-4.771-.918-7.453.036-2.62.932-3.949.95-5.612.074-1.712-.902-2.366-.86-3.05.196-.478.738-.652 1.925-.386 2.636.265.712-.363 2.186-1.396 3.277-1.714 1.81-1.936 1.837-2.535.3zm-300.85-.172c-.619-.401-2.078-2.578-3.242-4.837-1.414-2.743-3.135-4.458-5.18-5.159-3.422-1.174-3.904-3.16-1.372-5.652 1.38-1.358 1.467-2.014.473-3.58-.975-1.535-.922-2.333.263-3.998 1.306-1.834 1.298-2.353-.067-4.403-1.403-2.107-1.39-2.48.142-3.987.93-.914 1.47-2.489 1.202-3.498-.268-1.01-.047-2.104.492-2.432.539-.328.85-1.808.692-3.289-.175-1.646.612-3.817 2.025-5.584 1.326-1.659 1.85-3.042 1.23-3.246-.594-.195-1.08-1.21-1.08-2.256 0-1.422-.714-1.902-2.826-1.902-1.553 0-3.263.431-3.8.96-1.127 1.108-5.48.238-5.48-1.095 0-.493-1.136-.616-2.523-.273-2.162.534-2.522.285-2.522-1.745 0-1.302-.72-3.38-1.6-4.616-1.263-1.773-1.345-2.552-.39-3.684.665-.789 1.572-1.215 2.013-.946 1.308.795 4.012-.612 4.012-2.086 0-1.9 4.727-2.896 6.576-1.387.946.772 3.342 1.056 6.447.762 2.717-.257 5.78.016 6.804.606s6.176 1.177 11.447 1.304c11.771.283 16.226.818 17.034 2.047 1.429 2.174 7.108 4.03 12.26 4.008 8.469-.037 9.04.076 9.04 1.785 0 .96.564 1.382 1.415 1.06.778-.293 1.685-.268 2.014.056 1.071 1.054 6.66 1.27 6.66.258 0-.541.454-.984 1.009-.984.555 0 1.009 1.26 1.009 2.8 0 3.262-4.77 6.842-11.907 8.938-2.388.7-4.624 2.031-4.97 2.956-.346.924-2.451 4.244-4.678 7.377l-4.049 5.697 1.66 3.425c1.645 3.393 1.632 3.455-1.321 6.566-1.64 1.727-2.982 3.986-2.982 5.02 0 1.195-.709 1.88-1.944 1.88-1.07 0-3.311 1.631-4.982 3.625-2.747 3.279-3.501 3.62-7.892 3.568-2.67-.032-7.507.417-10.749.996-4.632.827-6.125 1.551-6.971 3.379-1.153 2.489-1.629 2.709-3.392 1.566zm202.35-5.435c-.94-1.984-1.626-2.448-2.527-1.712-1.525 1.245-2.818-1.29-1.38-2.704.585-.576-.011-1.81-1.57-3.25l-2.512-2.321 2.15-1.834c1.18-1.008 2.646-1.831 3.254-1.83 1.64.006 8.043 3.993 8.987 5.596.45.765 1.245 1.13 1.766.814.52-.316.947-.102.947.476 0 1.332-1.599 1.341-4.102.023-2.33-1.227-2.415-.749-.512 2.872 1.512 2.876.612 6.572-.983 4.034-.603-.96-.982-.8-1.516.638-.649 1.748-.827 1.677-2.002-.802zm-55.684-1.745c-.693-1.091-2.172-1.992-3.287-2.002-2.872-.023-11.383-5.204-10.886-6.626.228-.651 1.02-.956 1.76-.676.74.28 1.635.048 1.988-.515.437-.695 1.36-.7 2.887-.017 1.448.65 4.302.69 8.035.113 3.184-.491 5.774-.626 5.754-.299-.02.327-.66 1.703-1.422 3.059-.912 1.62-1.074 3.041-.473 4.146 2.135 3.923-1.97 6.577-4.356 2.817zm-165.29-1.687c-2.446-.373-2.584-.695-2.3-5.355.165-2.727.518-5.305.784-5.728.684-1.088-2.793-3.82-4.253-3.34-1.637.536-1.539-2.83.154-5.254 2.409-3.452 4.708-15.79 3.63-19.485-1.284-4.407-1.266-4.492 1.056-5.09 1.158-.297 2.02-.03 2.022.629.003.631 1.592 1.227 3.531 1.325 1.94.098 3.527-.237 3.527-.744s1.085-.922 2.412-.922c3.294 0 4.486 4.383 1.944 7.146-1.053 1.144-1.672 3.108-1.497 4.747.164 1.538-.143 3.064-.681 3.392-.54.328-.736 1.515-.437 2.638.4 1.506-.03 2.19-1.634 2.603l-2.177.56 1.953 3.257c1.762 2.937 1.805 3.465.443 5.378-1.157 1.625-1.238 2.445-.346 3.501.895 1.061.773 1.966-.528 3.92-.93 1.396-1.432 3.206-1.114 4.02.477 1.224-2.379 3.904-3.568 3.348-.175-.082-1.49-.327-2.921-.546zm232.6-6.271c-.35-.556-2.76-2.068-5.356-3.36-3.493-1.737-6.07-2.28-9.911-2.088-4.578.23-5.317-.012-6.255-2.036-.92-1.988-.765-2.353 1.156-2.72 2.036-.388 2.05-.434.167-.558-3.515-.232-6.85-9.067-3.422-9.067.514 0 .934-.616.934-1.368 0-.751.676-1.919 1.502-2.593.827-.675 1.254-1.622.95-2.106-.473-.753 1.574-1.313 3.757-1.03.363.048 1.213-.57 1.889-1.37.676-.802 2.535-1.458 4.132-1.458s2.903-.446 2.903-.992 1.105-.992 2.456-.992 3.698-.465 5.217-1.033c2.044-.764 3.696-.679 6.37.33 1.986.749 5.059 1.267 6.828 1.151 2.054-.134 3.423.317 3.787 1.249.955 2.45-.314 3.168-3.739 2.112-3.568-1.1-4.08-1.125-7.805-.397-1.387.271-3.43.663-4.54.87-1.109.208-2.078 1.004-2.153 1.77-.074.765-.188 1.837-.253 2.383-.064.546-1.226 1.056-2.582 1.132-1.792.102-2.566-.44-2.833-1.984-.342-1.981-.46-1.939-1.743.631-1.053 2.108-1.098 3.03-.193 3.92.65.64 1.183 1.968 1.183 2.95 0 .983.68 1.787 1.513 1.787.832 0 1.513.473 1.513 1.05 0 .579-.454.776-1.009.439-1.764-1.073-3.255.518-1.943 2.073.945 1.12.803 1.408-.707 1.442-1.406.03-1.099.475 1.2 1.736 5.209 2.858 7.183 4.577 7.931 6.906.738 2.297.183 3.015-.944 1.221zm-58.267-1.572c-.744-.732 1.046-5.592 2.352-6.386.548-.334.072-3.116-1.133-6.627-1.59-4.633-2.628-6.188-4.427-6.632-1.402-.346-2.606-1.585-2.985-3.07-.408-1.597-1.343-2.49-2.61-2.49-1.087 0-2.688-1.068-3.558-2.374-1.099-1.651-2.912-2.572-5.941-3.019-3.76-.554-5.419-1.713-12.06-8.427-4.236-4.282-7.704-8.394-7.707-9.14-.003-.744-.452-2.938-1-4.873-.793-2.81-1.937-3.971-5.683-5.761l-4.69-2.242-3.835 3.032c-4.206 3.325-5.09 3.661-4.71 1.791.139-.682-.602-1.243-1.646-1.246-1.044-.003-2.575-1.008-3.402-2.233-1.103-1.634-1.17-2.227-.255-2.227.91 0 .832-.624-.285-2.302-1.407-2.11-1.373-2.4.411-3.496 1.533-.941 1.726-1.596.913-3.091-1.52-2.793-1.399-2.94 3.003-3.631 3.642-.573 4.52-1.335 4.155-3.607-.257-1.6 1.85-.62 3.735 1.737 2.339 2.924 3.195 3.121 3.24.744.043-2.35 2.655-5.712 3.197-4.113.62 1.83 4.84 2.166 4.84.385 0-.815.455-1.482 1.01-1.482.554 0 1.008-.718 1.008-1.595 0-1.082.542-1.39 1.685-.959.927.35 2.008.122 2.403-.506 1.206-1.921 7.353-2.14 8.719-.311.662.888 2.658 1.907 4.434 2.264 2.797.563 3.278 1.118 3.594 4.15.33 3.174.059 3.612-2.921 4.697-5.52 2.01-6.001 2.548-4.877 5.457.68 1.759.673 2.816-.02 3.237-.61.371-.732 1.901-.3 3.757.402 1.722.684 3.912.627 4.868-.057.955.322 1.736.842 1.736s.947-.45.947-1.001c0-.551 1.598.007 3.551 1.24 2.74 1.73 3.906 3.424 5.105 7.417 2.109 7.022 7.719 11.62 12.993 10.646 3.582-.661 4.533.203 2.464 2.238-.802.79.651 2.07 5.297 4.666 9.282 5.186 13.78 9.092 12.237 10.626-.97.963-1.367.864-1.888-.472-.363-.93-2.04-2.393-3.728-3.252-2.94-1.495-3.148-1.462-4.95.781-3.918 4.874-4.055 5.633-1.338 7.385 3.046 1.963 3.316 5.001.521 5.874-1.11.346-2.017 1.285-2.017 2.086 0 1.696-2.92 6.35-3.983 6.35-.399 0-.999-.27-1.333-.599zm-51.728-9.732c-1.684-1.211-1.811-1.837-.87-4.289.813-2.118.784-3.929-.111-6.91-1.202-4.006-1.186-4.051 1.998-5.545 3.035-1.424 3.283-1.39 4.559.619.741 1.168 1.502 3.423 1.69 5.011.43 3.634-1.465 10.771-2.666 10.04-.495-.3-1.289.137-1.764.973-.754 1.326-1.115 1.338-2.836.1zm82.286-6.754c-.012-.936-.97-2.2-2.126-2.81-1.158-.609-1.855-1.353-1.55-1.653.306-.3.134-1.322-.382-2.27-.516-.949-.652-2.005-.303-2.349 1.038-1.02 1.106-9.91.092-11.857-1.198-2.3.727-4.766 3.06-3.916 3.351 1.221 5.1 4.2 4.521 7.706-.398 2.414.066 4.326 1.67 6.88 1.222 1.944 1.761 3.536 1.199 3.536-.563 0-1.289.781-1.613 1.736-.324.955-1.479 2.854-2.567 4.218-1.57 1.969-1.983 2.13-2.001.78zm48.002-7.622c-1.961-.746-3.182-5.604-1.643-6.54.464-.282.609-1.398.321-2.48-.658-2.476 4.164-4.705 6.34-2.929.74.605 1.817.812 2.394.462.577-.351 1.533.407 2.124 1.684.592 1.277 2.523 2.977 4.292 3.778l3.216 1.455-5.392.304c-4.138.232-5.9.849-7.567 2.648-1.539 1.66-2.731 2.132-4.085 1.618zm-42.42-3.664c-.863-.85-1.57-2.623-1.57-3.943 0-2.624 2.89-6.59 4.216-5.785.456.277.829.083.829-.43 0-1.683 7.773-1.157 9.343.632 3.379 3.848 2.265 8.124-2.115 8.124-1.066 0-2.418.57-3.006 1.267-1.557 1.846-5.88 1.922-7.697.135zm28.66-4.194c-2.58-1.23-3.708-1.263-6.963-.206-4.163 1.352-6.355.794-5.5-1.398.29-.746-.39-2.198-1.513-3.228-1.86-1.704-2.067-3.129-1.236-8.503.063-.41.796-.744 1.628-.744.832 0 1.513-.67 1.513-1.489 0-.819-.442-1.489-.983-1.489-.54 0-1.694-1.353-2.564-3.007-1.366-2.6-1.386-3.198-.146-4.418 1.601-1.575 2.814-1.009 2.048.956-.566 1.449 3.696 2.366 13.247 2.852 4.604.234 6.696-.13 8.742-1.519 4.436-3.013 8.378-3.309 12.467-.936 1.992 1.157 4.277 2.103 5.077 2.103 2.15 0 1.768 1.673-.516 2.26-1.105.285-2.288 1.75-2.692 3.332-.396 1.553-1.325 3.418-2.064 4.145-1.503 1.479-1.842 3.585-.44 2.732 1.306-.794 2.378 2.565 1.19 3.732-.659.649-1.485.585-2.432-.187-1.944-1.587-6.746.235-7.433 2.821-.887 3.337-6.69 4.449-11.43 2.19zm-114.74-1.426c-.059-.682-.384-2.664-.723-4.404-.504-2.587-.216-3.375 1.58-4.32 2.245-1.182 3.904-.078 3.942 2.622.06 4.247-4.463 9.999-4.799 6.102zm84.511-4.785c0-1.492-2.23-3.516-4.737-4.3-1.56-.486-2.65-.002-4.111 1.826-1.864 2.331-2.085 2.38-3.513.78-2.052-2.3-3.2-6.174-1.83-6.174.592 0 1.076-.697 1.076-1.548 0-.85.458-1.269 1.016-.929.56.34 1.289-.08 1.622-.934.332-.853 1.237-1.551 2.01-1.551 1.69 0 1.856-1.594.267-2.56-.773-.47-.592-.993.563-1.63 1.554-.855 1.516-1.094-.435-2.758-1.822-1.555-1.95-2.115-.876-3.808 1.015-1.598 1.002-2.29-.063-3.554-.885-1.048-.948-1.57-.192-1.57.623 0 1.133-.446 1.133-.992 0-1.83-2.2-1.016-2.74 1.014-.414 1.557-.838 1.756-1.898.891-1.257-1.026-5.756-1.583-17.556-2.174-3.976-.199-4.579.04-4.852 1.927-.19 1.311 1.491 4.69 4.3 8.644l4.613 6.492-3.273-.21c-3.406-.217-9.595-5.598-7.738-6.727.52-.316.026-1.393-1.097-2.392-1.123-1-2.041-2.624-2.041-3.61 0-.986-.884-2.603-1.965-3.593-1.25-1.146-1.663-2.281-1.135-3.122.58-.924 1.037-.991 1.52-.223 1.138 1.811 4.424 1.241 5.11-.886.353-1.092 1.117-1.985 1.7-1.985.582 0 .819-.9.527-1.998-.575-2.162 1.648-3.886 4.438-3.44.89.142 3.395 1.414 5.565 2.826 4.572 2.977 10.469 4.485 10.469 2.677 0-.646.466-.891 1.035-.545.57.346.97 1.154.89 1.795-.3 2.381.124 3.647 1.219 3.647.62 0 .902-.782.627-1.737-.274-.955-.668-2.347-.874-3.093-.207-.747.306-1.52 1.138-1.72 6.517-1.559 6.912-1.537 8.98.498 1.165 1.146 2.117 2.738 2.117 3.54s1.021 2.029 2.27 2.728c1.248.7 2.27 2.117 2.27 3.15 0 1.032.907 2.371 2.017 2.977 1.11.605 2.393 1.547 2.851 2.093.54.643 1.014.555 1.345-.248.282-.683.831-1.241 1.222-1.241 1.132 0 1.147 4.254.02 5.59-1.08 1.28 1.072 6.552 3.204 7.848.683.416.278 1.223-1.088 2.164-1.376.948-1.996 2.19-1.682 3.37.612 2.303-.42 2.982-4.624 3.041-1.796.025-4.271.665-5.5 1.422-2.686 1.654-3.314 1.713-3.314.312zm-134.96-3.376c-1.194-1.954-6.415-3.19-12.252-2.902-5.627.278-11.78-1.813-10.646-3.617.328-.523-.074-.95-.895-.95-1.294 0-1.31-.493-.124-3.722.752-2.047 1.767-7.071 2.256-11.165.795-6.647.513-8.988.917-10.974.486-2.389.151-3.048-2.047-4.033-2.933-1.315-6.07-5.406-5.203-6.787.31-.493-.401-1.56-1.58-2.373-1.18-.813-1.841-1.96-1.471-2.55.4-.637-.185-1.071-1.444-1.071-1.165 0-3.93-.91-6.147-2.022-2.216-1.113-4.486-1.745-5.044-1.406-.634.385-.778-.31-.385-1.851.458-1.794.127-2.745-1.212-3.483-2.425-1.334-1.194-2.411 2.908-2.544 1.817-.059 3.865-.777 4.552-1.596 1.087-1.296 1.493-1.181 3.14.887 1.128 1.416 2.382 2.078 3.106 1.638.668-.406 2.694-.738 4.503-.738h3.289l-.699-4.119c-.384-2.265-1.054-4.952-1.49-5.97-.704-1.644-.55-1.724 1.377-.71 1.194.629 2.17 1.517 2.17 1.973 0 1.073 7.44 2.253 9.44 1.498.842-.318 1.282-1.214.979-1.992-.374-.96.912-2.05 4.002-3.395 4.504-1.96 6.765-5.29 6.765-9.963 0-1.029 1.199-2.151 2.931-2.745 2.549-.875 3-.746 3.46.984.396 1.49 1.054 1.826 2.618 1.337 1.405-.438 2.088-.215 2.088.683 0 1.769 3.307 4.496 4.84 3.993.667-.218 1.27.087 1.339.678.07.591.194 1.633.277 2.316.082.682.984 1.17 2.004 1.084 1.02-.086 3.166.992 4.768 2.397 1.602 1.404 4.053 2.673 5.447 2.819 1.394.146 4.998 1.412 8.008 2.813 3.011 1.401 5.956 2.548 6.546 2.548 1.397 0 1.358 1.586-.105 4.277-.647 1.19-1.698 4.174-2.336 6.634-.686 2.644-1.75 4.49-2.607 4.516-.796.025-1.352.53-1.235 1.123.117.592-.678 1.87-1.766 2.838-1.087.968-1.977 2.313-1.977 2.989 0 .676-.71 1.496-1.577 1.824-.868.327-1.283 1.064-.922 1.638.36.574.048 1.797-.693 2.72-1.149 1.428-.913 1.402 1.595-.176 2.848-1.791 2.985-1.792 4.29-.036.855 1.15.997 2.161.389 2.76-.609.599-.423 1.969.506 3.737 1.36 2.587 1.314 2.872-.62 3.891-1.662.875-1.847 1.388-.903 2.507.653.773.935 2.054.626 2.844-.809 2.075 3.07 6.575 5.03 5.835 1.348-.509 1.414-.273.431 1.534-.639 1.175-1.584 2.136-2.1 2.136s-2.371 1.377-4.122 3.061c-1.875 1.803-3.86 2.858-4.827 2.566-.904-.272-3.118-.98-4.922-1.573-8.598-2.825-8.871-2.838-12.95-.598-2.594 1.425-4.064 2.99-4.285 4.566-.186 1.319-.696 2.766-1.135 3.216-1.31 1.346-6.09 1.486-6.876.2zm115.52-3.162c-2.074-1.452-3.771-3.414-3.771-4.36 0-.946-.582-1.94-1.293-2.208-1.981-.748-9.804-12.431-9.804-14.642 0-2.415.879-2.488 2.63-.217 1.179 1.526 1.345 1.543 1.373.136.024-1.172.775-1.497 2.807-1.217 1.525.21 4.992.592 7.703.847 2.711.255 5.543.964 6.293 1.576.749.612 2.049.854 2.888.537.936-.353 1.526-.012 1.526.881 0 .802-.454 1.458-1.008 1.458-.555 0-1.01.893-1.01 1.985 0 1.091.44 1.984.978 1.984.537 0 .713.676.391 1.502-.322.825-.025 2.165.66 2.977 1.035 1.226.888 1.476-.864 1.476-1.553 0-1.94.436-1.466 1.651.403 1.032.243 1.408-.425 1.001-1.44-.875-4.45 3.794-3.694 5.732.806 2.066.475 1.973-3.914-1.1zm42.414-9.425c-.711-.444-2.341-.814-3.622-.822-1.336-.009-2.056-.45-1.689-1.035.353-.561-.415-1.886-1.706-2.945-1.34-1.099-1.78-1.938-1.026-1.957.726-.018 1.06-.45.74-.958-.32-.51-1.92-.888-3.556-.843-3.463.097-6.395-1.922-5.632-3.88.313-.8-.496-1.82-1.972-2.48-1.376-.617-2.502-1.921-2.502-2.898 0-.977-.794-2.271-1.765-2.876-.971-.604-1.312-1.304-.757-1.553 4.548-2.047 6.004-3.236 6.592-5.386.723-2.637 7.027-12.896 7.027-11.434 0 .475 1.045-.101 2.322-1.281 1.871-1.73 2.897-1.984 5.296-1.31 1.636.458 4.086.665 5.443.46 1.408-.214 2.807.22 3.256 1.008.67 1.177 1.508 1.158 5.602-.127 2.648-.83 5.532-2.113 6.408-2.849 2.67-2.243 3.535-1.607 7.96 5.857 3.549 5.985 4.322 8.236 4.598 13.385.183 3.405.623 7.09.977 8.188.711 2.205 4.416 2.72 6.292.873 1.25-1.229 4.305-.504 4.305 1.023 0 1.614-3.397 4.468-3.822 3.212-.21-.62-.726-1.126-1.147-1.126-.93 0-3.102 6.856-3.102 9.792 0 1.456-.63 2.117-2.017 2.117-1.11 0-2.018-.411-2.018-.915 0-1.455-6.914-3.306-9.742-2.608-1.416.35-3.744 1.39-5.174 2.312-2.77 1.786-13.26 2.498-15.569 1.057zm71.268-6.444c-.595-.218-.895-1.655-.665-3.195.343-2.3-.174-3.167-2.896-4.862l-3.313-2.064 3.76-1.764c5.14-2.412 4.536-4.678-1.36-5.1-2.492-.178-5.2-.551-6.016-.828-1.305-.444-1.305-.615-.005-1.405 1.256-.764 1.187-1.11-.453-2.29-1.064-.765-2.65-1.256-3.526-1.092-6.055 1.137-7.142 1.599-7.142 3.033 0 3.077-8.934 9.883-14.339 10.924-2.02.39-1.637-.867 2.233-7.327 2.396-4 4.036-5.337 4.036-3.29 0 .514.969.752 2.154.527 2.507-.475 3.818-1.463 1.94-1.463-.706 0-1.035-.637-.732-1.416.304-.778-.101-1.95-.9-2.602-.8-.653-1.454-2.249-1.454-3.546 0-1.507-.586-2.36-1.622-2.36-1.19 0-1.467-.61-1.04-2.286.383-1.5-.018-2.78-1.166-3.722-5.387-4.419-16.707-5.918-19.458-2.576-2.3 2.794-11.734 5.792-12.45 3.957-.297-.761-1.733-1.248-3.326-1.128-4.598.349-11.087-1.215-12.807-3.085-2.127-2.312-.358-8.262 2.173-7.307 1.291.488 1.458.143.867-1.797-.403-1.32-.816-2.88-.92-3.465-.23-1.307 6.983-9.356 8.385-9.356.557 0 1.081-.558 1.166-1.24.084-.683.223-1.91.309-2.73.086-.818-.58-2.605-1.48-3.97-1.633-2.474-1.626-5.954.01-5.954.475 0 1.583-.708 2.463-1.574 2.63-2.587 19.056-1.91 20.882.859.357.54 2.702 1.035 5.212 1.097 2.51.063 4.901.446 5.312.85.412.405 1.328.262 2.037-.317.912-.744 1.91-.726 3.41.064 1.166.614 2.957.855 3.98.535 1.158-.361 2.084-.007 2.453.938 1.058 2.712 2.673 1.604 2.673-1.834 0-4.315 1.978-5.849 7.793-6.042 2.58-.085 4.854-.639 5.054-1.23.2-.591 1.199-.86 2.22-.597 1.02.262 2.122.052 2.45-.469 1.146-1.825 5.749 0 7.263 2.881.826 1.57 1.114 2.854.64 2.854s-.66 1.34-.415 2.978c.419 2.806 1.524 3.488 4.962 3.061 1.412-.175 4.9 4.651 4 5.536-.333.327-.14 1.451.43 2.498.703 1.293 1.661 1.706 2.993 1.29 1.161-.363 2.606.024 3.546.948 1.417 1.394 1.817 1.402 3.752.068 3.086-2.126 4.074-1.883 6.107 1.502.989 1.648 2.213 2.743 2.72 2.434 1.16-.705 10.296 2.44 13.07 4.499 1.998 1.482 2.009 1.615.28 3.498-1.808 1.969-2.333 5.076-1.171 6.92.639 1.012.434 3.595-.469 5.909-.313.803-1.513 1.098-3.187.783-2.1-.395-3.329.189-5.64 2.679-1.627 1.75-2.732 3.54-2.458 3.977.274.436-1.548 1.357-4.049 2.046-2.5.689-4.789 1.638-5.085 2.109-.296.47-1.207.856-2.024.856s-3.174.741-5.237 1.647-4.055 1.688-4.426 1.737c-1.635.217-5.882 4.696-5.882 6.203 0 .913.278 1.388.617 1.054.339-.334 1.753.722 3.142 2.346 1.871 2.188 3.084 2.796 4.68 2.348a788.53 788.53 0 0 1 3.92-1.09c1.1-.302 1.765.061 1.765.965 0 1.88-2.547 2.81-5.62 2.051-1.704-.42-2.618-.123-3.054.994-.342.876-1.314 1.594-2.16 1.594-.846 0-2.954.837-4.684 1.86-1.73 1.024-3.633 1.683-4.228 1.465zm-142.78-13.002c-2.593-4.572-1.95-6.646 2.121-6.834 3.64-.167 10.336-1.573 13.265-2.785 3.094-1.28 3.036 1.434-.068 3.178-2.21 1.242-2.913 2.236-2.497 3.534.404 1.26-.038 1.965-1.46 2.33-1.23.317-1.823 1.077-1.496 1.916.642 1.644-.12 1.756-2.704.395-1.264-.665-2.098-.665-2.516 0-1.118 1.78-3.064 1.054-4.645-1.734zm103.86.059c-.08-.987-.241-4.185-.356-7.105s-.617-5.6-1.114-5.955c-.94-.669-1.654-1.75-5.837-8.83l-2.49-4.217 2.469-.61c2.582-.638 8.484 1.228 8.484 2.681 0 .463.68.584 1.513.27.832-.314 1.513-.077 1.513.527 0 .605.681 1.099 1.513 1.099 1.785 0 1.958 1.15.404 2.68-.807.793-.56 1.633.91 3.077 1.11 1.093 2.32 2.924 2.69 4.07.37 1.145 1.081 2.082 1.581 2.082s.65.667.331 1.482c-.383.984-1.36 1.288-2.908.906-2-.494-2.614.053-4.32 3.848-2.237 4.973-4.16 6.726-4.383 3.995zm-77.296-2.404c-6.172-3.005-8.504-6.26-7.674-10.71.366-1.962 1.057-3.717 1.536-3.9.478-.183.614-.741.3-1.24-.314-.5.089-.908.894-.908.806 0 1.75-.73 2.099-1.624.576-1.479.79-1.484 2.387-.062 2.176 1.937 10.31 1.207 10.31-.926 0-.787 1.06-1.358 2.522-1.358 1.387 0 2.522-.405 2.522-.9 0-.494.855-.679 1.9-.41 1.168.3 2.44-.27 3.302-1.482.973-1.367 2.556-1.971 5.162-1.971 2.068 0 3.76.402 3.76.893s1.065.893 2.367.893 3.436.912 4.742 2.026c2.369 2.02 2.37 2.027.239 2.575-2.23.573-9.366 10.938-9.366 13.602 0 2.075-1.241 2.687-7.371 3.633-8.112 1.253-11.21 2.02-12.25 3.034-1.397 1.36-2.583 1.172-7.38-1.164zm-76.005-2.127c-.87-2.067-1.733-2.74-3.073-2.396-2.274.586-3.46-.885-1.354-1.68.83-.313 1.508-1.17 1.508-1.903 0-.734 1.286-2.546 2.857-4.027 2.75-2.593 5.01-3.26 13.832-4.083 3.951-.37 4.086-.283 4.309 2.763.243 3.329 2.792 5.997 4.95 5.183 1.861-.703 1.59.148-.795 2.494-1.676 1.648-2.375 1.816-3.556.851-.808-.66-1.572-1.025-1.698-.81-.125.214-.714 1.256-1.308 2.315-1.551 2.763-3.503 3.085-4.142.684-.446-1.678-.906-1.878-2.455-1.063-1.048.552-1.906 1.608-1.906 2.345 0 .738-1.34 1.535-2.98 1.771-2.524.365-3.164-.009-4.19-2.444zm45.504-4.055c-4.121-.872-5.806-1.748-6.55-3.408-.643-1.432-1.547-2.018-2.522-1.633-.836.33-2.532.72-3.77.867s-2.89.791-3.675 1.432c-1.109.905-1.76.84-2.911-.293-.957-.941-1.83-1.118-2.46-.498-1.597 1.57-4.341-.126-4.341-2.684 0-2.55.667-2.871 2.978-1.433.806.502 1.94.614 2.522.249.581-.365 2.192-.734 3.58-.82 1.386-.086 4.512-.72 6.945-1.41 3.333-.946 4.877-.977 6.259-.128 2.42 1.487 3.215.032 1.875-3.434-.896-2.318-.77-2.998.75-4.072a72.555 72.555 0 0 0 3.622-2.776c1.304-1.079 2.312-1.218 3.666-.505 1.452.765 2.454.448 4.51-1.426 2.497-2.276 2.856-2.334 6.545-1.054 2.147.745 4.726 1.283 5.733 1.196 1.309-.114 2.074.828 2.691 3.314 1.427 5.747 1.369 6.29-.73 6.878-1.11.311-2.064 1.124-2.12 1.806-.055.682-.168 2.34-.252 3.686-.208 3.371-3.281 4.848-14.275 6.859-1.387.253-5.018-.067-8.07-.713zm-24.779-9.64c-1.63-1.06-3.531-1.718-4.224-1.463-.694.255-1.261.076-1.261-.398 0-.965-4.053-.764-8.433.416-2.848.768-2.875.735-2.147-2.582.406-1.848 1.567-4.973 2.582-6.945l1.844-3.585-6.255-2.42c-5.38-2.08-6.255-2.772-6.255-4.94 0-1.386-.556-3.183-1.237-3.993-.927-1.104-.948-1.756-.083-2.607.864-.85.718-2.082-.585-4.926-1.315-2.868-1.495-4.421-.74-6.377.55-1.422.765-3.469.478-4.548-.39-1.465.096-2.116 1.91-2.564 3.094-.764 5.525-5.398 3.278-6.246-1.915-.723-1.966-2.342-.074-2.342 1.8 0 2.975-5.002 2.097-8.932-.642-2.875-.54-2.977 2.947-2.977 1.986 0 3.497.335 3.359.744-.289.852.588 1.241 2.793 1.241 1.12 0 1.367-.65.917-2.412-.546-2.14-.35-2.344 1.746-1.812 1.3.33 2.816 1.146 3.37 1.815.556.669 2.144 1.506 3.532 1.86 2.301.588 2.35.539.553-.557-2.527-1.542-7.187-6.996-6.859-8.027.14-.435-.315-.805-1.008-.821-.703-.017-.483-.476.497-1.038 1.646-.944 1.652-1.168.086-3.52l-1.673-2.51 3.95.692c4.841.848 6.528 2.16 4.445 3.455-1.355.842-.712 1.391 1.27 1.084.416-.065.756.253.756.706 0 .453 1.589.772 3.53.708 3.57-.116 4.75 1.048 2.082 2.055-.797.3-1.246 1.068-.997 1.705.506 1.295 5.473 1.892 5.473.658 0-.873 7.542-4.958 9.153-4.958.56 0 1.977.878 3.148 1.951s2.533 1.704 3.028 1.403c3.13-1.903 6.58 7.279 4.337 11.545-1.28 2.436-1.243 2.892.352 4.312.981.874 2.302 3.72 2.935 6.324 2.498 10.28 2.514 10.943.316 13.106-1.146 1.127-2.835 2.05-3.752 2.05-.918 0-4.588 1.605-8.156 3.568-5.967 3.283-6.434 3.78-5.833 6.203.36 1.448 3.008 5.01 5.886 7.914l5.232 5.28-3.837 3.2c-3.51 2.927-3.747 3.433-2.775 5.948 1.418 3.669 1.37 3.818-.818 2.474-1.441-.885-2.915-.862-6.305.1-2.433.69-5.559 1.324-6.946 1.41-1.387.086-3.004.458-3.594.828-.59.37-2.405-.194-4.035-1.254zm53.724-4.467c-3.65-3.364-3.486-7.711.31-8.221 2.834-.38 6.053-2.837 6.053-4.618 0-.647 1.135-1.684 2.522-2.306 1.876-.84 2.522-.842 2.522-.005 0 .653.767.441 1.83-.504 1.41-1.257 2.103-1.36 3.026-.452.658.648 1.197 1.758 1.197 2.468 0 1.694 2.034 1.59 4.48-.23 2.576-1.917 7.728-1.85 12.002.155l3.437 1.612-1.637 3.836c-1.564 3.664-3.408 4.862-4.59 2.98-.302-.48-2.371-.9-4.598-.93-3.071-.041-4.312.432-5.144 1.962-.715 1.313-1.77 1.843-3.027 1.52-1.062-.274-2.185-.092-2.495.402-.311.495-1.673.9-3.028.9-1.516 0-2.462.571-2.462 1.488 0 .819-.795 1.495-1.766 1.502-.97.008-2.673.247-3.783.532-1.307.336-3.015-.4-4.85-2.091zm-28.394-12.482c-3.59-3.474-6.788-7.434-7.106-8.798-.509-2.18.066-2.835 4.726-5.392 6.792-3.727 15.951-5.993 15.951-3.947 0 .77.34 1.326.757 1.237 1.529-.33 6.276 1.39 5.824 2.109-.256.408.587 1.715 1.874 2.904 2.073 1.916 2.485 1.99 3.62.644 1.135-1.345 1.874-1.208 6.457 1.2 7.398 3.886 8.187 5.217 4.166 7.019-1.387.622-2.522 1.734-2.522 2.472 0 1.695-4.482 4.122-5.956 3.225-.608-.37-1.105-.205-1.105.365 0 1.266-7.341.695-11.571-.9-2.35-.885-3.221-.848-4.036.17-3.567 4.461-4.225 4.324-11.08-2.308zm63.508-1.502c-4.703-2.682-10.196-2.993-13.434-.762-2.156 1.486-2.397 1.429-4.363-1.03-1.602-2.003-2.392-2.348-3.434-1.496-1.04.848-1.66.606-2.671-1.043-1.635-2.664-15.505-9.825-14.616-7.545.934 2.396-.862 2.763-2.864.587-1.324-1.439-1.44-1.962-.438-1.962 2.16 0-.311-1.958-3.146-2.493-1.346-.253-2.952-1.136-3.568-1.961-.616-.825-1.546-1.5-2.068-1.5-.521 0-.948-1.488-.948-3.307 0-5.27-2.572-14.384-4.56-16.153-1.636-1.458-1.675-1.9-.382-4.361 1.031-1.961 1.183-3.62.537-5.836-1.03-3.536-.747-3.775 7.707-6.49 2.87-.92 5.7-2.245 6.288-2.942 1.547-1.833 11.629-5.006 13.574-4.272.909.343 1.652 1.487 1.652 2.543 0 2.27 5.368 4.485 7.918 3.267 2.314-1.105 25.18-.77 26.245.386.962 1.043 4.173 13.29 4.173 15.918 0 .917-1.224 2.782-2.719 4.145-2.696 2.458-2.702 2.493-.695 4.09 1.51 1.204 1.994 2.717 1.911 5.973-.065 2.545.718 6.01 1.879 8.317 1.724 3.43 1.793 4.103.516 5.06-.81.608-3.417 3.198-5.792 5.756-3.791 4.083-4.177 4.912-3.159 6.784 1.597 2.935 1.11 2.98-3.542.327zm-122.46-4.703c-1.169-1.224-2.125-3.047-2.125-4.051 0-1.707-.121-1.72-1.845-.185-1.958 1.744-3.277 2.128-3.08.898.37-2.301-.426-3.433-3.044-4.331-1.61-.552-3.166-1.909-3.46-3.015-.402-1.51-1.055-1.849-2.624-1.36-1.591.498-2.088.222-2.088-1.16 0-2.578 3.583-4.583 5.956-3.334 1.374.723 2.914.486 5.777-.891 2.227-1.071 4.057-1.458 4.262-.9.197.538 1.445 1.384 2.774 1.881 1.668.625 2.416 1.68 2.416 3.41 0 1.539.57 2.505 1.478 2.505 2.046 0 3.655 3.224 2.502 5.016-.507.79-.943.989-.969.443-.025-.546-.514-.202-1.086.764-.571.966-.771 2.588-.443 3.604.906 2.808-1.955 3.267-4.401.706zm5.23-.61c-.117-1.637.168-2.976.633-2.976 1.573 0 3.147 2.717 2.514 4.34-1.033 2.648-2.92 1.83-3.148-1.364zm-78.4-7.69c5.299-6.95 6.83-8.152 10.406-8.17 3.37-.017 5.024-1.266 7.245-5.475.903-1.712.866-1.769-.27-.41-.723.865-2.374 2.129-3.668 2.807-1.983 1.04-2.546.973-3.584-.423-.676-.91-1.888-1.545-2.691-1.41-.804.134-2.261-.099-3.24-.52-1.044-.448-2.397-.258-3.278.462-.825.674-1.534 1.059-1.575.855-.892-4.395-.81-4.583 2.372-5.466 2.227-.617 3.806-1.989 5.014-4.353 1.035-2.029 1.345-3.589.75-3.785-.557-.183-.756-.74-.442-1.24s-.153-.908-1.038-.908c-1.295 0-1.398-.385-.528-1.984 1.165-2.143 6.432-2.798 7.596-.945.449.714 1.092.683 2.05-.098 1.182-.966 1.163-1.367-.126-2.635-.927-.912-1.178-1.937-.643-2.63 1.475-1.911.885-7.09-.807-7.09-3.188 0-3.822-4.676-1.009-7.443 2.018-1.985 2.018-1.985-.504-1.985-1.387 0-2.522.399-2.522.886 0 1.464-3.187 2.203-4.583 1.063-.97-.792-1.387-.624-1.638.656-.319 1.628-.429 1.628-2.091-.007-1.667-1.64-1.655-1.919.245-5.582 1.284-2.476 1.626-4.082.957-4.489-.574-.348-.745-1.557-.38-2.685.502-1.56.3-1.915-.846-1.483-.828.313-2.016.068-2.638-.544-.837-.823-1.15-.738-1.203.325-.043.872-.39.656-.878-.545-.532-1.308-.148-3.34 1.122-5.955l1.93-3.97-2.466 2.873c-1.59 1.852-3.04 2.656-4.078 2.264-2.158-.814-2.055-2.636.154-2.734.97-.043 1.22-.296.553-.563-.899-.359-.768-1.431.504-4.14.944-2.01 2.171-3.982 2.726-4.383.57-.412.24-.736-.757-.745-2.634-.022-2.433-5.627.232-6.46 1.098-.342 1.913-.93 1.81-1.307-.102-.376.36-2.247 1.028-4.157l1.213-3.473 6.56-.093c7.663-.107 8.333 1.007 3.01 5.002-1.953 1.465-3.296 3.068-2.985 3.563.31.495-.187 2.029-1.106 3.409-1.876 2.816-1.123 3.111 2.596 1.02 2.722-1.53 12.664-2.017 13.515-.661 1.035 1.646-4.286 12.564-6.896 14.15-3.721 2.26-4.453 3.24-1.827 2.447 3.832-1.16 2.511.947-1.486 2.37-3.62 1.287-3.669 1.367-1.367 2.205 1.314.478 3.154.63 4.09.338 2.359-.736 8.292 3.438 9.159 6.443a766.123 766.123 0 0 1 1.847 6.58c.862 3.121 1.863 4.397 4.193 5.347 4.377 1.783 5.244 3.937 2.785 6.924l-2.025 2.46 3.052 1.226c3.782 1.518 5.01 4.727 2.75 7.184-1.528 1.661-1.518 1.84.142 2.467.984.372 1.95.203 2.145-.374.51-1.505 5.4-1.235 7.623.42 2.905 2.164 1.466 7.982-2.47 9.984-1.657.843-2.775 1.914-2.482 2.38.292.465-.176 1.113-1.04 1.439-2.445.923-.659 2.592 2.775 2.592 2.68 0 2.918.204 1.789 1.543-2.311 2.74-5.384 3.838-11.051 3.95-11.165.223-13.233.462-12.608 1.457.699 1.112-2.32.87-4.299-.344-1.972-1.21-4.865.128-6.116 2.831-.994 2.147-1.437 2.318-3.545 1.373-1.87-.838-3.103-.726-5.524.506-4.546 2.313-4.782 2.002-1.627-2.136zm76.09-8.554c-1.388-.598-3.064-1.596-3.727-2.218-.662-.622-2.478-.963-4.035-.758l-2.831.374 2.898-1.344 2.899-1.345-3.038-.597-3.037-.598 2.409-4.681c1.325-2.575 2.409-5.276 2.409-6.002s.48-1.32 1.069-1.32c.623 0 .87 1.248.59 2.987-.628 3.923 2.557 5.996 5.368 3.494 1.502-1.337 1.618-2.035.673-4.041-.629-1.334-1.484-2.428-1.9-2.433-1.63-.016-.705-4.848 1.01-5.27 8.732-2.144 13.563 2.213 8.07 7.278-2.11 1.945-2.148 2.182-.543 3.346 1.527 1.108 1.559 1.488.275 3.29-.798 1.121-2.606 2.324-4.018 2.672-2.155.532-2.403.938-1.542 2.52.564 1.039.688 2.753.274 3.81-.64 1.637-1.125 1.76-3.273.836zm178.46-1.618c-.317-.819-1.9-1.577-3.518-1.685a2201.67 2201.67 0 0 0-10.384-.642c-4.093-.245-7.725-.876-8.07-1.403-1.804-2.748-19.399-3.335-22.309-.744-2.261 2.013-4.058 1.264-3.35-1.397.33-1.242-.213-2.276-1.57-2.99-2.236-1.178-1.91-4.04.46-4.04 2.13 0 2.772-4.398 1.44-9.86-1.38-5.661-.888-7.063 2.27-6.465 2.757.523 5.998-.397 5.302-1.505-.478-.76 4.148-2.528 5.743-2.194.396.083.478-.468.183-1.225-.295-.757-.052-1.671.54-2.031.593-.36 1.078-1.3 1.078-2.086 0-1.57 3.502-5.4 4.937-5.4 1.328 0 2.185-2.791.979-3.187-.675-.222-.603-1.27.21-3.023.982-2.122 1.73-2.563 3.574-2.108 1.738.43 2.974-.143 4.859-2.252 1.39-1.555 2.542-2.283 2.56-1.618.017.665.712.953 1.544.638.833-.314 1.514-.05 1.514.586 0 .637.413.906.917.6 1.541-.937 4.034.516 3.45 2.011-.65 1.67.819 1.862 2.393.313 1.659-1.631 6.549 1.01 8.22 4.44 1.051 2.158 1.115 3.406.268 5.235-.883 1.905 3.705 9.753 4.676 10.466.97.713 1.765 1.966 1.765 2.784 0 .818.68 1.532 1.513 1.586 3.53.229 4.124.45 3.574 1.324-.32.508-.119 1.205.445 1.548 1.725 1.048 1.15 2.477-1.467 3.65-1.862.835-2.848.826-3.901-.033-1.73-1.412-4.313 1.057-3.11 2.971.417.665 1.077 2.923 1.467 5.02.637 3.426.474 3.87-1.606 4.383-3.173.784-5.254 3.295-5.67 6.844-.215 1.82-.574 2.399-.926 1.489zm-286.53-1.785a5.288 5.288 0 0 1 0-1.44c.065-.41-.362-.745-.95-.745-.587 0-.776-.464-.42-1.032.422-.671-.35-.817-2.21-.418l-2.858.615 2.356-1.884c1.334-1.067 2.209-2.69 2.017-3.746-.258-1.422.616-2.15 3.697-3.08 3.515-1.062 3.677-1.229 1.261-1.295-3.31-.091-3.727-2.452-.757-4.276 2.92-1.794 2.485-2.745-1.26-2.762-1.804-.009-3.946-.43-4.76-.937-1.246-.775-1.126-1.224.757-2.83 2.784-2.376 2.874-4.158.21-4.158-1.773 0-1.868-.247-.765-1.984 1.408-2.22 4.37-2.647 5.15-.745.402.98.526.976.589-.019.054-.861.928-1.05 2.767-.595 2.208.544 2.576.376 2.062-.942-1.223-3.137 1.572-2.863 4.469.437l2.942 3.352 1.968-2.48c1.082-1.365 1.978-1.941 1.99-1.28.012.661.99 2.088 2.17 3.17 2.39 2.19 3.946 11.45 2.684 15.973-1.468 5.26-1.991 6.045-3.313 4.966-.925-.756-1.54-.772-1.992-.052-.36.572-1.434 1.04-2.388 1.04s-2.544.93-3.534 2.068c-.99 1.137-2.423 1.832-3.185 1.544-.762-.288-1.544-.057-1.737.512-.422 1.247-6.79 4.013-6.96 3.023zm236.59-30.395c-.502-1.113-1.87-2.487-3.038-3.054-1.7-.824-1.953-1.49-1.265-3.318 1.11-2.954-.983-5.115-4.956-5.115-3.733 0-5.882-2.39-6.73-7.49-.558-3.354-.31-4.334 1.512-5.954 1.84-1.635 3.406-1.894 10.02-1.656 4.312.155 8.895.481 10.184.726 1.29.244 2.714-.106 3.167-.779.616-.915 1.085-.785 1.864.515.572.955 1.837 1.737 2.81 1.737 2.774 0 8.587 6.445 7.956 8.82-.293 1.1-.013 2.21.621 2.467.635.256.36.5-.611.543-.971.043-1.765.749-1.765 1.567 0 .82-.681 1.489-1.514 1.489-.908 0-1.513.917-1.513 2.294 0 2.632-3.391 6.638-5.62 6.638-.827 0-1.747.62-2.043 1.38-.886 2.27-7.976 1.638-9.08-.81zm-214.89.39c-1.172-.437-2.454-1.613-2.85-2.614-.668-1.69-.858-1.652-2.662.523l-1.943 2.343-1.89-2.296c-1.883-2.288-1.876-2.311 1.858-5.948 4.795-4.67 7.984-5.752 9.791-3.32.736.99 1.338 2.607 1.338 3.594s.454 1.796 1.009 1.796c1.614 0 1.166 2.897-.757 4.888-1.262 1.307-2.371 1.602-3.895 1.034zm141.46-3.517c-.838-2.147-.444-2.535 1.423-1.4 1.08.657 1.176 1.192.357 1.997-.819.806-1.296.646-1.78-.597zm-156.17-4.653c.653-.775.97-1.623.703-1.885-.266-.262 1.357-1.494 3.606-2.738 2.25-1.244 4.342-2.014 4.65-1.712.307.303-.313 2.022-1.377 3.822-1.487 2.515-2.726 3.347-5.353 3.597-2.856.271-3.222.093-2.23-1.084zm125.04-1.414c-1.168-.3-1.766-1.425-1.766-3.323 0-1.73-.71-3.243-1.787-3.81-1.5-.79-1.772-2.251-1.696-9.11.081-7.26.349-8.374 2.404-10.011 1.271-1.013 3.214-1.842 4.317-1.842 1.103 0 3.343-1.409 4.978-3.13 3.954-4.164 5.85-2.71 3.93 3.012-1.684 5.02-.74 9.05 2.12 9.05 1.787 0 1.92.239.846 1.512-.702.832-1.51 1.283-1.796 1.001-.964-.948-3.113 1.589-2.555 3.018.342.877-.087 1.416-1.129 1.416-.924 0-1.4.446-1.057.992.343.546.03.994-.697.996-.888.002-1.33 1.465-1.347 4.466-.015 2.454.439 4.469 1.009 4.477.57.009.354.448-.478.978-1.586 1.008-2.392 1.055-5.296.308zm19.712-2.748c-1.781-1.25-2.993-2.512-2.693-2.808.3-.295.064-1.423-.526-2.506-.948-1.743-.535-2.217 3.596-4.128 3.75-1.734 4.834-1.9 5.514-.844 1.19 1.845 1.087 5.03-.138 4.286-.56-.34-1.306.126-1.66 1.034-.355.908-.087 1.991.596 2.406.91.553.785.926-.471 1.4-1.39.525-1.478.923-.466 2.123 1.796 2.129.001 1.668-3.752-.964zm65.147 1.55c.759-.474 1.773-1.471 2.254-2.218.644-1 .878-.77.89.875.011 1.663-.564 2.23-2.255 2.218-1.672-.011-1.906-.242-.89-.875zm-42.783-1.16c-1.086-1.73.15-2.095 1.534-.455.796.943.872 1.513.203 1.513-.59 0-1.372-.477-1.738-1.059zm-12.022-3.837c-.367-.583-.436-1.426-.155-1.874.282-.448-.366-2.235-1.439-3.97s-1.503-3.155-.956-3.155c1.246 0 1.315-6.218.083-7.493-1.944-2.013-8.47-15.771-9.785-20.634-1.656-6.115-1.892-10.88-.428-8.601 1.624 2.527 3.57-.565 3.461-5.5-.053-2.43.336-4.416.864-4.416.53 0 .732-.59.45-1.312-.281-.721.307-1.815 1.308-2.43 2.276-1.398 3.381-7.628 2.11-11.889-.742-2.482-.658-3.225.362-3.225 1.138 0 2.51-2.799 2.555-5.21.008-.41-1.008-1.75-2.256-2.977-1.733-1.705-2.317-3.524-2.47-7.692-.109-3.002-.274-6.574-.367-7.939-.093-1.365-.097-3.82-.009-5.458.088-1.638.127-3.647.087-4.466-.26-5.225 2.736-11.374 6.042-12.407 1.013-.316 3.004-.288 4.424.062 2.098.518 2.796.177 3.72-1.819 1.183-2.552-.101-6.677-2.078-6.677-.506 0 .407-2.792 2.029-6.203 2.225-4.68 3.016-7.935 3.225-13.26.27-6.895.347-7.078 3.303-7.94 2.31-.672 3.03-1.468 3.04-3.362.008-1.364 1.185-4.267 2.616-6.45 5.026-7.67 5.237-7.204 3.495-9.82-1.952-2.93-1.974-3.441-.15-3.441.79 0 1.982-1.675 2.65-3.722s1.888-4.481 2.712-5.41c1.333-1.502 1.743-1.529 3.742-.24 2.084 1.344 2.33 1.266 3.42-1.088.645-1.394 1.174-4.077 1.174-5.962 0-1.885.454-3.427 1.009-3.427.555 0 1.008.447 1.008.993s.93.992 2.068.992c1.137 0 3.488.722 5.223 1.605 2.966 1.509 3.238 1.494 4.525-.236.83-1.116.968-1.974.351-2.176-.593-.195-.338-1.353.613-2.781 1.299-1.95 1.4-2.943.5-4.888-.902-1.947-.85-2.44.253-2.44.761 0 1.634.64 1.94 1.423.304.782 3.83 3.686 7.833 6.452 9.631 6.654 12.401 10.682 12.116 17.618-.12 2.9.218 5.272.75 5.272.53 0 .742.84.469 1.869-.273 1.028.188 2.041 1.024 3.633 1.197 2.277 1.31 3.869.529 7.472-.666 3.067-.649 5.835.05 8.387.573 2.094 1.055 4.218 1.071 4.718.044 1.381-6.708 1.087-8.492-.37-1.144-.933-1.567-.962-1.567-.106 0 .645-.454.896-1.009.559-.586-.356-1.009.623-1.009 2.338 0 1.98-.976 3.859-2.966 5.707-1.632 1.515-2.728 3.135-2.436 3.6.293.467-.287 2.056-1.29 3.533-2.074 3.06-1.959 5.117.388 6.896 1.468 1.114 1.391 1.479-.79 3.762-1.327 1.391-2.885 3.946-3.46 5.677-.739 2.221-2.532 3.994-6.091 6.021-4.606 2.624-13.62 12.151-13.62 14.396 0 .515-1.164 1.687-2.589 2.605-1.935 1.248-2.318 1.991-1.515 2.943.776.92.5 2.9-.993 7.128-1.598 4.525-1.92 7.14-1.42 11.503.59 5.132.902 5.702 3.408 6.244 2.896.626 10.172 8.944 10.172 11.628 0 .808-1.244 2.027-2.764 2.708-2.582 1.158-2.645 1.325-.948 2.545 1.956 1.408.584 3.158-1.488 1.899-.645-.393-.893-.277-.556.26.335.533-.248 1.69-1.294 2.572-1.362 1.147-2.042 1.268-2.391.425-.302-.728-.515-.61-.558.31-.04.82-1.458 2.612-3.154 3.983-2.723 2.203-3.14 3.244-3.578 8.932-.272 3.54-.772 7.331-1.11 8.423-.339 1.091-.705 3.434-.815 5.204s-1.037 5.047-2.06 7.28c-1.85 4.032-1.89 4.055-6.21 3.418-3.603-.531-4.347-.366-4.347.967 0 .884-.403 1.363-.895 1.064-1.39-.845-3.194 1.896-2.9 4.406.19 1.626-.3 2.322-1.754 2.485-1.11.125-2.766.538-3.68.918-.916.381-1.964.215-2.33-.368zm93.438-6.484c-1.722-1.93-3.89-3.508-4.816-3.508-.927 0-2.253-.764-2.948-1.699-.944-1.27-1.61-1.427-2.633-.624-.754.592-2.051.968-2.884.836-.832-.132-4.868-.519-8.968-.86-6.464-.538-7.906-.346-10.845 1.44l-3.39 2.062.007-2.81c.003-1.546.684-4.09 1.513-5.653.829-1.564 1.514-3.797 1.522-4.962.021-2.882.966-3.954 4.525-5.136 2.68-.89 3.285-.702 5.296 1.645 1.248 1.458 2.27 3.128 2.27 3.712s.908 1.54 2.017 2.125c4.063 2.139 8.73-2.727 7.576-7.897-.546-2.443-.208-3.025 2.542-4.374 3.583-1.758 5.634-.958 9.895 3.864 1.706 1.93 2.636 2.3 3.953 1.576 1.211-.667 2.568-.457 4.57.706 2.527 1.469 2.787 2.078 2.311 5.423-.3 2.108-.137 3.526.369 3.218.497-.302 1.43 1.017 2.072 2.932 1.044 3.111.918 3.795-1.18 6.438-1.575 1.983-3 2.812-4.328 2.52-1.09-.24-2.731.231-3.648 1.048-1.504 1.338-1.977 1.14-4.799-2.022zm-56.66-18.441c0-2.853 3.96-7.892 6.2-7.892 1.481 0 .941 2.017-.706 2.639-.918.346-1.446 1.511-1.273 2.808.296 2.226-1.682 5.47-3.335 5.47-.487 0-.885-1.362-.885-3.025zm57.859-4.138c-2.7-3.287-7.272-5.946-8.707-5.064-2.696 1.657-3.967 1.195-3.489-1.268.499-2.568-1.032-4.376-2.17-2.564-.825 1.313-2.23.396-3.905-2.55-1.02-1.794-1.02-2.235 0-2.248.785-.01.884-.293.26-.744-.554-.401-1.156-1.767-1.336-3.036-.236-1.655.263-2.458 1.765-2.844 1.152-.297 2.094-.862 2.094-1.256 0-1.258 5.207-3.104 7.093-2.515.999.312 2.07.162 2.381-.332.677-1.077 4.093-.767 7.994.725 1.562.597 4.827 1.086 7.255 1.086h4.416l-2.452 4.217c-2.59 4.458-3.214 10.435-1.43 13.714.816 1.499.61 2.383-.931 4.01-1.088 1.149-2.486 1.779-3.108 1.401-.621-.378-1.745-.185-2.496.428-1.053.86-1.794.594-3.235-1.16zm-141.17-5.597c.293-.467-1.269-2.275-3.472-4.016-2.502-1.978-4-3.987-3.99-5.353.013-1.775.2-1.906.994-.697.768 1.169.98 1.196.993.126.013-1.142.3-1.147 1.78-.033.972.732 1.412.921.978.422-.433-.5.248-1.494 1.513-2.209 2.215-1.25 2.187-1.278-.725-.715-2.311.446-2.669.334-1.513-.473.832-.582 1.06-1.079.505-1.105-.555-.025-.128-.702.949-1.503 1.412-1.051 1.553-1.466.504-1.489-1.096-.024-1.007-.365.365-1.388 1.288-.96 1.448-1.48.547-1.774-1.661-.545-7.076 2.118-6.423 3.159.277.44-.399 1.034-1.502 1.318-2.387.613-2.627-.692-.458-2.485a153.49 153.49 0 0 0 2.906-2.473c.747-.656 1.574-.98 1.839-.72.264.26 1.113-.291 1.885-1.226 1.223-1.478 1.197-1.622-.2-1.108-.882.325-2.244.192-3.026-.295-.782-.487-.927-.892-.323-.9.605-.009 1.681-1.244 2.393-2.745 1.213-2.56 1.03-3.615-.303-2.383-2.311 2.136-2.445 2.152-2.926.343-.277-1.043-.084-2.633.428-3.533.997-1.752.204-3.961-1.13-3.15-.442.269-1.586-.36-2.54-1.399-1.68-1.825-1.577-1.91 3.143-2.56 7.774-1.073 2.945-1.926-.416-1.873-6.03.096-6.814-.806-2.018-2.32 3.016-.95 3.076-1.048.757-1.205-2.33-.158-2.368-.236-.504-1.024 1.11-.47 1.423-.884.697-.923-.727-.038-1.04-.516-.697-1.062.342-.546-.14-.992-1.073-.992-1.394 0-1.472-.266-.44-1.489 1.673-1.983 3.701-1.882 4.963.248.565.955 1.042 1.204 1.059.553.016-.65.863-1.025 1.882-.832 1.018.192 2.493-.05 3.278-.538 1.672-1.041 1.263-1.124-9.036-1.819-1.142-.077-1.155-.366-.075-1.645.882-1.046 2.157-1.347 3.906-.923 2.055.499 2.341.374 1.371-.596-.963-.964-.856-1.503.505-2.52 2.755-2.059 4.25-1.58 4.284 1.373.03 2.591.106 2.634 1.487.838 1.297-1.685 1.23-2.083-.618-3.66-1.14-.972-2.717-1.525-3.505-1.227-.787.297-1.431-.017-1.431-.698 0-.907 1.546-1.093 5.8-.696 3.191.297 4.927.214 3.857-.184-2.609-.973-.111-1.959 3.872-1.529 2.124.23 2.572.02 1.73-.807-1.664-1.637-1.388-3.154.32-1.76 1.194.975 1.428.818 1.3-.87-.088-1.133-.856-2.096-1.71-2.139-.852-.043-.209-.557 1.43-1.142 3.603-1.287 7.675-4.734 5.592-4.734-.919 0-.729-.476.56-1.404 2.12-1.525 3.71-.345 2.773 2.059-.345.882.281 1.325 1.858 1.315 1.906-.012 2.078-.206.865-.977-1.148-.73-.723-.966 1.765-.978 2.563-.011 3.28-.434 3.28-1.933 0-1.055.858-2.186 1.908-2.514 1.255-.392 1.86-1.434 1.765-3.043-.175-2.992-1.68-3.11-4.823-.381-1.724 1.496-1.894 1.916-.616 1.52 2.726-.847 2.086.912-.805 2.207-3.611 1.619-5.018 1.483-3.483-.337 1.04-1.232.931-1.49-.633-1.504-1.515-.012-1.604-.192-.45-.91.79-.493 1.594-1.902 1.785-3.133.436-2.811 2.137-4.873 4.02-4.873.798 0 1.17-.447.827-.993-.343-.545-.166-.992.394-.992s1.382.624 1.825 1.386c.69 1.187.994 1.187 2.108 0 .715-.762.942-1.417.504-1.456-.438-.038.112-.453 1.221-.922 1.855-.785 1.815-.862-.504-.956l-2.522-.103 2.382-1.952c1.31-1.073 2.016-1.952 1.569-1.952-.447 0 .69-1.09 2.526-2.422 1.836-1.333 4.05-3.454 4.918-4.714 1.548-2.245 1.539-2.256-.432-.568-1.552 1.329-2.286 1.454-3.209.545-2.093-2.059-1.454-3.971 1.065-3.185 2.01.628 2.109.525.886-.924-1.118-1.326-1.143-2.184-.132-4.585 1.1-2.61 1.495-2.825 3.402-1.842 2.054 1.06 2.077 1.023.486-.768-1.489-1.676-1.505-2.032-.146-3.259 1.173-1.059 1.701-1.099 2.283-.173.545.868 1.574.485 3.676-1.367l2.92-2.573-2.522.17c-1.387.094-3.576.102-4.864.017-1.935-.128-2.11-.38-1.009-1.45.733-.714 2.228-1.63 3.323-2.039 1.668-.622 1.75-.891.504-1.666-1.21-.753-1.112-.94.533-1.009 2.017-.085 2.017-.085 0-.938-2.018-.853-2.018-.853 0-.938 1.585-.066 1.712-.274.593-.972-1.205-.75-1.165-1.142.252-2.536.922-.908 1.69-1.283 1.708-.835.016.449.49.04 1.05-.907 1.086-1.833 5.533-2.096 7.746-.457.88.651 1.261 1.582 1.261.472 0-1.474-1.383-2.075-6.546-2.842-1.912-.284-1.892-.41.442-2.706 1.538-1.513 2.595-1.97 2.846-1.23.22.649 1.005 1.18 1.745 1.18.74 0 1.496.431 1.681.96.185.527.86-.14 1.5-1.484 1.09-2.288 1.01-2.406-1.261-1.845-1.834.453-2.425.196-2.425-1.056 0-.91.363-1.435.805-1.166s1.389.135 2.102-.3c1.014-.615.955-.917-.268-1.379-.86-.325-1.834-.164-2.161.358-.853 1.358-3.75 1.177-3.281-.205.456-1.346 3.009-2.065 7.556-2.128 3.245-.046 5.18-2.037 3.166-3.26-.713-.435-.617-.93.288-1.48 1.089-.662 1.108-1.075.098-2.069s-.808-1.49 1.017-2.487c1.838-1.004 1.937-1.252.514-1.28-.97-.02-1.765-.473-1.765-1.008 0-1.218 7.367-4.977 9.796-4.997 1.534-.013 1.578-.16.292-.978-.832-.529-1.06-.975-.504-.992.554-.017.357-.436-.44-.932-1.2-.747-1.222-1.17-.129-2.466.726-.86 1.945-1.564 2.71-1.564.877 0 1.39-1.119 1.39-3.036 0-1.679.43-2.774.964-2.45.53.323.715 1.355.41 2.292-.361 1.108-.252 1.295.31.536 1.18-1.59 4.723-1.159 5.521.673.526 1.208.797 1.114 1.438-.496.434-1.092 1.47-3.03 2.302-4.309.832-1.278 1.637-3.465 1.788-4.86.151-1.395.8-3.03 1.44-3.631 1.372-1.29.353 8.493-1.23 11.807-.934 1.953-.924 1.954.62.058.863-1.06 1.569-2.51 1.569-3.225 0-1.572.489-1.609 3.345-.252 2 .951 2.04.918.438-.357-2.617-2.082-2.038-7.279.601-5.404.192.137 1.079-.347 1.97-1.074 1.686-1.377 5.751-.746 5.751.893 0 .509.47.925 1.045.925.695 0 .669-.69-.078-2.062-.617-1.134-.88-2.683-.584-3.442.296-.758.104-1.643-.427-1.965-1.184-.72.097-.47.93-.47.622 0 7.56 2.562 6.574 4.174-.632 1.033-.482 1.043.762.052.851-.677 1.847-.938 2.212-.578.926.91.827-.117-.288-3.003-.732-1.893-.6-2.593.568-3.035.836-.315 1.279-.957.984-1.426-.295-.47.081-1.684.836-2.7 1.214-1.633 1.574-1.68 3.14-.401 1.604 1.31 1.705 1.25 1.095-.642-.43-1.328-.116-2.54.863-3.339.845-.69 1.536-2.465 1.536-3.944 0-3.24 2.672-3.695 3.665-.623.587 1.814.743 1.859 1.276.367.428-1.198 1.043-1.436 2.08-.805 1.275.775 1.25 1.137-.182 2.695-1.504 1.635-3.25 5.217-3.778 7.75-.113.546-.629 1.493-1.145 2.105-.54.639-.577 2.074-.089 3.372.83 2.208.896 2.183 2.877-1.113 1.115-1.854 3.325-5.967 4.91-9.139 1.587-3.172 3.25-5.99 3.697-6.261 1.29-.785.941 3.069-.398 4.386-.913.899-.92 1.191-.026 1.191.776 0 .98 1.016.588 2.94-.574 2.826-.503 2.894 1.875 1.79 1.764-.819 2.472-1.95 2.472-3.949 0-1.612.821-3.395 1.934-4.201 1.806-1.308 1.817-1.444.168-2.073-.971-.37-1.765-.96-1.763-1.312.003-.997 6.394-1.18 7.945-.226 1.825 1.122.55 3.062-2.014 3.062-1.144 0-1.736.448-1.367 1.035.358.57.045 1.76-.697 2.644-1.21 1.443-1.115 1.486.922.418 2.52-1.32 2.773-.922 1.226 1.922-.574 1.056-.688 1.913-.252 1.905 1.753-.034 3.082-1.657 4.255-5.195 1.208-3.647 4.103-5.2 4.103-2.202 0 .836.794 1.808 1.765 2.16.971.353 2.1 1.12 2.507 1.706.503.723.746.676.756-.144.01-.675.697-.953 1.555-.629 1.266.478 1.311.857.252 2.14-1.103 1.336-1.013 1.457.631.85 1.312-.485 2.54-.052 3.884 1.368 1.082 1.143 1.808 2.176 1.614 2.296-.195.12-2.242 1.463-4.55 2.984-4.093 2.698-4.274 2.725-7.43 1.12-4.575-2.328-6.58-.274-2.15 2.202 1.753.979 2.982 2.315 2.732 2.97-.272.71.134.967 1.007.638 1.64-.62 2.022 1.187.453 2.141-.555.338-1.008 1.089-1.008 1.669 0 .643.621.548 1.59-.243 1.317-1.076 1.747-1.054 2.506.127 1.562 2.428 1.059 3.798-1.96 5.334-1.65.84-3.203 2.63-3.587 4.139-.481 1.885-.992 2.35-1.756 1.6-.763-.752-.444-1.934 1.097-4.063 2.971-4.105 1.987-7.152-3.867-11.974l-4.751-3.913-2.96 1.934c-1.627 1.065-4.706 2.407-6.843 2.983-2.137.577-3.646 1.283-3.354 1.57.292.288-.374 2.598-1.479 5.134-1.323 3.038-1.803 5.69-1.406 7.772.499 2.617.24 3.273-1.504 3.818-1.159.362-2.523 1.736-3.033 3.054-1.116 2.888-1.64 2.933-5.446.465-2.925-1.897-2.988-1.896-5.723.02-3.798 2.66-6.73 1.197-10.371-5.178-2.516-4.403-3.144-4.91-5.387-4.357-1.396.345-3.198 1.275-4.002 2.067-.805.792-2.34 1.44-3.41 1.44-2.269 0-2.302.129-.832 3.3.842 1.82.792 2.976-.207 4.761-.726 1.298-1.198 3.14-1.05 4.096.15.955.03 1.736-.263 1.736-.594 0-7.166-2.718-9.974-4.124-2.652-1.328-3.74-.188-3.758 3.935-.021 5.094-1.366 6.99-3.873 5.462-1.612-.982-2.268-.817-3.95.993-1.11 1.193-2.345 3.286-2.746 4.65-.4 1.366-1.643 3.195-2.762 4.067-1.949 1.519-1.962 1.694-.303 4.184 1.685 2.53 1.646 1.616-1.451 6.94-1.75 3.01-3.626 5.742-4.17 6.073-.543.33-.694 1.512-.335 2.625.726 2.25-.887 3.723-4.102 3.748-1.82.013-2.04.761-2.258 7.632-.189 6.001-.86 8.924-3.165 13.768-2.851 5.993-2.877 6.192-1.021 7.756 3.269 2.753 1.779 7.31-2.005 6.129-5.7-1.78-11.609 5.263-11.208 13.358.04.819.002 2.828-.086 4.466-.089 1.637-.085 4.093.008 5.458.093 1.365.259 5.02.368 8.123.156 4.412.695 6.098 2.47 7.73 1.248 1.149 2.27 2.48 2.27 2.96 0 2.011-1.322 4.013-2.65 4.013-1.07 0-1.231.68-.649 2.729 1.535 5.399.695 11.336-1.88 13.283-1.313.994-1.992 1.817-1.508 1.829.484.012.351.65-.295 1.416-.647.766-.906 2.452-.576 3.745.33 1.293.151 3.457-.397 4.809-.625 1.54-1.021 1.849-1.061.828-.035-.896-1.199-1.91-2.586-2.252-2.554-.63-2.865-1.478-2.674-7.284.058-1.773-.282-3.225-.756-3.225-1.888 0-2.945 2.69-2.457 6.254.522 3.808-1.053 7.145-2.856 6.05-.521-.318-1.771.357-2.778 1.499-1.007 1.142-2.371 2.076-3.032 2.076-.662 0-.914.459-.562 1.02.663 1.055-5.465 7.349-6.329 6.5-.267-.264-1.145.17-1.95.963-1.538 1.512-9.902 2.063-8.978.591zm-.292-58.373c-1.19-2.012-1.477-1.368-.503 1.128.346.887.841 1.404 1.101 1.148s-.01-1.28-.598-2.276zm115.89-136.15c.832-.529 1.059-.962.504-.962-.555 0-1.69.433-2.522.962-.832.53-1.06.962-.504.962.555 0 1.69-.433 2.522-.962zm-4.036 191.39c0-1.224.906-2.158 2.465-2.543 3.417-.844 5.27.43 2.906 1.998-3.661 2.428-5.37 2.602-5.37.545zm2.663-6.63c-1.136-1.118-.692-2.29.868-2.29.833 0 1.514.42 1.514.935 0 1.25-1.576 2.147-2.382 1.354zm3.728-15.757c-.31-.797-.331-2.328-.046-3.402.435-1.637.22-1.795-1.333-.977-2.876 1.514-5.324 1.221-4.631-.553.349-.895.08-1.468-.649-1.381-.685.08-2.194-.158-3.355-.531-1.712-.55-2.056-1.366-1.825-4.326.157-2.006.366-3.87.464-4.143.099-.273.143-.78.098-1.129-.045-.348.339-2.076.853-3.84.696-2.388.54-3.958-.615-6.155-.853-1.622-1.298-3.598-.988-4.39.309-.793.038-3.37-.603-5.726-1.06-3.897-.967-4.493 1.024-6.596 1.205-1.272 2.076-3.009 1.937-3.861-.169-1.035.678-1.654 2.55-1.866 1.541-.174 2.69-.844 2.552-1.489-.453-2.119 2.674-7.633 4.686-8.261 2.543-.794 3.414-1.733 7.547-8.136 4.51-6.986 5.934-8.288 8.268-7.56 1.76.55 1.881.216 1.343-3.687-1.034-7.496-1.436-8.613-3.316-9.2-5.756-1.797-9.053-9.488-7.379-17.213.78-3.599.668-5.195-.524-7.463-.848-1.613-1.249-2.801-.91-4.129.356-1.394.16-2.374-.472-2.374-.645 0-.99-1.902-.859-4.731.299-6.441-3.224-11.478-12.29-17.572-7.505-5.045-11.198-9.278-6.931-7.946 1.79.56 2.131.384 1.651-.847-.395-1.012.105-1.775 1.437-2.19 1.123-.35 2.168-.485 2.323-.3.154.187 1.482 2.39 2.951 4.895 3.512 5.989 6.914 7.595 10.557 4.984 2.656-1.903 2.683-1.9 6.883.52l4.216 2.431.644-2.883c.39-1.743 1.652-3.334 3.193-4.025 2.184-.98 2.453-1.577 1.875-4.165-.87-3.902 3.024-13.82 5.43-13.828.906-.003 3.443-1.075 5.638-2.381l3.99-2.376 4.233 3.413c5.3 4.273 6.235 7.389 3.392 11.317-1.163 1.606-1.814 3.398-1.447 3.982.367.583-.088 1.882-1.01 2.885-1.107 1.203-1.311 2.047-.6 2.479.759.462.762 1.233.009 2.617-.613 1.127-.785 3.815-.405 6.312.534 3.5 1.201 4.569 3.419 5.473 1.516.617 3.7 2.749 4.855 4.737l2.1 3.614-3.419 6.68-3.419 5.549 2.973 7.093c4.228 10.086 5.2 13.903 3.685 14.474-2.48.936-2.783 14.03-.363 15.77 1.045.752 1.417 1.961 1.04 3.382-.402 1.51.093 2.837 1.56 4.182 2.822 2.585 2.716 4.46-.362 6.444l-2.513 1.62 2.057 2.84c1.131 1.563 3.377 3.61 4.992 4.548 4.57 2.656 5.62 6.248 3.184 10.895-1.885 3.595-9.165 13.305-12.35 16.472-.788.783-4.1 4.384-7.36 8.002-5.043 5.595-6.4 6.56-9.084 6.461-1.736-.064-4.607.622-6.38 1.524-1.773.902-4.17 1.64-5.328 1.64-1.156 0-3.2.707-4.54 1.57-1.34.865-3.48 1.72-4.756 1.9-1.276.181-3.819.79-5.651 1.352-2.677.823-3.443.74-3.897-.425zm-4.373-1.23c0-.533.719-1.24 1.598-1.572.982-.371 1.443-.15 1.198.576-.503 1.483-2.796 2.3-2.796.996zm-19.168-1.678a1.49 1.49 0 0 1 1.482-1.488c.902 0 1.254.581.9 1.488-.319.819-.986 1.489-1.481 1.489-.496 0-.9-.67-.9-1.489zm-39.344-130.92c0-1.518 4.143-3.582 6.34-3.158.675.13 1.163-.545 1.086-1.5-.077-.955.232-1.737.687-1.737.454 0 .971-.97 1.149-2.155.4-2.672 2.832-3.647 2.876-1.153.03 1.715.108 1.72 1.36.098 1.388-1.797 2.643-1.372 2.643.895 0 1.313-1.858 3.425-5.529 6.285-1.755 1.368-1.85 1.332-1.174-.44.719-1.882.686-1.885-1.324-.095-1.133 1.01-2.06 1.457-2.06.995 0-.462-.568-.147-1.262.7-1.87 2.284-4.792 3.055-4.792 1.265zm4.533-7.02c1.618-2.43 1.606-2.467-.426-1.397-1.54.81-2.09.805-2.09-.02 0-.617.909-1.354 2.018-1.64 1.11-.285 2.063-1.025 2.119-1.644.055-.618.437-.008.848 1.357s.37 2.968-.092 3.564c-.462.596-.636 1.284-.387 1.53.249.244-.472.513-1.601.596-1.965.146-1.981.045-.39-2.345zm19.55-16.178c1.476-.778 2.08-.678 2.506.414.308.791.12 1.707-.42 2.035-.54.329-.761.947-.492 1.376.269.428-.653 1.29-2.049 1.916-3.086 1.383-.615-5.178.455-5.741zm10.843-.443c-.783-3.066.148-5.58 2.065-5.58 1.073 0 1.382.977 1.153 3.645-.367 4.275-2.322 5.45-3.218 1.935zm-5.917-3.099c.265-1.365.835-2.481 1.265-2.481 1.384 0 1.888 2.698.719 3.849-1.81 1.78-2.503 1.301-1.984-1.368zm4.282-4.962c-1.028-1.22-.96-1.489.381-1.489.9 0 1.644-.558 1.652-1.24.011-.878.279-.832.916.158.958 1.49.38 4.06-.916 4.06-.427 0-1.342-.67-2.033-1.489zm34.713-14.763c-.843-2.161-.253-2.741 1.626-1.6 1.153.702 1.21 1.16.256 2.098-.954.937-1.364.829-1.882-.498z" fill="#bfbfbf"/></svg>