<svg height="25" viewBox="-872.5 -3407.468 25 25" width="25" xmlns="http://www.w3.org/2000/svg"><g fill="none"><path d="m-868.16-3406.968h16.32c2.1208 0 3.84 1.719 3.84 3.84v16.32c0 2.1207-1.7192 3.84-3.84 3.84h-16.32c-2.1208 0-3.84-1.7193-3.84-3.84v-16.32c0-2.121 1.7192-3.84 3.84-3.84z" fill="#fff"/><path d="m-868.16-3406.968h16.32c2.1208 0 3.84 1.719 3.84 3.84v16.32c0 2.1207-1.7192 3.84-3.84 3.84h-16.32c-2.1208 0-3.84-1.7193-3.84-3.84v-16.32c0-2.121 1.7192-3.84 3.84-3.84z" stroke="#000" stroke-linecap="round" stroke-linejoin="round" stroke-width=".25"/><path d="m-859.1111-3387.857h4.8889c.7378 0 1.3333-.5955 1.3333-1.3333v-6.6667h-6.2222zm-.8889 0v-5.3333h-7.1111v4c0 .7378.5956 1.3333 1.3333 1.3333zm0-6.222v-8h-5.7778c-.7377 0-1.3333.5954-1.3333 1.333v6.667zm.8889-8v5.333h6.2222v-4c0-.7376-.5955-1.333-1.3333-1.333zm-8.8889 1.333c0-1.2265.9956-2.222 2.2222-2.222h11.5556c1.2267 0 2.2222.9955 2.2222 2.222v11.5557c0 1.2267-.9955 2.2223-2.2222 2.2223h-11.5556c-1.2266 0-2.2222-.9956-2.2222-2.2223z" fill="#66727e"/></g></svg>