<?xml version="1.0" encoding="UTF-8" standalone="no"?>
<!DOCTYPE svg PUBLIC "-//W3C//DTD SVG 1.1//EN" "http://www.w3.org/Graphics/SVG/1.1/DTD/svg11.dtd">
<svg version="1.1" xmlns="http://www.w3.org/2000/svg" xmlns:xl="http://www.w3.org/1999/xlink" xmlns:dc="http://purl.org/dc/elements/1.1/" viewBox="-872.5 -3407.468 25 25" width="25" height="25">
  <defs/>
  <g id="SOURCES" stroke-dasharray="none" fill="none" stroke="none" fill-opacity="1" stroke-opacity="1">
    <title>SOURCES</title>
    <g id="SOURCES_Calque_2">
      <title>Calque 2</title>
      <g id="Graphic_9718">
        <path d="M -868.16 -3406.968 L -851.84 -3406.968 C -849.7192 -3406.968 -848 -3405.249 -848 -3403.128 L -848 -3386.808 C -848 -3384.6873 -849.7192 -3382.968 -851.84 -3382.968 L -868.16 -3382.968 C -870.2808 -3382.968 -872 -3384.6873 -872 -3386.808 L -872 -3403.128 C -872 -3405.249 -870.2808 -3406.968 -868.16 -3406.968 Z" fill="white"/>
        <path d="M -868.16 -3406.968 L -851.84 -3406.968 C -849.7192 -3406.968 -848 -3405.249 -848 -3403.128 L -848 -3386.808 C -848 -3384.6873 -849.7192 -3382.968 -851.84 -3382.968 L -868.16 -3382.968 C -870.2808 -3382.968 -872 -3384.6873 -872 -3386.808 L -872 -3403.128 C -872 -3405.249 -870.2808 -3406.968 -868.16 -3406.968 Z" stroke="black" stroke-linecap="round" stroke-linejoin="round" stroke-width=".25"/>
      </g>
      <g id="Group_9728">
        <title>layout-4</title>
        <g id="Graphic_9729">
          <path d="M -859.1111 -3387.857 L -854.2222 -3387.857 C -853.4844 -3387.857 -852.8889 -3388.4525 -852.8889 -3389.1903 L -852.8889 -3395.857 L -859.1111 -3395.857 Z M -860 -3387.857 L -860 -3393.1903 L -867.1111 -3393.1903 L -867.1111 -3389.1903 C -867.1111 -3388.4525 -866.5155 -3387.857 -865.7778 -3387.857 Z M -860 -3394.079 L -860 -3402.079 L -865.7778 -3402.079 C -866.5155 -3402.079 -867.1111 -3401.4836 -867.1111 -3400.746 L -867.1111 -3394.079 Z M -859.1111 -3402.079 L -859.1111 -3396.746 L -852.8889 -3396.746 L -852.8889 -3400.746 C -852.8889 -3401.4836 -853.4844 -3402.079 -854.2222 -3402.079 Z M -868 -3400.746 C -868 -3401.9725 -867.0044 -3402.968 -865.7778 -3402.968 L -854.2222 -3402.968 C -852.9955 -3402.968 -852 -3401.9725 -852 -3400.746 L -852 -3389.1903 C -852 -3387.9636 -852.9955 -3386.968 -854.2222 -3386.968 L -865.7778 -3386.968 C -867.0044 -3386.968 -868 -3387.9636 -868 -3389.1903 Z" fill="#66727e"/>
        </g>
      </g>
    </g>
  </g>
</svg>
