<svg height="25" viewBox="-872.5 -3407.468 25 25" width="25" xmlns="http://www.w3.org/2000/svg"><g fill="none"><path d="M-868.16-3406.968h16.32a3.84 3.84 0 0 1 3.84 3.84v16.32a3.84 3.84 0 0 1-3.84 3.84h-16.32a3.84 3.84 0 0 1-3.84-3.84v-16.32a3.84 3.84 0 0 1 3.84-3.84z" fill="#fff"/><path d="M-868.16-3406.968h16.32a3.84 3.84 0 0 1 3.84 3.84v16.32a3.84 3.84 0 0 1-3.84 3.84h-16.32a3.84 3.84 0 0 1-3.84-3.84v-16.32a3.84 3.84 0 0 1 3.84-3.84z" stroke="#000" stroke-linecap="round" stroke-linejoin="round" stroke-width=".25"/><path d="M-859.111-3387.857h4.889c.738 0 1.333-.596 1.333-1.333v-6.667h-6.222zm-.889 0v-5.333h-7.111v4c0 .738.596 1.333 1.333 1.333zm0-6.222v-8h-5.778c-.737 0-1.333.595-1.333 1.333v6.667zm.889-8v5.333h6.222v-4c0-.738-.595-1.333-1.333-1.333zm-8.889 1.333c0-1.226.996-2.222 2.222-2.222h11.556c1.227 0 2.222.995 2.222 2.222v11.556a2.223 2.223 0 0 1-2.222 2.222h-11.556a2.223 2.223 0 0 1-2.222-2.222z" fill="#66727e"/></g></svg>