<?xml version="1.0" encoding="UTF-8" standalone="no"?>
<!DOCTYPE svg PUBLIC "-//W3C//DTD SVG 1.1//EN" "http://www.w3.org/Graphics/SVG/1.1/DTD/svg11.dtd">
<svg version="1.1" xmlns="http://www.w3.org/2000/svg" xmlns:xl="http://www.w3.org/1999/xlink" xmlns:dc="http://purl.org/dc/elements/1.1/" viewBox="-592.5 -3407.468 25 25" width="25" height="25">
  <defs/>
  <g id="SOURCES" stroke-dasharray="none" fill="none" stroke="none" fill-opacity="1" stroke-opacity="1">
    <title>SOURCES</title>
    <g id="SOURCES_Calque_2">
      <title>Calque 2</title>
      <g id="Graphic_9679">
        <path d="M -571.84 -3406.968 L -588.16 -3406.968 C -590.2808 -3406.968 -592 -3405.249 -592 -3403.128 L -592 -3386.808 C -592 -3384.6873 -590.2808 -3382.968 -588.16 -3382.968 L -571.84 -3382.968 C -569.7192 -3382.968 -568 -3384.6873 -568 -3386.808 L -568 -3403.128 C -568 -3405.249 -569.7192 -3406.968 -571.84 -3406.968 Z" fill="white"/>
        <path d="M -571.84 -3406.968 L -588.16 -3406.968 C -590.2808 -3406.968 -592 -3405.249 -592 -3403.128 L -592 -3386.808 C -592 -3384.6873 -590.2808 -3382.968 -588.16 -3382.968 L -571.84 -3382.968 C -569.7192 -3382.968 -568 -3384.6873 -568 -3386.808 L -568 -3403.128 C -568 -3405.249 -569.7192 -3406.968 -571.84 -3406.968 Z" stroke="black" stroke-linecap="round" stroke-linejoin="round" stroke-width=".25"/>
      </g>
      <g id="Group_9747">
        <title>desktop</title>
        <g id="Graphic_9748">
          <path d="M -580.8 -3389.368 L -579.2 -3389.368 L -579.2 -3390.968 L -580.8 -3390.968 Z M -581.6 -3389.368 L -581.6 -3390.968 L -586 -3390.968 C -587.104 -3390.968 -588 -3391.864 -588 -3392.968 L -588 -3399.368 C -588 -3400.472 -587.104 -3401.368 -586 -3401.368 L -574 -3401.368 C -572.896 -3401.368 -572 -3400.472 -572 -3399.368 L -572 -3392.968 C -572 -3391.864 -572.896 -3390.968 -574 -3390.968 L -578.4 -3390.968 L -578.4 -3389.368 L -577.2 -3389.368 C -576.976 -3389.368 -576.8 -3389.192 -576.8 -3388.968 C -576.8 -3388.744 -576.976 -3388.568 -577.2 -3388.568 L -582.8 -3388.568 C -583.024 -3388.568 -583.2 -3388.744 -583.2 -3388.968 C -583.2 -3389.192 -583.024 -3389.368 -582.8 -3389.368 Z M -586 -3400.568 C -586.664 -3400.568 -587.2 -3400.032 -587.2 -3399.368 L -587.2 -3392.968 C -587.2 -3392.304 -586.664 -3391.768 -586 -3391.768 L -574 -3391.768 C -573.336 -3391.768 -572.8 -3392.304 -572.8 -3392.968 L -572.8 -3399.368 C -572.8 -3400.032 -573.336 -3400.568 -574 -3400.568 Z" fill="#5c76a2"/>
        </g>
      </g>
    </g>
  </g>
</svg>
