<svg height="25" viewBox="-552.5 -3407.468 25 25" width="25" xmlns="http://www.w3.org/2000/svg"><g fill="none"><path d="m-531.84-3406.968h-16.32c-2.1208 0-3.84 1.719-3.84 3.84v16.32c0 2.1207 1.7192 3.84 3.84 3.84h16.32c2.12077 0 3.84-1.7193 3.84-3.84v-16.32c0-2.121-1.71923-3.84-3.84-3.84z" fill="#fff"/><path d="m-531.84-3406.968h-16.32c-2.1208 0-3.84 1.719-3.84 3.84v16.32c0 2.1207 1.7192 3.84 3.84 3.84h16.32c2.12077 0 3.84-1.7193 3.84-3.84v-16.32c0-2.121-1.71923-3.84-3.84-3.84z" stroke="#000" stroke-linecap="round" stroke-linejoin="round" stroke-width=".25"/><path d="m-543.55556-3390.0925h-4c-.24889 0-.44444-.1955-.44444-.4445s.19555-.4444.44444-.4444h4v-.8889c0-.4887.4-.8887.88886-.8887h1.7778c.4889 0 .8889.4.8889.8887v.8889h7.55555c.24889 0 .44445.1954.44445.4444s-.19556.4445-.44445.4445h-7.55555v.9155c0 .489-.4.889-.8889.889h-1.7778c-.48886 0-.88886-.4-.88886-.889zm5.33336-4.4445h-9.33336c-.24889 0-.44444-.1955-.44444-.4444s.19555-.4446.44444-.4446h9.33336v-.8887c0-.4889.4-.8889.88886-.8889h1.77778c.48886 0 .88886.4.88886.8889v.8887h2.22225c.24889 0 .44445.1957.44445.4446s-.19556.4444-.44445.4444h-2.22225v.9156c0 .4889-.4.8889-.88886.8889h-1.77778c-.48886 0-.88886-.4-.88886-.8889zm-8-4.4444h-1.33336c-.24889 0-.44444-.1956-.44444-.4446 0-.2487.19555-.4443.44444-.4443h1.33336v-.8887c0-.489.4-.889.88886-.889h1.77778c.48886 0 .88886.4.88886.889v.8887h10.22225c.24889 0 .44445.1956.44445.4443 0 .249-.19556.4446-.44445.4446h-10.22225v.9154c0 .489-.4.889-.88886.889h-1.77778c-.48886 0-.88886-.4-.88886-.889zm.88886-1.7776v2.693h1.77778v-2.693zm8 4.4443v2.6933h1.77778v-2.6933zm-5.33336 4.4444v2.6933h1.7778v-2.6933z" fill="#5c76a1"/></g></svg>