<svg height="25" viewBox="-712.5 -3407.468 25 25" width="25" xmlns="http://www.w3.org/2000/svg"><g fill="none"><path d="M-691.84-3406.968h-16.32a3.84 3.84 0 0 0-3.84 3.84v16.32a3.84 3.84 0 0 0 3.84 3.84h16.32a3.84 3.84 0 0 0 3.84-3.84v-16.32a3.84 3.84 0 0 0-3.84-3.84z" fill="#fff"/><path d="M-691.84-3406.968h-16.32a3.84 3.84 0 0 0-3.84 3.84v16.32a3.84 3.84 0 0 0 3.84 3.84h16.32a3.84 3.84 0 0 0 3.84-3.84v-16.32a3.84 3.84 0 0 0-3.84-3.84z" stroke="#000" stroke-linecap="round" stroke-linejoin="round" stroke-width=".25"/><path d="M-703.295-3388.57a.467.467 0 0 1 .266.036 7.097 7.097 0 0 0 3.04.676c3.928 0 7.11-3.182 7.11-7.11s-3.191-7.11-7.12-7.11a7.108 7.108 0 0 0-7.109 7.11c0 1.52.48 2.96 1.342 4.159a.445.445 0 0 1 .044.444l-1.084 2.373 3.502-.586zm-4.186 1.591a.446.446 0 0 1-.48-.622l1.324-2.897a7.98 7.98 0 0 1-1.36-4.47 7.999 7.999 0 1 1 7.999 7.998 7.972 7.972 0 0 1-3.288-.702l-4.195.702z" fill="#5c76a1"/></g></svg>