<svg xmlns="http://www.w3.org/2000/svg" viewBox="-672.5 -3407.468 25 25"><g fill="none"><path d="M-668.16-3406.968h16.32a3.84 3.84 0 0 1 3.84 3.84v16.32a3.84 3.84 0 0 1-3.84 3.84h-16.32a3.84 3.84 0 0 1-3.84-3.84v-16.32a3.84 3.84 0 0 1 3.84-3.84z" fill="#fff"/><path d="M-668.16-3406.968h16.32a3.84 3.84 0 0 1 3.84 3.84v16.32a3.84 3.84 0 0 1-3.84 3.84h-16.32a3.84 3.84 0 0 1-3.84-3.84v-16.32a3.84 3.84 0 0 1 3.84-3.84z" stroke="#000" stroke-linecap="round" stroke-linejoin="round" stroke-width=".25"/><path d="M-667.97-3395.111c1.712-4.407 6.662-6.591 11.061-4.88a8.544 8.544 0 0 1 4.879 4.88c.04.095.04.2 0 .287-1.704 4.4-6.662 6.59-11.061 4.879a8.565 8.565 0 0 1-4.879-4.879.36.36 0 0 1 0-.287zm5.175 4.422c3.943 1.528 8.374-.384 9.965-4.279a7.757 7.757 0 0 0-4.367-4.279 7.745 7.745 0 0 0-9.965 4.28 7.757 7.757 0 0 0 4.367 4.278zm2.799-1.08a3.198 3.198 0 1 1 0-6.398 3.198 3.198 0 1 1 0 6.399zm0-.799c1.328 0 2.4-1.072 2.4-2.4a2.397 2.397 0 0 0-2.4-2.399 2.396 2.396 0 0 0-2.4 2.4 2.397 2.397 0 0 0 2.4 2.399z" fill="#5c76a1"/></g></svg>