<?xml version="1.0" encoding="UTF-8" standalone="no"?>
<!DOCTYPE svg PUBLIC "-//W3C//DTD SVG 1.1//EN" "http://www.w3.org/Graphics/SVG/1.1/DTD/svg11.dtd">
<svg version="1.1" xmlns="http://www.w3.org/2000/svg" xmlns:xl="http://www.w3.org/1999/xlink" xmlns:dc="http://purl.org/dc/elements/1.1/" viewBox="-752.5 -3407.468 25 25" width="25" height="25">
  <defs/>
  <g id="SOURCES" stroke-dasharray="none" fill="none" stroke="none" fill-opacity="1" stroke-opacity="1">
    <title>SOURCES</title>
    <g id="SOURCES_Calque_2">
      <title>Calque 2</title>
      <g id="Group_9738">
        <g id="Graphic_9734">
          <path d="M -748.16 -3406.968 L -731.84 -3406.968 C -729.7192 -3406.968 -728 -3405.249 -728 -3403.128 L -728 -3386.808 C -728 -3384.6873 -729.7192 -3382.968 -731.84 -3382.968 L -748.16 -3382.968 C -750.2808 -3382.968 -752 -3384.6873 -752 -3386.808 L -752 -3403.128 C -752 -3405.249 -750.2808 -3406.968 -748.16 -3406.968 Z" fill="white"/>
          <path d="M -748.16 -3406.968 L -731.84 -3406.968 C -729.7192 -3406.968 -728 -3405.249 -728 -3403.128 L -728 -3386.808 C -728 -3384.6873 -729.7192 -3382.968 -731.84 -3382.968 L -748.16 -3382.968 C -750.2808 -3382.968 -752 -3384.6873 -752 -3386.808 L -752 -3403.128 C -752 -3405.249 -750.2808 -3406.968 -748.16 -3406.968 Z" stroke="black" stroke-linecap="round" stroke-linejoin="round" stroke-width=".25"/>
        </g>
        <g id="Group_9735">
          <title>table</title>
          <g id="Graphic_9736">
            <path d="M -737.3333 -3393.1903 L -737.3333 -3396.746 L -742.66666 -3396.746 L -742.66666 -3393.1903 Z M -737.3333 -3392.3014 L -742.66666 -3392.3014 L -742.66666 -3388.746 L -737.3333 -3388.746 Z M -747.1111 -3393.1903 L -743.5555 -3393.1903 L -743.5555 -3396.746 L -747.1111 -3396.746 Z M -747.1111 -3392.3014 L -747.1111 -3390.079 C -747.1111 -3389.3414 -746.5155 -3388.746 -745.7778 -3388.746 L -743.5555 -3388.746 L -743.5555 -3392.3014 Z M -732.8889 -3393.1903 L -732.8889 -3396.746 L -736.4444 -3396.746 L -736.4444 -3393.1903 Z M -732.8889 -3392.3014 L -736.4444 -3392.3014 L -736.4444 -3388.746 L -734.2222 -3388.746 C -733.48445 -3388.746 -732.8889 -3389.3414 -732.8889 -3390.079 Z M -737.3333 -3397.6347 L -737.3333 -3401.1903 L -742.66666 -3401.1903 L -742.66666 -3397.6347 Z M -747.1111 -3397.6347 L -743.5555 -3397.6347 L -743.5555 -3401.1903 L -745.7778 -3401.1903 C -746.5155 -3401.1903 -747.1111 -3400.5947 -747.1111 -3399.857 Z M -732.8889 -3397.6347 L -732.8889 -3399.857 C -732.8889 -3400.5947 -733.48445 -3401.1903 -734.2222 -3401.1903 L -736.4444 -3401.1903 L -736.4444 -3397.6347 Z M -745.7778 -3402.079 L -734.2222 -3402.079 C -732.9956 -3402.079 -732 -3401.0836 -732 -3399.857 L -732 -3390.079 C -732 -3388.8525 -732.9956 -3387.857 -734.2222 -3387.857 L -745.7778 -3387.857 C -747.0044 -3387.857 -748 -3388.8525 -748 -3390.079 L -748 -3399.857 C -748 -3401.0836 -747.0044 -3402.079 -745.7778 -3402.079 Z" fill="#5c76a1"/>
          </g>
        </g>
      </g>
    </g>
  </g>
</svg>
