<svg height="25" viewBox="-472.5 -3407.468 25 25" width="25" xmlns="http://www.w3.org/2000/svg"><g fill="none"><path d="m-451.84-3406.968h-16.32c-2.1208 0-3.84 1.719-3.84 3.84v16.32c0 2.1207 1.7192 3.84 3.84 3.84h16.32c2.12077 0 3.84-1.7193 3.84-3.84v-16.32c0-2.121-1.71923-3.84-3.84-3.84z" fill="#fff"/><path d="m-451.84-3406.968h-16.32c-2.1208 0-3.84 1.719-3.84 3.84v16.32c0 2.1207 1.7192 3.84 3.84 3.84h16.32c2.12077 0 3.84-1.7193 3.84-3.84v-16.32c0-2.121-1.71923-3.84-3.84-3.84z" stroke="#000" stroke-linecap="round" stroke-linejoin="round" stroke-width=".25"/><path d="m-461.008-3402.096c-3.504.488-6.192 3.496-6.192 7.128 0 3.976 3.224 7.2 7.2 7.2s7.2-3.224 7.2-7.2c0-.552-.064-1.088-.176-1.6h-1.424v.4c0 .224-.176.4-.4.4h-1.2v.232l.68.68c.16.16.16.408 0 .568l-1.48 1.48v1.432c0 .064-.016.12-.04.176l-.8 1.6-.072.104-.8.8c-.16.16-.408.16-.568 0l-.8-.8c-.072-.072-.12-.176-.12-.28v-2.232l-.68-.68c-.072-.072-.12-.176-.12-.28v-.632l-.64-.64-1.544-.768-.104-.072-.8-.8c-.16-.16-.16-.408 0-.568l.68-.68v-.632c0-.224.176-.4.4-.4h1.432l.68-.68c.16-.16.408-.16.568 0l.752.752 1.456.728h.536l.568-.568v-.472l-.68-.68c-.072-.072-.12-.176-.12-.28v-.4h-.8v.4c0 .224-.176.4-.4.4h-.8c-.104 0-.208-.04-.28-.12l-.68-.68h-.632c-.36 0-.536-.432-.28-.68l.68-.68v-.536l-.208-.424zm.856-.072.112.216c.024.056.04.12.04.176v.8c0 .104-.04.208-.12.28l-.144.144c.056.016.104.048.144.088l.68.68h.232v-.4c0-.224.176-.4.4-.4h1.6c.224 0 .4.176.4.4v.632l.68.68c.072.072.12.176.12.28v.8c0 .104-.04.208-.12.28l-.8.8c-.072.072-.176.12-.28.12h-.8c-.064 0-.12-.016-.176-.04l-1.6-.8-.104-.072-.52-.52-.52.52c-.072.072-.176.12-.28.12h-1.2v.4c0 .104-.04.208-.12.28l-.52.52.472.472 1.544.768.104.072.8.8c.072.072.12.176.12.28v.632l.68.68c.072.072.12.176.12.28v2.232l.4.4.472-.472.728-1.456v-1.504c0-.104.04-.208.12-.28l1.32-1.32-.52-.52c-.072-.072-.12-.176-.12-.28v-.8c0-.224.176-.4.4-.4h1.2v-.4c0-.224.176-.4.4-.4h1.592c-.992-2.8-3.656-4.8-6.792-4.8-.048 0-.104 0-.152 0zm.152 15.2c-4.416 0-8-3.584-8-8s3.584-8 8-8 8 3.584 8 8-3.584 8-8 8z" fill="#5c76a2"/></g></svg>