<svg height="25" viewBox="-672.5 -3407.468 25 25" width="25" xmlns="http://www.w3.org/2000/svg"><g fill="none"><path d="m-668.16-3406.968h16.32c2.12076 0 3.84 1.719 3.84 3.84v16.32c0 2.1207-1.71924 3.84-3.84 3.84h-16.32c-2.1208 0-3.84-1.7193-3.84-3.84v-16.32c0-2.121 1.7192-3.84 3.84-3.84z" fill="#fff"/><path d="m-668.16-3406.968h16.32c2.12076 0 3.84 1.719 3.84 3.84v16.32c0 2.1207-1.71924 3.84-3.84 3.84h-16.32c-2.1208 0-3.84-1.7193-3.84-3.84v-16.32c0-2.121 1.7192-3.84 3.84-3.84z" stroke="#000" stroke-linecap="round" stroke-linejoin="round" stroke-width=".25"/><path d="m-667.97-3395.1115c1.71155-4.4069 6.6623-6.5905 11.0612-4.8788 2.23945.8718 4.015 2.6393 4.8788 4.8788.04.0959.04.1999 0 .2879-1.7036 4.3989-6.66234 6.5903-11.06124 4.8786-2.23946-.8716-4.007-2.639-4.87876-4.8786-.04-.096-.04-.2 0-.2879zm5.1747 4.4229c3.943 1.5276 8.3739-.384 9.9655-4.279-.8078-1.9594-2.3834-3.5111-4.3669-4.2789-3.943-1.5275-8.3659.3839-9.9655 4.2789.8078 1.9596 2.3834 3.5111 4.3669 4.279zm2.7993-1.0798c-1.7676 0-3.1992-1.4316-3.1992-3.1992 0-1.7674 1.4316-3.1992 3.1992-3.1992 1.76754 0 3.1992 1.4318 3.1992 3.1992 0 1.7676-1.43166 3.1992-3.1992 3.1992zm0-.7996c1.32765 0 2.3994-1.072 2.3994-2.3996s-1.07175-2.3994-2.3994-2.3994c-1.3277 0-2.3994 1.0718-2.3994 2.3994s1.0717 2.3996 2.3994 2.3996z" fill="#5c76a1"/></g></svg>