<?xml version="1.0" encoding="UTF-8" standalone="no"?>
<!DOCTYPE svg PUBLIC "-//W3C//DTD SVG 1.1//EN" "http://www.w3.org/Graphics/SVG/1.1/DTD/svg11.dtd">
<svg version="1.1" xmlns="http://www.w3.org/2000/svg" xmlns:xl="http://www.w3.org/1999/xlink" xmlns:dc="http://purl.org/dc/elements/1.1/" viewBox="-552.5 -3407.468 25 25" width="25" height="25">
  <defs/>
  <g id="SOURCES" stroke-dasharray="none" fill="none" stroke="none" fill-opacity="1" stroke-opacity="1">
    <title>SOURCES</title>
    <g id="SOURCES_Calque_2">
      <title>Calque 2</title>
      <g id="Group_9793">
        <g id="Graphic_9673">
          <path d="M -531.84 -3406.968 L -548.16 -3406.968 C -550.2808 -3406.968 -552 -3405.249 -552 -3403.128 L -552 -3386.808 C -552 -3384.6873 -550.2808 -3382.968 -548.16 -3382.968 L -531.84 -3382.968 C -529.71923 -3382.968 -528 -3384.6873 -528 -3386.808 L -528 -3403.128 C -528 -3405.249 -529.71923 -3406.968 -531.84 -3406.968 Z" fill="white"/>
          <path d="M -531.84 -3406.968 L -548.16 -3406.968 C -550.2808 -3406.968 -552 -3405.249 -552 -3403.128 L -552 -3386.808 C -552 -3384.6873 -550.2808 -3382.968 -548.16 -3382.968 L -531.84 -3382.968 C -529.71923 -3382.968 -528 -3384.6873 -528 -3386.808 L -528 -3403.128 C -528 -3405.249 -529.71923 -3406.968 -531.84 -3406.968 Z" stroke="black" stroke-linecap="round" stroke-linejoin="round" stroke-width=".25"/>
        </g>
        <g id="Group_9749">
          <title>slider-rectangle-h</title>
          <g id="Graphic_9750">
            <path d="M -543.55556 -3390.0925 L -547.55556 -3390.0925 C -547.80445 -3390.0925 -548 -3390.288 -548 -3390.537 C -548 -3390.786 -547.80445 -3390.9814 -547.55556 -3390.9814 L -543.55556 -3390.9814 L -543.55556 -3391.8703 C -543.55556 -3392.359 -543.15556 -3392.759 -542.6667 -3392.759 L -540.8889 -3392.759 C -540.4 -3392.759 -540 -3392.359 -540 -3391.8703 L -540 -3390.9814 L -532.44445 -3390.9814 C -532.19556 -3390.9814 -532 -3390.786 -532 -3390.537 C -532 -3390.288 -532.19556 -3390.0925 -532.44445 -3390.0925 L -540 -3390.0925 L -540 -3389.177 C -540 -3388.688 -540.4 -3388.288 -540.8889 -3388.288 L -542.6667 -3388.288 C -543.15556 -3388.288 -543.55556 -3388.688 -543.55556 -3389.177 Z M -538.2222 -3394.537 L -547.55556 -3394.537 C -547.80445 -3394.537 -548 -3394.7325 -548 -3394.9814 C -548 -3395.2303 -547.80445 -3395.426 -547.55556 -3395.426 L -538.2222 -3395.426 L -538.2222 -3396.3147 C -538.2222 -3396.8036 -537.8222 -3397.2036 -537.33334 -3397.2036 L -535.55556 -3397.2036 C -535.0667 -3397.2036 -534.6667 -3396.8036 -534.6667 -3396.3147 L -534.6667 -3395.426 L -532.44445 -3395.426 C -532.19556 -3395.426 -532 -3395.2303 -532 -3394.9814 C -532 -3394.7325 -532.19556 -3394.537 -532.44445 -3394.537 L -534.6667 -3394.537 L -534.6667 -3393.6214 C -534.6667 -3393.1325 -535.0667 -3392.7325 -535.55556 -3392.7325 L -537.33334 -3392.7325 C -537.8222 -3392.7325 -538.2222 -3393.1325 -538.2222 -3393.6214 L -538.2222 -3394.537 Z M -546.2222 -3398.9814 L -547.55556 -3398.9814 C -547.80445 -3398.9814 -548 -3399.177 -548 -3399.426 C -548 -3399.6747 -547.80445 -3399.8703 -547.55556 -3399.8703 L -546.2222 -3399.8703 L -546.2222 -3400.759 C -546.2222 -3401.248 -545.8222 -3401.648 -545.33334 -3401.648 L -543.55556 -3401.648 C -543.0667 -3401.648 -542.6667 -3401.248 -542.6667 -3400.759 L -542.6667 -3399.8703 L -532.44445 -3399.8703 C -532.19556 -3399.8703 -532 -3399.6747 -532 -3399.426 C -532 -3399.177 -532.19556 -3398.9814 -532.44445 -3398.9814 L -542.6667 -3398.9814 L -542.6667 -3398.066 C -542.6667 -3397.577 -543.0667 -3397.177 -543.55556 -3397.177 L -545.33334 -3397.177 C -545.8222 -3397.177 -546.2222 -3397.577 -546.2222 -3398.066 Z M -545.33334 -3400.759 L -545.33334 -3398.066 L -543.55556 -3398.066 L -543.55556 -3400.759 Z M -537.33334 -3396.3147 L -537.33334 -3393.6214 L -535.55556 -3393.6214 L -535.55556 -3396.3147 L -537.33334 -3396.3147 Z M -542.6667 -3391.8703 L -542.6667 -3389.177 L -540.8889 -3389.177 L -540.8889 -3391.8703 Z" fill="#5c76a1"/>
          </g>
        </g>
      </g>
    </g>
  </g>
</svg>
