<svg height="25" viewBox="-472.5 -3407.468 25 25" width="25" xmlns="http://www.w3.org/2000/svg"><g fill="none"><path d="M-451.84-3406.968h-16.32a3.84 3.84 0 0 0-3.84 3.84v16.32a3.84 3.84 0 0 0 3.84 3.84h16.32a3.84 3.84 0 0 0 3.84-3.84v-16.32a3.84 3.84 0 0 0-3.84-3.84z" fill="#fff"/><path d="M-451.84-3406.968h-16.32a3.84 3.84 0 0 0-3.84 3.84v16.32a3.84 3.84 0 0 0 3.84 3.84h16.32a3.84 3.84 0 0 0 3.84-3.84v-16.32a3.84 3.84 0 0 0-3.84-3.84z" stroke="#000" stroke-linecap="round" stroke-linejoin="round" stroke-width=".25"/><path d="M-461.008-3402.096a7.2 7.2 0 1 0 8.208 7.128c0-.552-.064-1.088-.176-1.6h-1.424v.4c0 .224-.176.4-.4.4h-1.2v.232l.68.68c.16.16.16.408 0 .568l-1.48 1.48v1.432c0 .064-.016.12-.04.176l-.8 1.6-.072.104-.8.8a.396.396 0 0 1-.568 0l-.8-.8a.407.407 0 0 1-.12-.28v-2.232l-.68-.68a.407.407 0 0 1-.12-.28v-.632l-.64-.64-1.544-.768-.104-.072-.8-.8a.396.396 0 0 1 0-.568l.68-.68v-.632c0-.224.176-.4.4-.4h1.432l.68-.68c.16-.16.408-.16.568 0l.752.752 1.456.728h.536l.568-.568v-.472l-.68-.68a.407.407 0 0 1-.12-.28v-.4h-.8v.4c0 .224-.176.4-.4.4h-.8a.375.375 0 0 1-.28-.12l-.68-.68h-.632a.396.396 0 0 1-.28-.68l.68-.68v-.536l-.208-.424zm.856-.072l.112.216c.024.056.04.12.04.176v.8c0 .104-.04.208-.12.28l-.144.144a.335.335 0 0 1 .144.088l.68.68h.232v-.4c0-.224.176-.4.4-.4h1.6c.224 0 .4.176.4.4v.632l.68.68c.072.072.12.176.12.28v.8c0 .104-.04.208-.12.28l-.8.8a.407.407 0 0 1-.28.12h-.8a.436.436 0 0 1-.176-.04l-1.6-.8-.104-.072-.52-.52-.52.52a.407.407 0 0 1-.28.12h-1.2v.4c0 .104-.04.208-.12.28l-.52.52.472.472 1.544.768.104.072.8.8c.072.072.12.176.12.28v.632l.68.68c.072.072.12.176.12.28v2.232l.4.4.472-.472.728-1.456V-3393c0-.104.04-.208.12-.28l1.32-1.32-.52-.52a.407.407 0 0 1-.12-.28v-.8c0-.224.176-.4.4-.4h1.2v-.4c0-.224.176-.4.4-.4h1.592a7.203 7.203 0 0 0-6.792-4.8h-.152zm.152 15.2c-4.416 0-8-3.584-8-8s3.584-8 8-8 8 3.584 8 8-3.584 8-8 8z" fill="#5c76a2"/></g></svg>