<svg xmlns="http://www.w3.org/2000/svg" viewBox="-752.5 -3407.468 25 25"><g fill="none"><path d="M-748.16-3406.968h16.32a3.84 3.84 0 0 1 3.84 3.84v16.32a3.84 3.84 0 0 1-3.84 3.84h-16.32a3.84 3.84 0 0 1-3.84-3.84v-16.32a3.84 3.84 0 0 1 3.84-3.84z" fill="#fff"/><path d="M-748.16-3406.968h16.32a3.84 3.84 0 0 1 3.84 3.84v16.32a3.84 3.84 0 0 1-3.84 3.84h-16.32a3.84 3.84 0 0 1-3.84-3.84v-16.32a3.84 3.84 0 0 1 3.84-3.84z" stroke="#000" stroke-linecap="round" stroke-linejoin="round" stroke-width=".25"/><path d="M-737.333-3393.19v-3.556h-5.334v3.556zm0 .889h-5.334v3.555h5.334zm-9.778-.89h3.555v-3.555h-3.555zm0 .89v2.222c0 .738.596 1.333 1.333 1.333h2.222v-3.555zm14.222-.89v-3.555h-3.555v3.556zm0 .89h-3.555v3.555h2.222a1.33 1.33 0 0 0 1.333-1.333zm-4.444-5.334v-3.555h-5.334v3.555zm-9.778 0h3.555v-3.555h-2.222c-.737 0-1.333.595-1.333 1.333zm14.222 0v-2.222a1.33 1.33 0 0 0-1.333-1.333h-2.222v3.555zm-12.889-4.444h11.556c1.226 0 2.222.995 2.222 2.222v9.778a2.223 2.223 0 0 1-2.222 2.222h-11.556a2.223 2.223 0 0 1-2.222-2.222v-9.778c0-1.227.996-2.222 2.222-2.222z" fill="#5c76a1"/></g></svg>