<?xml version="1.0" encoding="UTF-8" standalone="no"?>
<!DOCTYPE svg PUBLIC "-//W3C//DTD SVG 1.1//EN" "http://www.w3.org/Graphics/SVG/1.1/DTD/svg11.dtd">
<svg version="1.1" xmlns="http://www.w3.org/2000/svg" xmlns:xl="http://www.w3.org/1999/xlink" xmlns:dc="http://purl.org/dc/elements/1.1/" viewBox="-672.5 -3407.468 25 25" width="25" height="25">
  <defs/>
  <g id="SOURCES" stroke-dasharray="none" fill="none" stroke="none" fill-opacity="1" stroke-opacity="1">
    <title>SOURCES</title>
    <g id="SOURCES_Calque_2">
      <title>Calque 2</title>
      <g id="Group_9744">
        <g id="Graphic_9737">
          <path d="M -668.16 -3406.968 L -651.84 -3406.968 C -649.71924 -3406.968 -648 -3405.249 -648 -3403.128 L -648 -3386.808 C -648 -3384.6873 -649.71924 -3382.968 -651.84 -3382.968 L -668.16 -3382.968 C -670.2808 -3382.968 -672 -3384.6873 -672 -3386.808 L -672 -3403.128 C -672 -3405.249 -670.2808 -3406.968 -668.16 -3406.968 Z" fill="white"/>
          <path d="M -668.16 -3406.968 L -651.84 -3406.968 C -649.71924 -3406.968 -648 -3405.249 -648 -3403.128 L -648 -3386.808 C -648 -3384.6873 -649.71924 -3382.968 -651.84 -3382.968 L -668.16 -3382.968 C -670.2808 -3382.968 -672 -3384.6873 -672 -3386.808 L -672 -3403.128 C -672 -3405.249 -670.2808 -3406.968 -668.16 -3406.968 Z" stroke="black" stroke-linecap="round" stroke-linejoin="round" stroke-width=".25"/>
        </g>
        <g id="Group_9742">
          <title>eye</title>
          <g id="Graphic_9743">
            <path d="M -667.97 -3395.1115 C -666.25845 -3399.5184 -661.3077 -3401.702 -656.9088 -3399.9903 C -654.66935 -3399.1185 -652.8938 -3397.351 -652.03 -3395.1115 C -651.99 -3395.0156 -651.99 -3394.9116 -652.03 -3394.8236 C -653.7336 -3390.4247 -658.69234 -3388.2333 -663.09124 -3389.945 C -665.3307 -3390.8166 -667.09824 -3392.584 -667.97 -3394.8236 C -668.01 -3394.9196 -668.01 -3395.0236 -667.97 -3395.1115 Z M -662.7953 -3390.6886 C -658.8523 -3389.161 -654.4214 -3391.0726 -652.8298 -3394.9676 C -653.6376 -3396.927 -655.2132 -3398.4787 -657.1967 -3399.2465 C -661.1397 -3400.774 -665.5626 -3398.8626 -667.1622 -3394.9676 C -666.3544 -3393.008 -664.7788 -3391.4565 -662.7953 -3390.6886 Z M -659.996 -3391.7684 C -661.7636 -3391.7684 -663.1952 -3393.2 -663.1952 -3394.9676 C -663.1952 -3396.735 -661.7636 -3398.1668 -659.996 -3398.1668 C -658.22846 -3398.1668 -656.7968 -3396.735 -656.7968 -3394.9676 C -656.7968 -3393.2 -658.22846 -3391.7684 -659.996 -3391.7684 Z M -659.996 -3392.568 C -658.66835 -3392.568 -657.5966 -3393.64 -657.5966 -3394.9676 C -657.5966 -3396.2952 -658.66835 -3397.367 -659.996 -3397.367 C -661.3237 -3397.367 -662.3954 -3396.2952 -662.3954 -3394.9676 C -662.3954 -3393.64 -661.3237 -3392.568 -659.996 -3392.568 Z" fill="#5c76a1"/>
          </g>
        </g>
      </g>
    </g>
  </g>
</svg>
