<?xml version="1.0" encoding="UTF-8" standalone="no"?>
<!DOCTYPE svg PUBLIC "-//W3C//DTD SVG 1.1//EN" "http://www.w3.org/Graphics/SVG/1.1/DTD/svg11.dtd">
<svg version="1.1" xmlns="http://www.w3.org/2000/svg" xmlns:xl="http://www.w3.org/1999/xlink" xmlns:dc="http://purl.org/dc/elements/1.1/" viewBox="-632.5 -3407.468 25 25.000004" width="25" height="25.000004">
  <defs/>
  <g id="SOURCES" stroke-dasharray="none" fill="none" stroke="none" fill-opacity="1" stroke-opacity="1">
    <title>SOURCES</title>
    <g id="SOURCES_Calque_2">
      <title>Calque 2</title>
      <g id="Graphic_9723">
        <path d="M -628.16 -3406.968 L -611.84 -3406.968 C -609.7192 -3406.968 -608 -3405.249 -608 -3403.128 L -608 -3386.808 C -608 -3384.6873 -609.7192 -3382.968 -611.84 -3382.968 L -628.16 -3382.968 C -630.2808 -3382.968 -632 -3384.6873 -632 -3386.808 L -632 -3403.128 C -632 -3405.249 -630.2808 -3406.968 -628.16 -3406.968 Z" fill="white"/>
        <path d="M -628.16 -3406.968 L -611.84 -3406.968 C -609.7192 -3406.968 -608 -3405.249 -608 -3403.128 L -608 -3386.808 C -608 -3384.6873 -609.7192 -3382.968 -611.84 -3382.968 L -628.16 -3382.968 C -630.2808 -3382.968 -632 -3384.6873 -632 -3386.808 L -632 -3403.128 C -632 -3405.249 -630.2808 -3406.968 -628.16 -3406.968 Z" stroke="black" stroke-linecap="round" stroke-linejoin="round" stroke-width=".25"/>
      </g>
      <g id="Group_9745">
        <title>chat</title>
        <g id="Graphic_9746">
          <path d="M -624.96775 -3392.5364 C -624.86376 -3392.5684 -624.75176 -3392.5524 -624.6558 -3392.4964 C -623.8558 -3392.0244 -622.95185 -3391.7684 -621.9999 -3391.7684 C -619.12805 -3391.7684 -616.8002 -3394.0963 -616.8002 -3396.968 C -616.8002 -3399.84 -619.12805 -3402.168 -621.9999 -3402.168 C -624.87176 -3402.168 -627.1996 -3399.84 -627.1996 -3396.968 C -627.1996 -3396.0242 -626.94365 -3395.1123 -626.4717 -3394.3123 C -626.4157 -3394.2163 -626.3997 -3394.1043 -626.4317 -3394.0003 L -627.01565 -3391.9524 Z M -616.2562 -3398.712 C -613.7523 -3397.952 -612.0004 -3395.6322 -612.0004 -3392.9684 C -612.0004 -3391.9364 -612.2644 -3390.9365 -612.7524 -3390.0565 L -612.0164 -3387.4807 C -611.9284 -3387.1767 -612.2084 -3386.8967 -612.5124 -3386.9847 L -615.08826 -3387.7207 C -615.9682 -3387.2327 -616.9682 -3386.9687 -618.0001 -3386.9687 C -620.664 -3386.9687 -622.98385 -3388.7206 -623.7438 -3391.2245 C -624.1518 -3391.3445 -624.5438 -3391.5125 -624.91175 -3391.7205 L -627.4876 -3390.9845 C -627.7916 -3390.8965 -628.0716 -3391.1765 -627.9836 -3391.4805 L -627.2476 -3394.0563 C -627.7356 -3394.9363 -627.9996 -3395.9362 -627.9996 -3396.968 C -627.9996 -3400.28 -625.3117 -3402.968 -621.9999 -3402.968 C -619.29604 -3402.968 -617.00016 -3401.176 -616.2562 -3398.712 Z M -616.0562 -3397.792 C -616.0162 -3397.52 -616.0002 -3397.248 -616.0002 -3396.968 C -616.0002 -3393.6564 -618.6881 -3390.9685 -621.9999 -3390.9685 C -622.2799 -3390.9685 -622.5519 -3390.9845 -622.82386 -3391.0245 C -622.0399 -3389.0886 -620.152 -3387.7687 -618.0001 -3387.7687 C -617.05616 -3387.7687 -616.1442 -3388.0246 -615.34425 -3388.4966 C -615.24825 -3388.5526 -615.13626 -3388.5686 -615.0323 -3388.5366 L -612.9844 -3387.9526 L -613.56834 -3390.0005 C -613.60034 -3390.1045 -613.58434 -3390.2165 -613.52834 -3390.3125 C -613.0564 -3391.1125 -612.8004 -3392.0164 -612.8004 -3392.9684 C -612.8004 -3395.1203 -614.1203 -3397.016 -616.0562 -3397.792 Z" fill="#5c76a2"/>
        </g>
      </g>
    </g>
  </g>
</svg>
