<svg height="25" viewBox="-597 -3555.641 25 25" width="25" xmlns="http://www.w3.org/2000/svg"><g fill="none"><path d="m-576.34-3555.1407h-16.32c-2.1208 0-3.84 1.7192-3.84 3.84v16.32c0 2.1207 1.7192 3.84 3.84 3.84h16.32c2.1208 0 3.84-1.7193 3.84-3.84v-16.32c0-2.1208-1.7192-3.84-3.84-3.84z" fill="#fff"/><path d="m-576.34-3555.1407h-16.32c-2.1208 0-3.84 1.7192-3.84 3.84v16.32c0 2.1207 1.7192 3.84 3.84 3.84h16.32c2.1208 0 3.84-1.7193 3.84-3.84v-16.32c0-2.1208-1.7192-3.84-3.84-3.84z" stroke="#000" stroke-linecap="round" stroke-linejoin="round" stroke-width=".25"/><g fill="#5c76a1"><path d="m-574.93775-3537.8895c0 1.114-.90415 2.0181-2.01815 2.0181h-10.50244c-1.11402 0-2.01816-.9041-2.01816-2.0181v-10.5025c0-1.114.90414-2.018 2.01816-2.018h10.50244c1.114 0 2.01815.904 2.01815 2.018zm-.80725-9.2915v-1.211c0-.67-.5409-1.211-1.2109-1.211h-10.50244c-.67006 0-1.21086.541-1.21086 1.211v1.211zm0 .807h-12.9242v8.4845c0 .67.5408 1.2109 1.21086 1.2109h10.50244c.67 0 1.2109-.5409 1.2109-1.2109zm-12.117-2.4216h.8073v.8073h-.8073zm1.61455 0h.80725v.8073h-.80725zm1.61455 0h.8072v.8073h-.8072z"/><path d="m-591.4794-3543.1407-2.4716-2.8805c-.1636-.1908-.1454-.4818.0454-.6452.19085-.1636.4816-.1454.6452.0454l2.726 3.1804c.1454.1726.1454.418 0 .5906l-2.726 3.1895c-.1636.1908-.45435.209-.6452.0455-.1908-.1637-.209-.4544-.0454-.6452z"/></g></g></svg>