<svg height="25" viewBox="-632.5 -3407.468 25 25" width="25" xmlns="http://www.w3.org/2000/svg"><g fill="none"><path d="m-628.16-3406.968h16.32c2.1208 0 3.84 1.719 3.84 3.84v16.32c0 2.1207-1.7192 3.84-3.84 3.84h-16.32c-2.1208 0-3.84-1.7193-3.84-3.84v-16.32c0-2.121 1.7192-3.84 3.84-3.84z" fill="#fff"/><path d="m-628.16-3406.968h16.32c2.1208 0 3.84 1.719 3.84 3.84v16.32c0 2.1207-1.7192 3.84-3.84 3.84h-16.32c-2.1208 0-3.84-1.7193-3.84-3.84v-16.32c0-2.121 1.7192-3.84 3.84-3.84z" stroke="#000" stroke-linecap="round" stroke-linejoin="round" stroke-width=".25"/><path d="m-624.96775-3392.5364c.10399-.032.21599-.016.31195.04.8.472 1.70395.728 2.6559.728 2.87185 0 5.1997-2.3279 5.1997-5.1996 0-2.872-2.32785-5.2-5.1997-5.2-2.87186 0-5.1997 2.328-5.1997 5.2 0 .9438.25595 1.8557.7279 2.6557.056.096.072.208.04.312l-.58395 2.0479zm8.71155-6.1756c2.5039.76 4.2558 3.0798 4.2558 5.7436 0 1.032-.264 2.0319-.752 2.9119l.736 2.5758c.088.304-.192.584-.496.496l-2.57586-.736c-.87994.488-1.87994.752-2.91184.752-2.6639 0-4.98375-1.7519-5.7437-4.2558-.408-.12-.8-.288-1.16795-.496l-2.57585.736c-.304.088-.584-.192-.496-.496l.736-2.5758c-.488-.88-.752-1.8799-.752-2.9117 0-3.312 2.6879-6 5.9997-6 2.70386 0 4.99974 1.792 5.7437 4.256zm.2.92c.04.272.056.544.056.824 0 3.3116-2.6879 5.9995-5.9997 5.9995-.28 0-.552-.016-.82396-.056.78396 1.9359 2.67186 3.2558 4.82376 3.2558.94394 0 1.8559-.2559 2.65585-.7279.096-.056.20799-.072.31195-.04l2.0479.584-.58394-2.0479c-.032-.104-.016-.216.04-.312.47194-.8.72794-1.7039.72794-2.6559 0-2.1519-1.3199-4.0476-3.2558-4.8236z" fill="#5c76a2"/></g></svg>