<svg height="25" viewBox="-592.5 -3407.468 25 25" width="25" xmlns="http://www.w3.org/2000/svg"><g fill="none"><path d="M-571.84-3406.968h-16.32a3.84 3.84 0 0 0-3.84 3.84v16.32a3.84 3.84 0 0 0 3.84 3.84h16.32a3.84 3.84 0 0 0 3.84-3.84v-16.32a3.84 3.84 0 0 0-3.84-3.84z" fill="#fff"/><path d="M-571.84-3406.968h-16.32a3.84 3.84 0 0 0-3.84 3.84v16.32a3.84 3.84 0 0 0 3.84 3.84h16.32a3.84 3.84 0 0 0 3.84-3.84v-16.32a3.84 3.84 0 0 0-3.84-3.84z" stroke="#000" stroke-linecap="round" stroke-linejoin="round" stroke-width=".25"/><path d="M-580.8-3389.368h1.6v-1.6h-1.6zm-.8 0v-1.6h-4.4a2 2 0 0 1-2-2v-6.4a2 2 0 0 1 2-2h12a2 2 0 0 1 2 2v6.4a2 2 0 0 1-2 2h-4.4v1.6h1.2c.224 0 .4.176.4.4s-.176.4-.4.4h-5.6c-.224 0-.4-.176-.4-.4s.176-.4.4-.4zm-4.4-11.2c-.664 0-1.2.536-1.2 1.2v6.4c0 .664.536 1.2 1.2 1.2h12c.664 0 1.2-.536 1.2-1.2v-6.4c0-.664-.536-1.2-1.2-1.2z" fill="#5c76a2"/></g></svg>