<?xml version="1.0" encoding="UTF-8" standalone="no"?>
<!DOCTYPE svg PUBLIC "-//W3C//DTD SVG 1.1//EN" "http://www.w3.org/Graphics/SVG/1.1/DTD/svg11.dtd">
<svg version="1.1" xmlns="http://www.w3.org/2000/svg" xmlns:xl="http://www.w3.org/1999/xlink" xmlns:dc="http://purl.org/dc/elements/1.1/" viewBox="-712.5 -3407.468 25 25" width="25" height="25">
  <defs/>
  <g id="SOURCES" stroke-dasharray="none" fill="none" stroke="none" fill-opacity="1" stroke-opacity="1">
    <title>SOURCES</title>
    <g id="SOURCES_Calque_2">
      <title>Calque 2</title>
      <g id="Group_9741">
        <g id="Graphic_9676">
          <path d="M -691.84 -3406.968 L -708.16 -3406.968 C -710.2808 -3406.968 -712 -3405.249 -712 -3403.128 L -712 -3386.808 C -712 -3384.6873 -710.2808 -3382.968 -708.16 -3382.968 L -691.84 -3382.968 C -689.7192 -3382.968 -688 -3384.6873 -688 -3386.808 L -688 -3403.128 C -688 -3405.249 -689.7192 -3406.968 -691.84 -3406.968 Z" fill="white"/>
          <path d="M -691.84 -3406.968 L -708.16 -3406.968 C -710.2808 -3406.968 -712 -3405.249 -712 -3403.128 L -712 -3386.808 C -712 -3384.6873 -710.2808 -3382.968 -708.16 -3382.968 L -691.84 -3382.968 C -689.7192 -3382.968 -688 -3384.6873 -688 -3386.808 L -688 -3403.128 C -688 -3405.249 -689.7192 -3406.968 -691.84 -3406.968 Z" stroke="black" stroke-linecap="round" stroke-linejoin="round" stroke-width=".25"/>
        </g>
        <g id="Group_9739">
          <title>comment</title>
          <g id="Graphic_9740">
            <path d="M -703.2954 -3388.5694 C -703.2065 -3388.5872 -703.1176 -3388.5694 -703.02876 -3388.534 C -702.0867 -3388.0895 -701.05584 -3387.8585 -699.9894 -3387.8585 C -696.06135 -3387.8585 -692.8798 -3391.04 -692.8798 -3394.968 C -692.8798 -3398.896 -696.0702 -3402.0777 -699.9983 -3402.0777 C -703.92634 -3402.0777 -707.1079 -3398.896 -707.1079 -3394.968 C -707.1079 -3393.4484 -706.628 -3392.0087 -705.76595 -3390.809 C -705.6682 -3390.6757 -705.6593 -3390.507 -705.7215 -3390.3646 L -706.8057 -3387.9918 L -703.30425 -3388.5783 Z M -707.48114 -3386.9787 C -707.8366 -3386.9165 -708.1032 -3387.281 -707.961 -3387.6007 L -706.6369 -3390.498 C -707.5167 -3391.8043 -707.9966 -3393.3506 -707.9966 -3394.968 C -707.9966 -3399.385 -704.4151 -3402.9664 -699.9983 -3402.9664 C -695.58145 -3402.9664 -692 -3399.385 -692 -3394.968 C -692 -3390.5512 -695.58145 -3386.9698 -699.9983 -3386.9698 C -701.1447 -3386.9698 -702.2645 -3387.2097 -703.2865 -3387.672 L -707.48114 -3386.9698 Z" fill="#5c76a1"/>
          </g>
        </g>
      </g>
    </g>
  </g>
</svg>
