<?xml version="1.0" encoding="UTF-8" standalone="no"?>
<!DOCTYPE svg PUBLIC "-//W3C//DTD SVG 1.1//EN" "http://www.w3.org/Graphics/SVG/1.1/DTD/svg11.dtd">
<svg version="1.1" xmlns="http://www.w3.org/2000/svg" xmlns:xl="http://www.w3.org/1999/xlink" xmlns:dc="http://purl.org/dc/elements/1.1/" viewBox="-472.5 -3407.468 25 25" width="25" height="25">
  <defs/>
  <g id="SOURCES" stroke-dasharray="none" fill="none" stroke="none" fill-opacity="1" stroke-opacity="1">
    <title>SOURCES</title>
    <g id="SOURCES_Calque_2">
      <title>Calque 2</title>
      <g id="Group_9792">
        <g id="Graphic_9670">
          <path d="M -451.84 -3406.968 L -468.16 -3406.968 C -470.2808 -3406.968 -472 -3405.249 -472 -3403.128 L -472 -3386.808 C -472 -3384.6873 -470.2808 -3382.968 -468.16 -3382.968 L -451.84 -3382.968 C -449.71923 -3382.968 -448 -3384.6873 -448 -3386.808 L -448 -3403.128 C -448 -3405.249 -449.71923 -3406.968 -451.84 -3406.968 Z" fill="white"/>
          <path d="M -451.84 -3406.968 L -468.16 -3406.968 C -470.2808 -3406.968 -472 -3405.249 -472 -3403.128 L -472 -3386.808 C -472 -3384.6873 -470.2808 -3382.968 -468.16 -3382.968 L -451.84 -3382.968 C -449.71923 -3382.968 -448 -3384.6873 -448 -3386.808 L -448 -3403.128 C -448 -3405.249 -449.71923 -3406.968 -451.84 -3406.968 Z" stroke="black" stroke-linecap="round" stroke-linejoin="round" stroke-width=".25"/>
        </g>
        <g id="Group_9751">
          <title>earth-alt</title>
          <g id="Graphic_9752">
            <path d="M -461.008 -3402.096 C -464.512 -3401.608 -467.2 -3398.6 -467.2 -3394.968 C -467.2 -3390.992 -463.976 -3387.768 -460 -3387.768 C -456.024 -3387.768 -452.8 -3390.992 -452.8 -3394.968 C -452.8 -3395.52 -452.864 -3396.056 -452.976 -3396.568 L -454.4 -3396.568 L -454.4 -3396.168 C -454.4 -3395.944 -454.576 -3395.768 -454.8 -3395.768 L -456 -3395.768 L -456 -3395.536 L -455.32 -3394.856 C -455.16 -3394.696 -455.16 -3394.448 -455.32 -3394.288 L -456.8 -3392.808 L -456.8 -3391.376 C -456.8 -3391.312 -456.816 -3391.256 -456.84 -3391.2 L -457.64 -3389.6 L -457.712 -3389.496 L -458.512 -3388.696 C -458.672 -3388.536 -458.92 -3388.536 -459.08 -3388.696 L -459.88 -3389.496 C -459.952 -3389.568 -460 -3389.672 -460 -3389.776 L -460 -3392.008 L -460.68 -3392.688 C -460.752 -3392.76 -460.8 -3392.864 -460.8 -3392.968 L -460.8 -3393.6 L -461.44 -3394.24 L -462.984 -3395.008 L -463.088 -3395.08 L -463.888 -3395.88 C -464.048 -3396.04 -464.048 -3396.288 -463.888 -3396.448 L -463.208 -3397.128 L -463.208 -3397.76 C -463.208 -3397.984 -463.032 -3398.16 -462.808 -3398.16 L -461.376 -3398.16 L -460.696 -3398.84 C -460.536 -3399 -460.288 -3399 -460.128 -3398.84 L -459.376 -3398.088 L -457.92 -3397.36 L -457.384 -3397.36 L -456.816 -3397.928 L -456.816 -3398.4 L -457.496 -3399.08 C -457.568 -3399.152 -457.616 -3399.256 -457.616 -3399.36 L -457.616 -3399.76 L -458.416 -3399.76 L -458.416 -3399.36 C -458.416 -3399.136 -458.592 -3398.96 -458.816 -3398.96 L -459.616 -3398.96 C -459.72 -3398.96 -459.824 -3399 -459.896 -3399.08 L -460.576 -3399.76 L -461.208 -3399.76 C -461.568 -3399.76 -461.744 -3400.192 -461.488 -3400.44 L -460.808 -3401.12 L -460.808 -3401.656 L -461.016 -3402.08 Z M -460.152 -3402.168 L -460.04 -3401.952 C -460.016 -3401.896 -460 -3401.832 -460 -3401.776 L -460 -3400.976 C -460 -3400.872 -460.04 -3400.768 -460.12 -3400.696 L -460.264 -3400.552 C -460.208 -3400.536 -460.16 -3400.504 -460.12 -3400.464 L -459.44 -3399.784 L -459.208 -3399.784 L -459.208 -3400.184 C -459.208 -3400.408 -459.032 -3400.584 -458.808 -3400.584 L -457.208 -3400.584 C -456.984 -3400.584 -456.808 -3400.408 -456.808 -3400.184 L -456.808 -3399.552 L -456.128 -3398.872 C -456.056 -3398.8 -456.008 -3398.696 -456.008 -3398.592 L -456.008 -3397.792 C -456.008 -3397.688 -456.048 -3397.584 -456.128 -3397.512 L -456.928 -3396.712 C -457 -3396.64 -457.104 -3396.592 -457.208 -3396.592 L -458.008 -3396.592 C -458.072 -3396.592 -458.128 -3396.608 -458.184 -3396.632 L -459.784 -3397.432 L -459.888 -3397.504 L -460.408 -3398.024 L -460.928 -3397.504 C -461 -3397.432 -461.104 -3397.384 -461.208 -3397.384 L -462.408 -3397.384 L -462.408 -3396.984 C -462.408 -3396.88 -462.448 -3396.776 -462.528 -3396.704 L -463.048 -3396.184 L -462.576 -3395.712 L -461.032 -3394.944 L -460.928 -3394.872 L -460.128 -3394.072 C -460.056 -3394 -460.008 -3393.896 -460.008 -3393.792 L -460.008 -3393.16 L -459.328 -3392.48 C -459.256 -3392.408 -459.208 -3392.304 -459.208 -3392.2 L -459.208 -3389.968 L -458.808 -3389.568 L -458.336 -3390.04 L -457.608 -3391.496 L -457.608 -3393 C -457.608 -3393.104 -457.568 -3393.208 -457.488 -3393.28 L -456.168 -3394.6 L -456.688 -3395.12 C -456.76 -3395.192 -456.808 -3395.296 -456.808 -3395.4 L -456.808 -3396.2 C -456.808 -3396.424 -456.632 -3396.6 -456.408 -3396.6 L -455.208 -3396.6 L -455.208 -3397 C -455.208 -3397.224 -455.032 -3397.4 -454.808 -3397.4 L -453.216 -3397.4 C -454.208 -3400.2 -456.872 -3402.2 -460.008 -3402.2 C -460.056 -3402.2 -460.112 -3402.2 -460.16 -3402.2 Z M -460 -3386.968 C -464.416 -3386.968 -468 -3390.552 -468 -3394.968 C -468 -3399.384 -464.416 -3402.968 -460 -3402.968 C -455.584 -3402.968 -452 -3399.384 -452 -3394.968 C -452 -3390.552 -455.584 -3386.968 -460 -3386.968 Z" fill="#5c76a2"/>
          </g>
        </g>
      </g>
    </g>
  </g>
</svg>
