<svg xmlns="http://www.w3.org/2000/svg" viewBox="-552.5 -3407.468 25 25"><g fill="none"><path d="M-531.84-3406.968h-16.32a3.84 3.84 0 0 0-3.84 3.84v16.32a3.84 3.84 0 0 0 3.84 3.84h16.32a3.84 3.84 0 0 0 3.84-3.84v-16.32a3.84 3.84 0 0 0-3.84-3.84z" fill="#fff"/><path d="M-531.84-3406.968h-16.32a3.84 3.84 0 0 0-3.84 3.84v16.32a3.84 3.84 0 0 0 3.84 3.84h16.32a3.84 3.84 0 0 0 3.84-3.84v-16.32a3.84 3.84 0 0 0-3.84-3.84z" stroke="#000" stroke-linecap="round" stroke-linejoin="round" stroke-width=".25"/><path d="M-543.556-3390.093h-4a.44.44 0 0 1-.444-.444.44.44 0 0 1 .444-.444h4v-.89c0-.488.4-.888.89-.888h1.777c.489 0 .889.4.889.889v.889h7.556a.44.44 0 0 1 .444.444.44.44 0 0 1-.444.444H-540v.916c0 .489-.4.889-.889.889h-1.778a.892.892 0 0 1-.889-.889zm5.334-4.444h-9.334a.44.44 0 0 1-.444-.444.44.44 0 0 1 .444-.445h9.334v-.889c0-.489.4-.889.889-.889h1.777c.49 0 .89.4.89.89v.888h2.222a.44.44 0 0 1 .444.445.44.44 0 0 1-.444.444h-2.223v.916c0 .488-.4.889-.889.889h-1.777a.891.891 0 0 1-.89-.89v-.915zm-8-4.444h-1.334a.44.44 0 0 1-.444-.445.44.44 0 0 1 .444-.444h1.334v-.889c0-.489.4-.889.889-.889h1.777c.49 0 .89.4.89.889v.889h10.222a.44.44 0 0 1 .444.444.44.44 0 0 1-.444.445h-10.223v.915c0 .489-.4.889-.889.889h-1.777a.892.892 0 0 1-.89-.889zm.889-1.778v2.693h1.777v-2.693zm8 4.444v2.694h1.777v-2.694h-1.777zm-5.334 4.445v2.693h1.778v-2.693z" fill="#5c76a1"/></g></svg>