<svg height="25" viewBox="-712.5 -3407.468 25 25" width="25" xmlns="http://www.w3.org/2000/svg"><g fill="none"><path d="m-691.84-3406.968h-16.32c-2.1208 0-3.84 1.719-3.84 3.84v16.32c0 2.1207 1.7192 3.84 3.84 3.84h16.32c2.1208 0 3.84-1.7193 3.84-3.84v-16.32c0-2.121-1.7192-3.84-3.84-3.84z" fill="#fff"/><path d="m-691.84-3406.968h-16.32c-2.1208 0-3.84 1.719-3.84 3.84v16.32c0 2.1207 1.7192 3.84 3.84 3.84h16.32c2.1208 0 3.84-1.7193 3.84-3.84v-16.32c0-2.121-1.7192-3.84-3.84-3.84z" stroke="#000" stroke-linecap="round" stroke-linejoin="round" stroke-width=".25"/><path d="m-703.2954-3388.5694c.0889-.0178.1778 0 .26664.0354.94206.4445 1.97292.6755 3.03936.6755 3.92805 0 7.1096-3.1815 7.1096-7.1095s-3.1904-7.1097-7.1185-7.1097c-3.92804 0-7.1096 3.1817-7.1096 7.1097 0 1.5196.4799 2.9593 1.34195 4.159.09775.1333.10665.302.04445.4444l-1.0842 2.3728 3.50145-.5865zm-4.18574 1.5907c-.35546.0622-.62206-.3023-.47986-.622l1.3241-2.8973c-.8798-1.3063-1.3597-2.8526-1.3597-4.47 0-4.417 3.5815-7.9984 7.9983-7.9984 4.41685 0 7.9983 3.5814 7.9983 7.9984 0 4.4168-3.58145 7.9982-7.9983 7.9982-1.1464 0-2.2662-.2399-3.2882-.7022l-4.19464.7022z" fill="#5c76a1"/></g></svg>