<svg xmlns="http://www.w3.org/2000/svg" viewBox="-597 -3555.641 25 25"><g fill="none"><path d="M-576.34-3555.14h-16.32a3.84 3.84 0 0 0-3.84 3.84v16.32a3.84 3.84 0 0 0 3.84 3.84h16.32a3.84 3.84 0 0 0 3.84-3.84v-16.32a3.84 3.84 0 0 0-3.84-3.84z" fill="#fff"/><path d="M-576.34-3555.14h-16.32a3.84 3.84 0 0 0-3.84 3.84v16.32a3.84 3.84 0 0 0 3.84 3.84h16.32a3.84 3.84 0 0 0 3.84-3.84v-16.32a3.84 3.84 0 0 0-3.84-3.84z" stroke="#000" stroke-linecap="round" stroke-linejoin="round" stroke-width=".25"/><path d="M-574.938-3537.89a2.019 2.019 0 0 1-2.018 2.019h-10.502a2.019 2.019 0 0 1-2.019-2.019v-10.502a2.02 2.02 0 0 1 2.019-2.018h10.502c1.114 0 2.018.904 2.018 2.018v10.502zm-.807-9.291v-1.211c0-.67-.54-1.211-1.21-1.211h-10.503a1.21 1.21 0 0 0-1.211 1.211v1.211zm0 .807h-12.924v8.484c0 .67.54 1.211 1.21 1.211h10.503c.67 0 1.211-.54 1.211-1.21zm-12.117-2.422h.807v.808h-.807zm1.615 0h.807v.808h-.807zm1.614 0h.807v.808h-.807zm-6.847 5.656-2.471-2.881a.459.459 0 0 1 .045-.645.459.459 0 0 1 .646.045l2.726 3.18a.454.454 0 0 1 0 .591l-2.726 3.19a.46.46 0 0 1-.646.045.459.459 0 0 1-.045-.645l2.472-2.88z" fill="#5c76a1"/></g></svg>