<svg height="25" viewBox="-752.5 -3407.468 25 25" width="25" xmlns="http://www.w3.org/2000/svg"><g fill="none"><path d="m-748.16-3406.968h16.32c2.1208 0 3.84 1.719 3.84 3.84v16.32c0 2.1207-1.7192 3.84-3.84 3.84h-16.32c-2.1208 0-3.84-1.7193-3.84-3.84v-16.32c0-2.121 1.7192-3.84 3.84-3.84z" fill="#fff"/><path d="m-748.16-3406.968h16.32c2.1208 0 3.84 1.719 3.84 3.84v16.32c0 2.1207-1.7192 3.84-3.84 3.84h-16.32c-2.1208 0-3.84-1.7193-3.84-3.84v-16.32c0-2.121 1.7192-3.84 3.84-3.84z" stroke="#000" stroke-linecap="round" stroke-linejoin="round" stroke-width=".25"/><path d="m-737.3333-3393.1903v-3.5557h-5.33336v3.5557zm0 .8889h-5.33336v3.5554h5.33336zm-9.7778-.8889h3.5556v-3.5557h-3.5556zm0 .8889v2.2224c0 .7376.5956 1.333 1.3333 1.333h2.2223v-3.5554zm14.2222-.8889v-3.5557h-3.5555v3.5557zm0 .8889h-3.5555v3.5554h2.2222c.73775 0 1.3333-.5954 1.3333-1.333zm-4.4444-5.3333v-3.5556h-5.33336v3.5556zm-9.7778 0h3.5556v-3.5556h-2.2223c-.7377 0-1.3333.5956-1.3333 1.3333zm14.2222 0v-2.2223c0-.7377-.59555-1.3333-1.3333-1.3333h-2.2222v3.5556zm-12.8889-4.4443h11.5556c1.2266 0 2.2222.9954 2.2222 2.222v9.778c0 1.2265-.9956 2.222-2.2222 2.222h-11.5556c-1.2266 0-2.2222-.9955-2.2222-2.222v-9.778c0-1.2266.9956-2.222 2.2222-2.222z" fill="#5c76a1"/></g></svg>