<svg height="24.75" viewBox="-392.375 -3448.51 24.75 24.75" width="24.75" xmlns="http://www.w3.org/2000/svg"><g fill="none"><path d="M-375.2-3448.135h-13.6a3.2 3.2 0 0 0-3.2 3.2v13.6a3.2 3.2 0 0 0 3.2 3.2h13.6a3.2 3.2 0 0 0 3.2-3.2v-13.6a3.2 3.2 0 0 0-3.2-3.2z" fill="#8797a7"/><path d="M-371.2-3444.135h-13.6a3.2 3.2 0 0 0-3.2 3.2v13.6a3.2 3.2 0 0 0 3.2 3.2h13.6a3.2 3.2 0 0 0 3.2-3.2v-13.6a3.2 3.2 0 0 0-3.2-3.2z" fill="#66727e"/><path d="M-380.693-3439.079v9.799a.434.434 0 0 0 .675.361l7.126-4.833a.515.515 0 0 0 0-.849l-7.126-4.839a.437.437 0 0 0-.601.114.442.442 0 0 0-.074.24zm-.668 0c0-.22.067-.434.187-.622a1.113 1.113 0 0 1 1.537-.294l7.126 4.833a1.183 1.183 0 0 1 0 1.958l-7.126 4.833a1.08 1.08 0 0 1-.621.187 1.104 1.104 0 0 1-1.103-1.103z" fill="#fff"/></g></svg>