<svg height="24.75" viewBox="-468.509 -3506.988 24.386 24.75" width="24.386" xmlns="http://www.w3.org/2000/svg"><g fill="none"><path d="M-451.334-3506.613h-13.6a3.2 3.2 0 0 0-3.2 3.2v13.6a3.2 3.2 0 0 0 3.2 3.2h13.6a3.2 3.2 0 0 0 3.2-3.2v-13.6a3.2 3.2 0 0 0-3.2-3.2z" fill="#ff7a7c"/><path d="M-447.698-3502.613h-13.6a3.2 3.2 0 0 0-3.2 3.2v13.6a3.2 3.2 0 0 0 3.2 3.2h13.6a3.2 3.2 0 0 0 3.2-3.2v-13.6a3.2 3.2 0 0 0-3.2-3.2z" fill="#9f4c4d"/><path d="M-461.176-3496.93c0-.23-.182-.412-.412-.412s-.412.181-.412.412v4.118c0 .23.181.411.412.411h4.117c.231 0 .412-.181.412-.411a.408.408 0 0 0-.412-.412h-3.705zm12.352 9.059c0 .23.19.412.412.412.23 0 .412-.19.412-.412 0-1.021 0-1.548-.008-1.647-.214-3.92-3.467-7-7.404-7h-.23a7.413 7.413 0 0 0-6.292 3.491.407.407 0 0 0 .132.569c.189.123.444.066.568-.132a6.591 6.591 0 0 1 5.592-3.096h.23c3.5 0 6.39 2.742 6.58 6.217 0 .074 0 .626.008 1.606z" fill="#fff"/></g></svg>