<svg xmlns="http://www.w3.org/2000/svg" viewBox="-417.103 -3023.632 24.78 24.75"><g fill="none"><path d="M-399.928-3023.257h-13.6a3.2 3.2 0 0 0-3.2 3.2v13.6a3.2 3.2 0 0 0 3.2 3.2h13.6a3.2 3.2 0 0 0 3.2-3.2v-13.6a3.2 3.2 0 0 0-3.2-3.2z" fill="#8797a7"/><path d="M-395.897-3019.257h-13.6a3.2 3.2 0 0 0-3.2 3.2v13.6a3.2 3.2 0 0 0 3.2 3.2h13.6a3.2 3.2 0 0 0 3.2-3.2v-13.6a3.2 3.2 0 0 0-3.2-3.2z" fill="#66727e"/><path d="m-400.367-3013.171-7.667 7.666v1.527h1.527l7.667-7.666zm.473-.474 1.527 1.527.86-.86-1.527-1.526zm-8.806 10v-2c0-.086.033-.173.1-.233l9.333-9.333a.33.33 0 0 1 .473 0l2 2a.33.33 0 0 1 0 .473l-9.34 9.327a.34.34 0 0 1-.233.1h-2a.33.33 0 0 1-.333-.333z" fill="#fff"/></g></svg>