<svg height="24.75" viewBox="-417.103 -3023.632 24.78 24.75" width="24.78" xmlns="http://www.w3.org/2000/svg"><g fill="none"><path d="m-399.9275-3023.257h-13.6c-1.7673 0-3.2 1.4328-3.2 3.2v13.6c0 1.7674 1.4327 3.2 3.2 3.2h13.6c1.7673 0 3.2-1.4326 3.2-3.2v-13.6c0-1.7672-1.4327-3.2-3.2-3.2z" fill="#8797a7"/><path d="m-395.897-3019.257h-13.6c-1.76733 0-3.2 1.4328-3.2 3.2v13.6c0 1.7674 1.43267 3.2 3.2 3.2h13.6c1.7673 0 3.2-1.4326 3.2-3.2v-13.6c0-1.7672-1.4327-3.2-3.2-3.2z" fill="#66727e"/><path d="m-400.367-3013.1712-7.6667 7.6667v1.5265h1.5267l7.66665-7.6665zm.4733-.4733 1.5267 1.5265.86-.86-1.5267-1.5265zm-8.80665 10v-2c0-.0867.03335-.1735.1-.2335l9.33335-9.3332c.1333-.1333.34-.1333.4733 0l2 2c.13335.1332.13335.34 0 .4732l-9.34 9.3268c-.06.06-.14665.1-.2333.1h-2c-.1867 0-.33335-.1468-.33335-.3333z" fill="#fff"/></g></svg>