<svg height="24.75" viewBox="-392.375 -3448.51 24.75 24.75" width="24.75" xmlns="http://www.w3.org/2000/svg"><g fill="none"><path d="m-375.2-3448.1346h-13.6c-1.7673 0-3.2 1.4326-3.2 3.2v13.6c0 1.7674 1.4327 3.2 3.2 3.2h13.6c1.7673 0 3.2-1.4326 3.2-3.2v-13.6c0-1.7674-1.4327-3.2-3.2-3.2z" fill="#8797a7"/><path d="m-371.2-3444.1346h-13.6c-1.7673 0-3.2 1.4326-3.2 3.2v13.6c0 1.7674 1.4327 3.2 3.2 3.2h13.6c1.76733 0 3.2-1.4326 3.2-3.2v-13.6c0-1.7674-1.43267-3.2-3.2-3.2z" fill="#66727e"/><path d="m-380.6929-3439.079v9.799c0 .2407.19385.4346.4345.4346.0869 0 .17378-.0266.2406-.0736l7.12543-4.8327c.23394-.1603.2941-.4813.13367-.7153-.0334-.0534-.0802-.1-.13367-.1336l-7.12543-4.8394c-.2005-.1336-.4679-.08-.60156.1137-.04679.0733-.07354.1537-.07354.2406zm-.6684 0c0-.2206.06683-.4345.18714-.6216.34758-.5014 1.02936-.635 1.53736-.2942l7.12543 4.8328c.127.087.23395.194.31417.314.3676.5415.22725 1.277-.31417 1.6444l-7.12543 4.8326c-.18045.127-.40103.1873-.6216.1873-.6083 0-1.1029-.4946-1.1029-1.1029z" fill="#fff"/></g></svg>