<?xml version="1.0" encoding="UTF-8" standalone="no"?>
<!DOCTYPE svg PUBLIC "-//W3C//DTD SVG 1.1//EN" "http://www.w3.org/Graphics/SVG/1.1/DTD/svg11.dtd">
<svg version="1.1" xmlns="http://www.w3.org/2000/svg" xmlns:xl="http://www.w3.org/1999/xlink" xmlns:dc="http://purl.org/dc/elements/1.1/" viewBox="-468.5092 -3506.9884 24.38641 24.75" width="24.38641" height="24.75">
  <defs/>
  <g id="SOURCES" stroke-dasharray="none" fill="none" stroke="none" fill-opacity="1" stroke-opacity="1">
    <title>SOURCES</title>
    <g id="SOURCES_Calque_2">
      <title>Calque 2</title>
      <g id="Graphic_9801">
        <path d="M -451.3342 -3506.6134 L -464.9342 -3506.6134 C -466.7015 -3506.6134 -468.1342 -3505.1807 -468.1342 -3503.4134 L -468.1342 -3489.8134 C -468.1342 -3488.046 -466.7015 -3486.6134 -464.9342 -3486.6134 L -451.3342 -3486.6134 C -449.5669 -3486.6134 -448.1342 -3488.046 -448.1342 -3489.8134 L -448.1342 -3503.4134 C -448.1342 -3505.1807 -449.5669 -3506.6134 -451.3342 -3506.6134 Z" fill="#ff7a7c"/>
      </g>
      <g id="Graphic_9800">
        <path d="M -447.6978 -3502.6134 L -461.2978 -3502.6134 C -463.0651 -3502.6134 -464.4978 -3501.1807 -464.4978 -3499.4134 L -464.4978 -3485.8134 C -464.4978 -3484.046 -463.0651 -3482.6134 -461.2978 -3482.6134 L -447.6978 -3482.6134 C -445.93046 -3482.6134 -444.4978 -3484.046 -444.4978 -3485.8134 L -444.4978 -3499.4134 C -444.4978 -3501.1807 -445.93046 -3502.6134 -447.6978 -3502.6134 Z" fill="#9f4c4d"/>
      </g>
      <g id="Graphic_9797">
        <path d="M -461.1765 -3496.93 C -461.1765 -3497.1606 -461.35765 -3497.342 -461.58824 -3497.342 C -461.81883 -3497.342 -462 -3497.1606 -462 -3496.93 L -462 -3492.8124 C -462 -3492.582 -461.81883 -3492.4006 -461.58824 -3492.4006 L -457.4706 -3492.4006 C -457.24 -3492.4006 -457.05883 -3492.582 -457.05883 -3492.8124 C -457.05883 -3493.043 -457.24 -3493.224 -457.4706 -3493.224 L -461.1765 -3493.224 Z M -448.82354 -3487.8712 C -448.82354 -3487.6406 -448.6341 -3487.4594 -448.41177 -3487.4594 C -448.1812 -3487.4594 -448 -3487.649 -448 -3487.8712 C -448 -3488.8924 -448 -3489.4194 -448.00824 -3489.5183 C -448.22236 -3493.4383 -451.4753 -3496.5183 -455.41177 -3496.5183 L -455.64236 -3496.5183 C -458.20354 -3496.5183 -460.5753 -3495.2006 -461.9341 -3493.0265 C -462.05765 -3492.837 -462 -3492.582 -461.80236 -3492.4583 C -461.61295 -3492.3347 -461.35765 -3492.3924 -461.2341 -3492.59 C -460.03177 -3494.517 -457.9153 -3495.6865 -455.64236 -3495.6865 L -455.41177 -3495.6865 C -451.91177 -3495.6865 -449.0212 -3492.944 -448.83177 -3489.469 C -448.83177 -3489.3947 -448.83177 -3488.843 -448.82354 -3487.863 Z" fill="white"/>
      </g>
    </g>
  </g>
</svg>
