<?xml version="1.0" encoding="UTF-8" standalone="no"?>
<!DOCTYPE svg PUBLIC "-//W3C//DTD SVG 1.1//EN" "http://www.w3.org/Graphics/SVG/1.1/DTD/svg11.dtd">
<svg version="1.1" xmlns="http://www.w3.org/2000/svg" xmlns:xl="http://www.w3.org/1999/xlink" xmlns:dc="http://purl.org/dc/elements/1.1/" viewBox="-392.375 -3448.5096 24.750016 24.75" width="24.750016" height="24.75">
  <defs/>
  <g id="SOURCES" stroke-dasharray="none" fill="none" stroke="none" fill-opacity="1" stroke-opacity="1">
    <title>SOURCES</title>
    <g id="SOURCES_Calque_2">
      <title>Calque 2</title>
      <g id="Group_9772">
        <g id="Graphic_9760">
          <path d="M -375.2 -3448.1346 L -388.8 -3448.1346 C -390.5673 -3448.1346 -392 -3446.702 -392 -3444.9346 L -392 -3431.3346 C -392 -3429.5672 -390.5673 -3428.1346 -388.8 -3428.1346 L -375.2 -3428.1346 C -373.4327 -3428.1346 -372 -3429.5672 -372 -3431.3346 L -372 -3444.9346 C -372 -3446.702 -373.4327 -3448.1346 -375.2 -3448.1346 Z" fill="#8797a7"/>
        </g>
        <g id="Graphic_9768">
          <path d="M -371.2 -3444.1346 L -384.8 -3444.1346 C -386.5673 -3444.1346 -388 -3442.702 -388 -3440.9346 L -388 -3427.3346 C -388 -3425.5672 -386.5673 -3424.1346 -384.8 -3424.1346 L -371.2 -3424.1346 C -369.43267 -3424.1346 -368 -3425.5672 -368 -3427.3346 L -368 -3440.9346 C -368 -3442.702 -369.43267 -3444.1346 -371.2 -3444.1346 Z" fill="#66727e"/>
        </g>
        <g id="Graphic_9759">
          <path d="M -380.6929 -3439.079 L -380.6929 -3429.28 C -380.6929 -3429.0393 -380.49905 -3428.8454 -380.2584 -3428.8454 C -380.1715 -3428.8454 -380.08462 -3428.872 -380.0178 -3428.919 L -372.89237 -3433.7517 C -372.65843 -3433.912 -372.59827 -3434.233 -372.7587 -3434.467 C -372.7921 -3434.5204 -372.8389 -3434.567 -372.89237 -3434.6006 L -380.0178 -3439.44 C -380.2183 -3439.5736 -380.4857 -3439.52 -380.61936 -3439.3263 C -380.66615 -3439.253 -380.6929 -3439.1726 -380.6929 -3439.0857 Z M -381.3613 -3439.079 C -381.3613 -3439.2996 -381.29447 -3439.5135 -381.17416 -3439.7006 C -380.82658 -3440.202 -380.1448 -3440.3356 -379.6368 -3439.9948 L -372.51137 -3435.162 C -372.38437 -3435.075 -372.27742 -3434.968 -372.1972 -3434.848 C -371.8296 -3434.3065 -371.96995 -3433.571 -372.51137 -3433.2036 L -379.6368 -3428.371 C -379.81725 -3428.244 -380.03783 -3428.1837 -380.2584 -3428.1837 C -380.8667 -3428.1837 -381.3613 -3428.6783 -381.3613 -3429.2866 Z" fill="white"/>
        </g>
      </g>
    </g>
  </g>
</svg>
