<svg height="24.75" viewBox="-468.509 -3506.988 24.386 24.75" width="24.386" xmlns="http://www.w3.org/2000/svg"><g fill="none"><path d="m-451.3342-3506.6134h-13.6c-1.7673 0-3.2 1.4327-3.2 3.2v13.6c0 1.7674 1.4327 3.2 3.2 3.2h13.6c1.7673 0 3.2-1.4326 3.2-3.2v-13.6c0-1.7673-1.4327-3.2-3.2-3.2z" fill="#ff7a7c"/><path d="m-447.6978-3502.6134h-13.6c-1.7673 0-3.2 1.4327-3.2 3.2v13.6c0 1.7674 1.4327 3.2 3.2 3.2h13.6c1.76734 0 3.2-1.4326 3.2-3.2v-13.6c0-1.7673-1.43266-3.2-3.2-3.2z" fill="#9f4c4d"/><path d="m-461.1765-3496.93c0-.2306-.18115-.412-.41174-.412s-.41176.1814-.41176.412v4.1176c0 .2304.18117.4118.41176.4118h4.11764c.2306 0 .41177-.1814.41177-.4118 0-.2306-.18117-.4116-.41177-.4116h-3.7059zm12.35296 9.0588c0 .2306.18944.4118.41177.4118.23057 0 .41177-.1896.41177-.4118 0-1.0212 0-1.5482-.00824-1.6471-.21412-3.92-3.46706-7-7.40353-7h-.23059c-2.56118 0-4.93294 1.3177-6.29174 3.4918-.12355.1895-.0659.4445.13174.5682.18941.1236.44471.0659.56826-.1317 1.20233-1.927 3.3188-3.0965 5.59174-3.0965h.23059c3.5 0 6.39057 2.7425 6.58 6.2175 0 .0743 0 .626.00823 1.606z" fill="#fff"/></g></svg>