<svg height="25" viewBox="-230.169 -3407.518 25 25" width="25" xmlns="http://www.w3.org/2000/svg"><g fill="none"><path d="m-225.8291-3407.0177h16.32c2.12076 0 3.84 1.7193 3.84 3.84v16.32c0 2.1207-1.71924 3.84-3.84 3.84h-16.32c-2.12078 0-3.84-1.7193-3.84-3.84v-16.32c0-2.1207 1.71922-3.84 3.84-3.84z" fill="#fff"/><path d="m-225.8291-3407.0177h16.32c2.12076 0 3.84 1.7193 3.84 3.84v16.32c0 2.1207-1.71924 3.84-3.84 3.84h-16.32c-2.12078 0-3.84-1.7193-3.84-3.84v-16.32c0-2.1207 1.71922-3.84 3.84-3.84z" stroke="#000" stroke-linecap="round" stroke-linejoin="round" stroke-width=".25"/><g fill="#66727e"><path d="m-209.66913-3389.2387c0 1.226-.995 2.221-2.22099 2.221h-11.55802c-1.22598 0-2.22099-.995-2.22099-2.221v-11.558c0-1.226.99501-2.221 2.22099-2.221h11.55802c1.22599 0 2.22099.995 2.22099 2.221zm-.88839-10.2253v-1.3327c0-.7373-.59523-1.3326-1.3326-1.3326h-11.55802c-.73736 0-1.33259.5953-1.33259 1.3326v1.3327zm0 .8883h-14.22321v9.337c0 .7374.59523 1.3327 1.33259 1.3327h11.55802c.73737 0 1.3326-.5953 1.3326-1.3327zm-13.33482-2.6653h.8884v.8885h-.8884zm1.77679 0h.8884v.8885h-.8884zm1.77679 0h.8884v.8885h-.8884z"/><path d="m-222.05218-3396.2847c-.16364 0-.29222-.1235-.29222-.2808 0-.1572.12858-.2807.29222-.2807h8.76614c.16364 0 .29221.1235.29221.2807 0 .1573-.12857.2808-.29221.2808zm0 2.2462c-.16364 0-.29222-.1235-.29222-.2808 0-.1572.12858-.2807.29222-.2807h8.76614c.16364 0 .29221.1235.29221.2807 0 .1573-.12857.2808-.29221.2808zm0 2.2461c-.16364 0-.29222-.1236-.29222-.2806 0-.1574.12858-.281.29222-.281h8.76614c.16364 0 .29221.1236.29221.281 0 .157-.12857.2806-.29221.2806zm0 2.2461c-.16364 0-.29222-.1235-.29222-.2807 0-.1573.12858-.2808.29222-.2808h5.25968c.16364 0 .2922.1235.2922.2808 0 .1572-.12856.2807-.2922.2807z"/></g></g></svg>