<svg viewBox="-230.169 -3407.518 25 25" xmlns="http://www.w3.org/2000/svg"><g fill="none"><path d="M-225.83-3407.018h16.32a3.84 3.84 0 0 1 3.84 3.84v16.32a3.84 3.84 0 0 1-3.84 3.84h-16.32a3.84 3.84 0 0 1-3.84-3.84v-16.32a3.84 3.84 0 0 1 3.84-3.84z" fill="#fff"/><path d="M-225.83-3407.018h16.32a3.84 3.84 0 0 1 3.84 3.84v16.32a3.84 3.84 0 0 1-3.84 3.84h-16.32a3.84 3.84 0 0 1-3.84-3.84v-16.32a3.84 3.84 0 0 1 3.84-3.84z" stroke="#000" stroke-linecap="round" stroke-linejoin="round" stroke-width=".25"/><g fill="#66727e"><path d="M-209.67-3389.239a2.222 2.222 0 0 1-2.22 2.221h-11.558a2.222 2.222 0 0 1-2.221-2.22v-11.559a2.22 2.22 0 0 1 2.22-2.22h11.559a2.22 2.22 0 0 1 2.22 2.22zm-.888-10.225v-1.333a1.33 1.33 0 0 0-1.332-1.332h-11.558a1.33 1.33 0 0 0-1.333 1.332v1.333zm0 .888h-14.223v9.337a1.33 1.33 0 0 0 1.333 1.333h11.558a1.33 1.33 0 0 0 1.332-1.333zm-13.334-2.665h.888v.889h-.888zm1.776 0h.889v.889h-.889zm1.777 0h.889v.889h-.889z"/><path d="M-222.052-3396.285a.284.284 0 0 1-.292-.28c0-.158.128-.281.292-.281h8.766c.164 0 .292.123.292.28a.283.283 0 0 1-.292.281zm0 2.246a.284.284 0 0 1-.292-.28c0-.158.128-.281.292-.281h8.766c.164 0 .292.123.292.28a.284.284 0 0 1-.292.282zm0 2.247a.284.284 0 0 1-.292-.281c0-.157.128-.281.292-.281h8.766c.164 0 .292.124.292.281s-.128.28-.292.28zm0 2.246a.284.284 0 0 1-.292-.281c0-.157.128-.28.292-.28h5.26c.163 0 .292.123.292.28s-.129.28-.292.28z"/></g></g></svg>