<svg height="25" viewBox="-192.5 -3409.567 25 25" width="25" xmlns="http://www.w3.org/2000/svg"><g fill="none"><path d="M-188.16-3409.067h16.32a3.84 3.84 0 0 1 3.84 3.84v16.32a3.84 3.84 0 0 1-3.84 3.84h-16.32a3.84 3.84 0 0 1-3.84-3.84v-16.32a3.84 3.84 0 0 1 3.84-3.84z" fill="#fff"/><path d="M-188.16-3409.067h16.32a3.84 3.84 0 0 1 3.84 3.84v16.32a3.84 3.84 0 0 1-3.84 3.84h-16.32a3.84 3.84 0 0 1-3.84-3.84v-16.32a3.84 3.84 0 0 1 3.84-3.84z" stroke="#000" stroke-linecap="round" stroke-linejoin="round" stroke-width=".25"/><path d="M-172-3391.288a2.222 2.222 0 0 1-2.221 2.22h-11.558a2.222 2.222 0 0 1-2.221-2.22v-11.558c0-1.226.995-2.221 2.221-2.221h11.558c1.226 0 2.221.995 2.221 2.22zm-.888-10.226v-1.332a1.33 1.33 0 0 0-1.333-1.333h-11.558a1.33 1.33 0 0 0-1.333 1.333v1.332zm0 .889h-14.224v9.337a1.33 1.33 0 0 0 1.333 1.332h11.558a1.33 1.33 0 0 0 1.333-1.332zm-13.335-2.666h.888v.889h-.888zm1.777 0h.888v.889h-.888zm1.776 0h.889v.889h-.889z" fill="#66727e"/></g></svg>