<svg xmlns="http://www.w3.org/2000/svg" viewBox="-192.5 -3370.5 25 25"><g fill="none"><path d="M-188.16-3370h16.32a3.84 3.84 0 0 1 3.84 3.84v16.32a3.84 3.84 0 0 1-3.84 3.84h-16.32a3.84 3.84 0 0 1-3.84-3.84v-16.32a3.84 3.84 0 0 1 3.84-3.84z" fill="#fff"/><path d="M-188.16-3370h16.32a3.84 3.84 0 0 1 3.84 3.84v16.32a3.84 3.84 0 0 1-3.84 3.84h-16.32a3.84 3.84 0 0 1-3.84-3.84v-16.32a3.84 3.84 0 0 1 3.84-3.84z" stroke="#000" stroke-linecap="round" stroke-linejoin="round" stroke-width=".25"/><path d="M-172-3352.221a2.222 2.222 0 0 1-2.221 2.221h-11.558a2.222 2.222 0 0 1-2.221-2.221v-11.558c0-1.226.995-2.221 2.221-2.221h11.558c1.226 0 2.221.995 2.221 2.221v11.558zm-.888-10.225v-1.333a1.33 1.33 0 0 0-1.333-1.333h-11.558a1.33 1.33 0 0 0-1.333 1.333v1.333zm0 .888h-14.224v9.337a1.33 1.33 0 0 0 1.333 1.333h11.558a1.33 1.33 0 0 0 1.333-1.333zm-13.335-2.665h.888v.888h-.888zm1.777 0h.888v.888h-.888zm1.776 0h.889v.888h-.889z" fill="#66727e"/></g></svg>