<?xml version="1.0" encoding="UTF-8" standalone="no"?>
<!DOCTYPE svg PUBLIC "-//W3C//DTD SVG 1.1//EN" "http://www.w3.org/Graphics/SVG/1.1/DTD/svg11.dtd">
<svg xmlns:dc="http://purl.org/dc/elements/1.1/" xmlns:xl="http://www.w3.org/1999/xlink" version="1.1" xmlns="http://www.w3.org/2000/svg" viewBox="-192.49998 -3409.5673 25 25" width="25" height="25">
  <defs/>
  <g id="SOURCES" stroke-dasharray="none" stroke="none" stroke-opacity="1" fill="none" fill-opacity="1">
    <title>SOURCES</title>
    <g id="SOURCES_Calque_2">
      <title>Calque 2</title>
      <g id="Group_9724">
        <g id="Graphic_9727">
          <title>views/view.other</title>
          <path d="M -188.15998 -3409.0673 L -171.83998 -3409.0673 C -169.71921 -3409.0673 -167.99998 -3407.348 -167.99998 -3405.2273 L -167.99998 -3388.9073 C -167.99998 -3386.7865 -169.71921 -3385.0673 -171.83998 -3385.0673 L -188.15998 -3385.0673 C -190.28076 -3385.0673 -191.99998 -3386.7865 -191.99998 -3388.9073 L -191.99998 -3405.2273 C -191.99998 -3407.348 -190.28076 -3409.0673 -188.15998 -3409.0673 Z" fill="white"/>
          <path d="M -188.15998 -3409.0673 L -171.83998 -3409.0673 C -169.71921 -3409.0673 -167.99998 -3407.348 -167.99998 -3405.2273 L -167.99998 -3388.9073 C -167.99998 -3386.7865 -169.71921 -3385.0673 -171.83998 -3385.0673 L -188.15998 -3385.0673 C -190.28076 -3385.0673 -191.99998 -3386.7865 -191.99998 -3388.9073 L -191.99998 -3405.2273 C -191.99998 -3407.348 -190.28076 -3409.0673 -188.15998 -3409.0673 Z" stroke="black" stroke-linecap="round" stroke-linejoin="round" stroke-width=".25"/>
        </g>
        <g id="Group_9725">
          <title>window</title>
          <g id="Graphic_9726">
            <path d="M -172 -3391.2883 C -172 -3390.0623 -172.995 -3389.0673 -174.22099 -3389.0673 L -185.77901 -3389.0673 C -187.005 -3389.0673 -188 -3390.0623 -188 -3391.2883 L -188 -3402.8463 C -188 -3404.0723 -187.005 -3405.0673 -185.77901 -3405.0673 L -174.22099 -3405.0673 C -172.995 -3405.0673 -172 -3404.0723 -172 -3402.8463 L -172 -3391.2883 Z M -172.8884 -3401.5137 L -172.8884 -3402.8463 C -172.8884 -3403.5837 -173.48362 -3404.179 -174.22099 -3404.179 L -185.77901 -3404.179 C -186.51638 -3404.179 -187.1116 -3403.5837 -187.1116 -3402.8463 L -187.1116 -3401.5137 Z M -172.8884 -3400.6253 L -187.1116 -3400.6253 L -187.1116 -3391.2883 C -187.1116 -3390.551 -186.51638 -3389.9557 -185.77901 -3389.9557 L -174.22099 -3389.9557 C -173.48362 -3389.9557 -172.8884 -3390.551 -172.8884 -3391.2883 Z M -186.2232 -3403.2905 L -185.33481 -3403.2905 L -185.33481 -3402.402 L -186.2232 -3402.402 Z M -184.44642 -3403.2905 L -183.55802 -3403.2905 L -183.55802 -3402.402 L -184.44642 -3402.402 Z M -182.66963 -3403.2905 L -181.78123 -3403.2905 L -181.78123 -3402.402 L -182.66963 -3402.402 Z" fill="#66727e"/>
          </g>
        </g>
      </g>
    </g>
  </g>
</svg>
