<svg height="25" viewBox="-192.5 -3370.5 25 25" width="25" xmlns="http://www.w3.org/2000/svg"><g fill="none"><path d="m-188.15998-3370h16.32c2.12077 0 3.84 1.7192 3.84 3.84v16.32c0 2.1208-1.71923 3.84-3.84 3.84h-16.32c-2.12078 0-3.84-1.7192-3.84-3.84v-16.32c0-2.1208 1.71922-3.84 3.84-3.84z" fill="#fff"/><path d="m-188.15998-3370h16.32c2.12077 0 3.84 1.7192 3.84 3.84v16.32c0 2.1208-1.71923 3.84-3.84 3.84h-16.32c-2.12078 0-3.84-1.7192-3.84-3.84v-16.32c0-2.1208 1.71922-3.84 3.84-3.84z" stroke="#000" stroke-linecap="round" stroke-linejoin="round" stroke-width=".25"/><path d="m-172-3352.221c0 1.226-.995 2.221-2.22099 2.221h-11.55802c-1.22599 0-2.22099-.995-2.22099-2.221v-11.558c0-1.226.995-2.221 2.22099-2.221h11.55802c1.22599 0 2.22099.995 2.22099 2.221zm-.8884-10.2254v-1.3326c0-.7374-.59522-1.3326-1.33259-1.3326h-11.55802c-.73737 0-1.33259.5952-1.33259 1.3326v1.3326zm0 .8884h-14.2232v9.337c0 .7374.59522 1.3326 1.33259 1.3326h11.55802c.73737 0 1.33259-.5952 1.33259-1.3326zm-13.3348-2.6652h.88839v.8882h-.88839zm1.77678 0h.8884v.8882h-.8884zm1.77679 0h.8884v.8882h-.8884z" fill="#66727e"/></g></svg>