<svg height="24.75" viewBox="-890.649 -2973.769 24.75 24.75" width="24.75" xmlns="http://www.w3.org/2000/svg"><path d="M-875.94-2959.838v-3.111h-4.667v3.111zm0 .778h-4.667v3.111h4.666zm-8.556-.778h3.11v-3.111h-3.11zm0 .778v1.944c0 .646.52 1.167 1.166 1.167h1.945v-3.111zm12.444-.778v-3.111h-3.111v3.111zm0 .778h-3.111v3.111h1.944c.646 0 1.167-.521 1.167-1.167zm-3.889-4.667v-3.111h-4.666v3.111zm-8.555 0h3.11v-3.111h-1.944c-.645 0-1.166.521-1.166 1.167zm12.444 0v-1.944c0-.646-.521-1.167-1.167-1.167h-1.944v3.111zm-11.278-3.889h10.111c1.074 0 1.945.871 1.945 1.945v8.555a1.945 1.945 0 0 1-1.945 1.945h-10.11a1.945 1.945 0 0 1-1.945-1.945v-8.555c0-1.074.871-1.945 1.944-1.945z" fill="#5c76a1"/></svg>