<?xml version="1.0" encoding="UTF-8" standalone="no"?>
<!DOCTYPE svg PUBLIC "-//W3C//DTD SVG 1.1//EN" "http://www.w3.org/Graphics/SVG/1.1/DTD/svg11.dtd">
<svg xmlns="http://www.w3.org/2000/svg" xmlns:dc="http://purl.org/dc/elements/1.1/" version="1.1" xmlns:xl="http://www.w3.org/1999/xlink" viewBox="-746.6491 -2973.7685 24.75 24.75" width="24.75" height="24.75">
  <defs/>
  <g id="SOURCES" fill="none" stroke="none" stroke-dasharray="none" fill-opacity="1" stroke-opacity="1">
    <title>SOURCES</title>
    <g id="SOURCES_Light">
      <title>Light</title>
      <g id="Group_12731">
        <g id="Group_9819">
          <title>eye</title>
          <g id="Graphic_9820">
            <path d="M -741.24785 -2961.519 C -739.7502 -2965.375 -735.4183 -2967.2856 -731.5693 -2965.788 C -729.6098 -2965.0252 -728.05615 -2963.4786 -727.3003 -2961.519 C -727.26535 -2961.435 -727.26535 -2961.344 -727.3003 -2961.267 C -728.791 -2957.418 -733.1299 -2955.5006 -736.9789 -2956.9982 C -738.9384 -2957.761 -740.485 -2959.3076 -741.24785 -2961.267 C -741.28284 -2961.351 -741.28284 -2961.442 -741.24785 -2961.519 Z M -736.72 -2957.649 C -733.26985 -2956.3124 -729.3928 -2957.985 -728.0002 -2961.393 C -728.707 -2963.1077 -730.08564 -2964.4653 -731.8212 -2965.137 C -735.27135 -2966.474 -739.1414 -2964.8013 -740.541 -2961.393 C -739.8342 -2959.6785 -738.45555 -2958.321 -736.72 -2957.649 Z M -734.2706 -2958.5938 C -735.8172 -2958.5938 -737.0699 -2959.8465 -737.0699 -2961.393 C -737.0699 -2962.9397 -735.8172 -2964.1924 -734.2706 -2964.1924 C -732.724 -2964.1924 -731.4713 -2962.9397 -731.4713 -2961.393 C -731.4713 -2959.8465 -732.724 -2958.5938 -734.2706 -2958.5938 Z M -734.2706 -2959.2936 C -733.1089 -2959.2936 -732.1711 -2960.2314 -732.1711 -2961.393 C -732.1711 -2962.5548 -733.1089 -2963.4926 -734.2706 -2963.4926 C -735.4323 -2963.4926 -736.3701 -2962.5548 -736.3701 -2961.393 C -736.3701 -2960.2314 -735.4323 -2959.2936 -734.2706 -2959.2936 Z" fill="#5c76a1"/>
          </g>
        </g>
        <g id="Graphic_12709"/>
      </g>
    </g>
  </g>
</svg>
