<svg height="24.75" viewBox="-530.649 -2973.769 24.75 24.75" width="24.75" xmlns="http://www.w3.org/2000/svg"><path d="m-517.5352-2957.1158c-.1789.8868-.96445 1.5556-1.90557 1.5556-.94113 0-1.72667-.6688-1.90553-1.5556h-3.5389c-.2178 0-.3889-.1712-.3889-.3888 0-.2178.1711-.3889.3889-.3889h3.5389c.17886-.8867.9644-1.5555 1.90553-1.5555.94112 0 1.72667.6688 1.90557 1.5555h5.87223c.21777 0 .38887.1711.38887.3889 0 .2176-.1711.3888-.38887.3888zm4.6667-3.8889c-.1789.8867-.9645 1.5557-1.9056 1.5557s-1.72666-.669-1.90555-1.5557h-8.20555c-.2178 0-.3889-.1711-.3889-.3888 0-.2178.1711-.3889.3889-.3889h8.20555c.17889-.8866.96445-1.5556 1.90555-1.5556s1.7267.669 1.9056 1.5556h1.20553c.21777 0 .38887.1711.38887.3889 0 .2177-.1711.3888-.38887.3888zm-7.00005-3.8889c-.17889.8866-.96445 1.5556-1.90555 1.5556s-1.7267-.669-1.90557-1.5556h-1.20553c-.2178 0-.3889-.1711-.3889-.3888 0-.2178.1711-.3889.3889-.3889h1.20553c.17887-.8867.96447-1.5557 1.90557-1.5557s1.72666.669 1.90555 1.5557h8.20558c.21777 0 .38887.1711.38887.3889 0 .2177-.1711.3888-.38887.3888zm-1.90555.7778c.64555 0 1.16666-.5212 1.16666-1.1666 0-.6456-.52111-1.1666-1.16666-1.1666-.64556 0-1.1667.521-1.1667 1.1666 0 .6454.52114 1.1666 1.1667 1.1666zm7 3.8888c.6456 0 1.1667-.521 1.1667-1.1665s-.5211-1.1667-1.1667-1.1667c-.64554 0-1.16666.5212-1.16666 1.1667s.52112 1.1665 1.16666 1.1665zm-4.66667 3.889c.64557 0 1.16667-.521 1.16667-1.1666s-.5211-1.1667-1.16667-1.1667c-.64553 0-1.16667.5211-1.16667 1.1667s.52114 1.1666 1.16667 1.1666z" fill="#5c76a2"/></svg>