<svg height="24.75" viewBox="-746.649 -2973.769 24.75 24.75" width="24.75" xmlns="http://www.w3.org/2000/svg"><path d="m-741.24785-2961.519c1.49765-3.856 5.82955-5.7666 9.67855-4.269 1.9595.7628 3.51315 2.3094 4.269 4.269.03495.084.03495.175 0 .252-1.4907 3.849-5.8296 5.7664-9.6786 4.2688-1.9595-.7628-3.5061-2.3094-4.26895-4.2688-.03499-.084-.03499-.175 0-.252zm4.52785 3.87c3.45015 1.3366 7.3272-.336 8.7198-3.744-.7068-1.7147-2.08544-3.0723-3.821-3.744-3.45015-1.337-7.3202.3357-8.7198 3.744.7068 1.7145 2.08545 3.072 3.821 3.744zm2.4494-.9448c-1.5466 0-2.7993-1.2527-2.7993-2.7992 0-1.5467 1.2527-2.7994 2.7993-2.7994s2.7993 1.2527 2.7993 2.7994c0 1.5465-1.2527 2.7992-2.7993 2.7992zm0-.6998c1.1617 0 2.0995-.9378 2.0995-2.0994 0-1.1618-.9378-2.0996-2.0995-2.0996s-2.0995.9378-2.0995 2.0996c0 1.1616.9378 2.0994 2.0995 2.0994z" fill="#5c76a1"/></svg>