<?xml version="1.0" encoding="UTF-8" standalone="no"?>
<!DOCTYPE svg PUBLIC "-//W3C//DTD SVG 1.1//EN" "http://www.w3.org/Graphics/SVG/1.1/DTD/svg11.dtd">
<svg xmlns="http://www.w3.org/2000/svg" xmlns:dc="http://purl.org/dc/elements/1.1/" version="1.1" xmlns:xl="http://www.w3.org/1999/xlink" viewBox="-782.6491 -2973.7685 24.75 24.75" width="24.75" height="24.75">
  <defs/>
  <g id="SOURCES" fill="none" stroke="none" stroke-dasharray="none" fill-opacity="1" stroke-opacity="1">
    <title>SOURCES</title>
    <g id="SOURCES_Light">
      <title>Light</title>
      <g id="Group_12732">
        <g id="Group_9826">
          <title>exclamation-triangle</title>
          <g id="Graphic_9827">
            <path d="M -770.2741 -2954.3935 C -774.1408 -2954.3935 -777.2741 -2957.527 -777.2741 -2961.3935 C -777.2741 -2965.2602 -774.1408 -2968.3935 -770.2741 -2968.3935 C -766.4074 -2968.3935 -763.2741 -2965.2602 -763.2741 -2961.3935 C -763.2741 -2957.527 -766.4074 -2954.3935 -770.2741 -2954.3935 Z M -770.2741 -2955.0602 C -766.7741 -2955.0602 -763.9408 -2957.8935 -763.9408 -2961.3935 C -763.9408 -2964.8935 -766.7741 -2967.727 -770.2741 -2967.727 C -773.7741 -2967.727 -776.6074 -2964.8935 -776.6074 -2961.3935 C -776.6074 -2957.8935 -773.7741 -2955.0602 -770.2741 -2955.0602 Z M -769.9408 -2961.3935 C -769.9408 -2961.207 -770.0874 -2961.0602 -770.2741 -2961.0602 C -770.4608 -2961.0602 -770.6074 -2961.207 -770.6074 -2961.3935 L -770.6074 -2964.0602 C -770.6074 -2964.247 -770.4608 -2964.3935 -770.2741 -2964.3935 C -770.0874 -2964.3935 -769.9408 -2964.247 -769.9408 -2964.0602 Z M -770.6074 -2959.727 L -769.9408 -2959.727 L -769.9408 -2959.0602 L -770.6074 -2959.0602 Z" fill="#9f4c4d"/>
          </g>
        </g>
        <g id="Graphic_12708"/>
      </g>
    </g>
  </g>
</svg>
