<svg height="24.75" viewBox="-674.649 -2973.769 24.75 24.75" width="24.75" xmlns="http://www.w3.org/2000/svg"><path d="M-662.974-2956.494h1.4v-1.4h-1.4zm-.7 0v-1.4h-3.85a1.75 1.75 0 0 1-1.75-1.75v-5.6c0-.965.784-1.75 1.75-1.75h10.5c.966 0 1.75.785 1.75 1.75v5.6a1.75 1.75 0 0 1-1.75 1.75h-3.85v1.4h1.05c.196 0 .35.155.35.35s-.154.35-.35.35h-4.9c-.196 0-.35-.154-.35-.35s.154-.35.35-.35zm-3.85-9.8c-.581 0-1.05.47-1.05 1.05v5.6c0 .581.469 1.05 1.05 1.05h10.5c.58 0 1.05-.468 1.05-1.05v-5.6c0-.58-.47-1.05-1.05-1.05z" fill="#5c76a2"/></svg>