<svg height="24.75" viewBox="-782.649 -2973.769 24.75 24.75" width="24.75" xmlns="http://www.w3.org/2000/svg"><path d="m-770.2741-2954.3935c-3.8667 0-7-3.1335-7-7 0-3.8667 3.1333-7 7-7s7 3.1333 7 7c0 3.8665-3.1333 7-7 7zm0-.6667c3.5 0 6.3333-2.8333 6.3333-6.3333s-2.8333-6.3335-6.3333-6.3335-6.3333 2.8335-6.3333 6.3335 2.8333 6.3333 6.3333 6.3333zm.3333-6.3333c0 .1865-.1466.3333-.3333.3333s-.3333-.1468-.3333-.3333v-2.6667c0-.1868.1466-.3333.3333-.3333s.3333.1465.3333.3333zm-.6666 1.6665h.6666v.6668h-.6666z" fill="#9f4c4d"/></svg>