<?xml version="1.0" encoding="UTF-8" standalone="no"?>
<!DOCTYPE svg PUBLIC "-//W3C//DTD SVG 1.1//EN" "http://www.w3.org/Graphics/SVG/1.1/DTD/svg11.dtd">
<svg xmlns="http://www.w3.org/2000/svg" xmlns:dc="http://purl.org/dc/elements/1.1/" version="1.1" xmlns:xl="http://www.w3.org/1999/xlink" viewBox="-386.6491 -2973.7685 24.75 24.75" width="24.75" height="24.75">
  <defs/>
  <g id="SOURCES" fill="none" stroke="none" stroke-dasharray="none" fill-opacity="1" stroke-opacity="1">
    <title>SOURCES</title>
    <g id="SOURCES_Light">
      <title>Light</title>
      <g id="Group_12722">
        <g id="Graphic_10430">
          <path d="M -369.60743 -2964.5047 L -367.663 -2964.5047 C -367.4482 -2964.5047 -367.2741 -2964.3305 -367.2741 -2964.1158 C -367.2741 -2963.901 -367.4482 -2963.727 -367.663 -2963.727 L -369.60743 -2963.727 L -369.60743 -2961.7824 C -369.60743 -2961.5677 -369.78154 -2961.3935 -369.9963 -2961.3935 C -370.2111 -2961.3935 -370.3852 -2961.5677 -370.3852 -2961.7824 L -370.3852 -2963.727 L -372.32965 -2963.727 C -372.54443 -2963.727 -372.71854 -2963.901 -372.71854 -2964.1158 C -372.71854 -2964.3305 -372.54443 -2964.5047 -372.32965 -2964.5047 L -370.3852 -2964.5047 L -370.3852 -2966.449 C -370.3852 -2966.664 -370.2111 -2966.838 -369.9963 -2966.838 C -369.78154 -2966.838 -369.60743 -2966.664 -369.60743 -2966.449 Z M -374.663 -2964.5047 C -374.4482 -2964.5047 -374.2741 -2964.3305 -374.2741 -2964.1158 C -374.2741 -2963.901 -374.4482 -2963.727 -374.663 -2963.727 L -380.8852 -2963.727 C -381.1 -2963.727 -381.2741 -2963.901 -381.2741 -2964.1158 C -381.2741 -2964.3305 -381.1 -2964.5047 -380.8852 -2964.5047 Z M -372.32965 -2960.6158 C -372.11487 -2960.6158 -371.94076 -2960.4417 -371.94076 -2960.227 C -371.94076 -2960.012 -372.11487 -2959.838 -372.32965 -2959.838 L -380.8852 -2959.838 C -381.1 -2959.838 -381.2741 -2960.012 -381.2741 -2960.227 C -381.2741 -2960.4417 -381.1 -2960.6158 -380.8852 -2960.6158 Z M -367.663 -2956.727 C -367.4482 -2956.727 -367.2741 -2956.5528 -367.2741 -2956.338 C -367.2741 -2956.1232 -367.4482 -2955.949 -367.663 -2955.949 L -380.8852 -2955.949 C -381.1 -2955.949 -381.2741 -2956.1232 -381.2741 -2956.338 C -381.2741 -2956.5528 -381.1 -2956.727 -380.8852 -2956.727 Z" fill="#5c76a1"/>
        </g>
        <g id="Graphic_12719"/>
      </g>
    </g>
  </g>
</svg>
