<svg xmlns="http://www.w3.org/2000/svg" viewBox="-602.649 -2973.769 24.75 24.75"><path d="M-597.274-2965.671a.78.78 0 0 1 .778-.778h.777a.78.78 0 0 1 .778.778v.777a.78.78 0 0 1-.778.778h-.777a.78.78 0 0 1-.778-.778zm4.278.777a.385.385 0 0 1-.39-.388c0-.218.172-.39.39-.39h9.333c.218 0 .389.172.389.39a.385.385 0 0 1-.389.389zm-4.278 3.112a.78.78 0 0 1 .778-.778h.777a.78.78 0 0 1 .778.778v.777a.78.78 0 0 1-.778.778h-.777a.78.78 0 0 1-.778-.778zm4.278.777a.385.385 0 0 1-.39-.389c0-.217.172-.388.39-.388h9.333c.218 0 .389.17.389.389a.385.385 0 0 1-.389.388zm-4.278 3.111a.78.78 0 0 1 .778-.777h.777a.78.78 0 0 1 .778.777v.778a.78.78 0 0 1-.778.778h-.777a.78.78 0 0 1-.778-.778zm.778-7.777v.777h.777v-.777zm0 3.889v.777h.777v-.777zm0 3.889v.777h.777v-.778zm3.5.777a.385.385 0 0 1-.39-.389c0-.217.172-.389.39-.389h9.333c.218 0 .389.172.389.39a.385.385 0 0 1-.389.388z" fill="#5c76a2"/></svg>