<svg height="24.75" viewBox="-818.649 -2973.769 24.75 24.75" width="24.75" xmlns="http://www.w3.org/2000/svg"><path d="m-812.3501-2959.7275c.735 2.667 3.178 4.634 6.076 4.634 2.331 0 4.368-1.267 5.453-3.15l-2.303-2.303-1.855 1.855c-.14.14-.357.14-.497 0l-3.955-3.955-2.898 2.898s-.014.014-.021.021zm-.168-.819 2.849-2.849c.14-.14.357-.14.497 0l3.955 3.955 1.855-1.855c.14-.14.357-.14.497 0l2.387 2.387c.329-.763.511-1.61.511-2.492 0-3.479-2.821-6.3-6.3-6.3s-6.307 2.828-6.307 6.307c0 .287.021.574.056.847zm6.244 6.153c-3.864 0-7-3.136-7-7s3.136-7 7-7 7 3.136 7 7-3.136 7-7 7zm2.1-11.2h1.4c.385 0 .7.315.7.7v1.4c0 .385-.315.7-.7.7h-1.4c-.385 0-.7-.315-.7-.7v-1.4c0-.385.315-.7.7-.7zm0 .7v1.4h1.4v-1.4z" fill="#5c76a1"/></svg>