<svg height="24.75" viewBox="-602.649 -2973.769 24.75 24.75" width="24.75" xmlns="http://www.w3.org/2000/svg"><path d="m-597.2741-2965.6713c0-.4277.35-.7777.7778-.7777h.77776c.42778 0 .77778.35.77778.7777v.7778c0 .4277-.35.7777-.77778.7777h-.77776c-.4278 0-.7778-.35-.7778-.7777zm4.2778.7778c-.2178 0-.3889-.1712-.3889-.3889 0-.2178.1711-.3889.3889-.3889h9.3333c.2178 0 .3889.1711.3889.3889 0 .2177-.1711.3889-.3889.3889zm-4.2778 3.1111c0-.4278.35-.7778.7778-.7778h.77776c.42778 0 .77778.35.77778.7778v.7777c0 .4277-.35.7777-.77778.7777h-.77776c-.4278 0-.7778-.35-.7778-.7777zm4.2778.7777c-.2178 0-.3889-.1711-.3889-.3888 0-.2178.1711-.3889.3889-.3889h9.3333c.2178 0 .3889.1711.3889.3889 0 .2177-.1711.3888-.3889.3888zm-4.2778 3.1112c0-.4278.35-.7778.7778-.7778h.77776c.42778 0 .77778.35.77778.7778v.7777c0 .4278-.35.7778-.77778.7778h-.77776c-.4278 0-.7778-.35-.7778-.7778zm.7778-7.7778v.7778h.77776v-.7778zm0 3.8889v.7777h.77776v-.7777zm0 3.8889v.7777h.77776v-.7777zm3.5.7777c-.2178 0-.3889-.1712-.3889-.3889s.1711-.3888.3889-.3888h9.3333c.2178 0 .3889.1711.3889.3888s-.1711.3889-.3889.3889z" fill="#5c76a2"/></svg>