<svg height="24.75" viewBox="-638.649 -2973.769 24.75 24.75" width="24.75" xmlns="http://www.w3.org/2000/svg"><path d="m-631.5241-2966.2935c-.5799 0-1.05.4701-1.05 1.05v7.7c0 .5799.4701 1.05 1.05 1.05h10.5c.5799 0 1.05-.4701 1.05-1.05v-5.6c0-.5799-.4701-1.05-1.05-1.05h-3.85c-.7732 0-1.4-.6268-1.4-1.4 0-.3865-.3134-.7-.7-.7zm0-.7h4.55c.7732 0 1.4.6268 1.4 1.4 0 .3865.3134.7.7.7h3.85c.9665 0 1.75.7835 1.75 1.75v5.6c0 .9665-.7835 1.75-1.75 1.75h-10.5c-.9665 0-1.75-.7835-1.75-1.75v-7.7c0-.9665.7835-1.75 1.75-1.75z" fill="#5c76a1"/></svg>