<?xml version="1.0" encoding="UTF-8" standalone="no"?>
<!DOCTYPE svg PUBLIC "-//W3C//DTD SVG 1.1//EN" "http://www.w3.org/Graphics/SVG/1.1/DTD/svg11.dtd">
<svg xmlns="http://www.w3.org/2000/svg" xmlns:dc="http://purl.org/dc/elements/1.1/" version="1.1" xmlns:xl="http://www.w3.org/1999/xlink" viewBox="-530.6491 -2973.7685 24.75 24.75" width="24.75" height="24.75">
  <defs/>
  <g id="SOURCES" fill="none" stroke="none" stroke-dasharray="none" fill-opacity="1" stroke-opacity="1">
    <title>SOURCES</title>
    <g id="SOURCES_Light">
      <title>Light</title>
      <g id="Group_12724">
        <g id="Group_9832">
          <title>slider-circle-h</title>
          <g id="Graphic_9833">
            <path d="M -517.5352 -2957.1158 C -517.7141 -2956.229 -518.49965 -2955.5602 -519.44077 -2955.5602 C -520.3819 -2955.5602 -521.16744 -2956.229 -521.3463 -2957.1158 L -524.8852 -2957.1158 C -525.103 -2957.1158 -525.2741 -2957.287 -525.2741 -2957.5046 C -525.2741 -2957.7224 -525.103 -2957.8935 -524.8852 -2957.8935 L -521.3463 -2957.8935 C -521.16744 -2958.7802 -520.3819 -2959.449 -519.44077 -2959.449 C -518.49965 -2959.449 -517.7141 -2958.7802 -517.5352 -2957.8935 L -511.66297 -2957.8935 C -511.4452 -2957.8935 -511.2741 -2957.7224 -511.2741 -2957.5046 C -511.2741 -2957.287 -511.4452 -2957.1158 -511.66297 -2957.1158 L -517.5352 -2957.1158 Z M -512.8685 -2961.0047 C -513.0474 -2960.118 -513.833 -2959.449 -514.7741 -2959.449 C -515.7152 -2959.449 -516.50076 -2960.118 -516.67965 -2961.0047 L -524.8852 -2961.0047 C -525.103 -2961.0047 -525.2741 -2961.1758 -525.2741 -2961.3935 C -525.2741 -2961.6113 -525.103 -2961.7824 -524.8852 -2961.7824 L -516.67965 -2961.7824 C -516.50076 -2962.669 -515.7152 -2963.338 -514.7741 -2963.338 C -513.833 -2963.338 -513.0474 -2962.669 -512.8685 -2961.7824 L -511.66297 -2961.7824 C -511.4452 -2961.7824 -511.2741 -2961.6113 -511.2741 -2961.3935 C -511.2741 -2961.1758 -511.4452 -2961.0047 -511.66297 -2961.0047 Z M -519.86855 -2964.8936 C -520.04744 -2964.007 -520.833 -2963.338 -521.7741 -2963.338 C -522.7152 -2963.338 -523.5008 -2964.007 -523.67967 -2964.8936 L -524.8852 -2964.8936 C -525.103 -2964.8936 -525.2741 -2965.0647 -525.2741 -2965.2824 C -525.2741 -2965.5002 -525.103 -2965.6713 -524.8852 -2965.6713 L -523.67967 -2965.6713 C -523.5008 -2966.558 -522.7152 -2967.227 -521.7741 -2967.227 C -520.833 -2967.227 -520.04744 -2966.558 -519.86855 -2965.6713 L -511.66297 -2965.6713 C -511.4452 -2965.6713 -511.2741 -2965.5002 -511.2741 -2965.2824 C -511.2741 -2965.0647 -511.4452 -2964.8936 -511.66297 -2964.8936 Z M -521.7741 -2964.1158 C -521.12855 -2964.1158 -520.60744 -2964.637 -520.60744 -2965.2824 C -520.60744 -2965.928 -521.12855 -2966.449 -521.7741 -2966.449 C -522.41966 -2966.449 -522.9408 -2965.928 -522.9408 -2965.2824 C -522.9408 -2964.637 -522.41966 -2964.1158 -521.7741 -2964.1158 Z M -514.7741 -2960.227 C -514.1285 -2960.227 -513.6074 -2960.748 -513.6074 -2961.3935 C -513.6074 -2962.039 -514.1285 -2962.5602 -514.7741 -2962.5602 C -515.41964 -2962.5602 -515.94076 -2962.039 -515.94076 -2961.3935 C -515.94076 -2960.748 -515.41964 -2960.227 -514.7741 -2960.227 Z M -519.44077 -2956.338 C -518.7952 -2956.338 -518.2741 -2956.859 -518.2741 -2957.5046 C -518.2741 -2958.1502 -518.7952 -2958.6713 -519.44077 -2958.6713 C -520.0863 -2958.6713 -520.60744 -2958.1502 -520.60744 -2957.5046 C -520.60744 -2956.859 -520.0863 -2956.338 -519.44077 -2956.338 Z" fill="#5c76a2"/>
          </g>
        </g>
        <g id="Graphic_12715"/>
      </g>
    </g>
  </g>
</svg>
