<svg viewBox="-530.649 -2973.769 24.75 24.75" xmlns="http://www.w3.org/2000/svg"><path d="M-517.535-2957.116a1.945 1.945 0 0 1-3.811 0h-3.54a.385.385 0 0 1-.388-.389c0-.217.171-.389.389-.389h3.539a1.944 1.944 0 0 1 3.81 0h5.873c.218 0 .389.172.389.39a.385.385 0 0 1-.389.388zm4.666-3.889a1.945 1.945 0 0 1-3.81 0h-8.206a.385.385 0 0 1-.39-.389c0-.217.172-.388.39-.388h8.205a1.945 1.945 0 0 1 3.811 0h1.206c.218 0 .389.17.389.389a.385.385 0 0 1-.389.388zm-7-3.889a1.945 1.945 0 0 1-3.81 0h-1.206a.385.385 0 0 1-.39-.388c0-.218.172-.39.39-.39h1.205a1.945 1.945 0 0 1 3.811 0h8.206c.218 0 .389.172.389.39a.385.385 0 0 1-.389.388zm-1.905.778a1.166 1.166 0 1 0 0-2.333c-.646 0-1.167.521-1.167 1.167 0 .645.521 1.166 1.167 1.166zm7 3.889a1.166 1.166 0 1 0 0-2.333 1.165 1.165 0 1 0 0 2.333zm-4.667 3.889c.646 0 1.167-.521 1.167-1.167 0-.645-.521-1.166-1.167-1.166-.645 0-1.166.52-1.166 1.166s.52 1.167 1.166 1.167z" fill="#5c76a2"/></svg>