<svg height="24.75" viewBox="-386.649 -2973.769 24.75 24.75" width="24.75" xmlns="http://www.w3.org/2000/svg"><path d="m-369.60743-2964.5047h1.94443c.2148 0 .3889.1742.3889.3889 0 .2148-.1741.3888-.3889.3888h-1.94443v1.9446c0 .2147-.17411.3889-.38887.3889-.2148 0-.3889-.1742-.3889-.3889v-1.9446h-1.94445c-.21478 0-.38889-.174-.38889-.3888 0-.2147.17411-.3889.38889-.3889h1.94445v-1.9443c0-.215.1741-.389.3889-.389.21476 0 .38887.174.38887.389zm-5.05557 0c.2148 0 .3889.1742.3889.3889 0 .2148-.1741.3888-.3889.3888h-6.2222c-.2148 0-.3889-.174-.3889-.3888 0-.2147.1741-.3889.3889-.3889zm2.33335 3.8889c.21478 0 .38889.1741.38889.3888 0 .215-.17411.389-.38889.389h-8.55555c-.2148 0-.3889-.174-.3889-.389 0-.2147.1741-.3888.3889-.3888zm4.66665 3.8888c.2148 0 .3889.1742.3889.389s-.1741.389-.3889.389h-13.2222c-.2148 0-.3889-.1742-.3889-.389s.1741-.389.3889-.389z" fill="#5c76a1"/></svg>