<svg viewBox="-746.649 -2973.769 24.75 24.75" xmlns="http://www.w3.org/2000/svg"><path d="m-741.248-2961.519c1.498-3.856 5.83-5.767 9.679-4.269a7.476 7.476 0 0 1 4.269 4.269.316.316 0 0 1 0 .252c-1.491 3.849-5.83 5.766-9.679 4.269a7.496 7.496 0 0 1 -4.269-4.269.315.315 0 0 1 0-.252zm4.528 3.87c3.45 1.337 7.327-.336 8.72-3.744a6.786 6.786 0 0 0 -3.821-3.744 6.776 6.776 0 0 0 -8.72 3.744 6.788 6.788 0 0 0 3.821 3.744zm2.45-.945a2.799 2.799 0 1 1 0-5.598 2.799 2.799 0 1 1 0 5.598zm0-.7a2.096 2.096 0 0 0 2.099-2.099c0-1.162-.938-2.1-2.1-2.1-1.161 0-2.1.938-2.1 2.1s.939 2.1 2.1 2.1z" fill="#5c76a1"/></svg>