<svg xmlns="http://www.w3.org/2000/svg" viewBox="-566.649 -2973.769 24.75 24.75"><path d="m-549.696-2958.236-2.422-1.1a3.501 3.501 0 0 0-2.156-6.258 3.501 3.501 0 0 0-2.156 6.258l-2.422 1.1a1.785 1.785 0 0 0-.595.44 6.265 6.265 0 0 1-1.134-3.605 6.31 6.31 0 0 1 6.307-6.293 6.3 6.3 0 0 1 6.3 6.3c0 1.337-.42 2.583-1.127 3.605a1.695 1.695 0 0 0-.595-.44m-7.378-3.865a2.8 2.8 0 1 1 5.6 0 2.8 2.8 0 1 1-5.6 0m2.8 7a6.3 6.3 0 0 1-4.725-2.128.994.994 0 0 1 .44-.37l2.857-1.302c.434.195.917.3 1.428.3.51 0 .994-.104 1.428-.3l2.856 1.301c.182.084.329.21.44.371a6.276 6.276 0 0 1-4.724 2.129m0-13.3c-3.864 0-7 3.135-7 7 0 3.863 3.136 7 7 7s7-3.137 7-7c0-3.865-3.136-7-7-7" fill="#5c76a2"/></svg>