<svg height="24.75" viewBox="-710.649 -2973.769 24.75 24.75" width="24.75" xmlns="http://www.w3.org/2000/svg"><path d="m-702.6209-2959.266c.091-.028.189-.014.273.035.7.413 1.4909.637 2.3239.637 2.5129 0 4.54975-2.0368 4.54975-4.5496 0-2.5129-2.03685-4.5498-4.54975-4.5498s-4.5498 2.0369-4.5498 4.5498c0 .8259.224 1.6239.637 2.3238.049.084.063.182.035.273l-.511 1.7918zm7.6226-5.4036c2.1909.665 3.7238 2.6949 3.7238 5.0258 0 .9028-.23096 1.7778-.6579 2.5478l.6439 2.254c.077.266-.168.511-.43395.434l-2.25385-.644c-.77.427-1.6449.658-2.5479.658-2.3309 0-4.36076-1.533-5.0257-3.724-.357-.105-.7-.252-1.022-.434l-2.25385.644c-.26595.077-.51095-.168-.43395-.434l.6439-2.2538c-.4269-.7699-.6579-1.6449-.6579-2.5478 0-2.8979 2.35185-5.2498 5.2497-5.2498 2.3659 0 4.3748 1.568 5.0257 3.7238zm.175.805c.035.238.049.476.049.721 0 2.8978-2.35186 5.2496-5.2497 5.2496-.245 0-.483-.014-.721-.049.686 1.694 2.3379 2.849 4.2208 2.849.826 0 1.6239-.224 2.3239-.637.084-.049.182-.063.273-.035l1.7919.511-.511-1.792c-.028-.091-.014-.189.035-.273.413-.7.637-1.491.637-2.3238 0-1.8829-1.155-3.5418-2.8489-4.2208z" fill="#5c76a2"/></svg>