<?xml version="1.0" encoding="UTF-8" standalone="no"?>
<!DOCTYPE svg PUBLIC "-//W3C//DTD SVG 1.1//EN" "http://www.w3.org/Graphics/SVG/1.1/DTD/svg11.dtd">
<svg xmlns="http://www.w3.org/2000/svg" xmlns:dc="http://purl.org/dc/elements/1.1/" version="1.1" xmlns:xl="http://www.w3.org/1999/xlink" viewBox="-890.6491 -2973.7685 24.75 24.75" width="24.75" height="24.75">
  <defs/>
  <g id="SOURCES" fill="none" stroke="none" stroke-dasharray="none" fill-opacity="1" stroke-opacity="1">
    <title>SOURCES</title>
    <g id="SOURCES_Light">
      <title>Light</title>
      <g id="Group_12735">
        <g id="Group_9813">
          <title>table</title>
          <g id="Graphic_9814">
            <path d="M -875.9408 -2959.838 L -875.9408 -2962.949 L -880.6074 -2962.949 L -880.6074 -2959.838 Z M -875.9408 -2959.0602 L -880.6074 -2959.0602 L -880.6074 -2955.949 L -875.9408 -2955.949 Z M -884.4963 -2959.838 L -881.3852 -2959.838 L -881.3852 -2962.949 L -884.4963 -2962.949 Z M -884.4963 -2959.0602 L -884.4963 -2957.1158 C -884.4963 -2956.4702 -883.9752 -2955.949 -883.3297 -2955.949 L -881.3852 -2955.949 L -881.3852 -2959.0602 Z M -872.0519 -2959.838 L -872.0519 -2962.949 L -875.163 -2962.949 L -875.163 -2959.838 Z M -872.0519 -2959.0602 L -875.163 -2959.0602 L -875.163 -2955.949 L -873.2185 -2955.949 C -872.573 -2955.949 -872.0519 -2956.4702 -872.0519 -2957.1158 Z M -875.9408 -2963.727 L -875.9408 -2966.838 L -880.6074 -2966.838 L -880.6074 -2963.727 Z M -884.4963 -2963.727 L -881.3852 -2963.727 L -881.3852 -2966.838 L -883.3297 -2966.838 C -883.9752 -2966.838 -884.4963 -2966.317 -884.4963 -2965.6713 Z M -872.0519 -2963.727 L -872.0519 -2965.6713 C -872.0519 -2966.317 -872.573 -2966.838 -873.2185 -2966.838 L -875.163 -2966.838 L -875.163 -2963.727 Z M -883.3297 -2967.6158 L -873.2185 -2967.6158 C -872.1452 -2967.6158 -871.2741 -2966.7447 -871.2741 -2965.6713 L -871.2741 -2957.1158 C -871.2741 -2956.0424 -872.1452 -2955.1713 -873.2185 -2955.1713 L -883.3297 -2955.1713 C -884.403 -2955.1713 -885.2741 -2956.0424 -885.2741 -2957.1158 L -885.2741 -2965.6713 C -885.2741 -2966.7447 -884.403 -2967.6158 -883.3297 -2967.6158 Z" fill="#5c76a1"/>
          </g>
        </g>
        <g id="Graphic_12705"/>
      </g>
    </g>
  </g>
</svg>
