<?xml version="1.0" encoding="UTF-8" standalone="no"?>
<!DOCTYPE svg PUBLIC "-//W3C//DTD SVG 1.1//EN" "http://www.w3.org/Graphics/SVG/1.1/DTD/svg11.dtd">
<svg xmlns="http://www.w3.org/2000/svg" xmlns:dc="http://purl.org/dc/elements/1.1/" version="1.1" xmlns:xl="http://www.w3.org/1999/xlink" viewBox="-710.6491 -2973.7685 24.75 24.75" width="24.75" height="24.75">
  <defs/>
  <g id="SOURCES" fill="none" stroke="none" stroke-dasharray="none" fill-opacity="1" stroke-opacity="1">
    <title>SOURCES</title>
    <g id="SOURCES_Light">
      <title>Light</title>
      <g id="Group_12730">
        <g id="Group_9817">
          <title>chat</title>
          <g id="Graphic_9818">
            <path d="M -702.6209 -2959.266 C -702.5299 -2959.294 -702.4319 -2959.28 -702.3479 -2959.231 C -701.6479 -2958.818 -700.857 -2958.594 -700.024 -2958.594 C -697.5111 -2958.594 -695.47425 -2960.6308 -695.47425 -2963.1436 C -695.47425 -2965.6565 -697.5111 -2967.6934 -700.024 -2967.6934 C -702.5369 -2967.6934 -704.5738 -2965.6565 -704.5738 -2963.1436 C -704.5738 -2962.3177 -704.3498 -2961.5197 -703.9368 -2960.8198 C -703.8878 -2960.7358 -703.8738 -2960.6378 -703.9018 -2960.5468 L -704.4128 -2958.755 Z M -694.9983 -2964.6696 C -692.8074 -2964.0046 -691.2745 -2961.9747 -691.2745 -2959.6438 C -691.2745 -2958.741 -691.50546 -2957.866 -691.9324 -2957.096 L -691.2885 -2954.842 C -691.2115 -2954.576 -691.4565 -2954.331 -691.72245 -2954.408 L -693.9763 -2955.052 C -694.7463 -2954.625 -695.6212 -2954.394 -696.5242 -2954.394 C -698.8551 -2954.394 -700.88496 -2955.927 -701.5499 -2958.118 C -701.9069 -2958.223 -702.2499 -2958.37 -702.5719 -2958.552 L -704.82575 -2957.908 C -705.0917 -2957.831 -705.3367 -2958.076 -705.2597 -2958.342 L -704.6158 -2960.5958 C -705.0427 -2961.3657 -705.2737 -2962.2407 -705.2737 -2963.1436 C -705.2737 -2966.0415 -702.92185 -2968.3934 -700.024 -2968.3934 C -697.6581 -2968.3934 -695.6492 -2966.8254 -694.9983 -2964.6696 Z M -694.8233 -2963.8646 C -694.7883 -2963.6266 -694.7743 -2963.3886 -694.7743 -2963.1436 C -694.7743 -2960.2458 -697.12616 -2957.894 -700.024 -2957.894 C -700.269 -2957.894 -700.507 -2957.908 -700.745 -2957.943 C -700.059 -2956.249 -698.4071 -2955.094 -696.5242 -2955.094 C -695.6982 -2955.094 -694.9003 -2955.318 -694.2003 -2955.731 C -694.1163 -2955.78 -694.0183 -2955.794 -693.9273 -2955.766 L -692.1354 -2955.255 L -692.6464 -2957.047 C -692.6744 -2957.138 -692.6604 -2957.236 -692.6114 -2957.32 C -692.1984 -2958.02 -691.9744 -2958.811 -691.9744 -2959.6438 C -691.9744 -2961.5267 -693.1294 -2963.1856 -694.8233 -2963.8646 Z" fill="#5c76a2"/>
          </g>
        </g>
        <g id="Graphic_12710"/>
      </g>
    </g>
  </g>
</svg>
