<svg height="24.75" viewBox="-422.649 -2973.769 24.75 24.75" width="24.75" xmlns="http://www.w3.org/2000/svg"><path d="m-408.89626-2960.2207c-.017.0454-.04378.0881-.08034.1247-.0366.0365-.0792.0633-.1247.0803l-3.4928 1.3971c-.2857.1143-.56925-.1692-.45496-.4549l1.39712-3.4928c.017-.0455.04379-.0882.08034-.1247.0366-.0366.07923-.0634.1247-.0804l3.4928-1.3971c.28573-.1143.56925.1692.45497.4549zm-1.80504-2.095 1.34937 1.3493.89956-2.2489zm.8544 1.8443-1.34936-1.3493-.89957 2.2489zm-.4272 6.0779c-3.866 0-7-3.134-7-7s3.134-7 7-7 7 3.134 7 7-3.134 7-7 7zm0-.7c3.4794 0 6.3-2.8205 6.3-6.3s-2.8206-6.3-6.3-6.3-6.3 2.8205-6.3 6.3 2.8206 6.3 6.3 6.3z" fill="#5c76a1"/></svg>