<svg height="24.75" viewBox="-566.649 -2973.769 24.75 24.75" width="24.75" xmlns="http://www.w3.org/2000/svg"><path d="m-549.6961-2958.2365-2.422-1.099c.819-.637 1.344-1.638 1.344-2.758 0-1.932-1.568-3.5-3.5-3.5s-3.5 1.568-3.5 3.5c0 1.12.525 2.121 1.344 2.758l-2.422 1.099c-.231.105-.434.259-.595.441-.714-1.022-1.134-2.261-1.134-3.605.007-3.472 2.828-6.293 6.307-6.293s6.3 2.821 6.3 6.3c0 1.337-.42 2.583-1.127 3.605-.161-.189-.364-.336-.595-.441m-7.378-3.864c0-1.547 1.253-2.8 2.8-2.8s2.8 1.253 2.8 2.8-1.253 2.8-2.8 2.8-2.8-1.253-2.8-2.8m2.8 7c-1.883 0-3.57-.826-4.725-2.128.105-.161.259-.294.441-.371l2.856-1.302c.434.196.917.301 1.428.301s.994-.105 1.428-.301l2.856 1.302c.182.084.329.21.441.371-1.155 1.309-2.842 2.128-4.725 2.128m0-13.3c-3.864 0-7 3.136-7 7s3.136 7 7 7 7-3.136 7-7-3.136-7-7-7" fill="#5c76a2"/></svg>