<svg height="24.75" viewBox="-854.649 -2973.769 24.75 24.75" width="24.75" xmlns="http://www.w3.org/2000/svg"><path d="m-845.1575-2955.7947c.0777-.0156.1555 0 .2332.0311.8243.3886 1.7263.5909 2.6595.5909 3.437 0 6.2209-2.7838 6.2209-6.2208 0-3.4371-2.7917-6.2209-6.2287-6.2209s-6.2209 2.7838-6.2209 6.2209c0 1.3295.4199 2.5895 1.1742 3.6392.0855.1166.0933.2643.0389.3888l-.9487 2.0762 3.0638-.5132zm-3.6626 1.3919c-.311.0544-.5443-.2644-.4199-.5442l1.1586-2.535c-.7698-1.1432-1.1897-2.4963-1.1897-3.9115 0-3.8648 3.1338-6.9985 6.9985-6.9985s6.9985 3.1337 6.9985 6.9985c0 3.8647-3.1338 6.9985-6.9985 6.9985-1.0031 0-1.9829-.21-2.8772-.6144l-3.6703.6144z" fill="#5c76a1"/></svg>