<svg xmlns="http://www.w3.org/2000/svg" viewBox="-710.649 -2973.769 24.75 24.75"><path d="M-702.62-2959.266a.341.341 0 0 1 .272.035 4.55 4.55 0 1 0-1.589-1.589.341.341 0 0 1 .035.273l-.51 1.792zm7.622-5.404a5.255 5.255 0 0 1 3.066 7.574l.644 2.254a.35.35 0 0 1-.434.434l-2.254-.644a5.255 5.255 0 0 1-7.574-3.066 4.876 4.876 0 0 1-1.022-.434l-2.254.644a.35.35 0 0 1-.434-.434l.644-2.254a5.252 5.252 0 1 1 9.618-4.074zm.175.805a5.252 5.252 0 0 1-5.922 5.922 4.557 4.557 0 0 0 6.545 2.212.341.341 0 0 1 .273-.035l1.792.511-.511-1.792a.341.341 0 0 1 .035-.273 4.55 4.55 0 0 0-2.212-6.545z" fill="#5c76a2"/></svg>