<svg height="24.75" viewBox="-890.649 -2973.769 24.75 24.75" width="24.75" xmlns="http://www.w3.org/2000/svg"><path d="m-875.9408-2959.838v-3.111h-4.6666v3.111zm0 .7778h-4.6666v3.1112h4.6666zm-8.5555-.7778h3.1111v-3.111h-3.1111zm0 .7778v1.9444c0 .6456.5211 1.1668 1.1666 1.1668h1.9445v-3.1112zm12.4444-.7778v-3.111h-3.1111v3.111zm0 .7778h-3.1111v3.1112h1.9445c.6455 0 1.1666-.5212 1.1666-1.1668zm-3.8889-4.6668v-3.111h-4.6666v3.111zm-8.5555 0h3.1111v-3.111h-1.9445c-.6455 0-1.1666.521-1.1666 1.1667zm12.4444 0v-1.9443c0-.6457-.5211-1.1667-1.1666-1.1667h-1.9445v3.111zm-11.2778-3.8888h10.1112c1.0733 0 1.9444.8711 1.9444 1.9445v8.5555c0 1.0734-.8711 1.9445-1.9444 1.9445h-10.1112c-1.0733 0-1.9444-.8711-1.9444-1.9445v-8.5555c0-1.0734.8711-1.9445 1.9444-1.9445z" fill="#5c76a1"/></svg>