<?xml version="1.0" encoding="UTF-8" standalone="no"?>
<!DOCTYPE svg PUBLIC "-//W3C//DTD SVG 1.1//EN" "http://www.w3.org/Graphics/SVG/1.1/DTD/svg11.dtd">
<svg xmlns="http://www.w3.org/2000/svg" xmlns:xl="http://www.w3.org/1999/xlink" version="1.1" xmlns:dc="http://purl.org/dc/elements/1.1/" viewBox="-557.2909 -3405.414 17.320328 17.26394" width="17.320328" height="17.26394">
  <defs/>
  <g id="SOURCES" stroke-opacity="1" fill="none" stroke="none" fill-opacity="1" stroke-dasharray="none">
    <title>SOURCES</title>
    <g id="SOURCES_Dark">
      <title>Dark</title>
      <g id="Graphic_10871">
        <path d="M -552.57 -3395.2575 C -556.1636 -3395.6906 -558.12106 -3399.782 -556.1064 -3402.8155 C -553.2242 -3407.1586 -546.6506 -3404.6727 -547.0507 -3399.3845 C -547.2082 -3397.291 -548.7071 -3396.13 -549.0806 -3394.2374 C -549.9558 -3389.8055 -544.4098 -3387.6765 -541.9303 -3391.3095 C -540.2446 -3393.78 -542.01284 -3397.2505 -544.9802 -3397.464 C -545.3625 -3397.4906 -546.03576 -3397.2924 -546.1539 -3397.789 C -546.2873 -3398.3493 -545.6636 -3398.3836 -545.27615 -3398.3823 C -541.58476 -3398.367 -539.1789 -3394.3784 -540.92803 -3391.133 C -543.41394 -3386.518 -550.502 -3388.416 -550.0676 -3393.7916 C -549.8402 -3396.6027 -547.14724 -3398.0685 -548.1152 -3401.1883 C -549.1924 -3404.656 -553.6815 -3405.22 -555.46874 -3402.0762 C -556.8813 -3399.5916 -555.2109 -3396.4502 -552.3769 -3396.1593 C -552.58016 -3396.576 -553.0019 -3396.947 -553.2204 -3397.3432 C -553.4897 -3397.831 -552.9104 -3398.367 -552.4366 -3397.8475 C -551.9209 -3397.281 -551.5017 -3396.524 -550.9695 -3395.9536 C -550.83736 -3395.7147 -550.9009 -3395.4658 -551.0482 -3395.25 C -551.7329 -3394.8548 -552.415 -3394.0685 -553.0857 -3393.7026 C -553.4706 -3393.493 -553.9546 -3393.8373 -553.7488 -3394.2666 C -553.60654 -3394.564 -552.5776 -3395.1812 -552.56746 -3395.2575 Z" fill="#c0e0ff"/>
      </g>
    </g>
  </g>
</svg>
