<svg height="24.75" viewBox="-886.872 -3408.886 24.75 24.75" width="24.75" xmlns="http://www.w3.org/2000/svg"><path d="m-870.0525-3390.96c1.665-1.333 2.6666-3.3568 2.6666-5.5516 0-3.7634-2.9326-6.8694-6.6707-7.0977-.245-.0149-.4315-.2257-.4165-.4707s.2257-.4315.4707-.4165c4.2064.2567 7.5054 3.7509 7.5054 7.9849 0 2.456-1.1156 4.7226-2.9708 6.2223h2.5264c.2455 0 .4444.1989.4444.4443 0 .2456-.1989.4445-.4444.4445h-3.5556c-.2454 0-.4444-.1989-.4444-.4445v-3.5555c0-.2455.199-.4445.4444-.4445.2455 0 .4445.199.4445.4445zm-8.8889-11.1033c-1.6649 1.3333-2.6667 3.3568-2.6667 5.5517 0 3.7756 2.9508 6.8876 6.703 7.0996.245.014.4325.2238.4186.469-.0138.245-.2237.4324-.4688.4185-4.2222-.2385-7.5417-3.7395-7.5417-7.9871 0-2.4561 1.1158-4.7224 2.9709-6.2222h-2.5264c-.2455 0-.4445-.199-.4445-.4444 0-.2455.199-.4445.4445-.4445h3.5555c.2455 0 .4445.199.4445.4445v3.5555c0 .2455-.199.4445-.4445.4445-.2454 0-.4444-.199-.4444-.4445z" fill="#8eed62"/></svg>