<svg height="24.75" viewBox="-742.872 -3408.886 24.75 24.75" width="24.75" xmlns="http://www.w3.org/2000/svg"><path d="M-737.526-3395.437a7.111 7.111 0 0 0 12.957 2.857.444.444 0 0 1 .74.49 8 8 0 0 1-14.57-3.176l-1.263 2.188a.445.445 0 1 1-.77-.444l1.778-3.08a.444.444 0 0 1 .607-.162l3.079 1.778a.444.444 0 1 1-.445.77zm14.06-2.146a7.112 7.112 0 0 0-12.975-2.83.445.445 0 0 1-.743-.488 8 8 0 0 1 14.591 3.147l1.263-2.188a.444.444 0 1 1 .77.444l-1.778 3.08a.444.444 0 0 1-.607.162l-3.079-1.778a.445.445 0 0 1 .444-.77z" fill="#8eed62"/></svg>