<svg height="24.75" viewBox="-850.872 -3408.886 24.75 24.75" width="24.75" xmlns="http://www.w3.org/2000/svg"><path d="m-837.4233-3389.4812c2.1086-.3222 3.9878-1.5738 5.0852-3.4748 1.8818-3.259.895-7.4154-2.2281-9.482-.2047-.1355-.2608-.4112-.1254-.616.1355-.2046.4112-.2608.6159-.1253 3.5144 2.3255 4.6245 7.0011 2.5074 10.6679-1.2279 2.1269-3.3273 3.5319-5.6839 3.9031l2.1879 1.2633c.2126.1227.2854.3945.1627.607-.1227.2127-.3945.2855-.6071.1628l-3.0792-1.7778c-.2126-.1228-.2854-.3946-.1627-.607l1.7778-3.0794c.1227-.2126.3945-.2854.6071-.1626.2126.1227.2854.3945.1627.607zm-2.1463-14.0604c-2.1084.3221-3.9878 1.5736-5.0853 3.4746-1.8877 3.2696-.8883 7.44 2.2552 9.5.2053.1345.2626.41.1281.6153s-.41.2627-.6153.1281c-3.5372-2.3178-4.6615-7.0094-2.5378-10.6878 1.2281-2.1271 3.3276-3.532 5.684-3.9032l-2.188-1.2634c-.2125-.1226-.2854-.3944-.1626-.607.1227-.2125.3945-.2854.6071-.1626l3.0792 1.7776c.2126.123.2854.3947.1627.6073l-1.7778 3.0792c-.1227.2125-.3946.2855-.6071.1625-.2126-.1226-.2854-.3944-.1627-.607z" fill="#8eed62"/></svg>