<svg height="24.75" viewBox="-778.872 -3408.886 24.75 24.75" width="24.75" xmlns="http://www.w3.org/2000/svg"><path d="M-772.048-3392.066a7.111 7.111 0 0 0 12.65-4.004.445.445 0 0 1 .887.054 8 8 0 0 1-14.207 4.535v2.526a.444.444 0 1 1-.89 0v-3.556c0-.245.2-.444.445-.444h3.556a.444.444 0 1 1 0 .889zm11.104-8.889a7.111 7.111 0 0 0-12.651 4.036.444.444 0 1 1-.888-.05 8 8 0 0 1 14.21-4.57v-2.527a.444.444 0 1 1 .888 0v3.555a.444.444 0 0 1-.444.445h-3.556a.444.444 0 0 1 0-.889z" fill="#8eed62"/></svg>