<svg height="17.264" viewBox="-557.291 -3405.414 17.32 17.264" width="17.32" xmlns="http://www.w3.org/2000/svg"><path d="m-552.57-3395.2575c-3.5936-.4331-5.55106-4.5245-3.5364-7.558 2.8822-4.3431 9.4558-1.8572 9.0557 3.431-.1575 2.0935-1.6564 3.2545-2.0299 5.1471-.8752 4.4319 4.6708 6.5609 7.1503 2.9279 1.6857-2.4705-.08254-5.941-3.0499-6.1545-.3823-.0266-1.05556.1716-1.1737-.325-.1334-.5603.4903-.5946.87775-.5933 3.69139.0153 6.09725 4.0039 4.34812 7.2493-2.48591 4.615-9.57397 2.717-9.13957-2.6586.2274-2.8111 2.92036-4.2769 1.9524-7.3967-1.0772-3.4677-5.5663-4.0317-7.35354-.8879-1.41256 2.4846.25784 5.626 3.09184 5.9169-.20326-.4167-.625-.7877-.8435-1.1839-.2693-.4878.31-1.0238.7838-.5043.5157.5665.9349 1.3235 1.4671 1.8939.13214.2389.0686.4878-.0787.7036-.6847.3952-1.3668 1.1815-2.0375 1.5474-.3849.2096-.8689-.1347-.6631-.564.14226-.2974 1.1712-.9146 1.18134-.9909z" fill="#c0e0ff"/></svg>