<svg height="24.75" viewBox="-706.872 -3408.886 24.75 24.75" width="24.75" xmlns="http://www.w3.org/2000/svg"><path d="M-701.121-3399.095a7.112 7.112 0 0 0 9.792 8.953.444.444 0 0 1 .397.795 8 8 0 0 1-11.03-10.037l-2.189 1.264a.445.445 0 1 1-.444-.77l3.079-1.778a.444.444 0 0 1 .607.163l1.778 3.079a.445.445 0 0 1-.77.444zm13.25 5.171a7.111 7.111 0 0 0-9.821-8.938.444.444 0 1 1-.401-.794 8 8 0 0 1 11.063 10.02l2.188-1.263a.444.444 0 0 1 .444.77l-3.079 1.778a.444.444 0 0 1-.607-.163l-1.778-3.079a.445.445 0 0 1 .77-.445z" fill="#8eed62"/></svg>