<?xml version="1.0" encoding="UTF-8" standalone="no"?>
<!DOCTYPE svg PUBLIC "-//W3C//DTD SVG 1.1//EN" "http://www.w3.org/Graphics/SVG/1.1/DTD/svg11.dtd">
<svg xmlns="http://www.w3.org/2000/svg" xmlns:xl="http://www.w3.org/1999/xlink" version="1.1" xmlns:dc="http://purl.org/dc/elements/1.1/" viewBox="-706.872 -3408.8856 24.75 24.75" width="24.75" height="24.75">
  <defs/>
  <g id="SOURCES" stroke-opacity="1" fill="none" stroke="none" fill-opacity="1" stroke-dasharray="none">
    <title>SOURCES</title>
    <g id="SOURCES_Dark">
      <title>Dark</title>
      <g id="Graphic_11608"/>
      <g id="Graphic_11609">
        <path d="M -701.12135 -3399.0954 C -701.8967 -3397.1082 -701.7523 -3394.855 -700.6549 -3392.954 C -698.77314 -3389.695 -694.6803 -3388.4713 -691.329 -3390.1427 C -691.10935 -3390.2522 -690.8425 -3390.163 -690.7329 -3389.9433 C -690.6234 -3389.7237 -690.7126 -3389.4568 -690.9323 -3389.3472 C -694.7035 -3387.4664 -699.30766 -3388.843 -701.4247 -3392.5097 C -702.65266 -3394.6366 -702.8197 -3397.1573 -701.9629 -3399.3837 L -704.1509 -3398.1205 C -704.3635 -3397.9978 -704.6353 -3398.0706 -704.758 -3398.283 C -704.8807 -3398.4958 -704.8079 -3398.7676 -704.5953 -3398.8903 L -701.5161 -3400.668 C -701.30355 -3400.791 -701.0317 -3400.718 -700.909 -3400.5054 L -699.1312 -3397.4262 C -699.0085 -3397.2136 -699.0813 -3396.942 -699.2939 -3396.819 C -699.5065 -3396.6964 -699.7783 -3396.769 -699.901 -3396.9818 L -701.12135 -3399.0954 Z M -687.8716 -3393.924 C -687.0963 -3395.911 -687.2406 -3398.1644 -688.33806 -3400.0653 C -690.2258 -3403.335 -694.3373 -3404.5546 -697.6928 -3402.8622 C -697.912 -3402.7517 -698.1792 -3402.8397 -698.2898 -3403.059 C -698.4003 -3403.278 -698.31225 -3403.5453 -698.0931 -3403.656 C -694.3172 -3405.5603 -689.692 -3404.188 -687.56826 -3400.5097 C -686.3402 -3398.3826 -686.1733 -3395.862 -687.03 -3393.6357 L -684.84204 -3394.899 C -684.6295 -3395.0216 -684.35765 -3394.9488 -684.2349 -3394.736 C -684.1122 -3394.5236 -684.185 -3394.2518 -684.3976 -3394.129 L -687.4768 -3392.3513 C -687.6894 -3392.2286 -687.9612 -3392.3014 -688.0839 -3392.514 L -689.8617 -3395.593 C -689.9844 -3395.8057 -689.9116 -3396.0776 -689.699 -3396.2003 C -689.48645 -3396.323 -689.2146 -3396.25 -689.0919 -3396.0376 Z" fill="#8eed62"/>
      </g>
    </g>
  </g>
</svg>
