<svg height="24.75" viewBox="-526.872 -3408.886 24.75 24.75" width="24.75" xmlns="http://www.w3.org/2000/svg"><path d="m-507.38586-3401.844v11.1112c0 1.2273-.99494 2.2222-2.22224 2.2222h-8c-1.2273 0-2.2222-.9949-2.2222-2.2222v-11.1112h-.44445c-.24545 0-.44445-.199-.44445-.4443 0-.2457.199-.4445.44445-.4445h4v-.4444c0-.7364.59695-1.3334 1.33335-1.3334h2.66665c.73638 0 1.33335.597 1.33335 1.3334v.4444h4c.24545 0 .44443.1988.44443.4445 0 .2453-.19898.4443-.44443.4443zm-11.55554 0v11.1112c0 .7364.59694 1.3333 1.3333 1.3333h8c.7364 0 1.33335-.5969 1.33335-1.3333v-11.1112zm7.1111-.8888v-.4444c0-.2455-.199-.4445-.44445-.4445h-2.66665c-.2455 0-.44446.199-.44446.4445v.4444zm0 4c0-.2454.199-.4444.44444-.4444.24546 0 .44446.199.44446.4444v6.2222c0 .2456-.199.4446-.44446.4446-.24544 0-.44444-.199-.44444-.4446zm-4.44445 0c0-.2454.19899-.4444.44445-.4444s.44444.199.44444.4444v6.2222c0 .2456-.19898.4446-.44444.4446s-.44445-.199-.44445-.4446z" fill="#f9b841"/></svg>