<?xml version="1.0" encoding="UTF-8" standalone="no"?>
<!DOCTYPE svg PUBLIC "-//W3C//DTD SVG 1.1//EN" "http://www.w3.org/Graphics/SVG/1.1/DTD/svg11.dtd">
<svg xmlns:dc="http://purl.org/dc/elements/1.1/" version="1.1" xmlns="http://www.w3.org/2000/svg" xmlns:xl="http://www.w3.org/1999/xlink" viewBox="-634.872 -3408.8856 24.75 24.75" width="24.75" height="24.75">
  <defs/>
  <g id="SOURCES" stroke="none" stroke-dasharray="none" fill-opacity="1" stroke-opacity="1" fill="none">
    <title>SOURCES</title>
    <g id="SOURCES_Dark">
      <title>Dark</title>
      <g id="Graphic_11745"/>
      <g id="Graphic_11744">
        <path d="M -622.07595 -3395.2475 C -622.07595 -3395.015 -622.26444 -3394.8265 -622.497 -3394.8265 C -622.7295 -3394.8265 -622.918 -3395.015 -622.918 -3395.2475 L -622.918 -3398.6157 C -622.918 -3398.848 -622.7295 -3399.0367 -622.497 -3399.0367 C -622.26444 -3399.0367 -622.07595 -3398.848 -622.07595 -3398.6157 Z M -622.918 -3393.1424 L -622.07595 -3393.1424 L -622.07595 -3392.3003 L -622.918 -3392.3003 Z M -622.8691 -3403.865 C -622.7109 -3404.1636 -622.283 -3404.1636 -622.1249 -3403.865 L -614.54646 -3389.55 C -614.398 -3389.2698 -614.6013 -3388.932 -614.91856 -3388.932 L -630.0754 -3388.932 C -630.39265 -3388.932 -630.5959 -3389.2698 -630.4475 -3389.55 Z M -629.3761 -3389.7742 L -615.6178 -3389.7742 L -622.497 -3402.768 Z" fill="#ff797c"/>
      </g>
    </g>
  </g>
</svg>
