<svg height="24.75" viewBox="-454.872 -3408.886 24.75 24.75" width="24.75" xmlns="http://www.w3.org/2000/svg"><path d="m-442.0264-3394.4724 2.9614-2.7969c.18376-.1737.4817-.1737.6655 0 .18377.1736.18377.455 0 .6286l-3.7647 3.5557c-.1838.1734-.48175.1734-.6655 0l-3.76473-3.5557c-.18377-.1736-.18377-.455 0-.6286.18378-.1737.48173-.1737.66553 0l2.96134 2.7969v-9.5936c0-.2456.21069-.4446.47059-.4446s.47057.199.47057.4446zm6.58825 1.0729c0-.2455.21069-.4445.47059-.4445s.47059.199.47059.4445v2.6667c0 1.2273-1.05343 2.2222-2.35293 2.2222h-11.29413c-1.29947 0-2.35294-.9949-2.35294-2.2222v-2.6667c0-.2455.21067-.4445.47057-.4445s.4706.199.4706.4445v2.6667c0 .7364.6321 1.3333 1.41177 1.3333h11.29413c.7797 0 1.41175-.5969 1.41175-1.3333z" fill="#8eed62"/></svg>