<svg height="24.75" viewBox="-778.872 -3408.886 24.75 24.75" width="24.75" xmlns="http://www.w3.org/2000/svg"><path d="m-772.0477-3392.066c1.3333 1.665 3.35695 2.6666 5.5517 2.6666 3.7635 0 6.8696-2.9326 7.09775-6.6706.01495-.245.2257-.4317.4707-.4167.24505.015.4315.2257.41655.4707-.2568 4.2064-3.7509 7.5054-7.985 7.5054-2.4559 0-4.7224-1.1154-6.2222-2.9708v2.5264c0 .2455-.199.4444-.4444.4444-.2455 0-.4445-.1989-.4445-.4444v-3.5556c0-.2454.199-.4444.4445-.4444h3.5555c.2455 0 .4445.199.4445.4444 0 .2456-.199.4446-.4445.4446zm11.1035-8.889c-1.3332-1.665-3.3568-2.6667-5.5518-2.6667-3.7754 0-6.8875 2.9507-7.0996 6.703-.0138.245-.2237.4325-.4688.4187-.2451-.014-.4325-.224-.41865-.469.23865-4.222 3.73955-7.5416 7.98705-7.5416 2.45615 0 4.7226 1.1158 6.2223 2.9709v-2.5263c0-.2456.19895-.4446.4444-.4446.2455 0 .44445.199.44445.4446v3.5554c0 .2456-.19895.4446-.44445.4446h-3.55555c-.24545 0-.44445-.199-.44445-.4446 0-.2454.199-.4444.44445-.4444z" fill="#8eed62"/></svg>