<svg height="24.75" viewBox="-886.872 -3408.886 24.75 24.75" width="24.75" xmlns="http://www.w3.org/2000/svg"><path d="M-870.053-3390.96a7.112 7.112 0 0 0-4.004-12.65.444.444 0 1 1 .055-.886 8 8 0 0 1 4.534 14.207h2.527a.444.444 0 1 1 0 .889h-3.556a.444.444 0 0 1-.444-.445v-3.555a.444.444 0 1 1 .888 0zm-8.888-11.103a7.111 7.111 0 0 0 4.036 12.651.445.445 0 0 1-.05.888 8 8 0 0 1-4.571-14.21h-2.527a.444.444 0 1 1 0-.889h3.556c.245 0 .445.2.445.445v3.555a.444.444 0 1 1-.89 0z" fill="#8eed62"/></svg>