<svg height="24.75" viewBox="-814.872 -3408.886 24.75 24.75" width="24.75" xmlns="http://www.w3.org/2000/svg"><path d="m-805.0818-3389.886c1.9872.775 4.2405.6307 6.1413-.4667 3.2592-1.8817 4.4828-5.9743 2.8114-9.3258-.1095-.2195-.0203-.4865.1994-.5961.2196-.1094.4865-.0204.5961.1994 1.8808 3.7712.5043 8.3752-3.1625 10.4922-2.1269 1.228-4.6476 1.395-6.874.5384l1.2632 2.188c.1227.2126.0499.4843-.1627.6071-.2126.1227-.4844.0499-.6071-.1625l-1.7778-3.0794c-.1227-.2126-.0499-.4844.1627-.6071l3.0792-1.7778c.2126-.1227.4844-.0499.6071.1627s.0499.4844-.1627.6071zm5.1715-13.25c-1.9871-.7752-4.2405-.631-6.1414.4665-3.2696 1.8878-4.4893 5.9992-2.7969 9.3548.1105.2191.0225.4864-.1967.5969-.2192.1106-.4864.0225-.597-.1966-1.9044-3.7759-.5323-8.4011 3.1462-10.5249 2.1271-1.228 4.6478-1.395 6.874-.5382l-1.2632-2.188c-.1227-.2125-.0499-.4845.1627-.6071.2126-.1227.4844-.0499.6071.1626l1.7778 3.0793c.1227.2127.0499.4844-.1627.6071l-3.0792 1.7776c-.21255.123-.4844.05-.6071-.1625s-.0499-.4845.1627-.6071z" fill="#8eed62"/></svg>