<?xml version="1.0" encoding="UTF-8" standalone="no"?>
<!DOCTYPE svg PUBLIC "-//W3C//DTD SVG 1.1//EN" "http://www.w3.org/Graphics/SVG/1.1/DTD/svg11.dtd">
<svg xmlns="http://www.w3.org/2000/svg" xmlns:xl="http://www.w3.org/1999/xlink" version="1.1" xmlns:dc="http://purl.org/dc/elements/1.1/" viewBox="-670.872 -3408.8856 24.75 24.75" width="24.75" height="24.75">
  <defs/>
  <g id="SOURCES" stroke-opacity="1" fill="none" stroke="none" fill-opacity="1" stroke-dasharray="none">
    <title>SOURCES</title>
    <g id="SOURCES_Dark">
      <title>Dark</title>
      <g id="Graphic_11742"/>
      <g id="Graphic_11741">
        <path d="M -650.49696 -3390.7318 C -650.49696 -3389.505 -651.4914 -3388.5106 -652.71815 -3388.5106 L -664.2747 -3388.5106 C -665.5014 -3388.5106 -666.4959 -3389.505 -666.4959 -3390.7318 L -666.4959 -3402.2894 C -666.4959 -3403.516 -665.5014 -3404.5106 -664.2747 -3404.5106 L -652.71815 -3404.5106 C -651.4914 -3404.5106 -650.49696 -3403.516 -650.49696 -3402.2894 Z M -651.3854 -3400.9567 L -651.3854 -3402.2894 C -651.3854 -3403.0254 -651.9821 -3403.622 -652.71815 -3403.622 L -664.2747 -3403.622 C -665.0107 -3403.622 -665.6074 -3403.0254 -665.6074 -3402.2894 L -665.6074 -3400.9567 Z M -651.3854 -3400.068 L -665.6074 -3400.068 L -665.6074 -3390.7318 C -665.6074 -3389.9957 -665.0107 -3389.399 -664.2747 -3389.399 L -652.71815 -3389.399 C -651.9821 -3389.399 -651.3854 -3389.9957 -651.3854 -3390.7318 Z M -664.7189 -3402.7336 L -663.8304 -3402.7336 L -663.8304 -3401.845 L -664.7189 -3401.845 Z M -662.94196 -3402.7336 L -662.0535 -3402.7336 L -662.0535 -3401.845 L -662.94196 -3401.845 Z M -661.165 -3402.7336 L -660.2765 -3402.7336 L -660.2765 -3401.845 L -661.165 -3401.845 Z" fill="#f2dab9"/>
      </g>
    </g>
  </g>
</svg>
