<svg height="24.75" viewBox="-454.872 -3408.886 24.75 24.75" width="24.75" xmlns="http://www.w3.org/2000/svg"><path d="M-442.026-3394.472l2.961-2.797a.49.49 0 0 1 .665 0 .427.427 0 0 1 0 .628l-3.764 3.556a.49.49 0 0 1-.666 0l-3.764-3.556a.427.427 0 0 1 0-.628.49.49 0 0 1 .665 0l2.961 2.797v-9.594c0-.246.211-.445.471-.445s.47.2.47.445zm6.588 1.073c0-.246.21-.445.47-.445s.471.199.471.445v2.666c0 1.228-1.053 2.222-2.353 2.222h-11.294c-1.3 0-2.353-.994-2.353-2.222v-2.666c0-.246.21-.445.47-.445s.471.199.471.445v2.666c0 .737.632 1.334 1.412 1.334h11.294c.78 0 1.412-.597 1.412-1.334z" fill="#8eed62"/></svg>