<svg height="24.75" viewBox="-598.872 -3408.886 24.75 24.75" width="24.75" xmlns="http://www.w3.org/2000/svg"><path d="m-579.2088-3400.8876v10.3771c0 1.1045-.8954 1.9999-1.9999 1.9999h-8.79956c-1.10454 0-1.9999-.8954-1.9999-1.9999v-11.9995c0-1.1044.89536-1.9998 1.9999-1.9998h7.17726c.1062-.0067.2167.0288.3052.1172l3.19985 3.1998c.08845.0885.12385.199.11715.3052zm-3.9998-2.8224h-6.79966c-.66274 0-1.19994.5374-1.19994 1.2v11.9995c0 .6627.5372 1.2 1.19994 1.2h8.79956c.6627 0 1.19994-.5373 1.19994-1.2v-9.9995h-2.79984c-.2209 0-.4-.179-.4-.4zm.79996.566v1.834h1.83424zm-5.9997 5.033c-.2209 0-.39996-.179-.39996-.4 0-.2208.17906-.4.39996-.4h5.59974c.2209 0 .39996.1792.39996.4 0 .221-.17906.4-.39996.4zm0 2.4c-.2209 0-.39996-.179-.39996-.4s.17906-.4.39996-.4h5.59974c.2209 0 .39996.179.39996.4s-.17906.4-.39996.4zm0 2.4c-.2209 0-.39996-.1792-.39996-.4 0-.221.17906-.4.39996-.4h3.9998c.2209 0 .39998.179.39998.4 0 .2208-.17908.4-.39998.4z" fill="#c0e0ff"/></svg>