<svg height="17.264" viewBox="-557.291 -3405.414 17.32 17.264" width="17.32" xmlns="http://www.w3.org/2000/svg"><path d="M-552.57-3395.258c-3.594-.433-5.551-4.524-3.536-7.558 2.882-4.343 9.455-1.857 9.055 3.431-.157 2.094-1.656 3.255-2.03 5.148-.875 4.432 4.671 6.56 7.15 2.928 1.686-2.471-.082-5.941-3.05-6.155-.381-.027-1.055.172-1.173-.325-.133-.56.49-.595.878-.593 3.691.015 6.097 4.004 4.348 7.249-2.486 4.615-9.574 2.717-9.14-2.659.228-2.81 2.92-4.277 1.953-7.396-1.077-3.468-5.567-4.032-7.354-.888-1.412 2.484.258 5.626 3.092 5.917-.203-.417-.625-.788-.843-1.184-.27-.488.31-1.024.783-.504.516.566.935 1.323 1.468 1.893.132.24.068.488-.08.704-.684.395-1.366 1.181-2.037 1.547-.385.21-.869-.134-.663-.564.142-.297 1.171-.914 1.182-.99z" fill="#c0e0ff"/></svg>