<svg height="24.75" viewBox="-634.872 -3408.886 24.75 24.75" width="24.75" xmlns="http://www.w3.org/2000/svg"><path d="m-622.07595-3395.2475c0 .2325-.18849.421-.42105.421-.2325 0-.421-.1885-.421-.421v-3.3682c0-.2323.1885-.421.421-.421.23256 0 .42105.1887.42105.421zm-.84205 2.1051h.84205v.8421h-.84205zm.0489-10.7226c.1582-.2986.5861-.2986.7442 0l7.57844 14.315c.14846.2802-.05484.618-.3721.618h-15.15684c-.31725 0-.5205-.3378-.3721-.618zm-6.507 14.0908h13.7583l-6.8792-12.9938z" fill="#ff797c"/></svg>