<svg height="24.75" viewBox="-490.872 -3408.886 24.75 24.75" width="24.75" xmlns="http://www.w3.org/2000/svg"><path d="m-470.6748-3401.844v-.4443c0-.7364-.597-1.3334-1.33336-1.3334h-11.55554c-.7364 0-1.33335.597-1.33335 1.3334v.4443zm0 .889h-14.22225v10.2222c0 .7364.59695 1.3333 1.33335 1.3333h11.55554c.73636 0 1.33336-.5969 1.33336-1.3333zm-15.11114-1.3333c0-1.2273.99494-2.2223 2.22224-2.2223h11.55554c1.2273 0 2.22222.995 2.22222 2.2223v11.5555c0 1.2273-.99492 2.2222-2.22222 2.2222h-11.55554c-1.2273 0-2.22224-.9949-2.22224-2.2222zm9.77778 4.4443c0-.7363.59696-1.3332 1.33336-1.3332h.88886c.73638 0 1.33334.5969 1.33334 1.3332v5.3334c0 .7366-.59696 1.3334-1.33334 1.3334h-.88886c-.7364 0-1.33336-.5968-1.33336-1.3334zm.88889 0v5.3334c0 .2456.19897.4446.44447.4446h.88886c.24544 0 .44444-.199.44444-.4446v-5.3334c0-.2454-.199-.4443-.44444-.4443h-.88886c-.2455 0-.44447.1989-.44447.4443zm-7.55553-.4443c-.2455 0-.44447-.199-.44447-.4445 0-.2454.19897-.4444.44447-.4444h4.4444c.2455 0 .44446.199.44446.4444 0 .2455-.19896.4445-.44446.4445zm0 1.7777c-.2455 0-.44447-.1989-.44447-.4444s.19897-.4445.44447-.4445h4.4444c.2455 0 .44446.199.44446.4445s-.19896.4444-.44446.4444zm0 1.7778c-.2455 0-.44447-.199-.44447-.4444 0-.2455.19897-.4445.44447-.4445h2.66664c.24546 0 .44446.199.44446.4445 0 .2454-.199.4444-.44446.4444zm.88886.8888h2.66667c.73637 0 1.33333.597 1.33333 1.3334 0 .7366-.59696 1.3334-1.33333 1.3334h-2.66667c-.73636 0-1.33333-.5968-1.33333-1.3334 0-.7364.59697-1.3334 1.33333-1.3334zm0 .889c-.24546 0-.44446.199-.44446.4444 0 .2456.199.4446.44446.4446h2.66667c.24547 0 .44447-.199.44447-.4446 0-.2454-.199-.4444-.44447-.4444z" fill="#20b1ff"/></svg>