<?xml version="1.0" encoding="UTF-8" standalone="no"?>
<!DOCTYPE svg PUBLIC "-//W3C//DTD SVG 1.1//EN" "http://www.w3.org/Graphics/SVG/1.1/DTD/svg11.dtd">
<svg xmlns="http://www.w3.org/2000/svg" xmlns:xl="http://www.w3.org/1999/xlink" version="1.1" xmlns:dc="http://purl.org/dc/elements/1.1/" viewBox="-454.87197 -3408.8856 24.75 24.75" width="24.75" height="24.75">
  <defs/>
  <g id="SOURCES" stroke-opacity="1" fill="none" stroke="none" fill-opacity="1" stroke-dasharray="none">
    <title>SOURCES</title>
    <g id="SOURCES_Dark">
      <title>Dark</title>
      <g id="Graphic_11757"/>
      <g id="Graphic_11756">
        <path d="M -442.0264 -3394.4724 L -439.065 -3397.2693 C -438.88124 -3397.443 -438.5833 -3397.443 -438.3995 -3397.2693 C -438.21573 -3397.0957 -438.21573 -3396.8143 -438.3995 -3396.6407 L -442.1642 -3393.085 C -442.348 -3392.9116 -442.64595 -3392.9116 -442.8297 -3393.085 L -446.59443 -3396.6407 C -446.7782 -3396.8143 -446.7782 -3397.0957 -446.59443 -3397.2693 C -446.41065 -3397.443 -446.1127 -3397.443 -445.9289 -3397.2693 L -442.96756 -3394.4724 L -442.96756 -3404.066 C -442.96756 -3404.3116 -442.75687 -3404.5106 -442.49697 -3404.5106 C -442.23707 -3404.5106 -442.0264 -3404.3116 -442.0264 -3404.066 Z M -435.43815 -3393.3995 C -435.43815 -3393.645 -435.22746 -3393.844 -434.96756 -3393.844 C -434.70766 -3393.844 -434.49697 -3393.645 -434.49697 -3393.3995 L -434.49697 -3390.7328 C -434.49697 -3389.5055 -435.5504 -3388.5106 -436.8499 -3388.5106 L -448.14403 -3388.5106 C -449.4435 -3388.5106 -450.49697 -3389.5055 -450.49697 -3390.7328 L -450.49697 -3393.3995 C -450.49697 -3393.645 -450.2863 -3393.844 -450.0264 -3393.844 C -449.7665 -3393.844 -449.5558 -3393.645 -449.5558 -3393.3995 L -449.5558 -3390.7328 C -449.5558 -3389.9964 -448.9237 -3389.3995 -448.14403 -3389.3995 L -436.8499 -3389.3995 C -436.0702 -3389.3995 -435.43815 -3389.9964 -435.43815 -3390.7328 Z" fill="#8eed62"/>
      </g>
    </g>
  </g>
</svg>
