<?xml version="1.0" encoding="UTF-8" standalone="no"?>
<!DOCTYPE svg PUBLIC "-//W3C//DTD SVG 1.1//EN" "http://www.w3.org/Graphics/SVG/1.1/DTD/svg11.dtd">
<svg xmlns="http://www.w3.org/2000/svg" xmlns:xl="http://www.w3.org/1999/xlink" version="1.1" xmlns:dc="http://purl.org/dc/elements/1.1/" viewBox="-742.872 -3408.8856 24.75 24.75" width="24.75" height="24.75">
  <defs/>
  <g id="SOURCES" stroke-opacity="1" fill="none" stroke="none" fill-opacity="1" stroke-dasharray="none">
    <title>SOURCES</title>
    <g id="SOURCES_Dark">
      <title>Dark</title>
      <g id="Graphic_11611"/>
      <g id="Graphic_11612">
        <path d="M -737.5263 -3395.437 C -737.2041 -3393.3283 -735.9524 -3391.449 -734.0517 -3390.3517 C -730.7924 -3388.47 -726.6361 -3389.4567 -724.5695 -3392.58 C -724.43404 -3392.7845 -724.1583 -3392.8406 -723.9536 -3392.705 C -723.7489 -3392.5697 -723.69275 -3392.294 -723.8282 -3392.0893 C -726.15375 -3388.575 -730.8293 -3387.465 -734.4961 -3389.582 C -736.623 -3390.81 -738.028 -3392.9092 -738.3993 -3395.266 L -739.6625 -3393.078 C -739.7852 -3392.8653 -740.057 -3392.7925 -740.2696 -3392.915 C -740.4822 -3393.038 -740.555 -3393.3097 -740.4323 -3393.5223 L -738.6545 -3396.6015 C -738.5318 -3396.814 -738.26 -3396.887 -738.0474 -3396.764 L -734.9682 -3394.9864 C -734.7556 -3394.8637 -734.6828 -3394.592 -734.8055 -3394.3793 C -734.9282 -3394.1667 -735.20005 -3394.094 -735.4126 -3394.2166 L -737.5263 -3395.437 Z M -723.4659 -3397.583 C -723.788 -3399.6916 -725.0397 -3401.571 -726.9405 -3402.6685 C -730.2102 -3404.556 -734.3807 -3403.5567 -736.4405 -3400.4133 C -736.575 -3400.208 -736.8505 -3400.1507 -737.0558 -3400.285 C -737.2611 -3400.4197 -737.3185 -3400.6952 -737.18395 -3400.9005 C -734.8661 -3404.4377 -730.1746 -3405.562 -726.4961 -3403.4383 C -724.369 -3402.2102 -722.9641 -3400.1107 -722.5929 -3397.7543 L -721.3297 -3399.9423 C -721.207 -3400.155 -720.9352 -3400.2277 -720.7226 -3400.105 C -720.51 -3399.9822 -720.4372 -3399.7104 -720.5599 -3399.498 L -722.3377 -3396.4186 C -722.4604 -3396.206 -722.7322 -3396.133 -722.9448 -3396.256 L -726.024 -3398.0337 C -726.2366 -3398.1564 -726.3094 -3398.4283 -726.1867 -3398.641 C -726.064 -3398.8534 -725.79215 -3398.9262 -725.5796 -3398.8035 Z" fill="#8eed62"/>
      </g>
    </g>
  </g>
</svg>
