<?xml version="1.0" encoding="UTF-8" standalone="no"?>
<!DOCTYPE svg PUBLIC "-//W3C//DTD SVG 1.1//EN" "http://www.w3.org/Graphics/SVG/1.1/DTD/svg11.dtd">
<svg xmlns="http://www.w3.org/2000/svg" xmlns:xl="http://www.w3.org/1999/xlink" version="1.1" xmlns:dc="http://purl.org/dc/elements/1.1/" viewBox="-490.87197 -3408.8856 24.75 24.75" width="24.75" height="24.75">
  <defs/>
  <g id="SOURCES" stroke-opacity="1" fill="none" stroke="none" fill-opacity="1" stroke-dasharray="none">
    <title>SOURCES</title>
    <g id="SOURCES_Dark">
      <title>Dark</title>
      <g id="Graphic_11751"/>
      <g id="Graphic_11750">
        <path d="M -470.6748 -3401.844 L -470.6748 -3402.2883 C -470.6748 -3403.0247 -471.2718 -3403.6217 -472.00816 -3403.6217 L -483.5637 -3403.6217 C -484.3001 -3403.6217 -484.89705 -3403.0247 -484.89705 -3402.2883 L -484.89705 -3401.844 Z M -470.6748 -3400.955 L -484.89705 -3400.955 L -484.89705 -3390.7328 C -484.89705 -3389.9964 -484.3001 -3389.3995 -483.5637 -3389.3995 L -472.00816 -3389.3995 C -471.2718 -3389.3995 -470.6748 -3389.9964 -470.6748 -3390.7328 Z M -485.78594 -3402.2883 C -485.78594 -3403.5156 -484.791 -3404.5106 -483.5637 -3404.5106 L -472.00816 -3404.5106 C -470.78086 -3404.5106 -469.78594 -3403.5156 -469.78594 -3402.2883 L -469.78594 -3390.7328 C -469.78594 -3389.5055 -470.78086 -3388.5106 -472.00816 -3388.5106 L -483.5637 -3388.5106 C -484.791 -3388.5106 -485.78594 -3389.5055 -485.78594 -3390.7328 Z M -476.00816 -3397.844 C -476.00816 -3398.5803 -475.4112 -3399.1772 -474.6748 -3399.1772 L -473.78594 -3399.1772 C -473.04956 -3399.1772 -472.4526 -3398.5803 -472.4526 -3397.844 L -472.4526 -3392.5106 C -472.4526 -3391.774 -473.04956 -3391.1772 -473.78594 -3391.1772 L -474.6748 -3391.1772 C -475.4112 -3391.1772 -476.00816 -3391.774 -476.00816 -3392.5106 Z M -475.11927 -3397.844 L -475.11927 -3392.5106 C -475.11927 -3392.265 -474.9203 -3392.066 -474.6748 -3392.066 L -473.78594 -3392.066 C -473.5405 -3392.066 -473.3415 -3392.265 -473.3415 -3392.5106 L -473.3415 -3397.844 C -473.3415 -3398.0894 -473.5405 -3398.2883 -473.78594 -3398.2883 L -474.6748 -3398.2883 C -474.9203 -3398.2883 -475.11927 -3398.0894 -475.11927 -3397.844 Z M -482.6748 -3398.2883 C -482.9203 -3398.2883 -483.11927 -3398.4873 -483.11927 -3398.7328 C -483.11927 -3398.9782 -482.9203 -3399.1772 -482.6748 -3399.1772 L -478.2304 -3399.1772 C -477.9849 -3399.1772 -477.78594 -3398.9782 -477.78594 -3398.7328 C -477.78594 -3398.4873 -477.9849 -3398.2883 -478.2304 -3398.2883 Z M -482.6748 -3396.5106 C -482.9203 -3396.5106 -483.11927 -3396.7095 -483.11927 -3396.955 C -483.11927 -3397.2005 -482.9203 -3397.3995 -482.6748 -3397.3995 L -478.2304 -3397.3995 C -477.9849 -3397.3995 -477.78594 -3397.2005 -477.78594 -3396.955 C -477.78594 -3396.7095 -477.9849 -3396.5106 -478.2304 -3396.5106 Z M -482.6748 -3394.7328 C -482.9203 -3394.7328 -483.11927 -3394.9318 -483.11927 -3395.1772 C -483.11927 -3395.4227 -482.9203 -3395.6217 -482.6748 -3395.6217 L -480.00816 -3395.6217 C -479.7627 -3395.6217 -479.5637 -3395.4227 -479.5637 -3395.1772 C -479.5637 -3394.9318 -479.7627 -3394.7328 -480.00816 -3394.7328 Z M -481.78594 -3393.844 L -479.11927 -3393.844 C -478.3829 -3393.844 -477.78594 -3393.247 -477.78594 -3392.5106 C -477.78594 -3391.774 -478.3829 -3391.1772 -479.11927 -3391.1772 L -481.78594 -3391.1772 C -482.5223 -3391.1772 -483.11927 -3391.774 -483.11927 -3392.5106 C -483.11927 -3393.247 -482.5223 -3393.844 -481.78594 -3393.844 Z M -481.78594 -3392.955 C -482.0314 -3392.955 -482.2304 -3392.756 -482.2304 -3392.5106 C -482.2304 -3392.265 -482.0314 -3392.066 -481.78594 -3392.066 L -479.11927 -3392.066 C -478.8738 -3392.066 -478.6748 -3392.265 -478.6748 -3392.5106 C -478.6748 -3392.756 -478.8738 -3392.955 -479.11927 -3392.955 Z" fill="#20b1ff"/>
      </g>
    </g>
  </g>
</svg>
