<svg height="24.75" viewBox="-706.872 -3408.886 24.75 24.75" width="24.75" xmlns="http://www.w3.org/2000/svg"><path d="m-701.12135-3399.0954c-.77535 1.9872-.63095 4.2404.46645 6.1414 1.88176 3.259 5.9746 4.4827 9.3259 2.8113.21965-.1095.4865-.0203.5961.1994.1095.2196.0203.4865-.1994.5961-3.7712 1.8808-8.37536.5042-10.4924-3.1625-1.22796-2.1269-1.395-4.6476-.5382-6.874l-2.188 1.2632c-.2126.1227-.4844.0499-.6071-.1625-.1227-.2128-.0499-.4846.1627-.6073l3.0792-1.7777c.21255-.123.4844-.05.6071.1626l1.7778 3.0792c.1227.2126.0499.4842-.1627.6072-.2126.1226-.4844.05-.6071-.1628zm13.24975 5.1714c.7753-1.987.631-4.2404-.46646-6.1413-1.88774-3.2697-5.99924-4.4893-9.35474-2.7969-.2192.1105-.4864.0225-.597-.1968-.1105-.219-.02245-.4863.1967-.597 3.7759-1.9043 8.4011-.532 10.52484 3.1463 1.22806 2.1271 1.39496 4.6477.53826 6.874l2.18796-1.2633c.21254-.1226.48439-.0498.60714.163.1227.2124.0499.4842-.1627.607l-3.0792 1.7777c-.2126.1227-.4844.0499-.6071-.1627l-1.7778-3.079c-.1227-.2127-.0499-.4846.1627-.6073.21255-.1227.4844-.0497.6071.1627z" fill="#8eed62"/></svg>