<svg height="24.75" viewBox="-670.872 -3408.886 24.75 24.75" width="24.75" xmlns="http://www.w3.org/2000/svg"><path d="m-650.49696-3390.7318c0 1.2268-.99444 2.2212-2.22119 2.2212h-11.55655c-1.2267 0-2.2212-.9944-2.2212-2.2212v-11.5576c0-1.2266.9945-2.2212 2.2212-2.2212h11.55655c1.22675 0 2.22119.9946 2.22119 2.2212zm-.88844-10.2249v-1.3327c0-.736-.5967-1.3326-1.33275-1.3326h-11.55655c-.736 0-1.3327.5966-1.3327 1.3326v1.3327zm0 .8887h-14.222v9.3362c0 .7361.5967 1.3328 1.3327 1.3328h11.55655c.73605 0 1.33275-.5967 1.33275-1.3328zm-13.3335-2.6656h.8885v.8886h-.8885zm1.77694 0h.88846v.8886h-.88846zm1.77696 0h.8885v.8886h-.8885z" fill="#f2dab9"/></svg>