<svg height="24.75" viewBox="-490.872 -3408.886 24.75 24.75" width="24.75" xmlns="http://www.w3.org/2000/svg"><path d="M-470.675-3401.844v-.444c0-.737-.597-1.334-1.333-1.334h-11.556c-.736 0-1.333.597-1.333 1.334v.444zm0 .889h-14.222v10.222c0 .737.597 1.334 1.333 1.334h11.556c.736 0 1.333-.597 1.333-1.334zm-15.11-1.333c0-1.228.994-2.223 2.221-2.223h11.556c1.227 0 2.222.995 2.222 2.223v11.555a2.222 2.222 0 0 1-2.222 2.222h-11.556a2.222 2.222 0 0 1-2.222-2.222zm9.777 4.444c0-.736.597-1.333 1.333-1.333h.89c.735 0 1.332.597 1.332 1.333v5.333c0 .737-.597 1.334-1.333 1.334h-.889a1.333 1.333 0 0 1-1.333-1.334zm.889 0v5.333c0 .246.199.445.444.445h.89a.444.444 0 0 0 .444-.445v-5.333a.444.444 0 0 0-.445-.444h-.889a.444.444 0 0 0-.444.444zm-7.556-.444a.444.444 0 1 1 0-.89h4.445a.444.444 0 1 1 0 .89zm0 1.777a.444.444 0 1 1 0-.888h4.445a.444.444 0 1 1 0 .888zm0 1.778a.444.444 0 1 1 0-.889h2.667a.444.444 0 0 1 0 .89zm.89.889h2.666a1.333 1.333 0 0 1 0 2.667h-2.667a1.333 1.333 0 1 1 0-2.667zm0 .889a.444.444 0 1 0 0 .889h2.666a.445.445 0 0 0 0-.889z" fill="#20b1ff"/></svg>