<svg height="24.75" viewBox="-850.872 -3408.886 24.75 24.75" width="24.75" xmlns="http://www.w3.org/2000/svg"><path d="M-837.423-3389.481a7.111 7.111 0 0 0 2.857-12.957.445.445 0 0 1 .49-.741 8 8 0 0 1-3.176 14.57l2.188 1.264a.444.444 0 1 1-.445.77l-3.079-1.778a.444.444 0 0 1-.163-.607l1.778-3.08a.444.444 0 1 1 .77.445zm-2.147-14.06a7.112 7.112 0 0 0-2.83 12.975.444.444 0 0 1-.487.742 8 8 0 0 1 3.146-14.59l-2.188-1.264a.444.444 0 1 1 .445-.77l3.079 1.778a.445.445 0 0 1 .163.607l-1.778 3.08a.444.444 0 1 1-.77-.445z" fill="#8eed62"/></svg>