<svg height="24.75" viewBox="-526.872 -3408.886 24.75 24.75" width="24.75" xmlns="http://www.w3.org/2000/svg"><path d="M-507.386-3401.844v11.111a2.222 2.222 0 0 1-2.222 2.222h-8a2.222 2.222 0 0 1-2.222-2.222v-11.111h-.445a.444.444 0 1 1 0-.889h4v-.444c0-.737.597-1.334 1.334-1.334h2.666c.737 0 1.334.597 1.334 1.334v.444h4a.444.444 0 1 1 0 .889zm-11.555 0v11.111c0 .737.597 1.333 1.333 1.333h8c.736 0 1.333-.596 1.333-1.333v-11.111zm7.11-.889v-.444a.444.444 0 0 0-.444-.445h-2.666a.444.444 0 0 0-.445.445v.444zm0 4a.444.444 0 0 1 .89 0v6.222a.445.445 0 1 1-.89 0zm-4.444 0a.444.444 0 0 1 .89 0v6.222a.444.444 0 1 1-.89 0z" fill="#f9b841"/></svg>