<svg height="24.75" viewBox="-670.872 -3408.886 24.75 24.75" width="24.75" xmlns="http://www.w3.org/2000/svg"><path d="M-650.497-3390.732a2.221 2.221 0 0 1-2.221 2.221h-11.557a2.221 2.221 0 0 1-2.22-2.22v-11.558c0-1.227.994-2.222 2.22-2.222h11.557c1.227 0 2.221.995 2.221 2.222zm-.888-10.225v-1.332c0-.736-.597-1.333-1.333-1.333h-11.557c-.736 0-1.332.597-1.332 1.333v1.332zm0 .889h-14.222v9.336c0 .736.596 1.333 1.332 1.333h11.557c.736 0 1.333-.597 1.333-1.333zm-13.334-2.666h.889v.889h-.889zm1.777 0h.889v.889h-.889zm1.777 0h.889v.889h-.889z" fill="#f2dab9"/></svg>