<svg height="24.75" viewBox="-742.872 -3408.886 24.75 24.75" width="24.75" xmlns="http://www.w3.org/2000/svg"><path d="m-737.5263-3395.437c.3222 2.1087 1.5739 3.988 3.4746 5.0853 3.2593 1.8817 7.4156.895 9.4822-2.2283.13546-.2045.4112-.2606.6159-.125.2047.1353.26085.411.1254.6157-2.32555 3.5143-7.0011 4.6243-10.6679 2.5073-2.1269-1.228-3.5319-3.3272-3.9032-5.684l-1.2632 2.188c-.1227.2127-.3945.2855-.6071.163-.2126-.123-.2854-.3947-.1627-.6073l1.7778-3.0792c.1227-.2125.3945-.2855.6071-.1625l3.0792 1.7776c.2126.1227.2854.3944.1627.6071-.1227.2126-.39455.2853-.6071.1627zm14.0604-2.146c-.3221-2.1086-1.5738-3.988-3.4746-5.0855-3.2697-1.8875-7.4402-.8882-9.5 2.2552-.1345.2053-.41.2626-.6153.1283-.2053-.1347-.2627-.4102-.12815-.6155 2.31785-3.5372 7.00935-4.6615 10.68785-2.5378 2.1271 1.2281 3.532 3.3276 3.9032 5.684l1.2632-2.188c.1227-.2127.3945-.2854.6071-.1627.2126.1228.2854.3946.1627.607l-1.7778 3.0794c-.1227.2126-.3945.2856-.6071.1626l-3.0792-1.7777c-.2126-.1227-.2854-.3946-.1627-.6073.1227-.2124.39455-.2852.6071-.1625z" fill="#8eed62"/></svg>