<svg height="24.75" viewBox="-814.872 -3408.886 24.75 24.75" width="24.75" xmlns="http://www.w3.org/2000/svg"><path d="M-805.082-3389.886a7.111 7.111 0 0 0 8.953-9.793.445.445 0 0 1 .795-.396 8 8 0 0 1-10.036 11.03l1.263 2.188a.444.444 0 0 1-.77.445l-1.778-3.08a.444.444 0 0 1 .163-.606l3.08-1.778a.444.444 0 1 1 .444.77zm5.172-13.25a7.112 7.112 0 0 0-8.938 9.821.444.444 0 1 1-.794.4 8 8 0 0 1 10.02-11.063l-1.263-2.187a.444.444 0 0 1 .77-.445l1.777 3.08a.444.444 0 0 1-.162.606l-3.08 1.778a.444.444 0 1 1-.444-.77z" fill="#8eed62"/></svg>