<svg height="24.75" viewBox="-885.358 -3555.537 24.75 24.75" width="24.75" xmlns="http://www.w3.org/2000/svg"><g fill="none"><circle cx="-872.983" cy="-3543.162" fill="#666" r="8"/><circle cx="-872.983" cy="-3543.162" r="8"/><circle cx="-872.983" cy="-3543.162" fill="#666" r="8"/><circle cx="-872.983" cy="-3543.162" r="8"/><g fill="#c0e0fe"><path d="M-864.983-3543.162c0 4.42-3.579 8-8 8-4.42 0-8-3.58-8-8 0-4.421 3.58-8 8-8 4.421 0 8 3.579 8 8zm-.842 0a7.163 7.163 0 0 0-7.158-7.158 7.163 7.163 0 0 0-7.158 7.158 7.163 7.163 0 0 0 7.158 7.157 7.163 7.163 0 0 0 7.158-7.157z"/><path d="M-874.524-3540.493a.425.425 0 0 1-.042.598.425.425 0 0 1-.598-.042l-2.526-2.947a.421.421 0 0 1 0-.548l2.526-2.947a.425.425 0 0 1 .598-.042.425.425 0 0 1 .042.598l-2.29 2.669 2.29 2.67zm5.381-2.67l-2.29-2.669a.425.425 0 0 1 .042-.598.425.425 0 0 1 .598.042l2.526 2.948a.42.42 0 0 1 0 .547l-2.526 2.947a.426.426 0 0 1-.598.043.425.425 0 0 1-.042-.598l2.29-2.67z"/></g></g></svg>