<svg height="24.75" viewBox="-885.358 -3555.537 24.75 24.75" width="24.75" xmlns="http://www.w3.org/2000/svg"><g fill="none"><circle cx="-872.983" cy="-3543.162" fill="#666" r="8"/><circle cx="-872.983" cy="-3543.162" r="8"/><circle cx="-872.983" cy="-3543.162" fill="#666" r="8"/><circle cx="-872.983" cy="-3543.162" r="8"/><g fill="#c0e0fe"><path d="m-864.9828-3543.1624c0 4.4211-3.5789 8-8 8-4.421 0-8-3.5789-8-8 0-4.421 3.579-8 8-8 4.4211 0 8 3.579 8 8zm-.8421 0c0-3.9496-3.2084-7.1579-7.1579-7.1579-3.9494 0-7.1579 3.2083-7.1579 7.1579 0 3.9494 3.2085 7.1579 7.1579 7.1579 3.9495 0 7.1579-3.2085 7.1579-7.1579z"/><path d="m-874.5238-3540.493c.1516.177.1347.4464-.0421.598-.1769.1516-.4463.1347-.5979-.042l-2.5263-2.9475c-.1348-.16-.1348-.3875 0-.5475l2.5263-2.9472c.1516-.1768.421-.1938.5979-.0421.1768.1516.1937.421.0421.5979l-2.2905 2.6694 2.2905 2.6695z"/><path d="m-869.1428-3543.1624-2.2905-2.6696c-.1516-.1767-.1347-.446.0421-.5977.1769-.1516.4463-.1348.5979.0421l2.5263 2.9473c.1348.16.1348.3873 0 .5473l-2.5263 2.9475c-.1516.1768-.421.1935-.5979.0421-.1768-.1516-.1937-.4211-.0421-.5979l2.2905-2.6697z"/></g></g></svg>