<?xml version="1.0" encoding="UTF-8" standalone="no"?>
<!DOCTYPE svg PUBLIC "-//W3C//DTD SVG 1.1//EN" "http://www.w3.org/Graphics/SVG/1.1/DTD/svg11.dtd">
<svg xmlns="http://www.w3.org/2000/svg" xmlns:xl="http://www.w3.org/1999/xlink" version="1.1" xmlns:dc="http://purl.org/dc/elements/1.1/" viewBox="-850.997 -3555.4187 25 25" width="25" height="25">
  <defs/>
  <g id="SOURCES" stroke-opacity="1" fill="none" stroke="none" fill-opacity="1" stroke-dasharray="none">
    <title>SOURCES</title>
    <g id="SOURCES_Dark">
      <title>Dark</title>
      <g id="Graphic_11693">
        <title>views/view.other</title>
        <path d="M -846.657 -3554.9187 L -830.337 -3554.9187 C -828.2162 -3554.9187 -826.497 -3553.1995 -826.497 -3551.0787 L -826.497 -3534.7587 C -826.497 -3532.638 -828.2162 -3530.9187 -830.337 -3530.9187 L -846.657 -3530.9187 C -848.7777 -3530.9187 -850.497 -3532.638 -850.497 -3534.7587 L -850.497 -3551.0787 C -850.497 -3553.1995 -848.7777 -3554.9187 -846.657 -3554.9187 Z" fill="#666"/>
        <path d="M -846.657 -3554.9187 L -830.337 -3554.9187 C -828.2162 -3554.9187 -826.497 -3553.1995 -826.497 -3551.0787 L -826.497 -3534.7587 C -826.497 -3532.638 -828.2162 -3530.9187 -830.337 -3530.9187 L -846.657 -3530.9187 C -848.7777 -3530.9187 -850.497 -3532.638 -850.497 -3534.7587 L -850.497 -3551.0787 C -850.497 -3553.1995 -848.7777 -3554.9187 -846.657 -3554.9187 Z" stroke="white" stroke-linecap="round" stroke-linejoin="round" stroke-width=".25"/>
      </g>
      <g id="Graphic_11692">
        <path d="M -836.6627 -3542.9187 L -842.897 -3542.9187 C -843.1179 -3542.9187 -843.297 -3543.0978 -843.297 -3543.3187 C -843.297 -3543.5396 -843.1179 -3543.7187 -842.897 -3543.7187 L -836.6627 -3543.7187 L -838.3798 -3545.436 C -838.536 -3545.592 -838.536 -3545.8453 -838.3798 -3546.0015 C -838.2236 -3546.1578 -837.9703 -3546.1578 -837.8141 -3546.0015 L -835.4141 -3543.6015 C -835.2579 -3543.4453 -835.2579 -3543.192 -835.4141 -3543.036 L -837.8141 -3540.636 C -837.9703 -3540.4796 -838.2236 -3540.4796 -838.3798 -3540.636 C -838.536 -3540.792 -838.536 -3541.0453 -838.3798 -3541.2015 L -836.6627 -3542.9187 Z M -840.097 -3548.1187 C -840.097 -3547.8978 -840.2761 -3547.7187 -840.497 -3547.7187 C -840.7179 -3547.7187 -840.897 -3547.8978 -840.897 -3548.1187 C -840.897 -3549.2233 -840.0015 -3550.1187 -838.897 -3550.1187 L -832.497 -3550.1187 C -831.3924 -3550.1187 -830.497 -3549.2233 -830.497 -3548.1187 L -830.497 -3537.7187 C -830.497 -3536.614 -831.3924 -3535.7187 -832.497 -3535.7187 L -838.897 -3535.7187 C -840.0015 -3535.7187 -840.897 -3536.614 -840.897 -3537.7187 C -840.897 -3537.9396 -840.7179 -3538.1187 -840.497 -3538.1187 C -840.2761 -3538.1187 -840.097 -3537.9396 -840.097 -3537.7187 C -840.097 -3537.056 -839.5597 -3536.5187 -838.897 -3536.5187 L -832.497 -3536.5187 C -831.8342 -3536.5187 -831.297 -3537.056 -831.297 -3537.7187 L -831.297 -3548.1187 C -831.297 -3548.7814 -831.8342 -3549.3187 -832.497 -3549.3187 L -838.897 -3549.3187 C -839.5597 -3549.3187 -840.097 -3548.7814 -840.097 -3548.1187 Z M -842.097 -3536.5187 C -841.8761 -3536.5187 -841.697 -3536.3396 -841.697 -3536.1187 C -841.697 -3535.8978 -841.8761 -3535.7187 -842.097 -3535.7187 L -844.497 -3535.7187 C -845.6015 -3535.7187 -846.497 -3536.614 -846.497 -3537.7187 L -846.497 -3548.1187 C -846.497 -3549.2233 -845.6015 -3550.1187 -844.497 -3550.1187 L -842.097 -3550.1187 C -841.8761 -3550.1187 -841.697 -3549.9396 -841.697 -3549.7187 C -841.697 -3549.4978 -841.8761 -3549.3187 -842.097 -3549.3187 L -844.497 -3549.3187 C -845.1597 -3549.3187 -845.697 -3548.7814 -845.697 -3548.1187 L -845.697 -3537.7187 C -845.697 -3537.056 -845.1597 -3536.5187 -844.497 -3536.5187 Z" fill="#c0e0ff"/>
      </g>
    </g>
  </g>
</svg>
