<?xml version="1.0" encoding="UTF-8" standalone="no"?>
<!DOCTYPE svg PUBLIC "-//W3C//DTD SVG 1.1//EN" "http://www.w3.org/Graphics/SVG/1.1/DTD/svg11.dtd">
<svg xmlns="http://www.w3.org/2000/svg" xmlns:xl="http://www.w3.org/1999/xlink" version="1.1" xmlns:dc="http://purl.org/dc/elements/1.1/" viewBox="-778.997 -3555.4187 25 25" width="25" height="25">
  <defs/>
  <g id="SOURCES" stroke-opacity="1" fill="none" stroke="none" fill-opacity="1" stroke-dasharray="none">
    <title>SOURCES</title>
    <g id="SOURCES_Dark">
      <title>Dark</title>
      <g id="Graphic_11687">
        <title>views/view.other</title>
        <path d="M -774.657 -3554.9187 L -758.337 -3554.9187 C -756.2162 -3554.9187 -754.497 -3553.1995 -754.497 -3551.0787 L -754.497 -3534.7587 C -754.497 -3532.638 -756.2162 -3530.9187 -758.337 -3530.9187 L -774.657 -3530.9187 C -776.7777 -3530.9187 -778.497 -3532.638 -778.497 -3534.7587 L -778.497 -3551.0787 C -778.497 -3553.1995 -776.7777 -3554.9187 -774.657 -3554.9187 Z" fill="#666"/>
        <path d="M -774.657 -3554.9187 L -758.337 -3554.9187 C -756.2162 -3554.9187 -754.497 -3553.1995 -754.497 -3551.0787 L -754.497 -3534.7587 C -754.497 -3532.638 -756.2162 -3530.9187 -758.337 -3530.9187 L -774.657 -3530.9187 C -776.7777 -3530.9187 -778.497 -3532.638 -778.497 -3534.7587 L -778.497 -3551.0787 C -778.497 -3553.1995 -776.7777 -3554.9187 -774.657 -3554.9187 Z" stroke="white" stroke-linecap="round" stroke-linejoin="round" stroke-width=".25"/>
      </g>
      <g id="Graphic_11686">
        <path d="M -770.6811 -3537.5854 L -760.4588 -3547.8076 L -762.497 -3549.8457 L -772.7192 -3539.6235 L -772.7192 -3537.5854 Z M -773.6081 -3537.141 L -773.6081 -3539.8076 C -773.6081 -3539.9255 -773.5613 -3540.0385 -773.4779 -3540.122 L -762.8112 -3550.7885 C -762.6377 -3550.962 -762.3563 -3550.962 -762.1827 -3550.7885 L -759.516 -3548.122 C -759.3425 -3547.9483 -759.3425 -3547.667 -759.516 -3547.4933 L -770.1827 -3536.8267 C -770.26605 -3536.7433 -770.3791 -3536.6965 -770.497 -3536.6965 L -773.1636 -3536.6965 C -773.4091 -3536.6965 -773.6081 -3536.8955 -773.6081 -3537.141 Z M -773.1636 -3534.9187 C -773.4091 -3534.9187 -773.6081 -3535.1177 -773.6081 -3535.363 C -773.6081 -3535.6086 -773.4091 -3535.8076 -773.1636 -3535.8076 L -764.2686 -3535.8076 C -764.0231 -3535.8076 -763.8241 -3535.6086 -763.8241 -3535.363 C -763.8241 -3535.1177 -764.0231 -3534.9187 -764.2686 -3534.9187 Z" fill="#c0e0ff"/>
      </g>
    </g>
  </g>
</svg>
