<svg height="25" viewBox="-742.997 -3555.419 25 25" width="25" xmlns="http://www.w3.org/2000/svg"><g fill="none"><path d="m-738.657-3554.9187h16.32c2.1208 0 3.84 1.7192 3.84 3.84v16.32c0 2.1207-1.7192 3.84-3.84 3.84h-16.32c-2.1207 0-3.84-1.7193-3.84-3.84v-16.32c0-2.1208 1.7193-3.84 3.84-3.84z" fill="#666"/><path d="m-738.657-3554.9187h16.32c2.1208 0 3.84 1.7192 3.84 3.84v16.32c0 2.1207-1.7192 3.84-3.84 3.84h-16.32c-2.1207 0-3.84-1.7193-3.84-3.84v-16.32c0-2.1208 1.7193-3.84 3.84-3.84z" stroke="#fff" stroke-linecap="round" stroke-linejoin="round" stroke-width=".25"/><path d="m-738.4699-3543.0633c1.7074-4.4033 6.66115-6.5887 11.0645-4.8814 2.2408.8687 4.0125 2.6407 4.8814 4.8814.03605.093.03605.1963 0 .2893-1.7074 4.4032-6.6612 6.5887-11.0645 4.8813-2.2408-.8689-4.0125-2.6406-4.8814-4.8813-.0361-.093-.0361-.1963 0-.2893zm5.1706 4.4247c3.9429 1.5289 8.3726-.3857 9.97165-4.2801-.80665-1.9627-2.38425-3.5113-4.36695-4.2803-3.9429-1.5287-8.3727.386-9.9717 4.2803.8067 1.9627 2.3843 3.5113 4.367 4.2801zm2.8023-1.0801c-1.7673 0-3.2-1.4327-3.2-3.2s1.4327-3.2 3.2-3.2 3.2 1.4327 3.2 3.2-1.4327 3.2-3.2 3.2zm0-.8c1.3255 0 2.4-1.0745 2.4-2.4 0-1.3253-1.0745-2.4-2.4-2.4-1.32545 0-2.4 1.0747-2.4 2.4 0 1.3255 1.07455 2.4 2.4 2.4z" fill="#c0e0ff"/></g></svg>