<svg height="25" viewBox="-778.997 -3555.419 25 25" width="25" xmlns="http://www.w3.org/2000/svg"><g fill="none"><path d="m-774.657-3554.9187h16.32c2.1208 0 3.84 1.7192 3.84 3.84v16.32c0 2.1207-1.7192 3.84-3.84 3.84h-16.32c-2.1207 0-3.84-1.7193-3.84-3.84v-16.32c0-2.1208 1.7193-3.84 3.84-3.84z" fill="#666"/><path d="m-774.657-3554.9187h16.32c2.1208 0 3.84 1.7192 3.84 3.84v16.32c0 2.1207-1.7192 3.84-3.84 3.84h-16.32c-2.1207 0-3.84-1.7193-3.84-3.84v-16.32c0-2.1208 1.7193-3.84 3.84-3.84z" stroke="#fff" stroke-linecap="round" stroke-linejoin="round" stroke-width=".25"/><path d="m-770.6811-3537.5854 10.2223-10.2222-2.0382-2.0381-10.2222 10.2222v2.0381zm-2.927.4444v-2.6666c0-.1179.0468-.2309.1302-.3144l10.6667-10.6665c.1735-.1735.4549-.1735.6285 0l2.6667 2.6665c.1735.1737.1735.455 0 .6287l-10.6667 10.6666c-.08335.0834-.1964.1302-.3143.1302h-2.6666c-.2455 0-.4445-.199-.4445-.4445zm.4445 2.2223c-.2455 0-.4445-.199-.4445-.4443 0-.2456.199-.4446.4445-.4446h8.895c.2455 0 .4445.199.4445.4446 0 .2453-.199.4443-.4445.4443z" fill="#c0e0ff"/></g></svg>