<svg height="25" viewBox="-742.997 -3555.419 25 25" width="25" xmlns="http://www.w3.org/2000/svg"><g fill="none"><path d="M-738.657-3554.919h16.32a3.84 3.84 0 0 1 3.84 3.84v16.32a3.84 3.84 0 0 1-3.84 3.84h-16.32a3.84 3.84 0 0 1-3.84-3.84v-16.32a3.84 3.84 0 0 1 3.84-3.84z" fill="#666"/><path d="M-738.657-3554.919h16.32a3.84 3.84 0 0 1 3.84 3.84v16.32a3.84 3.84 0 0 1-3.84 3.84h-16.32a3.84 3.84 0 0 1-3.84-3.84v-16.32a3.84 3.84 0 0 1 3.84-3.84z" stroke="#fff" stroke-linecap="round" stroke-linejoin="round" stroke-width=".25"/><path d="M-738.47-3543.063a8.551 8.551 0 0 1 15.946 0 .4.4 0 0 1 0 .289 8.551 8.551 0 0 1-15.946 0 .4.4 0 0 1 0-.29zm5.17 4.424a7.751 7.751 0 0 0 9.972-4.28 7.752 7.752 0 0 0-14.338 0 7.751 7.751 0 0 0 4.367 4.28zm2.803-1.08a3.2 3.2 0 1 1 0-6.4 3.2 3.2 0 0 1 0 6.4zm0-.8a2.4 2.4 0 1 0 0-4.8 2.4 2.4 0 0 0 0 4.8z" fill="#c0e0ff"/></g></svg>