<svg height="25" viewBox="-814.997 -3555.419 25 25" width="25" xmlns="http://www.w3.org/2000/svg"><g fill="none"><path d="m-810.657-3554.9187h16.32c2.1208 0 3.84 1.7192 3.84 3.84v16.32c0 2.1207-1.7192 3.84-3.84 3.84h-16.32c-2.1207 0-3.84-1.7193-3.84-3.84v-16.32c0-2.1208 1.7193-3.84 3.84-3.84z" fill="#666"/><path d="m-810.657-3554.9187h16.32c2.1208 0 3.84 1.7192 3.84 3.84v16.32c0 2.1207-1.7192 3.84-3.84 3.84h-16.32c-2.1207 0-3.84-1.7193-3.84-3.84v-16.32c0-2.1208 1.7193-3.84 3.84-3.84z" stroke="#fff" stroke-linecap="round" stroke-linejoin="round" stroke-width=".25"/><path d="m-804.9033-3545.5854h-3.3714c-.7364 0-1.3334.597-1.3334 1.3334v5.3333c0 .7364.597 1.3333 1.3334 1.3333h11.5555c.7364 0 1.3333-.5969 1.3333-1.3333v-5.3333c0-.7364-.5969-1.3334-1.3333-1.3334h-3.5555c-.2455 0-.4445-.199-.4445-.4446 0-.2453.199-.4443.4445-.4443h3.5555c1.2273 0 2.2222.995 2.2222 2.2223v5.3333c0 1.2273-.9949 2.2222-2.2222 2.2222h-11.5555c-1.2273 0-2.2223-.9949-2.2223-2.2222v-5.3333c0-1.2273.995-2.2223 2.2223-2.2223h3.3714l-1.9079-1.9077c-.1736-.1738-.1736-.455 0-.6287.1735-.1736.4549-.1736.6285 0l2.6667 2.6667c.1735.1735.1735.455 0 .6285l-2.6667 2.6665c-.1736.1737-.455.1737-.6285 0-.1736-.1734-.1736-.455 0-.6284z" fill="#c0e0ff"/></g></svg>