<svg height="25" viewBox="-850.997 -3555.419 25 25" width="25" xmlns="http://www.w3.org/2000/svg"><g fill="none"><path d="m-846.657-3554.9187h16.32c2.1208 0 3.84 1.7192 3.84 3.84v16.32c0 2.1207-1.7192 3.84-3.84 3.84h-16.32c-2.1207 0-3.84-1.7193-3.84-3.84v-16.32c0-2.1208 1.7193-3.84 3.84-3.84z" fill="#666"/><path d="m-846.657-3554.9187h16.32c2.1208 0 3.84 1.7192 3.84 3.84v16.32c0 2.1207-1.7192 3.84-3.84 3.84h-16.32c-2.1207 0-3.84-1.7193-3.84-3.84v-16.32c0-2.1208 1.7193-3.84 3.84-3.84z" stroke="#fff" stroke-linecap="round" stroke-linejoin="round" stroke-width=".25"/><path d="m-836.6627-3542.9187h-6.2343c-.2209 0-.4-.1791-.4-.4s.1791-.4.4-.4h6.2343l-1.7171-1.7173c-.1562-.156-.1562-.4093 0-.5655.1562-.1563.4095-.1563.5657 0l2.4 2.4c.1562.1562.1562.4095 0 .5655l-2.4 2.4c-.1562.1564-.4095.1564-.5657 0-.1562-.156-.1562-.4093 0-.5655zm-3.4343-5.2c0 .2209-.1791.4-.4.4s-.4-.1791-.4-.4c0-1.1046.8955-2 2-2h6.4c1.1046 0 2 .8954 2 2v10.4c0 1.1047-.8954 2-2 2h-6.4c-1.1045 0-2-.8953-2-2 0-.2209.1791-.4.4-.4s.4.1791.4.4c0 .6627.5373 1.2 1.2 1.2h6.4c.6628 0 1.2-.5373 1.2-1.2v-10.4c0-.6627-.5372-1.2-1.2-1.2h-6.4c-.6627 0-1.2.5373-1.2 1.2zm-2 11.6c.2209 0 .4.1791.4.4s-.1791.4-.4.4h-2.4c-1.1045 0-2-.8953-2-2v-10.4c0-1.1046.8955-2 2-2h2.4c.2209 0 .4.1791.4.4s-.1791.4-.4.4h-2.4c-.6627 0-1.2.5373-1.2 1.2v10.4c0 .6627.5373 1.2 1.2 1.2z" fill="#c0e0ff"/></g></svg>