<svg height="25" viewBox="-850.997 -3555.419 25 25" width="25" xmlns="http://www.w3.org/2000/svg"><g fill="none"><path d="M-846.657-3554.919h16.32a3.84 3.84 0 0 1 3.84 3.84v16.32a3.84 3.84 0 0 1-3.84 3.84h-16.32a3.84 3.84 0 0 1-3.84-3.84v-16.32a3.84 3.84 0 0 1 3.84-3.84z" fill="#666"/><path d="M-846.657-3554.919h16.32a3.84 3.84 0 0 1 3.84 3.84v16.32a3.84 3.84 0 0 1-3.84 3.84h-16.32a3.84 3.84 0 0 1-3.84-3.84v-16.32a3.84 3.84 0 0 1 3.84-3.84z" stroke="#fff" stroke-linecap="round" stroke-linejoin="round" stroke-width=".25"/><path d="M-836.663-3542.919h-6.234a.4.4 0 0 1 0-.8h6.234l-1.717-1.717a.4.4 0 1 1 .566-.566l2.4 2.4a.4.4 0 0 1 0 .566l-2.4 2.4a.4.4 0 1 1-.566-.566zm-3.434-5.2a.4.4 0 0 1-.8 0 2 2 0 0 1 2-2h6.4a2 2 0 0 1 2 2v10.4a2 2 0 0 1-2 2h-6.4a2 2 0 0 1-2-2 .4.4 0 0 1 .8 0 1.2 1.2 0 0 0 1.2 1.2h6.4a1.2 1.2 0 0 0 1.2-1.2v-10.4a1.2 1.2 0 0 0-1.2-1.2h-6.4a1.2 1.2 0 0 0-1.2 1.2zm-2 11.6a.4.4 0 0 1 0 .8h-2.4a2 2 0 0 1-2-2v-10.4a2 2 0 0 1 2-2h2.4a.4.4 0 0 1 0 .8h-2.4a1.2 1.2 0 0 0-1.2 1.2v10.4a1.2 1.2 0 0 0 1.2 1.2z" fill="#c0e0ff"/></g></svg>