<svg height="25" viewBox="-778.997 -3555.419 25 25" width="25" xmlns="http://www.w3.org/2000/svg"><g fill="none"><path d="M-774.657-3554.919h16.32a3.84 3.84 0 0 1 3.84 3.84v16.32a3.84 3.84 0 0 1-3.84 3.84h-16.32a3.84 3.84 0 0 1-3.84-3.84v-16.32a3.84 3.84 0 0 1 3.84-3.84z" fill="#666"/><path d="M-774.657-3554.919h16.32a3.84 3.84 0 0 1 3.84 3.84v16.32a3.84 3.84 0 0 1-3.84 3.84h-16.32a3.84 3.84 0 0 1-3.84-3.84v-16.32a3.84 3.84 0 0 1 3.84-3.84z" stroke="#fff" stroke-linecap="round" stroke-linejoin="round" stroke-width=".25"/><path d="M-770.681-3537.585l10.222-10.223-2.038-2.038-10.222 10.222v2.039zm-2.927.444v-2.667c0-.118.047-.23.13-.314l10.667-10.667a.445.445 0 0 1 .628 0l2.667 2.667a.445.445 0 0 1 0 .629l-10.667 10.666a.444.444 0 0 1-.314.13h-2.667a.444.444 0 0 1-.444-.444zm.444 2.222a.444.444 0 1 1 0-.889h8.895a.445.445 0 0 1 0 .89z" fill="#c0e0ff"/></g></svg>