<svg height="25" viewBox="-814.997 -3555.419 25 25" width="25" xmlns="http://www.w3.org/2000/svg"><g fill="none"><path d="M-810.657-3554.919h16.32a3.84 3.84 0 0 1 3.84 3.84v16.32a3.84 3.84 0 0 1-3.84 3.84h-16.32a3.84 3.84 0 0 1-3.84-3.84v-16.32a3.84 3.84 0 0 1 3.84-3.84z" fill="#666"/><path d="M-810.657-3554.919h16.32a3.84 3.84 0 0 1 3.84 3.84v16.32a3.84 3.84 0 0 1-3.84 3.84h-16.32a3.84 3.84 0 0 1-3.84-3.84v-16.32a3.84 3.84 0 0 1 3.84-3.84z" stroke="#fff" stroke-linecap="round" stroke-linejoin="round" stroke-width=".25"/><path d="M-804.903-3545.585h-3.372c-.736 0-1.333.597-1.333 1.333v5.333c0 .737.597 1.334 1.333 1.334h11.556c.736 0 1.333-.597 1.333-1.334v-5.333c0-.736-.597-1.333-1.333-1.333h-3.556a.445.445 0 0 1 0-.89h3.556c1.227 0 2.222.996 2.222 2.223v5.333a2.222 2.222 0 0 1-2.222 2.222h-11.556a2.222 2.222 0 0 1-2.222-2.222v-5.333c0-1.227.995-2.222 2.222-2.222h3.372l-1.908-1.908a.445.445 0 0 1 .628-.629l2.667 2.667a.445.445 0 0 1 0 .628l-2.667 2.667a.444.444 0 1 1-.628-.628z" fill="#c0e0ff"/></g></svg>