<svg height="24.750025" viewBox="-648.3228 -3578.94 24.750035 24.750025" width="24.750035" xmlns="http://www.w3.org/2000/svg"><g fill="none"><path d="m-646.7478-3572.6193 10.08-.48 2.4 3.36 9.12.72v13.44h-21.6z" fill="#666566"/><path d="m-644.9478-3572.565c-.9941 0-1.8.806-1.8 1.8v13.2c0 .9942.8059 1.8 1.8 1.8h18c.99414 0 1.8-.8058 1.8-1.8v-9.6c0-.994-.80586-1.8-1.8-1.8h-6.6c-1.3255 0-2.4-1.0744-2.4-2.4 0-.6626-.53724-1.2-1.2-1.2zm0-1.2h7.8c1.3255 0 2.4 1.0746 2.4 2.4 0 .663.5373 1.2 1.2 1.2h6.6c1.6569 0 3 1.3433 3 3v9.6c0 1.657-1.3431 3-3 3h-18c-1.65685 0-3-1.343-3-3v-13.2c0-1.6567 1.34315-3 3-3z" fill="#f9b841"/><path d="m-640.28-3561.1484c.1491.174.1325.439-.0414.588-.1739.1491-.4389.1324-.588-.0414l-2.48446-2.8985c-.13254-.1574-.13254-.381 0-.5383l2.48446-2.8984c.1491-.174.4141-.1906.588-.0416.1739.1491.1905.4141.0414.588l-2.2526 2.6253 2.2526 2.6253zm.8861 5.4162c-.09936.2072-.3395.2982-.54656.1987-.20704-.0995-.29814-.3395-.19874-.5465l5.7971-12.4224c.09934-.207.3395-.2981.54654-.1986.20706.0993.29816.3394.19876.5465zm5.9379-7.354c-.1491-.1738-.1325-.4388.0414-.588.1739-.1491.4389-.1325.588.0412l2.48445 2.8987c.1325.1573.1325.381 0 .5383l-2.48445 2.8986c-.1491.1739-.4141.1904-.588.0414s-.1905-.414-.0414-.588l2.2526-2.6253-2.2526-2.6252z" fill="#f9b841"/><path d="m-640.28-3561.1484c.1491.174.1325.439-.0414.588-.1739.1491-.4389.1324-.588-.0414l-2.48446-2.8985c-.13254-.1574-.13254-.381 0-.5383l2.48446-2.8984c.1491-.174.4141-.1906.588-.0416.1739.1491.1905.4141.0414.588l-2.2526 2.6253 2.2526 2.6253zm.8861 5.4162c-.09936.2072-.3395.2982-.54656.1987-.20704-.0995-.29814-.3395-.19874-.5465l5.7971-12.4224c.09934-.207.3395-.2981.54654-.1986.20706.0993.29816.3394.19876.5465zm5.9379-7.354c-.1491-.1738-.1325-.4388.0414-.588.1739-.1491.4389-.1325.588.0412l2.48445 2.8987c.1325.1573.1325.381 0 .5383l-2.48445 2.8986c-.1491.1739-.4141.1904-.588.0414s-.1905-.414-.0414-.588l2.2526-2.6253-2.2526-2.6252z" stroke="#cf7837" stroke-linejoin="round" stroke-width=".25"/></g></svg>