<svg height="24.750025" viewBox="-614.6491 -3558.148 24.750035 24.750025" width="24.750035" xmlns="http://www.w3.org/2000/svg"><g fill="none"><path d="m-612.9821-3551.6874 10.08-.48 2.4 3.36 9.12.72v13.44h-21.6z" fill="#666566"/><path d="m-611.2741-3551.773c-.9941 0-1.8.806-1.8 1.8v13.2c0 .994.8059 1.8 1.8 1.8h18c.9941 0 1.8-.806 1.8-1.8v-9.6c0-.994-.8059-1.8-1.8-1.8h-6.6c-1.3255 0-2.4-1.0746-2.4-2.4 0-.663-.5373-1.2-1.2-1.2zm0-1.2h7.8c1.3255 0 2.4 1.0744 2.4 2.4 0 .6626.53725 1.2 1.2 1.2h6.6c1.65686 0 3 1.343 3 3v9.6c0 1.6568-1.34314 3-3 3h-18c-1.6569 0-3-1.3432-3-3v-13.2c0-1.657 1.3431-3 3-3z" fill="#c6c8cb"/><path d="m-595.37705-3538.682 2.24685 1.021c.5801.264.95255.8422.95255 1.4795v.4629c0 .8976-.72755 1.625-1.625 1.625h-7.15c-.89745 0-1.625-.7274-1.625-1.625v-.4629c0-.6373.37245-1.2155.95255-1.4795l2.24685-1.021c-.76055-.595-1.2494-1.5212-1.2494-2.5616 0-1.7949 1.45505-3.25 3.25-3.25s3.25 1.4551 3.25 3.25c0 1.0404-.48885 1.9666-1.2494 2.5616zm-3.32575.407-2.6533 1.206c-.3481.158-.57155.505-.57155.8875v.4629c0 .5386.43655.975.975.975h7.15c.53845 0 .975-.4364.975-.975v-.4629c0-.3825-.22345-.7295-.57155-.8875l-2.6533-1.206c-.4047.1808-.8532.2814-1.32515.2814s-.92045-.1006-1.32515-.2814zm1.32515-.3686c1.43595 0 2.6-1.1641 2.6-2.6 0-1.436-1.16405-2.6-2.6-2.6s-2.6 1.164-2.6 2.6c0 1.4359 1.16405 2.6 2.6 2.6z" fill="#c6c8cb"/><path d="m-595.37705-3538.682 2.24685 1.021c.5801.264.95255.8422.95255 1.4795v.4629c0 .8976-.72755 1.625-1.625 1.625h-7.15c-.89745 0-1.625-.7274-1.625-1.625v-.4629c0-.6373.37245-1.2155.95255-1.4795l2.24685-1.021c-.76055-.595-1.2494-1.5212-1.2494-2.5616 0-1.7949 1.45505-3.25 3.25-3.25s3.25 1.4551 3.25 3.25c0 1.0404-.48885 1.9666-1.2494 2.5616zm-3.32575.407-2.6533 1.206c-.3481.158-.57155.505-.57155.8875v.4629c0 .5386.43655.975.975.975h7.15c.53845 0 .975-.4364.975-.975v-.4629c0-.3825-.22345-.7295-.57155-.8875l-2.6533-1.206c-.4047.1808-.8532.2814-1.32515.2814s-.92045-.1006-1.32515-.2814zm1.32515-.3686c1.43595 0 2.6-1.1641 2.6-2.6 0-1.436-1.16405-2.6-2.6-2.6s-2.6 1.164-2.6 2.6c0 1.4359 1.16405 2.6 2.6 2.6z" stroke="#c6c8cb" stroke-linejoin="round" stroke-width=".25"/></g></svg>