<svg height="24.75" viewBox="-678.689 -3557.245 24.75 24.75" width="24.75" xmlns="http://www.w3.org/2000/svg"><g fill="none"><path d="M-677.114-3550.925l10.08-.48 2.4 3.36 9.12.72v13.44h-21.6z" fill="#666566"/><path d="M-675.314-3550.87a1.8 1.8 0 0 0-1.8 1.8v13.2a1.8 1.8 0 0 0 1.8 1.8h18a1.8 1.8 0 0 0 1.8-1.8v-9.6a1.8 1.8 0 0 0-1.8-1.8h-6.6a2.4 2.4 0 0 1-2.4-2.4 1.2 1.2 0 0 0-1.2-1.2zm0-1.2h7.8a2.4 2.4 0 0 1 2.4 2.4 1.2 1.2 0 0 0 1.2 1.2h6.6a3 3 0 0 1 3 3v9.6a3 3 0 0 1-3 3h-18a3 3 0 0 1-3-3v-13.2a3 3 0 0 1 3-3z" fill="#f8b941"/><path d="M-665.97-3541.084l3.51.004c.169 0 .3.131.3.3s-.131.301-.3.301h-3.515v3.514c0 .17-.131.301-.3.301-.17 0-.301-.131-.301-.3v-3.515l-3.506-.008c-.17 0-.3-.132-.3-.301s.13-.3.3-.3h3.514v-3.507a.29.29 0 0 1 .297-.296.29.29 0 0 1 .296.296v3.515z" fill="#f8b941"/><path d="M-665.97-3541.084l3.51.004c.169 0 .3.131.3.3s-.131.301-.3.301h-3.515v3.514c0 .17-.131.301-.3.301-.17 0-.301-.131-.301-.3v-3.515l-3.506-.008c-.17 0-.3-.132-.3-.301s.13-.3.3-.3h3.514v-3.507a.29.29 0 0 1 .297-.296.29.29 0 0 1 .296.296v3.515z" stroke="#f9b941" stroke-linejoin="round" stroke-width=".5"/></g></svg>