<svg height="24.750025" viewBox="-680.7606 -3558.148 24.750035 24.750025" width="24.750035" xmlns="http://www.w3.org/2000/svg"><g fill="none"><path d="m-679.1856-3551.8276 10.08-.48 2.40004 3.3601 9.12001.72v13.44h-21.60005z" fill="#666466"/><path d="m-677.38556-3551.773c-.99414 0-1.80004.806-1.80004 1.8v13.2c0 .994.8059 1.8 1.80004 1.8h18.00002c.99414 0 1.80004-.806 1.80004-1.8v-9.6c0-.994-.8059-1.8-1.80004-1.8h-6.60001c-1.32545 0-2.4-1.0746-2.4-2.4 0-.663-.53725-1.2-1.2-1.2zm0-1.2h7.80001c1.32545 0 2.4 1.0744 2.4 2.4 0 .6626.53725 1.2 1.2 1.2h6.60001c1.65684 0 3.00004 1.343 3.00004 3v9.6c0 1.6568-1.3432 3-3.00004 3h-18.00002c-1.65684 0-3.00004-1.3432-3.00004-3v-13.2c0-1.657 1.3432-3 3.00004-3z" fill="#c6c8cb"/><path d="m-659.5822-3540.641v-.6744c0-.5589-.4531-1.0119-1.01195-1.0119h-3.71045c-.7451 0-1.3492-.6041-1.3492-1.3493 0-.3724-.30204-.6744-.6746-.6744h-4.38506c-.55884 0-1.01194.453-1.01194 1.0117v7.4209c0 .5588.4531 1.0119 1.01194 1.0119h.67466c.5588 0 1.0119-.4531 1.0119-1.0119v-3.3731c0-.9315.7551-1.6865 1.68655-1.6865h6.7462c.37965 0 .73005.1254 1.01195.337zm0 1.3495c0-.5589-.4531-1.012-1.01195-1.012h-6.7462c-.55885 0-1.01195.4531-1.01195 1.012v3.3731c0 .3797-.12545.73-.3372 1.0119h8.09535c.55885 0 1.01195-.4531 1.01195-1.0119zm-11.13126-5.7345h4.38506c.74514 0 1.3492.6043 1.3492 1.3494 0 .3726.30206.6746.6746.6746h3.71045c.93145 0 1.68655.755 1.68655 1.6866v5.397c0 .9314-.7551 1.6864-1.68655 1.6864h-10.11931c-.93144 0-1.68654-.755-1.68654-1.6864v-7.4209c0-.9314.7551-1.6867 1.68654-1.6867z" fill="#ccc"/><path d="m-659.5822-3540.641v-.6744c0-.5589-.4531-1.0119-1.01195-1.0119h-3.71045c-.7451 0-1.3492-.6041-1.3492-1.3493 0-.3724-.30204-.6744-.6746-.6744h-4.38506c-.55884 0-1.01194.453-1.01194 1.0117v7.4209c0 .5588.4531 1.0119 1.01194 1.0119h.67466c.5588 0 1.0119-.4531 1.0119-1.0119v-3.3731c0-.9315.7551-1.6865 1.68655-1.6865h6.7462c.37965 0 .73005.1254 1.01195.337zm0 1.3495c0-.5589-.4531-1.012-1.01195-1.012h-6.7462c-.55885 0-1.01195.4531-1.01195 1.012v3.3731c0 .3797-.12545.73-.3372 1.0119h8.09535c.55885 0 1.01195-.4531 1.01195-1.0119zm-11.13126-5.7345h4.38506c.74514 0 1.3492.6043 1.3492 1.3494 0 .3726.30206.6746.6746.6746h3.71045c.93145 0 1.68655.755 1.68655 1.6866v5.397c0 .9314-.7551 1.6864-1.68655 1.6864h-10.11931c-.93144 0-1.68654-.755-1.68654-1.6864v-7.4209c0-.9314.7551-1.6867 1.68654-1.6867z" stroke="#c6c8cb" stroke-linejoin="round" stroke-width=".5"/></g></svg>