<svg height="24.75" viewBox="-614.649 -3558.148 24.75 24.75" width="24.75" xmlns="http://www.w3.org/2000/svg"><g fill="none"><path d="M-612.982-3551.687l10.08-.48 2.4 3.36 9.12.72v13.44h-21.6z" fill="#666566"/><path d="M-611.274-3551.773a1.8 1.8 0 0 0-1.8 1.8v13.2a1.8 1.8 0 0 0 1.8 1.8h18a1.8 1.8 0 0 0 1.8-1.8v-9.6a1.8 1.8 0 0 0-1.8-1.8h-6.6a2.4 2.4 0 0 1-2.4-2.4 1.2 1.2 0 0 0-1.2-1.2zm0-1.2h7.8a2.4 2.4 0 0 1 2.4 2.4 1.2 1.2 0 0 0 1.2 1.2h6.6a3 3 0 0 1 3 3v9.6a3 3 0 0 1-3 3h-18a3 3 0 0 1-3-3v-13.2a3 3 0 0 1 3-3z" fill="#8eed62"/><path d="M-600.274-3541.03l2.247 1.02c.58.264.953.843.953 1.48v.463c0 .897-.728 1.625-1.625 1.625h-7.15a1.625 1.625 0 0 1-1.625-1.625v-.463c0-.637.372-1.216.952-1.48l2.247-1.02a3.25 3.25 0 1 1 4.001 0zm-3.325.406l-2.654 1.206a.975.975 0 0 0-.571.888v.463c0 .538.436.975.975.975h7.15a.975.975 0 0 0 .975-.975v-.463a.975.975 0 0 0-.572-.887l-2.653-1.207c-.405.181-.853.282-1.325.282s-.92-.1-1.325-.282zm1.325-.368a2.6 2.6 0 1 0 0-5.2 2.6 2.6 0 0 0 0 5.2z" fill="#8eed62"/><path d="M-600.274-3541.03l2.247 1.02c.58.264.953.843.953 1.48v.463c0 .897-.728 1.625-1.625 1.625h-7.15a1.625 1.625 0 0 1-1.625-1.625v-.463c0-.637.372-1.216.952-1.48l2.247-1.02a3.25 3.25 0 1 1 4.001 0zm-3.325.406l-2.654 1.206a.975.975 0 0 0-.571.888v.463c0 .538.436.975.975.975h7.15a.975.975 0 0 0 .975-.975v-.463a.975.975 0 0 0-.572-.887l-2.653-1.207c-.405.181-.853.282-1.325.282s-.92-.1-1.325-.282zm1.325-.368a2.6 2.6 0 1 0 0-5.2 2.6 2.6 0 0 0 0 5.2z" stroke="#8eed62" stroke-linejoin="round" stroke-width=".25"/></g></svg>