<svg height="24.750025" viewBox="-648.14144 -3580.267 24.750035 24.750025" width="24.750035" xmlns="http://www.w3.org/2000/svg"><g fill="none"><path d="m-646.56644-3573.9463 10.08004-.48 2.4 3.36 9.12.72v13.44h-21.60004z" fill="#666566"/><path d="m-644.7664-3573.892c-.99415 0-1.8.806-1.8 1.8v13.2c0 .9943.80585 1.8 1.8 1.8h18c.9941 0 1.8-.8057 1.8-1.8v-9.6c0-.994-.8059-1.8-1.8-1.8h-6.6c-1.3255 0-2.4-1.0744-2.4-2.4 0-.6626-.5373-1.2-1.2-1.2zm0-1.2h7.8c1.32546 0 2.4 1.0746 2.4 2.4 0 .663.5372 1.2 1.2 1.2h6.6c1.65684 0 3 1.3433 3 3v9.6c0 1.657-1.34316 3-3 3h-18c-1.6569 0-3-1.343-3-3v-13.2c0-1.6567 1.3431-3 3-3z" fill="#c6c8cb"/><path d="m-634.7941-3562.768c.1283.15.1141.378-.03565.5063-.14971.1284-.37785.1141-.50615-.0356l-2.1388-2.4952c-.114-.1355-.114-.3279 0-.4635l2.1388-2.495c.1283-.15.35644-.164.50615-.0358.14975.1284.16395.3565.03565.5062l-1.9391 2.26 1.9391 2.2599zm.7628 4.6626c-.0855.1784-.2923.2567-.4705.1711-.1782-.0857-.25665-.2923-.1711-.4705l4.9904-10.6937c.08556-.1782.2923-.2565.4705-.1711.17826.0856.2567.2923.1711.4706zm5.1116-6.3306c-.1283-.1498-.11404-.378.0357-.5062.1497-.1283.3778-.1141.50614.0356l2.13876 2.4952c.11406.1354.11406.328 0 .4634l-2.13876 2.4952c-.12834.1498-.35644.1638-.50614.0358-.14974-.1284-.164-.3566-.0357-.5063l1.93916-2.2599-1.93916-2.2598z" fill="#ccc"/><path d="m-634.7941-3562.768c.1283.15.1141.378-.03565.5063-.14971.1284-.37785.1141-.50615-.0356l-2.1388-2.4952c-.114-.1355-.114-.3279 0-.4635l2.1388-2.495c.1283-.15.35644-.164.50615-.0358.14975.1284.16395.3565.03565.5062l-1.9391 2.26 1.9391 2.2599zm.7628 4.6626c-.0855.1784-.2923.2567-.4705.1711-.1782-.0857-.25665-.2923-.1711-.4705l4.9904-10.6937c.08556-.1782.2923-.2565.4705-.1711.17826.0856.2567.2923.1711.4706zm5.1116-6.3306c-.1283-.1498-.11404-.378.0357-.5062.1497-.1283.3778-.1141.50614.0356l2.13876 2.4952c.11406.1354.11406.328 0 .4634l-2.13876 2.4952c-.12834.1498-.35644.1638-.50614.0358-.14974-.1284-.164-.3566-.0357-.5063l1.93916-2.2599-1.93916-2.2598z" stroke="#c6c8cb" stroke-linejoin="round" stroke-width=".5"/></g></svg>