<svg height="24.75" viewBox="-614.649 -3558.148 24.75 24.75" width="24.75" xmlns="http://www.w3.org/2000/svg"><g fill="none"><path d="m-612.9821-3551.6874 10.08-.48 2.4 3.36 9.12.72v13.44h-21.6z" fill="#666566"/><path d="m-611.2741-3551.773c-.9941 0-1.8.806-1.8 1.8v13.2c0 .994.8059 1.8 1.8 1.8h18c.9941 0 1.8-.806 1.8-1.8v-9.6c0-.994-.8059-1.8-1.8-1.8h-6.6c-1.3255 0-2.4-1.0746-2.4-2.4 0-.663-.5373-1.2-1.2-1.2zm0-1.2h7.8c1.3255 0 2.4 1.0744 2.4 2.4 0 .6626.53725 1.2 1.2 1.2h6.6c1.65686 0 3 1.343 3 3v9.6c0 1.6568-1.34314 3-3 3h-18c-1.6569 0-3-1.3432-3-3v-13.2c0-1.657 1.3431-3 3-3z" fill="#8eed62"/><path d="m-600.2735-3541.0306 2.2468 1.0213c.5801.2637.9526.8423.9526 1.4793v.463c0 .8974-.72756 1.625-1.625 1.625h-7.15c-.8975 0-1.625-.7276-1.625-1.625v-.463c0-.637.37244-1.2156.95255-1.4793l2.24685-1.0213c-.76056-.5948-1.2494-1.521-1.2494-2.5614 0-1.795 1.45506-3.25 3.25-3.25 1.7949 0 3.25 1.455 3.25 3.25 0 1.0404-.4889 1.9666-1.2494 2.5614zm-3.3258.407-2.6533 1.2061c-.34805.1582-.5715.5052-.5715.8875v.463c0 .5385.4365.975.975.975h7.15c.53846 0 .975-.4365.975-.975v-.463c0-.3823-.2235-.7293-.57156-.8875l-2.65328-1.2061c-.40471.181-.85316.2816-1.32516.2816s-.9205-.1006-1.3252-.2816zm1.3252-.3684c1.4359 0 2.6-1.164 2.6-2.6s-1.1641-2.6-2.6-2.6c-1.43596 0-2.6 1.164-2.6 2.6s1.16404 2.6 2.6 2.6z" fill="#8eed62"/><path d="m-600.2735-3541.0306 2.2468 1.0213c.5801.2637.9526.8423.9526 1.4793v.463c0 .8974-.72756 1.625-1.625 1.625h-7.15c-.8975 0-1.625-.7276-1.625-1.625v-.463c0-.637.37244-1.2156.95255-1.4793l2.24685-1.0213c-.76056-.5948-1.2494-1.521-1.2494-2.5614 0-1.795 1.45506-3.25 3.25-3.25 1.7949 0 3.25 1.455 3.25 3.25 0 1.0404-.4889 1.9666-1.2494 2.5614zm-3.3258.407-2.6533 1.2061c-.34805.1582-.5715.5052-.5715.8875v.463c0 .5385.4365.975.975.975h7.15c.53846 0 .975-.4365.975-.975v-.463c0-.3823-.2235-.7293-.57156-.8875l-2.65328-1.2061c-.40471.181-.85316.2816-1.32516.2816s-.9205-.1006-1.3252-.2816zm1.3252-.3684c1.4359 0 2.6-1.164 2.6-2.6s-1.1641-2.6-2.6-2.6c-1.43596 0-2.6 1.164-2.6 2.6s1.16404 2.6 2.6 2.6z" stroke="#8eed62" stroke-linejoin="round" stroke-width=".25"/></g></svg>