<svg height="24.750025" viewBox="-614.64914 -3580.267 24.750035 24.750025" width="24.750035" xmlns="http://www.w3.org/2000/svg"><g fill="none"><path d="m-613.07414-3573.9463 10.08004-.48 2.4 3.36 9.12.72v13.44h-21.60004z" fill="#666566"/><path d="m-611.2741-3573.892c-.99414 0-1.8.806-1.8 1.8v13.2c0 .9943.80586 1.8 1.8 1.8h18c.9941 0 1.8-.8057 1.8-1.8v-9.6c0-.994-.8059-1.8-1.8-1.8h-6.6c-1.3255 0-2.4-1.0744-2.4-2.4 0-.6626-.5373-1.2-1.2-1.2zm0-1.2h7.8c1.3255 0 2.4 1.0746 2.4 2.4 0 .663.53724 1.2 1.2 1.2h6.6c1.65685 0 3 1.3433 3 3v9.6c0 1.657-1.34315 3-3 3h-18c-1.6569 0-3-1.343-3-3v-13.2c0-1.6567 1.3431-3 3-3z" fill="#c6c8cb"/><path d="m-603.6431-3561.469h9.4421v-4.8793c0-.623-.45184-1.126-1.0116-1.126h-7.4189c-.55975 0-1.0116.503-1.0116 1.126zm10.1166.3003 1.2679 3.393c.054.1351.08095.2852.08095.4354 0 .623-.45185 1.126-1.01165 1.126h-11.4655c-.1349 0-.263-.0301-.39116-.0901-.51258-.2402-.76214-.9008-.5463-1.4713l1.26796-3.393v-5.1796c0-1.0357.75536-1.8767 1.6861-1.8767h7.4188c.93075 0 1.6861.841 1.6861 1.8767v5.1796zm-10.2313.4504-1.2072 3.2353c-.0742.1877.0067.413.1821.488.0404.0225.08765.03.1281.03h11.4655c.1888 0 .3372-.165.3372-.3753 0-.0527-.0067-.0977-.027-.1427l-1.2072-3.2353zm1.1263 1.5013c-.1888 0-.3372-.165-.3372-.3753 0-.2102.1484-.3753.3372-.3753h.6745c.1888 0 .3372.1651.3372.3753 0 .2103-.1484.3753-.3372.3753zm-.6744 1.5013c-.18885 0-.3372-.1653-.3372-.3753s.14835-.3753.3372-.3753h.6744c.1889 0 .33725.1653.33725.3753s-.14835.3753-.33725.3753zm2.0233 0c-.1888 0-.3372-.1653-.3372-.3753s.1484-.3753.3372-.3753h2.6978c.1888 0 .3372.1653.3372.3753s-.1484.3753-.3372.3753zm4.04665 0c-.18885 0-.33725-.1653-.33725-.3753s.1484-.3753.33725-.3753h.67445c.1888 0 .3372.1653.3372.3753s-.1484.3753-.3372.3753zm2.02335 0c-.1889 0-.33725-.1653-.33725-.3753s.14835-.3753.33725-.3753h.6744c.18885 0 .3372.1653.3372.3753s-.14835.3753-.3372.3753zm-5.39555-1.5013c-.18885 0-.33725-.165-.33725-.3753 0-.2102.1484-.3753.33725-.3753h.67445c.1888 0 .3372.1651.3372.3753 0 .2103-.1484.3753-.3372.3753zm2.02335 0c-.1889 0-.33725-.165-.33725-.3753 0-.2102.14835-.3753.33725-.3753h.6744c.18885 0 .3372.1651.3372.3753 0 .2103-.14835.3753-.3372.3753zm2.0233 0c-.18885 0-.3372-.165-.3372-.3753 0-.2102.14835-.3753.3372-.3753h.6744c.1889 0 .33725.1651.33725.3753 0 .2103-.14835.3753-.33725.3753z" fill="#c6c8cb"/><path d="m-603.6431-3561.469h9.4421v-4.8793c0-.623-.45184-1.126-1.0116-1.126h-7.4189c-.55975 0-1.0116.503-1.0116 1.126zm10.1166.3003 1.2679 3.393c.054.1351.08095.2852.08095.4354 0 .623-.45185 1.126-1.01165 1.126h-11.4655c-.1349 0-.263-.0301-.39116-.0901-.51258-.2402-.76214-.9008-.5463-1.4713l1.26796-3.393v-5.1796c0-1.0357.75536-1.8767 1.6861-1.8767h7.4188c.93075 0 1.6861.841 1.6861 1.8767v5.1796zm-10.2313.4504-1.2072 3.2353c-.0742.1877.0067.413.1821.488.0404.0225.08765.03.1281.03h11.4655c.1888 0 .3372-.165.3372-.3753 0-.0527-.0067-.0977-.027-.1427l-1.2072-3.2353zm1.1263 1.5013c-.1888 0-.3372-.165-.3372-.3753 0-.2102.1484-.3753.3372-.3753h.6745c.1888 0 .3372.1651.3372.3753 0 .2103-.1484.3753-.3372.3753zm-.6744 1.5013c-.18885 0-.3372-.1653-.3372-.3753s.14835-.3753.3372-.3753h.6744c.1889 0 .33725.1653.33725.3753s-.14835.3753-.33725.3753zm2.0233 0c-.1888 0-.3372-.1653-.3372-.3753s.1484-.3753.3372-.3753h2.6978c.1888 0 .3372.1653.3372.3753s-.1484.3753-.3372.3753zm4.04665 0c-.18885 0-.33725-.1653-.33725-.3753s.1484-.3753.33725-.3753h.67445c.1888 0 .3372.1653.3372.3753s-.1484.3753-.3372.3753zm2.02335 0c-.1889 0-.33725-.1653-.33725-.3753s.14835-.3753.33725-.3753h.6744c.18885 0 .3372.1653.3372.3753s-.14835.3753-.3372.3753zm-5.39555-1.5013c-.18885 0-.33725-.165-.33725-.3753 0-.2102.1484-.3753.33725-.3753h.67445c.1888 0 .3372.1651.3372.3753 0 .2103-.1484.3753-.3372.3753zm2.02335 0c-.1889 0-.33725-.165-.33725-.3753 0-.2102.14835-.3753.33725-.3753h.6744c.18885 0 .3372.1651.3372.3753 0 .2103-.14835.3753-.3372.3753zm2.0233 0c-.18885 0-.3372-.165-.3372-.3753 0-.2102.14835-.3753.3372-.3753h.6744c.1889 0 .33725.1651.33725.3753 0 .2103-.14835.3753-.33725.3753z" stroke="#c6c8cb" stroke-linejoin="round" stroke-width=".5"/></g></svg>