<?xml version="1.0" encoding="UTF-8" standalone="no"?>
<!DOCTYPE svg PUBLIC "-//W3C//DTD SVG 1.1//EN" "http://www.w3.org/Graphics/SVG/1.1/DTD/svg11.dtd">
<svg xmlns:xl="http://www.w3.org/1999/xlink" version="1.1" xmlns="http://www.w3.org/2000/svg" xmlns:dc="http://purl.org/dc/elements/1.1/" viewBox="-678.6892 -3557.245 24.750035 24.750025" width="24.750035" height="24.750025">
  <defs/>
  <g id="SOURCES" fill-opacity="1" stroke-dasharray="none" fill="none" stroke="none" stroke-opacity="1">
    <title>SOURCES</title>
    <g id="SOURCES_Dark">
      <title>Dark</title>
      <g id="Graphic_12648"/>
      <g id="Graphic_12647">
        <path d="M -677.1142 -3550.9246 L -667.03416 -3551.4046 L -664.63416 -3548.0446 L -655.51415 -3547.3246 L -655.51415 -3533.8845 L -677.1142 -3533.8845 Z" fill="#666566"/>
      </g>
      <g id="Graphic_12646">
        <path d="M -675.31416 -3550.87 C -676.3083 -3550.87 -677.11416 -3550.0642 -677.11416 -3549.07 L -677.11416 -3535.87 C -677.11416 -3534.876 -676.3083 -3534.07 -675.31416 -3534.07 L -657.3141 -3534.07 C -656.32 -3534.07 -655.5141 -3534.876 -655.5141 -3535.87 L -655.5141 -3545.47 C -655.5141 -3546.4642 -656.32 -3547.27 -657.3141 -3547.27 L -663.91414 -3547.27 C -665.2396 -3547.27 -666.31415 -3548.3446 -666.31415 -3549.67 C -666.31415 -3550.333 -666.8514 -3550.87 -667.51415 -3550.87 Z M -675.31416 -3552.07 L -667.51415 -3552.07 C -666.1887 -3552.07 -665.11415 -3550.9956 -665.11415 -3549.67 C -665.11415 -3549.0074 -664.5769 -3548.47 -663.91414 -3548.47 L -657.3141 -3548.47 C -655.6573 -3548.47 -654.3141 -3547.127 -654.3141 -3545.47 L -654.3141 -3535.87 C -654.3141 -3534.2132 -655.6573 -3532.87 -657.3141 -3532.87 L -675.31416 -3532.87 C -676.971 -3532.87 -678.3142 -3534.2132 -678.3142 -3535.87 L -678.3142 -3549.07 C -678.3142 -3550.727 -676.971 -3552.07 -675.31416 -3552.07 Z" fill="#f8b941"/>
      </g>
      <g id="Group_12644">
        <title>close</title>
        <g id="Graphic_12645">
          <path d="M -665.9706 -3541.0844 L -662.4605 -3541.08 C -662.2911 -3541.08 -662.15985 -3540.949 -662.15985 -3540.7795 C -662.15985 -3540.61 -662.2911 -3540.479 -662.4605 -3540.479 L -665.9748 -3540.479 L -665.9748 -3536.9645 C -665.9748 -3536.795 -666.1061 -3536.664 -666.2755 -3536.664 C -666.4448 -3536.664 -666.5761 -3536.795 -666.5761 -3536.9645 L -666.5761 -3540.479 L -670.082 -3540.4874 C -670.25135 -3540.4874 -670.3826 -3540.6186 -670.3826 -3540.788 C -670.3826 -3540.9574 -670.25135 -3541.0886 -670.082 -3541.0886 L -666.5676 -3541.0886 L -666.5676 -3544.5945 C -666.57185 -3544.7596 -666.43636 -3544.895 -666.2712 -3544.891 C -666.1061 -3544.895 -665.9706 -3544.7596 -665.9748 -3544.5945 L -665.9748 -3541.08 Z" fill="#f8b941"/>
          <path d="M -665.9706 -3541.0844 L -662.4605 -3541.08 C -662.2911 -3541.08 -662.15985 -3540.949 -662.15985 -3540.7795 C -662.15985 -3540.61 -662.2911 -3540.479 -662.4605 -3540.479 L -665.9748 -3540.479 L -665.9748 -3536.9645 C -665.9748 -3536.795 -666.1061 -3536.664 -666.2755 -3536.664 C -666.4448 -3536.664 -666.5761 -3536.795 -666.5761 -3536.9645 L -666.5761 -3540.479 L -670.082 -3540.4874 C -670.25135 -3540.4874 -670.3826 -3540.6186 -670.3826 -3540.788 C -670.3826 -3540.9574 -670.25135 -3541.0886 -670.082 -3541.0886 L -666.5676 -3541.0886 L -666.5676 -3544.5945 C -666.57185 -3544.7596 -666.43636 -3544.895 -666.2712 -3544.891 C -666.1061 -3544.895 -665.9706 -3544.7596 -665.9748 -3544.5945 L -665.9748 -3541.08 Z" stroke="#f9b941" stroke-linecap="butt" stroke-linejoin="round" stroke-width=".5"/>
        </g>
      </g>
    </g>
  </g>
</svg>
