<svg height="24.75" viewBox="-678.689 -3557.245 24.75 24.75" width="24.75" xmlns="http://www.w3.org/2000/svg"><g fill="none"><path d="m-677.1142-3550.9246 10.08004-.48 2.4 3.36 9.12001.72v13.4401h-21.60005z" fill="#666566"/><path d="m-675.31416-3550.87c-.99414 0-1.8.8058-1.8 1.8v13.2c0 .994.80586 1.8 1.8 1.8h18.00006c.9941 0 1.8-.806 1.8-1.8v-9.6c0-.9942-.8059-1.8-1.8-1.8h-6.60004c-1.32546 0-2.40001-1.0746-2.40001-2.4 0-.663-.53725-1.2-1.2-1.2zm0-1.2h7.80001c1.32545 0 2.4 1.0744 2.4 2.4 0 .6626.53725 1.2 1.20001 1.2h6.60004c1.6568 0 3 1.343 3 3v9.6c0 1.6568-1.3432 3-3 3h-18.00006c-1.65684 0-3.00004-1.3432-3.00004-3v-13.2c0-1.657 1.3432-3 3.00004-3z" fill="#f8b941"/><path d="m-665.9706-3541.0844 3.5101.0044c.1694 0 .30065.131.30065.3005s-.13125.3005-.30065.3005h-3.5143v3.5145c0 .1695-.1313.3005-.3007.3005-.1693 0-.3006-.131-.3006-.3005v-3.5145l-3.5059-.0084c-.16935 0-.3006-.1312-.3006-.3006s.13125-.3006.3006-.3006h3.5144v-3.5059c-.00425-.1651.13124-.3005.2964-.2965.1651-.004.3006.1314.2964.2965v3.5145z" fill="#f8b941"/><path d="m-665.9706-3541.0844 3.5101.0044c.1694 0 .30065.131.30065.3005s-.13125.3005-.30065.3005h-3.5143v3.5145c0 .1695-.1313.3005-.3007.3005-.1693 0-.3006-.131-.3006-.3005v-3.5145l-3.5059-.0084c-.16935 0-.3006-.1312-.3006-.3006s.13125-.3006.3006-.3006h3.5144v-3.5059c-.00425-.1651.13124-.3005.2964-.2965.1651-.004.3006.1314.2964.2965v3.5145z" stroke="#f9b941" stroke-linejoin="round" stroke-width=".5"/></g></svg>