<svg height="24.750025" viewBox="-615.33926 -3608.9723 24.750035 24.750025" width="24.750035" xmlns="http://www.w3.org/2000/svg"><g fill="none"><path d="m-613.76426-3602.652 10.08001-.48 2.40001 3.36 9.12004.72v13.4402h-21.60006z" fill="#666566"/><path d="m-611.96425-3602.5973c-.99411 0-1.8.8058-1.8 1.8v13.2c0 .9943.80589 1.8 1.8 1.8h18.00005c.9941 0 1.8-.8057 1.8-1.8v-9.6c0-.9941-.8059-1.8-1.8-1.8h-6.6c-1.3255 0-2.40004-1.0747-2.40004-2.4 0-.6627-.53726-1.2-1.2-1.2zm0-1.2h7.80001c1.32549 0 2.40004 1.0743 2.40004 2.4 0 .6627.5372 1.2 1.2 1.2h6.6c1.6568 0 3 1.3433 3 3v9.6c0 1.6568-1.3432 3-3 3h-18.00005c-1.65685 0-3-1.3432-3-3v-13.2c0-1.6567 1.34315-3 3-3z" fill="#ff4649"/><path d="m-608.5385-3590.3147h10.5093v-4.8793c0-.623-.503-1.126-1.126-1.126h-8.2573c-.62304 0-1.126.503-1.126 1.126zm11.2599.3003 1.4113 3.393c.06.1351.09005.2854.09005.4354 0 .623-.50295 1.126-1.12599 1.126h-12.76126c-.1501 0-.2927-.03-.43536-.09-.57054-.2403-.84824-.901-.60804-1.4714l1.41125-3.393v-5.1796c0-1.036.84075-1.8766 1.87665-1.8766h8.2573c1.0359 0 1.8766.8406 1.8766 1.8766v5.1796zm-11.3875.4504-1.3437 3.2353c-.08256.1877.0075.4127.2027.488.045.0225.0976.03.1426.03h12.76126c.21018 0 .37534-.1653.37534-.3753 0-.0526-.0075-.0976-.03004-.1427l-1.34366-3.2353zm1.2536 1.5013c-.2102 0-.3753-.1653-.3753-.3753s.1651-.3754.3753-.3754h.7507c.21015 0 .3753.1654.3753.3754s-.16515.3753-.3753.3753zm-.75066 1.5013c-.21018 0-.37534-.1651-.37534-.3753 0-.2103.16516-.3753.37534-.3753h.75066c.2102 0 .3753.165.3753.3753 0 .2102-.1651.3753-.3753.3753zm2.25196 0c-.21016 0-.3753-.1651-.3753-.3753 0-.2103.16514-.3753.3753-.3753h3.0027c.21016 0 .3753.165.3753.3753 0 .2102-.16514.3753-.3753.3753zm4.504 0c-.2102 0-.37534-.1651-.37534-.3753 0-.2103.16514-.3753.37534-.3753h.75065c.21019 0 .37535.165.37535.3753 0 .2102-.16516.3753-.37535.3753zm2.252 0c-.2102 0-.37536-.1651-.37536-.3753 0-.2103.16516-.3753.37536-.3753h.75064c.21016 0 .37536.165.37536.3753 0 .2102-.1652.3753-.37536.3753zm-6.0053-1.5013c-.2102 0-.37534-.1653-.37534-.3753s.16514-.3754.37534-.3754h.75065c.21015 0 .37535.1654.37535.3754s-.1652.3753-.37535.3753zm2.252 0c-.2102 0-.37536-.1653-.37536-.3753s.16516-.3754.37536-.3754h.7506c.2102 0 .37536.1654.37536.3754s-.16516.3753-.37536.3753zm2.25195 0c-.21015 0-.37535-.1653-.37535-.3753s.1652-.3754.37535-.3754h.75065c.2102 0 .37534.1654.37534.3754s-.16514.3753-.37534.3753z" fill="#ff4649"/><path d="m-608.5385-3590.3147h10.5093v-4.8793c0-.623-.503-1.126-1.126-1.126h-8.2573c-.62304 0-1.126.503-1.126 1.126zm11.2599.3003 1.4113 3.393c.06.1351.09005.2854.09005.4354 0 .623-.50295 1.126-1.12599 1.126h-12.76126c-.1501 0-.2927-.03-.43536-.09-.57054-.2403-.84824-.901-.60804-1.4714l1.41125-3.393v-5.1796c0-1.036.84075-1.8766 1.87665-1.8766h8.2573c1.0359 0 1.8766.8406 1.8766 1.8766v5.1796zm-11.3875.4504-1.3437 3.2353c-.08256.1877.0075.4127.2027.488.045.0225.0976.03.1426.03h12.76126c.21018 0 .37534-.1653.37534-.3753 0-.0526-.0075-.0976-.03004-.1427l-1.34366-3.2353zm1.2536 1.5013c-.2102 0-.3753-.1653-.3753-.3753s.1651-.3754.3753-.3754h.7507c.21015 0 .3753.1654.3753.3754s-.16515.3753-.3753.3753zm-.75066 1.5013c-.21018 0-.37534-.1651-.37534-.3753 0-.2103.16516-.3753.37534-.3753h.75066c.2102 0 .3753.165.3753.3753 0 .2102-.1651.3753-.3753.3753zm2.25196 0c-.21016 0-.3753-.1651-.3753-.3753 0-.2103.16514-.3753.3753-.3753h3.0027c.21016 0 .3753.165.3753.3753 0 .2102-.16514.3753-.3753.3753zm4.504 0c-.2102 0-.37534-.1651-.37534-.3753 0-.2103.16514-.3753.37534-.3753h.75065c.21019 0 .37535.165.37535.3753 0 .2102-.16516.3753-.37535.3753zm2.252 0c-.2102 0-.37536-.1651-.37536-.3753 0-.2103.16516-.3753.37536-.3753h.75064c.21016 0 .37536.165.37536.3753 0 .2102-.1652.3753-.37536.3753zm-6.0053-1.5013c-.2102 0-.37534-.1653-.37534-.3753s.16514-.3754.37534-.3754h.75065c.21015 0 .37535.1654.37535.3754s-.1652.3753-.37535.3753zm2.252 0c-.2102 0-.37536-.1653-.37536-.3753s.16516-.3754.37536-.3754h.7506c.2102 0 .37536.1654.37536.3754s-.16516.3753-.37536.3753zm2.25195 0c-.21015 0-.37535-.1653-.37535-.3753s.1652-.3754.37535-.3754h.75065c.2102 0 .37534.1654.37534.3754s-.16514.3753-.37534.3753z" stroke="#9f4c4d" stroke-linejoin="round" stroke-width=".25"/></g></svg>