<svg height="24.750025" viewBox="-658.2528 -3581.3318 24.750035 24.750025" width="24.750035" xmlns="http://www.w3.org/2000/svg"><g fill="none"><path d="m-656.6778-3577.3336 10.08-.48 2.4 3.36 9.12.72v13.44h-21.6z" fill="#666"/><path d="m-654.8778-3577.279c-.9941 0-1.8.8057-1.8 1.8v13.2c0 .994.8059 1.8 1.8 1.8h18c.99414 0 1.8-.806 1.8-1.8v-9.6c0-.9943-.80586-1.8-1.8-1.8h-6.6c-1.3255 0-2.4-1.0747-2.4-2.4 0-.663-.53724-1.2-1.2-1.2zm0-1.2h7.8c1.3255 0 2.4 1.0744 2.4 2.4 0 .6626.5373 1.2 1.2 1.2h6.6c1.6569 0 3 1.343 3 3v9.6c0 1.6567-1.3431 3-3 3h-18c-1.65685 0-3-1.3433-3-3v-13.2c0-1.657 1.34315-3 3-3z" fill="#ccc"/><path d="m-645.4814-3566.155c.1369.1496.1217.3777-.038.506-.1597.1284-.40305.114-.5399-.0356l-2.2813-2.4952c-.1217-.1354-.1217-.3279 0-.4632l2.2813-2.4954c.13685-.1496.3802-.164.5399-.0356.1597.1283.1749.3564.038.506l-2.0684 2.26 2.0684 2.26zm.8137 4.6624c-.0913.1782-.3118.2566-.5019.1711s-.2738-.2925-.1825-.4705l5.323-10.694c.0913-.178.3118-.2564.5019-.171.1901.0857.2738.2924.1825.4706zm5.4523-6.3307c-.1369-.1497-.1217-.3777.038-.5062s.40304-.1141.5399.0355l2.2813 2.4954c.1217.1356.1217.3279 0 .4633l-2.2813 2.4953c-.13686.1497-.3802.164-.5399.0356-.1597-.1283-.1749-.3566-.038-.5062l2.0684-2.2599-2.0684-2.26z" fill="#ccc"/><path d="m-645.4814-3566.155c.1369.1496.1217.3777-.038.506-.1597.1284-.40305.114-.5399-.0356l-2.2813-2.4952c-.1217-.1354-.1217-.3279 0-.4632l2.2813-2.4954c.13685-.1496.3802-.164.5399-.0356.1597.1283.1749.3564.038.506l-2.0684 2.26 2.0684 2.26zm.8137 4.6624c-.0913.1782-.3118.2566-.5019.1711s-.2738-.2925-.1825-.4705l5.323-10.694c.0913-.178.3118-.2564.5019-.171.1901.0857.2738.2924.1825.4706zm5.4523-6.3307c-.1369-.1497-.1217-.3777.038-.5062s.40304-.1141.5399.0355l2.2813 2.4954c.1217.1356.1217.3279 0 .4633l-2.2813 2.4953c-.13686.1497-.3802.164-.5399.0356-.1597-.1283-.1749-.3566-.038-.5062l2.0684-2.2599-2.0684-2.26z" stroke="#ccc" stroke-linejoin="round" stroke-width=".25"/></g></svg>