<?xml version="1.0" encoding="UTF-8" standalone="no"?>
<!DOCTYPE svg PUBLIC "-//W3C//DTD SVG 1.1//EN" "http://www.w3.org/Graphics/SVG/1.1/DTD/svg11.dtd">
<svg xmlns:xl="http://www.w3.org/1999/xlink" version="1.1" xmlns="http://www.w3.org/2000/svg" xmlns:dc="http://purl.org/dc/elements/1.1/" viewBox="-707.8555 -3556.948 24.750035 24.755277" width="24.750035" height="24.755277">
  <defs/>
  <g id="SOURCES" fill-opacity="1" stroke-dasharray="none" fill="none" stroke="none" stroke-opacity="1">
    <title>SOURCES</title>
    <g id="SOURCES_Dark">
      <title>Dark</title>
      <g id="Graphic_12658"/>
      <g id="Graphic_12657">
        <path d="M -706.2805 -3550.6275 L -696.2005 -3551.1075 L -693.8005 -3547.7475 L -684.6805 -3547.0275 L -684.6805 -3533.5875 L -706.2805 -3533.5875 Z" fill="#666466"/>
      </g>
      <g id="Graphic_12656">
        <path d="M -704.4805 -3550.573 C -705.4746 -3550.573 -706.2805 -3549.767 -706.2805 -3548.773 L -706.2805 -3535.573 C -706.2805 -3534.579 -705.4746 -3533.773 -704.4805 -3533.773 L -686.4805 -3533.773 C -685.4864 -3533.773 -684.6805 -3534.579 -684.6805 -3535.573 L -684.6805 -3545.173 C -684.6805 -3546.167 -685.4864 -3546.973 -686.4805 -3546.973 L -693.0805 -3546.973 C -694.406 -3546.973 -695.4805 -3548.0476 -695.4805 -3549.373 C -695.4805 -3550.036 -696.0178 -3550.573 -696.6805 -3550.573 Z M -704.4805 -3551.773 L -696.6805 -3551.773 C -695.355 -3551.773 -694.2805 -3550.6985 -694.2805 -3549.373 C -694.2805 -3548.7103 -693.74325 -3548.173 -693.0805 -3548.173 L -686.4805 -3548.173 C -684.82365 -3548.173 -683.4805 -3546.83 -683.4805 -3545.173 L -683.4805 -3535.573 C -683.4805 -3533.916 -684.82365 -3532.573 -686.4805 -3532.573 L -704.4805 -3532.573 C -706.1374 -3532.573 -707.4805 -3533.916 -707.4805 -3535.573 L -707.4805 -3548.773 C -707.4805 -3550.43 -706.1374 -3551.773 -704.4805 -3551.773 Z" fill="#c0dfff"/>
      </g>
      <g id="Graphic_12655">
        <path d="M -688.2805 -3540.168 L -688.2805 -3540.9678 C -688.2805 -3541.6305 -688.8178 -3542.1678 -689.4805 -3542.1678 L -693.8805 -3542.1678 C -694.7642 -3542.1678 -695.4805 -3542.884 -695.4805 -3543.7678 C -695.4805 -3544.2096 -695.8387 -3544.5678 -696.2805 -3544.5678 L -701.4805 -3544.5678 C -702.1433 -3544.5678 -702.6805 -3544.0305 -702.6805 -3543.3678 L -702.6805 -3534.5678 C -702.6805 -3533.905 -702.1433 -3533.3678 -701.4805 -3533.3678 L -700.6805 -3533.3678 C -700.0178 -3533.3678 -699.4805 -3533.905 -699.4805 -3534.5678 L -699.4805 -3538.5678 C -699.4805 -3539.6724 -698.5851 -3540.5678 -697.4805 -3540.5678 L -689.4805 -3540.5678 C -689.0303 -3540.5678 -688.6148 -3540.419 -688.2805 -3540.168 Z M -688.2805 -3538.5678 C -688.2805 -3539.2305 -688.8178 -3539.7678 -689.4805 -3539.7678 L -697.4805 -3539.7678 C -698.1433 -3539.7678 -698.6805 -3539.2305 -698.6805 -3538.5678 L -698.6805 -3534.5678 C -698.6805 -3534.1175 -698.8293 -3533.702 -699.0804 -3533.3678 L -689.4805 -3533.3678 C -688.8178 -3533.3678 -688.2805 -3533.905 -688.2805 -3534.5678 L -688.2805 -3538.5678 Z M -701.4805 -3545.3678 L -696.2805 -3545.3678 C -695.3969 -3545.3678 -694.6805 -3544.6514 -694.6805 -3543.7678 C -694.6805 -3543.326 -694.32235 -3542.9678 -693.8805 -3542.9678 L -689.4805 -3542.9678 C -688.37595 -3542.9678 -687.4805 -3542.0724 -687.4805 -3540.9678 L -687.4805 -3534.5678 C -687.4805 -3533.4632 -688.37595 -3532.5678 -689.4805 -3532.5678 L -701.4805 -3532.5678 C -702.5851 -3532.5678 -703.4805 -3533.4632 -703.4805 -3534.5678 L -703.4805 -3543.3678 C -703.4805 -3544.4724 -702.5851 -3545.3678 -701.4805 -3545.3678 Z" fill="#c0dfff"/>
      </g>
    </g>
  </g>
</svg>
