<svg height="24.750025" viewBox="-605.6789 -3553.1444 24.750035 24.750025" width="24.750035" xmlns="http://www.w3.org/2000/svg"><g fill="none"><path d="m-604.0776-3549.006 10.08-.48 2.4 3.36 9.12.72v13.44h-21.6z" fill="#666"/><path d="m-602.3039-3549.0918c-.9941 0-1.8.8058-1.8 1.8v13.2c0 .9941.8059 1.8 1.8 1.8h18c.9941 0 1.8-.8059 1.8-1.8v-9.6c0-.9942-.8059-1.8-1.8-1.8h-6.6c-1.3255 0-2.4-1.0745-2.4-2.4 0-.6627-.53725-1.2-1.2-1.2zm0-1.2h7.8c1.3255 0 2.4 1.0745 2.4 2.4 0 .6628.5373 1.2 1.2 1.2h6.6c1.6569 0 3 1.3432 3 3v9.6c0 1.6568-1.3431 3-3 3h-18c-1.65686 0-3-1.3432-3-3v-13.2c0-1.6568 1.34314-3 3-3z" fill="#ccc"/><path d="m-586.57295-3538.286 2.24685 1.0212c.5801.2638.95255.8422.95255 1.4794v.4629c0 .8975-.72755 1.625-1.625 1.625h-7.15c-.89745 0-1.625-.7275-1.625-1.625v-.4629c0-.6372.37245-1.2156.95255-1.4794l2.24686-1.0212c-.76056-.595-1.24941-1.521-1.24941-2.5615 0-1.7949 1.45505-3.25 3.25-3.25s3.25 1.4551 3.25 3.25c0 1.0405-.48885 1.9665-1.2494 2.5615zm-3.32575.407-2.6533 1.206c-.3481.158-.57155.5052-.57155.8876v.4629c0 .5385.43655.975.975.975h7.15c.53845 0 .975-.4365.975-.975v-.4629c0-.3824-.22345-.7296-.57155-.8876l-2.6533-1.206c-.4047.181-.85316.2815-1.32515.2815-.47195 0-.92045-.1005-1.32515-.2815zm1.32515-.3685c1.43595 0 2.6-1.1641 2.6-2.6s-1.16405-2.6-2.6-2.6-2.6 1.1641-2.6 2.6 1.16405 2.6 2.6 2.6z" fill="#ccc"/><path d="m-586.57295-3538.286 2.24685 1.0212c.5801.2638.95255.8422.95255 1.4794v.4629c0 .8975-.72755 1.625-1.625 1.625h-7.15c-.89745 0-1.625-.7275-1.625-1.625v-.4629c0-.6372.37245-1.2156.95255-1.4794l2.24686-1.0212c-.76056-.595-1.24941-1.521-1.24941-2.5615 0-1.7949 1.45505-3.25 3.25-3.25s3.25 1.4551 3.25 3.25c0 1.0405-.48885 1.9665-1.2494 2.5615zm-3.32575.407-2.6533 1.206c-.3481.158-.57155.5052-.57155.8876v.4629c0 .5385.43655.975.975.975h7.15c.53845 0 .975-.4365.975-.975v-.4629c0-.3824-.22345-.7296-.57155-.8876l-2.6533-1.206c-.4047.181-.85316.2815-1.32515.2815-.47195 0-.92045-.1005-1.32515-.2815zm1.32515-.3685c1.43595 0 2.6-1.1641 2.6-2.6s-1.16405-2.6-2.6-2.6-2.6 1.1641-2.6 2.6 1.16405 2.6 2.6 2.6z" stroke="#ccc" stroke-linejoin="round" stroke-width=".25"/></g></svg>