<svg height="24.750025" viewBox="-690.8719 -3559.0764 24.750035 24.750025" width="24.750035" xmlns="http://www.w3.org/2000/svg"><g fill="none"><path d="m-689.2969-3555.215 10.08-.48 2.4 3.36 9.12.72v13.44h-21.6z" fill="#666"/><path d="m-687.4969-3555.1604c-.9941 0-1.8.8059-1.8 1.8v13.2c0 .9942.8059 1.8 1.8 1.8h18c.9941 0 1.8-.8058 1.8-1.8v-9.6c0-.9941-.8059-1.8-1.8-1.8h-6.6c-1.3255 0-2.4-1.0746-2.4-2.4 0-.6626-.5373-1.2-1.2-1.2zm0-1.2h7.8c1.3255 0 2.4 1.0744 2.4 2.4 0 .6628.53725 1.2 1.2 1.2h6.6c1.65685 0 3 1.3432 3 3v9.6c0 1.6569-1.34315 3-3 3h-18c-1.6569 0-3-1.3431-3-3v-13.2c0-1.6568 1.3431-3 3-3z" fill="#ccc"/><path d="m-669.6936-3546.0326v-.6744c0-.559-.453-1.012-1.0119-1.012h-3.7104c-.7452 0-1.3493-.604-1.3493-1.3493 0-.3727-.302-.6747-.6746-.6747h-4.385c-.5589 0-1.01195.453-1.01195 1.012v7.421c0 .5588.45305 1.012 1.01195 1.012h.6746c.5589 0 1.0119-.4532 1.0119-1.012v-3.3732c0-.9315.7551-1.6866 1.6866-1.6866h6.7462c.3797 0 .73005.1255 1.0119.3372zm0 1.3494c0-.5588-.453-1.0118-1.0119-1.0118h-6.7462c-.5589 0-1.01195.453-1.01195 1.0118v3.3732c0 .3796-.12545.73-.33715 1.012h8.0953c.5589 0 1.0119-.4532 1.0119-1.012zm-11.1312-5.7343h4.385c.7452 0 1.34926.6041 1.34926 1.3492 0 .3726.30204.6747.67464.6747h3.7104c.93145 0 1.68654.7551 1.68654 1.6866v5.397c0 .9313-.75509 1.6864-1.68654 1.6864h-10.1193c-.9315 0-1.6866-.7551-1.6866-1.6864v-7.421c0-.9314.7551-1.6865 1.6866-1.6865z" fill="#ccc"/><path d="m-669.6936-3546.0326v-.6744c0-.559-.453-1.012-1.0119-1.012h-3.7104c-.7452 0-1.3493-.604-1.3493-1.3493 0-.3727-.302-.6747-.6746-.6747h-4.385c-.5589 0-1.01195.453-1.01195 1.012v7.421c0 .5588.45305 1.012 1.01195 1.012h.6746c.5589 0 1.0119-.4532 1.0119-1.012v-3.3732c0-.9315.7551-1.6866 1.6866-1.6866h6.7462c.3797 0 .73005.1255 1.0119.3372zm0 1.3494c0-.5588-.453-1.0118-1.0119-1.0118h-6.7462c-.5589 0-1.01195.453-1.01195 1.0118v3.3732c0 .3796-.12545.73-.33715 1.012h8.0953c.5589 0 1.0119-.4532 1.0119-1.012zm-11.1312-5.7343h4.385c.7452 0 1.34926.6041 1.34926 1.3492 0 .3726.30204.6747.67464.6747h3.7104c.93145 0 1.68654.7551 1.68654 1.6866v5.397c0 .9313-.75509 1.6864-1.68654 1.6864h-10.1193c-.9315 0-1.6866-.7551-1.6866-1.6864v-7.421c0-.9314.7551-1.6865 1.6866-1.6865z" stroke="#ccc" stroke-linejoin="round" stroke-width=".25"/></g></svg>