<svg height="25" viewBox="-490.997 -3555.419 25 25" width="25" xmlns="http://www.w3.org/2000/svg"><g fill="none"><path d="m-486.65697-3554.9187h16.32c2.12077 0 3.84 1.7192 3.84 3.84v16.32c0 2.1207-1.71923 3.84-3.84 3.84h-16.32c-2.12077 0-3.84-1.7193-3.84-3.84v-16.32c0-2.1208 1.71923-3.84 3.84-3.84z" fill="#666"/><path d="m-486.65697-3554.9187h16.32c2.12077 0 3.84 1.7192 3.84 3.84v16.32c0 2.1207-1.71923 3.84-3.84 3.84h-16.32c-2.12077 0-3.84-1.7193-3.84-3.84v-16.32c0-2.1208 1.71923-3.84 3.84-3.84z" stroke="#fff" stroke-linecap="round" stroke-linejoin="round" stroke-width=".25"/><path d="m-484.579-3548.5187c-.6627 0-1.2.5373-1.2 1.2v8.8c0 .6627.5373 1.2 1.2 1.2h12c.66277 0 1.2-.5373 1.2-1.2v-6.4c0-.6627-.53723-1.2-1.2-1.2h-4.4c-.8836 0-1.6-.7163-1.6-1.6 0-.4418-.35814-.8-.8-.8zm0-.8h5.2c.8837 0 1.6.7163 1.6 1.6 0 .4417.3582.8.8.8h4.4c1.1046 0 2 .8954 2 2v6.4c0 1.1047-.8954 2-2 2h-12c-1.10454 0-2-.8953-2-2v-8.8c0-1.1046.89546-2 2-2z" fill="#c0e0ff"/></g></svg>