<svg height="25" viewBox="-562.997 -3555.419 25 25" width="25" xmlns="http://www.w3.org/2000/svg"><g fill="none"><path d="M-558.657-3554.919h16.32a3.84 3.84 0 0 1 3.84 3.84v16.32a3.84 3.84 0 0 1-3.84 3.84h-16.32a3.84 3.84 0 0 1-3.84-3.84v-16.32a3.84 3.84 0 0 1 3.84-3.84z" fill="#666"/><path d="M-558.657-3554.919h16.32a3.84 3.84 0 0 1 3.84 3.84v16.32a3.84 3.84 0 0 1-3.84 3.84h-16.32a3.84 3.84 0 0 1-3.84-3.84v-16.32a3.84 3.84 0 0 1 3.84-3.84z" stroke="#fff" stroke-linecap="round" stroke-linejoin="round" stroke-width=".25"/><path d="M-552.898-3550.118h-2a1.2 1.2 0 0 0-1.2 1.2v12a1.2 1.2 0 0 0 1.2 1.2h8.8a1.2 1.2 0 0 0 1.2-1.2v-10h-2.8a.4.4 0 0 1-.4-.4v-2.8h-4v1.2a.4.4 0 1 1-.8 0zm8.8 2.822v10.377a2 2 0 0 1-2 2h-8.8a2 2 0 0 1-2-2v-11.999a2 2 0 0 1 2-2h7.178a.392.392 0 0 1 .305.117l3.2 3.2a.392.392 0 0 1 .117.305zm-3.2-2.256v1.834h1.834zm-5.6 9.268v-.634a.4.4 0 1 1 .8 0v.634l.117.117c.438.437.683 1.03.683 1.649a1.2 1.2 0 0 1-2.4 0c0-.619.246-1.212.683-1.649zm0 1.766a.4.4 0 1 0 .8 0c0-.383-.143-.751-.4-1.033-.256.282-.4.65-.4 1.032zm0-8.8a.4.4 0 1 1 .8 0v1.6a.4.4 0 0 1-.8 0zm0 3.2a.4.4 0 0 1 .8 0v1.6a.4.4 0 1 1-.8 0z" fill="#c0e0ff"/></g></svg>