<?xml version="1.0" encoding="UTF-8" standalone="no"?>
<!DOCTYPE svg PUBLIC "-//W3C//DTD SVG 1.1//EN" "http://www.w3.org/Graphics/SVG/1.1/DTD/svg11.dtd">
<svg xmlns="http://www.w3.org/2000/svg" xmlns:xl="http://www.w3.org/1999/xlink" version="1.1" xmlns:dc="http://purl.org/dc/elements/1.1/" viewBox="-526.99697 -3555.4187 25 25" width="25" height="25">
  <defs/>
  <g id="SOURCES" stroke-opacity="1" fill="none" stroke="none" fill-opacity="1" stroke-dasharray="none">
    <title>SOURCES</title>
    <g id="SOURCES_Dark">
      <title>Dark</title>
      <g id="Graphic_11621">
        <title>views/view.other</title>
        <path d="M -522.65697 -3554.9187 L -506.33697 -3554.9187 C -504.2162 -3554.9187 -502.49697 -3553.1995 -502.49697 -3551.0787 L -502.49697 -3534.7587 C -502.49697 -3532.638 -504.2162 -3530.9187 -506.33697 -3530.9187 L -522.65697 -3530.9187 C -524.77774 -3530.9187 -526.49697 -3532.638 -526.49697 -3534.7587 L -526.49697 -3551.0787 C -526.49697 -3553.1995 -524.77774 -3554.9187 -522.65697 -3554.9187 Z" fill="#666"/>
        <path d="M -522.65697 -3554.9187 L -506.33697 -3554.9187 C -504.2162 -3554.9187 -502.49697 -3553.1995 -502.49697 -3551.0787 L -502.49697 -3534.7587 C -502.49697 -3532.638 -504.2162 -3530.9187 -506.33697 -3530.9187 L -522.65697 -3530.9187 C -524.77774 -3530.9187 -526.49697 -3532.638 -526.49697 -3534.7587 L -526.49697 -3551.0787 C -526.49697 -3553.1995 -524.77774 -3554.9187 -522.65697 -3554.9187 Z" stroke="white" stroke-linecap="round" stroke-linejoin="round" stroke-width=".25"/>
      </g>
      <g id="Graphic_11620">
        <path d="M -522.49697 -3537.6766 L -522.49697 -3548.0766 C -522.49697 -3549.181 -521.60154 -3550.0766 -520.49697 -3550.0766 L -508.49697 -3550.0766 C -507.3924 -3550.0766 -506.49697 -3549.181 -506.49697 -3548.0766 L -506.49697 -3537.6766 C -506.49697 -3536.572 -507.3924 -3535.6766 -508.49697 -3535.6766 L -520.49697 -3535.6766 C -521.60154 -3535.6766 -522.49697 -3536.572 -522.49697 -3537.6766 Z M -521.69697 -3540.8767 C -521.3627 -3541.128 -520.9472 -3541.2766 -520.49697 -3541.2766 L -508.49697 -3541.2766 C -508.0467 -3541.2766 -507.63123 -3541.128 -507.29697 -3540.8767 L -507.29697 -3548.0766 C -507.29697 -3548.7393 -507.8342 -3549.2766 -508.49697 -3549.2766 L -520.49697 -3549.2766 C -521.1597 -3549.2766 -521.69697 -3548.7393 -521.69697 -3548.0766 L -521.69697 -3540.8767 Z M -521.69697 -3537.6766 C -521.69697 -3537.014 -521.1597 -3536.4766 -520.49697 -3536.4766 L -508.49697 -3536.4766 C -507.8342 -3536.4766 -507.29697 -3537.014 -507.29697 -3537.6766 L -507.29697 -3539.2766 C -507.29697 -3539.9393 -507.8342 -3540.4766 -508.49697 -3540.4766 L -520.49697 -3540.4766 C -521.1597 -3540.4766 -521.69697 -3539.9393 -521.69697 -3539.2766 Z M -510.09697 -3539.6766 L -508.49697 -3539.6766 C -508.27605 -3539.6766 -508.09697 -3539.4975 -508.09697 -3539.2766 L -508.09697 -3537.6766 C -508.09697 -3537.4557 -508.27605 -3537.2766 -508.49697 -3537.2766 L -510.09697 -3537.2766 C -510.3179 -3537.2766 -510.49697 -3537.4557 -510.49697 -3537.6766 L -510.49697 -3539.2766 C -510.49697 -3539.4975 -510.3179 -3539.6766 -510.09697 -3539.6766 Z M -509.69697 -3538.8766 L -509.69697 -3538.0766 L -508.89697 -3538.0766 L -508.89697 -3538.8766 Z M -519.69697 -3538.0766 C -519.9179 -3538.0766 -520.09697 -3538.2557 -520.09697 -3538.4766 C -520.09697 -3538.6975 -519.9179 -3538.8766 -519.69697 -3538.8766 L -514.89697 -3538.8766 C -514.67605 -3538.8766 -514.49697 -3538.6975 -514.49697 -3538.4766 C -514.49697 -3538.2557 -514.67605 -3538.0766 -514.89697 -3538.0766 Z" fill="#c0e0ff"/>
      </g>
    </g>
  </g>
</svg>
