<?xml version="1.0" encoding="UTF-8" standalone="no"?>
<!DOCTYPE svg PUBLIC "-//W3C//DTD SVG 1.1//EN" "http://www.w3.org/Graphics/SVG/1.1/DTD/svg11.dtd">
<svg xmlns="http://www.w3.org/2000/svg" xmlns:xl="http://www.w3.org/1999/xlink" version="1.1" xmlns:dc="http://purl.org/dc/elements/1.1/" viewBox="-562.99697 -3555.4187 25 25" width="25" height="25">
  <defs/>
  <g id="SOURCES" stroke-opacity="1" fill="none" stroke="none" fill-opacity="1" stroke-dasharray="none">
    <title>SOURCES</title>
    <g id="SOURCES_Dark">
      <title>Dark</title>
      <g id="Graphic_11624">
        <title>views/view.other</title>
        <path d="M -558.65697 -3554.9187 L -542.33697 -3554.9187 C -540.2162 -3554.9187 -538.49697 -3553.1995 -538.49697 -3551.0787 L -538.49697 -3534.7587 C -538.49697 -3532.638 -540.2162 -3530.9187 -542.33697 -3530.9187 L -558.65697 -3530.9187 C -560.77774 -3530.9187 -562.49697 -3532.638 -562.49697 -3534.7587 L -562.49697 -3551.0787 C -562.49697 -3553.1995 -560.77774 -3554.9187 -558.65697 -3554.9187 Z" fill="#666"/>
        <path d="M -558.65697 -3554.9187 L -542.33697 -3554.9187 C -540.2162 -3554.9187 -538.49697 -3553.1995 -538.49697 -3551.0787 L -538.49697 -3534.7587 C -538.49697 -3532.638 -540.2162 -3530.9187 -542.33697 -3530.9187 L -558.65697 -3530.9187 C -560.77774 -3530.9187 -562.49697 -3532.638 -562.49697 -3534.7587 L -562.49697 -3551.0787 C -562.49697 -3553.1995 -560.77774 -3554.9187 -558.65697 -3554.9187 Z" stroke="white" stroke-linecap="round" stroke-linejoin="round" stroke-width=".25"/>
      </g>
      <g id="Graphic_11623">
        <path d="M -552.89775 -3550.118 L -554.89765 -3550.118 C -555.56036 -3550.118 -556.0976 -3549.5807 -556.0976 -3548.918 L -556.0976 -3536.9186 C -556.0976 -3536.256 -555.56036 -3535.7187 -554.89765 -3535.7187 L -546.0981 -3535.7187 C -545.4354 -3535.7187 -544.89815 -3536.256 -544.89815 -3536.9186 L -544.89815 -3546.918 L -547.698 -3546.918 C -547.9189 -3546.918 -548.098 -3547.097 -548.098 -3547.318 L -548.098 -3550.118 L -552.0978 -3550.118 L -552.0978 -3548.918 C -552.0978 -3548.697 -552.27687 -3548.518 -552.4978 -3548.518 C -552.7187 -3548.518 -552.89775 -3548.697 -552.89775 -3548.918 Z M -544.0982 -3547.2957 L -544.0982 -3536.9186 C -544.0982 -3535.814 -544.9936 -3534.9187 -546.0981 -3534.9187 L -554.89765 -3534.9187 C -556.00216 -3534.9187 -556.89755 -3535.814 -556.89755 -3536.9186 L -556.89755 -3548.918 C -556.89755 -3550.0225 -556.00216 -3550.918 -554.89765 -3550.918 L -547.7204 -3550.918 C -547.6142 -3550.9246 -547.50366 -3550.8892 -547.4152 -3550.8007 L -544.21534 -3547.601 C -544.12686 -3547.5124 -544.09145 -3547.402 -544.0982 -3547.2957 Z M -547.298 -3549.5523 L -547.298 -3547.718 L -545.4638 -3547.718 Z M -552.89775 -3540.284 L -552.89775 -3540.9184 C -552.89775 -3541.1393 -552.7187 -3541.3184 -552.4978 -3541.3184 C -552.27687 -3541.3184 -552.0978 -3541.1393 -552.0978 -3540.9184 L -552.0978 -3540.284 L -551.98064 -3540.167 C -551.54344 -3539.7298 -551.2978 -3539.137 -551.2978 -3538.5185 C -551.2978 -3537.856 -551.83506 -3537.3186 -552.4978 -3537.3186 C -553.1605 -3537.3186 -553.6977 -3537.856 -553.6977 -3538.5185 C -553.6977 -3539.137 -553.4521 -3539.7298 -553.0149 -3540.167 L -552.89775 -3540.284 Z M -552.89775 -3538.5185 C -552.89775 -3538.2976 -552.7187 -3538.1185 -552.4978 -3538.1185 C -552.27687 -3538.1185 -552.0978 -3538.2976 -552.0978 -3538.5185 C -552.0978 -3538.901 -552.241 -3539.269 -552.4978 -3539.5505 C -552.7545 -3539.269 -552.89775 -3538.901 -552.89775 -3538.5185 Z M -552.89775 -3547.318 C -552.89775 -3547.539 -552.7187 -3547.718 -552.4978 -3547.718 C -552.27687 -3547.718 -552.0978 -3547.539 -552.0978 -3547.318 L -552.0978 -3545.718 C -552.0978 -3545.4973 -552.27687 -3545.318 -552.4978 -3545.318 C -552.7187 -3545.318 -552.89775 -3545.4973 -552.89775 -3545.718 Z M -552.89775 -3544.1182 C -552.89775 -3544.339 -552.7187 -3544.5182 -552.4978 -3544.5182 C -552.27687 -3544.5182 -552.0978 -3544.339 -552.0978 -3544.1182 L -552.0978 -3542.5183 C -552.0978 -3542.2974 -552.27687 -3542.1183 -552.4978 -3542.1183 C -552.7187 -3542.1183 -552.89775 -3542.2974 -552.89775 -3542.5183 Z" fill="#c0e0ff"/>
      </g>
    </g>
  </g>
</svg>
