<svg height="25" viewBox="-562.997 -3555.419 25 25" width="25" xmlns="http://www.w3.org/2000/svg"><g fill="none"><path d="m-558.65697-3554.9187h16.32c2.12077 0 3.84 1.7192 3.84 3.84v16.32c0 2.1207-1.71923 3.84-3.84 3.84h-16.32c-2.12077 0-3.84-1.7193-3.84-3.84v-16.32c0-2.1208 1.71923-3.84 3.84-3.84z" fill="#666"/><path d="m-558.65697-3554.9187h16.32c2.12077 0 3.84 1.7192 3.84 3.84v16.32c0 2.1207-1.71923 3.84-3.84 3.84h-16.32c-2.12077 0-3.84-1.7193-3.84-3.84v-16.32c0-2.1208 1.71923-3.84 3.84-3.84z" stroke="#fff" stroke-linecap="round" stroke-linejoin="round" stroke-width=".25"/><path d="m-552.89775-3550.118h-1.9999c-.66271 0-1.19995.5373-1.19995 1.2v11.9994c0 .6626.53724 1.1999 1.19995 1.1999h8.79955c.6627 0 1.19995-.5373 1.19995-1.1999v-9.9994h-2.79985c-.2209 0-.4-.179-.4-.4v-2.8h-3.9998v1.2c0 .221-.17907.4-.4.4-.2209 0-.39995-.179-.39995-.4zm8.79955 2.8223v10.3771c0 1.1046-.8954 1.9999-1.9999 1.9999h-8.79955c-1.10451 0-1.9999-.8953-1.9999-1.9999v-11.9994c0-1.1045.89539-2 1.9999-2h7.17725c.1062-.0066.21674.0288.3052.1173l3.19986 3.1997c.08848.0886.12389.199.11714.3053zm-3.1998-2.2566v1.8343h1.8342zm-5.59975 9.2683v-.6344c0-.2209.17905-.4.39995-.4.22093 0 .4.1791.4.4v.6344l.11716.117c.4372.4372.68284 1.03.68284 1.6485 0 .6625-.53726 1.1999-1.2 1.1999-.6627 0-1.1999-.5374-1.1999-1.1999 0-.6185.2456-1.2113.6828-1.6485zm0 1.7655c0 .2209.17905.4.39995.4.22093 0 .4-.1791.4-.4 0-.3825-.1432-.7505-.4-1.032-.2567.2815-.39995.6495-.39995 1.032zm0-8.7995c0-.221.17905-.4.39995-.4.22093 0 .4.179.4.4v1.6c0 .2207-.17907.4-.4.4-.2209 0-.39995-.1793-.39995-.4zm0 3.1998c0-.2208.17905-.4.39995-.4.22093 0 .4.1792.4.4v1.5999c0 .2209-.17907.4-.4.4-.2209 0-.39995-.1791-.39995-.4z" fill="#c0e0ff"/></g></svg>