<svg height="25" viewBox="-526.997 -3555.419 25 25" width="25" xmlns="http://www.w3.org/2000/svg"><g fill="none"><path d="m-522.65697-3554.9187h16.32c2.12077 0 3.84 1.7192 3.84 3.84v16.32c0 2.1207-1.71923 3.84-3.84 3.84h-16.32c-2.12077 0-3.84-1.7193-3.84-3.84v-16.32c0-2.1208 1.71923-3.84 3.84-3.84z" fill="#666"/><path d="m-522.65697-3554.9187h16.32c2.12077 0 3.84 1.7192 3.84 3.84v16.32c0 2.1207-1.71923 3.84-3.84 3.84h-16.32c-2.12077 0-3.84-1.7193-3.84-3.84v-16.32c0-2.1208 1.71923-3.84 3.84-3.84z" stroke="#fff" stroke-linecap="round" stroke-linejoin="round" stroke-width=".25"/><path d="m-522.49697-3537.6766v-10.4c0-1.1044.89543-2 2-2h12c1.10457 0 2 .8956 2 2v10.4c0 1.1046-.89543 2-2 2h-12c-1.10457 0-2-.8954-2-2zm.8-3.2001c.33427-.2513.74977-.3999 1.2-.3999h12c.45027 0 .86574.1486 1.2.3999v-7.1999c0-.6627-.53723-1.2-1.2-1.2h-12c-.66273 0-1.2.5373-1.2 1.2zm0 3.2001c0 .6626.53727 1.2 1.2 1.2h12c.66277 0 1.2-.5374 1.2-1.2v-1.6c0-.6627-.53723-1.2-1.2-1.2h-12c-.66273 0-1.2.5373-1.2 1.2zm11.6-2h1.6c.22092 0 .4.1791.4.4v1.6c0 .2209-.17908.4-.4.4h-1.6c-.22093 0-.4-.1791-.4-.4v-1.6c0-.2209.17907-.4.4-.4zm.4.8v.8h.8v-.8zm-10 .8c-.22093 0-.4-.1791-.4-.4s.17907-.4.4-.4h4.8c.22092 0 .4.1791.4.4s-.17908.4-.4.4z" fill="#c0e0ff"/></g></svg>