<?xml version="1.0" encoding="UTF-8" standalone="no"?>
<!DOCTYPE svg PUBLIC "-//W3C//DTD SVG 1.1//EN" "http://www.w3.org/Graphics/SVG/1.1/DTD/svg11.dtd">
<svg xmlns="http://www.w3.org/2000/svg" xmlns:xl="http://www.w3.org/1999/xlink" version="1.1" xmlns:dc="http://purl.org/dc/elements/1.1/" viewBox="-490.99697 -3555.4187 25 25" width="25" height="25">
  <defs/>
  <g id="SOURCES" stroke-opacity="1" fill="none" stroke="none" fill-opacity="1" stroke-dasharray="none">
    <title>SOURCES</title>
    <g id="SOURCES_Dark">
      <title>Dark</title>
      <g id="Graphic_11618">
        <title>views/view.other</title>
        <path d="M -486.65697 -3554.9187 L -470.33697 -3554.9187 C -468.2162 -3554.9187 -466.49697 -3553.1995 -466.49697 -3551.0787 L -466.49697 -3534.7587 C -466.49697 -3532.638 -468.2162 -3530.9187 -470.33697 -3530.9187 L -486.65697 -3530.9187 C -488.77774 -3530.9187 -490.49697 -3532.638 -490.49697 -3534.7587 L -490.49697 -3551.0787 C -490.49697 -3553.1995 -488.77774 -3554.9187 -486.65697 -3554.9187 Z" fill="#666"/>
        <path d="M -486.65697 -3554.9187 L -470.33697 -3554.9187 C -468.2162 -3554.9187 -466.49697 -3553.1995 -466.49697 -3551.0787 L -466.49697 -3534.7587 C -466.49697 -3532.638 -468.2162 -3530.9187 -470.33697 -3530.9187 L -486.65697 -3530.9187 C -488.77774 -3530.9187 -490.49697 -3532.638 -490.49697 -3534.7587 L -490.49697 -3551.0787 C -490.49697 -3553.1995 -488.77774 -3554.9187 -486.65697 -3554.9187 Z" stroke="white" stroke-linecap="round" stroke-linejoin="round" stroke-width=".25"/>
      </g>
      <g id="Graphic_11617">
        <path d="M -484.579 -3548.5187 C -485.2417 -3548.5187 -485.779 -3547.9814 -485.779 -3547.3187 L -485.779 -3538.5187 C -485.779 -3537.856 -485.2417 -3537.3187 -484.579 -3537.3187 L -472.579 -3537.3187 C -471.91623 -3537.3187 -471.379 -3537.856 -471.379 -3538.5187 L -471.379 -3544.9187 C -471.379 -3545.5814 -471.91623 -3546.1187 -472.579 -3546.1187 L -476.979 -3546.1187 C -477.8626 -3546.1187 -478.579 -3546.835 -478.579 -3547.7187 C -478.579 -3548.1605 -478.93714 -3548.5187 -479.379 -3548.5187 Z M -484.579 -3549.3187 L -479.379 -3549.3187 C -478.4953 -3549.3187 -477.779 -3548.6024 -477.779 -3547.7187 C -477.779 -3547.277 -477.4208 -3546.9187 -476.979 -3546.9187 L -472.579 -3546.9187 C -471.4744 -3546.9187 -470.579 -3546.0233 -470.579 -3544.9187 L -470.579 -3538.5187 C -470.579 -3537.414 -471.4744 -3536.5187 -472.579 -3536.5187 L -484.579 -3536.5187 C -485.68354 -3536.5187 -486.579 -3537.414 -486.579 -3538.5187 L -486.579 -3547.3187 C -486.579 -3548.4233 -485.68354 -3549.3187 -484.579 -3549.3187 Z" fill="#c0e0ff"/>
      </g>
    </g>
  </g>
</svg>
