<svg height="25" viewBox="-526.997 -3555.419 25 25" width="25" xmlns="http://www.w3.org/2000/svg"><g fill="none"><path d="M-522.657-3554.919h16.32a3.84 3.84 0 0 1 3.84 3.84v16.32a3.84 3.84 0 0 1-3.84 3.84h-16.32a3.84 3.84 0 0 1-3.84-3.84v-16.32a3.84 3.84 0 0 1 3.84-3.84z" fill="#666"/><path d="M-522.657-3554.919h16.32a3.84 3.84 0 0 1 3.84 3.84v16.32a3.84 3.84 0 0 1-3.84 3.84h-16.32a3.84 3.84 0 0 1-3.84-3.84v-16.32a3.84 3.84 0 0 1 3.84-3.84z" stroke="#fff" stroke-linecap="round" stroke-linejoin="round" stroke-width=".25"/><path d="M-522.497-3537.677v-10.4a2 2 0 0 1 2-2h12a2 2 0 0 1 2 2v10.4a2 2 0 0 1-2 2h-12a2 2 0 0 1-2-2zm.8-3.2c.334-.251.75-.4 1.2-.4h12c.45 0 .866.149 1.2.4v-7.2a1.2 1.2 0 0 0-1.2-1.2h-12a1.2 1.2 0 0 0-1.2 1.2zm0 3.2a1.2 1.2 0 0 0 1.2 1.2h12a1.2 1.2 0 0 0 1.2-1.2v-1.6a1.2 1.2 0 0 0-1.2-1.2h-12a1.2 1.2 0 0 0-1.2 1.2zm11.6-2h1.6c.22 0 .4.18.4.4v1.6a.4.4 0 0 1-.4.4h-1.6a.4.4 0 0 1-.4-.4v-1.6c0-.22.18-.4.4-.4zm.4.8v.8h.8v-.8zm-10 .8a.4.4 0 1 1 0-.8h4.8a.4.4 0 0 1 0 .8z" fill="#c0e0ff"/></g></svg>