<?xml version="1.0" encoding="UTF-8" standalone="no"?>
<!DOCTYPE svg PUBLIC "-//W3C//DTD SVG 1.1//EN" "http://www.w3.org/Graphics/SVG/1.1/DTD/svg11.dtd">
<svg xmlns="http://www.w3.org/2000/svg" xmlns:xl="http://www.w3.org/1999/xlink" version="1.1" xmlns:dc="http://purl.org/dc/elements/1.1/" viewBox="-454.99697 -3555.4187 25 25" width="25" height="25">
  <defs/>
  <g id="SOURCES" stroke-opacity="1" fill="none" stroke="none" fill-opacity="1" stroke-dasharray="none">
    <title>SOURCES</title>
    <g id="SOURCES_Dark">
      <title>Dark</title>
      <g id="Graphic_11681">
        <title>views/view.other</title>
        <path d="M -450.65697 -3554.9187 L -434.33697 -3554.9187 C -432.2162 -3554.9187 -430.49697 -3553.1995 -430.49697 -3551.0787 L -430.49697 -3534.7587 C -430.49697 -3532.638 -432.2162 -3530.9187 -434.33697 -3530.9187 L -450.65697 -3530.9187 C -452.77774 -3530.9187 -454.49697 -3532.638 -454.49697 -3534.7587 L -454.49697 -3551.0787 C -454.49697 -3553.1995 -452.77774 -3554.9187 -450.65697 -3554.9187 Z" fill="#666"/>
        <path d="M -450.65697 -3554.9187 L -434.33697 -3554.9187 C -432.2162 -3554.9187 -430.49697 -3553.1995 -430.49697 -3551.0787 L -430.49697 -3534.7587 C -430.49697 -3532.638 -432.2162 -3530.9187 -434.33697 -3530.9187 L -450.65697 -3530.9187 C -452.77774 -3530.9187 -454.49697 -3532.638 -454.49697 -3534.7587 L -454.49697 -3551.0787 C -454.49697 -3553.1995 -452.77774 -3554.9187 -450.65697 -3554.9187 Z" stroke="white" stroke-linecap="round" stroke-linejoin="round" stroke-width=".25"/>
      </g>
      <g id="Graphic_11680">
        <path d="M -442.49697 -3534.9187 C -446.91524 -3534.9187 -450.49697 -3538.5004 -450.49697 -3542.9187 C -450.49697 -3547.337 -446.91524 -3550.9187 -442.49697 -3550.9187 C -438.0787 -3550.9187 -434.49697 -3547.337 -434.49697 -3542.9187 C -434.49697 -3538.5004 -438.0787 -3534.9187 -442.49697 -3534.9187 Z M -442.49697 -3535.7187 C -438.5205 -3535.7187 -435.29697 -3538.9423 -435.29697 -3542.9187 C -435.29697 -3546.895 -438.5205 -3550.1187 -442.49697 -3550.1187 C -446.4734 -3550.1187 -449.69697 -3546.895 -449.69697 -3542.9187 C -449.69697 -3538.9423 -446.4734 -3535.7187 -442.49697 -3535.7187 Z M -439.46447 -3541.244 C -439.2847 -3541.116 -439.24307 -3540.866 -439.37147 -3540.686 C -439.4999 -3540.5064 -439.7497 -3540.465 -439.92946 -3540.593 L -442.72946 -3542.593 C -442.80444 -3542.6468 -442.85863 -3542.7246 -442.88287 -3542.8135 L -444.08287 -3547.2135 C -444.141 -3547.4266 -444.01534 -3547.6465 -443.8022 -3547.7046 C -443.5891 -3547.7627 -443.3692 -3547.637 -443.31106 -3547.424 L -442.14854 -3543.1614 Z" fill="#c0e0ff"/>
      </g>
    </g>
  </g>
</svg>
