<svg height="25" viewBox="-454.997 -3555.419 25 25" width="25" xmlns="http://www.w3.org/2000/svg"><g fill="none"><path d="m-450.65697-3554.9187h16.32c2.12077 0 3.84 1.7192 3.84 3.84v16.32c0 2.1207-1.71923 3.84-3.84 3.84h-16.32c-2.12077 0-3.84-1.7193-3.84-3.84v-16.32c0-2.1208 1.71923-3.84 3.84-3.84z" fill="#666"/><path d="m-450.65697-3554.9187h16.32c2.12077 0 3.84 1.7192 3.84 3.84v16.32c0 2.1207-1.71923 3.84-3.84 3.84h-16.32c-2.12077 0-3.84-1.7193-3.84-3.84v-16.32c0-2.1208 1.71923-3.84 3.84-3.84z" stroke="#fff" stroke-linecap="round" stroke-linejoin="round" stroke-width=".25"/><path d="m-442.49697-3534.9187c-4.41827 0-8-3.5817-8-8s3.58173-8 8-8 8 3.5817 8 8-3.58173 8-8 8zm0-.8c3.97647 0 7.2-3.2236 7.2-7.2 0-3.9763-3.22353-7.2-7.2-7.2-3.97643 0-7.2 3.2237-7.2 7.2 0 3.9764 3.22357 7.2 7.2 7.2zm3.0325-5.5253c.17977.128.2214.378.093.558-.12843.1796-.37823.221-.55799.093l-2.8-2c-.07498-.0538-.12917-.1316-.15341-.2205l-1.2-4.4c-.05813-.2131.06753-.433.28067-.4911.2131-.0581.433.0676.49114.2806l1.16252 4.2626z" fill="#c0e0ff"/></g></svg>