<svg height="25" viewBox="-454.997 -3555.419 25 25" width="25" xmlns="http://www.w3.org/2000/svg"><g fill="none"><path d="M-450.657-3554.919h16.32a3.84 3.84 0 0 1 3.84 3.84v16.32a3.84 3.84 0 0 1-3.84 3.84h-16.32a3.84 3.84 0 0 1-3.84-3.84v-16.32a3.84 3.84 0 0 1 3.84-3.84z" fill="#666"/><path d="M-450.657-3554.919h16.32a3.84 3.84 0 0 1 3.84 3.84v16.32a3.84 3.84 0 0 1-3.84 3.84h-16.32a3.84 3.84 0 0 1-3.84-3.84v-16.32a3.84 3.84 0 0 1 3.84-3.84z" stroke="#fff" stroke-linecap="round" stroke-linejoin="round" stroke-width=".25"/><path d="M-442.497-3534.919a8 8 0 1 1 0-16 8 8 0 0 1 0 16zm0-.8a7.2 7.2 0 1 0 0-14.4 7.2 7.2 0 0 0 0 14.4zm3.033-5.525a.4.4 0 1 1-.465.651l-2.8-2a.401.401 0 0 1-.154-.22l-1.2-4.4a.4.4 0 1 1 .772-.211l1.162 4.263z" fill="#c0e0ff"/></g></svg>