<svg height="25" viewBox="-418.997 -3555.419 25 25" width="25" xmlns="http://www.w3.org/2000/svg"><g fill="none"><path d="M-414.657-3554.919h16.32a3.84 3.84 0 0 1 3.84 3.84v16.32a3.84 3.84 0 0 1-3.84 3.84h-16.32a3.84 3.84 0 0 1-3.84-3.84v-16.32a3.84 3.84 0 0 1 3.84-3.84z" fill="#666"/><path d="M-414.657-3554.919h16.32a3.84 3.84 0 0 1 3.84 3.84v16.32a3.84 3.84 0 0 1-3.84 3.84h-16.32a3.84 3.84 0 0 1-3.84-3.84v-16.32a3.84 3.84 0 0 1 3.84-3.84z" stroke="#fff" stroke-linecap="round" stroke-linejoin="round" stroke-width=".25"/><path d="M-405.64-3540.567l1.807-1.807a.42.42 0 1 1 .595.595l-2.526 2.526a.42.42 0 0 1-.596 0l-2.526-2.526a.42.42 0 1 1 .595-.595l1.808 1.807v-9.088a.421.421 0 0 1 .842 0zm4.63-6.983a.421.421 0 0 1 0-.842h.843c1.162 0 2.105.942 2.105 2.105v8.421a2.105 2.105 0 0 1-2.105 2.105h-11.79a2.105 2.105 0 0 1-2.105-2.105v-8.421c0-1.163.943-2.105 2.105-2.105h.842a.421.421 0 1 1 0 .842h-.842c-.697 0-1.263.565-1.263 1.263v8.421c0 .698.566 1.263 1.263 1.263h11.79c.697 0 1.263-.565 1.263-1.263v-8.421c0-.698-.566-1.263-1.263-1.263z" fill="#c0e0ff"/></g></svg>