<svg height="25" viewBox="-382.997 -3555.419 25 25" width="25" xmlns="http://www.w3.org/2000/svg"><g fill="none"><path d="m-378.65697-3554.9187h16.32c2.12077 0 3.84 1.7192 3.84 3.84v16.32c0 2.1207-1.71923 3.84-3.84 3.84h-16.32c-2.12077 0-3.84-1.7193-3.84-3.84v-16.32c0-2.1208 1.71923-3.84 3.84-3.84z" fill="#666"/><path d="m-378.65697-3554.9187h16.32c2.12077 0 3.84 1.7192 3.84 3.84v16.32c0 2.1207-1.71923 3.84-3.84 3.84h-16.32c-2.12077 0-3.84-1.7193-3.84-3.84v-16.32c0-2.1208 1.71923-3.84 3.84-3.84z" stroke="#fff" stroke-linecap="round" stroke-linejoin="round" stroke-width=".25"/><path d="m-370.0759-3548.639v9.0887c0 .2326-.18853.4211-.42107.4211-.23253 0-.42103-.1885-.42103-.4211v-9.0887l-1.80755 1.8075c-.16445.1645-.43105.1645-.59545 0-.16444-.1645-.16444-.431 0-.5955l2.5263-2.5263c.16444-.1644.43103-.1644.59546 0l2.52634 2.5263c.1644.1645.1644.431 0 .5955-.16445.1645-.43105.1645-.5955 0zm4.63157 1.0887c-.23255 0-.42107-.1887-.42107-.421 0-.2327.18852-.4211.42107-.4211h.8421c1.16271 0 2.10526.9424 2.10526 2.1054v8.421c0 1.1626-.94255 2.105-2.10526 2.105h-11.78947c-1.1627 0-2.10527-.9424-2.10527-2.105v-8.421c0-1.163.94257-2.1054 2.10527-2.1054h.8421c.23254 0 .42106.1884.42106.4211 0 .2323-.18852.421-.42106.421h-.8421c-.69763 0-1.26316.5656-1.26316 1.2633v8.421c0 .6976.56553 1.263 1.26316 1.263h11.78947c.69763 0 1.26316-.5654 1.26316-1.263v-8.421c0-.6977-.56553-1.2633-1.26316-1.2633z" fill="#c0e0ff"/></g></svg>