<svg height="25" viewBox="-418.997 -3555.419 25 25" width="25" xmlns="http://www.w3.org/2000/svg"><g fill="none"><path d="m-414.65697-3554.9187h16.32c2.12077 0 3.84 1.7192 3.84 3.84v16.32c0 2.1207-1.71923 3.84-3.84 3.84h-16.32c-2.12077 0-3.84-1.7193-3.84-3.84v-16.32c0-2.1208 1.71923-3.84 3.84-3.84z" fill="#666"/><path d="m-414.65697-3554.9187h16.32c2.12077 0 3.84 1.7192 3.84 3.84v16.32c0 2.1207-1.71923 3.84-3.84 3.84h-16.32c-2.12077 0-3.84-1.7193-3.84-3.84v-16.32c0-2.1208 1.71923-3.84 3.84-3.84z" stroke="#fff" stroke-linecap="round" stroke-linejoin="round" stroke-width=".25"/><path d="m-405.6409-3540.567 1.80754-1.8073c.16443-.1645.43103-.1645.59546 0 .16443.1643.16443.431 0 .5953l-2.5263 2.5264c-.16445.1646-.43104.1646-.59547 0l-2.52633-2.5264c-.1644-.1643-.1644-.431 0-.5953.16444-.1645.43104-.1645.59547 0l1.80753 1.8073v-9.0885c0-.2325.1885-.4211.42105-.4211s.42105.1886.42105.4211zm4.6316-6.9833c-.23255 0-.42107-.1887-.42107-.421 0-.2327.18852-.4211.42107-.4211h.8421c1.1627 0 2.10525.9424 2.10525 2.1054v8.421c0 1.1626-.94255 2.105-2.10525 2.105h-11.7895c-1.1627 0-2.10525-.9424-2.10525-2.105v-8.421c0-1.163.94255-2.1054 2.10525-2.1054h.8421c.23256 0 .4211.1884.4211.4211 0 .2323-.18854.421-.4211.421h-.8421c-.6976 0-1.26314.5656-1.26314 1.2633v8.421c0 .6976.56554 1.263 1.26314 1.263h11.7895c.6976 0 1.26315-.5654 1.26315-1.263v-8.421c0-.6977-.56555-1.2633-1.26315-1.2633z" fill="#c0e0ff"/></g></svg>