<?xml version="1.0" encoding="UTF-8" standalone="no"?>
<!DOCTYPE svg PUBLIC "-//W3C//DTD SVG 1.1//EN" "http://www.w3.org/Graphics/SVG/1.1/DTD/svg11.dtd">
<svg xmlns="http://www.w3.org/2000/svg" xmlns:xl="http://www.w3.org/1999/xlink" version="1.1" xmlns:dc="http://purl.org/dc/elements/1.1/" viewBox="-382.99697 -3555.4187 25 25" width="25" height="25">
  <defs/>
  <g id="SOURCES" stroke-opacity="1" fill="none" stroke="none" fill-opacity="1" stroke-dasharray="none">
    <title>SOURCES</title>
    <g id="SOURCES_Dark">
      <title>Dark</title>
      <g id="Graphic_11727">
        <title>views/view.other</title>
        <path d="M -378.65697 -3554.9187 L -362.33697 -3554.9187 C -360.2162 -3554.9187 -358.49697 -3553.1995 -358.49697 -3551.0787 L -358.49697 -3534.7587 C -358.49697 -3532.638 -360.2162 -3530.9187 -362.33697 -3530.9187 L -378.65697 -3530.9187 C -380.77774 -3530.9187 -382.49697 -3532.638 -382.49697 -3534.7587 L -382.49697 -3551.0787 C -382.49697 -3553.1995 -380.77774 -3554.9187 -378.65697 -3554.9187 Z" fill="#666"/>
        <path d="M -378.65697 -3554.9187 L -362.33697 -3554.9187 C -360.2162 -3554.9187 -358.49697 -3553.1995 -358.49697 -3551.0787 L -358.49697 -3534.7587 C -358.49697 -3532.638 -360.2162 -3530.9187 -362.33697 -3530.9187 L -378.65697 -3530.9187 C -380.77774 -3530.9187 -382.49697 -3532.638 -382.49697 -3534.7587 L -382.49697 -3551.0787 C -382.49697 -3553.1995 -380.77774 -3554.9187 -378.65697 -3554.9187 Z" stroke="white" stroke-linecap="round" stroke-linejoin="round" stroke-width=".25"/>
      </g>
      <g id="Graphic_11726">
        <path d="M -370.0759 -3548.639 L -370.0759 -3539.5503 C -370.0759 -3539.3177 -370.26443 -3539.1292 -370.49697 -3539.1292 C -370.7295 -3539.1292 -370.918 -3539.3177 -370.918 -3539.5503 L -370.918 -3548.639 L -372.72555 -3546.8315 C -372.89 -3546.667 -373.1566 -3546.667 -373.321 -3546.8315 C -373.48544 -3546.996 -373.48544 -3547.2625 -373.321 -3547.427 L -370.7947 -3549.9533 C -370.63026 -3550.1177 -370.36367 -3550.1177 -370.19924 -3549.9533 L -367.6729 -3547.427 C -367.5085 -3547.2625 -367.5085 -3546.996 -367.6729 -3546.8315 C -367.83735 -3546.667 -368.10395 -3546.667 -368.2684 -3546.8315 L -370.0759 -3548.639 Z M -365.44433 -3547.5503 C -365.67688 -3547.5503 -365.8654 -3547.739 -365.8654 -3547.9713 C -365.8654 -3548.204 -365.67688 -3548.3924 -365.44433 -3548.3924 L -364.60223 -3548.3924 C -363.43952 -3548.3924 -362.49697 -3547.45 -362.49697 -3546.287 L -362.49697 -3537.866 C -362.49697 -3536.7034 -363.43952 -3535.761 -364.60223 -3535.761 L -376.3917 -3535.761 C -377.5544 -3535.761 -378.49697 -3536.7034 -378.49697 -3537.866 L -378.49697 -3546.287 C -378.49697 -3547.45 -377.5544 -3548.3924 -376.3917 -3548.3924 L -375.5496 -3548.3924 C -375.31706 -3548.3924 -375.12854 -3548.204 -375.12854 -3547.9713 C -375.12854 -3547.739 -375.31706 -3547.5503 -375.5496 -3547.5503 L -376.3917 -3547.5503 C -377.08933 -3547.5503 -377.65486 -3546.9847 -377.65486 -3546.287 L -377.65486 -3537.866 C -377.65486 -3537.1684 -377.08933 -3536.603 -376.3917 -3536.603 L -364.60223 -3536.603 C -363.9046 -3536.603 -363.33907 -3537.1684 -363.33907 -3537.866 L -363.33907 -3546.287 C -363.33907 -3546.9847 -363.9046 -3547.5503 -364.60223 -3547.5503 Z" fill="#c0e0ff"/>
      </g>
    </g>
  </g>
</svg>
