<svg height="25" viewBox="-346.997 -3555.419 25 25" width="25" xmlns="http://www.w3.org/2000/svg"><g fill="none"><path d="M-342.657-3554.919h16.32a3.84 3.84 0 0 1 3.84 3.84v16.32a3.84 3.84 0 0 1-3.84 3.84h-16.32a3.84 3.84 0 0 1-3.84-3.84v-16.32a3.84 3.84 0 0 1 3.84-3.84z" fill="#666"/><path d="M-342.657-3554.919h16.32a3.84 3.84 0 0 1 3.84 3.84v16.32a3.84 3.84 0 0 1-3.84 3.84h-16.32a3.84 3.84 0 0 1-3.84-3.84v-16.32a3.84 3.84 0 0 1 3.84-3.84z" stroke="#fff" stroke-linecap="round" stroke-linejoin="round" stroke-width=".25"/><path d="M-329.164-3548.252h2.223a.444.444 0 0 1 0 .889h-2.223v2.222a.444.444 0 1 1-.889 0v-2.222h-2.222a.445.445 0 0 1 0-.889h2.222v-2.222a.444.444 0 0 1 .89 0zm1.778 4.889a.444.444 0 1 1 .889 0v6.222a2.222 2.222 0 0 1-2.222 2.222h-11.556a2.222 2.222 0 0 1-2.222-2.222v-11.555c0-1.228.995-2.223 2.222-2.223h6.222a.444.444 0 0 1 0 .889h-6.222c-.736 0-1.333.597-1.333 1.334v11.555c0 .737.597 1.333 1.333 1.333h11.556c.736 0 1.333-.596 1.333-1.333z" fill="#c0e0ff"/></g></svg>