<svg height="25" viewBox="-310.997 -3555.419 25 25" width="25" xmlns="http://www.w3.org/2000/svg"><g fill="none"><path d="m-306.65697-3554.9187h16.32c2.12077 0 3.84 1.7192 3.84 3.84v16.32c0 2.1207-1.71923 3.84-3.84 3.84h-16.32c-2.12077 0-3.84-1.7193-3.84-3.84v-16.32c0-2.1208 1.71923-3.84 3.84-3.84z" fill="#666"/><path d="m-306.65697-3554.9187h16.32c2.12077 0 3.84 1.7192 3.84 3.84v16.32c0 2.1207-1.71923 3.84-3.84 3.84h-16.32c-2.12077 0-3.84-1.7193-3.84-3.84v-16.32c0-2.1208 1.71923-3.84 3.84-3.84z" stroke="#fff" stroke-linecap="round" stroke-linejoin="round" stroke-width=".25"/><path d="m-292.28703-3545.318c-.2209 0-.39997-.1793-.39997-.4v-1.2h-2.79987c-.2209 0-.39998-.179-.39998-.4v-2.8h-6.79965c-.6627 0-1.19995.5373-1.19995 1.2v11.9994c0 .6626.53725 1.1999 1.19995 1.1999h8.79955c.66271 0 1.19995-.5373 1.19995-1.1999v-1.5999c0-.2209.17907-.4.39997-.4.22091 0 .39998.1791.39998.4v1.5999c0 1.1046-.89538 1.9999-1.9999 1.9999h-8.79955c-1.10452 0-1.9999-.8953-1.9999-1.9999v-11.9994c0-1.1045.89538-2 1.9999-2h7.17725c.10619-.0066.21673.0288.30521.1173l3.19984 3.1997c.08848.0886.1239.199.11715.3053v1.5777c0 .2207-.17907.4-.39998.4zm-.96563 3.1997h-6.24511c-.2209 0-.39998-.1791-.39998-.4s.17908-.4.39998-.4h6.24511l-1.71708-1.7171c-.1562-.1562-.1562-.4096 0-.5656.15621-.1562.40946-.1562.56566 0l2.39988 2.4c.1562.156.1562.4093 0 .5655l-2.39988 2.3999c-.1562.1562-.40945.1562-.56566 0-.1562-.1564-.1562-.4094 0-.5657zm-1.83424-7.434v1.8343h1.83424z" fill="#c0e0ff"/></g></svg>