<?xml version="1.0" encoding="UTF-8" standalone="no"?>
<!DOCTYPE svg PUBLIC "-//W3C//DTD SVG 1.1//EN" "http://www.w3.org/Graphics/SVG/1.1/DTD/svg11.dtd">
<svg xmlns="http://www.w3.org/2000/svg" xmlns:xl="http://www.w3.org/1999/xlink" version="1.1" xmlns:dc="http://purl.org/dc/elements/1.1/" viewBox="-346.99697 -3555.4187 25 25" width="25" height="25">
  <defs/>
  <g id="SOURCES" stroke-opacity="1" fill="none" stroke="none" fill-opacity="1" stroke-dasharray="none">
    <title>SOURCES</title>
    <g id="SOURCES_Dark">
      <title>Dark</title>
      <g id="Graphic_11696">
        <title>views/view.other</title>
        <path d="M -342.65697 -3554.9187 L -326.33697 -3554.9187 C -324.2162 -3554.9187 -322.49697 -3553.1995 -322.49697 -3551.0787 L -322.49697 -3534.7587 C -322.49697 -3532.638 -324.2162 -3530.9187 -326.33697 -3530.9187 L -342.65697 -3530.9187 C -344.77774 -3530.9187 -346.49697 -3532.638 -346.49697 -3534.7587 L -346.49697 -3551.0787 C -346.49697 -3553.1995 -344.77774 -3554.9187 -342.65697 -3554.9187 Z" fill="#666"/>
        <path d="M -342.65697 -3554.9187 L -326.33697 -3554.9187 C -324.2162 -3554.9187 -322.49697 -3553.1995 -322.49697 -3551.0787 L -322.49697 -3534.7587 C -322.49697 -3532.638 -324.2162 -3530.9187 -326.33697 -3530.9187 L -342.65697 -3530.9187 C -344.77774 -3530.9187 -346.49697 -3532.638 -346.49697 -3534.7587 L -346.49697 -3551.0787 C -346.49697 -3553.1995 -344.77774 -3554.9187 -342.65697 -3554.9187 Z" stroke="white" stroke-linecap="round" stroke-linejoin="round" stroke-width=".25"/>
      </g>
      <g id="Graphic_11695">
        <path d="M -329.16363 -3548.252 L -326.9414 -3548.252 C -326.69595 -3548.252 -326.49697 -3548.053 -326.49697 -3547.8076 C -326.49697 -3547.562 -326.69595 -3547.363 -326.9414 -3547.363 L -329.16363 -3547.363 L -329.16363 -3545.141 C -329.16363 -3544.8955 -329.3626 -3544.6965 -329.60808 -3544.6965 C -329.85354 -3544.6965 -330.05252 -3544.8955 -330.05252 -3545.141 L -330.05252 -3547.363 L -332.27474 -3547.363 C -332.5202 -3547.363 -332.7192 -3547.562 -332.7192 -3547.8076 C -332.7192 -3548.053 -332.5202 -3548.252 -332.27474 -3548.252 L -330.05252 -3548.252 L -330.05252 -3550.4743 C -330.05252 -3550.7197 -329.85354 -3550.9187 -329.60808 -3550.9187 C -329.3626 -3550.9187 -329.16363 -3550.7197 -329.16363 -3550.4743 Z M -327.38585 -3543.363 C -327.38585 -3543.6086 -327.18687 -3543.8076 -326.9414 -3543.8076 C -326.69595 -3543.8076 -326.49697 -3543.6086 -326.49697 -3543.363 L -326.49697 -3537.141 C -326.49697 -3535.9136 -327.4919 -3534.9187 -328.7192 -3534.9187 L -340.27474 -3534.9187 C -341.50204 -3534.9187 -342.49697 -3535.9136 -342.49697 -3537.141 L -342.49697 -3548.6965 C -342.49697 -3549.9238 -341.50204 -3550.9187 -340.27474 -3550.9187 L -334.05252 -3550.9187 C -333.80706 -3550.9187 -333.60808 -3550.7197 -333.60808 -3550.4743 C -333.60808 -3550.229 -333.80706 -3550.03 -334.05252 -3550.03 L -340.27474 -3550.03 C -341.01112 -3550.03 -341.60808 -3549.433 -341.60808 -3548.6965 L -341.60808 -3537.141 C -341.60808 -3536.4045 -341.01112 -3535.8076 -340.27474 -3535.8076 L -328.7192 -3535.8076 C -327.9828 -3535.8076 -327.38585 -3536.4045 -327.38585 -3537.141 Z" fill="#c0e0ff"/>
      </g>
    </g>
  </g>
</svg>
