<svg height="25" viewBox="-310.997 -3555.419 25 25" width="25" xmlns="http://www.w3.org/2000/svg"><g fill="none"><path d="M-306.657-3554.919h16.32a3.84 3.84 0 0 1 3.84 3.84v16.32a3.84 3.84 0 0 1-3.84 3.84h-16.32a3.84 3.84 0 0 1-3.84-3.84v-16.32a3.84 3.84 0 0 1 3.84-3.84z" fill="#666"/><path d="M-306.657-3554.919h16.32a3.84 3.84 0 0 1 3.84 3.84v16.32a3.84 3.84 0 0 1-3.84 3.84h-16.32a3.84 3.84 0 0 1-3.84-3.84v-16.32a3.84 3.84 0 0 1 3.84-3.84z" stroke="#fff" stroke-linecap="round" stroke-linejoin="round" stroke-width=".25"/><path d="M-292.287-3545.318a.4.4 0 0 1-.4-.4v-1.2h-2.8a.4.4 0 0 1-.4-.4v-2.8h-6.8a1.2 1.2 0 0 0-1.2 1.2v12a1.2 1.2 0 0 0 1.2 1.2h8.8a1.2 1.2 0 0 0 1.2-1.2v-1.6a.4.4 0 1 1 .8 0v1.6a2 2 0 0 1-2 2h-8.8a2 2 0 0 1-2-2v-12a2 2 0 0 1 2-2h7.178a.392.392 0 0 1 .305.117l3.2 3.2a.392.392 0 0 1 .117.305v1.578a.4.4 0 0 1-.4.4zm-.966 3.2h-6.245a.4.4 0 0 1 0-.8h6.245l-1.717-1.717a.4.4 0 1 1 .566-.566l2.4 2.4a.4.4 0 0 1 0 .566l-2.4 2.4a.4.4 0 1 1-.566-.566zm-1.834-7.434v1.834h1.834z" fill="#c0e0ff"/></g></svg>