<svg height="25" viewBox="-346.997 -3555.419 25 25" width="25" xmlns="http://www.w3.org/2000/svg"><g fill="none"><path d="m-342.65697-3554.9187h16.32c2.12077 0 3.84 1.7192 3.84 3.84v16.32c0 2.1207-1.71923 3.84-3.84 3.84h-16.32c-2.12077 0-3.84-1.7193-3.84-3.84v-16.32c0-2.1208 1.71923-3.84 3.84-3.84z" fill="#666"/><path d="m-342.65697-3554.9187h16.32c2.12077 0 3.84 1.7192 3.84 3.84v16.32c0 2.1207-1.71923 3.84-3.84 3.84h-16.32c-2.12077 0-3.84-1.7193-3.84-3.84v-16.32c0-2.1208 1.71923-3.84 3.84-3.84z" stroke="#fff" stroke-linecap="round" stroke-linejoin="round" stroke-width=".25"/><path d="m-329.16363-3548.252h2.22223c.24545 0 .44443.199.44443.4444 0 .2456-.19898.4446-.44443.4446h-2.22223v2.222c0 .2455-.19897.4445-.44445.4445-.24546 0-.44444-.199-.44444-.4445v-2.222h-2.22222c-.24546 0-.44446-.199-.44446-.4446 0-.2454.199-.4444.44446-.4444h2.22222v-2.2223c0-.2454.19898-.4444.44444-.4444.24548 0 .44445.199.44445.4444zm1.77778 4.889c0-.2456.19898-.4446.44445-.4446.24545 0 .44443.199.44443.4446v6.222c0 1.2274-.99493 2.2223-2.22223 2.2223h-11.55554c-1.2273 0-2.22223-.9949-2.22223-2.2223v-11.5555c0-1.2273.99493-2.2222 2.22223-2.2222h6.22222c.24546 0 .44444.199.44444.4444 0 .2453-.19898.4443-.44444.4443h-6.22222c-.73638 0-1.33334.597-1.33334 1.3335v11.5555c0 .7365.59696 1.3334 1.33334 1.3334h11.55554c.7364 0 1.33335-.5969 1.33335-1.3334z" fill="#c0e0ff"/></g></svg>