<svg height="25" viewBox="-238.997 -3555.419 25 25" width="25" xmlns="http://www.w3.org/2000/svg"><g fill="none"><path d="m-234.65697-3554.9187h16.32c2.12077 0 3.84 1.7192 3.84 3.84v16.32c0 2.1207-1.71923 3.84-3.84 3.84h-16.32c-2.12077 0-3.84-1.7193-3.84-3.84v-16.32c0-2.1208 1.71923-3.84 3.84-3.84z" fill="#666"/><path d="m-234.65697-3554.9187h16.32c2.12077 0 3.84 1.7192 3.84 3.84v16.32c0 2.1207-1.71923 3.84-3.84 3.84h-16.32c-2.12077 0-3.84-1.7193-3.84-3.84v-16.32c0-2.1208 1.71923-3.84 3.84-3.84z" stroke="#fff" stroke-linecap="round" stroke-linejoin="round" stroke-width=".25"/><path d="m-220.0977-3547.2957v10.3771c0 1.1046-.89537 1.9999-1.9999 1.9999h-8.79955c-1.10451 0-1.9999-.8953-1.9999-1.9999v-11.9994c0-1.1045.89539-2 1.9999-2h7.17725c.1062-.0066.21674.0288.30522.1173l3.19984 3.1997c.08848.0886.12389.199.11714.3053zm-3.9998-2.8223h-6.79965c-.6627 0-1.19995.5373-1.19995 1.2v11.9994c0 .6626.53725 1.1999 1.19995 1.1999h8.79955c.66272 0 1.19995-.5373 1.19995-1.1999v-9.9994h-2.79985c-.2209 0-.4-.179-.4-.4zm.79997.5657v1.8343h1.83423z" fill="#8eed62"/><path d="m-223.74345-3542.5253h-2.08481c-.15207 0-.27534.1233-.27534.2753v1.8095c0 .152-.12329.2755-.27536.2755h-.23601c-.15208 0-.27536-.1235-.27536-.2755v-1.8095c0-.152-.12327-.2753-.27535-.2753h-1.80945c-.15207 0-.27535-.1233-.27535-.2754v-.236c0-.1521.12328-.2753.27535-.2753h1.80945c.15208 0 .27535-.1233.27535-.2754v-1.8096c0-.152.12328-.2752.27536-.2752h.23601c.15207 0 .27536.1232.27536.2752v1.8096c0 .1521.12327.2754.27534.2754h1.80946c.15207 0 .27535.1232.27535.2753z" fill="#8eed62"/><path d="m-223.74345-3542.5253h-2.08481c-.15207 0-.27534.1233-.27534.2753v1.8095c0 .152-.12329.2755-.27536.2755h-.23601c-.15208 0-.27536-.1235-.27536-.2755v-1.8095c0-.152-.12327-.2753-.27535-.2753h-1.80945c-.15207 0-.27535-.1233-.27535-.2754v-.236c0-.1521.12328-.2753.27535-.2753h1.80945c.15208 0 .27535-.1233.27535-.2754v-1.8096c0-.152.12328-.2752.27536-.2752h.23601c.15207 0 .27536.1232.27536.2752v1.8096c0 .1521.12327.2754.27534.2754h1.80946c.15207 0 .27535.1232.27535.2753z"/></g></svg>