<svg height="25" viewBox="-238.997 -3555.419 25 25" width="25" xmlns="http://www.w3.org/2000/svg"><g fill="none"><path d="M-234.657-3554.919h16.32a3.84 3.84 0 0 1 3.84 3.84v16.32a3.84 3.84 0 0 1-3.84 3.84h-16.32a3.84 3.84 0 0 1-3.84-3.84v-16.32a3.84 3.84 0 0 1 3.84-3.84z" fill="#666"/><path d="M-234.657-3554.919h16.32a3.84 3.84 0 0 1 3.84 3.84v16.32a3.84 3.84 0 0 1-3.84 3.84h-16.32a3.84 3.84 0 0 1-3.84-3.84v-16.32a3.84 3.84 0 0 1 3.84-3.84z" stroke="#fff" stroke-linecap="round" stroke-linejoin="round" stroke-width=".25"/><path d="M-220.098-3547.296v10.377a2 2 0 0 1-2 2h-8.8a2 2 0 0 1-2-2v-11.999a2 2 0 0 1 2-2h7.178a.392.392 0 0 1 .305.117l3.2 3.2a.392.392 0 0 1 .117.305zm-4-2.822h-6.8a1.2 1.2 0 0 0-1.2 1.2v12a1.2 1.2 0 0 0 1.2 1.2h8.8a1.2 1.2 0 0 0 1.2-1.2v-10h-2.8a.4.4 0 0 1-.4-.4zm.8.566v1.834h1.835z" fill="#8eed62"/><path d="M-223.743-3542.525h-2.085a.275.275 0 0 0-.276.275v1.81a.276.276 0 0 1-.275.275h-.236a.276.276 0 0 1-.275-.276v-1.809a.275.275 0 0 0-.276-.275h-1.81a.275.275 0 0 1-.274-.276v-.236c0-.152.123-.275.275-.275h1.81a.275.275 0 0 0 .275-.275v-1.81c0-.152.123-.275.275-.275h.236c.152 0 .275.123.275.275v1.81c0 .152.124.275.276.275h1.81c.151 0 .275.123.275.275z" fill="#8eed62"/><path d="M-223.743-3542.525h-2.085a.275.275 0 0 0-.276.275v1.81a.276.276 0 0 1-.275.275h-.236a.276.276 0 0 1-.275-.276v-1.809a.275.275 0 0 0-.276-.275h-1.81a.275.275 0 0 1-.274-.276v-.236c0-.152.123-.275.275-.275h1.81a.275.275 0 0 0 .275-.275v-1.81c0-.152.123-.275.275-.275h.236c.152 0 .275.123.275.275v1.81c0 .152.124.275.276.275h1.81c.151 0 .275.123.275.275z"/></g></svg>