<svg height="25" viewBox="-202.997 -3555.419 25 25" width="25" xmlns="http://www.w3.org/2000/svg"><g fill="none"><path d="m-198.65697-3554.9187h16.32c2.12077 0 3.84 1.7192 3.84 3.84v16.32c0 2.1207-1.71923 3.84-3.84 3.84h-16.32c-2.12077 0-3.84-1.7193-3.84-3.84v-16.32c0-2.1208 1.71923-3.84 3.84-3.84z" fill="#666"/><path d="m-198.65697-3554.9187h16.32c2.12077 0 3.84 1.7192 3.84 3.84v16.32c0 2.1207-1.71923 3.84-3.84 3.84h-16.32c-2.12077 0-3.84-1.7193-3.84-3.84v-16.32c0-2.1208 1.71923-3.84 3.84-3.84z" stroke="#fff" stroke-linecap="round" stroke-linejoin="round" stroke-width=".25"/><g fill="#8eed62"><path d="m-191.75862-3542.6687v2c0 .2207-.17908.4-.4.4-.22091 0-.4-.1793-.4-.4v-2h-2c-.22091 0-.4-.1793-.4-.4 0-.2209.17909-.4.4-.4h2v-2c0-.2209.17909-.4.4-.4.22092 0 .4.1791.4.4v2h2c.22092 0 .4.1791.4.4 0 .2207-.17908.4-.4.4zm-6-8h5.2c.88366 0 1.6.7163 1.6 1.6 0 .4417.35817.8.8.8h4.4c1.10457 0 2 .8954 2 2v6.4c0 1.1047-.89543 2-2 2h-12c-1.10458 0-2-.8953-2-2v-8.8c0-1.1046.89542-2 2-2zm0 .8c-.66274 0-1.2.5372-1.2 1.2v8.8c0 .6627.53726 1.2 1.2 1.2h12c.66274 0 1.2-.5373 1.2-1.2v-6.4c0-.6628-.53726-1.2-1.2-1.2h-4.4c-.88366 0-1.6-.7163-1.6-1.6 0-.4418-.35818-.8-.8-.8z"/><path d="m-189.9394-3537.709c.07336.086.18237.1403.30409.1403.12171 0 .23073-.0543.3041-.1403zm-7.2959 0v.5403c0 1.1047.89542 2 2 2h11.99999c1.10457 0 2-.8953 2-2v-6.4c0-1.1046-.89543-2-2-2h-.31836v.8h.31836c.66274 0 1.2.5373 1.2 1.2v6.4c0 .6627-.53726 1.2-1.2 1.2h-11.99999c-.66275 0-1.2-.5373-1.2-1.2v-.5403z"/></g></g></svg>