<?xml version="1.0" encoding="UTF-8" standalone="no"?>
<!DOCTYPE svg PUBLIC "-//W3C//DTD SVG 1.1//EN" "http://www.w3.org/Graphics/SVG/1.1/DTD/svg11.dtd">
<svg xmlns="http://www.w3.org/2000/svg" xmlns:xl="http://www.w3.org/1999/xlink" version="1.1" xmlns:dc="http://purl.org/dc/elements/1.1/" viewBox="-238.99697 -3555.4187 25 25" width="25" height="25">
  <defs/>
  <g id="SOURCES" stroke-opacity="1" fill="none" stroke="none" fill-opacity="1" stroke-dasharray="none">
    <title>SOURCES</title>
    <g id="SOURCES_Dark">
      <title>Dark</title>
      <g id="Graphic_11708">
        <title>views/view.other</title>
        <path d="M -234.65697 -3554.9187 L -218.33697 -3554.9187 C -216.2162 -3554.9187 -214.49697 -3553.1995 -214.49697 -3551.0787 L -214.49697 -3534.7587 C -214.49697 -3532.638 -216.2162 -3530.9187 -218.33697 -3530.9187 L -234.65697 -3530.9187 C -236.77774 -3530.9187 -238.49697 -3532.638 -238.49697 -3534.7587 L -238.49697 -3551.0787 C -238.49697 -3553.1995 -236.77774 -3554.9187 -234.65697 -3554.9187 Z" fill="#666"/>
        <path d="M -234.65697 -3554.9187 L -218.33697 -3554.9187 C -216.2162 -3554.9187 -214.49697 -3553.1995 -214.49697 -3551.0787 L -214.49697 -3534.7587 C -214.49697 -3532.638 -216.2162 -3530.9187 -218.33697 -3530.9187 L -234.65697 -3530.9187 C -236.77774 -3530.9187 -238.49697 -3532.638 -238.49697 -3534.7587 L -238.49697 -3551.0787 C -238.49697 -3553.1995 -236.77774 -3554.9187 -234.65697 -3554.9187 Z" stroke="white" stroke-linecap="round" stroke-linejoin="round" stroke-width=".25"/>
      </g>
      <g id="Graphic_11707">
        <path d="M -220.0977 -3547.2957 L -220.0977 -3536.9186 C -220.0977 -3535.814 -220.99307 -3534.9187 -222.0976 -3534.9187 L -230.89715 -3534.9187 C -232.00166 -3534.9187 -232.89705 -3535.814 -232.89705 -3536.9186 L -232.89705 -3548.918 C -232.89705 -3550.0225 -232.00166 -3550.918 -230.89715 -3550.918 L -223.7199 -3550.918 C -223.6137 -3550.9246 -223.50316 -3550.8892 -223.41468 -3550.8007 L -220.21484 -3547.601 C -220.12636 -3547.5124 -220.09095 -3547.402 -220.0977 -3547.2957 Z M -224.0975 -3550.118 L -230.89715 -3550.118 C -231.55985 -3550.118 -232.0971 -3549.5807 -232.0971 -3548.918 L -232.0971 -3536.9186 C -232.0971 -3536.256 -231.55985 -3535.7187 -230.89715 -3535.7187 L -222.0976 -3535.7187 C -221.43488 -3535.7187 -220.89765 -3536.256 -220.89765 -3536.9186 L -220.89765 -3546.918 L -223.6975 -3546.918 C -223.9184 -3546.918 -224.0975 -3547.097 -224.0975 -3547.318 Z M -223.29753 -3549.5523 L -223.29753 -3547.718 L -221.4633 -3547.718 Z" fill="#8eed62"/>
      </g>
      <g id="Graphic_11706">
        <path d="M -223.74345 -3542.5253 L -225.82826 -3542.5253 C -225.98033 -3542.5253 -226.1036 -3542.402 -226.1036 -3542.25 L -226.1036 -3540.4405 C -226.1036 -3540.2885 -226.22689 -3540.165 -226.37896 -3540.165 L -226.61497 -3540.165 C -226.76705 -3540.165 -226.89033 -3540.2885 -226.89033 -3540.4405 L -226.89033 -3542.25 C -226.89033 -3542.402 -227.0136 -3542.5253 -227.16568 -3542.5253 L -228.97513 -3542.5253 C -229.1272 -3542.5253 -229.25048 -3542.6486 -229.25048 -3542.8007 L -229.25048 -3543.0367 C -229.25048 -3543.1888 -229.1272 -3543.312 -228.97513 -3543.312 L -227.16568 -3543.312 C -227.0136 -3543.312 -226.89033 -3543.4353 -226.89033 -3543.5874 L -226.89033 -3545.397 C -226.89033 -3545.549 -226.76705 -3545.6722 -226.61497 -3545.6722 L -226.37896 -3545.6722 C -226.22689 -3545.6722 -226.1036 -3545.549 -226.1036 -3545.397 L -226.1036 -3543.5874 C -226.1036 -3543.4353 -225.98033 -3543.312 -225.82826 -3543.312 L -224.0188 -3543.312 C -223.86673 -3543.312 -223.74345 -3543.1888 -223.74345 -3543.0367 L -223.74345 -3542.5253 Z" fill="#8eed62"/>
        <path d="M -223.74345 -3542.5253 L -225.82826 -3542.5253 C -225.98033 -3542.5253 -226.1036 -3542.402 -226.1036 -3542.25 L -226.1036 -3540.4405 C -226.1036 -3540.2885 -226.22689 -3540.165 -226.37896 -3540.165 L -226.61497 -3540.165 C -226.76705 -3540.165 -226.89033 -3540.2885 -226.89033 -3540.4405 L -226.89033 -3542.25 C -226.89033 -3542.402 -227.0136 -3542.5253 -227.16568 -3542.5253 L -228.97513 -3542.5253 C -229.1272 -3542.5253 -229.25048 -3542.6486 -229.25048 -3542.8007 L -229.25048 -3543.0367 C -229.25048 -3543.1888 -229.1272 -3543.312 -228.97513 -3543.312 L -227.16568 -3543.312 C -227.0136 -3543.312 -226.89033 -3543.4353 -226.89033 -3543.5874 L -226.89033 -3545.397 C -226.89033 -3545.549 -226.76705 -3545.6722 -226.61497 -3545.6722 L -226.37896 -3545.6722 C -226.22689 -3545.6722 -226.1036 -3545.549 -226.1036 -3545.397 L -226.1036 -3543.5874 C -226.1036 -3543.4353 -225.98033 -3543.312 -225.82826 -3543.312 L -224.0188 -3543.312 C -223.86673 -3543.312 -223.74345 -3543.1888 -223.74345 -3543.0367 L -223.74345 -3542.5253 Z" stroke="#518737" stroke-linecap="round" stroke-linejoin="round" stroke-width="0"/>
      </g>
    </g>
  </g>
</svg>
