<?xml version="1.0" encoding="UTF-8" standalone="no"?>
<!DOCTYPE svg PUBLIC "-//W3C//DTD SVG 1.1//EN" "http://www.w3.org/Graphics/SVG/1.1/DTD/svg11.dtd">
<svg xmlns="http://www.w3.org/2000/svg" xmlns:xl="http://www.w3.org/1999/xlink" version="1.1" xmlns:dc="http://purl.org/dc/elements/1.1/" viewBox="-202.99697 -3555.4187 25 25" width="25" height="25">
  <defs/>
  <g id="SOURCES" stroke-opacity="1" fill="none" stroke="none" fill-opacity="1" stroke-dasharray="none">
    <title>SOURCES</title>
    <g id="SOURCES_Dark">
      <title>Dark</title>
      <g id="Graphic_11718">
        <title>views/view.other</title>
        <path d="M -198.65697 -3554.9187 L -182.33697 -3554.9187 C -180.2162 -3554.9187 -178.49697 -3553.1995 -178.49697 -3551.0787 L -178.49697 -3534.7587 C -178.49697 -3532.638 -180.2162 -3530.9187 -182.33697 -3530.9187 L -198.65697 -3530.9187 C -200.77774 -3530.9187 -202.49697 -3532.638 -202.49697 -3534.7587 L -202.49697 -3551.0787 C -202.49697 -3553.1995 -200.77774 -3554.9187 -198.65697 -3554.9187 Z" fill="#666"/>
        <path d="M -198.65697 -3554.9187 L -182.33697 -3554.9187 C -180.2162 -3554.9187 -178.49697 -3553.1995 -178.49697 -3551.0787 L -178.49697 -3534.7587 C -178.49697 -3532.638 -180.2162 -3530.9187 -182.33697 -3530.9187 L -198.65697 -3530.9187 C -200.77774 -3530.9187 -202.49697 -3532.638 -202.49697 -3534.7587 L -202.49697 -3551.0787 C -202.49697 -3553.1995 -200.77774 -3554.9187 -198.65697 -3554.9187 Z" stroke="white" stroke-linecap="round" stroke-linejoin="round" stroke-width=".25"/>
      </g>
      <g id="Graphic_11717">
        <path d="M -191.75862 -3542.6687 L -191.75862 -3540.6687 C -191.75862 -3540.448 -191.9377 -3540.2687 -192.15862 -3540.2687 C -192.37953 -3540.2687 -192.55862 -3540.448 -192.55862 -3540.6687 L -192.55862 -3542.6687 L -194.55862 -3542.6687 C -194.77953 -3542.6687 -194.95862 -3542.848 -194.95862 -3543.0687 C -194.95862 -3543.2896 -194.77953 -3543.4687 -194.55862 -3543.4687 L -192.55862 -3543.4687 L -192.55862 -3545.4687 C -192.55862 -3545.6896 -192.37953 -3545.8687 -192.15862 -3545.8687 C -191.9377 -3545.8687 -191.75862 -3545.6896 -191.75862 -3545.4687 L -191.75862 -3543.4687 L -189.75862 -3543.4687 C -189.5377 -3543.4687 -189.35862 -3543.2896 -189.35862 -3543.0687 C -189.35862 -3542.848 -189.5377 -3542.6687 -189.75862 -3542.6687 Z M -197.75862 -3550.6687 L -192.55862 -3550.6687 C -191.67496 -3550.6687 -190.95862 -3549.9524 -190.95862 -3549.0687 C -190.95862 -3548.627 -190.60045 -3548.2687 -190.15862 -3548.2687 L -185.75862 -3548.2687 C -184.65405 -3548.2687 -183.75862 -3547.3733 -183.75862 -3546.2687 L -183.75862 -3539.8687 C -183.75862 -3538.764 -184.65405 -3537.8687 -185.75862 -3537.8687 L -197.75862 -3537.8687 C -198.8632 -3537.8687 -199.75862 -3538.764 -199.75862 -3539.8687 L -199.75862 -3548.6687 C -199.75862 -3549.7733 -198.8632 -3550.6687 -197.75862 -3550.6687 Z M -197.75862 -3549.8687 C -198.42136 -3549.8687 -198.95862 -3549.3315 -198.95862 -3548.6687 L -198.95862 -3539.8687 C -198.95862 -3539.206 -198.42136 -3538.6687 -197.75862 -3538.6687 L -185.75862 -3538.6687 C -185.09588 -3538.6687 -184.55862 -3539.206 -184.55862 -3539.8687 L -184.55862 -3546.2687 C -184.55862 -3546.9315 -185.09588 -3547.4687 -185.75862 -3547.4687 L -190.15862 -3547.4687 C -191.04228 -3547.4687 -191.75862 -3548.185 -191.75862 -3549.0687 C -191.75862 -3549.5105 -192.1168 -3549.8687 -192.55862 -3549.8687 Z" fill="#8eed62"/>
      </g>
      <g id="Graphic_11716">
        <path d="M -189.9394 -3537.709 C -189.86604 -3537.623 -189.75703 -3537.5687 -189.63531 -3537.5687 C -189.5136 -3537.5687 -189.40458 -3537.623 -189.33121 -3537.709 Z M -197.2353 -3537.709 L -197.2353 -3537.1687 C -197.2353 -3536.064 -196.33988 -3535.1687 -195.2353 -3535.1687 L -183.23531 -3535.1687 C -182.13074 -3535.1687 -181.23531 -3536.064 -181.23531 -3537.1687 L -181.23531 -3543.5687 C -181.23531 -3544.6733 -182.13074 -3545.5687 -183.23531 -3545.5687 L -183.55367 -3545.5687 L -183.55367 -3544.7687 L -183.23531 -3544.7687 C -182.57257 -3544.7687 -182.03531 -3544.2314 -182.03531 -3543.5687 L -182.03531 -3537.1687 C -182.03531 -3536.506 -182.57257 -3535.9687 -183.23531 -3535.9687 L -195.2353 -3535.9687 C -195.89805 -3535.9687 -196.4353 -3536.506 -196.4353 -3537.1687 L -196.4353 -3537.709 Z" fill="#8eed62"/>
      </g>
    </g>
  </g>
</svg>
