<svg height="25" viewBox="-166.997 -3555.419 25 25" width="25" xmlns="http://www.w3.org/2000/svg"><g fill="none"><path d="m-162.65697-3554.9187h16.32c2.12077 0 3.84 1.7192 3.84 3.84v16.32c0 2.1207-1.71923 3.84-3.84 3.84h-16.32c-2.12077 0-3.84-1.7193-3.84-3.84v-16.32c0-2.1208 1.71923-3.84 3.84-3.84z" fill="#666"/><path d="m-162.65697-3554.9187h16.32c2.12077 0 3.84 1.7192 3.84 3.84v16.32c0 2.1207-1.71923 3.84-3.84 3.84h-16.32c-2.12077 0-3.84-1.7193-3.84-3.84v-16.32c0-2.1208 1.71923-3.84 3.84-3.84z" stroke="#fff" stroke-linecap="round" stroke-linejoin="round" stroke-width=".25"/><g fill="#ff797c"><path d="m-155.25806-3543.5937 1.71716 1.7172c.15621.1562.15621.4095 0 .5655-.1562.1563-.40947.1563-.56568 0l-1.71716-1.717-1.71716 1.717c-.1562.1563-.40947.1563-.56568 0-.15622-.156-.15622-.4093 0-.5655l1.71715-1.7172-1.71715-1.7173c-.15622-.156-.15622-.4093 0-.5655.15621-.1563.40948-.1563.56568 0l1.71716 1.7171 1.71716-1.7171c.15621-.1563.40948-.1563.56568 0 .15621.1562.15621.4095 0 .5655zm-6.56568-7.2h5.2c.88365 0 1.6.7163 1.6 1.6 0 .4417.35817.8.8.8h4.4c1.10457 0 2 .8954 2 2v6.4c0 1.1047-.89543 2-2 2h-12c-1.10457 0-2-.8953-2-2v-8.8c0-1.1046.89543-2 2-2zm0 .8c-.66274 0-1.2.5373-1.2 1.2v8.8c0 .6627.53726 1.2 1.2 1.2h12c.66274 0 1.2-.5373 1.2-1.2v-6.4c0-.6627-.53726-1.2-1.2-1.2h-4.4c-.88366 0-1.6-.7163-1.6-1.6 0-.4418-.35817-.8-.8-.8z"/><path d="m-153.87429-3537.584c.07337.086.18239.1403.30409.1403.12172 0 .23074-.0543.3041-.1403zm-7.29591 0v.5403c0 1.1047.89544 2 2 2h12.00001c1.10457 0 2-.8953 2-2v-6.4c0-1.1046-.89543-2-2-2h-.31836v.8h.31836c.66274 0 1.2.5373 1.2 1.2v6.4c0 .6627-.53726 1.2-1.2 1.2h-12.00001c-.66273 0-1.2-.5373-1.2-1.2v-.5403z"/></g></g></svg>