<svg height="25" viewBox="-130.997 -3555.419 25 25" width="25" xmlns="http://www.w3.org/2000/svg"><g fill="none"><path d="m-126.65697-3554.9187h16.32c2.12078 0 3.84 1.7192 3.84 3.84v16.32c0 2.1207-1.71922 3.84-3.84 3.84h-16.32c-2.12077 0-3.84-1.7193-3.84-3.84v-16.32c0-2.1208 1.71923-3.84 3.84-3.84z" fill="#666"/><path d="m-126.65697-3554.9187h16.32c2.12078 0 3.84 1.7192 3.84 3.84v16.32c0 2.1207-1.71922 3.84-3.84 3.84h-16.32c-2.12077 0-3.84-1.7193-3.84-3.84v-16.32c0-2.1208 1.71923-3.84 3.84-3.84z" stroke="#fff" stroke-linecap="round" stroke-linejoin="round" stroke-width=".25"/><g fill="#c0e0ff"><path d="m-112.64182-3545.5517v-.7998c0-.6628-.53726-1.2-1.2-1.2h-4.4c-.88366 0-1.6-.7165-1.6-1.6 0-.4418-.35818-.8-.8-.8h-5.2c-.66274 0-1.2.5372-1.2 1.2v8.8c0 .6627.53726 1.2 1.2 1.2h.8c.66274 0 1.2-.5373 1.2-1.2v-4c0-1.1045.89543-2 2-2h8c.45024 0 .86573.1488 1.2.3998zm0 1.6002c0-.6628-.53726-1.2-1.2-1.2h-8c-.66274 0-1.2.5372-1.2 1.2v4c0 .4502-.14878.8657-.39986 1.2h9.59986c.66274 0 1.2-.5373 1.2-1.2zm-13.2-6.8h5.2c.88365 0 1.6.7165 1.6 1.6 0 .4418.35817.8.8.8h4.4c1.10457 0 2 .8955 2 2v6.4c0 1.1045-.89543 2-2 2h-12c-1.10457 0-2-.8955-2-2v-8.8c0-1.1045.89543-2 2-2z"/><path d="m-117.8562-3537.626c.07336.0857.18238.14.30409.14s.23073-.0543.3041-.14zm-7.29591 0v.54c0 1.1047.89543 2 2 2h12c1.10457 0 2-.8953 2-2v-6.4c0-1.1045-.89543-2-2-2h-.31836v.8h.31836c.66274 0 1.2.5374 1.2 1.2v6.4c0 .663-.53726 1.2-1.2 1.2h-12c-.66274 0-1.2-.537-1.2-1.2v-.54z"/></g></g></svg>