<svg height="25" viewBox="-166.997 -3555.419 25 25" width="25" xmlns="http://www.w3.org/2000/svg"><g fill="none"><path d="M-162.657-3554.919h16.32a3.84 3.84 0 0 1 3.84 3.84v16.32a3.84 3.84 0 0 1-3.84 3.84h-16.32a3.84 3.84 0 0 1-3.84-3.84v-16.32a3.84 3.84 0 0 1 3.84-3.84z" fill="#666"/><path d="M-162.657-3554.919h16.32a3.84 3.84 0 0 1 3.84 3.84v16.32a3.84 3.84 0 0 1-3.84 3.84h-16.32a3.84 3.84 0 0 1-3.84-3.84v-16.32a3.84 3.84 0 0 1 3.84-3.84z" stroke="#fff" stroke-linecap="round" stroke-linejoin="round" stroke-width=".25"/><g fill="#ff797c"><path d="M-155.258-3543.594l1.717 1.718a.4.4 0 1 1-.566.565l-1.717-1.717-1.717 1.717a.4.4 0 1 1-.566-.565l1.718-1.718-1.718-1.717a.4.4 0 1 1 .566-.565l1.717 1.717 1.717-1.717a.4.4 0 1 1 .566.565zm-6.566-7.2h5.2a1.6 1.6 0 0 1 1.6 1.6.8.8 0 0 0 .8.8h4.4a2 2 0 0 1 2 2v6.4a2 2 0 0 1-2 2h-12a2 2 0 0 1-2-2v-8.8a2 2 0 0 1 2-2zm0 .8a1.2 1.2 0 0 0-1.2 1.2v8.8a1.2 1.2 0 0 0 1.2 1.2h12a1.2 1.2 0 0 0 1.2-1.2v-6.4a1.2 1.2 0 0 0-1.2-1.2h-4.4a1.6 1.6 0 0 1-1.6-1.6.8.8 0 0 0-.8-.8z"/><path d="M-153.874-3537.584a.399.399 0 0 0 .608 0zm-7.296 0v.54a2 2 0 0 0 2 2h12a2 2 0 0 0 2-2v-6.4a2 2 0 0 0-2-2h-.319v.8h.319a1.2 1.2 0 0 1 1.2 1.2v6.4a1.2 1.2 0 0 1-1.2 1.2h-12a1.2 1.2 0 0 1-1.2-1.2v-.54z"/></g></g></svg>