<svg height="24.75" viewBox="-93.545 -3555.294 24.75 24.75" width="24.75" xmlns="http://www.w3.org/2000/svg"><g fill="none"><circle cx="-81.17" cy="-3543.086" fill="#666" r="8"/><circle cx="-81.17" cy="-3543.086" r="8"/><path d="M-80.37-3539.886h1.2c.224 0 .4.176.4.4s-.176.4-.4.4h-3.2c-.224 0-.4-.176-.4-.4s.176-.4.4-.4h1.2v-4h-1.2c-.224 0-.4-.176-.4-.4s.176-.4.4-.4h1.6c.224 0 .4.176.4.4zm-.8 4.8c-4.416 0-8-3.584-8-8s3.584-8 8-8 8 3.584 8 8-3.584 8-8 8zm0-.8a7.2 7.2 0 1 0-.001-14.401 7.2 7.2 0 0 0 0 14.401zm-.4-11.2h.8c.224 0 .4.176.4.4v.8c0 .224-.176.4-.4.4h-.8a.396.396 0 0 1-.4-.4v-.8c0-.224.176-.4.4-.4z" fill="#c0e0ff"/></g></svg>