<?xml version="1.0" encoding="UTF-8" standalone="no"?>
<!DOCTYPE svg PUBLIC "-//W3C//DTD SVG 1.1//EN" "http://www.w3.org/Graphics/SVG/1.1/DTD/svg11.dtd">
<svg version="1.1" xmlns="http://www.w3.org/2000/svg" xmlns:xl="http://www.w3.org/1999/xlink" xmlns:dc="http://purl.org/dc/elements/1.1/" viewBox="-992.5 -3582.6755 25 25" width="25" height="25">
  <defs/>
  <g id="SOURCES" stroke-dasharray="none" fill="none" stroke="none" fill-opacity="1" stroke-opacity="1">
    <title>SOURCES</title>
    <g id="SOURCES_Calque_2">
      <title>Calque 2</title>
      <g id="Graphic_9605">
        <path d="M -983.6 -3582.1755 L -976.4 -3582.1755 C -974 -3582.1755 -972.8 -3582.1755 -971.36 -3581.6955 C -970.16 -3581.2155 -968.96 -3580.0155 -968.48 -3578.8155 C -968 -3577.3755 -968 -3576.1755 -968 -3573.7755 L -968 -3566.5755 C -968 -3564.1755 -968 -3562.9755 -968.48 -3561.5355 C -968.96 -3560.3355 -970.16 -3559.1355 -971.36 -3558.6555 C -972.8 -3558.1755 -974 -3558.1755 -976.4 -3558.1755 L -983.6 -3558.1755 C -986 -3558.1755 -987.2 -3558.1755 -988.64 -3558.6555 C -989.84 -3559.1355 -991.04 -3560.3355 -991.52 -3561.5355 C -992 -3562.9755 -992 -3564.1755 -992 -3566.5755 L -992 -3573.7755 C -992 -3576.1755 -992 -3577.3755 -991.52 -3578.8155 C -991.04 -3580.0155 -989.84 -3581.2155 -988.64 -3581.6955 C -987.2 -3582.1755 -986 -3582.1755 -983.6 -3582.1755 M -983.6 -3582.1755" fill="#65727e"/>
        <path d="M -983.6 -3582.1755 L -976.4 -3582.1755 C -974 -3582.1755 -972.8 -3582.1755 -971.36 -3581.6955 C -970.16 -3581.2155 -968.96 -3580.0155 -968.48 -3578.8155 C -968 -3577.3755 -968 -3576.1755 -968 -3573.7755 L -968 -3566.5755 C -968 -3564.1755 -968 -3562.9755 -968.48 -3561.5355 C -968.96 -3560.3355 -970.16 -3559.1355 -971.36 -3558.6555 C -972.8 -3558.1755 -974 -3558.1755 -976.4 -3558.1755 L -983.6 -3558.1755 C -986 -3558.1755 -987.2 -3558.1755 -988.64 -3558.6555 C -989.84 -3559.1355 -991.04 -3560.3355 -991.52 -3561.5355 C -992 -3562.9755 -992 -3564.1755 -992 -3566.5755 L -992 -3573.7755 C -992 -3576.1755 -992 -3577.3755 -991.52 -3578.8155 C -991.04 -3580.0155 -989.84 -3581.2155 -988.64 -3581.6955 C -987.2 -3582.1755 -986 -3582.1755 -983.6 -3582.1755 M -983.6 -3582.1755" stroke="#65727e" stroke-linecap="round" stroke-linejoin="round" stroke-width=".25"/>
      </g>
      <g id="Group_9618">
        <title>image</title>
        <g id="Graphic_9619">
          <path d="M -973.0975 -3567.251 L -973.0975 -3575.9533 C -973.0975 -3576.691 -973.6931 -3577.2866 -974.4309 -3577.2866 L -985.9864 -3577.2866 C -986.7242 -3577.2866 -987.3198 -3576.691 -987.3198 -3575.9533 L -987.3198 -3569.9177 L -984.5198 -3572.7177 C -984.342 -3572.8955 -984.0664 -3572.8955 -983.8886 -3572.7177 L -978.8664 -3567.6955 L -976.5109 -3570.051 C -976.3331 -3570.229 -976.0575 -3570.229 -975.8798 -3570.051 L -973.0798 -3567.251 Z M -973.0975 -3565.989 L -976.2086 -3569.1 L -978.5642 -3566.7444 C -978.742 -3566.5666 -979.0175 -3566.5666 -979.1953 -3566.7444 L -984.2175 -3571.7666 L -987.3286 -3568.6555 L -987.3286 -3564.3977 C -987.3286 -3563.66 -986.7331 -3563.0644 -985.9953 -3563.0644 L -974.4398 -3563.0644 C -973.702 -3563.0644 -973.1064 -3563.66 -973.1064 -3564.3977 L -973.1064 -3565.989 Z M -988.2086 -3575.9533 C -988.2086 -3577.18 -987.2131 -3578.1755 -985.9864 -3578.1755 L -974.4309 -3578.1755 C -973.2042 -3578.1755 -972.2086 -3577.18 -972.2086 -3575.9533 L -972.2086 -3564.3977 C -972.2086 -3563.171 -973.2042 -3562.1755 -974.4309 -3562.1755 L -985.9864 -3562.1755 C -987.2131 -3562.1755 -988.2086 -3563.171 -988.2086 -3564.3977 Z M -977.542 -3575.509 L -975.7642 -3575.509 C -975.2753 -3575.509 -974.8753 -3575.109 -974.8753 -3574.62 L -974.8753 -3572.842 C -974.8753 -3572.3533 -975.2753 -3571.9533 -975.7642 -3571.9533 L -977.542 -3571.9533 C -978.0309 -3571.9533 -978.4309 -3572.3533 -978.4309 -3572.842 L -978.4309 -3574.62 C -978.4309 -3575.109 -978.0309 -3575.509 -977.542 -3575.509 Z M -977.542 -3574.62 L -977.542 -3572.842 L -975.7642 -3572.842 L -975.7642 -3574.62 Z" fill="white"/>
        </g>
      </g>
    </g>
  </g>
</svg>
