<svg xmlns="http://www.w3.org/2000/svg" viewBox="-674.774 -3072.633 25 25"><g fill="none"><path d="M-665.874-3072.133h7.2c2.4 0 3.6 0 5.04.48 1.2.48 2.4 1.68 2.88 2.88.48 1.44.48 2.64.48 5.04v7.2c0 2.4 0 3.6-.48 5.04-.48 1.2-1.68 2.4-2.88 2.88-1.44.48-2.64.48-5.04.48h-7.2c-2.4 0-3.6 0-5.04-.48-1.2-.48-2.4-1.68-2.88-2.88-.48-1.44-.48-2.64-.48-5.04v-7.2c0-2.4 0-3.6.48-5.04.48-1.2 1.68-2.4 2.88-2.88 1.44-.48 2.64-.48 5.04-.48m0 0" fill="#3d6c76"/><path d="M-665.874-3072.133h7.2c2.4 0 3.6 0 5.04.48 1.2.48 2.4 1.68 2.88 2.88.48 1.44.48 2.64.48 5.04v7.2c0 2.4 0 3.6-.48 5.04-.48 1.2-1.68 2.4-2.88 2.88-1.44.48-2.64.48-5.04.48h-7.2c-2.4 0-3.6 0-5.04-.48-1.2-.48-2.4-1.68-2.88-2.88-.48-1.44-.48-2.64-.48-5.04v-7.2c0-2.4 0-3.6.48-5.04.48-1.2 1.68-2.4 2.88-2.88 1.44-.48 2.64-.48 5.04-.48m0 0" stroke="#65727e" stroke-linecap="round" stroke-linejoin="round" stroke-width=".25"/><path d="M-668.582-3062.43a1.2 1.2 0 0 0-1.2 1.2v7.2a1.2 1.2 0 0 0 1.2 1.2h7.208a1.2 1.2 0 0 0 1.2-1.2v-7.2a1.2 1.2 0 0 0-1.2-1.2zm3.6-.8h3.608a2 2 0 0 1 2 2v3.6h.392a.4.4 0 1 1 0 .8h-.392v2.8a2 2 0 0 1-2 2h-7.208a2 2 0 0 1-2-2v-7.2a2 2 0 0 1 2-2h2.8v-.4a.4.4 0 1 1 .8 0zm1.2-4.8a.4.4 0 1 1 0 .8 1.2 1.2 0 0 0-1.2 1.2.4.4 0 1 1-.8 0 2 2 0 0 1 2-2zm7.2.8a.4.4 0 1 1 0-.8 2 2 0 0 1 2 2 .4.4 0 1 1-.8 0 1.2 1.2 0 0 0-1.2-1.2zm1.2 3.6a.4.4 0 1 1 .8 0v2.4a.4.4 0 1 1-.8 0zm0 4.8a.4.4 0 1 1 .8 0 2 2 0 0 1-2 2 .4.4 0 1 1 0-.8 1.2 1.2 0 0 0 1.2-1.2zm-3.6-9.2a.4.4 0 1 1 0 .8h-2.4a.4.4 0 1 1 0-.8z" fill="#fff"/></g></svg>