<svg height="25" viewBox="-674.774 -3072.633 25 25" width="25" xmlns="http://www.w3.org/2000/svg"><g fill="none"><path d="m-665.8741-3072.1325h7.2c2.4 0 3.6 0 5.04.48 1.2.48 2.4 1.68 2.88 2.88.48 1.44.48 2.64.48 5.04v7.2c0 2.4 0 3.6-.48 5.04-.48 1.2-1.68 2.4-2.88 2.88-1.44.48-2.64.48-5.04.48h-7.2c-2.4 0-3.6 0-5.04-.48-1.2-.48-2.4-1.68-2.88-2.88-.48-1.44-.48-2.64-.48-5.04v-7.2c0-2.4 0-3.6.48-5.04.48-1.2 1.68-2.4 2.88-2.88 1.44-.48 2.64-.48 5.04-.48m0 0" fill="#3d6c76"/><path d="m-665.8741-3072.1325h7.2c2.4 0 3.6 0 5.04.48 1.2.48 2.4 1.68 2.88 2.88.48 1.44.48 2.64.48 5.04v7.2c0 2.4 0 3.6-.48 5.04-.48 1.2-1.68 2.4-2.88 2.88-1.44.48-2.64.48-5.04.48h-7.2c-2.4 0-3.6 0-5.04-.48-1.2-.48-2.4-1.68-2.88-2.88-.48-1.44-.48-2.64-.48-5.04v-7.2c0-2.4 0-3.6.48-5.04.48-1.2 1.68-2.4 2.88-2.88 1.44-.48 2.64-.48 5.04-.48m0 0" stroke="#65727e" stroke-linecap="round" stroke-linejoin="round" stroke-width=".25"/><path d="m-668.5818-3062.43c-.6627 0-1.2.5373-1.2 1.2v7.2c0 .6628.5373 1.2 1.2 1.2h7.2077c.66274 0 1.2-.5372 1.2-1.2v-7.2c0-.6627-.53726-1.2-1.2-1.2zm3.6-.8h3.6077c1.1046 0 2 .8955 2 2v3.6h.3923c.2209 0 .4.179.4.4s-.1791.4-.4.4h-.3923v2.8c0 1.1046-.8954 2-2 2h-7.2077c-1.10456 0-2-.8954-2-2v-7.2c0-1.1045.89544-2 2-2h2.8v-.4c0-.221.1791-.4.4-.4s.4.179.4.4zm1.2-4.8c.2209 0 .4.179.4.4s-.1791.4-.4.4c-.6627 0-1.2.5373-1.2 1.2 0 .221-.1791.4-.4.4s-.4-.179-.4-.4c0-1.1045.89544-2 2-2zm7.2.8c-.2209 0-.4-.179-.4-.4s.1791-.4.4-.4c1.1046 0 2 .8955 2 2 0 .221-.1791.4-.4.4s-.4-.179-.4-.4c0-.6627-.53725-1.2-1.2-1.2zm1.2 3.6c0-.221.1791-.4.4-.4s.4.179.4.4v2.4c0 .221-.1791.4-.4.4s-.4-.179-.4-.4zm0 4.8c0-.221.1791-.4.4-.4s.4.179.4.4c0 1.1046-.8954 2-2 2-.2209 0-.4-.179-.4-.4s.1791-.4.4-.4c.66275 0 1.2-.5372 1.2-1.2zm-3.6-9.2c.2209 0 .4.179.4.4s-.1791.4-.4.4h-2.4c-.2209 0-.4-.179-.4-.4s.1791-.4.4-.4z" fill="#fff"/></g></svg>