<svg height="25" viewBox="-630.483 -3074.721 25 25" width="25" xmlns="http://www.w3.org/2000/svg"><g fill="none"><path d="m-621.5827-3074.2213h7.2c2.4 0 3.6 0 5.04.48 1.2.48 2.4 1.68 2.88 2.88.48 1.44.48 2.64.48 5.04v7.2c0 2.4 0 3.6-.48 5.04-.48 1.2-1.68 2.4-2.88 2.88-1.44.48-2.64.48-5.04.48h-7.2c-2.4 0-3.6 0-5.04-.48-1.2-.48-2.4-1.68-2.88-2.88-.48-1.44-.48-2.64-.48-5.04v-7.2c0-2.4 0-3.6.48-5.04.48-1.2 1.68-2.4 2.88-2.88 1.44-.48 2.64-.48 5.04-.48m0 0" fill="#794577"/><path d="m-621.5827-3074.2213h7.2c2.4 0 3.6 0 5.04.48 1.2.48 2.4 1.68 2.88 2.88.48 1.44.48 2.64.48 5.04v7.2c0 2.4 0 3.6-.48 5.04-.48 1.2-1.68 2.4-2.88 2.88-1.44.48-2.64.48-5.04.48h-7.2c-2.4 0-3.6 0-5.04-.48-1.2-.48-2.4-1.68-2.88-2.88-.48-1.44-.48-2.64-.48-5.04v-7.2c0-2.4 0-3.6.48-5.04.48-1.2 1.68-2.4 2.88-2.88 1.44-.48 2.64-.48 5.04-.48m0 0" stroke="#65727e" stroke-linecap="round" stroke-linejoin="round" stroke-width=".25"/><path d="m-618.8716-3056.6276v-6.9271c0-.2453.199-.4443.44446-.4443.24544 0 .44444.199.44444.4443v6.9271l1.90796-1.908c.17354-.1734.45494-.1734.62854 0 .1736.1736.1736.455 0 .6286l-2.6667 2.6666c-.1735.1734-.45494.1734-.6285 0l-2.6667-2.6666c-.17354-.1736-.17354-.455 0-.6286.1736-.1734.455-.1734.6286 0zm4.21685-10.0382h.67205c2.20914 0 4 1.7908 4 4s-1.79086 4-4 4c-.24545 0-.44444-.199-.44444-.4444 0-.2455.19899-.4445.44444-.4445 1.7182 0 3.1111-1.3928 3.1111-3.1111 0-1.7182-1.3929-3.1112-3.1111-3.1112h-.46885c.01615.146.02441.2943.02441.4446 0 .2454-.19896.4444-.44446.4444-.24544 0-.4444-.199-.4444-.4444 0-1.7183-1.3929-3.1111-3.11114-3.1111h-.44446c-1.96366 0-3.55554 1.5918-3.55554 3.5555v.4445c0 .2455-.19896.4445-.44446.4445-1.2273 0-2.2222.995-2.2222 2.222 0 1.2274.9949 2.2223 2.2222 2.2223.2455 0 .44446.199.44446.4445 0 .2454-.19896.4444-.44446.4444-1.7182 0-3.1111-1.3929-3.1111-3.1112 0-1.5672 1.159-2.864 2.6667-3.0795 0-2.4861 1.9898-4.4759 4.4444-4.4759h.44446c1.74164 0 3.22328 1.113 3.77239 2.6666z" fill="#fff"/></g></svg>