<svg height="25" viewBox="-912.5 -3582.675 25 25" width="25" xmlns="http://www.w3.org/2000/svg"><g fill="none"><path d="m-903.6-3582.1755h7.2c2.4 0 3.6 0 5.04.48 1.2.48 2.4 1.68 2.88 2.88.48 1.44.48 2.64.48 5.04v7.2c0 2.4 0 3.6-.48 5.04-.48 1.2-1.68 2.4-2.88 2.88-1.44.48-2.64.48-5.04.48h-7.2c-2.4 0-3.6 0-5.04-.48-1.2-.48-2.4-1.68-2.88-2.88-.48-1.44-.48-2.64-.48-5.04v-7.2c0-2.4 0-3.6.48-5.04.48-1.2 1.68-2.4 2.88-2.88 1.44-.48 2.64-.48 5.04-.48m0 0" fill="#518737"/><path d="m-903.6-3582.1755h7.2c2.4 0 3.6 0 5.04.48 1.2.48 2.4 1.68 2.88 2.88.48 1.44.48 2.64.48 5.04v7.2c0 2.4 0 3.6-.48 5.04-.48 1.2-1.68 2.4-2.88 2.88-1.44.48-2.64.48-5.04.48h-7.2c-2.4 0-3.6 0-5.04-.48-1.2-.48-2.4-1.68-2.88-2.88-.48-1.44-.48-2.64-.48-5.04v-7.2c0-2.4 0-3.6.48-5.04.48-1.2 1.68-2.4 2.88-2.88 1.44-.48 2.64-.48 5.04-.48m0 0" stroke="#528637" stroke-linecap="round" stroke-linejoin="round" stroke-width=".25"/><path d="m-899.1556-3565.409c-.2044.988-1.1022 1.7335-2.1777 1.7335-1.0756 0-1.9734-.7455-2.1778-1.7335h-4.0445c-.2489 0-.4444-.1905-.4444-.433 0-.243.1955-.4335.4444-.4335h4.0445c.2044-.988 1.1022-1.7335 2.1778-1.7335 1.0755 0 1.9733.7455 2.1777 1.7335h6.7111c.2489 0 .4445.1905.4445.4335 0 .2425-.1956.433-.4445.433zm5.3334-4.333c-.2045.988-1.1023 1.733-2.1778 1.733-1.0756 0-1.9733-.745-2.1778-1.733h-9.3778c-.2489 0-.4444-.191-.4444-.4335s.1955-.4335.4444-.4335h9.3778c.2045-.988 1.1022-1.733 2.1778-1.733 1.0755 0 1.9733.745 2.1778 1.733h1.3777c.2489 0 .4445.191.4445.4335s-.1956.4335-.4445.4335zm-8-4.3335c-.2045.988-1.1023 1.7335-2.1778 1.7335-1.0756 0-1.9733-.7455-2.1778-1.7335h-1.3778c-.2489 0-.4444-.1905-.4444-.4335 0-.2425.1955-.433.4444-.433h1.3778c.2045-.988 1.1022-1.7335 2.1778-1.7335 1.0755 0 1.9733.7455 2.1778 1.7335h9.3777c.2489 0 .4445.1905.4445.433 0 .243-.1956.4335-.4445.4335zm-2.1778.8665c.7378 0 1.3333-.5805 1.3333-1.3 0-.719-.5955-1.3-1.3333-1.3s-1.3333.581-1.3333 1.3c0 .7195.5955 1.3 1.3333 1.3zm8 4.3335c.7378 0 1.3333-.5805 1.3333-1.3s-.5955-1.3-1.3333-1.3-1.3333.5805-1.3333 1.3.5955 1.3 1.3333 1.3zm-5.3333 4.3335c.7377 0 1.3333-.581 1.3333-1.3 0-.7195-.5956-1.3-1.3333-1.3-.7378 0-1.3334.5805-1.3334 1.3 0 .719.5956 1.3 1.3334 1.3z" fill="#fff"/></g></svg>