<svg height="25" viewBox="-992.5 -3582.675 25 25" width="25" xmlns="http://www.w3.org/2000/svg"><g fill="none"><path d="m-983.6-3582.1755h7.2c2.4 0 3.6 0 5.04.48 1.2.48 2.4 1.68 2.88 2.88.48 1.44.48 2.64.48 5.04v7.2c0 2.4 0 3.6-.48 5.04-.48 1.2-1.68 2.4-2.88 2.88-1.44.48-2.64.48-5.04.48h-7.2c-2.4 0-3.6 0-5.04-.48-1.2-.48-2.4-1.68-2.88-2.88-.48-1.44-.48-2.64-.48-5.04v-7.2c0-2.4 0-3.6.48-5.04.48-1.2 1.68-2.4 2.88-2.88 1.44-.48 2.64-.48 5.04-.48m0 0" fill="#65727e"/><path d="m-983.6-3582.1755h7.2c2.4 0 3.6 0 5.04.48 1.2.48 2.4 1.68 2.88 2.88.48 1.44.48 2.64.48 5.04v7.2c0 2.4 0 3.6-.48 5.04-.48 1.2-1.68 2.4-2.88 2.88-1.44.48-2.64.48-5.04.48h-7.2c-2.4 0-3.6 0-5.04-.48-1.2-.48-2.4-1.68-2.88-2.88-.48-1.44-.48-2.64-.48-5.04v-7.2c0-2.4 0-3.6.48-5.04.48-1.2 1.68-2.4 2.88-2.88 1.44-.48 2.64-.48 5.04-.48m0 0" stroke="#65727e" stroke-linecap="round" stroke-linejoin="round" stroke-width=".25"/><path d="m-973.0975-3567.251v-8.7023c0-.7377-.5956-1.3333-1.3334-1.3333h-11.5555c-.7378 0-1.3334.5956-1.3334 1.3333v6.0356l2.8-2.8c.1778-.1778.4534-.1778.6312 0l5.0222 5.0222 2.3555-2.3555c.1778-.178.4534-.178.6311 0l2.8 2.8zm0 1.262-3.1111-3.111-2.3556 2.3556c-.1778.1778-.4533.1778-.6311 0l-5.0222-5.0222-3.1111 3.1111v4.2578c0 .7377.5955 1.3333 1.3333 1.3333h11.5555c.7378 0 1.3334-.5956 1.3334-1.3333v-1.5913zm-15.1111-9.9643c0-1.2267.9955-2.2222 2.2222-2.2222h11.5555c1.2267 0 2.2223.9955 2.2223 2.2222v11.5556c0 1.2267-.9956 2.2222-2.2223 2.2222h-11.5555c-1.2267 0-2.2222-.9955-2.2222-2.2222zm10.6666.4443h1.7778c.4889 0 .8889.4.8889.889v1.778c0 .4887-.4.8887-.8889.8887h-1.7778c-.4889 0-.8889-.4-.8889-.8887v-1.778c0-.489.4-.889.8889-.889zm0 .889v1.778h1.7778v-1.778z" fill="#fff"/></g></svg>