<?xml version="1.0" encoding="UTF-8" standalone="no"?>
<!DOCTYPE svg PUBLIC "-//W3C//DTD SVG 1.1//EN" "http://www.w3.org/Graphics/SVG/1.1/DTD/svg11.dtd">
<svg version="1.1" xmlns="http://www.w3.org/2000/svg" xmlns:xl="http://www.w3.org/1999/xlink" xmlns:dc="http://purl.org/dc/elements/1.1/" viewBox="-792.5 -3582.6755 25 25" width="25" height="25">
  <defs/>
  <g id="SOURCES" stroke-dasharray="none" fill="none" stroke="none" fill-opacity="1" stroke-opacity="1">
    <title>SOURCES</title>
    <g id="SOURCES_Calque_2">
      <title>Calque 2</title>
      <g id="Graphic_9608">
        <path d="M -783.6 -3582.1755 L -776.4 -3582.1755 C -774 -3582.1755 -772.8 -3582.1755 -771.36 -3581.6955 C -770.16 -3581.2155 -768.96 -3580.0155 -768.48 -3578.8155 C -768 -3577.3755 -768 -3576.1755 -768 -3573.7755 L -768 -3566.5755 C -768 -3564.1755 -768 -3562.9755 -768.48 -3561.5355 C -768.96 -3560.3355 -770.16 -3559.1355 -771.36 -3558.6555 C -772.8 -3558.1755 -774 -3558.1755 -776.4 -3558.1755 L -783.6 -3558.1755 C -786 -3558.1755 -787.2 -3558.1755 -788.64 -3558.6555 C -789.84 -3559.1355 -791.04 -3560.3355 -791.52 -3561.5355 C -792 -3562.9755 -792 -3564.1755 -792 -3566.5755 L -792 -3573.7755 C -792 -3576.1755 -792 -3577.3755 -791.52 -3578.8155 C -791.04 -3580.0155 -789.84 -3581.2155 -788.64 -3581.6955 C -787.2 -3582.1755 -786 -3582.1755 -783.6 -3582.1755 M -783.6 -3582.1755" fill="#5c76a2"/>
        <path d="M -783.6 -3582.1755 L -776.4 -3582.1755 C -774 -3582.1755 -772.8 -3582.1755 -771.36 -3581.6955 C -770.16 -3581.2155 -768.96 -3580.0155 -768.48 -3578.8155 C -768 -3577.3755 -768 -3576.1755 -768 -3573.7755 L -768 -3566.5755 C -768 -3564.1755 -768 -3562.9755 -768.48 -3561.5355 C -768.96 -3560.3355 -770.16 -3559.1355 -771.36 -3558.6555 C -772.8 -3558.1755 -774 -3558.1755 -776.4 -3558.1755 L -783.6 -3558.1755 C -786 -3558.1755 -787.2 -3558.1755 -788.64 -3558.6555 C -789.84 -3559.1355 -791.04 -3560.3355 -791.52 -3561.5355 C -792 -3562.9755 -792 -3564.1755 -792 -3566.5755 L -792 -3573.7755 C -792 -3576.1755 -792 -3577.3755 -791.52 -3578.8155 C -791.04 -3580.0155 -789.84 -3581.2155 -788.64 -3581.6955 C -787.2 -3582.1755 -786 -3582.1755 -783.6 -3582.1755 M -783.6 -3582.1755" stroke="#5c76a2" stroke-linecap="round" stroke-linejoin="round" stroke-width=".25"/>
      </g>
      <g id="Group_9628">
        <title>refresh-double</title>
        <g id="Graphic_9629">
          <path d="M -785.552 -3565.731 C -784.2174 -3564.069 -782.1888 -3563.0644 -779.9911 -3563.0644 C -776.2275 -3563.0644 -773.1134 -3565.9977 -772.8909 -3569.731 C -772.8731 -3569.98 -772.6685 -3570.1666 -772.4194 -3570.149 C -772.1702 -3570.131 -771.9834 -3569.9266 -772.0012 -3569.6777 C -772.2592 -3565.4733 -775.7559 -3562.1755 -779.9911 -3562.1755 C -782.4468 -3562.1755 -784.7157 -3563.2955 -786.2193 -3565.1444 L -786.2193 -3562.62 C -786.2193 -3562.371 -786.4151 -3562.1755 -786.6642 -3562.1755 C -786.9133 -3562.1755 -787.1091 -3562.371 -787.1091 -3562.62 L -787.1091 -3566.1755 C -787.1091 -3566.4244 -786.9133 -3566.62 -786.6642 -3566.62 L -783.1052 -3566.62 C -782.8561 -3566.62 -782.6603 -3566.4244 -782.6603 -3566.1755 C -782.6603 -3565.9266 -782.8561 -3565.731 -783.1052 -3565.731 Z M -774.4391 -3574.62 C -775.7737 -3576.282 -777.8023 -3577.2866 -780 -3577.2866 C -783.7814 -3577.2866 -786.8955 -3574.3355 -787.1091 -3570.5844 C -787.1269 -3570.3355 -787.3315 -3570.149 -787.58065 -3570.1666 C -787.8298 -3570.1844 -788.0166 -3570.389 -787.9988 -3570.6377 C -787.7497 -3574.86 -784.2441 -3578.1755 -779.9911 -3578.1755 C -777.5354 -3578.1755 -775.26655 -3577.0555 -773.7629 -3575.2066 L -773.7629 -3577.731 C -773.7629 -3577.98 -773.5671 -3578.1755 -773.318 -3578.1755 C -773.0689 -3578.1755 -772.8731 -3577.98 -772.8731 -3577.731 L -772.8731 -3574.1755 C -772.8731 -3573.9266 -773.0689 -3573.731 -773.318 -3573.731 L -776.877 -3573.731 C -777.1261 -3573.731 -777.3219 -3573.9266 -777.3219 -3574.1755 C -777.3219 -3574.4244 -777.1261 -3574.62 -776.877 -3574.62 L -774.4302 -3574.62 Z" fill="white"/>
        </g>
      </g>
    </g>
  </g>
</svg>
