<svg height="25" viewBox="-849 -3594.867 25 25" width="25" xmlns="http://www.w3.org/2000/svg"><g fill="none"><path d="M-840.1-3594.367h7.2c2.4 0 3.6 0 5.04.48 1.2.48 2.4 1.68 2.88 2.88.48 1.44.48 2.64.48 5.04v7.2c0 2.4 0 3.6-.48 5.04-.48 1.2-1.68 2.4-2.88 2.88-1.44.48-2.64.48-5.04.48h-7.2c-2.4 0-3.6 0-5.04-.48-1.2-.48-2.4-1.68-2.88-2.88-.48-1.44-.48-2.64-.48-5.04v-7.2c0-2.4 0-3.6.48-5.04.48-1.2 1.68-2.4 2.88-2.88 1.44-.48 2.64-.48 5.04-.48m0 0" fill="#9f4c4d"/><path d="M-840.1-3594.367h7.2c2.4 0 3.6 0 5.04.48 1.2.48 2.4 1.68 2.88 2.88.48 1.44.48 2.64.48 5.04v7.2c0 2.4 0 3.6-.48 5.04-.48 1.2-1.68 2.4-2.88 2.88-1.44.48-2.64.48-5.04.48h-7.2c-2.4 0-3.6 0-5.04-.48-1.2-.48-2.4-1.68-2.88-2.88-.48-1.44-.48-2.64-.48-5.04v-7.2c0-2.4 0-3.6.48-5.04.48-1.2 1.68-2.4 2.88-2.88 1.44-.48 2.64-.48 5.04-.48m0 0" stroke="#65727e" stroke-linecap="round" stroke-linejoin="round" stroke-width=".25"/><path d="M-840.62-3581.197c.18.21.16.53-.05.71s-.53.16-.71-.05l-3-3.5a.5.5 0 0 1 0-.65l3-3.5c.18-.21.5-.23.71-.05s.23.5.05.71l-2.72 3.17 2.72 3.17zm1.07 6.54c-.12.25-.41.36-.66.24s-.36-.41-.24-.66l7-15c.12-.25.41-.36.66-.24s.36.41.24.66zm7.17-8.88c-.18-.21-.16-.53.05-.71s.53-.16.71.05l3 3.5a.5.5 0 0 1 0 .65l-3 3.5c-.18.21-.5.23-.71.05s-.23-.5-.05-.71l2.72-3.17-2.72-3.17z" fill="#fff"/></g></svg>