<svg xmlns="http://www.w3.org/2000/svg" viewBox="-792.5 -3582.675 25 25"><g fill="none"><path d="M-783.6-3582.175h7.2c2.4 0 3.6 0 5.04.48 1.2.48 2.4 1.68 2.88 2.88.48 1.44.48 2.64.48 5.04v7.2c0 2.4 0 3.6-.48 5.04-.48 1.2-1.68 2.4-2.88 2.88-1.44.48-2.64.48-5.04.48h-7.2c-2.4 0-3.6 0-5.04-.48-1.2-.48-2.4-1.68-2.88-2.88-.48-1.44-.48-2.64-.48-5.04v-7.2c0-2.4 0-3.6.48-5.04.48-1.2 1.68-2.4 2.88-2.88 1.44-.48 2.64-.48 5.04-.48m0 0" fill="#5c76a2"/><path d="M-783.6-3582.175h7.2c2.4 0 3.6 0 5.04.48 1.2.48 2.4 1.68 2.88 2.88.48 1.44.48 2.64.48 5.04v7.2c0 2.4 0 3.6-.48 5.04-.48 1.2-1.68 2.4-2.88 2.88-1.44.48-2.64.48-5.04.48h-7.2c-2.4 0-3.6 0-5.04-.48-1.2-.48-2.4-1.68-2.88-2.88-.48-1.44-.48-2.64-.48-5.04v-7.2c0-2.4 0-3.6.48-5.04.48-1.2 1.68-2.4 2.88-2.88 1.44-.48 2.64-.48 5.04-.48m0 0" stroke="#5c76a2" stroke-linecap="round" stroke-linejoin="round" stroke-width=".25"/><path d="M-785.552-3565.731a7.124 7.124 0 0 0 5.56 2.667c3.764 0 6.879-2.934 7.101-6.667a.441.441 0 0 1 .472-.418.44.44 0 0 1 .418.471c-.258 4.205-3.755 7.503-7.99 7.503a8.023 8.023 0 0 1-6.228-2.97v2.525a.44.44 0 0 1-.445.445.44.44 0 0 1-.445-.445v-3.555a.44.44 0 0 1 .445-.445h3.559a.44.44 0 0 1 .445.445.44.44 0 0 1-.445.444zm11.113-8.889a7.124 7.124 0 0 0-5.561-2.667 7.12 7.12 0 0 0-7.11 6.703.441.441 0 0 1-.47.417.44.44 0 0 1-.419-.47 8.02 8.02 0 0 1 8.008-7.538 8.023 8.023 0 0 1 6.228 2.968v-2.524a.44.44 0 0 1 .445-.444.44.44 0 0 1 .445.444v3.556a.44.44 0 0 1-.445.444h-3.559a.44.44 0 0 1-.445-.444.44.44 0 0 1 .445-.445h2.447z" fill="#fff"/></g></svg>