<svg height="25" viewBox="-630.483 -3074.721 25 25" width="25" xmlns="http://www.w3.org/2000/svg"><g fill="none"><path d="M-621.583-3074.221h7.2c2.4 0 3.6 0 5.04.48 1.2.48 2.4 1.68 2.88 2.88.48 1.44.48 2.64.48 5.04v7.2c0 2.4 0 3.6-.48 5.04-.48 1.2-1.68 2.4-2.88 2.88-1.44.48-2.64.48-5.04.48h-7.2c-2.4 0-3.6 0-5.04-.48-1.2-.48-2.4-1.68-2.88-2.88-.48-1.44-.48-2.64-.48-5.04v-7.2c0-2.4 0-3.6.48-5.04.48-1.2 1.68-2.4 2.88-2.88 1.44-.48 2.64-.48 5.04-.48m0 0" fill="#794577"/><path d="M-621.583-3074.221h7.2c2.4 0 3.6 0 5.04.48 1.2.48 2.4 1.68 2.88 2.88.48 1.44.48 2.64.48 5.04v7.2c0 2.4 0 3.6-.48 5.04-.48 1.2-1.68 2.4-2.88 2.88-1.44.48-2.64.48-5.04.48h-7.2c-2.4 0-3.6 0-5.04-.48-1.2-.48-2.4-1.68-2.88-2.88-.48-1.44-.48-2.64-.48-5.04v-7.2c0-2.4 0-3.6.48-5.04.48-1.2 1.68-2.4 2.88-2.88 1.44-.48 2.64-.48 5.04-.48m0 0" stroke="#65727e" stroke-linecap="round" stroke-linejoin="round" stroke-width=".25"/><path d="M-618.872-3056.628v-6.927a.444.444 0 0 1 .89 0v6.927l1.907-1.908a.445.445 0 0 1 .629.629l-2.667 2.667a.445.445 0 0 1-.628 0l-2.667-2.667a.445.445 0 0 1 .629-.629zm4.217-10.038h.672a4 4 0 1 1 0 8 .444.444 0 0 1 0-.889 3.111 3.111 0 1 0 0-6.222h-.469c.017.146.025.294.025.445a.444.444 0 0 1-.889 0 3.111 3.111 0 0 0-3.111-3.111h-.445a3.555 3.555 0 0 0-3.555 3.555v.445a.444.444 0 0 1-.445.444 2.222 2.222 0 0 0 0 4.444.444.444 0 1 1 0 .89 3.111 3.111 0 0 1-.444-6.191c0-2.487 1.99-4.476 4.444-4.476h.445a4.002 4.002 0 0 1 3.772 2.666z" fill="#fff"/></g></svg>