<?xml version="1.0" encoding="UTF-8" standalone="no"?>
<!DOCTYPE svg PUBLIC "-//W3C//DTD SVG 1.1//EN" "http://www.w3.org/Graphics/SVG/1.1/DTD/svg11.dtd">
<svg version="1.1" xmlns="http://www.w3.org/2000/svg" xmlns:xl="http://www.w3.org/1999/xlink" xmlns:dc="http://purl.org/dc/elements/1.1/" viewBox="-872.5 -3582.6755 25 25" width="25" height="25">
  <defs/>
  <g id="SOURCES" stroke-dasharray="none" fill="none" stroke="none" fill-opacity="1" stroke-opacity="1">
    <title>SOURCES</title>
    <g id="SOURCES_Calque_2">
      <title>Calque 2</title>
      <g id="Graphic_9614">
        <path d="M -863.6 -3582.1755 L -856.4 -3582.1755 C -854 -3582.1755 -852.8 -3582.1755 -851.36 -3581.6955 C -850.16 -3581.2155 -848.96 -3580.0155 -848.48 -3578.8155 C -848 -3577.3755 -848 -3576.1755 -848 -3573.7755 L -848 -3566.5755 C -848 -3564.1755 -848 -3562.9755 -848.48 -3561.5355 C -848.96 -3560.3355 -850.16 -3559.1355 -851.36 -3558.6555 C -852.8 -3558.1755 -854 -3558.1755 -856.4 -3558.1755 L -863.6 -3558.1755 C -866 -3558.1755 -867.2 -3558.1755 -868.64 -3558.6555 C -869.84 -3559.1355 -871.04 -3560.3355 -871.52 -3561.5355 C -872 -3562.9755 -872 -3564.1755 -872 -3566.5755 L -872 -3573.7755 C -872 -3576.1755 -872 -3577.3755 -871.52 -3578.8155 C -871.04 -3580.0155 -869.84 -3581.2155 -868.64 -3581.6955 C -867.2 -3582.1755 -866 -3582.1755 -863.6 -3582.1755 M -863.6 -3582.1755" fill="#a7967d"/>
        <path d="M -863.6 -3582.1755 L -856.4 -3582.1755 C -854 -3582.1755 -852.8 -3582.1755 -851.36 -3581.6955 C -850.16 -3581.2155 -848.96 -3580.0155 -848.48 -3578.8155 C -848 -3577.3755 -848 -3576.1755 -848 -3573.7755 L -848 -3566.5755 C -848 -3564.1755 -848 -3562.9755 -848.48 -3561.5355 C -848.96 -3560.3355 -850.16 -3559.1355 -851.36 -3558.6555 C -852.8 -3558.1755 -854 -3558.1755 -856.4 -3558.1755 L -863.6 -3558.1755 C -866 -3558.1755 -867.2 -3558.1755 -868.64 -3558.6555 C -869.84 -3559.1355 -871.04 -3560.3355 -871.52 -3561.5355 C -872 -3562.9755 -872 -3564.1755 -872 -3566.5755 L -872 -3573.7755 C -872 -3576.1755 -872 -3577.3755 -871.52 -3578.8155 C -871.04 -3580.0155 -869.84 -3581.2155 -868.64 -3581.6955 C -867.2 -3582.1755 -866 -3582.1755 -863.6 -3582.1755 M -863.6 -3582.1755" stroke="#a7957d" stroke-linecap="round" stroke-linejoin="round" stroke-width=".25"/>
      </g>
      <g id="Group_9624">
        <title>database</title>
        <g id="Graphic_9625">
          <path d="M -867.2 -3573.8635 L -867.2 -3571.7755 C -867.2 -3571.5035 -866.52 -3571.0795 -865.272 -3570.7515 C -863.888 -3570.3915 -862.008 -3570.1755 -860 -3570.1755 C -857.992 -3570.1755 -856.112 -3570.3835 -854.728 -3570.7515 C -853.48 -3571.0795 -852.8 -3571.5035 -852.8 -3571.7755 L -852.8 -3573.8635 C -854.088 -3573.0555 -856.816 -3572.5755 -860 -3572.5755 C -863.184 -3572.5755 -865.912 -3573.0555 -867.2 -3573.8635 Z M -868 -3574.9755 C -868 -3576.4395 -864.456 -3577.3755 -860 -3577.3755 C -855.544 -3577.3755 -852 -3576.4395 -852 -3574.9755 L -852 -3565.3755 C -852 -3563.9115 -855.544 -3562.9755 -860 -3562.9755 C -864.456 -3562.9755 -868 -3563.9115 -868 -3565.3755 Z M -852.8 -3570.6635 C -854.088 -3569.8555 -856.816 -3569.3755 -860 -3569.3755 C -863.184 -3569.3755 -865.912 -3569.8555 -867.2 -3570.6635 L -867.2 -3568.5755 C -867.2 -3568.3035 -866.52 -3567.8795 -865.272 -3567.5515 C -863.888 -3567.1915 -862.008 -3566.9755 -860 -3566.9755 C -857.992 -3566.9755 -856.112 -3567.1835 -854.728 -3567.5515 C -853.48 -3567.8795 -852.8 -3568.3035 -852.8 -3568.5755 Z M -852.8 -3567.4635 C -854.088 -3566.6555 -856.816 -3566.1755 -860 -3566.1755 C -863.184 -3566.1755 -865.912 -3566.6555 -867.2 -3567.4635 L -867.2 -3565.3755 C -867.2 -3565.1035 -866.52 -3564.6795 -865.272 -3564.3515 C -863.888 -3563.9915 -862.008 -3563.7755 -860 -3563.7755 C -857.992 -3563.7755 -856.112 -3563.9835 -854.728 -3564.3515 C -853.48 -3564.6795 -852.8 -3565.1035 -852.8 -3565.3755 Z M -860 -3573.3755 C -857.992 -3573.3755 -856.112 -3573.5835 -854.728 -3573.9515 C -853.48 -3574.2795 -852.8 -3574.7035 -852.8 -3574.9755 C -852.8 -3575.2475 -853.48 -3575.6715 -854.728 -3575.9995 C -856.112 -3576.3595 -857.992 -3576.5755 -860 -3576.5755 C -862.008 -3576.5755 -863.888 -3576.3675 -865.272 -3575.9995 C -866.52 -3575.6715 -867.2 -3575.2475 -867.2 -3574.9755 C -867.2 -3574.7035 -866.52 -3574.2795 -865.272 -3573.9515 C -863.888 -3573.5915 -862.008 -3573.3755 -860 -3573.3755 Z" fill="white"/>
        </g>
      </g>
    </g>
  </g>
</svg>
