<svg xmlns="http://www.w3.org/2000/svg" viewBox="-992.5 -3582.675 25 25"><g fill="none"><path d="M-983.6-3582.175h7.2c2.4 0 3.6 0 5.04.48 1.2.48 2.4 1.68 2.88 2.88.48 1.44.48 2.64.48 5.04v7.2c0 2.4 0 3.6-.48 5.04-.48 1.2-1.68 2.4-2.88 2.88-1.44.48-2.64.48-5.04.48h-7.2c-2.4 0-3.6 0-5.04-.48-1.2-.48-2.4-1.68-2.88-2.88-.48-1.44-.48-2.64-.48-5.04v-7.2c0-2.4 0-3.6.48-5.04.48-1.2 1.68-2.4 2.88-2.88 1.44-.48 2.64-.48 5.04-.48m0 0" fill="#65727e"/><path d="M-983.6-3582.175h7.2c2.4 0 3.6 0 5.04.48 1.2.48 2.4 1.68 2.88 2.88.48 1.44.48 2.64.48 5.04v7.2c0 2.4 0 3.6-.48 5.04-.48 1.2-1.68 2.4-2.88 2.88-1.44.48-2.64.48-5.04.48h-7.2c-2.4 0-3.6 0-5.04-.48-1.2-.48-2.4-1.68-2.88-2.88-.48-1.44-.48-2.64-.48-5.04v-7.2c0-2.4 0-3.6.48-5.04.48-1.2 1.68-2.4 2.88-2.88 1.44-.48 2.64-.48 5.04-.48m0 0" stroke="#65727e" stroke-linecap="round" stroke-linejoin="round" stroke-width=".25"/><path d="M-973.097-3567.251v-8.702c0-.738-.596-1.334-1.334-1.334h-11.555c-.738 0-1.334.596-1.334 1.334v6.035l2.8-2.8a.44.44 0 0 1 .631 0l5.023 5.023 2.355-2.356a.44.44 0 0 1 .631 0l2.8 2.8zm0 1.262-3.112-3.111-2.355 2.356a.44.44 0 0 1-.631 0l-5.022-5.023-3.112 3.111v4.258c0 .738.596 1.334 1.334 1.334h11.555c.738 0 1.334-.596 1.334-1.334v-1.591zm-15.112-9.964c0-1.227.996-2.222 2.223-2.222h11.555c1.227 0 2.222.995 2.222 2.222v11.555a2.223 2.223 0 0 1-2.222 2.223h-11.555a2.223 2.223 0 0 1-2.223-2.223zm10.667.444h1.778c.489 0 .889.4.889.889v1.778c0 .489-.4.889-.89.889h-1.777a.891.891 0 0 1-.889-.889v-1.778c0-.489.4-.889.889-.889zm0 .889v1.778h1.778v-1.778z" fill="#fff"/></g></svg>