<svg viewBox="-912.5 -3582.675 25 25" xmlns="http://www.w3.org/2000/svg"><g fill="none"><path d="M-903.6-3582.175h7.2c2.4 0 3.6 0 5.04.48 1.2.48 2.4 1.68 2.88 2.88.48 1.44.48 2.64.48 5.04v7.2c0 2.4 0 3.6-.48 5.04-.48 1.2-1.68 2.4-2.88 2.88-1.44.48-2.64.48-5.04.48h-7.2c-2.4 0-3.6 0-5.04-.48-1.2-.48-2.4-1.68-2.88-2.88-.48-1.44-.48-2.64-.48-5.04v-7.2c0-2.4 0-3.6.48-5.04.48-1.2 1.68-2.4 2.88-2.88 1.44-.48 2.64-.48 5.04-.48m0 0" fill="#518737"/><path d="M-903.6-3582.175h7.2c2.4 0 3.6 0 5.04.48 1.2.48 2.4 1.68 2.88 2.88.48 1.44.48 2.64.48 5.04v7.2c0 2.4 0 3.6-.48 5.04-.48 1.2-1.68 2.4-2.88 2.88-1.44.48-2.64.48-5.04.48h-7.2c-2.4 0-3.6 0-5.04-.48-1.2-.48-2.4-1.68-2.88-2.88-.48-1.44-.48-2.64-.48-5.04v-7.2c0-2.4 0-3.6.48-5.04.48-1.2 1.68-2.4 2.88-2.88 1.44-.48 2.64-.48 5.04-.48m0 0" stroke="#528637" stroke-linecap="round" stroke-linejoin="round" stroke-width=".25"/><path d="M-899.156-3565.409c-.204.988-1.102 1.734-2.177 1.734-1.076 0-1.974-.746-2.178-1.734h-4.045a.435.435 0 0 1-.444-.433c0-.243.196-.434.444-.434h4.045c.204-.988 1.102-1.733 2.178-1.733 1.075 0 1.973.745 2.177 1.733h6.712c.248 0 .444.191.444.434a.435.435 0 0 1-.444.433zm5.334-4.333c-.205.988-1.102 1.733-2.178 1.733s-1.973-.745-2.178-1.733h-9.378a.435.435 0 0 1-.444-.433c0-.243.196-.434.444-.434h9.378c.205-.988 1.102-1.733 2.178-1.733s1.973.745 2.178 1.733h1.378c.248 0 .444.191.444.434a.435.435 0 0 1-.444.433zm-8-4.333c-.205.987-1.102 1.733-2.178 1.733s-1.973-.745-2.178-1.733h-1.378a.435.435 0 0 1-.444-.434c0-.242.196-.433.444-.433h1.378c.205-.988 1.102-1.733 2.178-1.733s1.973.745 2.178 1.733h9.378c.248 0 .444.19.444.433a.435.435 0 0 1-.444.434zm-2.178.866c.738 0 1.333-.58 1.333-1.3 0-.719-.595-1.3-1.333-1.3s-1.333.581-1.333 1.3c0 .72.595 1.3 1.333 1.3zm8 4.333c.738 0 1.333-.58 1.333-1.3 0-.719-.595-1.3-1.333-1.3s-1.333.581-1.333 1.3c0 .72.595 1.3 1.333 1.3zm-5.333 4.334c.737 0 1.333-.581 1.333-1.3 0-.72-.596-1.3-1.333-1.3-.738 0-1.334.58-1.334 1.3 0 .719.596 1.3 1.334 1.3z" fill="#fff"/></g></svg>