<svg height="25" viewBox="-792.5 -3582.675 25 25" width="25" xmlns="http://www.w3.org/2000/svg"><g fill="none"><path d="m-783.6-3582.1755h7.2c2.4 0 3.6 0 5.04.48 1.2.48 2.4 1.68 2.88 2.88.48 1.44.48 2.64.48 5.04v7.2c0 2.4 0 3.6-.48 5.04-.48 1.2-1.68 2.4-2.88 2.88-1.44.48-2.64.48-5.04.48h-7.2c-2.4 0-3.6 0-5.04-.48-1.2-.48-2.4-1.68-2.88-2.88-.48-1.44-.48-2.64-.48-5.04v-7.2c0-2.4 0-3.6.48-5.04.48-1.2 1.68-2.4 2.88-2.88 1.44-.48 2.64-.48 5.04-.48m0 0" fill="#5c76a2"/><path d="m-783.6-3582.1755h7.2c2.4 0 3.6 0 5.04.48 1.2.48 2.4 1.68 2.88 2.88.48 1.44.48 2.64.48 5.04v7.2c0 2.4 0 3.6-.48 5.04-.48 1.2-1.68 2.4-2.88 2.88-1.44.48-2.64.48-5.04.48h-7.2c-2.4 0-3.6 0-5.04-.48-1.2-.48-2.4-1.68-2.88-2.88-.48-1.44-.48-2.64-.48-5.04v-7.2c0-2.4 0-3.6.48-5.04.48-1.2 1.68-2.4 2.88-2.88 1.44-.48 2.64-.48 5.04-.48m0 0" stroke="#5c76a2" stroke-linecap="round" stroke-linejoin="round" stroke-width=".25"/><path d="m-785.552-3565.731c1.3346 1.662 3.3632 2.6666 5.5609 2.6666 3.7636 0 6.8777-2.9333 7.1002-6.6666.0178-.249.2224-.4356.4715-.418.2492.018.436.2224.4182.4713-.258 4.2044-3.7547 7.5022-7.9899 7.5022-2.4557 0-4.7246-1.12-6.2282-2.9689v2.5244c0 .249-.1958.4445-.4449.4445s-.4449-.1955-.4449-.4445v-3.5555c0-.2489.1958-.4445.4449-.4445h3.559c.2491 0 .4449.1956.4449.4445s-.1958.4445-.4449.4445zm11.1129-8.889c-1.3346-1.662-3.3632-2.6666-5.5609-2.6666-3.7814 0-6.8955 2.9511-7.1091 6.7022-.0178.2489-.2224.4354-.47155.4178-.24915-.0178-.43595-.2224-.41815-.4711.2491-4.2223 3.7547-7.5378 8.0077-7.5378 2.4557 0 4.72455 1.12 6.2282 2.9689v-2.5244c0-.249.1958-.4445.4449-.4445s.4449.1955.4449.4445v3.5555c0 .2489-.1958.4445-.4449.4445h-3.559c-.2491 0-.4449-.1956-.4449-.4445s.1958-.4445.4449-.4445h2.4468z" fill="#fff"/></g></svg>