<svg xmlns="http://www.w3.org/2000/svg" viewBox="-752.5 -3582.675 25 25"><g fill="none"><path d="M-743.6-3582.175h7.2c2.4 0 3.6 0 5.04.48 1.2.48 2.4 1.68 2.88 2.88.48 1.44.48 2.64.48 5.04v7.2c0 2.4 0 3.6-.48 5.04-.48 1.2-1.68 2.4-2.88 2.88-1.44.48-2.64.48-5.04.48h-7.2c-2.4 0-3.6 0-5.04-.48-1.2-.48-2.4-1.68-2.88-2.88-.48-1.44-.48-2.64-.48-5.04v-7.2c0-2.4 0-3.6.48-5.04.48-1.2 1.68-2.4 2.88-2.88 1.44-.48 2.64-.48 5.04-.48m0 0" fill="#9f4c4c"/><path d="M-743.6-3582.175h7.2c2.4 0 3.6 0 5.04.48 1.2.48 2.4 1.68 2.88 2.88.48 1.44.48 2.64.48 5.04v7.2c0 2.4 0 3.6-.48 5.04-.48 1.2-1.68 2.4-2.88 2.88-1.44.48-2.64.48-5.04.48h-7.2c-2.4 0-3.6 0-5.04-.48-1.2-.48-2.4-1.68-2.88-2.88-.48-1.44-.48-2.64-.48-5.04v-7.2c0-2.4 0-3.6.48-5.04.48-1.2 1.68-2.4 2.88-2.88 1.44-.48 2.64-.48 5.04-.48m0 0" stroke="#9f4c4b" stroke-linecap="round" stroke-linejoin="round" stroke-width=".25"/><path d="M-745.6-3572.575v2.4h3.2v-2.4zm-1.6-2.4h11.2v-1.2c0-.664-.536-1.2-1.2-1.2h-8.8c-.664 0-1.2.535-1.2 1.2zm8.4.8h-8.4v7.6c0 .663.536 1.2 1.2 1.2h6.8v-.8h-1.2a.396.396 0 0 1-.4-.4c0-.225.176-.4.4-.4h1.2v-.8h-1.2a.396.396 0 0 1-.4-.4c0-.224.176-.4.4-.4h1.2v-.8h-1.2a.396.396 0 0 1-.4-.4v-3.2c0-.225.176-.4.4-.4h1.24c.056-.296.184-.568.36-.8zm3.6-.8h1.2a2 2 0 0 1 2 2v8.8a2 2 0 0 1-2 2h-3.2a2 2 0 0 1-2-2v-.4h-6.8a2 2 0 0 1-2-2v-9.6a2 2 0 0 1 2-2h8.8a2 2 0 0 1 2 2zm-4 4.8v-2.4h-.8v2.4zm-6.8-3.2h4c.224 0 .4.175.4.4v3.2c0 .224-.176.4-.4.4h-4a.396.396 0 0 1-.4-.4v-3.2c0-.225.176-.4.4-.4zm7.6.4v8.8c0 .664.536 1.2 1.2 1.2h3.2c.664 0 1.2-.537 1.2-1.2v-8.8c0-.665-.536-1.2-1.2-1.2h-3.2c-.664 0-1.2.535-1.2 1.2zm-7.6 5.2a.396.396 0 0 1-.4-.4c0-.224.176-.4.4-.4h4c.224 0 .4.175.4.4 0 .224-.176.4-.4.4zm0 1.6a.396.396 0 0 1-.4-.4c0-.225.176-.4.4-.4h2.4c.224 0 .4.175.4.4 0 .223-.176.4-.4.4zm8.8-6.4h3.2c.224 0 .4.175.4.4v1.6c0 .223-.176.4-.4.4h-3.2a.396.396 0 0 1-.4-.4v-1.6c0-.224.176-.4.4-.4zm.4.8v.8h2.4v-.8zm-.4 3.2a.396.396 0 0 1-.4-.4c0-.225.176-.4.4-.4h3.2c.224 0 .4.175.4.4 0 .224-.176.4-.4.4zm0 1.6a.396.396 0 0 1-.4-.4c0-.224.176-.4.4-.4h2.4c.224 0 .4.176.4.4 0 .224-.176.4-.4.4zm-9.2-9.6h.8v.8h-.8zm1.6 0h.8v.8h-.8zm1.6 0h.8v.8h-.8zm6.8 12.8a.396.396 0 0 1-.4-.4c0-.224.176-.4.4-.4h1.6c.224 0 .4.175.4.4 0 .224-.176.4-.4.4z" fill="#fff"/></g></svg>