<svg height="25" viewBox="-872.5 -3582.675 25 25" width="25" xmlns="http://www.w3.org/2000/svg"><g fill="none"><path d="M-863.6-3582.175h7.2c2.4 0 3.6 0 5.04.48 1.2.48 2.4 1.68 2.88 2.88.48 1.44.48 2.64.48 5.04v7.2c0 2.4 0 3.6-.48 5.04-.48 1.2-1.68 2.4-2.88 2.88-1.44.48-2.64.48-5.04.48h-7.2c-2.4 0-3.6 0-5.04-.48-1.2-.48-2.4-1.68-2.88-2.88-.48-1.44-.48-2.64-.48-5.04v-7.2c0-2.4 0-3.6.48-5.04.48-1.2 1.68-2.4 2.88-2.88 1.44-.48 2.64-.48 5.04-.48m0 0" fill="#a7967d"/><path d="M-863.6-3582.175h7.2c2.4 0 3.6 0 5.04.48 1.2.48 2.4 1.68 2.88 2.88.48 1.44.48 2.64.48 5.04v7.2c0 2.4 0 3.6-.48 5.04-.48 1.2-1.68 2.4-2.88 2.88-1.44.48-2.64.48-5.04.48h-7.2c-2.4 0-3.6 0-5.04-.48-1.2-.48-2.4-1.68-2.88-2.88-.48-1.44-.48-2.64-.48-5.04v-7.2c0-2.4 0-3.6.48-5.04.48-1.2 1.68-2.4 2.88-2.88 1.44-.48 2.64-.48 5.04-.48m0 0" stroke="#a7957d" stroke-linecap="round" stroke-linejoin="round" stroke-width=".25"/><path d="M-867.2-3573.863v2.087c0 .273.68.697 1.928 1.025 1.384.36 3.264.576 5.272.576s3.888-.208 5.272-.576c1.248-.328 1.928-.752 1.928-1.024v-2.088c-1.288.807-4.016 1.287-7.2 1.287s-5.912-.48-7.2-1.287zm-.8-1.113c0-1.463 3.544-2.4 8-2.4s8 .937 8 2.4v9.6c0 1.465-3.544 2.4-8 2.4s-8-.935-8-2.4zm15.2 4.313c-1.288.807-4.016 1.287-7.2 1.287s-5.912-.48-7.2-1.287v2.087c0 .273.68.697 1.928 1.025 1.384.36 3.264.575 5.272.575s3.888-.207 5.272-.575c1.248-.329 1.928-.753 1.928-1.025zm0 3.2c-1.288.807-4.016 1.287-7.2 1.287s-5.912-.48-7.2-1.288v2.088c0 .273.68.697 1.928 1.025 1.384.36 3.264.575 5.272.575s3.888-.208 5.272-.576c1.248-.328 1.928-.752 1.928-1.024zm-7.2-5.913c2.008 0 3.888-.207 5.272-.575 1.248-.329 1.928-.753 1.928-1.025s-.68-.695-1.928-1.023c-1.384-.36-3.264-.577-5.272-.577s-3.888.209-5.272.577c-1.248.327-1.928.751-1.928 1.023s.68.697 1.928 1.025c1.384.36 3.264.575 5.272.575z" fill="#fff"/></g></svg>