<svg height="25" viewBox="-792.5 -3582.675 25 25" width="25" xmlns="http://www.w3.org/2000/svg"><g fill="none"><path d="M-783.6-3582.175h7.2c2.4 0 3.6 0 5.04.48 1.2.48 2.4 1.68 2.88 2.88.48 1.44.48 2.64.48 5.04v7.2c0 2.4 0 3.6-.48 5.04-.48 1.2-1.68 2.4-2.88 2.88-1.44.48-2.64.48-5.04.48h-7.2c-2.4 0-3.6 0-5.04-.48-1.2-.48-2.4-1.68-2.88-2.88-.48-1.44-.48-2.64-.48-5.04v-7.2c0-2.4 0-3.6.48-5.04.48-1.2 1.68-2.4 2.88-2.88 1.44-.48 2.64-.48 5.04-.48m0 0" fill="#5c76a2"/><path d="M-783.6-3582.175h7.2c2.4 0 3.6 0 5.04.48 1.2.48 2.4 1.68 2.88 2.88.48 1.44.48 2.64.48 5.04v7.2c0 2.4 0 3.6-.48 5.04-.48 1.2-1.68 2.4-2.88 2.88-1.44.48-2.64.48-5.04.48h-7.2c-2.4 0-3.6 0-5.04-.48-1.2-.48-2.4-1.68-2.88-2.88-.48-1.44-.48-2.64-.48-5.04v-7.2c0-2.4 0-3.6.48-5.04.48-1.2 1.68-2.4 2.88-2.88 1.44-.48 2.64-.48 5.04-.48m0 0" stroke="#5c76a2" stroke-linecap="round" stroke-linejoin="round" stroke-width=".25"/><path d="M-785.552-3565.731a7.124 7.124 0 0 0 5.56 2.667c3.764 0 6.879-2.934 7.101-6.667a.441.441 0 0 1 .472-.418c.249.018.436.222.418.471-.258 4.205-3.755 7.502-7.99 7.502a8.023 8.023 0 0 1-6.228-2.968v2.524c0 .249-.196.444-.445.444s-.445-.195-.445-.444v-3.556a.44.44 0 0 1 .445-.444h3.559c.249 0 .445.196.445.444s-.196.445-.445.445zm11.113-8.889a7.124 7.124 0 0 0-5.561-2.667c-3.781 0-6.896 2.951-7.11 6.703a.441.441 0 0 1-.47.417.44.44 0 0 1-.419-.47c.25-4.223 3.755-7.539 8.008-7.539a8.023 8.023 0 0 1 6.228 2.97v-2.525c0-.249.196-.445.445-.445s.445.196.445.445v3.555a.44.44 0 0 1-.445.445h-3.559c-.25 0-.445-.196-.445-.445s.196-.444.445-.444h2.447z" fill="#fff"/></g></svg>