<svg viewBox="-951.619 -3452.889 25 25" xmlns="http://www.w3.org/2000/svg"><g fill="none"><path d="M-947.279-3452.389h16.32a3.84 3.84 0 0 1 3.84 3.84v16.32a3.84 3.84 0 0 1-3.84 3.84h-16.32a3.84 3.84 0 0 1-3.84-3.84v-16.32a3.84 3.84 0 0 1 3.84-3.84z" fill="#fff"/><path d="M-947.279-3452.389h16.32a3.84 3.84 0 0 1 3.84 3.84v16.32a3.84 3.84 0 0 1-3.84 3.84h-16.32a3.84 3.84 0 0 1-3.84-3.84v-16.32a3.84 3.84 0 0 1 3.84-3.84z" stroke="#000" stroke-linecap="round" stroke-linejoin="round" stroke-width=".25"/><path d="M-936.119-3445.889v11c0 .83.67 1.5 1.5 1.5h1c.83 0 1.5-.67 1.5-1.5v-11c0-.83-.67-1.5-1.5-1.5h-1c-.83 0-1.5.67-1.5 1.5zm-1 0a2.5 2.5 0 0 1 2.5-2.5h1a2.5 2.5 0 0 1 2.5 2.5v11a2.5 2.5 0 0 1-2.5 2.5h-1a2.5 2.5 0 0 1-2.5-2.5z" fill="#66727e"/><path d="M-944.195-3440.694l3.51.004c.17 0 .3.131.3.301s-.13.3-.3.3h-3.514v3.515c0 .17-.132.3-.301.3-.17 0-.3-.13-.3-.3v-3.514l-3.507-.009a.296.296 0 0 1-.3-.3c0-.17.131-.301.3-.301h3.515v-3.506a.29.29 0 0 1 .296-.296.29.29 0 0 1 .297.296v3.514z" fill="#518738"/><path d="M-944.195-3440.694l3.51.004c.17 0 .3.131.3.301s-.13.3-.3.3h-3.514v3.515c0 .17-.132.3-.301.3-.17 0-.3-.13-.3-.3v-3.514l-3.507-.009a.296.296 0 0 1-.3-.3c0-.17.131-.301.3-.301h3.515v-3.506a.29.29 0 0 1 .296-.296.29.29 0 0 1 .297.296v3.514z" stroke="#518738" stroke-linejoin="round" stroke-width=".25"/></g></svg>