<svg height="25" viewBox="-912.5 -3452.889 25 25" width="25" xmlns="http://www.w3.org/2000/svg"><g fill="none"><path d="M-888-3448.549v16.32a3.84 3.84 0 0 1-3.84 3.84h-16.32a3.84 3.84 0 0 1-3.84-3.84v-16.32a3.84 3.84 0 0 1 3.84-3.84h16.32a3.84 3.84 0 0 1 3.84 3.84z" fill="#fff"/><path d="M-888-3448.549v16.32a3.84 3.84 0 0 1-3.84 3.84h-16.32a3.84 3.84 0 0 1-3.84-3.84v-16.32a3.84 3.84 0 0 1 3.84-3.84h16.32a3.84 3.84 0 0 1 3.84 3.84z" stroke="#000" stroke-linecap="round" stroke-linejoin="round" stroke-width=".25"/><path d="M-894.5-3436.056h-11c-.83 0-1.5.67-1.5 1.5v1c0 .83.67 1.5 1.5 1.5h11c.83 0 1.5-.67 1.5-1.5v-1c0-.83-.67-1.5-1.5-1.5zm0-1a2.5 2.5 0 0 1 2.5 2.5v1a2.5 2.5 0 0 1-2.5 2.5h-11a2.5 2.5 0 0 1-2.5-2.5v-1a2.5 2.5 0 0 1 2.5-2.5z" fill="#66727e"/><path d="M-899.695-3443.842l-.004 3.51c0 .17-.132.301-.301.301s-.3-.131-.3-.3v-3.515h-3.515c-.17 0-.3-.131-.3-.3s.13-.301.3-.301h3.514l.009-3.506c0-.17.131-.3.3-.3.17 0 .301.13.301.3v3.514h3.506a.29.29 0 0 1 .296.297.29.29 0 0 1-.296.296h-3.514z" fill="#518738"/><path d="M-899.695-3443.842l-.004 3.51c0 .17-.132.301-.301.301s-.3-.131-.3-.3v-3.515h-3.515c-.17 0-.3-.131-.3-.3s.13-.301.3-.301h3.514l.009-3.506c0-.17.131-.3.3-.3.17 0 .301.13.301.3v3.514h3.506a.29.29 0 0 1 .296.297.29.29 0 0 1-.296.296h-3.514z" stroke="#518738" stroke-linejoin="round" stroke-width=".25"/></g></svg>