<svg height="25" viewBox="-951.619 -3452.889 25 25" width="25" xmlns="http://www.w3.org/2000/svg"><g fill="none"><path d="m-947.2785-3452.389h16.32c2.1207 0 3.84 1.719 3.84 3.84v16.32c0 2.1207-1.7193 3.84-3.84 3.84h-16.32c-2.1208 0-3.84-1.7193-3.84-3.84v-16.32c0-2.121 1.7192-3.84 3.84-3.84z" fill="#fff"/><path d="m-947.2785-3452.389h16.32c2.1207 0 3.84 1.719 3.84 3.84v16.32c0 2.1207-1.7193 3.84-3.84 3.84h-16.32c-2.1208 0-3.84-1.7193-3.84-3.84v-16.32c0-2.121 1.7192-3.84 3.84-3.84z" stroke="#000" stroke-linecap="round" stroke-linejoin="round" stroke-width=".25"/><path d="m-936.1185-3445.889v11c0 .83.67 1.5 1.5 1.5h1c.83 0 1.5-.67 1.5-1.5v-11c0-.83-.67-1.5-1.5-1.5h-1c-.83 0-1.5.67-1.5 1.5zm-1 0c0-1.38 1.12-2.5 2.5-2.5h1c1.38 0 2.5 1.12 2.5 2.5v11c0 1.38-1.12 2.5-2.5 2.5h-1c-1.38 0-2.5-1.12-2.5-2.5z" fill="#66727e"/><path d="m-944.1951-3440.694 3.5101.0043c.1694 0 .3006.1312.3006.3007 0 .1693-.1312.3005-.3006.3005h-3.5144v3.5145c0 .1693-.1312.3005-.3006.3005s-.3006-.1312-.3006-.3005v-3.5145l-3.5059-.0085c-.1694 0-.3006-.131-.3006-.3006 0-.1694.1312-.3004.3006-.3004h3.5143v-3.506c-.0042-.1652.1313-.3007.2964-.2965.1652-.0042.3007.1313.2964.2965v3.5143z" fill="#518738"/><path d="m-944.1951-3440.694 3.5101.0043c.1694 0 .3006.1312.3006.3007 0 .1693-.1312.3005-.3006.3005h-3.5144v3.5145c0 .1693-.1312.3005-.3006.3005s-.3006-.1312-.3006-.3005v-3.5145l-3.5059-.0085c-.1694 0-.3006-.131-.3006-.3006 0-.1694.1312-.3004.3006-.3004h3.5143v-3.506c-.0042-.1652.1313-.3007.2964-.2965.1652-.0042.3007.1313.2964.2965v3.5143z" stroke="#518738" stroke-linejoin="round" stroke-width=".25"/></g></svg>