<?xml version="1.0" encoding="UTF-8" standalone="no"?>
<!DOCTYPE svg PUBLIC "-//W3C//DTD SVG 1.1//EN" "http://www.w3.org/Graphics/SVG/1.1/DTD/svg11.dtd">
<svg xmlns:dc="http://purl.org/dc/elements/1.1/" xmlns:xl="http://www.w3.org/1999/xlink" version="1.1" xmlns="http://www.w3.org/2000/svg" viewBox="-951.6185 -3452.889 25 25" width="25" height="25">
  <defs/>
  <g id="SOURCES" stroke-dasharray="none" stroke="none" stroke-opacity="1" fill="none" fill-opacity="1">
    <title>SOURCES</title>
    <g id="SOURCES_Calque_2">
      <title>Calque 2</title>
      <g id="Graphic_9890">
        <path d="M -947.2785 -3452.389 L -930.9585 -3452.389 C -928.8378 -3452.389 -927.1185 -3450.67 -927.1185 -3448.549 L -927.1185 -3432.229 C -927.1185 -3430.1083 -928.8378 -3428.389 -930.9585 -3428.389 L -947.2785 -3428.389 C -949.3993 -3428.389 -951.1185 -3430.1083 -951.1185 -3432.229 L -951.1185 -3448.549 C -951.1185 -3450.67 -949.3993 -3452.389 -947.2785 -3452.389 Z" fill="white"/>
        <path d="M -947.2785 -3452.389 L -930.9585 -3452.389 C -928.8378 -3452.389 -927.1185 -3450.67 -927.1185 -3448.549 L -927.1185 -3432.229 C -927.1185 -3430.1083 -928.8378 -3428.389 -930.9585 -3428.389 L -947.2785 -3428.389 C -949.3993 -3428.389 -951.1185 -3430.1083 -951.1185 -3432.229 L -951.1185 -3448.549 C -951.1185 -3450.67 -949.3993 -3452.389 -947.2785 -3452.389 Z" stroke="black" stroke-linecap="round" stroke-linejoin="round" stroke-width=".25"/>
      </g>
      <g id="Group_9891">
        <title>distribute-h</title>
        <g id="Graphic_9892">
          <path d="M -936.1185 -3445.889 L -936.1185 -3434.889 C -936.1185 -3434.059 -935.4485 -3433.389 -934.6185 -3433.389 L -933.6185 -3433.389 C -932.7885 -3433.389 -932.1185 -3434.059 -932.1185 -3434.889 L -932.1185 -3445.889 C -932.1185 -3446.719 -932.7885 -3447.389 -933.6185 -3447.389 L -934.6185 -3447.389 C -935.4485 -3447.389 -936.1185 -3446.719 -936.1185 -3445.889 Z M -937.1185 -3445.889 C -937.1185 -3447.269 -935.9985 -3448.389 -934.6185 -3448.389 L -933.6185 -3448.389 C -932.2385 -3448.389 -931.1185 -3447.269 -931.1185 -3445.889 L -931.1185 -3434.889 C -931.1185 -3433.509 -932.2385 -3432.389 -933.6185 -3432.389 L -934.6185 -3432.389 C -935.9985 -3432.389 -937.1185 -3433.509 -937.1185 -3434.889 Z" fill="#66727e"/>
        </g>
      </g>
      <g id="Group_9900">
        <title>close</title>
        <g id="Graphic_9901">
          <path d="M -944.1951 -3440.694 L -940.685 -3440.6897 C -940.5156 -3440.6897 -940.3844 -3440.5585 -940.3844 -3440.389 C -940.3844 -3440.2197 -940.5156 -3440.0885 -940.685 -3440.0885 L -944.1994 -3440.0885 L -944.1994 -3436.574 C -944.1994 -3436.4047 -944.3306 -3436.2735 -944.5 -3436.2735 C -944.6694 -3436.2735 -944.8006 -3436.4047 -944.8006 -3436.574 L -944.8006 -3440.0885 L -948.3065 -3440.097 C -948.4759 -3440.097 -948.6071 -3440.228 -948.6071 -3440.3976 C -948.6071 -3440.567 -948.4759 -3440.698 -948.3065 -3440.698 L -944.7922 -3440.698 L -944.7922 -3444.204 C -944.7964 -3444.3692 -944.6609 -3444.5047 -944.4958 -3444.5005 C -944.3306 -3444.5047 -944.1951 -3444.3692 -944.1994 -3444.204 L -944.1994 -3440.6897 Z" fill="#518738"/>
          <path d="M -944.1951 -3440.694 L -940.685 -3440.6897 C -940.5156 -3440.6897 -940.3844 -3440.5585 -940.3844 -3440.389 C -940.3844 -3440.2197 -940.5156 -3440.0885 -940.685 -3440.0885 L -944.1994 -3440.0885 L -944.1994 -3436.574 C -944.1994 -3436.4047 -944.3306 -3436.2735 -944.5 -3436.2735 C -944.6694 -3436.2735 -944.8006 -3436.4047 -944.8006 -3436.574 L -944.8006 -3440.0885 L -948.3065 -3440.097 C -948.4759 -3440.097 -948.6071 -3440.228 -948.6071 -3440.3976 C -948.6071 -3440.567 -948.4759 -3440.698 -948.3065 -3440.698 L -944.7922 -3440.698 L -944.7922 -3444.204 C -944.7964 -3444.3692 -944.6609 -3444.5047 -944.4958 -3444.5005 C -944.3306 -3444.5047 -944.1951 -3444.3692 -944.1994 -3444.204 L -944.1994 -3440.6897 Z" stroke="#518738" stroke-linecap="butt" stroke-linejoin="round" stroke-width=".25"/>
        </g>
      </g>
    </g>
  </g>
</svg>
