<svg viewBox="-836.163 -3452.961 25 25" xmlns="http://www.w3.org/2000/svg"><g fill="none"><path d="M-811.663-3448.62v16.32a3.84 3.84 0 0 1-3.84 3.84h-16.32a3.84 3.84 0 0 1-3.84-3.84v-16.32a3.84 3.84 0 0 1 3.84-3.84h16.32a3.84 3.84 0 0 1 3.84 3.84z" fill="#fff"/><path d="M-811.663-3448.62v16.32a3.84 3.84 0 0 1-3.84 3.84h-16.32a3.84 3.84 0 0 1-3.84-3.84v-16.32a3.84 3.84 0 0 1 3.84-3.84h16.32a3.84 3.84 0 0 1 3.84 3.84z" stroke="#000" stroke-linecap="round" stroke-linejoin="round" stroke-width=".25"/><path d="M-818.163-3442.46h-11c-.83 0-1.5.67-1.5 1.5v1c0 .83.67 1.5 1.5 1.5h11c.83 0 1.5-.67 1.5-1.5v-1c0-.83-.67-1.5-1.5-1.5zm0-1a2.5 2.5 0 0 1 2.5 2.5v1a2.5 2.5 0 0 1-2.5 2.5h-11a2.5 2.5 0 0 1-2.5-2.5v-1a2.5 2.5 0 0 1 2.5-2.5z" fill="#66727e"/><path d="M-822.873-3440.407l4.132 4.142c.2.199.2.508 0 .708s-.509.2-.708 0l-4.142-4.142-4.142 4.142c-.2.2-.509.2-.709 0s-.2-.509 0-.709l4.142-4.141-4.122-4.142c-.2-.2-.2-.509 0-.709.2-.199.51-.199.71 0l4.14 4.142 4.133-4.131c.19-.2.508-.2.698 0 .2.189.2.508 0 .698l-4.142 4.142z" fill="#9f4c4d"/></g></svg>