<?xml version="1.0" encoding="UTF-8" standalone="no"?>
<!DOCTYPE svg PUBLIC "-//W3C//DTD SVG 1.1//EN" "http://www.w3.org/Graphics/SVG/1.1/DTD/svg11.dtd">
<svg xmlns:dc="http://purl.org/dc/elements/1.1/" xmlns:xl="http://www.w3.org/1999/xlink" version="1.1" xmlns="http://www.w3.org/2000/svg" viewBox="-871.7695 -3452.889 25 25" width="25" height="25">
  <defs/>
  <g id="SOURCES" stroke-dasharray="none" stroke="none" stroke-opacity="1" fill="none" fill-opacity="1">
    <title>SOURCES</title>
    <g id="SOURCES_Calque_2">
      <title>Calque 2</title>
      <g id="Graphic_9889">
        <path d="M -867.4295 -3452.389 L -851.1095 -3452.389 C -848.9888 -3452.389 -847.2695 -3450.67 -847.2695 -3448.549 L -847.2695 -3432.229 C -847.2695 -3430.1083 -848.9888 -3428.389 -851.1095 -3428.389 L -867.4295 -3428.389 C -869.5503 -3428.389 -871.2695 -3430.1083 -871.2695 -3432.229 L -871.2695 -3448.549 C -871.2695 -3450.67 -869.5503 -3452.389 -867.4295 -3452.389 Z" fill="white"/>
        <path d="M -867.4295 -3452.389 L -851.1095 -3452.389 C -848.9888 -3452.389 -847.2695 -3450.67 -847.2695 -3448.549 L -847.2695 -3432.229 C -847.2695 -3430.1083 -848.9888 -3428.389 -851.1095 -3428.389 L -867.4295 -3428.389 C -869.5503 -3428.389 -871.2695 -3430.1083 -871.2695 -3432.229 L -871.2695 -3448.549 C -871.2695 -3450.67 -869.5503 -3452.389 -867.4295 -3452.389 Z" stroke="black" stroke-linecap="round" stroke-linejoin="round" stroke-width=".25"/>
      </g>
      <g id="Group_9887">
        <title>distribute-h</title>
        <g id="Graphic_9888">
          <path d="M -861.2695 -3445.889 L -861.2695 -3434.889 C -861.2695 -3434.059 -860.5995 -3433.389 -859.7695 -3433.389 L -858.7695 -3433.389 C -857.9395 -3433.389 -857.2695 -3434.059 -857.2695 -3434.889 L -857.2695 -3445.889 C -857.2695 -3446.719 -857.9395 -3447.389 -858.7695 -3447.389 L -859.7695 -3447.389 C -860.5995 -3447.389 -861.2695 -3446.719 -861.2695 -3445.889 Z M -862.2695 -3445.889 C -862.2695 -3447.269 -861.1495 -3448.389 -859.7695 -3448.389 L -858.7695 -3448.389 C -857.3895 -3448.389 -856.2695 -3447.269 -856.2695 -3445.889 L -856.2695 -3434.889 C -856.2695 -3433.509 -857.3895 -3432.389 -858.7695 -3432.389 L -859.7695 -3432.389 C -861.1495 -3432.389 -862.2695 -3433.509 -862.2695 -3434.889 Z" fill="#66727e"/>
        </g>
      </g>
      <g id="Group_9893">
        <title>close</title>
        <g id="Graphic_9894">
          <path d="M -859.2163 -3441.179 L -855.0745 -3445.3108 C -854.8749 -3445.5104 -854.5656 -3445.5104 -854.366 -3445.3108 C -854.1664 -3445.111 -854.1664 -3444.8018 -854.366 -3444.602 L -858.5077 -3440.4605 L -854.366 -3436.3188 C -854.1664 -3436.119 -854.1664 -3435.8098 -854.366 -3435.61 C -854.5656 -3435.4106 -854.8749 -3435.4106 -855.0745 -3435.61 L -859.2163 -3439.752 L -863.358 -3435.63 C -863.5576 -3435.4305 -863.867 -3435.4305 -864.0666 -3435.63 C -864.2662 -3435.8297 -864.2662 -3436.139 -864.0666 -3436.3387 L -859.9248 -3440.4804 L -864.0566 -3444.612 C -864.2562 -3444.8018 -864.2562 -3445.121 -864.0566 -3445.3108 C -863.867 -3445.5104 -863.5476 -3445.5104 -863.358 -3445.3108 L -859.2163 -3441.169 Z" fill="#9f4c4d"/>
        </g>
      </g>
    </g>
  </g>
</svg>
