<?xml version="1.0" encoding="UTF-8" standalone="no"?>
<!DOCTYPE svg PUBLIC "-//W3C//DTD SVG 1.1//EN" "http://www.w3.org/Graphics/SVG/1.1/DTD/svg11.dtd">
<svg xmlns:dc="http://purl.org/dc/elements/1.1/" xmlns:xl="http://www.w3.org/1999/xlink" version="1.1" xmlns="http://www.w3.org/2000/svg" viewBox="-836.1625 -3452.9605 25 25" width="25" height="25">
  <defs/>
  <g id="SOURCES" stroke-dasharray="none" stroke="none" stroke-opacity="1" fill="none" fill-opacity="1">
    <title>SOURCES</title>
    <g id="SOURCES_Calque_2">
      <title>Calque 2</title>
      <g id="Graphic_9895">
        <path d="M -811.6625 -3448.6205 L -811.6625 -3432.3005 C -811.6625 -3430.1797 -813.3818 -3428.4605 -815.5025 -3428.4605 L -831.8225 -3428.4605 C -833.9433 -3428.4605 -835.6625 -3430.1797 -835.6625 -3432.3005 L -835.6625 -3448.6205 C -835.6625 -3450.7412 -833.9433 -3452.4605 -831.8225 -3452.4605 L -815.5025 -3452.4605 C -813.3818 -3452.4605 -811.6625 -3450.7412 -811.6625 -3448.6205 Z" fill="white"/>
        <path d="M -811.6625 -3448.6205 L -811.6625 -3432.3005 C -811.6625 -3430.1797 -813.3818 -3428.4605 -815.5025 -3428.4605 L -831.8225 -3428.4605 C -833.9433 -3428.4605 -835.6625 -3430.1797 -835.6625 -3432.3005 L -835.6625 -3448.6205 C -835.6625 -3450.7412 -833.9433 -3452.4605 -831.8225 -3452.4605 L -815.5025 -3452.4605 C -813.3818 -3452.4605 -811.6625 -3450.7412 -811.6625 -3448.6205 Z" stroke="black" stroke-linecap="round" stroke-linejoin="round" stroke-width=".25"/>
      </g>
      <g id="Group_9896">
        <title>distribute-h</title>
        <g id="Graphic_9897">
          <path d="M -818.1625 -3442.4605 L -829.1625 -3442.4605 C -829.9925 -3442.4605 -830.6625 -3441.7905 -830.6625 -3440.9605 L -830.6625 -3439.9605 C -830.6625 -3439.1305 -829.9925 -3438.4605 -829.1625 -3438.4605 L -818.1625 -3438.4605 C -817.3325 -3438.4605 -816.6625 -3439.1305 -816.6625 -3439.9605 L -816.6625 -3440.9605 C -816.6625 -3441.7905 -817.3325 -3442.4605 -818.1625 -3442.4605 Z M -818.1625 -3443.4605 C -816.7825 -3443.4605 -815.6625 -3442.3405 -815.6625 -3440.9605 L -815.6625 -3439.9605 C -815.6625 -3438.5805 -816.7825 -3437.4605 -818.1625 -3437.4605 L -829.1625 -3437.4605 C -830.5425 -3437.4605 -831.6625 -3438.5805 -831.6625 -3439.9605 L -831.6625 -3440.9605 C -831.6625 -3442.3405 -830.5425 -3443.4605 -829.1625 -3443.4605 Z" fill="#66727e"/>
        </g>
      </g>
      <g id="Group_9898">
        <title>close</title>
        <g id="Graphic_9899">
          <path d="M -822.8726 -3440.407 L -818.7409 -3436.2655 C -818.5413 -3436.066 -818.5413 -3435.7565 -818.7409 -3435.557 C -818.9405 -3435.3573 -819.2498 -3435.3573 -819.4494 -3435.557 L -823.5912 -3439.6986 L -827.7329 -3435.557 C -827.9325 -3435.3573 -828.2419 -3435.3573 -828.4415 -3435.557 C -828.6411 -3435.7565 -828.6411 -3436.066 -828.4415 -3436.2655 L -824.2997 -3440.407 L -828.4215 -3444.549 C -828.6211 -3444.7485 -828.6211 -3445.058 -828.4215 -3445.2575 C -828.2219 -3445.457 -827.9125 -3445.457 -827.7129 -3445.2575 L -823.5712 -3441.1158 L -819.4395 -3445.2475 C -819.2498 -3445.447 -818.9305 -3445.447 -818.7409 -3445.2475 C -818.5413 -3445.058 -818.5413 -3444.7385 -818.7409 -3444.549 L -822.8826 -3440.407 Z" fill="#9f4c4d"/>
        </g>
      </g>
    </g>
  </g>
</svg>
