<svg height="25" viewBox="-836.163 -3452.961 25 25" width="25" xmlns="http://www.w3.org/2000/svg"><g fill="none"><path d="m-811.6625-3448.6205v16.32c0 2.1208-1.7193 3.84-3.84 3.84h-16.32c-2.1208 0-3.84-1.7192-3.84-3.84v-16.32c0-2.1207 1.7192-3.84 3.84-3.84h16.32c2.1207 0 3.84 1.7193 3.84 3.84z" fill="#fff"/><path d="m-811.6625-3448.6205v16.32c0 2.1208-1.7193 3.84-3.84 3.84h-16.32c-2.1208 0-3.84-1.7192-3.84-3.84v-16.32c0-2.1207 1.7192-3.84 3.84-3.84h16.32c2.1207 0 3.84 1.7193 3.84 3.84z" stroke="#000" stroke-linecap="round" stroke-linejoin="round" stroke-width=".25"/><path d="m-818.1625-3442.4605h-11c-.83 0-1.5.67-1.5 1.5v1c0 .83.67 1.5 1.5 1.5h11c.83 0 1.5-.67 1.5-1.5v-1c0-.83-.67-1.5-1.5-1.5zm0-1c1.38 0 2.5 1.12 2.5 2.5v1c0 1.38-1.12 2.5-2.5 2.5h-11c-1.38 0-2.5-1.12-2.5-2.5v-1c0-1.38 1.12-2.5 2.5-2.5z" fill="#66727e"/><path d="m-822.8726-3440.407 4.1317 4.1415c.1996.1995.1996.509 0 .7085-.1996.1997-.5089.1997-.7085 0l-4.1418-4.1416-4.1417 4.1416c-.1996.1997-.509.1997-.7086 0-.1996-.1995-.1996-.509 0-.7085l4.1418-4.1415-4.1218-4.142c-.1996-.1995-.1996-.509 0-.7085s.509-.1995.7086 0l4.1417 4.1417 4.1317-4.1317c.1897-.1995.509-.1995.6986 0 .1996.1895.1996.509 0 .6985l-4.1417 4.142z" fill="#9f4c4d"/></g></svg>