<svg viewBox="-871.769 -3452.889 25 25" xmlns="http://www.w3.org/2000/svg"><g fill="none"><path d="m-867.43-3452.389h16.32a3.84 3.84 0 0 1 3.84 3.84v16.32a3.84 3.84 0 0 1 -3.84 3.84h-16.32a3.84 3.84 0 0 1 -3.84-3.84v-16.32a3.84 3.84 0 0 1 3.84-3.84z" fill="#fff"/><path d="m-867.43-3452.389h16.32a3.84 3.84 0 0 1 3.84 3.84v16.32a3.84 3.84 0 0 1 -3.84 3.84h-16.32a3.84 3.84 0 0 1 -3.84-3.84v-16.32a3.84 3.84 0 0 1 3.84-3.84z" stroke="#000" stroke-linecap="round" stroke-linejoin="round" stroke-width=".25"/><path d="m-861.27-3445.889v11c0 .83.67 1.5 1.5 1.5h1c.83 0 1.5-.67 1.5-1.5v-11c0-.83-.67-1.5-1.5-1.5h-1c-.83 0-1.5.67-1.5 1.5zm-1 0a2.5 2.5 0 0 1 2.5-2.5h1a2.5 2.5 0 0 1 2.5 2.5v11a2.5 2.5 0 0 1 -2.5 2.5h-1a2.5 2.5 0 0 1 -2.5-2.5z" fill="#66727e"/><path d="m-859.216-3441.179 4.142-4.132c.2-.2.508-.2.708 0s.2.51 0 .709l-4.142 4.141 4.142 4.142c.2.2.2.51 0 .709-.2.2-.509.2-.708 0l-4.142-4.142-4.142 4.122c-.2.2-.509.2-.709 0s-.2-.509 0-.709l4.142-4.141-4.132-4.132a.483.483 0 0 1 0-.699c.19-.2.51-.2.699 0l4.142 4.142z" fill="#9f4c4d"/></g></svg>