<svg height="25" viewBox="-793 -3425.887 25 25" width="25" xmlns="http://www.w3.org/2000/svg"><g fill="none"><circle cx="-780.5" cy="-3413.387" fill="#fff" r="12"/><circle cx="-780.5" cy="-3413.387" r="12" stroke="#000" stroke-linecap="round" stroke-linejoin="round" stroke-width=".25"/><path d="m-781.5214-3406.279h.2665c.3908-.0265.7638-.1953 1.0569-.4884l.6217-.6216-6.9276-6.9187-.6217.6217c-.6572.6572-.6572 1.732 0 2.389l4.5385 4.5385c.29305.2931.675.4619 1.0569.4885zm2.0872 0h4.6983c.2487 0 .44405.1955.44405.444 0 .249-.19535.4443-.44405.4443h-6.4924c-.10655 0-.222 0-.3286 0h-4.7249c-.2487 0-.4441-.1953-.4441-.4443 0-.2485.1954-.444.4441-.444h2.9309l-4.3964-4.3962c-1.0036-1.0038-1.0036-2.6378 0-3.6414l6.3148-6.3147c1.0036-1.0037 2.63775-1.0037 3.6414 0l4.5384 4.5383c1.0036 1.0037 1.0036 2.638 0 3.6415l-6.1726 6.1725zm-6.4391-8.6593 6.9187 6.9187 5.0624-5.0624c.65725-.6573.65725-1.732 0-2.389l-4.5295-4.5297c-.6573-.6573-1.7319-.6573-2.3891 0z" fill="#9f4c4d"/></g></svg>