<svg height="25" viewBox="-793 -3425.887 25 25" width="25" xmlns="http://www.w3.org/2000/svg"><g fill="none"><circle cx="-780.5" cy="-3413.387" fill="#fff" r="12"/><circle cx="-780.5" cy="-3413.387" r="12" stroke="#000" stroke-linecap="round" stroke-linejoin="round" stroke-width=".25"/><path d="M-781.521-3406.279h.266a1.65 1.65 0 0 0 1.057-.488l.622-.622-6.928-6.919-.622.622a1.694 1.694 0 0 0 0 2.389l4.539 4.538a1.67 1.67 0 0 0 1.057.489zm2.087 0h4.698a.44.44 0 0 1 .444.444.44.44 0 0 1-.444.444h-11.546a.44.44 0 0 1-.444-.444.44.44 0 0 1 .444-.444h2.931l-4.396-4.396a2.578 2.578 0 0 1 0-3.642l6.314-6.314a2.578 2.578 0 0 1 3.642 0l4.538 4.538a2.579 2.579 0 0 1 0 3.642l-6.172 6.172zm-6.44-8.66l6.92 6.92 5.062-5.063a1.694 1.694 0 0 0 0-2.389l-4.53-4.53a1.694 1.694 0 0 0-2.389 0z" fill="#9f4c4d"/></g></svg>