<svg height="25" viewBox="-673 -3425.887 25 25" width="25" xmlns="http://www.w3.org/2000/svg"><g fill="none"><path d="m-668.66-3425.3874h16.32c2.1208 0 3.84 1.7194 3.84 3.84v16.32c0 2.1208-1.7192 3.84-3.84 3.84h-16.32c-2.1208 0-3.84-1.7192-3.84-3.84v-16.32c0-2.1206 1.7192-3.84 3.84-3.84z" fill="#fff"/><g stroke-linecap="round" stroke-linejoin="round"><path d="m-668.66-3425.3874h16.32c2.1208 0 3.84 1.7194 3.84 3.84v16.32c0 2.1208-1.7192 3.84-3.84 3.84h-16.32c-2.1208 0-3.84-1.7192-3.84-3.84v-16.32c0-2.1206 1.7192-3.84 3.84-3.84z" stroke="#000" stroke-width=".25"/><path d="m-663.78744-3406.16 1.76344-6.731h4.6882l-2.45164 6.731zm1.13978-11.3763c0-.3584.07166-.6987.21506-1.0215.1434-.3225.3369-.6022.58064-.8387.24376-.2365.53046-.4229.86022-.5591.32974-.1364.681-.2044 1.05374-.2044.3441 0 .67744.068 1 .2044.3226.1362.6022.3226.8387.5591.2366.2365.42655.5162.5699.8387.1434.3228.2151.6631.2151 1.0215 0 .3728-.0717.7169-.2151 1.0323-.14335.3154-.3333.588-.5699.8172-.2365.2294-.5161.4122-.8387.5484-.32256.1364-.6559.2044-1 .2044-.37274 0-.724-.068-1.05374-.2044-.32976-.1362-.61646-.319-.86022-.5484-.24374-.2292-.43724-.5018-.58064-.8172s-.21506-.6595-.21506-1.0323z" stroke="#66727e"/></g></g></svg>