<svg viewBox="-673 -3425.887 25 25" xmlns="http://www.w3.org/2000/svg"><g fill="none"><path d="M-668.66-3425.387h16.32a3.84 3.84 0 0 1 3.84 3.84v16.32a3.84 3.84 0 0 1-3.84 3.84h-16.32a3.84 3.84 0 0 1-3.84-3.84v-16.32a3.84 3.84 0 0 1 3.84-3.84z" fill="#fff"/><g stroke-linecap="round" stroke-linejoin="round"><path d="M-668.66-3425.387h16.32a3.84 3.84 0 0 1 3.84 3.84v16.32a3.84 3.84 0 0 1-3.84 3.84h-16.32a3.84 3.84 0 0 1-3.84-3.84v-16.32a3.84 3.84 0 0 1 3.84-3.84z" stroke="#000" stroke-width=".25"/><path d="M-663.787-3406.16l1.763-6.731h4.688l-2.451 6.731zm1.14-11.376c0-.359.071-.699.214-1.022.144-.322.337-.602.581-.838a2.73 2.73 0 0 1 1.914-.764c.344 0 .677.068 1 .204.323.137.602.323.839.56.236.236.426.516.57.838.143.323.215.663.215 1.022 0 .372-.072.717-.215 1.032a2.653 2.653 0 0 1-.57.817c-.237.23-.516.412-.839.549a2.543 2.543 0 0 1-1 .204 2.802 2.802 0 0 1-1.914-.753 2.568 2.568 0 0 1-.58-.817 2.465 2.465 0 0 1-.216-1.032z" stroke="#66727e"/></g></g></svg>