<?xml version="1.0" encoding="UTF-8" standalone="no"?>
<!DOCTYPE svg PUBLIC "-//W3C//DTD SVG 1.1//EN" "http://www.w3.org/Graphics/SVG/1.1/DTD/svg11.dtd">
<svg xmlns:dc="http://purl.org/dc/elements/1.1/" xmlns:xl="http://www.w3.org/1999/xlink" version="1.1" xmlns="http://www.w3.org/2000/svg" viewBox="-673 -3425.8874 25 25" width="25" height="25">
  <defs/>
  <g id="SOURCES" stroke-dasharray="none" stroke="none" stroke-opacity="1" fill="none" fill-opacity="1">
    <title>SOURCES</title>
    <g id="SOURCES_Calque_2">
      <title>Calque 2</title>
      <g id="Graphic_9882">
        <path d="M -668.66 -3425.3874 L -652.34 -3425.3874 C -650.2192 -3425.3874 -648.5 -3423.668 -648.5 -3421.5474 L -648.5 -3405.2274 C -648.5 -3403.1066 -650.2192 -3401.3874 -652.34 -3401.3874 L -668.66 -3401.3874 C -670.7808 -3401.3874 -672.5 -3403.1066 -672.5 -3405.2274 L -672.5 -3421.5474 C -672.5 -3423.668 -670.7808 -3425.3874 -668.66 -3425.3874 Z" fill="white"/>
        <path d="M -668.66 -3425.3874 L -652.34 -3425.3874 C -650.2192 -3425.3874 -648.5 -3423.668 -648.5 -3421.5474 L -648.5 -3405.2274 C -648.5 -3403.1066 -650.2192 -3401.3874 -652.34 -3401.3874 L -668.66 -3401.3874 C -670.7808 -3401.3874 -672.5 -3403.1066 -672.5 -3405.2274 L -672.5 -3421.5474 C -672.5 -3423.668 -670.7808 -3425.3874 -668.66 -3425.3874 Z" stroke="black" stroke-linecap="round" stroke-linejoin="round" stroke-width=".25"/>
      </g>
      <g id="Graphic_9884">
        <path d="M -663.78744 -3406.16 L -662.024 -3412.891 L -657.3358 -3412.891 L -659.78744 -3406.16 Z M -662.64766 -3417.5363 C -662.64766 -3417.8947 -662.576 -3418.235 -662.4326 -3418.5578 C -662.2892 -3418.8803 -662.0957 -3419.16 -661.85196 -3419.3965 C -661.6082 -3419.633 -661.3215 -3419.8194 -660.99174 -3419.9556 C -660.662 -3420.092 -660.31074 -3420.16 -659.938 -3420.16 C -659.5939 -3420.16 -659.26056 -3420.092 -658.938 -3419.9556 C -658.6154 -3419.8194 -658.3358 -3419.633 -658.0993 -3419.3965 C -657.8627 -3419.16 -657.67275 -3418.8803 -657.5294 -3418.5578 C -657.386 -3418.235 -657.3143 -3417.8947 -657.3143 -3417.5363 C -657.3143 -3417.1635 -657.386 -3416.8194 -657.5294 -3416.504 C -657.67275 -3416.1886 -657.8627 -3415.916 -658.0993 -3415.6868 C -658.3358 -3415.4574 -658.6154 -3415.2746 -658.938 -3415.1384 C -659.26056 -3415.002 -659.5939 -3414.934 -659.938 -3414.934 C -660.31074 -3414.934 -660.662 -3415.002 -660.99174 -3415.1384 C -661.3215 -3415.2746 -661.6082 -3415.4574 -661.85196 -3415.6868 C -662.0957 -3415.916 -662.2892 -3416.1886 -662.4326 -3416.504 C -662.576 -3416.8194 -662.64766 -3417.1635 -662.64766 -3417.5363 Z" stroke="#66727e" stroke-linecap="round" stroke-linejoin="round" stroke-width="1"/>
      </g>
    </g>
  </g>
</svg>
