<svg xmlns="http://www.w3.org/2000/svg" viewBox="-633 -3425.887 25 25"><g fill="none"><path d="M-628.66-3425.387h16.32a3.84 3.84 0 0 1 3.84 3.84v16.32a3.84 3.84 0 0 1-3.84 3.84h-16.32a3.84 3.84 0 0 1-3.84-3.84v-16.32a3.84 3.84 0 0 1 3.84-3.84z" fill="#fff"/><path d="M-628.66-3425.387h16.32a3.84 3.84 0 0 1 3.84 3.84v16.32a3.84 3.84 0 0 1-3.84 3.84h-16.32a3.84 3.84 0 0 1-3.84-3.84v-16.32a3.84 3.84 0 0 1 3.84-3.84z" stroke="#000" stroke-linecap="round" stroke-linejoin="round" stroke-width=".25"/><path d="M-614.848-3415.963h-11.304a2.098 2.098 0 0 1 0-4.197h11.304a2.098 2.098 0 0 1 0 4.197z" fill="#999"/><path d="M-614.848-3415.963h-11.304a2.098 2.098 0 0 1 0-4.197h11.304a2.098 2.098 0 0 1 0 4.197z"/><path fill="#999" d="M-628.25-3417.649h15.5v1.686h-15.5z"/><path d="M-628.25-3417.649h15.5v1.686h-15.5z"/><path d="M-617.833-3411.61v-3.555h-5.334v3.555zm0 .89h-5.334v3.555h5.334zm-9.778-.89h3.555v-3.555h-3.555zm0 .89v2.221c0 .738.595 1.334 1.333 1.334h2.222v-3.556zm14.222-.89v-3.555h-3.555v3.555zm0 .89h-3.555v3.555h2.222c.738 0 1.333-.596 1.333-1.334zm-4.444-5.334v-3.556h-5.334v3.556zm-9.778 0h3.555v-3.556h-2.222c-.738 0-1.333.596-1.333 1.334zm14.222 0v-2.222c0-.738-.595-1.334-1.333-1.334h-2.222v3.556zm-12.889-4.445h11.556c1.226 0 2.222.996 2.222 2.223v9.777a2.223 2.223 0 0 1-2.222 2.223h-11.556a2.223 2.223 0 0 1-2.222-2.223v-9.777c0-1.227.996-2.223 2.222-2.223z" fill="#66727e"/></g></svg>