<svg height="25" viewBox="-633 -3425.887 25 25" width="25" xmlns="http://www.w3.org/2000/svg"><g fill="none"><path d="m-628.66-3425.3874h16.32c2.1208 0 3.84 1.7194 3.84 3.84v16.32c0 2.1208-1.7192 3.84-3.84 3.84h-16.32c-2.1208 0-3.84-1.7192-3.84-3.84v-16.32c0-2.1206 1.7192-3.84 3.84-3.84z" fill="#fff"/><path d="m-628.66-3425.3874h16.32c2.1208 0 3.84 1.7194 3.84 3.84v16.32c0 2.1208-1.7192 3.84-3.84 3.84h-16.32c-2.1208 0-3.84-1.7192-3.84-3.84v-16.32c0-2.1206 1.7192-3.84 3.84-3.84z" stroke="#000" stroke-linecap="round" stroke-linejoin="round" stroke-width=".25"/><path d="m-614.8483-3415.9634h-11.3034c-1.15886 0-2.0983-.9394-2.0983-2.0982 0-1.1589.93944-2.0984 2.0983-2.0984h11.3034c1.1589 0 2.0983.9395 2.0983 2.0984 0 1.1588-.9394 2.0982-2.0983 2.0982z" fill="#999"/><path d="m-614.8483-3415.9634h-11.3034c-1.15886 0-2.0983-.9394-2.0983-2.0982 0-1.1589.93944-2.0984 2.0983-2.0984h11.3034c1.1589 0 2.0983.9395 2.0983 2.0984 0 1.1588-.9394 2.0982-2.0983 2.0982z"/><path d="m-628.25-3417.649h15.49998v1.68558h-15.49998z" fill="#999"/><path d="m-628.25-3417.649h15.49998v1.68558h-15.49998z"/><path d="m-617.83334-3411.6096v-3.5554h-5.33332v3.5554zm0 .8889h-5.33332v3.5557h5.33332zm-9.77776-.8889h3.55555v-3.5554h-3.55555zm0 .8889v2.2222c0 .7378.59555 1.3335 1.3333 1.3335h2.22225v-3.5557zm14.2222-.8889v-3.5554h-3.55555v3.5554zm0 .8889h-3.55555v3.5557h2.22225c.73775 0 1.3333-.5957 1.3333-1.3335zm-4.44444-5.3333v-3.5556h-5.33332v3.5556zm-9.77776 0h3.55555v-3.5556h-2.22225c-.73775 0-1.3333.5956-1.3333 1.3333zm14.2222 0v-2.2223c0-.7377-.59555-1.3333-1.3333-1.3333h-2.22225v3.5556zm-12.8889-4.4445h11.5556c1.2266 0 2.2222.9955 2.2222 2.2222v9.7778c0 1.2265-.9956 2.2222-2.2222 2.2222h-11.5556c-1.2266 0-2.2222-.9957-2.2222-2.2222v-9.7778c0-1.2267.9956-2.2222 2.2222-2.2222z" fill="#66727e"/></g></svg>