<svg height="24.75" viewBox="-885.286 -2876.228 24.75 24.75" width="24.75" xmlns="http://www.w3.org/2000/svg"><g fill="none"><circle cx="-872.911" cy="-2863.853" fill="#666" r="8"/><circle cx="-872.911" cy="-2863.853" r="8"/><circle cx="-872.911" cy="-2863.853" fill="#666" r="8"/><circle cx="-872.911" cy="-2863.853" r="8"/><g fill="#c0e0ff"><path d="M-870.496-2863.762a.385.385 0 0 1 .54.038.385.385 0 0 1-.037.541l-2.667 2.286a.38.38 0 0 1-.495 0l-2.667-2.286a.385.385 0 0 1-.038-.54.385.385 0 0 1 .541-.039l2.415 2.073 2.416-2.073zm0-3.047a.385.385 0 0 1 .54.038.385.385 0 0 1-.037.54l-2.667 2.286a.381.381 0 0 1-.495 0l-2.667-2.285a.385.385 0 0 1-.038-.541.385.385 0 0 1 .541-.038l2.415 2.072 2.416-2.072z"/><path d="M-872.911-2871.853a8 8 0 0 1 8 8c0 4.419-3.581 8-8 8-4.42 0-8-3.581-8-8 0-4.42 3.58-8 8-8zm0 .762c-4 0-7.238 3.238-7.238 7.238s3.238 7.238 7.238 7.238 7.238-3.238 7.238-7.238-3.238-7.238-7.238-7.238z"/></g></g></svg>