<?xml version="1.0" encoding="UTF-8" standalone="no"?>
<!DOCTYPE svg PUBLIC "-//W3C//DTD SVG 1.1//EN" "http://www.w3.org/Graphics/SVG/1.1/DTD/svg11.dtd">
<svg xmlns="http://www.w3.org/2000/svg" xmlns:dc="http://purl.org/dc/elements/1.1/" version="1.1" xmlns:xl="http://www.w3.org/1999/xlink" viewBox="-885.2863 -2876.2282 24.75 24.75" width="24.75" height="24.75">
  <defs/>
  <g id="SOURCES" stroke-dasharray="none" stroke-opacity="1" stroke="none" fill="none" fill-opacity="1">
    <title>SOURCES</title>
    <g id="SOURCES_Dark">
      <title>Dark</title>
      <g id="Group_12201">
        <g id="Graphic_12205">
          <circle cx="-872.9113" cy="-2863.8532" r="8.00000702080163" fill="#666"/>
          <circle cx="-872.9113" cy="-2863.8532" r="8.00000702080163" stroke="black" stroke-linecap="round" stroke-linejoin="round" stroke-width="0"/>
        </g>
        <g id="Graphic_12204"/>
        <g id="Graphic_12203">
          <circle cx="-872.9113" cy="-2863.8532" r="8.00000702080163" fill="#666"/>
          <circle cx="-872.9113" cy="-2863.8532" r="8.00000702080163" stroke="black" stroke-linecap="round" stroke-linejoin="round" stroke-width="0"/>
        </g>
      </g>
      <g id="Group_12417">
        <g id="Graphic_12419">
          <path d="M -870.4961 -2863.7617 C -870.3361 -2863.899 -870.0923 -2863.8837 -869.9551 -2863.7237 C -869.818 -2863.5637 -869.8332 -2863.32 -869.9932 -2863.1827 L -872.6599 -2860.897 C -872.8046 -2860.775 -873.0104 -2860.775 -873.1551 -2860.897 L -875.8218 -2863.1827 C -875.9818 -2863.32 -875.997 -2863.5637 -875.8599 -2863.7237 C -875.7227 -2863.8837 -875.4789 -2863.899 -875.3189 -2863.7617 L -872.9037 -2861.6894 L -870.4885 -2863.7617 Z M -870.4961 -2866.8094 C -870.3361 -2866.9465 -870.0923 -2866.9313 -869.9551 -2866.7713 C -869.818 -2866.6113 -869.8332 -2866.3675 -869.9932 -2866.2303 L -872.6599 -2863.9446 C -872.8046 -2863.8227 -873.0104 -2863.8227 -873.1551 -2863.9446 L -875.8218 -2866.2303 C -875.9818 -2866.3675 -875.997 -2866.6113 -875.8599 -2866.7713 C -875.7227 -2866.9313 -875.4789 -2866.9465 -875.3189 -2866.8094 L -872.9037 -2864.737 L -870.4885 -2866.8094 Z" fill="#c0e0ff"/>
        </g>
        <g id="Graphic_12418">
          <path d="M -872.9113 -2871.8532 C -868.4923 -2871.8532 -864.9113 -2868.2722 -864.9113 -2863.8532 C -864.9113 -2859.434 -868.4923 -2855.8532 -872.9113 -2855.8532 C -877.3304 -2855.8532 -880.9113 -2859.434 -880.9113 -2863.8532 C -880.9113 -2868.2722 -877.3304 -2871.8532 -872.9113 -2871.8532 Z M -872.9113 -2871.0913 C -876.9113 -2871.0913 -880.1494 -2867.8532 -880.1494 -2863.8532 C -880.1494 -2859.8532 -876.9113 -2856.615 -872.9113 -2856.615 C -868.9113 -2856.615 -865.6732 -2859.8532 -865.6732 -2863.8532 C -865.6732 -2867.8532 -868.9113 -2871.0913 -872.9113 -2871.0913 Z" fill="#c0e0ff"/>
        </g>
      </g>
    </g>
  </g>
</svg>
