<svg height="24.75" viewBox="-885.286 -2876.228 24.75 24.75" width="24.75" xmlns="http://www.w3.org/2000/svg"><g fill="none"><circle cx="-872.911" cy="-2863.853" fill="#666" r="8"/><circle cx="-872.911" cy="-2863.853" r="8"/><circle cx="-872.911" cy="-2863.853" fill="#666" r="8"/><circle cx="-872.911" cy="-2863.853" r="8"/><g fill="#c0e0ff"><path d="m-870.4961-2863.7617c.16-.1373.4038-.122.541.038.1371.16.1219.4037-.0381.541l-2.6667 2.2857c-.1447.122-.3505.122-.4952 0l-2.6667-2.2857c-.16-.1373-.1752-.381-.0381-.541.1372-.16.381-.1753.541-.038l2.4152 2.0723 2.4152-2.0723zm0-3.0477c.16-.1371.4038-.1219.541.0381.1371.16.1219.4038-.0381.541l-2.6667 2.2857c-.1447.1219-.3505.1219-.4952 0l-2.6667-2.2857c-.16-.1372-.1752-.381-.0381-.541.1372-.16.381-.1752.541-.0381l2.4152 2.0724 2.4152-2.0724z"/><path d="m-872.9113-2871.8532c4.419 0 8 3.581 8 8 0 4.4192-3.581 8-8 8-4.4191 0-8-3.5808-8-8 0-4.419 3.5809-8 8-8zm0 .7619c-4 0-7.2381 3.2381-7.2381 7.2381s3.2381 7.2382 7.2381 7.2382 7.2381-3.2382 7.2381-7.2382-3.2381-7.2381-7.2381-7.2381z"/></g></g></svg>