<svg height="24.75" viewBox="-853.502 -2876.228 24.75 24.75" width="24.75" xmlns="http://www.w3.org/2000/svg"><g fill="none"><circle cx="-841.127" cy="-2863.853" fill="#666" r="8"/><circle cx="-841.127" cy="-2863.853" r="8"/><circle cx="-841.127" cy="-2863.853" fill="#666" r="8"/><circle cx="-841.127" cy="-2863.853" r="8"/><g fill="#c0e0ff"><path d="M-843.542-2863.945a.385.385 0 0 1-.54-.038.385.385 0 0 1 .037-.54l2.667-2.286a.381.381 0 0 1 .495 0l2.667 2.285c.16.137.175.381.038.541a.385.385 0 0 1-.541.038l-2.415-2.072-2.415 2.072zm0 3.048a.385.385 0 0 1-.54-.038.385.385 0 0 1 .037-.541l2.667-2.286a.38.38 0 0 1 .495 0l2.667 2.286c.16.137.175.381.038.541a.385.385 0 0 1-.541.038l-2.415-2.072-2.415 2.072z"/><path d="M-841.127-2855.853c-4.419 0-8-3.581-8-8a8 8 0 0 1 8-8c4.42 0 8 3.58 8 8 0 4.419-3.58 8-8 8zm0-.762c4 0 7.238-3.238 7.238-7.238s-3.238-7.238-7.238-7.238-7.238 3.238-7.238 7.238 3.238 7.238 7.238 7.238z"/></g></g></svg>