<svg height="24.75" viewBox="-853.502 -2876.228 24.75 24.75" width="24.75" xmlns="http://www.w3.org/2000/svg"><g fill="none"><circle cx="-841.127" cy="-2863.853" fill="#666" r="8"/><circle cx="-841.127" cy="-2863.853" r="8"/><circle cx="-841.127" cy="-2863.853" fill="#666" r="8"/><circle cx="-841.127" cy="-2863.853" r="8"/><g fill="#c0e0ff"><path d="m-843.5419-2863.9446c-.16.1371-.4038.1219-.5409-.0381-.1372-.16-.122-.4038.038-.541l2.6667-2.2857c.1448-.1219.3505-.1219.4953 0l2.6666 2.2857c.16.1372.1753.381.0381.541-.1371.16-.3809.1752-.5409.0381l-2.4153-2.0724-2.4152 2.0724zm0 3.0476c-.16.137-.4038.122-.5409-.038-.1372-.16-.122-.404.038-.541l2.6667-2.2857c.1448-.122.3505-.122.4953 0l2.6666 2.2857c.16.137.1753.381.0381.541-.1371.16-.3809.175-.5409.038l-2.4153-2.0724-2.4152 2.0724z"/><path d="m-841.1267-2855.8532c-4.419 0-8-3.5808-8-8 0-4.419 3.581-8 8-8 4.4191 0 8 3.581 8 8 0 4.4192-3.5809 8-8 8zm0-.7618c4 0 7.2381-3.2382 7.2381-7.2382s-3.2381-7.2381-7.2381-7.2381-7.2381 3.2381-7.2381 7.2381 3.2381 7.2382 7.2381 7.2382z"/></g></g></svg>