<svg height="24.75" viewBox="-812.135 -2876.228 24.75 24.75" width="24.75" xmlns="http://www.w3.org/2000/svg"><g fill="none"><circle cx="-799.76" cy="-2863.853" fill="#666" r="8"/><circle cx="-799.76" cy="-2863.853" r="8"/><circle cx="-799.76" cy="-2863.853" fill="#666" r="8"/><circle cx="-799.76" cy="-2863.853" r="8"/><path d="M-799.38-2864.234h2.668a.38.38 0 1 1 0 .762h-2.667v2.666a.38.38 0 1 1-.762 0v-2.666h-2.667a.381.381 0 0 1 0-.762h2.667v-2.667a.38.38 0 0 1 .762 0zm-.38 8.38a8 8 0 1 1 0-16 8 8 0 0 1 0 16zm0-.761a7.238 7.238 0 1 0 0-14.476 7.238 7.238 0 0 0 0 14.476z" fill="#c0e0ff"/></g></svg>