<svg height="24.75" viewBox="-762.457 -2876.228 24.75 24.75" width="24.75" xmlns="http://www.w3.org/2000/svg"><g fill="none"><circle cx="-750.082" cy="-2863.853" fill="#666" r="8"/><circle cx="-750.082" cy="-2863.853" r="8"/><circle cx="-750.082" cy="-2863.853" fill="#666" r="8"/><circle cx="-750.082" cy="-2863.853" r="8"/><path d="m-750.082-2855.8532c-4.4191 0-8-3.5808-8-8 0-4.419 3.5809-8 8-8 4.419 0 8 3.581 8 8 0 4.4192-3.581 8-8 8zm0-.7618c4 0 7.2381-3.2382 7.2381-7.2382s-3.2381-7.2381-7.2381-7.2381-7.2381 3.2381-7.2381 7.2381 3.2381 7.2382 7.2381 7.2382zm-3.04765-6.8572c-.21335 0-.38095-.1678-.38095-.381 0-.2133.1676-.3808.38095-.3808h6.09525c.2133 0 .38094.1675.38094.3808 0 .2132-.16764.381-.38094.381z" fill="#c0e0ff"/></g></svg>