<svg height="24.75" viewBox="-762.457 -2876.228 24.75 24.75" width="24.75" xmlns="http://www.w3.org/2000/svg"><g fill="none"><circle cx="-750.082" cy="-2863.853" fill="#666" r="8"/><circle cx="-750.082" cy="-2863.853" r="8"/><circle cx="-750.082" cy="-2863.853" fill="#666" r="8"/><circle cx="-750.082" cy="-2863.853" r="8"/><path d="M-750.082-2855.853c-4.42 0-8-3.581-8-8 0-4.42 3.58-8 8-8a8 8 0 0 1 8 8c0 4.419-3.581 8-8 8zm0-.762c4 0 7.238-3.238 7.238-7.238s-3.238-7.238-7.238-7.238-7.238 3.238-7.238 7.238 3.238 7.238 7.238 7.238zm-3.048-6.857a.377.377 0 0 1-.38-.381c0-.213.167-.381.38-.381h6.096c.213 0 .38.168.38.38a.377.377 0 0 1-.38.382z" fill="#c0e0ff"/></g></svg>