<svg height="24.75" viewBox="-812.135 -2876.228 24.75 24.75" width="24.75" xmlns="http://www.w3.org/2000/svg"><g fill="none"><circle cx="-799.76" cy="-2863.853" fill="#666" r="8"/><circle cx="-799.76" cy="-2863.853" r="8"/><circle cx="-799.76" cy="-2863.853" fill="#666" r="8"/><circle cx="-799.76" cy="-2863.853" r="8"/><path d="m-799.3792-2864.234h2.6667c.2104 0 .3809.1704.3809.3808s-.1705.381-.3809.381h-2.6667v2.6666c0 .2106-.1705.381-.3809.381s-.381-.1704-.381-.381v-2.6666h-2.6666c-.2104 0-.381-.1706-.381-.381s.1706-.3808.381-.3808h2.6666v-2.6668c0-.2104.1706-.3809.381-.3809s.3809.1705.3809.3809zm-.3809 8.3808c-4.4183 0-8-3.5818-8-8 0-4.4183 3.5817-8 8-8 4.41825 0 8 3.5817 8 8 0 4.4182-3.58175 8-8 8zm0-.7618c3.9975 0 7.2381-3.2407 7.2381-7.2382s-3.2406-7.2381-7.2381-7.2381-7.2381 3.2406-7.2381 7.2381 3.2406 7.2382 7.2381 7.2382z" fill="#c0e0ff"/></g></svg>