<svg height="24.75" viewBox="-788.135 -2876.228 24.75 24.75" width="24.75" xmlns="http://www.w3.org/2000/svg"><g fill="none"><circle cx="-775.76" cy="-2863.853" fill="#666" r="8"/><circle cx="-775.76" cy="-2863.853" r="8"/><circle cx="-775.76" cy="-2863.853" fill="#666" r="8"/><circle cx="-775.76" cy="-2863.853" r="8"/><g fill="#c0e0fe"><path d="m-775.7601-2855.8532c-4.4191 0-8-3.5808-8-8 0-4.419 3.5809-8 8-8 4.419 0 8 3.581 8 8 0 4.4192-3.581 8-8 8zm0-.7618c4 0 7.2381-3.2382 7.2381-7.2382s-3.2381-7.2381-7.2381-7.2381-7.2381 3.2381-7.2381 7.2381 3.2381 7.2382 7.2381 7.2382z"/><path d="m-778.8077-2865.0265c-.2134 0-.381-.1675-.381-.381 0-.2133.1676-.3809.381-.3809h6.0952c.2133 0 .3809.1676.3809.3809 0 .2135-.1676.381-.3809.381z"/><path d="m-778.8077-2861.918c-.2134 0-.381-.1676-.381-.381 0-.2132.1676-.381.381-.381h6.0952c.2133 0 .3809.1678.3809.381 0 .2134-.1676.381-.3809.381z"/></g></g></svg>