<svg height="24.75" viewBox="-698.526 -2877.13 24.75 24.75" width="24.75" xmlns="http://www.w3.org/2000/svg"><g fill="none"><circle cx="-686.151" cy="-2864.755" fill="#666" r="8"/><circle cx="-686.151" cy="-2864.755" r="8"/><circle cx="-686.151" cy="-2864.755" fill="#666" r="8"/><circle cx="-686.151" cy="-2864.755" r="8"/><path d="M-686.15-2856.755c-4.417 0-8-3.584-8-8s3.583-8 8-8 8 3.584 8 8-3.585 8-8 8zm0-.8a7.2 7.2 0 1 0-.002-14.402 7.2 7.2 0 0 0 .001 14.402zm-2.4-11.2c.88 0 1.6.72 1.6 1.6v4.8c0 .88-.72 1.6-1.6 1.6s-1.6-.72-1.6-1.6v-4.8c0-.88.72-1.6 1.6-1.6zm0 .8c-.44 0-.8.36-.8.8v4.8c0 .44.36.8.8.8s.8-.36.8-.8v-4.8c0-.44-.36-.8-.8-.8zm4.8-.8c.88 0 1.6.72 1.6 1.6v4.8c0 .88-.72 1.6-1.6 1.6s-1.6-.72-1.6-1.6v-4.8c0-.88.72-1.6 1.6-1.6zm0 .8c-.44 0-.8.36-.8.8v4.8c0 .44.36.8.8.8s.8-.36.8-.8v-4.8c0-.44-.36-.8-.8-.8z" fill="#c0e0ff"/></g></svg>