<?xml version="1.0" encoding="UTF-8" standalone="no"?>
<!DOCTYPE svg PUBLIC "-//W3C//DTD SVG 1.1//EN" "http://www.w3.org/Graphics/SVG/1.1/DTD/svg11.dtd">
<svg xmlns="http://www.w3.org/2000/svg" xmlns:dc="http://purl.org/dc/elements/1.1/" version="1.1" xmlns:xl="http://www.w3.org/1999/xlink" viewBox="-696.562 -2878.317 24.75 24.75" width="24.75" height="24.75">
  <defs/>
  <g id="SOURCES" stroke-dasharray="none" stroke-opacity="1" stroke="none" fill="none" fill-opacity="1">
    <title>SOURCES</title>
    <g id="SOURCES_Dark">
      <title>Dark</title>
      <g id="Graphic_12469">
        <path d="M -676.33584 -2867.6173 L -683.8967 -2873.842 C -684.05685 -2873.9755 -684.297 -2873.9755 -684.466 -2873.842 L -692.0269 -2867.6173 C -692.2137 -2867.4572 -692.2404 -2867.1815 -692.0892 -2866.9948 C -691.9291 -2866.808 -691.6533 -2866.7814 -691.4665 -2866.9325 L -691.3064 -2867.066 L -691.3064 -2860.1653 C -691.3064 -2858.938 -690.31015 -2857.942 -689.0826 -2857.942 L -686.4141 -2857.942 C -686.165 -2857.942 -685.9693 -2858.1378 -685.9693 -2858.3867 L -685.9693 -2863.7223 C -685.9693 -2863.9713 -685.7736 -2864.167 -685.52455 -2864.167 L -682.856 -2864.167 C -682.6069 -2864.167 -682.41124 -2863.9713 -682.41124 -2863.7223 L -682.41124 -2858.3867 C -682.41124 -2858.1378 -682.21555 -2857.942 -681.9665 -2857.942 L -679.2979 -2857.942 C -678.0704 -2857.942 -677.07414 -2858.938 -677.07414 -2860.1653 L -677.07414 -2867.066 L -676.914 -2866.9325 C -676.7272 -2866.7725 -676.4426 -2866.799 -676.2914 -2866.9948 C -676.13125 -2867.1815 -676.1579 -2867.466 -676.3536 -2867.6173 Z" fill="#656666"/>
      </g>
      <g id="Group_12467">
        <title>home</title>
        <g id="Graphic_12468">
          <path d="M -677.076 -2867.061 L -677.076 -2860.164 C -677.076 -2858.9375 -678.0717 -2857.942 -679.2985 -2857.942 L -681.9656 -2857.942 C -682.2145 -2857.942 -682.4101 -2858.1376 -682.4101 -2858.3865 L -682.4101 -2863.719 C -682.4101 -2863.968 -682.6057 -2864.1635 -682.8546 -2864.1635 L -685.5217 -2864.1635 C -685.7706 -2864.1635 -685.9662 -2863.968 -685.9662 -2863.719 L -685.9662 -2858.3865 C -685.9662 -2858.1376 -686.1618 -2857.942 -686.4107 -2857.942 L -689.0778 -2857.942 C -690.3046 -2857.942 -691.3003 -2858.9375 -691.3003 -2860.164 L -691.3003 -2867.061 L -691.4604 -2866.9275 C -691.64706 -2866.7676 -691.93154 -2866.7942 -692.0827 -2866.9897 C -692.2427 -2867.1764 -692.216 -2867.4608 -692.02044 -2867.612 L -684.47265 -2873.842 C -684.3126 -2873.9754 -684.0726 -2873.9754 -683.9037 -2873.842 L -676.347 -2867.6208 C -676.1603 -2867.4608 -676.1336 -2867.1853 -676.28475 -2866.9986 C -676.4448 -2866.812 -676.7204 -2866.7853 -676.9071 -2866.9364 L -677.0671 -2867.0697 Z M -677.9561 -2867.7896 L -684.18816 -2872.9178 L -690.4202 -2867.7896 C -690.4202 -2867.7896 -690.4202 -2867.7452 -690.4202 -2867.7185 L -690.4202 -2860.164 C -690.4202 -2859.4264 -689.8246 -2858.831 -689.0867 -2858.831 L -686.8641 -2858.831 L -686.8641 -2863.719 C -686.8641 -2864.4568 -686.2685 -2865.0522 -685.5306 -2865.0522 L -682.8635 -2865.0522 C -682.1256 -2865.0522 -681.53 -2864.4568 -681.53 -2863.719 L -681.53 -2858.831 L -679.3074 -2858.831 C -678.5695 -2858.831 -677.9739 -2859.4264 -677.9739 -2860.164 L -677.9739 -2867.7185 C -677.9739 -2867.7185 -677.9739 -2867.772 -677.9739 -2867.7896 Z" fill="#8fed61"/>
        </g>
      </g>
      <g id="Graphic_12472"/>
    </g>
  </g>
</svg>
