<svg height="24.75" viewBox="-621.246 -2877.081 24.75 24.75" width="24.75" xmlns="http://www.w3.org/2000/svg"><g fill="none"><circle cx="-608.871" cy="-2864.706" fill="#666" r="8"/><circle cx="-608.871" cy="-2864.706" r="8"/><circle cx="-608.871" cy="-2864.706" fill="#898889" r="8"/><circle cx="-608.871" cy="-2864.706" r="8"/><path d="M-615.108-2869.765a8.009 8.009 0 1 1 6.229 13.045c-4.423 0-7.733-3.302-7.991-7.52a.441.441 0 0 1 .418-.471c.25-.018.454.169.472.418.231 3.746 3.336 6.682 7.11 6.682s7.118-3.185 7.118-7.118-3.195-7.119-7.128-7.119a7.121 7.121 0 0 0-5.56 2.67h2.446c.25 0 .445.196.445.445s-.196.445-.445.445h-3.56a.44.44 0 0 1-.444-.445v-3.56c0-.249.196-.444.445-.444s.445.195.445.445z" fill="#c0e0ff"/></g></svg>