<svg height="24.75" viewBox="-621.246 -2877.081 24.75 24.75" width="24.75" xmlns="http://www.w3.org/2000/svg"><g fill="none"><circle cx="-608.871" cy="-2864.706" fill="#666" r="8"/><circle cx="-608.871" cy="-2864.706" r="8"/><circle cx="-608.871" cy="-2864.706" fill="#898889" r="8"/><circle cx="-608.871" cy="-2864.706" r="8"/><path d="m-615.10825-2869.7654c1.50375-1.8508 3.7728-2.972 6.22865-2.972 4.4224 0 8.0083 3.586 8.0083 8.0084 0 4.4223-3.5859 8.0082-8.0083 8.0082-4.4223 0-7.7324-3.3012-7.9905-7.5189-.0178-.2491.1691-.4538.41824-.4716.24916-.0177.4538.1691.4716.4183.23136 3.746 3.33676 6.6824 7.10956 6.6824s7.1185-3.1854 7.1185-7.1184-3.1944-7.1186-7.1274-7.1186c-2.1978 0-4.2266 1.0056-5.5613 2.6696h2.447c.24914 0 .4449.1956.4449.4448s-.19576.4449-.4449.4449h-3.55925c-.24915 0-.44491-.1957-.44491-.4449v-3.5593c0-.2491.19576-.4449.44491-.4449s.4449.1958.4449.4449z" fill="#c0e0ff"/></g></svg>