<svg height="24.75" viewBox="-662.358 -2876.228 24.75 24.75" width="24.75" xmlns="http://www.w3.org/2000/svg"><g fill="none"><circle cx="-649.983" cy="-2863.853" fill="#666" r="8"/><circle cx="-649.983" cy="-2863.853" r="8"/><circle cx="-649.983" cy="-2863.853" fill="#666" r="8"/><circle cx="-649.983" cy="-2863.853" r="8"/><path d="m-649.98276-2864.394 2.01906-2.0192c.1524-.1524.38856-.1524.54094 0 .15236.1524.15236.3886 0 .541l-2.01904 2.019 2.01904 2.0192c.15236.1523.15236.3884 0 .5408-.15238.1524-.38854.1524-.54094 0l-2.01906-2.019-2.01904 2.019c-.1524.1524-.3886.1524-.54096 0-.15238-.1524-.15238-.3885 0-.5408l2.01906-2.0192-2.01906-2.019c-.15238-.1524-.15238-.3886 0-.541.15236-.1524.38856-.1524.54096 0zm0 8.5408c-4.41904 0-8-3.5808-8-8 0-4.419 3.58096-8 8-8 4.41906 0 8 3.581 8 8 0 4.4192-3.58094 8-8 8zm0-.7618c4 0 7.23806-3.2382 7.23806-7.2382s-3.23806-7.2381-7.23806-7.2381-7.23809 3.2381-7.23809 7.2381 3.23809 7.2382 7.23809 7.2382z" fill="#fc6d7d"/></g></svg>