<svg height="24.75" viewBox="-696.562 -2878.317 24.75 24.75" width="24.75" xmlns="http://www.w3.org/2000/svg"><g fill="none"><path d="M-676.336-2867.617l-7.56-6.225a.455.455 0 0 0-.57 0l-7.56 6.225a.448.448 0 0 0-.063.622c.16.187.436.214.623.062l.16-.133v6.9c0 1.228.996 2.224 2.223 2.224h2.669a.44.44 0 0 0 .445-.445v-5.335a.44.44 0 0 1 .444-.445h2.669a.44.44 0 0 1 .445.445v5.335a.44.44 0 0 0 .444.445h2.67a2.224 2.224 0 0 0 2.223-2.223v-6.901l.16.134c.187.16.471.133.623-.063a.432.432 0 0 0-.063-.622z" fill="#656666"/><path d="M-677.076-2867.061v6.897a2.223 2.223 0 0 1-2.223 2.222h-2.667a.44.44 0 0 1-.444-.445v-5.332a.44.44 0 0 0-.445-.445h-2.667a.44.44 0 0 0-.444.445v5.332a.44.44 0 0 1-.445.445h-2.667a2.223 2.223 0 0 1-2.222-2.222v-6.897l-.16.134a.432.432 0 0 1-.623-.063.432.432 0 0 1 .063-.622l7.547-6.23c.16-.133.4-.133.57 0l7.556 6.221c.187.16.213.436.062.622a.448.448 0 0 1-.622.063l-.16-.134zm-.88-.729l-6.232-5.128-6.232 5.128V-2860.164c0 .738.595 1.333 1.333 1.333h2.223v-4.888c0-.738.596-1.333 1.333-1.333h2.667c.738 0 1.334.595 1.334 1.333v4.888h2.223c.737 0 1.333-.595 1.333-1.333v-7.554-.072z" fill="#8fed61"/></g></svg>