<?xml version="1.0" encoding="UTF-8" standalone="no"?>
<!DOCTYPE svg PUBLIC "-//W3C//DTD SVG 1.1//EN" "http://www.w3.org/Graphics/SVG/1.1/DTD/svg11.dtd">
<svg xmlns="http://www.w3.org/2000/svg" xmlns:dc="http://purl.org/dc/elements/1.1/" version="1.1" xmlns:xl="http://www.w3.org/1999/xlink" viewBox="-621.24626 -2877.0813 24.75 24.75" width="24.75" height="24.75">
  <defs/>
  <g id="SOURCES" stroke-dasharray="none" stroke-opacity="1" stroke="none" fill="none" fill-opacity="1">
    <title>SOURCES</title>
    <g id="SOURCES_Dark">
      <title>Dark</title>
      <g id="Group_12488">
        <g id="Graphic_12491">
          <circle cx="-608.87126" cy="-2864.7063" r="8.00000702080164" fill="#666"/>
          <circle cx="-608.87126" cy="-2864.7063" r="8.00000702080164" stroke="black" stroke-linecap="round" stroke-linejoin="round" stroke-width="0"/>
        </g>
        <g id="Graphic_12490"/>
        <g id="Graphic_12489">
          <circle cx="-608.87126" cy="-2864.7063" r="8.00000702080164" fill="#898889"/>
          <circle cx="-608.87126" cy="-2864.7063" r="8.00000702080164" stroke="black" stroke-linecap="round" stroke-linejoin="round" stroke-width="0"/>
        </g>
      </g>
      <g id="Group_12486">
        <title>refresh-left</title>
        <g id="Graphic_12487">
          <path d="M -615.10825 -2869.7654 C -613.6045 -2871.6162 -611.33545 -2872.7374 -608.8796 -2872.7374 C -604.4572 -2872.7374 -600.8713 -2869.1514 -600.8713 -2864.729 C -600.8713 -2860.3067 -604.4572 -2856.7208 -608.8796 -2856.7208 C -613.3019 -2856.7208 -616.612 -2860.022 -616.8701 -2864.2397 C -616.8879 -2864.4888 -616.701 -2864.6935 -616.45186 -2864.7113 C -616.2027 -2864.729 -615.99806 -2864.5422 -615.98026 -2864.293 C -615.7489 -2860.547 -612.6435 -2857.6106 -608.8707 -2857.6106 C -605.0979 -2857.6106 -601.7522 -2860.796 -601.7522 -2864.729 C -601.7522 -2868.662 -604.9466 -2871.8476 -608.8796 -2871.8476 C -611.0774 -2871.8476 -613.1062 -2870.842 -614.4409 -2869.178 L -611.9939 -2869.178 C -611.74476 -2869.178 -611.549 -2868.9824 -611.549 -2868.7332 C -611.549 -2868.484 -611.74476 -2868.2883 -611.9939 -2868.2883 L -615.55315 -2868.2883 C -615.8023 -2868.2883 -615.99806 -2868.484 -615.99806 -2868.7332 L -615.99806 -2872.2925 C -615.99806 -2872.5416 -615.8023 -2872.7374 -615.55315 -2872.7374 C -615.304 -2872.7374 -615.10825 -2872.5416 -615.10825 -2872.2925 Z" fill="#c0e0ff"/>
        </g>
      </g>
    </g>
  </g>
</svg>
