<svg height="24.75" viewBox="-696.562 -2878.317 24.75 24.75" width="24.75" xmlns="http://www.w3.org/2000/svg"><g fill="none"><path d="m-676.33584-2867.6173-7.56086-6.2247c-.16015-.1335-.4003-.1335-.5693 0l-7.5609 6.2247c-.1868.1601-.2135.4358-.0623.6225.1601.1868.4359.2134.6227.0623l.1601-.1335v6.9007c0 1.2273.99625 2.2233 2.2238 2.2233h2.6685c.2491 0 .4448-.1958.4448-.4447v-5.3356c0-.249.1957-.4447.44475-.4447h2.66855c.2491 0 .44476.1957.44476.4447v5.3356c0 .2489.19569.4447.44474.4447h2.6686c1.2275 0 2.22376-.996 2.22376-2.2233v-6.9007l.16014.1335c.1868.16.4714.1335.6226-.0623.16015-.1867.1335-.4712-.0622-.6225z" fill="#656666"/><path d="m-677.076-2867.061v6.897c0 1.2265-.9957 2.222-2.2225 2.222h-2.6671c-.2489 0-.4445-.1956-.4445-.4445v-5.3325c0-.249-.1956-.4445-.4445-.4445h-2.6671c-.2489 0-.4445.1955-.4445.4445v5.3325c0 .2489-.1956.4445-.4445.4445h-2.6671c-1.2268 0-2.2225-.9955-2.2225-2.222v-6.897l-.1601.1335c-.18666.1599-.47114.1333-.6223-.0622-.16-.1867-.1333-.4711.06226-.6223l7.54779-6.23c.16005-.1334.40005-.1334.56895 0l7.5567 6.2212c.1867.16.2134.4355.06225.6222-.16005.1866-.43565.2133-.62235.0622l-.16-.1333zm-.8801-.7286-6.23206-5.1282-6.23204 5.1282v.0711 7.5545c0 .7376.5956 1.333 1.3335 1.333h2.2226v-4.888c0-.7378.5956-1.3332 1.3335-1.3332h2.6671c.7379 0 1.3335.5954 1.3335 1.3332v4.888h2.2226c.7379 0 1.3335-.5954 1.3335-1.333v-7.5545s0-.0535 0-.0711z" fill="#8fed61"/></g></svg>