<svg height="24.75" viewBox="-662.358 -2876.228 24.75 24.75" width="24.75" xmlns="http://www.w3.org/2000/svg"><g fill="none"><circle cx="-649.983" cy="-2863.853" fill="#666" r="8"/><circle cx="-649.983" cy="-2863.853" r="8"/><circle cx="-649.983" cy="-2863.853" fill="#666" r="8"/><circle cx="-649.983" cy="-2863.853" r="8"/><path d="M-649.983-2864.394l2.02-2.02a.377.377 0 0 1 .54 0 .377.377 0 0 1 0 .542l-2.019 2.019 2.02 2.019a.377.377 0 0 1 0 .54.377.377 0 0 1-.542 0l-2.019-2.018-2.019 2.019a.377.377 0 0 1-.54 0 .377.377 0 0 1 0-.541l2.018-2.02-2.019-2.018a.377.377 0 0 1 0-.541.377.377 0 0 1 .541 0zm0 8.54c-4.419 0-8-3.58-8-8a8 8 0 0 1 8-8c4.42 0 8 3.582 8 8 0 4.42-3.58 8-8 8zm0-.761c4 0 7.238-3.238 7.238-7.238s-3.238-7.238-7.238-7.238-7.238 3.238-7.238 7.238 3.238 7.238 7.238 7.238z" fill="#fc6d7d"/></g></svg>