<?xml version="1.0" encoding="UTF-8" standalone="no"?>
<!DOCTYPE svg PUBLIC "-//W3C//DTD SVG 1.1//EN" "http://www.w3.org/Graphics/SVG/1.1/DTD/svg11.dtd">
<svg xmlns:dc="http://purl.org/dc/elements/1.1/" version="1.1" xmlns="http://www.w3.org/2000/svg" xmlns:xl="http://www.w3.org/1999/xlink" viewBox="-662.35776 -2876.2282 24.75 24.75" width="24.75" height="24.75">
  <defs/>
  <g id="SOURCES" stroke="none" stroke-dasharray="none" fill-opacity="1" stroke-opacity="1" fill="none">
    <title>SOURCES</title>
    <g id="SOURCES_Dark">
      <title>Dark</title>
      <g id="Group_12455">
        <g id="Graphic_12458">
          <circle cx="-649.98276" cy="-2863.8532" r="8.00000702080164" fill="#666"/>
          <circle cx="-649.98276" cy="-2863.8532" r="8.00000702080164" stroke="black" stroke-linecap="round" stroke-linejoin="round" stroke-width="0"/>
        </g>
        <g id="Graphic_12457"/>
        <g id="Graphic_12456">
          <circle cx="-649.98276" cy="-2863.8532" r="8.00000702080164" fill="#666"/>
          <circle cx="-649.98276" cy="-2863.8532" r="8.00000702080164" stroke="black" stroke-linecap="round" stroke-linejoin="round" stroke-width="0"/>
        </g>
      </g>
      <g id="Group_12453">
        <title>close-circle</title>
        <g id="Graphic_12454">
          <path d="M -649.98276 -2864.394 L -647.9637 -2866.4132 C -647.8113 -2866.5656 -647.57514 -2866.5656 -647.42276 -2866.4132 C -647.2704 -2866.2608 -647.2704 -2866.0246 -647.42276 -2865.8722 L -649.4418 -2863.8532 L -647.42276 -2861.834 C -647.2704 -2861.6817 -647.2704 -2861.4456 -647.42276 -2861.2932 C -647.57514 -2861.1408 -647.8113 -2861.1408 -647.9637 -2861.2932 L -649.98276 -2863.3122 L -652.0018 -2861.2932 C -652.1542 -2861.1408 -652.3904 -2861.1408 -652.54276 -2861.2932 C -652.69514 -2861.4456 -652.69514 -2861.6817 -652.54276 -2861.834 L -650.5237 -2863.8532 L -652.54276 -2865.8722 C -652.69514 -2866.0246 -652.69514 -2866.2608 -652.54276 -2866.4132 C -652.3904 -2866.5656 -652.1542 -2866.5656 -652.0018 -2866.4132 L -649.98276 -2864.394 Z M -649.98276 -2855.8532 C -654.4018 -2855.8532 -657.98276 -2859.434 -657.98276 -2863.8532 C -657.98276 -2868.2722 -654.4018 -2871.8532 -649.98276 -2871.8532 C -645.5637 -2871.8532 -641.98276 -2868.2722 -641.98276 -2863.8532 C -641.98276 -2859.434 -645.5637 -2855.8532 -649.98276 -2855.8532 Z M -649.98276 -2856.615 C -645.98276 -2856.615 -642.7447 -2859.8532 -642.7447 -2863.8532 C -642.7447 -2867.8532 -645.98276 -2871.0913 -649.98276 -2871.0913 C -653.98276 -2871.0913 -657.22085 -2867.8532 -657.22085 -2863.8532 C -657.22085 -2859.8532 -653.98276 -2856.615 -649.98276 -2856.615 Z" fill="#fc6d7d"/>
        </g>
      </g>
    </g>
  </g>
</svg>
