<svg xmlns="http://www.w3.org/2000/svg" viewBox="-924.67 -3654.814 25 25"><g fill="none"><path d="M-920.33-3654.314h16.32a3.84 3.84 0 0 1 3.84 3.84v16.32a3.84 3.84 0 0 1-3.84 3.84h-16.32a3.84 3.84 0 0 1-3.84-3.84v-16.32a3.84 3.84 0 0 1 3.84-3.84z" fill="#fff"/><path d="M-920.33-3654.314h16.32a3.84 3.84 0 0 1 3.84 3.84v16.32a3.84 3.84 0 0 1-3.84 3.84h-16.32a3.84 3.84 0 0 1-3.84-3.84v-16.32a3.84 3.84 0 0 1 3.84-3.84z" stroke="#000" stroke-linecap="round" stroke-linejoin="round" stroke-width=".25"/><path d="M-906.837-3649.425c0-.49.4-.89.889-.89h.889c.488 0 .889.4.889.89v.889c0 .488-.4.888-.89.888v10.667c.49 0 .89.4.89.889v.889c0 .489-.4.889-.89.889h-.888a.891.891 0 0 1-.89-.889h-10.666c0 .489-.4.889-.889.889h-.889a.891.891 0 0 1-.888-.889v-.889c0-.489.4-.889.888-.889v-10.667a.892.892 0 0 1-.888-.889v-.888c0-.49.4-.89.888-.89h.89c.488 0 .888.4.888.89zm0 .889h-10.667c0 .488-.4.888-.889.888v10.667c.49 0 .89.4.89.889h10.666c0-.489.4-.889.889-.889v-10.667a.892.892 0 0 1-.89-.889zm-7.111 2.666v3.111a.44.44 0 0 1-.445.445.44.44 0 0 1-.444-.445v-3.111h-1.333a.44.44 0 0 1-.445-.444.44.44 0 0 1 .445-.445h3.555a.44.44 0 0 1 .445.445.44.44 0 0 1-.445.444zm-5.334-3.555v.889h.89v-.89zm13.334 0v.889h.889v-.89zm0 13.333v.889h.889v-.889zm-13.334 0v.889h.89v-.889zm8.445-9.778a.44.44 0 0 1-.445-.444.44.44 0 0 1 .445-.445h2.667a.44.44 0 0 1 .444.445.44.44 0 0 1-.444.444zm0 2.667a.44.44 0 0 1-.445-.445.44.44 0 0 1 .445-.444h2.667a.44.44 0 0 1 .444.444.44.44 0 0 1-.444.445zm-5.333 2.666a.44.44 0 0 1-.445-.444.44.44 0 0 1 .445-.444h8a.44.44 0 0 1 .444.444.44.44 0 0 1-.444.445zm0 2.667a.44.44 0 0 1-.445-.444.44.44 0 0 1 .445-.445h8a.44.44 0 0 1 .444.445.44.44 0 0 1-.444.444z" fill="#5c76a1"/></g></svg>