<svg height="25" viewBox="-924.67 -3654.814 25 25" width="25" xmlns="http://www.w3.org/2000/svg"><g fill="none"><path d="m-920.3305-3654.3143h16.32c2.1208 0 3.84 1.7193 3.84 3.84v16.32c0 2.1208-1.7192 3.84-3.84 3.84h-16.32c-2.1208 0-3.84-1.7192-3.84-3.84v-16.32c0-2.1207 1.7192-3.84 3.84-3.84z" fill="#fff"/><path d="m-920.3305-3654.3143h16.32c2.1208 0 3.84 1.7193 3.84 3.84v16.32c0 2.1208-1.7192 3.84-3.84 3.84h-16.32c-2.1208 0-3.84-1.7192-3.84-3.84v-16.32c0-2.1207 1.7192-3.84 3.84-3.84z" stroke="#000" stroke-linecap="round" stroke-linejoin="round" stroke-width=".25"/><path d="m-906.8372-3649.4254c0-.4889.4-.8889.8889-.8889h.8889c.4889 0 .8889.4.8889.8889v.8889c0 .4889-.4.8889-.8889.8889v10.6666c.4889 0 .8889.4.8889.889v.889c0 .4887-.4.8887-.8889.8887h-.8889c-.4889 0-.8889-.4-.8889-.8887h-10.6666c0 .4887-.4.8887-.8889.8887h-.8889c-.4889 0-.8889-.4-.8889-.8887v-.889c0-.489.4-.889.8889-.889v-10.6666c-.4889 0-.8889-.4-.8889-.8889v-.8889c0-.4889.4-.8889.8889-.8889h.8889c.4889 0 .8889.4.8889.8889zm0 .8889h-10.6666c0 .4889-.4.8889-.8889.8889v10.6666c.4889 0 .8889.4.8889.889h10.6666c0-.489.4-.889.8889-.889v-10.6666c-.4889 0-.8889-.4-.8889-.8889zm-7.1111 2.6665v3.1113c0 .2487-.1955.4444-.4444.4444s-.4445-.1957-.4445-.4444v-3.1113h-1.3333c-.2489 0-.4444-.1954-.4444-.4443 0-.2487.1955-.4444.4444-.4444h3.5556c.2489 0 .4444.1957.4444.4444 0 .2489-.1955.4443-.4444.4443zm-5.3333-3.5554v.8889h.8889v-.8889zm13.3333 0v.8889h.8889v-.8889zm0 13.3334v.889h.8889v-.889zm-13.3333 0v.889h.8889v-.889zm8.4444-9.778c-.2488 0-.4444-.1954-.4444-.4443 0-.2487.1956-.4444.4444-.4444h2.6667c.2489 0 .4445.1957.4445.4444 0 .2489-.1956.4443-.4445.4443zm0 2.667c-.2488 0-.4444-.1957-.4444-.4446s.1956-.4444.4444-.4444h2.6667c.2489 0 .4445.1955.4445.4444s-.1956.4446-.4445.4446zm-5.3333 2.6665c-.2489 0-.4444-.1955-.4444-.4445s.1955-.4444.4444-.4444h8c.2489 0 .4445.1954.4445.4444s-.1956.4445-.4445.4445zm0 2.6665c-.2489 0-.4444-.1954-.4444-.4443 0-.2487.1955-.4444.4444-.4444h8c.2489 0 .4445.1957.4445.4444 0 .2489-.1956.4443-.4445.4443z" fill="#5c76a1"/></g></svg>