<?xml version="1.0" encoding="UTF-8" standalone="no"?>
<!DOCTYPE svg PUBLIC "-//W3C//DTD SVG 1.1//EN" "http://www.w3.org/Graphics/SVG/1.1/DTD/svg11.dtd">
<svg version="1.1" xmlns="http://www.w3.org/2000/svg" xmlns:xl="http://www.w3.org/1999/xlink" xmlns:dc="http://purl.org/dc/elements/1.1/" viewBox="-960.5 -3654.8143 25 25" width="25" height="25">
  <defs/>
  <g id="SOURCES" stroke-dasharray="none" fill="none" stroke="none" fill-opacity="1" stroke-opacity="1">
    <title>SOURCES</title>
    <g id="SOURCES_Calque_2">
      <title>Calque 2</title>
      <g id="Group_9234">
        <g id="Graphic_9233">
          <path d="M -956.16 -3654.3143 L -939.84 -3654.3143 C -937.7192 -3654.3143 -936 -3652.595 -936 -3650.4743 L -936 -3634.1543 C -936 -3632.0335 -937.7192 -3630.3143 -939.84 -3630.3143 L -956.16 -3630.3143 C -958.2808 -3630.3143 -960 -3632.0335 -960 -3634.1543 L -960 -3650.4743 C -960 -3652.595 -958.2808 -3654.3143 -956.16 -3654.3143 Z" fill="white"/>
          <path d="M -956.16 -3654.3143 L -939.84 -3654.3143 C -937.7192 -3654.3143 -936 -3652.595 -936 -3650.4743 L -936 -3634.1543 C -936 -3632.0335 -937.7192 -3630.3143 -939.84 -3630.3143 L -956.16 -3630.3143 C -958.2808 -3630.3143 -960 -3632.0335 -960 -3634.1543 L -960 -3650.4743 C -960 -3652.595 -958.2808 -3654.3143 -956.16 -3654.3143 Z" stroke="black" stroke-linecap="round" stroke-linejoin="round" stroke-width=".25"/>
        </g>
        <g id="Group_9231">
          <title>info-circle</title>
          <g id="Graphic_9232">
            <path d="M -947.2 -3639.1143 L -946 -3639.1143 C -945.776 -3639.1143 -945.6 -3638.9383 -945.6 -3638.7143 C -945.6 -3638.4903 -945.776 -3638.3143 -946 -3638.3143 L -949.2 -3638.3143 C -949.424 -3638.3143 -949.6 -3638.4903 -949.6 -3638.7143 C -949.6 -3638.9383 -949.424 -3639.1143 -949.2 -3639.1143 L -948 -3639.1143 L -948 -3643.1143 L -949.2 -3643.1143 C -949.424 -3643.1143 -949.6 -3643.2903 -949.6 -3643.5143 C -949.6 -3643.7383 -949.424 -3643.9143 -949.2 -3643.9143 L -947.6 -3643.9143 C -947.376 -3643.9143 -947.2 -3643.7383 -947.2 -3643.5143 Z M -948 -3634.3143 C -952.416 -3634.3143 -956 -3637.8983 -956 -3642.3143 C -956 -3646.7303 -952.416 -3650.3143 -948 -3650.3143 C -943.584 -3650.3143 -940 -3646.7303 -940 -3642.3143 C -940 -3637.8983 -943.584 -3634.3143 -948 -3634.3143 Z M -948 -3635.1143 C -944.024 -3635.1143 -940.8 -3638.3383 -940.8 -3642.3143 C -940.8 -3646.2903 -944.024 -3649.5143 -948 -3649.5143 C -951.976 -3649.5143 -955.2 -3646.2903 -955.2 -3642.3143 C -955.2 -3638.3383 -951.976 -3635.1143 -948 -3635.1143 Z M -948.4 -3646.3143 L -947.6 -3646.3143 C -947.376 -3646.3143 -947.2 -3646.1383 -947.2 -3645.9143 L -947.2 -3645.1143 C -947.2 -3644.8903 -947.376 -3644.7143 -947.6 -3644.7143 L -948.4 -3644.7143 C -948.624 -3644.7143 -948.8 -3644.8903 -948.8 -3645.1143 L -948.8 -3645.9143 C -948.8 -3646.1383 -948.624 -3646.3143 -948.4 -3646.3143 Z" fill="#66727e"/>
          </g>
        </g>
      </g>
    </g>
  </g>
</svg>
