<svg height="25" viewBox="-40.591 -3782.28 25 25" width="25" xmlns="http://www.w3.org/2000/svg"><g fill="none"><path d="m-36.25072-3781.7803h16.32c2.120773 0 3.84 1.7193 3.84 3.84v16.32c0 2.1208-1.719227 3.84-3.84 3.84h-16.32c-2.120773 0-3.84-1.7192-3.84-3.84v-16.32c0-2.1207 1.719227-3.84 3.84-3.84z" fill="#fff"/><path d="m-36.25072-3781.7803h16.32c2.120773 0 3.84 1.7193 3.84 3.84v16.32c0 2.1208-1.719227 3.84-3.84 3.84h-16.32c-2.120773 0-3.84-1.7192-3.84-3.84v-16.32c0-2.1207 1.719227-3.84 3.84-3.84z" stroke="#000" stroke-linecap="round" stroke-linejoin="round" stroke-width=".25"/><path d="m-21.868497-3775.1136v11.1111c0 1.2275-.994923 2.2222-2.222223 2.2222h-8c-1.2273 0-2.22222-.9947-2.22222-2.2222v-11.1111h-.444446c-.24546 0-.444444-.199-.444444-.4444 0-.2455.198984-.4445.444444-.4445h4v-.4445c0-.7363.596953-1.3333 1.333333-1.3333h2.666667c.736379 0 1.333333.597 1.333333 1.3333v.4445h4c.24546 0 .444444.199.444444.4445 0 .2454-.198984.4444-.444444.4444zm-11.555556 0v11.1111c0 .7365.596953 1.3335 1.333333 1.3335h8c.73638 0 1.333334-.597 1.333334-1.3335v-11.1111zm7.111111-.8889v-.4445c0-.2454-.198984-.4444-.444444-.4444h-2.666667c-.24546 0-.444444.199-.444444.4444v.4445zm0 4c0-.2455.198985-.4445.444445-.4445.245459 0 .444444.199.444444.4445v6.2222c0 .2453-.198985.4443-.444444.4443-.24546 0-.444445-.199-.444445-.4443zm-4.444444 0c0-.2455.198986-.4445.444444-.4445.24546 0 .444445.199.444445.4445v6.2222c0 .2453-.198985.4443-.444445.4443-.245458 0-.444444-.199-.444444-.4443z" fill="#5c75a0"/></g></svg>