<svg xmlns="http://www.w3.org/2000/svg" viewBox="-40.591 -3782.28 25 25"><g fill="none"><path d="M-36.25-3781.78h16.32a3.84 3.84 0 0 1 3.84 3.84v16.32a3.84 3.84 0 0 1-3.84 3.84h-16.32a3.84 3.84 0 0 1-3.84-3.84v-16.32a3.84 3.84 0 0 1 3.84-3.84z" fill="#fff"/><path d="M-36.25-3781.78h16.32a3.84 3.84 0 0 1 3.84 3.84v16.32a3.84 3.84 0 0 1-3.84 3.84h-16.32a3.84 3.84 0 0 1-3.84-3.84v-16.32a3.84 3.84 0 0 1 3.84-3.84z" stroke="#000" stroke-linecap="round" stroke-linejoin="round" stroke-width=".25"/><path d="M-21.868-3775.114v11.111a2.222 2.222 0 0 1-2.223 2.223h-8a2.222 2.222 0 0 1-2.222-2.222v-11.112h-.444a.444.444 0 0 1 0-.889h4v-.444c0-.736.597-1.333 1.333-1.333h2.667c.736 0 1.333.597 1.333 1.333v.445h4a.444.444 0 0 1 0 .888zm-11.556 0v11.111c0 .737.597 1.334 1.333 1.334h8c.737 0 1.334-.597 1.334-1.334v-11.11zm7.111-.889v-.444a.444.444 0 0 0-.444-.444h-2.667a.444.444 0 0 0-.444.444v.445zm0 4a.444.444 0 1 1 .889 0v6.223a.444.444 0 0 1-.889 0zm-4.444 0a.444.444 0 1 1 .889 0v6.223a.444.444 0 0 1-.89 0z" fill="#5c75a0"/></g></svg>