<?xml version="1.0" encoding="UTF-8" standalone="no"?>
<!DOCTYPE svg PUBLIC "-//W3C//DTD SVG 1.1//EN" "http://www.w3.org/Graphics/SVG/1.1/DTD/svg11.dtd">
<svg version="1.1" xmlns="http://www.w3.org/2000/svg" xmlns:xl="http://www.w3.org/1999/xlink" xmlns:dc="http://purl.org/dc/elements/1.1/" viewBox="-40.59072 -3782.2803 25 25" width="25" height="25">
  <defs/>
  <g id="SOURCES" stroke-dasharray="none" fill="none" stroke="none" fill-opacity="1" stroke-opacity="1">
    <title>SOURCES</title>
    <g id="SOURCES_Calque_1">
      <title>Calque 1</title>
      <g id="Graphic_6421">
        <path d="M -36.25072 -3781.7803 L -19.93072 -3781.7803 C -17.809947 -3781.7803 -16.09072 -3780.061 -16.09072 -3777.9403 L -16.09072 -3761.6203 C -16.09072 -3759.4995 -17.809947 -3757.7803 -19.93072 -3757.7803 L -36.25072 -3757.7803 C -38.371493 -3757.7803 -40.09072 -3759.4995 -40.09072 -3761.6203 L -40.09072 -3777.9403 C -40.09072 -3780.061 -38.371493 -3781.7803 -36.25072 -3781.7803 Z" fill="white"/>
        <path d="M -36.25072 -3781.7803 L -19.93072 -3781.7803 C -17.809947 -3781.7803 -16.09072 -3780.061 -16.09072 -3777.9403 L -16.09072 -3761.6203 C -16.09072 -3759.4995 -17.809947 -3757.7803 -19.93072 -3757.7803 L -36.25072 -3757.7803 C -38.371493 -3757.7803 -40.09072 -3759.4995 -40.09072 -3761.6203 L -40.09072 -3777.9403 C -40.09072 -3780.061 -38.371493 -3781.7803 -36.25072 -3781.7803 Z" stroke="black" stroke-linecap="round" stroke-linejoin="round" stroke-width=".25"/>
      </g>
      <g id="Graphic_6418">
        <path d="M -21.868497 -3775.1136 L -21.868497 -3764.0025 C -21.868497 -3762.775 -22.86342 -3761.7803 -24.09072 -3761.7803 L -32.09072 -3761.7803 C -33.31802 -3761.7803 -34.31294 -3762.775 -34.31294 -3764.0025 L -34.31294 -3775.1136 L -34.757386 -3775.1136 C -35.002846 -3775.1136 -35.20183 -3775.3126 -35.20183 -3775.558 C -35.20183 -3775.8035 -35.002846 -3776.0025 -34.757386 -3776.0025 L -30.757386 -3776.0025 L -30.757386 -3776.447 C -30.757386 -3777.1833 -30.160433 -3777.7803 -29.424053 -3777.7803 L -26.757386 -3777.7803 C -26.021007 -3777.7803 -25.424053 -3777.1833 -25.424053 -3776.447 L -25.424053 -3776.0025 L -21.424053 -3776.0025 C -21.178593 -3776.0025 -20.979609 -3775.8035 -20.979609 -3775.558 C -20.979609 -3775.3126 -21.178593 -3775.1136 -21.424053 -3775.1136 Z M -33.424053 -3775.1136 L -33.424053 -3764.0025 C -33.424053 -3763.266 -32.8271 -3762.669 -32.09072 -3762.669 L -24.09072 -3762.669 C -23.35434 -3762.669 -22.757386 -3763.266 -22.757386 -3764.0025 L -22.757386 -3775.1136 Z M -26.312942 -3776.0025 L -26.312942 -3776.447 C -26.312942 -3776.6924 -26.511926 -3776.8914 -26.757386 -3776.8914 L -29.424053 -3776.8914 C -29.669513 -3776.8914 -29.868497 -3776.6924 -29.868497 -3776.447 L -29.868497 -3776.0025 Z M -26.312942 -3772.0025 C -26.312942 -3772.248 -26.113957 -3772.447 -25.868497 -3772.447 C -25.623038 -3772.447 -25.424053 -3772.248 -25.424053 -3772.0025 L -25.424053 -3765.7803 C -25.424053 -3765.535 -25.623038 -3765.336 -25.868497 -3765.336 C -26.113957 -3765.336 -26.312942 -3765.535 -26.312942 -3765.7803 Z M -30.757386 -3772.0025 C -30.757386 -3772.248 -30.5584 -3772.447 -30.312942 -3772.447 C -30.067482 -3772.447 -29.868497 -3772.248 -29.868497 -3772.0025 L -29.868497 -3765.7803 C -29.868497 -3765.535 -30.067482 -3765.336 -30.312942 -3765.336 C -30.5584 -3765.336 -30.757386 -3765.535 -30.757386 -3765.7803 Z" fill="#5c75a0"/>
      </g>
    </g>
  </g>
</svg>
