<svg height="25" viewBox="-311.935 -3778.582 25 25" width="25" xmlns="http://www.w3.org/2000/svg"><g fill="none"><path d="M-307.595-3778.082h16.32a3.84 3.84 0 0 1 3.84 3.84v16.32a3.84 3.84 0 0 1-3.84 3.84h-16.32a3.84 3.84 0 0 1-3.84-3.84v-16.32a3.84 3.84 0 0 1 3.84-3.84z" fill="#fff"/><path d="M-307.595-3778.082h16.32a3.84 3.84 0 0 1 3.84 3.84v16.32a3.84 3.84 0 0 1-3.84 3.84h-16.32a3.84 3.84 0 0 1-3.84-3.84v-16.32a3.84 3.84 0 0 1 3.84-3.84z" stroke="#000" stroke-linecap="round" stroke-linejoin="round" stroke-width=".25"/><g fill="#538737"><path d="M-306.42-3763.918a.4.4 0 0 1 .4.4v2.4a1.2 1.2 0 0 0 1.2 1.2h8.8a1.2 1.2 0 0 0 1.2-1.2v-9.999h-2.8a.4.4 0 0 1-.4-.4v-2.8h-6.8a1.2 1.2 0 0 0-1.2 1.2v1.6a.4.4 0 0 1-.8 0v-1.6a2 2 0 0 1 2-2h7.178a.391.391 0 0 1 .305.118l3.2 3.2a.392.392 0 0 1 .117.304v10.378a2 2 0 0 1-2 2h-8.8a2 2 0 0 1-2-2v-2.401a.4.4 0 0 1 .4-.4zm9.2-9.833v1.834h1.835zm-2.965 5.833l-1.717-1.717a.4.4 0 1 1 .565-.566l2.4 2.4a.4.4 0 0 1 0 .566l-2.4 2.4a.4.4 0 0 1-.565-.566l1.717-1.717h-6.234a.4.4 0 1 1 0-.8z"/><path d="M-304.85-3759.025a2 2 0 0 0 1.999 1.978h8.8a2 2 0 0 0 2-2v-10.377a.392.392 0 0 0-.118-.306l-1.734-1.733v1.13l.486.486h-.486v.8h1.051v10a1.2 1.2 0 0 1-1.2 1.2h-8.8a1.2 1.2 0 0 1-1.199-1.178z"/></g></g></svg>