<svg height="25" viewBox="-674.719 -3655.669 25 25" width="25" xmlns="http://www.w3.org/2000/svg"><g fill="none"><path d="m-670.37866-3655.169h16.32c2.12076 0 3.84 1.7193 3.84 3.84v16.32c0 2.121-1.71924 3.84-3.84 3.84h-16.32c-2.12074 0-3.84-1.719-3.84-3.84v-16.32c0-2.1207 1.71926-3.84 3.84-3.84z" fill="#fff"/><path d="m-670.37866-3655.169h16.32c2.12076 0 3.84 1.7193 3.84 3.84v16.32c0 2.121-1.71924 3.84-3.84 3.84h-16.32c-2.12074 0-3.84-1.719-3.84-3.84v-16.32c0-2.1207 1.71926-3.84 3.84-3.84z" stroke="#000" stroke-linecap="round" stroke-linejoin="round" stroke-width=".25"/><path d="m-656.8853-3648.5023h2.2222c.2489 0 .44444.1956.44444.4443 0 .249-.19554.4446-.44444.4446h-2.2222v2.2224c0 .2487-.1956.4443-.4445.4443-.24886 0-.4444-.1956-.4444-.4443v-2.2224h-2.2222c-.2489 0-.4445-.1956-.4445-.4446 0-.2487.1956-.4443.4445-.4443h2.2222v-2.2222c0-.2489.19554-.4445.4444-.4445.2489 0 .4445.1956.4445.4445zm1.77775 4.8889c0-.2489.19555-.4446.44445-.4446s.44444.1957.44444.4446v6.2224c0 1.2265-.99554 2.222-2.22224 2.222h-11.5555c-1.2267 0-2.22226-.9955-2.22226-2.222v-11.5557c0-1.2267.99556-2.2223 2.22226-2.2223h6.2222c.2489 0 .4444.1956.4444.4445s-.1955.4445-.4444.4445h-6.2222c-.7378 0-1.3334.5955-1.3334 1.3333v11.5557c0 .7376.5956 1.333 1.3334 1.333h11.5555c.7378 0 1.33335-.5954 1.33335-1.333z" fill="#518737"/></g></svg>