<?xml version="1.0" encoding="UTF-8" standalone="no"?>
<!DOCTYPE svg PUBLIC "-//W3C//DTD SVG 1.1//EN" "http://www.w3.org/Graphics/SVG/1.1/DTD/svg11.dtd">
<svg version="1.1" xmlns="http://www.w3.org/2000/svg" xmlns:xl="http://www.w3.org/1999/xlink" xmlns:dc="http://purl.org/dc/elements/1.1/" viewBox="-781.69435 -3655.156 25 25" width="25" height="25">
  <defs/>
  <g id="SOURCES" stroke-dasharray="none" fill="none" stroke="none" fill-opacity="1" stroke-opacity="1">
    <title>SOURCES</title>
    <g id="SOURCES_Calque_2">
      <title>Calque 2</title>
      <g id="Graphic_9242">
        <path d="M -777.35435 -3654.656 L -761.03435 -3654.656 C -758.9136 -3654.656 -757.19435 -3652.937 -757.19435 -3650.816 L -757.19435 -3634.496 C -757.19435 -3632.3754 -758.9136 -3630.656 -761.03435 -3630.656 L -777.35435 -3630.656 C -779.4751 -3630.656 -781.19435 -3632.3754 -781.19435 -3634.496 L -781.19435 -3650.816 C -781.19435 -3652.937 -779.4751 -3654.656 -777.35435 -3654.656 Z" fill="white"/>
        <path d="M -777.35435 -3654.656 L -761.03435 -3654.656 C -758.9136 -3654.656 -757.19435 -3652.937 -757.19435 -3650.816 L -757.19435 -3634.496 C -757.19435 -3632.3754 -758.9136 -3630.656 -761.03435 -3630.656 L -777.35435 -3630.656 C -779.4751 -3630.656 -781.19435 -3632.3754 -781.19435 -3634.496 L -781.19435 -3650.816 C -781.19435 -3652.937 -779.4751 -3654.656 -777.35435 -3654.656 Z" stroke="black" stroke-linecap="round" stroke-linejoin="round" stroke-width=".25"/>
      </g>
      <g id="Group_9282">
        <title>delete</title>
        <g id="Graphic_9283">
          <path d="M -767.9969 -3643.2244 L -765.8761 -3645.345 C -765.71605 -3645.505 -765.468 -3645.505 -765.3079 -3645.345 C -765.1478 -3645.185 -765.1478 -3644.937 -765.3079 -3644.777 L -767.4287 -3642.656 L -765.3079 -3640.5353 C -765.1478 -3640.3753 -765.1478 -3640.127 -765.3079 -3639.967 C -765.468 -3639.807 -765.71605 -3639.807 -765.8761 -3639.967 L -767.9969 -3642.088 L -770.1177 -3639.967 C -770.2778 -3639.807 -770.52585 -3639.807 -770.6859 -3639.967 C -770.846 -3640.127 -770.846 -3640.3753 -770.6859 -3640.5353 L -768.5651 -3642.656 L -770.6859 -3644.777 C -770.846 -3644.937 -770.846 -3645.185 -770.6859 -3645.345 C -770.52585 -3645.505 -770.2778 -3645.505 -770.1177 -3645.345 L -767.9969 -3643.2244 Z M -772.9748 -3638.6867 C -772.7507 -3638.4146 -772.4066 -3638.2545 -772.0544 -3638.2545 L -763.2031 -3638.2545 C -762.5389 -3638.2545 -762.0027 -3638.7907 -762.0027 -3639.455 L -762.0027 -3645.8573 C -762.0027 -3646.5216 -762.5389 -3647.058 -763.2031 -3647.058 L -772.0464 -3647.058 C -772.4066 -3647.058 -772.7427 -3646.8977 -772.9668 -3646.6256 L -776.28 -3642.656 Z M -777.1043 -3642.9122 L -773.583 -3647.138 C -773.2069 -3647.594 -772.6386 -3647.858 -772.0464 -3647.858 L -763.1951 -3647.858 C -762.0907 -3647.858 -761.19435 -3646.9618 -761.19435 -3645.8573 L -761.19435 -3639.455 C -761.19435 -3638.3505 -762.0907 -3637.454 -763.1951 -3637.454 L -772.0464 -3637.454 C -772.6386 -3637.454 -773.2069 -3637.7183 -773.583 -3638.1745 L -777.1043 -3642.4 C -777.2244 -3642.552 -777.2244 -3642.76 -777.1043 -3642.9122 Z" fill="#9f4c4d"/>
        </g>
      </g>
    </g>
  </g>
</svg>
