<svg height="25" viewBox="-567.743 -3656.182 25 25" width="25" xmlns="http://www.w3.org/2000/svg"><g fill="none"><path d="M-563.403-3655.682h16.32a3.84 3.84 0 0 1 3.84 3.84v16.32a3.84 3.84 0 0 1-3.84 3.84h-16.32a3.84 3.84 0 0 1-3.84-3.84v-16.32a3.84 3.84 0 0 1 3.84-3.84z" fill="#fff"/><path d="M-563.403-3655.682h16.32a3.84 3.84 0 0 1 3.84 3.84v16.32a3.84 3.84 0 0 1-3.84 3.84h-16.32a3.84 3.84 0 0 1-3.84-3.84v-16.32a3.84 3.84 0 0 1 3.84-3.84z" stroke="#000" stroke-linecap="round" stroke-linejoin="round" stroke-width=".25"/><path d="M-551.875-3646.458h-4.631c-.7 0-1.263.564-1.263 1.263v7.579c0 .699.564 1.263 1.263 1.263h5.895c.699 0 1.263-.564 1.263-1.263v-6.316h-2.106a.417.417 0 0 1-.42-.421zm3.369 2.13v6.712a2.106 2.106 0 0 1-2.105 2.105h-5.895a2.106 2.106 0 0 1-2.105-2.105v-7.579c0-1.162.943-2.105 2.105-2.105h5.027c.11 0 .228.033.32.126l2.527 2.526c.092.093.126.211.126.32zm-2.526-.446h1.086l-1.086-1.086zm-4.632 2.526a.417.417 0 0 1-.421-.42c0-.237.185-.422.421-.422h4.21c.236 0 .422.185.422.421a.417.417 0 0 1-.422.421zm0 1.684c-.236 0-.421-.185-.421-.42s.185-.422.421-.422h4.21c.236 0 .422.186.422.421s-.186.422-.422.422zm0 1.685a.417.417 0 0 1-.421-.421c0-.236.185-.421.421-.421h3.368c.236 0 .421.185.421.42a.417.417 0 0 1-.42.422zm1.684-10.948a.417.417 0 0 1-.42-.42c0-.237.184-.422.42-.422 1.162 0 2.105.943 2.105 2.106v1.263c0 .236-.185.42-.42.42s-.422-.184-.422-.42v-1.263c0-.7-.564-1.264-1.263-1.264zm-5.895-.842c.236 0 .421.186.421.421a.417.417 0 0 1-.42.421c-.7 0-1.264.565-1.264 1.264v7.579c0 .698.565 1.263 1.263 1.263h1.264c.235 0 .42.185.42.42a.417.417 0 0 1-.42.422h-1.264a2.106 2.106 0 0 1-2.105-2.105v-7.58c0-1.162.943-2.105 2.105-2.105zm2.106.421a.417.417 0 0 1-.421.421.417.417 0 0 1-.421-.42c0-.7.564-1.264 1.263-1.264h.842c.699 0 1.263.564 1.263 1.263 0 .236-.185.421-.421.421s-.421-.185-.421-.42a.417.417 0 0 0-.421-.422h-.842a.417.417 0 0 0-.421.421z" fill="#5c76a1"/></g></svg>