<?xml version="1.0" encoding="UTF-8" standalone="no"?>
<!DOCTYPE svg PUBLIC "-//W3C//DTD SVG 1.1//EN" "http://www.w3.org/Graphics/SVG/1.1/DTD/svg11.dtd">
<svg version="1.1" xmlns="http://www.w3.org/2000/svg" xmlns:xl="http://www.w3.org/1999/xlink" xmlns:dc="http://purl.org/dc/elements/1.1/" viewBox="-168.9766 -3656.7643 25 25" width="25" height="25">
  <defs/>
  <g id="SOURCES" stroke-dasharray="none" fill="none" stroke="none" fill-opacity="1" stroke-opacity="1">
    <title>SOURCES</title>
    <g id="SOURCES_Calque_2">
      <title>Calque 2</title>
      <g id="Graphic_9253">
        <path d="M -164.6366 -3656.2643 L -148.3166 -3656.2643 C -146.19583 -3656.2643 -144.4766 -3654.545 -144.4766 -3652.4243 L -144.4766 -3636.1043 C -144.4766 -3633.9835 -146.19583 -3632.2643 -148.3166 -3632.2643 L -164.6366 -3632.2643 C -166.75738 -3632.2643 -168.4766 -3633.9835 -168.4766 -3636.1043 L -168.4766 -3652.4243 C -168.4766 -3654.545 -166.75738 -3656.2643 -164.6366 -3656.2643 Z" fill="white"/>
        <path d="M -164.6366 -3656.2643 L -148.3166 -3656.2643 C -146.19583 -3656.2643 -144.4766 -3654.545 -144.4766 -3652.4243 L -144.4766 -3636.1043 C -144.4766 -3633.9835 -146.19583 -3632.2643 -148.3166 -3632.2643 L -164.6366 -3632.2643 C -166.75738 -3632.2643 -168.4766 -3633.9835 -168.4766 -3636.1043 L -168.4766 -3652.4243 C -168.4766 -3654.545 -166.75738 -3656.2643 -164.6366 -3656.2643 Z" stroke="black" stroke-linecap="round" stroke-linejoin="round" stroke-width=".25"/>
      </g>
      <g id="Group_9323">
        <title>file-search</title>
        <g id="Graphic_9324">
          <path d="M -150.0766 -3648.6403 L -150.0766 -3638.2643 C -150.0766 -3637.1603 -150.9726 -3636.2643 -152.0766 -3636.2643 L -160.8766 -3636.2643 C -161.9806 -3636.2643 -162.8766 -3637.1603 -162.8766 -3638.2643 L -162.8766 -3650.2643 C -162.8766 -3651.3683 -161.9806 -3652.2643 -160.8766 -3652.2643 L -153.7006 -3652.2643 C -153.5966 -3652.2643 -153.4846 -3652.2323 -153.3966 -3652.1443 L -150.1966 -3648.9443 C -150.1086 -3648.8563 -150.0766 -3648.7443 -150.0766 -3648.6403 Z M -154.0766 -3651.4643 L -160.8766 -3651.4643 C -161.5406 -3651.4643 -162.0766 -3650.9283 -162.0766 -3650.2643 L -162.0766 -3638.2643 C -162.0766 -3637.6003 -161.5406 -3637.0643 -160.8766 -3637.0643 L -152.0766 -3637.0643 C -151.4126 -3637.0643 -150.8766 -3637.6003 -150.8766 -3638.2643 L -150.8766 -3648.2643 L -153.6766 -3648.2643 C -153.9006 -3648.2643 -154.0766 -3648.4403 -154.0766 -3648.6643 Z M -153.2766 -3650.8963 L -153.2766 -3649.0643 L -151.4446 -3649.0643 Z M -154.0606 -3641.6163 L -152.5886 -3640.1443 C -152.4286 -3639.9843 -152.4286 -3639.7363 -152.5886 -3639.5763 C -152.7486 -3639.4163 -152.9966 -3639.4163 -153.1566 -3639.5763 L -154.6286 -3641.0483 C -155.2446 -3640.5523 -156.0286 -3640.2643 -156.8766 -3640.2643 C -158.8686 -3640.2643 -160.4766 -3641.8723 -160.4766 -3643.8643 C -160.4766 -3645.8563 -158.8686 -3647.4643 -156.8766 -3647.4643 C -154.8846 -3647.4643 -153.2766 -3645.8563 -153.2766 -3643.8643 C -153.2766 -3643.0163 -153.5726 -3642.2323 -154.0606 -3641.6163 Z M -156.8766 -3641.0643 C -155.3326 -3641.0643 -154.0766 -3642.3203 -154.0766 -3643.8643 C -154.0766 -3645.4083 -155.3326 -3646.6643 -156.8766 -3646.6643 C -158.4206 -3646.6643 -159.6766 -3645.4083 -159.6766 -3643.8643 C -159.6766 -3642.3203 -158.4206 -3641.0643 -156.8766 -3641.0643 Z" fill="#5c75a0"/>
        </g>
      </g>
    </g>
  </g>
</svg>
