<?xml version="1.0" encoding="UTF-8" standalone="no"?>
<!DOCTYPE svg PUBLIC "-//W3C//DTD SVG 1.1//EN" "http://www.w3.org/Graphics/SVG/1.1/DTD/svg11.dtd">
<svg xmlns:dc="http://purl.org/dc/elements/1.1/" xmlns:xl="http://www.w3.org/1999/xlink" version="1.1" xmlns="http://www.w3.org/2000/svg" viewBox="-919.3846 -3676.1274 25 25" width="25" height="25">
  <defs/>
  <g id="SOURCES" stroke-dasharray="none" stroke="none" stroke-opacity="1" fill="none" fill-opacity="1">
    <title>SOURCES</title>
    <g id="SOURCES_Calque_2">
      <title>Calque 2</title>
      <g id="Group_9275">
        <g id="Graphic_9239">
          <path d="M -915.0446 -3675.6274 L -898.7246 -3675.6274 C -896.6039 -3675.6274 -894.8846 -3673.908 -894.8846 -3671.7874 L -894.8846 -3655.4674 C -894.8846 -3653.3467 -896.6039 -3651.6274 -898.7246 -3651.6274 L -915.0446 -3651.6274 C -917.1654 -3651.6274 -918.8846 -3653.3467 -918.8846 -3655.4674 L -918.8846 -3671.7874 C -918.8846 -3673.908 -917.1654 -3675.6274 -915.0446 -3675.6274 Z" fill="white"/>
          <path d="M -915.0446 -3675.6274 L -898.7246 -3675.6274 C -896.6039 -3675.6274 -894.8846 -3673.908 -894.8846 -3671.7874 L -894.8846 -3655.4674 C -894.8846 -3653.3467 -896.6039 -3651.6274 -898.7246 -3651.6274 L -915.0446 -3651.6274 C -917.1654 -3651.6274 -918.8846 -3653.3467 -918.8846 -3655.4674 L -918.8846 -3671.7874 C -918.8846 -3673.908 -917.1654 -3675.6274 -915.0446 -3675.6274 Z" stroke="black" stroke-linecap="round" stroke-linejoin="round" stroke-width=".25"/>
        </g>
        <g id="Group_9273">
          <g id="Graphic_9266">
            <path d="M -903.0312 -3668.9966 C -905.7869 -3670.1965 -909.113 -3669.6695 -911.3666 -3667.416 C -914.3083 -3664.4742 -914.3083 -3659.705 -911.3666 -3656.764 C -910.6666 -3656.062 -909.8346 -3655.5057 -908.9186 -3655.127 L -908.3952 -3656.36 C -909.153 -3656.6716 -909.8412 -3657.1306 -910.4198 -3657.7107 C -912.8384 -3660.129 -912.8384 -3664.0504 -910.4198 -3666.469 C -908.5639 -3668.325 -905.8226 -3668.757 -903.5546 -3667.764 Z" fill="#999"/>
          </g>
          <g id="Graphic_9264">
            <path d="M -902.5491 -3656.3477 L -901.1267 -3656.3477 L -901.1267 -3660.9673 L -905.9986 -3660.9673 L -905.9986 -3659.6184 L -902.5491 -3659.6184 Z" fill="#666"/>
          </g>
          <g id="Graphic_9262">
            <path d="M -903.226 -3659.6895 C -904.3234 -3658.4254 -906.1353 -3658.0606 -907.6364 -3658.8014 C -909.1375 -3659.5422 -909.9501 -3661.2023 -909.6143 -3662.8423 C -909.2786 -3664.482 -907.879 -3665.6893 -906.2075 -3665.7806 L -906.2075 -3667.121 C -907.4693 -3667.0724 -908.666 -3666.5485 -909.5577 -3665.6544 C -911.518 -3663.6933 -911.518 -3660.514 -909.5577 -3658.553 C -907.5966 -3656.592 -904.4171 -3656.592 -902.4564 -3658.553 C -902.1109 -3658.8986 -901.8261 -3659.2818 -901.6023 -3659.6895 Z" fill="#666"/>
          </g>
          <g id="Graphic_9260">
            <path d="M -897.6941 -3667.688 C -898.0569 -3668.226 -898.4707 -3668.7277 -898.9298 -3669.1862 C -902.852 -3673.1085 -909.2102 -3673.1085 -913.1325 -3669.1862 C -916.2489 -3666.07 -916.8888 -3661.415 -915.0526 -3657.666 L -913.8893 -3658.3378 C -915.4318 -3661.572 -914.8638 -3665.5612 -912.1857 -3668.24 C -908.7864 -3671.6386 -903.2758 -3671.6386 -899.8766 -3668.24 C -899.4938 -3667.8566 -899.1539 -3667.447 -898.8575 -3667.0166 Z" fill="#ccc"/>
          </g>
        </g>
      </g>
    </g>
  </g>
</svg>
