<svg height="25" viewBox="-496.426 -3656.524 25 25" width="25" xmlns="http://www.w3.org/2000/svg"><g fill="none"><path d="M-492.086-3656.024h16.32a3.84 3.84 0 0 1 3.84 3.84v16.32a3.84 3.84 0 0 1-3.84 3.84h-16.32a3.84 3.84 0 0 1-3.84-3.84v-16.32a3.84 3.84 0 0 1 3.84-3.84z" fill="#fff"/><path d="M-492.086-3656.024h16.32a3.84 3.84 0 0 1 3.84 3.84v16.32a3.84 3.84 0 0 1-3.84 3.84h-16.32a3.84 3.84 0 0 1-3.84-3.84v-16.32a3.84 3.84 0 0 1 3.84-3.84z" stroke="#000" stroke-linecap="round" stroke-linejoin="round" stroke-width=".25"/><path d="M-476.867-3649.2c0-.264.207-.47.47-.47.264 0 .471.206.471.47v4.706c0 .263-.207.47-.47.47h-4.706a.466.466 0 0 1-.47-.47c0-.264.206-.471.47-.471h4.235zm-14.118 10.353c0 .263-.216.47-.47.47a.472.472 0 0 1-.47-.47c0-1.167 0-1.77.009-1.882.244-4.48 3.962-8 8.46-8h.264a8.472 8.472 0 0 1 7.19 3.99.466.466 0 0 1-.15.65.466.466 0 0 1-.65-.151 7.533 7.533 0 0 0-6.39-3.539h-.263c-4 0-7.304 3.134-7.52 7.106 0 .085 0 .715-.01 1.835z" fill="#4f8034"/></g></svg>