<svg height="25" viewBox="-853.011 -3654.814 25 25" width="25" xmlns="http://www.w3.org/2000/svg"><g fill="none"><path d="m-848.6715-3654.3143h16.32c2.1208 0 3.84 1.7193 3.84 3.84v16.32c0 2.1208-1.7192 3.84-3.84 3.84h-16.32c-2.1208 0-3.84-1.7192-3.84-3.84v-16.32c0-2.1207 1.7192-3.84 3.84-3.84z" fill="#fff"/><path d="m-848.6715-3654.3143h16.32c2.1208 0 3.84 1.7193 3.84 3.84v16.32c0 2.1208-1.7192 3.84-3.84 3.84h-16.32c-2.1208 0-3.84-1.7192-3.84-3.84v-16.32c0-2.1207 1.7192-3.84 3.84-3.84z" stroke="#000" stroke-linecap="round" stroke-linejoin="round" stroke-width=".25"/><path d="m-844.067-3646.7587v.8887h-1.3334c-.7377 0-1.3333.5957-1.3333 1.3335v8c0 .7378.5956 1.3335 1.3333 1.3335h6.2223c.7377 0 1.3333-.5957 1.3333-1.3335v-1.3335h.8889v1.3335c0 1.2265-.9956 2.2222-2.2222 2.2222h-6.2223c-1.2266 0-2.2222-.9957-2.2222-2.2222v-8c0-1.2265.9956-2.2222 2.2222-2.2222zm7.1111-2.6667h-4.8889c-.7378 0-1.3333.5954-1.3333 1.3334v8c0 .7377.5955 1.3333 1.3333 1.3333h6.2222c.7378 0 1.3333-.5956 1.3333-1.3333v-6.6667h-2.2222c-.2489 0-.4444-.1956-.4444-.4443zm3.5555 2.2489v7.0845c0 1.2266-.9955 2.222-2.2222 2.222h-6.2222c-1.2267 0-2.2222-.9954-2.2222-2.222v-8c0-1.2267.9955-2.2223 2.2222-2.2223h5.30665c.11555 0 .24.0356.33775.1333l2.6667 2.6667c.0978.0978.1333.2223.1333.3378zm-2.6666-.4711h1.1466l-1.1466-1.1467zm-4.8889 6.2222c-.2489 0-.4445-.1956-.4445-.4446 0-.2487.1956-.4443.4445-.4443h1.7778c.2488 0 .4444.1956.4444.4443 0 .249-.1956.4446-.4444.4446zm0-1.7776c-.2489 0-.4445-.1957-.4445-.4446s.1956-.4444.4445-.4444h4.4444c.2489 0 .4445.1955.4445.4444s-.1956.4446-.4445.4446zm0-1.778c-.2489 0-.4445-.1955-.4445-.4444s.1956-.4446.4445-.4446h4.4444c.2489 0 .4445.1957.4445.4446s-.1956.4444-.4445.4444z" fill="#5c76a1"/></g></svg>