<svg xmlns="http://www.w3.org/2000/svg" viewBox="-919.385 -3676.127 25 25"><g fill="none"><path d="M-915.045-3675.627h16.32a3.84 3.84 0 0 1 3.84 3.84v16.32a3.84 3.84 0 0 1-3.84 3.84h-16.32a3.84 3.84 0 0 1-3.84-3.84v-16.32a3.84 3.84 0 0 1 3.84-3.84z" fill="#fff"/><path d="M-915.045-3675.627h16.32a3.84 3.84 0 0 1 3.84 3.84v16.32a3.84 3.84 0 0 1-3.84 3.84h-16.32a3.84 3.84 0 0 1-3.84-3.84v-16.32a3.84 3.84 0 0 1 3.84-3.84z" stroke="#000" stroke-linecap="round" stroke-linejoin="round" stroke-width=".25"/><path d="M-903.031-3668.997a7.534 7.534 0 1 0-5.888 13.87l.524-1.233a6.193 6.193 0 1 1 4.84-11.404z" fill="#999"/><path d="M-902.55-3656.348h1.423v-4.62h-4.872v1.35h3.45z" fill="#666"/><path d="M-903.226-3659.69a3.682 3.682 0 1 1-2.981-6.09v-1.341a5.023 5.023 0 0 0-3.35 8.568 5.021 5.021 0 0 0 7.955-1.137z" fill="#666"/><path d="M-897.694-3667.688a10.09 10.09 0 0 0-1.236-1.498c-3.922-3.922-10.28-3.922-14.203 0-3.116 3.116-3.756 7.771-1.92 11.52l1.164-.672a8.705 8.705 0 0 1 15.032-8.679z" fill="#ccc"/></g></svg>