<?xml version="1.0" encoding="UTF-8" standalone="no"?>
<!DOCTYPE svg PUBLIC "-//W3C//DTD SVG 1.1//EN" "http://www.w3.org/Graphics/SVG/1.1/DTD/svg11.dtd">
<svg version="1.1" xmlns="http://www.w3.org/2000/svg" xmlns:xl="http://www.w3.org/1999/xlink" xmlns:dc="http://purl.org/dc/elements/1.1/" viewBox="-567.74296 -3656.182 25 25" width="25" height="25">
  <defs/>
  <g id="SOURCES" stroke-dasharray="none" fill="none" stroke="none" fill-opacity="1" stroke-opacity="1">
    <title>SOURCES</title>
    <g id="SOURCES_Calque_2">
      <title>Calque 2</title>
      <g id="Graphic_9248">
        <path d="M -563.40296 -3655.682 L -547.08296 -3655.682 C -544.9622 -3655.682 -543.24296 -3653.9626 -543.24296 -3651.842 L -543.24296 -3635.522 C -543.24296 -3633.401 -544.9622 -3631.682 -547.08296 -3631.682 L -563.40296 -3631.682 C -565.5237 -3631.682 -567.24296 -3633.401 -567.24296 -3635.522 L -567.24296 -3651.842 C -567.24296 -3653.9626 -565.5237 -3655.682 -563.40296 -3655.682 Z" fill="white"/>
        <path d="M -563.40296 -3655.682 L -547.08296 -3655.682 C -544.9622 -3655.682 -543.24296 -3653.9626 -543.24296 -3651.842 L -543.24296 -3635.522 C -543.24296 -3633.401 -544.9622 -3631.682 -547.08296 -3631.682 L -563.40296 -3631.682 C -565.5237 -3631.682 -567.24296 -3633.401 -567.24296 -3635.522 L -567.24296 -3651.842 C -567.24296 -3653.9626 -565.5237 -3655.682 -563.40296 -3655.682 Z" stroke="black" stroke-linecap="round" stroke-linejoin="round" stroke-width=".25"/>
      </g>
      <g id="Group_9280">
        <title>paste</title>
        <g id="Graphic_9281">
          <path d="M -551.87454 -3646.458 L -556.5061 -3646.458 C -557.20507 -3646.458 -557.7693 -3645.894 -557.7693 -3645.195 L -557.7693 -3637.616 C -557.7693 -3636.917 -557.20507 -3636.353 -556.5061 -3636.353 L -550.6114 -3636.353 C -549.91243 -3636.353 -549.3482 -3636.917 -549.3482 -3637.616 L -549.3482 -3643.932 L -551.4535 -3643.932 C -551.6893 -3643.932 -551.87454 -3644.117 -551.87454 -3644.353 Z M -548.5061 -3644.3277 L -548.5061 -3637.616 C -548.5061 -3636.454 -549.4493 -3635.511 -550.6114 -3635.511 L -556.5061 -3635.511 C -557.6682 -3635.511 -558.6114 -3636.454 -558.6114 -3637.616 L -558.6114 -3645.195 C -558.6114 -3646.357 -557.6682 -3647.3003 -556.5061 -3647.3003 L -551.47875 -3647.3003 C -551.3693 -3647.3003 -551.2514 -3647.2666 -551.15875 -3647.174 L -548.63243 -3644.6477 C -548.5398 -3644.555 -548.5061 -3644.437 -548.5061 -3644.3277 Z M -551.03243 -3644.774 L -549.9461 -3644.774 L -551.03243 -3645.8603 Z M -555.664 -3642.2477 C -555.8998 -3642.2477 -556.08507 -3642.433 -556.08507 -3642.6687 C -556.08507 -3642.9045 -555.8998 -3643.09 -555.664 -3643.09 L -551.4535 -3643.09 C -551.2177 -3643.09 -551.03243 -3642.9045 -551.03243 -3642.6687 C -551.03243 -3642.433 -551.2177 -3642.2477 -551.4535 -3642.2477 Z M -555.664 -3640.5635 C -555.8998 -3640.5635 -556.08507 -3640.7487 -556.08507 -3640.9845 C -556.08507 -3641.2203 -555.8998 -3641.4056 -555.664 -3641.4056 L -551.4535 -3641.4056 C -551.2177 -3641.4056 -551.03243 -3641.2203 -551.03243 -3640.9845 C -551.03243 -3640.7487 -551.2177 -3640.5635 -551.4535 -3640.5635 Z M -555.664 -3638.8793 C -555.8998 -3638.8793 -556.08507 -3639.0645 -556.08507 -3639.3003 C -556.08507 -3639.536 -555.8998 -3639.7214 -555.664 -3639.7214 L -552.2956 -3639.7214 C -552.0598 -3639.7214 -551.87454 -3639.536 -551.87454 -3639.3003 C -551.87454 -3639.0645 -552.0598 -3638.8793 -552.2956 -3638.8793 Z M -553.9798 -3649.8266 C -554.2156 -3649.8266 -554.40085 -3650.012 -554.40085 -3650.2477 C -554.40085 -3650.4835 -554.2156 -3650.6687 -553.9798 -3650.6687 C -552.8177 -3650.6687 -551.87454 -3649.7256 -551.87454 -3648.5635 L -551.87454 -3647.3003 C -551.87454 -3647.0645 -552.0598 -3646.8793 -552.2956 -3646.8793 C -552.5314 -3646.8793 -552.71664 -3647.0645 -552.71664 -3647.3003 L -552.71664 -3648.5635 C -552.71664 -3649.2624 -553.28085 -3649.8266 -553.9798 -3649.8266 Z M -559.87454 -3650.6687 C -559.63875 -3650.6687 -559.4535 -3650.4835 -559.4535 -3650.2477 C -559.4535 -3650.012 -559.63875 -3649.8266 -559.87454 -3649.8266 C -560.5735 -3649.8266 -561.1377 -3649.2624 -561.1377 -3648.5635 L -561.1377 -3640.9845 C -561.1377 -3640.2856 -560.5735 -3639.7214 -559.87454 -3639.7214 L -558.6114 -3639.7214 C -558.3756 -3639.7214 -558.1903 -3639.536 -558.1903 -3639.3003 C -558.1903 -3639.0645 -558.3756 -3638.8793 -558.6114 -3638.8793 L -559.87454 -3638.8793 C -561.03664 -3638.8793 -561.9798 -3639.8224 -561.9798 -3640.9845 L -561.9798 -3648.5635 C -561.9798 -3649.7256 -561.03664 -3650.6687 -559.87454 -3650.6687 Z M -557.7693 -3650.2477 C -557.7693 -3650.012 -557.95454 -3649.8266 -558.1903 -3649.8266 C -558.4261 -3649.8266 -558.6114 -3650.012 -558.6114 -3650.2477 C -558.6114 -3650.9466 -558.0472 -3651.511 -557.3482 -3651.511 L -556.5061 -3651.511 C -555.8072 -3651.511 -555.24296 -3650.9466 -555.24296 -3650.2477 C -555.24296 -3650.012 -555.4282 -3649.8266 -555.664 -3649.8266 C -555.8998 -3649.8266 -556.08507 -3650.012 -556.08507 -3650.2477 C -556.08507 -3650.4835 -556.2703 -3650.6687 -556.5061 -3650.6687 L -557.3482 -3650.6687 C -557.584 -3650.6687 -557.7693 -3650.4835 -557.7693 -3650.2477 Z" fill="#5c76a1"/>
        </g>
      </g>
    </g>
  </g>
</svg>
