<svg height="25" viewBox="-709.002 -3654.267 25 25" width="25" xmlns="http://www.w3.org/2000/svg"><g fill="none"><circle cx="-696.502" cy="-3641.767" fill="#fff" r="12"/><circle cx="-696.502" cy="-3641.767" r="12" stroke="#000" stroke-linecap="round" stroke-linejoin="round" stroke-width=".25"/><path d="m-693.5179-3645.427c0-2-1.54-3.52-3.58-3.52-2.14 0-3.58 1.6-3.58 3.52h1.02c0-1.4 1-2.62 2.56-2.62 1.46 0 2.56 1.12 2.56 2.62 0 .78-.28 1.22-.68 1.84l-1.68 2.48c-.4.58-.58 1.02-.58 1.8v.9h1.02v-.94c0-.32.1-.82.36-1.2l1.7-2.5c.54-.78.88-1.44.88-2.38zm-2.78 10.84v-1.34h-1.34v1.34z" fill="#66727e"/><path d="m-693.5179-3645.427c0-2-1.54-3.52-3.58-3.52-2.14 0-3.58 1.6-3.58 3.52h1.02c0-1.4 1-2.62 2.56-2.62 1.46 0 2.56 1.12 2.56 2.62 0 .78-.28 1.22-.68 1.84l-1.68 2.48c-.4.58-.58 1.02-.58 1.8v.9h1.02v-.94c0-.32.1-.82.36-1.2l1.7-2.5c.54-.78.88-1.44.88-2.38zm-2.78 10.84v-1.34h-1.34v1.34z" stroke="#66727e" stroke-linecap="round" stroke-linejoin="round" stroke-width=".25"/></g></svg>