<svg height="25" viewBox="-460.767 -3656.695 25 25" width="25" xmlns="http://www.w3.org/2000/svg"><g fill="none"><path d="m-456.42726-3656.1946h16.32c2.12076 0 3.84 1.7192 3.84 3.84v16.32c0 2.1206-1.71924 3.84-3.84 3.84h-16.32c-2.12078 0-3.84-1.7194-3.84-3.84v-16.32c0-2.1208 1.71922-3.84 3.84-3.84z" fill="#fff"/><path d="m-456.42726-3656.1946h16.32c2.12076 0 3.84 1.7192 3.84 3.84v16.32c0 2.1206-1.71924 3.84-3.84 3.84h-16.32c-2.12078 0-3.84-1.7194-3.84-3.84v-16.32c0-2.1208 1.71922-3.84 3.84-3.84z" stroke="#000" stroke-linecap="round" stroke-linejoin="round" stroke-width=".25"/><path d="m-450.67615-3646.857h-3.36889c-.73776 0-1.33336.5957-1.33336 1.3335v5.3335c0 .7376.5956 1.333 1.33336 1.333h11.55554c.7378 0 1.33335-.5954 1.33335-1.333v-5.3335c0-.7378-.59555-1.3335-1.33335-1.3335h-3.55554c-.24889 0-.44446-.1954-.44446-.4443 0-.2487.19557-.4444.44446-.4444h3.55554c1.2267 0 2.22224.9957 2.22224 2.2222v5.3335c0 1.2265-.99554 2.222-2.22224 2.222h-11.55554c-1.22666 0-2.22222-.9955-2.22222-2.222v-5.3335c0-1.2265.99556-2.2222 2.22222-2.2222h3.36889l-1.90225-1.9113c-.17775-.1776-.17775-.453 0-.631.1778-.1777.45336-.1777.63114 0l2.66666 2.6667c.1778.1778.1778.4533 0 .6313l-2.66666 2.6665c-.17778.1778-.45334.1778-.63114 0-.17775-.1778-.17775-.4535 0-.6311l1.91114-1.9111z" fill="#66727e"/></g></svg>