<svg height="25" viewBox="-853.011 -3654.814 25 25" width="25" xmlns="http://www.w3.org/2000/svg"><g fill="none"><path d="M-848.672-3654.314h16.32a3.84 3.84 0 0 1 3.84 3.84v16.32a3.84 3.84 0 0 1-3.84 3.84h-16.32a3.84 3.84 0 0 1-3.84-3.84v-16.32a3.84 3.84 0 0 1 3.84-3.84z" fill="#fff"/><path d="M-848.672-3654.314h16.32a3.84 3.84 0 0 1 3.84 3.84v16.32a3.84 3.84 0 0 1-3.84 3.84h-16.32a3.84 3.84 0 0 1-3.84-3.84v-16.32a3.84 3.84 0 0 1 3.84-3.84z" stroke="#000" stroke-linecap="round" stroke-linejoin="round" stroke-width=".25"/><path d="M-844.067-3646.759v.889h-1.333c-.738 0-1.334.596-1.334 1.333v8c0 .738.596 1.334 1.334 1.334h6.222c.738 0 1.333-.596 1.333-1.333v-1.334h.89v1.333a2.223 2.223 0 0 1-2.223 2.223h-6.222a2.223 2.223 0 0 1-2.223-2.222v-8c0-1.227.996-2.223 2.223-2.223zm7.111-2.666h-4.889c-.738 0-1.333.595-1.333 1.333v8c0 .738.595 1.333 1.333 1.333h6.222c.738 0 1.334-.595 1.334-1.333v-6.667h-2.223a.44.44 0 0 1-.444-.444zm3.556 2.249v7.084a2.223 2.223 0 0 1-2.223 2.222h-6.222a2.223 2.223 0 0 1-2.222-2.222v-8c0-1.227.995-2.222 2.222-2.222h5.307c.115 0 .24.035.338.133l2.666 2.667a.469.469 0 0 1 .134.338zm-2.667-.472h1.147l-1.147-1.146zm-4.889 6.223a.44.44 0 0 1-.444-.445.44.44 0 0 1 .444-.444h1.778a.44.44 0 0 1 .444.444.44.44 0 0 1-.444.445zm0-1.778c-.249 0-.444-.196-.444-.445s.195-.444.444-.444h4.444c.25 0 .445.196.445.444s-.196.445-.445.445zm0-1.778c-.249 0-.444-.195-.444-.444s.195-.445.444-.445h4.444c.25 0 .445.196.445.445s-.196.444-.445.444z" fill="#5c76a1"/></g></svg>