<svg xmlns="http://www.w3.org/2000/svg" viewBox="-639.06 -3655.84 25 25"><g fill="none"><path d="M-634.72-3655.34h16.32a3.84 3.84 0 0 1 3.84 3.84v16.32a3.84 3.84 0 0 1-3.84 3.84h-16.32a3.84 3.84 0 0 1-3.84-3.84v-16.32a3.84 3.84 0 0 1 3.84-3.84z" fill="#fff"/><path d="M-634.72-3655.34h16.32a3.84 3.84 0 0 1 3.84 3.84v16.32a3.84 3.84 0 0 1-3.84 3.84h-16.32a3.84 3.84 0 0 1-3.84-3.84v-16.32a3.84 3.84 0 0 1 3.84-3.84z" stroke="#000" stroke-linecap="round" stroke-linejoin="round" stroke-width=".25"/><path d="M-630.116-3638.464h-4a.44.44 0 0 1-.444-.445.44.44 0 0 1 .444-.444h4v-.889c0-.489.4-.889.89-.889h1.777c.489 0 .889.4.889.889v.889h7.555a.44.44 0 0 1 .445.444.44.44 0 0 1-.445.445h-7.555v.915c0 .489-.4.889-.889.889h-1.778a.892.892 0 0 1-.889-.889zm5.334-4.445h-9.334a.44.44 0 0 1-.444-.444.44.44 0 0 1 .444-.445h9.334v-.889c0-.488.4-.889.889-.889h1.777c.49 0 .89.4.89.89v.888h2.221a.44.44 0 0 1 .445.445.44.44 0 0 1-.445.444h-2.222v.916c0 .489-.4.889-.889.889h-1.777a.892.892 0 0 1-.89-.89v-.915zm-8-4.444h-1.334a.44.44 0 0 1-.444-.445.44.44 0 0 1 .444-.444h1.334v-.889c0-.489.4-.889.889-.889h1.777c.49 0 .89.4.89.889v.889h10.221a.44.44 0 0 1 .445.444.44.44 0 0 1-.445.445h-10.222v.915c0 .489-.4.889-.889.889h-1.777a.891.891 0 0 1-.89-.889zm.889-1.778v2.693h1.777v-2.693zm8 4.444v2.694h1.777v-2.694h-1.777zm-5.334 4.445v2.693h1.778v-2.693z" fill="#5c76a1"/></g></svg>