<svg height="25" viewBox="-311.935 -3778.582 25 25" width="25" xmlns="http://www.w3.org/2000/svg"><g fill="none"><path d="m-307.59502-3778.0825h16.31999c2.12078 0 3.84001 1.7193 3.84001 3.84v16.32c0 2.1208-1.71923 3.84-3.84001 3.84h-16.31999c-2.12078 0-3.84-1.7192-3.84-3.84v-16.32c0-2.1207 1.71922-3.84 3.84-3.84z" fill="#fff"/><path d="m-307.59502-3778.0825h16.31999c2.12078 0 3.84001 1.7193 3.84001 3.84v16.32c0 2.1208-1.71923 3.84-3.84001 3.84h-16.31999c-2.12078 0-3.84-1.7192-3.84-3.84v-16.32c0-2.1207 1.71922-3.84 3.84-3.84z" stroke="#000" stroke-linecap="round" stroke-linejoin="round" stroke-width=".25"/><g fill="#538737"><path d="m-306.4192-3763.918c.2209 0 .39998.179.39998.4v2.4006c0 .6627.53722 1.2 1.19994 1.2h8.79955c.66271 0 1.19993-.5373 1.19993-1.2v-9.9996h-2.79985c-.2209 0-.39998-.179-.39998-.4v-2.7997h-6.79965c-.66272 0-1.19994.5372-1.19994 1.1999v1.5991c0 .2209-.17908.4-.39998.4s-.39998-.1791-.39998-.4v-1.5991c0-1.1045.89538-1.9999 1.9999-1.9999h7.17725c.10619-.0067.21673.0287.30521.1172l3.19982 3.1998c.0885.0887.1239.199.11717.3052v10.3771c0 1.1044-.89539 1.9999-1.9999 1.9999h-8.79955c-1.10452 0-1.9999-.8955-1.9999-1.9999v-2.4006c0-.221.17908-.4.39998-.4zm9.19953-9.833v1.834h1.83422zm-2.96553 5.833-1.71707-1.717c-.1562-.156-.1562-.4094 0-.5656s.40945-.1562.56567 0l2.39986 2.3999c.1562.1562.1562.4095 0 .5657l-2.39986 2.4c-.15622.156-.40947.156-.56567 0-.1562-.1564-.1562-.4096 0-.566l1.71707-1.717h-6.234c-.2209 0-.39998-.179-.39998-.4 0-.2208.17908-.4.39998-.4z"/><path d="m-304.8509-3759.025c.01196 1.094.9027 1.9775 1.99977 1.9775h8.79956c1.10451 0 1.9999-.8955 1.9999-1.9999v-10.3771c.00673-.1062-.02867-.2165-.11715-.3052l-1.73388-1.7338v1.1313l.4854.4852h-.4854v.8h1.05107v9.9996c0 .6627-.53723 1.2-1.19994 1.2h-8.79956c-.65527 0-1.18783-.5252-1.19974-1.1776z"/></g></g></svg>