<?xml version="1.0" encoding="UTF-8" standalone="no"?>
<!DOCTYPE svg PUBLIC "-//W3C//DTD SVG 1.1//EN" "http://www.w3.org/Graphics/SVG/1.1/DTD/svg11.dtd">
<svg version="1.1" xmlns="http://www.w3.org/2000/svg" xmlns:xl="http://www.w3.org/1999/xlink" xmlns:dc="http://purl.org/dc/elements/1.1/" viewBox="-351.93502 -3778.5825 25 25" width="25" height="25">
  <defs/>
  <g id="SOURCES" stroke-dasharray="none" fill="none" stroke="none" fill-opacity="1" stroke-opacity="1">
    <title>SOURCES</title>
    <g id="SOURCES_Calque_1">
      <title>Calque 1</title>
      <g id="Graphic_6348">
        <title>views/view.other</title>
        <path d="M -347.59502 -3778.0825 L -331.27503 -3778.0825 C -329.15425 -3778.0825 -327.43502 -3776.3632 -327.43502 -3774.2425 L -327.43502 -3757.9225 C -327.43502 -3755.8017 -329.15425 -3754.0825 -331.27503 -3754.0825 L -347.59502 -3754.0825 C -349.7158 -3754.0825 -351.43502 -3755.8017 -351.43502 -3757.9225 L -351.43502 -3774.2425 C -351.43502 -3776.3632 -349.7158 -3778.0825 -347.59502 -3778.0825 Z" fill="white"/>
        <path d="M -347.59502 -3778.0825 L -331.27503 -3778.0825 C -329.15425 -3778.0825 -327.43502 -3776.3632 -327.43502 -3774.2425 L -327.43502 -3757.9225 C -327.43502 -3755.8017 -329.15425 -3754.0825 -331.27503 -3754.0825 L -347.59502 -3754.0825 C -349.7158 -3754.0825 -351.43502 -3755.8017 -351.43502 -3757.9225 L -351.43502 -3774.2425 C -351.43502 -3776.3632 -349.7158 -3778.0825 -347.59502 -3778.0825 Z" stroke="black" stroke-linecap="round" stroke-linejoin="round" stroke-width=".25"/>
      </g>
      <g id="Graphic_6349">
        <path d="M -345.4351 -3762.883 C -345.2142 -3762.883 -345.03514 -3762.704 -345.03514 -3762.483 L -345.03514 -3760.0824 C -345.03514 -3759.4197 -344.4979 -3758.8824 -343.8352 -3758.8824 L -335.03565 -3758.8824 C -334.37294 -3758.8824 -333.8357 -3759.4197 -333.8357 -3760.0824 L -333.8357 -3770.082 L -336.63557 -3770.082 C -336.85647 -3770.082 -337.03555 -3770.261 -337.03555 -3770.482 L -337.03555 -3773.2817 L -343.8352 -3773.2817 C -344.4979 -3773.2817 -345.03514 -3772.7445 -345.03514 -3772.0818 L -345.03514 -3770.4826 C -345.03514 -3770.2617 -345.2142 -3770.0827 -345.4351 -3770.0827 C -345.65602 -3770.0827 -345.8351 -3770.2617 -345.8351 -3770.4826 L -345.8351 -3772.0818 C -345.8351 -3773.1863 -344.9397 -3774.0817 -343.8352 -3774.0817 L -336.65795 -3774.0817 C -336.55176 -3774.0884 -336.44122 -3774.053 -336.35274 -3773.9645 L -333.1529 -3770.7647 C -333.06442 -3770.676 -333.029 -3770.5657 -333.03575 -3770.4595 L -333.03575 -3760.0824 C -333.03575 -3758.978 -333.93114 -3758.0825 -335.03565 -3758.0825 L -343.8352 -3758.0825 C -344.9397 -3758.0825 -345.8351 -3758.978 -345.8351 -3760.0824 L -345.8351 -3762.483 C -345.8351 -3762.704 -345.65602 -3762.883 -345.4351 -3762.883 Z M -336.2356 -3772.716 L -336.2356 -3770.882 L -334.40137 -3770.882 Z M -339.20112 -3766.883 L -340.9182 -3768.6 C -341.0744 -3768.756 -341.0744 -3769.0094 -340.9182 -3769.1656 C -340.762 -3769.3218 -340.50874 -3769.3218 -340.35254 -3769.1656 L -337.95266 -3766.7657 C -337.79646 -3766.6095 -337.79646 -3766.356 -337.95266 -3766.2 L -340.35254 -3763.8 C -340.50874 -3763.644 -340.762 -3763.644 -340.9182 -3763.8 C -341.0744 -3763.9563 -341.0744 -3764.2096 -340.9182 -3764.366 L -339.20112 -3766.083 L -345.4351 -3766.083 C -345.65602 -3766.083 -345.8351 -3766.262 -345.8351 -3766.483 C -345.8351 -3766.7038 -345.65602 -3766.883 -345.4351 -3766.883 Z" fill="#538737"/>
      </g>
    </g>
  </g>
</svg>
