<svg height="25" viewBox="-532.084 -3656.353 25 25" width="25" xmlns="http://www.w3.org/2000/svg"><g fill="none"><path d="M-527.744-3655.853h16.32a3.84 3.84 0 0 1 3.84 3.84v16.32a3.84 3.84 0 0 1-3.84 3.84h-16.32a3.84 3.84 0 0 1-3.84-3.84v-16.32a3.84 3.84 0 0 1 3.84-3.84z" fill="#fff"/><path d="M-527.744-3655.853h16.32a3.84 3.84 0 0 1 3.84 3.84v16.32a3.84 3.84 0 0 1-3.84 3.84h-16.32a3.84 3.84 0 0 1-3.84-3.84v-16.32a3.84 3.84 0 0 1 3.84-3.84z" stroke="#000" stroke-linecap="round" stroke-linejoin="round" stroke-width=".25"/><path d="M-513.984-3639.049v2.008c0 .224-.176.4-.4.4h-10.4a.396.396 0 0 1-.4-.4v-2.016h-1.2c-.664 0-1.2-.536-1.2-1.2v-4a2 2 0 0 1 2-2h.4v-4.408c0-.216.176-.4.4-.4h10.4c.224-.008.4.168.4.392v4.408h.4a2 2 0 0 1 2 2v4.016c0 .664-.536 1.2-1.2 1.2zm0-.8h1.2c.224 0 .4-.176.4-.4v-4.016c0-.664-.536-1.2-1.2-1.2h-.4v2.808c0 .224-.176.4-.4.4h-10.4a.396.396 0 0 1-.4-.4v-2.808h-.4c-.664 0-1.2.536-1.2 1.2v4c0 .224.176.4.4.4h1.2v-1.2c0-.224.176-.4.4-.4h10.4c.224 0 .4.176.4.4zm-.8-6.016v-4.408h-9.6v7.216h9.6zm-7.6-2c-.224 0-.4-.176-.4-.4s.176-.4.4-.4h5.6c.224 0 .4.176.4.4s-.176.4-.4.4zm0 1.6c-.224 0-.4-.176-.4-.4s.176-.4.4-.4h5.6c.224 0 .4.176.4.4s-.176.4-.4.4zm0 1.6c-.224 0-.4-.176-.4-.4s.176-.4.4-.4h4c.224 0 .4.176.4.4s-.176.4-.4.4zm-2 4v3.216h9.6v-3.216z" fill="#5c76a1"/></g></svg>