<svg height="25" viewBox="-161.073 -3652.011 25 25" width="25" xmlns="http://www.w3.org/2000/svg"><g fill="none"><path d="M-156.733-3651.511h16.32a3.84 3.84 0 0 1 3.84 3.84v16.32a3.84 3.84 0 0 1-3.84 3.84h-16.32a3.84 3.84 0 0 1-3.84-3.84v-16.32a3.84 3.84 0 0 1 3.84-3.84z" fill="#fff"/><path d="M-156.733-3651.511h16.32a3.84 3.84 0 0 1 3.84 3.84v16.32a3.84 3.84 0 0 1-3.84 3.84h-16.32a3.84 3.84 0 0 1-3.84-3.84v-16.32a3.84 3.84 0 0 1 3.84-3.84z" stroke="#000" stroke-linecap="round" stroke-linejoin="round" stroke-width=".25"/><path d="M-146.74-3639.511h-6.233c-.224 0-.4-.176-.4-.4s.176-.4.4-.4h6.232l-1.72-1.72c-.16-.16-.16-.408 0-.568s.408-.16.568 0l2.4 2.4c.16.16.16.408 0 .568l-2.4 2.4c-.16.16-.408.16-.568 0s-.16-.408 0-.568l1.72-1.72zm-3.433-5.2c0 .224-.176.4-.4.4s-.4-.176-.4-.4a2 2 0 0 1 2-2h6.4a2 2 0 0 1 2 2v10.4a2 2 0 0 1-2 2h-6.4a2 2 0 0 1-2-2c0-.224.176-.4.4-.4s.4.176.4.4c0 .664.536 1.2 1.2 1.2h6.4c.664 0 1.2-.536 1.2-1.2v-10.4c0-.664-.536-1.2-1.2-1.2h-6.4c-.664 0-1.2.536-1.2 1.2zm-2 11.6c.224 0 .4.176.4.4s-.176.4-.4.4h-2.4a2 2 0 0 1-2-2v-10.4a2 2 0 0 1 2-2h2.4c.224 0 .4.176.4.4s-.176.4-.4.4h-2.4c-.664 0-1.2.536-1.2 1.2v10.4c0 .664.536 1.2 1.2 1.2z" fill="#5c75a0"/></g></svg>