<svg height="25" viewBox="-639.06 -3655.84 25 25" width="25" xmlns="http://www.w3.org/2000/svg"><g fill="none"><path d="m-634.7201-3655.34h16.32c2.1208 0 3.84 1.7193 3.84 3.84v16.32c0 2.121-1.7192 3.84-3.84 3.84h-16.32c-2.1208 0-3.84-1.719-3.84-3.84v-16.32c0-2.1207 1.7192-3.84 3.84-3.84z" fill="#fff"/><path d="m-634.7201-3655.34h16.32c2.1208 0 3.84 1.7193 3.84 3.84v16.32c0 2.121-1.7192 3.84-3.84 3.84h-16.32c-2.1208 0-3.84-1.719-3.84-3.84v-16.32c0-2.1207 1.7192-3.84 3.84-3.84z" stroke="#000" stroke-linecap="round" stroke-linejoin="round" stroke-width=".25"/><path d="m-630.11565-3638.4643h-4c-.24885 0-.44445-.1957-.44445-.4447 0-.2487.1956-.4442.44445-.4442h4v-.8888c0-.489.4-.889.88889-.889h1.77776c.4889 0 .8889.4.8889.889v.8888h7.5556c.24885 0 .4444.1955.4444.4442 0 .249-.19555.4447-.4444.4447h-7.5556v.9153c0 .489-.4.889-.8889.889h-1.77776c-.48889 0-.88889-.4-.88889-.889zm5.33335-4.4447h-9.33335c-.24885 0-.44445-.1953-.44445-.4442 0-.2488.1956-.4445.44445-.4445h9.33335v-.8889c0-.4889.4-.8889.8889-.8889h1.77775c.48889 0 .88889.4.88889.8889v.8889h2.22226c.24885 0 .4444.1957.4444.4445 0 .2489-.19555.4442-.4444.4442h-2.22226v.9158c0 .4889-.4.8889-.88889.8889h-1.77775c-.4889 0-.8889-.4-.8889-.8889zm-8-4.4442h-1.33335c-.24885 0-.44445-.1958-.44445-.4445 0-.2489.1956-.4443.44445-.4443h1.33335v-.889c0-.489.4-.889.8889-.889h1.77775c.48889 0 .88889.4.88889.889v.889h10.22226c.24885 0 .4444.1954.4444.4443 0 .2487-.19555.4445-.4444.4445h-10.22226v.9155c0 .4887-.4.8887-.88889.8887h-1.77775c-.4889 0-.8889-.4-.8889-.8887zm.8889-1.7778v2.6933h1.77775v-2.6933zm8 4.4444v2.6934h1.77775v-2.6934zm-5.33336 4.4446v2.693h1.77776v-2.693z" fill="#5c76a1"/></g></svg>