<svg xmlns="http://www.w3.org/2000/svg" viewBox="-674.719 -3655.669 25 25"><g fill="none"><path d="M-670.379-3655.169h16.32a3.84 3.84 0 0 1 3.84 3.84v16.32a3.84 3.84 0 0 1-3.84 3.84h-16.32a3.84 3.84 0 0 1-3.84-3.84v-16.32a3.84 3.84 0 0 1 3.84-3.84z" fill="#fff"/><path d="M-670.379-3655.169h16.32a3.84 3.84 0 0 1 3.84 3.84v16.32a3.84 3.84 0 0 1-3.84 3.84h-16.32a3.84 3.84 0 0 1-3.84-3.84v-16.32a3.84 3.84 0 0 1 3.84-3.84z" stroke="#000" stroke-linecap="round" stroke-linejoin="round" stroke-width=".25"/><path d="M-656.885-3648.502h2.222a.44.44 0 0 1 .444.444.44.44 0 0 1-.444.445h-2.222v2.222a.44.44 0 0 1-.445.444.44.44 0 0 1-.444-.444v-2.222h-2.222a.44.44 0 0 1-.445-.445.44.44 0 0 1 .445-.444h2.222v-2.222a.44.44 0 0 1 .444-.445.44.44 0 0 1 .445.445zm1.777 4.889a.44.44 0 0 1 .445-.445.44.44 0 0 1 .444.445v6.222a2.223 2.223 0 0 1-2.222 2.222h-11.555a2.223 2.223 0 0 1-2.223-2.222v-11.556c0-1.226.996-2.222 2.223-2.222h6.222a.44.44 0 0 1 .444.445.44.44 0 0 1-.444.444h-6.222c-.738 0-1.334.596-1.334 1.333v11.556c0 .738.596 1.333 1.334 1.333h11.555a1.33 1.33 0 0 0 1.333-1.333z" fill="#518737"/></g></svg>