<svg height="25" viewBox="-133.318 -3656.935 25 25" width="25" xmlns="http://www.w3.org/2000/svg"><g fill="none"><path d="m-128.97804-3656.4352h16.32c2.12077 0 3.84 1.7192 3.84 3.84v16.32c0 2.1207-1.71923 3.84-3.84 3.84h-16.32c-2.12077 0-3.84-1.7193-3.84-3.84v-16.32c0-2.1208 1.71923-3.84 3.84-3.84z" fill="#fff"/><path d="m-128.97804-3656.4352h16.32c2.12077 0 3.84 1.7192 3.84 3.84v16.32c0 2.1207-1.71923 3.84-3.84 3.84h-16.32c-2.12077 0-3.84-1.7193-3.84-3.84v-16.32c0-2.1208 1.71923-3.84 3.84-3.84z" stroke="#000" stroke-linecap="round" stroke-linejoin="round" stroke-width=".25"/><path d="m-127.94648-3644.661c-.14112.2164-.42337.2916-.64917.1505-.21639-.1411-.29165-.4235-.15053-.6492 1.55236-2.4743 4.27135-3.9797 7.19731-3.9797h.26343c4.49715 0 8.21341 3.5187 8.45802 7.9971 0 .1129.00941.715.00941 1.8816 0 .2634-.20698.4704-.47041.4704s-.47042-.207-.47042-.4704c0-1.1196 0-1.7499-.0094-1.8346-.21639-3.9797-3.51869-7.1032-7.5172-7.1032h-.26343c-2.59667 0-5.01459 1.3359-6.3882 3.5375zm4.30898-.715c.26343 0 .47041.207.47041.4704 0 .2636-.20698.4704-.47041.4704h-4.70412c-.26343 0-.47042-.2068-.47042-.4704v-4.7042c0-.2632.20699-.4702.47042-.4702s.47041.207.47041.4702v4.2338z" fill="#9f4c4d"/></g></svg>