<svg height="25" viewBox="-243.63 -3652.011 25 25" width="25" xmlns="http://www.w3.org/2000/svg"><g fill="none"><path d="M-239.29-3651.511h16.32a3.84 3.84 0 0 1 3.84 3.84v16.32a3.84 3.84 0 0 1-3.84 3.84h-16.32a3.84 3.84 0 0 1-3.84-3.84v-16.32a3.84 3.84 0 0 1 3.84-3.84z" fill="#fff"/><path d="M-239.29-3651.511h16.32a3.84 3.84 0 0 1 3.84 3.84v16.32a3.84 3.84 0 0 1-3.84 3.84h-16.32a3.84 3.84 0 0 1-3.84-3.84v-16.32a3.84 3.84 0 0 1 3.84-3.84z" stroke="#000" stroke-linecap="round" stroke-linejoin="round" stroke-width=".25"/><path d="M-226.686-3636.04l3.423 3.423a.44.44 0 0 1 0 .631.44.44 0 0 1-.631 0l-3.423-3.422a7.054 7.054 0 0 1-4.702 1.777c-3.929 0-7.111-3.182-7.111-7.11s3.182-7.112 7.111-7.112a7.11 7.11 0 0 1 5.333 11.814zm-5.333 1.52c3.44 0 6.222-2.782 6.222-6.222s-2.782-6.222-6.222-6.222-6.222 2.782-6.222 6.222 2.782 6.223 6.222 6.223z" fill="#5c76a1"/></g></svg>