<svg height="25" viewBox="-496.426 -3656.524 25 25" width="25" xmlns="http://www.w3.org/2000/svg"><g fill="none"><path d="m-492.0858-3656.0237h16.31997c2.12077 0 3.84 1.7193 3.84 3.84v16.32c0 2.1207-1.71923 3.84-3.84 3.84h-16.31997c-2.1208 0-3.84-1.7193-3.84-3.84v-16.32c0-2.1207 1.7192-3.84 3.84-3.84z" fill="#fff"/><path d="m-492.0858-3656.0237h16.31997c2.12077 0 3.84 1.7193 3.84 3.84v16.32c0 2.1207-1.71923 3.84-3.84 3.84h-16.31997c-2.1208 0-3.84-1.7193-3.84-3.84v-16.32c0-2.1207 1.7192-3.84 3.84-3.84z" stroke="#000" stroke-linecap="round" stroke-linejoin="round" stroke-width=".25"/><path d="m-476.867-3649.2c0-.2637.20705-.4707.4706-.4707.2635 0 .47057.207.47057.4707v4.7057c0 .2636-.20707.4706-.47057.4706h-4.7059c-.26353 0-.4706-.207-.4706-.4706 0-.2635.20707-.4707.4706-.4707h4.2353zm-14.11765 10.353c0 .2633-.21645.4704-.47059.4704-.26353 0-.47059-.2164-.47059-.4704 0-1.1673 0-1.7696.00943-1.8825.2447-4.48 3.96234-8 8.46116-8h.26354c2.92705 0 5.63764 1.5058 7.1906 3.9905.14115.2165.07527.5083-.1506.6495-.2165.1411-.50825.0752-.6494-.1505-1.37414-2.2025-3.79296-3.539-6.3906-3.539h-.26354c-4 0-7.30353 3.134-7.52 7.106 0 .0846 0 .7152-.00941 1.8352z" fill="#4f8034"/></g></svg>