<?xml version="1.0" encoding="UTF-8" standalone="no"?>
<!DOCTYPE svg PUBLIC "-//W3C//DTD SVG 1.1//EN" "http://www.w3.org/Graphics/SVG/1.1/DTD/svg11.dtd">
<svg version="1.1" xmlns="http://www.w3.org/2000/svg" xmlns:xl="http://www.w3.org/1999/xlink" xmlns:dc="http://purl.org/dc/elements/1.1/" viewBox="-674.71866 -3655.669 25 25" width="25" height="25">
  <defs/>
  <g id="SOURCES" stroke-dasharray="none" fill="none" stroke="none" fill-opacity="1" stroke-opacity="1">
    <title>SOURCES</title>
    <g id="SOURCES_Calque_2">
      <title>Calque 2</title>
      <g id="Graphic_9245">
        <path d="M -670.37866 -3655.169 L -654.05866 -3655.169 C -651.9379 -3655.169 -650.21866 -3653.4497 -650.21866 -3651.329 L -650.21866 -3635.009 C -650.21866 -3632.888 -651.9379 -3631.169 -654.05866 -3631.169 L -670.37866 -3631.169 C -672.4994 -3631.169 -674.21866 -3632.888 -674.21866 -3635.009 L -674.21866 -3651.329 C -674.21866 -3653.4497 -672.4994 -3655.169 -670.37866 -3655.169 Z" fill="white"/>
        <path d="M -670.37866 -3655.169 L -654.05866 -3655.169 C -651.9379 -3655.169 -650.21866 -3653.4497 -650.21866 -3651.329 L -650.21866 -3635.009 C -650.21866 -3632.888 -651.9379 -3631.169 -654.05866 -3631.169 L -670.37866 -3631.169 C -672.4994 -3631.169 -674.21866 -3632.888 -674.21866 -3635.009 L -674.21866 -3651.329 C -674.21866 -3653.4497 -672.4994 -3655.169 -670.37866 -3655.169 Z" stroke="black" stroke-linecap="round" stroke-linejoin="round" stroke-width=".25"/>
      </g>
      <g id="Group_9296">
        <title>add-item-alt</title>
        <g id="Graphic_9297">
          <path d="M -656.8853 -3648.5023 L -654.6631 -3648.5023 C -654.4142 -3648.5023 -654.21866 -3648.3067 -654.21866 -3648.058 C -654.21866 -3647.809 -654.4142 -3647.6134 -654.6631 -3647.6134 L -656.8853 -3647.6134 L -656.8853 -3645.391 C -656.8853 -3645.1423 -657.0809 -3644.9467 -657.3298 -3644.9467 C -657.57866 -3644.9467 -657.7742 -3645.1423 -657.7742 -3645.391 L -657.7742 -3647.6134 L -659.9964 -3647.6134 C -660.2453 -3647.6134 -660.4409 -3647.809 -660.4409 -3648.058 C -660.4409 -3648.3067 -660.2453 -3648.5023 -659.9964 -3648.5023 L -657.7742 -3648.5023 L -657.7742 -3650.7245 C -657.7742 -3650.9734 -657.57866 -3651.169 -657.3298 -3651.169 C -657.0809 -3651.169 -656.8853 -3650.9734 -656.8853 -3650.7245 Z M -655.10755 -3643.6134 C -655.10755 -3643.8623 -654.912 -3644.058 -654.6631 -3644.058 C -654.4142 -3644.058 -654.21866 -3643.8623 -654.21866 -3643.6134 L -654.21866 -3637.391 C -654.21866 -3636.1645 -655.2142 -3635.169 -656.4409 -3635.169 L -667.9964 -3635.169 C -669.2231 -3635.169 -670.21866 -3636.1645 -670.21866 -3637.391 L -670.21866 -3648.9467 C -670.21866 -3650.1734 -669.2231 -3651.169 -667.9964 -3651.169 L -661.7742 -3651.169 C -661.5253 -3651.169 -661.3298 -3650.9734 -661.3298 -3650.7245 C -661.3298 -3650.4756 -661.5253 -3650.28 -661.7742 -3650.28 L -667.9964 -3650.28 C -668.7342 -3650.28 -669.3298 -3649.6845 -669.3298 -3648.9467 L -669.3298 -3637.391 C -669.3298 -3636.6534 -668.7342 -3636.058 -667.9964 -3636.058 L -656.4409 -3636.058 C -655.7031 -3636.058 -655.10755 -3636.6534 -655.10755 -3637.391 Z" fill="#518737"/>
        </g>
      </g>
    </g>
  </g>
</svg>
