<svg height="25" viewBox="-351.935 -3778.582 25 25" width="25" xmlns="http://www.w3.org/2000/svg"><g fill="none"><path d="m-347.59502-3778.0825h16.31999c2.12078 0 3.84001 1.7193 3.84001 3.84v16.32c0 2.1208-1.71923 3.84-3.84001 3.84h-16.31999c-2.12078 0-3.84-1.7192-3.84-3.84v-16.32c0-2.1207 1.71922-3.84 3.84-3.84z" fill="#fff"/><path d="m-347.59502-3778.0825h16.31999c2.12078 0 3.84001 1.7193 3.84001 3.84v16.32c0 2.1208-1.71923 3.84-3.84001 3.84h-16.31999c-2.12078 0-3.84-1.7192-3.84-3.84v-16.32c0-2.1207 1.71922-3.84 3.84-3.84z" stroke="#000" stroke-linecap="round" stroke-linejoin="round" stroke-width=".25"/><path d="m-345.4351-3762.883c.2209 0 .39996.179.39996.4v2.4006c0 .6627.53724 1.2 1.19994 1.2h8.79955c.66271 0 1.19995-.5373 1.19995-1.2v-9.9996h-2.79987c-.2209 0-.39998-.179-.39998-.4v-2.7997h-6.79965c-.6627 0-1.19994.5372-1.19994 1.1999v1.5992c0 .2209-.17906.3999-.39996.3999-.22092 0-.4-.179-.4-.3999v-1.5992c0-1.1045.8954-1.9999 1.9999-1.9999h7.17725c.10619-.0067.21673.0287.30521.1172l3.19984 3.1998c.08848.0887.1239.199.11715.3052v10.3771c0 1.1044-.89539 1.9999-1.9999 1.9999h-8.79955c-1.1045 0-1.9999-.8955-1.9999-1.9999v-2.4006c0-.221.17908-.4.4-.4zm9.1995-9.833v1.834h1.83423zm-2.96552 5.833-1.71708-1.717c-.1562-.156-.1562-.4094 0-.5656s.40946-.1562.56566 0l2.39988 2.3999c.1562.1562.1562.4097 0 .5657l-2.39988 2.4c-.1562.156-.40946.156-.56566 0-.1562-.1563-.1562-.4096 0-.566l1.71708-1.717h-6.23398c-.22092 0-.4-.179-.4-.4 0-.2208.17908-.4.4-.4z" fill="#538737"/></g></svg>