<svg height="25" viewBox="-746.036 -3655.327 25 25" width="25" xmlns="http://www.w3.org/2000/svg"><g fill="none"><path d="M-741.696-3654.827h16.32a3.84 3.84 0 0 1 3.84 3.84v16.32a3.84 3.84 0 0 1-3.84 3.84h-16.32a3.84 3.84 0 0 1-3.84-3.84v-16.32a3.84 3.84 0 0 1 3.84-3.84z" fill="#fff"/><path d="M-741.696-3654.827h16.32a3.84 3.84 0 0 1 3.84 3.84v16.32a3.84 3.84 0 0 1-3.84 3.84h-16.32a3.84 3.84 0 0 1-3.84-3.84v-16.32a3.84 3.84 0 0 1 3.84-3.84z" stroke="#000" stroke-linecap="round" stroke-linejoin="round" stroke-width=".25"/><g fill="#518737"><path d="M-741.536-3648.209c0-1.162.943-2.105 2.105-2.105h11.79c1.162 0 2.105.943 2.105 2.105v11.79a2.106 2.106 0 0 1-2.105 2.105h-11.79a2.106 2.106 0 0 1-2.105-2.106zm.842 0v11.79c0 .698.564 1.263 1.263 1.263h11.79c.699 0 1.263-.565 1.263-1.263v-11.79c0-.699-.564-1.263-1.263-1.263h-11.79c-.699 0-1.263.564-1.263 1.263z"/><path d="M-732.702-3638.946h1.263c.236 0 .421.185.421.421a.417.417 0 0 1-.42.421h-3.37a.417.417 0 0 1-.42-.421c0-.236.185-.421.42-.421h1.264v-4.21h-1.263a.417.417 0 0 1-.421-.421c0-.236.185-.421.42-.421h1.685c.236 0 .42.185.42.42zm-1.184-7.579h.684a.5.5 0 0 1 .5.5v.684a.5.5 0 0 1-.5.5h-.684a.5.5 0 0 1-.5-.5v-.684a.5.5 0 0 1 .5-.5z"/></g></g></svg>