<svg height="25" viewBox="-817.353 -3654.985 25 25" width="25" xmlns="http://www.w3.org/2000/svg"><g fill="none"><path d="m-813.0129-3654.485h16.32c2.1208 0 3.84 1.719 3.84 3.84v16.32c0 2.1206-1.7192 3.84-3.84 3.84h-16.32c-2.1208 0-3.84-1.7194-3.84-3.84v-16.32c0-2.121 1.7192-3.84 3.84-3.84z" fill="#fff"/><path d="m-813.0129-3654.485h16.32c2.1208 0 3.84 1.719 3.84 3.84v16.32c0 2.1206-1.7192 3.84-3.84 3.84h-16.32c-2.1208 0-3.84-1.7194-3.84-3.84v-16.32c0-2.121 1.7192-3.84 3.84-3.84z" stroke="#000" stroke-linecap="round" stroke-linejoin="round" stroke-width=".25"/><path d="m-801.2974-3649.4254h-4.88885c-.73775 0-1.33335.5954-1.33335 1.3334v8c0 .7377.5956 1.3333 1.33335 1.3333h6.22225c.73775 0 1.3333-.5956 1.3333-1.3333v-6.6667h-2.2222c-.2489 0-.4445-.1956-.4445-.4443zm3.5556 2.2489v7.0845c0 1.2266-.9956 2.222-2.2222 2.222h-6.22225c-1.22665 0-2.22225-.9954-2.22225-2.222v-8c0-1.2267.9956-2.2223 2.22225-2.2223h5.30665c.1156 0 .24.0356.3378.1333l2.6667 2.6667c.0977.0978.1333.2223.1333.3378zm-2.6667-.4711h1.1467l-1.1467-1.1467zm-4.8889 2.6666c-.24885 0-.4444-.1955-.4444-.4444s.19555-.4446.4444-.4446h4.4445c.2489 0 .4444.1957.4444.4446s-.1955.4444-.4444.4444zm0 1.778c-.24885 0-.4444-.1957-.4444-.4446s.19555-.4444.4444-.4444h4.4445c.2489 0 .4444.1955.4444.4444s-.1955.4446-.4444.4446zm0 1.7776c-.24885 0-.4444-.1956-.4444-.4446 0-.2487.19555-.4443.4444-.4443h3.5556c.2489 0 .4444.1956.4444.4443 0 .249-.1955.4446-.4444.4446zm-6.6666-.4446c0-.2487.1955-.4443.4444-.4443s.4445.1956.4445.4443v2.667c0 .2487-.1956.4443-.4445.4443s-.4444-.1956-.4444-.4443zm4 7.5557c-.2489 0-.4445-.1957-.4445-.4444 0-.2489.1956-.4443.4445-.4443h2.6666c.2489 0 .4445.1954.4445.4443 0 .2487-.1956.4444-.4445.4444zm-1.7778-12.4444c.2489 0 .4444.1957.4444.4444 0 .2489-.1955.4443-.4444.4443-.7378 0-1.3333.5957-1.3333 1.3335 0 .2489-.1956.4445-.4445.4445s-.4444-.1956-.4444-.4445c0-1.2265.9955-2.2222 2.2222-2.2222zm-2.2222 10.2222c0-.2489.1955-.4445.4444-.4445s.4445.1956.4445.4445c0 .7378.5955 1.3335 1.3333 1.3335.2489 0 .4444.1954.4444.4443 0 .2487-.1955.4444-.4444.4444-1.2267 0-2.2222-.9957-2.2222-2.2222zm8.4444 2.2222c-.2489 0-.4444-.1957-.4444-.4444 0-.2489.1955-.4443.4444-.4443.7378 0 1.33335-.5957 1.33335-1.3335 0-.2489.19555-.4445.44445-.4445s.4444.1956.4444.4445c0 1.2265-.9955 2.2222-2.2222 2.2222z" fill="#5c76a1"/></g></svg>