<svg height="25" viewBox="-781.694 -3655.156 25 25" width="25" xmlns="http://www.w3.org/2000/svg"><g fill="none"><path d="M-777.354-3654.656h16.32a3.84 3.84 0 0 1 3.84 3.84v16.32a3.84 3.84 0 0 1-3.84 3.84h-16.32a3.84 3.84 0 0 1-3.84-3.84v-16.32a3.84 3.84 0 0 1 3.84-3.84z" fill="#fff"/><path d="M-777.354-3654.656h16.32a3.84 3.84 0 0 1 3.84 3.84v16.32a3.84 3.84 0 0 1-3.84 3.84h-16.32a3.84 3.84 0 0 1-3.84-3.84v-16.32a3.84 3.84 0 0 1 3.84-3.84z" stroke="#000" stroke-linecap="round" stroke-linejoin="round" stroke-width=".25"/><path d="M-767.997-3643.224l2.12-2.121c.161-.16.409-.16.57 0s.16.408 0 .568l-2.122 2.121 2.121 2.12c.16.16.16.409 0 .569s-.408.16-.568 0l-2.12-2.121-2.122 2.121a.396.396 0 0 1-.568 0 .396.396 0 0 1 0-.568l2.12-2.121-2.12-2.121a.396.396 0 0 1 0-.568c.16-.16.408-.16.568 0zm-4.978 4.537c.224.272.568.432.92.432h8.852c.664 0 1.2-.536 1.2-1.2v-6.402c0-.665-.536-1.201-1.2-1.201h-8.843c-.36 0-.697.16-.92.432l-3.314 3.97zm-4.13-4.225l3.522-4.226c.376-.456.944-.72 1.537-.72h8.85c1.105 0 2.002.896 2.002 2v6.403a2.002 2.002 0 0 1-2.001 2.001h-8.851c-.593 0-1.16-.264-1.537-.72l-3.521-4.226a.41.41 0 0 1 0-.512z" fill="#9f4c4d"/></g></svg>