<svg height="25" viewBox="-243.63 -3652.011 25 25" width="25" xmlns="http://www.w3.org/2000/svg"><g fill="none"><path d="m-239.29003-3651.511h16.31999c2.12078 0 3.84 1.7194 3.84 3.84v16.32c0 2.121-1.71922 3.84-3.84 3.84h-16.31999c-2.12077 0-3.84001-1.719-3.84001-3.84v-16.32c0-2.1206 1.71924-3.84 3.84001-3.84z" fill="#fff"/><path d="m-239.29003-3651.511h16.31999c2.12078 0 3.84 1.7194 3.84 3.84v16.32c0 2.121-1.71922 3.84-3.84 3.84h-16.31999c-2.12077 0-3.84001-1.719-3.84001-3.84v-16.32c0-2.1206 1.71924-3.84 3.84001-3.84z" stroke="#000" stroke-linecap="round" stroke-linejoin="round" stroke-width=".25"/><path d="m-226.6856-3636.0394 3.42223 3.4224c.17777.1776.17777.453 0 .631-.17778.1777-.45333.1777-.63111 0l-3.42222-3.4223c-1.25334 1.1113-2.89778 1.7778-4.70222 1.7778-3.92888 0-7.11112-3.1822-7.11112-7.1111s3.18224-7.1111 7.11112-7.1111 7.11112 3.1822 7.11112 7.1111c0 1.8046-.67557 3.4489-1.7778 4.7022zm-5.33332 1.52c3.44 0 6.22222-2.7822 6.22222-6.2222s-2.78222-6.2224-6.22222-6.2224-6.22223 2.7824-6.22223 6.2224 2.78223 6.2222 6.22223 6.2222z" fill="#5c76a1"/></g></svg>