<svg height="25" viewBox="-746.036 -3655.327 25 25" width="25" xmlns="http://www.w3.org/2000/svg"><g fill="none"><path d="m-741.6958-3654.827h16.32c2.1208 0 3.84 1.719 3.84 3.84v16.32c0 2.1207-1.7192 3.84-3.84 3.84h-16.32c-2.1208 0-3.84-1.7193-3.84-3.84v-16.32c0-2.121 1.7192-3.84 3.84-3.84z" fill="#fff"/><path d="m-741.6958-3654.827h16.32c2.1208 0 3.84 1.719 3.84 3.84v16.32c0 2.1207-1.7192 3.84-3.84 3.84h-16.32c-2.1208 0-3.84-1.7193-3.84-3.84v-16.32c0-2.121 1.7192-3.84 3.84-3.84z" stroke="#000" stroke-linecap="round" stroke-linejoin="round" stroke-width=".25"/><g fill="#518737"><path d="m-741.5358-3648.209c0-1.162.9432-2.1053 2.1053-2.1053h11.78945c1.1621 0 2.10525.9433 2.10525 2.1053v11.7895c0 1.1621-.94315 2.1052-2.10525 2.1052h-11.78945c-1.1621 0-2.1053-.9431-2.1053-2.1052zm.8421 0v11.7895c0 .6989.5642 1.2631 1.2632 1.2631h11.78945c.69895 0 1.26315-.5642 1.26315-1.2631v-11.7895c0-.699-.5642-1.263-1.26315-1.263h-11.78945c-.699 0-1.2632.564-1.2632 1.263z"/><path d="m-732.7021-3638.946h1.26315c.23579 0 .42105.1854.42105.421 0 .236-.18526.4213-.42105.4213h-3.36845c-.23576 0-.421-.1853-.421-.4213 0-.2356.18524-.421.421-.421h1.2632v-4.2104h-1.2632c-.23576 0-.421-.1852-.421-.421 0-.2356.18524-.4211.421-.4211h1.68424c.23576 0 .42106.1855.42106.4211z"/><path d="m-733.8863-3646.525h.6842c.2761 0 .5.224.5.5v.6844c0 .2762-.2239.5-.5.5h-.6842c-.27616 0-.5-.2238-.5-.5v-.6844c0-.276.22384-.5.5-.5z"/></g></g></svg>