<svg xmlns="http://www.w3.org/2000/svg" viewBox="-310.774 -3167.932 25 25"><g fill="none"><path d="M-306.434-3167.432h16.32a3.84 3.84 0 0 1 3.84 3.84v16.32a3.84 3.84 0 0 1-3.84 3.84h-16.32a3.84 3.84 0 0 1-3.84-3.84v-16.32a3.84 3.84 0 0 1 3.84-3.84z" fill="#fff"/><path d="M-306.434-3167.432h16.32a3.84 3.84 0 0 1 3.84 3.84v16.32a3.84 3.84 0 0 1-3.84 3.84h-16.32a3.84 3.84 0 0 1-3.84-3.84v-16.32a3.84 3.84 0 0 1 3.84-3.84z" stroke="#000" stroke-linecap="round" stroke-linejoin="round" stroke-width=".25"/><path d="M-304.274-3152.232a.4.4 0 0 1 .4.4v2.4a1.2 1.2 0 0 0 1.2 1.2h8.8a1.2 1.2 0 0 0 1.2-1.2v-9.999h-2.8a.4.4 0 0 1-.4-.4v-2.8h-6.8a1.2 1.2 0 0 0-1.2 1.2v1.6a.4.4 0 0 1-.8 0v-1.6a2 2 0 0 1 2-2h7.177a.392.392 0 0 1 .305.117l3.2 3.2a.391.391 0 0 1 .117.305v10.378a2 2 0 0 1-2 2h-8.8a2 2 0 0 1-2-2v-2.401a.4.4 0 0 1 .4-.4zm9.2-9.833v1.834h1.834zm-2.966 5.833-1.717-1.717a.4.4 0 1 1 .565-.566l2.4 2.4a.4.4 0 0 1 0 .566l-2.4 2.4a.4.4 0 0 1-.565-.566l1.717-1.717h-6.234a.4.4 0 1 1 0-.8z" fill="#5c76a2"/><path d="M-295.503-3150.259a.198.198 0 0 0-.198-.198h-.396a.198.198 0 0 0-.198.198v.396c0 .109.089.198.198.198h.396c.11 0 .198-.089.198-.198zm.396 0v.396a.594.594 0 0 1-.594.594h-.396a.594.594 0 0 1-.594-.594v-.396c0-.328.266-.594.594-.594h.396c.328 0 .594.266.594.594zm-2.771 0a.198.198 0 0 0-.198-.198h-.396a.198.198 0 0 0-.198.198v.396c0 .109.089.198.198.198h.396c.11 0 .198-.089.198-.198zm.396 0v.396a.594.594 0 0 1-.594.594h-.396a.594.594 0 0 1-.594-.594v-.396c0-.328.266-.594.594-.594h.396c.328 0 .594.266.594.594zm-2.771 0a.198.198 0 0 0-.198-.198h-.396a.198.198 0 0 0-.198.198v.396c0 .109.089.198.198.198h.396c.11 0 .198-.089.198-.198zm.396 0v.396a.594.594 0 0 1-.594.594h-.396a.594.594 0 0 1-.594-.594v-.396c0-.328.266-.594.594-.594h.396c.328 0 .594.266.594.594z" fill="#5c76a2"/></g></svg>