<svg height="25" viewBox="-567.743 -3656.182 25 25" width="25" xmlns="http://www.w3.org/2000/svg"><g fill="none"><path d="m-563.40296-3655.682h16.32c2.12076 0 3.84 1.7194 3.84 3.84v16.32c0 2.121-1.71924 3.84-3.84 3.84h-16.32c-2.12074 0-3.84-1.719-3.84-3.84v-16.32c0-2.1206 1.71926-3.84 3.84-3.84z" fill="#fff"/><path d="m-563.40296-3655.682h16.32c2.12076 0 3.84 1.7194 3.84 3.84v16.32c0 2.121-1.71924 3.84-3.84 3.84h-16.32c-2.12074 0-3.84-1.719-3.84-3.84v-16.32c0-2.1206 1.71926-3.84 3.84-3.84z" stroke="#000" stroke-linecap="round" stroke-linejoin="round" stroke-width=".25"/><path d="m-551.87454-3646.458h-4.63156c-.69897 0-1.2632.564-1.2632 1.263v7.579c0 .699.56423 1.263 1.2632 1.263h5.8947c.69897 0 1.2632-.564 1.2632-1.263v-6.316h-2.1053c-.2358 0-.42104-.185-.42104-.421zm3.36844 2.1303v6.7117c0 1.162-.9432 2.105-2.1053 2.105h-5.8947c-1.1621 0-2.1053-.943-2.1053-2.105v-7.579c0-1.162.9432-2.1053 2.1053-2.1053h5.02735c.10945 0 .22735.0337.32.1263l2.52632 2.5263c.09263.0927.12633.2107.12633.32zm-2.52633-.4463h1.08633l-1.08633-1.0863zm-4.63157 2.5263c-.2358 0-.42107-.1853-.42107-.421 0-.2358.18527-.4213.42107-.4213h4.2105c.2358 0 .42107.1855.42107.4213 0 .2357-.18527.421-.42107.421zm0 1.6842c-.2358 0-.42107-.1852-.42107-.421s.18527-.4211.42107-.4211h4.2105c.2358 0 .42107.1853.42107.4211s-.18527.421-.42107.421zm0 1.6842c-.2358 0-.42107-.1852-.42107-.421 0-.2357.18527-.4211.42107-.4211h3.3684c.2358 0 .42106.1854.42106.4211 0 .2358-.18526.421-.42106.421zm1.6842-10.9473c-.2358 0-.42105-.1854-.42105-.4211 0-.2358.18525-.421.42105-.421 1.1621 0 2.10526.9431 2.10526 2.1052v1.2632c0 .2358-.18526.421-.42106.421s-.42104-.1852-.42104-.421v-1.2632c0-.6989-.56421-1.2631-1.26316-1.2631zm-5.89474-.8421c.23579 0 .42104.1852.42104.421 0 .2357-.18525.4211-.42104.4211-.69896 0-1.26316.5642-1.26316 1.2631v7.579c0 .6989.5642 1.2631 1.26316 1.2631h1.26314c.2358 0 .4211.1854.4211.4211 0 .2358-.1853.421-.4211.421h-1.26314c-1.1621 0-2.10526-.9431-2.10526-2.1052v-7.579c0-1.1621.94316-2.1052 2.10526-2.1052zm2.10524.421c0 .2357-.18524.4211-.421.4211-.2358 0-.4211-.1854-.4211-.4211 0-.6989.5642-1.2633 1.2632-1.2633h.8421c.6989 0 1.26314.5644 1.26314 1.2633 0 .2357-.18524.4211-.42104.4211s-.42107-.1854-.42107-.4211c0-.2358-.18523-.421-.42103-.421h-.8421c-.2358 0-.4211.1852-.4211.421z" fill="#5c76a1"/></g></svg>