<svg height="25" viewBox="-919.385 -3676.127 25 25" width="25" xmlns="http://www.w3.org/2000/svg"><g fill="none"><path d="m-915.0446-3675.6274h16.32c2.1207 0 3.84 1.7194 3.84 3.84v16.32c0 2.1207-1.7193 3.84-3.84 3.84h-16.32c-2.1208 0-3.84-1.7193-3.84-3.84v-16.32c0-2.1206 1.7192-3.84 3.84-3.84z" fill="#fff"/><path d="m-915.0446-3675.6274h16.32c2.1207 0 3.84 1.7194 3.84 3.84v16.32c0 2.1207-1.7193 3.84-3.84 3.84h-16.32c-2.1208 0-3.84-1.7193-3.84-3.84v-16.32c0-2.1206 1.7192-3.84 3.84-3.84z" stroke="#000" stroke-linecap="round" stroke-linejoin="round" stroke-width=".25"/><path d="m-903.0312-3668.9966c-2.7557-1.1999-6.0818-.6729-8.3354 1.5806-2.9417 2.9418-2.9417 7.711 0 10.652.7.702 1.532 1.2583 2.448 1.637l.5234-1.233c-.7578-.3116-1.446-.7706-2.0246-1.3507-2.4186-2.4183-2.4186-6.3397 0-8.7583 1.8559-1.856 4.5972-2.288 6.8652-1.295z" fill="#999"/><path d="m-902.5491-3656.3477h1.4224v-4.6196h-4.8719v1.3489h3.4495z" fill="#666"/><path d="m-903.226-3659.6895c-1.0974 1.2641-2.9093 1.6289-4.4104.8881s-2.3137-2.4009-1.9779-4.0409c.3357-1.6397 1.7353-2.847 3.4068-2.9383v-1.3404c-1.2618.0486-2.4585.5725-3.3502 1.4666-1.9603 1.9611-1.9603 5.1404 0 7.1014 1.9611 1.961 5.1406 1.961 7.1013 0 .3455-.3456.6303-.7288.8541-1.1365z" fill="#666"/><path d="m-897.6941-3667.688c-.3628-.538-.7766-1.0397-1.2357-1.4982-3.9222-3.9223-10.2804-3.9223-14.2027 0-3.1164 3.1162-3.7563 7.7712-1.9201 11.5202l1.1633-.6718c-1.5425-3.2342-.9745-7.2234 1.7036-9.9022 3.3993-3.3986 8.9099-3.3986 12.3091 0 .3828.3834.7227.793 1.0191 1.2234z" fill="#ccc"/></g></svg>