<?xml version="1.0" encoding="UTF-8" standalone="no"?>
<!DOCTYPE svg PUBLIC "-//W3C//DTD SVG 1.1//EN" "http://www.w3.org/Graphics/SVG/1.1/DTD/svg11.dtd">
<svg version="1.1" xmlns="http://www.w3.org/2000/svg" xmlns:xl="http://www.w3.org/1999/xlink" xmlns:dc="http://purl.org/dc/elements/1.1/" viewBox="-532.0844 -3656.3527 25 25" width="25" height="25">
  <defs/>
  <g id="SOURCES" stroke-dasharray="none" fill="none" stroke="none" fill-opacity="1" stroke-opacity="1">
    <title>SOURCES</title>
    <g id="SOURCES_Calque_2">
      <title>Calque 2</title>
      <g id="Graphic_9249">
        <path d="M -527.7444 -3655.8527 L -511.4244 -3655.8527 C -509.3036 -3655.8527 -507.5844 -3654.1335 -507.5844 -3652.0127 L -507.5844 -3635.6927 C -507.5844 -3633.572 -509.3036 -3631.8527 -511.4244 -3631.8527 L -527.7444 -3631.8527 C -529.86517 -3631.8527 -531.5844 -3633.572 -531.5844 -3635.6927 L -531.5844 -3652.0127 C -531.5844 -3654.1335 -529.86517 -3655.8527 -527.7444 -3655.8527 Z" fill="white"/>
        <path d="M -527.7444 -3655.8527 L -511.4244 -3655.8527 C -509.3036 -3655.8527 -507.5844 -3654.1335 -507.5844 -3652.0127 L -507.5844 -3635.6927 C -507.5844 -3633.572 -509.3036 -3631.8527 -511.4244 -3631.8527 L -527.7444 -3631.8527 C -529.86517 -3631.8527 -531.5844 -3633.572 -531.5844 -3635.6927 L -531.5844 -3652.0127 C -531.5844 -3654.1335 -529.86517 -3655.8527 -527.7444 -3655.8527 Z" stroke="black" stroke-linecap="round" stroke-linejoin="round" stroke-width=".25"/>
      </g>
      <g id="Group_9313">
        <title>printer</title>
        <g id="Graphic_9314">
          <path d="M -513.9844 -3639.0486 L -513.9844 -3637.0406 C -513.9844 -3636.8166 -514.1604 -3636.6406 -514.3844 -3636.6406 L -524.7844 -3636.6406 C -525.0084 -3636.6406 -525.1844 -3636.8166 -525.1844 -3637.0406 L -525.1844 -3639.0566 L -526.3844 -3639.0566 C -527.0484 -3639.0566 -527.5844 -3639.5926 -527.5844 -3640.2566 L -527.5844 -3644.2566 C -527.5844 -3645.3606 -526.6884 -3646.2566 -525.5844 -3646.2566 L -525.1844 -3646.2566 L -525.1844 -3650.6646 C -525.1844 -3650.8806 -525.0084 -3651.0646 -524.7844 -3651.0646 L -514.3844 -3651.0646 C -514.1604 -3651.0726 -513.9844 -3650.8966 -513.9844 -3650.6726 L -513.9844 -3646.2646 L -513.5844 -3646.2646 C -512.4804 -3646.2646 -511.5844 -3645.3686 -511.5844 -3644.2646 L -511.5844 -3640.2486 C -511.5844 -3639.5846 -512.1204 -3639.0486 -512.7844 -3639.0486 Z M -513.9844 -3639.8486 L -512.7844 -3639.8486 C -512.5604 -3639.8486 -512.3844 -3640.0246 -512.3844 -3640.2486 L -512.3844 -3644.2646 C -512.3844 -3644.9286 -512.9204 -3645.4646 -513.5844 -3645.4646 L -513.9844 -3645.4646 L -513.9844 -3642.6566 C -513.9844 -3642.4326 -514.1604 -3642.2566 -514.3844 -3642.2566 L -524.7844 -3642.2566 C -525.0084 -3642.2566 -525.1844 -3642.4326 -525.1844 -3642.6566 L -525.1844 -3645.4646 L -525.5844 -3645.4646 C -526.2484 -3645.4646 -526.7844 -3644.9286 -526.7844 -3644.2646 L -526.7844 -3640.2646 C -526.7844 -3640.0406 -526.6084 -3639.8646 -526.3844 -3639.8646 L -525.1844 -3639.8646 L -525.1844 -3641.0646 C -525.1844 -3641.2886 -525.0084 -3641.4646 -524.7844 -3641.4646 L -514.3844 -3641.4646 C -514.1604 -3641.4646 -513.9844 -3641.2886 -513.9844 -3641.0646 Z M -514.7844 -3645.8646 L -514.7844 -3650.2726 L -524.3844 -3650.2726 L -524.3844 -3643.0566 L -514.7844 -3643.0566 Z M -522.3844 -3647.8646 C -522.6084 -3647.8646 -522.7844 -3648.0406 -522.7844 -3648.2646 C -522.7844 -3648.4886 -522.6084 -3648.6646 -522.3844 -3648.6646 L -516.7844 -3648.6646 C -516.5604 -3648.6646 -516.3844 -3648.4886 -516.3844 -3648.2646 C -516.3844 -3648.0406 -516.5604 -3647.8646 -516.7844 -3647.8646 Z M -522.3844 -3646.2646 C -522.6084 -3646.2646 -522.7844 -3646.4406 -522.7844 -3646.6646 C -522.7844 -3646.8886 -522.6084 -3647.0646 -522.3844 -3647.0646 L -516.7844 -3647.0646 C -516.5604 -3647.0646 -516.3844 -3646.8886 -516.3844 -3646.6646 C -516.3844 -3646.4406 -516.5604 -3646.2646 -516.7844 -3646.2646 Z M -522.3844 -3644.6646 C -522.6084 -3644.6646 -522.7844 -3644.8406 -522.7844 -3645.0646 C -522.7844 -3645.2886 -522.6084 -3645.4646 -522.3844 -3645.4646 L -518.3844 -3645.4646 C -518.1604 -3645.4646 -517.9844 -3645.2886 -517.9844 -3645.0646 C -517.9844 -3644.8406 -518.1604 -3644.6646 -518.3844 -3644.6646 Z M -524.3844 -3640.6646 L -524.3844 -3637.4486 L -514.7844 -3637.4486 L -514.7844 -3640.6646 L -524.3844 -3640.6646 Z" fill="#5c76a1"/>
        </g>
      </g>
    </g>
  </g>
</svg>
