<svg height="25" viewBox="-318.133 -3657.378 25 25" width="25" xmlns="http://www.w3.org/2000/svg"><g fill="none"><path d="m-313.793-3656.8784h16.32c2.12077 0 3.84 1.7194 3.84 3.84v16.32c0 2.1208-1.71923 3.84-3.84 3.84h-16.32c-2.12078 0-3.84-1.7192-3.84-3.84v-16.32c0-2.1206 1.71922-3.84 3.84-3.84z" fill="#fff"/><path d="m-313.793-3656.8784h16.32c2.12077 0 3.84 1.7194 3.84 3.84v16.32c0 2.1208-1.71923 3.84-3.84 3.84h-16.32c-2.12078 0-3.84-1.7192-3.84-3.84v-16.32c0-2.1206 1.71922-3.84 3.84-3.84z" stroke="#000" stroke-linecap="round" stroke-linejoin="round" stroke-width=".25"/><path d="m-313.633-3650.773c0-1.162.94316-2.1054 2.10526-2.1054h11.78947c1.16211 0 2.10527.9434 2.10527 2.1054v11.7894c0 1.1621-.94316 2.1052-2.10527 2.1052h-11.78947c-1.1621 0-2.10526-.9431-2.10526-2.1052zm.8421 0v11.7894c0 .6989.5642 1.2631 1.26316 1.2631h11.78947c.69895 0 1.26317-.5642 1.26317-1.2631v-11.7894c0-.699-.56422-1.2633-1.26317-1.2633h-11.78947c-.69896 0-1.26316.5643-1.26316 1.2633z" fill="#518737"/><path d="m-302.87932-3641.771c1.03579-.8253 1.65052-2.08 1.65052-3.444 0-2.333-1.81894-4.2613-4.13473-4.4044-.15157-.0086-.26947-.1432-.26105-.2946.00842-.1517.14316-.2696.29474-.261 2.61052.16 4.65684 2.324 4.65684 4.9514 0 1.5242-.69053 2.9306-1.8442 3.8566h1.5663c.15158 0 .2779.1265.2779.278 0 .1517-.12632.278-.2779.278h-2.2063c-.1516 0-.2779-.1263-.2779-.278v-2.206c0-.152.1263-.278.2779-.278.15157 0 .27788.126.27788.278v1.5156zm-5.50738-6.8884c-1.03578.8254-1.6505 2.08-1.6505 3.4444 0 2.341 1.82736 4.2693 4.16 4.404.15157.0084.26946.1347.26104.2947-.00842.1516-.13474.2693-.29474.2613-2.61894-.152-4.67368-2.316-4.67368-4.952 0-1.524.69052-2.9303 1.84421-3.8566h-1.56633c-.15157 0-.27788-.1264-.27788-.2779s.12631-.2779.27788-.2779h2.20633c.15157 0 .27789.1264.27789.2779v2.2065c0 .1514-.12632.2777-.27789.2777-.15158 0-.2779-.1263-.2779-.2777v-1.516z" fill="#518737"/><path d="m-302.87932-3641.771c1.03579-.8253 1.65052-2.08 1.65052-3.444 0-2.333-1.81894-4.2613-4.13473-4.4044-.15157-.0086-.26947-.1432-.26105-.2946.00842-.1517.14316-.2696.29474-.261 2.61052.16 4.65684 2.324 4.65684 4.9514 0 1.5242-.69053 2.9306-1.8442 3.8566h1.5663c.15158 0 .2779.1265.2779.278 0 .1517-.12632.278-.2779.278h-2.2063c-.1516 0-.2779-.1263-.2779-.278v-2.206c0-.152.1263-.278.2779-.278.15157 0 .27788.126.27788.278v1.5156zm-5.50738-6.8884c-1.03578.8254-1.6505 2.08-1.6505 3.4444 0 2.341 1.82736 4.2693 4.16 4.404.15157.0084.26946.1347.26104.2947-.00842.1516-.13474.2693-.29474.2613-2.61894-.152-4.67368-2.316-4.67368-4.952 0-1.524.69052-2.9303 1.84421-3.8566h-1.56633c-.15157 0-.27788-.1264-.27788-.2779s.12631-.2779.27788-.2779h2.20633c.15157 0 .27789.1264.27789.2779v2.2065c0 .1514-.12632.2777-.27789.2777-.15158 0-.2779-.1263-.2779-.2777v-1.516z" stroke="#518737" stroke-linejoin="round" stroke-width=".25"/></g></svg>