<svg height="25" viewBox="-781.694 -3655.156 25 25" width="25" xmlns="http://www.w3.org/2000/svg"><g fill="none"><path d="m-777.35435-3654.656h16.32c2.12075 0 3.84 1.719 3.84 3.84v16.32c0 2.1206-1.71925 3.84-3.84 3.84h-16.32c-2.12075 0-3.84-1.7194-3.84-3.84v-16.32c0-2.121 1.71925-3.84 3.84-3.84z" fill="#fff"/><path d="m-777.35435-3654.656h16.32c2.12075 0 3.84 1.719 3.84 3.84v16.32c0 2.1206-1.71925 3.84-3.84 3.84h-16.32c-2.12075 0-3.84-1.7194-3.84-3.84v-16.32c0-2.121 1.71925-3.84 3.84-3.84z" stroke="#000" stroke-linecap="round" stroke-linejoin="round" stroke-width=".25"/><path d="m-767.9969-3643.2244 2.1208-2.1206c.16005-.16.4081-.16.5682 0s.1601.408 0 .568l-2.1208 2.121 2.1208 2.1207c.1601.16.1601.4083 0 .5683s-.40815.16-.5682 0l-2.1208-2.121-2.1208 2.121c-.1601.16-.40815.16-.5682 0-.1601-.16-.1601-.4083 0-.5683l2.1208-2.1207-2.1208-2.121c-.1601-.16-.1601-.408 0-.568.16005-.16.4081-.16.5682 0zm-4.9779 4.5377c.2241.2721.5682.4322.9204.4322h8.8513c.6642 0 1.2004-.5362 1.2004-1.2005v-6.4023c0-.6643-.5362-1.2007-1.2004-1.2007h-8.8433c-.3602 0-.6963.1603-.9204.4324l-3.3132 3.9696zm-4.1295-4.2255 3.5213-4.2258c.3761-.456.9444-.72 1.5366-.72h8.8513c1.1044 0 2.00075.8962 2.00075 2.0007v6.4023c0 1.1045-.89635 2.001-2.00075 2.001h-8.8513c-.5922 0-1.1605-.2643-1.5366-.7205l-3.5213-4.2255c-.1201-.152-.1201-.36 0-.5122z" fill="#9f4c4d"/></g></svg>