<svg xmlns="http://www.w3.org/2000/svg" viewBox="-460.767 -3656.695 25 25"><g fill="none"><path d="M-456.427-3656.195h16.32a3.84 3.84 0 0 1 3.84 3.84v16.32a3.84 3.84 0 0 1-3.84 3.84h-16.32a3.84 3.84 0 0 1-3.84-3.84v-16.32a3.84 3.84 0 0 1 3.84-3.84z" fill="#fff"/><path d="M-456.427-3656.195h16.32a3.84 3.84 0 0 1 3.84 3.84v16.32a3.84 3.84 0 0 1-3.84 3.84h-16.32a3.84 3.84 0 0 1-3.84-3.84v-16.32a3.84 3.84 0 0 1 3.84-3.84z" stroke="#000" stroke-linecap="round" stroke-linejoin="round" stroke-width=".25"/><path d="M-450.676-3646.857h-3.369c-.738 0-1.333.596-1.333 1.334v5.333a1.33 1.33 0 0 0 1.333 1.333h11.555c.738 0 1.334-.595 1.334-1.333v-5.333c0-.738-.596-1.334-1.334-1.334h-3.555a.44.44 0 0 1-.445-.444.44.44 0 0 1 .445-.445h3.555c1.227 0 2.223.996 2.223 2.223v5.333a2.223 2.223 0 0 1-2.223 2.222h-11.555a2.223 2.223 0 0 1-2.222-2.222v-5.333c0-1.227.995-2.223 2.222-2.223h3.369l-1.902-1.911a.44.44 0 0 1 0-.631.44.44 0 0 1 .63 0l2.667 2.667a.44.44 0 0 1 0 .631l-2.666 2.666a.44.44 0 0 1-.631 0 .44.44 0 0 1 0-.63l1.91-1.912z" fill="#66727e"/></g></svg>