<?xml version="1.0" encoding="UTF-8" standalone="no"?>
<!DOCTYPE svg PUBLIC "-//W3C//DTD SVG 1.1//EN" "http://www.w3.org/Graphics/SVG/1.1/DTD/svg11.dtd">
<svg version="1.1" xmlns="http://www.w3.org/2000/svg" xmlns:xl="http://www.w3.org/1999/xlink" xmlns:dc="http://purl.org/dc/elements/1.1/" viewBox="-746.0358 -3655.327 25 25" width="25" height="25">
  <defs/>
  <g id="SOURCES" stroke-dasharray="none" fill="none" stroke="none" fill-opacity="1" stroke-opacity="1">
    <title>SOURCES</title>
    <g id="SOURCES_Calque_2">
      <title>Calque 2</title>
      <g id="Graphic_9243">
        <path d="M -741.6958 -3654.827 L -725.3758 -3654.827 C -723.255 -3654.827 -721.5358 -3653.108 -721.5358 -3650.987 L -721.5358 -3634.667 C -721.5358 -3632.5463 -723.255 -3630.827 -725.3758 -3630.827 L -741.6958 -3630.827 C -743.8166 -3630.827 -745.5358 -3632.5463 -745.5358 -3634.667 L -745.5358 -3650.987 C -745.5358 -3653.108 -743.8166 -3654.827 -741.6958 -3654.827 Z" fill="white"/>
        <path d="M -741.6958 -3654.827 L -725.3758 -3654.827 C -723.255 -3654.827 -721.5358 -3653.108 -721.5358 -3650.987 L -721.5358 -3634.667 C -721.5358 -3632.5463 -723.255 -3630.827 -725.3758 -3630.827 L -741.6958 -3630.827 C -743.8166 -3630.827 -745.5358 -3632.5463 -745.5358 -3634.667 L -745.5358 -3650.987 C -745.5358 -3653.108 -743.8166 -3654.827 -741.6958 -3654.827 Z" stroke="black" stroke-linecap="round" stroke-linejoin="round" stroke-width=".25"/>
      </g>
      <g id="Group_9299">
        <g id="Group_9294">
          <title>plus-square</title>
          <g id="Graphic_9295">
            <path d="M -741.5358 -3648.209 C -741.5358 -3649.371 -740.5926 -3650.3143 -739.4305 -3650.3143 L -727.64105 -3650.3143 C -726.47895 -3650.3143 -725.5358 -3649.371 -725.5358 -3648.209 L -725.5358 -3636.4195 C -725.5358 -3635.2574 -726.47895 -3634.3143 -727.64105 -3634.3143 L -739.4305 -3634.3143 C -740.5926 -3634.3143 -741.5358 -3635.2574 -741.5358 -3636.4195 Z M -740.6937 -3648.209 L -740.6937 -3636.4195 C -740.6937 -3635.7206 -740.1295 -3635.1564 -739.4305 -3635.1564 L -727.64105 -3635.1564 C -726.9421 -3635.1564 -726.3779 -3635.7206 -726.3779 -3636.4195 L -726.3779 -3648.209 C -726.3779 -3648.908 -726.9421 -3649.472 -727.64105 -3649.472 L -739.4305 -3649.472 C -740.1295 -3649.472 -740.6937 -3648.908 -740.6937 -3648.209 Z" fill="#518737"/>
          </g>
        </g>
        <g id="Graphic_9293">
          <path d="M -732.7021 -3638.946 L -731.43895 -3638.946 C -731.20316 -3638.946 -731.0179 -3638.7606 -731.0179 -3638.525 C -731.0179 -3638.289 -731.20316 -3638.1037 -731.43895 -3638.1037 L -734.8074 -3638.1037 C -735.04316 -3638.1037 -735.2284 -3638.289 -735.2284 -3638.525 C -735.2284 -3638.7606 -735.04316 -3638.946 -734.8074 -3638.946 L -733.5442 -3638.946 L -733.5442 -3643.1564 L -734.8074 -3643.1564 C -735.04316 -3643.1564 -735.2284 -3643.3416 -735.2284 -3643.5774 C -735.2284 -3643.813 -735.04316 -3643.9985 -734.8074 -3643.9985 L -733.12316 -3643.9985 C -732.8874 -3643.9985 -732.7021 -3643.813 -732.7021 -3643.5774 L -732.7021 -3638.946 Z" fill="#518737"/>
        </g>
        <g id="Graphic_9292">
          <path d="M -733.8863 -3646.525 L -733.2021 -3646.525 C -732.926 -3646.525 -732.7021 -3646.301 -732.7021 -3646.025 L -732.7021 -3645.3406 C -732.7021 -3645.0644 -732.926 -3644.8406 -733.2021 -3644.8406 L -733.8863 -3644.8406 C -734.16246 -3644.8406 -734.3863 -3645.0644 -734.3863 -3645.3406 L -734.3863 -3646.025 C -734.3863 -3646.301 -734.16246 -3646.525 -733.8863 -3646.525 Z" fill="#518737"/>
        </g>
      </g>
    </g>
  </g>
</svg>
