<svg xmlns="http://www.w3.org/2000/svg" viewBox="-817.353 -3654.985 25 25"><g fill="none"><path d="M-813.013-3654.485h16.32a3.84 3.84 0 0 1 3.84 3.84v16.32a3.84 3.84 0 0 1-3.84 3.84h-16.32a3.84 3.84 0 0 1-3.84-3.84v-16.32a3.84 3.84 0 0 1 3.84-3.84z" fill="#fff"/><path d="M-813.013-3654.485h16.32a3.84 3.84 0 0 1 3.84 3.84v16.32a3.84 3.84 0 0 1-3.84 3.84h-16.32a3.84 3.84 0 0 1-3.84-3.84v-16.32a3.84 3.84 0 0 1 3.84-3.84z" stroke="#000" stroke-linecap="round" stroke-linejoin="round" stroke-width=".25"/><path d="M-801.297-3649.425h-4.89c-.737 0-1.333.595-1.333 1.333v8c0 .738.596 1.333 1.334 1.333h6.222a1.33 1.33 0 0 0 1.333-1.333v-6.667h-2.222a.44.44 0 0 1-.444-.444zm3.555 2.249v7.084a2.223 2.223 0 0 1-2.222 2.222h-6.222a2.223 2.223 0 0 1-2.222-2.222v-8c0-1.227.995-2.222 2.222-2.222h5.306c.116 0 .24.035.338.133l2.667 2.667a.469.469 0 0 1 .133.338zm-2.667-.472h1.147l-1.147-1.146zm-4.888 2.667a.44.44 0 0 1-.445-.444.44.44 0 0 1 .445-.445h4.444a.44.44 0 0 1 .444.445.44.44 0 0 1-.444.444zm0 1.778a.44.44 0 0 1-.445-.445.44.44 0 0 1 .445-.444h4.444a.44.44 0 0 1 .444.444.44.44 0 0 1-.444.445zm0 1.778a.44.44 0 0 1-.445-.445.44.44 0 0 1 .445-.444h3.555a.44.44 0 0 1 .445.444.44.44 0 0 1-.445.445zm-6.667-.445a.44.44 0 0 1 .444-.444.44.44 0 0 1 .445.444v2.667a.44.44 0 0 1-.445.444.44.44 0 0 1-.444-.444zm4 7.556a.44.44 0 0 1-.444-.445.44.44 0 0 1 .444-.444h2.667a.44.44 0 0 1 .444.444.44.44 0 0 1-.444.445zm-1.778-12.445a.44.44 0 0 1 .445.445.44.44 0 0 1-.445.444c-.738 0-1.333.596-1.333 1.333a.44.44 0 0 1-.445.445.44.44 0 0 1-.444-.445c0-1.226.996-2.222 2.222-2.222zm-2.222 10.222a.44.44 0 0 1 .444-.444.44.44 0 0 1 .445.445c0 .737.595 1.333 1.333 1.333a.44.44 0 0 1 .445.444.44.44 0 0 1-.445.445 2.223 2.223 0 0 1-2.222-2.223zm8.444 2.223a.44.44 0 0 1-.444-.445.44.44 0 0 1 .444-.444c.738 0 1.334-.596 1.334-1.334a.44.44 0 0 1 .444-.444.44.44 0 0 1 .445.445 2.223 2.223 0 0 1-2.223 2.222z" fill="#5c76a1"/></g></svg>