<?xml version="1.0" encoding="UTF-8" standalone="no"?>
<!DOCTYPE svg PUBLIC "-//W3C//DTD SVG 1.1//EN" "http://www.w3.org/Graphics/SVG/1.1/DTD/svg11.dtd">
<svg version="1.1" xmlns="http://www.w3.org/2000/svg" xmlns:xl="http://www.w3.org/1999/xlink" xmlns:dc="http://purl.org/dc/elements/1.1/" viewBox="-709.0017 -3654.267 24.999996 25" width="24.999996" height="25">
  <defs/>
  <g id="SOURCES" stroke-dasharray="none" fill="none" stroke="none" fill-opacity="1" stroke-opacity="1">
    <title>SOURCES</title>
    <g id="SOURCES_Calque_2">
      <title>Calque 2</title>
      <g id="Graphic_9310">
        <circle cx="-696.5017" cy="-3641.767" r="12.0000182688381" fill="white"/>
        <circle cx="-696.5017" cy="-3641.767" r="12.0000182688381" stroke="black" stroke-linecap="round" stroke-linejoin="round" stroke-width=".25"/>
      </g>
      <g id="Graphic_9307">
        <title>?</title>
        <path d="M -693.5179 -3645.427 C -693.5179 -3647.427 -695.0579 -3648.947 -697.0979 -3648.947 C -699.2379 -3648.947 -700.6779 -3647.347 -700.6779 -3645.427 L -699.6579 -3645.427 C -699.6579 -3646.827 -698.6579 -3648.047 -697.0979 -3648.047 C -695.6379 -3648.047 -694.5379 -3646.927 -694.5379 -3645.427 C -694.5379 -3644.647 -694.8179 -3644.207 -695.2179 -3643.587 L -696.8979 -3641.107 C -697.2979 -3640.527 -697.4779 -3640.087 -697.4779 -3639.307 L -697.4779 -3638.407 L -696.4579 -3638.407 L -696.4579 -3639.347 C -696.4579 -3639.667 -696.3579 -3640.167 -696.0979 -3640.547 L -694.3979 -3643.047 C -693.8579 -3643.827 -693.5179 -3644.487 -693.5179 -3645.427 Z M -696.2979 -3634.587 L -696.2979 -3635.927 L -697.6379 -3635.927 L -697.6379 -3634.587 Z" fill="#66727e"/>
        <path d="M -693.5179 -3645.427 C -693.5179 -3647.427 -695.0579 -3648.947 -697.0979 -3648.947 C -699.2379 -3648.947 -700.6779 -3647.347 -700.6779 -3645.427 L -699.6579 -3645.427 C -699.6579 -3646.827 -698.6579 -3648.047 -697.0979 -3648.047 C -695.6379 -3648.047 -694.5379 -3646.927 -694.5379 -3645.427 C -694.5379 -3644.647 -694.8179 -3644.207 -695.2179 -3643.587 L -696.8979 -3641.107 C -697.2979 -3640.527 -697.4779 -3640.087 -697.4779 -3639.307 L -697.4779 -3638.407 L -696.4579 -3638.407 L -696.4579 -3639.347 C -696.4579 -3639.667 -696.3579 -3640.167 -696.0979 -3640.547 L -694.3979 -3643.047 C -693.8579 -3643.827 -693.5179 -3644.487 -693.5179 -3645.427 Z M -696.2979 -3634.587 L -696.2979 -3635.927 L -697.6379 -3635.927 L -697.6379 -3634.587 Z" stroke="#66727e" stroke-linecap="round" stroke-linejoin="round" stroke-width=".25"/>
      </g>
    </g>
  </g>
</svg>
