<svg height="25" viewBox="-318.133 -3657.378 25 25" width="25" xmlns="http://www.w3.org/2000/svg"><g fill="none"><path d="M-313.793-3656.878h16.32a3.84 3.84 0 0 1 3.84 3.84v16.32a3.84 3.84 0 0 1-3.84 3.84h-16.32a3.84 3.84 0 0 1-3.84-3.84v-16.32a3.84 3.84 0 0 1 3.84-3.84z" fill="#fff"/><path d="M-313.793-3656.878h16.32a3.84 3.84 0 0 1 3.84 3.84v16.32a3.84 3.84 0 0 1-3.84 3.84h-16.32a3.84 3.84 0 0 1-3.84-3.84v-16.32a3.84 3.84 0 0 1 3.84-3.84z" stroke="#000" stroke-linecap="round" stroke-linejoin="round" stroke-width=".25"/><path d="M-313.633-3650.773c0-1.162.943-2.105 2.105-2.105h11.79c1.162 0 2.105.943 2.105 2.105v11.79a2.106 2.106 0 0 1-2.105 2.105h-11.79a2.106 2.106 0 0 1-2.105-2.106zm.842 0v11.79c0 .698.564 1.263 1.263 1.263h11.79c.699 0 1.263-.565 1.263-1.264v-11.789c0-.699-.564-1.263-1.263-1.263h-11.79c-.699 0-1.263.564-1.263 1.263z" fill="#518737"/><path d="M-302.88-3641.771a4.385 4.385 0 0 0 1.651-3.444 4.414 4.414 0 0 0-4.135-4.404.281.281 0 0 1-.26-.295.28.28 0 0 1 .294-.261 4.961 4.961 0 0 1 4.657 4.951c0 1.525-.69 2.931-1.844 3.857h1.566a.28.28 0 0 1 .278.278.28.28 0 0 1-.278.278h-2.206a.28.28 0 0 1-.278-.278v-2.206a.28.28 0 0 1 .278-.278.28.28 0 0 1 .278.278v1.516zm-5.507-6.888a4.385 4.385 0 0 0-1.65 3.444 4.412 4.412 0 0 0 4.16 4.404c.151.008.27.135.26.295a.276.276 0 0 1-.294.261 4.959 4.959 0 0 1-4.674-4.952c0-1.524.69-2.93 1.845-3.857h-1.567c-.151 0-.278-.126-.278-.278s.127-.277.278-.277h2.207a.28.28 0 0 1 .278.277v2.207a.28.28 0 0 1-.278.278.28.28 0 0 1-.278-.278v-1.516z" fill="#518737"/><path d="M-302.88-3641.771a4.385 4.385 0 0 0 1.651-3.444 4.414 4.414 0 0 0-4.135-4.404.281.281 0 0 1-.26-.295.28.28 0 0 1 .294-.261 4.961 4.961 0 0 1 4.657 4.951c0 1.525-.69 2.931-1.844 3.857h1.566a.28.28 0 0 1 .278.278.28.28 0 0 1-.278.278h-2.206a.28.28 0 0 1-.278-.278v-2.206a.28.28 0 0 1 .278-.278.28.28 0 0 1 .278.278v1.516zm-5.507-6.888a4.385 4.385 0 0 0-1.65 3.444 4.412 4.412 0 0 0 4.16 4.404c.151.008.27.135.26.295a.276.276 0 0 1-.294.261 4.959 4.959 0 0 1-4.674-4.952c0-1.524.69-2.93 1.845-3.857h-1.567c-.151 0-.278-.126-.278-.278s.127-.277.278-.277h2.207a.28.28 0 0 1 .278.277v2.207a.28.28 0 0 1-.278.278.28.28 0 0 1-.278-.278v-1.516z" stroke="#518737" stroke-linejoin="round" stroke-width=".25"/></g></svg>