<svg xmlns="http://www.w3.org/2000/svg" viewBox="-133.318 -3656.935 25 25"><g fill="none"><path d="M-128.978-3656.435h16.32a3.84 3.84 0 0 1 3.84 3.84v16.32a3.84 3.84 0 0 1-3.84 3.84h-16.32a3.84 3.84 0 0 1-3.84-3.84v-16.32a3.84 3.84 0 0 1 3.84-3.84z" fill="#fff"/><path d="M-128.978-3656.435h16.32a3.84 3.84 0 0 1 3.84 3.84v16.32a3.84 3.84 0 0 1-3.84 3.84h-16.32a3.84 3.84 0 0 1-3.84-3.84v-16.32a3.84 3.84 0 0 1 3.84-3.84z" stroke="#000" stroke-linecap="round" stroke-linejoin="round" stroke-width=".25"/><path d="M-127.946-3644.661a.472.472 0 0 1-.8-.499 8.498 8.498 0 0 1 7.197-3.98h.264c4.497 0 8.213 3.52 8.458 7.998 0 .113.009.715.009 1.881 0 .264-.207.47-.47.47a.466.466 0 0 1-.47-.47c0-1.12 0-1.75-.01-1.834-.217-3.98-3.519-7.104-7.517-7.104h-.264a7.53 7.53 0 0 0-6.388 3.538zm4.308-.715c.264 0 .47.207.47.47 0 .264-.206.47-.47.47h-4.704a.466.466 0 0 1-.47-.47v-4.704c0-.263.207-.47.47-.47.264 0 .47.207.47.47v4.234z" fill="#9f4c4d"/></g></svg>