<svg xmlns="http://www.w3.org/2000/svg" viewBox="-884.358 -3555.294 24.75 24.75"><g fill="none"><circle cx="-871.983" cy="-3542.919" r="8" fill="#666"/><circle cx="-871.983" cy="-3542.919" r="8"/><circle cx="-871.983" cy="-3542.919" r="8" fill="#fff"/><circle cx="-871.983" cy="-3542.919" r="8"/><g fill="#5d76a1"><path d="M-863.983-3542.919c0 4.421-3.579 8-8 8-4.42 0-8-3.579-8-8 0-4.42 3.58-8 8-8 4.421 0 8 3.58 8 8zm-.842 0a7.163 7.163 0 0 0-7.158-7.158 7.163 7.163 0 0 0-7.158 7.158 7.163 7.163 0 0 0 7.158 7.158 7.162 7.162 0 0 0 7.158-7.158z"/><path d="M-873.524-3540.25a.425.425 0 0 1-.042.599.425.425 0 0 1-.598-.042l-2.526-2.948a.42.42 0 0 1 0-.547l2.526-2.947a.425.425 0 0 1 .598-.043.425.425 0 0 1 .042.598l-2.29 2.67 2.29 2.669zm5.381-2.669-2.29-2.669a.425.425 0 0 1 .042-.598.425.425 0 0 1 .598.042l2.526 2.947a.421.421 0 0 1 0 .548l-2.526 2.947a.425.425 0 0 1-.598.042.425.425 0 0 1-.042-.598l2.29-2.669z"/></g></g></svg>