<svg height="24.75" viewBox="-884.358 -3555.294 24.75 24.75" width="24.75" xmlns="http://www.w3.org/2000/svg"><g fill="none"><circle cx="-871.983" cy="-3542.919" fill="#666" r="8"/><circle cx="-871.983" cy="-3542.919" r="8"/><circle cx="-871.983" cy="-3542.919" fill="#fff" r="8"/><circle cx="-871.983" cy="-3542.919" r="8"/><g fill="#5d76a1"><path d="m-863.9828-3542.9187c0 4.4211-3.5789 8-8 8-4.421 0-8-3.5789-8-8s3.579-8 8-8c4.4211 0 8 3.5789 8 8zm-.8421 0c0-3.9493-3.2084-7.1579-7.1579-7.1579-3.9494 0-7.1579 3.2086-7.1579 7.1579 0 3.9495 3.2085 7.1577 7.1579 7.1577 3.9495 0 7.1579-3.2082 7.1579-7.1577z"/><path d="m-873.5238-3540.2492c.1516.1768.1347.4462-.0421.5979-.1769.1515-.4463.1347-.5979-.0421l-2.5263-2.9476c-.1348-.16-.1348-.387 0-.547l2.5263-2.9475c.1516-.1769.421-.1937.5979-.0421.1768.1516.1937.421.0421.5978l-2.2905 2.6695 2.2905 2.6693z"/><path d="m-868.1428-3542.9187-2.2905-2.6693c-.1516-.177-.1347-.4465.0421-.598.1769-.1516.4463-.135.5979.042l2.5263 2.9474c.1348.16.1348.3874 0 .5474l-2.5263 2.9472c-.1516.177-.421.194-.5979.0422-.1768-.1515-.1937-.4212-.0421-.5978l2.2905-2.6694z"/></g></g></svg>