<svg height="25" viewBox="-821.389 -3685.5 25 25" width="25" xmlns="http://www.w3.org/2000/svg"><g fill="none"><path d="m-817.0489-3685h16.32c2.1208 0 3.84 1.7192 3.84 3.84v16.32c0 2.1208-1.7192 3.84-3.84 3.84h-16.32c-2.1208 0-3.84-1.7192-3.84-3.84v-16.32c0-2.1208 1.7192-3.84 3.84-3.84z" fill="#fff"/><path d="m-817.0489-3685h16.32c2.1208 0 3.84 1.7192 3.84 3.84v16.32c0 2.1208-1.7192 3.84-3.84 3.84h-16.32c-2.1208 0-3.84-1.7192-3.84-3.84v-16.32c0-2.1208 1.7192-3.84 3.84-3.84z" stroke="#000" stroke-linecap="round" stroke-linejoin="round" stroke-width=".25"/><path d="m-813.073-3667.6667 10.2222-10.2223-2.0381-2.038-10.2222 10.222v2.0383zm-2.927.4445v-2.6668c0-.1178.0468-.231.1302-.314l10.6666-10.667c.1736-.1734.455-.1734.6286 0l2.6666 2.667c.1736.1734.1736.455 0 .6284l-10.6666 10.6666c-.0834.0834-.1964.1302-.3143.1302h-2.6667c-.2454 0-.4444-.199-.4444-.4444zm.4444 2.2222c-.2454 0-.4444-.199-.4444-.4444 0-.2456.199-.4446.4444-.4446h8.8951c.2455 0 .44445.199.44445.4446 0 .2454-.19895.4444-.44445.4444z" fill="#5c76a2"/></g></svg>