<svg height="25" viewBox="-910.181 -3707.499 25 25" width="25" xmlns="http://www.w3.org/2000/svg"><g fill="none"><path d="M-905.84-3706.999h16.32a3.84 3.84 0 0 1 3.84 3.84v16.32a3.84 3.84 0 0 1-3.84 3.84h-16.32a3.84 3.84 0 0 1-3.84-3.84v-16.32a3.84 3.84 0 0 1 3.84-3.84z" fill="#fff"/><path d="M-905.84-3706.999h16.32a3.84 3.84 0 0 1 3.84 3.84v16.32a3.84 3.84 0 0 1-3.84 3.84h-16.32a3.84 3.84 0 0 1-3.84-3.84v-16.32a3.84 3.84 0 0 1 3.84-3.84z" stroke="#000" stroke-linecap="round" stroke-linejoin="round" stroke-width=".25"/><path d="M-895.846-3694.999h-6.235a.4.4 0 0 1 0-.8h6.235l-1.718-1.717a.4.4 0 0 1 .566-.565l2.4 2.4a.4.4 0 0 1 0 .565l-2.4 2.4a.4.4 0 0 1-.566-.565zm-3.435-5.2a.4.4 0 1 1-.8 0 2 2 0 0 1 2-2h6.4a2 2 0 0 1 2 2v10.4a2 2 0 0 1-2 2h-6.4a2 2 0 0 1-2-2 .4.4 0 1 1 .8 0 1.2 1.2 0 0 0 1.2 1.2h6.4a1.2 1.2 0 0 0 1.2-1.2v-10.4a1.2 1.2 0 0 0-1.2-1.2h-6.4a1.2 1.2 0 0 0-1.2 1.2zm-2 11.6a.4.4 0 1 1 0 .8h-2.4a2 2 0 0 1-2-2v-10.4a2 2 0 0 1 2-2h2.4a.4.4 0 1 1 0 .8h-2.4a1.2 1.2 0 0 0-1.2 1.2v10.4a1.2 1.2 0 0 0 1.2 1.2z" fill="#5a76a2"/></g></svg>