<?xml version="1.0" encoding="UTF-8" standalone="no"?>
<!DOCTYPE svg PUBLIC "-//W3C//DTD SVG 1.1//EN" "http://www.w3.org/Graphics/SVG/1.1/DTD/svg11.dtd">
<svg version="1.1" xmlns="http://www.w3.org/2000/svg" xmlns:xl="http://www.w3.org/1999/xlink" xmlns:dc="http://purl.org/dc/elements/1.1/" viewBox="-821.3889 -3685.5 25 25" width="25" height="25">
  <defs/>
  <g id="SOURCES" stroke-dasharray="none" fill="none" stroke="none" fill-opacity="1" stroke-opacity="1">
    <title>SOURCES</title>
    <g id="SOURCES_Calque_1">
      <title>Calque 1</title>
      <g id="Graphic_6413">
        <title>views/view.other</title>
        <path d="M -817.0489 -3685 L -800.7289 -3685 C -798.6081 -3685 -796.8889 -3683.2808 -796.8889 -3681.16 L -796.8889 -3664.84 C -796.8889 -3662.7192 -798.6081 -3661 -800.7289 -3661 L -817.0489 -3661 C -819.1697 -3661 -820.8889 -3662.7192 -820.8889 -3664.84 L -820.8889 -3681.16 C -820.8889 -3683.2808 -819.1697 -3685 -817.0489 -3685 Z" fill="white"/>
        <path d="M -817.0489 -3685 L -800.7289 -3685 C -798.6081 -3685 -796.8889 -3683.2808 -796.8889 -3681.16 L -796.8889 -3664.84 C -796.8889 -3662.7192 -798.6081 -3661 -800.7289 -3661 L -817.0489 -3661 C -819.1697 -3661 -820.8889 -3662.7192 -820.8889 -3664.84 L -820.8889 -3681.16 C -820.8889 -3683.2808 -819.1697 -3685 -817.0489 -3685 Z" stroke="black" stroke-linecap="round" stroke-linejoin="round" stroke-width=".25"/>
      </g>
      <g id="Graphic_6412">
        <path d="M -813.073 -3667.6667 L -802.8508 -3677.889 L -804.8889 -3679.927 L -815.1111 -3669.705 L -815.1111 -3667.6667 Z M -816 -3667.2222 L -816 -3669.889 C -816 -3670.0068 -815.9532 -3670.12 -815.8698 -3670.203 L -805.2032 -3680.87 C -805.0296 -3681.0434 -804.7482 -3681.0434 -804.5746 -3680.87 L -801.908 -3678.203 C -801.7344 -3678.0296 -801.7344 -3677.748 -801.908 -3677.5746 L -812.5746 -3666.908 C -812.658 -3666.8246 -812.771 -3666.7778 -812.8889 -3666.7778 L -815.5556 -3666.7778 C -815.801 -3666.7778 -816 -3666.9768 -816 -3667.2222 Z M -815.5556 -3665 C -815.801 -3665 -816 -3665.199 -816 -3665.4444 C -816 -3665.69 -815.801 -3665.889 -815.5556 -3665.889 L -806.6605 -3665.889 C -806.415 -3665.889 -806.21605 -3665.69 -806.21605 -3665.4444 C -806.21605 -3665.199 -806.415 -3665 -806.6605 -3665 Z" fill="#5c76a2"/>
      </g>
    </g>
  </g>
</svg>
