<svg height="25" viewBox="-794.181 -3702.067 25 25" width="25" xmlns="http://www.w3.org/2000/svg"><g fill="none"><path d="m-789.8407-3701.5673h16.32c2.1208 0 3.84 1.7193 3.84 3.84v16.32c0 2.1207-1.7192 3.84-3.84 3.84h-16.32c-2.1207 0-3.84-1.7193-3.84-3.84v-16.32c0-2.1207 1.7193-3.84 3.84-3.84z" fill="#fff"/><path d="m-789.8407-3701.5673h16.32c2.1208 0 3.84 1.7193 3.84 3.84v16.32c0 2.1207-1.7192 3.84-3.84 3.84h-16.32c-2.1207 0-3.84-1.7193-3.84-3.84v-16.32c0-2.1207 1.7193-3.84 3.84-3.84z" stroke="#000" stroke-linecap="round" stroke-linejoin="round" stroke-width=".25"/><path d="m-789.6536-3689.712c1.7074-4.4033 6.66115-6.5888 11.0645-4.8813 2.2408.8688 4.0125 2.6406 4.8814 4.8813.0361.093.0361.1962 0 .2893-1.7074 4.4033-6.6612 6.5887-11.0645 4.8814-2.2408-.8687-4.0125-2.6407-4.8814-4.8814-.0361-.0931-.0361-.1963 0-.2893zm5.1706 4.425c3.9429 1.5287 8.3726-.386 9.9717-4.2803-.8067-1.9627-2.3843-3.5113-4.367-4.2802-3.9429-1.5288-8.37265.3857-9.9717 4.2801.8067 1.9627 2.3843 3.5114 4.367 4.2804zm2.8023-1.0803c-1.7673 0-3.2-1.4327-3.2-3.2s1.4327-3.2 3.2-3.2c1.76735 0 3.2 1.4327 3.2 3.2s-1.43265 3.2-3.2 3.2zm0-.8c1.3255 0 2.4-1.0747 2.4-2.4 0-1.3257-1.0745-2.4-2.4-2.4-1.3254 0-2.4 1.0743-2.4 2.4 0 1.3253 1.0746 2.4 2.4 2.4z" fill="#5c76a2"/></g></svg>