<?xml version="1.0" encoding="UTF-8" standalone="no"?>
<!DOCTYPE svg PUBLIC "-//W3C//DTD SVG 1.1//EN" "http://www.w3.org/Graphics/SVG/1.1/DTD/svg11.dtd">
<svg version="1.1" xmlns="http://www.w3.org/2000/svg" xmlns:xl="http://www.w3.org/1999/xlink" xmlns:dc="http://purl.org/dc/elements/1.1/" viewBox="-794.1807 -3702.0673 25 25" width="25" height="25">
  <defs/>
  <g id="SOURCES" stroke-dasharray="none" fill="none" stroke="none" fill-opacity="1" stroke-opacity="1">
    <title>SOURCES</title>
    <g id="SOURCES_Calque_1">
      <title>Calque 1</title>
      <g id="Graphic_6392">
        <title>views/view.other</title>
        <path d="M -789.8407 -3701.5673 L -773.5207 -3701.5673 C -771.3999 -3701.5673 -769.6807 -3699.848 -769.6807 -3697.7273 L -769.6807 -3681.4073 C -769.6807 -3679.2866 -771.3999 -3677.5673 -773.5207 -3677.5673 L -789.8407 -3677.5673 C -791.9614 -3677.5673 -793.6807 -3679.2866 -793.6807 -3681.4073 L -793.6807 -3697.7273 C -793.6807 -3699.848 -791.9614 -3701.5673 -789.8407 -3701.5673 Z" fill="white"/>
        <path d="M -789.8407 -3701.5673 L -773.5207 -3701.5673 C -771.3999 -3701.5673 -769.6807 -3699.848 -769.6807 -3697.7273 L -769.6807 -3681.4073 C -769.6807 -3679.2866 -771.3999 -3677.5673 -773.5207 -3677.5673 L -789.8407 -3677.5673 C -791.9614 -3677.5673 -793.6807 -3679.2866 -793.6807 -3681.4073 L -793.6807 -3697.7273 C -793.6807 -3699.848 -791.9614 -3701.5673 -789.8407 -3701.5673 Z" stroke="black" stroke-linecap="round" stroke-linejoin="round" stroke-width=".25"/>
      </g>
      <g id="Graphic_6391">
        <path d="M -789.6536 -3689.712 C -787.9462 -3694.1153 -782.99245 -3696.3008 -778.5891 -3694.5933 C -776.3483 -3693.7245 -774.5766 -3691.9527 -773.7077 -3689.712 C -773.6716 -3689.619 -773.6716 -3689.5158 -773.7077 -3689.4227 C -775.4151 -3685.0194 -780.3689 -3682.834 -784.7722 -3684.5413 C -787.013 -3685.41 -788.7847 -3687.182 -789.6536 -3689.4227 C -789.6897 -3689.5158 -789.6897 -3689.619 -789.6536 -3689.712 Z M -784.483 -3685.287 C -780.5401 -3683.7583 -776.1104 -3685.673 -774.5113 -3689.5673 C -775.318 -3691.53 -776.8956 -3693.0786 -778.8783 -3693.8475 C -782.8212 -3695.3763 -787.25095 -3693.4618 -788.85 -3689.5674 C -788.0433 -3687.6047 -786.4657 -3686.056 -784.483 -3685.287 Z M -781.6807 -3686.3673 C -783.448 -3686.3673 -784.8807 -3687.8 -784.8807 -3689.5673 C -784.8807 -3691.3346 -783.448 -3692.7673 -781.6807 -3692.7673 C -779.91335 -3692.7673 -778.4807 -3691.3346 -778.4807 -3689.5673 C -778.4807 -3687.8 -779.91335 -3686.3673 -781.6807 -3686.3673 Z M -781.6807 -3687.1673 C -780.3552 -3687.1673 -779.2807 -3688.242 -779.2807 -3689.5673 C -779.2807 -3690.893 -780.3552 -3691.9673 -781.6807 -3691.9673 C -783.0061 -3691.9673 -784.0807 -3690.893 -784.0807 -3689.5673 C -784.0807 -3688.242 -783.0061 -3687.1673 -781.6807 -3687.1673 Z" fill="#5c76a2"/>
      </g>
    </g>
  </g>
</svg>
