<svg height="25" viewBox="-821.389 -3685.5 25 25" width="25" xmlns="http://www.w3.org/2000/svg"><g fill="none"><path d="M-817.049-3685h16.32a3.84 3.84 0 0 1 3.84 3.84v16.32a3.84 3.84 0 0 1-3.84 3.84h-16.32a3.84 3.84 0 0 1-3.84-3.84v-16.32a3.84 3.84 0 0 1 3.84-3.84z" fill="#fff"/><path d="M-817.049-3685h16.32a3.84 3.84 0 0 1 3.84 3.84v16.32a3.84 3.84 0 0 1-3.84 3.84h-16.32a3.84 3.84 0 0 1-3.84-3.84v-16.32a3.84 3.84 0 0 1 3.84-3.84z" stroke="#000" stroke-linecap="round" stroke-linejoin="round" stroke-width=".25"/><path d="M-813.073-3667.667l10.222-10.222-2.038-2.038-10.222 10.222v2.038zm-2.927.445v-2.667c0-.118.047-.231.13-.314l10.667-10.667a.445.445 0 0 1 .628 0l2.667 2.667a.444.444 0 0 1 0 .628l-10.667 10.667a.444.444 0 0 1-.314.13h-2.667a.444.444 0 0 1-.444-.444zm.444 2.222a.444.444 0 0 1 0-.889h8.896a.444.444 0 0 1 0 .889z" fill="#5c76a2"/></g></svg>