<svg xmlns="http://www.w3.org/2000/svg" viewBox="-794.181 -3702.067 25 25"><g fill="none"><path d="M-789.84-3701.567h16.32a3.84 3.84 0 0 1 3.84 3.84v16.32a3.84 3.84 0 0 1-3.84 3.84h-16.32a3.84 3.84 0 0 1-3.84-3.84v-16.32a3.84 3.84 0 0 1 3.84-3.84z" fill="#fff"/><path d="M-789.84-3701.567h16.32a3.84 3.84 0 0 1 3.84 3.84v16.32a3.84 3.84 0 0 1-3.84 3.84h-16.32a3.84 3.84 0 0 1-3.84-3.84v-16.32a3.84 3.84 0 0 1 3.84-3.84z" stroke="#000" stroke-linecap="round" stroke-linejoin="round" stroke-width=".25"/><path d="M-789.654-3689.712a8.551 8.551 0 0 1 15.946 0 .4.4 0 0 1 0 .29 8.551 8.551 0 0 1-15.946 0 .4.4 0 0 1 0-.29zm5.171 4.425a7.752 7.752 0 0 0 9.972-4.28 7.752 7.752 0 0 0-14.339 0 7.752 7.752 0 0 0 4.367 4.28zm2.802-1.08a3.2 3.2 0 1 1 0-6.4 3.2 3.2 0 0 1 0 6.4zm0-.8a2.4 2.4 0 1 0 0-4.8 2.4 2.4 0 0 0 0 4.8z" fill="#5c76a2"/></g></svg>