<svg height="25" viewBox="-908.7 -3666.75 25 25" width="25" xmlns="http://www.w3.org/2000/svg"><g fill="none"><path d="m-904.36-3666.25h16.32c2.1208 0 3.84 1.7192 3.84 3.84v16.32c0 2.1208-1.7192 3.84-3.84 3.84h-16.32c-2.1208 0-3.84-1.7192-3.84-3.84v-16.32c0-2.1208 1.7192-3.84 3.84-3.84z" fill="#fff"/><path d="m-904.36-3666.25h16.32c2.1208 0 3.84 1.7192 3.84 3.84v16.32c0 2.1208-1.7192 3.84-3.84 3.84h-16.32c-2.1208 0-3.84-1.7192-3.84-3.84v-16.32c0-2.1208 1.7192-3.84 3.84-3.84z" stroke="#000" stroke-linecap="round" stroke-linejoin="round" stroke-width=".25"/><path d="m-898.6063-3656.9167h-3.3715c-.7364 0-1.3333.597-1.3333 1.3334v5.3333c0 .7364.5969 1.3333 1.3333 1.3333h11.5556c.7364 0 1.3333-.5969 1.3333-1.3333v-5.3333c0-.7364-.5969-1.3334-1.3333-1.3334h-3.5556c-.2454 0-.4444-.1989-.4444-.4443 0-.2456.199-.4446.4444-.4446h3.5556c1.2273 0 2.2222.995 2.2222 2.2223v5.3333c0 1.2273-.9949 2.2222-2.2222 2.2222h-11.5556c-1.2273 0-2.2222-.9949-2.2222-2.2222v-5.3333c0-1.2273.9949-2.2223 2.2222-2.2223h3.3715l-1.908-1.9079c-.1735-.1735-.1735-.455 0-.6285.1736-.1736.455-.1736.6286 0l2.6666 2.6666c.1736.1734.1736.455 0 .6284l-2.6666 2.667c-.1736.1734-.455.1734-.6286 0-.1735-.1737-.1735-.455 0-.6287z" fill="#5c76a1"/></g></svg>