<svg height="25" viewBox="-910.181 -3707.499 25 25" width="25" xmlns="http://www.w3.org/2000/svg"><g fill="none"><path d="m-905.8407-3706.9985h16.32c2.1208 0 3.84 1.7192 3.84 3.84v16.32c0 2.1207-1.7192 3.84-3.84 3.84h-16.32c-2.1207 0-3.84-1.7193-3.84-3.84v-16.32c0-2.1208 1.7193-3.84 3.84-3.84z" fill="#fff"/><path d="m-905.8407-3706.9985h16.32c2.1208 0 3.84 1.7192 3.84 3.84v16.32c0 2.1207-1.7192 3.84-3.84 3.84h-16.32c-2.1207 0-3.84-1.7193-3.84-3.84v-16.32c0-2.1208 1.7193-3.84 3.84-3.84z" stroke="#000" stroke-linecap="round" stroke-linejoin="round" stroke-width=".25"/><path d="m-895.8463-3694.9985h-6.2344c-.2209 0-.4-.1791-.4-.4 0-.221.1791-.4.4-.4h6.2344l-1.7172-1.7172c-.1562-.1563-.1562-.4093 0-.5657.1562-.1562.4095-.1562.5657 0l2.4 2.4c.1562.1564.1562.4094 0 .5657l-2.4 2.4c-.1562.1562-.4095.1562-.5657 0-.1562-.1563-.1562-.4093 0-.5657zm-3.4344-5.2c0 .2209-.179.4-.4.4-.2209 0-.4-.1791-.4-.4 0-1.1045.8955-2 2-2h6.4c1.1046 0 2 .8955 2 2v10.4c0 1.1045-.8954 2-2 2h-6.4c-1.1045 0-2-.8955-2-2 0-.221.1791-.4.4-.4.221 0 .4.179.4.4 0 .6625.5373 1.2 1.2 1.2h6.4c.6628 0 1.2-.5375 1.2-1.2v-10.4c0-.6628-.5372-1.2-1.2-1.2h-6.4c-.6627 0-1.2.5372-1.2 1.2zm-2 11.6c.221 0 .4.179.4.4 0 .2209-.179.4-.4.4h-2.4c-1.1045 0-2-.8955-2-2v-10.4c0-1.1045.8955-2 2-2h2.4c.221 0 .4.179.4.4 0 .2209-.179.4-.4.4h-2.4c-.6627 0-1.2.5372-1.2 1.2v10.4c0 .6625.5373 1.2 1.2 1.2z" fill="#5a76a2"/></g></svg>