<svg height="24.750025" viewBox="-624.7605 -3558.654 24.750035 24.750025" width="24.750035" xmlns="http://www.w3.org/2000/svg"><g fill="none"><path d="m-623.1855-3554.519 10.08-.48 2.4 3.36 9.12.72v13.44h-21.6z" fill="#fff"/><path d="m-621.3855-3554.4647c-.9941 0-1.8.8057-1.8 1.8v13.2c0 .9941.8059 1.8 1.8 1.8h18c.99414 0 1.8-.8059 1.8-1.8v-9.6c0-.9943-.80586-1.8-1.8-1.8h-6.6c-1.32546 0-2.4-1.0743-2.4-2.4 0-.6627-.53724-1.2-1.2-1.2zm0-1.2h7.8c1.3255 0 2.4 1.0747 2.4 2.4 0 .6627.5373 1.2 1.2 1.2h6.6c1.6569 0 3 1.3432 3 3v9.6c0 1.6567-1.3431 3-3 3h-18c-1.65684 0-3-1.3433-3-3v-13.2c0-1.6568 1.34316-3 3-3z" fill="#ccc"/><path d="m-613.7545-3543.443h9.4422v-4.225c0-.5394-.4519-.975-1.0117-.975h-7.4188c-.5598 0-1.0117.4356-1.0117.975zm10.1166.26 1.26796 2.938c.05394.117.08094.247.08094.377 0 .5396-.4519.975-1.0117.975h-11.46545c-.13489 0-.26305-.026-.39115-.078-.5126-.208-.76214-.78-.5463-1.274l1.2679-2.938v-4.485c0-.897.7554-1.625 1.6861-1.625h7.4189c.9307 0 1.6861.728 1.6861 1.625v4.485zm-10.23124.39-1.20726 2.8016c-.0742.1624.00675.3574.1821.4224.0405.0196.0877.026.12815.026h11.46545c.1889 0 .33725-.143.33725-.325 0-.0454-.00675-.0844-.02695-.1234l-1.2073-2.8016zm1.12634 1.3c-.1889 0-.33725-.143-.33725-.325s.14835-.325.33725-.325h.6744c.18885 0 .3372.143.3372.325s-.14835.325-.3372.325zm-.6745 1.3c-.1888 0-.3372-.143-.3372-.325s.1484-.325.3372-.325h.6745c.1888 0 .3372.143.3372.325s-.1484.325-.3372.325zm2.02335 0c-.18885 0-.33725-.143-.33725-.325s.1484-.325.33725-.325h2.69775c.18885 0 .3372.143.3372.325s-.14835.325-.3372.325zm4.04665 0c-.18885 0-.3372-.143-.3372-.325s.14835-.325.3372-.325h.6744c.1889 0 .33725.143.33725.325s-.14835.325-.33725.325zm2.0233 0c-.1888 0-.3372-.143-.3372-.325s.1484-.325.3372-.325h.67445c.18885 0 .33725.143.33725.325s-.1484.325-.33725.325zm-5.3955-1.3c-.18885 0-.3372-.143-.3372-.325s.14835-.325.3372-.325h.6744c.1889 0 .33725.143.33725.325s-.14835.325-.33725.325zm2.0233 0c-.1888 0-.3372-.143-.3372-.325s.1484-.325.3372-.325h.67445c.18885 0 .33725.143.33725.325s-.1484.325-.33725.325zm2.0233 0c-.1888 0-.3372-.143-.3372-.325s.1484-.325.3372-.325h.6745c.1888 0 .3372.143.3372.325s-.1484.325-.3372.325z" fill="#666"/><path d="m-613.7545-3543.443h9.4422v-4.225c0-.5394-.4519-.975-1.0117-.975h-7.4188c-.5598 0-1.0117.4356-1.0117.975zm10.1166.26 1.26796 2.938c.05394.117.08094.247.08094.377 0 .5396-.4519.975-1.0117.975h-11.46545c-.13489 0-.26305-.026-.39115-.078-.5126-.208-.76214-.78-.5463-1.274l1.2679-2.938v-4.485c0-.897.7554-1.625 1.6861-1.625h7.4189c.9307 0 1.6861.728 1.6861 1.625v4.485zm-10.23124.39-1.20726 2.8016c-.0742.1624.00675.3574.1821.4224.0405.0196.0877.026.12815.026h11.46545c.1889 0 .33725-.143.33725-.325 0-.0454-.00675-.0844-.02695-.1234l-1.2073-2.8016zm1.12634 1.3c-.1889 0-.33725-.143-.33725-.325s.14835-.325.33725-.325h.6744c.18885 0 .3372.143.3372.325s-.14835.325-.3372.325zm-.6745 1.3c-.1888 0-.3372-.143-.3372-.325s.1484-.325.3372-.325h.6745c.1888 0 .3372.143.3372.325s-.1484.325-.3372.325zm2.02335 0c-.18885 0-.33725-.143-.33725-.325s.1484-.325.33725-.325h2.69775c.18885 0 .3372.143.3372.325s-.14835.325-.3372.325zm4.04665 0c-.18885 0-.3372-.143-.3372-.325s.14835-.325.3372-.325h.6744c.1889 0 .33725.143.33725.325s-.14835.325-.33725.325zm2.0233 0c-.1888 0-.3372-.143-.3372-.325s.1484-.325.3372-.325h.67445c.18885 0 .33725.143.33725.325s-.1484.325-.33725.325zm-5.3955-1.3c-.18885 0-.3372-.143-.3372-.325s.14835-.325.3372-.325h.6744c.1889 0 .33725.143.33725.325s-.14835.325-.33725.325zm2.0233 0c-.1888 0-.3372-.143-.3372-.325s.1484-.325.3372-.325h.67445c.18885 0 .33725.143.33725.325s-.1484.325-.33725.325zm2.0233 0c-.1888 0-.3372-.143-.3372-.325s.1484-.325.3372-.325h.6745c.1888 0 .3372.143.3372.325s-.1484.325-.3372.325z" stroke="#666" stroke-linejoin="round" stroke-width=".25"/></g></svg>