<svg height="24.750025" viewBox="-690.8719 -3536.262 24.750035 24.750025" width="24.750035" xmlns="http://www.w3.org/2000/svg"><g fill="none"><path d="m-689.2969-3532.4004 10.08-.48 2.4 3.36 9.12.72v13.4401h-21.6z" fill="#fff"/><path d="m-687.4969-3532.346c-.9941 0-1.8.806-1.8 1.8v13.2c0 .9942.8059 1.8 1.8 1.8h18c.9941 0 1.8-.8058 1.8-1.8v-9.6c0-.994-.8059-1.8-1.8-1.8h-6.6c-1.3255 0-2.4-1.0744-2.4-2.4 0-.6627-.5373-1.2-1.2-1.2zm0-1.2h7.8c1.3255 0 2.4 1.0746 2.4 2.4 0 .663.53725 1.2 1.2 1.2h6.6c1.65685 0 3 1.3432 3 3v9.6c0 1.657-1.34315 3-3 3h-18c-1.6569 0-3-1.343-3-3v-13.2c0-1.6568 1.3431-3 3-3z" fill="#ccc"/><path d="m-669.6936-3523.218v-.6746c0-.5589-.453-1.0119-1.0119-1.0119h-3.7104c-.7452 0-1.3493-.6041-1.3493-1.3495 0-.3724-.302-.6744-.6746-.6744h-4.385c-.5589 0-1.01195.453-1.01195 1.0119v7.4208c0 .5589.45305 1.012 1.01195 1.012h.6746c.5589 0 1.0119-.4531 1.0119-1.012v-3.3731c0-.9314.7551-1.6865 1.6866-1.6865h6.7462c.3797 0 .73005.1253 1.0119.3373zm0 1.3492c0-.5588-.453-1.0119-1.0119-1.0119h-6.7462c-.5589 0-1.01195.4531-1.01195 1.0119v3.3731c0 .3797-.12545.7301-.33715 1.012h8.0953c.5589 0 1.0119-.4531 1.0119-1.012zm-11.1312-5.7342h4.385c.7452 0 1.34926.604 1.34926 1.349 0 .373.30204.675.67464.675h3.7104c.93145 0 1.68654.755 1.68654 1.6864v5.3969c0 .9317-.75509 1.6867-1.68654 1.6867h-10.1193c-.9315 0-1.6866-.755-1.6866-1.6867v-7.4208c0-.9315.7551-1.6865 1.6866-1.6865z" fill="#666466"/><path d="m-669.6936-3523.218v-.6746c0-.5589-.453-1.0119-1.0119-1.0119h-3.7104c-.7452 0-1.3493-.6041-1.3493-1.3495 0-.3724-.302-.6744-.6746-.6744h-4.385c-.5589 0-1.01195.453-1.01195 1.0119v7.4208c0 .5589.45305 1.012 1.01195 1.012h.6746c.5589 0 1.0119-.4531 1.0119-1.012v-3.3731c0-.9314.7551-1.6865 1.6866-1.6865h6.7462c.3797 0 .73005.1253 1.0119.3373zm0 1.3492c0-.5588-.453-1.0119-1.0119-1.0119h-6.7462c-.5589 0-1.01195.4531-1.01195 1.0119v3.3731c0 .3797-.12545.7301-.33715 1.012h8.0953c.5589 0 1.0119-.4531 1.0119-1.012zm-11.1312-5.7342h4.385c.7452 0 1.34926.604 1.34926 1.349 0 .373.30204.675.67464.675h3.7104c.93145 0 1.68654.755 1.68654 1.6864v5.3969c0 .9317-.75509 1.6867-1.68654 1.6867h-10.1193c-.9315 0-1.6866-.755-1.6866-1.6867v-7.4208c0-.9315.7551-1.6865 1.6866-1.6865z" stroke="#666466" stroke-linejoin="round" stroke-width=".25"/></g></svg>