<svg xmlns="http://www.w3.org/2000/svg" viewBox="-733.872 -3463.293 24.75 24.75"><g fill="none"><path d="m-732.297-3456.972 10.08-.48 2.4 3.36 9.12.72v13.44h-21.6z" fill="#fff"/><path d="M-730.497-3456.918a1.8 1.8 0 0 0-1.8 1.8v13.2a1.8 1.8 0 0 0 1.8 1.8h18a1.8 1.8 0 0 0 1.8-1.8v-9.6a1.8 1.8 0 0 0-1.8-1.8h-6.6a2.4 2.4 0 0 1-2.4-2.4 1.2 1.2 0 0 0-1.2-1.2zm0-1.2h7.8a2.4 2.4 0 0 1 2.4 2.4 1.2 1.2 0 0 0 1.2 1.2h6.6a3 3 0 0 1 3 3v9.6a3 3 0 0 1-3 3h-18a3 3 0 0 1-3-3v-13.2a3 3 0 0 1 3-3z" fill="#cf7837"/><path d="m-721.153-3447.132 3.51.004c.17 0 .3.131.3.3 0 .17-.13.301-.3.301h-3.514v3.515c0 .169-.132.3-.301.3-.17 0-.3-.131-.3-.3v-3.515l-3.507-.008a.296.296 0 0 1-.3-.3c0-.17.131-.301.3-.301h3.515v-3.506a.29.29 0 0 1 .296-.297.29.29 0 0 1 .297.297v3.514z" fill="#cf7937"/><path d="m-721.153-3447.132 3.51.004c.17 0 .3.131.3.3 0 .17-.13.301-.3.301h-3.514v3.515c0 .169-.132.3-.301.3-.17 0-.3-.131-.3-.3v-3.515l-3.507-.008a.296.296 0 0 1-.3-.3c0-.17.131-.301.3-.301h3.515v-3.506a.29.29 0 0 1 .296-.297.29.29 0 0 1 .297.297v3.514z" stroke="#cf7837" stroke-linejoin="round" stroke-width=".5"/></g></svg>