<svg height="24.750025" viewBox="-658.2528 -3558.5173 24.750035 24.750025" width="24.750035" xmlns="http://www.w3.org/2000/svg"><g fill="none"><path d="m-656.6778-3554.519 10.08-.48 2.4 3.36 9.12.72v13.44h-21.6z" fill="#fff"/><path d="m-654.8778-3554.4647c-.9941 0-1.8.8057-1.8 1.8v13.2c0 .9941.8059 1.8 1.8 1.8h18c.99414 0 1.8-.8059 1.8-1.8v-9.6c0-.9943-.80586-1.8-1.8-1.8h-6.6c-1.3255 0-2.4-1.0743-2.4-2.4 0-.6627-.53724-1.2-1.2-1.2zm0-1.2h7.8c1.3255 0 2.4 1.0747 2.4 2.4 0 .6627.5373 1.2 1.2 1.2h6.6c1.6569 0 3 1.3432 3 3v9.6c0 1.6567-1.3431 3-3 3h-18c-1.65685 0-3-1.3433-3-3v-13.2c0-1.6568 1.34315-3 3-3z" fill="#ccc"/><path d="m-645.4814-3543.3406c.1369.1496.1217.3776-.038.5061s-.40305.1141-.5399-.0355l-2.2813-2.4953c-.1217-.1355-.1217-.328 0-.4634l2.2813-2.4953c.13685-.1496.3802-.164.5399-.0356s.1749.3566.038.5062l-2.0684 2.2599 2.0684 2.26zm.8137 4.6626c-.0913.178-.3118.2565-.5019.171-.1901-.0856-.2738-.2924-.1825-.4706l5.323-10.6937c.0913-.1783.3118-.2567.5019-.1711.1901.0854.2738.2924.1825.4704zm5.4523-6.331c-.1369-.1496-.1217-.3777.038-.506.1597-.1284.40304-.114.5399.0356l2.2813 2.4954c.1217.1353.1217.3278 0 .463l-2.2813 2.4954c-.13686.1496-.3802.164-.5399.0356-.1597-.1283-.1749-.3564-.038-.506l2.0684-2.26-2.0684-2.26z" fill="#666566"/><path d="m-645.4814-3543.3406c.1369.1496.1217.3776-.038.5061s-.40305.1141-.5399-.0355l-2.2813-2.4953c-.1217-.1355-.1217-.328 0-.4634l2.2813-2.4953c.13685-.1496.3802-.164.5399-.0356s.1749.3566.038.5062l-2.0684 2.2599 2.0684 2.26zm.8137 4.6626c-.0913.178-.3118.2565-.5019.171-.1901-.0856-.2738-.2924-.1825-.4706l5.323-10.6937c.0913-.1783.3118-.2567.5019-.1711.1901.0854.2738.2924.1825.4704zm5.4523-6.331c-.1369-.1496-.1217-.3777.038-.506.1597-.1284.40304-.114.5399.0356l2.2813 2.4954c.1217.1353.1217.3278 0 .463l-2.2813 2.4954c-.13686.1496-.3802.164-.5399.0356-.1597-.1283-.1749-.3564-.038-.506l2.0684-2.26-2.0684-2.26z" stroke="#666566" stroke-linejoin="round" stroke-width=".25"/></g></svg>