<svg height="24.75" viewBox="-645.026 -3462.991 24.75 24.75" width="24.75" xmlns="http://www.w3.org/2000/svg"><g fill="none"><path d="m-643.3591-3456.53 10.08-.48 2.40004 3.36 9.12001.72v13.44h-21.60005z" fill="#fff"/><path d="m-641.6511-3456.6156c-.9941 0-1.8.8059-1.8 1.8v13.2c0 .9942.8059 1.8 1.8 1.8h18c.99414 0 1.8-.8058 1.8-1.8v-9.6c0-.9941-.80586-1.8-1.8-1.8h-6.6c-1.3255 0-2.4-1.0744-2.4-2.4 0-.6627-.53724-1.2-1.2-1.2zm0-1.2h7.8c1.3255 0 2.4 1.0746 2.4 2.4 0 .6626.5373 1.2 1.2 1.2h6.6c1.6569 0 3 1.3432 3 3v9.6c0 1.6569-1.3431 3.0001-3 3.0001h-18c-1.65685 0-3-1.3432-3-3.0001v-13.2c0-1.6568 1.34315-3 3-3z" fill="#538737"/><path d="m-630.6505-3445.873 2.2468 1.0212c.58015.2638.9526.8422.9526 1.4794v.4629c0 .8975-.7275 1.625-1.625 1.625h-7.15c-.89746 0-1.625-.7275-1.625-1.625v-.4629c0-.6372.37246-1.2156.9526-1.4794l2.2468-1.0212c-.7605-.595-1.2494-1.521-1.2494-2.5615 0-1.7949 1.4551-3.25 3.25-3.25s3.25 1.4551 3.25 3.25c0 1.0405-.48885 1.9665-1.2494 2.5615zm-3.3258.407-2.65325 1.206c-.34805.158-.57155.5053-.57155.8876v.4629c0 .5385.4365.975.975.975h7.15c.5385 0 .975-.4365.975-.975v-.4629c0-.3823-.2235-.7296-.5715-.8876l-2.6533-1.206c-.4047.181-.8532.2815-1.3252.2815s-.9205-.1005-1.3252-.2815zm1.3252-.3685c1.43595 0 2.6-1.1641 2.6-2.6s-1.16405-2.6-2.6-2.6c-1.4359 0-2.6 1.1641-2.6 2.6s1.1641 2.6 2.6 2.6z" fill="#538736"/><path d="m-630.6505-3445.873 2.2468 1.0212c.58015.2638.9526.8422.9526 1.4794v.4629c0 .8975-.7275 1.625-1.625 1.625h-7.15c-.89746 0-1.625-.7275-1.625-1.625v-.4629c0-.6372.37246-1.2156.9526-1.4794l2.2468-1.0212c-.7605-.595-1.2494-1.521-1.2494-2.5615 0-1.7949 1.4551-3.25 3.25-3.25s3.25 1.4551 3.25 3.25c0 1.0405-.48885 1.9665-1.2494 2.5615zm-3.3258.407-2.65325 1.206c-.34805.158-.57155.5053-.57155.8876v.4629c0 .5385.4365.975.975.975h7.15c.5385 0 .975-.4365.975-.975v-.4629c0-.3823-.2235-.7296-.5715-.8876l-2.6533-1.206c-.4047.181-.8532.2815-1.3252.2815s-.9205-.1005-1.3252-.2815zm1.3252-.3685c1.43595 0 2.6-1.1641 2.6-2.6s-1.16405-2.6-2.6-2.6c-1.4359 0-2.6 1.1641-2.6 2.6s1.1641 2.6 2.6 2.6z" stroke="#538737" stroke-linejoin="round" stroke-width=".25"/></g></svg>