<svg height="24.75" viewBox="-733.872 -3463.293 24.75 24.75" width="24.75" xmlns="http://www.w3.org/2000/svg"><g fill="none"><path d="m-732.29674-3456.9723 10.08004-.48 2.4 3.36 9.12.72v13.44h-21.60004z" fill="#fff"/><path d="m-730.4967-3456.918c-.99415 0-1.8.806-1.8 1.8v13.2c0 .9943.80585 1.8 1.8 1.8h18c.9941 0 1.8-.8057 1.8-1.8v-9.6c0-.994-.8059-1.8-1.8-1.8h-6.6c-1.3255 0-2.4-1.0744-2.4-2.4 0-.6626-.5373-1.2-1.2-1.2zm0-1.2h7.8c1.3255 0 2.4 1.0746 2.4 2.4 0 .663.5372 1.2 1.2 1.2h6.6c1.6568 0 3 1.3433 3 3v9.6c0 1.657-1.3432 3-3 3h-18c-1.6569 0-3-1.343-3-3v-13.2c0-1.6567 1.3431-3 3-3z" fill="#cf7837"/><path d="m-721.1532-3447.132 3.51015.004c.16935 0 .30065.1313.30065.3007 0 .1693-.1313.3006-.30065.3006h-3.51435v3.5144c0 .1693-.1313.3006-.3006.3006-.1694 0-.3007-.1313-.3007-.3006v-3.5144l-3.5059-.0083c-.1693 0-.3006-.1314-.3006-.3008 0-.1692.1313-.3006.3006-.3006h3.5144v-3.5059c-.0042-.1651.1313-.3007.2964-.2964.1651-.0043.3006.1313.2964.2964v3.5143z" fill="#cf7937"/><path d="m-721.1532-3447.132 3.51015.004c.16935 0 .30065.1313.30065.3007 0 .1693-.1313.3006-.30065.3006h-3.51435v3.5144c0 .1693-.1313.3006-.3006.3006-.1694 0-.3007-.1313-.3007-.3006v-3.5144l-3.5059-.0083c-.1693 0-.3006-.1314-.3006-.3008 0-.1692.1313-.3006.3006-.3006h3.5144v-3.5059c-.0042-.1651.1313-.3007.2964-.2964.1651-.0043.3006.1313.2964.2964v3.5143z" stroke="#cf7837" stroke-linejoin="round" stroke-width=".5"/></g></svg>