<svg xmlns="http://www.w3.org/2000/svg" viewBox="-645.026 -3462.991 24.75 24.75"><g fill="none"><path d="m-643.36-3456.53 10.08-.48 2.4 3.36 9.12.72v13.44h-21.6z" fill="#fff"/><path d="M-641.651-3456.616a1.8 1.8 0 0 0-1.8 1.8v13.2a1.8 1.8 0 0 0 1.8 1.8h18a1.8 1.8 0 0 0 1.8-1.8v-9.6a1.8 1.8 0 0 0-1.8-1.8h-6.6a2.4 2.4 0 0 1-2.4-2.4 1.2 1.2 0 0 0-1.2-1.2zm0-1.2h7.8a2.4 2.4 0 0 1 2.4 2.4 1.2 1.2 0 0 0 1.2 1.2h6.6a3 3 0 0 1 3 3v9.6a3 3 0 0 1-3 3h-18a3 3 0 0 1-3-3v-13.2a3 3 0 0 1 3-3z" fill="#538737"/><path d="m-630.65-3445.873 2.246 1.021c.58.264.953.842.953 1.48v.462c0 .898-.728 1.625-1.625 1.625h-7.15a1.625 1.625 0 0 1-1.625-1.625v-.462c0-.638.372-1.216.952-1.48l2.247-1.021a3.25 3.25 0 1 1 4.001 0zm-3.326.407-2.654 1.206a.975.975 0 0 0-.571.888v.462c0 .539.436.976.975.976h7.15a.975.975 0 0 0 .975-.976v-.462a.975.975 0 0 0-.572-.888l-2.653-1.206a3.238 3.238 0 0 1-1.325.282c-.472 0-.92-.101-1.325-.282zm1.325-.369a2.6 2.6 0 1 0 0-5.2 2.6 2.6 0 0 0 0 5.2z" fill="#538736"/><path d="m-630.65-3445.873 2.246 1.021c.58.264.953.842.953 1.48v.462c0 .898-.728 1.625-1.625 1.625h-7.15a1.625 1.625 0 0 1-1.625-1.625v-.462c0-.638.372-1.216.952-1.48l2.247-1.021a3.25 3.25 0 1 1 4.001 0zm-3.326.407-2.654 1.206a.975.975 0 0 0-.571.888v.462c0 .539.436.976.975.976h7.15a.975.975 0 0 0 .975-.976v-.462a.975.975 0 0 0-.572-.888l-2.653-1.206a3.238 3.238 0 0 1-1.325.282c-.472 0-.92-.101-1.325-.282zm1.325-.369a2.6 2.6 0 1 0 0-5.2 2.6 2.6 0 0 0 0 5.2z" stroke="#538737" stroke-linejoin="round" stroke-width=".25"/></g></svg>