<svg height="24.755" viewBox="-763.038 -3462.996 24.75 24.755" width="24.75" xmlns="http://www.w3.org/2000/svg"><g fill="none"><path d="M-761.463-3456.675l10.08-.48 2.4 3.36 9.12.72v13.44h-21.6z" fill="#fff"/><g fill="#5c76a3"><path d="M-759.663-3456.621a1.8 1.8 0 0 0-1.8 1.8v13.2a1.8 1.8 0 0 0 1.8 1.8h18a1.8 1.8 0 0 0 1.8-1.8v-9.6a1.8 1.8 0 0 0-1.8-1.8h-6.6a2.4 2.4 0 0 1-2.4-2.4 1.2 1.2 0 0 0-1.2-1.2zm0-1.2h7.8a2.4 2.4 0 0 1 2.4 2.4 1.2 1.2 0 0 0 1.2 1.2h6.6a3 3 0 0 1 3 3v9.6a3 3 0 0 1-3 3h-18a3 3 0 0 1-3-3v-13.2a3 3 0 0 1 3-3z"/><path d="M-743.463-3446.216v-.8a1.2 1.2 0 0 0-1.2-1.2h-4.4a1.6 1.6 0 0 1-1.6-1.6.8.8 0 0 0-.8-.8h-5.2a1.2 1.2 0 0 0-1.2 1.2v8.8a1.2 1.2 0 0 0 1.2 1.2h.8a1.2 1.2 0 0 0 1.2-1.2v-4a2 2 0 0 1 2-2h8c.45 0 .866.15 1.2.4zm0 1.6a1.2 1.2 0 0 0-1.2-1.2h-8a1.2 1.2 0 0 0-1.2 1.2v4c0 .45-.149.866-.4 1.2h9.6a1.2 1.2 0 0 0 1.2-1.2zm-13.2-6.8h5.2a1.6 1.6 0 0 1 1.6 1.6.8.8 0 0 0 .8.8h4.4a2 2 0 0 1 2 2v6.4a2 2 0 0 1-2 2h-12a2 2 0 0 1-2-2v-8.8a2 2 0 0 1 2-2z"/></g></g></svg>