<svg height="24.755" viewBox="-763.038 -3462.996 24.75 24.755" width="24.75" xmlns="http://www.w3.org/2000/svg"><g fill="none"><path d="m-761.4631-3456.6753 10.08-.48 2.4 3.36 9.12.72v13.44h-21.6z" fill="#fff"/><g fill="#5c76a3"><path d="m-759.6631-3456.621c-.9941 0-1.8.806-1.8 1.8v13.2c0 .9943.8059 1.8 1.8 1.8h18c.9941 0 1.8-.8057 1.8-1.8v-9.6c0-.994-.8059-1.8-1.8-1.8h-6.6c-1.3255 0-2.4-1.0743-2.4-2.4 0-.6626-.53725-1.2-1.2-1.2zm0-1.2h7.8c1.3255 0 2.4 1.0747 2.4 2.4 0 .663.5373 1.2 1.2 1.2h6.6c1.6569 0 3 1.3433 3 3v9.6c0 1.657-1.3431 3-3 3h-18c-1.6569 0-3-1.343-3-3v-13.2c0-1.6567 1.3431-3 3-3z"/><path d="m-743.4631-3446.2157v-.7998c0-.6628-.5373-1.2-1.2-1.2h-4.4c-.88365 0-1.6-.7165-1.6-1.6 0-.4419-.3582-.8-.8-.8h-5.2c-.6627 0-1.2.5372-1.2 1.2v8.8c0 .6625.5373 1.2 1.2 1.2h.8c.6627 0 1.2-.5375 1.2-1.2v-4c0-1.1045.8954-2 2-2h8c.4502 0 .8657.1487 1.2.3998zm0 1.6002c0-.6628-.5373-1.2-1.2-1.2h-8c-.6627 0-1.2.5372-1.2 1.2v4c0 .4502-.1488.8655-.39985 1.2h9.59985c.6627 0 1.2-.5375 1.2-1.2zm-13.2-6.8h5.2c.8837 0 1.6.7165 1.6 1.6 0 .4418.3582.8.8.8h4.4c1.1046 0 2 .8955 2 2v6.4c0 1.1045-.8954 2-2 2h-12c-1.1046 0-2-.8955-2-2v-8.8c0-1.1045.8954-2 2-2z"/></g></g></svg>