<svg height="24.75" viewBox="-645.026 -3462.991 24.75 24.75" width="24.75" xmlns="http://www.w3.org/2000/svg"><g fill="none"><path d="M-643.36-3456.53l10.08-.48 2.4 3.36 9.121.72v13.44h-21.6z" fill="#fff"/><path d="M-641.651-3456.616a1.8 1.8 0 0 0-1.8 1.8v13.2a1.8 1.8 0 0 0 1.8 1.8h18a1.8 1.8 0 0 0 1.8-1.8v-9.6a1.8 1.8 0 0 0-1.8-1.8h-6.6a2.4 2.4 0 0 1-2.4-2.4 1.2 1.2 0 0 0-1.2-1.2zm0-1.2h7.8a2.4 2.4 0 0 1 2.4 2.4 1.2 1.2 0 0 0 1.2 1.2h6.6a3 3 0 0 1 3 3v9.6a3 3 0 0 1-3 3h-18a3 3 0 0 1-3-3v-13.2a3 3 0 0 1 3-3z" fill="#538737"/><path d="M-630.65-3445.873l2.246 1.021c.58.264.953.842.953 1.48v.463c0 .897-.728 1.625-1.625 1.625h-7.15a1.625 1.625 0 0 1-1.625-1.625v-.463c0-.638.372-1.216.953-1.48l2.246-1.021a3.25 3.25 0 1 1 4.001 0zm-3.326.407l-2.654 1.206a.975.975 0 0 0-.571.888v.463c0 .538.436.975.975.975h7.15a.975.975 0 0 0 .975-.975v-.463a.975.975 0 0 0-.572-.888l-2.653-1.206c-.405.181-.853.281-1.325.281s-.92-.1-1.325-.281zm1.325-.368a2.6 2.6 0 1 0 0-5.2 2.6 2.6 0 0 0 0 5.2z" fill="#538736"/><path d="M-630.65-3445.873l2.246 1.021c.58.264.953.842.953 1.48v.463c0 .897-.728 1.625-1.625 1.625h-7.15a1.625 1.625 0 0 1-1.625-1.625v-.463c0-.638.372-1.216.953-1.48l2.246-1.021a3.25 3.25 0 1 1 4.001 0zm-3.326.407l-2.654 1.206a.975.975 0 0 0-.571.888v.463c0 .538.436.975.975.975h7.15a.975.975 0 0 0 .975-.975v-.463a.975.975 0 0 0-.572-.888l-2.653-1.206c-.405.181-.853.281-1.325.281s-.92-.1-1.325-.281zm1.325-.368a2.6 2.6 0 1 0 0-5.2 2.6 2.6 0 0 0 0 5.2z" stroke="#538737" stroke-linejoin="round" stroke-width=".25"/></g></svg>