<?xml version="1.0" encoding="UTF-8" standalone="no"?>
<!DOCTYPE svg PUBLIC "-//W3C//DTD SVG 1.1//EN" "http://www.w3.org/Graphics/SVG/1.1/DTD/svg11.dtd">
<svg xmlns:xl="http://www.w3.org/1999/xlink" version="1.1" xmlns="http://www.w3.org/2000/svg" xmlns:dc="http://purl.org/dc/elements/1.1/" viewBox="-645.0261 -3462.9906 24.750035 24.750025" width="24.750035" height="24.750025">
  <defs/>
  <g id="SOURCES" fill-opacity="1" stroke-dasharray="none" fill="none" stroke="none" stroke-opacity="1">
    <title>SOURCES</title>
    <g id="SOURCES_Light">
      <title>Light</title>
      <g id="Graphic_12626"/>
      <g id="Graphic_12625">
        <path d="M -643.3591 -3456.53 L -633.2791 -3457.01 L -630.87906 -3453.65 L -621.75905 -3452.93 L -621.75905 -3439.49 L -643.3591 -3439.49 Z" fill="white"/>
      </g>
      <g id="Graphic_12624">
        <path d="M -641.6511 -3456.6156 C -642.6452 -3456.6156 -643.4511 -3455.8097 -643.4511 -3454.8156 L -643.4511 -3441.6156 C -643.4511 -3440.6214 -642.6452 -3439.8156 -641.6511 -3439.8156 L -623.6511 -3439.8156 C -622.65696 -3439.8156 -621.8511 -3440.6214 -621.8511 -3441.6156 L -621.8511 -3451.2156 C -621.8511 -3452.2097 -622.65696 -3453.0156 -623.6511 -3453.0156 L -630.2511 -3453.0156 C -631.5766 -3453.0156 -632.6511 -3454.09 -632.6511 -3455.4156 C -632.6511 -3456.0783 -633.18834 -3456.6156 -633.8511 -3456.6156 Z M -641.6511 -3457.8156 L -633.8511 -3457.8156 C -632.5256 -3457.8156 -631.4511 -3456.741 -631.4511 -3455.4156 C -631.4511 -3454.753 -630.9138 -3454.2156 -630.2511 -3454.2156 L -623.6511 -3454.2156 C -621.9942 -3454.2156 -620.6511 -3452.8724 -620.6511 -3451.2156 L -620.6511 -3441.6156 C -620.6511 -3439.9587 -621.9942 -3438.6155 -623.6511 -3438.6155 L -641.6511 -3438.6155 C -643.30795 -3438.6155 -644.6511 -3439.9587 -644.6511 -3441.6156 L -644.6511 -3454.8156 C -644.6511 -3456.4724 -643.30795 -3457.8156 -641.6511 -3457.8156 Z" fill="#538737"/>
      </g>
      <g id="Graphic_12627">
        <path d="M -630.6505 -3445.873 L -628.4037 -3444.8518 C -627.82355 -3444.588 -627.4511 -3444.0096 -627.4511 -3443.3724 L -627.4511 -3442.9095 C -627.4511 -3442.012 -628.1786 -3441.2845 -629.0761 -3441.2845 L -636.2261 -3441.2845 C -637.12356 -3441.2845 -637.8511 -3442.012 -637.8511 -3442.9095 L -637.8511 -3443.3724 C -637.8511 -3444.0096 -637.47864 -3444.588 -636.8985 -3444.8518 L -634.6517 -3445.873 C -635.4122 -3446.468 -635.9011 -3447.394 -635.9011 -3448.4345 C -635.9011 -3450.2294 -634.446 -3451.6845 -632.6511 -3451.6845 C -630.8562 -3451.6845 -629.4011 -3450.2294 -629.4011 -3448.4345 C -629.4011 -3447.394 -629.88995 -3446.468 -630.6505 -3445.873 Z M -633.9763 -3445.466 L -636.62955 -3444.26 C -636.9776 -3444.102 -637.2011 -3443.7547 -637.2011 -3443.3724 L -637.2011 -3442.9095 C -637.2011 -3442.371 -636.7646 -3441.9345 -636.2261 -3441.9345 L -629.0761 -3441.9345 C -628.5376 -3441.9345 -628.1011 -3442.371 -628.1011 -3442.9095 L -628.1011 -3443.3724 C -628.1011 -3443.7547 -628.3246 -3444.102 -628.6726 -3444.26 L -631.3259 -3445.466 C -631.7306 -3445.285 -632.1791 -3445.1845 -632.6511 -3445.1845 C -633.1231 -3445.1845 -633.5716 -3445.285 -633.9763 -3445.466 Z M -632.6511 -3445.8345 C -631.21515 -3445.8345 -630.0511 -3446.9986 -630.0511 -3448.4345 C -630.0511 -3449.8704 -631.21515 -3451.0345 -632.6511 -3451.0345 C -634.087 -3451.0345 -635.2511 -3449.8704 -635.2511 -3448.4345 C -635.2511 -3446.9986 -634.087 -3445.8345 -632.6511 -3445.8345 Z" fill="#538736"/>
        <path d="M -630.6505 -3445.873 L -628.4037 -3444.8518 C -627.82355 -3444.588 -627.4511 -3444.0096 -627.4511 -3443.3724 L -627.4511 -3442.9095 C -627.4511 -3442.012 -628.1786 -3441.2845 -629.0761 -3441.2845 L -636.2261 -3441.2845 C -637.12356 -3441.2845 -637.8511 -3442.012 -637.8511 -3442.9095 L -637.8511 -3443.3724 C -637.8511 -3444.0096 -637.47864 -3444.588 -636.8985 -3444.8518 L -634.6517 -3445.873 C -635.4122 -3446.468 -635.9011 -3447.394 -635.9011 -3448.4345 C -635.9011 -3450.2294 -634.446 -3451.6845 -632.6511 -3451.6845 C -630.8562 -3451.6845 -629.4011 -3450.2294 -629.4011 -3448.4345 C -629.4011 -3447.394 -629.88995 -3446.468 -630.6505 -3445.873 Z M -633.9763 -3445.466 L -636.62955 -3444.26 C -636.9776 -3444.102 -637.2011 -3443.7547 -637.2011 -3443.3724 L -637.2011 -3442.9095 C -637.2011 -3442.371 -636.7646 -3441.9345 -636.2261 -3441.9345 L -629.0761 -3441.9345 C -628.5376 -3441.9345 -628.1011 -3442.371 -628.1011 -3442.9095 L -628.1011 -3443.3724 C -628.1011 -3443.7547 -628.3246 -3444.102 -628.6726 -3444.26 L -631.3259 -3445.466 C -631.7306 -3445.285 -632.1791 -3445.1845 -632.6511 -3445.1845 C -633.1231 -3445.1845 -633.5716 -3445.285 -633.9763 -3445.466 Z M -632.6511 -3445.8345 C -631.21515 -3445.8345 -630.0511 -3446.9986 -630.0511 -3448.4345 C -630.0511 -3449.8704 -631.21515 -3451.0345 -632.6511 -3451.0345 C -634.087 -3451.0345 -635.2511 -3449.8704 -635.2511 -3448.4345 C -635.2511 -3446.9986 -634.087 -3445.8345 -632.6511 -3445.8345 Z" stroke="#538737" stroke-linecap="butt" stroke-linejoin="round" stroke-width=".25"/>
      </g>
    </g>
  </g>
</svg>
