<svg height="24.750025" viewBox="-605.6789 -3530.33 24.750035 24.750025" width="24.750035" xmlns="http://www.w3.org/2000/svg"><g fill="none"><path d="m-604.0776-3526.1917 10.08-.48 2.4 3.36 9.12.72v13.4401h-21.6z" fill="#fff"/><path d="m-602.3039-3526.2773c-.9941 0-1.8.8059-1.8 1.8v13.2c0 .9943.8059 1.8 1.8 1.8h18c.9941 0 1.8-.8057 1.8-1.8v-9.6c0-.9941-.8059-1.8-1.8-1.8h-6.6c-1.3255 0-2.4-1.0747-2.4-2.4 0-.6627-.53725-1.2-1.2-1.2zm0-1.2h7.8c1.3255 0 2.4 1.0743 2.4 2.4 0 .6627.5373 1.2 1.2 1.2h6.6c1.6569 0 3 1.3433 3 3v9.6c0 1.6569-1.3431 3-3 3h-18c-1.65686 0-3-1.3431-3-3v-13.2c0-1.6567 1.34314-3 3-3z" fill="#ccc"/><path d="m-586.57295-3515.4716 2.24685 1.0213c.5801.2637.95255.8423.95255 1.4793v.463c0 .8974-.72755 1.625-1.625 1.625h-7.15c-.89745 0-1.625-.7276-1.625-1.625v-.463c0-.637.37245-1.2156.95255-1.4793l2.24686-1.0213c-.76056-.5948-1.24941-1.521-1.24941-2.5614 0-1.795 1.45505-3.25 3.25-3.25s3.25 1.455 3.25 3.25c0 1.0404-.48885 1.9666-1.2494 2.5614zm-3.32575.407-2.6533 1.206c-.3481.1583-.57155.5053-.57155.8876v.463c0 .5384.43655.975.975.975h7.15c.53845 0 .975-.4366.975-.975v-.463c0-.3823-.22345-.7293-.57155-.8876l-2.6533-1.206c-.4047.181-.85316.2816-1.32515.2816-.47195 0-.92045-.1006-1.32515-.2816zm1.32515-.3684c1.43595 0 2.6-1.164 2.6-2.6s-1.16405-2.6-2.6-2.6-2.6 1.164-2.6 2.6 1.16405 2.6 2.6 2.6z" fill="#666566"/><path d="m-586.57295-3515.4716 2.24685 1.0213c.5801.2637.95255.8423.95255 1.4793v.463c0 .8974-.72755 1.625-1.625 1.625h-7.15c-.89745 0-1.625-.7276-1.625-1.625v-.463c0-.637.37245-1.2156.95255-1.4793l2.24686-1.0213c-.76056-.5948-1.24941-1.521-1.24941-2.5614 0-1.795 1.45505-3.25 3.25-3.25s3.25 1.455 3.25 3.25c0 1.0404-.48885 1.9666-1.2494 2.5614zm-3.32575.407-2.6533 1.206c-.3481.1583-.57155.5053-.57155.8876v.463c0 .5384.43655.975.975.975h7.15c.53845 0 .975-.4366.975-.975v-.463c0-.3823-.22345-.7293-.57155-.8876l-2.6533-1.206c-.4047.181-.85316.2816-1.32515.2816-.47195 0-.92045-.1006-1.32515-.2816zm1.32515-.3684c1.43595 0 2.6-1.164 2.6-2.6s-1.16405-2.6-2.6-2.6-2.6 1.164-2.6 2.6 1.16405 2.6 2.6 2.6z" stroke="#666566" stroke-linejoin="round" stroke-width=".5"/></g></svg>