<svg height="24.750025" viewBox="-638.87196 -3586.978 24.750035 24.750025" width="24.750035" xmlns="http://www.w3.org/2000/svg"><g fill="none"><path d="m-637.29696-3580.6573 10.08001-.48 2.40001 3.36 9.12004.72v13.44h-21.60006z" fill="#fff"/><path d="m-635.49694-3580.603c-.99412 0-1.80001.806-1.80001 1.8v13.2c0 .9943.80589 1.8 1.80001 1.8h18.00004c.9941 0 1.8-.8057 1.8-1.8v-9.6c0-.994-.8059-1.8-1.8-1.8h-6.6c-1.3255 0-2.4-1.0744-2.4-2.4 0-.6626-.5373-1.2-1.2-1.2zm0-1.2h7.80004c1.32545 0 2.4 1.0746 2.4 2.4 0 .663.5372 1.2 1.2 1.2h6.6c1.6568 0 3 1.3433 3 3v9.6c0 1.657-1.3432 3-3 3h-18.00004c-1.65686 0-3.00001-1.343-3.00001-3v-13.2c0-1.6567 1.34315-3 3.00001-3z" fill="#9f4c4d"/><path d="m-632.0712-3568.3202h10.5093v-4.8793c0-.6231-.503-1.126-1.126-1.126h-8.2573c-.62304 0-1.126.5029-1.126 1.126zm11.2599.3002 1.4113 3.393c.06.135.09005.2853.09005.4354 0 .6231-.50295 1.126-1.12599 1.126h-12.76126c-.1501 0-.2927-.03-.43536-.0901-.57054-.2403-.84824-.9008-.60804-1.4713l1.41125-3.393v-5.1795c0-1.0359.84075-1.8765 1.87665-1.8765h8.2573c1.0359 0 1.8766.8406 1.8766 1.8765v5.1795zm-11.3875.4504-1.3437 3.2356c-.08255.1875.0075.4127.2027.4877.045.0225.0976.03.1426.03h12.76126c.21018 0 .37534-.1651.37534-.3753 0-.0524-.0075-.0974-.03-.1424l-1.3437-3.2356zm1.2536 1.5014c-.2102 0-.3753-.1652-.3753-.3754s.1651-.3754.3753-.3754h.7507c.21015 0 .3753.1652.3753.3754s-.16515.3754-.3753.3754zm-.75066 1.5012c-.21018 0-.37534-.165-.37534-.3752s.16516-.3754.37534-.3754h.75066c.2102 0 .3753.1652.3753.3754s-.1651.3752-.3753.3752zm2.25196 0c-.21016 0-.3753-.165-.3753-.3752s.16514-.3754.3753-.3754h3.0027c.21016 0 .3753.1652.3753.3754s-.16514.3752-.3753.3752zm4.504 0c-.2102 0-.3753-.165-.3753-.3752s.1651-.3754.3753-.3754h.75065c.21019 0 .37535.1652.37535.3754s-.16516.3752-.37535.3752zm2.252 0c-.2102 0-.37535-.165-.37535-.3752s.16515-.3754.37535-.3754h.75064c.21016 0 .37536.1652.37536.3754s-.1652.3752-.37536.3752zm-6.0053-1.5012c-.2102 0-.37534-.1652-.37534-.3754s.16514-.3754.37534-.3754h.75065c.21015 0 .37535.1652.37535.3754s-.1652.3754-.37535.3754zm2.252 0c-.2102 0-.37536-.1652-.37536-.3754s.16516-.3754.37536-.3754h.7506c.2102 0 .3754.1652.3754.3754s-.1652.3754-.3754.3754zm2.25195 0c-.21015 0-.37535-.1652-.37535-.3754s.1652-.3754.37535-.3754h.75065c.2102 0 .37535.1652.37535.3754s-.16515.3754-.37535.3754z" fill="#9f4c4d"/><path d="m-632.0712-3568.3202h10.5093v-4.8793c0-.6231-.503-1.126-1.126-1.126h-8.2573c-.62304 0-1.126.5029-1.126 1.126zm11.2599.3002 1.4113 3.393c.06.135.09005.2853.09005.4354 0 .6231-.50295 1.126-1.12599 1.126h-12.76126c-.1501 0-.2927-.03-.43536-.0901-.57054-.2403-.84824-.9008-.60804-1.4713l1.41125-3.393v-5.1795c0-1.0359.84075-1.8765 1.87665-1.8765h8.2573c1.0359 0 1.8766.8406 1.8766 1.8765v5.1795zm-11.3875.4504-1.3437 3.2356c-.08255.1875.0075.4127.2027.4877.045.0225.0976.03.1426.03h12.76126c.21018 0 .37534-.1651.37534-.3753 0-.0524-.0075-.0974-.03-.1424l-1.3437-3.2356zm1.2536 1.5014c-.2102 0-.3753-.1652-.3753-.3754s.1651-.3754.3753-.3754h.7507c.21015 0 .3753.1652.3753.3754s-.16515.3754-.3753.3754zm-.75066 1.5012c-.21018 0-.37534-.165-.37534-.3752s.16516-.3754.37534-.3754h.75066c.2102 0 .3753.1652.3753.3754s-.1651.3752-.3753.3752zm2.25196 0c-.21016 0-.3753-.165-.3753-.3752s.16514-.3754.3753-.3754h3.0027c.21016 0 .3753.1652.3753.3754s-.16514.3752-.3753.3752zm4.504 0c-.2102 0-.3753-.165-.3753-.3752s.1651-.3754.3753-.3754h.75065c.21019 0 .37535.1652.37535.3754s-.16516.3752-.37535.3752zm2.252 0c-.2102 0-.37535-.165-.37535-.3752s.16515-.3754.37535-.3754h.75064c.21016 0 .37536.1652.37536.3754s-.1652.3752-.37536.3752zm-6.0053-1.5012c-.2102 0-.37534-.1652-.37534-.3754s.16514-.3754.37534-.3754h.75065c.21015 0 .37535.1652.37535.3754s-.1652.3754-.37535.3754zm2.252 0c-.2102 0-.37536-.1652-.37536-.3754s.16516-.3754.37536-.3754h.7506c.2102 0 .3754.1652.3754.3754s-.1652.3754-.3754.3754zm2.25195 0c-.21015 0-.37535-.1652-.37535-.3754s.1652-.3754.37535-.3754h.75065c.2102 0 .37535.1652.37535.3754s-.16515.3754-.37535.3754z" stroke="#9f4c4d" stroke-linejoin="round" stroke-width=".25"/></g></svg>