<?xml version="1.0" encoding="UTF-8" standalone="no"?>
<!DOCTYPE svg PUBLIC "-//W3C//DTD SVG 1.1//EN" "http://www.w3.org/Graphics/SVG/1.1/DTD/svg11.dtd">
<svg xmlns:xl="http://www.w3.org/1999/xlink" version="1.1" xmlns="http://www.w3.org/2000/svg" xmlns:dc="http://purl.org/dc/elements/1.1/" viewBox="-733.87175 -3463.293 24.750035 24.750025" width="24.750035" height="24.750025">
  <defs/>
  <g id="SOURCES" fill-opacity="1" stroke-dasharray="none" fill="none" stroke="none" stroke-opacity="1">
    <title>SOURCES</title>
    <g id="SOURCES_Light">
      <title>Light</title>
      <g id="Graphic_12618"/>
      <g id="Graphic_12617">
        <path d="M -732.29674 -3456.9723 L -722.2167 -3457.4523 L -719.8167 -3454.0923 L -710.6967 -3453.3723 L -710.6967 -3439.9323 L -732.29674 -3439.9323 Z" fill="white"/>
      </g>
      <g id="Graphic_12616">
        <path d="M -730.4967 -3456.918 C -731.49085 -3456.918 -732.2967 -3456.112 -732.2967 -3455.118 L -732.2967 -3441.918 C -732.2967 -3440.9237 -731.49085 -3440.118 -730.4967 -3440.118 L -712.4967 -3440.118 C -711.5026 -3440.118 -710.6967 -3440.9237 -710.6967 -3441.918 L -710.6967 -3451.518 C -710.6967 -3452.512 -711.5026 -3453.318 -712.4967 -3453.318 L -719.0967 -3453.318 C -720.4222 -3453.318 -721.4967 -3454.3924 -721.4967 -3455.718 C -721.4967 -3456.3806 -722.034 -3456.918 -722.6967 -3456.918 Z M -730.4967 -3458.118 L -722.6967 -3458.118 C -721.3712 -3458.118 -720.2967 -3457.0434 -720.2967 -3455.718 C -720.2967 -3455.055 -719.7595 -3454.518 -719.0967 -3454.518 L -712.4967 -3454.518 C -710.8399 -3454.518 -709.4967 -3453.1747 -709.4967 -3451.518 L -709.4967 -3441.918 C -709.4967 -3440.261 -710.8399 -3438.918 -712.4967 -3438.918 L -730.4967 -3438.918 C -732.1536 -3438.918 -733.4967 -3440.261 -733.4967 -3441.918 L -733.4967 -3455.118 C -733.4967 -3456.7747 -732.1536 -3458.118 -730.4967 -3458.118 Z" fill="#cf7837"/>
      </g>
      <g id="Group_12637">
        <title>close</title>
        <g id="Graphic_12638">
          <path d="M -721.1532 -3447.132 L -717.64305 -3447.128 C -717.4737 -3447.128 -717.3424 -3446.9967 -717.3424 -3446.8273 C -717.3424 -3446.658 -717.4737 -3446.5267 -717.64305 -3446.5267 L -721.1574 -3446.5267 L -721.1574 -3443.0123 C -721.1574 -3442.843 -721.2887 -3442.7117 -721.458 -3442.7117 C -721.6274 -3442.7117 -721.7587 -3442.843 -721.7587 -3443.0123 L -721.7587 -3446.5267 L -725.2646 -3446.535 C -725.4339 -3446.535 -725.5652 -3446.6664 -725.5652 -3446.8358 C -725.5652 -3447.005 -725.4339 -3447.1364 -725.2646 -3447.1364 L -721.7502 -3447.1364 L -721.7502 -3450.6423 C -721.7544 -3450.8074 -721.6189 -3450.943 -721.4538 -3450.9387 C -721.2887 -3450.943 -721.1532 -3450.8074 -721.1574 -3450.6423 L -721.1574 -3447.128 Z" fill="#cf7937"/>
          <path d="M -721.1532 -3447.132 L -717.64305 -3447.128 C -717.4737 -3447.128 -717.3424 -3446.9967 -717.3424 -3446.8273 C -717.3424 -3446.658 -717.4737 -3446.5267 -717.64305 -3446.5267 L -721.1574 -3446.5267 L -721.1574 -3443.0123 C -721.1574 -3442.843 -721.2887 -3442.7117 -721.458 -3442.7117 C -721.6274 -3442.7117 -721.7587 -3442.843 -721.7587 -3443.0123 L -721.7587 -3446.5267 L -725.2646 -3446.535 C -725.4339 -3446.535 -725.5652 -3446.6664 -725.5652 -3446.8358 C -725.5652 -3447.005 -725.4339 -3447.1364 -725.2646 -3447.1364 L -721.7502 -3447.1364 L -721.7502 -3450.6423 C -721.7544 -3450.8074 -721.6189 -3450.943 -721.4538 -3450.9387 C -721.2887 -3450.943 -721.1532 -3450.8074 -721.1574 -3450.6423 L -721.1574 -3447.128 Z" stroke="#cf7837" stroke-linecap="butt" stroke-linejoin="round" stroke-width=".5"/>
        </g>
      </g>
    </g>
  </g>
</svg>
