<svg height="24.750025" viewBox="-671.8555 -3556.9454 24.750035 24.750025" width="24.750035" xmlns="http://www.w3.org/2000/svg"><g fill="none"><path d="m-670.2805-3550.625 10.08-.48 2.4 3.36 9.12.72v13.44h-21.6z" fill="#fff"/><path d="m-668.4805-3550.5704c-.9941 0-1.8.8059-1.8 1.8v13.2c0 .9941.8059 1.8 1.8 1.8h18c.99414 0 1.8-.8059 1.8-1.8v-9.6c0-.9941-.80586-1.8-1.8-1.8h-6.6c-1.3255 0-2.4-1.0746-2.4-2.4 0-.6626-.5372-1.2-1.2-1.2zm0-1.2h7.8c1.3255 0 2.4 1.0744 2.4 2.4 0 .6627.5373 1.2 1.2 1.2h6.6c1.6569 0 3 1.3431 3 3v9.6c0 1.6568-1.3431 3-3 3h-18c-1.65684 0-3-1.3432-3-3v-13.2c0-1.6569 1.34316-3 3-3z" fill="#cf7837"/><path d="m-663.8127-3539.154c.1491.174.1325.439-.0414.588s-.4389.1326-.588-.0413l-2.48446-2.8987c-.13254-.157-.13254-.381 0-.538l2.48446-2.8987c.1491-.1739.4141-.1903.588-.0413s.1905.414.0414.588l-2.2526 2.625 2.2526 2.6254zm.8861 5.4162c-.09935.2071-.3395.2982-.54656.1988-.20704-.0994-.29814-.3396-.19874-.5466l5.7971-12.4224c.09934-.207.3395-.298.54655-.1987.20705.0994.29815.3397.19875.5467zm5.9379-7.354c-.1491-.1739-.1325-.4389.0414-.588.1739-.1492.4389-.1325.588.0414l2.48445 2.8984c.1325.1575.1325.381 0 .5385l-2.48445 2.8985c-.1491.174-.4141.1905-.588.0414-.1739-.149-.1905-.414-.0414-.588l2.2526-2.6254-2.2526-2.625z" fill="#cf7837"/><path d="m-663.8127-3539.154c.1491.174.1325.439-.0414.588s-.4389.1326-.588-.0413l-2.48446-2.8987c-.13254-.157-.13254-.381 0-.538l2.48446-2.8987c.1491-.1739.4141-.1903.588-.0413s.1905.414.0414.588l-2.2526 2.625 2.2526 2.6254zm.8861 5.4162c-.09935.2071-.3395.2982-.54656.1988-.20704-.0994-.29814-.3396-.19874-.5466l5.7971-12.4224c.09934-.207.3395-.298.54655-.1987.20705.0994.29815.3397.19875.5467zm5.9379-7.354c-.1491-.1739-.1325-.4389.0414-.588.1739-.1492.4389-.1325.588.0414l2.48445 2.8984c.1325.1575.1325.381 0 .5385l-2.48445 2.8985c-.1491.174-.4141.1905-.588.0414-.1739-.149-.1905-.414-.0414-.588l2.2526-2.6254-2.2526-2.625z" stroke="#cf7837" stroke-linejoin="round" stroke-width=".25"/></g></svg>