<svg height="25" viewBox="-549.162 -3708.225 25 25" width="25" xmlns="http://www.w3.org/2000/svg"><g fill="none"><path d="m-544.8223-3707.725h16.32c2.12075 0 3.84 1.7192 3.84 3.84v16.32c0 2.1208-1.71925 3.84-3.84 3.84h-16.32c-2.1208 0-3.84-1.7192-3.84-3.84v-16.32c0-2.1208 1.7192-3.84 3.84-3.84z" fill="#fff"/><path d="m-544.8223-3707.725h16.32c2.12075 0 3.84 1.7192 3.84 3.84v16.32c0 2.1208-1.71925 3.84-3.84 3.84h-16.32c-2.1208 0-3.84-1.7192-3.84-3.84v-16.32c0-2.1208 1.7192-3.84 3.84-3.84z" stroke="#000" stroke-linecap="round" stroke-linejoin="round" stroke-width=".25"/><path d="m-544.6623-3690.483v-10.4c0-1.1045.8954-2 2-2h12c1.10455 0 2 .8955 2 2v10.4c0 1.1047-.89545 2-2 2h-12c-1.1046 0-2-.8953-2-2zm.8-3.2c.33424-.251.74973-.4 1.2-.4h12c.4502 0 .8657.149 1.2.4v-7.2c0-.6626-.5373-1.2-1.2-1.2h-12c-.66277 0-1.2.5374-1.2 1.2zm0 3.2c0 .663.53723 1.2 1.2 1.2h12c.6627 0 1.2-.537 1.2-1.2v-1.6c0-.6626-.5373-1.2-1.2-1.2h-12c-.66277 0-1.2.5374-1.2 1.2zm11.6-2h1.6c.2209 0 .4.179.4.4v1.6c0 .221-.1791.4-.4.4h-1.6c-.22094 0-.4-.179-.4-.4v-1.6c0-.221.17906-.4.4-.4zm.4.8v.8h.8v-.8zm-10 .8c-.22094 0-.4-.179-.4-.4s.17906-.4.4-.4h4.8c.2209 0 .4.179.4.4s-.1791.4-.4.4z" fill="#5c76a2"/></g></svg>