<svg height="25" viewBox="-593.179 -3710.204 25 25" width="25" xmlns="http://www.w3.org/2000/svg"><g fill="none"><path d="m-588.839-3709.7043h16.32c2.12075 0 3.84 1.7193 3.84 3.84v16.32c0 2.1208-1.71925 3.84-3.84 3.84h-16.32c-2.1208 0-3.84-1.7192-3.84-3.84v-16.32c0-2.1207 1.7192-3.84 3.84-3.84z" fill="#fff"/><path d="m-588.839-3709.7043h16.32c2.12075 0 3.84 1.7193 3.84 3.84v16.32c0 2.1208-1.71925 3.84-3.84 3.84h-16.32c-2.1208 0-3.84-1.7192-3.84-3.84v-16.32c0-2.1207 1.7192-3.84 3.84-3.84z" stroke="#000" stroke-linecap="round" stroke-linejoin="round" stroke-width=".25"/><path d="m-583.0798-3704.9035h-1.9999c-.6627 0-1.19994.5372-1.19994 1.1999v11.9996c0 .6626.53724 1.2 1.19994 1.2h8.79956c.6627 0 1.19994-.5374 1.19994-1.2v-9.9997h-2.79986c-.22094 0-.39998-.179-.39998-.3999v-2.7999h-3.9998v1.1999c0 .2209-.17906.4-.39996.4s-.4-.1791-.4-.4zm8.79956 2.8222v10.3773c0 1.1044-.89536 1.9997-1.9999 1.9997h-8.79956c-1.1045 0-1.9999-.8953-1.9999-1.9997v-11.9996c0-1.1044.8954-1.9999 1.9999-1.9999h7.17726c.10619-.0065.21674.0285.3052.1172l3.19984 3.1998c.0885.0885.1239.1991.11716.3052zm-3.19986-2.2567v1.8344h1.83424zm-5.5997 9.2683v-.6343c0-.221.1791-.4.4-.4s.39996.179.39996.4v.6343l.11714.1172c.4372.4372.6828 1.0301.6828 1.6485 0 .6626-.5372 1.2-1.1999 1.2s-1.19996-.5374-1.19996-1.2c0-.6184.24561-1.2113.68281-1.6485zm0 1.7657c0 .221.1791.4.4.4s.39996-.179.39996-.4c0-.3827-.14326-.7506-.39996-1.032-.2568.2814-.4.6493-.4 1.032zm0-8.7996c0-.2209.1791-.4.4-.4s.39996.1791.39996.4v1.5999c0 .2207-.17906.4-.39996.4s-.4-.1793-.4-.4zm0 3.1996c0-.2207.1791-.3998.4-.3998s.39996.1791.39996.3998v1.6c0 .221-.17906.4-.39996.4s-.4-.179-.4-.4z" fill="#5c76a2"/></g></svg>