<?xml version="1.0" encoding="UTF-8" standalone="no"?>
<!DOCTYPE svg PUBLIC "-//W3C//DTD SVG 1.1//EN" "http://www.w3.org/Graphics/SVG/1.1/DTD/svg11.dtd">
<svg version="1.1" xmlns="http://www.w3.org/2000/svg" xmlns:xl="http://www.w3.org/1999/xlink" xmlns:dc="http://purl.org/dc/elements/1.1/" viewBox="-593.179 -3710.2043 25 25" width="25" height="25">
  <defs/>
  <g id="SOURCES" stroke-dasharray="none" fill="none" stroke="none" fill-opacity="1" stroke-opacity="1">
    <title>SOURCES</title>
    <g id="SOURCES_Calque_1">
      <title>Calque 1</title>
      <g id="Graphic_6498">
        <title>views/view.other</title>
        <path d="M -588.839 -3709.7043 L -572.519 -3709.7043 C -570.39825 -3709.7043 -568.679 -3707.985 -568.679 -3705.8643 L -568.679 -3689.5443 C -568.679 -3687.4235 -570.39825 -3685.7043 -572.519 -3685.7043 L -588.839 -3685.7043 C -590.9598 -3685.7043 -592.679 -3687.4235 -592.679 -3689.5443 L -592.679 -3705.8643 C -592.679 -3707.985 -590.9598 -3709.7043 -588.839 -3709.7043 Z" fill="white"/>
        <path d="M -588.839 -3709.7043 L -572.519 -3709.7043 C -570.39825 -3709.7043 -568.679 -3707.985 -568.679 -3705.8643 L -568.679 -3689.5443 C -568.679 -3687.4235 -570.39825 -3685.7043 -572.519 -3685.7043 L -588.839 -3685.7043 C -590.9598 -3685.7043 -592.679 -3687.4235 -592.679 -3689.5443 L -592.679 -3705.8643 C -592.679 -3707.985 -590.9598 -3709.7043 -588.839 -3709.7043 Z" stroke="black" stroke-linecap="round" stroke-linejoin="round" stroke-width=".25"/>
      </g>
      <g id="Graphic_6497">
        <path d="M -583.0798 -3704.9035 L -585.0797 -3704.9035 C -585.7424 -3704.9035 -586.27964 -3704.3663 -586.27964 -3703.7036 L -586.27964 -3691.704 C -586.27964 -3691.0414 -585.7424 -3690.504 -585.0797 -3690.504 L -576.28014 -3690.504 C -575.61744 -3690.504 -575.0802 -3691.0414 -575.0802 -3691.704 L -575.0802 -3701.7037 L -577.88006 -3701.7037 C -578.101 -3701.7037 -578.28004 -3701.8827 -578.28004 -3702.1036 L -578.28004 -3704.9035 L -582.27984 -3704.9035 L -582.27984 -3703.7036 C -582.27984 -3703.4827 -582.4589 -3703.3036 -582.6798 -3703.3036 C -582.9007 -3703.3036 -583.0798 -3703.4827 -583.0798 -3703.7036 Z M -574.28024 -3702.0813 L -574.28024 -3691.704 C -574.28024 -3690.5996 -575.1756 -3689.7043 -576.28014 -3689.7043 L -585.0797 -3689.7043 C -586.1842 -3689.7043 -587.0796 -3690.5996 -587.0796 -3691.704 L -587.0796 -3703.7036 C -587.0796 -3704.808 -586.1842 -3705.7035 -585.0797 -3705.7035 L -577.90244 -3705.7035 C -577.79625 -3705.71 -577.6857 -3705.675 -577.59724 -3705.5863 L -574.3974 -3702.3865 C -574.3089 -3702.298 -574.2735 -3702.1874 -574.28024 -3702.0813 Z M -577.4801 -3704.338 L -577.4801 -3702.5036 L -575.64586 -3702.5036 Z M -583.0798 -3695.0697 L -583.0798 -3695.704 C -583.0798 -3695.925 -582.9007 -3696.104 -582.6798 -3696.104 C -582.4589 -3696.104 -582.27984 -3695.925 -582.27984 -3695.704 L -582.27984 -3695.0697 L -582.1627 -3694.9525 C -581.7255 -3694.5153 -581.4799 -3693.9224 -581.4799 -3693.304 C -581.4799 -3692.6414 -582.0171 -3692.104 -582.6798 -3692.104 C -583.3425 -3692.104 -583.87976 -3692.6414 -583.87976 -3693.304 C -583.87976 -3693.9224 -583.63415 -3694.5153 -583.19695 -3694.9525 L -583.0798 -3695.0697 Z M -583.0798 -3693.304 C -583.0798 -3693.083 -582.9007 -3692.904 -582.6798 -3692.904 C -582.4589 -3692.904 -582.27984 -3693.083 -582.27984 -3693.304 C -582.27984 -3693.6867 -582.4231 -3694.0546 -582.6798 -3694.336 C -582.9366 -3694.0546 -583.0798 -3693.6867 -583.0798 -3693.304 Z M -583.0798 -3702.1036 C -583.0798 -3702.3245 -582.9007 -3702.5036 -582.6798 -3702.5036 C -582.4589 -3702.5036 -582.27984 -3702.3245 -582.27984 -3702.1036 L -582.27984 -3700.5037 C -582.27984 -3700.283 -582.4589 -3700.1037 -582.6798 -3700.1037 C -582.9007 -3700.1037 -583.0798 -3700.283 -583.0798 -3700.5037 Z M -583.0798 -3698.904 C -583.0798 -3699.1247 -582.9007 -3699.3038 -582.6798 -3699.3038 C -582.4589 -3699.3038 -582.27984 -3699.1247 -582.27984 -3698.904 L -582.27984 -3697.304 C -582.27984 -3697.083 -582.4589 -3696.904 -582.6798 -3696.904 C -582.9007 -3696.904 -583.0798 -3697.083 -583.0798 -3697.304 Z" fill="#5c76a2"/>
      </g>
    </g>
  </g>
</svg>
