<svg xmlns="http://www.w3.org/2000/svg" viewBox="-593.179 -3710.204 25 25"><g fill="none"><path d="M-588.839-3709.704h16.32a3.84 3.84 0 0 1 3.84 3.84v16.32a3.84 3.84 0 0 1-3.84 3.84h-16.32a3.84 3.84 0 0 1-3.84-3.84v-16.32a3.84 3.84 0 0 1 3.84-3.84z" fill="#fff"/><path d="M-588.839-3709.704h16.32a3.84 3.84 0 0 1 3.84 3.84v16.32a3.84 3.84 0 0 1-3.84 3.84h-16.32a3.84 3.84 0 0 1-3.84-3.84v-16.32a3.84 3.84 0 0 1 3.84-3.84z" stroke="#000" stroke-linecap="round" stroke-linejoin="round" stroke-width=".25"/><path d="M-583.08-3704.903h-2a1.2 1.2 0 0 0-1.2 1.2v11.999a1.2 1.2 0 0 0 1.2 1.2h8.8a1.2 1.2 0 0 0 1.2-1.2v-10h-2.8a.4.4 0 0 1-.4-.4v-2.8h-4v1.2a.4.4 0 1 1-.8 0zm8.8 2.822v10.377a2 2 0 0 1-2 2h-8.8a2 2 0 0 1-2-2v-12a2 2 0 0 1 2-2h7.178a.391.391 0 0 1 .305.118l3.2 3.2a.391.391 0 0 1 .117.305zm-3.2-2.257v1.834h1.834zm-5.6 9.268v-.634a.4.4 0 1 1 .8 0v.634l.117.118c.438.437.683 1.03.683 1.648a1.2 1.2 0 0 1-2.4 0c0-.618.246-1.211.683-1.648l.117-.118zm0 1.766a.4.4 0 1 0 .8 0c0-.383-.143-.75-.4-1.032-.257.281-.4.65-.4 1.032zm0-8.8a.4.4 0 0 1 .8 0v1.6a.4.4 0 0 1-.8 0zm0 3.2a.4.4 0 0 1 .8 0v1.6a.4.4 0 1 1-.8 0z" fill="#5c76a2"/></g></svg>