<?xml version="1.0" encoding="UTF-8" standalone="no"?>
<!DOCTYPE svg PUBLIC "-//W3C//DTD SVG 1.1//EN" "http://www.w3.org/Graphics/SVG/1.1/DTD/svg11.dtd">
<svg version="1.1" xmlns="http://www.w3.org/2000/svg" xmlns:xl="http://www.w3.org/1999/xlink" xmlns:dc="http://purl.org/dc/elements/1.1/" viewBox="-549.1623 -3708.225 25 25" width="25" height="25">
  <defs/>
  <g id="SOURCES" stroke-dasharray="none" fill="none" stroke="none" fill-opacity="1" stroke-opacity="1">
    <title>SOURCES</title>
    <g id="SOURCES_Calque_1">
      <title>Calque 1</title>
      <g id="Graphic_6500">
        <title>views/view.other</title>
        <path d="M -544.8223 -3707.725 L -528.5023 -3707.725 C -526.38155 -3707.725 -524.6623 -3706.0058 -524.6623 -3703.885 L -524.6623 -3687.565 C -524.6623 -3685.4442 -526.38155 -3683.725 -528.5023 -3683.725 L -544.8223 -3683.725 C -546.9431 -3683.725 -548.6623 -3685.4442 -548.6623 -3687.565 L -548.6623 -3703.885 C -548.6623 -3706.0058 -546.9431 -3707.725 -544.8223 -3707.725 Z" fill="white"/>
        <path d="M -544.8223 -3707.725 L -528.5023 -3707.725 C -526.38155 -3707.725 -524.6623 -3706.0058 -524.6623 -3703.885 L -524.6623 -3687.565 C -524.6623 -3685.4442 -526.38155 -3683.725 -528.5023 -3683.725 L -544.8223 -3683.725 C -546.9431 -3683.725 -548.6623 -3685.4442 -548.6623 -3687.565 L -548.6623 -3703.885 C -548.6623 -3706.0058 -546.9431 -3707.725 -544.8223 -3707.725 Z" stroke="black" stroke-linecap="round" stroke-linejoin="round" stroke-width=".25"/>
      </g>
      <g id="Graphic_6503">
        <path d="M -544.6623 -3690.483 L -544.6623 -3700.883 C -544.6623 -3701.9875 -543.7669 -3702.883 -542.6623 -3702.883 L -530.6623 -3702.883 C -529.55775 -3702.883 -528.6623 -3701.9875 -528.6623 -3700.883 L -528.6623 -3690.483 C -528.6623 -3689.3783 -529.55775 -3688.483 -530.6623 -3688.483 L -542.6623 -3688.483 C -543.7669 -3688.483 -544.6623 -3689.3783 -544.6623 -3690.483 Z M -543.8623 -3693.683 C -543.52806 -3693.934 -543.11257 -3694.083 -542.6623 -3694.083 L -530.6623 -3694.083 C -530.2121 -3694.083 -529.7966 -3693.934 -529.4623 -3693.683 L -529.4623 -3700.883 C -529.4623 -3701.5456 -529.9996 -3702.083 -530.6623 -3702.083 L -542.6623 -3702.083 C -543.32507 -3702.083 -543.8623 -3701.5456 -543.8623 -3700.883 L -543.8623 -3693.683 Z M -543.8623 -3690.483 C -543.8623 -3689.82 -543.32507 -3689.283 -542.6623 -3689.283 L -530.6623 -3689.283 C -529.9996 -3689.283 -529.4623 -3689.82 -529.4623 -3690.483 L -529.4623 -3692.083 C -529.4623 -3692.7456 -529.9996 -3693.283 -530.6623 -3693.283 L -542.6623 -3693.283 C -543.32507 -3693.283 -543.8623 -3692.7456 -543.8623 -3692.083 Z M -532.2623 -3692.483 L -530.6623 -3692.483 C -530.4414 -3692.483 -530.2623 -3692.304 -530.2623 -3692.083 L -530.2623 -3690.483 C -530.2623 -3690.262 -530.4414 -3690.083 -530.6623 -3690.083 L -532.2623 -3690.083 C -532.48324 -3690.083 -532.6623 -3690.262 -532.6623 -3690.483 L -532.6623 -3692.083 C -532.6623 -3692.304 -532.48324 -3692.483 -532.2623 -3692.483 Z M -531.8623 -3691.683 L -531.8623 -3690.883 L -531.0623 -3690.883 L -531.0623 -3691.683 Z M -541.8623 -3690.883 C -542.08324 -3690.883 -542.2623 -3691.062 -542.2623 -3691.283 C -542.2623 -3691.504 -542.08324 -3691.683 -541.8623 -3691.683 L -537.0623 -3691.683 C -536.8414 -3691.683 -536.6623 -3691.504 -536.6623 -3691.283 C -536.6623 -3691.062 -536.8414 -3690.883 -537.0623 -3690.883 Z" fill="#5c76a2"/>
      </g>
    </g>
  </g>
</svg>
