<svg height="25" viewBox="-510.549 -3707.499 25 25" width="25" xmlns="http://www.w3.org/2000/svg"><g fill="none"><path d="m-506.2087-3706.9985h16.32c2.1208 0 3.84 1.7192 3.84 3.84v16.32c0 2.1207-1.7192 3.84-3.84 3.84h-16.32c-2.12075 0-3.84-1.7193-3.84-3.84v-16.32c0-2.1208 1.71925-3.84 3.84-3.84z" fill="#fff"/><path d="m-506.2087-3706.9985h16.32c2.1208 0 3.84 1.7192 3.84 3.84v16.32c0 2.1207-1.7192 3.84-3.84 3.84h-16.32c-2.12075 0-3.84-1.7193-3.84-3.84v-16.32c0-2.1208 1.71925-3.84 3.84-3.84z" stroke="#000" stroke-linecap="round" stroke-linejoin="round" stroke-width=".25"/><path d="m-504.1307-3700.5985c-.6627 0-1.2.5372-1.2 1.2v8.8c0 .6625.5373 1.2 1.2 1.2h12c.66276 0 1.2-.5375 1.2-1.2v-6.4c0-.6628-.53724-1.2-1.2-1.2h-4.4c-.88364 0-1.6-.7165-1.6-1.6 0-.4419-.35815-.8-.8-.8zm0-.8h5.2c.8837 0 1.6.7165 1.6 1.6 0 .4418.3582.8.8.8h4.4c1.1046 0 2 .8955 2 2v6.4c0 1.1045-.8954 2-2 2h-12c-1.10455 0-2-.8955-2-2v-8.8c0-1.1045.89545-2 2-2z" fill="#5c76a1"/></g></svg>