<svg height="25" viewBox="-471.935 -3707.499 25 25" width="25" xmlns="http://www.w3.org/2000/svg"><g fill="none"><path d="m-467.595-3706.9985h16.32c2.12075 0 3.84 1.7192 3.84 3.84v16.32c0 2.1207-1.71925 3.84-3.84 3.84h-16.32c-2.1208 0-3.84-1.7193-3.84-3.84v-16.32c0-2.1208 1.7192-3.84 3.84-3.84z" fill="#fff"/><path d="m-467.595-3706.9985h16.32c2.12075 0 3.84 1.7192 3.84 3.84v16.32c0 2.1207-1.71925 3.84-3.84 3.84h-16.32c-2.1208 0-3.84-1.7193-3.84-3.84v-16.32c0-2.1208 1.7192-3.84 3.84-3.84z" stroke="#000" stroke-linecap="round" stroke-linejoin="round" stroke-width=".25"/><path d="m-459.435-3686.9985c-4.4183 0-8-3.5818-8-8 0-4.4185 3.5817-8 8-8 4.41825 0 8 3.5815 8 8 0 4.4182-3.58175 8-8 8zm0-.8c3.9764 0 7.2-3.2235 7.2-7.2s-3.2236-7.2-7.2-7.2c-3.9765 0-7.2 3.2235-7.2 7.2s3.2235 7.2 7.2 7.2zm3.03247-5.5255c.17977.1284.2214.378.093.558-.1284.1797-.37822.2214-.55797.093l-2.8-2c-.075-.0536-.1292-.1314-.15343-.2203l-1.2-4.4c-.05813-.2131.06753-.433.28066-.4911.21313-.0582.43302.0674.49117.2804l1.1625 4.2628z" fill="#5c76a1"/></g></svg>