<?xml version="1.0" encoding="UTF-8" standalone="no"?>
<!DOCTYPE svg PUBLIC "-//W3C//DTD SVG 1.1//EN" "http://www.w3.org/Graphics/SVG/1.1/DTD/svg11.dtd">
<svg version="1.1" xmlns="http://www.w3.org/2000/svg" xmlns:xl="http://www.w3.org/1999/xlink" xmlns:dc="http://purl.org/dc/elements/1.1/" viewBox="-471.935 -3707.4985 25 25" width="25" height="25">
  <defs/>
  <g id="SOURCES" stroke-dasharray="none" fill="none" stroke="none" fill-opacity="1" stroke-opacity="1">
    <title>SOURCES</title>
    <g id="SOURCES_Calque_1">
      <title>Calque 1</title>
      <g id="Graphic_6417">
        <title>views/view.other</title>
        <path d="M -467.595 -3706.9985 L -451.275 -3706.9985 C -449.15425 -3706.9985 -447.435 -3705.2793 -447.435 -3703.1585 L -447.435 -3686.8385 C -447.435 -3684.7178 -449.15425 -3682.9985 -451.275 -3682.9985 L -467.595 -3682.9985 C -469.7158 -3682.9985 -471.435 -3684.7178 -471.435 -3686.8385 L -471.435 -3703.1585 C -471.435 -3705.2793 -469.7158 -3706.9985 -467.595 -3706.9985 Z" fill="white"/>
        <path d="M -467.595 -3706.9985 L -451.275 -3706.9985 C -449.15425 -3706.9985 -447.435 -3705.2793 -447.435 -3703.1585 L -447.435 -3686.8385 C -447.435 -3684.7178 -449.15425 -3682.9985 -451.275 -3682.9985 L -467.595 -3682.9985 C -469.7158 -3682.9985 -471.435 -3684.7178 -471.435 -3686.8385 L -471.435 -3703.1585 C -471.435 -3705.2793 -469.7158 -3706.9985 -467.595 -3706.9985 Z" stroke="black" stroke-linecap="round" stroke-linejoin="round" stroke-width=".25"/>
      </g>
      <g id="Graphic_6416">
        <path d="M -459.435 -3686.9985 C -463.8533 -3686.9985 -467.435 -3690.5803 -467.435 -3694.9985 C -467.435 -3699.417 -463.8533 -3702.9985 -459.435 -3702.9985 C -455.01675 -3702.9985 -451.435 -3699.417 -451.435 -3694.9985 C -451.435 -3690.5803 -455.01675 -3686.9985 -459.435 -3686.9985 Z M -459.435 -3687.7985 C -455.4586 -3687.7985 -452.235 -3691.022 -452.235 -3694.9985 C -452.235 -3698.975 -455.4586 -3702.1985 -459.435 -3702.1985 C -463.4115 -3702.1985 -466.635 -3698.975 -466.635 -3694.9985 C -466.635 -3691.022 -463.4115 -3687.7985 -459.435 -3687.7985 Z M -456.40253 -3693.324 C -456.22276 -3693.1956 -456.18113 -3692.946 -456.30953 -3692.766 C -456.43793 -3692.5863 -456.68775 -3692.5446 -456.8675 -3692.673 L -459.6675 -3694.673 C -459.7425 -3694.7266 -459.7967 -3694.8044 -459.82093 -3694.8933 L -461.02093 -3699.2933 C -461.07906 -3699.5064 -460.9534 -3699.7263 -460.74027 -3699.7844 C -460.52714 -3699.8426 -460.30725 -3699.717 -460.2491 -3699.504 L -459.0866 -3695.2412 Z" fill="#5c76a1"/>
      </g>
    </g>
  </g>
</svg>
