<svg height="25" viewBox="-396.5 -3694.551 25 25" width="25" xmlns="http://www.w3.org/2000/svg"><g fill="none"><path d="m-392.16004-3694.051h16.32c2.12077 0 3.84 1.7194 3.84 3.84v16.32c0 2.121-1.71923 3.84-3.84 3.84h-16.32c-2.12076 0-3.84-1.719-3.84-3.84v-16.32c0-2.1206 1.71924-3.84 3.84-3.84z" fill="#fff"/><path d="m-392.16004-3694.051h16.32c2.12077 0 3.84 1.7194 3.84 3.84v16.32c0 2.121-1.71923 3.84-3.84 3.84h-16.32c-2.12076 0-3.84-1.719-3.84-3.84v-16.32c0-2.1206 1.71924-3.84 3.84-3.84z" stroke="#000" stroke-linecap="round" stroke-linejoin="round" stroke-width=".25"/><path d="m-383.579-3687.771v9.0886c0 .2324-.1885.421-.42104.421-.23256 0-.42106-.1886-.42106-.421v-9.0886l-1.80753 1.8074c-.16443.1646-.43103.1646-.59547 0-.1644-.1644-.1644-.4311 0-.5954l2.52633-2.5264c.16443-.1646.43102-.1646.59547 0l2.5263 2.5264c.16443.1643.16443.431 0 .5954-.16443.1646-.43103.1646-.59546 0zm4.6316 1.0886c-.23255 0-.42106-.1886-.42106-.4211s.18851-.421.42106-.421h.8421c1.1627 0 2.10526.9425 2.10526 2.1052v8.4213c0 1.1625-.94256 2.105-2.10526 2.105h-11.7895c-1.1627 0-2.10524-.9425-2.10524-2.105v-8.4213c0-1.1627.94254-2.1052 2.10524-2.1052h.84212c.23255 0 .42108.1885.42108.421s-.18853.4211-.42108.4211h-.84212c-.6976 0-1.26314.5654-1.26314 1.2631v8.4213c0 .6974.56554 1.263 1.26314 1.263h11.7895c.6976 0 1.26315-.5656 1.26315-1.263v-8.4213c0-.6977-.56555-1.2631-1.26315-1.2631z" fill="#5c76a1"/></g></svg>