<svg height="25" viewBox="-431.935 -3694.551 25 25" width="25" xmlns="http://www.w3.org/2000/svg"><g fill="none"><path d="m-427.595-3694.051h16.31997c2.12078 0 3.84001 1.7194 3.84001 3.84v16.32c0 2.121-1.71923 3.84-3.84001 3.84h-16.31997c-2.1208 0-3.84-1.719-3.84-3.84v-16.32c0-2.1206 1.7192-3.84 3.84-3.84z" fill="#fff"/><path d="m-427.595-3694.051h16.31997c2.12078 0 3.84001 1.7194 3.84001 3.84v16.32c0 2.121-1.71923 3.84-3.84001 3.84h-16.31997c-2.1208 0-3.84-1.719-3.84-3.84v-16.32c0-2.1206 1.7192-3.84 3.84-3.84z" stroke="#000" stroke-linecap="round" stroke-linejoin="round" stroke-width=".25"/><path d="m-418.57895-3679.699 1.80755-1.8075c.1644-.1645.431-.1645.59544 0 .16443.1645.16443.4311 0 .5955l-2.52631 2.5263c-.16443.1645-.43103.1645-.59546 0l-2.52632-2.5263c-.16445-.1644-.16445-.431 0-.5955s.43105-.1645.59545 0l1.80754 1.8075v-9.0887c0-.2323.18852-.421.42106-.421s.42105.1887.42105.421zm4.63158-6.9834c-.23253 0-.42103-.1886-.42103-.4211s.1885-.421.42103-.421h.8421c1.16271 0 2.10527.9425 2.10527 2.1052v8.4213c0 1.1625-.94256 2.105-2.10527 2.105h-11.78947c-1.16271 0-2.10526-.9425-2.10526-2.105v-8.4213c0-1.1627.94255-2.1052 2.10526-2.1052h.8421c.23254 0 .42104.1885.42104.421s-.1885.4211-.42104.4211h-.8421c-.69762 0-1.26316.5654-1.26316 1.2631v8.4213c0 .6974.56554 1.263 1.26316 1.263h11.78947c.69763 0 1.26317-.5656 1.26317-1.263v-8.4213c0-.6977-.56554-1.2631-1.26317-1.2631z" fill="#5c76a1"/></g></svg>