<svg height="25" viewBox="-396.5 -3694.551 25 25" width="25" xmlns="http://www.w3.org/2000/svg"><g fill="none"><path d="M-392.16-3694.051h16.32a3.84 3.84 0 0 1 3.84 3.84v16.32a3.84 3.84 0 0 1-3.84 3.84h-16.32a3.84 3.84 0 0 1-3.84-3.84v-16.32a3.84 3.84 0 0 1 3.84-3.84z" fill="#fff"/><path d="M-392.16-3694.051h16.32a3.84 3.84 0 0 1 3.84 3.84v16.32a3.84 3.84 0 0 1-3.84 3.84h-16.32a3.84 3.84 0 0 1-3.84-3.84v-16.32a3.84 3.84 0 0 1 3.84-3.84z" stroke="#000" stroke-linecap="round" stroke-linejoin="round" stroke-width=".25"/><path d="M-383.579-3687.771v9.089a.421.421 0 0 1-.842 0v-9.089l-1.808 1.807a.42.42 0 1 1-.595-.595l2.526-2.526a.42.42 0 0 1 .596 0l2.526 2.526a.421.421 0 1 1-.595.595zm4.632 1.089a.421.421 0 0 1 0-.843h.842c1.162 0 2.105.943 2.105 2.106v8.421a2.105 2.105 0 0 1-2.105 2.105h-11.79a2.105 2.105 0 0 1-2.105-2.105v-8.421c0-1.163.943-2.106 2.105-2.106h.842a.421.421 0 1 1 0 .843h-.842c-.697 0-1.263.565-1.263 1.263v8.421c0 .697.566 1.263 1.263 1.263h11.79c.697 0 1.263-.566 1.263-1.263v-8.421c0-.698-.566-1.263-1.263-1.263z" fill="#5c76a1"/></g></svg>