<?xml version="1.0" encoding="UTF-8" standalone="no"?>
<!DOCTYPE svg PUBLIC "-//W3C//DTD SVG 1.1//EN" "http://www.w3.org/Graphics/SVG/1.1/DTD/svg11.dtd">
<svg version="1.1" xmlns="http://www.w3.org/2000/svg" xmlns:xl="http://www.w3.org/1999/xlink" xmlns:dc="http://purl.org/dc/elements/1.1/" viewBox="-431.935 -3694.551 25 25" width="25" height="25">
  <defs/>
  <g id="SOURCES" stroke-dasharray="none" fill="none" stroke="none" fill-opacity="1" stroke-opacity="1">
    <title>SOURCES</title>
    <g id="SOURCES_Calque_1">
      <title>Calque 1</title>
      <g id="Graphic_6401">
        <title>views/view.other</title>
        <path d="M -427.595 -3694.051 L -411.27503 -3694.051 C -409.15425 -3694.051 -407.43502 -3692.3316 -407.43502 -3690.211 L -407.43502 -3673.891 C -407.43502 -3671.77 -409.15425 -3670.051 -411.27503 -3670.051 L -427.595 -3670.051 C -429.7158 -3670.051 -431.435 -3671.77 -431.435 -3673.891 L -431.435 -3690.211 C -431.435 -3692.3316 -429.7158 -3694.051 -427.595 -3694.051 Z" fill="white"/>
        <path d="M -427.595 -3694.051 L -411.27503 -3694.051 C -409.15425 -3694.051 -407.43502 -3692.3316 -407.43502 -3690.211 L -407.43502 -3673.891 C -407.43502 -3671.77 -409.15425 -3670.051 -411.27503 -3670.051 L -427.595 -3670.051 C -429.7158 -3670.051 -431.435 -3671.77 -431.435 -3673.891 L -431.435 -3690.211 C -431.435 -3692.3316 -429.7158 -3694.051 -427.595 -3694.051 Z" stroke="black" stroke-linecap="round" stroke-linejoin="round" stroke-width=".25"/>
      </g>
      <g id="Graphic_6368">
        <path d="M -418.57895 -3679.699 L -416.7714 -3681.5065 C -416.607 -3681.671 -416.3404 -3681.671 -416.17596 -3681.5065 C -416.01153 -3681.342 -416.01153 -3681.0754 -416.17596 -3680.911 L -418.70227 -3678.3847 C -418.8667 -3678.2202 -419.1333 -3678.2202 -419.29773 -3678.3847 L -421.82405 -3680.911 C -421.9885 -3681.0754 -421.9885 -3681.342 -421.82405 -3681.5065 C -421.6596 -3681.671 -421.393 -3681.671 -421.2286 -3681.5065 L -419.42106 -3679.699 L -419.42106 -3688.7877 C -419.42106 -3689.02 -419.23254 -3689.2087 -419 -3689.2087 C -418.76746 -3689.2087 -418.57895 -3689.02 -418.57895 -3688.7877 L -418.57895 -3679.699 Z M -413.94737 -3686.6824 C -414.1799 -3686.6824 -414.3684 -3686.871 -414.3684 -3687.1035 C -414.3684 -3687.336 -414.1799 -3687.5245 -413.94737 -3687.5245 L -413.10527 -3687.5245 C -411.94256 -3687.5245 -411 -3686.582 -411 -3685.4193 L -411 -3676.998 C -411 -3675.8355 -411.94256 -3674.893 -413.10527 -3674.893 L -424.89474 -3674.893 C -426.05745 -3674.893 -427 -3675.8355 -427 -3676.998 L -427 -3685.4193 C -427 -3686.582 -426.05745 -3687.5245 -424.89474 -3687.5245 L -424.05264 -3687.5245 C -423.8201 -3687.5245 -423.6316 -3687.336 -423.6316 -3687.1035 C -423.6316 -3686.871 -423.8201 -3686.6824 -424.05264 -3686.6824 L -424.89474 -3686.6824 C -425.59236 -3686.6824 -426.1579 -3686.117 -426.1579 -3685.4193 L -426.1579 -3676.998 C -426.1579 -3676.3006 -425.59236 -3675.735 -424.89474 -3675.735 L -413.10527 -3675.735 C -412.40764 -3675.735 -411.8421 -3676.3006 -411.8421 -3676.998 L -411.8421 -3685.4193 C -411.8421 -3686.117 -412.40764 -3686.6824 -413.10527 -3686.6824 Z" fill="#5c76a1"/>
      </g>
    </g>
  </g>
</svg>
