<?xml version="1.0" encoding="UTF-8" standalone="no"?>
<!DOCTYPE svg PUBLIC "-//W3C//DTD SVG 1.1//EN" "http://www.w3.org/Graphics/SVG/1.1/DTD/svg11.dtd">
<svg version="1.1" xmlns="http://www.w3.org/2000/svg" xmlns:xl="http://www.w3.org/1999/xlink" xmlns:dc="http://purl.org/dc/elements/1.1/" viewBox="-396.50004 -3694.551 25 25" width="25" height="25">
  <defs/>
  <g id="SOURCES" stroke-dasharray="none" fill="none" stroke="none" fill-opacity="1" stroke-opacity="1">
    <title>SOURCES</title>
    <g id="SOURCES_Calque_1">
      <title>Calque 1</title>
      <g id="Graphic_6400">
        <title>views/view.other</title>
        <path d="M -392.16004 -3694.051 L -375.84004 -3694.051 C -373.71927 -3694.051 -372.00004 -3692.3316 -372.00004 -3690.211 L -372.00004 -3673.891 C -372.00004 -3671.77 -373.71927 -3670.051 -375.84004 -3670.051 L -392.16004 -3670.051 C -394.2808 -3670.051 -396.00004 -3671.77 -396.00004 -3673.891 L -396.00004 -3690.211 C -396.00004 -3692.3316 -394.2808 -3694.051 -392.16004 -3694.051 Z" fill="white"/>
        <path d="M -392.16004 -3694.051 L -375.84004 -3694.051 C -373.71927 -3694.051 -372.00004 -3692.3316 -372.00004 -3690.211 L -372.00004 -3673.891 C -372.00004 -3671.77 -373.71927 -3670.051 -375.84004 -3670.051 L -392.16004 -3670.051 C -394.2808 -3670.051 -396.00004 -3671.77 -396.00004 -3673.891 L -396.00004 -3690.211 C -396.00004 -3692.3316 -394.2808 -3694.051 -392.16004 -3694.051 Z" stroke="black" stroke-linecap="round" stroke-linejoin="round" stroke-width=".25"/>
      </g>
      <g id="Graphic_6367">
        <path d="M -383.579 -3687.771 L -383.579 -3678.6824 C -383.579 -3678.45 -383.7675 -3678.2614 -384.00004 -3678.2614 C -384.2326 -3678.2614 -384.4211 -3678.45 -384.4211 -3678.6824 L -384.4211 -3687.771 L -386.22863 -3685.9636 C -386.39306 -3685.799 -386.65966 -3685.799 -386.8241 -3685.9636 C -386.9885 -3686.128 -386.9885 -3686.3947 -386.8241 -3686.559 L -384.29777 -3689.0854 C -384.13334 -3689.25 -383.86675 -3689.25 -383.7023 -3689.0854 L -381.176 -3686.559 C -381.01157 -3686.3947 -381.01157 -3686.128 -381.176 -3685.9636 C -381.34043 -3685.799 -381.60703 -3685.799 -381.77146 -3685.9636 L -383.579 -3687.771 Z M -378.9474 -3686.6824 C -379.17995 -3686.6824 -379.36846 -3686.871 -379.36846 -3687.1035 C -379.36846 -3687.336 -379.17995 -3687.5245 -378.9474 -3687.5245 L -378.1053 -3687.5245 C -376.9426 -3687.5245 -376.00004 -3686.582 -376.00004 -3685.4193 L -376.00004 -3676.998 C -376.00004 -3675.8355 -376.9426 -3674.893 -378.1053 -3674.893 L -389.8948 -3674.893 C -391.0575 -3674.893 -392.00004 -3675.8355 -392.00004 -3676.998 L -392.00004 -3685.4193 C -392.00004 -3686.582 -391.0575 -3687.5245 -389.8948 -3687.5245 L -389.05268 -3687.5245 C -388.82013 -3687.5245 -388.6316 -3687.336 -388.6316 -3687.1035 C -388.6316 -3686.871 -388.82013 -3686.6824 -389.05268 -3686.6824 L -389.8948 -3686.6824 C -390.5924 -3686.6824 -391.15794 -3686.117 -391.15794 -3685.4193 L -391.15794 -3676.998 C -391.15794 -3676.3006 -390.5924 -3675.735 -389.8948 -3675.735 L -378.1053 -3675.735 C -377.4077 -3675.735 -376.84215 -3676.3006 -376.84215 -3676.998 L -376.84215 -3685.4193 C -376.84215 -3686.117 -377.4077 -3686.6824 -378.1053 -3686.6824 Z" fill="#5c76a1"/>
      </g>
    </g>
  </g>
</svg>
