<svg xmlns="http://www.w3.org/2000/svg" viewBox="-310.951 -3710.75 25 25"><g fill="none"><path d="M-306.61-3710.25h16.32a3.84 3.84 0 0 1 3.84 3.84v16.32a3.84 3.84 0 0 1-3.84 3.84h-16.32a3.84 3.84 0 0 1-3.84-3.84v-16.32a3.84 3.84 0 0 1 3.84-3.84z" fill="#fff"/><path d="M-306.61-3710.25h16.32a3.84 3.84 0 0 1 3.84 3.84v16.32a3.84 3.84 0 0 1-3.84 3.84h-16.32a3.84 3.84 0 0 1-3.84-3.84v-16.32a3.84 3.84 0 0 1 3.84-3.84z" stroke="#000" stroke-linecap="round" stroke-linejoin="round" stroke-width=".25"/><path d="M-292.24-3700.65a.4.4 0 0 1-.4-.4v-1.2h-2.8a.4.4 0 0 1-.4-.4v-2.8h-6.8a1.2 1.2 0 0 0-1.2 1.2v12a1.2 1.2 0 0 0 1.2 1.2h8.8a1.2 1.2 0 0 0 1.2-1.2v-1.6a.4.4 0 0 1 .799 0v1.6a2 2 0 0 1-2 2h-8.8a2 2 0 0 1-2-2v-12a2 2 0 0 1 2-1.999h7.178a.39.39 0 0 1 .305.117l3.2 3.2a.391.391 0 0 1 .117.305v1.577a.4.4 0 0 1-.4.4zm-.967 3.2h-6.245a.4.4 0 0 1 0-.8h6.245l-1.717-1.717a.4.4 0 1 1 .566-.565l2.4 2.4a.4.4 0 0 1 0 .565l-2.4 2.4a.4.4 0 1 1-.566-.566zm-1.834-7.434v1.835h1.834z" fill="#5c75a2"/></g></svg>