<svg height="25" viewBox="-349.472 -3710.75 25 25" width="25" xmlns="http://www.w3.org/2000/svg"><g fill="none"><path d="M-345.132-3710.25h16.32a3.84 3.84 0 0 1 3.84 3.84v16.32a3.84 3.84 0 0 1-3.84 3.84h-16.32a3.84 3.84 0 0 1-3.84-3.84v-16.32a3.84 3.84 0 0 1 3.84-3.84z" fill="#fff"/><path d="M-345.132-3710.25h16.32a3.84 3.84 0 0 1 3.84 3.84v16.32a3.84 3.84 0 0 1-3.84 3.84h-16.32a3.84 3.84 0 0 1-3.84-3.84v-16.32a3.84 3.84 0 0 1 3.84-3.84z" stroke="#000" stroke-linecap="round" stroke-linejoin="round" stroke-width=".25"/><path d="M-331.639-3703.583h2.222a.444.444 0 1 1 0 .889h-2.222v2.222a.444.444 0 0 1-.889 0v-2.222h-2.222a.445.445 0 0 1 0-.89h2.222v-2.222a.444.444 0 0 1 .889 0zm1.778 4.889a.444.444 0 1 1 .889 0v6.222a2.222 2.222 0 0 1-2.223 2.222h-11.555a2.222 2.222 0 0 1-2.222-2.222v-11.556c0-1.227.995-2.222 2.222-2.222h6.222a.444.444 0 0 1 0 .889h-6.222c-.736 0-1.333.597-1.333 1.333v11.556c0 .736.597 1.333 1.333 1.333h11.555c.737 0 1.334-.597 1.334-1.333z" fill="#5c76a2"/></g></svg>