<svg height="25" viewBox="-310.951 -3710.75 25 25" width="25" xmlns="http://www.w3.org/2000/svg"><g fill="none"><path d="m-306.6109-3710.25h16.32c2.1208 0 3.84 1.7192 3.84 3.84v16.32c0 2.1208-1.7192 3.84-3.84 3.84h-16.32c-2.12076 0-3.84-1.7192-3.84-3.84v-16.32c0-2.1208 1.71924-3.84 3.84-3.84z" fill="#fff"/><path d="m-306.6109-3710.25h16.32c2.1208 0 3.84 1.7192 3.84 3.84v16.32c0 2.1208-1.7192 3.84-3.84 3.84h-16.32c-2.12076 0-3.84-1.7192-3.84-3.84v-16.32c0-2.1208 1.71924-3.84 3.84-3.84z" stroke="#000" stroke-linecap="round" stroke-linejoin="round" stroke-width=".25"/><path d="m-292.24095-3700.6495c-.2209 0-.39998-.1791-.39998-.4v-1.1999h-2.79987c-.2209 0-.39997-.1791-.39997-.4v-2.7998h-6.79966c-.66271 0-1.19994.5372-1.19994 1.1999v11.9993c0 .663.53723 1.2 1.19994 1.2h8.79956c.66271 0 1.19994-.537 1.19994-1.2v-1.6c0-.2207.17908-.4.39998-.4s.39998.1793.39998.4v1.6c0 1.1046-.89539 2-1.9999 2h-8.79956c-1.10451 0-1.9999-.8954-1.9999-2v-11.9993c0-1.1047.89539-1.9997 1.9999-1.9997h7.17726c.10619-.007.21673.0285.30521.117l3.19984 3.2c.08848.0883.12388.199.11715.305v1.5775c0 .2209-.17908.4-.39998.4zm-.96565 3.1999h-6.2451c-.2209 0-.39997-.1791-.39997-.4s.17907-.4.39997-.4h6.2451l-1.71706-1.7171c-.1562-.1563-.1562-.4093 0-.5656.1562-.1562.40946-.1562.56566 0l2.39988 2.3999c.1562.1562.1562.4094 0 .5654l-2.39988 2.4c-.1562.1563-.40946.1563-.56566 0-.1562-.156-.1562-.4094 0-.5656zm-1.8342-7.434v1.8342h1.8342z" fill="#5c75a2"/></g></svg>