<svg height="25" viewBox="-349.472 -3710.75 25 25" width="25" xmlns="http://www.w3.org/2000/svg"><g fill="none"><path d="m-345.13236-3710.25h16.32c2.12076 0 3.84 1.7192 3.84 3.84v16.32c0 2.1208-1.71924 3.84-3.84 3.84h-16.32c-2.12077 0-3.84-1.7192-3.84-3.84v-16.32c0-2.1208 1.71923-3.84 3.84-3.84z" fill="#fff"/><path d="m-345.13236-3710.25h16.32c2.12076 0 3.84 1.7192 3.84 3.84v16.32c0 2.1208-1.71924 3.84-3.84 3.84h-16.32c-2.12077 0-3.84-1.7192-3.84-3.84v-16.32c0-2.1208 1.71923-3.84 3.84-3.84z" stroke="#000" stroke-linecap="round" stroke-linejoin="round" stroke-width=".25"/><path d="m-331.63903-3703.5833h2.22223c.24546 0 .44444.199.44444.4443 0 .2456-.19898.4446-.44444.4446h-2.22223v2.2222c0 .2454-.19897.4444-.44444.4444-.24546 0-.44443-.199-.44443-.4444v-2.2222h-2.22224c-.24546 0-.44446-.199-.44446-.4446 0-.2453.199-.4443.44446-.4443h2.22224v-2.2223c0-.2454.19897-.4444.44443-.4444.24547 0 .44444.199.44444.4444zm1.77778 4.8889c0-.2456.19899-.4446.44445-.4446s.44444.199.44444.4446v6.2222c0 1.2272-.99494 2.2222-2.22224 2.2222h-11.55554c-1.2273 0-2.22222-.995-2.22222-2.2222v-11.5556c0-1.2272.99492-2.2222 2.22222-2.2222h6.22224c.24545 0 .44443.199.44443.4444 0 .2456-.19898.4446-.44443.4446h-6.22224c-.73636 0-1.33333.597-1.33333 1.3332v11.5556c0 .7362.59697 1.3332 1.33333 1.3332h11.55554c.7364 0 1.33335-.597 1.33335-1.3332z" fill="#5c76a2"/></g></svg>