<svg height="25" viewBox="-231.649 -3709.15 25 25" width="25" xmlns="http://www.w3.org/2000/svg"><g fill="none"><path d="m-227.30903-3708.65h16.32c2.12077 0 3.84 1.7192 3.84 3.84v16.32c0 2.1208-1.71923 3.84-3.84 3.84h-16.32c-2.12077 0-3.84-1.7192-3.84-3.84v-16.32c0-2.1208 1.71923-3.84 3.84-3.84z" fill="#fff"/><path d="m-227.30903-3708.65h16.32c2.12077 0 3.84 1.7192 3.84 3.84v16.32c0 2.1208-1.71923 3.84-3.84 3.84h-16.32c-2.12077 0-3.84-1.7192-3.84-3.84v-16.32c0-2.1208 1.71923-3.84 3.84-3.84z" stroke="#000" stroke-linecap="round" stroke-linejoin="round" stroke-width=".25"/><path d="m-212.74975-3701.027v10.377c0 1.1046-.89539 2-1.9999 2h-8.79955c-1.10452 0-1.9999-.8954-1.9999-2v-11.9993c0-1.1047.89538-1.9997 1.9999-1.9997h7.17725c.10619-.007.21673.0285.30521.117l3.19984 3.2c.08848.0883.12388.199.11715.305zm-3.9998-2.8222h-6.79965c-.66272 0-1.19995.5372-1.19995 1.1999v11.9993c0 .663.53723 1.2 1.19995 1.2h8.79955c.66271 0 1.19995-.537 1.19995-1.2v-9.9994h-2.79987c-.2209 0-.39998-.1791-.39998-.4zm.79995.5656v1.8342h1.83423z" fill="#518737"/><path d="m-216.39551-3696.2566h-2.08481c-.15208 0-.27535.1232-.27535.2753v1.8093c0 .1522-.12328.2755-.27535.2755h-.23602c-.15206 0-.27536-.1233-.27536-.2755v-1.8093c0-.1521-.12327-.2753-.27534-.2753h-1.80946c-.15207 0-.27534-.1234-.27534-.2754v-.236c0-.152.12327-.2754.27534-.2754h1.80946c.15207 0 .27534-.1232.27534-.2753v-1.8093c0-.1522.1233-.2755.27536-.2755h.23602c.15207 0 .27535.1233.27535.2755v1.8093c0 .1521.12327.2753.27535.2753h1.80945c.15207 0 .27536.1234.27536.2754z" fill="#528737"/><path d="m-216.39551-3696.2566h-2.08481c-.15208 0-.27535.1232-.27535.2753v1.8093c0 .1522-.12328.2755-.27535.2755h-.23602c-.15206 0-.27536-.1233-.27536-.2755v-1.8093c0-.1521-.12327-.2753-.27534-.2753h-1.80946c-.15207 0-.27534-.1234-.27534-.2754v-.236c0-.152.12327-.2754.27534-.2754h1.80946c.15207 0 .27534-.1232.27534-.2753v-1.8093c0-.1522.1233-.2755.27536-.2755h.23602c.15207 0 .27535.1233.27535.2755v1.8093c0 .1521.12327.2753.27535.2753h1.80945c.15207 0 .27536.1234.27536.2754z"/></g></svg>