<?xml version="1.0" encoding="UTF-8" standalone="no"?>
<!DOCTYPE svg PUBLIC "-//W3C//DTD SVG 1.1//EN" "http://www.w3.org/Graphics/SVG/1.1/DTD/svg11.dtd">
<svg version="1.1" xmlns="http://www.w3.org/2000/svg" xmlns:xl="http://www.w3.org/1999/xlink" xmlns:dc="http://purl.org/dc/elements/1.1/" viewBox="-268.5 -3710.75 25 25" width="25" height="25">
  <defs/>
  <g id="SOURCES" stroke-dasharray="none" fill="none" stroke="none" fill-opacity="1" stroke-opacity="1">
    <title>SOURCES</title>
    <g id="SOURCES_Calque_1">
      <title>Calque 1</title>
      <g id="Graphic_6364">
        <title>views/view.other</title>
        <path d="M -264.16 -3710.25 L -247.84 -3710.25 C -245.71923 -3710.25 -244 -3708.5308 -244 -3706.41 L -244 -3690.09 C -244 -3687.9692 -245.71923 -3686.25 -247.84 -3686.25 L -264.16 -3686.25 C -266.28077 -3686.25 -268 -3687.9692 -268 -3690.09 L -268 -3706.41 C -268 -3708.5308 -266.28077 -3710.25 -264.16 -3710.25 Z" fill="white"/>
        <path d="M -264.16 -3710.25 L -247.84 -3710.25 C -245.71923 -3710.25 -244 -3708.5308 -244 -3706.41 L -244 -3690.09 C -244 -3687.9692 -245.71923 -3686.25 -247.84 -3686.25 L -264.16 -3686.25 C -266.28077 -3686.25 -268 -3687.9692 -268 -3690.09 L -268 -3706.41 C -268 -3708.5308 -266.28077 -3710.25 -264.16 -3710.25 Z" stroke="black" stroke-linecap="round" stroke-linejoin="round" stroke-width=".25"/>
      </g>
      <g id="Graphic_6366">
        <path d="M -256 -3696.65 L -256 -3694.65 C -256 -3694.429 -256.1791 -3694.25 -256.4 -3694.25 C -256.6209 -3694.25 -256.8 -3694.429 -256.8 -3694.65 L -256.8 -3696.65 L -258.8 -3696.65 C -259.0209 -3696.65 -259.2 -3696.829 -259.2 -3697.05 C -259.2 -3697.271 -259.0209 -3697.45 -258.8 -3697.45 L -256.8 -3697.45 L -256.8 -3699.45 C -256.8 -3699.671 -256.6209 -3699.85 -256.4 -3699.85 C -256.1791 -3699.85 -256 -3699.671 -256 -3699.45 L -256 -3697.45 L -254 -3697.45 C -253.7791 -3697.45 -253.6 -3697.271 -253.6 -3697.05 C -253.6 -3696.829 -253.7791 -3696.65 -254 -3696.65 Z M -262 -3704.65 L -256.8 -3704.65 C -255.91634 -3704.65 -255.2 -3703.9337 -255.2 -3703.05 C -255.2 -3702.608 -254.84183 -3702.25 -254.4 -3702.25 L -250 -3702.25 C -248.89543 -3702.25 -248 -3701.3546 -248 -3700.25 L -248 -3693.85 C -248 -3692.7454 -248.89543 -3691.85 -250 -3691.85 L -262 -3691.85 C -263.10457 -3691.85 -264 -3692.7454 -264 -3693.85 L -264 -3702.65 C -264 -3703.7546 -263.10457 -3704.65 -262 -3704.65 Z M -262 -3703.85 C -262.66274 -3703.85 -263.2 -3703.3127 -263.2 -3702.65 L -263.2 -3693.85 C -263.2 -3693.1873 -262.66274 -3692.65 -262 -3692.65 L -250 -3692.65 C -249.33726 -3692.65 -248.8 -3693.1873 -248.8 -3693.85 L -248.8 -3700.25 C -248.8 -3700.9127 -249.33726 -3701.45 -250 -3701.45 L -254.4 -3701.45 C -255.28366 -3701.45 -256 -3702.1663 -256 -3703.05 C -256 -3703.492 -256.35817 -3703.85 -256.8 -3703.85 Z" fill="#528637"/>
      </g>
    </g>
  </g>
</svg>
