<svg height="25" viewBox="-268.5 -3710.75 25 25" width="25" xmlns="http://www.w3.org/2000/svg"><g fill="none"><path d="M-264.16-3710.25h16.32a3.84 3.84 0 0 1 3.84 3.84v16.32a3.84 3.84 0 0 1-3.84 3.84h-16.32a3.84 3.84 0 0 1-3.84-3.84v-16.32a3.84 3.84 0 0 1 3.84-3.84z" fill="#fff"/><path d="M-264.16-3710.25h16.32a3.84 3.84 0 0 1 3.84 3.84v16.32a3.84 3.84 0 0 1-3.84 3.84h-16.32a3.84 3.84 0 0 1-3.84-3.84v-16.32a3.84 3.84 0 0 1 3.84-3.84z" stroke="#000" stroke-linecap="round" stroke-linejoin="round" stroke-width=".25"/><path d="M-256-3696.65v2a.4.4 0 1 1-.8 0v-2h-2a.4.4 0 1 1 0-.8h2v-2a.4.4 0 1 1 .8 0v2h2a.4.4 0 1 1 0 .8zm-6-8h5.2a1.6 1.6 0 0 1 1.6 1.6.8.8 0 0 0 .8.8h4.4a2 2 0 0 1 2 2v6.4a2 2 0 0 1-2 2h-12a2 2 0 0 1-2-2v-8.8a2 2 0 0 1 2-2zm0 .8a1.2 1.2 0 0 0-1.2 1.2v8.8a1.2 1.2 0 0 0 1.2 1.2h12a1.2 1.2 0 0 0 1.2-1.2v-6.4a1.2 1.2 0 0 0-1.2-1.2h-4.4a1.6 1.6 0 0 1-1.6-1.6.8.8 0 0 0-.8-.8z" fill="#528637"/></g></svg>