<?xml version="1.0" encoding="UTF-8" standalone="no"?>
<!DOCTYPE svg PUBLIC "-//W3C//DTD SVG 1.1//EN" "http://www.w3.org/Graphics/SVG/1.1/DTD/svg11.dtd">
<svg version="1.1" xmlns="http://www.w3.org/2000/svg" xmlns:xl="http://www.w3.org/1999/xlink" xmlns:dc="http://purl.org/dc/elements/1.1/" viewBox="-231.64903 -3709.15 25 25" width="25" height="25">
  <defs/>
  <g id="SOURCES" stroke-dasharray="none" fill="none" stroke="none" fill-opacity="1" stroke-opacity="1">
    <title>SOURCES</title>
    <g id="SOURCES_Calque_1">
      <title>Calque 1</title>
      <g id="Graphic_6388">
        <title>views/view.other</title>
        <path d="M -227.30903 -3708.65 L -210.98903 -3708.65 C -208.86826 -3708.65 -207.14903 -3706.9308 -207.14903 -3704.81 L -207.14903 -3688.49 C -207.14903 -3686.3692 -208.86826 -3684.65 -210.98903 -3684.65 L -227.30903 -3684.65 C -229.4298 -3684.65 -231.14903 -3686.3692 -231.14903 -3688.49 L -231.14903 -3704.81 C -231.14903 -3706.9308 -229.4298 -3708.65 -227.30903 -3708.65 Z" fill="white"/>
        <path d="M -227.30903 -3708.65 L -210.98903 -3708.65 C -208.86826 -3708.65 -207.14903 -3706.9308 -207.14903 -3704.81 L -207.14903 -3688.49 C -207.14903 -3686.3692 -208.86826 -3684.65 -210.98903 -3684.65 L -227.30903 -3684.65 C -229.4298 -3684.65 -231.14903 -3686.3692 -231.14903 -3688.49 L -231.14903 -3704.81 C -231.14903 -3706.9308 -229.4298 -3708.65 -227.30903 -3708.65 Z" stroke="black" stroke-linecap="round" stroke-linejoin="round" stroke-width=".25"/>
      </g>
      <g id="Graphic_6385">
        <path d="M -212.74975 -3701.027 L -212.74975 -3690.65 C -212.74975 -3689.5454 -213.64514 -3688.65 -214.74965 -3688.65 L -223.5492 -3688.65 C -224.65372 -3688.65 -225.5491 -3689.5454 -225.5491 -3690.65 L -225.5491 -3702.6493 C -225.5491 -3703.754 -224.65372 -3704.649 -223.5492 -3704.649 L -216.37195 -3704.649 C -216.26576 -3704.656 -216.15522 -3704.6205 -216.06674 -3704.532 L -212.8669 -3701.332 C -212.77842 -3701.2437 -212.74302 -3701.133 -212.74975 -3701.027 Z M -216.74955 -3703.8492 L -223.5492 -3703.8492 C -224.21192 -3703.8492 -224.74915 -3703.312 -224.74915 -3702.6493 L -224.74915 -3690.65 C -224.74915 -3689.987 -224.21192 -3689.45 -223.5492 -3689.45 L -214.74965 -3689.45 C -214.08694 -3689.45 -213.5497 -3689.987 -213.5497 -3690.65 L -213.5497 -3700.6494 L -216.34957 -3700.6494 C -216.57047 -3700.6494 -216.74955 -3700.8285 -216.74955 -3701.0494 Z M -215.9496 -3703.2836 L -215.9496 -3701.4494 L -214.11537 -3701.4494 Z" fill="#518737"/>
      </g>
      <g id="Graphic_6386">
        <path d="M -216.39551 -3696.2566 L -218.48032 -3696.2566 C -218.6324 -3696.2566 -218.75567 -3696.1334 -218.75567 -3695.9813 L -218.75567 -3694.172 C -218.75567 -3694.0198 -218.87895 -3693.8965 -219.03102 -3693.8965 L -219.26704 -3693.8965 C -219.4191 -3693.8965 -219.5424 -3694.0198 -219.5424 -3694.172 L -219.5424 -3695.9813 C -219.5424 -3696.1334 -219.66567 -3696.2566 -219.81774 -3696.2566 L -221.6272 -3696.2566 C -221.77927 -3696.2566 -221.90254 -3696.38 -221.90254 -3696.532 L -221.90254 -3696.768 C -221.90254 -3696.92 -221.77927 -3697.0434 -221.6272 -3697.0434 L -219.81774 -3697.0434 C -219.66567 -3697.0434 -219.5424 -3697.1666 -219.5424 -3697.3187 L -219.5424 -3699.128 C -219.5424 -3699.2802 -219.4191 -3699.4035 -219.26704 -3699.4035 L -219.03102 -3699.4035 C -218.87895 -3699.4035 -218.75567 -3699.2802 -218.75567 -3699.128 L -218.75567 -3697.3187 C -218.75567 -3697.1666 -218.6324 -3697.0434 -218.48032 -3697.0434 L -216.67087 -3697.0434 C -216.5188 -3697.0434 -216.39551 -3696.92 -216.39551 -3696.768 L -216.39551 -3696.2566 Z" fill="#528737"/>
        <path d="M -216.39551 -3696.2566 L -218.48032 -3696.2566 C -218.6324 -3696.2566 -218.75567 -3696.1334 -218.75567 -3695.9813 L -218.75567 -3694.172 C -218.75567 -3694.0198 -218.87895 -3693.8965 -219.03102 -3693.8965 L -219.26704 -3693.8965 C -219.4191 -3693.8965 -219.5424 -3694.0198 -219.5424 -3694.172 L -219.5424 -3695.9813 C -219.5424 -3696.1334 -219.66567 -3696.2566 -219.81774 -3696.2566 L -221.6272 -3696.2566 C -221.77927 -3696.2566 -221.90254 -3696.38 -221.90254 -3696.532 L -221.90254 -3696.768 C -221.90254 -3696.92 -221.77927 -3697.0434 -221.6272 -3697.0434 L -219.81774 -3697.0434 C -219.66567 -3697.0434 -219.5424 -3697.1666 -219.5424 -3697.3187 L -219.5424 -3699.128 C -219.5424 -3699.2802 -219.4191 -3699.4035 -219.26704 -3699.4035 L -219.03102 -3699.4035 C -218.87895 -3699.4035 -218.75567 -3699.2802 -218.75567 -3699.128 L -218.75567 -3697.3187 C -218.75567 -3697.1666 -218.6324 -3697.0434 -218.48032 -3697.0434 L -216.67087 -3697.0434 C -216.5188 -3697.0434 -216.39551 -3696.92 -216.39551 -3696.768 L -216.39551 -3696.2566 Z" stroke="#518737" stroke-linecap="round" stroke-linejoin="round" stroke-width="0"/>
      </g>
    </g>
  </g>
</svg>
