<svg height="25" viewBox="-268.5 -3710.75 25 25" width="25" xmlns="http://www.w3.org/2000/svg"><g fill="none"><path d="m-264.16-3710.25h16.32c2.12077 0 3.84 1.7192 3.84 3.84v16.32c0 2.1208-1.71923 3.84-3.84 3.84h-16.32c-2.12077 0-3.84-1.7192-3.84-3.84v-16.32c0-2.1208 1.71923-3.84 3.84-3.84z" fill="#fff"/><path d="m-264.16-3710.25h16.32c2.12077 0 3.84 1.7192 3.84 3.84v16.32c0 2.1208-1.71923 3.84-3.84 3.84h-16.32c-2.12077 0-3.84-1.7192-3.84-3.84v-16.32c0-2.1208 1.71923-3.84 3.84-3.84z" stroke="#000" stroke-linecap="round" stroke-linejoin="round" stroke-width=".25"/><path d="m-256-3696.65v2c0 .221-.1791.4-.4.4s-.4-.179-.4-.4v-2h-2c-.2209 0-.4-.179-.4-.4s.1791-.4.4-.4h2v-2c0-.221.1791-.4.4-.4s.4.179.4.4v2h2c.2209 0 .4.179.4.4s-.1791.4-.4.4zm-6-8h5.2c.88366 0 1.6.7163 1.6 1.6 0 .442.35817.8.8.8h4.4c1.10457 0 2 .8954 2 2v6.4c0 1.1046-.89543 2-2 2h-12c-1.10457 0-2-.8954-2-2v-8.8c0-1.1046.89543-2 2-2zm0 .8c-.66274 0-1.2.5373-1.2 1.2v8.8c0 .6627.53726 1.2 1.2 1.2h12c.66274 0 1.2-.5373 1.2-1.2v-6.4c0-.6627-.53726-1.2-1.2-1.2h-4.4c-.88366 0-1.6-.7163-1.6-1.6 0-.442-.35817-.8-.8-.8z" fill="#528637"/></g></svg>