<svg xmlns="http://www.w3.org/2000/svg" viewBox="-231.649 -3709.15 25 25"><g fill="none"><path d="M-227.309-3708.65h16.32a3.84 3.84 0 0 1 3.84 3.84v16.32a3.84 3.84 0 0 1-3.84 3.84h-16.32a3.84 3.84 0 0 1-3.84-3.84v-16.32a3.84 3.84 0 0 1 3.84-3.84z" fill="#fff"/><path d="M-227.309-3708.65h16.32a3.84 3.84 0 0 1 3.84 3.84v16.32a3.84 3.84 0 0 1-3.84 3.84h-16.32a3.84 3.84 0 0 1-3.84-3.84v-16.32a3.84 3.84 0 0 1 3.84-3.84z" stroke="#000" stroke-linecap="round" stroke-linejoin="round" stroke-width=".25"/><path d="M-212.75-3701.027v10.377a2 2 0 0 1-2 2h-8.8a2 2 0 0 1-2-2v-12a2 2 0 0 1 2-1.999h7.178a.39.39 0 0 1 .305.117l3.2 3.2a.391.391 0 0 1 .117.305zm-4-2.822h-6.8a1.2 1.2 0 0 0-1.2 1.2v11.999a1.2 1.2 0 0 0 1.2 1.2h8.8a1.2 1.2 0 0 0 1.2-1.2v-10h-2.8a.4.4 0 0 1-.4-.4zm.8.565v1.835h1.835z" fill="#518737"/><path d="M-216.396-3696.257h-2.084a.275.275 0 0 0-.276.276v1.809a.275.275 0 0 1-.275.276h-.236a.275.275 0 0 1-.275-.276v-1.81a.275.275 0 0 0-.276-.275h-1.81a.275.275 0 0 1-.275-.275v-.236c0-.152.124-.275.276-.275h1.81a.275.275 0 0 0 .275-.276v-1.809c0-.152.123-.275.275-.275h.236c.152 0 .275.123.275.275v1.81c0 .151.124.275.276.275h1.81c.151 0 .274.123.274.275v.511z" fill="#528737"/><path d="M-216.396-3696.257h-2.084a.275.275 0 0 0-.276.276v1.809a.275.275 0 0 1-.275.276h-.236a.275.275 0 0 1-.275-.276v-1.81a.275.275 0 0 0-.276-.275h-1.81a.275.275 0 0 1-.275-.275v-.236c0-.152.124-.275.276-.275h1.81a.275.275 0 0 0 .275-.276v-1.809c0-.152.123-.275.275-.275h.236c.152 0 .275.123.275.275v1.81c0 .151.124.275.276.275h1.81c.151 0 .274.123.274.275v.511z"/></g></svg>