<svg height="25" viewBox="-190.266 -3710.75 25 25" width="25" xmlns="http://www.w3.org/2000/svg"><g fill="none"><path d="m-185.92599-3710.25h16.32c2.12078 0 3.84 1.7192 3.84 3.84v16.32c0 2.1208-1.71922 3.84-3.84 3.84h-16.32c-2.12077 0-3.84-1.7192-3.84-3.84v-16.32c0-2.1208 1.71923-3.84 3.84-3.84z" fill="#fff"/><path d="m-185.92599-3710.25h16.32c2.12078 0 3.84 1.7192 3.84 3.84v16.32c0 2.1208-1.71922 3.84-3.84 3.84h-16.32c-2.12077 0-3.84-1.7192-3.84-3.84v-16.32c0-2.1208 1.71923-3.84 3.84-3.84z" stroke="#000" stroke-linecap="round" stroke-linejoin="round" stroke-width=".25"/><g fill="#528637"><path d="m-179.02764-3698v2c0 .221-.17909.4-.4.4-.22092 0-.4-.179-.4-.4v-2h-2c-.22092 0-.4-.179-.4-.4s.17908-.4.4-.4h2v-2c0-.221.17908-.4.4-.4.22091 0 .4.179.4.4v2h2c.22091 0 .4.179.4.4s-.17909.4-.4.4zm-6-8h5.2c.88365 0 1.6.7163 1.6 1.6 0 .442.35817.8.8.8h4.4c1.10457 0 2 .8954 2 2v6.4c0 1.1046-.89543 2-2 2h-12c-1.10456 0-2-.8954-2-2v-8.8c0-1.1046.89544-2 2-2zm0 .8c-.66274 0-1.2.5372-1.2 1.2v8.8c0 .6627.53726 1.2 1.2 1.2h12c.66274 0 1.2-.5373 1.2-1.2v-6.4c0-.6628-.53726-1.2-1.2-1.2h-4.4c-.88366 0-1.6-.7164-1.6-1.6 0-.442-.35817-.8-.8-.8z"/><path d="m-177.20843-3693.04c.07336.0856.18238.14.3041.14.12171 0 .23073-.0544.3041-.14zm-7.2959 0v.54c0 1.1046.89543 2 2 2h12c1.10457 0 2-.8954 2-2v-6.4c0-1.1046-.89543-2-2-2h-.31837v.8h.31837c.66273 0 1.2.5373 1.2 1.2v6.4c0 .6628-.53727 1.2-1.2 1.2h-12c-.66274 0-1.2-.5372-1.2-1.2v-.54z"/></g></g></svg>