<svg height="25" viewBox="-148.92 -3712.35 25 25" width="25" xmlns="http://www.w3.org/2000/svg"><g fill="none"><path d="M-144.58-3711.85h16.32a3.84 3.84 0 0 1 3.84 3.84v16.32a3.84 3.84 0 0 1-3.84 3.84h-16.32a3.84 3.84 0 0 1-3.84-3.84v-16.32a3.84 3.84 0 0 1 3.84-3.84z" fill="#fff"/><path d="M-144.58-3711.85h16.32a3.84 3.84 0 0 1 3.84 3.84v16.32a3.84 3.84 0 0 1-3.84 3.84h-16.32a3.84 3.84 0 0 1-3.84-3.84v-16.32a3.84 3.84 0 0 1 3.84-3.84z" stroke="#000" stroke-linecap="round" stroke-linejoin="round" stroke-width=".25"/><path d="M-137.18-3700.525l1.717 1.717a.4.4 0 0 1-.566.566l-1.717-1.717-1.717 1.717a.4.4 0 0 1-.566-.566l1.717-1.717-1.717-1.717a.4.4 0 0 1 .566-.566l1.717 1.717 1.717-1.717a.4.4 0 0 1 .566.566zm-6.566-7.2h5.2a1.6 1.6 0 0 1 1.6 1.6.8.8 0 0 0 .8.8h4.4a2 2 0 0 1 2 2v6.4a2 2 0 0 1-2 2h-12a2 2 0 0 1-2-2v-8.8a2 2 0 0 1 2-2zm0 .8a1.2 1.2 0 0 0-1.2 1.2v8.8a1.2 1.2 0 0 0 1.2 1.2h12a1.2 1.2 0 0 0 1.2-1.2v-6.4a1.2 1.2 0 0 0-1.2-1.2h-4.4a1.6 1.6 0 0 1-1.6-1.6.8.8 0 0 0-.8-.8z" fill="#a04d4c"/><path d="M-135.797-3694.515a.4.4 0 0 0 .608 0zm-7.296 0v.54a2 2 0 0 0 2 2h12a2 2 0 0 0 2-2v-6.4a2 2 0 0 0-2-2h-.318v.8h.318a1.2 1.2 0 0 1 1.2 1.2v6.4a1.2 1.2 0 0 1-1.2 1.2h-12a1.2 1.2 0 0 1-1.2-1.2v-.54z" fill="#9f4c4c"/></g></svg>