<?xml version="1.0" encoding="UTF-8" standalone="no"?>
<!DOCTYPE svg PUBLIC "-//W3C//DTD SVG 1.1//EN" "http://www.w3.org/Graphics/SVG/1.1/DTD/svg11.dtd">
<svg version="1.1" xmlns="http://www.w3.org/2000/svg" xmlns:xl="http://www.w3.org/1999/xlink" xmlns:dc="http://purl.org/dc/elements/1.1/" viewBox="-148.91954 -3712.35 25 25" width="25" height="25">
  <defs/>
  <g id="SOURCES" stroke-dasharray="none" fill="none" stroke="none" fill-opacity="1" stroke-opacity="1">
    <title>SOURCES</title>
    <g id="SOURCES_Calque_1">
      <title>Calque 1</title>
      <g id="Graphic_6371">
        <title>views/view.other</title>
        <path d="M -144.57954 -3711.85 L -128.25954 -3711.85 C -126.13876 -3711.85 -124.41954 -3710.1308 -124.41954 -3708.01 L -124.41954 -3691.69 C -124.41954 -3689.5692 -126.13876 -3687.85 -128.25954 -3687.85 L -144.57954 -3687.85 C -146.70031 -3687.85 -148.41954 -3689.5692 -148.41954 -3691.69 L -148.41954 -3708.01 C -148.41954 -3710.1308 -146.70031 -3711.85 -144.57954 -3711.85 Z" fill="white"/>
        <path d="M -144.57954 -3711.85 L -128.25954 -3711.85 C -126.13876 -3711.85 -124.41954 -3710.1308 -124.41954 -3708.01 L -124.41954 -3691.69 C -124.41954 -3689.5692 -126.13876 -3687.85 -128.25954 -3687.85 L -144.57954 -3687.85 C -146.70031 -3687.85 -148.41954 -3689.5692 -148.41954 -3691.69 L -148.41954 -3708.01 C -148.41954 -3710.1308 -146.70031 -3711.85 -144.57954 -3711.85 Z" stroke="black" stroke-linecap="round" stroke-linejoin="round" stroke-width=".25"/>
      </g>
      <g id="Group_6384">
        <g id="Graphic_6370">
          <path d="M -137.18063 -3700.525 L -135.46347 -3698.808 C -135.30726 -3698.6516 -135.30726 -3698.3984 -135.46347 -3698.242 C -135.61968 -3698.086 -135.87294 -3698.086 -136.02915 -3698.242 L -137.74631 -3699.9593 L -139.46347 -3698.242 C -139.61968 -3698.086 -139.87294 -3698.086 -140.02915 -3698.242 C -140.18536 -3698.3984 -140.18536 -3698.6516 -140.02915 -3698.808 L -138.312 -3700.525 L -140.02915 -3702.242 C -140.18536 -3702.3984 -140.18536 -3702.6516 -140.02915 -3702.808 C -139.87294 -3702.964 -139.61968 -3702.964 -139.46347 -3702.808 L -137.74631 -3701.0907 L -136.02915 -3702.808 C -135.87294 -3702.964 -135.61968 -3702.964 -135.46347 -3702.808 C -135.30726 -3702.6516 -135.30726 -3702.3984 -135.46347 -3702.242 Z M -143.74631 -3707.725 L -138.54631 -3707.725 C -137.66266 -3707.725 -136.94631 -3707.0087 -136.94631 -3706.125 C -136.94631 -3705.683 -136.58814 -3705.325 -136.14631 -3705.325 L -131.74631 -3705.325 C -130.64174 -3705.325 -129.74631 -3704.4296 -129.74631 -3703.325 L -129.74631 -3696.925 C -129.74631 -3695.8204 -130.64174 -3694.925 -131.74631 -3694.925 L -143.74631 -3694.925 C -144.85088 -3694.925 -145.74631 -3695.8204 -145.74631 -3696.925 L -145.74631 -3705.725 C -145.74631 -3706.8296 -144.85088 -3707.725 -143.74631 -3707.725 Z M -143.74631 -3706.925 C -144.40905 -3706.925 -144.94631 -3706.3877 -144.94631 -3705.725 L -144.94631 -3696.925 C -144.94631 -3696.2623 -144.40905 -3695.725 -143.74631 -3695.725 L -131.74631 -3695.725 C -131.08357 -3695.725 -130.54631 -3696.2623 -130.54631 -3696.925 L -130.54631 -3703.325 C -130.54631 -3703.9877 -131.08357 -3704.525 -131.74631 -3704.525 L -136.14631 -3704.525 C -137.02997 -3704.525 -137.74631 -3705.2413 -137.74631 -3706.125 C -137.74631 -3706.567 -138.10448 -3706.925 -138.54631 -3706.925 Z" fill="#a04d4c"/>
        </g>
        <g id="Graphic_6383">
          <path d="M -135.79686 -3694.515 C -135.7235 -3694.4294 -135.61448 -3694.375 -135.49276 -3694.375 C -135.37105 -3694.375 -135.26203 -3694.4294 -135.18866 -3694.515 Z M -143.09276 -3694.515 L -143.09276 -3693.975 C -143.09276 -3692.8704 -142.19733 -3691.975 -141.09276 -3691.975 L -129.09276 -3691.975 C -127.98819 -3691.975 -127.09276 -3692.8704 -127.09276 -3693.975 L -127.09276 -3700.375 C -127.09276 -3701.4796 -127.98819 -3702.375 -129.09276 -3702.375 L -129.41112 -3702.375 L -129.41112 -3701.575 L -129.09276 -3701.575 C -128.43002 -3701.575 -127.89276 -3701.0377 -127.89276 -3700.375 L -127.89276 -3693.975 C -127.89276 -3693.3123 -128.43002 -3692.775 -129.09276 -3692.775 L -141.09276 -3692.775 C -141.7555 -3692.775 -142.29276 -3693.3123 -142.29276 -3693.975 L -142.29276 -3694.515 Z" fill="#9f4c4c"/>
        </g>
      </g>
    </g>
  </g>
</svg>
