<svg height="25" viewBox="-110.266 -3712.949 25 25" width="25" xmlns="http://www.w3.org/2000/svg"><g fill="none"><path d="M-105.926-3712.449h16.32a3.84 3.84 0 0 1 3.84 3.84v16.32a3.84 3.84 0 0 1-3.84 3.84h-16.32a3.84 3.84 0 0 1-3.84-3.84v-16.32a3.84 3.84 0 0 1 3.84-3.84z" fill="#fff"/><path d="M-105.926-3712.449h16.32a3.84 3.84 0 0 1 3.84 3.84v16.32a3.84 3.84 0 0 1-3.84 3.84h-16.32a3.84 3.84 0 0 1-3.84-3.84v-16.32a3.84 3.84 0 0 1 3.84-3.84z" stroke="#000" stroke-linecap="round" stroke-linejoin="round" stroke-width=".25"/><g fill="#5c76a2"><path d="M-91.91-3703.082v-.8a1.2 1.2 0 0 0-1.2-1.2h-4.4a1.6 1.6 0 0 1-1.6-1.6.8.8 0 0 0-.8-.8h-5.2a1.2 1.2 0 0 0-1.2 1.2v8.8a1.2 1.2 0 0 0 1.2 1.2h.8a1.2 1.2 0 0 0 1.2-1.2v-4a2 2 0 0 1 2-2h8c.45 0 .865.149 1.2.4zm0 1.6a1.2 1.2 0 0 0-1.2-1.2h-8a1.2 1.2 0 0 0-1.2 1.2v4c0 .45-.15.866-.4 1.2h9.6a1.2 1.2 0 0 0 1.2-1.2zm-13.2-6.8h5.2a1.6 1.6 0 0 1 1.6 1.6.8.8 0 0 0 .8.8h4.4a2 2 0 0 1 2 2v6.4a2 2 0 0 1-2 2h-12a2 2 0 0 1-2-2v-8.8a2 2 0 0 1 2-2z"/><path d="M-97.125-3695.156a.4.4 0 0 0 .608 0zm-7.296 0v.54a2 2 0 0 0 2 2h12a2 2 0 0 0 2-2v-6.4a2 2 0 0 0-2-2h-.318v.8h.318a1.2 1.2 0 0 1 1.2 1.2v6.4a1.2 1.2 0 0 1-1.2 1.2h-12a1.2 1.2 0 0 1-1.2-1.2v-.54z"/></g></g></svg>