<svg height="25" viewBox="-110.266 -3712.949 25 25" width="25" xmlns="http://www.w3.org/2000/svg"><g fill="none"><path d="m-105.92599-3712.449h16.32c2.12078 0 3.84 1.7194 3.84 3.84v16.32c0 2.121-1.71922 3.84-3.84 3.84h-16.32c-2.12077 0-3.84-1.719-3.84-3.84v-16.32c0-2.1206 1.71923-3.84 3.84-3.84z" fill="#fff"/><path d="m-105.92599-3712.449h16.32c2.12078 0 3.84 1.7194 3.84 3.84v16.32c0 2.121-1.71922 3.84-3.84 3.84h-16.32c-2.12077 0-3.84-1.719-3.84-3.84v-16.32c0-2.1206 1.71923-3.84 3.84-3.84z" stroke="#000" stroke-linecap="round" stroke-linejoin="round" stroke-width=".25"/><g fill="#5c76a2"><path d="m-91.91084-3703.082v-.7997c0-.6627-.53726-1.2-1.2-1.2h-4.4c-.88366 0-1.6-.7163-1.6-1.6 0-.4418-.35818-.8-.8-.8h-5.2c-.66274 0-1.2.5373-1.2 1.2v8.8c0 .6627.53726 1.2 1.2 1.2h.8c.66274 0 1.2-.5373 1.2-1.2v-4c0-1.1045.89543-2 2-2h8c.45024 0 .86573.1487 1.2.3997zm0 1.6003c0-.6627-.53726-1.2-1.2-1.2h-8c-.66274 0-1.2.5373-1.2 1.2v4c0 .4503-.14878.8657-.39986 1.2h9.59986c.66274 0 1.2-.5373 1.2-1.2zm-13.2-6.8h5.2c.88365 0 1.6.7164 1.6 1.6 0 .4417.35817.8.8.8h4.4c1.10457 0 2 .8955 2 2v6.4c0 1.1047-.89543 2-2 2h-12c-1.10457 0-2-.8953-2-2v-8.8c0-1.1045.89543-2 2-2z"/><path d="m-97.12523-3695.156c.07337.0856.18238.14.3041.14s.23073-.0544.3041-.14zm-7.2959 0v.54c0 1.1045.89543 2 2 2h12c1.10457 0 2-.8955 2-2v-6.4c0-1.1046-.89543-2-2-2h-.31836v.8h.31836c.66274 0 1.2.537 1.2 1.2v6.4c0 .6627-.53726 1.2-1.2 1.2h-12c-.66274 0-1.2-.5373-1.2-1.2v-.54z"/></g></g></svg>