<svg height="25" viewBox="-148.92 -3712.35 25 25" width="25" xmlns="http://www.w3.org/2000/svg"><g fill="none"><path d="m-144.57954-3711.85h16.32c2.12078 0 3.84 1.7192 3.84 3.84v16.32c0 2.1208-1.71922 3.84-3.84 3.84h-16.32c-2.12077 0-3.84-1.7192-3.84-3.84v-16.32c0-2.1208 1.71923-3.84 3.84-3.84z" fill="#fff"/><path d="m-144.57954-3711.85h16.32c2.12078 0 3.84 1.7192 3.84 3.84v16.32c0 2.1208-1.71922 3.84-3.84 3.84h-16.32c-2.12077 0-3.84-1.7192-3.84-3.84v-16.32c0-2.1208 1.71923-3.84 3.84-3.84z" stroke="#000" stroke-linecap="round" stroke-linejoin="round" stroke-width=".25"/><path d="m-137.18063-3700.525 1.71716 1.717c.15621.1564.15621.4096 0 .566-.15621.156-.40947.156-.56568 0l-1.71716-1.7173-1.71716 1.7173c-.15621.156-.40947.156-.56568 0-.15621-.1564-.15621-.4096 0-.566l1.71715-1.717-1.71715-1.717c-.15621-.1564-.15621-.4096 0-.566.15621-.156.40947-.156.56568 0l1.71716 1.7173 1.71716-1.7173c.15621-.156.40947-.156.56568 0 .15621.1564.15621.4096 0 .566zm-6.56568-7.2h5.2c.88365 0 1.6.7163 1.6 1.6 0 .442.35817.8.8.8h4.4c1.10457 0 2 .8954 2 2v6.4c0 1.1046-.89543 2-2 2h-12c-1.10457 0-2-.8954-2-2v-8.8c0-1.1046.89543-2 2-2zm0 .8c-.66274 0-1.2.5373-1.2 1.2v8.8c0 .6627.53726 1.2 1.2 1.2h12c.66274 0 1.2-.5373 1.2-1.2v-6.4c0-.6627-.53726-1.2-1.2-1.2h-4.4c-.88366 0-1.6-.7163-1.6-1.6 0-.442-.35817-.8-.8-.8z" fill="#a04d4c"/><path d="m-135.79686-3694.515c.07336.0856.18238.14.3041.14.12171 0 .23073-.0544.3041-.14zm-7.2959 0v.54c0 1.1046.89543 2 2 2h12c1.10457 0 2-.8954 2-2v-6.4c0-1.1046-.89543-2-2-2h-.31836v.8h.31836c.66274 0 1.2.5373 1.2 1.2v6.4c0 .6627-.53726 1.2-1.2 1.2h-12c-.66274 0-1.2-.5373-1.2-1.2v-.54z" fill="#9f4c4c"/></g></svg>