<svg viewBox="-94.872 -3555.294 24.75 24.75" xmlns="http://www.w3.org/2000/svg"><g fill="none"><circle cx="-82.497" cy="-3542.919" fill="#fff" r="8"/><circle cx="-82.497" cy="-3542.919" r="8"/><path d="M-81.697-3539.719h1.2c.224 0 .4.176.4.4s-.176.4-.4.4h-3.2a.396.396 0 0 1-.4-.4c0-.224.176-.4.4-.4h1.2v-4h-1.2a.396.396 0 0 1-.4-.4c0-.224.176-.4.4-.4h1.6c.224 0 .4.176.4.4zm-.8 4.8c-4.416 0-8-3.584-8-8s3.584-8 8-8 8 3.584 8 8-3.584 8-8 8zm0-.8a7.2 7.2 0 1 0-.001-14.4 7.2 7.2 0 0 0 .001 14.4zm-.4-11.2h.8c.224 0 .4.176.4.4v.8c0 .224-.176.4-.4.4h-.8a.396.396 0 0 1-.4-.4v-.8c0-.224.176-.4.4-.4z" fill="#5c76a1"/></g></svg>