<svg height="25" viewBox="-914.5 -3768.755 25 25" width="25" xmlns="http://www.w3.org/2000/svg"><g fill="none"><circle cx="-902" cy="-3756.255" fill="#fff" r="12"/><circle cx="-902" cy="-3756.255" r="12" stroke="#000" stroke-linecap="round" stroke-linejoin="round" stroke-width=".25"/><path d="m-909-3751.4823v-7.6363c0-.8784.7127-1.5909 1.5909-1.5909h1.2282c.3182 0 .6173-.1591.7954-.4265l.5155-.7763c.2927-.4454.7891-.7063 1.3236-.7063h3.0928c.5345 0 1.0309.2673 1.3236.7063l.5155.7763c.1781.2674.4772.4265.7954.4265h1.2282c.8782 0 1.5909.7125 1.5909 1.5909v7.6363c0 .8783-.7127 1.591-1.5909 1.591h-10.8182c-.8782 0-1.5909-.7127-1.5909-1.591zm.6364 0c0 .5283.4263.9546.9545.9546h10.8182c.5282 0 .9545-.4263.9545-.9546v-7.6363c0-.5284-.4263-.9544-.9545-.9544h-1.2282c-.5345 0-1.0309-.2674-1.3236-.7065l-.5155-.7765c-.1782-.267-.4773-.4263-.7954-.4263h-3.0928c-.3181 0-.6172.1593-.7954.4263l-.5155.7765c-.2927.4455-.7891.7065-1.3236.7065h-1.2282c-.5282 0-.9545.426-.9545.9544zm6.3636-.3181c-2.1064 0-3.8182-1.7119-3.8182-3.8182 0-2.1064 1.7118-3.8184 3.8182-3.8184s3.8182 1.712 3.8182 3.8184c0 2.1063-1.7118 3.8182-3.8182 3.8182zm0-.6366c1.7564 0 3.1818-1.4253 3.1818-3.1816 0-1.7564-1.4254-3.1818-3.1818-3.1818s-3.1818 1.4254-3.1818 3.1818c0 1.7563 1.4254 3.1816 3.1818 3.1816z" fill="#66727e"/></g></svg>