<svg xmlns="http://www.w3.org/2000/svg" viewBox="-950.5 -3768.755 25 25"><g fill="none"><circle cx="-938" cy="-3756.255" r="12" fill="#fff"/><circle cx="-938" cy="-3756.255" r="12" stroke="#000" stroke-linecap="round" stroke-linejoin="round" stroke-width=".25"/><path d="M-941.5-3762.477c-.646 0-1.167.521-1.167 1.166v10.112c0 .645.521 1.166 1.167 1.166h.778c.645 0 1.166-.521 1.166-1.166v-10.111c0-.646-.52-1.167-1.166-1.167zm0-.778h.778c1.073 0 1.944.871 1.944 1.945v10.11a1.945 1.945 0 0 1-1.944 1.945h-.778a1.945 1.945 0 0 1-1.944-1.944v-10.111c0-1.074.87-1.945 1.944-1.945zm6.222 0h.778c1.073 0 1.944.871 1.944 1.945v10.11a1.945 1.945 0 0 1-1.944 1.945h-.778a1.945 1.945 0 0 1-1.944-1.944v-10.111c0-1.074.87-1.945 1.944-1.945zm0 .778c-.645 0-1.166.521-1.166 1.166v10.112c0 .645.52 1.166 1.166 1.166h.778c.646 0 1.167-.521 1.167-1.166v-10.111c0-.646-.521-1.167-1.167-1.167z" fill="#66727e"/></g></svg>