<?xml version="1.0" encoding="UTF-8" standalone="no"?>
<!DOCTYPE svg PUBLIC "-//W3C//DTD SVG 1.1//EN" "http://www.w3.org/Graphics/SVG/1.1/DTD/svg11.dtd">
<svg version="1.1" xmlns="http://www.w3.org/2000/svg" xmlns:xl="http://www.w3.org/1999/xlink" xmlns:dc="http://purl.org/dc/elements/1.1/" viewBox="-914.5 -3768.755 24.999996 25" width="24.999996" height="25">
  <defs/>
  <g id="SOURCES" stroke-dasharray="none" fill="none" stroke="none" fill-opacity="1" stroke-opacity="1">
    <title>SOURCES</title>
    <g id="SOURCES_Calque_2">
      <title>Calque 2</title>
      <g id="Graphic_8934">
        <circle cx="-902" cy="-3756.255" r="12.000018268838" fill="white"/>
        <circle cx="-902" cy="-3756.255" r="12.000018268838" stroke="black" stroke-linecap="round" stroke-linejoin="round" stroke-width=".25"/>
      </g>
      <g id="Group_8932">
        <title>camera</title>
        <g id="Graphic_8933">
          <path d="M -909 -3751.4823 L -909 -3759.1186 C -909 -3759.997 -908.2873 -3760.7095 -907.4091 -3760.7095 L -906.1809 -3760.7095 C -905.8627 -3760.7095 -905.5636 -3760.8686 -905.3855 -3761.136 L -904.87 -3761.9123 C -904.5773 -3762.3577 -904.0809 -3762.6186 -903.5464 -3762.6186 L -900.4536 -3762.6186 C -899.9191 -3762.6186 -899.4227 -3762.3513 -899.13 -3761.9123 L -898.6145 -3761.136 C -898.4364 -3760.8686 -898.1373 -3760.7095 -897.8191 -3760.7095 L -896.5909 -3760.7095 C -895.7127 -3760.7095 -895 -3759.997 -895 -3759.1186 L -895 -3751.4823 C -895 -3750.604 -895.7127 -3749.8913 -896.5909 -3749.8913 L -907.4091 -3749.8913 C -908.2873 -3749.8913 -909 -3750.604 -909 -3751.4823 Z M -908.3636 -3751.4823 C -908.3636 -3750.954 -907.9373 -3750.5277 -907.4091 -3750.5277 L -896.5909 -3750.5277 C -896.0627 -3750.5277 -895.6364 -3750.954 -895.6364 -3751.4823 L -895.6364 -3759.1186 C -895.6364 -3759.647 -896.0627 -3760.073 -896.5909 -3760.073 L -897.8191 -3760.073 C -898.3536 -3760.073 -898.85 -3760.3404 -899.1427 -3760.7795 L -899.6582 -3761.556 C -899.8364 -3761.823 -900.1355 -3761.9823 -900.4536 -3761.9823 L -903.5464 -3761.9823 C -903.8645 -3761.9823 -904.1636 -3761.823 -904.3418 -3761.556 L -904.8573 -3760.7795 C -905.15 -3760.334 -905.6464 -3760.073 -906.1809 -3760.073 L -907.4091 -3760.073 C -907.9373 -3760.073 -908.3636 -3759.647 -908.3636 -3759.1186 Z M -902 -3751.8004 C -904.1064 -3751.8004 -905.8182 -3753.5123 -905.8182 -3755.6186 C -905.8182 -3757.725 -904.1064 -3759.437 -902 -3759.437 C -899.8936 -3759.437 -898.1818 -3757.725 -898.1818 -3755.6186 C -898.1818 -3753.5123 -899.8936 -3751.8004 -902 -3751.8004 Z M -902 -3752.437 C -900.2436 -3752.437 -898.8182 -3753.8623 -898.8182 -3755.6186 C -898.8182 -3757.375 -900.2436 -3758.8004 -902 -3758.8004 C -903.7564 -3758.8004 -905.1818 -3757.375 -905.1818 -3755.6186 C -905.1818 -3753.8623 -903.7564 -3752.437 -902 -3752.437 Z" fill="#66727e"/>
        </g>
      </g>
    </g>
  </g>
</svg>
