<svg height="25" viewBox="-950.5 -3768.755 25 25" width="25" xmlns="http://www.w3.org/2000/svg"><g fill="none"><circle cx="-938" cy="-3756.255" fill="#fff" r="12"/><circle cx="-938" cy="-3756.255" r="12" stroke="#000" stroke-linecap="round" stroke-linejoin="round" stroke-width=".25"/><path d="m-941.5-3762.477c-.6456 0-1.1667.521-1.1667 1.1665v10.1111c0 .6454.5211 1.1666 1.1667 1.1666h.7778c.6455 0 1.1666-.5212 1.1666-1.1666v-10.1111c0-.6455-.5211-1.1665-1.1666-1.1665zm0-.778h.7778c1.0733 0 1.9444.871 1.9444 1.9445v10.1111c0 1.0734-.8711 1.9444-1.9444 1.9444h-.7778c-1.0733 0-1.9444-.871-1.9444-1.9444v-10.1111c0-1.0735.8711-1.9445 1.9444-1.9445zm6.2222 0h.7778c1.0733 0 1.9444.871 1.9444 1.9445v10.1111c0 1.0734-.8711 1.9444-1.9444 1.9444h-.7778c-1.0733 0-1.9444-.871-1.9444-1.9444v-10.1111c0-1.0735.8711-1.9445 1.9444-1.9445zm0 .778c-.6455 0-1.1666.521-1.1666 1.1665v10.1111c0 .6454.5211 1.1666 1.1666 1.1666h.7778c.6456 0 1.1667-.5212 1.1667-1.1666v-10.1111c0-.6455-.5211-1.1665-1.1667-1.1665z" fill="#66727e"/></g></svg>