<svg height="25" viewBox="-872.5 -3768.755 25 25" width="25" xmlns="http://www.w3.org/2000/svg"><g fill="none"><circle cx="-860" cy="-3756.255" fill="#fff" r="12"/><circle cx="-860" cy="-3756.255" r="12" stroke="#000" stroke-linecap="round" stroke-linejoin="round" stroke-width=".25"/><path d="m-861.4467-3754.6994h2.8934l-.6145-2.45c-.2644.07-.5444.1166-.8322.1166s-.5678-.0389-.8322-.1166zm-.8011 0 .6845-2.7534c-.9256-.5366-1.5478-1.54-1.5478-2.6912 0-1.7188 1.3922-3.111 3.1111-3.111s3.1111 1.3922 3.1111 3.111c0 1.1512-.6222 2.1546-1.5478 2.6912l.6845 2.7534h2.8077c1.0734 0 1.9445.8711 1.9445 1.9444v1.5556c0 .2177-.1711.3889-.3889.3889h-13.2222c-.2178 0-.3889-.1712-.3889-.3889v-1.5556c0-1.0733.8711-1.9444 1.9444-1.9444zm2.2478-3.1111c1.2911 0 2.3333-1.0423 2.3333-2.3335 0-1.291-1.0422-2.333-2.3333-2.333s-2.3333 1.042-2.3333 2.333c0 1.2912 1.0422 2.3335 2.3333 2.3335zm6.2222 6.2222v-1.1667c0-.6455-.5211-1.1667-1.1667-1.1667h-10.1111c-.6455 0-1.1666.5212-1.1666 1.1667v1.1667zm-12.8333 2.3333c-.2178 0-.3889-.171-.3889-.389 0-.2177.1711-.3888.3889-.3888h13.2222c.2178 0 .3889.1711.3889.3888 0 .218-.1711.389-.3889.389z" fill="#66727e"/></g></svg>