<svg xmlns="http://www.w3.org/2000/svg" viewBox="-914.5 -3768.755 25 25"><g fill="none"><circle cx="-902" cy="-3756.255" r="12" fill="#fff"/><circle cx="-902" cy="-3756.255" r="12" stroke="#000" stroke-linecap="round" stroke-linejoin="round" stroke-width=".25"/><path d="M-909-3751.482v-7.637c0-.878.713-1.59 1.59-1.59h1.23c.317 0 .616-.16.794-.427l.516-.776c.293-.446.79-.707 1.324-.707h3.092c.535 0 1.031.268 1.324.707l.515.776a.956.956 0 0 0 .796.427h1.228c.878 0 1.591.712 1.591 1.59v7.637a1.59 1.59 0 0 1-1.59 1.59h-10.82a1.59 1.59 0 0 1-1.59-1.59zm.636 0c0 .528.427.954.955.954h10.818a.953.953 0 0 0 .955-.954v-7.637a.953.953 0 0 0-.955-.954h-1.228a1.59 1.59 0 0 1-1.324-.707l-.515-.776a.957.957 0 0 0-.796-.426h-3.092a.957.957 0 0 0-.796.426l-.515.776c-.293.446-.79.707-1.324.707h-1.228a.953.953 0 0 0-.955.954zm6.364-.318a3.821 3.821 0 0 1-3.818-3.819 3.821 3.821 0 0 1 3.818-3.818 3.821 3.821 0 0 1 3.818 3.818A3.821 3.821 0 0 1-902-3751.8zm0-.637a3.183 3.183 0 0 0 0-6.363 3.183 3.183 0 0 0 0 6.363z" fill="#66727e"/></g></svg>