<svg height="25" viewBox="-872.5 -3768.755 25 25" width="25" xmlns="http://www.w3.org/2000/svg"><g fill="none"><circle cx="-860" cy="-3756.255" fill="#fff" r="12"/><circle cx="-860" cy="-3756.255" r="12" stroke="#000" stroke-linecap="round" stroke-linejoin="round" stroke-width=".25"/><path d="M-861.447-3754.7h2.894l-.615-2.45c-.264.07-.544.117-.832.117s-.568-.039-.832-.116zm-.8 0l.684-2.753a3.11 3.11 0 1 1 4.674-2.691 3.105 3.105 0 0 1-1.548 2.691l.685 2.754h2.807c1.074 0 1.945.87 1.945 1.944v1.556a.385.385 0 0 1-.389.389h-13.222a.385.385 0 0 1-.389-.39v-1.555c0-1.073.871-1.944 1.944-1.944zm2.247-3.11a2.33 2.33 0 0 0 2.333-2.334c0-1.291-1.042-2.333-2.333-2.333s-2.333 1.042-2.333 2.333a2.33 2.33 0 0 0 2.333 2.333zm6.222 6.222v-1.167c0-.645-.52-1.167-1.166-1.167h-10.112c-.645 0-1.166.521-1.166 1.167v1.167zm-12.833 2.333a.385.385 0 0 1-.389-.389c0-.218.171-.389.389-.389h13.222c.218 0 .389.171.389.389a.385.385 0 0 1-.389.389z" fill="#66727e"/></g></svg>