<?xml version="1.0" encoding="UTF-8" standalone="no"?>
<!DOCTYPE svg PUBLIC "-//W3C//DTD SVG 1.1//EN" "http://www.w3.org/Graphics/SVG/1.1/DTD/svg11.dtd">
<svg version="1.1" xmlns="http://www.w3.org/2000/svg" xmlns:xl="http://www.w3.org/1999/xlink" xmlns:dc="http://purl.org/dc/elements/1.1/" viewBox="-950.5 -3768.755 24.999996 25" width="24.999996" height="25">
  <defs/>
  <g id="SOURCES" stroke-dasharray="none" fill="none" stroke="none" fill-opacity="1" stroke-opacity="1">
    <title>SOURCES</title>
    <g id="SOURCES_Calque_2">
      <title>Calque 2</title>
      <g id="Group_8997">
        <g id="Graphic_8931">
          <circle cx="-938" cy="-3756.255" r="12.000018268838" fill="white"/>
          <circle cx="-938" cy="-3756.255" r="12.000018268838" stroke="black" stroke-linecap="round" stroke-linejoin="round" stroke-width=".25"/>
        </g>
        <g id="Group_8925">
          <title>pause</title>
          <g id="Graphic_8926">
            <path d="M -941.5 -3762.477 C -942.1456 -3762.477 -942.6667 -3761.956 -942.6667 -3761.3105 L -942.6667 -3751.1994 C -942.6667 -3750.554 -942.1456 -3750.0328 -941.5 -3750.0328 L -940.7222 -3750.0328 C -940.0767 -3750.0328 -939.5556 -3750.554 -939.5556 -3751.1994 L -939.5556 -3761.3105 C -939.5556 -3761.956 -940.0767 -3762.477 -940.7222 -3762.477 Z M -941.5 -3763.255 L -940.7222 -3763.255 C -939.6489 -3763.255 -938.7778 -3762.384 -938.7778 -3761.3105 L -938.7778 -3751.1994 C -938.7778 -3750.126 -939.6489 -3749.255 -940.7222 -3749.255 L -941.5 -3749.255 C -942.5733 -3749.255 -943.4444 -3750.126 -943.4444 -3751.1994 L -943.4444 -3761.3105 C -943.4444 -3762.384 -942.5733 -3763.255 -941.5 -3763.255 Z M -935.2778 -3763.255 L -934.5 -3763.255 C -933.4267 -3763.255 -932.5556 -3762.384 -932.5556 -3761.3105 L -932.5556 -3751.1994 C -932.5556 -3750.126 -933.4267 -3749.255 -934.5 -3749.255 L -935.2778 -3749.255 C -936.3511 -3749.255 -937.2222 -3750.126 -937.2222 -3751.1994 L -937.2222 -3761.3105 C -937.2222 -3762.384 -936.3511 -3763.255 -935.2778 -3763.255 Z M -935.2778 -3762.477 C -935.9233 -3762.477 -936.4444 -3761.956 -936.4444 -3761.3105 L -936.4444 -3751.1994 C -936.4444 -3750.554 -935.9233 -3750.0328 -935.2778 -3750.0328 L -934.5 -3750.0328 C -933.8544 -3750.0328 -933.3333 -3750.554 -933.3333 -3751.1994 L -933.3333 -3761.3105 C -933.3333 -3761.956 -933.8544 -3762.477 -934.5 -3762.477 Z" fill="#66727e"/>
          </g>
        </g>
      </g>
    </g>
  </g>
</svg>
