<svg height="25" viewBox="-752.5 -3768.755 25 25" width="25" xmlns="http://www.w3.org/2000/svg"><g fill="none"><path d="M-748.16-3768.255h16.32a3.84 3.84 0 0 1 3.84 3.84v16.32a3.84 3.84 0 0 1-3.84 3.84h-16.32a3.84 3.84 0 0 1-3.84-3.84v-16.32a3.84 3.84 0 0 1 3.84-3.84z" fill="#fff"/><path d="M-748.16-3768.255h16.32a3.84 3.84 0 0 1 3.84 3.84v16.32a3.84 3.84 0 0 1-3.84 3.84h-16.32a3.84 3.84 0 0 1-3.84-3.84v-16.32a3.84 3.84 0 0 1 3.84-3.84z" stroke="#000" stroke-linecap="round" stroke-linejoin="round" stroke-width=".25"/><path d="M-736.407-3757.81s-.062.007-.093.007c-.039 0-.07 0-.101-.015h-6.899c-.645 0-1.167.521-1.167 1.166v5.445c0 .645.522 1.167 1.167 1.167h7c.646 0 1.167-.522 1.167-1.167v-5.445a1.17 1.17 0 0 0-1.074-1.166zm-6.704-.778h6.222v-.778c0-1.719-1.392-3.111-3.111-3.111s-3.111 1.392-3.111 3.111zm7 .039a1.945 1.945 0 0 1 1.555 1.905v5.445a1.945 1.945 0 0 1-1.944 1.944h-7a1.945 1.945 0 0 1-1.944-1.944v-5.445c0-.941.668-1.726 1.555-1.905v-.817a3.89 3.89 0 0 1 3.889-3.889 3.89 3.89 0 0 1 3.889 3.889zm-4.667 3.85v.295c0 .513.117 1.019.35 1.47l.218.428c.039.078.124.132.218.132s.17-.054.218-.132l.217-.428a3.35 3.35 0 0 0 .35-1.47v-.295c0-.428-.35-.778-.777-.778s-.778.35-.778.778zm-.778 0c0-.856.7-1.556 1.556-1.556.856 0 1.556.7 1.556 1.556v.295c0 .63-.148 1.252-.428 1.82l-.218.428c-.171.342-.529.56-.91.56s-.739-.218-.91-.56l-.218-.428a4.116 4.116 0 0 1-.427-1.82z" fill="#66727e"/></g></svg>