<?xml version="1.0" encoding="UTF-8" standalone="no"?>
<!DOCTYPE svg PUBLIC "-//W3C//DTD SVG 1.1//EN" "http://www.w3.org/Graphics/SVG/1.1/DTD/svg11.dtd">
<svg version="1.1" xmlns="http://www.w3.org/2000/svg" xmlns:xl="http://www.w3.org/1999/xlink" xmlns:dc="http://purl.org/dc/elements/1.1/" viewBox="-792.5 -3768.755 25.000035 25" width="25.000035" height="25">
  <defs/>
  <g id="SOURCES" stroke-dasharray="none" fill="none" stroke="none" fill-opacity="1" stroke-opacity="1">
    <title>SOURCES</title>
    <g id="SOURCES_Calque_2">
      <title>Calque 2</title>
      <g id="Graphic_8944">
        <circle cx="-780" cy="-3756.255" r="12.0000278184555" fill="white"/>
        <circle cx="-780" cy="-3756.255" r="12.0000278184555" stroke="black" stroke-linecap="round" stroke-linejoin="round" stroke-width=".2500004"/>
      </g>
      <g id="Group_8945">
        <title>video-alt</title>
        <g id="Graphic_8946">
          <path d="M -783.3833 -3753.526 L -785.05555 -3753.526 C -786.1289 -3753.526 -787 -3754.397 -787 -3755.4704 L -787 -3759.3593 C -787 -3760.4326 -786.1289 -3761.3037 -785.05555 -3761.3037 L -779.6111 -3761.3037 C -778.5533 -3761.3037 -777.6978 -3760.4637 -777.6667 -3759.4137 L -775.9322 -3760.8604 C -775.17 -3761.4904 -774.0422 -3761.3893 -773.4122 -3760.635 C -773.1478 -3760.316 -773 -3759.9115 -773 -3759.4915 L -773 -3755.3615 C -773 -3754.3737 -773.8011 -3753.5726 -774.7889 -3753.5726 C -775.2089 -3753.5726 -775.6133 -3753.7204 -775.9322 -3753.985 L -777.6667 -3755.4315 C -777.6978 -3754.3815 -778.5533 -3753.5415 -779.6111 -3753.5415 L -781.2833 -3753.5415 L -779.3622 -3751.8926 C -779.1989 -3751.7526 -779.1833 -3751.5037 -779.3233 -3751.3404 C -779.4633 -3751.177 -779.7122 -3751.1615 -779.87555 -3751.3015 L -782.3411 -3753.417 L -784.8067 -3751.3015 C -784.97 -3751.1615 -785.2189 -3751.177 -785.3589 -3751.3404 C -785.4989 -3751.5037 -785.4833 -3751.7526 -785.32 -3751.8926 L -783.3989 -3753.5415 Z M -778.4444 -3756.248 L -778.4444 -3758.5737 L -778.4444 -3759.3515 C -778.4444 -3759.997 -778.96555 -3760.518 -779.6111 -3760.518 L -785.05555 -3760.518 C -785.7011 -3760.518 -786.2222 -3759.997 -786.2222 -3759.3515 L -786.2222 -3755.4626 C -786.2222 -3754.817 -785.7011 -3754.296 -785.05555 -3754.296 L -779.6111 -3754.296 C -778.96555 -3754.296 -778.4444 -3754.817 -778.4444 -3755.4626 L -778.4444 -3756.2404 Z M -777.6667 -3758.4026 L -777.6667 -3756.435 L -775.4344 -3754.576 C -775.25555 -3754.428 -775.0222 -3754.3426 -774.7889 -3754.3426 C -774.2289 -3754.3426 -773.7778 -3754.7937 -773.7778 -3755.3537 L -773.7778 -3759.4837 C -773.7778 -3759.717 -773.8633 -3759.9504 -774.0111 -3760.1293 C -774.3689 -3760.557 -775.0067 -3760.6193 -775.4344 -3760.2615 Z" fill="#66727e"/>
        </g>
      </g>
    </g>
  </g>
</svg>
