<svg height="25" viewBox="-752.5 -3768.755 25 25" width="25" xmlns="http://www.w3.org/2000/svg"><g fill="none"><path d="m-748.16-3768.255h16.32c2.1208 0 3.84 1.7192 3.84 3.84v16.32c0 2.121-1.7192 3.84-3.84 3.84h-16.32c-2.12075 0-3.84-1.719-3.84-3.84v-16.32c0-2.1208 1.71925-3.84 3.84-3.84z" fill="#fff"/><path d="m-748.16-3768.255h16.32c2.1208 0 3.84 1.7192 3.84 3.84v16.32c0 2.121-1.7192 3.84-3.84 3.84h-16.32c-2.12075 0-3.84-1.719-3.84-3.84v-16.32c0-2.1208 1.71925-3.84 3.84-3.84z" stroke="#000" stroke-linecap="round" stroke-linejoin="round" stroke-width=".25"/><path d="m-736.4066-3757.8105s-.0623.0077-.0934.0077c-.0389 0-.07 0-.1011-.0155h-6.8989c-.6455 0-1.1666.5213-1.1666 1.1666v5.4447c0 .6453.5211 1.1665 1.1666 1.1665h7c.6456 0 1.1667-.5212 1.1667-1.1665v-5.4447c0-.6143-.47445-1.12-1.0733-1.1666zm-6.7045-.7778h6.2222v-.7777c0-1.719-1.3922-3.111-3.1111-3.111s-3.1111 1.392-3.1111 3.111zm7 .0389c.8867.1789 1.5556.9644 1.5556 1.9054v5.4446c0 1.0734-.8711 1.9444-1.9445 1.9444h-7c-1.0733 0-1.9444-.871-1.9444-1.9444v-5.4446c0-.941.6689-1.7265 1.5555-1.9054v-.8166c0-2.1468 1.7423-3.889 3.8889-3.889 2.1467 0 3.8889 1.7422 3.8889 3.889zm-4.66665 3.85v.2954c0 .5135.11665 1.019.35 1.47l.21775.428c.0389.0777.1245.132.2178.132s.1711-.0543.2178-.132l.2178-.428c.2255-.4588.35-.9643.35-1.47v-.2954c0-.4276-.35-.7776-.7778-.7776s-.7778.35-.7778.7776zm-.77775 0c0-.8556.7-1.5556 1.5555-1.5556.8556 0 1.5556.7 1.5556 1.5556v.2954c0 .63-.1478 1.2523-.4278 1.82l-.2178.428c-.1711.342-.5289.56-.91.56s-.7389-.218-.91-.56l-.21775-.428c-.28-.5677-.42775-1.19-.42775-1.82z" fill="#66727e"/></g></svg>