<svg height="25" viewBox="-792.5 -3768.755 25 25" width="25" xmlns="http://www.w3.org/2000/svg"><g fill="none"><circle cx="-780" cy="-3756.255" fill="#fff" r="12"/><circle cx="-780" cy="-3756.255" r="12" stroke="#000" stroke-linecap="round" stroke-linejoin="round" stroke-width=".25"/><path d="M-783.383-3753.526h-1.673a1.945 1.945 0 0 1-1.944-1.944v-3.89c0-1.073.871-1.944 1.944-1.944h5.445c1.058 0 1.913.84 1.944 1.89l1.735-1.446a1.795 1.795 0 0 1 2.52.225c.264.319.412.724.412 1.144v4.13a1.79 1.79 0 0 1-2.932 1.376l-1.735-1.446a1.944 1.944 0 0 1-1.944 1.89h-1.672l1.92 1.648c.164.14.18.39.04.553a.393.393 0 0 1-.553.039l-2.465-2.116-2.466 2.116a.393.393 0 0 1-.552-.04.393.393 0 0 1 .039-.552l1.921-1.648zm4.939-2.722v-3.103c0-.646-.522-1.167-1.167-1.167h-5.445c-.645 0-1.166.521-1.166 1.167v3.888c0 .646.52 1.167 1.166 1.167h5.445c.645 0 1.167-.521 1.167-1.167v-.777zm.777-2.155v1.968l2.233 1.859a1.01 1.01 0 0 0 1.657-.778v-4.13a1.012 1.012 0 0 0-1.657-.778z" fill="#66727e"/></g></svg>