<svg height="25" viewBox="-792.5 -3768.755 25 25" width="25" xmlns="http://www.w3.org/2000/svg"><g fill="none"><circle cx="-780" cy="-3756.255" fill="#fff" r="12"/><circle cx="-780" cy="-3756.255" r="12" stroke="#000" stroke-linecap="round" stroke-linejoin="round" stroke-width=".25"/><path d="m-783.3833-3753.526h-1.67225c-1.07335 0-1.94445-.871-1.94445-1.9444v-3.8889c0-1.0733.8711-1.9444 1.94445-1.9444h5.44445c1.0578 0 1.9133.84 1.9444 1.89l1.7345-1.4467c.7622-.63 1.89-.5289 2.52.2254.2644.319.4122.7235.4122 1.1435v4.13c0 .9878-.8011 1.7889-1.7889 1.7889-.42 0-.8244-.1478-1.1433-.4124l-1.7345-1.4465c-.0311 1.05-.8866 1.89-1.9444 1.89h-1.6722l1.9211 1.6489c.1633.14.1789.3889.0389.5522-.14.1634-.3889.1789-.55225.0389l-2.46555-2.1155-2.4656 2.1155c-.1633.14-.4122.1245-.5522-.0389-.14-.1633-.1244-.4122.0389-.5522l1.9211-1.6489zm4.9389-2.722v-2.3257-.7778c0-.6455-.52115-1.1665-1.1667-1.1665h-5.44445c-.64555 0-1.16665.521-1.16665 1.1665v3.8889c0 .6456.5211 1.1666 1.16665 1.1666h5.44445c.64555 0 1.1667-.521 1.1667-1.1666v-.7778zm.7777-2.1546v1.9676l2.2323 1.859c.17885.148.4122.2334.6455.2334.56 0 1.0111-.4511 1.0111-1.0111v-4.13c0-.2333-.0855-.4667-.2333-.6456-.3578-.4277-.9956-.49-1.4233-.1322z" fill="#66727e"/></g></svg>