<?xml version="1.0" encoding="UTF-8" standalone="no"?>
<!DOCTYPE svg PUBLIC "-//W3C//DTD SVG 1.1//EN" "http://www.w3.org/Graphics/SVG/1.1/DTD/svg11.dtd">
<svg version="1.1" xmlns="http://www.w3.org/2000/svg" xmlns:xl="http://www.w3.org/1999/xlink" xmlns:dc="http://purl.org/dc/elements/1.1/" viewBox="-751.7865 -3808.674 25.000035 25" width="25.000035" height="25">
  <defs/>
  <g id="SOURCES" stroke-dasharray="none" fill="none" stroke="none" fill-opacity="1" stroke-opacity="1">
    <title>SOURCES</title>
    <g id="SOURCES_Calque_2">
      <title>Calque 2</title>
      <g id="Group_9013">
        <g id="Graphic_8954">
          <circle cx="-739.2865" cy="-3796.174" r="12.0000278184556" fill="white"/>
          <circle cx="-739.2865" cy="-3796.174" r="12.0000278184556" stroke="black" stroke-linecap="round" stroke-linejoin="round" stroke-width=".2500004"/>
        </g>
        <g id="Group_9009">
          <title>expand-alt</title>
          <g id="Graphic_9010">
            <path d="M -733.06424 -3790.504 L -733.06424 -3792.674 C -733.06424 -3792.892 -732.8931 -3793.063 -732.67536 -3793.063 C -732.4576 -3793.063 -732.2865 -3792.892 -732.2865 -3792.674 L -732.2865 -3789.563 C -732.2865 -3789.345 -732.4576 -3789.174 -732.67536 -3789.174 L -735.7865 -3789.174 C -736.00424 -3789.174 -736.17536 -3789.345 -736.17536 -3789.563 C -736.17536 -3789.7807 -736.00424 -3789.952 -735.7865 -3789.952 L -733.6165 -3789.952 L -737.622 -3793.9574 C -737.7776 -3794.113 -737.7776 -3794.354 -737.622 -3794.5096 C -737.4665 -3794.665 -737.22536 -3794.665 -737.0698 -3794.5096 Z M -745.5087 -3801.844 L -745.5087 -3799.674 C -745.5087 -3799.4563 -745.6798 -3799.285 -745.8976 -3799.285 C -746.1154 -3799.285 -746.2865 -3799.4563 -746.2865 -3799.674 L -746.2865 -3802.785 C -746.2865 -3803.003 -746.1154 -3803.174 -745.8976 -3803.174 L -742.7865 -3803.174 C -742.5687 -3803.174 -742.3976 -3803.003 -742.3976 -3802.785 C -742.3976 -3802.5674 -742.5687 -3802.3963 -742.7865 -3802.3963 L -744.9565 -3802.3963 L -740.9509 -3798.3907 C -740.79536 -3798.235 -740.79536 -3797.994 -740.9509 -3797.8385 C -741.1065 -3797.683 -741.3476 -3797.683 -741.5031 -3797.8385 Z M -744.9565 -3789.952 L -742.7865 -3789.952 C -742.5687 -3789.952 -742.3976 -3789.7807 -742.3976 -3789.563 C -742.3976 -3789.345 -742.5687 -3789.174 -742.7865 -3789.174 L -745.8976 -3789.174 C -746.1154 -3789.174 -746.2865 -3789.345 -746.2865 -3789.563 L -746.2865 -3792.674 C -746.2865 -3792.892 -746.1154 -3793.063 -745.8976 -3793.063 C -745.6798 -3793.063 -745.5087 -3792.892 -745.5087 -3792.674 L -745.5087 -3790.504 L -741.5031 -3794.5096 C -741.3476 -3794.665 -741.1065 -3794.665 -740.9509 -3794.5096 C -740.79536 -3794.354 -740.79536 -3794.113 -740.9509 -3793.9574 Z M -733.6165 -3802.3963 L -735.7865 -3802.3963 C -736.00424 -3802.3963 -736.17536 -3802.5674 -736.17536 -3802.785 C -736.17536 -3803.003 -736.00424 -3803.174 -735.7865 -3803.174 L -732.67536 -3803.174 C -732.4576 -3803.174 -732.2865 -3803.003 -732.2865 -3802.785 L -732.2865 -3799.6507 C -732.2865 -3799.433 -732.4576 -3799.262 -732.67536 -3799.262 C -732.8931 -3799.262 -733.06424 -3799.433 -733.06424 -3799.6507 L -733.06424 -3801.844 L -737.0698 -3797.8385 C -737.22536 -3797.683 -737.4665 -3797.683 -737.622 -3797.8385 C -737.7776 -3797.994 -737.7776 -3798.235 -737.622 -3798.3907 Z" fill="#66727e"/>
          </g>
        </g>
      </g>
    </g>
  </g>
</svg>
