<svg height="25" viewBox="-737.786 -3808.674 25 25" width="25" xmlns="http://www.w3.org/2000/svg"><g fill="none"><circle cx="-725.286" cy="-3796.174" fill="#fff" r="12"/><circle cx="-725.286" cy="-3796.174" r="12" stroke="#000" stroke-linecap="round" stroke-linejoin="round" stroke-width=".25"/><path d="m-728.1687-3793.851h-3.7214c-.2175 0-.38845-.171-.38845-.3885s.17095-.3885.38845-.3885h4.6615c.2175 0 .38845.171.38845.3885v4.6615c0 .2175-.17095.3884-.38845.3884s-.3885-.1709-.3885-.3884v-3.7215l-4.0011 3.9935c-.15535.1553-.3962.1553-.5516 0-.1554-.1555-.1554-.3963 0-.5517l4.0011-4.0013zm.5516-5.213v-3.7216c0-.2174.171-.3884.3885-.3884s.38845.171.38845.3884v4.6616c0 .2174-.17095.3884-.38845.3884h-4.6615c-.2175 0-.38845-.171-.38845-.3884 0-.2176.17095-.3886.38845-.3886h3.7214l-3.9933-4.0011c-.1554-.1476-.1554-.3963 0-.5438.1476-.1555.3962-.1555.5438 0l4.0011 4.0011zm5.2131.5514h3.72146c.21754 0 .38844.171.38844.3886 0 .2174-.1709.3884-.38844.3884h-4.66146c-.2176 0-.3885-.171-.3885-.3884v-4.6616c0-.2174.1709-.3884.3885-.3884.2175 0 .3884.171.3884.3884v3.7216l4.0011-3.9935c.1554-.1555.3963-.1555.55165 0s.15535.3962 0 .5515l-4.00115 4.001zm0 4.6616 4.00115 4.001c.15535.1554.15535.3963 0 .5517-.15535.1553-.39625.1553-.55165 0l-4.0011-4.0012v3.737c0 .2175-.1709.3885-.3884.3885-.2176 0-.3885-.171-.3885-.3885v-4.677c0-.2175.1709-.3885.3885-.3885h4.66146c.21754 0 .38844.171.38844.3885s-.1709.3885-.38844.3885z" fill="#66727e"/></g></svg>