<svg height="25" viewBox="-751.787 -3808.674 25 25" width="25" xmlns="http://www.w3.org/2000/svg"><g fill="none"><circle cx="-739.287" cy="-3796.174" fill="#fff" r="12"/><circle cx="-739.287" cy="-3796.174" r="12" stroke="#000" stroke-linecap="round" stroke-linejoin="round" stroke-width=".25"/><path d="M-733.064-3790.504v-2.17c0-.218.17-.389.389-.389.217 0 .388.171.388.389v3.111a.385.385 0 0 1-.388.389h-3.112a.385.385 0 0 1-.388-.389c0-.218.17-.389.388-.389h2.17l-4.005-4.005a.385.385 0 0 1 0-.553.385.385 0 0 1 .552 0zm-12.445-11.34v2.17c0 .218-.17.389-.389.389s-.389-.171-.389-.389v-3.111c0-.218.172-.389.39-.389h3.11c.218 0 .39.171.39.389a.385.385 0 0 1-.39.389h-2.17l4.006 4.005a.385.385 0 0 1 0 .553.385.385 0 0 1-.552 0zm.552 11.892h2.17c.218 0 .39.171.39.389a.385.385 0 0 1-.39.389h-3.11a.385.385 0 0 1-.39-.389v-3.111c0-.218.172-.389.39-.389s.388.171.388.389v2.17l4.006-4.006a.385.385 0 0 1 .552 0 .385.385 0 0 1 0 .553zm11.34-12.444h-2.17a.385.385 0 0 1-.388-.389c0-.218.17-.389.388-.389h3.112c.217 0 .388.171.388.389v3.134a.385.385 0 0 1-.388.389.385.385 0 0 1-.39-.389v-2.193l-4.005 4.005a.385.385 0 0 1-.552 0 .385.385 0 0 1 0-.552z" fill="#66727e"/></g></svg>