<?xml version="1.0" encoding="UTF-8" standalone="no"?>
<!DOCTYPE svg PUBLIC "-//W3C//DTD SVG 1.1//EN" "http://www.w3.org/Graphics/SVG/1.1/DTD/svg11.dtd">
<svg version="1.1" xmlns="http://www.w3.org/2000/svg" xmlns:xl="http://www.w3.org/1999/xlink" xmlns:dc="http://purl.org/dc/elements/1.1/" viewBox="-737.7863 -3808.674 25.000035 25" width="25.000035" height="25">
  <defs/>
  <g id="SOURCES" stroke-dasharray="none" fill="none" stroke="none" fill-opacity="1" stroke-opacity="1">
    <title>SOURCES</title>
    <g id="SOURCES_Calque_2">
      <title>Calque 2</title>
      <g id="Group_9014">
        <g id="Graphic_8958">
          <circle cx="-725.2863" cy="-3796.174" r="12.0000278184556" fill="white"/>
          <circle cx="-725.2863" cy="-3796.174" r="12.0000278184556" stroke="black" stroke-linecap="round" stroke-linejoin="round" stroke-width=".2500004"/>
        </g>
        <g id="Group_9011">
          <title>collapse-alt</title>
          <g id="Graphic_9012">
            <path d="M -728.1687 -3793.851 L -731.8901 -3793.851 C -732.1076 -3793.851 -732.27855 -3794.022 -732.27855 -3794.2395 C -732.27855 -3794.457 -732.1076 -3794.628 -731.8901 -3794.628 L -727.2286 -3794.628 C -727.0111 -3794.628 -726.84015 -3794.457 -726.84015 -3794.2395 L -726.84015 -3789.578 C -726.84015 -3789.3605 -727.0111 -3789.1896 -727.2286 -3789.1896 C -727.4461 -3789.1896 -727.6171 -3789.3605 -727.6171 -3789.578 L -727.6171 -3793.2995 L -731.6182 -3789.306 C -731.77355 -3789.1507 -732.0144 -3789.1507 -732.1698 -3789.306 C -732.3252 -3789.4615 -732.3252 -3789.7023 -732.1698 -3789.8577 L -728.1687 -3793.859 Z M -727.6171 -3799.064 L -727.6171 -3802.7856 C -727.6171 -3803.003 -727.4461 -3803.174 -727.2286 -3803.174 C -727.0111 -3803.174 -726.84015 -3803.003 -726.84015 -3802.7856 L -726.84015 -3798.124 C -726.84015 -3797.9066 -727.0111 -3797.7356 -727.2286 -3797.7356 L -731.8901 -3797.7356 C -732.1076 -3797.7356 -732.27855 -3797.9066 -732.27855 -3798.124 C -732.27855 -3798.3416 -732.1076 -3798.5126 -731.8901 -3798.5126 L -728.1687 -3798.5126 L -732.162 -3802.5137 C -732.3174 -3802.6613 -732.3174 -3802.91 -732.162 -3803.0575 C -732.0144 -3803.213 -731.7658 -3803.213 -731.6182 -3803.0575 L -727.6171 -3799.0564 Z M -722.404 -3798.5126 L -718.68254 -3798.5126 C -718.465 -3798.5126 -718.2941 -3798.3416 -718.2941 -3798.124 C -718.2941 -3797.9066 -718.465 -3797.7356 -718.68254 -3797.7356 L -723.344 -3797.7356 C -723.5616 -3797.7356 -723.7325 -3797.9066 -723.7325 -3798.124 L -723.7325 -3802.7856 C -723.7325 -3803.003 -723.5616 -3803.174 -723.344 -3803.174 C -723.1265 -3803.174 -722.9556 -3803.003 -722.9556 -3802.7856 L -722.9556 -3799.064 L -718.9545 -3803.0575 C -718.7991 -3803.213 -718.5582 -3803.213 -718.40285 -3803.0575 C -718.2475 -3802.902 -718.2475 -3802.6613 -718.40285 -3802.506 L -722.404 -3798.505 Z M -722.404 -3793.851 L -718.40285 -3789.85 C -718.2475 -3789.6946 -718.2475 -3789.4537 -718.40285 -3789.2983 C -718.5582 -3789.143 -718.7991 -3789.143 -718.9545 -3789.2983 L -722.9556 -3793.2995 L -722.9556 -3789.5625 C -722.9556 -3789.345 -723.1265 -3789.174 -723.344 -3789.174 C -723.5616 -3789.174 -723.7325 -3789.345 -723.7325 -3789.5625 L -723.7325 -3794.2395 C -723.7325 -3794.457 -723.5616 -3794.628 -723.344 -3794.628 L -718.68254 -3794.628 C -718.465 -3794.628 -718.2941 -3794.457 -718.2941 -3794.2395 C -718.2941 -3794.022 -718.465 -3793.851 -718.68254 -3793.851 Z" fill="#66727e"/>
          </g>
        </g>
      </g>
    </g>
  </g>
</svg>
