<svg xmlns="http://www.w3.org/2000/svg" viewBox="-737.786 -3808.674 25 25"><g fill="none"><circle cx="-725.286" cy="-3796.174" r="12" fill="#fff"/><circle cx="-725.286" cy="-3796.174" r="12" stroke="#000" stroke-linecap="round" stroke-linejoin="round" stroke-width=".25"/><path d="M-728.169-3793.851h-3.721a.385.385 0 0 1-.389-.389c0-.217.171-.388.389-.388h4.661c.218 0 .389.171.389.389v4.661a.385.385 0 0 1-.389.388.385.385 0 0 1-.388-.388v-3.722l-4.001 3.994a.385.385 0 0 1-.552 0 .385.385 0 0 1 0-.552l4.001-4.001zm.552-5.213v-3.722c0-.217.17-.388.388-.388s.389.171.389.388v4.662a.385.385 0 0 1-.389.388h-4.661a.385.385 0 0 1-.389-.388c0-.218.171-.389.389-.389h3.721l-3.993-4a.375.375 0 0 1 0-.544.375.375 0 0 1 .544 0l4 4zm5.213.551h3.721c.218 0 .389.171.389.389a.385.385 0 0 1-.389.388h-4.661a.385.385 0 0 1-.388-.388v-4.662c0-.217.17-.388.388-.388s.388.171.388.388v3.722l4.001-3.994a.384.384 0 0 1 .552 0 .385.385 0 0 1 0 .552l-4.001 4.001zm0 4.662 4.001 4.001a.385.385 0 0 1 0 .552.385.385 0 0 1-.552 0l-4-4.002v3.738a.385.385 0 0 1-.389.388.385.385 0 0 1-.388-.389v-4.677c0-.217.17-.388.388-.388h4.661c.218 0 .389.171.389.389a.385.385 0 0 1-.389.388z" fill="#66727e"/></g></svg>