<svg height="25" viewBox="-751.787 -3808.674 25 25" width="25" xmlns="http://www.w3.org/2000/svg"><g fill="none"><circle cx="-739.287" cy="-3796.174" fill="#fff" r="12"/><circle cx="-739.287" cy="-3796.174" r="12" stroke="#000" stroke-linecap="round" stroke-linejoin="round" stroke-width=".25"/><path d="m-733.06424-3790.504v-2.17c0-.218.17114-.389.38888-.389.21776 0 .38886.171.38886.389v3.111c0 .218-.1711.389-.38886.389h-3.11114c-.21774 0-.38886-.171-.38886-.389 0-.2177.17112-.389.38886-.389h2.17l-4.0055-4.0054c-.1556-.1556-.1556-.3966 0-.5522.1555-.1554.39664-.1554.5522 0zm-12.44446-11.34v2.17c0 .2177-.1711.389-.3889.389s-.3889-.1713-.3889-.389v-3.111c0-.218.1711-.389.3889-.389h3.1111c.2178 0 .3889.171.3889.389 0 .2176-.1711.3887-.3889.3887h-2.17l4.0056 4.0056c.15554.1557.15554.3967 0 .5522-.1556.1555-.3967.1555-.5522 0zm.5522 11.892h2.17c.2178 0 .3889.1713.3889.389 0 .218-.1711.389-.3889.389h-3.1111c-.2178 0-.3889-.171-.3889-.389v-3.111c0-.218.1711-.389.3889-.389s.3889.171.3889.389v2.17l4.0056-4.0056c.1555-.1554.3966-.1554.5522 0 .15554.1556.15554.3966 0 .5522zm11.34-12.4443h-2.17c-.21774 0-.38886-.1711-.38886-.3887 0-.218.17112-.389.38886-.389h3.11114c.21776 0 .38886.171.38886.389v3.1343c0 .2177-.1711.3887-.38886.3887-.21774 0-.38888-.171-.38888-.3887v-2.1933l-4.00556 4.0055c-.15556.1555-.3967.1555-.5522 0-.1556-.1555-.1556-.3965 0-.5522z" fill="#66727e"/></g></svg>