<?xml version="1.0" encoding="UTF-8" standalone="no"?>
<!DOCTYPE svg PUBLIC "-//W3C//DTD SVG 1.1//EN" "http://www.w3.org/Graphics/SVG/1.1/DTD/svg11.dtd">
<svg version="1.1" xmlns="http://www.w3.org/2000/svg" xmlns:xl="http://www.w3.org/1999/xlink" xmlns:dc="http://purl.org/dc/elements/1.1/" viewBox="-665.7863 -3808.674 25 25" width="25" height="25">
  <defs/>
  <g id="SOURCES" stroke-dasharray="none" fill="none" stroke="none" fill-opacity="1" stroke-opacity="1">
    <title>SOURCES</title>
    <g id="SOURCES_Calque_2">
      <title>Calque 2</title>
      <g id="Graphic_8971">
        <path d="M -661.4463 -3808.174 L -645.1263 -3808.174 C -643.0055 -3808.174 -641.2863 -3806.455 -641.2863 -3804.334 L -641.2863 -3788.014 C -641.2863 -3785.8933 -643.0055 -3784.174 -645.1263 -3784.174 L -661.4463 -3784.174 C -663.5671 -3784.174 -665.2863 -3785.8933 -665.2863 -3788.014 L -665.2863 -3804.334 C -665.2863 -3806.455 -663.5671 -3808.174 -661.4463 -3808.174 Z" fill="white"/>
        <path d="M -661.4463 -3808.174 L -645.1263 -3808.174 C -643.0055 -3808.174 -641.2863 -3806.455 -641.2863 -3804.334 L -641.2863 -3788.014 C -641.2863 -3785.8933 -643.0055 -3784.174 -645.1263 -3784.174 L -661.4463 -3784.174 C -663.5671 -3784.174 -665.2863 -3785.8933 -665.2863 -3788.014 L -665.2863 -3804.334 C -665.2863 -3806.455 -663.5671 -3808.174 -661.4463 -3808.174 Z" stroke="black" stroke-linecap="round" stroke-linejoin="round" stroke-width=".25"/>
      </g>
      <g id="Group_8978">
        <title>to-bottom</title>
        <g id="Graphic_8979">
          <path d="M -647.0641 -3792.285 L -647.0641 -3801.2296 C -647.0641 -3801.875 -647.5852 -3802.3963 -648.23074 -3802.3963 L -658.34186 -3802.3963 C -658.9874 -3802.3963 -659.5085 -3801.875 -659.5085 -3801.2296 L -659.5085 -3792.285 Z M -647.0641 -3791.5074 L -659.5085 -3791.5074 L -659.5085 -3791.1185 C -659.5085 -3790.473 -658.9874 -3789.952 -658.34186 -3789.952 L -648.23074 -3789.952 C -647.5852 -3789.952 -647.0641 -3790.473 -647.0641 -3791.1185 Z M -660.2863 -3801.2296 C -660.2863 -3802.303 -659.4152 -3803.174 -658.34186 -3803.174 L -648.23074 -3803.174 C -647.1574 -3803.174 -646.2863 -3802.303 -646.2863 -3801.2296 L -646.2863 -3791.1185 C -646.2863 -3790.045 -647.1574 -3789.174 -648.23074 -3789.174 L -658.34186 -3789.174 C -659.4152 -3789.174 -660.2863 -3790.045 -660.2863 -3791.1185 Z M -653.2863 -3794.7274 L -651.583 -3796.0885 C -651.41186 -3796.2207 -651.17074 -3796.1974 -651.0385 -3796.0263 C -650.9063 -3795.855 -650.9296 -3795.614 -651.10074 -3795.482 L -653.0452 -3793.9263 C -653.1852 -3793.8096 -653.3874 -3793.8096 -653.5274 -3793.9263 L -655.47186 -3795.482 C -655.643 -3795.614 -655.6663 -3795.863 -655.5341 -3796.0263 C -655.40186 -3796.1974 -655.153 -3796.2207 -654.9896 -3796.0885 Z" fill="#66727e"/>
        </g>
      </g>
      <g id="Group_8983">
        <g id="Graphic_8985">
          <path d="M -658.5 -3791.8 L -648.1 -3791.8 C -647.4925 -3791.8 -647 -3791.3076 -647 -3790.7 L -647 -3790.7 C -647 -3790.0925 -647.4925 -3789.6 -648.1 -3789.6 L -658.5 -3789.6 C -659.1075 -3789.6 -659.6 -3790.0925 -659.6 -3790.7 L -659.6 -3790.7 C -659.6 -3791.3076 -659.1075 -3791.8 -658.5 -3791.8 Z" fill="#ccc"/>
        </g>
        <g id="Graphic_8984">
          <rect x="-659.6" y="-3791.8" width="12.59999" height=".8836498" fill="#ccc"/>
        </g>
      </g>
    </g>
  </g>
</svg>
