<svg height="25" viewBox="-665.786 -3808.674 25 25" width="25" xmlns="http://www.w3.org/2000/svg"><g fill="none"><path d="m-661.4463-3808.174h16.32c2.1208 0 3.84 1.719 3.84 3.84v16.32c0 2.1207-1.7192 3.84-3.84 3.84h-16.32c-2.1208 0-3.84-1.7193-3.84-3.84v-16.32c0-2.121 1.7192-3.84 3.84-3.84z" fill="#fff"/><path d="m-661.4463-3808.174h16.32c2.1208 0 3.84 1.719 3.84 3.84v16.32c0 2.1207-1.7192 3.84-3.84 3.84h-16.32c-2.1208 0-3.84-1.7193-3.84-3.84v-16.32c0-2.121 1.7192-3.84 3.84-3.84z" stroke="#000" stroke-linecap="round" stroke-linejoin="round" stroke-width=".25"/><path d="m-647.0641-3792.285v-8.9446c0-.6454-.5211-1.1667-1.16664-1.1667h-10.11112c-.64554 0-1.16664.5213-1.16664 1.1667v8.9446zm0 .7776h-12.4444v.3889c0 .6455.5211 1.1665 1.16664 1.1665h10.11112c.64554 0 1.16664-.521 1.16664-1.1665zm-13.2222-9.7222c0-1.0734.8711-1.9444 1.94444-1.9444h10.11112c1.07334 0 1.94444.871 1.94444 1.9444v10.1111c0 1.0735-.8711 1.9445-1.94444 1.9445h-10.11112c-1.07334 0-1.94444-.871-1.94444-1.9445zm7 6.5022 1.7033-1.3611c.17114-.1322.41226-.1089.5445.0622.1322.1713.1089.4123-.06224.5443l-1.94446 1.5557c-.14.1167-.3422.1167-.4822 0l-1.94446-1.5557c-.17114-.132-.19444-.381-.06224-.5443.13224-.1711.3811-.1944.5445-.0622z" fill="#66727e"/><g fill="#ccc"><path d="m-658.5-3791.8h10.4c.6075 0 1.1.4924 1.1 1.1 0 .6075-.4925 1.1-1.1 1.1h-10.4c-.6075 0-1.1-.4925-1.1-1.1 0-.6076.4925-1.1 1.1-1.1z"/><path d="m-659.6-3791.8h12.59999v.88365h-12.59999z"/></g></g></svg>