<svg height="25" viewBox="-617.785 -3727.029 25 25" width="25" xmlns="http://www.w3.org/2000/svg"><g fill="none"><path d="m-613.4447-3726.5294h16.32c2.12076 0 3.84 1.7194 3.84 3.84v16.32c0 2.1208-1.71924 3.84-3.84 3.84h-16.32c-2.1208 0-3.84-1.7192-3.84-3.84v-16.32c0-2.1206 1.7192-3.84 3.84-3.84z" fill="#fff"/><path d="m-613.4447-3726.5294h16.32c2.12076 0 3.84 1.7194 3.84 3.84v16.32c0 2.1208-1.71924 3.84-3.84 3.84h-16.32c-2.1208 0-3.84-1.7192-3.84-3.84v-16.32c0-2.1206 1.7192-3.84 3.84-3.84z" stroke="#000" stroke-linecap="round" stroke-linejoin="round" stroke-width=".25"/><g stroke="#66727e"><path d="m-605.10405-3714.5294v-6.4446c3.55925 0 6.44455 2.8854 6.44455 6.4446 0 3.5594-2.8853 6.4444-6.44455 6.4444z" stroke-linecap="round" stroke-linejoin="round" stroke-width=".5"/><path d="m-605.4654-3714.5294v6.4444c-3.5592 0-6.44455-2.885-6.44455-6.4444 0-3.5592 2.88535-6.4446 6.44455-6.4446z" stroke-linejoin="bevel"/><path d="m-605.0736-3722.5294v16" stroke-linecap="round" stroke-linejoin="round" stroke-width=".5"/></g></g></svg>