<svg viewBox="-617.785 -3727.029 25 25" xmlns="http://www.w3.org/2000/svg"><g fill="none"><path d="m-613.445-3726.53h16.32a3.84 3.84 0 0 1 3.84 3.84v16.32a3.84 3.84 0 0 1 -3.84 3.84h-16.32a3.84 3.84 0 0 1 -3.84-3.84v-16.32a3.84 3.84 0 0 1 3.84-3.84z" fill="#fff"/><path d="m-613.445-3726.53h16.32a3.84 3.84 0 0 1 3.84 3.84v16.32a3.84 3.84 0 0 1 -3.84 3.84h-16.32a3.84 3.84 0 0 1 -3.84-3.84v-16.32a3.84 3.84 0 0 1 3.84-3.84z" stroke="#000" stroke-linecap="round" stroke-linejoin="round" stroke-width=".25"/><g stroke="#66727e"><path d="m-605.104-3714.53v-6.444a6.445 6.445 0 0 1 0 12.889v-6.444z" stroke-linecap="round" stroke-linejoin="round" stroke-width=".5"/><path d="m-605.465-3714.53v6.445a6.444 6.444 0 1 1 0-12.889v6.445z" stroke-linejoin="bevel"/><path d="m-605.074-3722.529v16" stroke-linecap="round" stroke-linejoin="round" stroke-width=".5"/></g></g></svg>