<svg height="25" viewBox="-665.786 -3808.674 25 25" width="25" xmlns="http://www.w3.org/2000/svg"><g fill="none"><path d="M-661.446-3808.174h16.32a3.84 3.84 0 0 1 3.84 3.84v16.32a3.84 3.84 0 0 1-3.84 3.84h-16.32a3.84 3.84 0 0 1-3.84-3.84v-16.32a3.84 3.84 0 0 1 3.84-3.84z" fill="#fff"/><path d="M-661.446-3808.174h16.32a3.84 3.84 0 0 1 3.84 3.84v16.32a3.84 3.84 0 0 1-3.84 3.84h-16.32a3.84 3.84 0 0 1-3.84-3.84v-16.32a3.84 3.84 0 0 1 3.84-3.84z" stroke="#000" stroke-linecap="round" stroke-linejoin="round" stroke-width=".25"/><path d="M-647.064-3792.285v-8.945c0-.645-.521-1.166-1.167-1.166h-10.11c-.646 0-1.168.521-1.168 1.166v8.945zm0 .778h-12.445v.389c0 .645.522 1.166 1.167 1.166h10.111c.646 0 1.167-.521 1.167-1.167zm-13.222-9.723c0-1.073.87-1.944 1.944-1.944h10.111c1.074 0 1.945.871 1.945 1.944v10.111a1.945 1.945 0 0 1-1.945 1.945h-10.11a1.945 1.945 0 0 1-1.945-1.944zm7 6.503l1.703-1.362a.385.385 0 0 1 .544.063.384.384 0 0 1-.062.544l-1.944 1.556a.376.376 0 0 1-.482 0l-1.945-1.556a.385.385 0 0 1-.062-.544.386.386 0 0 1 .544-.063z" fill="#66727e"/><g fill="#ccc"><path d="M-658.5-3791.8h10.4a1.1 1.1 0 1 1 0 2.2h-10.4a1.1 1.1 0 0 1 0-2.2z"/><path d="M-659.6-3791.8h12.6v.884h-12.6z"/></g></g></svg>