<?xml version="1.0" encoding="UTF-8" standalone="no"?>
<!DOCTYPE svg PUBLIC "-//W3C//DTD SVG 1.1//EN" "http://www.w3.org/Graphics/SVG/1.1/DTD/svg11.dtd">
<svg version="1.1" xmlns="http://www.w3.org/2000/svg" xmlns:xl="http://www.w3.org/1999/xlink" xmlns:dc="http://purl.org/dc/elements/1.1/" viewBox="-512.5 -3768.755 25 25" width="25" height="25">
  <defs/>
  <g id="SOURCES" stroke-dasharray="none" fill="none" stroke="none" fill-opacity="1" stroke-opacity="1">
    <title>SOURCES</title>
    <g id="SOURCES_Calque_2">
      <title>Calque 2</title>
      <g id="Graphic_8974">
        <path d="M -508.16 -3768.255 L -491.84003 -3768.255 C -489.71926 -3768.255 -488 -3766.5358 -488 -3764.415 L -488 -3748.095 C -488 -3745.974 -489.71926 -3744.255 -491.84003 -3744.255 L -508.16 -3744.255 C -510.2808 -3744.255 -512 -3745.974 -512 -3748.095 L -512 -3764.415 C -512 -3766.5358 -510.2808 -3768.255 -508.16 -3768.255 Z" fill="white"/>
        <path d="M -508.16 -3768.255 L -491.84003 -3768.255 C -489.71926 -3768.255 -488 -3766.5358 -488 -3764.415 L -488 -3748.095 C -488 -3745.974 -489.71926 -3744.255 -491.84003 -3744.255 L -508.16 -3744.255 C -510.2808 -3744.255 -512 -3745.974 -512 -3748.095 L -512 -3764.415 C -512 -3766.5358 -510.2808 -3768.255 -508.16 -3768.255 Z" stroke="black" stroke-linecap="round" stroke-linejoin="round" stroke-width=".25"/>
      </g>
      <g id="Group_8972">
        <title>to-bottom</title>
        <g id="Graphic_8973">
          <path d="M -493.7778 -3752.366 L -493.7778 -3761.3105 C -493.7778 -3761.956 -494.2989 -3762.477 -494.9445 -3762.477 L -505.0556 -3762.477 C -505.70114 -3762.477 -506.22225 -3761.956 -506.22225 -3761.3105 L -506.22225 -3752.366 Z M -493.7778 -3751.5883 L -506.22225 -3751.5883 L -506.22225 -3751.1994 C -506.22225 -3750.554 -505.70114 -3750.0328 -505.0556 -3750.0328 L -494.9445 -3750.0328 C -494.2989 -3750.0328 -493.7778 -3750.554 -493.7778 -3751.1994 Z M -507 -3761.3105 C -507 -3762.384 -506.1289 -3763.255 -505.0556 -3763.255 L -494.9445 -3763.255 C -493.87114 -3763.255 -493 -3762.384 -493 -3761.3105 L -493 -3751.1994 C -493 -3750.126 -493.87114 -3749.255 -494.9445 -3749.255 L -505.0556 -3749.255 C -506.1289 -3749.255 -507 -3750.126 -507 -3751.1994 Z M -500 -3754.8083 L -498.2967 -3756.1694 C -498.1256 -3756.3017 -497.8845 -3756.2783 -497.75225 -3756.107 C -497.62 -3755.936 -497.64336 -3755.695 -497.8145 -3755.5628 L -499.7589 -3754.007 C -499.8989 -3753.8905 -500.10114 -3753.8905 -500.24114 -3754.007 L -502.1856 -3755.5628 C -502.3567 -3755.695 -502.38 -3755.944 -502.2478 -3756.107 C -502.1156 -3756.2783 -501.8667 -3756.3017 -501.70336 -3756.1694 Z" fill="#66727e"/>
        </g>
      </g>
    </g>
  </g>
</svg>
