<svg xmlns="http://www.w3.org/2000/svg" viewBox="-472 -3768.755 25 25"><g fill="none"><path d="M-467.66-3768.255h16.32a3.84 3.84 0 0 1 3.84 3.84v16.32a3.84 3.84 0 0 1-3.84 3.84h-16.32a3.84 3.84 0 0 1-3.84-3.84v-16.32a3.84 3.84 0 0 1 3.84-3.84z" fill="#fff"/><path d="M-467.66-3768.255h16.32a3.84 3.84 0 0 1 3.84 3.84v16.32a3.84 3.84 0 0 1-3.84 3.84h-16.32a3.84 3.84 0 0 1-3.84-3.84v-16.32a3.84 3.84 0 0 1 3.84-3.84z" stroke="#000" stroke-linecap="round" stroke-linejoin="round" stroke-width=".25"/><path d="M-465.722-3760.144v8.945c0 .645.52 1.166 1.166 1.166h10.111c.646 0 1.167-.521 1.167-1.166v-8.945zm0-.778h12.444v-.389c0-.645-.52-1.166-1.166-1.166h-10.112c-.645 0-1.166.521-1.166 1.166zm13.222 9.723a1.945 1.945 0 0 1-1.945 1.944h-10.11a1.945 1.945 0 0 1-1.945-1.944v-10.111c0-1.074.871-1.945 1.944-1.945h10.111c1.074 0 1.945.871 1.945 1.945zm-7-6.503-1.703 1.362a.385.385 0 0 1-.545-.063.384.384 0 0 1 .062-.544l1.945-1.556a.376.376 0 0 1 .482 0l1.945 1.556a.385.385 0 0 1 .062.544.385.385 0 0 1-.545.063z" fill="#66727e"/></g></svg>