<svg height="25" viewBox="-472 -3768.755 25 25" width="25" xmlns="http://www.w3.org/2000/svg"><g fill="none"><path d="m-467.66006-3768.255h16.32c2.12076 0 3.84 1.7192 3.84 3.84v16.32c0 2.121-1.71924 3.84-3.84 3.84h-16.32c-2.12077 0-3.84-1.719-3.84-3.84v-16.32c0-2.1208 1.71923-3.84 3.84-3.84z" fill="#fff"/><path d="m-467.66006-3768.255h16.32c2.12076 0 3.84 1.7192 3.84 3.84v16.32c0 2.121-1.71924 3.84-3.84 3.84h-16.32c-2.12077 0-3.84-1.719-3.84-3.84v-16.32c0-2.1208 1.71923-3.84 3.84-3.84z" stroke="#000" stroke-linecap="round" stroke-linejoin="round" stroke-width=".25"/><path d="m-465.7223-3760.144v8.9446c0 .6454.52113 1.1666 1.1667 1.1666h10.1111c.64555 0 1.16666-.5212 1.16666-1.1666v-8.9446zm0-.7777h12.44446v-.3888c0-.6455-.52111-1.1665-1.16666-1.1665h-10.1111c-.64557 0-1.1667.521-1.1667 1.1665zm13.22224 9.7223c0 1.0734-.87111 1.9444-1.94444 1.9444h-10.1111c-1.07335 0-1.94446-.871-1.94446-1.9444v-10.1111c0-1.0735.87111-1.9445 1.94446-1.9445h10.1111c1.07333 0 1.94444.871 1.94444 1.9445zm-7-6.5023-1.70334 1.3612c-.1711.1322-.4122.1088-.54444-.0623-.13222-.1712-.10886-.4122.06224-.5442l1.94443-1.5558c.14-.1166.34222-.1166.48222 0l1.94445 1.5558c.1711.132.19444.381.0622.5442-.1322.1711-.3811.1945-.5444.0623z" fill="#66727e"/></g></svg>