<svg height="25" viewBox="-512.5 -3768.755 25 25" width="25" xmlns="http://www.w3.org/2000/svg"><g fill="none"><path d="m-508.16-3768.255h16.31997c2.12077 0 3.84003 1.7192 3.84003 3.84v16.32c0 2.121-1.71926 3.84-3.84003 3.84h-16.31997c-2.1208 0-3.84-1.719-3.84-3.84v-16.32c0-2.1208 1.7192-3.84 3.84-3.84z" fill="#fff"/><path d="m-508.16-3768.255h16.31997c2.12077 0 3.84003 1.7192 3.84003 3.84v16.32c0 2.121-1.71926 3.84-3.84003 3.84h-16.31997c-2.1208 0-3.84-1.719-3.84-3.84v-16.32c0-2.1208 1.7192-3.84 3.84-3.84z" stroke="#000" stroke-linecap="round" stroke-linejoin="round" stroke-width=".25"/><path d="m-493.7778-3752.366v-8.9445c0-.6455-.5211-1.1665-1.1667-1.1665h-10.1111c-.64554 0-1.16665.521-1.16665 1.1665v8.9445zm0 .7777h-12.44445v.3889c0 .6454.52111 1.1666 1.16665 1.1666h10.1111c.6456 0 1.1667-.5212 1.1667-1.1666zm-13.2222-9.7222c0-1.0735.8711-1.9445 1.9444-1.9445h10.1111c1.07336 0 1.9445.871 1.9445 1.9445v10.1111c0 1.0734-.87114 1.9444-1.9445 1.9444h-10.1111c-1.0733 0-1.9444-.871-1.9444-1.9444zm7 6.5022 1.7033-1.3611c.1711-.1323.4122-.1089.54445.0624.13225.171.10889.412-.06225.5442l-1.9444 1.5558c-.14.1165-.34224.1165-.48224 0l-1.94446-1.5558c-.1711-.1322-.1944-.3812-.0622-.5442.1322-.1713.3811-.1947.54444-.0624z" fill="#66727e"/></g></svg>