<?xml version="1.0" encoding="UTF-8" standalone="no"?>
<!DOCTYPE svg PUBLIC "-//W3C//DTD SVG 1.1//EN" "http://www.w3.org/Graphics/SVG/1.1/DTD/svg11.dtd">
<svg version="1.1" xmlns="http://www.w3.org/2000/svg" xmlns:xl="http://www.w3.org/1999/xlink" xmlns:dc="http://purl.org/dc/elements/1.1/" viewBox="-432.5001 -3768.755 25.000035 25" width="25.000035" height="25">
  <defs/>
  <g id="SOURCES" stroke-dasharray="none" fill="none" stroke="none" fill-opacity="1" stroke-opacity="1">
    <title>SOURCES</title>
    <g id="SOURCES_Calque_2">
      <title>Calque 2</title>
      <g id="Graphic_8986">
        <circle cx="-420.00006" cy="-3756.255" r="12.0000278184556" fill="white"/>
        <circle cx="-420.00006" cy="-3756.255" r="12.0000278184556" stroke="black" stroke-linecap="round" stroke-linejoin="round" stroke-width=".2500004"/>
      </g>
      <g id="Group_8989">
        <title>collapse</title>
        <g id="Graphic_8990">
          <path d="M -422.88235 -3753.9217 L -426.6038 -3753.9217 C -426.8213 -3753.9217 -426.99224 -3754.0928 -426.99224 -3754.3105 C -426.99224 -3754.5283 -426.8213 -3754.6994 -426.6038 -3754.6994 L -421.9423 -3754.6994 C -421.72474 -3754.6994 -421.5538 -3754.5283 -421.5538 -3754.3105 L -421.5538 -3749.644 C -421.5538 -3749.426 -421.72474 -3749.255 -421.9423 -3749.255 C -422.1598 -3749.255 -422.33074 -3749.426 -422.33074 -3749.644 L -422.33074 -3753.3694 L -426.33186 -3749.3717 C -426.48724 -3749.216 -426.7281 -3749.216 -426.88347 -3749.3717 C -427.03885 -3749.527 -427.03885 -3749.7683 -426.88347 -3749.924 L -422.88235 -3753.9294 Z M -417.1176 -3758.5883 L -413.3962 -3758.5883 C -413.17866 -3758.5883 -413.00774 -3758.417 -413.00774 -3758.1994 C -413.00774 -3757.9817 -413.17866 -3757.8105 -413.3962 -3757.8105 L -418.0577 -3757.8105 C -418.27523 -3757.8105 -418.44615 -3757.9817 -418.44615 -3758.1994 L -418.44615 -3762.866 C -418.44615 -3763.084 -418.27523 -3763.255 -418.0577 -3763.255 C -417.84016 -3763.255 -417.66924 -3763.084 -417.66924 -3762.866 L -417.66924 -3759.1405 L -413.6681 -3763.1383 C -413.51273 -3763.294 -413.2719 -3763.294 -413.1165 -3763.1383 C -412.9611 -3762.9828 -412.9611 -3762.7417 -413.1165 -3762.586 L -417.1176 -3758.5805 Z" fill="#66727e"/>
        </g>
      </g>
    </g>
  </g>
</svg>
