<svg height="25" viewBox="-432.5 -3768.755 25 25" width="25" xmlns="http://www.w3.org/2000/svg"><g fill="none"><circle cx="-420" cy="-3756.255" fill="#fff" r="12"/><circle cx="-420" cy="-3756.255" r="12" stroke="#000" stroke-linecap="round" stroke-linejoin="round" stroke-width=".25"/><path d="m-422.88235-3753.9217h-3.72145c-.2175 0-.38844-.1711-.38844-.3888 0-.2178.17094-.3889.38844-.3889h4.6615c.21756 0 .3885.1711.3885.3889v4.6665c0 .218-.17094.389-.3885.389-.2175 0-.38844-.171-.38844-.389v-3.7254l-4.00112 3.9977c-.15538.1557-.39624.1557-.55161 0-.15538-.1553-.15538-.3966 0-.5523l4.00112-4.0054zm5.76475-4.6666h3.7214c.21754 0 .38846.1713.38846.3889 0 .2177-.17092.3889-.38846.3889h-4.6615c-.21753 0-.38845-.1712-.38845-.3889v-4.6666c0-.218.17092-.389.38845-.389.21754 0 .38846.171.38846.389v3.7255l4.00114-3.9978c.15537-.1557.3962-.1557.5516 0 .1554.1555.1554.3966 0 .5523l-4.0011 4.0055z" fill="#66727e"/></g></svg>