<svg xmlns="http://www.w3.org/2000/svg" viewBox="-432.5 -3768.755 25 25"><g fill="none"><circle cx="-420" cy="-3756.255" r="12" fill="#fff"/><circle cx="-420" cy="-3756.255" r="12" stroke="#000" stroke-linecap="round" stroke-linejoin="round" stroke-width=".25"/><path d="M-422.882-3753.922h-3.722a.385.385 0 0 1-.388-.389c0-.217.17-.388.388-.388h4.662c.217 0 .388.17.388.389v4.666c0 .218-.17.389-.388.389a.385.385 0 0 1-.389-.389v-3.725l-4 3.997a.384.384 0 0 1-.552 0 .385.385 0 0 1 0-.552l4-4.005zm5.764-4.666h3.722c.217 0 .388.171.388.389 0 .217-.17.389-.388.389h-4.662a.385.385 0 0 1-.388-.39v-4.666c0-.218.17-.389.388-.389s.389.171.389.389v3.726l4-3.998a.384.384 0 0 1 .553 0 .385.385 0 0 1 0 .552l-4.002 4.005z" fill="#66727e"/></g></svg>