<svg viewBox="-232 -3168.709 48 48" xmlns="http://www.w3.org/2000/svg"><g fill="none"><path d="m-229-3168.71h42a3 3 0 0 1 3 3v42a3 3 0 0 1 -3 3h-42a3 3 0 0 1 -3-3v-42a3 3 0 0 1 3-3z" fill="#fff"/><text fill="#ef9b00" transform="translate(-227 -3146.26)"><tspan font-family="DIN Pro" font-size="9" font-weight="bold" x="3.606" y="9">Graphical</tspan>  <tspan fill="#4288c4" font-family="DIN Pro" font-size="9" font-weight="bold" x="3.178" y="21.261">Modelling</tspan> </text><path d="m-230.604-3146.258h3.029a19.559 19.559 0 0 1 5.691-12.346c7.669-7.668 20.102-7.668 27.77 0a19.559 19.559 0 0 1 5.691 12.346h3.03a22.57 22.57 0 0 0 -6.585-14.482c-8.848-8.848-23.194-8.848-32.042 0a22.57 22.57 0 0 0 -6.584 14.482z" fill="#efb54f" fill-opacity=".252"/><path d="m-230.604-3146.258h3.029a19.559 19.559 0 0 1 5.691-12.346c7.669-7.668 20.102-7.668 27.77 0a19.559 19.559 0 0 1 5.691 12.346h3.03a22.57 22.57 0 0 0 -6.585-14.482c-8.848-8.848-23.194-8.848-32.042 0a22.57 22.57 0 0 0 -6.584 14.482z"/><path d="m-224.926-3146.22h3.036a13.913 13.913 0 0 1 4.012-8.379c5.456-5.456 14.302-5.456 19.759 0a13.913 13.913 0 0 1 4.012 8.378h3.035a16.924 16.924 0 0 0 -4.911-10.514c-6.636-6.636-17.395-6.636-24.032 0a16.924 16.924 0 0 0 -4.91 10.514z" fill="#d3673a" fill-opacity=".249"/><path d="m-224.926-3146.22h3.036a13.913 13.913 0 0 1 4.012-8.379c5.456-5.456 14.302-5.456 19.759 0a13.913 13.913 0 0 1 4.012 8.378h3.035a16.924 16.924 0 0 0 -4.911-10.514c-6.636-6.636-17.395-6.636-24.032 0a16.924 16.924 0 0 0 -4.91 10.514z"/><path d="m-219.223-3146.258h3.06a8.307 8.307 0 0 1 16.33 0h3.058a11.279 11.279 0 0 0 -3.213-6.471c-4.424-4.425-11.597-4.425-16.021 0a11.279 11.279 0 0 0 -3.214 6.471z" fill="#3570a0" fill-opacity=".25"/><path d="m-219.223-3146.258h3.06a8.307 8.307 0 0 1 16.33 0h3.058a11.279 11.279 0 0 0 -3.213-6.471c-4.424-4.425-11.597-4.425-16.021 0a11.279 11.279 0 0 0 -3.214 6.471z"/><path d="m-224.946-3146.258h3.036a13.914 13.914 0 0 1 4.01-8.35 13.93 13.93 0 0 1 9.958-4.093 13.98 13.98 0 0 1 5.53 1.171l1.181-2.781a17.012 17.012 0 0 0 -6.717-1.411 16.942 16.942 0 0 0 -12.089 4.977 16.925 16.925 0 0 0 -4.909 10.487z" fill="#d3673a"/><path d="m-224.946-3146.258h3.036a13.914 13.914 0 0 1 4.01-8.35 13.93 13.93 0 0 1 9.958-4.093 13.98 13.98 0 0 1 5.53 1.171l1.181-2.781a17.012 17.012 0 0 0 -6.717-1.411 16.942 16.942 0 0 0 -12.089 4.977 16.925 16.925 0 0 0 -4.909 10.487z"/><path d="m-219.179-3146.22h3.056a8.27 8.27 0 0 1 2.305-4.415 8.277 8.277 0 0 1 5.421-2.42v-3.025a11.288 11.288 0 0 0 -7.557 3.309 11.28 11.28 0 0 0 -3.225 6.55z" fill="#3570a0"/><path d="m-219.179-3146.22h3.056a8.27 8.27 0 0 1 2.305-4.415 8.277 8.277 0 0 1 5.421-2.42v-3.025a11.288 11.288 0 0 0 -7.557 3.309 11.28 11.28 0 0 0 -3.225 6.55z"/><path d="m-230.607-3146.22h3.03a19.56 19.56 0 0 1 5.693-12.384c7.669-7.668 20.102-7.668 27.77 0 .864.864 1.63 1.789 2.3 2.76l2.624-1.515a22.77 22.77 0 0 0 -2.788-3.381c-8.848-8.848-23.194-8.848-32.042 0a22.571 22.571 0 0 0 -6.587 14.52z" fill="#efb54f"/><path d="m-230.607-3146.22h3.03a19.56 19.56 0 0 1 5.693-12.384c7.669-7.668 20.102-7.668 27.77 0 .864.864 1.63 1.789 2.3 2.76l2.624-1.515a22.77 22.77 0 0 0 -2.788-3.381c-8.848-8.848-23.194-8.848-32.042 0a22.571 22.571 0 0 0 -6.587 14.52z"/></g></svg>