<svg height="48" viewBox="-232 -3168.709 48 48" width="48" xmlns="http://www.w3.org/2000/svg"><g fill="none"><path d="m-229.00004-3168.7094h42c1.65685 0 3 1.3431 3 3v42c0 1.6569-1.34315 3-3 3h-42c-1.65686 0-3-1.3431-3-3v-42c0-1.6569 1.34314-3 3-3z" fill="#fff"/><text fill="#ef9b00" transform="translate(-227.00004 -3146.2604)"><tspan fill="#ef9b00" font-family="DIN Pro" font-size="9" font-weight="bold" x="3.606" y="9">Graphical</tspan>  <tspan fill="#4288c4" font-family="DIN Pro" font-size="9" font-weight="bold" x="3.178" y="21.261">Modelling</tspan> </text><path d="m-230.60408-3146.258h3.029c.35174-4.5006 2.24884-8.9033 5.69132-12.3457 7.66846-7.6685 20.10146-7.6685 27.76992 0 3.44248 3.4424 5.33959 7.8451 5.69132 12.3457h3.02901c-.35701-5.2752-2.55174-10.4494-6.58419-14.482-8.8482-8.848-23.194-8.848-32.0422 0-4.03245 4.0326-6.22717 9.2068-6.58418 14.482z" fill="#efb54f" fill-opacity=".252"/><path d="m-230.60408-3146.258h3.029c.35174-4.5006 2.24884-8.9033 5.69132-12.3457 7.66846-7.6685 20.10146-7.6685 27.76992 0 3.44248 3.4424 5.33959 7.8451 5.69132 12.3457h3.02901c-.35701-5.2752-2.55174-10.4494-6.58419-14.482-8.8482-8.848-23.194-8.848-32.0422 0-4.03245 4.0326-6.22717 9.2068-6.58418 14.482z"/><path d="m-224.92567-3146.2208h3.03535c.32894-3.0599 1.66622-6.0322 4.01184-8.3777 5.4564-5.4565 14.30296-5.4565 19.75936 0 2.34562 2.3455 3.6829 5.3178 4.01184 8.3777h3.03535c-.33833-3.8355-1.97534-7.5782-4.91104-10.5138-6.63616-6.6362-17.3955-6.6362-24.03166 0-2.93569 2.9356-4.57271 6.6783-4.91104 10.5138z" fill="#d3673a" fill-opacity=".249"/><path d="m-224.92567-3146.2208h3.03535c.32894-3.0599 1.66622-6.0322 4.01184-8.3777 5.4564-5.4565 14.30296-5.4565 19.75936 0 2.34562 2.3455 3.6829 5.3178 4.01184 8.3777h3.03535c-.33833-3.8355-1.97534-7.5782-4.91104-10.5138-6.63616-6.6362-17.3955-6.6362-24.03166 0-2.93569 2.9356-4.57271 6.6783-4.91104 10.5138z"/><path d="m-219.22303-3146.258h3.05957c.29792-1.588 1.06134-3.1063 2.29026-4.335 3.24434-3.2445 8.50446-3.2445 11.7488 0 1.22892 1.2287 1.99234 2.747 2.29027 4.335h3.05956c-.3228-2.367-1.39403-4.6517-3.21368-6.4713-4.4241-4.4242-11.59699-4.4242-16.0211 0-1.81965 1.8196-2.89087 4.1043-3.21368 6.4713z" fill="#3570a0" fill-opacity=".25"/><path d="m-219.22303-3146.258h3.05957c.29792-1.588 1.06134-3.1063 2.29026-4.335 3.24434-3.2445 8.50446-3.2445 11.7488 0 1.22892 1.2287 1.99234 2.747 2.29027 4.335h3.05956c-.3228-2.367-1.39403-4.6517-3.21368-6.4713-4.4241-4.4242-11.59699-4.4242-16.0211 0-1.81965 1.8196-2.89087 4.1043-3.21368 6.4713z"/><path d="m-224.9456-3146.258h3.03587c.33386-3.0504 1.67017-6.012 4.00893-8.3508 2.74825-2.7482 6.35655-4.1122 9.95852-4.0922 1.88675.0107 3.77176.401 5.53053 1.1713l1.18076-2.7817c-2.13689-.9306-4.42605-1.4006-6.71681-1.4106-4.37328-.0186-8.75242 1.6404-12.08914 4.977-2.92886 2.929-4.56506 6.661-4.90866 10.487z" fill="#d3673a"/><path d="m-224.9456-3146.258h3.03587c.33386-3.0504 1.67017-6.012 4.00893-8.3508 2.74825-2.7482 6.35655-4.1122 9.95852-4.0922 1.88675.0107 3.77176.401 5.53053 1.1713l1.18076-2.7817c-2.13689-.9306-4.42605-1.4006-6.71681-1.4106-4.37328-.0186-8.75242 1.6404-12.08914 4.977-2.92886 2.929-4.56506 6.661-4.90866 10.487z"/><path d="m-219.17855-3146.2208h3.05565c.2872-1.6167 1.05542-3.1648 2.30463-4.414 1.50687-1.5069 3.44861-2.3139 5.42125-2.421v-3.0242c-2.7464.1092-5.46062 1.2123-7.5574 3.309-1.83982 1.84-2.91453 4.155-3.22413 6.5502z" fill="#3570a0"/><path d="m-219.17855-3146.2208h3.05565c.2872-1.6167 1.05542-3.1648 2.30463-4.414 1.50687-1.5069 3.44861-2.3139 5.42125-2.421v-3.0242c-2.7464.1092-5.46062 1.2123-7.5574 3.309-1.83982 1.84-2.91453 4.155-3.22413 6.5502z"/><path d="m-230.60656-3146.2208h3.02861c.34419-4.5136 2.24225-8.931 5.69419-12.3829 7.66846-7.6685 20.10146-7.6685 27.76992 0 .86397.8639 1.6306 1.7884 2.29989 2.7597l2.62395-1.515c-.80343-1.1927-1.73266-2.326-2.7877-3.381-8.8482-8.848-23.194-8.848-32.0422 0-4.0419 4.042-6.23746 9.231-6.58666 14.5192z" fill="#efb54f"/><path d="m-230.60656-3146.2208h3.02861c.34419-4.5136 2.24225-8.931 5.69419-12.3829 7.66846-7.6685 20.10146-7.6685 27.76992 0 .86397.8639 1.6306 1.7884 2.29989 2.7597l2.62395-1.515c-.80343-1.1927-1.73266-2.326-2.7877-3.381-8.8482-8.848-23.194-8.848-32.0422 0-4.0419 4.042-6.23746 9.231-6.58666 14.5192z"/></g></svg>