<svg height="24.75" viewBox="-855.358 -2973.769 24.75 24.75" width="24.75" xmlns="http://www.w3.org/2000/svg"><path d="m-845.8662-2955.7947c.0778-.0156.1555 0 .2333.0311.8243.3886 1.7263.5909 2.6594.5909 3.4371 0 6.2209-2.7838 6.2209-6.2208 0-3.4371-2.7916-6.2209-6.2287-6.2209-3.437 0-6.2208 2.7838-6.2208 6.2209 0 1.3295.4199 2.5895 1.1741 3.6392.0856.1166.0934.2643.0389.3888l-.9487 2.0762 3.0638-.5132zm-3.6625 1.3919c-.3111.0544-.5444-.2644-.42-.5442l1.1587-2.535c-.7698-1.1432-1.1898-2.4963-1.1898-3.9115 0-3.8648 3.1338-6.9985 6.9985-6.9985 3.8648 0 6.9985 3.1337 6.9985 6.9985 0 3.8647-3.1337 6.9985-6.9985 6.9985-1.0031 0-1.9829-.21-2.8771-.6144l-3.6703.6144z" fill="#c0e0ff"/></svg>