<svg height="24.75" viewBox="-747.358 -2973.769 24.75 24.75" width="24.75" xmlns="http://www.w3.org/2000/svg"><path d="m-741.9565-2961.519c1.4976-3.856 5.8295-5.7666 9.6786-4.269 1.9595.7628 3.5131 2.3094 4.2689 4.269.035.084.035.175 0 .252-1.4906 3.849-5.8295 5.7664-9.6786 4.2688-1.9595-.7628-3.5061-2.3094-4.2689-4.2688-.035-.084-.035-.175 0-.252zm4.52785 3.87c3.45015 1.3366 7.32715-.336 8.71985-3.744-.70685-1.7147-2.0855-3.0723-3.8211-3.744-3.4501-1.337-7.3201.3357-8.7198 3.744.7068 1.7145 2.0855 3.072 3.82105 3.744zm2.44935-.9448c-1.5466 0-2.7993-1.2527-2.7993-2.7992 0-1.5467 1.2527-2.7994 2.7993-2.7994 1.54666 0 2.7993 1.2527 2.7993 2.7994 0 1.5465-1.25264 2.7992-2.7993 2.7992zm0-.6998c1.16175 0 2.0995-.9378 2.0995-2.0994 0-1.1618-.93775-2.0996-2.0995-2.0996-1.1617 0-2.0994.9378-2.0994 2.0996 0 1.1616.9377 2.0994 2.0994 2.0994z" fill="#c0e0ff"/></svg>