<svg height="24.75" viewBox="-567.358 -2973.769 24.75 24.75" width="24.75" xmlns="http://www.w3.org/2000/svg"><path d="M-550.405-2958.236l-2.422-1.1a3.501 3.501 0 0 0-2.156-6.258 3.501 3.501 0 0 0-2.156 6.258l-2.422 1.1a1.785 1.785 0 0 0-.595.44 6.265 6.265 0 0 1-1.134-3.605c.007-3.472 2.828-6.293 6.307-6.293s6.3 2.821 6.3 6.3c0 1.337-.42 2.583-1.127 3.605a1.695 1.695 0 0 0-.595-.44m-7.378-3.865a2.8 2.8 0 1 1 5.6 0 2.8 2.8 0 1 1-5.6 0m2.8 7a6.3 6.3 0 0 1-4.725-2.127.994.994 0 0 1 .441-.372l2.856-1.302c.434.196.917.301 1.428.301s.994-.105 1.428-.3l2.856 1.301c.182.084.33.21.441.371a6.276 6.276 0 0 1-4.725 2.129m0-13.3c-3.864 0-7 3.135-7 7s3.136 7 7 7 7-3.137 7-7-3.136-7-7-7" fill="#c0e0ff"/></svg>