<?xml version="1.0" encoding="UTF-8" standalone="no"?>
<!DOCTYPE svg PUBLIC "-//W3C//DTD SVG 1.1//EN" "http://www.w3.org/Graphics/SVG/1.1/DTD/svg11.dtd">
<svg xmlns="http://www.w3.org/2000/svg" xmlns:dc="http://purl.org/dc/elements/1.1/" version="1.1" xmlns:xl="http://www.w3.org/1999/xlink" viewBox="-747.3578 -2973.7685 24.75 24.75" width="24.75" height="24.75">
  <defs/>
  <g id="SOURCES" fill="none" stroke="none" stroke-dasharray="none" fill-opacity="1" stroke-opacity="1">
    <title>SOURCES</title>
    <g id="SOURCES_Dark">
      <title>Dark</title>
      <g id="Group_12696">
        <g id="Graphic_11039">
          <path d="M -741.9565 -2961.519 C -740.4589 -2965.375 -736.127 -2967.2856 -732.2779 -2965.788 C -730.3184 -2965.0252 -728.7648 -2963.4786 -728.009 -2961.519 C -727.974 -2961.435 -727.974 -2961.344 -728.009 -2961.267 C -729.4996 -2957.418 -733.8385 -2955.5006 -737.6876 -2956.9982 C -739.6471 -2957.761 -741.1937 -2959.3076 -741.9565 -2961.267 C -741.9915 -2961.351 -741.9915 -2961.442 -741.9565 -2961.519 Z M -737.42865 -2957.649 C -733.9785 -2956.3124 -730.1015 -2957.985 -728.7088 -2961.393 C -729.41565 -2963.1077 -730.7943 -2964.4653 -732.5299 -2965.137 C -735.98 -2966.474 -739.85 -2964.8013 -741.2497 -2961.393 C -740.5429 -2959.6785 -739.1642 -2958.321 -737.42865 -2957.649 Z M -734.9793 -2958.5938 C -736.5259 -2958.5938 -737.7786 -2959.8465 -737.7786 -2961.393 C -737.7786 -2962.9397 -736.5259 -2964.1924 -734.9793 -2964.1924 C -733.43264 -2964.1924 -732.18 -2962.9397 -732.18 -2961.393 C -732.18 -2959.8465 -733.43264 -2958.5938 -734.9793 -2958.5938 Z M -734.9793 -2959.2936 C -733.81755 -2959.2936 -732.8798 -2960.2314 -732.8798 -2961.393 C -732.8798 -2962.5548 -733.81755 -2963.4926 -734.9793 -2963.4926 C -736.141 -2963.4926 -737.0787 -2962.5548 -737.0787 -2961.393 C -737.0787 -2960.2314 -736.141 -2959.2936 -734.9793 -2959.2936 Z" fill="#c0e0ff"/>
        </g>
        <g id="Graphic_12679"/>
      </g>
    </g>
  </g>
</svg>
