<svg height="24.75" viewBox="-603.358 -2973.769 24.75 24.75" width="24.75" xmlns="http://www.w3.org/2000/svg"><path d="M-597.983-2965.671a.78.78 0 0 1 .778-.778h.778a.78.78 0 0 1 .778.778v.777a.78.78 0 0 1-.778.778h-.778a.78.78 0 0 1-.778-.778zm4.278.777a.385.385 0 0 1-.389-.388c0-.218.171-.39.389-.39h9.333c.218 0 .39.172.39.39a.385.385 0 0 1-.39.389zm-4.278 3.112a.78.78 0 0 1 .778-.778h.778a.78.78 0 0 1 .778.778v.777a.78.78 0 0 1-.778.778h-.778a.78.78 0 0 1-.778-.778zm4.278.777a.385.385 0 0 1-.389-.388c0-.218.171-.39.389-.39h9.333c.218 0 .39.172.39.39a.385.385 0 0 1-.39.388zm-4.278 3.112a.78.78 0 0 1 .778-.778h.778a.78.78 0 0 1 .778.777v.778a.78.78 0 0 1-.778.778h-.778a.78.78 0 0 1-.778-.778zm.778-7.778v.777h.778v-.777zm0 3.889v.777h.778v-.777zm0 3.889v.777h.778v-.778zm3.5.777c-.218 0-.389-.171-.389-.389s.171-.388.389-.388h9.333c.218 0 .39.17.39.388s-.172.39-.39.39z" fill="#c0e0ff"/></svg>