<svg height="24.75" viewBox="-891.358 -2973.769 24.75 24.75" width="24.75" xmlns="http://www.w3.org/2000/svg"><path d="m-876.6494-2959.838v-3.111h-4.6667v3.111zm0 .7778h-4.6667v3.1112h4.6667zm-8.5556-.7778h3.1111v-3.111h-3.1111zm0 .7778v1.9444c0 .6456.5211 1.1668 1.1667 1.1668h1.9444v-3.1112zm12.4445-.7778v-3.111h-3.1111v3.111zm0 .7778h-3.1111v3.1112h1.9444c.6456 0 1.1667-.5212 1.1667-1.1668zm-3.8889-4.6668v-3.111h-4.6667v3.111zm-8.5556 0h3.1111v-3.111h-1.9444c-.6456 0-1.1667.521-1.1667 1.1667zm12.4445 0v-1.9443c0-.6457-.5211-1.1667-1.1667-1.1667h-1.9444v3.111zm-11.2778-3.8888h10.1111c1.0733 0 1.9444.8711 1.9444 1.9445v8.5555c0 1.0734-.8711 1.9445-1.9444 1.9445h-10.1111c-1.0733 0-1.9445-.8711-1.9445-1.9445v-8.5555c0-1.0734.8712-1.9445 1.9445-1.9445z" fill="#c0e0ff"/></svg>