<?xml version="1.0" encoding="UTF-8" standalone="no"?>
<!DOCTYPE svg PUBLIC "-//W3C//DTD SVG 1.1//EN" "http://www.w3.org/Graphics/SVG/1.1/DTD/svg11.dtd">
<svg xmlns="http://www.w3.org/2000/svg" xmlns:dc="http://purl.org/dc/elements/1.1/" version="1.1" xmlns:xl="http://www.w3.org/1999/xlink" viewBox="-603.35776 -2973.7685 24.75 24.75" width="24.75" height="24.75">
  <defs/>
  <g id="SOURCES" fill="none" stroke="none" stroke-dasharray="none" fill-opacity="1" stroke-opacity="1">
    <title>SOURCES</title>
    <g id="SOURCES_Dark">
      <title>Dark</title>
      <g id="Group_12692">
        <g id="Graphic_11030">
          <path d="M -597.98276 -2965.6713 C -597.98276 -2966.099 -597.63276 -2966.449 -597.205 -2966.449 L -596.4272 -2966.449 C -595.9994 -2966.449 -595.6494 -2966.099 -595.6494 -2965.6713 L -595.6494 -2964.8935 C -595.6494 -2964.4658 -595.9994 -2964.1158 -596.4272 -2964.1158 L -597.205 -2964.1158 C -597.63276 -2964.1158 -597.98276 -2964.4658 -597.98276 -2964.8935 Z M -593.705 -2964.8935 C -593.92276 -2964.8935 -594.0939 -2965.0647 -594.0939 -2965.2824 C -594.0939 -2965.5002 -593.92276 -2965.6713 -593.705 -2965.6713 L -584.37165 -2965.6713 C -584.1539 -2965.6713 -583.98276 -2965.5002 -583.98276 -2965.2824 C -583.98276 -2965.0647 -584.1539 -2964.8935 -584.37165 -2964.8935 Z M -597.98276 -2961.7824 C -597.98276 -2962.2102 -597.63276 -2962.5602 -597.205 -2962.5602 L -596.4272 -2962.5602 C -595.9994 -2962.5602 -595.6494 -2962.2102 -595.6494 -2961.7824 L -595.6494 -2961.0047 C -595.6494 -2960.577 -595.9994 -2960.227 -596.4272 -2960.227 L -597.205 -2960.227 C -597.63276 -2960.227 -597.98276 -2960.577 -597.98276 -2961.0047 Z M -593.705 -2961.0047 C -593.92276 -2961.0047 -594.0939 -2961.1758 -594.0939 -2961.3935 C -594.0939 -2961.6113 -593.92276 -2961.7824 -593.705 -2961.7824 L -584.37165 -2961.7824 C -584.1539 -2961.7824 -583.98276 -2961.6113 -583.98276 -2961.3935 C -583.98276 -2961.1758 -584.1539 -2961.0047 -584.37165 -2961.0047 Z M -597.98276 -2957.8935 C -597.98276 -2958.3213 -597.63276 -2958.6713 -597.205 -2958.6713 L -596.4272 -2958.6713 C -595.9994 -2958.6713 -595.6494 -2958.3213 -595.6494 -2957.8935 L -595.6494 -2957.1158 C -595.6494 -2956.688 -595.9994 -2956.338 -596.4272 -2956.338 L -597.205 -2956.338 C -597.63276 -2956.338 -597.98276 -2956.688 -597.98276 -2957.1158 Z M -597.205 -2965.6713 L -597.205 -2964.8935 L -596.4272 -2964.8935 L -596.4272 -2965.6713 Z M -597.205 -2961.7824 L -597.205 -2961.0047 L -596.4272 -2961.0047 L -596.4272 -2961.7824 Z M -597.205 -2957.8935 L -597.205 -2957.1158 L -596.4272 -2957.1158 L -596.4272 -2957.8935 Z M -593.705 -2957.1158 C -593.92276 -2957.1158 -594.0939 -2957.287 -594.0939 -2957.5047 C -594.0939 -2957.7224 -593.92276 -2957.8935 -593.705 -2957.8935 L -584.37165 -2957.8935 C -584.1539 -2957.8935 -583.98276 -2957.7224 -583.98276 -2957.5047 C -583.98276 -2957.287 -584.1539 -2957.1158 -584.37165 -2957.1158 Z" fill="#c0e0ff"/>
        </g>
        <g id="Graphic_12683"/>
      </g>
    </g>
  </g>
</svg>
