<svg height="24.75" viewBox="-855.358 -2973.769 24.75 24.75" width="24.75" xmlns="http://www.w3.org/2000/svg"><path d="M-845.866-2955.795a.407.407 0 0 1 .233.031c.824.389 1.726.591 2.66.591a6.22 6.22 0 0 0 6.22-6.22 6.226 6.226 0 0 0-6.228-6.221 6.22 6.22 0 0 0-6.221 6.22c0 1.33.42 2.59 1.174 3.64a.39.39 0 0 1 .039.389l-.949 2.076 3.064-.513zm-3.663 1.392a.39.39 0 0 1-.42-.544l1.159-2.535a6.984 6.984 0 0 1-1.19-3.911 6.999 6.999 0 1 1 6.999 6.998 6.977 6.977 0 0 1-2.877-.614l-3.67.614z" fill="#c0e0ff"/></svg>