<?xml version="1.0" encoding="UTF-8" standalone="no"?>
<!DOCTYPE svg PUBLIC "-//W3C//DTD SVG 1.1//EN" "http://www.w3.org/Graphics/SVG/1.1/DTD/svg11.dtd">
<svg xmlns="http://www.w3.org/2000/svg" xmlns:dc="http://purl.org/dc/elements/1.1/" version="1.1" xmlns:xl="http://www.w3.org/1999/xlink" viewBox="-819.3578 -2973.7685 24.75 24.75" width="24.75" height="24.75">
  <defs/>
  <g id="SOURCES" fill="none" stroke="none" stroke-dasharray="none" fill-opacity="1" stroke-opacity="1">
    <title>SOURCES</title>
    <g id="SOURCES_Dark">
      <title>Dark</title>
      <g id="Group_12698">
        <g id="Graphic_11034">
          <path d="M -813.0588 -2959.7275 C -812.3238 -2957.0605 -809.8808 -2955.0935 -806.9828 -2955.0935 C -804.6518 -2955.0935 -802.6148 -2956.3605 -801.5298 -2958.2435 L -803.8328 -2960.5465 L -805.6878 -2958.6915 C -805.8278 -2958.5515 -806.0448 -2958.5515 -806.1848 -2958.6915 L -810.1398 -2962.6465 L -813.0378 -2959.7485 C -813.0378 -2959.7485 -813.0518 -2959.7345 -813.0588 -2959.7275 Z M -813.2268 -2960.5465 L -810.3778 -2963.3955 C -810.2378 -2963.5355 -810.0208 -2963.5355 -809.8808 -2963.3955 L -805.9258 -2959.4405 L -804.0708 -2961.2955 C -803.9308 -2961.4355 -803.7138 -2961.4355 -803.5738 -2961.2955 L -801.1868 -2958.9085 C -800.8578 -2959.6715 -800.6758 -2960.5185 -800.6758 -2961.4005 C -800.6758 -2964.8795 -803.4968 -2967.7005 -806.9758 -2967.7005 C -810.4548 -2967.7005 -813.2828 -2964.8725 -813.2828 -2961.3935 C -813.2828 -2961.1065 -813.2618 -2960.8195 -813.2268 -2960.5465 Z M -806.9828 -2954.3935 C -810.8468 -2954.3935 -813.9828 -2957.5295 -813.9828 -2961.3935 C -813.9828 -2965.2575 -810.8468 -2968.3935 -806.9828 -2968.3935 C -803.1188 -2968.3935 -799.9828 -2965.2575 -799.9828 -2961.3935 C -799.9828 -2957.5295 -803.1188 -2954.3935 -806.9828 -2954.3935 Z M -804.8828 -2965.5935 L -803.4828 -2965.5935 C -803.0978 -2965.5935 -802.7828 -2965.2785 -802.7828 -2964.8935 L -802.7828 -2963.4935 C -802.7828 -2963.1085 -803.0978 -2962.7935 -803.4828 -2962.7935 L -804.8828 -2962.7935 C -805.2678 -2962.7935 -805.5828 -2963.1085 -805.5828 -2963.4935 L -805.5828 -2964.8935 C -805.5828 -2965.2785 -805.2678 -2965.5935 -804.8828 -2965.5935 Z M -804.8828 -2964.8935 L -804.8828 -2963.4935 L -803.4828 -2963.4935 L -803.4828 -2964.8935 Z" fill="#c0e0ff"/>
        </g>
        <g id="Graphic_12677"/>
      </g>
    </g>
  </g>
</svg>
