<svg height="24.75" viewBox="-819.358 -2973.769 24.75 24.75" width="24.75" xmlns="http://www.w3.org/2000/svg"><path d="M-813.059-2959.727c.735 2.666 3.178 4.633 6.076 4.633a6.287 6.287 0 0 0 5.453-3.15l-2.303-2.302-1.855 1.854a.347.347 0 0 1-.497 0l-3.955-3.954-2.898 2.898-.02.02zm-.168-.82l2.85-2.848c.14-.14.356-.14.496 0l3.955 3.954 1.855-1.855c.14-.14.357-.14.497 0l2.387 2.387a6.3 6.3 0 0 0-5.789-8.792 6.312 6.312 0 0 0-6.25 7.154zm6.244 6.154c-3.864 0-7-3.137-7-7s3.136-7 7-7 7 3.135 7 7-3.136 7-7 7zm2.1-11.2h1.4c.385 0 .7.314.7.7v1.4c0 .384-.315.7-.7.7h-1.4a.702.702 0 0 1-.7-.7v-1.4c0-.386.315-.7.7-.7zm0 .7v1.4h1.4v-1.4z" fill="#c0e0ff"/></svg>