<svg height="24.75" viewBox="-783.358 -2973.769 24.75 24.75" width="24.75" xmlns="http://www.w3.org/2000/svg"><path d="m-770.9828-2954.3935c-3.8666 0-7-3.1335-7-7 0-3.8667 3.1334-7 7-7 3.8667 0 7 3.1333 7 7 0 3.8665-3.1333 7-7 7zm0-.6667c3.5 0 6.3334-2.8333 6.3334-6.3333s-2.8334-6.3335-6.3334-6.3335-6.3333 2.8335-6.3333 6.3335 2.8333 6.3333 6.3333 6.3333zm.3334-6.3333c0 .1865-.1467.3333-.3334.3333-.1866 0-.3333-.1468-.3333-.3333v-2.6667c0-.1868.1467-.3333.3333-.3333.1867 0 .3334.1465.3334.3333zm-.6667 1.6665h.6667v.6668h-.6667z" fill="#fc6d7d"/></svg>