<?xml version="1.0" encoding="UTF-8" standalone="no"?>
<!DOCTYPE svg PUBLIC "-//W3C//DTD SVG 1.1//EN" "http://www.w3.org/Graphics/SVG/1.1/DTD/svg11.dtd">
<svg xmlns="http://www.w3.org/2000/svg" xmlns:dc="http://purl.org/dc/elements/1.1/" version="1.1" xmlns:xl="http://www.w3.org/1999/xlink" viewBox="-423.35776 -2973.7685 24.75 24.75" width="24.75" height="24.75">
  <defs/>
  <g id="SOURCES" fill="none" stroke="none" stroke-dasharray="none" fill-opacity="1" stroke-opacity="1">
    <title>SOURCES</title>
    <g id="SOURCES_Dark">
      <title>Dark</title>
      <g id="Group_12701">
        <g id="Graphic_10660">
          <path d="M -409.6049 -2960.2207 C -409.6219 -2960.1753 -409.6487 -2960.1326 -409.68527 -2960.096 C -409.72184 -2960.0595 -409.7645 -2960.0327 -409.80995 -2960.0157 L -413.30277 -2958.6186 C -413.5885 -2958.5043 -413.872 -2958.7878 -413.7577 -2959.0735 L -412.3606 -2962.5663 C -412.3436 -2962.6118 -412.3168 -2962.6545 -412.28024 -2962.691 C -412.2437 -2962.7276 -412.20103 -2962.7544 -412.15556 -2962.7714 L -408.66274 -2964.1685 C -408.37703 -2964.2828 -408.0935 -2963.9993 -408.2078 -2963.7136 L -409.6049 -2960.2207 Z M -411.40995 -2962.3157 L -410.0606 -2960.9664 L -409.16103 -2963.2153 L -411.40995 -2962.3157 Z M -410.55557 -2960.4714 L -411.9049 -2961.8207 L -412.8045 -2959.5718 L -410.55557 -2960.4714 Z M -410.98276 -2954.3935 C -414.84875 -2954.3935 -417.98276 -2957.5275 -417.98276 -2961.3935 C -417.98276 -2965.2595 -414.84875 -2968.3935 -410.98276 -2968.3935 C -407.11676 -2968.3935 -403.98276 -2965.2595 -403.98276 -2961.3935 C -403.98276 -2957.5275 -407.11676 -2954.3935 -410.98276 -2954.3935 Z M -410.98276 -2955.0935 C -407.50336 -2955.0935 -404.68276 -2957.914 -404.68276 -2961.3935 C -404.68276 -2964.873 -407.50336 -2967.6935 -410.98276 -2967.6935 C -414.46215 -2967.6935 -417.28276 -2964.873 -417.28276 -2961.3935 C -417.28276 -2957.914 -414.46215 -2955.0935 -410.98276 -2955.0935 Z" fill="#c0e0ff"/>
        </g>
        <g id="Graphic_12688"/>
      </g>
    </g>
  </g>
</svg>
