<svg height="24.75" viewBox="-675.358 -2973.769 24.75 24.75" width="24.75" xmlns="http://www.w3.org/2000/svg"><path d="m-663.68276-2956.4935h1.4v-1.4h-1.4zm-.7 0v-1.4h-3.85c-.966 0-1.75-.784-1.75-1.75v-5.6c0-.966.784-1.75 1.75-1.75h10.5c.966 0 1.75.784 1.75 1.75v5.6c0 .966-.784 1.75-1.75 1.75h-3.85v1.4h1.05c.196 0 .35.154.35.35s-.154.35-.35.35h-4.9c-.196 0-.35-.154-.35-.35s.154-.35.35-.35zm-3.85-9.8c-.581 0-1.05.469-1.05 1.05v5.6c0 .581.469 1.05 1.05 1.05h10.5c.581 0 1.05-.469 1.05-1.05v-5.6c0-.581-.469-1.05-1.05-1.05z" fill="#c0e0ff"/></svg>