<svg height="24.75" viewBox="-711.358 -2973.769 24.75 24.75" width="24.75" xmlns="http://www.w3.org/2000/svg"><path d="m-703.3295-2959.266c.091-.028.189-.014.273.035.6999.413 1.4909.637 2.3238.637 2.5129 0 4.5498-2.0368 4.5498-4.5496 0-2.5129-2.0369-4.5498-4.5498-4.5498-2.5128 0-4.5497 2.0369-4.5497 4.5498 0 .8259.224 1.6239.63694 2.3238.04896.084.06296.182.035.273l-.51094 1.7918zm7.6226-5.4036c2.19085.665 3.7238 2.6949 3.7238 5.0258 0 .9028-.231 1.7778-.658 2.5478l.644 2.254c.077.266-.168.511-.434.434l-2.2539-.644c-.76995.427-1.6449.658-2.54785.658-2.33085 0-4.36075-1.533-5.02575-3.724-.357-.105-.69995-.252-1.0219-.434l-2.2539.644c-.266.077-.511-.168-.434-.434l.644-2.2538c-.427-.7699-.658-1.6449-.658-2.5478 0-2.8979 2.3519-5.2498 5.2497-5.2498 2.3659 0 4.3748 1.568 5.0258 3.7238zm.175.805c.03496.238.04896.476.04896.721 0 2.8978-2.35186 5.2496-5.24976 5.2496-.24495 0-.4829-.014-.7209-.049.6859 1.694 2.33785 2.849 4.22075 2.849.82595 0 1.62395-.224 2.32385-.637.084-.049.182-.063.273-.035l1.7919.511-.51096-1.792c-.028-.091-.014-.189.03496-.273.413-.7.637-1.491.637-2.3238 0-1.8829-1.1549-3.5418-2.8488-4.2208z" fill="#c0e0ff"/></svg>