<?xml version="1.0" encoding="UTF-8" standalone="no"?>
<!DOCTYPE svg PUBLIC "-//W3C//DTD SVG 1.1//EN" "http://www.w3.org/Graphics/SVG/1.1/DTD/svg11.dtd">
<svg xmlns="http://www.w3.org/2000/svg" xmlns:dc="http://purl.org/dc/elements/1.1/" version="1.1" xmlns:xl="http://www.w3.org/1999/xlink" viewBox="-387.35776 -2973.7685 24.75 24.75" width="24.75" height="24.75">
  <defs/>
  <g id="SOURCES" fill="none" stroke="none" stroke-dasharray="none" fill-opacity="1" stroke-opacity="1">
    <title>SOURCES</title>
    <g id="SOURCES_Dark">
      <title>Dark</title>
      <g id="Group_12700">
        <g id="Graphic_10659">
          <path d="M -370.3161 -2964.5047 L -368.37165 -2964.5047 C -368.15687 -2964.5047 -367.98276 -2964.3305 -367.98276 -2964.1158 C -367.98276 -2963.901 -368.15687 -2963.727 -368.37165 -2963.727 L -370.3161 -2963.727 L -370.3161 -2961.7824 C -370.3161 -2961.5677 -370.4902 -2961.3935 -370.705 -2961.3935 C -370.91976 -2961.3935 -371.09387 -2961.5677 -371.09387 -2961.7824 L -371.09387 -2963.727 L -373.0383 -2963.727 C -373.2531 -2963.727 -373.4272 -2963.901 -373.4272 -2964.1158 C -373.4272 -2964.3305 -373.2531 -2964.5047 -373.0383 -2964.5047 L -371.09387 -2964.5047 L -371.09387 -2966.449 C -371.09387 -2966.664 -370.91976 -2966.838 -370.705 -2966.838 C -370.4902 -2966.838 -370.3161 -2966.664 -370.3161 -2966.449 Z M -375.37165 -2964.5047 C -375.15687 -2964.5047 -374.98276 -2964.3305 -374.98276 -2964.1158 C -374.98276 -2963.901 -375.15687 -2963.727 -375.37165 -2963.727 L -381.59387 -2963.727 C -381.80865 -2963.727 -381.98276 -2963.901 -381.98276 -2964.1158 C -381.98276 -2964.3305 -381.80865 -2964.5047 -381.59387 -2964.5047 Z M -373.0383 -2960.6158 C -372.82354 -2960.6158 -372.64942 -2960.4417 -372.64942 -2960.227 C -372.64942 -2960.012 -372.82354 -2959.838 -373.0383 -2959.838 L -381.59387 -2959.838 C -381.80865 -2959.838 -381.98276 -2960.012 -381.98276 -2960.227 C -381.98276 -2960.4417 -381.80865 -2960.6158 -381.59387 -2960.6158 Z M -368.37165 -2956.727 C -368.15687 -2956.727 -367.98276 -2956.5528 -367.98276 -2956.338 C -367.98276 -2956.1232 -368.15687 -2955.949 -368.37165 -2955.949 L -381.59387 -2955.949 C -381.80865 -2955.949 -381.98276 -2956.1232 -381.98276 -2956.338 C -381.98276 -2956.5528 -381.80865 -2956.727 -381.59387 -2956.727 Z" fill="#c0e0ff"/>
        </g>
        <g id="Graphic_12689"/>
      </g>
    </g>
  </g>
</svg>
