<?xml version="1.0" encoding="UTF-8" standalone="no"?>
<!DOCTYPE svg PUBLIC "-//W3C//DTD SVG 1.1//EN" "http://www.w3.org/Graphics/SVG/1.1/DTD/svg11.dtd">
<svg xmlns="http://www.w3.org/2000/svg" xmlns:dc="http://purl.org/dc/elements/1.1/" version="1.1" xmlns:xl="http://www.w3.org/1999/xlink" viewBox="-531.35776 -2973.7685 24.75 24.75" width="24.75" height="24.75">
  <defs/>
  <g id="SOURCES" fill="none" stroke="none" stroke-dasharray="none" fill-opacity="1" stroke-opacity="1">
    <title>SOURCES</title>
    <g id="SOURCES_Dark">
      <title>Dark</title>
      <g id="Group_12690">
        <g id="Graphic_11026">
          <path d="M -518.24387 -2957.1158 C -518.42276 -2956.229 -519.2083 -2955.5602 -520.1494 -2955.5602 C -521.09054 -2955.5602 -521.8761 -2956.229 -522.055 -2957.1158 L -525.5939 -2957.1158 C -525.81167 -2957.1158 -525.9828 -2957.287 -525.9828 -2957.5046 C -525.9828 -2957.7224 -525.81167 -2957.8935 -525.5939 -2957.8935 L -522.055 -2957.8935 C -521.8761 -2958.7802 -521.09054 -2959.449 -520.1494 -2959.449 C -519.2083 -2959.449 -518.42276 -2958.7802 -518.24387 -2957.8935 L -512.3716 -2957.8935 C -512.15385 -2957.8935 -511.98274 -2957.7224 -511.98274 -2957.5046 C -511.98274 -2957.287 -512.15385 -2957.1158 -512.3716 -2957.1158 L -518.24387 -2957.1158 Z M -513.5772 -2961.0047 C -513.7561 -2960.118 -514.54163 -2959.449 -515.48275 -2959.449 C -516.42386 -2959.449 -517.2094 -2960.118 -517.3883 -2961.0047 L -525.5939 -2961.0047 C -525.81167 -2961.0047 -525.9828 -2961.1758 -525.9828 -2961.3935 C -525.9828 -2961.6113 -525.81167 -2961.7824 -525.5939 -2961.7824 L -517.3883 -2961.7824 C -517.2094 -2962.669 -516.42386 -2963.338 -515.48275 -2963.338 C -514.54163 -2963.338 -513.7561 -2962.669 -513.5772 -2961.7824 L -512.3716 -2961.7824 C -512.15385 -2961.7824 -511.98274 -2961.6113 -511.98274 -2961.3935 C -511.98274 -2961.1758 -512.15385 -2961.0047 -512.3716 -2961.0047 Z M -520.5772 -2964.8936 C -520.7561 -2964.007 -521.54165 -2963.338 -522.48277 -2963.338 C -523.4239 -2963.338 -524.20944 -2964.007 -524.3883 -2964.8936 L -525.5939 -2964.8936 C -525.81167 -2964.8936 -525.9828 -2965.0647 -525.9828 -2965.2824 C -525.9828 -2965.5002 -525.81167 -2965.6713 -525.5939 -2965.6713 L -524.3883 -2965.6713 C -524.20944 -2966.558 -523.4239 -2967.227 -522.48277 -2967.227 C -521.54165 -2967.227 -520.7561 -2966.558 -520.5772 -2965.6713 L -512.3716 -2965.6713 C -512.15385 -2965.6713 -511.98274 -2965.5002 -511.98274 -2965.2824 C -511.98274 -2965.0647 -512.15385 -2964.8936 -512.3716 -2964.8936 Z M -522.48277 -2964.1158 C -521.8372 -2964.1158 -521.3161 -2964.637 -521.3161 -2965.2824 C -521.3161 -2965.928 -521.8372 -2966.449 -522.48277 -2966.449 C -523.1283 -2966.449 -523.64944 -2965.928 -523.64944 -2965.2824 C -523.64944 -2964.637 -523.1283 -2964.1158 -522.48277 -2964.1158 Z M -515.48275 -2960.227 C -514.8372 -2960.227 -514.3161 -2960.748 -514.3161 -2961.3935 C -514.3161 -2962.039 -514.8372 -2962.5602 -515.48275 -2962.5602 C -516.1283 -2962.5602 -516.6494 -2962.039 -516.6494 -2961.3935 C -516.6494 -2960.748 -516.1283 -2960.227 -515.48275 -2960.227 Z M -520.1494 -2956.338 C -519.5039 -2956.338 -518.98276 -2956.859 -518.98276 -2957.5046 C -518.98276 -2958.1502 -519.5039 -2958.6713 -520.1494 -2958.6713 C -520.795 -2958.6713 -521.3161 -2958.1502 -521.3161 -2957.5046 C -521.3161 -2956.859 -520.795 -2956.338 -520.1494 -2956.338 Z" fill="#c0e0ff"/>
        </g>
        <g id="Graphic_12685"/>
      </g>
    </g>
  </g>
</svg>
