<svg height="24.75" viewBox="-531.358 -2973.769 24.75 24.75" width="24.75" xmlns="http://www.w3.org/2000/svg"><path d="m-518.24387-2957.1158c-.17889.8868-.96443 1.5556-1.90553 1.5556-.94114 0-1.7267-.6688-1.9056-1.5556h-3.5389c-.21777 0-.3889-.1712-.3889-.3888 0-.2178.17113-.3889.3889-.3889h3.5389c.1789-.8867.96446-1.5555 1.9056-1.5555.9411 0 1.72664.6688 1.90553 1.5555h5.87227c.21775 0 .38886.1711.38886.3889 0 .2176-.17111.3888-.38886.3888zm4.66667-3.8889c-.1789.8867-.96443 1.5557-1.90555 1.5557-.94111 0-1.72665-.669-1.90555-1.5557h-8.2056c-.21777 0-.3889-.1711-.3889-.3888 0-.2178.17113-.3889.3889-.3889h8.2056c.1789-.8866.96444-1.5556 1.90555-1.5556.94112 0 1.72665.669 1.90555 1.5556h1.2056c.21775 0 .38886.1711.38886.3889 0 .2177-.17111.3888-.38886.3888zm-7-3.8889c-.1789.8866-.96445 1.5556-1.90557 1.5556-.94113 0-1.72667-.669-1.90553-1.5556h-1.2056c-.21777 0-.3889-.1711-.3889-.3888 0-.2178.17113-.3889.3889-.3889h1.2056c.17886-.8867.9644-1.5557 1.90553-1.5557.94112 0 1.72667.669 1.90557 1.5557h8.2056c.21775 0 .38886.1711.38886.3889 0 .2177-.17111.3888-.38886.3888zm-1.90557.7778c.64557 0 1.16667-.5212 1.16667-1.1666 0-.6456-.5211-1.1666-1.16667-1.1666-.64553 0-1.16667.521-1.16667 1.1666 0 .6454.52114 1.1666 1.16667 1.1666zm7.00002 3.8888c.64555 0 1.16665-.521 1.16665-1.1665s-.5211-1.1667-1.16665-1.1667-1.16665.5212-1.16665 1.1667.5211 1.1665 1.16665 1.1665zm-4.66665 3.889c.6455 0 1.16664-.521 1.16664-1.1666s-.52114-1.1667-1.16664-1.1667c-.6456 0-1.1667.5211-1.1667 1.1667s.5211 1.1666 1.1667 1.1666z" fill="#c0e0ff"/></svg>