<svg height="24.75" viewBox="-603.358 -2973.769 24.75 24.75" width="24.75" xmlns="http://www.w3.org/2000/svg"><path d="m-597.98276-2965.6713c0-.4277.35-.7777.77776-.7777h.7778c.4278 0 .7778.35.7778.7777v.7778c0 .4277-.35.7777-.7778.7777h-.7778c-.42776 0-.77776-.35-.77776-.7777zm4.27776.7778c-.21776 0-.3889-.1712-.3889-.3889 0-.2178.17114-.3889.3889-.3889h9.33335c.21775 0 .38889.1711.38889.3889 0 .2177-.17114.3889-.38889.3889zm-4.27776 3.1111c0-.4278.35-.7778.77776-.7778h.7778c.4278 0 .7778.35.7778.7778v.7777c0 .4277-.35.7777-.7778.7777h-.7778c-.42776 0-.77776-.35-.77776-.7777zm4.27776.7777c-.21776 0-.3889-.1711-.3889-.3888 0-.2178.17114-.3889.3889-.3889h9.33335c.21775 0 .38889.1711.38889.3889 0 .2177-.17114.3888-.38889.3888zm-4.27776 3.1112c0-.4278.35-.7778.77776-.7778h.7778c.4278 0 .7778.35.7778.7778v.7777c0 .4278-.35.7778-.7778.7778h-.7778c-.42776 0-.77776-.35-.77776-.7778zm.77776-7.7778v.7778h.7778v-.7778zm0 3.8889v.7777h.7778v-.7777zm0 3.8889v.7777h.7778v-.7777zm3.5.7777c-.21776 0-.3889-.1712-.3889-.3889s.17114-.3888.3889-.3888h9.33335c.21775 0 .38889.1711.38889.3888s-.17114.3889-.38889.3889z" fill="#c0e0ff"/></svg>