<svg height="24.75" viewBox="-387.358 -2973.769 24.75 24.75" width="24.75" xmlns="http://www.w3.org/2000/svg"><path d="m-370.3161-2964.5047h1.94445c.21478 0 .38889.1742.38889.3889 0 .2148-.17411.3888-.38889.3888h-1.94445v1.9446c0 .2147-.1741.3889-.3889.3889-.21476 0-.38887-.1742-.38887-.3889v-1.9446h-1.94443c-.2148 0-.3889-.174-.3889-.3888 0-.2147.1741-.3889.3889-.3889h1.94443v-1.9443c0-.215.17411-.389.38887-.389.2148 0 .3889.174.3889.389zm-5.05555 0c.21478 0 .38889.1742.38889.3889 0 .2148-.17411.3888-.38889.3888h-6.22222c-.21478 0-.38889-.174-.38889-.3888 0-.2147.17411-.3889.38889-.3889zm2.33335 3.8889c.21476 0 .38888.1741.38888.3888 0 .215-.17412.389-.38888.389h-8.55557c-.21478 0-.38889-.174-.38889-.389 0-.2147.17411-.3888.38889-.3888zm4.66665 3.8888c.21478 0 .38889.1742.38889.389s-.17411.389-.38889.389h-13.22222c-.21478 0-.38889-.1742-.38889-.389s.17411-.389.38889-.389z" fill="#c0e0ff"/></svg>