<svg height="24.75" viewBox="-747.358 -2973.769 24.75 24.75" width="24.75" xmlns="http://www.w3.org/2000/svg"><path d="M-741.957-2961.519c1.498-3.856 5.83-5.767 9.68-4.269a7.476 7.476 0 0 1 4.268 4.269.315.315 0 0 1 0 .252c-1.49 3.849-5.83 5.766-9.679 4.269a7.496 7.496 0 0 1-4.268-4.269.315.315 0 0 1 0-.252zm4.528 3.87c3.45 1.337 7.327-.336 8.72-3.744a6.786 6.786 0 0 0-3.82-3.744 6.776 6.776 0 0 0-8.72 3.744 6.788 6.788 0 0 0 3.82 3.744zm2.45-.945a2.799 2.799 0 1 1 0-5.598 2.799 2.799 0 1 1 0 5.598zm0-.7c1.161 0 2.1-.937 2.1-2.099 0-1.162-.939-2.1-2.1-2.1-1.162 0-2.1.938-2.1 2.1 0 1.162.938 2.1 2.1 2.1z" fill="#c0e0ff"/></svg>