<svg height="24.75" viewBox="-531.358 -2973.769 24.75 24.75" width="24.75" xmlns="http://www.w3.org/2000/svg"><path d="M-518.244-2957.116a1.945 1.945 0 0 1-3.811 0h-3.539a.385.385 0 0 1-.389-.389c0-.217.171-.389.39-.389h3.538a1.945 1.945 0 0 1 3.811 0h5.872c.218 0 .39.172.39.39a.385.385 0 0 1-.39.388zm4.667-3.889a1.945 1.945 0 0 1-3.811 0h-8.206a.385.385 0 0 1-.389-.388c0-.218.171-.39.39-.39h8.205a1.945 1.945 0 0 1 3.81 0h1.206c.218 0 .39.172.39.39a.385.385 0 0 1-.39.388zm-7-3.889a1.945 1.945 0 0 1-3.811 0h-1.206a.385.385 0 0 1-.389-.388c0-.218.171-.39.39-.39h1.205a1.945 1.945 0 0 1 3.81 0h8.206c.218 0 .39.172.39.39a.385.385 0 0 1-.39.388zm-1.906.778c.646 0 1.167-.521 1.167-1.166 0-.646-.521-1.167-1.167-1.167-.645 0-1.166.521-1.166 1.167 0 .645.52 1.166 1.166 1.166zm7 3.889c.646 0 1.167-.521 1.167-1.167s-.521-1.166-1.167-1.166-1.166.521-1.166 1.167.52 1.166 1.166 1.166zm-4.666 3.889c.645 0 1.166-.521 1.166-1.167s-.52-1.166-1.166-1.166c-.646 0-1.167.52-1.167 1.166s.521 1.167 1.167 1.167z" fill="#c0e0ff"/></svg>