<svg height="24.75" viewBox="-423.358 -2973.769 24.75 24.75" width="24.75" xmlns="http://www.w3.org/2000/svg"><path d="m-409.6049-2960.2207c-.017.0454-.0438.0881-.08037.1247-.03657.0365-.07923.0633-.12468.0803l-3.49282 1.3971c-.28573.1143-.56923-.1692-.45493-.4549l1.3971-3.4928c.017-.0455.0438-.0882.08036-.1247.03654-.0366.07921-.0634.12468-.0804l3.49282-1.3971c.28571-.1143.56924.1692.45494.4549zm-1.80505-2.095 1.34935 1.3493.89957-2.2489zm.85438 1.8443-1.34933-1.3493-.8996 2.2489zm-.42719 6.0779c-3.86599 0-7-3.134-7-7s3.13401-7 7-7c3.866 0 7 3.134 7 7s-3.134 7-7 7zm0-.7c3.4794 0 6.3-2.8205 6.3-6.3s-2.8206-6.3-6.3-6.3c-3.47939 0-6.3 2.8205-6.3 6.3s2.82061 6.3 6.3 6.3z" fill="#c0e0ff"/></svg>