<svg height="20.75" viewBox="-515.24 -3503.525 20.75 20.75" width="20.75" xmlns="http://www.w3.org/2000/svg"><g fill="none"><path d="m-514.865-3503.1504h20v20h-20z"/><g fill="#ccc"><path d="m-498.3547-3493.616v-.8c0-.6627-.53725-1.2-1.2-1.2h-4.4c-.88365 0-1.6-.7163-1.6-1.6 0-.442-.35817-.8-.8-.8h-5.2c-.66274 0-1.2.5373-1.2 1.2v8.8c0 .6627.53726 1.2 1.2 1.2h.8c.66275 0 1.2-.5373 1.2-1.2v-4c0-1.1046.89544-2 2-2h8c.45025 0 .86574.1488 1.2.4zm0 1.6c0-.6627-.53725-1.2-1.2-1.2h-8c-.66274 0-1.2.5373-1.2 1.2v4c0 .4503-.1488.8657-.39985 1.2h9.59985c.66275 0 1.2-.5373 1.2-1.2zm-13.2-6.8h5.2c.88366 0 1.6.7164 1.6 1.6 0 .442.3582.8.8.8h4.4c1.1046 0 2 .8954 2 2v6.4c0 1.1046-.8954 2-2 2h-12c-1.10456 0-2-.8954-2-2v-8.8c0-1.1046.89544-2 2-2z"/><path d="m-503.5691-3485.6905c.0734.0858.1824.1401.3041.1401.12173 0 .23075-.0543.3041-.1401zm-7.2959 0v.5401c0 1.1044.89545 2 2 2h12c1.1046 0 2-.8956 2-2v-6.4c0-1.1046-.8954-2-2-2h-.31834v.8h.31834c.66276 0 1.2.5374 1.2 1.2v6.4c0 .6628-.53724 1.2-1.2 1.2h-12c-.6627 0-1.2-.5372-1.2-1.2v-.5401z"/></g></g></svg>