<svg height="20.75" viewBox="-515.24 -3503.525 20.75 20.75" width="20.75" xmlns="http://www.w3.org/2000/svg"><g fill="none"><path d="M-514.865-3503.15h20v20h-20z"/><g fill="#ccc"><path d="M-498.355-3493.616v-.8a1.2 1.2 0 0 0-1.2-1.2h-4.4a1.6 1.6 0 0 1-1.6-1.6.8.8 0 0 0-.8-.8h-5.2a1.2 1.2 0 0 0-1.2 1.2v8.8a1.2 1.2 0 0 0 1.2 1.2h.8a1.2 1.2 0 0 0 1.2-1.2v-4a2 2 0 0 1 2-2h8c.45 0 .866.149 1.2.4zm0 1.6a1.2 1.2 0 0 0-1.2-1.2h-8a1.2 1.2 0 0 0-1.2 1.2v4c0 .45-.148.866-.4 1.2h9.6a1.2 1.2 0 0 0 1.2-1.2zm-13.2-6.8h5.2a1.6 1.6 0 0 1 1.6 1.6.8.8 0 0 0 .8.8h4.4a2 2 0 0 1 2 2v6.4a2 2 0 0 1-2 2h-12a2 2 0 0 1-2-2v-8.8a2 2 0 0 1 2-2z"/><path d="M-503.57-3485.69a.4.4 0 0 0 .61 0zm-7.295 0v.54a2 2 0 0 0 2 2h12a2 2 0 0 0 2-2v-6.4a2 2 0 0 0-2-2h-.318v.8h.318a1.2 1.2 0 0 1 1.2 1.2v6.4a1.2 1.2 0 0 1-1.2 1.2h-12a1.2 1.2 0 0 1-1.2-1.2v-.54z"/></g></g></svg>