<?xml version="1.0" encoding="UTF-8" standalone="no"?>
<!DOCTYPE svg PUBLIC "-//W3C//DTD SVG 1.1//EN" "http://www.w3.org/Graphics/SVG/1.1/DTD/svg11.dtd">
<svg xmlns="http://www.w3.org/2000/svg" version="1.1" xmlns:xl="http://www.w3.org/1999/xlink" xmlns:dc="http://purl.org/dc/elements/1.1/" viewBox="-515.24 -3503.5254 20.75 20.75" width="20.75" height="20.75">
  <defs/>
  <g id="SOURCES" stroke-opacity="1" stroke-dasharray="none" fill="none" fill-opacity="1" stroke="none">
    <title>SOURCES</title>
    <g id="SOURCES_Light">
      <title>Light</title>
      <g id="Graphic_10537">
        <rect x="-514.865" y="-3503.1504" width="20" height="20" stroke="gray" stroke-opacity="0" stroke-linecap="round" stroke-linejoin="round" stroke-width="0"/>
      </g>
      <g id="Graphic_10534">
        <path d="M -498.3547 -3493.616 L -498.3547 -3494.416 C -498.3547 -3495.0787 -498.89195 -3495.616 -499.5547 -3495.616 L -503.9547 -3495.616 C -504.83835 -3495.616 -505.5547 -3496.3323 -505.5547 -3497.216 C -505.5547 -3497.658 -505.91287 -3498.016 -506.3547 -3498.016 L -511.5547 -3498.016 C -512.21744 -3498.016 -512.7547 -3497.4787 -512.7547 -3496.816 L -512.7547 -3488.016 C -512.7547 -3487.3533 -512.21744 -3486.816 -511.5547 -3486.816 L -510.7547 -3486.816 C -510.09195 -3486.816 -509.5547 -3487.3533 -509.5547 -3488.016 L -509.5547 -3492.016 C -509.5547 -3493.1206 -508.65926 -3494.016 -507.5547 -3494.016 L -499.5547 -3494.016 C -499.10445 -3494.016 -498.68896 -3493.8672 -498.3547 -3493.616 Z M -498.3547 -3492.016 C -498.3547 -3492.6787 -498.89195 -3493.216 -499.5547 -3493.216 L -507.5547 -3493.216 C -508.21744 -3493.216 -508.7547 -3492.6787 -508.7547 -3492.016 L -508.7547 -3488.016 C -508.7547 -3487.5657 -508.9035 -3487.1503 -509.15455 -3486.816 L -499.5547 -3486.816 C -498.89195 -3486.816 -498.3547 -3487.3533 -498.3547 -3488.016 L -498.3547 -3492.016 Z M -511.5547 -3498.816 L -506.3547 -3498.816 C -505.47104 -3498.816 -504.7547 -3498.0996 -504.7547 -3497.216 C -504.7547 -3496.774 -504.3965 -3496.416 -503.9547 -3496.416 L -499.5547 -3496.416 C -498.4501 -3496.416 -497.5547 -3495.5206 -497.5547 -3494.416 L -497.5547 -3488.016 C -497.5547 -3486.9114 -498.4501 -3486.016 -499.5547 -3486.016 L -511.5547 -3486.016 C -512.65926 -3486.016 -513.5547 -3486.9114 -513.5547 -3488.016 L -513.5547 -3496.816 C -513.5547 -3497.9206 -512.65926 -3498.816 -511.5547 -3498.816 Z" fill="#ccc"/>
      </g>
      <g id="Graphic_10533">
        <path d="M -503.5691 -3485.6905 C -503.4957 -3485.6047 -503.3867 -3485.5504 -503.265 -3485.5504 C -503.14327 -3485.5504 -503.03425 -3485.6047 -502.9609 -3485.6905 Z M -510.865 -3485.6905 L -510.865 -3485.1504 C -510.865 -3484.046 -509.96955 -3483.1504 -508.865 -3483.1504 L -496.865 -3483.1504 C -495.7604 -3483.1504 -494.865 -3484.046 -494.865 -3485.1504 L -494.865 -3491.5504 C -494.865 -3492.655 -495.7604 -3493.5504 -496.865 -3493.5504 L -497.18334 -3493.5504 L -497.18334 -3492.7504 L -496.865 -3492.7504 C -496.20224 -3492.7504 -495.665 -3492.213 -495.665 -3491.5504 L -495.665 -3485.1504 C -495.665 -3484.4876 -496.20224 -3483.9504 -496.865 -3483.9504 L -508.865 -3483.9504 C -509.5277 -3483.9504 -510.065 -3484.4876 -510.065 -3485.1504 L -510.065 -3485.6905 Z" fill="#ccc"/>
      </g>
    </g>
  </g>
</svg>
