<svg viewBox="-746.872 -3501.737 16.75 16.751" xmlns="http://www.w3.org/2000/svg"><g fill="none"><path d="m-746.497-3501.361h16v16h-16z"/><path d="m-742.657-3500.481 4.96-.16 3.36-.16 3.2 3.2-.16 11.68h-11.36z" fill="#fff"/><path d="m-730.498-3497.739v10.378a2 2 0 0 1 -2 2h-8.8a2 2 0 0 1 -2-2v-12a2 2 0 0 1 2-2h7.178a.392.392 0 0 1 .305.117l3.2 3.2a.392.392 0 0 1 .117.305zm-4-2.822h-6.8a1.2 1.2 0 0 0 -1.2 1.2v12a1.2 1.2 0 0 0 1.2 1.2h8.8a1.2 1.2 0 0 0 1.2-1.2v-10h-2.8a.4.4 0 0 1 -.4-.4zm.8.566v1.834h1.835z" fill="#999"/><path d="m-734.49-3491.266v-1.09h-2.6v.92h1.52v.4c0 .46-.09.82-.35 1.12-.28.33-.7.51-1.17.51-.43 0-.79-.16-1.06-.44-.35-.38-.42-.81-.42-2.22s.07-1.84.42-2.22c.27-.28.63-.44 1.06-.44.8 0 1.32.46 1.5 1.24h1.08c-.19-1.21-1.08-2.2-2.58-2.2-.78 0-1.38.26-1.84.72-.69.7-.72 1.41-.72 2.9s.03 2.2.72 2.9c.46.46 1.06.72 1.84.72.75 0 1.43-.25 1.96-.81.47-.51.64-1.08.64-2.01z" fill="#5c76a1"/></g></svg>