<svg viewBox="-774.872 -3501.799 16.75 16.875" xmlns="http://www.w3.org/2000/svg"><g fill="none"><path d="m-774.497-3501.424h16v16h-16z"/><path d="m-770.657-3500.42 4.96-.16 3.36-.16 3.2 3.2-.16 11.68h-11.36z" fill="#fff"/><path d="m-758.498-3497.677v10.378a2 2 0 0 1 -2 2h-8.8a2 2 0 0 1 -2-2v-12a2 2 0 0 1 2-2h7.178a.39.39 0 0 1 .305.117l3.2 3.2a.391.391 0 0 1 .117.305zm-4-2.822h-6.8a1.2 1.2 0 0 0 -1.2 1.2v12a1.2 1.2 0 0 0 1.2 1.2h8.8a1.2 1.2 0 0 0 1.2-1.2v-10h-2.8a.4.4 0 0 1 -.4-.4zm.8.565v1.835h1.835zm.8 10.226a2 2 0 0 1 -2 2.008h-4a2 2 0 0 1 -2-2v-4a2 2 0 0 1 2-2h4a2 2 0 0 1 2 2zm-.8-.639v-3.353a1.2 1.2 0 0 0 -1.2-1.2h-4a1.2 1.2 0 0 0 -1.2 1.2v2.234l.917-.917a.4.4 0 0 1 .566 0l2.196 2.196 1.342-.67a.4.4 0 0 1 .358 0zm-.023.883-1.177-.589-1.42.711a.4.4 0 0 1 -.463-.075l-2.117-2.117-1.2 1.2v.634a1.2 1.2 0 0 0 1.2 1.2h4a1.2 1.2 0 0 0 1.177-.964zm-2.377-3.836v.8h.8v-.8zm0-.8h.8a.8.8 0 0 1 .8.8v.8a.8.8 0 0 1 -.8.8h-.8a.8.8 0 0 1 -.8-.8v-.8a.8.8 0 0 1 .8-.8z" fill="#999"/></g></svg>