<svg height="16.751" viewBox="-858.872 -3501.737 16.75 16.751" width="16.75" xmlns="http://www.w3.org/2000/svg"><g fill="none"><path d="M-858.497-3501.361h16v16h-16z"/><path d="M-854.657-3500.794l4.96-.16 3.36-.16 3.2 3.2-.16 11.68h-11.36z" fill="#fff"/><path d="M-842.498-3497.739v10.378a2 2 0 0 1-2 2h-8.8a2 2 0 0 1-2-2v-12a2 2 0 0 1 2-2h7.178a.392.392 0 0 1 .305.117l3.2 3.2a.391.391 0 0 1 .117.305zm-4-2.822h-6.8a1.2 1.2 0 0 0-1.2 1.2v12a1.2 1.2 0 0 0 1.2 1.2h8.8a1.2 1.2 0 0 0 1.2-1.2v-10h-2.8a.4.4 0 0 1-.4-.4zm.8.566v1.834h1.834zm-6.4 9.033h1.6v-.8h-1.6zm0 .8v.4c0 .221.18.4.4.4h1.2v-.8zm6.411-.8v-.8h-4.01v.8zm0 .8h-4.01v.8h3.61a.4.4 0 0 0 .4-.4zm-6.41-2.4h1.6v-.8h-1.2a.4.4 0 0 0-.4.4zm6.41 0v-.4a.4.4 0 0 0-.4-.4h-3.61v.8zm-7.21-.4a1.2 1.2 0 0 1 1.2-1.2h5.61a1.2 1.2 0 0 1 1.2 1.2v3.2a1.2 1.2 0 0 1-1.2 1.2h-5.61a1.2 1.2 0 0 1-1.2-1.2z" fill="#999"/></g></svg>