<?xml version="1.0" encoding="UTF-8" standalone="no"?>
<!DOCTYPE svg PUBLIC "-//W3C//DTD SVG 1.1//EN" "http://www.w3.org/Graphics/SVG/1.1/DTD/svg11.dtd">
<svg xmlns="http://www.w3.org/2000/svg" version="1.1" xmlns:xl="http://www.w3.org/1999/xlink" xmlns:dc="http://purl.org/dc/elements/1.1/" viewBox="-886.872 -3501.7364 16.75 16.75" width="16.75" height="16.75">
  <defs/>
  <g id="SOURCES" stroke-opacity="1" stroke-dasharray="none" fill="none" fill-opacity="1" stroke="none">
    <title>SOURCES</title>
    <g id="SOURCES_Light">
      <title>Light</title>
      <g id="Group_8805">
        <g id="Graphic_8723">
          <path d="M -883.137 -3496.706 L -880.897 -3498.466 L -878.177 -3498.466 L -875.777 -3496.226 L -872.897 -3495.426 L -871.777 -3492.386 L -874.657 -3489.826 L -883.457 -3489.826 L -885.217 -3491.586 L -885.217 -3493.666 L -883.137 -3494.466 Z" fill="white"/>
        </g>
        <g id="Graphic_6546">
          <path d="M -879.5465 -3487.7225 L -879.5465 -3493.957 C -879.5465 -3494.1778 -879.3674 -3494.357 -879.1465 -3494.357 C -878.9256 -3494.357 -878.7465 -3494.1778 -878.7465 -3493.957 L -878.7465 -3487.7225 L -877.0293 -3489.4397 C -876.8731 -3489.596 -876.6198 -3489.596 -876.4636 -3489.4397 C -876.3074 -3489.2835 -876.3074 -3489.0302 -876.4636 -3488.874 L -878.8636 -3486.474 C -879.0198 -3486.318 -879.2731 -3486.318 -879.4293 -3486.474 L -881.8293 -3488.874 C -881.9855 -3489.0302 -881.9855 -3489.2835 -881.8293 -3489.4397 C -881.6731 -3489.596 -881.4198 -3489.596 -881.2636 -3489.4397 Z M -875.7513 -3496.757 L -875.1465 -3496.757 C -873.1582 -3496.757 -871.5465 -3495.145 -871.5465 -3493.157 C -871.5465 -3491.1686 -873.1582 -3489.557 -875.1465 -3489.557 C -875.3674 -3489.557 -875.5465 -3489.736 -875.5465 -3489.957 C -875.5465 -3490.1778 -875.3674 -3490.357 -875.1465 -3490.357 C -873.6001 -3490.357 -872.3465 -3491.6105 -872.3465 -3493.157 C -872.3465 -3494.7033 -873.6001 -3495.957 -875.1465 -3495.957 L -875.5684 -3495.957 C -875.5539 -3495.8255 -875.5465 -3495.692 -875.5465 -3495.557 C -875.5465 -3495.336 -875.7256 -3495.157 -875.9465 -3495.157 C -876.1674 -3495.157 -876.3465 -3495.336 -876.3465 -3495.557 C -876.3465 -3497.1033 -877.6001 -3498.357 -879.1465 -3498.357 L -879.5465 -3498.357 C -881.3138 -3498.357 -882.7465 -3496.924 -882.7465 -3495.157 L -882.7465 -3494.757 C -882.7465 -3494.536 -882.9256 -3494.357 -883.1465 -3494.357 C -884.251 -3494.357 -885.1465 -3493.4614 -885.1465 -3492.357 C -885.1465 -3491.2523 -884.251 -3490.357 -883.1465 -3490.357 C -882.9256 -3490.357 -882.7465 -3490.1778 -882.7465 -3489.957 C -882.7465 -3489.736 -882.9256 -3489.557 -883.1465 -3489.557 C -884.6929 -3489.557 -885.9465 -3490.8105 -885.9465 -3492.357 C -885.9465 -3493.7674 -884.9034 -3494.9344 -883.5465 -3495.1285 C -883.5465 -3497.366 -881.7556 -3499.157 -879.5465 -3499.157 L -879.1465 -3499.157 C -877.579 -3499.157 -876.2455 -3498.155 -875.7513 -3496.757 Z" fill="#999"/>
        </g>
        <g id="Graphic_6545">
          <rect x="-886.497" y="-3501.3614" width="16" height="16" stroke="gray" stroke-opacity="0" stroke-linecap="round" stroke-linejoin="round" stroke-width="0"/>
        </g>
      </g>
    </g>
  </g>
</svg>
