<svg height="16.751" viewBox="-690.872 -3501.737 16.75 16.751" width="16.75" xmlns="http://www.w3.org/2000/svg"><g fill="none"><path d="m-690.4969-3501.361h15.999997v15.999997h-15.999997z"/><path d="m-686.6573-3500.5942 4.96-.16 3.36-.16 3.2 3.2-.16 11.68h-11.36z" fill="#fff"/><path d="m-674.4977-3497.7386v10.3776c0 1.1046-.8955 2-2 2h-8.8c-1.1046 0-2-.8954-2-2v-12c0-1.1046.8954-2 2-2h7.1776c.1062-.0067.2167.0287.3052.117l3.2 3.2c.0885.0886.1239.199.1172.3054zm-4-2.8224h-6.8c-.6628 0-1.2.5373-1.2 1.2v12c0 .6627.5372 1.2 1.2 1.2h8.8c.6627 0 1.2-.5373 1.2-1.2v-10h-2.8c-.22095 0-.4-.179-.4-.4zm.8.5657v1.8343h1.8343zm-1.6 11.4333h-3.2c0 .442-.3582.8-.8.8h-.8c-.4419 0-.8-.358-.8-.8v-.8c0-.4416.3581-.8.8-.8v-3.2c-.4419 0-.8-.358-.8-.8v-.8c0-.4416.3581-.8.8-.8h.8c.4418 0 .8.3584.8.8h3.2c0-.4416.3581-.8.8-.8h.8c.4418 0 .8.3584.8.8v.8c0 .442-.3582.8-.8.8v3.2c.4418 0 .8.3584.8.8v.8c0 .442-.3582.8-.8.8h-.8c-.4419 0-.8-.358-.8-.8zm0-.8c0-.4416.3581-.8.8-.8v-3.2c-.4419 0-.8-.358-.8-.8h-3.2c0 .442-.3582.8-.8.8v3.2c.4418 0 .8.3584.8.8zm1.0749 0h-.2749v.8h.8v-.8h-.27494c-.03936.013-.08141.02-.12506.02-.0437 0-.0858-.007-.1251-.02zm-5.6 0h-.2749v.8h.8v-.8h-.2749c-.0394.013-.08145.02-.1251.02-.0437 0-.0858-.007-.1251-.02zm-.2749-5.6v.8h.8v-.8zm5.6 0v.8h.8v-.8z" fill="#999"/></g></svg>