<svg height="16.751" viewBox="-662.872 -3501.737 16.75 16.751" width="16.75" xmlns="http://www.w3.org/2000/svg"><g fill="none"><path d="M-662.497-3501.361h16v16h-16z"/><path d="M-658.657-3500.481l4.96-.16 3.36-.16 3.2 3.2-.16 11.68h-11.36z" fill="#fff"/><path d="M-646.498-3497.739v10.378a2 2 0 0 1-2 2h-8.8a2 2 0 0 1-2-2v-12a2 2 0 0 1 2-2h7.178a.392.392 0 0 1 .305.117l3.2 3.2a.392.392 0 0 1 .117.305zm-4-2.822h-6.8a1.2 1.2 0 0 0-1.2 1.2v12a1.2 1.2 0 0 0 1.2 1.2h8.8a1.2 1.2 0 0 0 1.2-1.2v-10h-2.8a.4.4 0 0 1-.4-.4zm.8.566v1.834h1.835z" fill="#999"/><path d="M-651.017-3491.838h-1.613a.275.275 0 0 0-.276.275v1.338a.275.275 0 0 1-.275.275h-.079a.275.275 0 0 1-.275-.275v-1.338a.275.275 0 0 0-.275-.275h-1.338a.276.276 0 0 1-.275-.276v-.078c0-.152.123-.276.275-.276h1.338a.275.275 0 0 0 .275-.275v-1.337c0-.152.123-.276.275-.276h.08c.151 0 .274.124.274.276v1.337c0 .152.124.275.276.275h1.337c.152 0 .276.124.276.276z" fill="#999"/><path d="M-651.017-3491.838h-1.613a.275.275 0 0 0-.276.275v1.338a.275.275 0 0 1-.275.275h-.079a.275.275 0 0 1-.275-.275v-1.338a.275.275 0 0 0-.275-.275h-1.338a.276.276 0 0 1-.275-.276v-.078c0-.152.123-.276.275-.276h1.338a.275.275 0 0 0 .275-.275v-1.337c0-.152.123-.276.275-.276h.08c.151 0 .274.124.274.276v1.337c0 .152.124.275.276.275h1.337c.152 0 .276.124.276.276z" stroke="#999" stroke-linecap="round" stroke-linejoin="round" stroke-width=".5"/></g></svg>