<svg height="16.751" viewBox="-802.872 -3501.737 16.75 16.751" width="16.75" xmlns="http://www.w3.org/2000/svg"><g fill="none"><path d="m-802.497-3501.361h15.999997v15.999997h-15.999997z"/><path d="m-798.6574-3500.4814 4.96-.16 3.36-.16 3.2 3.2-.16 11.68h-11.36z" fill="#fff"/><path d="m-786.4978-3497.7386v10.3776c0 1.1046-.8954 2-2 2h-8.8c-1.1045 0-2-.8954-2-2v-12c0-1.1046.8955-2 2-2h7.1776c.1062-.0067.2168.0287.3053.117l3.2 3.2c.08845.0886.1239.199.1171.3054zm-4-2.8224h-6.8c-.6627 0-1.2.5373-1.2 1.2v12c0 .6627.5373 1.2 1.2 1.2h8.8c.6628 0 1.2-.5373 1.2-1.2v-10h-2.8c-.2209 0-.4-.179-.4-.4zm.8.5657v1.8343h1.8343z" fill="#999"/><g fill="#518737"><path d="m-796.8554-3492.0187v-.6945l3.4253-1.4428v.917l-2.0633.883 2.0633.8565v.9238z"/><path d="m-792.3647-3490.5757v-.9238l2.0633-.8565-2.0633-.883v-.917l3.4254 1.4428v.6945z"/></g></g></svg>