<svg height="16.75" viewBox="-886.872 -3501.736 16.75 16.75" width="16.75" xmlns="http://www.w3.org/2000/svg"><g fill="none"><path d="m-883.137-3496.706 2.24-1.76h2.72l2.4 2.24 2.88.8 1.12 3.04-2.88 2.56h-8.8l-1.76-1.76v-2.08l2.08-.8z" fill="#fff"/><path d="m-879.5465-3487.7225v-6.2345c0-.2208.1791-.4.4-.4s.4.1792.4.4v6.2345l1.7172-1.7172c.1562-.1563.4095-.1563.5657 0 .1562.1562.1562.4095 0 .5657l-2.4 2.4c-.1562.156-.4095.156-.5657 0l-2.4-2.4c-.1562-.1562-.1562-.4095 0-.5657.1562-.1563.4095-.1563.5657 0zm3.7952-9.0345h.6048c1.9883 0 3.6 1.612 3.6 3.6 0 1.9884-1.6117 3.6-3.6 3.6-.2209 0-.4-.179-.4-.4 0-.2208.1791-.4.4-.4 1.5464 0 2.8-1.2535 2.8-2.8 0-1.5463-1.2536-2.8-2.8-2.8h-.4219c.0145.1315.0219.265.0219.4 0 .221-.1791.4-.4.4s-.4-.179-.4-.4c0-1.5463-1.2536-2.8-2.8-2.8h-.4c-1.7673 0-3.2 1.433-3.2 3.2v.4c0 .221-.1791.4-.4.4-1.1045 0-2 .8956-2 2 0 1.1047.8955 2 2 2 .2209 0 .4.1792.4.4 0 .221-.1791.4-.4.4-1.5464 0-2.8-1.2535-2.8-2.8 0-1.4104 1.0431-2.5774 2.4-2.7715 0-2.2375 1.7909-4.0285 4-4.0285h.4c1.5675 0 2.901 1.002 3.3952 2.4z" fill="#999"/><path d="m-886.497-3501.3614h16v16h-16z"/></g></svg>