<?xml version="1.0" encoding="UTF-8" standalone="no"?>
<!DOCTYPE svg PUBLIC "-//W3C//DTD SVG 1.1//EN" "http://www.w3.org/Graphics/SVG/1.1/DTD/svg11.dtd">
<svg xmlns="http://www.w3.org/2000/svg" version="1.1" xmlns:xl="http://www.w3.org/1999/xlink" xmlns:dc="http://purl.org/dc/elements/1.1/" viewBox="-690.8719 -3501.737 16.749997 16.7508" width="16.749997" height="16.7508">
  <defs/>
  <g id="SOURCES" stroke-opacity="1" stroke-dasharray="none" fill="none" fill-opacity="1" stroke="none">
    <title>SOURCES</title>
    <g id="SOURCES_Light">
      <title>Light</title>
      <g id="Graphic_8717">
        <rect x="-690.4969" y="-3501.361" width="15.999997" height="15.999997" stroke="gray" stroke-opacity="0" stroke-linecap="round" stroke-linejoin="round" stroke-width="0"/>
      </g>
      <g id="Graphic_6556">
        <path d="M -686.6573 -3500.5942 L -681.6973 -3500.7542 L -678.3373 -3500.9142 L -675.1373 -3497.7142 L -675.2973 -3486.0342 L -686.6573 -3486.0342 Z" fill="white"/>
      </g>
      <g id="Graphic_6555">
        <path d="M -674.4977 -3497.7386 L -674.4977 -3487.361 C -674.4977 -3486.2564 -675.3932 -3485.361 -676.4977 -3485.361 L -685.2977 -3485.361 C -686.4023 -3485.361 -687.2977 -3486.2564 -687.2977 -3487.361 L -687.2977 -3499.361 C -687.2977 -3500.4656 -686.4023 -3501.361 -685.2977 -3501.361 L -678.1201 -3501.361 C -678.0139 -3501.3677 -677.9034 -3501.3323 -677.8149 -3501.244 L -674.6149 -3498.044 C -674.5264 -3497.9554 -674.491 -3497.845 -674.4977 -3497.7386 Z M -678.4977 -3500.561 L -685.2977 -3500.561 C -685.9605 -3500.561 -686.4977 -3500.0237 -686.4977 -3499.361 L -686.4977 -3487.361 C -686.4977 -3486.6983 -685.9605 -3486.161 -685.2977 -3486.161 L -676.4977 -3486.161 C -675.835 -3486.161 -675.2977 -3486.6983 -675.2977 -3487.361 L -675.2977 -3497.361 L -678.0977 -3497.361 C -678.31865 -3497.361 -678.4977 -3497.54 -678.4977 -3497.761 Z M -677.6977 -3499.9953 L -677.6977 -3498.161 L -675.8634 -3498.161 Z M -679.2977 -3488.562 L -682.4977 -3488.562 C -682.4977 -3488.12 -682.8559 -3487.762 -683.2977 -3487.762 L -684.0977 -3487.762 C -684.5396 -3487.762 -684.8977 -3488.12 -684.8977 -3488.562 L -684.8977 -3489.362 C -684.8977 -3489.8036 -684.5396 -3490.162 -684.0977 -3490.162 L -684.0977 -3493.362 C -684.5396 -3493.362 -684.8977 -3493.72 -684.8977 -3494.162 L -684.8977 -3494.962 C -684.8977 -3495.4036 -684.5396 -3495.762 -684.0977 -3495.762 L -683.2977 -3495.762 C -682.8559 -3495.762 -682.4977 -3495.4036 -682.4977 -3494.962 L -679.2977 -3494.962 C -679.2977 -3495.4036 -678.9396 -3495.762 -678.4977 -3495.762 L -677.6977 -3495.762 C -677.2559 -3495.762 -676.8977 -3495.4036 -676.8977 -3494.962 L -676.8977 -3494.162 C -676.8977 -3493.72 -677.2559 -3493.362 -677.6977 -3493.362 L -677.6977 -3490.162 C -677.2559 -3490.162 -676.8977 -3489.8036 -676.8977 -3489.362 L -676.8977 -3488.562 C -676.8977 -3488.12 -677.2559 -3487.762 -677.6977 -3487.762 L -678.4977 -3487.762 C -678.9396 -3487.762 -679.2977 -3488.12 -679.2977 -3488.562 Z M -679.2977 -3489.362 C -679.2977 -3489.8036 -678.9396 -3490.162 -678.4977 -3490.162 L -678.4977 -3493.362 C -678.9396 -3493.362 -679.2977 -3493.72 -679.2977 -3494.162 L -682.4977 -3494.162 C -682.4977 -3493.72 -682.8559 -3493.362 -683.2977 -3493.362 L -683.2977 -3490.162 C -682.8559 -3490.162 -682.4977 -3489.8036 -682.4977 -3489.362 L -679.2977 -3489.362 Z M -678.2228 -3489.362 L -678.4977 -3489.362 L -678.4977 -3488.562 L -677.6977 -3488.562 L -677.6977 -3489.362 L -677.97264 -3489.362 C -678.012 -3489.349 -678.05405 -3489.342 -678.0977 -3489.342 C -678.1414 -3489.342 -678.1835 -3489.349 -678.2228 -3489.362 Z M -683.8228 -3489.362 L -684.0977 -3489.362 L -684.0977 -3488.562 L -683.2977 -3488.562 L -683.2977 -3489.362 L -683.5726 -3489.362 C -683.612 -3489.349 -683.65405 -3489.342 -683.6977 -3489.342 C -683.7414 -3489.342 -683.7835 -3489.349 -683.8228 -3489.362 Z M -684.0977 -3494.962 L -684.0977 -3494.162 L -683.2977 -3494.162 L -683.2977 -3494.962 Z M -678.4977 -3494.962 L -678.4977 -3494.162 L -677.6977 -3494.162 L -677.6977 -3494.962 Z" fill="#999"/>
      </g>
    </g>
  </g>
</svg>
