<?xml version="1.0" encoding="UTF-8" standalone="no"?>
<!DOCTYPE svg PUBLIC "-//W3C//DTD SVG 1.1//EN" "http://www.w3.org/Graphics/SVG/1.1/DTD/svg11.dtd">
<svg xmlns="http://www.w3.org/2000/svg" version="1.1" xmlns:xl="http://www.w3.org/1999/xlink" xmlns:dc="http://purl.org/dc/elements/1.1/" viewBox="-634.87194 -3501.737 16.749997 16.7508" width="16.749997" height="16.7508">
  <defs/>
  <g id="SOURCES" stroke-opacity="1" stroke-dasharray="none" fill="none" fill-opacity="1" stroke="none">
    <title>SOURCES</title>
    <g id="SOURCES_Light">
      <title>Light</title>
      <g id="Graphic_8720">
        <rect x="-634.49694" y="-3501.362" width="15.999997" height="15.999997" stroke="gray" stroke-opacity="0" stroke-linecap="round" stroke-linejoin="round" stroke-width="0"/>
      </g>
      <g id="Graphic_6561">
        <path d="M -630.47996 -3500.758 L -625.51996 -3500.918 L -622.15996 -3501.078 L -618.95996 -3497.878 L -619.11996 -3486.198 L -630.47996 -3486.198 Z" fill="white"/>
      </g>
      <g id="Graphic_6560">
        <path d="M -618.49774 -3497.7386 L -618.49774 -3487.361 C -618.49774 -3486.2564 -619.3932 -3485.361 -620.49774 -3485.361 L -629.29774 -3485.361 C -630.4023 -3485.361 -631.29774 -3486.2564 -631.29774 -3487.361 L -631.29774 -3499.361 C -631.29774 -3500.4656 -630.4023 -3501.361 -629.29774 -3501.361 L -622.1201 -3501.361 C -622.0139 -3501.3677 -621.9034 -3501.3323 -621.8149 -3501.244 L -618.6149 -3498.044 C -618.5264 -3497.9554 -618.491 -3497.845 -618.49774 -3497.7386 Z M -622.49774 -3500.561 L -629.29774 -3500.561 C -629.9605 -3500.561 -630.49774 -3500.0237 -630.49774 -3499.361 L -630.49774 -3487.361 C -630.49774 -3486.6983 -629.9605 -3486.161 -629.29774 -3486.161 L -620.49774 -3486.161 C -619.835 -3486.161 -619.29774 -3486.6983 -619.29774 -3487.361 L -619.29774 -3497.361 L -622.09774 -3497.361 C -622.31866 -3497.361 -622.49774 -3497.54 -622.49774 -3497.761 Z M -621.69774 -3499.9953 L -621.69774 -3498.161 L -619.8634 -3498.161 Z M -627.69774 -3494.962 C -627.91866 -3494.962 -628.09774 -3495.141 -628.09774 -3495.362 C -628.09774 -3495.5827 -627.91866 -3495.762 -627.69774 -3495.762 L -622.09774 -3495.762 C -621.8768 -3495.762 -621.69774 -3495.5827 -621.69774 -3495.362 C -621.69774 -3495.141 -621.8768 -3494.962 -622.09774 -3494.962 Z M -627.69774 -3492.562 C -627.91866 -3492.562 -628.09774 -3492.741 -628.09774 -3492.962 C -628.09774 -3493.1827 -627.91866 -3493.362 -627.69774 -3493.362 L -622.09774 -3493.362 C -621.8768 -3493.362 -621.69774 -3493.1827 -621.69774 -3492.962 C -621.69774 -3492.741 -621.8768 -3492.562 -622.09774 -3492.562 Z M -627.69774 -3490.162 C -627.91866 -3490.162 -628.09774 -3490.341 -628.09774 -3490.562 C -628.09774 -3490.7827 -627.91866 -3490.962 -627.69774 -3490.962 L -623.69774 -3490.962 C -623.4768 -3490.962 -623.29774 -3490.7827 -623.29774 -3490.562 C -623.29774 -3490.341 -623.4768 -3490.162 -623.69774 -3490.162 Z" fill="#999"/>
      </g>
    </g>
  </g>
</svg>
