<?xml version="1.0" encoding="UTF-8" standalone="no"?>
<!DOCTYPE svg PUBLIC "-//W3C//DTD SVG 1.1//EN" "http://www.w3.org/Graphics/SVG/1.1/DTD/svg11.dtd">
<svg xmlns="http://www.w3.org/2000/svg" version="1.1" xmlns:xl="http://www.w3.org/1999/xlink" xmlns:dc="http://purl.org/dc/elements/1.1/" viewBox="-774.872 -3501.7987 16.750047 16.8746" width="16.750047" height="16.8746">
  <defs/>
  <g id="SOURCES" stroke-opacity="1" stroke-dasharray="none" fill="none" fill-opacity="1" stroke="none">
    <title>SOURCES</title>
    <g id="SOURCES_Light">
      <title>Light</title>
      <g id="Group_8809">
        <g id="Graphic_8716">
          <rect x="-774.497" y="-3501.4237" width="16.000047" height="16.000047" stroke="gray" stroke-opacity="0" stroke-linecap="round" stroke-linejoin="round" stroke-width="0"/>
        </g>
        <g id="Graphic_8711">
          <path d="M -770.6574 -3500.4196 L -765.69735 -3500.5796 L -762.3373 -3500.7396 L -759.1373 -3497.5395 L -759.2973 -3485.8595 L -770.6574 -3485.8595 Z" fill="white"/>
        </g>
        <g id="Graphic_6565">
          <path d="M -758.4977 -3497.6768 L -758.4977 -3487.299 C -758.4977 -3486.1945 -759.3932 -3485.299 -760.4977 -3485.299 L -769.2978 -3485.299 C -770.4023 -3485.299 -771.2978 -3486.1945 -771.2978 -3487.299 L -771.2978 -3499.299 C -771.2978 -3500.4037 -770.4023 -3501.299 -769.2978 -3501.299 L -762.1201 -3501.299 C -762.0139 -3501.306 -761.9034 -3501.2705 -761.8149 -3501.182 L -758.6149 -3497.982 C -758.5264 -3497.8935 -758.491 -3497.783 -758.4977 -3497.6768 Z M -762.4977 -3500.499 L -769.2978 -3500.499 C -769.9605 -3500.499 -770.4978 -3499.962 -770.4978 -3499.299 L -770.4978 -3487.299 C -770.4978 -3486.6364 -769.9605 -3486.099 -769.2978 -3486.099 L -760.4977 -3486.099 C -759.835 -3486.099 -759.2977 -3486.6364 -759.2977 -3487.299 L -759.2977 -3497.299 L -762.0977 -3497.299 C -762.31865 -3497.299 -762.4977 -3497.4782 -762.4977 -3497.699 Z M -761.6977 -3499.9335 L -761.6977 -3498.099 L -759.8634 -3498.099 Z M -760.8977 -3489.708 C -760.8976 -3489.702 -760.8976 -3489.696 -760.8978 -3489.6902 C -760.903 -3488.59 -761.7964 -3487.7 -762.8977 -3487.7 L -766.89775 -3487.7 C -768.0023 -3487.7 -768.8978 -3488.5954 -768.8978 -3489.7 L -768.8978 -3493.7 C -768.8978 -3494.8045 -768.0023 -3495.7 -766.89775 -3495.7 L -762.8977 -3495.7 C -761.7932 -3495.7 -760.8977 -3494.8045 -760.8977 -3493.7 L -760.8977 -3489.708 Z M -761.6977 -3490.347 L -761.6977 -3493.7 C -761.6977 -3494.3627 -762.235 -3494.9 -762.8977 -3494.9 L -766.89775 -3494.9 C -767.5605 -3494.9 -768.0978 -3494.3627 -768.0978 -3493.7 L -768.0978 -3491.4656 L -767.1806 -3492.3828 C -767.0244 -3492.539 -766.7711 -3492.539 -766.6149 -3492.3828 L -764.4188 -3490.1866 L -763.0766 -3490.8577 C -762.964 -3490.914 -762.8315 -3490.914 -762.7189 -3490.8577 L -761.6977 -3490.347 Z M -761.7209 -3489.4643 L -762.8977 -3490.0527 L -764.3189 -3489.342 C -764.4729 -3489.265 -764.65885 -3489.2953 -764.7806 -3489.417 L -766.89775 -3491.5342 L -768.0978 -3490.3342 L -768.0978 -3489.7 C -768.0978 -3489.037 -767.5605 -3488.5 -766.89775 -3488.5 L -762.8977 -3488.5 C -762.31565 -3488.5 -761.8304 -3488.9144 -761.7209 -3489.4643 Z M -764.09775 -3493.3 L -764.09775 -3492.5 L -763.2977 -3492.5 L -763.2977 -3493.3 Z M -764.09775 -3494.1 L -763.2977 -3494.1 C -762.8559 -3494.1 -762.4977 -3493.7418 -762.4977 -3493.3 L -762.4977 -3492.5 C -762.4977 -3492.058 -762.8559 -3491.7 -763.2977 -3491.7 L -764.09775 -3491.7 C -764.5396 -3491.7 -764.89775 -3492.058 -764.89775 -3492.5 L -764.89775 -3493.3 C -764.89775 -3493.7418 -764.5396 -3494.1 -764.09775 -3494.1 Z" fill="#999"/>
        </g>
      </g>
    </g>
  </g>
</svg>
