<svg xmlns="http://www.w3.org/2000/svg" viewBox="-634.872 -3501.737 16.75 16.751"><g fill="none"><path d="M-634.497-3501.362h16v16h-16z"/><path d="m-630.48-3500.758 4.96-.16 3.36-.16 3.2 3.2-.16 11.68h-11.36z" fill="#fff"/><path d="M-618.498-3497.739v10.378a2 2 0 0 1-2 2h-8.8a2 2 0 0 1-2-2v-12a2 2 0 0 1 2-2h7.178a.392.392 0 0 1 .305.117l3.2 3.2a.392.392 0 0 1 .117.305zm-4-2.822h-6.8a1.2 1.2 0 0 0-1.2 1.2v12a1.2 1.2 0 0 0 1.2 1.2h8.8a1.2 1.2 0 0 0 1.2-1.2v-10h-2.8a.4.4 0 0 1-.4-.4zm.8.566v1.834h1.835zm-6 5.033a.4.4 0 1 1 0-.8h5.6a.4.4 0 0 1 0 .8zm0 2.4a.4.4 0 1 1 0-.8h5.6a.4.4 0 0 1 0 .8zm0 2.4a.4.4 0 1 1 0-.8h4a.4.4 0 0 1 0 .8z" fill="#999"/></g></svg>