<svg height="17" viewBox="-830.997 -3501.861 17 17" width="17" xmlns="http://www.w3.org/2000/svg"><g fill="none"><path d="m-830.497-3501.361h15.999997v15.999997h-15.999997z"/><path d="m-826.6574-3500.4814 4.96-.16 3.36-.16 3.2 3.2-.16 11.68h-11.36z" fill="#fff"/><path d="m-814.4978-3497.7386v10.3776c0 1.1046-.8954 2-2 2h-8.8c-1.1045 0-2-.8954-2-2v-12c0-1.1046.8955-2 2-2h7.1776c.1062-.0067.2168.0287.3053.117l3.2 3.2c.0885.0886.1239.199.1171.3054zm-4-2.8224h-6.8c-.6627 0-1.2.5373-1.2 1.2v12c0 .6627.5373 1.2 1.2 1.2h8.8c.6628 0 1.2-.5373 1.2-1.2v-10h-2.8c-.2209 0-.4-.179-.4-.4zm.8.5657v1.8343h1.8343z" fill="#999"/><path d="m-818.9032-3488.343v-.97h-3.47v-2.14h2.96v-.96h-2.96v-2.08h3.47v-.97h-4.55v7.12z" fill="#5c76a1"/></g></svg>