<?xml version="1.0" encoding="UTF-8" standalone="no"?>
<!DOCTYPE svg PUBLIC "-//W3C//DTD SVG 1.1//EN" "http://www.w3.org/Graphics/SVG/1.1/DTD/svg11.dtd">
<svg xmlns="http://www.w3.org/2000/svg" version="1.1" xmlns:xl="http://www.w3.org/1999/xlink" xmlns:dc="http://purl.org/dc/elements/1.1/" viewBox="-746.8719 -3501.737 16.749997 16.7508" width="16.749997" height="16.7508">
  <defs/>
  <g id="SOURCES" stroke-opacity="1" stroke-dasharray="none" fill="none" fill-opacity="1" stroke="none">
    <title>SOURCES</title>
    <g id="SOURCES_Light">
      <title>Light</title>
      <g id="Graphic_8715">
        <rect x="-746.4969" y="-3501.361" width="15.999997" height="15.999997" stroke="gray" stroke-opacity="0" stroke-linecap="round" stroke-linejoin="round" stroke-width="0"/>
      </g>
      <g id="Graphic_6569">
        <path d="M -742.6573 -3500.4814 L -737.6973 -3500.6414 L -734.3373 -3500.8014 L -731.1373 -3497.6014 L -731.2973 -3485.9214 L -742.6573 -3485.9214 Z" fill="white"/>
      </g>
      <g id="Graphic_6568">
        <path d="M -730.4977 -3497.7386 L -730.4977 -3487.361 C -730.4977 -3486.2564 -731.3932 -3485.361 -732.4977 -3485.361 L -741.2977 -3485.361 C -742.4023 -3485.361 -743.2977 -3486.2564 -743.2977 -3487.361 L -743.2977 -3499.361 C -743.2977 -3500.4656 -742.4023 -3501.361 -741.2977 -3501.361 L -734.1201 -3501.361 C -734.0139 -3501.3677 -733.9034 -3501.3323 -733.8149 -3501.244 L -730.6149 -3498.044 C -730.5264 -3497.9554 -730.491 -3497.845 -730.4977 -3497.7386 Z M -734.4977 -3500.561 L -741.2977 -3500.561 C -741.9605 -3500.561 -742.4977 -3500.0237 -742.4977 -3499.361 L -742.4977 -3487.361 C -742.4977 -3486.6983 -741.9605 -3486.161 -741.2977 -3486.161 L -732.4977 -3486.161 C -731.835 -3486.161 -731.2977 -3486.6983 -731.2977 -3487.361 L -731.2977 -3497.361 L -734.0977 -3497.361 C -734.31865 -3497.361 -734.4977 -3497.54 -734.4977 -3497.761 Z M -733.6977 -3499.9953 L -733.6977 -3498.161 L -731.8634 -3498.161 Z" fill="#999"/>
      </g>
      <g id="Graphic_9930">
        <title>G</title>
        <path d="M -734.4898 -3491.266 L -734.4898 -3492.356 L -737.0898 -3492.356 L -737.0898 -3491.436 L -735.5698 -3491.436 L -735.5698 -3491.036 C -735.5698 -3490.576 -735.6598 -3490.216 -735.9198 -3489.916 C -736.1998 -3489.586 -736.6198 -3489.406 -737.0898 -3489.406 C -737.5198 -3489.406 -737.8798 -3489.566 -738.1498 -3489.846 C -738.4998 -3490.226 -738.5698 -3490.656 -738.5698 -3492.066 C -738.5698 -3493.476 -738.4998 -3493.906 -738.1498 -3494.286 C -737.8798 -3494.566 -737.5198 -3494.726 -737.0898 -3494.726 C -736.2898 -3494.726 -735.7698 -3494.266 -735.5898 -3493.486 L -734.5098 -3493.486 C -734.6998 -3494.696 -735.5898 -3495.686 -737.0898 -3495.686 C -737.8698 -3495.686 -738.4698 -3495.426 -738.9298 -3494.966 C -739.6198 -3494.266 -739.6498 -3493.556 -739.6498 -3492.066 C -739.6498 -3490.576 -739.6198 -3489.866 -738.9298 -3489.166 C -738.4698 -3488.706 -737.8698 -3488.446 -737.0898 -3488.446 C -736.3398 -3488.446 -735.6598 -3488.696 -735.1298 -3489.256 C -734.6598 -3489.766 -734.4898 -3490.336 -734.4898 -3491.266 Z" fill="#5c76a1"/>
      </g>
    </g>
  </g>
</svg>
