<svg xmlns="http://www.w3.org/2000/svg" viewBox="-690.872 -3501.737 16.75 16.751"><g fill="none"><path d="M-690.497-3501.361h16v16h-16z"/><path d="m-686.657-3500.594 4.96-.16 3.36-.16 3.2 3.2-.16 11.68h-11.36z" fill="#fff"/><path d="M-674.498-3497.739v10.378a2 2 0 0 1-2 2h-8.8a2 2 0 0 1-2-2v-12a2 2 0 0 1 2-2h7.178a.392.392 0 0 1 .305.117l3.2 3.2a.392.392 0 0 1 .117.305zm-4-2.822h-6.8a1.2 1.2 0 0 0-1.2 1.2v12a1.2 1.2 0 0 0 1.2 1.2h8.8a1.2 1.2 0 0 0 1.2-1.2v-10h-2.8a.4.4 0 0 1-.4-.4zm.8.566v1.834h1.835zm-1.6 11.433h-3.2a.8.8 0 0 1-.8.8h-.8a.8.8 0 0 1-.8-.8v-.8a.8.8 0 0 1 .8-.8v-3.2a.8.8 0 0 1-.8-.8v-.8a.8.8 0 0 1 .8-.8h.8a.8.8 0 0 1 .8.8h3.2a.8.8 0 0 1 .8-.8h.8a.8.8 0 0 1 .8.8v.8a.8.8 0 0 1-.8.8v3.2a.8.8 0 0 1 .8.8v.8a.8.8 0 0 1-.8.8h-.8a.8.8 0 0 1-.8-.8zm0-.8a.8.8 0 0 1 .8-.8v-3.2a.8.8 0 0 1-.8-.8h-3.2a.8.8 0 0 1-.8.8v3.2a.8.8 0 0 1 .8.8h3.2zm1.075 0h-.275v.8h.8v-.8h-.275a.398.398 0 0 1-.25 0zm-5.6 0h-.275v.8h.8v-.8h-.275a.399.399 0 0 1-.25 0zm-.275-5.6v.8h.8v-.8zm5.6 0v.8h.8v-.8z" fill="#999"/></g></svg>