<svg height="16.751" viewBox="-662.872 -3501.737 16.75 16.751" width="16.75" xmlns="http://www.w3.org/2000/svg"><g fill="none"><path d="m-662.4969-3501.361h15.999997v15.999997h-15.999997z"/><path d="m-658.6573-3500.4814 4.96-.16 3.36-.16 3.19996 3.2-.16 11.68h-11.35996z" fill="#fff"/><path d="m-646.49774-3497.7386v10.3776c0 1.1046-.89546 2-2 2h-8.79996c-1.1046 0-2-.8954-2-2v-12c0-1.1046.8954-2 2-2h7.1776c.1062-.0067.2167.0287.3052.117l3.2 3.2c.0885.0886.1239.199.11716.3054zm-4-2.8224h-6.79996c-.6628 0-1.2.5373-1.2 1.2v12c0 .6627.5372 1.2 1.2 1.2h8.79996c.66274 0 1.2-.5373 1.2-1.2v-10h-2.8c-.22091 0-.4-.179-.4-.4zm.8.5657v1.8343h1.83434z" fill="#999"/><path d="m-651.01746-3491.838h-1.61274c-.1521 0-.2754.123-.2754.275v1.3376c0 .152-.1233.2754-.2753.2754h-.0787c-.1521 0-.27536-.1234-.27536-.2754v-1.3376c0-.152-.12324-.275-.27534-.275h-1.3374c-.1521 0-.2754-.1235-.2754-.2755v-.0787c0-.1521.1233-.2754.2754-.2754h1.3374c.1521 0 .27534-.1234.27534-.2754v-1.3373c0-.1521.12326-.2754.27536-.2754h.0787c.152 0 .2753.1233.2753.2754v1.3373c0 .152.1233.2754.2754.2754h1.3374c.1521 0 .27534.1233.27534.2754z" fill="#999"/><path d="m-651.01746-3491.838h-1.61274c-.1521 0-.2754.123-.2754.275v1.3376c0 .152-.1233.2754-.2753.2754h-.0787c-.1521 0-.27536-.1234-.27536-.2754v-1.3376c0-.152-.12324-.275-.27534-.275h-1.3374c-.1521 0-.2754-.1235-.2754-.2755v-.0787c0-.1521.1233-.2754.2754-.2754h1.3374c.1521 0 .27534-.1234.27534-.2754v-1.3373c0-.1521.12326-.2754.27536-.2754h.0787c.152 0 .2753.1233.2753.2754v1.3373c0 .152.1233.2754.2754.2754h1.3374c.1521 0 .27534.1233.27534.2754z" stroke="#999" stroke-linecap="round" stroke-linejoin="round" stroke-width=".5"/></g></svg>