<svg height="20.75" viewBox="-574.872 -3503.736 20.75 20.75" width="20.75" xmlns="http://www.w3.org/2000/svg"><g fill="none"><path d="m-574.4969-3503.3614h20v20h-20z"/><path d="m-569.62645-3495.536 6.72-.32 1.6 2.24 6.08.48v8.96h-14.4z" fill="#fff"/><path d="m-572.4418-3498.2 6.72-.32 1.6 2.24 6.08.48v8.96h-14.4z" fill="#fff"/><g fill="#999"><path d="m-557.98665-3493.827v-.8c0-.6628-.53725-1.2-1.2-1.2h-4.4c-.88365 0-1.6-.7164-1.6-1.6 0-.442-.35815-.8-.8-.8h-5.2c-.66275 0-1.2.5372-1.2 1.2v8.8c0 .6627.53725 1.2 1.2 1.2h.8c.66275 0 1.2-.5373 1.2-1.2v-4c0-1.1046.89545-2 2-2h8c.45025 0 .86575.1487 1.2.4zm0 1.6c0-.6628-.53725-1.2-1.2-1.2h-8c-.66275 0-1.2.5372-1.2 1.2v4c0 .4502-.14875.8657-.39985 1.2h9.59985c.66275 0 1.2-.5373 1.2-1.2zm-13.2-6.8h5.2c.88365 0 1.6.7163 1.6 1.6 0 .442.35815.8.8.8h4.4c1.10455 0 2 .8954 2 2v6.4c0 1.1045-.89545 2-2 2h-12c-1.10455 0-2-.8955-2-2v-8.8c0-1.1046.89545-2 2-2z"/><path d="m-563.201-3485.9015c.07333.0857.18235.1401.3041.1401.1217 0 .2307-.0544.30406-.1401zm-7.2959 0v.5401c0 1.1044.8954 2 2 2h12c1.10454 0 2-.8956 2-2v-6.4c0-1.1046-.89546-2-2-2h-.3184v.8h.3184c.6627 0 1.2.5374 1.2 1.2v6.4c0 .6627-.5373 1.2-1.2 1.2h-12c-.6628 0-1.2-.5373-1.2-1.2v-.5401z"/></g></g></svg>