<svg height="20.75" viewBox="-574.872 -3503.736 20.75 20.75" width="20.75" xmlns="http://www.w3.org/2000/svg"><g fill="none"><path d="M-574.497-3503.361h20v20h-20z"/><path d="M-569.626-3495.536l6.72-.32 1.6 2.24 6.08.48v8.96h-14.4z" fill="#fff"/><path d="M-572.442-3498.2l6.72-.32 1.6 2.24 6.08.48v8.96h-14.4z" fill="#fff"/><g fill="#999"><path d="M-557.987-3493.827v-.8a1.2 1.2 0 0 0-1.2-1.2h-4.4a1.6 1.6 0 0 1-1.6-1.6.8.8 0 0 0-.8-.8h-5.2a1.2 1.2 0 0 0-1.2 1.2v8.8a1.2 1.2 0 0 0 1.2 1.2h.8a1.2 1.2 0 0 0 1.2-1.2v-4a2 2 0 0 1 2-2h8c.45 0 .866.149 1.2.4zm0 1.6a1.2 1.2 0 0 0-1.2-1.2h-8a1.2 1.2 0 0 0-1.2 1.2v4c0 .45-.148.866-.4 1.2h9.6a1.2 1.2 0 0 0 1.2-1.2zm-13.2-6.8h5.2a1.6 1.6 0 0 1 1.6 1.6.8.8 0 0 0 .8.8h4.4a2 2 0 0 1 2 2v6.4a2 2 0 0 1-2 2h-12a2 2 0 0 1-2-2v-8.8a2 2 0 0 1 2-2z"/><path d="M-563.201-3485.901a.4.4 0 0 0 .608 0zm-7.296 0v.54a2 2 0 0 0 2 2h12a2 2 0 0 0 2-2v-6.4a2 2 0 0 0-2-2h-.318v.8h.318a1.2 1.2 0 0 1 1.2 1.2v6.4a1.2 1.2 0 0 1-1.2 1.2h-12a1.2 1.2 0 0 1-1.2-1.2v-.54z"/></g></g></svg>