<svg height="20.75" viewBox="-542.872 -3503.736 20.75 20.75" width="20.75" xmlns="http://www.w3.org/2000/svg"><g fill="none"><path d="m-542.49693-3503.3614h20v20h-20z"/><path d="m-540.39696-3496.4724 7.2-.2 8-.2 1.4 2.2-.8 10.2h-15.8z" fill="#fff"/><path d="m-528.49693-3496.371h-8v12.0096h8zm1 0v12.0096h1.5c.82843 0 1.5-.6716 1.5-1.5v-9.0096c0-.8284-.67157-1.5-1.5-1.5zm-10 0h-1.5c-.82843 0-1.5.6716-1.5 1.5v9.0096c0 .8284.67157 1.5 1.5 1.5h1.5zm2-1v-.5c0-.8284.67157-1.5 1.5-1.5h3c.82843 0 1.5.6716 1.5 1.5v.5h3.5c1.38073 0 2.5 1.1193 2.5 2.5v9.0096c0 1.3807-1.11927 2.5-2.5 2.5h-13c-1.38071 0-2.5-1.1193-2.5-2.5v-9.0096c0-1.3807 1.11929-2.5 2.5-2.5zm5 0v-.5c0-.276-.22387-.5-.5-.5h-3c-.27617 0-.5.224-.5.5v.5z" fill="#999"/></g></svg>