<?xml version="1.0" encoding="UTF-8" standalone="no"?>
<!DOCTYPE svg PUBLIC "-//W3C//DTD SVG 1.1//EN" "http://www.w3.org/Graphics/SVG/1.1/DTD/svg11.dtd">
<svg xmlns="http://www.w3.org/2000/svg" version="1.1" xmlns:xl="http://www.w3.org/1999/xlink" xmlns:dc="http://purl.org/dc/elements/1.1/" viewBox="-574.8719 -3503.7364 20.75 20.75" width="20.75" height="20.75">
  <defs/>
  <g id="SOURCES" stroke-opacity="1" stroke-dasharray="none" fill="none" fill-opacity="1" stroke="none">
    <title>SOURCES</title>
    <g id="SOURCES_Light">
      <title>Light</title>
      <g id="Graphic_6576">
        <rect x="-574.4969" y="-3503.3614" width="20" height="20" stroke="gray" stroke-opacity="0" stroke-linecap="round" stroke-linejoin="round" stroke-width="0"/>
      </g>
      <g id="Graphic_6575">
        <path d="M -569.62645 -3495.536 L -562.90645 -3495.856 L -561.30645 -3493.616 L -555.22645 -3493.136 L -555.22645 -3484.176 L -569.62645 -3484.176 Z" fill="white"/>
      </g>
      <g id="Graphic_6574">
        <path d="M -572.4418 -3498.2 L -565.7218 -3498.52 L -564.1218 -3496.28 L -558.0418 -3495.8 L -558.0418 -3486.84 L -572.4418 -3486.84 Z" fill="white"/>
      </g>
      <g id="Graphic_6573">
        <path d="M -557.98665 -3493.827 L -557.98665 -3494.627 C -557.98665 -3495.2898 -558.5239 -3495.827 -559.18665 -3495.827 L -563.58665 -3495.827 C -564.4703 -3495.827 -565.18665 -3496.5434 -565.18665 -3497.427 C -565.18665 -3497.869 -565.5448 -3498.227 -565.98665 -3498.227 L -571.18665 -3498.227 C -571.8494 -3498.227 -572.38665 -3497.6898 -572.38665 -3497.027 L -572.38665 -3488.227 C -572.38665 -3487.5643 -571.8494 -3487.027 -571.18665 -3487.027 L -570.38665 -3487.027 C -569.7239 -3487.027 -569.18665 -3487.5643 -569.18665 -3488.227 L -569.18665 -3492.227 C -569.18665 -3493.3316 -568.2912 -3494.227 -567.18665 -3494.227 L -559.18665 -3494.227 C -558.7364 -3494.227 -558.3209 -3494.0783 -557.98665 -3493.827 Z M -557.98665 -3492.227 C -557.98665 -3492.8898 -558.5239 -3493.427 -559.18665 -3493.427 L -567.18665 -3493.427 C -567.8494 -3493.427 -568.38665 -3492.8898 -568.38665 -3492.227 L -568.38665 -3488.227 C -568.38665 -3487.7768 -568.5354 -3487.3613 -568.7865 -3487.027 L -559.18665 -3487.027 C -558.5239 -3487.027 -557.98665 -3487.5643 -557.98665 -3488.227 L -557.98665 -3492.227 Z M -571.18665 -3499.027 L -565.98665 -3499.027 C -565.103 -3499.027 -564.38665 -3498.3107 -564.38665 -3497.427 C -564.38665 -3496.985 -564.0285 -3496.627 -563.58665 -3496.627 L -559.18665 -3496.627 C -558.0821 -3496.627 -557.18665 -3495.7316 -557.18665 -3494.627 L -557.18665 -3488.227 C -557.18665 -3487.1225 -558.0821 -3486.227 -559.18665 -3486.227 L -571.18665 -3486.227 C -572.2912 -3486.227 -573.18665 -3487.1225 -573.18665 -3488.227 L -573.18665 -3497.027 C -573.18665 -3498.1316 -572.2912 -3499.027 -571.18665 -3499.027 Z" fill="#999"/>
      </g>
      <g id="Graphic_6572">
        <path d="M -563.201 -3485.9015 C -563.12767 -3485.8158 -563.01865 -3485.7614 -562.8969 -3485.7614 C -562.7752 -3485.7614 -562.6662 -3485.8158 -562.59284 -3485.9015 Z M -570.4969 -3485.9015 L -570.4969 -3485.3614 C -570.4969 -3484.257 -569.6015 -3483.3614 -568.4969 -3483.3614 L -556.4969 -3483.3614 C -555.39236 -3483.3614 -554.4969 -3484.257 -554.4969 -3485.3614 L -554.4969 -3491.7614 C -554.4969 -3492.866 -555.39236 -3493.7614 -556.4969 -3493.7614 L -556.8153 -3493.7614 L -556.8153 -3492.9614 L -556.4969 -3492.9614 C -555.8342 -3492.9614 -555.2969 -3492.424 -555.2969 -3491.7614 L -555.2969 -3485.3614 C -555.2969 -3484.6987 -555.8342 -3484.1614 -556.4969 -3484.1614 L -568.4969 -3484.1614 C -569.1597 -3484.1614 -569.6969 -3484.6987 -569.6969 -3485.3614 L -569.6969 -3485.9015 Z" fill="#999"/>
      </g>
    </g>
  </g>
</svg>
