<svg xmlns="http://www.w3.org/2000/svg" viewBox="-542.872 -3503.736 20.75 20.75"><g fill="none"><path d="M-542.497-3503.361h20v20h-20z"/><path d="m-540.397-3496.472 7.2-.2 8-.2 1.4 2.2-.8 10.2h-15.8z" fill="#fff"/><path d="M-528.497-3496.371h-8v12.01h8zm1 0v12.01h1.5a1.5 1.5 0 0 0 1.5-1.5v-9.01a1.5 1.5 0 0 0-1.5-1.5zm-10 0h-1.5a1.5 1.5 0 0 0-1.5 1.5v9.01a1.5 1.5 0 0 0 1.5 1.5h1.5zm2-1v-.5a1.5 1.5 0 0 1 1.5-1.5h3a1.5 1.5 0 0 1 1.5 1.5v.5h3.5a2.5 2.5 0 0 1 2.5 2.5v9.01a2.5 2.5 0 0 1-2.5 2.5h-13a2.5 2.5 0 0 1-2.5-2.5v-9.01a2.5 2.5 0 0 1 2.5-2.5zm5 0v-.5a.5.5 0 0 0-.5-.5h-3a.5.5 0 0 0-.5.5v.5z" fill="#999"/></g></svg>