<svg height="21.172" viewBox="-479.663 -3507.889 21 21.172" width="21" xmlns="http://www.w3.org/2000/svg"><g fill="none"><path d="m-479.28814-3507.2643h20v20h-20z"/><path d="m-459.28814-3504.7468h-1.61276c-.1521 0-.27537.1233-.27537.2754v1.3374c0 .152-.12327.2754-.27533.2754h-.0787c-.15206 0-.27534-.1234-.27534-.2754v-1.3374c0-.1521-.12326-.2754-.27536-.2754h-1.3374c-.1521 0-.27536-.1232-.27536-.2752v-.079c0-.152.12326-.275.27536-.275h1.3374c.1521 0 .27536-.1234.27536-.2755v-1.3375c0-.152.12328-.2753.27534-.2753h.0787c.15206 0 .27533.1233.27533.2753v1.3375c0 .1521.12327.2755.27537.2755h1.3374c.1521 0 .27536.123.27536.275z" fill="#999"/><path d="m-459.28814-3504.7468h-1.61276c-.1521 0-.27537.1233-.27537.2754v1.3374c0 .152-.12327.2754-.27533.2754h-.0787c-.15206 0-.27534-.1234-.27534-.2754v-1.3374c0-.1521-.12326-.2754-.27536-.2754h-1.3374c-.1521 0-.27536-.1232-.27536-.2752v-.079c0-.152.12326-.275.27536-.275h1.3374c.1521 0 .27536-.1234.27536-.2755v-1.3375c0-.152.12328-.2753.27534-.2753h.0787c.15206 0 .27533.1233.27533.2753v1.3375c0 .1521.12327.2755.27537.2755h1.3374c.1521 0 .27536.123.27536.275z" stroke="#999" stroke-linecap="round" stroke-linejoin="round" stroke-width=".5"/><path d="m-478.7278-3500.3225 4.33976-.1399 2.93984-.14 2.7999 2.7998-.14 10.2196h-9.9395z" fill="#fff"/><path d="m-468.0887-3497.9226v9.0799c0 .9665-.78346 1.7499-1.7499 1.7499h-7.69963c-.96647 0-1.74991-.7834-1.74991-1.7499v-10.4993c0-.9666.78344-1.75 1.74991-1.75h6.28013c.0929-.006.1896.025.26703.1024l2.79987 2.7999c.0774.0774.1084.1741.1025.2671zm-3.4998-2.4694h-5.94973c-.57987 0-1.04997.47-1.04997 1.05v10.4993c0 .5797.4701 1.05 1.04997 1.05h7.69963c.57986 0 1.04993-.4703 1.04993-1.05v-8.7495h-2.44987c-.19329 0-.34996-.1568-.34996-.35zm.69994.495v1.605h1.60496z" fill="#999"/></g></svg>