<svg height="21.455" viewBox="-383.663 -3508.031 21 21.455" width="21" xmlns="http://www.w3.org/2000/svg"><g fill="none"><path d="M-383.288-3507.406h20v20h-20z"/><path d="M-363.288-3504.888h-1.613a.275.275 0 0 0-.275.275v1.337a.275.275 0 0 1-.276.276h-.078a.275.275 0 0 1-.276-.276v-1.337a.275.275 0 0 0-.275-.275h-1.337a.275.275 0 0 1-.276-.276v-.078c0-.152.124-.276.276-.276h1.337a.275.275 0 0 0 .275-.275v-1.338c0-.152.124-.275.276-.275h.078c.152 0 .276.123.276.275v1.338c0 .152.123.275.275.275h1.338c.152 0 .275.123.275.276z" fill="#999"/><path d="M-363.288-3504.888h-1.613a.275.275 0 0 0-.275.275v1.337a.275.275 0 0 1-.276.276h-.078a.275.275 0 0 1-.276-.276v-1.337a.275.275 0 0 0-.275-.275h-1.337a.275.275 0 0 1-.276-.276v-.078c0-.152.124-.276.276-.276h1.337a.275.275 0 0 0 .275-.275v-1.338c0-.152.124-.275.276-.275h.078c.152 0 .276.123.276.275v1.338c0 .152.123.275.275.275h1.338c.152 0 .275.123.275.276z" stroke="#999" stroke-linecap="round" stroke-linejoin="round" stroke-width=".5"/><path d="M-380.621-3496.071l5.033-.24 1.199 1.678 4.554.36v6.712h-10.786z" fill="#fff"/><path d="M-382.73-3498.066l5.034-.24 1.198 1.678 4.554.36v6.711h-10.786z" fill="#fff"/><g fill="#999"><path d="M-371.902-3494.79v-.6a.899.899 0 0 0-.9-.899h-3.295a1.199 1.199 0 0 1-1.199-1.198.6.6 0 0 0-.599-.6h-3.895a.899.899 0 0 0-.899.9v6.591c0 .497.403.899.899.899h.6a.899.899 0 0 0 .898-.899v-2.996c0-.827.67-1.498 1.498-1.498h5.993c.337 0 .648.111.899.3zm0 1.198a.899.899 0 0 0-.9-.899h-5.992a.899.899 0 0 0-.899.899v2.996c0 .338-.111.649-.3.899h7.192a.899.899 0 0 0 .899-.899zm-9.888-5.094h3.895c.662 0 1.199.537 1.199 1.199a.6.6 0 0 0 .599.599h3.296c.827 0 1.498.67 1.498 1.498v4.794c0 .828-.67 1.498-1.498 1.498h-8.989c-.827 0-1.498-.67-1.498-1.498v-6.592c0-.827.67-1.498 1.498-1.498z"/><path d="M-375.808-3488.854a.298.298 0 0 0 .455 0zm-5.465 0v.405c0 .827.67 1.498 1.498 1.498h8.989c.827 0 1.498-.671 1.498-1.498v-4.794c0-.828-.67-1.499-1.498-1.499h-.239v.6h.239c.496 0 .899.402.899.899v4.794a.899.899 0 0 1-.9.899h-8.988a.899.899 0 0 1-.9-.9v-.404z"/></g></g></svg>