<svg height="21.172" viewBox="-479.663 -3507.889 21 21.172" width="21" xmlns="http://www.w3.org/2000/svg"><g fill="none"><path d="M-479.288-3507.264h20v20h-20z"/><path d="M-459.288-3504.747h-1.613a.275.275 0 0 0-.275.276v1.337a.275.275 0 0 1-.276.275h-.078a.275.275 0 0 1-.276-.275v-1.337a.275.275 0 0 0-.275-.276h-1.337a.275.275 0 0 1-.276-.275v-.079c0-.152.124-.275.276-.275h1.337a.275.275 0 0 0 .275-.276v-1.337c0-.152.124-.275.276-.275h.078c.152 0 .276.123.276.275v1.337c0 .153.123.276.275.276h1.338c.152 0 .275.123.275.275z" fill="#999"/><path d="M-459.288-3504.747h-1.613a.275.275 0 0 0-.275.276v1.337a.275.275 0 0 1-.276.275h-.078a.275.275 0 0 1-.276-.275v-1.337a.275.275 0 0 0-.275-.276h-1.337a.275.275 0 0 1-.276-.275v-.079c0-.152.124-.275.276-.275h1.337a.275.275 0 0 0 .275-.276v-1.337c0-.152.124-.275.276-.275h.078c.152 0 .276.123.276.275v1.337c0 .153.123.276.275.276h1.338c.152 0 .275.123.275.275z" stroke="#999" stroke-linecap="round" stroke-linejoin="round" stroke-width=".5"/><path d="M-478.728-3500.323l4.34-.14 2.94-.14 2.8 2.8-.14 10.22h-9.94z" fill="#fff"/><path d="M-468.089-3497.923v9.08a1.75 1.75 0 0 1-1.75 1.75h-7.7a1.75 1.75 0 0 1-1.75-1.75v-10.499c0-.967.784-1.75 1.75-1.75h6.28a.342.342 0 0 1 .268.102l2.8 2.8a.342.342 0 0 1 .102.267zm-3.5-2.469h-5.95c-.58 0-1.05.47-1.05 1.05v10.5c0 .579.47 1.05 1.05 1.05h7.7c.58 0 1.05-.471 1.05-1.05v-8.75h-2.45a.35.35 0 0 1-.35-.35zm.7.495v1.605h1.605z" fill="#999"/></g></svg>