<?xml version="1.0" encoding="UTF-8" standalone="no"?>
<!DOCTYPE svg PUBLIC "-//W3C//DTD SVG 1.1//EN" "http://www.w3.org/Graphics/SVG/1.1/DTD/svg11.dtd">
<svg xmlns="http://www.w3.org/2000/svg" version="1.1" xmlns:xl="http://www.w3.org/1999/xlink" xmlns:dc="http://purl.org/dc/elements/1.1/" viewBox="-447.66314 -3507.8035 21 21" width="21" height="21">
  <defs/>
  <g id="SOURCES" stroke-opacity="1" stroke-dasharray="none" fill="none" fill-opacity="1" stroke="none">
    <title>SOURCES</title>
    <g id="SOURCES_Light">
      <title>Light</title>
      <g id="Graphic_10584">
        <rect x="-447.28814" y="-3507.1785" width="20" height="20" stroke="gray" stroke-opacity="0" stroke-linecap="round" stroke-linejoin="round" stroke-width="0"/>
      </g>
      <g id="Graphic_10583">
        <path d="M -427.28814 -3504.661 L -428.9009 -3504.661 C -429.053 -3504.661 -429.17627 -3504.5377 -429.17627 -3504.3857 L -429.17627 -3503.0482 C -429.17627 -3502.896 -429.29954 -3502.773 -429.4516 -3502.773 L -429.5303 -3502.773 C -429.68236 -3502.773 -429.80564 -3502.896 -429.80564 -3503.0482 L -429.80564 -3504.3857 C -429.80564 -3504.5377 -429.9289 -3504.661 -430.081 -3504.661 L -431.4184 -3504.661 C -431.5705 -3504.661 -431.69376 -3504.7843 -431.69376 -3504.9364 L -431.69376 -3505.015 C -431.69376 -3505.167 -431.5705 -3505.2904 -431.4184 -3505.2904 L -430.081 -3505.2904 C -429.9289 -3505.2904 -429.80564 -3505.4137 -429.80564 -3505.5657 L -429.80564 -3506.903 C -429.80564 -3507.0552 -429.68236 -3507.1785 -429.5303 -3507.1785 L -429.4516 -3507.1785 C -429.29954 -3507.1785 -429.17627 -3507.0552 -429.17627 -3506.903 L -429.17627 -3505.5657 C -429.17627 -3505.4137 -429.053 -3505.2904 -428.9009 -3505.2904 L -427.5635 -3505.2904 C -427.4114 -3505.2904 -427.28814 -3505.167 -427.28814 -3505.015 L -427.28814 -3504.661 Z" fill="#999"/>
        <path d="M -427.28814 -3504.661 L -428.9009 -3504.661 C -429.053 -3504.661 -429.17627 -3504.5377 -429.17627 -3504.3857 L -429.17627 -3503.0482 C -429.17627 -3502.896 -429.29954 -3502.773 -429.4516 -3502.773 L -429.5303 -3502.773 C -429.68236 -3502.773 -429.80564 -3502.896 -429.80564 -3503.0482 L -429.80564 -3504.3857 C -429.80564 -3504.5377 -429.9289 -3504.661 -430.081 -3504.661 L -431.4184 -3504.661 C -431.5705 -3504.661 -431.69376 -3504.7843 -431.69376 -3504.9364 L -431.69376 -3505.015 C -431.69376 -3505.167 -431.5705 -3505.2904 -431.4184 -3505.2904 L -430.081 -3505.2904 C -429.9289 -3505.2904 -429.80564 -3505.4137 -429.80564 -3505.5657 L -429.80564 -3506.903 C -429.80564 -3507.0552 -429.68236 -3507.1785 -429.5303 -3507.1785 L -429.4516 -3507.1785 C -429.29954 -3507.1785 -429.17627 -3507.0552 -429.17627 -3506.903 L -429.17627 -3505.5657 C -429.17627 -3505.4137 -429.053 -3505.2904 -428.9009 -3505.2904 L -427.5635 -3505.2904 C -427.4114 -3505.2904 -427.28814 -3505.167 -427.28814 -3505.015 L -427.28814 -3504.661 Z" stroke="#999" stroke-linecap="round" stroke-linejoin="round" stroke-width=".5"/>
      </g>
      <g id="Graphic_10564">
        <path d="M -446.5726 -3500.6503 L -442.23283 -3500.7903 L -439.293 -3500.9303 L -436.4931 -3498.1304 L -436.6331 -3487.911 L -446.5726 -3487.911 Z" fill="white"/>
      </g>
      <g id="Graphic_10563">
        <path d="M -436.0887 -3498.0084 L -436.0887 -3488.9284 C -436.0887 -3487.962 -436.87216 -3487.1785 -437.8386 -3487.1785 L -445.53823 -3487.1785 C -446.5047 -3487.1785 -447.28814 -3487.962 -447.28814 -3488.9284 L -447.28814 -3499.428 C -447.28814 -3500.3944 -446.5047 -3501.178 -445.53823 -3501.178 L -439.25813 -3501.178 C -439.1652 -3501.1837 -439.0685 -3501.1527 -438.99107 -3501.0753 L -436.1912 -3498.2754 C -436.1138 -3498.198 -436.0828 -3498.1013 -436.0887 -3498.0084 Z M -439.58853 -3500.478 L -445.53823 -3500.478 C -446.1181 -3500.478 -446.5882 -3500.0078 -446.5882 -3499.428 L -446.5882 -3488.9284 C -446.5882 -3488.3486 -446.1181 -3487.8785 -445.53823 -3487.8785 L -437.8386 -3487.8785 C -437.25874 -3487.8785 -436.78867 -3488.3486 -436.78867 -3488.9284 L -436.78867 -3497.678 L -439.23854 -3497.678 C -439.43183 -3497.678 -439.58853 -3497.8347 -439.58853 -3498.028 Z M -438.88856 -3499.983 L -438.88856 -3498.378 L -437.2836 -3498.378 Z M -444.1383 -3495.579 C -444.3316 -3495.579 -444.4883 -3495.7355 -444.4883 -3495.9288 C -444.4883 -3496.122 -444.3316 -3496.2788 -444.1383 -3496.2788 L -439.23854 -3496.2788 C -439.04525 -3496.2788 -438.88856 -3496.122 -438.88856 -3495.9288 C -438.88856 -3495.7355 -439.04525 -3495.579 -439.23854 -3495.579 Z M -444.1383 -3493.479 C -444.3316 -3493.479 -444.4883 -3493.6356 -444.4883 -3493.829 C -444.4883 -3494.022 -444.3316 -3494.179 -444.1383 -3494.179 L -439.23854 -3494.179 C -439.04525 -3494.179 -438.88856 -3494.022 -438.88856 -3493.829 C -438.88856 -3493.6356 -439.04525 -3493.479 -439.23854 -3493.479 Z M -444.1383 -3491.379 C -444.3316 -3491.379 -444.4883 -3491.5357 -444.4883 -3491.729 C -444.4883 -3491.9223 -444.3316 -3492.079 -444.1383 -3492.079 L -440.6385 -3492.079 C -440.4452 -3492.079 -440.2885 -3491.9223 -440.2885 -3491.729 C -440.2885 -3491.5357 -440.4452 -3491.379 -440.6385 -3491.379 Z" fill="#999"/>
      </g>
    </g>
  </g>
</svg>
