<svg xmlns="http://www.w3.org/2000/svg" viewBox="-415.663 -3507.803 21 21"><g fill="none"><path d="M-415.288-3507.178h20v20h-20z"/><path d="M-395.288-3504.661h-1.613a.275.275 0 0 0-.275.275v1.338a.275.275 0 0 1-.276.275h-.078a.275.275 0 0 1-.276-.275v-1.338a.275.275 0 0 0-.275-.275h-1.337a.275.275 0 0 1-.276-.275v-.079c0-.152.124-.275.276-.275h1.337a.275.275 0 0 0 .275-.276v-1.337c0-.152.124-.276.276-.276h.078c.152 0 .276.124.276.276v1.337c0 .152.123.276.275.276h1.338c.152 0 .275.123.275.275v.354z" fill="#999"/><path d="M-395.288-3504.661h-1.613a.275.275 0 0 0-.275.275v1.338a.275.275 0 0 1-.276.275h-.078a.275.275 0 0 1-.276-.275v-1.338a.275.275 0 0 0-.275-.275h-1.337a.275.275 0 0 1-.276-.275v-.079c0-.152.124-.275.276-.275h1.337a.275.275 0 0 0 .275-.276v-1.337c0-.152.124-.276.276-.276h.078c.152 0 .276.124.276.276v1.337c0 .152.123.276.275.276h1.338c.152 0 .275.123.275.275v.354z" stroke="#999" stroke-linecap="round" stroke-linejoin="round" stroke-width=".5"/><path d="m-414.588-3497.71 5.88-.28 1.4 1.96 5.32.42v7.84h-12.6z" fill="#fff"/><path d="M-413.538-3497.678c-.58 0-1.05.47-1.05 1.05v7.7c0 .58.47 1.05 1.05 1.05h10.5c.58 0 1.05-.47 1.05-1.05v-5.6c0-.58-.47-1.05-1.05-1.05h-3.85a1.4 1.4 0 0 1-1.4-1.4.7.7 0 0 0-.7-.7zm0-.7h4.55a1.4 1.4 0 0 1 1.4 1.4.7.7 0 0 0 .7.7h3.85c.966 0 1.75.783 1.75 1.75v5.6a1.75 1.75 0 0 1-1.75 1.75h-10.5a1.75 1.75 0 0 1-1.75-1.75v-7.7c0-.967.783-1.75 1.75-1.75z" fill="#999"/></g></svg>