<svg height="21" viewBox="-447.663 -3507.803 21 21" width="21" xmlns="http://www.w3.org/2000/svg"><g fill="none"><path d="m-447.28814-3507.1785h20v20h-20z"/><path d="m-427.28814-3504.661h-1.61276c-.1521 0-.27537.1233-.27537.2753v1.3375c0 .1522-.12327.2752-.27533.2752h-.0787c-.15206 0-.27534-.123-.27534-.2752v-1.3375c0-.152-.12326-.2753-.27536-.2753h-1.3374c-.1521 0-.27536-.1233-.27536-.2754v-.0786c0-.152.12326-.2754.27536-.2754h1.3374c.1521 0 .27536-.1233.27536-.2753v-1.3373c0-.1522.12328-.2755.27534-.2755h.0787c.15206 0 .27533.1233.27533.2755v1.3373c0 .152.12327.2753.27537.2753h1.3374c.1521 0 .27536.1234.27536.2754z" fill="#999"/><path d="m-427.28814-3504.661h-1.61276c-.1521 0-.27537.1233-.27537.2753v1.3375c0 .1522-.12327.2752-.27533.2752h-.0787c-.15206 0-.27534-.123-.27534-.2752v-1.3375c0-.152-.12326-.2753-.27536-.2753h-1.3374c-.1521 0-.27536-.1233-.27536-.2754v-.0786c0-.152.12326-.2754.27536-.2754h1.3374c.1521 0 .27536-.1233.27536-.2753v-1.3373c0-.1522.12328-.2755.27534-.2755h.0787c.15206 0 .27533.1233.27533.2755v1.3373c0 .152.12327.2753.27537.2753h1.3374c.1521 0 .27536.1234.27536.2754z" stroke="#999" stroke-linecap="round" stroke-linejoin="round" stroke-width=".5"/><path d="m-446.5726-3500.6503 4.33977-.14 2.93983-.14 2.7999 2.7999-.14 10.2194h-9.9395z" fill="#fff"/><path d="m-436.0887-3498.0084v9.08c0 .9664-.78346 1.7499-1.7499 1.7499h-7.69963c-.96647 0-1.74991-.7835-1.74991-1.7499v-10.4996c0-.9664.78344-1.75 1.74991-1.75h6.2801c.09293-.0057.18963.0253.26706.1027l2.79987 2.7999c.0774.0774.1084.1741.1025.267zm-3.49983-2.4696h-5.9497c-.57987 0-1.04997.4702-1.04997 1.05v10.4996c0 .5798.4701 1.0499 1.04997 1.0499h7.69963c.57986 0 1.04993-.4701 1.04993-1.0499v-8.7496h-2.44987c-.19329 0-.34999-.1567-.34999-.35zm.69997.495v1.605h1.60496zm-5.24974 4.404c-.1933 0-.35-.1565-.35-.3498 0-.1932.1567-.35.35-.35h4.89976c.19329 0 .34998.1568.34998.35 0 .1933-.15669.3498-.34998.3498zm0 2.1c-.1933 0-.35-.1566-.35-.35 0-.193.1567-.35.35-.35h4.89976c.19329 0 .34998.157.34998.35 0 .1934-.15669.35-.34998.35zm0 2.1c-.1933 0-.35-.1567-.35-.35s.1567-.35.35-.35h3.4998c.1933 0 .35.1567.35.35s-.1567.35-.35.35z" fill="#999"/></g></svg>