<svg xmlns="http://www.w3.org/2000/svg" xmlns:xlink="http://www.w3.org/1999/xlink" xml:space="preserve" viewBox="0 0 128 128"><path d="M116.6 45.3c-1.1-2-3-5.6-6.8-8.1-2.2-1.4-5-3.7-6.2-4.8s-11.5-9.4-15.3-11-6.8-1.8-9.4-.5c-2.7 1.4-11.3 5.6-12.5 6.2s-2.5 1.9-2.5 3.8c0-1.9-1.3-3.2-2.5-3.8-1.2-.7-9.8-4.8-12.5-6.2-2.5-1.3-5.6-1.1-9.4.5-3.8 1.7-14.1 10-15.3 11-1.2 1.1-4.1 3.4-6.2 4.8-3.8 2.5-5.7 6.1-6.8 8.1S3 58 3 58v44s12-12.2 15.9-14.9c3.8-2.6 6.1-1 8-.6 7.7 1.6 13-.7 18.5-.9 6.8-.2 10.9 3.3 12.8 5.2 1.2 1.3 4.5 2.2 5.9-1 1.4 3.2 4.6 2.2 5.9 1 1.9-2 6-5.5 12.8-5.2 5.5.2 10.8 2.5 18.5.9 1.8-.4 4.1-2.1 8 .6 3.8 2.7 15.9 14.9 15.9 14.9V58.1c-.4 0-7.5-10.8-8.6-12.8M80.9 70.5c-8.4 3.6-17.1 7.8-17.1 15.5 0-7.7-8.7-11.9-17.1-15.5s-10.2-10.6-9.9-14.2C37.5 43.8 49.4 45 50.2 45c1.3.1 3 .9 4 2.4.9 1.5 3.7 4.6 5.1 5.1 3.5 1.5 4.6-.7 4.6-.7s1.1 2.2 4.6.7c1.4-.6 4.1-3.6 5.1-5.1.9-1.5 2.7-2.3 4-2.4.8-.1 12.7-1.2 13.4 11.3.1 3.6-1.7 10.7-10.1 14.2" style="fill:#ffca28"/><defs><path id="a" d="M116.6 45.3c-1.1-2-3-5.6-6.8-8.1-2.2-1.4-5-3.7-6.2-4.8s-11.5-9.4-15.3-11-6.8-1.8-9.4-.5c-2.7 1.4-11.3 5.6-12.5 6.2s-2.5 1.9-2.5 3.8c0-1.9-1.3-3.2-2.5-3.8-1.2-.7-9.8-4.8-12.5-6.2-2.5-1.3-5.6-1.1-9.4.5-3.8 1.7-14.1 10-15.3 11-1.2 1.1-4.1 3.4-6.2 4.8-3.8 2.5-5.7 6.1-6.8 8.1S3 58 3 58v44s12-12.2 15.9-14.9c3.8-2.6 6.1-1 8-.6 7.7 1.6 13-.7 18.5-.9 6.8-.2 10.9 3.3 12.8 5.2 1.2 1.3 4.5 2.2 5.9-1 1.4 3.2 4.6 2.2 5.9 1 1.9-2 6-5.5 12.8-5.2 5.5.2 10.8 2.5 18.5.9 1.8-.4 4.1-2.1 8 .6 3.8 2.7 15.9 14.9 15.9 14.9V58.1c-.4 0-7.5-10.8-8.6-12.8M80.9 70.5c-8.4 3.6-17.1 7.8-17.1 15.5 0-7.7-8.7-11.9-17.1-15.5s-10.2-10.6-9.9-14.2C37.5 43.8 49.4 45 50.2 45c1.3.1 3 .9 4 2.4.9 1.5 3.7 4.6 5.1 5.1 3.5 1.5 4.6-.7 4.6-.7s1.1 2.2 4.6.7c1.4-.6 4.1-3.6 5.1-5.1.9-1.5 2.7-2.3 4-2.4.8-.1 12.7-1.2 13.4 11.3.1 3.6-1.7 10.7-10.1 14.2"/></defs><clipPath id="b"><use xlink:href="#a" style="overflow:visible"/></clipPath><g style="clip-path:url(#b)"><path d="M57.3 89.5c-.2 1.7-6.2 2.2-6.2 2.2l-49.4 14L1.9 91c3.5-3.1 12-10 13.5-10.9s8-4.1 13.7-1.3c1.5.7 4.7 2 9.4 1.5 7.1-.9 19.7 1.5 18.8 9.2m-1.7-18.8 8.2 10.6v5.2s-.9 0-1.1-.9c-1.1-5.9-8-10-12.2-11.8zm9.3-46.9-.1 13.9s-1 1.1-1.6 1c-.5-.1-1.2-2.5-1.9-3.2s-8.6-4.7-11.1-6c-2-1.1-5-.9-6.1-.6-1.2.3-9.3 3.7-10.6 4.5s-2.2-.7-1.1-1.6c.6-.5 7.2-5.9 8.1-6.6.9-.6.2-2.1-1.1-1.2-4.5 3-18.4 13.7-20 14.9-2.3 1.7-4 3.8-5.1 5.9-.5 1.1-8.2 13.1-11.8 17.7l-1.3-5.9L12.5 37s30.2-20.7 30.4-20.7c.1 0 22 7.5 22 7.5m5.4 65.7c.2 1.7 6.2 2.2 6.2 2.2l49.4 14-.3-14.7c-3.5-3.1-12-10-13.5-10.9s-8-4.1-13.7-1.3c-1.5.7-4.7 2-9.4 1.5-7.1-.9-19.7 1.5-18.7 9.2" style="fill:#faa700"/><path d="m71.9 70.7-8.2 10.6.1 5.2s.8 0 1-.9c1.1-5.9 8-10 12.2-11.8zm-9.3-46.9.1 13.9s1 1.1 1.6 1c.5-.1 1.2-2.5 1.9-3.2s8.6-4.7 11.1-6c2-1.1 5-.9 6.1-.6 1.2.3 11.7 5.2 13 6s2.2-.8 1.2-1.7c-.6-.5-7.1-6.3-7.9-6.9s-.1-1.8 1.1-1c4.4 3 15.8 12.4 17.4 13.6 2.3 1.7 4 3.8 5.1 5.9.5 1.1 8.2 13.1 11.8 17.7l1.3-5.9L115.1 37S84.9 16.3 84.7 16.3s-22.1 7.5-22.1 7.5" style="fill:#faa700"/></g><defs><path id="c" d="M116.6 45.3c-1.1-2-3-5.6-6.8-8.1-2.2-1.4-5-3.7-6.2-4.8s-11.5-9.4-15.3-11-6.8-1.8-9.4-.5c-2.7 1.4-11.3 5.6-12.5 6.2s-2.5 1.9-2.5 3.8c0-1.9-1.3-3.2-2.5-3.8-1.2-.7-9.8-4.8-12.5-6.2-2.5-1.3-5.6-1.1-9.4.5-3.8 1.7-14.1 10-15.3 11-1.2 1.1-4.1 3.4-6.2 4.8-3.8 2.5-5.7 6.1-6.8 8.1S3 58 3 58v44s12-12.2 15.9-14.9c3.8-2.6 6.1-1 8-.6 7.7 1.6 13-.7 18.5-.9 6.8-.2 10.9 3.3 12.8 5.2 1.2 1.3 4.5 2.2 5.9-1 1.4 3.2 4.6 2.2 5.9 1 1.9-2 6-5.5 12.8-5.2 5.5.2 10.8 2.5 18.5.9 1.8-.4 4.1-2.1 8 .6 3.8 2.7 15.9 14.9 15.9 14.9V58.1c-.4 0-7.5-10.8-8.6-12.8M80.9 70.5c-8.4 3.6-17.1 7.8-17.1 15.5 0-7.7-8.7-11.9-17.1-15.5s-10.2-10.6-9.9-14.2C37.5 43.8 49.4 45 50.2 45c1.3.1 3 .9 4 2.4.9 1.5 3.7 4.6 5.1 5.1 3.5 1.5 4.6-.7 4.6-.7s1.1 2.2 4.6.7c1.4-.6 4.1-3.6 5.1-5.1.9-1.5 2.7-2.3 4-2.4.8-.1 12.7-1.2 13.4 11.3.1 3.6-1.7 10.7-10.1 14.2"/></defs><clipPath id="d"><use xlink:href="#c" style="overflow:visible"/></clipPath><g style="clip-path:url(#d)"><path d="M20.7 83.5c-.3-.3.1-.8.5-.5 1.4.9 5.4 2.1 10.2 2 7.6-.2 11.6-1.9 15.2-1.6s7.7 1.6 11.2 5.5c2.3 2.7 4.8 1.7 5.3 0 .1-.5.7-.4.7-.4v2.4s-.9 2-2.7 2.1c-4.2.1-6.3-1.8-7.8-3.9-1.6-2.1-18.9.7-28.5-2.9-1.5-.7-3-1.6-4.1-2.7m41.2-4.1c-.4.4-.8.8-1.7 0-3.8-3.7-8-4.6-14.4-7.4-6.1-2.7-11.6-7.9-11.6-15.7 0-5.6 3.2-14.2 14.1-14 3.5.1 5.7 1.8 6.8 3.6 1.1 1.7 3 3.9 3.6 4.5 1.1 1 3.8 1.8 4.3-.5.2-1.2-.5-8.2-.6-9.4s-1.1-3.7-3.2-4.8c-2.2-1.2-8.2-4.3-9.4-4.9s-4.1-.9-6.6 0C40 32 28.2 38.2 26 39.3c-.4.2-.6-.2-.3-.5s2.4-2.6 4.8-4 11.2-6.3 12.5-7c1.2-.7 4.6-1 6.5 0 2.1 1.1 8.6 4.2 11.3 5.7.7.4 1.6 1 1.8 1.4s.5.1.5 0 .1-4 .8-4v43.5zm45.1 4.1c.3-.3-.1-.8-.5-.5-1.4.9-5.4 2.1-10.2 2-7.6-.2-11.6-1.9-15.2-1.6s-7.7 1.6-11.2 5.5c-2.3 2.7-4.8 1.7-5.3 0-.1-.5-.7-.4-.7-.4v2.4s.9 2 2.7 2.1c4.2.1 6.3-1.8 7.8-3.9 1.6-2.1 18.9.7 28.5-2.9 1.4-.7 3-1.6 4.1-2.7" style="fill:#b55e19"/><path d="M65.8 79.4c.4.4.8.8 1.7 0 3.8-3.7 8-4.6 14.4-7.4 6.1-2.7 11.6-7.9 11.6-15.7 0-5.6-3.2-14.2-14.1-14-3.5.1-5.7 1.8-6.8 3.6-1.1 1.7-3 3.9-3.6 4.5-1.1 1-3.8 1.8-4.3-.5-.2-1.2.5-8.2.6-9.4s1.1-3.7 3.2-4.8c2.2-1.2 8.2-4.3 9.4-4.9s4.1-.9 6.6 0c3.2 1.2 15 7.4 17.2 8.5.4.2.6-.2.3-.5s-2.4-2.6-4.8-4-11.2-6.3-12.5-7-4.6-1-6.5 0c-2.1 1.1-8.6 4.2-11.3 5.7-.7.4-1.6 1-1.8 1.4s-.5.1-.5 0-.1-4-.8-4c-.1.9-.1 1.7-.1 1.7l.1 41.8z" style="fill:#b55e19"/></g></svg>