<svg xmlns="http://www.w3.org/2000/svg" xml:space="preserve" viewBox="0 0 128 128"><path d="M116 4H12c-4.42 0-8 3.58-8 8v104c0 4.42 3.58 8 8 8h104c4.42 0 8-3.58 8-8V12c0-4.42-3.58-8-8-8" style="fill:#f77e00"/><path d="M109.7 4H11.5A7.555 7.555 0 0 0 4 11.5v97.9c-.01 4.14 3.34 7.49 7.48 7.5h98.12c4.14.01 7.49-3.34 7.5-7.48V11.5c.09-4.05-3.13-7.41-7.18-7.5z" style="fill:#ff9800"/><path d="M39.7 12.9c0-2.3-1.6-3-10.8-2.7-7.7.3-11.5 1.2-13.8 4s-2.9 8.5-3 15.3c0 4.8 0 9.3 2.5 9.3 3.4 0 3.4-7.9 6.2-12.3 5.4-8.7 18.9-10.6 18.9-13.6" style="opacity:.75;fill:#ffbd52"/><g style="opacity:.2"><path d="M64 36c.94.02 1.8.51 2.3 1.3L95.5 88c.73 1.29.28 2.92-1.01 3.65-.39.22-.84.34-1.29.35H34.8a2.68 2.68 0 0 1-2.3-4l29.2-50.7A2.79 2.79 0 0 1 64 36" style="fill:#424242"/></g><path d="M64 92h29.2a2.68 2.68 0 0 0 2.3-4L66.3 37.3a2.63 2.63 0 0 0-3.58-1.02c-.43.24-.79.59-1.02 1.02L32.5 88a2.674 2.674 0 0 0 1.01 3.65c.39.22.84.34 1.29.35z" style="fill:#fafafa"/></svg>