<svg xmlns="http://www.w3.org/2000/svg" xml:space="preserve" viewBox="0 0 128 128"><path d="m26.87 62.99 5.68-19.87L80.18 99.3l-15.51 1.5z" style="fill:#bf8400"/><path d="M4 5.86V124h118.14c.69 0 1.03-.83.54-1.32L5.32 5.32C4.83 4.83 4 5.17 4 5.86M28.62 60.1l41.37 40.7H28.62z" style="fill:#eaa700"/><path d="M26.87 101.81 4 124h118.14c.69 0 1.03-.83.54-1.32l-5.3-5.3z" style="fill:#bf8400"/><linearGradient id="a" x1="30.678" x2="81.288" y1="97.322" y2="46.712" gradientUnits="userSpaceOnUse"><stop offset=".546" style="stop-color:#fdd835"/><stop offset=".776" style="stop-color:#f9a825"/></linearGradient><path d="M7.12 8.81v111.36c0 .39.31.7.7.7h111.36c.62 0 .94-.76.5-1.2L8.32 8.32c-.44-.44-1.2-.13-1.2.49m21.77 52.5 37.8 37.8h-37.8z" style="fill:url(#a)"/><path d="M10.05 19.82c-.5.5-.5 1.32 0 1.82l1.01 1.01c.5.5 1.32.5 1.82 0l4.89-4.89-2.83-2.83z" style="fill:#795548"/><linearGradient id="b" x1="51.754" x2="53.311" y1="109.918" y2="108.36" gradientTransform="translate(-37.775 -91.197)" gradientUnits="userSpaceOnUse"><stop offset="0" style="stop-color:#5d4037;stop-opacity:0"/><stop offset="1" style="stop-color:#5d4037"/></linearGradient><path d="m14.94 14.94-2.35 2.35 2.82 2.82 2.35-2.35z" style="fill:url(#b)"/><path d="M28.85 38.62c-.5.5-.5 1.32 0 1.82l1.01 1.01c.5.5 1.32.5 1.82 0l4.89-4.89-2.83-2.83z" style="fill:#795548"/><linearGradient id="c" x1="70.553" x2="72.111" y1="128.717" y2="127.16" gradientTransform="translate(-37.775 -91.197)" gradientUnits="userSpaceOnUse"><stop offset="0" style="stop-color:#5d4037;stop-opacity:0"/><stop offset="1" style="stop-color:#5d4037"/></linearGradient><path d="m33.74 33.73-2.35 2.35 2.82 2.83 2.35-2.35z" style="fill:url(#c)"/><path d="M47.65 57.42c-.5.5-.5 1.32 0 1.82l1.01 1.01c.5.5 1.32.5 1.82 0l4.89-4.89-2.83-2.83z" style="fill:#795548"/><linearGradient id="d" x1="89.353" x2="90.91" y1="147.517" y2="145.959" gradientTransform="translate(-37.775 -91.197)" gradientUnits="userSpaceOnUse"><stop offset="0" style="stop-color:#5d4037;stop-opacity:0"/><stop offset="1" style="stop-color:#5d4037"/></linearGradient><path d="m52.54 52.53-2.36 2.35 2.83 2.83 2.35-2.35z" style="fill:url(#d)"/><path d="M66.45 76.22c-.5.5-.5 1.32 0 1.82l1.01 1.01c.5.5 1.32.5 1.82 0l4.89-4.89-2.83-2.83z" style="fill:#795548"/><linearGradient id="e" x1="108.152" x2="109.709" y1="166.316" y2="164.758" gradientTransform="translate(-37.775 -91.197)" gradientUnits="userSpaceOnUse"><stop offset="0" style="stop-color:#5d4037;stop-opacity:0"/><stop offset="1" style="stop-color:#5d4037"/></linearGradient><path d="m71.33 71.33-2.35 2.35 2.83 2.83 2.35-2.35z" style="fill:url(#e)"/><path d="M85.25 95.02c-.5.5-.5 1.32 0 1.82l1.01 1.01c.5.5 1.32.5 1.82 0l4.89-4.89-2.83-2.83z" style="fill:#795548"/><linearGradient id="f" x1="126.951" x2="128.509" y1="185.115" y2="183.558" gradientTransform="translate(-37.775 -91.197)" gradientUnits="userSpaceOnUse"><stop offset="0" style="stop-color:#5d4037;stop-opacity:0"/><stop offset="1" style="stop-color:#5d4037"/></linearGradient><path d="m90.13 90.13-2.35 2.35 2.83 2.83 2.35-2.35z" style="fill:url(#f)"/><path d="M104.05 113.82c-.5.5-.5 1.32 0 1.82l1.01 1.01c.5.5 1.32.5 1.82 0l4.89-4.89-2.83-2.83z" style="fill:#795548"/><linearGradient id="g" x1="145.751" x2="147.308" y1="203.915" y2="202.357" gradientTransform="translate(-37.775 -91.197)" gradientUnits="userSpaceOnUse"><stop offset="0" style="stop-color:#5d4037;stop-opacity:0"/><stop offset="1" style="stop-color:#5d4037"/></linearGradient><path d="m108.93 108.93-2.35 2.35 2.83 2.83 2.35-2.35z" style="fill:url(#g)"/><path d="M34.04 51.49c-.5.5-.5 1.32 0 1.82l1.75 1.75c.5.5 1.32.5 1.82 0l8.23-8.23-3.57-3.57z" style="fill:#795548"/><linearGradient id="h" x1="80.15" x2="81.425" y1="137.919" y2="136.644" gradientTransform="translate(-37.775 -91.197)" gradientUnits="userSpaceOnUse"><stop offset="0" style="stop-color:#5d4037;stop-opacity:0"/><stop offset="1" style="stop-color:#5d4037"/></linearGradient><path d="m42.77 42.76-2.36 2.35 3.57 3.57 2.35-2.35z" style="fill:url(#h)"/><path d="M52.84 70.29c-.5.5-.5 1.32 0 1.82l1.75 1.75c.5.5 1.32.5 1.82 0l8.23-8.23-3.57-3.57z" style="fill:#795548"/><linearGradient id="i" x1="98.949" x2="100.225" y1="156.718" y2="155.443" gradientTransform="translate(-37.775 -91.197)" gradientUnits="userSpaceOnUse"><stop offset="0" style="stop-color:#5d4037;stop-opacity:0"/><stop offset="1" style="stop-color:#5d4037"/></linearGradient><path d="m61.56 61.56-2.35 2.35 3.57 3.57 2.35-2.35z" style="fill:url(#i)"/><path d="M15.24 32.69c-.5.5-.5 1.32 0 1.82l1.75 1.75c.5.5 1.32.5 1.82 0l8.23-8.23-3.57-3.57z" style="fill:#795548"/><linearGradient id="j" x1="61.35" x2="62.626" y1="119.12" y2="117.844" gradientTransform="translate(-37.775 -91.197)" gradientUnits="userSpaceOnUse"><stop offset="0" style="stop-color:#5d4037;stop-opacity:0"/><stop offset="1" style="stop-color:#5d4037"/></linearGradient><path d="m23.97 23.96-2.35 2.35 3.56 3.57 2.35-2.35z" style="fill:url(#j)"/><path d="M71.64 89.09c-.5.5-.5 1.32 0 1.82l1.75 1.75c.5.5 1.32.5 1.82 0l8.23-8.23-3.57-3.57z" style="fill:#795548"/><linearGradient id="k" x1="117.749" x2="119.024" y1="175.518" y2="174.242" gradientTransform="translate(-37.775 -91.197)" gradientUnits="userSpaceOnUse"><stop offset="0" style="stop-color:#5d4037;stop-opacity:0"/><stop offset="1" style="stop-color:#5d4037"/></linearGradient><path d="m80.36 80.36-2.35 2.35 3.57 3.57 2.35-2.35z" style="fill:url(#k)"/><path d="M90.44 107.89c-.5.5-.5 1.32 0 1.82l1.75 1.75c.5.5 1.32.5 1.82 0l8.23-8.23-3.57-3.57z" style="fill:#795548"/><linearGradient id="l" x1="136.548" x2="137.823" y1="194.317" y2="193.042" gradientTransform="translate(-37.775 -91.197)" gradientUnits="userSpaceOnUse"><stop offset="0" style="stop-color:#5d4037;stop-opacity:0"/><stop offset="1" style="stop-color:#5d4037"/></linearGradient><path d="m99.16 99.16-2.35 2.35 3.57 3.57 2.35-2.35z" style="fill:url(#l)"/></svg>