<svg xmlns="http://www.w3.org/2000/svg" xml:space="preserve" viewBox="0 0 128 128"><path d="M42.22 41.58V30.96l-.86.05v-6.54l8.25-.05v6.44h-.85v6.24z" style="fill:#de7541"/><path d="M63.86 29.84 42.99 49.86l.98 24.6 42.25-.28-.44-26.04z" style="fill:#fff3e1"/><path d="m42.19 74.64 2.03-1.22V49.39l-1.89 1.37s.21 23.88-.14 23.88M84.2 50.26v23.36l2.24 1.26V51.13z" style="fill:#5f4e47"/><path d="M64.37 31.22 42.34 51.9l-.13-5.61 22.5-21.32 21.75 22.52-.02 5z" style="fill:#bda890"/><path d="m40.09 45.3-1.22 3.25 3.4.04S64.01 27.32 64.48 27.3c.57-.02 21.96 21.19 21.96 21.19l3.04.02-23.65-25.74-3.44-.23z" style="fill:#904625"/><path d="M35.94 46.93c-.66.63-.28 1.54.32 1.59.62.05 3.55.04 3.55.04l23.66-23.92s.55-.56.94-.54c.42.02.97.55.97.55l23.89 23.83s1.77.04 2.33.01c.92-.06 1.11-1.11.07-2.03-.47-.42-24.18-24.01-24.58-24.43-1.18-1.22-1.76-1.93-2.88-1.89-1.12.05-1.79.88-2.91 1.91-.35.31-25.19 24.71-25.36 24.88" style="fill:#dc7540"/><path d="M56.9 72.49s.09-14.22.17-17.53 3.19-5.96 6.78-6.05c4.59-.11 6.74 2.66 6.91 5.89.16 3.23.16 17.68.16 17.68z" style="fill:#d27857"/><path d="M66.63 62.52c-.03.89.33 1.61 1.38 1.61s1.44-.49 1.51-1.45c.07-.86-.53-1.61-1.51-1.55s-1.35.76-1.38 1.39" style="fill:#ffba02"/><path d="M60.16 44.79s.07-3.81.11-5.62 1.74-3.26 3.71-3.31c2.41-.06 3.69 1.45 3.78 3.22s.07 5.7.07 5.7z" style="fill:#a6cfd6"/><path d="M11.16 73.63V63.36l-.82.05v-6.33l7.98-.05v6.23h-.83v6.04z" style="fill:#ab5832"/><path d="M33.18 61.86 10.97 83.18l-.03 25.12 44.97-.3.6-26.66z" style="fill:#ede0d6"/><path d="m10.11 109.66 2.2-.18-.03-26.82-2.02 1.46c0 .01-.14 25.19-.15 25.54m44.73-26.07-.15 24.84 2.53 1.48V84.52z" style="fill:#5f4e47"/><path d="m33.73 63.33-23.5 22.05-.01-6.1 23.86-22.61 23.16 23.98-.02 5.32z" style="fill:#bcafaa"/><path d="m7.88 78.31-.27 3.51 2.62-.02s23.11-22.63 23.61-22.65c.61-.03 23.38 22.63 23.38 22.63l3.07.02-25.01-27.46-3.66-.24z" style="fill:#7f4935"/><path d="M3.5 80.07c-.7.68-.3 1.7.33 1.73.56.02 3.81.02 3.81.02L32.8 56.34s.58-.6 1-.58c.45.02 1.03.59 1.03.59L60.21 81.8s1.89.02 2.52.04c.81.03 1.07-1.15-.03-2.13-.5-.45-25.62-25.71-26.05-26.15-1.26-1.3-1.88-2.06-3.07-2.01s-1.9.93-3.1 2.03c-.35.33-26.8 26.31-26.98 26.49" style="fill:#bb8064"/><path d="M25.77 108.33s.09-16.2.18-19.72 3.39-6.35 7.22-6.44c4.88-.12 7.18 2.83 7.35 6.27s.17 19.88.17 19.88z" style="fill:#865c51"/><path d="M36.13 96.65c-.04.95.35 1.72 1.47 1.72s1.53-.53 1.61-1.54c.07-.91-.56-1.72-1.61-1.65s-1.44.8-1.47 1.47" style="fill:#ffb700"/><path d="m10.11 109.67 2.19-1.94 42.38-.01 2.54 2.2z" style="fill:#beb4ac"/><path d="M29.25 77.77s.07-4.06.12-5.98 1.85-3.47 3.95-3.52c2.57-.06 3.93 1.55 4.02 3.43.1 1.88.08 6.07.08 6.07z" style="fill:#6ca4ae"/><path d="M110.19 73.68V63.41l-.83.04v-6.33l7.98-.04v6.23h-.82v11.04z" style="fill:#ab5832"/><path d="M94.14 62.07 71.93 83.39l1.44 25.83 43.69.34.42-28.01z" style="fill:#f5e1d1"/><path d="m71.02 110.3 2.22-.84V82.88l-2.02 1.46s.17 25.96-.2 25.96m44.78-26.49.01 25.59 2.38 1.17-.01-25.84z" style="fill:#5f4e47"/><path d="M94.69 63.54 71.23 86.35l-.05-6.86 23.87-22.61 23.15 23.98-.02 5.32z" style="fill:#d2a67c"/><path d="m68.84 78.52-.42 3.4 2.78.09s23.11-22.63 23.61-22.65c.61-.03 23.39 22.56 23.39 22.56l3.05.02-25.01-27.39-3.66-.24z" style="fill:#893f2e"/><path d="M64.46 80.28c-.61.6-.34 1.53.37 1.58.39.03 3.6.06 3.6.06l25.33-25.37s.58-.6 1-.58c.45.02 1.03.59 1.03.59l25.46 25.38s1.96.01 2.43-.01c.97-.04 1.29-.96.1-2.16-.47-.47-25.74-25.56-26.16-26-1.26-1.3-1.88-2.06-3.07-2.01s-1.9.93-3.1 2.03c-.36.33-26.8 26.31-26.99 26.49" style="fill:#c67260"/><path d="M86.74 108.54s.09-16.2.18-19.72 3.39-6.35 7.22-6.44c4.88-.12 7.18 2.83 7.35 6.27s.17 19.88.17 19.88z" style="fill:#ab5832"/><path d="M97.1 96.86c-.04.95.35 1.72 1.47 1.72s1.53-.53 1.61-1.54c.07-.91-.56-1.72-1.61-1.65s-1.45.8-1.47 1.47" style="fill:#feb800"/><path d="m71.07 110.31 2.12-1.95 42.62.01 2.37 2.19z" style="fill:#d4a37d"/><path d="M90.21 77.98s.07-4.06.12-5.98 1.85-3.47 3.95-3.52c2.57-.06 3.93 1.55 4.02 3.43.1 1.88.08 6.07.08 6.07z" style="fill:#6ca4ae"/></svg>