<svg xmlns="http://www.w3.org/2000/svg" xml:space="preserve" viewBox="0 0 128 128"><path d="M116 4H12c-4.4 0-8 3.6-8 8v104c0 4.4 3.6 8 8 8h104c4.4 0 8-3.6 8-8V12c0-4.4-3.6-8-8-8" style="fill:#427687"/><path d="M109.7 4H11.5C7.4 4 4 7.4 4 11.5v97.9c0 4.2 3.4 7.5 7.5 7.5h98.1c4.2 0 7.5-3.4 7.5-7.5V11.5c.2-4.1-3.3-7.5-7.4-7.5" style="fill:#8cafbf"/><path d="M39.7 12.9c0-2.3-1.6-3-10.8-2.7-7.7.3-11.5 1.2-13.8 4s-2.9 8.5-3 15.3c0 4.8 0 9.3 2.5 9.3 3.4 0 3.4-7.9 6.2-12.3 5.4-8.7 18.9-10.6 18.9-13.6" style="opacity:.5;fill:#b4e1ed"/><path d="m38.02 30.78-5.4 3.93-3.46-5.29 10.53-7.59h5.19v35.83h-6.86zm36 20.64c7.26-7.19 11.61-11.58 13.04-13.15 1.26-1.36 2.12-2.5 2.59-3.4.47-.91.71-1.94.71-3.09 0-1.22-.45-2.25-1.36-3.09s-2.11-1.26-3.61-1.26c-1.47 0-2.65.42-3.56 1.26s-1.55 1.89-1.94 3.14l-6.18-2.57c.38-1.36 1.09-2.68 2.12-3.95s2.37-2.31 4.01-3.12c1.64-.8 3.53-1.2 5.66-1.2 2.37 0 4.45.46 6.23 1.39s3.16 2.18 4.14 3.77 1.47 3.36 1.47 5.32c0 3.88-1.89 7.67-5.66 11.37-1.54 1.5-4.38 4.33-8.54 8.49l.16.31h14.5v6.02H74.02zm-40.37 52.49c-2.32-1.61-3.92-3.95-4.79-7.02l6.5-2.57q.63 2.565 2.25 3.96c1.08.93 2.44 1.39 4.09 1.39 1.5 0 2.8-.45 3.9-1.36s1.65-2.06 1.65-3.46c0-1.5-.58-2.7-1.75-3.59s-2.75-1.34-4.74-1.34h-3.09v-6.23h2.83c1.54 0 2.84-.38 3.9-1.15s1.6-1.89 1.6-3.35c0-1.19-.44-2.16-1.31-2.93s-1.99-1.15-3.35-1.15c-1.43 0-2.58.38-3.46 1.15q-1.305 1.155-1.83 2.88l-6.23-2.57c.73-2.1 2.09-3.91 4.06-5.45s4.48-2.3 7.52-2.3q3.345 0 6 1.26c1.76.84 3.13 1.98 4.11 3.43s1.47 3.08 1.47 4.9c0 1.92-.45 3.56-1.34 4.92s-1.96 2.36-3.22 2.99v.42c1.75.7 3.16 1.8 4.24 3.3s1.62 3.32 1.62 5.45c0 2.06-.52 3.91-1.57 5.55s-2.52 2.93-4.43 3.88q-2.85 1.41-6.57 1.41c-3.06-.01-5.74-.82-8.06-2.42m56.56-5.03h-16.5v-5.55l15.92-23.67h7.44V92.5h4.45v6.39h-4.45v6.6h-6.86zm0-6.39V79.87h-.42L81.3 92.49z" style="fill:#fafafa"/></svg>