<svg xmlns="http://www.w3.org/2000/svg" xml:space="preserve" viewBox="0 0 128 128"><path d="m4.01 47.94 17.48-26.51L35.03 36.9z" style="fill:#e1f5fe"/><path d="M44.11 68.26 4.01 47.94 35.03 36.9z" style="fill:#81d4fa"/><path d="M63.94 43.06 35.03 36.9l9.08 31.36z" style="fill:#64b5f6"/><path d="m123.87 47.94-17.48-26.51L92.85 36.9z" style="fill:#0288d1"/><path d="m83.77 68.26 40.1-20.32L92.85 36.9z" style="fill:#81d4fa"/><path d="m63.94 43.06 28.91-6.16-9.08 31.36z" style="fill:#e1f5fe"/><path d="m83.77 68.26-19.83-25.2-19.83 25.2z" style="fill:#b2ebf2"/><path d="M43 10.06h41.88l21.51 11.37L92.85 36.9l-28.91 6.16-28.91-6.16-13.54-15.47z" style="fill:#b3e5fc"/><path d="M63.94 117.27 4.01 47.94l40.1 20.32z" style="fill:#1e88e5"/><path d="m63.94 117.27 59.93-69.33-40.1 20.32z" style="fill:#b3e5fc"/><path d="m83.77 68.26-19.83 49.01-19.83-49.01z" style="fill:#e1f5fe"/></svg>