<svg xmlns="http://www.w3.org/2000/svg" xmlns:xlink="http://www.w3.org/1999/xlink" xml:space="preserve" viewBox="0 0 128 128"><path d="M39 75.9C37 73.4 29 62.5 19.1 62c-2.5-.1-10.7 1.4-7.2 8.7 2.5 5.1 11.8 8.3 21.5 26.6 3 5.6 13 23.8 33.7 23.8 10.4 0 25-4.9 29.7-21.1 3.8-12.9 4.7-27.7-.6-63.2C94.6 26.2 86 29 85.3 34.6c-.5-5.9-.7-11.3-1.5-14.4-1.1-4.8-3.6-6.5-6-6.6-3.1-.2-6.1 2.4-6.6 6.8-.4-3.6-.7-6.4-.8-7.4-1.2-7.5-10.8-7.7-12.3-.3-.7 3.3-1 6.6-1 9.9-.8-12.6-11.7-10.7-12.8-3.2C42.5 31.9 41.2 65 39 75.9" style="fill:#ffca28"/><defs><path id="a" d="M39 75.9C37 73.4 29 62.5 19.1 62c-2.5-.1-10.7 1.4-7.2 8.7 2.5 5.1 11.8 8.3 21.5 26.6 3 5.6 13 23.8 33.7 23.8 10.4 0 25-4.9 29.7-21.1 3.8-12.9 4.7-27.7-.6-63.2C94.6 26.2 86 29 85.3 34.6c-.5-5.9-.7-11.3-1.5-14.4-1.1-4.8-3.6-6.5-6-6.6-3.1-.2-6.1 2.4-6.6 6.8-.4-3.6-.7-6.4-.8-7.4-1.2-7.5-10.8-7.7-12.3-.3-.7 3.3-1 6.6-1 9.9-.8-12.6-11.7-10.7-12.8-3.2C42.5 31.9 41.2 65 39 75.9"/></defs><clipPath id="b"><use xlink:href="#a" style="overflow:visible"/></clipPath><g style="clip-path:url(#b)"><path d="M22.9 64.7c-3.1-1.9-12.2-.2-8.4 5.5 3.1 4.6 10.3 8.2 15.7 16.9 3.4 5.5 9.7 20.3 20.8 26.8 11.2 6.5 22.8 6 31.5 1.6s2.6 2.8 2.6 2.8l-19.5 6-17.4-3.2L9.6 71.8l-.3-9.7 13.2-3.3z" style="fill:#faa700"/><path d="M35.2 75c.5 4.9 5.8 4.4 6.3.9.2-1.4.8-6 1.3-10.8C44.5 49 46.4 20.9 46.5 20c.7-5.5 8-4.6 8.3.3.1 2 1.7 1.2 1.7.2s-.3-7.9-.3-7.9H43.6zm21.2-38.2c.8-.1 2.1-.8 2.1-2.7s1.2-17.4 1.3-19c.5-7.4 7.4-6.7 8.4-3 .5 1.9 2.7.9 2.6-.2-.1-1.2-.8-6.3-6-6.2s-7.7 3-7.7 6.1-.7 25-.7 25m14.8 3.3c.4-.1 1.3-1.3 1.4-3s.9-15 1.1-16.6c.8-7 7.8-5.1 8.3-1.1.2 1.6 2.3 1.2 2.3.2s-.4-8.2-6.2-8.2-6.9 5.7-6.9 5.7zm14 13c.5-.3 1.5-.7 1.5-2.6 0-1.8.8-14.4.8-15.2.3-4.9 5.8-4.1 6.2-.8.2 1.8 3.3 1.2 3.2 0s-1-6.9-6.5-6.6c-5.4.3-6 5.4-6 5.4zM49 68.4c.1-2.4 1.9-2.6 2.9-1 1.3 2.3 1.2 5.7-.2 7.7-.7 1.1-2 1.1-2.5-.2s-.2-6.2-.2-6.5m15 .6c.1-2.4 1.9-2.6 2.9-1 1.3 2.3 1.2 5.7-.2 7.7-.7 1.1-2 1.1-2.5-.2-.6-1.2-.3-6.1-.2-6.5m13.8.9c.1-2.3 1.9-2.5 2.9-.9 1.3 2.2 1.2 5.4-.2 7.4-.7 1-2 1-2.5-.2-.5-1.3-.2-6-.2-6.3m12.3 1.4c.1-2 1.8-2.2 2.7-.8 1.3 1.9 1.1 4.7-.2 6.4-.7.9-1.9.9-2.4-.2-.4-1-.1-5.1-.1-5.4" style="fill:#faa700"/></g><defs><path id="c" d="M39 75.9C37 73.4 29 62.5 19.1 62c-2.5-.1-10.7 1.4-7.2 8.7 2.5 5.1 11.8 8.3 21.5 26.6 3 5.6 13 23.8 33.7 23.8 10.4 0 25-4.9 29.7-21.1 3.8-12.9 4.7-27.7-.6-63.2C94.6 26.2 86 29 85.3 34.6c-.5-5.9-.7-11.3-1.5-14.4-1.1-4.8-3.6-6.5-6-6.6-3.1-.2-6.1 2.4-6.6 6.8-.4-3.6-.7-6.4-.8-7.4-1.2-7.5-10.8-7.7-12.3-.3-.7 3.3-1 6.6-1 9.9-.8-12.6-11.7-10.7-12.8-3.2C42.5 31.9 41.2 65 39 75.9"/></defs><clipPath id="d"><use xlink:href="#c" style="overflow:visible"/></clipPath><g style="clip-path:url(#d)"><path d="M37.7 70.7C39 72.4 39 75 39 75.9s-1.3 2.9-2.9 1.4-8.7-12.1-19.3-14.5c-1.2-.3-.7-1.6.7-1.5 1.2 0 10.8-2.8 20.2 9.4m19.4-48.2c.1 3 .3 34.8.3 35.6s.6 1.8.6 2.5c0 1.3-1.1 1.3-2.3 1.4s-2.4.3-2.4-1c0-1.1.8-1.3.7-2.7s.7-36.5.7-38-.3-4.5-2.4-6c-.8-.6.2-1.4.7-1.1s2.9 1.2 3.3 3.2.8 6.1.8 6.1m14.2-2.2c0 2.9.7 37 .7 37.8.1 1.5.8 1.7.8 2.9 0 1.3-1.1 1.1-2.3 1.1-1.1 0-2.3.1-2.3-1.1 0-1.4.7-.8.7-3 0-1.5 0-40.4-.4-43.4-.5-5.1-2.3-6.4-2.8-6.6-.4-.3-.5-1.1.5-.8.7.2 3.7.6 4.6 3.4s.5 9.7.5 9.7m14.1 14.2c.1 2.4.5 25.4.6 26.3s.6 1.3.6 2.5c0 1.3-1 1.1-2 .9s-1.9-.3-2-1.4c-.1-1.3.8-.9.7-2.3 0-1.4-.7-36.2-1.3-39.9-.3-2-1.2-5.5-3.6-6.7-.4-.2-.6-1.1.4-1.1.9 0 4.3.6 5.6 4.3.8 2.5 1 17.4 1 17.4" style="fill:#b55e19"/><path d="M66.2 120.6c9.7-2.3 31.5-3.7 31-44.8-.2-16.9-2.9-38.6-3.5-41.4-.3-1.5-1-3.4-2.2-4.1-.4-.2-.3-.8.4-.7s5.7.6 6.1 3.1 5.9 53.7 5.9 53.7l-10.4 31.3-17.9 4s-8.8-.1-9.3 0-1.1-.9-.1-1.1" style="fill:#b55e19"/></g></svg>