<svg xmlns="http://www.w3.org/2000/svg" xml:space="preserve" viewBox="0 0 128 128"><linearGradient id="a" x1="41.441" x2="39.066" y1="113.507" y2="116.674" gradientUnits="userSpaceOnUse"><stop offset=".083" style="stop-color:#000"/><stop offset="1" style="stop-color:#000;stop-opacity:0"/></linearGradient><path d="m35.54 113.91 7.22 5.45v-6l-6.59-.43z" style="opacity:.6;fill:url(#a)"/><linearGradient id="b" x1="41.441" x2="39.066" y1="83.465" y2="86.632" gradientUnits="userSpaceOnUse"><stop offset=".083" style="stop-color:#000"/><stop offset="1" style="stop-color:#000;stop-opacity:0"/></linearGradient><path d="m35.54 83.87 7.22 5.45v-6l-6.59-.44z" style="opacity:.6;fill:url(#b)"/><linearGradient id="c" x1="41.441" x2="39.066" y1="53.423" y2="56.59" gradientUnits="userSpaceOnUse"><stop offset=".083" style="stop-color:#000"/><stop offset="1" style="stop-color:#000;stop-opacity:0"/></linearGradient><path d="m35.54 53.83 7.22 5.45v-6l-6.59-.44z" style="opacity:.6;fill:url(#c)"/><linearGradient id="d" x1="41.441" x2="39.066" y1="23.382" y2="26.549" gradientUnits="userSpaceOnUse"><stop offset=".083" style="stop-color:#000"/><stop offset="1" style="stop-color:#000;stop-opacity:0"/></linearGradient><path d="m35.54 23.79 7.22 5.45v-6l-6.59-.44z" style="opacity:.6;fill:url(#d)"/><path d="M85.24 3.99h9.97v120.02h-9.97z" style="fill:#9e673c" transform="rotate(-180 90.223 64)"/><path d="M37.46 60.69h120v6.61h-120z" style="fill:#e6a467" transform="rotate(90 97.457 63.988)"/><path d="m92.46 113.91-7.22 5.45v-6l6.6-.43zm0-30.04-7.22 5.45v-6l6.6-.44zm0-30.04-7.22 5.45v-6l6.6-.44zm0-30.04-7.22 5.45v-6l6.6-.44z" style="opacity:.6;fill:#784d30"/><path d="m92.63 19.25-57.51.21.62-1.54 4.99-3.67c.21-.16.47-.25.73-.25l43.39.38c.28 0 .56.1.78.28l6.52 3.3z" style="fill:#ffcc80"/><path d="M91.61 24.03H36.17c-.58 0-1.04-.47-1.04-1.04v-4.13c0-.58.47-1.04 1.04-1.04h55.44c.58 0 1.04.47 1.04 1.04v4.13c0 .58-.47 1.04-1.04 1.04" style="fill:#e6a467"/><path d="m92.63 109.18-57.51.21.62-1.54 4.99-3.67c.22-.16.47-.24.73-.24l43.39.38c.28 0 .56.1.78.28l6.52 3.3z" style="fill:#ffcc80"/><path d="M91.61 113.97H36.17c-.58 0-1.04-.47-1.04-1.04v-4.13c0-.58.47-1.04 1.04-1.04h55.44c.58 0 1.04.47 1.04 1.04v4.13c0 .58-.47 1.04-1.04 1.04" style="fill:#e6a467"/><path d="m92.63 79.21-57.51.21.62-1.54 4.99-3.67c.22-.16.47-.24.73-.24l43.39.38c.28 0 .56.1.78.28l6.52 3.3z" style="fill:#ffcc80"/><path d="M91.61 83.99H36.17c-.58 0-1.04-.47-1.04-1.04v-4.13c0-.58.47-1.04 1.04-1.04h55.44c.58 0 1.04.47 1.04 1.04v4.13c0 .58-.47 1.04-1.04 1.04" style="fill:#e6a467"/><path d="m92.63 49.23-57.51.21.62-1.54 4.99-3.67c.22-.16.47-.24.73-.24l43.39.38c.28 0 .56.1.78.28l6.52 3.3z" style="fill:#ffcc80"/><path d="M91.61 54.01H36.17c-.58 0-1.04-.47-1.04-1.04v-4.13c0-.58.47-1.04 1.04-1.04h55.44c.58 0 1.04.47 1.04 1.04v4.13c0 .58-.47 1.04-1.04 1.04" style="fill:#e6a467"/><path d="M27.24 3.99h9.97v120.02h-9.97z" style="fill:#9e673c" transform="rotate(-180 32.223 64)"/><path d="M-20.54 60.69h120v6.61h-120z" style="fill:#e6a467" transform="rotate(90 39.457 63.988)"/></svg>