<svg xmlns="http://www.w3.org/2000/svg" xmlns:xlink="http://www.w3.org/1999/xlink" xml:space="preserve" viewBox="0 0 128 128"><path d="M90.7 74.7c.1.4.5.5.8.2 3.7-4.5 13.6-17 25-13.7 3.6 1 5.3 5.1 3.9 8.2-2.3 4.9-14.7 13.2-21.1 24-1 1.7-9.6 21.6-24.1 27.4S37.3 126 29.2 99c-3-10.1-2.7-17.5-4-28.2-.5-3.8-4.5-30.9-4.2-35.6.3-6.4 8.2-7.5 10.4-3.9-.8-4.1-1.8-8.5-2.1-11.5-.8-7.4 7.6-9.6 10.8-4.3 3.7 6.1 8.2 24.6 14.9 42 .6 1.5 2.9 1.1 3.3-1.1.3-1.6 4.8-39.1 7.7-47.3 2.3-6.4 12-6.7 12.7 1.3.1 1.3 0 3.2.1 4.6 1.5-4.3 10.4-4.3 10.9 3.3 1.1 15.2-1.1 43.1 1 56.4" style="fill:#ffca28"/><defs><path id="a" d="M90.7 74.7c.1.4.5.5.8.2 3.7-4.5 13.6-17 25-13.7 3.6 1 5.3 5.1 3.9 8.2-2.3 4.9-14.7 13.2-21.1 24-1 1.7-9.6 21.6-24.1 27.4S37.3 126 29.2 99c-3-10.1-2.7-17.5-4-28.2-.5-3.8-4.5-30.9-4.2-35.6.3-6.4 8.2-7.5 10.4-3.9-.8-4.1-1.8-8.5-2.1-11.5-.8-7.4 7.6-9.6 10.8-4.3 3.7 6.1 8.2 24.6 14.9 42 .6 1.5 2.9 1.1 3.3-1.1.3-1.6 4.8-39.1 7.7-47.3 2.3-6.4 12-6.7 12.7 1.3.1 1.3 0 3.2.1 4.6 1.5-4.3 10.4-4.3 10.9 3.3 1.1 15.2-1.1 43.1 1 56.4"/></defs><clipPath id="b"><use xlink:href="#a" style="overflow:visible"/></clipPath><g style="clip-path:url(#b)"><path d="M88.6 73.8c-16.9 1.9-30.1 11.7-29.5 30.9 0 1.6 2.4 1.6 2.5-.1.5-9.1 5.5-23 26.6-27.3 1.1 1.7 3.8 1.3 4.8.1 6.4-7.8 11.8-14.1 20.7-14.1 3.4 0 5.9 3.1 3.7 6.9 0 0 1.8 1.4 2.6 2 1.6-1.6 4.8-4.4 4.8-4.5s-7.9-10.8-7.9-10.8l-15.2 3.4zM75.9 25c.7.1 1.2.2 1.7.2.4-1.7.8-4.3 1.4-6.8 1.2-4.6 6.2-5.5 8.1-2.5 1.1 1.7 3.3-.3 2.8-1.2s-1.4-4.3-6.4-4.3c-4 .1-5.8 2.4-6.4 5.8-1 5.7-1.2 8.8-1.2 8.8" style="fill:#faa700"/><path d="M56.4 60.5c1.5 0 3.8-.6 4.3-4 .3-2 6-39.7 6.9-45.2.8-5.2 8.1-6.3 8.9-.6.3 1.9 3.5-.3 3.2-1.7-.3-1.5-1.7-6-7.4-6s-7.7 3.2-8 4.8C64 9.2 56 45.8 54.4 57c-.1 1.6.6 3.4 2 3.5m5.2 62.3v2.4l-13.2-.3-21.1-10.7S19.2 36 18.9 34.4c-.8-3.8 1-6.7 5.3-7.4 2.3-.4 4.4.8 5.3 2.4-2.6-8-3.5-10.2-2.1-14.2.7-2 4-4.3 7.2-4.5 5-.3 6.8 3.4 7.6 6.4.5 1.8-1.8 5.1-2.8 3-.4-.9-.8-2-1.2-3-1.4-3.4-7.3-2.4-6.8 2.3.2 2 5.8 29.5 6.2 32.9C36 48.9 30.2 35 30 34.5c-1.7-3.9-6.7-2-6.7 1 0 3.7 4.3 34.7 4.8 37.6 1.6 9.3-.4 13.5 4 26.4 2.9 9.1 10.5 20.9 29.5 23.3" style="fill:#faa700"/></g><defs><path id="c" d="M90.7 74.7c.1.4.5.5.8.2 3.7-4.5 13.6-17 25-13.7 3.6 1 5.3 5.1 3.9 8.2-2.3 4.9-14.7 13.2-21.1 24-1 1.7-9.6 21.6-24.1 27.4S37.3 126 29.2 99c-3-10.1-2.7-17.5-4-28.2-.5-3.8-4.5-30.9-4.2-35.6.3-6.4 8.2-7.5 10.4-3.9-.8-4.1-1.8-8.5-2.1-11.5-.8-7.4 7.6-9.6 10.8-4.3 3.7 6.1 8.2 24.6 14.9 42 .6 1.5 2.9 1.1 3.3-1.1.3-1.6 4.8-39.1 7.7-47.3 2.3-6.4 12-6.7 12.7 1.3.1 1.3 0 3.2.1 4.6 1.5-4.3 10.4-4.3 10.9 3.3 1.1 15.2-1.1 43.1 1 56.4"/></defs><clipPath id="d"><use xlink:href="#c" style="overflow:visible"/></clipPath><g style="clip-path:url(#d)"><path d="M120.7 63.8c-.3 1.5-1 3.8-3.4 6.3-8.8 9.1-17.6 14.5-23.5 26.6-10.7 21.7-35.8 37.1-61.5 11.5-2.2-2.2 1.6 8.8 3.1 9.4.7.3 21.2 8.8 21.2 8.8s26.4-3.7 26.5-3.8c.1-.2 40.1-53.1 40.1-53.1zM83 11.5c1.3.7 4.8 3.5 4.8 8.2 0 5.9-.6 31.3-.6 34.2.1 5.4-.6 18.6.4 22 .5 1.6 2.5 1.2 2.9 0 .2-.6.9-2.1.9-2.1L94 12.6 84.4 8zm-7.5 43.9c-.3 2.8.8 2.8.7 4.6-.2 2.1-6.3 1.5-6-.6.2-2 1.5-1.6 1.8-4.4.2-1.9 2.3-20.2 4.5-44.5.2-1.9-.7-5.9-2.8-6.4-2-.5-1.1-1.3 0-1.1 2.9.6 7 2.5 5 12.1-.7 7.8-3 38.2-3.2 40.3M57.7 57c1.4 4.4-3.7 5-5.7.7-1.7-3.8-10.8-33-12.8-38.3-1-2.5-.7-6.7 1-7.2 2.2-.7 3.8 2.1 5.4 6.7S57.7 57 57.7 57m-17.3 2.1c.7 2.1 2 1.9 2.4 3.3.6 2-5.2 3.9-5.8 2.2-.5-1.5.5-2.1-.1-4.4-.6-2.4-6.9-24.8-7.2-26.4s-2.2-4.8-5.8-4.2c-1.4.2-1.8-2-.4-2.3s5.7-1.1 7.8 4c1 1.2 1.4 2.8 1.8 4.1 2.1 7.6 6.7 21.7 7.3 23.7" style="fill:#b55e19"/></g></svg>