<svg xmlns="http://www.w3.org/2000/svg" xmlns:xlink="http://www.w3.org/1999/xlink" xml:space="preserve" viewBox="0 0 128 128"><path d="M110.4 98.3c0 2.7.3 17.9.3 17.9H85.6s.1-11.9.1-14.3c-.3-10-3.1-5.8-7.7-13.4-7.5-12.4-4.5-12-8.1-16.5-2.1-2.6-5.2-3.8-6.1-6.5-.8 2.6-4 3.9-6 6.5-3.7 4.6-.7 4.2-8.1 16.5-4.6 7.6-7.4 3.4-7.6 13.4-.1 2.4 0 14.3 0 14.3H17s.3-15.2.3-17.9c-.1-6.4-8.4-3.8-9.1-23.6-.7-20.1-.1-27.7.7-32.2.5-2.7 5.1-2.7 5.5.1.2 1.2 1.1 18.2 1.2 18.9 0 .7.9.5 1 0 0-.6.8-26.8.9-28.1.6-4.2 6.7-4.3 7-.1.1 1.3 1.1 26 1.2 26.6s.8.4.8 0 .6-28.6.7-30.2c.4-4.7 7.1-4.8 7.6-.1.2 1.4.7 29.9.7 30.7.1.8 1 .7 1 0 0-.4 1.5-23.3 1.5-25.4 0-5.9 7.9-6 8-.2 0 1.7-.2 31.4-.2 32.2s.2 3.1.5 3.9c4.5-2.7 5.5-9.2 14-9.5 1.8-.1 3 .7 3.5 1.9.5-1.2 1.8-2 3.5-1.9 8.5.4 9.5 6.9 14 9.5.2-.8.5-3 .5-3.9s-.2-30.6-.1-32.2c.1-5.8 8-5.7 7.9.2 0 2.1 1.5 25 1.5 25.4 0 .7.9.8 1 0s.6-29.2.7-30.7c.5-4.7 7.2-4.6 7.6.1.1 1.6.7 29.8.7 30.2s.7.7.8 0c.1-.6 1.1-25.3 1.2-26.6.4-4.2 6.4-4.1 7 .1.2 1.2.9 27.5 1 28.1 0 .6.9.7 1 0 0-.7 1-17.7 1.2-18.9.4-2.8 5-2.8 5.5-.1.8 4.5 1.4 12 .8 32.2-.7 19.8-9.1 17.2-9.2 23.6" style="fill:#ffca28"/><defs><path id="a" d="M110.4 98.3c0 2.7.3 17.9.3 17.9H85.6s.1-11.9.1-14.3c-.3-10-3.1-5.8-7.7-13.4-7.5-12.4-4.5-12-8.1-16.5-2.1-2.6-5.2-3.8-6.1-6.5-.8 2.6-4 3.9-6 6.5-3.7 4.6-.7 4.2-8.1 16.5-4.6 7.6-7.4 3.4-7.6 13.4-.1 2.4 0 14.3 0 14.3H17s.3-15.2.3-17.9c-.1-6.4-8.4-3.8-9.1-23.6-.7-20.1-.1-27.7.7-32.2.5-2.7 5.1-2.7 5.5.1.2 1.2 1.1 18.2 1.2 18.9 0 .7.9.5 1 0 0-.6.8-26.8.9-28.1.6-4.2 6.7-4.3 7-.1.1 1.3 1.1 26 1.2 26.6s.8.4.8 0 .6-28.6.7-30.2c.4-4.7 7.1-4.8 7.6-.1.2 1.4.7 29.9.7 30.7.1.8 1 .7 1 0 0-.4 1.5-23.3 1.5-25.4 0-5.9 7.9-6 8-.2 0 1.7-.2 31.4-.2 32.2s.2 3.1.5 3.9c4.5-2.7 5.5-9.2 14-9.5 1.8-.1 3 .7 3.5 1.9.5-1.2 1.8-2 3.5-1.9 8.5.4 9.5 6.9 14 9.5.2-.8.5-3 .5-3.9s-.2-30.6-.1-32.2c.1-5.8 8-5.7 7.9.2 0 2.1 1.5 25 1.5 25.4 0 .7.9.8 1 0s.6-29.2.7-30.7c.5-4.7 7.2-4.6 7.6.1.1 1.6.7 29.8.7 30.2s.7.7.8 0c.1-.6 1.1-25.3 1.2-26.6.4-4.2 6.4-4.1 7 .1.2 1.2.9 27.5 1 28.1 0 .6.9.7 1 0 0-.7 1-17.7 1.2-18.9.4-2.8 5-2.8 5.5-.1.8 4.5 1.4 12 .8 32.2-.7 19.8-9.1 17.2-9.2 23.6"/></defs><clipPath id="b"><use xlink:href="#a" style="overflow:visible"/></clipPath><g style="clip-path:url(#b)"><path d="M98.5 87.4c0 1-1.5.9-1.7-.2-2.5-13.5-11.5-15.8-13.7-16.3-.3 1.2-1.6 1.3-2.8.8C76 70 75.6 64.6 69 62.8c-4-1.1-4.9 2.7-2.6 4.7l-2.6 1.9-2.6-1.9c2.3-2 1.4-5.8-2.6-4.7-6.7 1.8-7 7.3-11.3 8.9-1.3.5-2.5.3-2.8-.8-2.2.5-11.2 2.8-13.7 16.3-.2 1.1-1.7 1.2-1.7.2C29.3 70.2 42.7 69 44 68.8s12-11.4 12-11.4l7.8.8 7.8-.8s5.6 5.9 9.2 9.2l-1.5-32.7 3.2-5.5 7.2-.2 1 10.3-2.4-4.3c-.3-3.2-4.8-3.1-5 .3l.5 33s0 .7-.1 1.3c1.6.3 14.5 1.7 14.8 18.6" style="fill:#faa700"/><path d="M89.5 60.4c.9 1.6 4.1 1.5 4.3-.6.2-2 .4-29 .4-30 0-2.4 4.3-3.4 4.6-.2 0 0 2.5 1.8 2.4 0 0-1.8-.8-5-4.6-4.8s-5.1 2.2-5.2 4.4-.1 27.7-.1 27.7zm9.8-1.2c.3 2.4 4.5 2 4.5 0 0-3 .7-24.5.8-25.4.3-3 4-2.4 4-.6 0 1.7 2.6 1.3 2.5 0s-1.2-4.1-4.4-4c-3.3.2-4.6 1.3-4.7 3.2s-.7 23.2-.7 23.2zm10.2 1.9c0 1.7 4.2 1.6 4.2 0 0-1.8.9-17 .9-17.9.1-1.5 2.5-1.8 2.7 0 .2 2.1 2.4 1.2 2.4.3s0-4.3-3.6-4.2-4.4 2-4.4 3.4-.4 15.9-.4 15.9zM13.3 43.6c-.2-2.4-3.2-1.9-3.3 0-.3 3.6-1.5 17.2-.6 33.9.1 1.3-2.1 2.2-2.3.1-.3-3.2-.4-38.1-.4-38.1l7.7-1.5 1.3 5.9-1.8 1z" style="fill:#faa700"/><path d="M13.9 61.1c.4 2 4.1 1.8 4.5 0s.4-25.3.5-26.6c.1-3.6 4.1-3.3 4.3-1 .2 2.1 2.3 1.4 2.2-.2 0-1.6-1.2-4.4-4.2-4.3s-5.5 2.4-5.5 4.6.3 25.6.3 25.6z" style="fill:#faa700"/><path d="M23.8 59.4c0 2 4.1 2 4.2 0s.7-27.6.7-29.3c.1-3.2 4.4-3 4.6-.8s2.6 1.5 2.6 0c0-1.4-1-4.7-4.9-4.5s-5.1 2.8-5.2 4 0 28.5 0 28.5zm10.1.7c.3 2.1 4 1.6 4.1 0 .2-1.6 1.6-24.6 1.6-25.8.3-3.5 4.5-2.7 4.7-.8.3 2 2.2 1.3 2.3 0 0-1.3-1.4-4.7-4.5-4.5s-5 1.8-5.2 4-1.1 25.1-1.1 25.1z" style="fill:#faa700"/></g><defs><path id="c" d="M110.4 98.3c0 2.7.3 17.9.3 17.9H85.6s.1-11.9.1-14.3c-.3-10-3.1-5.8-7.7-13.4-7.5-12.4-4.5-12-8.1-16.5-2.1-2.6-5.2-3.8-6.1-6.5-.8 2.6-4 3.9-6 6.5-3.7 4.6-.7 4.2-8.1 16.5-4.6 7.6-7.4 3.4-7.6 13.4-.1 2.4 0 14.3 0 14.3H17s.3-15.2.3-17.9c-.1-6.4-8.4-3.8-9.1-23.6-.7-20.1-.1-27.7.7-32.2.5-2.7 5.1-2.7 5.5.1.2 1.2 1.1 18.2 1.2 18.9 0 .7.9.5 1 0 0-.6.8-26.8.9-28.1.6-4.2 6.7-4.3 7-.1.1 1.3 1.1 26 1.2 26.6s.8.4.8 0 .6-28.6.7-30.2c.4-4.7 7.1-4.8 7.6-.1.2 1.4.7 29.9.7 30.7.1.8 1 .7 1 0 0-.4 1.5-23.3 1.5-25.4 0-5.9 7.9-6 8-.2 0 1.7-.2 31.4-.2 32.2s.2 3.1.5 3.9c4.5-2.7 5.5-9.2 14-9.5 1.8-.1 3 .7 3.5 1.9.5-1.2 1.8-2 3.5-1.9 8.5.4 9.5 6.9 14 9.5.2-.8.5-3 .5-3.9s-.2-30.6-.1-32.2c.1-5.8 8-5.7 7.9.2 0 2.1 1.5 25 1.5 25.4 0 .7.9.8 1 0s.6-29.2.7-30.7c.5-4.7 7.2-4.6 7.6.1.1 1.6.7 29.8.7 30.2s.7.7.8 0c.1-.6 1.1-25.3 1.2-26.6.4-4.2 6.4-4.1 7 .1.2 1.2.9 27.5 1 28.1 0 .6.9.7 1 0 0-.7 1-17.7 1.2-18.9.4-2.8 5-2.8 5.5-.1.8 4.5 1.4 12 .8 32.2-.7 19.8-9.1 17.2-9.2 23.6"/></defs><clipPath id="d"><use xlink:href="#c" style="overflow:visible"/></clipPath><g style="clip-path:url(#d)"><path d="M88.8 96.1c-.5 0-1.8-.1-2.4-.3 1.6 2.8 1.8 21 1.8 21h-3.8L63.8 67.1l-20.6 49.7h-3.8s.2-18.1 1.8-21c-.6.2-1.8.3-2.4.3-.4 0-.5-.5-.1-.7C49.5 89.8 52.2 79 53.2 75.8c2.2-7.1 9.5-9.3 9.9-11.5.1-.6.5-.7.7-.7s.6.1.7.7c.4 2.2 7.7 4.4 9.9 11.5 1 3.2 3.7 13.9 14.5 19.6.4.2.3.7-.1.7m-69.9 21s.8-20.1-.2-20.9H20c.3 0 .6-.4.2-.7-6.1-3.2-9-8-10.7-18.5-.3-1.6-1.4-2.2-2.1-2.4-.4 0 .8 14 .8 14l6.6 28.4zm89.8 0s-.8-20.1.2-20.9h-1.3c-.3 0-.6-.4-.2-.7 6.1-3.2 8.9-9.3 9.9-18.5s-.1-26.8-.1-31.2c0-.4 0-3.5-.8-4.6-1.3-1.8 4.6-1.1 4.9 2.8.7 8.3-.3 42.6-.3 42.6l-8.3 30.4zm-.2-86.8c-.7-.5-1.2.3-.9.7s.7.8.8 2.3c0 0 .5 25.1.6 26.1.2 3 2.4 2.8 2.6 2 .3-1.2.2-30.6.2-30.6zM97.7 26c-.3-.1-1 .2-.3 1 .3.3 1.1 1.5 1.2 3.2s.5 26 .5 27.1c.1 3.8 2.5 3 2.5 1.8V28.9L98.7 26zm-10.3 4.3c-.4-.4-1.2 0-.6.5s1.1 2 1.2 3.6.7 23.5.8 24.4c.3 3.1 2.7 2.5 2.8 1.4s-.8-26.7-.8-26.7l-2.3-3.8zM46.3 70.7c-.9.4-2.3.1-2.3-2.5 0-2.2.4-33.6.4-34.6 0-1.1-.8-2.5-1.2-2.8s.1-1.1.8-.6 3.2 2.9 3.2 2.9v35.8zm-13-44.4c-.5-.4-1.4-.2-.9.5.5.6.8 1.8.8 2.9s.4 28.8.5 29.5c.1 2.4 2.3 2 2.3 1 0-2 .5-31.4.5-31.4zm-10.3 4c-.3-.2-1.2-.1-.7.5s.7 1.5.7 2.4.5 24.5.6 25.2c.2 2.5 2.4 2.3 2.4 1.1 0-1.1-.6-28.3-.6-28.3zm-9.6 10.4c-.7-.4-1.5-.2-.9.5.5.7.5 1.4.5 2 0 .7.6 16.1.6 16.8 0 2 2.5 2.4 2.5 1.4 0-1.5-.8-20.7-.8-20.7z" style="fill:#b55e19"/></g><path d="M61.9 8c0-2 3.5-2.1 3.5.1v17.2c-.1 2.2-3.6 2.3-3.5 0zm-19 10.5c-1.2-1.6 1.5-3.8 2.8-2 .7.9 8.1 10.7 8.6 11.3 1.3 1.8-1.5 3.9-2.8 2.1-.5-.7-8.6-11.4-8.6-11.4m41.5 0c1.2-1.6-1.5-3.8-2.8-2-.7.9-8.1 10.7-8.6 11.3-1.3 1.8 1.5 3.9 2.8 2.1.5-.7 8.6-11.4 8.6-11.4" style="fill:#b0bec5"/></svg>