<svg xmlns="http://www.w3.org/2000/svg" xmlns:xlink="http://www.w3.org/1999/xlink" xml:space="preserve" viewBox="0 0 128 128"><path d="M106.3 34.6c-3.9-4.9-10.9-12.7-11.8-13.9-2.2-3.1-3.5-3.9-5.1-5.2-1.7-1.2-5.5-4.9-7.6-6.2-1.7-1.1-4.5.4-4.5 2.4-1.7-1.6-4-.7-5-.2-2.2 1.2-3.5 4.4-2.9 7.9-1.9-1.6-5.9-1.3-7.6.7-5.5 6.4.1 11.7-18.1 28.4C29.2 61.9 26.3 74 26 80.5c-.1 1.3-.6 8.2-.5 9.5.2 2.3-.8 4.1-1.5 5.3s-6.8 9.4-7.5 10.3-.9 2 0 3.1c10.8 12.2 29.9 13.1 31 12.9 1-.2 2-.2 3.1-1.9 4.5-7.2 6-9 7.8-10.5 11.7-10.1 30.8-17.8 43-28.3 2.9-2.5 3.9-5.1 4.2-6.7.9-6.1 2.7-26.1 2.7-34.5-.2-2.4-1-3.9-2-5.1M63.7 58.1c-.8-2-1.1-3.4-1.1-5.3 0-2.7 5.1-7.8 6.4-13.3 1.2 3.6 3.9 6.3 4.6 9.8.2.9.3 13.1.3 13.1s-3.9-2.3-10.2-4.3" style="fill:#ffca28"/><defs><path id="a" d="M106.3 34.6c-3.9-4.9-10.9-12.7-11.8-13.9-2.2-3.1-3.5-3.9-5.1-5.2-1.7-1.2-5.5-4.9-7.6-6.2-1.7-1.1-4.5.4-4.5 2.4-1.7-1.6-4-.7-5-.2-2.2 1.2-3.5 4.4-2.9 7.9-1.9-1.6-5.9-1.3-7.6.7-5.5 6.4.1 11.7-18.1 28.4C29.2 61.9 26.3 74 26 80.5c-.1 1.3-.6 8.2-.5 9.5.2 2.3-.8 4.1-1.5 5.3s-6.8 9.4-7.5 10.3-.9 2 0 3.1c10.8 12.2 29.9 13.1 31 12.9 1-.2 2-.2 3.1-1.9 4.5-7.2 6-9 7.8-10.5 11.7-10.1 30.8-17.8 43-28.3 2.9-2.5 3.9-5.1 4.2-6.7.9-6.1 2.7-26.1 2.7-34.5-.2-2.4-1-3.9-2-5.1M63.7 58.1c-.8-2-1.1-3.4-1.1-5.3 0-2.7 5.1-7.8 6.4-13.3 1.2 3.6 3.9 6.3 4.6 9.8.2.9.3 13.1.3 13.1s-3.9-2.3-10.2-4.3"/></defs><clipPath id="b"><use xlink:href="#a" style="overflow:visible"/></clipPath><g style="clip-path:url(#b)"><path d="M16.2 110.7s9.1-12.4 10.1-14.2S29 89.3 29.1 85c.6-25.3 21.7-37.7 26.9-45.5.4-.5 1.2-.4 1.3.3.9 5.4.8 13.4-.4 17-2.6.6-4.3.3-7.3.3 1.5.9 10.3 3.5.6 19.7 7.4-3.9 21.8-8.4 24.5-8 1 .1 1.9.6 2.2-.5S76 54.9 76 52.9s-.2-4.1-1.3-5.9-5.5-9.4-5.9-10.4c-.5-1-1.3-1.1-1.7-1.2s-1.7-1.2-1.8-4.8.1-9 2.8-9.5c-.5-4.3-.8-5.9-.8-5.9l-9.5 1.4-35.2 54.1-10.4 38.4zM71.5 19c0-2 .7-7.3 5.3-5.5 2 .8 2.8 5.5 4.9 5.5-.5-1.7-2-5-2.3-5.8-.6-1.4 1.1-3 2.9-1.2s4.3 3.9 7 6.2c.9.7 2.3 1.6 3.8 4.2.9 1.6 10.7 12.6 11.2 13.3.6.7 1.6 1.9 1.6 3.8 0 6.4-2.1 28.3-3 37.8-.3 3.2 3.3 2 3.4 0 .2-2 3.9-38.5 3.9-38.5l-.6-5.2L82.8 5.4 69.1 8.2l-1.4 5.9s1.3 6.3 1.5 6.3c.2-.1 2.3-1.4 2.3-1.4" style="fill:#faa700"/></g><defs><path id="c" d="M106.3 34.6c-3.9-4.9-10.9-12.7-11.8-13.9-2.2-3.1-3.5-3.9-5.1-5.2-1.7-1.2-5.5-4.9-7.6-6.2-1.7-1.1-4.5.4-4.5 2.4-1.7-1.6-4-.7-5-.2-2.2 1.2-3.5 4.4-2.9 7.9-1.9-1.6-5.9-1.3-7.6.7-5.5 6.4.1 11.7-18.1 28.4C29.2 61.9 26.3 74 26 80.5c-.1 1.3-.6 8.2-.5 9.5.2 2.3-.8 4.1-1.5 5.3s-6.8 9.4-7.5 10.3-.9 2 0 3.1c10.8 12.2 29.9 13.1 31 12.9 1-.2 2-.2 3.1-1.9 4.5-7.2 6-9 7.8-10.5 11.7-10.1 30.8-17.8 43-28.3 2.9-2.5 3.9-5.1 4.2-6.7.9-6.1 2.7-26.1 2.7-34.5-.2-2.4-1-3.9-2-5.1M63.7 58.1c-.8-2-1.1-3.4-1.1-5.3 0-2.7 5.1-7.8 6.4-13.3 1.2 3.6 3.9 6.3 4.6 9.8.2.9.3 13.1.3 13.1s-3.9-2.3-10.2-4.3"/></defs><clipPath id="d"><use xlink:href="#c" style="overflow:visible"/></clipPath><g style="clip-path:url(#d)"><path d="M108.1 70.8c-1-.5-3.1-1-4.3 2s-1.1 3.9-4.8 6.8C94.6 83 88.8 87.5 63.2 101c-3.3 1.7-7 5.1-9.5 8.6-1.9 2.7-4.8 6-7.4 13.8H54l54.7-43.2zM77.8 12.3c.5 1 3.2 6.4 3.5 7.1.3.8.7 1.9 1.7 2.9s11.1 12.6 11.9 13.6 2.6 3 3.1 6.1c.6 3.8 2.3 11 3.1 20.4.1 1.4 1.3 1.3 1.4 0s0-13.2-2-21.9c-.4-1.6-.7-2.9-2.2-4.7C96.7 34 85.8 22 84.9 21c-.8-1-1.5-1.9-1.9-2.8-1.9-3.3-3.2-7.1-5.2-5.9M72.6 10c-.7 1.4-1.9 5.1-.6 10.3 1.6 0 3.4.6 4.4 2.9 2.9 6.6 4.3 10.5 10.7 19.7 1.9 2.7 2.6 4.1 3 6.1.6 2.7 1.6 6.9 2.9 18.7.1.8-.8 1.1-1.1.3-1-2.8-2.9-12.6-5.3-19.5-.5-1.5-.9-2.4-2.8-5.2s-5.9-9.4-7.4-13.5C74.5 24.6 74.2 22 71 22c-1.7 0-3.8 1-4.5 2.7-1.2 3.3-.5 8.1 2.3 14.8.1 2.8 0 13.1-1.6 14.4-1.8 1.5-3.6 1.2-4.2.7s-1.9-1.4-1.9-3c0-1.1.1-2.6 1.2-4.5.8-1.4 1.4-2.6 2.3-4.4.4-.9.5-1.9.2-2.9-1.3-4.1-3-13.7 1.4-18.8-2.6-1.3-4.3 1.8-6.1.8-1.2-.7-.7-2-.7-2S68.9 9.5 71.3 9c2.3-.6 1.3 1 1.3 1" style="fill:#b55e19"/><path d="M72.1 48c.7.8 2.2 2.1 2.6 6.4s1.3 9.8 1.4 10.9c.2 1.1.2 3.4 1.7 4.1 1.4.7 1.9 1 1.9 1.6 0 .5-.4 1-1 1.1s-1.2 0-1.9-.3c-.6-.4-1.7-1.1-2.1-1.3-.5-.3-1.6-.5-2.8-.1-1.2.3-15 3.1-22.5 9-.9.7-5 3.4-7.4 9-.4.8-.9.4-.8-.3s1.5-8.5 10.4-13c2.3-1.2 8.7-5.1 20.9-7.6 1.6-.3 1.2-1.9.6-2.2s-13.1-7.4-26-7.4c-.7 0-.6-1.1.8-1.2 0 0 6.8-1.2 15.8 1.5 1.6.5 3.9-.6 4.5-1.2 1.5-1.5 3.3-6.7 2.7-7.9s.6-1.9 1.2-1.1" style="fill:#b55e19"/></g></svg>