<svg xmlns="http://www.w3.org/2000/svg" xml:space="preserve" viewBox="0 0 128 128"><path d="M116 4H12c-4.42 0-8 3.58-8 8v104c0 4.42 3.58 8 8 8h104c4.42 0 8-3.58 8-8V12c0-4.42-3.58-8-8-8" style="fill:#f77e00"/><path d="M116 4H12c-4.42 0-8 3.58-8 8v104c0 4.42 3.58 8 8 8h104c4.42 0 8-3.58 8-8V12c0-4.42-3.58-8-8-8" style="fill:#f77e00"/><path d="M109.7 4H11.5A7.555 7.555 0 0 0 4 11.5v97.9c-.01 4.14 3.34 7.49 7.48 7.5h98.12c4.14.01 7.49-3.34 7.5-7.48V11.5c.09-4.05-3.13-7.41-7.18-7.5z" style="fill:#ff9800"/><path d="M39.7 12.9c0-2.3-1.6-3-10.8-2.7-7.7.3-11.5 1.2-13.8 4s-2.9 8.5-3 15.3c0 4.8 0 9.3 2.5 9.3 3.4 0 3.4-7.9 6.2-12.3 5.4-8.7 18.9-10.6 18.9-13.6" style="opacity:.75;fill:#ffbd52"/><path d="M40.44 76.79c-2.23-1.29-3.99-3.06-5.27-5.31s-1.92-4.71-1.92-7.4.64-5.16 1.92-7.4c1.28-2.25 3.04-4.02 5.27-5.31s4.72-1.94 7.46-1.94 5.23.65 7.46 1.94 3.99 3.06 5.27 5.31 1.92 4.71 1.92 7.4-.64 5.16-1.92 7.4-3.04 4.01-5.27 5.31c-2.23 1.29-4.72 1.94-7.46 1.94s-5.23-.64-7.46-1.94m12.2-4.29a8.75 8.75 0 0 0 3.39-3.41q1.23-2.19 1.23-5.01t-1.23-5.01c-.82-1.46-1.95-2.6-3.39-3.41s-3.02-1.21-4.74-1.21-3.3.41-4.72 1.21c-1.42.81-2.55 1.95-3.37 3.41s-1.23 3.13-1.23 5.01q0 2.82 1.23 5.01c1.23 2.19 1.95 2.6 3.37 3.41s3 1.21 4.72 1.21 3.31-.4 4.74-1.21m13.93-22.44h17.79v5.01h-12.5v6.82H83.1v5.01H71.86v11.2h-5.29zm22.45 0h17.79v5.01H94.3v6.82h11.24v5.01H94.3v11.2h-5.29z" style="fill:#fafafa"/><path d="M66.44 84.1v11.26c0 .63-.51 1.14-1.14 1.14H30.5c-.59.04-1.11-.41-1.14-1V32.63c0-.63.51-1.14 1.14-1.14h34.8c.59-.04 1.11.41 1.14 1v11.92h4.58V26.33a3.565 3.565 0 0 0-2.63-3.43c-2.29-.57-8.24-2.4-20.49-2.4s-19.35 2.06-20.49 2.4a3.56 3.56 0 0 0-2.63 3.43v75.44c.04 1.59 1.1 2.98 2.63 3.43 1.26.34 8.24 2.4 20.49 2.4s18.32-1.83 20.49-2.4a3.56 3.56 0 0 0 2.63-3.43V84.1zM39.77 25.64h16.26a1.14 1.14 0 1 1 0 2.28H39.77a1.14 1.14 0 1 1 0-2.28m-7.9 0a1.14 1.14 0 1 1-1.14 1.14c.04-.6.53-1.09 1.14-1.14m24.16 76.59H39.77a1.14 1.14 0 1 1 0-2.28h16.26c.63 0 1.14.51 1.14 1.14-.04.6-.53 1.09-1.14 1.14" style="fill:#fafafa"/></svg>