<svg xmlns="http://www.w3.org/2000/svg" xml:space="preserve" viewBox="0 0 128 128"><linearGradient id="a" x1="-407.2" x2="-441.14" y1="86.269" y2="36.526" gradientTransform="matrix(1 0 0 -1 0 128)" gradientUnits="userSpaceOnUse"><stop offset="0" style="stop-color:#ba68c8"/><stop offset="1" style="stop-color:#9c27b0"/></linearGradient><path d="M-424.17 66.61v-.01z" style="fill:url(#a)"/><path d="m-424.86 65.91.99.3c.56.17 1.16-.16 1.33-.73l1.19-4.04c.17-.57-.15-1.19-.72-1.36l-.99-.3c-.56-.17-1.16.16-1.33.73l-1.19 4.04c-.16.58.16 1.19.72 1.36" style="fill:#616161"/><linearGradient id="b" x1="144.357" x2="110.418" y1="374.509" y2="324.765" gradientTransform="matrix(1 0 0 -1 0 128)" gradientUnits="userSpaceOnUse"><stop offset="0" style="stop-color:#ba68c8"/><stop offset="1" style="stop-color:#9c27b0"/></linearGradient><path d="M127.39-221.63v-.01z" style="fill:url(#b)"/><path d="m126.7-222.33.99.3c.56.17 1.16-.16 1.33-.73l1.19-4.04c.17-.57-.15-1.19-.72-1.36l-.99-.3c-.56-.17-1.16.16-1.33.73l-1.19 4.04c-.16.58.16 1.19.72 1.36" style="fill:#616161"/><path d="m37.91 21.93 42.96 47.78-6 4.74-42.8-47.65z" style="fill:#6aa5ad"/><path d="M113.94 105.42c.64.44 7.21 8.09 8.69 9.67 2.19 2.33 1.51 5.68-.37 7.25-2.46 2.05-5.18.69-6.56-.73s-8.74-9.7-8.81-9.81c-.68-.94-.14-2.89 2.1-4.88 1.61-1.44 4.07-2.1 4.95-1.5" style="fill:#6ca4ab"/><path d="m61.09 23.71-6.58-10.3c-5.12 7.2-5.92 22.07-7.16 23.14s-16.28-.12-24.33 4.03l9.37 7.9c-9.23.57-15.12 2.85-15.12 2.85l89.53 61.94c.76.51 3.4.67 6.39-1.98s2.44-4.99 2.16-5.53L66.04 9.24s-3.1 5.47-4.95 14.47" style="fill:#6e62ed"/><path d="M58.45 47.85c-.99-.9-1.88-1.92-3.55-1.48-1.09.29-2.3 1.77-.44 4.48.94 1.37 16.27 19.65 27.31 32.69.96 1.14-.53 2.68-1.71 1.77C64.62 73.4 35.07 50.59 32.39 48.47l-1.13.08c-8.57.67-13.99 2.77-13.99 2.77l89.53 61.94c.26.17 1 .53 2.53.21 1.97-.41 3.86-2.19 3.86-2.19-5.45-6.04-49.3-58.49-54.74-63.43" style="fill:#5547f4"/><path d="m32.34 48.43 66.91 59.61-52.5-36.32c.01 0-5.07-10.97-14.41-23.29" style="fill:#004dae"/><path d="m61.09 23.71 53.99 81.53-49.04-96s-3.1 5.47-4.95 14.47" style="fill:#937ef3"/><path d="m68.1 13.28-2.06-4.04s-3.1 5.47-4.95 14.46l3.34 5.05zM36.76 52.36l-4.37-3.9c-9.23.57-15.12 2.85-15.12 2.85l4.59 3.18c3.26-1.53 14.9-2.13 14.9-2.13" style="fill:#004dae"/><path d="M16.94 31.57c-2.88 2.74-6.38 1.78-9.65-2.81S.96 15.56 9.83 8.22C18.95.68 26.84 6.11 33.34 14c4.52 5.49 8.3 9.66 8.18 10.1s-6.95 6.63-7.67 6.58-7.67-8.73-9.51-10.68-4.99-6.33-8.64-3.01c-2.84 2.58-1.13 5.35-.13 6.51s5.07 4.55 1.37 8.07" style="fill:#3f7377"/><path d="M54.51 13.4c-5.27 5.85-6.19 21.89-7.43 22.96s-17.9-.03-24.06 4.21l3.22 2.71s4.43-1.46 16.28-2.15c4.11-.24 5.81-.41 7.25-1.65 1.45-1.25 1.8-2.91 2.67-6.92.63-2.93 1.97-12.32 4.22-15.79z" style="fill:#004dae"/></svg>