<svg xmlns="http://www.w3.org/2000/svg" xml:space="preserve" viewBox="0 0 128 128"><linearGradient id="a" x1="64.005" x2="64.005" y1="101.667" y2="24.97" gradientTransform="matrix(1 0 0 -1 0 128)" gradientUnits="userSpaceOnUse"><stop offset="0" style="stop-color:#757575"/><stop offset=".515" style="stop-color:#504f4f"/></linearGradient><path d="M75.34 74.48c.24-1.31-1.29-2.26-2.34-1.45q-5.25 4.05-11.79 4.05-9.84 0-15.69-6.9c-5.85-6.9-5.85-10.64-5.85-18.13q0-7.38 2.97-13.38c2.97-6 4.8-7.11 8.46-9.33C54.76 27.11 59 26 63.82 26c7.52 0 13.49 2.8 17.9 8.41s6.62 13.11 6.62 22.51v3.49c0 13.47-3.04 23.74-9.13 30.82S64.04 101.9 51.97 102c-.82 0-1.48-.66-1.48-1.48v-7.34c0-.82.66-1.48 1.48-1.48h.31q11.025-.15 16.92-5.31c3.16-2.77 5.21-6.73 6.14-11.91M64.09 67.3q3.555-.075 6.69-2.13c.02-.01.04-.03.06-.04 3.18-2.11 4.96-5.78 4.96-9.6v-1.08c0-5.45-1.12-9.83-3.35-13.15s-5.13-4.98-8.68-4.98-6.39 1.46-8.51 4.39-3.17 6.63-3.17 11.1c0 4.7 1.1 8.48 3.29 11.34 2.05 2.68 5.34 4.22 8.71 4.15" style="fill:url(#a)"/></svg>