<svg xmlns="http://www.w3.org/2000/svg" xml:space="preserve" viewBox="0 0 128 128"><path d="M116 4H12c-4.42 0-8 3.58-8 8v104c0 4.42 3.58 8 8 8h104c4.42 0 8-3.58 8-8V12c0-4.42-3.58-8-8-8" style="fill:#f77e00"/><path d="M109.7 4H11.5A7.555 7.555 0 0 0 4 11.5v97.9c-.01 4.14 3.34 7.49 7.48 7.5h98.12c4.14.01 7.49-3.34 7.5-7.48V11.5c.09-4.05-3.13-7.41-7.18-7.5z" style="fill:#ff9800"/><path d="M39.7 12.9c0-2.3-1.6-3-10.8-2.7-7.7.3-11.5 1.2-13.8 4s-2.9 8.5-3 15.3c0 4.8 0 9.3 2.5 9.3 3.4 0 3.4-7.9 6.2-12.3 5.4-8.7 18.9-10.6 18.9-13.6" style="opacity:.75;fill:#ffbd52"/><path d="M103.4 33.1v53.3c0 1.1-.9 2-2 2h-5.6c-1.1 0-2-.9-2-2v-1c0-1.1-.9-2-2-2H70.3c-1.1 0-2 .9-2 2V108c0 1.1-.9 2-2 2h-5.6c-1.1 0-2-.9-2-2V85.4c0-1.1-.9-2-2-2H35.8c-1.1 0-2 .9-2 2v1.5c0 1.1-.9 2-2 2h-5.2c-1.1 0-2-.9-2-2V33.1c0-1.1.9-2 2-2h30c1.1 0 2-.9 2-2V20c0-1.1.9-2 2-2h5.6c1.1 0 2 .9 2 2v9.1c0 1.1.9 2 2 2h31.1a2 2 0 0 1 2.1 2m-69.6 9v8.5c0 1.1.9 2 2 2h20.8c1.1 0 2-.9 2-2v-8.5c0-1.1-.9-2-2-2H35.8c-1.09.04-1.96.91-2 2m24.8 30.4v-9.2c0-1.1-.9-2-2-2H35.8c-1.1 0-2 .9-2 2v9.2c0 1.1.9 2 2 2h20.8c1.1 0 2-.9 2-2m9.7-30.4v8.5c0 1.1.9 2 2 2h21.5c1.1 0 2-.9 2-2v-8.5c0-1.1-.9-2-2-2H70.3c-1.1 0-2 .9-2 2m25.4 30.4v-9.2c0-1.1-.9-2-2-2H70.3c-1.1 0-2 .9-2 2v9.2c0 1.1.9 2 2 2h21.5c1.07-.05 1.9-.93 1.9-2" style="fill:#fafafa"/></svg>