<svg xmlns="http://www.w3.org/2000/svg" xmlns:xlink="http://www.w3.org/1999/xlink" xml:space="preserve" viewBox="0 0 128 128"><path d="M107.1 77.9c6.9.9 11.2 2.1 13.8 4.2 3.5 2.8 3.3 6.7-1.1 7.3-2 .3-22.5-.2-26.1 0-13.8.7-17.3 2.9-23.2 3.5-3.3.4-11.1 1-14.1 1.3S25 98.5 8.9 97.7c-1.7-.1-1.8-1.2-2.1-2.3-1-2.8-2.4-12-2-19.1.2-2.2 1.2-2.6 2-3.9C10 67.7 16.4 57.7 24 53.1c3-1.8 11.7-5.7 14.7-8 6.6-4.8 12.2-9.7 14.2-11.1 3.8-2.7 10.4.4 7.7 8.9-1.8 5.9-11.3 10.7-13.4 16.1-1 2.7-1 5.8 1.8 8.1 14-1.4 23.5-5.1 26.8-6.7 4.1-2 7.2-5.8 13.2-6.3 3.7-.3 5.4 2.2 4 4S86 64 86 64s3.8-.7 7.5-2.6c4-2.1 9.5-4 14-2.5 3.7 1.2 2.9 4.5 1 5.3-3.3 1.3-11.5 5-12.3 5.3 6-.4 14-3.8 20.7-1.6 3.3 1.1 4.7 4.8 1.8 6.4-3 1.6-11.6 3.6-11.6 3.6" style="fill:#ffca28"/><defs><path id="a" d="M107.1 77.9c6.9.9 11.2 2.1 13.8 4.2 3.5 2.8 3.3 6.7-1.1 7.3-2 .3-22.5-.2-26.1 0-13.8.7-17.3 2.9-23.2 3.5-3.3.4-11.1 1-14.1 1.3S25 98.5 8.9 97.7c-1.7-.1-1.8-1.2-2.1-2.3-1-2.8-2.4-12-2-19.1.2-2.2 1.2-2.6 2-3.9C10 67.7 16.4 57.7 24 53.1c3-1.8 11.7-5.7 14.7-8 6.6-4.8 12.2-9.7 14.2-11.1 3.8-2.7 10.4.4 7.7 8.9-1.8 5.9-11.3 10.7-13.4 16.1-1 2.7-1 5.8 1.8 8.1 14-1.4 23.5-5.1 26.8-6.7 4.1-2 7.2-5.8 13.2-6.3 3.7-.3 5.4 2.2 4 4S86 64 86 64s3.8-.7 7.5-2.6c4-2.1 9.5-4 14-2.5 3.7 1.2 2.9 4.5 1 5.3-3.3 1.3-11.5 5-12.3 5.3 6-.4 14-3.8 20.7-1.6 3.3 1.1 4.7 4.8 1.8 6.4-3 1.6-11.6 3.6-11.6 3.6"/></defs><clipPath id="b"><use xlink:href="#a" style="overflow:visible"/></clipPath><g style="clip-path:url(#b)"><path d="M59 41.4c1.3-3.4-1.8-8.1-5.3-5-3.7 3.2-12.8 12.2-20.6 15.4s-13.2 6.6-19.5 15.4C7 76.6 7 78.7 4.2 79.8v-9.9L19 50.2l19.5-10 17.1-11.5 8.4 4.4-1.7 11.3zm51.3 36.8c-.8 2 14.9 4.8 8.5 9.9-2.4 1.9 3.5 2.4 3.5 2.4l3.3-3.9-1.2-6.3zm-3.2-.3s-20.7-.8-22.5-.9c-5.6-.2-9.7-1.8-15.1-2.2-5.5-.3-11.9-.5-17.9-4.5-3.1-2-3.8-3.2-3.8-3.2l5.2-5.9s38.4-10 38.5-10.2c.1-.1 21 6.3 21 6.3l10.9 14.5L120 76z" style="fill:#faa700"/></g><defs><path id="c" d="M107.1 77.9c6.9.9 11.2 2.1 13.8 4.2 3.5 2.8 3.3 6.7-1.1 7.3-2 .3-22.5-.2-26.1 0-13.8.7-17.3 2.9-23.2 3.5-3.3.4-11.1 1-14.1 1.3S25 98.5 8.9 97.7c-1.7-.1-1.8-1.2-2.1-2.3-1-2.8-2.4-12-2-19.1.2-2.2 1.2-2.6 2-3.9C10 67.7 16.4 57.7 24 53.1c3-1.8 11.7-5.7 14.7-8 6.6-4.8 12.2-9.7 14.2-11.1 3.8-2.7 10.4.4 7.7 8.9-1.8 5.9-11.3 10.7-13.4 16.1-1 2.7-1 5.8 1.8 8.1 14-1.4 23.5-5.1 26.8-6.7 4.1-2 7.2-5.8 13.2-6.3 3.7-.3 5.4 2.2 4 4S86 64 86 64s3.8-.7 7.5-2.6c4-2.1 9.5-4 14-2.5 3.7 1.2 2.9 4.5 1 5.3-3.3 1.3-11.5 5-12.3 5.3 6-.4 14-3.8 20.7-1.6 3.3 1.1 4.7 4.8 1.8 6.4-3 1.6-11.6 3.6-11.6 3.6"/></defs><clipPath id="d"><use xlink:href="#c" style="overflow:visible"/></clipPath><g style="clip-path:url(#d)"><path d="M58.8 33.4c.8 1.8 1.6 5.5-1.1 9.8-5 8.1-13.8 10.3-13.8 18.4 0 5.6 7 9.3 9.5 10.1.7.3.9-.4.4-.6-.5-.3-3.6-2.4-4.7-3.9s-2.3-4.6-.3-6.9 12.7-12.1 12.7-12.1l3.1-8.8-4.3-7.2zm33.9 27.2L86 64s-13.6 4.7-14.1 4.8c-.4.1-1.1.4-1.5.1s-.8-.8-1.1-1-.2-.9.6-.8 1.9.4 3.6-.2 9.4-3.2 11.6-4.9 6.4-5.1 6.8-5.5 1-.9.3-2.2c-.5-.9.5-1.1.8-.8.3.2 2.3 2.7 2.3 2.7zm13.8 5.7c-1.2.4-9.3 2.9-10.4 3.2-1 .2-16.7 4-17.3 4.1-.6.2-1.4.3-2-.2-.3-.3-.9-.9-1.2-1.1-.2-.2-.4-1 1.1-.9s4-.1 7.2-.9c5.9-1.4 9.2-2.1 11.6-3.1 5.9-2.6 11.7-4.5 13.2-5.3.9-.5.9-1.3.7-2.1-.3-1 .7-1.1 1.1-.8.3.4 1.6 4.1 1.6 4.1zm14 10.3c-1.3.1-12.2 1.3-13.4 1.3s-7.3-.3-7.3-.3 10.4-3.2 14.8-4.1c3.1-.7 5.4-1.5 5.5-3.6s1.4-1.3 1.6-.9c.3.5-1.2 7.6-1.2 7.6m3.1 8.8c-.4.9-1.2 1.9-2.7 1.9s-29.8.2-34.2.3c-8 .1-11.3 2.3-20.9 2.8-10.3.5-21.2 4.3-60.3 4.4.8 2.4 1.5 5 1.7 4.9.2-.2 28.8-.5 28.8-.5l49.9-6.7 37.4-.6 2.8-4.6z" style="fill:#b55e19"/></g></svg>