<svg xmlns="http://www.w3.org/2000/svg" xmlns:xlink="http://www.w3.org/1999/xlink" xml:space="preserve" viewBox="0 0 128 128"><path d="M88.4 30.4c3.7-2 3.5-7-.6-6.4-3.4.5-15.6 3.8-30.5 6.9-1.4.3-2.8.7-5.6.8-2.8 0-37.5.2-38.6.2-1.7 0-5.6.9-6.9 6.8-1.3 5.6-3 20 .3 22.8 3.4 2.8 3.6 4.4 5.3 6.1 5.9 6 12.4 10.1 14.5 11.9s6.3 6.4 8.5 11c1.5 3.2 4.3 9 8.8 13 2.1 1.9 5.5 1.4 6.7.6 1.1-.7 4.5-2.3 3.2-11-1.1-7.6-8.5-14.9-8.4-20.3.1-3.6 2.5-5.1 12-6.8 13.5-2.4 53.2-.9 60.1-1.9 6.8-.9 8.4-8.5 2-9.5-1.6-.2-32.6-4.2-32.6-4.2s23.7-2.2 25.3-2.5c8.7-1.6 7.6-9.1 3.2-9.2-4.9-.1-16.9.1-16.9.1s4.8-1.2 6.8-2.2c4.7-2.3 4-7.7.1-7.5-4.1 0-16.7 1.3-16.7 1.3" style="fill:#ffca28"/><defs><path id="a" d="M88.4 30.4c3.7-2 3.5-7-.6-6.4-3.4.5-15.6 3.8-30.5 6.9-1.4.3-2.8.7-5.6.8-2.8 0-37.5.2-38.6.2-1.7 0-5.6.9-6.9 6.8-1.3 5.6-3 20 .3 22.8 3.4 2.8 3.6 4.4 5.3 6.1 5.9 6 12.4 10.1 14.5 11.9s6.3 6.4 8.5 11c1.5 3.2 4.3 9 8.8 13 2.1 1.9 5.5 1.4 6.7.6 1.1-.7 4.5-2.3 3.2-11-1.1-7.6-8.5-14.9-8.4-20.3.1-3.6 2.5-5.1 12-6.8 13.5-2.4 53.2-.9 60.1-1.9 6.8-.9 8.4-8.5 2-9.5-1.6-.2-32.6-4.2-32.6-4.2s23.7-2.2 25.3-2.5c8.7-1.6 7.6-9.1 3.2-9.2-4.9-.1-16.9.1-16.9.1s4.8-1.2 6.8-2.2c4.7-2.3 4-7.7.1-7.5-4.1 0-16.7 1.3-16.7 1.3"/></defs><clipPath id="b"><use xlink:href="#a" style="overflow:visible"/></clipPath><g style="clip-path:url(#b)"><path d="M3 51.2c4.8 2.4 8.7 8.2 11.1 12.1C21 74.2 29.9 76 36.6 88.5c6.3 11.8 8.3 14.3 12.2 13 1.9-.6 4.3-3.4 2.4-9.5-1.6-4.9 3-5.1 4.1-1.6s4.4 12.4-3.5 16.1-12-1.7-13.6-4.1C36.7 100 3 61.4 3 61.4zm116.7 10.1c1.4-1 2.2-4 0-4.6-1.2-.4-14-2.7-25.6-4.8-.5-.1-1.5-.3-1.4-1.5.1-1.3-17.5-1.8-18-1.9-2.4-.5-1.9-4.1.5-3.8 2.1.3 33 2.4 34.6 2.5 6.2.4 8.3-5.9 4.5-6.6-3-.6-8.7-1.2-9.3-1.3-.5-.1-1-.4-1-1 1.2-.3 14.6-2.2 14.6-2.2l6.7 23.7-3.5 4.1zM93 37.4s-20.6-1.2-21.4-1.2c-2.9 0-2.5 3.4-.3 3.4 1.9 0 22.1-1.4 22.1-1.4zm12.1-2.8c1-.5 2-3 0-3.6-2.4-.8-23.6 2.5-32.1 1.5-2.4 0-6.2.4-7.1.5-.8.1-2-.2-3-.9-3.2.9-6.4 1.6-9.1 1.5-3-.1-47.6.2-47.6.2l6.4-3.8h41l36.5-8.7 19.8 7-.3 7z" style="fill:#faa700"/></g><defs><path id="c" d="M88.4 30.4c3.7-2 3.5-7-.6-6.4-3.4.5-15.6 3.8-30.5 6.9-1.4.3-2.8.7-5.6.8-2.8 0-37.5.2-38.6.2-1.7 0-5.6.9-6.9 6.8-1.3 5.6-3 20 .3 22.8 3.4 2.8 3.6 4.4 5.3 6.1 5.9 6 12.4 10.1 14.5 11.9s6.3 6.4 8.5 11c1.5 3.2 4.3 9 8.8 13 2.1 1.9 5.5 1.4 6.7.6 1.1-.7 4.5-2.3 3.2-11-1.1-7.6-8.5-14.9-8.4-20.3.1-3.6 2.5-5.1 12-6.8 13.5-2.4 53.2-.9 60.1-1.9 6.8-.9 8.4-8.5 2-9.5-1.6-.2-32.6-4.2-32.6-4.2s23.7-2.2 25.3-2.5c8.7-1.6 7.6-9.1 3.2-9.2-4.9-.1-16.9.1-16.9.1s4.8-1.2 6.8-2.2c4.7-2.3 4-7.7.1-7.5-4.1 0-16.7 1.3-16.7 1.3"/></defs><clipPath id="d"><use xlink:href="#c" style="overflow:visible"/></clipPath><g style="clip-path:url(#d)"><path d="M52.4 103.1c-.4-.5-.9-.9-.5-1.9.3-1 1.5-3.7-1.1-9.7s-6-12.1-7.4-14.5c-1.9-3.2-4.4-12.2 12.5-13.9 12.5-1.2 36.6-2.1 58.9-1.2 2.8.1 6.3-1.8 7.4-3.9.5-1 1.9-.3 1.9-.3l-2.2 8.1s-70.7 4.9-70.6 5.3 7.4 30 6.8 30c-.6.1-5.7 2-5.7 2m34.2-52.8S75.5 48.8 75 48.8s-.7-.7 0-.8 24.8-.2 36.5-2.4c3.7-.7 5.5-2.4 5.7-2.8.5-.9 1-1 1.9-.9.8.1 0 3.1 0 3.1l-4.1 3.6-17.6 1.6H86.6zm11.6-11.6s-26 1.2-26.4 1.2c-.7 0-.7-.8-.1-.8 21.3-1.4 29-3.2 31.3-4 2.5-.9 3.6-1.6 4.5-3 .3-.4.7-.7 1.2-.7 1.9 0 2.1 3.1-.6 4.9-2.8 1.9-9.9 2.4-9.9 2.4m-9.8-8.3c-1.5.2-22 2.8-22.2 2.8-.6.1-.6-.6-.2-.7 1.8-.5 19.5-3 20.7-3.3 1.2-.2 3.2-.9 3.8-2.1.4-.7 1-.3 1-.3l-.8 2.5z" style="fill:#b55e19"/></g></svg>