<svg xmlns="http://www.w3.org/2000/svg" xmlns:xlink="http://www.w3.org/1999/xlink" xml:space="preserve" viewBox="0 0 128 128"><path d="M93.3 23.6c-6.6 1.3-14.5 7.6-20.6-.6-2.8-3.8-5.6-8.3-9.6-11.7C55.4 4.5 49.2 3 38.7 3.1 18.1 3.4 18 23.4 28.2 27.5l-.9 76.6s-6.6 2.3-5.7 7.6c.5 2.7 1.2 6.7 1.6 8 2.1 8.3 23.5 4.5 26.7.4 3.4-4.4 56.8-71.5 59.2-74.6 6.3-7.8-.1-24.9-15.8-21.9m.3 16.8C92.1 42 45.4 86.3 41.9 89.6c-.1.1-.2 0-.2-.1l-.3-62.9c.6-.2 1.3-.5 1.9-.9 1.1-.7 5.8-.1 8.3 2 2.8 2.4 10.9 9 12.9 10.6 4.9 3.8 14.2 4.5 21.9 1.7 1.7-.6 6.4-2.3 6.4-2.3 1-.5 2.2 1.3.8 2.7" style="fill:#f4ae3b"/><defs><path id="a" d="M93.3 23.6c-6.6 1.3-14.5 7.6-20.6-.6-2.8-3.8-5.6-8.3-9.6-11.7C55.4 4.5 49.2 3 38.7 3.1 18.1 3.4 18 23.4 28.2 27.5l-.9 76.6s-6.6 2.3-5.7 7.6c.5 2.7 1.2 6.7 1.6 8 2.1 8.3 23.5 4.5 26.7.4 3.4-4.4 56.8-71.5 59.2-74.6 6.3-7.8-.1-24.9-15.8-21.9m.3 16.8C92.1 42 45.4 86.3 41.9 89.6c-.1.1-.2 0-.2-.1l-.3-62.9c.6-.2 1.3-.5 1.9-.9 1.1-.7 5.8-.1 8.3 2 2.8 2.4 10.9 9 12.9 10.6 4.9 3.8 14.2 4.5 21.9 1.7 1.7-.6 6.4-2.3 6.4-2.3 1-.5 2.2 1.3.8 2.7"/></defs><clipPath id="b"><use xlink:href="#a" style="overflow:visible"/></clipPath><path d="M41.6 101.8s52.7-56 53.8-57.4c1.2-1.3-1.2-1.6-2.3-.5-1.1 1.2-53.7 53.3-53.7 53.3z" style="clip-path:url(#b);fill:#df7f14"/><defs><path id="c" d="M93.3 23.6c-6.6 1.3-14.5 7.6-20.6-.6-2.8-3.8-5.6-8.3-9.6-11.7C55.4 4.5 49.2 3 38.7 3.1 18.1 3.4 18 23.4 28.2 27.5l-.9 76.6s-6.6 2.3-5.7 7.6c.5 2.7 1.2 6.7 1.6 8 2.1 8.3 23.5 4.5 26.7.4 3.4-4.4 56.8-71.5 59.2-74.6 6.3-7.8-.1-24.9-15.8-21.9m.3 16.8C92.1 42 45.4 86.3 41.9 89.6c-.1.1-.2 0-.2-.1l-.3-62.9c.6-.2 1.3-.5 1.9-.9 1.1-.7 5.8-.1 8.3 2 2.8 2.4 10.9 9 12.9 10.6 4.9 3.8 14.2 4.5 21.9 1.7 1.7-.6 6.4-2.3 6.4-2.3 1-.5 2.2 1.3.8 2.7"/></defs><clipPath id="d"><use xlink:href="#c" style="overflow:visible"/></clipPath><path d="M34 26.7s-.5 76.8-.5 79c0 2.4-3.6 2.1-4.5 1.4-1.2-.8-2 .6-1.1 1.5 4.7 4.3 14 .6 13.9-3.4l-.1-15.4s-.3-61.1-.3-63.2c15.3 19.9 20.7 22.6 51.4 11 3.1-1.2 5-1.4 6.6.6 1.2 1.5.9 3.7-.7 5.6-1.1 1.3-54.8 66.8-56.1 68.4-2 2.6-16.7 6.4-21-.9-2.6-4.5-4.9-1.2-5 .1s-.2 14.4-.2 14.4l44 .3 61.5-85.3s-4.1-9.2-19-16.3c-7.5-3.6-14.7 6.3-24.9 2.6-11.4-4.2-6-23.7-33.8-23.7-5 0-10.2 1.8-13.3 5.2-4.6 5.3-4.8 14.7 3.1 18.1" style="clip-path:url(#d);fill:#ac5810"/><defs><path id="e" d="M93.3 23.6c-6.6 1.3-14.5 7.6-20.6-.6-2.8-3.8-5.6-8.3-9.6-11.7C55.4 4.5 49.2 3 38.7 3.1 18.1 3.4 18 23.4 28.2 27.5l-.9 76.6s-6.6 2.3-5.7 7.6c.5 2.7 1.2 6.7 1.6 8 2.1 8.3 23.5 4.5 26.7.4 3.4-4.4 56.8-71.5 59.2-74.6 6.3-7.8-.1-24.9-15.8-21.9m.3 16.8C92.1 42 45.4 86.3 41.9 89.6c-.1.1-.2 0-.2-.1l-.3-62.9c.6-.2 1.3-.5 1.9-.9 1.1-.7 5.8-.1 8.3 2 2.8 2.4 10.9 9 12.9 10.6 4.9 3.8 14.2 4.5 21.9 1.7 1.7-.6 6.4-2.3 6.4-2.3 1-.5 2.2 1.3.8 2.7"/></defs><clipPath id="f"><use xlink:href="#e" style="overflow:visible"/></clipPath><path d="M46.1 16.8c14.5-1.3 15.8 22.7 35.6 19.3 4-.7 10.2-3 13.2-3.8 2.9-.7 4.6 3.4.8 4.3-4.4 1-25 9.5-26.4 9.6-.9.1-27.9-19.8-27.9-19.8s6.8-1.7 4.7-9.6" style="clip-path:url(#f);fill:#b78759"/><path d="M49 89.7V12.3c0-.9 2-.9 2 0v77.4c0 .8-2 .8-2 0m10.4-8.6V16c0-.9-2-.9-2 0v65.1c0 .9 2 .8 2 0m7.4-7.6V24.6c0-.9-2-.9-2 0v48.9c.1.8 2 .8 2 0m7.7-8.1V30.8c0-.9-2-.9-2 0v34.6c0 .8 2 .8 2 0m8.2-8.3V33.3c0-.9-2-.9-2 0v23.9c0 .8 2 .7 2-.1m7.9-8.4V31.4c0-.9-2-.9-2 0v17.3c0 .8 2 .8 2 0" style="fill:#6ca4ae"/><circle cx="50" cy="11.1" r="2.5" style="fill:#464c50"/><circle cx="58.4" cy="15.3" r="2.4" style="fill:#464c50"/><circle cx="65.9" cy="23.4" r="2.4" style="fill:#464c50"/><circle cx="73.5" cy="30.1" r="2.2" style="fill:#464c50"/><circle cx="81.7" cy="32.2" r="2.1" style="fill:#464c50"/><circle cx="89.6" cy="30.7" r="2.1" style="fill:#464c50"/></svg>