<svg xmlns="http://www.w3.org/2000/svg" xml:space="preserve" viewBox="0 0 128 128"><path d="m115.6 12.8-.5-.5c-9.4-9.4-24.5-9.4-33.9 0L13.7 79.8c-10.1 10.1-10.1 26.6 0 36.7l.5.5c9.4 9.4 24.5 9.4 33.9 0l67.5-67.5c10.1-10.1 10.1-26.6 0-36.7m-94.2 90c-1 1-2.7 1-3.7 0s-1-2.7 0-3.7 2.7-1 3.7 0 1 2.7 0 3.7M23 92c-1 1-2.7 1-3.7 0s-1-2.7 0-3.7 2.7-1 3.7 0 1 2.7 0 3.7m7.3 19.7c-1 1-2.7 1-3.7 0s-1-2.7 0-3.7 2.7-1 3.7 0 1 2.7 0 3.7m2-10.4c-1 1-2.7 1-3.7 0s-1-2.7 0-3.7 2.7-1 3.7 0 1 2.7 0 3.7m1.5-11c-1 1-2.7 1-3.7 0s-1-2.7 0-3.7 2.7-1 3.7 0 1 2.7 0 3.7m1.6-10.7c-1 1-2.7 1-3.7 0s-1-2.7 0-3.7 2.7-1 3.7 0 1 2.7 0 3.7M41 110c-1 1-2.7 1-3.7 0s-1-2.7 0-3.7 2.7-1 3.7 0 1 2.7 0 3.7m1.7-10.7c-1 1-2.7 1-3.7 0s-1-2.7 0-3.7 2.7-1 3.7 0 1 2.7 0 3.7m2-10.4c-1 1-2.7 1-3.7 0s-1-2.7 0-3.7 2.7-1 3.7 0 1 2.7 0 3.7m8.8 8.8c-1 1-2.7 1-3.7 0s-1-2.7 0-3.7 2.7-1 3.7 0 1 2.7 0 3.7m26.1-62.3c-1 1-2.7 1-3.7 0s-1-2.7 0-3.7 2.7-1 3.7 0 1 2.7 0 3.7m8.7 8.7c-1 1-2.7 1-3.7 0s-1-2.7 0-3.7 2.7-1 3.7 0 1 2.7 0 3.7m2-10.3c-1 1-2.7 1-3.7 0s-1-2.7 0-3.7 2.7-1 3.7 0 1 2.7 0 3.7M92 23c-1 1-2.7 1-3.7 0s-1-2.7 0-3.7 2.7-1 3.7 0 1 2.7 0 3.7m5.7 30.4c-1 1-2.7 1-3.7 0s-1-2.7 0-3.7 2.7-1 3.7 0 1 2.7 0 3.7m1.6-10.7c-1 1-2.7 1-3.7 0s-1-2.7 0-3.7 2.7-1 3.7 0 1 2.7 0 3.7m1.4-11c-1 1-2.7 1-3.7 0S96 29 97 28s2.7-1 3.7 0 1 2.7 0 3.7m2.1-10.3c-1 1-2.7 1-3.7 0s-1-2.7 0-3.7 2.7-1 3.7 0 1 2.7 0 3.7m7.3 19.7c-1 1-2.7 1-3.7 0s-1-2.7 0-3.7 2.7-1 3.7 0 1 2.7 0 3.7m1.6-10.8c-1 1-2.7 1-3.7 0s-1-2.7 0-3.7 2.7-1 3.7 0 1 2.7 0 3.7" style="fill:#bdbdbd"/><path d="m114.3 11.5-.5-.5c-9.4-9.4-24.5-9.4-33.9 0L12.4 78.5c-10.1 10.1-10.1 26.6 0 36.7l.5.5c9.4 9.4 24.5 9.4 33.9 0l67.5-67.5c10.1-10.1 10.1-26.6 0-36.7M20 101.4c-1 1-2.7 1-3.7 0s-1-2.7 0-3.7 2.7-1 3.7 0 1 2.7 0 3.7m1.7-10.7c-1 1-2.7 1-3.7 0S17 88 18 87s2.7-1 3.7 0 1 2.7 0 3.7m7.3 19.7c-1 1-2.7 1-3.7 0s-1-2.7 0-3.7 2.7-1 3.7 0 1 2.7 0 3.7m2-10.4c-1 1-2.7 1-3.7 0s-1-2.7 0-3.7 2.7-1 3.7 0 1 2.7 0 3.7m1.4-11c-1 1-2.7 1-3.7 0s-1-2.7 0-3.7 2.7-1 3.7 0 1 2.7 0 3.7m1.7-10.7c-1 1-2.7 1-3.7 0s-1-2.7 0-3.7 2.7-1 3.7 0 1 2.7 0 3.7m5.6 30.4c-1 1-2.7 1-3.7 0s-1-2.7 0-3.7 2.7-1 3.7 0 1 2.7 0 3.7M41.4 98c-1 1-2.7 1-3.7 0s-1-2.7 0-3.7 2.7-1 3.7 0 1 2.7 0 3.7m2-10.4c-1 1-2.7 1-3.7 0s-1-2.7 0-3.7 2.7-1 3.7 0 1 2.7 0 3.7m8.7 8.7c-1 1-2.7 1-3.7 0s-1-2.7 0-3.7 2.7-1 3.7 0 1 2.7 0 3.7m26.2-62.2c-1 1-2.7 1-3.7 0s-1-2.7 0-3.7 2.7-1 3.7 0 1 2.7 0 3.7m8.7 8.7c-1 1-2.7 1-3.7 0s-1-2.7 0-3.7 2.7-1 3.7 0 1 2.7 0 3.7m2-10.4c-1 1-2.7 1-3.7 0s-1-2.7 0-3.7 2.7-1 3.7 0 1 2.7 0 3.7m1.7-10.7c-1 1-2.7 1-3.7 0S86 19 87 18s2.7-1 3.7 0 1 2.7 0 3.7m5.6 30.4c-1 1-2.7 1-3.7 0s-1-2.7 0-3.7 2.7-1 3.7 0 1 2.7 0 3.7M98 41.4c-1 1-2.7 1-3.7 0s-1-2.7 0-3.7 2.7-1 3.7 0 1 2.7 0 3.7m1.4-11c-1 1-2.7 1-3.7 0s-1-2.7 0-3.7 2.7-1 3.7 0 1 2.7 0 3.7m2-10.4c-1 1-2.7 1-3.7 0s-1-2.7 0-3.7 2.7-1 3.7 0 1 2.7 0 3.7m7.3 19.7c-1 1-2.7 1-3.7 0s-1-2.7 0-3.7 2.7-1 3.7 0 1 2.7 0 3.7m1.7-10.7c-1 1-2.7 1-3.7 0s-1-2.7 0-3.7 2.7-1 3.7 0 1 2.7 0 3.7" style="fill:#e0e1e0"/><path d="M87.1 66c2.1-2.3 1.7-3-2.2-2.7-3.2.2-5.3 2.3-6.6 3.6L64.2 81c-1.3 1.3-3.3 1.3-4.5 0h-.1c-2.3-2.5-11.4-11.6-11.4-11.6-1.3-1.3-2.8-3-4.5-3.5-1.4-.4-2.6-1-5.2-.4-2.2.5 1.7 3.8 2.7 4.8L58.9 88c1.7 1.7 4.4 1.7 6.1 0 0 0 21.4-21.2 22.1-22" style="fill:#bdbdbd"/><path d="M88 58.9S68.3 39.3 67.8 38.7c-1.7-1.7-4.4-1.7-6.1 0-2 2-20.6 20.4-20.6 20.4s-2.5 2.5.1 3 4.4 0 6.3-1.8c5-4.8 14.8-14.5 14.8-14.5 1.3-1.3 3.3-1.3 4.5 0 2.3 2.3 10.1 10 11.7 11.6 2 2 4.2 3.2 7.1 3.3 3.8.2 2.5-1.2 2.2-1.7z" style="fill:#fff"/></svg>