<svg xmlns="http://www.w3.org/2000/svg" xml:space="preserve" viewBox="0 0 128 128"><path d="m69.54 6.37 52.2 52a7.887 7.887 0 0 1-.2 11.1l-52 52.2a7.99 7.99 0 0 1-11.3 0l-52-52.2a8 8 0 0 1-.2-11.1l52.2-52a7.99 7.99 0 0 1 11.3 0" style="fill:#1976d2"/><path d="m64.64 10.47 48.5 48.4a7.27 7.27 0 0 1-.18 10.28l-.02.02-48.4 48.5a7.42 7.42 0 0 1-10.49.01l-.01-.01-48.3-48.5a7.28 7.28 0 0 1-.21-10.29l.01-.01 48.6-48.4a7.415 7.415 0 0 1 10.5 0c-.01-.01 0-.01 0 0" style="fill:#2196f3"/><path d="M52.84 17.67c-1.6 1.1-33.1 32.3-33.1 32.3s-2.6 2.3-.8 4.7c1.7 2.2 4.3 1.1 5.6-.1s29.7-29 30.9-30.4a5.43 5.43 0 0 0 .6-5.5c-.8-1.6-2.1-1.8-3.2-1" style="fill:#90caf9"/><circle cx="15.44" cy="60.48" r="3.3" style="fill:#90caf9"/></svg>