<svg xmlns="http://www.w3.org/2000/svg" xmlns:xlink="http://www.w3.org/1999/xlink" xml:space="preserve" viewBox="0 0 128 128"><path d="M94.5 56.3c.3-8 .4-17.6.5-20.1.1-1.5.2-2.8.4-4.7.3-2.7 1.7-13.6-5.3-15.3-.6-9.1-10.3-8.1-11.2-2.7C77.1 24.9 73.3 45 71.4 53c-1.6 6.8-3.5 9.7-4.2 13.5-.5 2.7-3.7 14.6-4.2 16.3-1.1 4-3.8 6.7-9.2 7.3-9.2.9-30.1-2.5-32.4-2.9-1.9-.3-2.7.4-2.9 1.6-1.8 7.6-2.1 24.9 1.2 29.4.6.8 1.4 1.3 2.7 1.3 1.4 0 38.6.4 52.3-2.1 10.9-1.9 26.5-4.5 23.5-26-2.4-17.2 2-10.9.3-27.5-.3-2.9-2.2-6.7-4-7.6" style="fill:#ffca28"/><defs><path id="a" d="M94.5 56.3c.3-8 .4-17.6.5-20.1.1-1.5.2-2.8.4-4.7.3-2.7 1.7-13.6-5.3-15.3-.6-9.1-10.3-8.1-11.2-2.7C77.1 24.9 73.3 45 71.4 53c-1.6 6.8-3.5 9.7-4.2 13.5-.5 2.7-3.7 14.6-4.2 16.3-1.1 4-3.8 6.7-9.2 7.3-9.2.9-30.1-2.5-32.4-2.9-1.9-.3-2.7.4-2.9 1.6-1.8 7.6-2.1 24.9 1.2 29.4.6.8 1.4 1.3 2.7 1.3 1.4 0 38.6.4 52.3-2.1 10.9-1.9 26.5-4.5 23.5-26-2.4-17.2 2-10.9.3-27.5-.3-2.9-2.2-6.7-4-7.6"/></defs><clipPath id="b"><use xlink:href="#a" style="overflow:visible"/></clipPath><g style="clip-path:url(#b)"><path d="M15.7 105.6c4.9.1 52.7 2.9 56.1 3.1 7.1.6 19.7-2.2 19.7-14.7 0-4.1.6-18.2 4.7-18.2h7.2s-.6 45.3-.5 45.1-87.6 1.3-87.6 1.3zm78-80.3c-.7.3-1.9.5-2.3 2.5s-5.9 31.3-5.9 31.3 2.8-3.3 7.1-2.2c4.3 1 3.9-3.5 3.9-3.5l.3-28h-3.1z" style="fill:#faa700"/><path d="M16.6 89.4c2.8.3 29.1 3 32.5 3.2 11.9.5 15.5-5 16.6-10.5 0 0 2.5-10.1 3.1-12.8 1.2-5.5 3.9-10.9 5.2-16.4 1.4-6.1 5.8-31 7-38 .2-1.3.7-2.1 1.4-2.6 1.2-.7 2.7.3 2.6 1.7l-.8 6.8S85 17 91 17.5c.5-5.8 1-9.7 1-9.7l-14.5-.7-21.2 78.2-39.1-.5z" style="fill:#faa700"/></g><defs><path id="c" d="M94.5 56.3c.3-8 .4-17.6.5-20.1.1-1.5.2-2.8.4-4.7.3-2.7 1.7-13.6-5.3-15.3-.6-9.1-10.3-8.1-11.2-2.7C77.1 24.9 73.3 45 71.4 53c-1.6 6.8-3.5 9.7-4.2 13.5-.5 2.7-3.7 14.6-4.2 16.3-1.1 4-3.8 6.7-9.2 7.3-9.2.9-30.1-2.5-32.4-2.9-1.9-.3-2.7.4-2.9 1.6-1.8 7.6-2.1 24.9 1.2 29.4.6.8 1.4 1.3 2.7 1.3 1.4 0 38.6.4 52.3-2.1 10.9-1.9 26.5-4.5 23.5-26-2.4-17.2 2-10.9.3-27.5-.3-2.9-2.2-6.7-4-7.6"/></defs><clipPath id="d"><use xlink:href="#c" style="overflow:visible"/></clipPath><path d="M15.7 114.4s46.2 2.3 63.2-.6c6.4-1.1 18-6.1 16.6-18.4-2.3-19.8 2.1-18.7.5-31.4-1.2-8.8-9.7-6.3-10.1-.8 0 0-1.2 10.3-1.2 13.4 0 5.4-1.4 7.7-2.9 10.9-.6 1.2-2.2.8-1.7-.8s1.1-3.2 1.3-3.9c.3-.8.7-3.7.9-6.2.9-9.7-1-21.2 9.4-20.9.2-5.8.3-16.3.2-17.9-.1-4 1.3-11.8.5-15.5-1.1-5.6-6.9-4.2-7.2.1-2 23.5-6.1 34-7.2 41.6-.2 1.6-1.6 1.4-1.6-.2.2-6.4 4.9-21.7 6.6-41.7.3-3.2 2.7-5.4 4.4-5.4-.1-3.1-1.2-5.4-2.7-6.3-.8-.5-.7-1.3-.7-1.6 3.5.2 8.7.4 8.7.4L98 24.7l3.2 42.5-.3 43.5-17.9 9.8-66.6.9z" style="clip-path:url(#d);fill:#b55e19"/></svg>