<svg xmlns="http://www.w3.org/2000/svg" xml:space="preserve" viewBox="0 0 128 128"><path d="M116 4H12c-4.42 0-8 3.58-8 8v104c0 4.42 3.58 8 8 8h104c4.42 0 8-3.58 8-8V12c0-4.42-3.58-8-8-8" style="fill:#c33"/><path d="M109.7 4H11.5A7.555 7.555 0 0 0 4 11.5v97.9c-.01 4.14 3.34 7.49 7.48 7.5h98.12c4.14.01 7.49-3.34 7.5-7.48V11.5c.09-4.05-3.13-7.41-7.18-7.5z" style="fill:#f44336"/><path d="M39.7 12.9c0-2.3-1.6-3-10.8-2.7-7.7.3-11.5 1.2-13.8 4s-2.9 8.5-3 15.3c0 4.8 0 9.3 2.5 9.3 3.4 0 3.4-7.9 6.2-12.3 5.4-8.7 18.9-10.6 18.9-13.6" style="fill:#ff8a80"/><path d="M102.8 66.4c0 9.2-1.6 17.2-4.8 24.1a36.07 36.07 0 0 1-13.6 15.9 37.3 37.3 0 0 1-20.3 5.6c-7.14.16-14.16-1.79-20.2-5.6a37.14 37.14 0 0 1-13.7-15.8 55.1 55.1 0 0 1-4.9-23.7v-5.3c0-9.1 1.6-17.2 4.8-24.1a36 36 0 0 1 13.7-16A36.8 36.8 0 0 1 64 16c7.12-.16 14.14 1.75 20.2 5.5 6 3.8 10.73 9.3 13.6 15.8 3.2 6.9 4.8 14.9 4.9 24zm-16.3-4.8c0-10.4-2-18.3-5.9-23.8s-9.5-8.3-16.7-8.3c-6.53-.2-12.72 2.88-16.5 8.2-4 5.4-6 13.3-6.1 23.3v5.4c0 10.3 2 18.2 6 23.8s9.5 8.4 16.6 8.4 12.7-2.7 16.6-8.2 5.8-13.5 5.8-24z" style="fill:#fafafa"/></svg>