<svg xmlns="http://www.w3.org/2000/svg" xmlns:xlink="http://www.w3.org/1999/xlink" xml:space="preserve" viewBox="0 0 128 128"><path d="m102.8 89.9-15.7 20.3s-14.6-8-18.4-10-4.7-8.8-4.7-8.8-.9 6.8-4.7 8.8-18.4 10-18.4 10L25.2 89.9c5.4-2.5 8.7-5 10.9-6.8s4-4.8 4.8-7.8c.7-3 3.7-17.6 3.8-20s.8-5.4 2.3-7.8 2-6.6 3-11.8c1.7-9 3-13.5 3.3-15.7.3-2.1.5-7.1.6-8.7.1-1.4 1.7-3.2 4.3-3.3 4.1-.2 5.8 2.2 5.8 5.4 0-3.3 1.7-5.6 5.8-5.4 2.6.1 4.1 1.9 4.3 3.5.1 1.6.3 6.6.6 8.7s1.6 6.7 3.3 15.7c1 5.2 1.6 9.5 3 11.8s2.2 5.4 2.3 7.8 3.1 17 3.8 20c.8 3 2.6 6 4.8 7.8 2.2 1.7 5.5 4.1 10.9 6.6" style="fill:#ffca28"/><defs><path id="a" d="M102.8 89.9c-5.4-2.5-8.7-5-10.9-6.8s-4-4.8-4.8-7.8-3.7-17.6-3.8-20-.8-5.4-2.3-7.8c-1.4-2.4-2-6.6-3-11.8-1.7-9-3-13.5-3.3-15.7-.3-2.1-.5-7.1-.6-8.7-.1-1.4-1.7-3.2-4.2-3.3-4.1-.2-5.9 2.2-5.9 5.4v78.1s.9 6.8 4.7 8.8 18.4 10 18.4 10z"/></defs><clipPath id="b"><use xlink:href="#a" style="overflow:visible"/></clipPath><g style="clip-path:url(#b)"><path d="M102.8 93.5s-9-6.1-11.7-8.1c-2.7-1.9-5.8-5-6.4-8.7s-2.4-13.3-2.8-16.1c-.3-2.6-.5-5.7-1.1-8.4-.4-1.9-2.3-3.8-2.8-7.1-.4-3.3-4.1-21-4.1-21s-1.5-7.5-1.5-9.1c0-3-.3-5.8-3.8-6s-2.2-3.4-2.1-3.7c.2-.2 8.1 0 8.1 0l30.1 82.1zm-10 8.6S80 94.7 78.5 93.5c-3 .6-13.6.5-13.9-13.5H62l-.5 22.7L85.8 113z" style="fill:#faa700"/></g><defs><path id="c" d="M25.2 89.9c5.4-2.5 8.7-5 10.9-6.8s4-4.8 4.8-7.8c.7-3 3.7-17.6 3.8-20s.8-5.4 2.3-7.8c1.4-2.4 2-6.6 3-11.8 1.7-9 3-13.5 3.3-15.7.3-2.1.5-7.1.6-8.7.1-1.4 1.7-3.2 4.2-3.3 4.1-.2 5.9 2.2 5.9 5.4v78.1s-.9 6.8-4.7 8.8-18.4 10-18.4 10z"/></defs><clipPath id="d"><use xlink:href="#c" style="overflow:visible"/></clipPath><g style="clip-path:url(#d)"><path d="M25.2 93.5s9-6.1 11.7-8.1c2.7-1.9 5.8-5 6.4-8.7s2.4-13.3 2.8-16.1c.3-2.6.5-5.7 1.1-8.4.4-1.9 2.3-3.8 2.8-7.1.4-3.3 4.1-21 4.1-21s1.5-7.5 1.5-9.1c0-3 .3-5.8 3.8-6s2.2-3.4 2.1-3.7-8.1 0-8.1 0L23.2 87.5zm10 8.6s12.8-7.4 14.3-8.6c3 .6 13.6.5 13.9-13.5H66l.5 22.7L42.2 113z" style="fill:#faa700"/></g><defs><path id="e" d="M102.8 89.9c-5.4-2.5-8.7-5-10.9-6.8s-4-4.8-4.8-7.8-3.7-17.6-3.8-20-.8-5.4-2.3-7.8c-1.4-2.4-2-6.6-3-11.8-1.7-9-3-13.5-3.3-15.7-.3-2.1-.5-7.1-.6-8.7-.1-1.4-1.7-3.2-4.2-3.3-4.1-.2-5.9 2.2-5.9 5.4v78.1s.9 6.8 4.7 8.8 18.4 10 18.4 10z"/></defs><clipPath id="f"><use xlink:href="#e" style="overflow:visible"/></clipPath><path d="M72.8 9.1c-2.6-.7-6.5-.6-6.5 6.1 2.1-2.7 7.7-1.8 8.3 3.3.4 3.6 6.8 28.3 6.8 28.3s-2.8 1-3.2-.9-4.5-21.3-4.8-22.9c-.4-1.6-.5-4-.9-4.8-1.4-3.6-6.4-2-6.5.7-.1 3.8-.1 7.7-.1 9.8 1.7-2.3 4.7-2.1 5.9-1.3 1.1.7 1.8 1.9 1.9 2.7.8 5 1.8 12.3 2.1 14.3s1.2 5.2 1.7 6.8c.5 1.7 1.7 5.8 1.8 8 0 1.7-1.8 1.4-1.9.2-.2-2.7-1.6-7.2-2.1-8.9s-1.4-5.3-1.8-8.9c-.4-3.5-1.1-8.1-1.4-9.8-.7-3.8-6-3.3-6.3.1-.3 2.7-.6 5.6.2 9.9.5 2.6 1 10.2-.4 14.7-.6 1.8-.7 5.4-.7 7.7 0 2.2-.2 25.5-.2 26.3s-.7.6-.7.6h-1.7l.6-84.3 10.3-.3c.1 0 2.2 3.3-.4 2.6" style="clip-path:url(#f);fill:#b55e19"/><defs><path id="g" d="M25.2 89.9c5.4-2.5 8.7-5 10.9-6.8s4-4.8 4.8-7.8c.7-3 3.7-17.6 3.8-20s.8-5.4 2.3-7.8c1.4-2.4 2-6.6 3-11.8 1.7-9 3-13.5 3.3-15.7.3-2.1.5-7.1.6-8.7.1-1.4 1.7-3.2 4.2-3.3 4.1-.2 5.9 2.2 5.9 5.4v78.1s-.9 6.8-4.7 8.8-18.4 10-18.4 10z"/></defs><clipPath id="h"><use xlink:href="#g" style="overflow:visible"/></clipPath><path d="M55.2 9.1c2.6-.7 6.5-.6 6.5 6.1-2.1-2.7-7.7-1.8-8.3 3.3-.4 3.6-6.8 28.3-6.8 28.3s2.8 1 3.2-.9 4.5-21.3 4.8-22.9c.4-1.6.5-4 .9-4.8 1.4-3.6 6.4-2 6.5.7.1 3.8.1 7.7.1 9.8-1.7-2.3-4.7-2.1-5.9-1.3-1.1.7-1.8 1.9-1.9 2.7-.8 5-1.8 12.3-2.1 14.3s-1.2 5.2-1.7 6.8-1.7 5.8-1.8 8c0 1.7 1.8 1.4 1.9.2.2-2.7 1.6-7.2 2.1-8.9s1.4-5.3 1.8-8.9c.4-3.5 1.1-8.1 1.4-9.8.7-3.8 6-3.3 6.3.1.3 2.7.6 5.6-.2 9.9-.5 2.6-1 10.2.4 14.7.6 1.8.7 5.4.7 7.7 0 2.2.2 25.5.2 26.3 0 .7.7.7.7.7h1.7l-.6-84.4-10.4-.3s-2.1 3.3.5 2.6" style="clip-path:url(#h);fill:#b55e19"/><path d="M114.9 94.4c-4.5-1.7-10.1-5.5-11.8-6.7s-2.7-.2-3 .5c-4.1 7.7-13.6 18.2-18.5 23.3-.9.9-.4 2.2 0 2.6s11.6 10.1 11.6 10.1 14.3-9.6 21.7-29.8m-101.8 0c4.5-1.7 10.1-5.5 11.8-6.7s2.7-.2 3 .5c4.1 7.7 13.6 18.2 18.5 23.3.9.9.4 2.2 0 2.6s-11.6 10.1-11.6 10.1-14.3-9.6-21.7-29.8" style="fill:#2686c6"/></svg>