<svg xmlns="http://www.w3.org/2000/svg" xmlns:xlink="http://www.w3.org/1999/xlink" xml:space="preserve" viewBox="0 0 128 128"><path d="M68.3 42.4c1.8 0 8.2.1 9.8.2s4.6.5 6.9 1.6 13.1 4.9 16.8 11.4c1.4 2.5 1.8 7.3-2.2 9.9 7.9 3.2 7.4 13.5.9 16.1 3 3.2 3.1 10.6-1.4 12.9-2.6 1.3-6.2 3.3-14.3 4 15.4 5.2 25.1 8.3 27.8 11.6 1.9 2.5 2.1 8.5-3.9 9-8.6.8-25.8-6.5-56.4-11-15.7-2.4-20.1-11-31.6-11.1-3.6 0-7.2-.1-8-.1s-1.8-.2-2-1.7c-2-13.3-2.4-27.6 0-38.3 0 0 .1-1.6 2.1-1.5s8-.3 10-.6 3.2-.6 4.9-2.6c6-7.3 16.6-13.2 19.1-15.6 4.2-4.2 6.8-10 6.5-16.6-.1-3.1-.4-5.7-.4-7.1-.1-5.7 7.1-7 9.9-4.4 1.8 1.7 9.9 6.5 6.9 24.4-.5 3.1-1.1 4.3-1.4 9.5" style="fill:#ffca28"/><defs><path id="a" d="M68.3 42.4c1.8 0 8.2.1 9.8.2s4.6.5 6.9 1.6 13.1 4.9 16.8 11.4c1.4 2.5 1.8 7.3-2.2 9.9 7.9 3.2 7.4 13.5.9 16.1 3 3.2 3.1 10.6-1.4 12.9-2.6 1.3-6.2 3.3-14.3 4 15.4 5.2 25.1 8.3 27.8 11.6 1.9 2.5 2.1 8.5-3.9 9-8.6.8-25.8-6.5-56.4-11-15.7-2.4-20.1-11-31.6-11.1-3.6 0-7.2-.1-8-.1s-1.8-.2-2-1.7c-2-13.3-2.4-27.6 0-38.3 0 0 .1-1.6 2.1-1.5s8-.3 10-.6 3.2-.6 4.9-2.6c6-7.3 16.6-13.2 19.1-15.6 4.2-4.2 6.8-10 6.5-16.6-.1-3.1-.4-5.7-.4-7.1-.1-5.7 7.1-7 9.9-4.4 1.8 1.7 9.9 6.5 6.9 24.4-.5 3.1-1.1 4.3-1.4 9.5"/></defs><clipPath id="b"><use xlink:href="#a" style="overflow:visible"/></clipPath><path d="M9.4 58.4c3.4-.1 11.5-.7 13.4-.8s5-.6 6.5-2.8c1.9-3 7.8-9.1 15.9-13.5 8-4.4 11.9-14.9 11.2-19.8-.4-2.9-.5-6.4-.6-7.9-.3-3.5 4.6-5.2 7.3-1.7 1 1.3 4.4 4.8 4.8 13.2.3 5.9-2.8 10.7-3.6 12.2s-2.4 6.7 5.4 7.6c2.3.3 7.5.3 9.1.3s4.4.4 4.4 4.2c0 4.7-4.9 6-4.6 9.8.2 2.2 3 4.9 4.2 6.3 1.3 1.4 2.7 5.7-.9 8.3-4.9 3.7-3.8 6.7-.5 9.5 3 2.5 3.2 8.2 1.1 10.1s-2.5 6.5 1.6 7.7c3.1.9 22.7 7.9 24.3 8.7 3 1.5 4.3 5.6 0 7.5-3.2 1.4-1 4.2-1 4.2l7.9-.3-.5-71.5-52-46-11.3.8L8.8 54.4z" style="clip-path:url(#b);fill:#faa700"/><defs><path id="c" d="M68.3 42.4c1.8 0 8.2.1 9.8.2s4.6.5 6.9 1.6 13.1 4.9 16.8 11.4c1.4 2.5 1.8 7.3-2.2 9.9 7.9 3.2 7.4 13.5.9 16.1 3 3.2 3.1 10.6-1.4 12.9-2.6 1.3-6.2 3.3-14.3 4 15.4 5.2 25.1 8.3 27.8 11.6 1.9 2.5 2.1 8.5-3.9 9-8.6.8-25.8-6.5-56.4-11-15.7-2.4-20.1-11-31.6-11.1-3.6 0-7.2-.1-8-.1s-1.8-.2-2-1.7c-2-13.3-2.4-27.6 0-38.3 0 0 .1-1.6 2.1-1.5s8-.3 10-.6 3.2-.6 4.9-2.6c6-7.3 16.6-13.2 19.1-15.6 4.2-4.2 6.8-10 6.5-16.6-.1-3.1-.4-5.7-.4-7.1-.1-5.7 7.1-7 9.9-4.4 1.8 1.7 9.9 6.5 6.9 24.4-.5 3.1-1.1 4.3-1.4 9.5"/></defs><clipPath id="d"><use xlink:href="#c" style="overflow:visible"/></clipPath><g style="clip-path:url(#d)"><path d="M64 8.1c1 2.3 6.6 15 .8 27.4-1 2.1-3.3 6.5 3.5 6.9 6.8.3 7.1-3.9 7.1-3.9v-22s-9.9-9.9-10.1-9.7zm35.7 57.4c-2.7-.5-15.2-3.3-17.8-3.2-2.6.2-3.2-1.5-3.3-3.3-.2-2.6 2.1-3.8 3.8-1.5.7 1 3.3 1.5 4.7 1.7 2 .4 16.7 3.5 16.7 3.5l-1.2 3.1zm.9 16.1c-4.9-.3-18.3-1.3-19.8-.9s-2.3-.7-2.5-2.3c-.2-2 1.3-2.9 2.4-2.2s2.2.7 3.4.8c1.6.1 21.8 2 21.8 2l-1.2 3zM84.8 98.5c-.8 0-1.9-.3-2.4-.5-1.1-.6-.8-2.9 1-3 3.6-.1 13.6.1 17.3-1s2.5 2.5.3 2.8c-2.1.3-11.9 2-11.9 2zm-72.5-.2c.5-1.4 1.7-4.2 10.2-4.2 6 0 8.2 1 11.9 3.1 6.3 3.6 12.8 6.8 21.2 8 8.4 1.3 16.6 2.7 23.7 4.4 9.2 2.2 17.9 5.2 23.6 6.4 2.2.5 7.2 1.3 9 .5s1.5.9 1.5.9l-3.5 4.3-95.4-11.1z" style="fill:#b55e19"/></g></svg>