<svg xmlns="http://www.w3.org/2000/svg" xml:space="preserve" viewBox="0 0 128 128"><path d="M25.24 39.27H12.99c-1.63 0-2.95-1.32-2.95-2.95V29.1c0-1.63 1.32-2.95 2.95-2.95h12.25c1.63 0 2.95 1.32 2.95 2.95v7.22a2.96 2.96 0 0 1-2.95 2.95" style="fill:#90a4ae"/><path d="M16.28 40.52h-4v-10.4c0-1.1.9-2 2-2s2 .9 2 2z" style="fill:#94d1e0"/><path d="M42.36 35.8h-5.51c-1.1 0-1.99-.89-1.99-1.99V28.3c0-1.1.53-1.58 1.99-1.99s4.12-.46 5.51 0c1.14.38 1.99.89 1.99 1.99v5.51c0 1.1-.9 1.99-1.99 1.99" style="fill:#546e7a"/><path d="M4 58.9h120v60.14H4z" style="fill:#212121"/><path d="M4 117.68v2.73c0 1.98 1.61 3.59 3.59 3.59h112.83c1.98 0 3.59-1.61 3.59-3.59v-2.73z" style="fill:#b0bec5"/><path d="M43.34 40.55h-7.49c-2.44 0-4.42-1.98-4.42-4.42v-.65c0-2.44 1.98-4.42 4.42-4.42h7.49c2.44 0 4.42 1.98 4.42 4.42v.65a4.41 4.41 0 0 1-4.42 4.42" style="fill:#90a4ae"/><path d="M121.73 34.16H8.05C5.81 34.16 4 35.97 4 38.21v21.72h120v-23.5c0-1.26-1.02-2.27-2.27-2.27" style="fill:#b0bec5"/><path d="M112.49 55.24H94.34a1.92 1.92 0 0 1-1.92-1.92V40.67c0-1.06.86-1.92 1.92-1.92h18.15c1.06 0 1.92.86 1.92 1.92v12.66c0 1.05-.85 1.91-1.92 1.91" style="fill:#78909c"/><path d="M92.42 52.84V40.88c0-1.18.95-2.13 2.13-2.13h17.79c1 0 1.41.55 1.41.55L93.11 54.72s-.69-.42-.69-1.88" style="fill:#757575"/><path d="M96.44 41.76h13.95v10.47H96.44z" style="fill:#212121"/><path d="M10.58 115.87H5.7c-.94 0-1.7-.76-1.7-1.7V68.28c0-.94.76-1.7 1.7-1.7h4.88c.94 0 1.7.76 1.7 1.7v45.89c0 .94-.77 1.7-1.7 1.7m111.7 0h-4.88c-.94 0-1.7-.76-1.7-1.7V68.28c0-.94.76-1.7 1.7-1.7h4.88c.94 0 1.7.76 1.7 1.7v45.89c0 .94-.76 1.7-1.7 1.7" style="fill:#616161"/><path d="M8.04 122.64c-1.1 0-2-.9-2-2v-2.44h4v2.44a2 2 0 0 1-2 2m113.82-64.12h-4v-20.4c0-1.1.9-2 2-2s2 .9 2 2zm-110.7 0h-4v-20.4c0-1.1.9-2 2-2s2 .9 2 2zm108.7 64.12c-1.1 0-2-.9-2-2v-2.44h4v2.44a2 2 0 0 1-2 2" style="fill:#b9e4ea"/><path d="M60.78 50.42c-.22 0-.41-.18-.41-.41V39.66c0-.22.18-.41.41-.41H84c.22 0 .41.18.41.41v10.35c0 .22-.18.41-.41.41z" style="fill:#fcebcd"/><path d="M83.9 39.76v10.16H60.88V39.76zm.1-1.01H60.78c-.5 0-.91.41-.91.91v10.35c0 .5.41.91.91.91H84c.5 0 .91-.41.91-.91V39.66c0-.5-.4-.91-.91-.91" style="fill:#78909c"/><path d="M64.54 48.49c-.76 0-1.38-.62-1.38-1.38v-4.54c0-.76.62-1.38 1.38-1.38s1.38.62 1.38 1.38v4.54c0 .76-.62 1.38-1.38 1.38m3.91 0c-.58 0-1.05-.47-1.05-1.05v-5.2a1.05 1.05 0 1 1 2.1 0v5.2c0 .58-.47 1.05-1.05 1.05m3.44 0a.77.77 0 0 1-.77-.77v-5.75a.77.77 0 0 1 1.54 0v5.75c0 .42-.34.77-.77.77" style="fill:#fff"/><circle cx="72.39" cy="88.31" r="32.79" style="fill:#616161"/><circle cx="72.39" cy="88.31" r="28.47" style="fill:#e0e0e0"/><circle cx="72.39" cy="88.31" r="20.33" style="fill:#2f7889"/><circle cx="72.39" cy="88.31" r="26.16"/><circle cx="72.39" cy="88.31" r="19.94" style="fill:#2f7889"/><path d="M67.67 71.58c-6.31 1.43-10.08 7.57-10.08 12.1 0 3.67 2.43 2.75 3.21 1.42 2.01-3.41 4.44-6.25 8.63-7.44 1.68-.48 3.64-1.53 3.44-3.49-.28-2.79-3.05-3.08-5.2-2.59" style="fill:#94d1e0"/><circle cx="72.39" cy="88.31" r="8.9" style="opacity:.25"/></svg>