<svg xmlns="http://www.w3.org/2000/svg" xmlns:xlink="http://www.w3.org/1999/xlink" xml:space="preserve" viewBox="0 0 128 128"><path d="M11.7 116.8c-.9.1-1.5 1-1.3 1.9.3 1.1.9 2.3 2.6 2.7s2.7 0 3.7-.2c1-.1 5 .3 7.8.2s6.5-1.5 10-1.3 9 1.2 12 1.2 6.1.2 7.7-1.3c1.3-1.2 2.6-3.8 1.7-7.1s-1.7-8.5-1.8-10c-.5-8.1 1.2-16.6 1.8-21.2S59.6 72.4 60 60c.4-10-3.7-16.2-3.7-16.2s.4-1.4 4.5-.7c4.2.7 35 1.8 49.4-2.1 10.7-2.9 11.9-25.9-3-31.9-13.7-5.5-52.2 6.7-59.4 8.7s-12.9 3.3-15.5 12.6c-1.7 6 1 14.2 1 14.2l5.9 48.7s1.3 8-2.6 10.5c-5.6 3.7-12.4 8.6-17 11-.7.4-2.3 1.3-4.5 1.6-1.2.2-2.4.3-3.4.4" style="fill:#ffca28"/><defs><path id="a" d="M11.7 116.8c-.9.1-1.5 1-1.3 1.9.3 1.1.9 2.3 2.6 2.7s2.7 0 3.7-.2c1-.1 5 .3 7.8.2s6.5-1.5 10-1.3 9 1.2 12 1.2 6.1.2 7.7-1.3c1.3-1.2 2.6-3.8 1.7-7.1s-1.7-8.5-1.8-10c-.5-8.1 1.2-16.6 1.8-21.2S59.6 72.4 60 60c.4-10-3.7-16.2-3.7-16.2s.4-1.4 4.5-.7c4.2.7 35 1.8 49.4-2.1 10.7-2.9 11.9-25.9-3-31.9-13.7-5.5-52.2 6.7-59.4 8.7s-12.9 3.3-15.5 12.6c-1.7 6 1 14.2 1 14.2l5.9 48.7s1.3 8-2.6 10.5c-5.6 3.7-12.4 8.6-17 11-.7.4-2.3 1.3-4.5 1.6-1.2.2-2.4.3-3.4.4"/></defs><clipPath id="b"><use xlink:href="#a" style="overflow:visible"/></clipPath><g style="clip-path:url(#b)"><path d="M113.2 41.9c8.8-3.7 7.5-18.2.9-18.4-5.7-.2-10 5.5-18.5 7.8s-22.8 3.1-35 6.2c-9.7 2.5-9 4.5-6 11.1 1.7 3.7 2.5 14.8-.1 21.3-2.7 7.1-5.2 15.1-5.7 22.8 0 9.5 1.7 12.8 0 18.9-.6 2.4-.1 2.4-.9 4.3-2.1 3.2-7.1 2.3-10.5 3 2.4 1.3 19.8 3.2 22 2.7.4-3-1.8-14.8-2-17.8-1.7-20.6 15.5-37.2 5.5-55.8 0 0 36-2.2 50.3-6.1m-70.8-2.6c-.7.5-2.2.9-2.5.4-.3-.6 1-1.3 1.6-1.9 1.7-2 3.2-3.5 4-6 .1-.3.5-1.6.9-1.7 1.5-.7 2.4.9 2.2 2.3-.1.8-.8 1.9-1.2 2.5-1.6 1.8-3 3.1-5 4.4" style="fill:#faa700"/><path d="M45.9 61.9c-.9-3-1.2-6.3-.7-9.4.2-1.1.7-2.6 1.8-2.5.6 0 1 .9 1.2 1.6.4 1.5.4 3 .5 4.5.2 4.2.7 8.5 2 12.4.5 1.6-.1 1.9-.4 1.9-1.4.2-3.7-6.1-4.4-8.5" style="fill:#faa700"/><path d="M94.6 6.8c-1 1.6-2 4-6.2 4.7s-23.2 2.9-35.1 8.1c-2.6 1.1-7.6 2.3-10.2 2.9s-11 3.8-9.5 13.7c.9 6.1 8 57.5 7.7 62.1s-1.9 6-4.6 7.8-14.3 9.2-15.4 9.9-3.1 1.8-4.8 2c-2.6.3-5-.6-4.6 1.5.4 2.3 5 2.5 5 2.5s-.2 1.9-.4 1.9-9.2.5-9.2.5v-11.3l27.6-13-9.2-73.3 8-9.1L82.3 6.1z" style="fill:#faa700"/></g><defs><path id="c" d="M11.7 116.8c-.9.1-1.5 1-1.3 1.9.3 1.1.9 2.3 2.6 2.7s2.7 0 3.7-.2c1-.1 5 .3 7.8.2s6.5-1.5 10-1.3 9 1.2 12 1.2 6.1.2 7.7-1.3c1.3-1.2 2.6-3.8 1.7-7.1s-1.7-8.5-1.8-10c-.5-8.1 1.2-16.6 1.8-21.2S59.6 72.4 60 60c.4-10-3.7-16.2-3.7-16.2s.4-1.4 4.5-.7c4.2.7 35 1.8 49.4-2.1 10.7-2.9 11.9-25.9-3-31.9-13.7-5.5-52.2 6.7-59.4 8.7s-12.9 3.3-15.5 12.6c-1.7 6 1 14.2 1 14.2l5.9 48.7s1.3 8-2.6 10.5c-5.6 3.7-12.4 8.6-17 11-.7.4-2.3 1.3-4.5 1.6-1.2.2-2.4.3-3.4.4"/></defs><clipPath id="d"><use xlink:href="#c" style="overflow:visible"/></clipPath><g style="clip-path:url(#d)"><path d="M57.3 91.2c0-.1-3.4-1.2-3.8 1-1.1 5.3-1 10.4-.5 14 .9 5.7 2.2 10.1-.4 11.9-4.6 2.3-11.2.7-15.9.1-2.1-.3-4.4-.3-6.5.3-3.5 1.2-7.2 2.1-10.9 1.5-.7-.1-1.3-.1-2-.1-1.3 0-2.2.6-3.4.8-1.6.2-2.2-1.1-2.9-1.4-.5-.2-1.1 0-1 .2-.2 1.1-.3 3.8.7 3.8 1.2 0 10.8.3 13.1.2 2.8-.2 30-.7 34-.7-.1-4-.9-29.5-.5-31.6M118.8 33c-17.3 7-41.4 9-56 8.1-1.9-.1-6.6-.7-7.6.8-2 2.8 1.6 3.5 4.7 13.3 3.3-.7 45.1-9.7 56.9-13 .6-2.5 1-5.9 2-9.2" style="fill:#b55e19"/><path d="M47.2 113.1c-.6 0-.9-.4-.4-.9.7-.7 1.6-1.3 1.7-4.1 0-.5.1-1.4.8-1.5s.9.6 1.1 1.2c.2 1 .4 2-.7 3.6-.9 1.4-2 1.7-2.5 1.7M31.1 34.5c.6 1.7 1.6 3.9 2.4 5 .7 1.1 1 1.9 1.2 3.8.2 1.3 1.3 7.8 1.2 11.8 0 1.8-.7 2.8-1.2 3.2-1.8-5.1-5.2-23.5-5.2-23.5z" style="fill:#b55e19"/></g></svg>