<svg xmlns="http://www.w3.org/2000/svg" xml:space="preserve" viewBox="0 0 128 128"><path d="M40.46 35.24s-3.86-3.45-6.56-6.09c-4.12-4.03-4.95-5.41-4.86-6.25s7.76 1.19 7.76 1.19l16.5-8.44 23.06-.75 17.16 8.91 4.65-.93s-.71 1.96-3.33 4.77c-2.46 2.63-7.31 8.34-7.31 8.34zM63.64 45.3l-20.05.35-17.85 2.15s-7.87-1.41-7.87-.75.94 1.87 2.53 3.66c1.59 1.78 10.22 10.12 10.22 10.12l2.16 6.09 20.34 4.78 41.81-2.72.94-7.87s5.72-5.62 7.59-7.22 5.01-4.4 5.57-5.25c.56-.84.38-1.79.38-1.79l-11.29 1.41-32.42-2.68zM28.27 71.71l-17.9 4.69-7.59-.47s-.02 1.42 1.83 3.25c2.72 2.69 8.86 8.28 9.8 9.03s1.41 1.12 2.44 1.12 92.69 2.21 93.25 2.02 5.12-4.37 7.94-6.86c1.56-1.38 6.3-5.05 6.45-6.5.12-1.15-.22-1.42-.22-1.42l-11.52.58-33.37-4.41z" style="fill:#546f7a"/><path d="m16.21 81.25.06 15.86 48.75.38 45.37-.47V81.93zm13.94-14.32.09-13.97 65.9-.1.19 14.07-36.84 3.56zm9.68-38.17.08 12.75 23.61 1.74 24.09-1.73V28.86z" style="fill:#73a0a2"/><path d="m46.79 30.3 1.8-1.51s1.34.06 1.92-.31c.58-.36 5.2-5.94 6.29-6.38.89-.36 13.69-.2 14.42.09s5.46 5.59 6.6 6.34c.68.45 1.93.4 1.93.4l2.24 1.81zM34.21 55.11l30.18 2.9 28.22-3.2.03-1.94-58.42.07z" style="fill:#b9ced3"/><path d="M20.31 81.27v15.71l86.11.64-.11-15.71z" style="fill:#fff"/><path d="M15.29 97.94s-.21-1.18.85-1.5 92.77.37 93.53.41c1.82.11 1.44 1.62 1.44 1.62l-50 1.29z" style="fill:#bcced2"/><path d="m34.2 67.17.01-12.06 58.4-.3-.19 15.03zm9.62-25.85-.1-12.55 39.85.1-.01 12.56z" style="fill:#fff"/><path d="M29.39 23.59s4.7 2.56 7.26 2.78c2.56.21 10.47.43 11.75-.21s5.56-6.3 7.05-7.05c1.5-.75 15.28-.63 16.95-.01 1.36.5 6.13 6.53 7.3 6.96 1.18.43 12.93.22 14.42-.21 2.06-.6 3.25-1.54 3.89-2.68.53-.96-.26-1.7-1.22-1.59s-4.7.96-8.01-2.14-6.2-9.61-6.2-9.61H44.14s-1.71 6.94-3.63 8.97-3.53 3.31-5.56 3.2c-1.82-.1-2.59-.49-3.53-.75-1.92-.55-2.95 1.63-2.03 2.34m5.67 16.66c-.48.4-3.25 4.51-8.12 5.46-4.38.85-6.52-1.3-8.44-.44-.98.43-.63 1.78-.63 1.78S20.48 49.7 26 50.1c1.63.12 32.34.73 37.79.52s39.89-.12 41.28-.31c1.98-.27 3.91-2.58 4.23-2.9s.19-1.48-1.41-1.9c-1.6-.43-2.75.83-6.71.41-4.82-.52-6.84-5.56-7.37-5.56s-58.11-.64-58.75-.11" style="fill:#385661"/><path d="M63.66 40.62c-2.07-.11-9.34 10.56-15.67 15.87-7.27 6.09-13.79 10.68-13.79 10.68l31.41 4.17 29.27-3.85s-10.9-6.84-16.45-11.86-12.11-14.86-14.77-15.01" style="fill:#546f7a"/><path d="M41.14 66.96s7.05-4.81 12.18-9.4 9.4-10.47 10.36-10.58 6.23 7.03 11.22 11.32c5.34 4.6 14 10.48 14 10.48l-25.85 2.14z" style="fill:#fff"/><path d="M46.68 67.36s3.37-1.86 7.83-6.08c2.79-2.64 5.99-5.43 5.99-5.43s1.35 1.69 3.07 1.69 3.19-1.64 3.19-1.64 4.84 4.44 7.41 6.55c2.93 2.41 8.19 5.86 8.19 5.86s-17.67 2.5-17.67 2.24-18.01-3.19-18.01-3.19" style="fill:#b9ced3"/><path d="M18.3 66.06c-.45.72-4.47 6.44-7.56 7.72s-5.72.26-6.8.56c-1.09.3-1.17 1.58-1.17 1.58s1.07 1.18 6.51 1.38 42.17.43 53.65.54 51.95 1.04 55.71.73 5.81-1.56 5.81-1.56-.23-1.58-1.9-1.58-4.08.11-7.11-1.46c-3.03-1.56-6.71-6.78-8.28-7.3-.77-.26-22.13.04-43.6-.1-22.22-.14-45.02-.9-45.26-.51" style="fill:#385661"/><path d="M15.29 97.94s-3.17 9.17-4.63 12.77c-1.77 4.38-5.42 11.89-5.42 11.89l3.96 1.36 103.59.83 10.22-3.03s-4.69-6.68-8.03-13.56c-2.91-6-3.87-9.73-3.87-9.73z" style="fill:#89837c"/><path d="M33.66 86.02h5.11v7.79h-5.18zm8.44 0v7.86h4.65v-7.86s-4.71.06-4.65 0m14.86 0v7.92h5.05v-7.86zm8.12 0h4.71v7.92h-4.71zm15.45.06h4.84v7.79h-4.84zm7.99 0v7.73h4.71v-7.66zM57.69 60.35h2.64l-.04 6.21-2.66-.03s.11-6.24.06-6.18m4.58 0 .01 6.24h2.75l-.01-6.19zm4.67.05h2.75l.02 6.2h-2.75s.09-6.09-.02-6.2M52.78 31.81h4.69v5.45h-4.69zm9.38.06h4.26v5.45H62.1c.01-.01.17-5.45.06-5.45m8.8 0h4.2v5.39h-4.31z" style="fill:#2f2f2f"/><path d="M79.34 9.81h1.74s-.24 1.1-.5 1.73c-.41.99-.6 1.78-.09 2.5s2.96 1.52 5.21-.59c2.24-2.12.68-7.37 1.1-8.22s1.44-1.1 1.74-1.57-.42-2.58-2.58-2.63c-1.61-.03-2.5 1.36-2.5 1.36S82.26.8 81 .99c-1.69.25-2.75 2.12-2.67 2.58s2.33.55 2.08 2.75c-.22 1.83-1.07 3.49-1.07 3.49m-31.88 0h-1.82s.04 2.46 0 3.43-1.06 2.07-2.84 1.82c-2.16-.3-2.92-2.29-2.8-5.12s1.2-3.74.72-4.87c-.47-1.1-1.74-.34-2.12-.59-.57-.38.21-3.08 2.63-3.25 2.09-.15 2.71 1.43 2.71 1.43S45 1.07 46.91 1.42c2.24.42 2.67 2.8 2.33 3.13-.34.34-1.4-.3-2.03.85-1.19 2.17.25 4.41.25 4.41" style="fill:#fcc01e"/><path d="M9.26 113.97s1.3 1.44 1.42 5.09-.92 4.9-.92 4.9-3.81.08-4.72 0-1.54-1.33-.51-2.8 4.73-7.19 4.73-7.19m3.48-6.57c-.33.77-.2 2.22-.08 3.25s.08 2.18 1.03 2.93 2.3.87 4.84.79 3.13-.2 3.61-1.03.36-4.56.44-5.27-2.8-2.89-3.29-3.05c-.6-.2-5.88.79-6.55 2.38m.09-2.5s5.74-1.11 5.82-2.1c.1-1.19-1.39-1.86-2.02-2.46-.63-.59-1.58-1.69-1.58-1.69zm8.75-4.88c-.56.52-.95 2.42-.04 4 .9 1.57 1.94 2.42 3.49 2.46s1.9-3.01 2.18-4 .51-1.76-1.19-2.26c-2.14-.63-4.01-.59-4.44-.2m-4.91-2.09s.87 1.43 2.3 1.47 2.46-1.43 2.46-1.43zm12.3.08s-.17 1.22.39 2.06c.56.83.36 1.98 2.18 2.14s5.95.36 6.82-.12c.56-.31.54-4.02.54-4.02zm5.3 5.19c-2.5.08-4.64.56-5.59 1.67s-1.47 2.42-2.46 3.89-2.06 3.85-1.9 5.27c.16 1.43 2.65 3.93 3.97 3.97 1.35.04 2.66-1.42 3.33-1.47.63-.04 1.99.96 2.97.79 1.43-.24 2.93-2.1 3.69-5.75.84-4.08.24-5.83.16-6.15-.09-.32-.64-2.34-4.17-2.22m-21.69 15.26c.13 1.55 2.02 4.72 3.45 4.88 1.84.2 3.7-1.63 3.85-2.62.2-1.35-1.55-4.88-3.81-4.64-1.32.14-3.65.44-3.49 2.38m9.67 4.01c.37.53 3.01-.08 3.53-.28s1.98-1.15 1.86-1.74-2.22-2.34-3.37-2.22c-1.14.11-2.57 3.44-2.02 4.24m6.53 1.64 9.3.08s1.27-.46 1.42-1.53-5.43-3.93-7.06-3.69-2.66 1.23-3.09 2.46c-.43 1.24-.57 2.68-.57 2.68m9.22-6.08c-.07.99 2.74 2.93 3.37 2.93s3.09-3.21 3.37-4.88c.34-2.06-2.69-3.71-3.53-3.41-1.11.4-3.13 4.29-3.21 5.36m9.71-18.71c0 .5-.99 2.05-1.14 2.53-.16.48.59 3.97-.36 4.44-.95.48-2.7-1.03-3.57-1.9s-2.26-2.26-2.34-2.78.99-1.78 2.06-2.42c1.07-.63 2.49-1.09 2.49-1.09l2.15.01s.71.22.71 1.21m-6.66 7.45c-.49.34-.67 2.54-.36 3.33.32.79 1.78 1.82 2.46 1.74s2.06-1.74 2.02-2.97-3.37-2.62-4.12-2.1m3.92 5.39c.04.75 1.51 2.82 1.98 2.93s2.14-.91 2.62-1.11 2.7.16 3.29-.59-.71-3.25-1.11-3.93c-.4-.67-1.55-1.86-1.94-1.82s-2.22.75-2.93 1.39c-.72.63-1.94 2.41-1.91 3.13m7.7-13.92c-.49-.11-2.1 1.27-2.78 2.38s-1.55 2.18-1.31 3.01 4.54 3.19 6.26.99c2.78-3.52-1.66-6.26-2.17-6.38m4.26-.06s-.3.42.3 1.17c.59.75 1.7 3.45 3.33 3.37s3.09-1.67 3.81-2.54c.71-.87.79-1.97.79-1.97zm-3.15 10.17c-.17.41.24 1.59.95 1.47s1.11-.52 2.46-.52 1.98 1.51 3.13 1.39 2.34-.99 2.74-1.82.44-1.98.32-2.3-2.1-1.63-4.2-1.51c-2.11.12-4.85 1.98-5.4 3.29m2.38 3.77c-.94.57-1.23 1.55-1.11 2.1.12.56-1.35 1.86-.75 3.25.59 1.39 2.82 4.08 3.41 4.72.59.63 2.93.67 3.37.44.44-.24 3.09-2.7 3.37-3.61s-1.23-4-2.06-5.04c-.84-1.03-4.33-3.01-6.23-1.86m9.91-4.05c-.94.47-2.42 2.78-2.54 3.57s.52 2.74 1.82 2.26c1.31-.48 2.58-2.34 2.97-2.7.4-.36 2.5-1.77 2.5-2.62.01-1.1-4.27-.74-4.75-.51m2.02-8.88c-.62.45-4.32 4.08-4.16 4.6s1.82 1.98 2.58 2.38c.75.4 2.22.08 3.69.2s2.93.67 3.61.52c.67-.16 3.33-1.31 3.09-3.21s-3.93-3.81-5.71-4.24c-1.79-.45-2.66-.57-3.1-.25m5.58-.93s1.01 1.36 2.63 2.47 3.13 1.39 4.16.71c1.03-.67 2.54-3.13 2.54-3.13zm7.63 4.22c-.75 0-2.06 1.27-2.46 1.63s-.79.91-.52 1.35 2.62.63 3.13.12c.52-.52.64-3.1-.15-3.1m1.94 1.31c.26 1.14 3.89 3.13 5.08 2.82 1.19-.32 3.17-2.82 3.21-3.53s-2.93-3.41-3.33-3.73-3.25-.4-3.49-.04-1.75 3.29-1.47 4.48m-7.58 5.59c-.13.78 1.67 2.85 2.5 3.89s.95 2.3 1.82 2.5 2.78-.79 3.69-2.89 1.39-3.13.24-4.72-3.57-1.19-4.48-.99c-.91.19-3.57 1.06-3.77 2.21m16.9-9.55c-.52.32-.24 3.05.52 3.41.75.36 1.55.04 2.26-.44s1.67-1.55 1.43-2.02c-.25-.48-3.66-1.29-4.21-.95m-50.08 24.39s.04-.78 1.53-2.74 3.06-4.62 5.33-4.44 3.16 1.46 4.55 3.34 2.99 3.95 2.99 3.95zm21.26.18s2.14-2.23 2.95-2.13c.82.11.5.53 1.14 1 .64.46 1.56 1.17 1.56 1.17zm2.67-9.24c-.77.69-.81 3.05.21 4.48 1.32 1.85 3.88 3.73 5.08 4.27 1.21.53 2.49-1.35 2.42-2.42s-2.06-3.66-3.24-4.73-3.51-2.45-4.47-1.6m2.48-1.64c-.01.44 3.03 2.97 3.82 3.82.8.85 2.97 2.68 4.25 2.5 1.27-.19 1.86-1.43 1.59-2.63s-2.2-3.77-3.19-4.73c-.98-.96-2.34-1.62-3.05-1.59s-3.39 1.62-3.42 2.63m13.89 3.32c-.2.22-3.51 3.67-3.8 4.41s.03 2.68.16 2.95.28.33.28.33l1.41.01s1.58-2.11 2.43-3.17 1.33-2.26 1.25-2.6c-.08-.36-1.49-2.19-1.73-1.93m2.9 4.44c-.52-.02-1.73 1.38-1.99 1.7-.27.32-1.06 1.57-1.06 1.57l5.41.04c-.01 0-1.51-3.29-2.36-3.31m-.61-6.91c-.25 1.53.48 3.49 1.67 5.26 1.46 2.18 4.25 4.25 5.98 4.06s3.82-2.47 4.44-3.93c.61-1.46.77-3.75-.56-4.73s-2.5-.61-3.24-1.06-3.78-3.18-4.86-3.11c-1.15.08-3.11 1.57-3.43 3.51m6.21-5.52c.12 1.11.56 2.68 2.84 3.59 2.28.9 3.53.82 4.06.72.53-.11 4.04-2.68 3.64-4.04-.4-1.35-.82-1.89-2.9-1.97-2.07-.08-3.67-1.86-4.97-1.49-1.28.37-2.82 1.75-2.67 3.19m5.05-4.97c-.09 1.25 1.57 1.23 2.76 1.22 1.13-.01 3.27-1.98 3.48-3.69.08-.61-1.44-1.29-2.26-1.41-.9-.13-3.93 3.14-3.98 3.88m6.42-5.46s.76 1.15 2.32 1.87c1.57.72 2.36 1.43 3.37.98s1.86-2.82 1.86-2.82zm.06 6.5c.11 1.38 1.12 3.16 1.49 3.43s3.16.37 3.67.21c.5-.16 1.73-2.71 1.91-3.05.19-.35-.21-1.89-.58-2.07-.37-.19-2.18-.66-2.36-.88-.19-.21-1.59-.64-1.94-.45-.35.18-2.29 1.53-2.19 2.81m10.33-.8s-1.17 2.15-2.26 3.42-1.86 1.27-2.07 3 1.12 4.25 2.34 4.2 2.52-1.73 3.08-2.52c.56-.8 1.39-2.76 1.39-2.76s-1.02-2.05-1.31-2.69-1.17-2.65-1.17-2.65m-12.08 8.76c-.42.44-1.73 4.06-1.59 4.67.13.61 1.97 1.89 2.52 1.89s3.04-1.62 3.67-2.07c.66-.48 2.1-1.91 2.07-2.47s-1.2-4.46-2.39-4.62c-1.2-.16-3.64 1.94-4.28 2.6m.41 11.82s-1.25-2.76-2.9-2.84c-1.12-.05-2.96 2.78-2.96 2.78zm2.53.02s-1.43-1.5-1.32-2.54c.19-1.73 3.75-3.77 4.28-3.85s2.47 1.94 2.76 2.82.35 2.05-.21 2.55-1.35 1.06-1.35 1.06zm6.2-7.06c.13.76.9 2.39 2.34 2.66 1.43.27 3.82-.37 5.23-.77s2.75-1.56 2.75-1.56l-.81-1.3s-3.16-2.05-5.61-1.42c-2.44.64-4.06 1.44-3.9 2.39m6.62-5.91s-1.52 1.03-1.2 1.72 2.04 1.27 2.28 1.38.86.27.86.27zm6.15 9.94s-1.85-1.11-3.05-.87-4.83 1.41-5.76 1.94-1.67 2.03-1.67 2.03 10.38.68 11.28-.06-.8-3.04-.8-3.04" style="fill:#afa59e"/><path d="M13.63 108.75c.15.81 1.38.96 2.69 1.7s1.88 1.52 3.26 1.38 1.42-1.91 1.35-2.83-.46-2.48-1.88-2.8c-1.41-.32-5.66 1.24-5.42 2.55m13.36.78c-.28.92.21 2.34 1.17 2.2s3.97-3.08 5.03-3.65 4.29-1.31 4.18-2.55-3.7-1.73-4.85-1.31c-1.18.42-4.99 3.54-5.53 5.31m14.02-8.18c.04.78.81 1.98 1.95 1.49s.89-.81 1.42-1.06 2.02-.6 1.7-1.63-2.13-1.03-3.22-.57c-1.11.46-1.88 1.06-1.85 1.77m8.61-.04c-.28 1.14 1.42 1.28 2.27 1.17s2.59.18 2.44-1.06c-.14-1.24-1.24-1.77-2.3-1.74-1 .04-2.09.32-2.41 1.63m-3.4 10.77c.37.58 1.31.6 3.08-.67 1.77-1.28 2.51-1.59 1.81-2.51-.71-.92-2.13-.43-3.26.43-1.14.84-2.34 1.65-1.63 2.75m10.98-5.17c-.02.69.6 1.52 2.44 1.66s2.69-.32 2.8-1.2-.89-1.42-2.3-1.63-2.91.11-2.94 1.17m13.14-6.84c-.67-.03-3.19 1.81-3.75 2.48-.57.67-.39 1.84.71 1.91s2.55.04 3.83.11 2.55.18 3.12.04 1.24-1.28.53-2.16c-.72-.89-3.52-2.34-4.44-2.38m-13.5 12.72c-1.18.98-.49 2.73.53 3.75 1.24 1.24 3.68 1.88 4.5.85.81-1.03.18-3.01-1.45-4.25-1.45-1.1-2.73-1.06-3.58-.35m13.21.32c.1.74.5 1.38 2.2 1.31s2.13-1.1 1.95-1.84-1.36-1.05-2.09-1.03c-1.06.04-2.2.5-2.06 1.56m7.23-3.01c.77.77 1.81.74 2.41 1.1.6.35.43 1.42 1.84 1.06 1.42-.35 2.41-1.13 2.16-2.34-.25-1.2-.99-2.48-2.3-2.62s-3.54.46-3.97 1.03c-.42.56-.5 1.41-.14 1.77m8.82 4.57c.32.91 2.98 2.62 4.57 3.01s3.68.71 4.85.07 1.24-2.16.11-2.48-2.69-.11-3.19-.46-2.23-3.12-3.4-3.08c-1.17.03-3.4 1.63-2.94 2.94m7.05-6.73c-.05.72 1.42 2.8 3.72 2.98s4.04-1.56 3.72-2.48-2.3-.92-3.36-1.1-1.95-1.13-2.55-.96-1.46.53-1.53 1.56m-8.19-7.51c-.31.78-.89 1.95 1.31 2.44 2.2.5 2.83.04 3.19-.74s-.71-1.45-1.98-2.02c-1.28-.57-2.3-.21-2.52.32m19.17 3.86c-.09 1.09 1.06 1.74 2.3 1.74s1.88-.67 1.95-1.49c.07-.81-.89-1.56-2.02-1.59-1.14-.04-2.13.1-2.23 1.34" style="fill:#dcd2c7"/></svg>