<svg xmlns="http://www.w3.org/2000/svg" xml:space="preserve" viewBox="0 0 128 128"><path d="M75.4 97.1c7.8-11 2.5-16.2.8-18.1S43.9 90.8 43.9 90.8s14.8-11 21.6-18c7.6-7.7 4.5-12.4 4.1-14C65 40.2 22.2 70.7 22.2 70.7s3.6-2.7 8.1-5.8c5.7-4 12.4-10.1 8.8-17.9-1-2.2-15.9-1.5-31.9 5.9v67.9h48.1c8.2-9.1 17.5-19.9 20.1-23.7" style="fill:#faa700"/><path d="M59.3 107.3s7-6.4 4-6.5c-5-.2-10.3-5-9.9-8.5.5-4.9 14.3.2 15.7-1.7 2.2-2.8 4.3-5.7 6.2-8.7.2-.3.4-.7.5-1.1.1-.9-.8-1.7-1.3-2.2-4.8-4.7-9-5.3-19.1 2.4-7.3 5.6-33.8 27.6-48.1 39.6v.3h38.4zm-21.4-63c-.1-.3-.5-.7-.7-.9-.5-.6-1-1.1-1.5-1.6-1.1-1-1.5-5-7.6-4.1-2.8.4-11.9 4.9-20.8 9.7v24.7c9.4-5.8 12.5-7.7 14.7-9.6 2.6-2.3-7.3-1.2-6.5-11.6.3-3.5 18.3-3 21.7-5.6.2-.2.7-.5.7-.8zm26.8 11.4c-.3-.5-.6-.9-.9-1.3-.7-.9-1.5-1.7-2.3-2.4-1.5-1.2-2.3-.8-3.9-1.8-2.1-1.3-7.9 2.6-21.1 10.5-7.8 4.6-19.1 12-29.1 18.7v30.8c18.8-14.5 43.5-33.5 45.5-35.4 1.9-1.8-10.5-1.8-8.8-11.4.2-1.4 12 4.7 12.6 3.5 1.2-2.4 2.6-4.7 4.3-6.8.7-.8 1.4-1.6 2.3-2.1.5-.2 1.1-.4 1.5-.8.3-.5.1-1.1-.1-1.5" style="fill:#ffca28"/><path d="M80.2 30.9c-1.5 4.3 4.9 10.3 14.2 13.5s18 2.3 19.4-2c.7-2.1 6.5-35.1 6.5-35.1H92.5c-4.3 8.1-11.3 20.8-12.3 23.6" style="fill:#546e7a"/><ellipse cx="96.75" cy="37.39" rx="5" ry="14.7" style="fill:#202020" transform="rotate(-71.174 96.755 37.394)"/><path d="M89 66.9c.2-.4 1-2.2 1.2-2.4.8-1.1 1.5-1.2 2.1-2.8.5-1.4 8-22.6 8-22.6s.5-2.3-2.7-3.4-4.2 1-4.2 1-7.1 19.9-7.8 22.2c-.7 1.9 0 2.5-.4 3.7-.1.2-.9 1.7-1 1.9z" style="fill:#546e7a"/><path d="M43.4 36.8c2.7 3.9 1.9 8.1-4.8 14.2-4.9 4.4-8.2 6.1-13 7.1-4.3.9-7.2-1.4-9.8-6.1-2.1-3.8-.7-5.8.3-7.1 2.9-3.8 10-7 13.9-8.5 6.1-2.2 11.4-2.3 13.4.4m26.1 25.6c-3.3 3-8.4 7.2-12.9 8.5-2.1.6-6.4 1-10.7-4.2-4.2-5.1-1.5-8.4-.5-9.7 3.1-4 8.3-6.9 12.9-9 5.7-2.6 11.2-3.6 14.1-1.1 4 3.2 3.3 9.8-2.9 15.5m8.9 11.1c4.7 3.2 1.9 10.5-.8 14.1-2.9 3.9-6.8 8.4-10.2 9.9-2.4 1.1-6.2 2-11.4-2.3-4.3-3.6-2.9-8.6-1.4-11 2.3-3.8 6.5-6.7 11.3-9.5 5.2-3.2 9.7-3.1 12.5-1.2" style="fill:#f44336"/><path d="M86.5 61.5c-.5 0-1.1-.1-1.9.9-1.5 1.7-3.7 3.6-7.1 4.9-1.1.4-2.5 1.1-2.5 2.3.1 2.5 4.8 5.8 8.3 4.9 3.1-.8 5.9-6.2 6.2-7.3.2-1.1.6-2.4.3-3.3-.3-1.4-1.9-2.5-3.3-2.4" style="fill:#f44336"/><path d="M77.6 87.6c2-2.7 4.1-7.5 3-11.1-2 2.3-13.6 16.1-18.9 18.3-2.3.9-4.7 1.2-4.7 1.2 4.7 3.4 8.2 2.5 10.4 1.5 3.4-1.5 7.3-6 10.2-9.9m-2.7-34.8c-4 3.1-18.6 14-23.3 15.1-2 .5-3.2.6-4 .5 3.5 3.2 7.2 3 9 2.5 4.5-1.3 9.6-5.4 12.9-8.5 3.5-3.2 5.2-6.6 5.4-9.6m-53.3 2.9q-1.95.3-3 .3c1.9 1.9 4.1 2.7 6.9 2.1 4.8-1 8.1-2.8 13-7.1 3.4-3.1 5.3-5.7 6-8-6.1 4-18.8 12.1-22.9 12.7m56.3 14.9c.5.2.9-.2 1.4-.5.7-.3 1.5-.1 2.2.2s1.3.7 2.1.8c1.1.2 2.3-.2 3.2-.8.9-.7 2.6-5.3 3.2-6.3.1.3.1.7.1 1.2-.5 4-3.8 8.6-6.5 9.3-1 .3-2.6.3-3.6.1s-2.3-.8-3.2-1.4-1.5-1.4-2-2.4c-.2-.5-.2-1.2.1-1.7.2-.3.6-.6 1-.6q.75 0 1.2.6c.3.4.3.9.6 1.3 0 .1.1.2.2.2" style="fill:#c62828"/><path d="M20.5 45.6c2.2-2.5 7.2-6.5 13.5-8.3 2.8-.8 3.7 2 1.8 2.8-4 1.7-12 6.1-13.1 6.7-2.2 1.2-3.7.6-2.2-1.2m28.8 12.7c3.5-4 6.5-6.1 12.4-9.1 1.3-.7 3.1-.8 3.9-.3 1.5.9 1.6 2.2-.3 3.2-8.4 4.3-10.6 6.2-14.2 8-1.9 1-2.9-.5-1.8-1.8m15.2 21.2c4.1-3.5 6.7-4.6 7.5-3.9 1.5 1.1.3 2.5-1.1 3.6s-9.1 7.2-10.2 8.1c-1.2.9-2.8 1.3-2.1-.6.5-1.5 2.7-4.5 5.9-7.2m18-10c-2.8 2.1-4.1 1.6-4.6 1.4s-.9-.9-.8-1.4c.2-.6.8-.9 1.4-1.1 1.3-.6 3.1-1.1 4.3-1.9 4.3-2.8 3.4-4.2 4.2-3.9s-.2 2.6-1.4 4.1c-.9 1-2.3 2.1-3.1 2.8" style="fill:#ff7555"/><path d="M86.5 28.1c1.5-.2 4.1-.1 6.1.2.7.1 1.4-.3 1.6-.9 1.9-4.1 5.7-13 6.4-15.1s-6.1-3-7.6-.5c-1.8 3.1-7.2 14-7.2 14-.8 1.4-.6 2.5.7 2.3M86.3 60c-.5-.2-.8-.8-.7-1.4 1.2-3.9 6.3-18 7.1-19.8.9-2.1 3.5-1.6 3 0-.4 1.4-6.4 16.5-8 20.6-.2.5-.9.8-1.4.6" style="fill:#78909c"/></svg>