<svg xmlns="http://www.w3.org/2000/svg" xmlns:xlink="http://www.w3.org/1999/xlink" xml:space="preserve" viewBox="0 0 128 128"><path d="M83.3 63.5c4.2-2.1 7.6.3 9.9 4.8 5 10.2 23.2 5.9 22.3-7.4 12.3-3.6 14.2-21.7.2-25.6C127.2 8.9 93.4-6 81.1 14.1c-15.4-9-28.9 9-17.1 23 3.1 3.7 10.3 6.6 9.9 12.2-.4 7.2 5.2 16.3 9.4 14.2" style="fill:#729a24"/><defs><path id="a" d="M83.3 63.5c4.2-2.1 7.6.3 9.9 4.8 5 10.2 23.2 5.9 22.3-7.4 12.3-3.6 14.2-21.7.2-25.6C127.2 8.9 93.4-6 81.1 14.1c-15.4-9-28.9 9-17.1 23 3.1 3.7 10.3 6.6 9.9 12.2-.4 7.2 5.2 16.3 9.4 14.2"/></defs><clipPath id="b"><use xlink:href="#a" style="overflow:visible"/></clipPath><path d="M125.4 52.4c.2-1.1-1.4-2.5-2.6-1.4 0 0-4.8 6.6-13.1 2.8-2.5-1.2-4-.6-5.1.2-5.1 3.7-21.8 5.1-26.9-15.4-.5-1.9-2.1-1.8-2.8-1.8s-10-1.4-12.7-8.9c-.8-2.3-3.1-1.4-3.1-1.4l-4.2 11.3 46.9 48.6L126.3 59z" style="clip-path:url(#b);fill:#327e33"/><path d="M80.1 66.3c11.5 11.2 15.5 32.2 5.4 43.4-14.8 16.4-33.8 10.1-41 7.4-6.9-2.5-12.2-2.7-18.8 1.1s-14.6 6-19.4 4.9c-3.9-.8-4-7.2 0-7.7 14.6-1.8 16.3-14.2 12-24.6-6.9-16.7-3.6-30.3 2.5-36.5 18.3-18.5 39.5-6.9 47.6.3 3.8-3.8 6.4-6.2 7-6.9.8-1 2-.8 2.5.3 1.5 3.4 6.1 8.1 9.9 9.7.9.4 1 1.7.2 2.3-.5.3-7.9 6.3-7.9 6.3" style="fill:#cc1a36"/><defs><path id="c" d="M80.1 66.3c11.5 11.2 15.5 32.2 5.4 43.4-14.8 16.4-33.8 10.1-41 7.4-6.9-2.5-12.2-2.7-18.8 1.1s-14.6 6-19.4 4.9c-3.9-.8-4-7.2 0-7.7 14.6-1.8 16.3-14.2 12-24.6-6.9-16.7-3.6-30.3 2.5-36.5 18.3-18.5 39.5-6.9 47.6.3 3.8-3.8 6.4-6.2 7-6.9.8-1 2-.8 2.5.3 1.5 3.4 6.1 8.1 9.9 9.7.9.4 1 1.7.2 2.3-.5.3-7.9 6.3-7.9 6.3"/></defs><clipPath id="d"><use xlink:href="#c" style="overflow:visible"/></clipPath><path d="M26.2 82.6c-1.6-2.9 2.5-5.8 4.9-2.8 2.1 2.8 6.3 8.1 10.4 11.5 3.5 3-.7 6.9-3.7 4.7-4.6-3.3-9.5-9.6-11.6-13.4m38.6 17.9c2.7 1.9 6.1-2.3 3.6-4.4-3.1-2.6-6.9-6.3-9.4-8.7-2.1-2-6.3 1-4.2 3.8 1.9 2.5 7.8 7.8 10 9.3m17.9-58.7c-8.2-.2-11.7 2.2-13.8 6.7l-.4 6.1s-2.1 3.3 1.7 7.7C72 64.4 74.6 65 77 70c5.9 12.6 4.3 24.5-4.6 32.6-8.1 7.4-15.3 8.1-20.7 7.4-3.4-.4-9.6-4.5-13.5-8.4-2.8-2.7-7.1.5-5.2 3.6 1.2 2 4.2 4.4 5.8 5.6-5.9.1-10.4.9-16 4.1-7.7 4.4-12.5 4.5-14.8 4.2-1.6-.2-2.9-2.8-1.6-4.5 1.3-1.8.3-2.8-.7-3.2-1-.3-5.4 1.9-4.9 6.9s3.2 6.5 4.7 7.2c1.5.8 68.6 0 68.6 0s24.2-17 25.7-20.1c22.1-47.2-17.1-63.6-17.1-63.6" style="clip-path:url(#d);fill:#891e0e"/><defs><path id="e" d="M80.1 66.3c11.5 11.2 15.5 32.2 5.4 43.4-14.8 16.4-33.8 10.1-41 7.4-6.9-2.5-12.2-2.7-18.8 1.1s-14.6 6-19.4 4.9c-3.9-.8-4-7.2 0-7.7 14.6-1.8 16.3-14.2 12-24.6-6.9-16.7-3.6-30.3 2.5-36.5 18.3-18.5 39.5-6.9 47.6.3 3.8-3.8 6.4-6.2 7-6.9.8-1 2-.8 2.5.3 1.5 3.4 6.1 8.1 9.9 9.7.9.4 1 1.7.2 2.3-.5.3-7.9 6.3-7.9 6.3"/></defs><clipPath id="f"><use xlink:href="#e" style="overflow:visible"/></clipPath><path d="M79.4 48.6c0-2-2.9-4-2.9-4-3.2 1.4-8 10-8 10s-1.1 1.7-.3 4.3c0 .1 8.5-7.8 11.2-10.3" style="clip-path:url(#f);fill:#af0d1a"/><defs><path id="g" d="M80.1 66.3c11.5 11.2 15.5 32.2 5.4 43.4-14.8 16.4-33.8 10.1-41 7.4-6.9-2.5-12.2-2.7-18.8 1.1s-14.6 6-19.4 4.9c-3.9-.8-4-7.2 0-7.7 14.6-1.8 16.3-14.2 12-24.6-6.9-16.7-3.6-30.3 2.5-36.5 18.3-18.5 39.5-6.9 47.6.3 3.8-3.8 6.4-6.2 7-6.9.8-1 2-.8 2.5.3 1.5 3.4 6.1 8.1 9.9 9.7.9.4 1 1.7.2 2.3-.5.3-7.9 6.3-7.9 6.3"/></defs><clipPath id="h"><use xlink:href="#g" style="overflow:visible"/></clipPath><path d="M70.2 62.3c.6.7 1.4 1.3 2.1 1.9 4.5-3.8 7.4-6.2 12.1-10.2-.4-.3-2.7-2.4-3.4-2.8-5 4.4-7.8 6.9-11.5 10.3.2.2.4.5.7.8" style="clip-path:url(#h);fill:#af0d1a"/></svg>