<svg xmlns="http://www.w3.org/2000/svg" xmlns:xlink="http://www.w3.org/1999/xlink" xml:space="preserve" viewBox="0 0 128 128"><path d="M86.3 76c2-2.5 10-13.4 19.9-13.9 2.5-.1 10.7 1.4 7.2 8.7-2.5 5.1-11.8 8.3-21.5 26.6-3 5.6-13 23.8-33.7 23.8-10.4 0-25-4.9-29.7-21.1-3.8-12.9-4.7-27.7.6-63.2 1.6-10.6 10.2-7.8 10.9-2.2.5-5.9.7-11.3 1.5-14.4 1.1-4.8 3.6-6.5 6-6.6 3.1-.2 6.1 2.4 6.6 6.8.4-3.6.7-6.4.8-7.4 1.2-7.5 10.8-7.7 12.3-.3.7 3.3 1 6.6 1 9.9C69 10.1 79.9 12 81 19.6c1.7 12.5 3.1 45.5 5.3 56.4" style="fill:#ffca28"/><defs><path id="a" d="M86.3 76c2-2.5 10-13.4 19.9-13.9 2.5-.1 10.7 1.4 7.2 8.7-2.5 5.1-11.8 8.3-21.5 26.6-3 5.6-13 23.8-33.7 23.8-10.4 0-25-4.9-29.7-21.1-3.8-12.9-4.7-27.7.6-63.2 1.6-10.6 10.2-7.8 10.9-2.2.5-5.9.7-11.3 1.5-14.4 1.1-4.8 3.6-6.5 6-6.6 3.1-.2 6.1 2.4 6.6 6.8.4-3.6.7-6.4.8-7.4 1.2-7.5 10.8-7.7 12.3-.3.7 3.3 1 6.6 1 9.9C69 10.1 79.9 12 81 19.6c1.7 12.5 3.1 45.5 5.3 56.4"/></defs><clipPath id="b"><use xlink:href="#a" style="overflow:visible"/></clipPath><g style="clip-path:url(#b)"><path d="M88.8 77.2c-.9 1.2-4.1 2.3-5.7-.4-13.3 1.1-22.7 9.7-24.9 25.8-.2 1.5-2.4 1.4-2.4-.1-.3-21.9 17.9-28.8 27.3-28.6 1.6 0 2.8.1 3.7.3 15.2-22.2 27.9-13.9 28.5-9.8.8 5.1-3.6 7.5-3.2 5.7 1.3-6.1-9.6-10.3-23.3 7.1M65.5 14.9c-.8-7.4-8-5.9-8.5-1.7-.5 3.9-2.2 24.3-2.3 26.3-.1 1.9-.9 2.1-1.6 2-1.2-.1.9-29.1.9-29.6.1-1.2 1.3-6.2 6.6-6.1s7.7 3 7.7 6.1-2.5 5.1-2.8 3M51.9 21c-.8-6.6-7.1-5.6-7.9-.6-.1.7-2.9 23.8-3.1 26.7-.2 2.5-1.4 2.5-2.3 2.4-1-.1 1.5-29.5 1.7-31.4.1-1 1-6.6 6.8-6.5s6.5 5.4 6.5 5.4-1.6 5.6-1.7 4" style="fill:#faa700"/><path d="M37.7 35.6c-.3-4.9-5.3-4.1-5.9-.8-1.7 9.8-7 43.3-1.6 62.6 2.3 8.2 6.9 14.6 13.3 18.1 5.8 3.1 1.7 7.5-.1 6.8-22.9-8.7-21.3-36-21.4-37.5-.2-4.9 4.7-49.5 4.7-49.8 0-1.2 2.6-7.1 8-6.8s4.5 4.5 4.5 4.5-1.4 3.6-1.5 2.9m41.8-14.2c-.6-6.8-7.9-6.2-8.4-1.6-.4 3.6-1.7 17.3-1.8 18.3s-.3 1.6-1.2 1.7c-.9.2-.4-19.4-.4-19.5s.8-8.5 6.4-8.7 8 4.9 8.1 8.1c.1 3.4-2.7 1.7-2.7 1.7" style="fill:#faa700"/></g><defs><path id="c" d="M86.3 76c2-2.5 10-13.4 19.9-13.9 2.5-.1 10.7 1.4 7.2 8.7-2.5 5.1-11.8 8.3-21.5 26.6-3 5.6-13 23.8-33.7 23.8-10.4 0-25-4.9-29.7-21.1-3.8-12.9-4.7-27.7.6-63.2 1.6-10.6 10.2-7.8 10.9-2.2.5-5.9.7-11.3 1.5-14.4 1.1-4.8 3.6-6.5 6-6.6 3.1-.2 6.1 2.4 6.6 6.8.4-3.6.7-6.4.8-7.4 1.2-7.5 10.8-7.7 12.3-.3.7 3.3 1 6.6 1 9.9C69 10.1 79.9 12 81 19.6c1.7 12.5 3.1 45.5 5.3 56.4"/></defs><clipPath id="d"><use xlink:href="#c" style="overflow:visible"/></clipPath><g style="clip-path:url(#d)"><path d="M65.4 17.4c.3 6.1.3 39.9.3 40.7s-.6 1.8-.6 2.5c0 1.3 1.1 1.3 2.3 1.4s2.4.3 2.4-1c0-1.1-.8-1.3-.7-2.7s-.8-34.3-.8-35.8.9-14.4-3.9-16.8c-2.4-1.2-4.4 0-2.9 1 2.9 2.2 3.6 5.8 3.9 10.7m-13.7 3.3c.1 3.5-.6 37.1-.7 37.8-.1 1.5-.8 1.7-.8 2.9 0 1.3 1.1 1.1 2.3 1.1 1.1 0 2.3.1 2.3-1.1 0-1.4-.7-.8-.7-3v-38c0-5.4-.5-6.5-2.4-8.2-2-1.8-3.8 0-2.6 1.2 1.8 2.1 2.5 3.8 2.6 7.3m-14 14.9c-.1 2.9-.7 24.7-.8 25.6s-.6 1.3-.6 2.5c0 1.3 1 1.1 2 .9s1.9-.3 2-1.4c.1-1.3-.8-.9-.7-2.3s.2-21.1.3-26.2c0-2.1-.7-5.1-2.1-6.1-1.4-1.1-4-.1-2.4.9 2 1.2 2.4 3.2 2.3 6.1m76.6 29.3c-.1 1.5-.8 3.3-2.5 5s-10.6 9.8-12.9 12C90.7 89.8 84.3 114 63.6 118c-3.9.7-15.9 3.2-30.3-9.2-2.1-1.8-3.7-.4-2.4 1.4 9.8 13.1 22.9 12.5 32.6 12.2s21.5-7.6 26.9-15.8 27.1-38.8 27.1-38.8zm-26.6 6.4s-1.1 3.8-1.5 4.7-3.1 1-3.4-1.7-3.9-52.1-4.2-54.7c-.2-2.6-1.6-5.2-4-6.7-1.8-1.1.3-3.1 1.7-2.4 1.3.8 7.3 2.3 7.8 11.7.6 9.4 3.6 49.1 3.6 49.1" style="fill:#b55e19"/></g></svg>