<svg xmlns="http://www.w3.org/2000/svg" xml:space="preserve" viewBox="0 0 128 128"><path d="M64 4C30.9 4 4 30.9 4 64s26.9 60 60 60 60-26.9 60-60S97.1 4 64 4m50 60c0 12-4.2 23-11.3 31.6L32.4 25.3C41 18.2 52 14 64 14c27.6 0 50 22.4 50 50M14 64c0-12 4.2-23 11.3-31.6l70.3 70.3C87 109.8 76 114 64 114c-27.6 0-50-22.4-50-50" style="fill:#c33"/><circle cx="60.1" cy="63.1" r="56.1" style="fill:#f44336"/><path d="M95.6 102.7C87 109.8 76 114 64 114c-27.6 0-50-22.4-50-50 0-12 4.2-23 11.3-31.6l7.1-7.1C41 18.2 52 14 64 14c27.6 0 50 22.4 50 50 0 12-4.2 23-11.3 31.6" style="fill:#fff"/><path d="M95.6 102.7C87 109.8 76 114 64 114c-27.6 0-50-22.4-50-50 0-12 4.2-23 11.3-31.6l7.1-7.1C41 18.2 52 14 64 14c27.6 0 50 22.4 50 50 0 12-4.2 23-11.3 31.6" style="fill:#231f20"/><path d="M96.4 103.2C88.1 110 77.6 114 66.1 114c-26.4 0-47.9-21.5-47.9-47.9 0-11.5 4-22 10.8-30.3l6.8-6.8c8.2-6.8 18.8-10.8 30.3-10.8 26.4 0 47.9 21.5 47.9 47.9 0 11.5-4 22-10.8 30.3" style="fill:#414042"/><path d="M91 69H25c-.5 0-1-.4-1-1v-8c0-.5.5-1 1-1h66c.6 0 1 .5 1 1v8c0 .6-.4 1-1 1m12 0h-6c-.6 0-1-.4-1-1v-8c0-.5.4-1 1-1h6c.6 0 1 .5 1 1v8c0 .6-.4 1-1 1m-4.9-15.6c-1.1.5-.3 2.2.8 1.9 6.2-1.9 16.2-9.5 15.6-24-.6-14.4-.6-21.4 9.1-26 .6-.3.4-1.3-.3-1.2-6.6.1-22.2 2.9-20.2 20.4 1.6 14.2 2 25.5-5 28.9" style="fill:#fafafa"/><g style="opacity:.2"><path d="M123.4 4c-6.6.1-22.2 2.9-20.2 20.4 1.6 14.3 2 25.6-5 29-1 .5-.4 1.9.5 1.9h.3c6.2-1.9 16.2-9.5 15.6-24-.6-14.4-.6-21.4 9.1-26 .5-.4.3-1.3-.3-1.3" style="fill:#424242"/></g><path d="M23.4 35.6 95 102.1l2-1.9-66.4-66.8" style="opacity:.8;fill:#231f20"/><path d="M103.9 96.8 25.3 18.9 18.2 26l78.6 77.9" style="fill:#f44336"/><path d="M45 10.9c1.7-.4 4.2-1.6 5.9-1.1 1 .3 1.9 1.5 1.5 2.5-.3.8-1.1 1.3-2 1.5-4.1 1.1-7.7 2.3-11.3 4.1C32 21.6 25.6 27.2 21 33.7c-1.9 2.7-3.4 5.5-5.8 7.8-.2.2-.5.4-.8.4-.2 0-.4 0-.5-.1-1.2-.5-1.4-1.1-1.2-2.3.2-1 .5-2 1-2.9.9-1.8 2.2-3.4 3.3-5.1 1.9-2.9 4.1-5.6 6.6-8 6.8-6.3 15.6-11.1 21.4-12.6" style="fill:#ff8a80"/><path d="m32.4 25.3-2 2 71.1 71.1 1.8-2.2z" style="fill:#c33"/></svg>