<svg xmlns="http://www.w3.org/2000/svg" xmlns:xlink="http://www.w3.org/1999/xlink" xml:space="preserve" viewBox="0 0 128 128"><path d="M90.6 71.1c.1.4.6.5.8.2 3.9-4.8 14.6-18.1 26.7-14.7 3.9 1.1 5.7 5.5 4.1 8.8-2.4 5.2-15.8 14.1-22.5 25.6-1.1 1.8-10.3 23.1-25.8 29.3-15.4 6.2-42.2 5.4-50.1-24.6-4.1-15.5-1.8-19.1-6-39.7-.8-4-4.1-21.1-4.6-26.2-.7-6.8 9.4-9.1 11.8-3.3 1.1 2.8 9.4 26.6 9.7 27.7 2.3-10.5 6.8-13 12.2-12.8 4 .1 6.5 2.1 7.7 4.2 2.1-3.5 5.8-4.8 9.8-4.1 3.4.6 6.7 2.9 8.5 7.6C73 47.6 82 13 83.1 9.2c2-6.5 13.2-6 12.6 2.7-1.3 17.4-7.9 44-5.1 59.2" style="fill:#ffca28"/><defs><path id="a" d="M90.6 71.1c.1.4.6.5.8.2 3.9-4.8 14.6-18.1 26.7-14.7 3.9 1.1 5.7 5.5 4.1 8.8-2.4 5.2-15.8 14.1-22.5 25.6-1.1 1.8-10.3 23.1-25.8 29.3-15.4 6.2-42.2 5.4-50.1-24.6-4.1-15.5-1.8-19.1-6-39.7-.8-4-4.1-21.1-4.6-26.2-.7-6.8 9.4-9.1 11.8-3.3 1.1 2.8 9.4 26.6 9.7 27.7 2.3-10.5 6.8-13 12.2-12.8 4 .1 6.5 2.1 7.7 4.2 2.1-3.5 5.8-4.8 9.8-4.1 3.4.6 6.7 2.9 8.5 7.6C73 47.6 82 13 83.1 9.2c2-6.5 13.2-6 12.6 2.7-1.3 17.4-7.9 44-5.1 59.2"/></defs><clipPath id="b"><use xlink:href="#a" style="overflow:visible"/></clipPath><g style="clip-path:url(#b)"><path d="M88.5 70c-18 2-32.1 12.4-31.6 33 0 1.7 2.6 1.7 2.7-.1.6-9.7 5.9-24.6 28.4-29.2 1.1 1.8 4.1 1.4 5.1.1 6.8-8.4 12.6-15.1 22.1-15.1 3.6 0 6.3 3.3 3.9 7.3 0 0-1.5 2.2-2.1 3.2-.4.7 4.4-1.4 4.9-1 1.7-1.7 5.1-4.7 5.1-4.8.1-.2-8.5-11.5-8.5-11.5l-16.2 3.6zM71.1 53.9c1.7.2 3.5-.1 3.9-2s9.4-37.7 10.1-40.3c1.2-4.9 6.5-5.6 8.4-2.1 1 1.9 3.5-.8 3-1.8-.6-1-1.5-4-6.8-4.6-9.6-1-10.5 9.8-11.6 15.7s-7 35.1-7 35.1m-13.9 68.3C37 119.6 29 106.4 26.3 94.3c-3.1-13.8-2.3-24-4.5-32.8-.8-3.1-5.6-28.9-5.6-32.8 0-3.2 5.4-5.3 7.2-1.1 1.1 2.6 3.9.4 3.1-1.2s-2.8-5.1-7.5-4.8-7.4 4.4-7.5 6.2 12.2 85 12.2 85L43 124.5l14.2.3z" style="fill:#faa700"/><path d="M70.1 48.2c-1.4-3.2-9.3-8.2-14.5 0-.8 1.2-2 .6-2.2 0-1-3.5-9.3-8.1-14.4.7-1.5 2.6-1.6 8.3-1.5 9.6s-2.8 2.4-3.1.6S33 47.5 33 47.5l7.5-7.5 26.8-1.1 4.6 6.4zM71.7 63c.4 7.8-14.3 9.3-14.2-.5 0-1.5-2.2-1.3-2.1 0 .3 8.9-12.7 8-14.1 4.8-1.8-4.1-2.6-2.9-3-2.8-.6.2-.5 15.6 9.1 15.6 5.9 0 7.9-5.8 7.9-5.8s.9 5.7 7 5.2c9.6-.7 10.8-11.1 10.8-15.6.1-2.8-1.4-.9-1.4-.9" style="fill:#faa700"/></g><defs><path id="c" d="M90.6 71.1c.1.4.6.5.8.2 3.9-4.8 14.6-18.1 26.7-14.7 3.9 1.1 5.7 5.5 4.1 8.8-2.4 5.2-15.8 14.1-22.5 25.6-1.1 1.8-10.3 23.1-25.8 29.3-15.4 6.2-42.2 5.4-50.1-24.6-4.1-15.5-1.8-19.1-6-39.7-.8-4-4.1-21.1-4.6-26.2-.7-6.8 9.4-9.1 11.8-3.3 1.1 2.8 9.4 26.6 9.7 27.7 2.3-10.5 6.8-13 12.2-12.8 4 .1 6.5 2.1 7.7 4.2 2.1-3.5 5.8-4.8 9.8-4.1 3.4.6 6.7 2.9 8.5 7.6C73 47.6 82 13 83.1 9.2c2-6.5 13.2-6 12.6 2.7-1.3 17.4-7.9 44-5.1 59.2"/></defs><clipPath id="d"><use xlink:href="#c" style="overflow:visible"/></clipPath><g style="clip-path:url(#d)"><path d="M123.4 59.1c-.3 1.6-1.1 4.1-3.6 6.7-9.4 9.7-17.1 13.9-23.7 26.6-12.6 24.3-31.8 36.6-61.7 22.3-3-1.4-3.7 1.2-2 1.9.6.4 22.6 9.5 22.6 9.5s28.2-3.9 28.4-4.1c.1-.2 42.9-56.7 42.9-56.7zM90.6 4c1.1 1 3.1 3.7 2.7 8.7S88.4 45.1 88 48.3c-.3 3.2-2.3 17.7-.6 23.8.5 1.7 2.6 1.3 3.1-.1.2-.6.9-2.3.9-2.3L102.3 5 94.7.5zM34.7 54.2s-.2 3.5 1.1 5c-.1-1.4 0-2.1.1-2.4.3-1.1 1.7-1 1.8.3.2 5.1 2 9.5 2.1 10.7.3 2.9.3 5.3 1.2 7.3 2.2 5.1 10.5 5.7 12.9-1.3 1.6-4.7 2.2-24.9-3.3-30.3-.9-.9.1-1.8.3-2 1.4.7 3.8.4 3.7 4.1 2.7 4.9 4 21.9 1.9 29.5 2.4 4.7 9.3 5 12.9-1.2 1.8-3.2 2.1-8.6 2.2-13.9 0-3-.2-11.6-4.3-16.3-.4-.5.1-1.6.3-1.7 1.6.3 5.1.7 5.3 7.1 2 7.1 1.6 17.8-.4 24.3-2.5 8.1-12.9 10.9-17.4 4.7-2.6 3.2-4.6 3.8-7.7 3.8-9.7 0-9.7-11.2-10.2-14.9-5-6.2-4.6-10.4-5.2-11.8-.9-2.5-8.5-26-9-27.7s-2.6-5-6.4-4.2c-1.4.3-2-2.1-.6-2.4 1.5-.4 9.2-2.2 10.9 3.4s7.8 29.9 7.8 29.9" style="fill:#b55e19"/></g></svg>