<?xml version="1.0" encoding="UTF-8" standalone="no"?>
<!DOCTYPE svg PUBLIC "-//W3C//DTD SVG 1.1//EN" "http://www.w3.org/Graphics/SVG/1.1/DTD/svg11.dtd">
<svg version="1.1" xmlns="http://www.w3.org/2000/svg" xmlns:xl="http://www.w3.org/1999/xlink" xmlns:dc="http://purl.org/dc/elements/1.1/" viewBox="-542.1742 -3506.979 16.000008 16.000008" width="16.000008" height="16.000008">
  <defs/>
  <g id="SOURCES" stroke-dasharray="none" fill="none" stroke="none" fill-opacity="1" stroke-opacity="1">
    <title>SOURCES</title>
    <g id="SOURCES_Calque_2">
      <title>Calque 2</title>
      <g id="Graphic_9586"/>
      <g id="Group_9587">
        <title>rotate-right</title>
        <g id="Graphic_9588">
          <path d="M -537.9475 -3503.645 L -539.84085 -3503.645 C -540.0275 -3503.645 -540.1742 -3503.7918 -540.1742 -3503.9784 C -540.1742 -3504.165 -540.0275 -3504.3118 -539.84085 -3504.3118 L -537.1742 -3504.3118 C -536.9875 -3504.3118 -536.84085 -3504.165 -536.84085 -3503.9784 L -536.84085 -3501.3118 C -536.84085 -3501.125 -536.9875 -3500.9784 -537.1742 -3500.9784 C -537.36085 -3500.9784 -537.5075 -3501.125 -537.5075 -3501.3118 L -537.5075 -3503.145 C -538.7542 -3502.145 -539.5075 -3500.625 -539.5075 -3498.9784 C -539.5075 -3496.0318 -537.12085 -3493.645 -534.1742 -3493.645 C -531.2275 -3493.645 -528.84085 -3496.0318 -528.84085 -3498.9784 C -528.84085 -3501.925 -531.0542 -3504.145 -533.86085 -3504.305 C -534.0475 -3504.3184 -534.1875 -3504.4718 -534.1742 -3504.6584 C -534.16085 -3504.845 -534.0075 -3504.985 -533.8275 -3504.9718 C -530.66085 -3504.7918 -528.1742 -3502.165 -528.1742 -3498.985 C -528.1742 -3495.805 -530.86085 -3492.985 -534.1742 -3492.985 C -537.4875 -3492.985 -540.1742 -3495.665 -540.1742 -3498.9784 C -540.1742 -3500.825 -539.34085 -3502.525 -537.9475 -3503.645 Z" fill="#4e8234"/>
          <path d="M -537.9475 -3503.645 L -539.84085 -3503.645 C -540.0275 -3503.645 -540.1742 -3503.7918 -540.1742 -3503.9784 C -540.1742 -3504.165 -540.0275 -3504.3118 -539.84085 -3504.3118 L -537.1742 -3504.3118 C -536.9875 -3504.3118 -536.84085 -3504.165 -536.84085 -3503.9784 L -536.84085 -3501.3118 C -536.84085 -3501.125 -536.9875 -3500.9784 -537.1742 -3500.9784 C -537.36085 -3500.9784 -537.5075 -3501.125 -537.5075 -3501.3118 L -537.5075 -3503.145 C -538.7542 -3502.145 -539.5075 -3500.625 -539.5075 -3498.9784 C -539.5075 -3496.0318 -537.12085 -3493.645 -534.1742 -3493.645 C -531.2275 -3493.645 -528.84085 -3496.0318 -528.84085 -3498.9784 C -528.84085 -3501.925 -531.0542 -3504.145 -533.86085 -3504.305 C -534.0475 -3504.3184 -534.1875 -3504.4718 -534.1742 -3504.6584 C -534.16085 -3504.845 -534.0075 -3504.985 -533.8275 -3504.9718 C -530.66085 -3504.7918 -528.1742 -3502.165 -528.1742 -3498.985 C -528.1742 -3495.805 -530.86085 -3492.985 -534.1742 -3492.985 C -537.4875 -3492.985 -540.1742 -3495.665 -540.1742 -3498.9784 C -540.1742 -3500.825 -539.34085 -3502.525 -537.9475 -3503.645 Z" stroke="#508034" stroke-linecap="butt" stroke-linejoin="round" stroke-width=".25"/>
        </g>
      </g>
    </g>
  </g>
</svg>
