<svg xmlns="http://www.w3.org/2000/svg" viewBox="-542.174 -3506.979 16 16"><g fill="none"><path d="M-537.947-3503.645h-1.894a.33.33 0 0 1-.333-.333.33.33 0 0 1 .333-.334h2.667a.33.33 0 0 1 .333.334v2.666a.33.33 0 0 1-.333.334.33.33 0 0 1-.334-.334v-1.833c-1.246 1-2 2.52-2 4.167a5.332 5.332 0 0 0 5.334 5.333 5.332 5.332 0 0 0 5.333-5.333c0-2.947-2.213-5.167-5.02-5.327a.33.33 0 0 1-.313-.353.329.329 0 0 1 .346-.314 5.999 5.999 0 0 1 5.654 5.987c0 3.18-2.687 6-6 6s-6-2.68-6-5.993a5.97 5.97 0 0 1 2.226-4.667z" fill="#4e8234"/><path d="M-537.947-3503.645h-1.894a.33.33 0 0 1-.333-.333.33.33 0 0 1 .333-.334h2.667a.33.33 0 0 1 .333.334v2.666a.33.33 0 0 1-.333.334.33.33 0 0 1-.334-.334v-1.833c-1.246 1-2 2.52-2 4.167a5.332 5.332 0 0 0 5.334 5.333 5.332 5.332 0 0 0 5.333-5.333c0-2.947-2.213-5.167-5.02-5.327a.33.33 0 0 1-.313-.353.329.329 0 0 1 .346-.314 5.999 5.999 0 0 1 5.654 5.987c0 3.18-2.687 6-6 6s-6-2.68-6-5.993a5.97 5.97 0 0 1 2.226-4.667z" stroke="#508034" stroke-linejoin="round" stroke-width=".25"/></g></svg>