<svg height="16" viewBox="-542.174 -3506.979 16 16" width="16" xmlns="http://www.w3.org/2000/svg"><g fill="none"><path d="m-537.9475-3503.645h-1.89335c-.18665 0-.33335-.1468-.33335-.3334s.1467-.3334.33335-.3334h2.66665c.1867 0 .33335.1468.33335.3334v2.6666c0 .1868-.14665.3334-.33335.3334-.18665 0-.3333-.1466-.3333-.3334v-1.8332c-1.2467 1-2 2.52-2 4.1666 0 2.9466 2.38665 5.3334 5.3333 5.3334 2.9467 0 5.33335-2.3868 5.33335-5.3334s-2.21335-5.1666-5.02-5.3266c-.18665-.0134-.32665-.1668-.31335-.3534.01335-.1866.1667-.3266.3467-.3134 3.16665.18 5.6533 2.8068 5.6533 5.9868s-2.68665 6-6 6c-3.3133 0-6-2.68-6-5.9934 0-1.8466.83335-3.5466 2.2267-4.6666z" fill="#4e8234"/><path d="m-537.9475-3503.645h-1.89335c-.18665 0-.33335-.1468-.33335-.3334s.1467-.3334.33335-.3334h2.66665c.1867 0 .33335.1468.33335.3334v2.6666c0 .1868-.14665.3334-.33335.3334-.18665 0-.3333-.1466-.3333-.3334v-1.8332c-1.2467 1-2 2.52-2 4.1666 0 2.9466 2.38665 5.3334 5.3333 5.3334 2.9467 0 5.33335-2.3868 5.33335-5.3334s-2.21335-5.1666-5.02-5.3266c-.18665-.0134-.32665-.1668-.31335-.3534.01335-.1866.1667-.3266.3467-.3134 3.16665.18 5.6533 2.8068 5.6533 5.9868s-2.68665 6-6 6c-3.3133 0-6-2.68-6-5.9934 0-1.8466.83335-3.5466 2.2267-4.6666z" stroke="#508034" stroke-linejoin="round" stroke-width=".25"/></g></svg>