<svg height="16" viewBox="-932.802 -3555.08 16 16" width="16" xmlns="http://www.w3.org/2000/svg"><g fill="none"><path d="m-929.2784-3551.5602h8.960156v8.960159h-8.960156z" fill="#000"/><path d="m-929.2784-3551.5602h8.960156v8.960159h-8.960156z" stroke="#000" stroke-linecap="round" stroke-linejoin="round" stroke-width=".5"/><path d="m-929.2784-3551.5602h2.986719v2.98672h-2.986719z" fill="#fff"/><path d="m-929.2784-3551.5602h2.986719v2.98672h-2.986719z" stroke="#000" stroke-linecap="round" stroke-linejoin="round" stroke-width=".5"/><path d="m-926.2917-3551.5602h2.986719v2.98672h-2.986719z" fill="#fff"/><path d="m-926.2917-3551.5602h2.986719v2.98672h-2.986719z" stroke="#000" stroke-linecap="round" stroke-linejoin="round" stroke-width=".5"/><path d="m-923.305-3551.5602h2.986719v2.98672h-2.986719z" fill="#fff"/><path d="m-923.305-3551.5602h2.986719v2.98672h-2.986719z" stroke="#000" stroke-linecap="round" stroke-linejoin="round" stroke-width=".5"/><path d="m-929.2784-3548.5735h2.986719v2.98672h-2.986719z" fill="#fff"/><path d="m-929.2784-3548.5735h2.986719v2.98672h-2.986719z" stroke="#000" stroke-linecap="round" stroke-linejoin="round" stroke-width=".5"/><path d="m-926.2917-3548.5735h2.986719v2.98672h-2.986719z" fill="#fff"/><path d="m-926.2917-3548.5735h2.986719v2.98672h-2.986719z" stroke="#000" stroke-linecap="round" stroke-linejoin="round" stroke-width=".5"/><path d="m-923.305-3548.5735h2.986719v2.98672h-2.986719z" fill="#fff"/><path d="m-923.305-3548.5735h2.986719v2.98672h-2.986719z" stroke="#000" stroke-linecap="round" stroke-linejoin="round" stroke-width=".5"/><path d="m-929.2861-3545.5945h2.986719v2.98672h-2.986719z" fill="#fff"/><path d="m-929.2861-3545.5945h2.986719v2.98672h-2.986719z" stroke="#000" stroke-linecap="round" stroke-linejoin="round" stroke-width=".5"/><path d="m-926.2994-3545.5945h2.986719v2.98672h-2.986719z" fill="#fff"/><path d="m-926.2994-3545.5945h2.986719v2.98672h-2.986719z" stroke="#000" stroke-linecap="round" stroke-linejoin="round" stroke-width=".5"/><path d="m-923.3127-3545.5945h2.986719v2.98672h-2.986719z" fill="#fff"/><path d="m-923.3127-3545.5945h2.986719v2.98672h-2.986719z" stroke="#000" stroke-linecap="round" stroke-linejoin="round" stroke-width=".5"/></g></svg>