<?xml version="1.0" encoding="UTF-8" standalone="no"?>
<!DOCTYPE svg PUBLIC "-//W3C//DTD SVG 1.1//EN" "http://www.w3.org/Graphics/SVG/1.1/DTD/svg11.dtd">
<svg version="1.1" xmlns="http://www.w3.org/2000/svg" xmlns:xl="http://www.w3.org/1999/xlink" xmlns:dc="http://purl.org/dc/elements/1.1/" viewBox="-382.58608 -3566.5914 16.000008 16.000008" width="16.000008" height="16.000008">
  <defs/>
  <g id="SOURCES" stroke-dasharray="none" fill="none" stroke="none" fill-opacity="1" stroke-opacity="1">
    <title>SOURCES</title>
    <g id="SOURCES_Calque_2">
      <title>Calque 2</title>
      <g id="Group_9548">
        <g id="Graphic_9547"/>
        <g id="Group_9545">
          <title>play</title>
          <g id="Graphic_9546">
            <path d="M -378.63656 -3563.5286 L -378.63656 -3553.6456 C -378.63656 -3553.403 -378.44106 -3553.2074 -378.19836 -3553.2074 C -378.1107 -3553.2074 -378.0231 -3553.2344 -377.95567 -3553.2815 L -370.76922 -3558.1557 C -370.53327 -3558.3174 -370.4726 -3558.641 -370.6344 -3558.877 C -370.6681 -3558.931 -370.7153 -3558.978 -370.76922 -3559.012 L -377.95567 -3563.8927 C -378.1579 -3564.0275 -378.42757 -3563.9736 -378.5624 -3563.778 C -378.6096 -3563.704 -378.63656 -3563.623 -378.63656 -3563.5354 Z M -379.3107 -3563.5286 C -379.3107 -3563.751 -379.2433 -3563.967 -379.12195 -3564.1556 C -378.7714 -3564.661 -378.08376 -3564.796 -377.5714 -3564.4522 L -370.38496 -3559.578 C -370.25687 -3559.4905 -370.149 -3559.3826 -370.0681 -3559.2613 C -369.69732 -3558.715 -369.8389 -3557.9736 -370.38496 -3557.603 L -377.5714 -3552.7287 C -377.75342 -3552.6007 -377.9759 -3552.54 -378.19836 -3552.54 C -378.81184 -3552.54 -379.3107 -3553.039 -379.3107 -3553.6523 Z" fill="#508035"/>
          </g>
        </g>
      </g>
    </g>
  </g>
</svg>
