<svg height="16" viewBox="-792.382 -3546.001 16 16" width="16" xmlns="http://www.w3.org/2000/svg"><path d="M-785.507-3542.939v2.726l-5.196-3.649a1.061 1.061 0 0 0-1.497.297 1.188 1.188 0 0 0-.182.626v9.877c0 .613.482 1.112 1.074 1.112.215 0 .43-.06.605-.189l5.196-3.649v2.726c0 .613.482 1.112 1.074 1.112.215 0 .43-.06.606-.189l6.94-4.874a1.22 1.22 0 0 0 0-1.975l-6.94-4.874a1.061 1.061 0 0 0-1.498.296 1.188 1.188 0 0 0-.182.627zm.651 6.432h-.785l-5.433 3.816a.405.405 0 0 1-.234.074.43.43 0 0 1-.423-.438v-9.89c0-.088.026-.169.072-.243.13-.195.39-.25.585-.115l5.397 3.796h.821V-3542.945c0-.088.026-.169.072-.243.13-.195.39-.25.586-.115l6.94 4.881a.531.531 0 0 1 0 .856l-6.94 4.875a.405.405 0 0 1-.235.074.43.43 0 0 1-.423-.438z" fill="#fff"/></svg>