<svg viewBox="-832 -3546.001 16 16" xmlns="http://www.w3.org/2000/svg"><g fill="none"><path d="M-820.83-3537.88c.21-.18.53-.16.71.05s.16.53-.05.71l-3.5 3a.5.5 0 0 1-.65 0l-3.5-3a.505.505 0 0 1-.05-.71c.18-.21.5-.23.71-.05l3.17 2.72zm0-4c.21-.18.53-.16.71.05s.16.53-.05.71l-3.5 3a.5.5 0 0 1-.65 0l-3.51-3a.505.505 0 0 1-.05-.71c.18-.21.5-.23.71-.05l3.17 2.72z" fill="#fff"/><path d="M-820.83-3536.56c.21-.18.53-.16.71.05s.16.53-.05.71l-3.5 3a.5.5 0 0 1-.65 0l-3.5-3a.505.505 0 0 1-.05-.71c.18-.21.5-.23.71-.05l3.17 2.72zm0-4c.21-.18.53-.16.71.05s.16.53-.05.71l-3.5 3a.5.5 0 0 1-.65 0l-3.51-3a.505.505 0 0 1-.05-.71c.18-.21.5-.23.71-.05l3.17 2.72z" fill="#999"/></g></svg>