<svg xmlns="http://www.w3.org/2000/svg" viewBox="-312 -3548.546 16 16"><g fill="none"><path d="M-303.879-3543.716a.505.505 0 0 1 .05-.71c.21-.18.53-.16.71.05l3 3.5a.5.5 0 0 1 0 .65l-3 3.5c-.18.21-.5.23-.71.05a.505.505 0 0 1-.05-.71l2.72-3.17zm-4 0a.505.505 0 0 1 .05-.71c.21-.18.53-.16.71.05l3 3.5a.5.5 0 0 1 0 .65l-3 3.51c-.18.21-.5.23-.71.05a.505.505 0 0 1-.05-.71l2.72-3.17z" fill="#fff"/><path d="M-302.718-3543.716a.505.505 0 0 1 .05-.71c.21-.18.53-.16.71.05l3 3.5a.5.5 0 0 1 0 .65l-3 3.5c-.18.21-.5.23-.71.05a.505.505 0 0 1-.05-.71l2.72-3.17zm-4 0a.505.505 0 0 1 .05-.71c.21-.18.53-.16.71.05l3 3.5a.5.5 0 0 1 0 .65l-3 3.51c-.18.21-.5.23-.71.05a.505.505 0 0 1-.05-.71l2.72-3.17z" fill="#999"/></g></svg>