<?xml version="1.0" encoding="UTF-8" standalone="no"?>
<!DOCTYPE svg PUBLIC "-//W3C//DTD SVG 1.1//EN" "http://www.w3.org/Graphics/SVG/1.1/DTD/svg11.dtd">
<svg version="1.1" xmlns="http://www.w3.org/2000/svg" xmlns:xl="http://www.w3.org/1999/xlink" xmlns:dc="http://purl.org/dc/elements/1.1/" viewBox="-573.1123 -3508.985 16.000008 16.000008" width="16.000008" height="16.000008">
  <defs/>
  <g id="SOURCES" stroke-dasharray="none" fill="none" stroke="none" fill-opacity="1" stroke-opacity="1">
    <title>SOURCES</title>
    <g id="SOURCES_Calque_2">
      <title>Calque 2</title>
      <g id="Graphic_9474"/>
      <g id="Group_9584">
        <title>rotate-right</title>
        <g id="Graphic_9585">
          <path d="M -568.88565 -3505.6513 L -570.779 -3505.6513 C -570.96565 -3505.6513 -571.1123 -3505.798 -571.1123 -3505.9847 C -571.1123 -3506.1713 -570.96565 -3506.318 -570.779 -3506.318 L -568.1123 -3506.318 C -567.92565 -3506.318 -567.779 -3506.1713 -567.779 -3505.9847 L -567.779 -3503.318 C -567.779 -3503.1313 -567.92565 -3502.9847 -568.1123 -3502.9847 C -568.299 -3502.9847 -568.44565 -3503.1313 -568.44565 -3503.318 L -568.44565 -3505.1513 C -569.6923 -3504.1513 -570.44565 -3502.6313 -570.44565 -3500.9847 C -570.44565 -3498.038 -568.059 -3495.6513 -565.1123 -3495.6513 C -562.16565 -3495.6513 -559.779 -3498.038 -559.779 -3500.9847 C -559.779 -3503.9313 -561.9923 -3506.1513 -564.799 -3506.3113 C -564.98565 -3506.3247 -565.12565 -3506.478 -565.1123 -3506.6647 C -565.099 -3506.8513 -564.94565 -3506.9913 -564.76565 -3506.978 C -561.599 -3506.798 -559.1123 -3504.1713 -559.1123 -3500.9913 C -559.1123 -3497.8113 -561.799 -3494.9913 -565.1123 -3494.9913 C -568.42565 -3494.9913 -571.1123 -3497.6713 -571.1123 -3500.9847 C -571.1123 -3502.8313 -570.279 -3504.5313 -568.88565 -3505.6513 Z" fill="white"/>
          <path d="M -568.88565 -3505.6513 L -570.779 -3505.6513 C -570.96565 -3505.6513 -571.1123 -3505.798 -571.1123 -3505.9847 C -571.1123 -3506.1713 -570.96565 -3506.318 -570.779 -3506.318 L -568.1123 -3506.318 C -567.92565 -3506.318 -567.779 -3506.1713 -567.779 -3505.9847 L -567.779 -3503.318 C -567.779 -3503.1313 -567.92565 -3502.9847 -568.1123 -3502.9847 C -568.299 -3502.9847 -568.44565 -3503.1313 -568.44565 -3503.318 L -568.44565 -3505.1513 C -569.6923 -3504.1513 -570.44565 -3502.6313 -570.44565 -3500.9847 C -570.44565 -3498.038 -568.059 -3495.6513 -565.1123 -3495.6513 C -562.16565 -3495.6513 -559.779 -3498.038 -559.779 -3500.9847 C -559.779 -3503.9313 -561.9923 -3506.1513 -564.799 -3506.3113 C -564.98565 -3506.3247 -565.12565 -3506.478 -565.1123 -3506.6647 C -565.099 -3506.8513 -564.94565 -3506.9913 -564.76565 -3506.978 C -561.599 -3506.798 -559.1123 -3504.1713 -559.1123 -3500.9913 C -559.1123 -3497.8113 -561.799 -3494.9913 -565.1123 -3494.9913 C -568.42565 -3494.9913 -571.1123 -3497.6713 -571.1123 -3500.9847 C -571.1123 -3502.8313 -570.279 -3504.5313 -568.88565 -3505.6513 Z" stroke="white" stroke-linecap="butt" stroke-linejoin="round" stroke-width=".25"/>
        </g>
      </g>
    </g>
  </g>
</svg>
