<svg height="16" viewBox="-597.67 -3580.794 16 16" width="16" xmlns="http://www.w3.org/2000/svg"><g fill="#4e8135"><path d="M-588.644-3577.731v9.883c0 .243.153.438.342.438a.288.288 0 0 0 .19-.074l5.613-4.874c.184-.162.231-.486.105-.722a.396.396 0 0 0-.105-.135l-5.613-4.88c-.158-.135-.369-.081-.474.114a.54.54 0 0 0-.058.243zm-.526 0c0-.223.052-.438.147-.627.274-.506.81-.64 1.211-.297l5.613 4.874c.1.088.184.196.247.317.29.546.18 1.288-.247 1.659l-5.613 4.874a.726.726 0 0 1-.49.188c-.479 0-.868-.499-.868-1.112zm-1.526 9.874v-9.883c0-.243-.152-.438-.342-.438a.288.288 0 0 0-.19.074l-5.612 4.874c-.185.162-.232.486-.106.722a.396.396 0 0 0 .106.134l5.612 4.881c.158.135.369.081.474-.114a.54.54 0 0 0 .058-.243zm.527 0a1.4 1.4 0 0 1-.148.627c-.273.506-.81.64-1.21.297l-5.614-4.874a1.096 1.096 0 0 1-.247-.317c-.29-.546-.18-1.288.247-1.659l5.613-4.874a.726.726 0 0 1 .49-.188c.48 0 .869.498.869 1.112z"/></g></svg>