<svg height="16" viewBox="-597.67 -3580.794 16 16" width="16" xmlns="http://www.w3.org/2000/svg"><g fill="#4e8135"><path d="m-588.6439-3577.7313v9.8831c0 .2427.1527.4382.3423.4382.0684 0 .1369-.027.1895-.074l5.6129-4.8743c.1843-.1617.2317-.4854.1053-.7213-.0263-.054-.0632-.1012-.1053-.1349l-5.6129-4.8808c-.1579-.1347-.36854-.0809-.47385.1146-.03685.0741-.05795.155-.05795.2427zm-.5265 0c0-.2224.05265-.4382.1474-.6269.2738-.5058.8109-.6405 1.21106-.2968l5.61284 4.8742c.1001.0878.1843.1955.2475.3168.2896.546.179 1.2877-.2475 1.6585l-5.61284 4.8741c-.14216.1281-.31592.1888-.48966.1888-.4792 0-.8688-.4989-.8688-1.1124z"/><path d="m-590.6958-3567.8568v-9.8832c0-.2425-.1527-.438-.3422-.438-.0685 0-.1369.027-.1896.074l-5.61286 4.8743c-.18428.1617-.23164.4853-.1053.7213.02632.0539.06316.1011.1053.1348l5.61286 4.8809c.158.1347.3686.0807.4739-.1146.03685-.0742.0579-.1551.0579-.2427zm.52655 0c0 .2225-.05265.4382-.14745.6268-.2738.506-.81084.6406-1.211.297l-5.6129-4.8743c-.1-.0877-.1843-.1957-.24745-.3167-.2896-.546-.17905-1.2878.24745-1.6585l5.6129-4.8742c.14215-.128.3159-.1887.4897-.1887.4791 0 .86875.4989.86875 1.1124z"/></g></svg>