<svg height="16" viewBox="-792.382 -3546.001 16 16" width="16" xmlns="http://www.w3.org/2000/svg"><path d="m-785.507-3542.9386v2.7256l-5.1955-3.649c-.4947-.344-1.1588-.209-1.4973.2965-.1172.1887-.1823.4045-.1823.6269v9.8763c0 .6133.4818 1.1123 1.0742 1.1123.2148 0 .4297-.0606.6054-.1887l5.1955-3.649v2.7254c0 .6133.48175 1.1123 1.0742 1.1123.2148 0 .4296-.0606.6054-.1887l6.9398-4.8743c.5273-.3706.664-1.112.30595-1.658-.07815-.1216-.18225-.2294-.30595-.317l-6.9398-4.874c-.4948-.344-1.1588-.209-1.4973.2965-.1172.1887-.1823.4045-.1823.6269zm.651 6.4316h-.7853l-5.4322 3.8155c-.0651.0472-.1498.0742-.2344.0742-.2344 0-.4232-.1957-.4232-.4382v-9.8831-.0067c0-.0877.0261-.1687.0717-.2427.1302-.1955.3906-.2495.5859-.1146l5.397 3.7956h.8205v-3.4316-.0067c0-.0877.02605-.1687.0716-.2427.1302-.1955.3906-.2495.5859-.1146l6.9398 4.8808c.0521.0338.09765.0808.1302.1348.1562.236.09765.5596-.1302.7214l-6.9398 4.8741c-.0651.0472-.1497.0742-.2343.0742-.2344 0-.4232-.1957-.4232-.4382z" fill="#fff"/></svg>