<svg xmlns="http://www.w3.org/2000/svg" viewBox="-932.802 -3555.08 16 16"><g fill="none"><path fill="#000" d="M-929.278-3551.56h8.96v8.96h-8.96z"/><path stroke="#000" stroke-linecap="round" stroke-linejoin="round" stroke-width=".5" d="M-929.278-3551.56h8.96v8.96h-8.96z"/><path fill="#fff" d="M-929.278-3551.56h2.987v2.987h-2.987z"/><path stroke="#000" stroke-linecap="round" stroke-linejoin="round" stroke-width=".5" d="M-929.278-3551.56h2.987v2.987h-2.987z"/><path fill="#fff" d="M-926.292-3551.56h2.987v2.987h-2.987z"/><path stroke="#000" stroke-linecap="round" stroke-linejoin="round" stroke-width=".5" d="M-926.292-3551.56h2.987v2.987h-2.987z"/><path fill="#fff" d="M-923.305-3551.56h2.987v2.987h-2.987z"/><path stroke="#000" stroke-linecap="round" stroke-linejoin="round" stroke-width=".5" d="M-923.305-3551.56h2.987v2.987h-2.987z"/><path fill="#fff" d="M-929.278-3548.573h2.987v2.987h-2.987z"/><path stroke="#000" stroke-linecap="round" stroke-linejoin="round" stroke-width=".5" d="M-929.278-3548.573h2.987v2.987h-2.987z"/><path fill="#fff" d="M-926.292-3548.573h2.987v2.987h-2.987z"/><path stroke="#000" stroke-linecap="round" stroke-linejoin="round" stroke-width=".5" d="M-926.292-3548.573h2.987v2.987h-2.987z"/><path fill="#fff" d="M-923.305-3548.573h2.987v2.987h-2.987z"/><path stroke="#000" stroke-linecap="round" stroke-linejoin="round" stroke-width=".5" d="M-923.305-3548.573h2.987v2.987h-2.987z"/><path fill="#fff" d="M-929.286-3545.595h2.987v2.987h-2.987z"/><path stroke="#000" stroke-linecap="round" stroke-linejoin="round" stroke-width=".5" d="M-929.286-3545.595h2.987v2.987h-2.987z"/><path fill="#fff" d="M-926.299-3545.595h2.987v2.987h-2.987z"/><path stroke="#000" stroke-linecap="round" stroke-linejoin="round" stroke-width=".5" d="M-926.299-3545.595h2.987v2.987h-2.987z"/><path fill="#fff" d="M-923.313-3545.595h2.987v2.987h-2.987z"/><path stroke="#000" stroke-linecap="round" stroke-linejoin="round" stroke-width=".5" d="M-923.313-3545.595h2.987v2.987h-2.987z"/></g></svg>