<?xml version="1.0" encoding="UTF-8" standalone="no"?>
<!DOCTYPE svg PUBLIC "-//W3C//DTD SVG 1.1//EN" "http://www.w3.org/Graphics/SVG/1.1/DTD/svg11.dtd">
<svg version="1.1" xmlns="http://www.w3.org/2000/svg" xmlns:xl="http://www.w3.org/1999/xlink" xmlns:dc="http://purl.org/dc/elements/1.1/" viewBox="-272.33337 -3551.091 16.666662 16.000008" width="16.666662" height="16.000008">
  <defs/>
  <g id="SOURCES" stroke-dasharray="none" fill="none" stroke="none" fill-opacity="1" stroke-opacity="1">
    <title>SOURCES</title>
    <g id="SOURCES_Calque_2">
      <title>Calque 2</title>
      <g id="Graphic_9396"/>
      <g id="Graphic_9395">
        <title>views/tabs/view.inspector</title>
        <path d="M -264.00004 -3548.5457 C -267.6364 -3548.5457 -270.74186 -3546.284 -272.00004 -3543.091 C -270.74186 -3539.8984 -267.6364 -3537.6366 -264.00004 -3537.6366 C -260.36368 -3537.6366 -257.25823 -3539.8984 -256.00004 -3543.091 C -257.25823 -3546.284 -260.36368 -3548.5457 -264.00004 -3548.5457 Z M -264.00004 -3539.4548 C -266.0073 -3539.4548 -267.6364 -3541.084 -267.6364 -3543.091 C -267.6364 -3545.0984 -266.0073 -3546.7275 -264.00004 -3546.7275 C -261.99277 -3546.7275 -260.36368 -3545.0984 -260.36368 -3543.091 C -260.36368 -3541.084 -261.99277 -3539.4548 -264.00004 -3539.4548 Z M -264.00004 -3545.273 C -265.2073 -3545.273 -266.18186 -3544.2984 -266.18186 -3543.091 C -266.18186 -3541.884 -265.2073 -3540.9093 -264.00004 -3540.9093 C -262.79277 -3540.9093 -261.81822 -3541.884 -261.81822 -3543.091 C -261.81822 -3544.2984 -262.79277 -3545.273 -264.00004 -3545.273 Z" fill="white"/>
        <path d="M -264.00004 -3548.5457 C -267.6364 -3548.5457 -270.74186 -3546.284 -272.00004 -3543.091 C -270.74186 -3539.8984 -267.6364 -3537.6366 -264.00004 -3537.6366 C -260.36368 -3537.6366 -257.25823 -3539.8984 -256.00004 -3543.091 C -257.25823 -3546.284 -260.36368 -3548.5457 -264.00004 -3548.5457 Z M -264.00004 -3539.4548 C -266.0073 -3539.4548 -267.6364 -3541.084 -267.6364 -3543.091 C -267.6364 -3545.0984 -266.0073 -3546.7275 -264.00004 -3546.7275 C -261.99277 -3546.7275 -260.36368 -3545.0984 -260.36368 -3543.091 C -260.36368 -3541.084 -261.99277 -3539.4548 -264.00004 -3539.4548 Z M -264.00004 -3545.273 C -265.2073 -3545.273 -266.18186 -3544.2984 -266.18186 -3543.091 C -266.18186 -3541.884 -265.2073 -3540.9093 -264.00004 -3540.9093 C -262.79277 -3540.9093 -261.81822 -3541.884 -261.81822 -3543.091 C -261.81822 -3544.2984 -262.79277 -3545.273 -264.00004 -3545.273 Z" stroke="black" stroke-linecap="round" stroke-linejoin="round" stroke-width=".6666665"/>
      </g>
    </g>
  </g>
</svg>
