<svg height="16" viewBox="-711.882 -3547.437 16 16" width="16" xmlns="http://www.w3.org/2000/svg"><path d="m-698.9448-3543.487h-9.88305c-.24269 0-.4382.1954-.4382.438 0 .0878.02695.1754.07415.243l4.8741 7.1863c.1618.2357.4854.2967.72136.1347.05394-.0336.10114-.081.13484-.1347l4.8808-7.1863c.1349-.2024.0809-.472-.1146-.607-.0741-.047-.155-.074-.2427-.074zm0-.6742c.2225 0 .4382.0672.62696.1887.50564.3505.64044 1.0382.29664 1.5505l-4.8741 7.1865c-.0877.1281-.1955.236-.3169.3169-.546.3706-1.2876.2292-1.6584-.3169l-4.8741-7.1865c-.1281-.182-.18876-.4044-.18876-.627 0-.6134.49886-1.1122 1.11236-1.1122z" fill="#fff"/></svg>