<svg height="16" viewBox="-710.956 -3547.546 16 16" width="16" xmlns="http://www.w3.org/2000/svg"><g fill="none"><path d="m-699.2511-3545.1085 1.8955 1.7692-8.7195 8.8458h-1.8955v-1.8955z" fill="#fff"/><path d="m-698.5733-3542.0642-1.2511-1.2511 1.2511 1.2511-7.5822 7.5822zm-9.4777 5.6866v1.8956zm8.8458-8.8458-7.5821 7.5821zm1.89556 1.8954-.73296-.733.73296.733-.89726.8973z" fill="#fff"/><path d="m-699.2052-3545.5394c-.0821 0-.1643.0316-.2211.0948l-8.8459 8.8459c-.05685.0567-.09476.139-.09476.2211v1.8956c0 .177.13901.316.31596.316h1.8955c.08215 0 .1643-.0317.22115-.095l8.84585-8.8458c.1264-.1262.1264-.3222 0-.4486l-1.8955-1.8956c-.0632-.063-.1454-.0947-.2212-.0947zm.6319 3.0264-1.447-1.4468.8151-.8152 1.44694 1.447zm-9.1618 7.715v-1.447l7.2662-7.266 1.44695 1.4468-7.26625 7.2662z" fill="#000"/></g></svg>