<svg xmlns="http://www.w3.org/2000/svg" viewBox="-573.112 -3508.985 16 16"><g fill="none"><path d="M-568.886-3505.651h-1.893a.33.33 0 0 1-.333-.334.33.33 0 0 1 .333-.333h2.667a.33.33 0 0 1 .333.333v2.667a.33.33 0 0 1-.333.333.33.33 0 0 1-.334-.333v-1.833c-1.246 1-2 2.52-2 4.166a5.332 5.332 0 0 0 5.334 5.334 5.332 5.332 0 0 0 5.333-5.334c0-2.946-2.213-5.166-5.02-5.326a.33.33 0 0 1-.313-.354.329.329 0 0 1 .346-.313 5.999 5.999 0 0 1 5.654 5.987c0 3.18-2.687 6-6 6-3.314 0-6-2.68-6-5.994 0-1.846.833-3.546 2.226-4.666z" fill="#fff"/><path d="M-568.886-3505.651h-1.893a.33.33 0 0 1-.333-.334.33.33 0 0 1 .333-.333h2.667a.33.33 0 0 1 .333.333v2.667a.33.33 0 0 1-.333.333.33.33 0 0 1-.334-.333v-1.833c-1.246 1-2 2.52-2 4.166a5.332 5.332 0 0 0 5.334 5.334 5.332 5.332 0 0 0 5.333-5.334c0-2.946-2.213-5.166-5.02-5.326a.33.33 0 0 1-.313-.354.329.329 0 0 1 .346-.313 5.999 5.999 0 0 1 5.654 5.987c0 3.18-2.687 6-6 6-3.314 0-6-2.68-6-5.994 0-1.846.833-3.546 2.226-4.666z" stroke="#fff" stroke-linejoin="round" stroke-width=".25"/></g></svg>