<?xml version="1.0" encoding="UTF-8" standalone="no"?>
<!DOCTYPE svg PUBLIC "-//W3C//DTD SVG 1.1//EN" "http://www.w3.org/Graphics/SVG/1.1/DTD/svg11.dtd">
<svg version="1.1" xmlns="http://www.w3.org/2000/svg" xmlns:xl="http://www.w3.org/1999/xlink" xmlns:dc="http://purl.org/dc/elements/1.1/" viewBox="-792.3821 -3507.4884 16.000008 16.000008" width="16.000008" height="16.000008">
  <defs/>
  <g id="SOURCES" stroke-dasharray="none" fill="none" stroke="none" fill-opacity="1" stroke-opacity="1">
    <title>SOURCES</title>
    <g id="SOURCES_Calque_2">
      <title>Calque 2</title>
      <g id="Graphic_9506">
        <path d="M -788.6678 -3497.774 L -790.3821 -3497.774 L -790.3821 -3493.4884 L -786.0964 -3493.4884 L -786.0964 -3495.2026 L -788.6678 -3495.2026 L -788.6678 -3497.774 Z M -790.3821 -3501.2026 L -788.6678 -3501.2026 L -788.6678 -3503.774 L -786.0964 -3503.774 L -786.0964 -3505.4884 L -790.3821 -3505.4884 L -790.3821 -3501.2026 Z M -780.0964 -3495.2026 L -782.6678 -3495.2026 L -782.6678 -3493.4884 L -778.3821 -3493.4884 L -778.3821 -3497.774 L -780.0964 -3497.774 L -780.0964 -3495.2026 Z M -782.6678 -3505.4884 L -782.6678 -3503.774 L -780.0964 -3503.774 L -780.0964 -3501.2026 L -778.3821 -3501.2026 L -778.3821 -3505.4884 L -782.6678 -3505.4884 Z" fill="white"/>
        <path d="M -788.6678 -3497.774 L -790.3821 -3497.774 L -790.3821 -3493.4884 L -786.0964 -3493.4884 L -786.0964 -3495.2026 L -788.6678 -3495.2026 L -788.6678 -3497.774 Z M -790.3821 -3501.2026 L -788.6678 -3501.2026 L -788.6678 -3503.774 L -786.0964 -3503.774 L -786.0964 -3505.4884 L -790.3821 -3505.4884 L -790.3821 -3501.2026 Z M -780.0964 -3495.2026 L -782.6678 -3495.2026 L -782.6678 -3493.4884 L -778.3821 -3493.4884 L -778.3821 -3497.774 L -780.0964 -3497.774 L -780.0964 -3495.2026 Z M -782.6678 -3505.4884 L -782.6678 -3503.774 L -780.0964 -3503.774 L -780.0964 -3501.2026 L -778.3821 -3501.2026 L -778.3821 -3505.4884 L -782.6678 -3505.4884 Z" stroke="black" stroke-linecap="round" stroke-linejoin="round" stroke-width=".5"/>
      </g>
      <g id="Graphic_9507"/>
    </g>
  </g>
</svg>
