<svg xmlns="http://www.w3.org/2000/svg" viewBox="-231.218 -3551.091 16.667 16"><g fill="none"><path d="M-222.885-3548.546c-3.636 0-6.741 2.262-8 5.455 1.259 3.193 4.364 5.454 8 5.454 3.637 0 6.742-2.261 8-5.454-1.258-3.193-4.363-5.455-8-5.455zm0 9.091a3.638 3.638 0 0 1-3.636-3.636 3.638 3.638 0 0 1 3.636-3.637 3.638 3.638 0 0 1 3.637 3.637 3.638 3.638 0 0 1-3.637 3.636zm0-5.818a2.179 2.179 0 0 0-2.181 2.182c0 1.207.974 2.182 2.181 2.182a2.179 2.179 0 0 0 2.182-2.182 2.179 2.179 0 0 0-2.182-2.182z" fill="#fff"/><path d="M-222.885-3548.546c-3.636 0-6.741 2.262-8 5.455 1.259 3.193 4.364 5.454 8 5.454 3.637 0 6.742-2.261 8-5.454-1.258-3.193-4.363-5.455-8-5.455zm0 9.091a3.638 3.638 0 0 1-3.636-3.636 3.638 3.638 0 0 1 3.636-3.637 3.638 3.638 0 0 1 3.637 3.637 3.638 3.638 0 0 1-3.637 3.636zm0-5.818a2.179 2.179 0 0 0-2.181 2.182c0 1.207.974 2.182 2.181 2.182a2.179 2.179 0 0 0 2.182-2.182 2.179 2.179 0 0 0-2.182-2.182z" stroke="#000" stroke-linecap="round" stroke-linejoin="round" stroke-width=".667"/><path d="m-217.978-3549.498 1.5 1.5-11.313 11.314-1.5-1.5z" fill="#fff"/><path d="m-217.978-3549.498 1.5 1.5-11.313 11.314-1.5-1.5z" stroke="#000" stroke-linecap="round" stroke-linejoin="round" stroke-width=".5"/></g></svg>