<?xml version="1.0" encoding="UTF-8" standalone="no"?>
<!DOCTYPE svg PUBLIC "-//W3C//DTD SVG 1.1//EN" "http://www.w3.org/Graphics/SVG/1.1/DTD/svg11.dtd">
<svg version="1.1" xmlns="http://www.w3.org/2000/svg" xmlns:xl="http://www.w3.org/1999/xlink" xmlns:dc="http://purl.org/dc/elements/1.1/" viewBox="-556.9838 -3586.5756 16.000008 16.000008" width="16.000008" height="16.000008">
  <defs/>
  <g id="SOURCES" stroke-dasharray="none" fill="none" stroke="none" fill-opacity="1" stroke-opacity="1">
    <title>SOURCES</title>
    <g id="SOURCES_Calque_2">
      <title>Calque 2</title>
      <g id="Group_9577">
        <g id="Graphic_9574"/>
        <g id="Group_9576">
          <g id="Graphic_9573">
            <path d="M -547.9578 -3583.513 L -547.9578 -3573.6298 C -547.9578 -3573.387 -547.8051 -3573.1916 -547.6156 -3573.1916 C -547.5471 -3573.1916 -547.4787 -3573.2186 -547.426 -3573.2657 L -541.81315 -3578.14 C -541.62886 -3578.3016 -541.5815 -3578.6252 -541.70784 -3578.861 C -541.7342 -3578.915 -541.771 -3578.9623 -541.81315 -3578.996 L -547.426 -3583.877 C -547.584 -3584.0117 -547.7946 -3583.9578 -547.8999 -3583.7623 C -547.93676 -3583.688 -547.9578 -3583.607 -547.9578 -3583.5196 Z M -548.48436 -3583.513 C -548.48436 -3583.7353 -548.4317 -3583.951 -548.3369 -3584.14 C -548.0631 -3584.6454 -547.52606 -3584.7802 -547.1259 -3584.4364 L -541.513 -3579.5623 C -541.413 -3579.4747 -541.32874 -3579.367 -541.26555 -3579.2455 C -540.97596 -3578.6994 -541.0865 -3577.958 -541.513 -3577.587 L -547.1259 -3572.713 C -547.26806 -3572.585 -547.4418 -3572.524 -547.6156 -3572.524 C -548.0947 -3572.524 -548.48436 -3573.023 -548.48436 -3573.6365 Z" fill="white"/>
          </g>
          <g id="Graphic_9575">
            <path d="M -550.00974 -3573.6383 L -550.00974 -3583.5214 C -550.00974 -3583.764 -550.16243 -3583.9596 -550.352 -3583.9596 C -550.42044 -3583.9596 -550.4889 -3583.9326 -550.54154 -3583.8854 L -556.1544 -3579.0113 C -556.3387 -3578.8495 -556.3861 -3578.526 -556.2597 -3578.29 C -556.2334 -3578.236 -556.19653 -3578.189 -556.1544 -3578.155 L -550.54154 -3573.2743 C -550.3836 -3573.1394 -550.17296 -3573.1934 -550.06766 -3573.389 C -550.0308 -3573.463 -550.00974 -3573.544 -550.00974 -3573.6316 Z M -549.4832 -3573.6383 C -549.4832 -3573.416 -549.53586 -3573.2 -549.6306 -3573.0114 C -549.9044 -3572.5057 -550.4415 -3572.371 -550.84166 -3572.7147 L -556.45454 -3577.589 C -556.5546 -3577.6765 -556.6388 -3577.7843 -556.702 -3577.9057 C -556.9916 -3578.4518 -556.881 -3579.1933 -556.45454 -3579.564 L -550.84166 -3584.438 C -550.6995 -3584.5663 -550.52574 -3584.627 -550.352 -3584.627 C -549.87284 -3584.627 -549.4832 -3584.128 -549.4832 -3583.5146 Z" fill="white"/>
          </g>
        </g>
      </g>
    </g>
  </g>
</svg>
