<svg height="16" viewBox="-272.333 -3551.091 16.667 16" width="16.667" xmlns="http://www.w3.org/2000/svg"><g fill="none"><path d="m-264.00004-3548.5457c-3.63636 0-6.74182 2.2617-8 5.4547 1.25818 3.1926 4.36364 5.4544 8 5.4544s6.74181-2.2618 8-5.4544c-1.25819-3.193-4.36364-5.4547-8-5.4547zm0 9.0909c-2.00726 0-3.63636-1.6292-3.63636-3.6362 0-2.0074 1.6291-3.6365 3.63636-3.6365 2.00727 0 3.63636 1.6291 3.63636 3.6365 0 2.007-1.62909 3.6362-3.63636 3.6362zm0-5.8182c-1.20726 0-2.18182.9746-2.18182 2.182 0 1.207.97456 2.1817 2.18182 2.1817 1.20727 0 2.18182-.9747 2.18182-2.1817 0-1.2074-.97455-2.182-2.18182-2.182z" fill="#fff"/><path d="m-264.00004-3548.5457c-3.63636 0-6.74182 2.2617-8 5.4547 1.25818 3.1926 4.36364 5.4544 8 5.4544s6.74181-2.2618 8-5.4544c-1.25819-3.193-4.36364-5.4547-8-5.4547zm0 9.0909c-2.00726 0-3.63636-1.6292-3.63636-3.6362 0-2.0074 1.6291-3.6365 3.63636-3.6365 2.00727 0 3.63636 1.6291 3.63636 3.6365 0 2.007-1.62909 3.6362-3.63636 3.6362zm0-5.8182c-1.20726 0-2.18182.9746-2.18182 2.182 0 1.207.97456 2.1817 2.18182 2.1817 1.20727 0 2.18182-.9747 2.18182-2.1817 0-1.2074-.97455-2.182-2.18182-2.182z" stroke="#000" stroke-linecap="round" stroke-linejoin="round" stroke-width=".667"/></g></svg>