<svg height="16" viewBox="-573.112 -3508.985 16 16" width="16" xmlns="http://www.w3.org/2000/svg"><g fill="none"><path d="m-568.88565-3505.6513h-1.89335c-.18665 0-.3333-.1467-.3333-.3334 0-.1866.14665-.3333.3333-.3333h2.6667c.18665 0 .3333.1467.3333.3333v2.6667c0 .1867-.14665.3333-.3333.3333-.1867 0-.33335-.1466-.33335-.3333v-1.8333c-1.24665 1-2 2.52-2 4.1666 0 2.9467 2.38665 5.3334 5.33335 5.3334 2.94665 0 5.3333-2.3867 5.3333-5.3334 0-2.9466-2.2133-5.1666-5.02-5.3266-.18665-.0134-.32665-.1667-.3133-.3534.0133-.1866.16665-.3266.34665-.3133 3.16665.18 5.65335 2.8067 5.65335 5.9867s-2.6867 6-6 6c-3.31335 0-6-2.68-6-5.9934 0-1.8466.8333-3.5466 2.22665-4.6666z" fill="#fff"/><path d="m-568.88565-3505.6513h-1.89335c-.18665 0-.3333-.1467-.3333-.3334 0-.1866.14665-.3333.3333-.3333h2.6667c.18665 0 .3333.1467.3333.3333v2.6667c0 .1867-.14665.3333-.3333.3333-.1867 0-.33335-.1466-.33335-.3333v-1.8333c-1.24665 1-2 2.52-2 4.1666 0 2.9467 2.38665 5.3334 5.33335 5.3334 2.94665 0 5.3333-2.3867 5.3333-5.3334 0-2.9466-2.2133-5.1666-5.02-5.3266-.18665-.0134-.32665-.1667-.3133-.3534.0133-.1866.16665-.3266.34665-.3133 3.16665.18 5.65335 2.8067 5.65335 5.9867s-2.6867 6-6 6c-3.31335 0-6-2.68-6-5.9934 0-1.8466.8333-3.5466 2.22665-4.6666z" stroke="#fff" stroke-linejoin="round" stroke-width=".25"/></g></svg>