<svg height="16" viewBox="-382.586 -3566.591 16 16" width="16" xmlns="http://www.w3.org/2000/svg"><path d="m-378.63656-3563.5286v9.883c0 .2426.1955.4382.4382.4382.08766 0 .17526-.027.24269-.0741l7.18645-4.8742c.23595-.1617.29662-.4853.13482-.7213-.0337-.054-.0809-.101-.13482-.135l-7.18645-4.8807c-.20223-.1348-.4719-.0809-.60673.1147-.0472.074-.07416.155-.07416.2426zm-.67414 0c0-.2224.0674-.4384.18875-.627.35055-.5054 1.03819-.6404 1.55055-.2966l7.18644 4.8742c.12809.0875.23596.1954.31686.3167.37078.5463.2292 1.2877-.31686 1.6583l-7.18644 4.8743c-.18202.128-.4045.1887-.62696.1887-.61348 0-1.11234-.499-1.11234-1.1123z" fill="#508035"/></svg>