<svg xmlns="http://www.w3.org/2000/svg" viewBox="-710.956 -3547.546 16 16"><g fill="none"><path d="m-699.251-3545.108 1.895 1.769-8.72 8.845h-1.895v-1.895z" fill="#fff"/><path d="m-698.573-3542.064-1.251-1.251 1.25 1.25-7.582 7.583zm-9.478 5.686v1.896zm8.846-8.845-7.582 7.582zm1.895 1.895-.733-.733.733.733-.897.897z" fill="#fff"/><path d="M-699.205-3545.54a.296.296 0 0 0-.221.095l-8.846 8.846a.321.321 0 0 0-.095.221v1.896c0 .177.139.316.316.316h1.896a.296.296 0 0 0 .22-.095l8.846-8.846a.313.313 0 0 0 0-.448l-1.895-1.896a.318.318 0 0 0-.221-.095zm.632 3.027-1.447-1.447.815-.815 1.447 1.447zm-9.162 7.715v-1.447l7.266-7.266 1.447 1.447-7.266 7.266z" fill="#000"/></g></svg>