<svg height="16" viewBox="-932.802 -3555.08 16 16" width="16" xmlns="http://www.w3.org/2000/svg"><g fill="none"><path d="M-929.278-3551.56h8.96v8.96h-8.96z" fill="#000"/><path d="M-929.278-3551.56h8.96v8.96h-8.96z" stroke="#000" stroke-linecap="round" stroke-linejoin="round" stroke-width=".5"/><path d="M-929.278-3551.56h2.986v2.987h-2.986z" fill="#fff"/><path d="M-929.278-3551.56h2.986v2.987h-2.986z" stroke="#000" stroke-linecap="round" stroke-linejoin="round" stroke-width=".5"/><path d="M-926.292-3551.56h2.987v2.987h-2.987z" fill="#fff"/><path d="M-926.292-3551.56h2.987v2.987h-2.987z" stroke="#000" stroke-linecap="round" stroke-linejoin="round" stroke-width=".5"/><path d="M-923.305-3551.56h2.987v2.987h-2.987z" fill="#fff"/><path d="M-923.305-3551.56h2.987v2.987h-2.987z" stroke="#000" stroke-linecap="round" stroke-linejoin="round" stroke-width=".5"/><path d="M-929.278-3548.573h2.986v2.986h-2.986z" fill="#fff"/><path d="M-929.278-3548.573h2.986v2.986h-2.986z" stroke="#000" stroke-linecap="round" stroke-linejoin="round" stroke-width=".5"/><path d="M-926.292-3548.573h2.987v2.986h-2.987z" fill="#fff"/><path d="M-926.292-3548.573h2.987v2.986h-2.987z" stroke="#000" stroke-linecap="round" stroke-linejoin="round" stroke-width=".5"/><path d="M-923.305-3548.573h2.987v2.986h-2.987z" fill="#fff"/><path d="M-923.305-3548.573h2.987v2.986h-2.987z" stroke="#000" stroke-linecap="round" stroke-linejoin="round" stroke-width=".5"/><path d="M-929.286-3545.595h2.987v2.987h-2.987z" fill="#fff"/><path d="M-929.286-3545.595h2.987v2.987h-2.987z" stroke="#000" stroke-linecap="round" stroke-linejoin="round" stroke-width=".5"/><path d="M-926.3-3545.595h2.987v2.987h-2.986z" fill="#fff"/><path d="M-926.3-3545.595h2.987v2.987h-2.986z" stroke="#000" stroke-linecap="round" stroke-linejoin="round" stroke-width=".5"/><path d="M-923.313-3545.595h2.987v2.987h-2.987z" fill="#fff"/><path d="M-923.313-3545.595h2.987v2.987h-2.987z" stroke="#000" stroke-linecap="round" stroke-linejoin="round" stroke-width=".5"/></g></svg>