<svg height="16" viewBox="-542.174 -3506.979 16 16" width="16" xmlns="http://www.w3.org/2000/svg"><g fill="none"><path d="M-537.947-3503.645h-1.894c-.187 0-.333-.147-.333-.333s.146-.334.333-.334h2.667a.33.33 0 0 1 .333.334v2.666a.33.33 0 0 1-.333.334.33.33 0 0 1-.334-.334v-1.833c-1.246 1-2 2.52-2 4.167a5.332 5.332 0 0 0 5.334 5.333c2.946 0 5.333-2.387 5.333-5.333s-2.213-5.167-5.02-5.327a.33.33 0 0 1-.313-.353.329.329 0 0 1 .346-.314c3.167.18 5.654 2.807 5.654 5.987s-2.687 6-6 6c-3.314 0-6-2.68-6-5.993 0-1.847.833-3.547 2.226-4.667z" fill="#4e8234"/><path d="M-537.947-3503.645h-1.894c-.187 0-.333-.147-.333-.333s.146-.334.333-.334h2.667a.33.33 0 0 1 .333.334v2.666a.33.33 0 0 1-.333.334.33.33 0 0 1-.334-.334v-1.833c-1.246 1-2 2.52-2 4.167a5.332 5.332 0 0 0 5.334 5.333c2.946 0 5.333-2.387 5.333-5.333s-2.213-5.167-5.02-5.327a.33.33 0 0 1-.313-.353.329.329 0 0 1 .346-.314c3.167.18 5.654 2.807 5.654 5.987s-2.687 6-6 6c-3.314 0-6-2.68-6-5.993 0-1.847.833-3.547 2.226-4.667z" stroke="#508034" stroke-linejoin="round" stroke-width=".25"/></g></svg>