<?xml version="1.0" encoding="UTF-8" standalone="no"?>
<!DOCTYPE svg PUBLIC "-//W3C//DTD SVG 1.1//EN" "http://www.w3.org/Graphics/SVG/1.1/DTD/svg11.dtd">
<svg version="1.1" xmlns="http://www.w3.org/2000/svg" xmlns:xl="http://www.w3.org/1999/xlink" xmlns:dc="http://purl.org/dc/elements/1.1/" viewBox="-231.21797 -3551.091 16.666662 16.000008" width="16.666662" height="16.000008">
  <defs/>
  <g id="SOURCES" stroke-dasharray="none" fill="none" stroke="none" fill-opacity="1" stroke-opacity="1">
    <title>SOURCES</title>
    <g id="SOURCES_Calque_2">
      <title>Calque 2</title>
      <g id="Group_9451">
        <g id="Graphic_9399"/>
        <g id="Graphic_9397">
          <title>views/tabs/view.inspector</title>
          <path d="M -222.88464 -3548.5457 C -226.521 -3548.5457 -229.62646 -3546.284 -230.88464 -3543.091 C -229.62646 -3539.8984 -226.521 -3537.6366 -222.88464 -3537.6366 C -219.24828 -3537.6366 -216.14283 -3539.8984 -214.88465 -3543.091 C -216.14283 -3546.284 -219.24828 -3548.5457 -222.88464 -3548.5457 Z M -222.88464 -3539.4548 C -224.89192 -3539.4548 -226.521 -3541.084 -226.521 -3543.091 C -226.521 -3545.0984 -224.89192 -3546.7275 -222.88464 -3546.7275 C -220.87737 -3546.7275 -219.24828 -3545.0984 -219.24828 -3543.091 C -219.24828 -3541.084 -220.87737 -3539.4548 -222.88464 -3539.4548 Z M -222.88464 -3545.273 C -224.09192 -3545.273 -225.06646 -3544.2984 -225.06646 -3543.091 C -225.06646 -3541.884 -224.09192 -3540.9093 -222.88464 -3540.9093 C -221.67737 -3540.9093 -220.70283 -3541.884 -220.70283 -3543.091 C -220.70283 -3544.2984 -221.67737 -3545.273 -222.88464 -3545.273 Z" fill="white"/>
          <path d="M -222.88464 -3548.5457 C -226.521 -3548.5457 -229.62646 -3546.284 -230.88464 -3543.091 C -229.62646 -3539.8984 -226.521 -3537.6366 -222.88464 -3537.6366 C -219.24828 -3537.6366 -216.14283 -3539.8984 -214.88465 -3543.091 C -216.14283 -3546.284 -219.24828 -3548.5457 -222.88464 -3548.5457 Z M -222.88464 -3539.4548 C -224.89192 -3539.4548 -226.521 -3541.084 -226.521 -3543.091 C -226.521 -3545.0984 -224.89192 -3546.7275 -222.88464 -3546.7275 C -220.87737 -3546.7275 -219.24828 -3545.0984 -219.24828 -3543.091 C -219.24828 -3541.084 -220.87737 -3539.4548 -222.88464 -3539.4548 Z M -222.88464 -3545.273 C -224.09192 -3545.273 -225.06646 -3544.2984 -225.06646 -3543.091 C -225.06646 -3541.884 -224.09192 -3540.9093 -222.88464 -3540.9093 C -221.67737 -3540.9093 -220.70283 -3541.884 -220.70283 -3543.091 C -220.70283 -3544.2984 -221.67737 -3545.273 -222.88464 -3545.273 Z" stroke="black" stroke-linecap="round" stroke-linejoin="round" stroke-width=".6666665"/>
        </g>
        <g id="Graphic_9398">
          <path d="M -217.97806 -3549.4983 L -216.47752 -3547.9977 L -227.79123 -3536.684 L -229.29176 -3538.1846 Z" fill="white"/>
          <path d="M -217.97806 -3549.4983 L -216.47752 -3547.9977 L -227.79123 -3536.684 L -229.29176 -3538.1846 Z" stroke="black" stroke-linecap="round" stroke-linejoin="round" stroke-width=".5"/>
        </g>
      </g>
    </g>
  </g>
</svg>
