<svg height="16" viewBox="-272.333 -3551.091 16.667 16" width="16.667" xmlns="http://www.w3.org/2000/svg"><g fill="none"><path d="M-264-3548.546c-3.636 0-6.742 2.262-8 5.455 1.258 3.193 4.364 5.454 8 5.454s6.742-2.261 8-5.454c-1.258-3.193-4.364-5.455-8-5.455zm0 9.091a3.638 3.638 0 0 1-3.636-3.636 3.638 3.638 0 0 1 3.636-3.636 3.638 3.638 0 0 1 3.636 3.636 3.638 3.638 0 0 1-3.636 3.636zm0-5.818a2.179 2.179 0 0 0-2.182 2.182c0 1.207.975 2.182 2.182 2.182a2.179 2.179 0 0 0 2.182-2.182 2.179 2.179 0 0 0-2.182-2.182z" fill="#fff"/><path d="M-264-3548.546c-3.636 0-6.742 2.262-8 5.455 1.258 3.193 4.364 5.454 8 5.454s6.742-2.261 8-5.454c-1.258-3.193-4.364-5.455-8-5.455zm0 9.091a3.638 3.638 0 0 1-3.636-3.636 3.638 3.638 0 0 1 3.636-3.636 3.638 3.638 0 0 1 3.636 3.636 3.638 3.638 0 0 1-3.636 3.636zm0-5.818a2.179 2.179 0 0 0-2.182 2.182c0 1.207.975 2.182 2.182 2.182a2.179 2.179 0 0 0 2.182-2.182 2.179 2.179 0 0 0-2.182-2.182z" stroke="#000" stroke-linecap="round" stroke-linejoin="round" stroke-width=".667"/></g></svg>