<?xml version="1.0" encoding="UTF-8" standalone="no"?>
<!DOCTYPE svg PUBLIC "-//W3C//DTD SVG 1.1//EN" "http://www.w3.org/Graphics/SVG/1.1/DTD/svg11.dtd">
<svg version="1.1" xmlns="http://www.w3.org/2000/svg" xmlns:xl="http://www.w3.org/1999/xlink" xmlns:dc="http://purl.org/dc/elements/1.1/" viewBox="-511.84094 -3553.361 16.000008 16.000008" width="16.000008" height="16.000008">
  <defs/>
  <g id="SOURCES" stroke-dasharray="none" fill="none" stroke="none" fill-opacity="1" stroke-opacity="1">
    <title>SOURCES</title>
    <g id="SOURCES_Calque_2">
      <title>Calque 2</title>
      <g id="Graphic_9540"/>
      <g id="Group_9538">
        <title>plus</title>
        <g id="Graphic_9539">
          <path d="M -503.3794 -3545.8225 L -498.3025 -3545.8225 C -498.044 -3545.8225 -497.84094 -3545.6194 -497.84094 -3545.361 C -497.84094 -3545.1025 -498.044 -3544.8994 -498.3025 -3544.8994 L -503.3794 -3544.8994 L -503.3794 -3539.8225 C -503.3794 -3539.564 -503.5825 -3539.361 -503.84094 -3539.361 C -504.0994 -3539.361 -504.3025 -3539.564 -504.3025 -3539.8225 L -504.3025 -3544.8994 L -509.3794 -3544.8994 C -509.63786 -3544.8994 -509.84094 -3545.1025 -509.84094 -3545.361 C -509.84094 -3545.6194 -509.63786 -3545.8225 -509.3794 -3545.8225 L -504.3025 -3545.8225 L -504.3025 -3550.8994 C -504.3025 -3551.158 -504.0994 -3551.361 -503.84094 -3551.361 C -503.5825 -3551.361 -503.3794 -3551.158 -503.3794 -3550.8994 Z" fill="white"/>
        </g>
      </g>
    </g>
  </g>
</svg>
