<svg height="16" viewBox="-353.592 -3548.546 16 16" width="16" xmlns="http://www.w3.org/2000/svg"><path d="m-349.64235-3545.483v9.883c0 .243.1955.4383.4382.4383.08765 0 .17528-.027.24269-.0743l7.18646-4.874c.23594-.1618.2966-.4854.1348-.7213-.0337-.0539-.0809-.1011-.1348-.1347l-7.18646-4.881c-.20224-.135-.4719-.081-.60674.1146-.0472.0742-.07415.1551-.07415.2427zm-.67415 0c0-.2224.0674-.438.18876-.627.35054-.5055 1.03819-.6403 1.55054-.2965l7.18645 4.8741c.12809.0876.23595.1954.31685.3168.3708.5461.2292 1.2876-.31685 1.6586l-7.18645 4.874c-.182.128-.4045.1887-.62695.1887-.61348 0-1.11235-.4987-1.11235-1.1123z" fill="#fff"/></svg>