<svg height="16" viewBox="-556.984 -3586.576 16 16" width="16" xmlns="http://www.w3.org/2000/svg"><g fill="#fff"><path d="m-547.9578-3583.513v9.8832c0 .2428.1527.4382.3422.4382.0685 0 .1369-.027.1896-.0741l5.61285-4.8743c.18429-.1616.23165-.4852.10531-.721-.02636-.054-.06316-.1013-.10531-.135l-5.61285-4.881c-.158-.1347-.3686-.0808-.4739.1147-.03686.0743-.0579.1553-.0579.2427zm-.52656 0c0-.2223.05266-.438.14746-.627.2738-.5054.81084-.6402 1.211-.2964l5.6129 4.8741c.1.0876.18426.1953.24745.3168.28959.5461.17905 1.2875-.24745 1.6585l-5.6129 4.874c-.14216.128-.3159.189-.4897.189-.4791 0-.86876-.499-.86876-1.1125z"/><path d="m-550.00974-3573.6383v-9.8831c0-.2426-.15269-.4382-.34226-.4382-.06844 0-.1369.027-.18954.0742l-5.61286 4.8741c-.1843.1618-.2317.4853-.1053.7213.0263.054.06317.101.1053.135l5.61286 4.8807c.15794.1349.36858.0809.47388-.1147.03686-.074.05792-.155.05792-.2426zm.52654 0c0 .2223-.05266.4383-.1474.6269-.2738.5057-.8109.6404-1.21106.2967l-5.61288-4.8743c-.10006-.0875-.18426-.1953-.24746-.3167-.2896-.5461-.179-1.2876.24746-1.6583l5.61288-4.874c.14216-.1283.31592-.189.48966-.189.47916 0 .8688.499.8688 1.1124z"/></g></svg>