<?xml version="1.0" encoding="UTF-8" standalone="no"?>
<!DOCTYPE svg PUBLIC "-//W3C//DTD SVG 1.1//EN" "http://www.w3.org/Graphics/SVG/1.1/DTD/svg11.dtd">
<svg version="1.1" xmlns="http://www.w3.org/2000/svg" xmlns:xl="http://www.w3.org/1999/xlink" xmlns:dc="http://purl.org/dc/elements/1.1/" viewBox="-597.6698 -3580.794 16.000008 16.000008" width="16.000008" height="16.000008">
  <defs/>
  <g id="SOURCES" stroke-dasharray="none" fill="none" stroke="none" fill-opacity="1" stroke-opacity="1">
    <title>SOURCES</title>
    <g id="SOURCES_Calque_2">
      <title>Calque 2</title>
      <g id="Group_9583">
        <g id="Graphic_9582"/>
        <g id="Graphic_9581">
          <path d="M -588.6439 -3577.7313 L -588.6439 -3567.8482 C -588.6439 -3567.6055 -588.4912 -3567.41 -588.3016 -3567.41 C -588.2332 -3567.41 -588.1647 -3567.437 -588.1121 -3567.484 L -582.4992 -3572.3583 C -582.3149 -3572.52 -582.2675 -3572.8437 -582.3939 -3573.0796 C -582.4202 -3573.1336 -582.4571 -3573.1808 -582.4992 -3573.2145 L -588.1121 -3578.0953 C -588.27 -3578.23 -588.48064 -3578.1762 -588.58595 -3577.9807 C -588.6228 -3577.9066 -588.6439 -3577.8257 -588.6439 -3577.738 Z M -589.1704 -3577.7313 C -589.1704 -3577.9537 -589.11775 -3578.1695 -589.023 -3578.3582 C -588.7492 -3578.864 -588.2121 -3578.9987 -587.81194 -3578.655 L -582.1991 -3573.7808 C -582.099 -3573.693 -582.0148 -3573.5853 -581.9516 -3573.464 C -581.662 -3572.918 -581.7726 -3572.1763 -582.1991 -3571.8055 L -587.81194 -3566.9314 C -587.9541 -3566.8033 -588.12786 -3566.7426 -588.3016 -3566.7426 C -588.7808 -3566.7426 -589.1704 -3567.2415 -589.1704 -3567.855 Z" fill="#4e8135"/>
        </g>
        <g id="Graphic_9580">
          <path d="M -590.6958 -3567.8568 L -590.6958 -3577.74 C -590.6958 -3577.9825 -590.8485 -3578.178 -591.038 -3578.178 C -591.1065 -3578.178 -591.1749 -3578.151 -591.2276 -3578.104 L -596.84046 -3573.2297 C -597.02474 -3573.068 -597.0721 -3572.7444 -596.94576 -3572.5084 C -596.91944 -3572.4545 -596.8826 -3572.4073 -596.84046 -3572.3736 L -591.2276 -3567.4927 C -591.0696 -3567.358 -590.859 -3567.412 -590.7537 -3567.6073 C -590.71685 -3567.6815 -590.6958 -3567.7624 -590.6958 -3567.85 Z M -590.16925 -3567.8568 C -590.16925 -3567.6343 -590.2219 -3567.4186 -590.3167 -3567.23 C -590.5905 -3566.724 -591.12754 -3566.5894 -591.5277 -3566.933 L -597.1406 -3571.8073 C -597.2406 -3571.895 -597.3249 -3572.003 -597.38805 -3572.124 C -597.67765 -3572.67 -597.5671 -3573.4118 -597.1406 -3573.7825 L -591.5277 -3578.6567 C -591.38555 -3578.7847 -591.2118 -3578.8454 -591.038 -3578.8454 C -590.5589 -3578.8454 -590.16925 -3578.3465 -590.16925 -3577.733 Z" fill="#4e8135"/>
        </g>
      </g>
    </g>
  </g>
</svg>
