<?xml version="1.0" encoding="UTF-8" standalone="no"?>
<!DOCTYPE svg PUBLIC "-//W3C//DTD SVG 1.1//EN" "http://www.w3.org/Graphics/SVG/1.1/DTD/svg11.dtd">
<svg version="1.1" xmlns="http://www.w3.org/2000/svg" xmlns:xl="http://www.w3.org/1999/xlink" xmlns:dc="http://purl.org/dc/elements/1.1/" viewBox="-753.0141 -3503.6866 16.500009 16.500011" width="16.500009" height="16.500011">
  <defs/>
  <g id="SOURCES" stroke-dasharray="none" fill="none" stroke="none" fill-opacity="1" stroke-opacity="1">
    <title>SOURCES</title>
    <g id="SOURCES_Calque_2">
      <title>Calque 2</title>
      <g id="Graphic_9446">
        <path d="M -739.1073 -3501.0934 C -742.2315 -3504.2176 -747.2968 -3504.2176 -750.421 -3501.0934 C -753.5452 -3497.9692 -753.5452 -3492.904 -750.421 -3489.7797 C -747.2968 -3486.6555 -742.2315 -3486.6555 -739.1073 -3489.7797 C -735.9831 -3492.904 -735.9831 -3497.9692 -739.1073 -3501.0934 M -742.17844 -3500.2925 L -749.6201 -3492.851 C -750.7285 -3494.9307 -750.4062 -3497.5727 -748.6532 -3499.3257 C -746.9002 -3501.0787 -744.2583 -3501.401 -742.17844 -3500.2925 Z M -747.3498 -3490.5806 L -739.9082 -3498.0223 C -738.79975 -3495.9424 -739.122 -3493.3005 -740.875 -3491.5475 C -742.628 -3489.7945 -745.27 -3489.472 -747.3498 -3490.5806 Z" fill="white"/>
        <path d="M -739.1073 -3501.0934 C -742.2315 -3504.2176 -747.2968 -3504.2176 -750.421 -3501.0934 C -753.5452 -3497.9692 -753.5452 -3492.904 -750.421 -3489.7797 C -747.2968 -3486.6555 -742.2315 -3486.6555 -739.1073 -3489.7797 C -735.9831 -3492.904 -735.9831 -3497.9692 -739.1073 -3501.0934 M -742.17844 -3500.2925 L -749.6201 -3492.851 C -750.7285 -3494.9307 -750.4062 -3497.5727 -748.6532 -3499.3257 C -746.9002 -3501.0787 -744.2583 -3501.401 -742.17844 -3500.2925 Z M -747.3498 -3490.5806 L -739.9082 -3498.0223 C -738.79975 -3495.9424 -739.122 -3493.3005 -740.875 -3491.5475 C -742.628 -3489.7945 -745.27 -3489.472 -747.3498 -3490.5806 Z" stroke="black" stroke-linecap="round" stroke-linejoin="round" stroke-width=".5"/>
      </g>
    </g>
  </g>
</svg>
