<svg xmlns="http://www.w3.org/2000/svg" viewBox="-556.984 -3586.576 16 16"><path d="M-547.958-3583.513v9.883c0 .243.153.438.342.438a.288.288 0 0 0 .19-.074l5.613-4.874c.184-.162.231-.485.105-.721a.396.396 0 0 0-.105-.135l-5.613-4.881c-.158-.135-.369-.08-.474.115a.54.54 0 0 0-.058.242zm-.526 0a1.4 1.4 0 0 1 .147-.627c.274-.505.81-.64 1.211-.296l5.613 4.874c.1.087.184.195.247.316.29.547.18 1.288-.247 1.659l-5.613 4.874a.726.726 0 0 1-.49.189c-.479 0-.868-.499-.868-1.113zm-1.526 9.875v-9.883c0-.243-.152-.439-.342-.439a.287.287 0 0 0-.19.075l-5.612 4.874c-.185.162-.232.485-.106.721a.399.399 0 0 0 .106.135l5.612 4.88c.158.136.369.082.474-.114a.539.539 0 0 0 .058-.243zm.527 0c0 .222-.053.438-.148.627-.273.505-.81.64-1.21.296l-5.614-4.874a1.088 1.088 0 0 1-.247-.317c-.29-.546-.179-1.287.247-1.658l5.613-4.874a.725.725 0 0 1 .49-.189c.48 0 .869.499.869 1.112z" fill="#fff"/></svg>