<svg height="16" viewBox="-712 -3508.142 16 16" width="16" xmlns="http://www.w3.org/2000/svg"><g fill="none"><path d="m-708.2857-3498.4274h-1.7143v4.2857h4.2857v-1.7143h-2.5714zm-1.7143-3.4286h1.7143v-2.5714h2.5714v-1.7143h-4.2857zm10.2857 6h-2.5714v1.7143h4.2857v-4.2857h-1.7143zm-2.5714-10.2857v1.7143h2.5714v2.5714h1.7143v-4.2857z" fill="#fff"/><path d="m-708.2857-3498.4274h-1.7143v4.2857h4.2857v-1.7143h-2.5714zm-1.7143-3.4286h1.7143v-2.5714h2.5714v-1.7143h-4.2857zm10.2857 6h-2.5714v1.7143h4.2857v-4.2857h-1.7143zm-2.5714-10.2857v1.7143h2.5714v2.5714h1.7143v-4.2857z" stroke="#000" stroke-linecap="round" stroke-linejoin="round" stroke-width=".5"/><path d="m-699.0934-3506.549 1.5005 1.5007-11.3137 11.3137-1.5005-1.5004z" fill="#fff"/><path d="m-699.0934-3506.549 1.5005 1.5007-11.3137 11.3137-1.5005-1.5004z" stroke="#000" stroke-linecap="round" stroke-linejoin="round" stroke-width=".5"/></g></svg>