<svg height="16.5" viewBox="-753.014 -3503.687 16.5 16.5" width="16.5" xmlns="http://www.w3.org/2000/svg"><g fill="none"><path d="m-739.1073-3501.0934c-3.1242-3.1242-8.1895-3.1242-11.3137 0s-3.1242 8.1894 0 11.3137c3.1242 3.1242 8.1895 3.1242 11.3137 0 3.1242-3.1243 3.1242-8.1895 0-11.3137m-3.07114.8009-7.44166 7.4415c-1.1084-2.0797-.7861-4.7217.9669-6.4747s4.3949-2.0753 6.47476-.9668zm-5.17136 9.7119 7.4416-7.4417c1.10845 2.0799.7862 4.7218-.9668 6.4748s-4.395 2.0755-6.4748.9669z" fill="#fff"/><path d="m-739.1073-3501.0934c-3.1242-3.1242-8.1895-3.1242-11.3137 0s-3.1242 8.1894 0 11.3137c3.1242 3.1242 8.1895 3.1242 11.3137 0 3.1242-3.1243 3.1242-8.1895 0-11.3137m-3.07114.8009-7.44166 7.4415c-1.1084-2.0797-.7861-4.7217.9669-6.4747s4.3949-2.0753 6.47476-.9668zm-5.17136 9.7119 7.4416-7.4417c1.10845 2.0799.7862 4.7218-.9668 6.4748s-4.395 2.0755-6.4748.9669z" stroke="#000" stroke-linecap="round" stroke-linejoin="round" stroke-width=".5"/></g></svg>