<svg height="16.5" viewBox="-753.014 -3503.687 16.5 16.5" width="16.5" xmlns="http://www.w3.org/2000/svg"><g fill="none"><path d="M-739.107-3501.093a8 8 0 1 0-11.314 11.313 8 8 0 0 0 11.314-11.313m-3.071.8l-7.442 7.442a5.502 5.502 0 0 1 7.442-7.442zm-5.172 9.712l7.442-7.441a5.502 5.502 0 0 1-7.442 7.441z" fill="#fff"/><path d="M-739.107-3501.093a8 8 0 1 0-11.314 11.313 8 8 0 0 0 11.314-11.313m-3.071.8l-7.442 7.442a5.502 5.502 0 0 1 7.442-7.442zm-5.172 9.712l7.442-7.441a5.502 5.502 0 0 1-7.442 7.441z" stroke="#000" stroke-linecap="round" stroke-linejoin="round" stroke-width=".5"/></g></svg>