<svg viewBox="-712 -3508.142 16 16" xmlns="http://www.w3.org/2000/svg"><g fill="none"><path d="M-708.286-3498.427H-710v4.285h4.286v-1.714h-2.572zm-1.714-3.429h1.714v-2.571h2.572v-1.715H-710zm10.286 6h-2.572v1.714H-698v-4.285h-1.714zm-2.572-10.286v1.715h2.572v2.571H-698v-4.286z" fill="#fff"/><path d="M-708.286-3498.427H-710v4.285h4.286v-1.714h-2.572zm-1.714-3.429h1.714v-2.571h2.572v-1.715H-710zm10.286 6h-2.572v1.714H-698v-4.285h-1.714zm-2.572-10.286v1.715h2.572v2.571H-698v-4.286z" stroke="#000" stroke-linecap="round" stroke-linejoin="round" stroke-width=".5"/><path d="M-699.093-3506.549l1.5 1.5-11.314 11.314-1.5-1.5z" fill="#fff"/><path d="M-699.093-3506.549l1.5 1.5-11.314 11.314-1.5-1.5z" stroke="#000" stroke-linecap="round" stroke-linejoin="round" stroke-width=".5"/></g></svg>