<svg height="24.75" viewBox="-50.671 -3211.58 24.75 24.75" width="24.75" xmlns="http://www.w3.org/2000/svg"><g fill="none"><circle cx="-38.296" cy="-3199.205" fill="#fff" r="8"/><circle cx="-38.296" cy="-3199.205" r="8"/><path d="m-38.296043-3191.205c-4.416 0-7.999997-3.584-7.999997-8s3.583997-8 7.999997-8 8 3.584 8 8-3.584 8-8 8zm0-.8c3.976 0 7.2-3.224 7.2-7.2s-3.224-7.2-7.2-7.2-7.2 3.224-7.2 7.2 3.224 7.2 7.2 7.2zm3.032-5.528c.176.128.224.376.096.56-.128.176-.376.224-.56.096l-2.8-2c-.072-.056-.128-.128-.152-.224l-1.2-4.4c-.056-.216.064-.432.28-.488s.432.064.488.28l1.16 4.264 2.688 1.92z" fill="#5c75a1"/></g></svg>