<svg xmlns="http://www.w3.org/2000/svg" viewBox="-50.671 -3211.58 24.75 24.75"><g fill="none"><circle cx="-38.296" cy="-3199.205" r="8" fill="#fff"/><circle cx="-38.296" cy="-3199.205" r="8"/><path d="M-38.296-3191.205c-4.416 0-8-3.584-8-8s3.584-8 8-8 8 3.584 8 8-3.584 8-8 8zm0-.8a7.2 7.2 0 1 0-.001-14.401 7.2 7.2 0 0 0 .001 14.401zm3.032-5.528a.406.406 0 0 1 .096.56.406.406 0 0 1-.56.096l-2.8-2a.404.404 0 0 1-.152-.224l-1.2-4.4a.394.394 0 0 1 .28-.488.394.394 0 0 1 .488.28l1.16 4.264 2.688 1.92z" fill="#5c75a1"/></g></svg>