<svg height="16.751" viewBox="-830.872 -3501.737 16.75 16.751" width="16.75" xmlns="http://www.w3.org/2000/svg"><g fill="none"><path d="M-830.497-3501.361h16v16h-16z"/><path d="M-826.657-3500.481l4.96-.16 3.36-.16 3.2 3.2-.16 11.68h-11.36z" fill="#666566"/><path d="M-814.498-3497.739v10.378a2 2 0 0 1-2 2h-8.8a2 2 0 0 1-2-2v-12a2 2 0 0 1 2-2h7.178a.392.392 0 0 1 .305.117l3.2 3.2a.391.391 0 0 1 .117.305zm-4-2.822h-6.8a1.2 1.2 0 0 0-1.2 1.2v12a1.2 1.2 0 0 0 1.2 1.2h8.8a1.2 1.2 0 0 0 1.2-1.2v-10h-2.8a.4.4 0 0 1-.4-.4zm.8.566v1.834h1.834z" fill="#fff"/><path d="M-818.903-3488.343v-.97h-3.47v-2.14h2.96v-.96h-2.96v-2.08h3.47v-.97h-4.55v7.12z" fill="#c0e0ff"/></g></svg>