<svg height="16.751" viewBox="-858.872 -3501.737 16.75 16.751" width="16.75" xmlns="http://www.w3.org/2000/svg"><g fill="none"><path d="m-858.497-3501.361h16v15.999997h-16z"/><path d="m-854.6574-3500.794 4.96-.16 3.36-.16 3.2 3.2-.16 11.68h-11.36z" fill="#666566"/><path d="m-842.4978-3497.7386v10.3776c0 1.1046-.8954 2-2 2h-8.8c-1.1045 0-2-.8954-2-2v-12c0-1.1046.8955-2 2-2h7.1776c.1062-.0067.2168.0287.3053.117l3.2 3.2c.0885.0886.1239.199.1171.3054zm-4-2.8224h-6.8c-.6627 0-1.2.5373-1.2 1.2v12c0 .6627.5373 1.2 1.2 1.2h8.8c.6628 0 1.2-.5373 1.2-1.2v-10h-2.8c-.2209 0-.4-.179-.4-.4zm.8.5657v1.8343h1.8343zm-6.4 9.0333h1.6v-.8h-1.6zm0 .8v.4c0 .221.1791.4.4.4h1.2v-.8zm6.4111-.8v-.8h-4.0111v.8zm0 .8h-4.0111v.8h3.6111c.2209 0 .4-.179.4-.4zm-6.4111-2.4h1.6v-.8h-1.2c-.2209 0-.4.1793-.4.4zm6.4111 0v-.4c0-.2207-.1791-.4-.4-.4h-3.6111v.8zm-7.2111-.4c0-.6626.5373-1.2 1.2-1.2h5.6111c.6628 0 1.2.5374 1.2 1.2v3.2c0 .663-.5372 1.2-1.2 1.2h-5.6111c-.6627 0-1.2-.537-1.2-1.2z" fill="#fff"/></g></svg>