<svg height="17.188" viewBox="-887.121 -3502.049 17.125 17.188" width="17.125" xmlns="http://www.w3.org/2000/svg"><g fill="none"><path d="M-886.497-3501.361h16v16h-16z" stroke="#fff" stroke-linecap="round" stroke-linejoin="round" stroke-width=".25"/><path d="M-883.137-3496.706l2.24-1.76h2.72l2.4 2.24 2.88.8 1.12 3.04-2.88 2.56h-8.8l-1.76-1.76v-2.08l2.08-.8z" fill="#666"/><path d="M-879.547-3487.722v-6.235a.4.4 0 0 1 .8 0v6.234l1.718-1.717a.4.4 0 1 1 .565.566l-2.4 2.4a.4.4 0 0 1-.565 0l-2.4-2.4a.4.4 0 0 1 .565-.566zm3.796-9.035h.604a3.6 3.6 0 0 1 0 7.2.4.4 0 1 1 0-.8 2.8 2.8 0 1 0 0-5.6h-.421c.014.131.021.265.021.4a.4.4 0 1 1-.8 0 2.8 2.8 0 0 0-2.8-2.8h-.4a3.2 3.2 0 0 0-3.2 3.2v.4a.4.4 0 0 1-.4.4 2 2 0 0 0 0 4 .4.4 0 0 1 0 .8 2.8 2.8 0 0 1-.4-5.572c0-2.237 1.791-4.028 4-4.028h.4a3.602 3.602 0 0 1 3.396 2.4z" fill="#fff"/><path d="M-886.746-3501.674h16v16h-16z"/></g></svg>