<?xml version="1.0" encoding="UTF-8" standalone="no"?>
<!DOCTYPE svg PUBLIC "-//W3C//DTD SVG 1.1//EN" "http://www.w3.org/Graphics/SVG/1.1/DTD/svg11.dtd">
<svg xmlns="http://www.w3.org/2000/svg" version="1.1" xmlns:xl="http://www.w3.org/1999/xlink" xmlns:dc="http://purl.org/dc/elements/1.1/" viewBox="-802.872 -3501.737 16.749997 16.7508" width="16.749997" height="16.7508">
  <defs/>
  <g id="SOURCES" stroke-opacity="1" stroke-dasharray="none" fill="none" fill-opacity="1" stroke="none">
    <title>SOURCES</title>
    <g id="SOURCES_Dark">
      <title>Dark</title>
      <g id="Graphic_11635">
        <rect x="-802.497" y="-3501.361" width="15.999997" height="15.999997" stroke="gray" stroke-opacity="0" stroke-linecap="round" stroke-linejoin="round" stroke-width="0"/>
      </g>
      <g id="Graphic_11634">
        <path d="M -798.6574 -3500.4814 L -793.6974 -3500.6414 L -790.3374 -3500.8014 L -787.1374 -3497.6014 L -787.2974 -3485.9214 L -798.6574 -3485.9214 Z" fill="#666566"/>
      </g>
      <g id="Graphic_11633">
        <path d="M -786.4978 -3497.7386 L -786.4978 -3487.361 C -786.4978 -3486.2564 -787.3932 -3485.361 -788.4978 -3485.361 L -797.2978 -3485.361 C -798.4023 -3485.361 -799.2978 -3486.2564 -799.2978 -3487.361 L -799.2978 -3499.361 C -799.2978 -3500.4656 -798.4023 -3501.361 -797.2978 -3501.361 L -790.1202 -3501.361 C -790.014 -3501.3677 -789.9034 -3501.3323 -789.8149 -3501.244 L -786.6149 -3498.044 C -786.52645 -3497.9554 -786.491 -3497.845 -786.4978 -3497.7386 Z M -790.4978 -3500.561 L -797.2978 -3500.561 C -797.9605 -3500.561 -798.4978 -3500.0237 -798.4978 -3499.361 L -798.4978 -3487.361 C -798.4978 -3486.6983 -797.9605 -3486.161 -797.2978 -3486.161 L -788.4978 -3486.161 C -787.835 -3486.161 -787.2978 -3486.6983 -787.2978 -3487.361 L -787.2978 -3497.361 L -790.0978 -3497.361 C -790.3187 -3497.361 -790.4978 -3497.54 -790.4978 -3497.761 Z M -789.6978 -3499.9953 L -789.6978 -3498.161 L -787.8635 -3498.161 Z" fill="white"/>
      </g>
      <g id="Graphic_11632">
        <path d="M -796.8554 -3492.0187 L -796.8554 -3492.7132 L -793.4301 -3494.156 L -793.4301 -3493.239 L -795.4934 -3492.356 L -793.4301 -3491.4995 L -793.4301 -3490.5757 Z" fill="#8eed62"/>
      </g>
      <g id="Graphic_11631">
        <path d="M -792.3647 -3490.5757 L -792.3647 -3491.4995 L -790.3014 -3492.356 L -792.3647 -3493.239 L -792.3647 -3494.156 L -788.9393 -3492.7132 L -788.9393 -3492.0187 Z" fill="#8eed62"/>
      </g>
    </g>
  </g>
</svg>
