<svg height="16.751" viewBox="-746.872 -3501.737 16.75 16.751" width="16.75" xmlns="http://www.w3.org/2000/svg"><g fill="none"><path d="m-746.4969-3501.361h15.999997v15.999997h-15.999997z"/><path d="m-742.6573-3500.4814 4.96-.16 3.36-.16 3.2 3.2-.16 11.68h-11.36z" fill="#666566"/><path d="m-730.4977-3497.7386v10.3776c0 1.1046-.8955 2-2 2h-8.8c-1.1046 0-2-.8954-2-2v-12c0-1.1046.8954-2 2-2h7.1776c.1062-.0067.2167.0287.3052.117l3.2 3.2c.0885.0886.1239.199.1172.3054zm-4-2.8224h-6.8c-.6628 0-1.2.5373-1.2 1.2v12c0 .6627.5372 1.2 1.2 1.2h8.8c.6627 0 1.2-.5373 1.2-1.2v-10h-2.8c-.22095 0-.4-.179-.4-.4zm.8.5657v1.8343h1.8343z" fill="#fff"/><path d="m-734.4898-3491.266v-1.09h-2.6v.92h1.52v.4c0 .46-.09.82-.35 1.12-.28.33-.7.51-1.17.51-.43 0-.79-.16-1.06-.44-.35-.38-.42-.81-.42-2.22s.07-1.84.42-2.22c.27-.28.63-.44 1.06-.44.8 0 1.32.46 1.5 1.24h1.08c-.19-1.21-1.08-2.2-2.58-2.2-.78 0-1.38.26-1.84.72-.69.7-.72 1.41-.72 2.9s.03 2.2.72 2.9c.46.46 1.06.72 1.84.72.75 0 1.43-.25 1.96-.81.47-.51.64-1.08.64-2.01z" fill="#c0e0ff"/></g></svg>