<?xml version="1.0" encoding="UTF-8" standalone="no"?>
<!DOCTYPE svg PUBLIC "-//W3C//DTD SVG 1.1//EN" "http://www.w3.org/Graphics/SVG/1.1/DTD/svg11.dtd">
<svg xmlns="http://www.w3.org/2000/svg" xmlns:xl="http://www.w3.org/1999/xlink" version="1.1" xmlns:dc="http://purl.org/dc/elements/1.1/" viewBox="-662.9969 -3501.861 16.999997 16.999997" width="16.999997" height="16.999997">
  <defs/>
  <g id="SOURCES" stroke-opacity="1" fill="none" stroke="none" fill-opacity="1" stroke-dasharray="none">
    <title>SOURCES</title>
    <g id="SOURCES_Dark">
      <title>Dark</title>
      <g id="Graphic_11648">
        <rect x="-662.4969" y="-3501.361" width="15.999997" height="15.999997" stroke="gray" stroke-opacity="0" stroke-linecap="round" stroke-linejoin="round" stroke-width=".25"/>
      </g>
      <g id="Graphic_11647">
        <path d="M -658.6573 -3500.4814 L -653.6973 -3500.6414 L -650.3373 -3500.8014 L -647.13734 -3497.6014 L -647.29734 -3485.9214 L -658.6573 -3485.9214 Z" fill="#666566"/>
      </g>
      <g id="Graphic_11646">
        <path d="M -646.49774 -3497.7386 L -646.49774 -3487.361 C -646.49774 -3486.2564 -647.3932 -3485.361 -648.49774 -3485.361 L -657.2977 -3485.361 C -658.4023 -3485.361 -659.2977 -3486.2564 -659.2977 -3487.361 L -659.2977 -3499.361 C -659.2977 -3500.4656 -658.4023 -3501.361 -657.2977 -3501.361 L -650.1201 -3501.361 C -650.0139 -3501.3677 -649.9034 -3501.3323 -649.8149 -3501.244 L -646.6149 -3498.044 C -646.5264 -3497.9554 -646.491 -3497.845 -646.49774 -3497.7386 Z M -650.49774 -3500.561 L -657.2977 -3500.561 C -657.9605 -3500.561 -658.4977 -3500.0237 -658.4977 -3499.361 L -658.4977 -3487.361 C -658.4977 -3486.6983 -657.9605 -3486.161 -657.2977 -3486.161 L -648.49774 -3486.161 C -647.835 -3486.161 -647.29774 -3486.6983 -647.29774 -3487.361 L -647.29774 -3497.361 L -650.09774 -3497.361 C -650.31865 -3497.361 -650.49774 -3497.54 -650.49774 -3497.761 Z M -649.69774 -3499.9953 L -649.69774 -3498.161 L -647.8634 -3498.161 Z" fill="white"/>
      </g>
      <g id="Graphic_11645">
        <path d="M -651.01746 -3491.838 L -652.6302 -3491.838 C -652.7823 -3491.838 -652.9056 -3491.715 -652.9056 -3491.563 L -652.9056 -3490.2254 C -652.9056 -3490.0734 -653.0289 -3489.95 -653.1809 -3489.95 L -653.2596 -3489.95 C -653.4117 -3489.95 -653.53496 -3490.0734 -653.53496 -3490.2254 L -653.53496 -3491.563 C -653.53496 -3491.715 -653.6582 -3491.838 -653.8103 -3491.838 L -655.1477 -3491.838 C -655.2998 -3491.838 -655.4231 -3491.9615 -655.4231 -3492.1135 L -655.4231 -3492.1922 C -655.4231 -3492.3443 -655.2998 -3492.4676 -655.1477 -3492.4676 L -653.8103 -3492.4676 C -653.6582 -3492.4676 -653.53496 -3492.591 -653.53496 -3492.743 L -653.53496 -3494.0803 C -653.53496 -3494.2324 -653.4117 -3494.3557 -653.2596 -3494.3557 L -653.1809 -3494.3557 C -653.0289 -3494.3557 -652.9056 -3494.2324 -652.9056 -3494.0803 L -652.9056 -3492.743 C -652.9056 -3492.591 -652.7823 -3492.4676 -652.6302 -3492.4676 L -651.2928 -3492.4676 C -651.1407 -3492.4676 -651.01746 -3492.3443 -651.01746 -3492.1922 L -651.01746 -3491.838 Z" fill="white"/>
        <path d="M -651.01746 -3491.838 L -652.6302 -3491.838 C -652.7823 -3491.838 -652.9056 -3491.715 -652.9056 -3491.563 L -652.9056 -3490.2254 C -652.9056 -3490.0734 -653.0289 -3489.95 -653.1809 -3489.95 L -653.2596 -3489.95 C -653.4117 -3489.95 -653.53496 -3490.0734 -653.53496 -3490.2254 L -653.53496 -3491.563 C -653.53496 -3491.715 -653.6582 -3491.838 -653.8103 -3491.838 L -655.1477 -3491.838 C -655.2998 -3491.838 -655.4231 -3491.9615 -655.4231 -3492.1135 L -655.4231 -3492.1922 C -655.4231 -3492.3443 -655.2998 -3492.4676 -655.1477 -3492.4676 L -653.8103 -3492.4676 C -653.6582 -3492.4676 -653.53496 -3492.591 -653.53496 -3492.743 L -653.53496 -3494.0803 C -653.53496 -3494.2324 -653.4117 -3494.3557 -653.2596 -3494.3557 L -653.1809 -3494.3557 C -653.0289 -3494.3557 -652.9056 -3494.2324 -652.9056 -3494.0803 L -652.9056 -3492.743 C -652.9056 -3492.591 -652.7823 -3492.4676 -652.6302 -3492.4676 L -651.2928 -3492.4676 C -651.1407 -3492.4676 -651.01746 -3492.3443 -651.01746 -3492.1922 L -651.01746 -3491.838 Z" stroke="white" stroke-linecap="round" stroke-linejoin="round" stroke-width=".5"/>
      </g>
    </g>
  </g>
</svg>
