<svg height="16.7508" viewBox="-483.60803 -3499.526 16.749997 16.7508" width="16.749997" xmlns="http://www.w3.org/2000/svg"><g fill="none"><path d="m-483.23303-3499.1504h15.999997v15.999997h-15.999997z"/><path d="m-479.39343-3498.2708 4.96-.16 3.36-.16 3.2 3.2-.16 11.68h-11.36z" fill="#666566"/><path d="m-467.23384-3495.528v10.3776c0 1.1044-.89543 2-2 2h-8.79999c-1.10457 0-2-.8956-2-2v-12c0-1.1046.89543-2 2-2h7.17763c.1062-.0066.2167.0287.3052.1172l3.2 3.2c.0885.0885.1239.1992.11716.3052zm-3.99999-2.8224h-6.8c-.66277 0-1.2.5374-1.2 1.2v12c0 .6628.53723 1.2 1.2 1.2h8.79999c.66274 0 1.2-.5372 1.2-1.2v-10h-2.79999c-.22092 0-.4-.1791-.4-.4zm.8.5657v1.8343h1.83433z" fill="#fff"/><g fill="#dead26"><path d="m-477.5915-3489.808v-.6946l3.4254-1.4429v.917l-2.06333.8835 2.06333.856v.924z"/><path d="m-473.10075-3488.365v-.924l2.06332-.856-2.06332-.8835v-.917l3.42535 1.4429v.6946z"/></g></g></svg>