<?xml version="1.0" encoding="UTF-8" standalone="no"?>
<!DOCTYPE svg PUBLIC "-//W3C//DTD SVG 1.1//EN" "http://www.w3.org/Graphics/SVG/1.1/DTD/svg11.dtd">
<svg xmlns="http://www.w3.org/2000/svg" version="1.1" xmlns:xl="http://www.w3.org/1999/xlink" xmlns:dc="http://purl.org/dc/elements/1.1/" viewBox="-858.872 -3501.737 16.75 16.7508" width="16.75" height="16.7508">
  <defs/>
  <g id="SOURCES" stroke-opacity="1" stroke-dasharray="none" fill="none" fill-opacity="1" stroke="none">
    <title>SOURCES</title>
    <g id="SOURCES_Dark">
      <title>Dark</title>
      <g id="Graphic_11639">
        <rect x="-858.497" y="-3501.361" width="16" height="15.999997" stroke="gray" stroke-opacity="0" stroke-linecap="round" stroke-linejoin="round" stroke-width="0"/>
      </g>
      <g id="Graphic_11638">
        <path d="M -854.6574 -3500.794 L -849.6974 -3500.954 L -846.3374 -3501.114 L -843.1374 -3497.914 L -843.2974 -3486.234 L -854.6574 -3486.234 Z" fill="#666566"/>
      </g>
      <g id="Graphic_11637">
        <path d="M -842.4978 -3497.7386 L -842.4978 -3487.361 C -842.4978 -3486.2564 -843.3932 -3485.361 -844.4978 -3485.361 L -853.2978 -3485.361 C -854.4023 -3485.361 -855.2978 -3486.2564 -855.2978 -3487.361 L -855.2978 -3499.361 C -855.2978 -3500.4656 -854.4023 -3501.361 -853.2978 -3501.361 L -846.1202 -3501.361 C -846.014 -3501.3677 -845.9034 -3501.3323 -845.8149 -3501.244 L -842.6149 -3498.044 C -842.5264 -3497.9554 -842.491 -3497.845 -842.4978 -3497.7386 Z M -846.4978 -3500.561 L -853.2978 -3500.561 C -853.9605 -3500.561 -854.4978 -3500.0237 -854.4978 -3499.361 L -854.4978 -3487.361 C -854.4978 -3486.6983 -853.9605 -3486.161 -853.2978 -3486.161 L -844.4978 -3486.161 C -843.835 -3486.161 -843.2978 -3486.6983 -843.2978 -3487.361 L -843.2978 -3497.361 L -846.0978 -3497.361 C -846.3187 -3497.361 -846.4978 -3497.54 -846.4978 -3497.761 Z M -845.6978 -3499.9953 L -845.6978 -3498.161 L -843.8635 -3498.161 Z M -852.0978 -3490.962 L -850.4978 -3490.962 L -850.4978 -3491.762 L -852.0978 -3491.762 Z M -852.0978 -3490.162 L -852.0978 -3489.762 C -852.0978 -3489.541 -851.9187 -3489.362 -851.6978 -3489.362 L -850.4978 -3489.362 L -850.4978 -3490.162 Z M -845.6867 -3490.962 L -845.6867 -3491.762 L -849.6978 -3491.762 L -849.6978 -3490.962 Z M -845.6867 -3490.162 L -849.6978 -3490.162 L -849.6978 -3489.362 L -846.0867 -3489.362 C -845.8658 -3489.362 -845.6867 -3489.541 -845.6867 -3489.762 Z M -852.0978 -3492.562 L -850.4978 -3492.562 L -850.4978 -3493.362 L -851.6978 -3493.362 C -851.9187 -3493.362 -852.0978 -3493.1827 -852.0978 -3492.962 Z M -845.6867 -3492.562 L -845.6867 -3492.962 C -845.6867 -3493.1827 -845.8658 -3493.362 -846.0867 -3493.362 L -849.6978 -3493.362 L -849.6978 -3492.562 Z M -852.8978 -3492.962 C -852.8978 -3493.6246 -852.3605 -3494.162 -851.6978 -3494.162 L -846.0867 -3494.162 C -845.4239 -3494.162 -844.8867 -3493.6246 -844.8867 -3492.962 L -844.8867 -3489.762 C -844.8867 -3489.099 -845.4239 -3488.562 -846.0867 -3488.562 L -851.6978 -3488.562 C -852.3605 -3488.562 -852.8978 -3489.099 -852.8978 -3489.762 Z" fill="white"/>
      </g>
    </g>
  </g>
</svg>
