<?xml version="1.0" encoding="UTF-8" standalone="no"?>
<!DOCTYPE svg PUBLIC "-//W3C//DTD SVG 1.1//EN" "http://www.w3.org/Graphics/SVG/1.1/DTD/svg11.dtd">
<svg xmlns="http://www.w3.org/2000/svg" version="1.1" xmlns:xl="http://www.w3.org/1999/xlink" xmlns:dc="http://purl.org/dc/elements/1.1/" viewBox="-830.872 -3501.737 16.749997 16.7508" width="16.749997" height="16.7508">
  <defs/>
  <g id="SOURCES" stroke-opacity="1" stroke-dasharray="none" fill="none" fill-opacity="1" stroke="none">
    <title>SOURCES</title>
    <g id="SOURCES_Dark">
      <title>Dark</title>
      <g id="Graphic_10976">
        <rect x="-830.497" y="-3501.361" width="15.999997" height="15.999997" stroke="gray" stroke-opacity="0" stroke-linecap="round" stroke-linejoin="round" stroke-width="0"/>
      </g>
      <g id="Graphic_10975">
        <path d="M -826.6574 -3500.4814 L -821.6974 -3500.6414 L -818.3374 -3500.8014 L -815.1374 -3497.6014 L -815.2974 -3485.9214 L -826.6574 -3485.9214 Z" fill="#666566"/>
      </g>
      <g id="Graphic_10974">
        <path d="M -814.4978 -3497.7386 L -814.4978 -3487.361 C -814.4978 -3486.2564 -815.3932 -3485.361 -816.4978 -3485.361 L -825.2978 -3485.361 C -826.4023 -3485.361 -827.2978 -3486.2564 -827.2978 -3487.361 L -827.2978 -3499.361 C -827.2978 -3500.4656 -826.4023 -3501.361 -825.2978 -3501.361 L -818.1202 -3501.361 C -818.014 -3501.3677 -817.9034 -3501.3323 -817.8149 -3501.244 L -814.6149 -3498.044 C -814.5264 -3497.9554 -814.491 -3497.845 -814.4978 -3497.7386 Z M -818.4978 -3500.561 L -825.2978 -3500.561 C -825.9605 -3500.561 -826.4978 -3500.0237 -826.4978 -3499.361 L -826.4978 -3487.361 C -826.4978 -3486.6983 -825.9605 -3486.161 -825.2978 -3486.161 L -816.4978 -3486.161 C -815.835 -3486.161 -815.2978 -3486.6983 -815.2978 -3487.361 L -815.2978 -3497.361 L -818.0978 -3497.361 C -818.3187 -3497.361 -818.4978 -3497.54 -818.4978 -3497.761 Z M -817.6978 -3499.9953 L -817.6978 -3498.161 L -815.8635 -3498.161 Z" fill="white"/>
      </g>
      <g id="Graphic_10972">
        <title>E</title>
        <path d="M -818.9032 -3488.343 L -818.9032 -3489.313 L -822.3732 -3489.313 L -822.3732 -3491.453 L -819.4132 -3491.453 L -819.4132 -3492.413 L -822.3732 -3492.413 L -822.3732 -3494.493 L -818.9032 -3494.493 L -818.9032 -3495.463 L -823.4532 -3495.463 L -823.4532 -3488.343 Z" fill="#c0e0ff"/>
      </g>
    </g>
  </g>
</svg>
