<svg height="17" viewBox="-634.997 -3501.862 17 17" width="17" xmlns="http://www.w3.org/2000/svg"><g fill="none"><path d="m-634.49694-3501.362h15.999997v15.999997h-15.999997z"/><path d="m-630.47996-3500.758 4.96-.16 3.36-.16 3.2 3.2-.16 11.68h-11.36z" fill="#666566"/><path d="m-618.49774-3497.7386v10.3776c0 1.1046-.89546 2-2 2h-8.8c-1.10456 0-2-.8954-2-2v-12c0-1.1046.89544-2 2-2h7.17764c.1062-.0067.2167.0287.3052.117l3.2 3.2c.0885.0886.1239.199.11716.3054zm-4-2.8224h-6.8c-.66276 0-1.2.5373-1.2 1.2v12c0 .6627.53724 1.2 1.2 1.2h8.8c.66274 0 1.2-.5373 1.2-1.2v-10h-2.8c-.22092 0-.4-.179-.4-.4zm.8.5657v1.8343h1.83434zm-6 5.0333c-.22092 0-.4-.179-.4-.4 0-.2207.17908-.4.4-.4h5.6c.22094 0 .4.1793.4.4 0 .221-.17906.4-.4.4zm0 2.4c-.22092 0-.4-.179-.4-.4 0-.2207.17908-.4.4-.4h5.6c.22094 0 .4.1793.4.4 0 .221-.17906.4-.4.4zm0 2.4c-.22092 0-.4-.179-.4-.4 0-.2207.17908-.4.4-.4h4c.22094 0 .4.1793.4.4 0 .221-.17906.4-.4.4z" fill="#fff"/></g></svg>