<svg height="16.751" viewBox="-802.872 -3501.737 16.75 16.751" width="16.75" xmlns="http://www.w3.org/2000/svg"><g fill="none"><path d="M-802.497-3501.361h16v16h-16z"/><path d="M-798.657-3500.481l4.96-.16 3.36-.16 3.2 3.2-.16 11.68h-11.36z" fill="#666566"/><path d="M-786.498-3497.739v10.378a2 2 0 0 1-2 2h-8.8a2 2 0 0 1-2-2v-12a2 2 0 0 1 2-2h7.178a.392.392 0 0 1 .305.117l3.2 3.2a.391.391 0 0 1 .117.305zm-4-2.822h-6.8a1.2 1.2 0 0 0-1.2 1.2v12a1.2 1.2 0 0 0 1.2 1.2h8.8a1.2 1.2 0 0 0 1.2-1.2v-10h-2.8a.4.4 0 0 1-.4-.4zm.8.566v1.834h1.834z" fill="#fff"/><g fill="#8eed62"><path d="M-796.855-3492.019v-.694l3.425-1.443v.917l-2.063.883 2.063.857v.923zm4.49 1.443v-.923l2.064-.857-2.064-.883v-.917l3.426 1.443v.694z"/></g></g></svg>