<svg height="16.875" viewBox="-774.872 -3501.799 16.75 16.875" width="16.75" xmlns="http://www.w3.org/2000/svg"><g fill="none"><path d="m-774.497-3501.4237h16.000047v16.000047h-16.000047z"/><path d="m-770.6574-3500.4196 4.96005-.16 3.36005-.16 3.2 3.2001-.16 11.68h-11.3601z" fill="#666566"/><path d="m-758.4977-3497.6768v10.3778c0 1.1045-.8955 2-2 2h-8.8001c-1.1045 0-2-.8955-2-2v-12c0-1.1047.8955-2 2-2h7.1777c.1062-.007.2167.0285.3052.117l3.2 3.2c.0885.0885.1239.199.1172.3052zm-4-2.8222h-6.8001c-.6627 0-1.2.537-1.2 1.2v12c0 .6626.5373 1.2 1.2 1.2h8.8001c.6627 0 1.2-.5374 1.2-1.2v-10h-2.8c-.22095 0-.4-.1792-.4-.4zm.8.5655v1.8345h1.8343zm.8 10.2255c.0001.006.0001.012-.0001.0178-.0052 1.1002-.8986 1.9902-1.9999 1.9902h-4.00005c-1.10455 0-2.00005-.8954-2.00005-2v-4c0-1.1045.8955-2 2.00005-2h4.00005c1.1045 0 2 .8955 2 2zm-.8-.639v-3.353c0-.6627-.5373-1.2-1.2-1.2h-4.00005c-.66275 0-1.20005.5373-1.20005 1.2v2.2344l.9172-.9172c.1562-.1562.4095-.1562.5657 0l2.1961 2.1962 1.3422-.6711c.1126-.0563.2451-.0563.3577 0zm-.0232.8827-1.1768-.5884-1.4212.7107c-.154.077-.33995.0467-.4617-.075l-2.11715-2.1172-1.20005 1.2v.6342c0 .663.5373 1.2 1.20005 1.2h4.00005c.58205 0 1.0673-.4144 1.1768-.9643zm-2.37685-3.8357v.8h.80005v-.8zm0-.8h.80005c.4418 0 .8.3582.8.8v.8c0 .442-.3582.8-.8.8h-.80005c-.44185 0-.8-.358-.8-.8v-.8c0-.4418.35815-.8.8-.8z" fill="#fff"/></g></svg>