<svg height="20.75" viewBox="-606.872 -3503.736 20.75 20.75" width="20.75" xmlns="http://www.w3.org/2000/svg"><g fill="none"><path d="m-605.49694-3498.4068 8.4-.4 2 2.8 7.6.6v11.2h-18z" fill="#666566"/><path d="m-603.9969-3498.3614c-.82846 0-1.5.6714-1.5 1.5v11c0 .8284.67154 1.5 1.5 1.5h15c.8284 0 1.5-.6716 1.5-1.5v-8c0-.8286-.6716-1.5-1.5-1.5h-5.5c-1.1046 0-2-.8956-2-2 0-.5523-.44775-1-1-1zm0-1h6.5c1.10454 0 2 .8954 2 2 0 .5524.4477 1 1 1h5.5c1.3807 0 2.5 1.1194 2.5 2.5v8c0 1.3807-1.1193 2.5-2.5 2.5h-15c-1.38074 0-2.5-1.1193-2.5-2.5v-11c0-1.3806 1.11926-2.5 2.5-2.5z" fill="#fff"/></g></svg>