<svg height="20.75" viewBox="-606.872 -3503.736 20.75 20.75" width="20.75" xmlns="http://www.w3.org/2000/svg"><g fill="none"><path d="M-605.497-3498.407l8.4-.4 2 2.8 7.6.6v11.2h-18z" fill="#666566"/><path d="M-603.997-3498.361a1.5 1.5 0 0 0-1.5 1.5v11a1.5 1.5 0 0 0 1.5 1.5h15a1.5 1.5 0 0 0 1.5-1.5v-8a1.5 1.5 0 0 0-1.5-1.5h-5.5a2 2 0 0 1-2-2 1 1 0 0 0-1-1zm0-1h6.5a2 2 0 0 1 2 2 1 1 0 0 0 1 1h5.5a2.5 2.5 0 0 1 2.5 2.5v8a2.5 2.5 0 0 1-2.5 2.5h-15a2.5 2.5 0 0 1-2.5-2.5v-11a2.5 2.5 0 0 1 2.5-2.5z" fill="#fff"/></g></svg>