<svg height="21.125" viewBox="-447.788 -3507.803 21.125 21.125" width="21.125" xmlns="http://www.w3.org/2000/svg"><g fill="none"><path d="M-447.288-3507.178h20v20h-20z"/><path d="M-427.288-3504.661h-1.613a.275.275 0 0 0-.275.275v1.338a.275.275 0 0 1-.276.275h-.078a.275.275 0 0 1-.276-.275v-1.338a.275.275 0 0 0-.275-.275h-1.337a.275.275 0 0 1-.276-.275v-.079c0-.152.124-.275.276-.275h1.337a.275.275 0 0 0 .275-.276v-1.337c0-.152.124-.276.276-.276h.078c.152 0 .276.124.276.276v1.337c0 .152.123.276.275.276h1.338c.152 0 .275.123.275.275z" fill="#999"/><path d="M-427.288-3504.661h-1.613a.275.275 0 0 0-.275.275v1.338a.275.275 0 0 1-.276.275h-.078a.275.275 0 0 1-.276-.275v-1.338a.275.275 0 0 0-.275-.275h-1.337a.275.275 0 0 1-.276-.275v-.079c0-.152.124-.275.276-.275h1.337a.275.275 0 0 0 .275-.276v-1.337c0-.152.124-.276.276-.276h.078c.152 0 .276.124.276.276v1.337c0 .152.123.276.275.276h1.338c.152 0 .275.123.275.275z" stroke="#999" stroke-linecap="round" stroke-linejoin="round" stroke-width=".5"/><path d="M-446.573-3500.65l4.34-.14 2.94-.14 2.8 2.8-.14 10.219h-9.94z" fill="#fff"/><path d="M-436.089-3498.008v9.08a1.75 1.75 0 0 1-1.75 1.75h-7.7a1.75 1.75 0 0 1-1.75-1.75v-10.5c0-.966.784-1.75 1.75-1.75h6.28a.343.343 0 0 1 .268.103l2.8 2.8a.342.342 0 0 1 .102.267zm-3.5-2.47h-5.95c-.58 0-1.05.47-1.05 1.05v10.5c0 .58.47 1.05 1.05 1.05h7.7c.58 0 1.05-.47 1.05-1.05v-8.75h-2.45a.35.35 0 0 1-.35-.35zm.7.495v1.605h1.605zm-5.25 4.404a.35.35 0 1 1 0-.7h4.9a.35.35 0 0 1 0 .7zm0 2.1a.35.35 0 1 1 0-.7h4.9a.35.35 0 0 1 0 .7zm0 2.1a.35.35 0 1 1 0-.7h3.5a.35.35 0 1 1 0 .7z" fill="#999"/></g></svg>