<svg height="21.455" viewBox="-383.788 -3508.031 21.125 21.455" width="21.125" xmlns="http://www.w3.org/2000/svg"><g fill="none"><path d="m-383.28814-3507.406h20v20h-20z"/><path d="m-363.28814-3504.8884h-1.61276c-.1521 0-.27537.1234-.27537.2754v1.3373c0 .1521-.12327.2754-.27533.2754h-.0787c-.15206 0-.27534-.1233-.27534-.2754v-1.3373c0-.152-.12326-.2754-.27536-.2754h-1.3374c-.1521 0-.27536-.1233-.27536-.2756v-.0785c0-.152.12326-.2755.27536-.2755h1.3374c.1521 0 .27536-.123.27536-.275v-1.3376c0-.1521.12328-.2754.27534-.2754h.0787c.15206 0 .27533.1233.27533.2754v1.3376c0 .152.12327.275.27537.275h1.3374c.1521 0 .27536.1235.27536.2755z" fill="#999"/><path d="m-363.28814-3504.8884h-1.61276c-.1521 0-.27537.1234-.27537.2754v1.3373c0 .1521-.12327.2754-.27533.2754h-.0787c-.15206 0-.27534-.1233-.27534-.2754v-1.3373c0-.152-.12326-.2754-.27536-.2754h-1.3374c-.1521 0-.27536-.1233-.27536-.2756v-.0785c0-.152.12326-.2755.27536-.2755h1.3374c.1521 0 .27536-.123.27536-.275v-1.3376c0-.1521.12328-.2754.27534-.2754h.0787c.15206 0 .27533.1233.27533.2754v1.3376c0 .152.12327.275.27537.275h1.3374c.1521 0 .27536.1235.27536.2755z" stroke="#999" stroke-linecap="round" stroke-linejoin="round" stroke-width=".5"/><path d="m-380.6213-3496.071 5.0338-.2395 1.1985 1.6779 4.5544.3596v6.7117h-10.7867z" fill="#fff"/><path d="m-382.7302-3498.0662 5.0338-.2398 1.1985 1.678 4.5544.3595v6.7118h-10.7867z" fill="#fff"/><g fill="#999"><path d="m-371.9022-3494.7907v-.5993c0-.4963-.40245-.8988-.8989-.8988h-3.2959c-.66194 0-1.19854-.5366-1.19854-1.1985 0-.331-.2683-.5993-.59926-.5993h-3.8952c-.49643 0-.8989.4026-.8989.8989v6.5917c0 .4966.40247.899.8989.899h.59927c.49643 0 .89889-.4024.89889-.899v-2.996c0-.8275.67074-1.4983 1.49814-1.4983h5.9926c.33728 0 .6485.1113.8989.2996zm0 1.1987c0-.4966-.40245-.899-.8989-.899h-5.9926c-.49643 0-.8989.4024-.8989.899v2.996c0 .3375-.11143.6487-.2995.899h7.191c.49645 0 .8989-.4024.8989-.899zm-9.8878-5.094h3.8952c.66192 0 1.1985.5368 1.1985 1.1987 0 .331.2683.5993.5993.5993h3.2959c.8274 0 1.49816.6707 1.49816 1.498v4.794c0 .8276-.67076 1.4983-1.49816 1.4983h-8.9889c-.8274 0-1.49814-.6707-1.49814-1.4983v-6.5917c0-.8273.67074-1.4983 1.49814-1.4983z"/><path d="m-375.80816-3488.854c.05496.0644.13661.105.22779.105.09117 0 .17283-.0406.22777-.105zm-5.46518 0v.4048c0 .8272.67074 1.4982 1.49814 1.4982h8.9889c.8274 0 1.49816-.671 1.49816-1.4982v-4.7941c0-.8274-.67076-1.4982-1.49816-1.4982h-.23847v.5993h.23847c.49645 0 .8989.4024.8989.8989v4.7941c0 .4962-.40245.8988-.8989.8988h-8.9889c-.49644 0-.8989-.4026-.8989-.8988v-.4048z"/></g></g></svg>