<?xml version="1.0" encoding="UTF-8" standalone="no"?>
<!DOCTYPE svg PUBLIC "-//W3C//DTD SVG 1.1//EN" "http://www.w3.org/Graphics/SVG/1.1/DTD/svg11.dtd">
<svg xmlns="http://www.w3.org/2000/svg" xmlns:xl="http://www.w3.org/1999/xlink" version="1.1" xmlns:dc="http://purl.org/dc/elements/1.1/" viewBox="-415.78814 -3507.8035 21.125 21.125" width="21.125" height="21.125">
  <defs/>
  <g id="SOURCES" stroke-opacity="1" fill="none" stroke="none" fill-opacity="1" stroke-dasharray="none">
    <title>SOURCES</title>
    <g id="SOURCES_New">
      <title>New</title>
      <g id="Group_10591">
        <g id="Group_10595">
          <g id="Group_10585">
            <g id="Graphic_10587">
              <rect x="-415.28814" y="-3507.1785" width="20" height="20" stroke="gray" stroke-opacity="0" stroke-linecap="round" stroke-linejoin="round" stroke-width=".25"/>
            </g>
            <g id="Graphic_10586">
              <path d="M -395.28814 -3504.661 L -396.9009 -3504.661 C -397.053 -3504.661 -397.17627 -3504.5377 -397.17627 -3504.3857 L -397.17627 -3503.0482 C -397.17627 -3502.896 -397.29954 -3502.773 -397.4516 -3502.773 L -397.5303 -3502.773 C -397.68236 -3502.773 -397.80564 -3502.896 -397.80564 -3503.0482 L -397.80564 -3504.3857 C -397.80564 -3504.5377 -397.9289 -3504.661 -398.081 -3504.661 L -399.4184 -3504.661 C -399.5705 -3504.661 -399.69376 -3504.7843 -399.69376 -3504.9364 L -399.69376 -3505.015 C -399.69376 -3505.167 -399.5705 -3505.2904 -399.4184 -3505.2904 L -398.081 -3505.2904 C -397.9289 -3505.2904 -397.80564 -3505.4137 -397.80564 -3505.5657 L -397.80564 -3506.903 C -397.80564 -3507.0552 -397.68236 -3507.1785 -397.5303 -3507.1785 L -397.4516 -3507.1785 C -397.29954 -3507.1785 -397.17627 -3507.0552 -397.17627 -3506.903 L -397.17627 -3505.5657 C -397.17627 -3505.4137 -397.053 -3505.2904 -396.9009 -3505.2904 L -395.5635 -3505.2904 C -395.4114 -3505.2904 -395.28814 -3505.167 -395.28814 -3505.015 L -395.28814 -3504.661 Z" fill="#999"/>
              <path d="M -395.28814 -3504.661 L -396.9009 -3504.661 C -397.053 -3504.661 -397.17627 -3504.5377 -397.17627 -3504.3857 L -397.17627 -3503.0482 C -397.17627 -3502.896 -397.29954 -3502.773 -397.4516 -3502.773 L -397.5303 -3502.773 C -397.68236 -3502.773 -397.80564 -3502.896 -397.80564 -3503.0482 L -397.80564 -3504.3857 C -397.80564 -3504.5377 -397.9289 -3504.661 -398.081 -3504.661 L -399.4184 -3504.661 C -399.5705 -3504.661 -399.69376 -3504.7843 -399.69376 -3504.9364 L -399.69376 -3505.015 C -399.69376 -3505.167 -399.5705 -3505.2904 -399.4184 -3505.2904 L -398.081 -3505.2904 C -397.9289 -3505.2904 -397.80564 -3505.4137 -397.80564 -3505.5657 L -397.80564 -3506.903 C -397.80564 -3507.0552 -397.68236 -3507.1785 -397.5303 -3507.1785 L -397.4516 -3507.1785 C -397.29954 -3507.1785 -397.17627 -3507.0552 -397.17627 -3506.903 L -397.17627 -3505.5657 C -397.17627 -3505.4137 -397.053 -3505.2904 -396.9009 -3505.2904 L -395.5635 -3505.2904 C -395.4114 -3505.2904 -395.28814 -3505.167 -395.28814 -3505.015 L -395.28814 -3504.661 Z" stroke="#999" stroke-linecap="round" stroke-linejoin="round" stroke-width=".5"/>
            </g>
          </g>
          <g id="Group_10551">
            <g id="Graphic_10553">
              <path d="M -414.58815 -3497.7103 L -408.70815 -3497.9903 L -407.30815 -3496.0303 L -401.98815 -3495.6103 L -401.98815 -3487.7703 L -414.58815 -3487.7703 Z" fill="white"/>
            </g>
            <g id="Graphic_10552">
              <path d="M -413.53814 -3497.6785 C -414.11804 -3497.6785 -414.58814 -3497.2084 -414.58814 -3496.6285 L -414.58814 -3488.9285 C -414.58814 -3488.3486 -414.11804 -3487.8785 -413.53814 -3487.8785 L -403.03814 -3487.8785 C -402.45824 -3487.8785 -401.98814 -3488.3486 -401.98814 -3488.9285 L -401.98814 -3494.5285 C -401.98814 -3495.1084 -402.45824 -3495.5785 -403.03814 -3495.5785 L -406.88814 -3495.5785 C -407.66134 -3495.5785 -408.28814 -3496.2053 -408.28814 -3496.9785 C -408.28814 -3497.365 -408.60154 -3497.6785 -408.98814 -3497.6785 Z M -413.53814 -3498.3785 L -408.98814 -3498.3785 C -408.21494 -3498.3785 -407.58814 -3497.7517 -407.58814 -3496.9785 C -407.58814 -3496.592 -407.27474 -3496.2785 -406.88814 -3496.2785 L -403.03814 -3496.2785 C -402.07164 -3496.2785 -401.28814 -3495.495 -401.28814 -3494.5285 L -401.28814 -3488.9285 C -401.28814 -3487.962 -402.07164 -3487.1785 -403.03814 -3487.1785 L -413.53814 -3487.1785 C -414.50464 -3487.1785 -415.28814 -3487.962 -415.28814 -3488.9285 L -415.28814 -3496.6285 C -415.28814 -3497.595 -414.50464 -3498.3785 -413.53814 -3498.3785 Z" fill="#999"/>
            </g>
          </g>
        </g>
      </g>
    </g>
  </g>
</svg>
