<?xml version="1.0" encoding="UTF-8" standalone="no"?>
<!DOCTYPE svg PUBLIC "-//W3C//DTD SVG 1.1//EN" "http://www.w3.org/Graphics/SVG/1.1/DTD/svg11.dtd">
<svg xmlns="http://www.w3.org/2000/svg" xmlns:xl="http://www.w3.org/1999/xlink" version="1.1" xmlns:dc="http://purl.org/dc/elements/1.1/" viewBox="-383.78814 -3508.031 21.125 21.454852" width="21.125" height="21.454852">
  <defs/>
  <g id="SOURCES" stroke-opacity="1" fill="none" stroke="none" fill-opacity="1" stroke-dasharray="none">
    <title>SOURCES</title>
    <g id="SOURCES_New">
      <title>New</title>
      <g id="Group_10596">
        <g id="Group_10588">
          <g id="Graphic_10590">
            <rect x="-383.28814" y="-3507.406" width="20" height="20" stroke="gray" stroke-opacity="0" stroke-linecap="round" stroke-linejoin="round" stroke-width=".25"/>
          </g>
          <g id="Graphic_10589">
            <path d="M -363.28814 -3504.8884 L -364.9009 -3504.8884 C -365.053 -3504.8884 -365.17627 -3504.765 -365.17627 -3504.613 L -365.17627 -3503.2757 C -365.17627 -3503.1236 -365.29954 -3503.0003 -365.4516 -3503.0003 L -365.5303 -3503.0003 C -365.68236 -3503.0003 -365.80564 -3503.1236 -365.80564 -3503.2757 L -365.80564 -3504.613 C -365.80564 -3504.765 -365.9289 -3504.8884 -366.081 -3504.8884 L -367.4184 -3504.8884 C -367.5705 -3504.8884 -367.69376 -3505.0117 -367.69376 -3505.164 L -367.69376 -3505.2425 C -367.69376 -3505.3945 -367.5705 -3505.518 -367.4184 -3505.518 L -366.081 -3505.518 C -365.9289 -3505.518 -365.80564 -3505.641 -365.80564 -3505.793 L -365.80564 -3507.1306 C -365.80564 -3507.2827 -365.68236 -3507.406 -365.5303 -3507.406 L -365.4516 -3507.406 C -365.29954 -3507.406 -365.17627 -3507.2827 -365.17627 -3507.1306 L -365.17627 -3505.793 C -365.17627 -3505.641 -365.053 -3505.518 -364.9009 -3505.518 L -363.5635 -3505.518 C -363.4114 -3505.518 -363.28814 -3505.3945 -363.28814 -3505.2425 L -363.28814 -3504.8884 Z" fill="#999"/>
            <path d="M -363.28814 -3504.8884 L -364.9009 -3504.8884 C -365.053 -3504.8884 -365.17627 -3504.765 -365.17627 -3504.613 L -365.17627 -3503.2757 C -365.17627 -3503.1236 -365.29954 -3503.0003 -365.4516 -3503.0003 L -365.5303 -3503.0003 C -365.68236 -3503.0003 -365.80564 -3503.1236 -365.80564 -3503.2757 L -365.80564 -3504.613 C -365.80564 -3504.765 -365.9289 -3504.8884 -366.081 -3504.8884 L -367.4184 -3504.8884 C -367.5705 -3504.8884 -367.69376 -3505.0117 -367.69376 -3505.164 L -367.69376 -3505.2425 C -367.69376 -3505.3945 -367.5705 -3505.518 -367.4184 -3505.518 L -366.081 -3505.518 C -365.9289 -3505.518 -365.80564 -3505.641 -365.80564 -3505.793 L -365.80564 -3507.1306 C -365.80564 -3507.2827 -365.68236 -3507.406 -365.5303 -3507.406 L -365.4516 -3507.406 C -365.29954 -3507.406 -365.17627 -3507.2827 -365.17627 -3507.1306 L -365.17627 -3505.793 C -365.17627 -3505.641 -365.053 -3505.518 -364.9009 -3505.518 L -363.5635 -3505.518 C -363.4114 -3505.518 -363.28814 -3505.3945 -363.28814 -3505.2425 L -363.28814 -3504.8884 Z" stroke="#999" stroke-linecap="round" stroke-linejoin="round" stroke-width=".5"/>
          </g>
        </g>
        <g id="Group_10555">
          <g id="Graphic_10560">
            <path d="M -380.6213 -3496.071 L -375.5875 -3496.3105 L -374.389 -3494.6326 L -369.8346 -3494.273 L -369.8346 -3487.5613 L -380.6213 -3487.5613 Z" fill="white"/>
          </g>
          <g id="Graphic_10559">
            <path d="M -382.7302 -3498.0662 L -377.6964 -3498.306 L -376.4979 -3496.628 L -371.9435 -3496.2685 L -371.9435 -3489.5567 L -382.7302 -3489.5567 Z" fill="white"/>
          </g>
          <g id="Group_10556">
            <g id="Graphic_10558">
              <path d="M -371.9022 -3494.7907 L -371.9022 -3495.39 C -371.9022 -3495.8863 -372.30465 -3496.2888 -372.8011 -3496.2888 L -376.097 -3496.2888 C -376.75894 -3496.2888 -377.29554 -3496.8254 -377.29554 -3497.4873 C -377.29554 -3497.8183 -377.56384 -3498.0866 -377.8948 -3498.0866 L -381.79 -3498.0866 C -382.28643 -3498.0866 -382.6889 -3497.684 -382.6889 -3497.1877 L -382.6889 -3490.596 C -382.6889 -3490.0994 -382.28643 -3489.697 -381.79 -3489.697 L -381.19073 -3489.697 C -380.6943 -3489.697 -380.29184 -3490.0994 -380.29184 -3490.596 L -380.29184 -3493.592 C -380.29184 -3494.4195 -379.6211 -3495.0903 -378.7937 -3495.0903 L -372.8011 -3495.0903 C -372.46382 -3495.0903 -372.1526 -3494.979 -371.9022 -3494.7907 Z M -371.9022 -3493.592 C -371.9022 -3494.0886 -372.30465 -3494.491 -372.8011 -3494.491 L -378.7937 -3494.491 C -379.29013 -3494.491 -379.6926 -3494.0886 -379.6926 -3493.592 L -379.6926 -3490.596 C -379.6926 -3490.2585 -379.80403 -3489.9473 -379.9921 -3489.697 L -372.8011 -3489.697 C -372.30465 -3489.697 -371.9022 -3490.0994 -371.9022 -3490.596 L -371.9022 -3493.592 Z M -381.79 -3498.686 L -377.8948 -3498.686 C -377.23288 -3498.686 -376.6963 -3498.1492 -376.6963 -3497.4873 C -376.6963 -3497.1563 -376.428 -3496.888 -376.097 -3496.888 L -372.8011 -3496.888 C -371.9737 -3496.888 -371.30294 -3496.2173 -371.30294 -3495.39 L -371.30294 -3490.596 C -371.30294 -3489.7684 -371.9737 -3489.0977 -372.8011 -3489.0977 L -381.79 -3489.0977 C -382.6174 -3489.0977 -383.28814 -3489.7684 -383.28814 -3490.596 L -383.28814 -3497.1877 C -383.28814 -3498.015 -382.6174 -3498.686 -381.79 -3498.686 Z" fill="#999"/>
            </g>
            <g id="Graphic_10557">
              <path d="M -375.80816 -3488.854 C -375.7532 -3488.7896 -375.67155 -3488.749 -375.58037 -3488.749 C -375.4892 -3488.749 -375.40754 -3488.7896 -375.3526 -3488.854 Z M -381.27334 -3488.854 L -381.27334 -3488.4492 C -381.27334 -3487.622 -380.6026 -3486.951 -379.7752 -3486.951 L -370.7863 -3486.951 C -369.9589 -3486.951 -369.28814 -3487.622 -369.28814 -3488.4492 L -369.28814 -3493.2433 C -369.28814 -3494.0707 -369.9589 -3494.7415 -370.7863 -3494.7415 L -371.02477 -3494.7415 L -371.02477 -3494.1422 L -370.7863 -3494.1422 C -370.28985 -3494.1422 -369.8874 -3493.7398 -369.8874 -3493.2433 L -369.8874 -3488.4492 C -369.8874 -3487.953 -370.28985 -3487.5504 -370.7863 -3487.5504 L -379.7752 -3487.5504 C -380.27164 -3487.5504 -380.6741 -3487.953 -380.6741 -3488.4492 L -380.6741 -3488.854 Z" fill="#999"/>
            </g>
          </g>
        </g>
      </g>
    </g>
  </g>
</svg>
