<svg height="21.125" viewBox="-415.788 -3507.803 21.125 21.125" width="21.125" xmlns="http://www.w3.org/2000/svg"><g fill="none"><path d="m-415.28814-3507.1785h20v20h-20z"/><path d="m-395.28814-3504.661h-1.61276c-.1521 0-.27537.1233-.27537.2753v1.3375c0 .1522-.12327.2752-.27533.2752h-.0787c-.15206 0-.27534-.123-.27534-.2752v-1.3375c0-.152-.12326-.2753-.27536-.2753h-1.3374c-.1521 0-.27536-.1233-.27536-.2754v-.0786c0-.152.12326-.2754.27536-.2754h1.3374c.1521 0 .27536-.1233.27536-.2753v-1.3373c0-.1522.12328-.2755.27534-.2755h.0787c.15206 0 .27533.1233.27533.2755v1.3373c0 .152.12327.2753.27537.2753h1.3374c.1521 0 .27536.1234.27536.2754z" fill="#999"/><path d="m-395.28814-3504.661h-1.61276c-.1521 0-.27537.1233-.27537.2753v1.3375c0 .1522-.12327.2752-.27533.2752h-.0787c-.15206 0-.27534-.123-.27534-.2752v-1.3375c0-.152-.12326-.2753-.27536-.2753h-1.3374c-.1521 0-.27536-.1233-.27536-.2754v-.0786c0-.152.12326-.2754.27536-.2754h1.3374c.1521 0 .27536-.1233.27536-.2753v-1.3373c0-.1522.12328-.2755.27534-.2755h.0787c.15206 0 .27533.1233.27533.2755v1.3373c0 .152.12327.2753.27537.2753h1.3374c.1521 0 .27536.1234.27536.2754z" stroke="#999" stroke-linecap="round" stroke-linejoin="round" stroke-width=".5"/><path d="m-414.58815-3497.7103 5.88-.28 1.4 1.96 5.32.42v7.84h-12.6z" fill="#fff"/><path d="m-413.53814-3497.6785c-.5799 0-1.05.4701-1.05 1.05v7.7c0 .5799.4701 1.05 1.05 1.05h10.5c.5799 0 1.05-.4701 1.05-1.05v-5.6c0-.5799-.4701-1.05-1.05-1.05h-3.85c-.7732 0-1.4-.6268-1.4-1.4 0-.3865-.3134-.7-.7-.7zm0-.7h4.55c.7732 0 1.4.6268 1.4 1.4 0 .3865.3134.7.7.7h3.85c.9665 0 1.75.7835 1.75 1.75v5.6c0 .9665-.7835 1.75-1.75 1.75h-10.5c-.9665 0-1.75-.7835-1.75-1.75v-7.7c0-.9665.7835-1.75 1.75-1.75z" fill="#999"/></g></svg>