<?xml version="1.0" encoding="UTF-8" standalone="no"?>
<!DOCTYPE svg PUBLIC "-//W3C//DTD SVG 1.1//EN" "http://www.w3.org/Graphics/SVG/1.1/DTD/svg11.dtd">
<svg xmlns="http://www.w3.org/2000/svg" xmlns:xl="http://www.w3.org/1999/xlink" version="1.1" xmlns:dc="http://purl.org/dc/elements/1.1/" viewBox="-479.78814 -3507.8893 21.125 21.1715" width="21.125" height="21.1715">
  <defs/>
  <g id="SOURCES" stroke-opacity="1" fill="none" stroke="none" fill-opacity="1" stroke-dasharray="none">
    <title>SOURCES</title>
    <g id="SOURCES_New">
      <title>New</title>
      <g id="Group_10594">
        <g id="Group_10581">
          <g id="Graphic_10580">
            <rect x="-479.28814" y="-3507.2643" width="20" height="20" stroke="gray" stroke-opacity="0" stroke-linecap="round" stroke-linejoin="round" stroke-width=".25"/>
          </g>
          <g id="Graphic_10579">
            <path d="M -459.28814 -3504.7468 L -460.9009 -3504.7468 C -461.053 -3504.7468 -461.17627 -3504.6235 -461.17627 -3504.4714 L -461.17627 -3503.134 C -461.17627 -3502.982 -461.29954 -3502.8586 -461.4516 -3502.8586 L -461.5303 -3502.8586 C -461.68236 -3502.8586 -461.80564 -3502.982 -461.80564 -3503.134 L -461.80564 -3504.4714 C -461.80564 -3504.6235 -461.9289 -3504.7468 -462.081 -3504.7468 L -463.4184 -3504.7468 C -463.5705 -3504.7468 -463.69376 -3504.87 -463.69376 -3505.022 L -463.69376 -3505.101 C -463.69376 -3505.253 -463.5705 -3505.376 -463.4184 -3505.376 L -462.081 -3505.376 C -461.9289 -3505.376 -461.80564 -3505.4994 -461.80564 -3505.6515 L -461.80564 -3506.989 C -461.80564 -3507.141 -461.68236 -3507.2643 -461.5303 -3507.2643 L -461.4516 -3507.2643 C -461.29954 -3507.2643 -461.17627 -3507.141 -461.17627 -3506.989 L -461.17627 -3505.6515 C -461.17627 -3505.4994 -461.053 -3505.376 -460.9009 -3505.376 L -459.5635 -3505.376 C -459.4114 -3505.376 -459.28814 -3505.253 -459.28814 -3505.101 L -459.28814 -3504.7468 Z" fill="#999"/>
            <path d="M -459.28814 -3504.7468 L -460.9009 -3504.7468 C -461.053 -3504.7468 -461.17627 -3504.6235 -461.17627 -3504.4714 L -461.17627 -3503.134 C -461.17627 -3502.982 -461.29954 -3502.8586 -461.4516 -3502.8586 L -461.5303 -3502.8586 C -461.68236 -3502.8586 -461.80564 -3502.982 -461.80564 -3503.134 L -461.80564 -3504.4714 C -461.80564 -3504.6235 -461.9289 -3504.7468 -462.081 -3504.7468 L -463.4184 -3504.7468 C -463.5705 -3504.7468 -463.69376 -3504.87 -463.69376 -3505.022 L -463.69376 -3505.101 C -463.69376 -3505.253 -463.5705 -3505.376 -463.4184 -3505.376 L -462.081 -3505.376 C -461.9289 -3505.376 -461.80564 -3505.4994 -461.80564 -3505.6515 L -461.80564 -3506.989 C -461.80564 -3507.141 -461.68236 -3507.2643 -461.5303 -3507.2643 L -461.4516 -3507.2643 C -461.29954 -3507.2643 -461.17627 -3507.141 -461.17627 -3506.989 L -461.17627 -3505.6515 C -461.17627 -3505.4994 -461.053 -3505.376 -460.9009 -3505.376 L -459.5635 -3505.376 C -459.4114 -3505.376 -459.28814 -3505.253 -459.28814 -3505.101 L -459.28814 -3504.7468 Z" stroke="#999" stroke-linecap="round" stroke-linejoin="round" stroke-width=".5"/>
          </g>
        </g>
        <g id="Group_10566">
          <g id="Graphic_10569">
            <path d="M -478.7278 -3500.3225 L -474.38804 -3500.4624 L -471.4482 -3500.6024 L -468.6483 -3497.8026 L -468.7883 -3487.583 L -478.7278 -3487.583 Z" fill="white"/>
          </g>
          <g id="Graphic_10568">
            <path d="M -468.0887 -3497.9226 L -468.0887 -3488.8427 C -468.0887 -3487.8762 -468.87216 -3487.0928 -469.8386 -3487.0928 L -477.53823 -3487.0928 C -478.5047 -3487.0928 -479.28814 -3487.8762 -479.28814 -3488.8427 L -479.28814 -3499.342 C -479.28814 -3500.3086 -478.5047 -3501.092 -477.53823 -3501.092 L -471.2581 -3501.092 C -471.1652 -3501.098 -471.0685 -3501.067 -470.99107 -3500.9896 L -468.1912 -3498.1897 C -468.1138 -3498.1123 -468.0828 -3498.0156 -468.0887 -3497.9226 Z M -471.5885 -3500.392 L -477.53823 -3500.392 C -478.1181 -3500.392 -478.5882 -3499.922 -478.5882 -3499.342 L -478.5882 -3488.8427 C -478.5882 -3488.263 -478.1181 -3487.7927 -477.53823 -3487.7927 L -469.8386 -3487.7927 C -469.25874 -3487.7927 -468.78867 -3488.263 -468.78867 -3488.8427 L -468.78867 -3497.5922 L -471.23854 -3497.5922 C -471.43183 -3497.5922 -471.5885 -3497.749 -471.5885 -3497.9422 Z M -470.88856 -3499.897 L -470.88856 -3498.292 L -469.2836 -3498.292 Z" fill="#999"/>
          </g>
        </g>
      </g>
    </g>
  </g>
</svg>
