<?xml version="1.0" encoding="UTF-8" standalone="no"?>
<!DOCTYPE svg PUBLIC "-//W3C//DTD SVG 1.1//EN" "http://www.w3.org/Graphics/SVG/1.1/DTD/svg11.dtd">
<svg xmlns:dc="http://purl.org/dc/elements/1.1/" xmlns:xl="http://www.w3.org/1999/xlink" version="1.1" xmlns="http://www.w3.org/2000/svg" viewBox="-885.5871 -2833.148 24 18" width="24" height="18">
  <defs/>
  <g id="SOURCES" stroke-dasharray="none" stroke="none" stroke-opacity="1" fill="none" fill-opacity="1">
    <title>SOURCES</title>
    <g id="SOURCES_New">
      <title>New</title>
      <g id="Group_10461">
        <g id="Graphic_10115"/>
        <g id="Group_10031">
          <title>user-follow</title>
          <g id="Graphic_10032">
            <path d="M -874.3148 -2820.097 L -875.8999 -2821.682 C -876.0473 -2821.8295 -876.0473 -2822.058 -875.8999 -2822.2055 C -875.7524 -2822.353 -875.5239 -2822.353 -875.3765 -2822.2055 L -873.1648 -2819.994 C -873.0173 -2819.8464 -873.0173 -2819.618 -873.1648 -2819.4704 L -875.3765 -2817.2587 C -875.5239 -2817.1113 -875.7524 -2817.1113 -875.8999 -2817.2587 C -876.0473 -2817.406 -876.0473 -2817.6347 -875.8999 -2817.782 L -874.3148 -2819.3672 L -877.8462 -2819.3672 C -878.0526 -2819.3672 -878.2148 -2819.5294 -878.2148 -2819.7358 C -878.2148 -2819.9422 -878.0526 -2820.1044 -877.8462 -2820.1044 L -874.3148 -2820.1044 Z M -878.1853 -2824.1002 C -878.6424 -2823.8938 -879.1511 -2823.7832 -879.6893 -2823.7832 C -880.2274 -2823.7832 -880.7361 -2823.8938 -881.1932 -2824.1002 L -884.2011 -2822.729 C -884.5992 -2822.552 -884.8499 -2822.154 -884.8499 -2821.719 L -884.8499 -2821.1955 C -884.8499 -2820.5836 -884.3559 -2820.0897 -883.744 -2820.0897 L -880.0579 -2820.0897 C -879.8514 -2820.0897 -879.6893 -2819.9275 -879.6893 -2819.721 C -879.6893 -2819.5146 -879.8514 -2819.3525 -880.0579 -2819.3525 L -883.744 -2819.3525 C -884.7614 -2819.3525 -885.5871 -2820.178 -885.5871 -2821.1955 L -885.5871 -2821.719 C -885.5871 -2822.4414 -885.1669 -2823.0976 -884.5034 -2823.4 L -881.9525 -2824.5573 C -882.8151 -2825.2355 -883.368 -2826.2824 -883.368 -2827.462 C -883.368 -2829.4967 -881.7166 -2831.148 -879.6819 -2831.148 C -877.6471 -2831.148 -875.9957 -2829.4967 -875.9957 -2827.462 C -875.9957 -2826.2898 -876.5413 -2825.243 -877.4038 -2824.5647 L -875.487 -2823.7463 C -875.3027 -2823.6652 -875.2143 -2823.4515 -875.2954 -2823.2598 C -875.3765 -2823.0755 -875.5903 -2822.987 -875.7819 -2823.068 L -878.1853 -2824.093 Z M -879.6893 -2824.5204 C -878.06 -2824.5204 -876.7403 -2825.84 -876.7403 -2827.4694 C -876.7403 -2829.0986 -878.06 -2830.4183 -879.6893 -2830.4183 C -881.3185 -2830.4183 -882.6382 -2829.0986 -882.6382 -2827.4694 C -882.6382 -2825.84 -881.3185 -2824.5204 -879.6893 -2824.5204 Z" fill="#999"/>
          </g>
        </g>
      </g>
    </g>
  </g>
</svg>
