<svg height="18" viewBox="-813.587 -2833.086 24 18" width="24" xmlns="http://www.w3.org/2000/svg"><path d="M-802.01-2820.991l-2.421-1.099a3.501 3.501 0 0 0-2.156-6.258 3.501 3.501 0 0 0-2.156 6.258l-2.422 1.099a1.785 1.785 0 0 0-.595.441 6.3 6.3 0 1 1 11.466-3.605c0 1.337-.42 2.583-1.127 3.605a1.695 1.695 0 0 0-.595-.441m-7.371-3.857a2.8 2.8 0 1 1 5.6 0 2.8 2.8 0 1 1-5.6 0m2.8 7a6.3 6.3 0 0 1-4.725-2.128.994.994 0 0 1 .44-.371l2.857-1.302c.434.196.917.301 1.428.301s.994-.105 1.428-.301l2.856 1.302c.182.084.329.21.44.371a6.276 6.276 0 0 1-4.724 2.128m0-13.3c-3.864 0-7 3.136-7 7s3.136 7 7 7 7-3.136 7-7-3.136-7-7-7" fill="#999"/></svg>