<svg height="18" viewBox="-777.587 -2833.086 24 18" width="24" xmlns="http://www.w3.org/2000/svg"><path d="M-768.008-2820.034v-1.842c0-.206.162-.368.368-.368s.369.162.369.368v1.842h1.842c.206 0 .368.162.368.369a.365.365 0 0 1-.368.368h-1.842v1.842c0 .207-.162.369-.369.369s-.368-.162-.368-.369v-1.842h-1.842a.365.365 0 0 1-.369-.368c0-.207.162-.369.369-.369zm-2.181-4.008a3.639 3.639 0 0 1-1.503.317c-.538 0-1.047-.11-1.504-.317l-3.006 1.37a1.101 1.101 0 0 0-.648 1.01v.523c0 .612.493 1.105 1.105 1.105h3.684c.206 0 .369.162.369.369a.365.365 0 0 1-.369.368h-3.684a1.843 1.843 0 0 1-1.842-1.842v-.523c0-.722.42-1.378 1.083-1.68l2.55-1.157a3.686 3.686 0 0 1 2.27-6.587 3.686 3.686 0 0 1 2.276 6.58l1.916.818a.37.37 0 0 1 .191.486.37.37 0 0 1-.486.192l-2.402-1.025zm-1.503-.413a2.947 2.947 0 1 0 0-5.894 2.947 2.947 0 1 0 0 5.894z" fill="#999"/></svg>