<svg height="18" viewBox="-741.587 -2833.086 24 18" width="24" xmlns="http://www.w3.org/2000/svg"><path d="m-738.9566-2829.257c-1.5248 1.4315-2.3494 3.4774-2.1938 5.6245.28785 3.8585 3.6407 6.7525 7.4993 6.4645 3.8585-.2877 6.7524-3.6406 6.4646-7.499-.2878-3.8587-3.384-6.5348-7.0714-6.4803-.2178 0-.389.1789-.3812.3967s.1789.389.3968.3812c3.27505-.0466 6.0367 2.4738 6.28565 5.7644.24895 3.2907-2.31825 6.4103-5.74895 6.667-3.43065.2567-6.4101-2.3183-6.66685-5.749-.14005-1.9137.59905-3.7496 1.96815-5.0176l.1556 2.1316c.0156.2177.2023.3733.4201.3578.2178-.0156.3734-.2023.3578-.4201l-.2333-3.104c-.0156-.2177-.2023-.3734-.4201-.3577l-3.104.2333c-.2178.0155-.3734.2022-.3578.4201.0155.2178.2022.3734.4201.3578l2.2015-.1632z" fill="#999"/></svg>