<svg height="18" viewBox="-705.587 -2834.086 24 18" width="24" xmlns="http://www.w3.org/2000/svg"><path d="m-699.3649-2830.5307h4.2778c.3189 0 .5056.3657.3111.6223l-2.1544 2.8777 2.1544 2.8777c.1945.2568.0078.6223-.3111.6223h-3.8889c-.6455 0-1.16665-.5211-1.16665-1.1666 0-.2177-.17115-.3889-.38885-.3889h-4.2778v6.6112c0 .2177-.1711.3888-.3889.3888s-.3889-.1711-.3889-.3888v-12.4446c0-.6454.5211-1.1666 1.1667-1.1666h3.8889c.6455 0 1.1666.5212 1.1666 1.1666v.3966zm0 .7777v1.1668c0 .2178-.1711.3889-.3889.3889-.2177 0-.38885-.1711-.38885-.3889v-1.5556-.7855c0-.2177-.17115-.3889-.38885-.3889h-3.8889c-.2178 0-.3889.1712-.3889.3889v5.0633h4.2778c.6455 0 1.1666.521 1.1666 1.1667 0 .2177.1711.3889.3889.3889h3.1111l-1.8666-2.4889c-.10115-.14-.10115-.3267 0-.4667l1.8666-2.489z" fill="#999"/></svg>