<svg height="18" viewBox="-705.587 -2834.086 24 18" width="24" xmlns="http://www.w3.org/2000/svg"><path d="M-699.365-2830.53h4.278c.319 0 .505.365.311.622l-2.154 2.877 2.154 2.878a.389.389 0 0 1-.311.622h-3.889a1.165 1.165 0 0 1-1.167-1.166.385.385 0 0 0-.389-.39h-4.277v6.612c0 .218-.171.389-.39.389s-.388-.171-.388-.389v-12.445c0-.645.521-1.166 1.167-1.166h3.888c.646 0 1.167.521 1.167 1.166v.397zm0 .777v1.167a.385.385 0 0 1-.389.389.385.385 0 0 1-.389-.39v-2.34a.385.385 0 0 0-.389-.39h-3.888a.385.385 0 0 0-.39.39v5.063h4.278c.646 0 1.167.521 1.167 1.167 0 .217.171.389.389.389h3.111l-1.867-2.49a.397.397 0 0 1 0-.466l1.867-2.489z" fill="#999"/></svg>