<?xml version="1.0" encoding="UTF-8" standalone="no"?>
<!DOCTYPE svg PUBLIC "-//W3C//DTD SVG 1.1//EN" "http://www.w3.org/Graphics/SVG/1.1/DTD/svg11.dtd">
<svg xmlns:dc="http://purl.org/dc/elements/1.1/" xmlns:xl="http://www.w3.org/1999/xlink" version="1.1" xmlns="http://www.w3.org/2000/svg" viewBox="-346.70993 -2806.737 24 18" width="24" height="18">
  <defs/>
  <g id="SOURCES" stroke-dasharray="none" stroke="none" stroke-opacity="1" fill="none" fill-opacity="1">
    <title>SOURCES</title>
    <g id="SOURCES_New">
      <title>New</title>
      <g id="Group_10487">
        <g id="Graphic_10223"/>
        <g id="Group_10221">
          <title>tray-stack</title>
          <g id="Graphic_10222">
            <path d="M -333.4877 -2798.5147 L -337.4155 -2798.5147 C -337.59438 -2797.628 -338.37993 -2796.959 -339.32105 -2796.959 L -340.09882 -2796.959 C -341.03993 -2796.959 -341.8255 -2797.628 -342.00438 -2798.5147 L -345.93216 -2798.5147 L -345.93216 -2795.4035 L -341.65438 -2795.4035 C -341.4366 -2795.4035 -341.2655 -2795.2324 -341.2655 -2795.0147 C -341.2655 -2794.369 -340.74438 -2793.848 -340.09882 -2793.848 L -339.32105 -2793.848 C -338.6755 -2793.848 -338.15438 -2794.369 -338.15438 -2795.0147 C -338.15438 -2795.2324 -337.98327 -2795.4035 -337.7655 -2795.4035 L -333.4877 -2795.4035 Z M -333.4877 -2799.2924 L -333.4877 -2802.7924 C -333.4877 -2803.438 -334.00882 -2803.959 -334.65438 -2803.959 L -344.7655 -2803.959 C -345.41105 -2803.959 -345.93216 -2803.438 -345.93216 -2802.7924 L -345.93216 -2799.2924 L -341.65438 -2799.2924 C -341.4366 -2799.2924 -341.2655 -2799.1213 -341.2655 -2798.9035 C -341.2655 -2798.258 -340.74438 -2797.737 -340.09882 -2797.737 L -339.32105 -2797.737 C -338.6755 -2797.737 -338.15438 -2798.258 -338.15438 -2798.9035 C -338.15438 -2799.1213 -337.98327 -2799.2924 -337.7655 -2799.2924 Z M -333.4877 -2794.6258 L -337.4155 -2794.6258 C -337.59438 -2793.739 -338.37993 -2793.0702 -339.32105 -2793.0702 L -340.09882 -2793.0702 C -341.03993 -2793.0702 -341.8255 -2793.739 -342.00438 -2794.6258 L -345.93216 -2794.6258 L -345.93216 -2792.6813 C -345.93216 -2792.0358 -345.41105 -2791.5147 -344.7655 -2791.5147 L -334.65438 -2791.5147 C -334.00882 -2791.5147 -333.4877 -2792.0358 -333.4877 -2792.6813 Z M -344.7655 -2804.737 L -334.65438 -2804.737 C -333.58105 -2804.737 -332.70993 -2803.8658 -332.70993 -2802.7924 L -332.70993 -2792.6813 C -332.70993 -2791.608 -333.58105 -2790.737 -334.65438 -2790.737 L -344.7655 -2790.737 C -345.83882 -2790.737 -346.70993 -2791.608 -346.70993 -2792.6813 L -346.70993 -2802.7924 C -346.70993 -2803.8658 -345.83882 -2804.737 -344.7655 -2804.737 Z" fill="#999"/>
          </g>
        </g>
      </g>
    </g>
  </g>
</svg>
