<svg height="18" viewBox="-346.71 -2806.737 24 18" width="24" xmlns="http://www.w3.org/2000/svg"><path d="M-333.488-2798.515h-3.928a1.945 1.945 0 0 1-1.905 1.556h-.778a1.945 1.945 0 0 1-1.905-1.556h-3.928v3.111h4.278c.217 0 .389.172.389.39 0 .645.52 1.166 1.166 1.166h.778c.646 0 1.167-.521 1.167-1.167 0-.217.17-.389.388-.389h4.278zm0-.777v-3.5c0-.646-.52-1.167-1.166-1.167h-10.112c-.645 0-1.166.521-1.166 1.167v3.5h4.278c.217 0 .389.17.389.388 0 .646.52 1.167 1.166 1.167h.778c.646 0 1.167-.521 1.167-1.167 0-.217.17-.388.388-.388zm0 4.666h-3.928a1.944 1.944 0 0 1-1.905 1.556h-.778a1.945 1.945 0 0 1-1.905-1.556h-3.928v1.945c0 .645.521 1.166 1.167 1.166h10.11c.646 0 1.167-.52 1.167-1.166zm-11.278-10.111h10.112c1.073 0 1.944.871 1.944 1.945v10.11a1.945 1.945 0 0 1-1.944 1.945h-10.112a1.945 1.945 0 0 1-1.944-1.944v-10.111c0-1.074.871-1.945 1.944-1.945z" fill="#999"/></svg>