<svg height="18" viewBox="-346.71 -2806.737 24 18" width="24" xmlns="http://www.w3.org/2000/svg"><path d="m-333.4877-2798.5147h-3.9278c-.17888.8867-.96443 1.5557-1.90555 1.5557h-.77777c-.94111 0-1.72668-.669-1.90556-1.5557h-3.92778v3.1112h4.27778c.21778 0 .38888.1711.38888.3888 0 .6457.52112 1.1667 1.16668 1.1667h.77777c.64555 0 1.16667-.521 1.16667-1.1667 0-.2177.17111-.3888.38888-.3888h4.2778zm0-.7777v-3.5c0-.6456-.52112-1.1666-1.16668-1.1666h-10.11112c-.64555 0-1.16666.521-1.16666 1.1666v3.5h4.27778c.21778 0 .38888.1711.38888.3889 0 .6455.52112 1.1665 1.16668 1.1665h.77777c.64555 0 1.16667-.521 1.16667-1.1665 0-.2178.17111-.3889.38888-.3889zm0 4.6666h-3.9278c-.17888.8868-.96443 1.5556-1.90555 1.5556h-.77777c-.94111 0-1.72668-.6688-1.90556-1.5556h-3.92778v1.9445c0 .6455.52111 1.1666 1.16666 1.1666h10.11112c.64556 0 1.16668-.5211 1.16668-1.1666zm-11.2778-10.1112h10.11112c1.07333 0 1.94445.8712 1.94445 1.9446v10.1111c0 1.0733-.87112 1.9443-1.94445 1.9443h-10.11112c-1.07332 0-1.94443-.871-1.94443-1.9443v-10.1111c0-1.0734.87111-1.9446 1.94443-1.9446z" fill="#999"/></svg>