<?xml version="1.0" encoding="UTF-8" standalone="no"?>
<!DOCTYPE svg PUBLIC "-//W3C//DTD SVG 1.1//EN" "http://www.w3.org/Graphics/SVG/1.1/DTD/svg11.dtd">
<svg xmlns:dc="http://purl.org/dc/elements/1.1/" xmlns:xl="http://www.w3.org/1999/xlink" version="1.1" xmlns="http://www.w3.org/2000/svg" viewBox="-669.5871 -2834.0862 24 18" width="24" height="18">
  <defs/>
  <g id="SOURCES" stroke-dasharray="none" stroke="none" stroke-opacity="1" fill="none" fill-opacity="1">
    <title>SOURCES</title>
    <g id="SOURCES_New">
      <title>New</title>
      <g id="Group_10472">
        <g id="Graphic_10127"/>
        <g id="Group_10035">
          <title>briefcase</title>
          <g id="Graphic_10036">
            <path d="M -658.2192 -2829.463 L -665.2148 -2829.463 L -665.2148 -2818.9607 L -658.2192 -2818.9607 Z M -657.34475 -2829.463 L -657.34475 -2818.9607 L -656.0331 -2818.9607 C -655.3073 -2818.9607 -654.7214 -2819.5466 -654.7214 -2820.2724 L -654.7214 -2828.1512 C -654.7214 -2828.877 -655.3073 -2829.463 -656.0331 -2829.463 Z M -666.0893 -2829.463 L -667.401 -2829.463 C -668.12676 -2829.463 -668.71264 -2828.877 -668.71264 -2828.1512 L -668.71264 -2820.2724 C -668.71264 -2819.5466 -668.12676 -2818.9607 -667.401 -2818.9607 L -666.0893 -2818.9607 Z M -664.3404 -2830.3373 L -664.3404 -2830.7745 C -664.3404 -2831.5003 -663.7545 -2832.0862 -663.0287 -2832.0862 L -660.4053 -2832.0862 C -659.6795 -2832.0862 -659.09365 -2831.5003 -659.09365 -2830.7745 L -659.09365 -2830.3373 L -656.0331 -2830.3373 C -654.8263 -2830.3373 -653.8469 -2829.358 -653.8469 -2828.1512 L -653.8469 -2820.2724 C -653.8469 -2819.0656 -654.8263 -2818.0862 -656.0331 -2818.0862 L -667.401 -2818.0862 C -668.6077 -2818.0862 -669.5871 -2819.0656 -669.5871 -2820.2724 L -669.5871 -2828.1512 C -669.5871 -2829.358 -668.6077 -2830.3373 -667.401 -2830.3373 Z M -659.9681 -2830.3373 L -659.9681 -2830.7745 C -659.9681 -2831.0194 -660.1605 -2831.2118 -660.4053 -2831.2118 L -663.0287 -2831.2118 C -663.27354 -2831.2118 -663.4659 -2831.0194 -663.4659 -2830.7745 L -663.4659 -2830.3373 Z" fill="#999"/>
          </g>
        </g>
      </g>
    </g>
  </g>
</svg>
