<svg height="18" viewBox="-634 -3239.414 24 18" width="24" xmlns="http://www.w3.org/2000/svg"><g fill="none"><g fill="#999"><path d="m-618.8973-3227.4872v-8.7063c0-.7375-.5952-1.3325-1.3326-1.3325h-11.5491c-.7374 0-1.3326.595-1.3326 1.3325v6.0322l2.79844-2.7984c.17766-.1777.45306-.1777.63076 0l5.0194 5.0194 2.3543-2.3543c.17766-.1776.4531-.1776.63074 0l2.79846 2.7986zm0 1.2526-3.1094-3.1094-2.3542 2.3543c-.1777.1777-.4531.1777-.6308 0l-5.0194-5.0193-3.1094 3.1092v4.2554c0 .7374.5952 1.3326 1.3326 1.3326h11.54914c.73736 0 1.33256-.5952 1.33256-1.3326v-1.5902zm-15.1027-9.9589c0-1.226.995-2.221 2.221-2.221h11.5491c1.226 0 2.221.995 2.221 2.221v11.5491c0 1.226-.995 2.221-2.221 2.221h-11.5491c-1.226 0-2.221-.995-2.221-2.221z"/><path d="m-618-3224.6355c0 1.226-.995 2.221-2.221 2.221h-11.558c-1.226 0-2.221-.995-2.221-2.221v-11.558c0-1.226.995-2.221 2.221-2.221h11.558c1.226 0 2.221.995 2.221 2.221zm-.8884-10.2255v-1.3325c0-.7375-.5952-1.3325-1.3326-1.3325h-11.558c-.7374 0-1.3326.595-1.3326 1.3325v1.3325zm0 .8885h-14.2232v9.337c0 .7375.5952 1.3325 1.3326 1.3325h11.558c.7374 0 1.3326-.595 1.3326-1.3325zm-13.3348-2.6652h.8884v.8884h-.8884zm1.7768 0h.8884v.8884h-.8884zm1.7768 0h.8884v.8884h-.8884z"/><path d="m-625.49306-3233.2796h1.55356c.5523 0 1 .4476 1 1v1.5536c0 .5523-.4477 1-1 1h-1.55356c-.55228 0-1-.4477-1-1v-1.5536c0-.5524.44772-1 1-1z"/></g><path d="m-625.6047-3232.391h1.776791v1.776791h-1.776791z" fill="#fff"/></g></svg>