<svg height="18" viewBox="-597.587 -2833.086 24 18" width="24" xmlns="http://www.w3.org/2000/svg"><path d="M-595.102-2822.278c-.735-.573-1.686-.491-2.406-1.017-.511-.41 1.567-1.17 2.766-.304 1.159.678 1.694 2.701 2.445 3.952.232.34.424.444.616.222 1.007-2.011 2.03-6.372 2.9-8.863.385-.959.864-3.578 1.76-2.572 1.054 1.193 1.694 5.835 3.508 6.501.543.339 1.598.316 1.926.912-.927 1.017-2.861.643-3.653-.748-.91-1.52-1.606-4.771-2.125-4.607-.416.21-.512.924-.744 1.532-.735 2.35-1.646 5.331-2.365 7.647-.504 1.438-.704 2.42-1.311 2.537-.927-.059-1.99-4.233-3.173-5.098l-.128-.105z" fill="#999"/></svg>