<?xml version="1.0" encoding="UTF-8" standalone="no"?>
<!DOCTYPE svg PUBLIC "-//W3C//DTD SVG 1.1//EN" "http://www.w3.org/Graphics/SVG/1.1/DTD/svg11.dtd">
<svg xmlns:dc="http://purl.org/dc/elements/1.1/" xmlns:xl="http://www.w3.org/1999/xlink" version="1.1" xmlns="http://www.w3.org/2000/svg" viewBox="-597.5871 -2833.0862 24 18" width="24" height="18">
  <defs/>
  <g id="SOURCES" stroke-dasharray="none" stroke="none" stroke-opacity="1" fill="none" fill-opacity="1">
    <title>SOURCES</title>
    <g id="SOURCES_New">
      <title>New</title>
      <g id="Group_10475">
        <g id="Graphic_10131"/>
        <g id="Group_10039">
          <title>activity</title>
          <g id="Graphic_10040">
            <path d="M -595.1019 -2822.2778 C -595.8372 -2822.8507 -596.7883 -2822.769 -597.5076 -2823.295 C -598.0191 -2823.7043 -595.9411 -2824.4643 -594.7423 -2823.599 C -593.5834 -2822.921 -593.0479 -2820.898 -592.2967 -2819.647 C -592.0649 -2819.3078 -591.8731 -2819.2026 -591.68126 -2819.4248 C -590.67425 -2821.436 -589.65124 -2825.7973 -588.7801 -2828.2878 C -588.39646 -2829.2466 -587.9169 -2831.8657 -587.0218 -2830.8602 C -585.9668 -2829.6675 -585.32745 -2825.0255 -583.5132 -2824.359 C -582.96975 -2824.02 -581.9148 -2824.0434 -581.5871 -2823.447 C -582.5142 -2822.4298 -584.4483 -2822.804 -585.23954 -2824.1954 C -586.15065 -2825.7154 -586.846 -2828.966 -587.3655 -2828.8023 C -587.78106 -2828.5918 -587.877 -2827.8785 -588.10874 -2827.2705 C -588.844 -2824.9203 -589.75514 -2821.9387 -590.47444 -2819.6235 C -590.97795 -2818.1853 -591.17775 -2817.203 -591.78516 -2817.0862 C -592.71226 -2817.1447 -593.7752 -2821.319 -594.9581 -2822.1842 L -595.08595 -2822.2895 Z" fill="#999"/>
          </g>
        </g>
      </g>
    </g>
  </g>
</svg>
