<svg height="18" viewBox="-561.587 -2834.086 24 18" width="24" xmlns="http://www.w3.org/2000/svg"><path d="M-552.254-2823.336v-3.5h-4.666v3.5zm0 .875h-4.666v3.5h4.666zm-8.555-.875h3.11v-3.5h-3.11zm0 .875v2.187c0 .726.52 1.313 1.166 1.313h1.945v-3.5zm12.444-.875v-3.5h-3.111v3.5zm0 .875h-3.111v3.5h1.944c.646 0 1.167-.587 1.167-1.313zm-3.889-5.25v-3.5h-4.666v3.5zm-8.555 0h3.11v-3.5h-1.944c-.645 0-1.166.586-1.166 1.312zm12.444 0v-2.188c0-.726-.521-1.312-1.167-1.312h-1.944v3.5zm-11.278-4.375h10.111c1.074 0 1.945.98 1.945 2.187v9.625c0 1.208-.871 2.188-1.945 2.188h-10.11c-1.074 0-1.945-.98-1.945-2.188v-9.625c0-1.207.871-2.187 1.944-2.187z" fill="#999"/></svg>