<svg height="18" viewBox="-489.587 -2834.086 24 18" width="24" xmlns="http://www.w3.org/2000/svg"><g fill="#999"><path d="m-487.3281-2830.0232h-.03725l-1.99835 1.1142-.2234-.6747 2.32105-1.3083h.81919v11.6116h-.86884v-10.7428z"/><path d="m-483.97104-2819.8835c0-.4702.32274-.8075.76954-.8075.44684 0 .75714.3475.75714.8075 0 .4293-.29789.7973-.76954.7973-.47166 0-.76955-.368-.75714-.7973z"/><path d="m-474.5871-2825.2498c0 4.1602-1.5639 6.1636-4.00906 6.1636-1.91144 0-3.67394-1.7683-3.7236-5.9488 0-4.2318 1.94866-6.0512 4.00906-6.0512s3.7236 1.8296 3.7236 5.8364zm-6.81417.2351c0 3.2505 1.16673 5.2232 2.91682 5.2232 2.03555 0 2.96645-2.2078 2.96645-5.3663 0-3.1584-.86883-5.2232-2.94163-5.2232-1.67562 0-2.94164 1.942-2.94164 5.3663z"/></g></svg>