<svg height="18" viewBox="-489.587 -2834.086 24 18" width="24" xmlns="http://www.w3.org/2000/svg"><g fill="#999"><path d="M-487.328-2830.023h-.037l-1.999 1.114-.223-.675 2.32-1.308h.82v11.612h-.869v-10.743zm3.357 10.14c0-.47.323-.808.77-.808.446 0 .757.347.757.807 0 .43-.298.798-.77.798-.472 0-.77-.368-.757-.797zm9.384-5.367c0 4.16-1.564 6.164-4.01 6.164-1.91 0-3.673-1.769-3.723-5.949 0-4.232 1.949-6.051 4.01-6.051s3.723 1.83 3.723 5.836zm-6.814.235c0 3.25 1.166 5.223 2.917 5.223 2.035 0 2.966-2.207 2.966-5.366 0-3.158-.869-5.223-2.942-5.223-1.675 0-2.941 1.942-2.941 5.366z"/></g></svg>