<?xml version="1.0" encoding="UTF-8" standalone="no"?>
<!DOCTYPE svg PUBLIC "-//W3C//DTD SVG 1.1//EN" "http://www.w3.org/Graphics/SVG/1.1/DTD/svg11.dtd">
<svg xmlns:dc="http://purl.org/dc/elements/1.1/" xmlns:xl="http://www.w3.org/1999/xlink" version="1.1" xmlns="http://www.w3.org/2000/svg" viewBox="-489.5871 -2834.0862 24 18" width="24" height="18">
  <defs/>
  <g id="SOURCES" stroke-dasharray="none" stroke="none" stroke-opacity="1" fill="none" fill-opacity="1">
    <title>SOURCES</title>
    <g id="SOURCES_New">
      <title>New</title>
      <g id="Group_10480">
        <g id="Graphic_10145"/>
        <g id="Group_10049">
          <g id="Graphic_10048">
            <path d="M -487.3281 -2830.0232 L -487.36535 -2830.0232 L -489.3637 -2828.909 L -489.5871 -2829.5837 L -487.26605 -2830.892 L -486.44686 -2830.892 L -486.44686 -2819.2804 L -487.3157 -2819.2804 L -487.3157 -2830.0232 Z" fill="#999"/>
          </g>
          <g id="Graphic_10047">
            <path d="M -483.97104 -2819.8835 C -483.97104 -2820.3537 -483.6483 -2820.691 -483.2015 -2820.691 C -482.75466 -2820.691 -482.44436 -2820.3435 -482.44436 -2819.8835 C -482.44436 -2819.4542 -482.74225 -2819.0862 -483.2139 -2819.0862 C -483.68556 -2819.0862 -483.98345 -2819.4542 -483.97104 -2819.8835 Z" fill="#999"/>
          </g>
          <g id="Graphic_10046">
            <path d="M -474.5871 -2825.2498 C -474.5871 -2821.0896 -476.151 -2819.0862 -478.59616 -2819.0862 C -480.5076 -2819.0862 -482.2701 -2820.8545 -482.31976 -2825.035 C -482.31976 -2829.2668 -480.3711 -2831.0862 -478.3107 -2831.0862 C -476.2503 -2831.0862 -474.5871 -2829.2566 -474.5871 -2825.2498 Z M -481.40127 -2825.0147 C -481.40127 -2821.7642 -480.23454 -2819.7915 -478.48445 -2819.7915 C -476.4489 -2819.7915 -475.518 -2821.9993 -475.518 -2825.1578 C -475.518 -2828.3162 -476.38683 -2830.381 -478.45963 -2830.381 C -480.13525 -2830.381 -481.40127 -2828.439 -481.40127 -2825.0147 Z" fill="#999"/>
          </g>
        </g>
      </g>
    </g>
  </g>
</svg>
