<svg height="18" viewBox="-453.587 -2834.086 24 18" width="24" xmlns="http://www.w3.org/2000/svg"><path d="m-440.5871-2824.6247v4.6154h.5c.28 0 .5.2031.5.4615 0 .2585-.22.4616-.5.4616h-2c-.28 0-.5-.2031-.5-.4616 0-.2584.22-.4615.5-.4615h.5v-4.6154h-2v.4617c0 .2583-.22.4614-.5.4614s-.5-.2031-.5-.4614v-.9232c0-.2585.22-.4616.5-.4616h6c.28 0 .5.2031.5.4616v.9232c0 .2583-.22.4614-.5.4614s-.5-.2031-.5-.4614v-.4617zm-7-5.5383v10.1537h1.5c.28 0 .5.2031.5.4615 0 .2585-.22.4616-.5.4616h-4c-.28 0-.5-.2031-.5-.4616 0-.2584.22-.4615.5-.4615h1.5v-10.1537h-4v1.3845c0 .2585-.22.4615-.5.4615s-.5-.203-.5-.4615v-1.8462c0-.2583.22-.4615.5-.4615h10c.28 0 .5.2032.5.4615v1.8462c0 .2585-.22.4615-.5.4615s-.5-.203-.5-.4615v-1.3845z" fill="#999"/></svg>