<svg height="18" viewBox="-381.587 -2834.086 24 18" width="24" xmlns="http://www.w3.org/2000/svg"><path d="m-376.7151-2820.1862c-.168 1.19-1.19 2.1-2.422 2.1-1.351 0-2.45-1.099-2.45-2.45 0-1.232.91-2.254 2.1-2.422v-4.249c-1.19-.168-2.1-1.19-2.1-2.422 0-1.358 1.099-2.457 2.45-2.457s2.45 1.099 2.45 2.45c0 1.232-.91 2.254-2.1 2.422v4.249c1.071.154 1.925 1.001 2.072 2.072h3.178c1.351 0 2.45-1.099 2.45-2.45v-.378c-1.19-.168-2.1-1.19-2.1-2.422 0-1.351 1.099-2.45 2.45-2.45s2.45 1.099 2.45 2.45c0 1.232-.91 2.254-2.1 2.422v.378c0 1.743-1.407 3.15-3.15 3.15h-3.178zm-4.172-.35c0 .966.784 1.75 1.75 1.75s1.75-.784 1.75-1.75-.784-1.75-1.75-1.75-1.75.784-1.75 1.75zm0-9.1c0 .966.784 1.75 1.75 1.75s1.75-.784 1.75-1.75-.784-1.75-1.75-1.75-1.75.784-1.75 1.75zm10.15 5.25c.966 0 1.75-.784 1.75-1.75s-.784-1.75-1.75-1.75-1.75.784-1.75 1.75.784 1.75 1.75 1.75z" fill="#999"/></svg>