<?xml version="1.0" encoding="UTF-8" standalone="no"?>
<!DOCTYPE svg PUBLIC "-//W3C//DTD SVG 1.1//EN" "http://www.w3.org/Graphics/SVG/1.1/DTD/svg11.dtd">
<svg xmlns:dc="http://purl.org/dc/elements/1.1/" xmlns:xl="http://www.w3.org/1999/xlink" version="1.1" xmlns="http://www.w3.org/2000/svg" viewBox="-94.70993 -2807.737 24 18" width="24" height="18">
  <defs/>
  <g id="SOURCES" stroke-dasharray="none" stroke="none" stroke-opacity="1" fill="none" fill-opacity="1">
    <title>SOURCES</title>
    <g id="SOURCES_New">
      <title>New</title>
      <g id="Group_10495">
        <g id="Graphic_10263"/>
        <g id="Group_10262">
          <g id="Graphic_10260">
            <path d="M -81.49505 -2796.1755 L -81.49505 -2803.7935 C -81.49505 -2804.4387 -82.01588 -2804.9595 -82.66107 -2804.9595 L -92.76657 -2804.9595 C -93.41177 -2804.9595 -93.93259 -2804.4387 -93.93259 -2803.7935 L -93.93259 -2798.5153 L -91.48395 -2800.964 C -91.32848 -2801.1194 -91.0875 -2801.1194 -90.93203 -2800.964 L -86.54003 -2796.572 L -84.48006 -2798.632 C -84.32459 -2798.7874 -84.08362 -2798.7874 -83.92815 -2798.632 L -81.47951 -2796.1833 Z M -81.49505 -2795.0795 L -84.21577 -2797.8002 L -86.27573 -2795.7402 C -86.4312 -2795.5847 -86.67218 -2795.5847 -86.82765 -2795.7402 L -91.21965 -2800.1322 L -93.94036 -2797.4115 L -93.94036 -2793.688 C -93.94036 -2793.0428 -93.41954 -2792.522 -92.77434 -2792.522 L -82.66885 -2792.522 C -82.02365 -2792.522 -81.50283 -2793.0428 -81.50283 -2793.688 L -81.50283 -2795.0795 Z M -94.70993 -2803.7935 C -94.70993 -2804.8663 -93.83931 -2805.737 -92.76657 -2805.737 L -82.66107 -2805.737 C -81.58834 -2805.737 -80.71771 -2804.8663 -80.71771 -2803.7935 L -80.71771 -2793.688 C -80.71771 -2792.6153 -81.58834 -2791.7447 -82.66107 -2791.7447 L -92.76657 -2791.7447 C -93.83931 -2791.7447 -94.70993 -2792.6153 -94.70993 -2793.688 Z" fill="#999"/>
          </g>
          <g id="Graphic_10258">
            <path d="M -80.709935 -2793.6802 C -80.709935 -2792.6075 -81.58056 -2791.737 -82.6533 -2791.737 L -92.76657 -2791.737 C -93.83931 -2791.737 -94.70993 -2792.6075 -94.70993 -2793.6802 L -94.70993 -2803.7935 C -94.70993 -2804.8663 -93.83931 -2805.737 -92.76657 -2805.737 L -82.6533 -2805.737 C -81.58056 -2805.737 -80.709935 -2804.8663 -80.709935 -2803.7935 L -80.709935 -2793.6802 Z M -81.48728 -2802.6275 L -81.48728 -2803.7935 C -81.48728 -2804.4387 -82.0081 -2804.9595 -82.6533 -2804.9595 L -92.76657 -2804.9595 C -93.41177 -2804.9595 -93.93259 -2804.4387 -93.93259 -2803.7935 L -93.93259 -2802.6275 Z M -81.48728 -2801.85 L -93.93259 -2801.85 L -93.93259 -2793.6802 C -93.93259 -2793.035 -93.41177 -2792.5142 -92.76657 -2792.5142 L -82.6533 -2792.5142 C -82.0081 -2792.5142 -81.48728 -2793.035 -81.48728 -2793.6802 Z M -93.15524 -2804.1822 L -92.3779 -2804.1822 L -92.3779 -2803.405 L -93.15524 -2803.405 Z M -91.60055 -2804.1822 L -90.8232 -2804.1822 L -90.8232 -2803.405 L -91.60055 -2803.405 Z M -90.04586 -2804.1822 L -89.26851 -2804.1822 L -89.26851 -2803.405 L -90.04586 -2803.405 Z" fill="#999"/>
          </g>
          <g id="Graphic_10256">
            <path d="M -87.14136 -2801.2438 L -86.03198 -2801.2438 C -85.47969 -2801.2438 -85.03198 -2800.796 -85.03198 -2800.2438 L -85.03198 -2799.1344 C -85.03198 -2798.582 -85.47969 -2798.1344 -86.03198 -2798.1344 L -87.14136 -2798.1344 C -87.69365 -2798.1344 -88.14136 -2798.582 -88.14136 -2799.1344 L -88.14136 -2800.2438 C -88.14136 -2800.796 -87.69365 -2801.2438 -87.14136 -2801.2438 Z" fill="#999"/>
          </g>
          <g id="Graphic_10255">
            <rect x="-87.36402" y="-2800.4665" width="1.5546918" height="1.5546918" fill="white"/>
          </g>
        </g>
      </g>
    </g>
  </g>
</svg>
