<svg height="18" viewBox="-271.008 -2833.086 24 18" width="24" xmlns="http://www.w3.org/2000/svg"><path d="m-270.65783-2821.2862c.196 0 .35.154.35.35v2.1c0 .581.469 1.05 1.05 1.05h7.7c.581 0 1.05-.469 1.05-1.05v-8.75h-2.45c-.196 0-.35-.154-.35-.35v-2.45h-5.95c-.581 0-1.05.469-1.05 1.05v1.4c0 .196-.154.35-.35.35s-.35-.154-.35-.35v-1.4c0-.966.784-1.75 1.75-1.75h6.279c.091 0 .189.028.266.105l2.8 2.8c.077.077.105.175.105.266v9.079c0 .966-.784 1.75-1.75 1.75h-7.7c-.966 0-1.75-.784-1.75-1.75v-2.1c0-.196.154-.35.35-.35zm8.05-8.603v1.603h1.603zm-2.597 5.103-1.505-1.505c-.14-.14-.14-.357 0-.497s.357-.14.497 0l2.1 2.1c.14.14.14.357 0 .497l-2.1 2.1c-.14.14-.357.14-.497 0s-.14-.357 0-.497l1.505-1.505h-5.453c-.196 0-.35-.154-.35-.35s.154-.35.35-.35h5.453z" fill="#999"/></svg>