<?xml version="1.0" encoding="UTF-8" standalone="no"?>
<!DOCTYPE svg PUBLIC "-//W3C//DTD SVG 1.1//EN" "http://www.w3.org/Graphics/SVG/1.1/DTD/svg11.dtd">
<svg xmlns:dc="http://purl.org/dc/elements/1.1/" xmlns:xl="http://www.w3.org/1999/xlink" version="1.1" xmlns="http://www.w3.org/2000/svg" viewBox="-21.587094 -2806.737 24 18" width="24" height="18">
  <defs/>
  <g id="SOURCES" stroke-dasharray="none" stroke="none" stroke-opacity="1" fill="none" fill-opacity="1">
    <title>SOURCES</title>
    <g id="SOURCES_New">
      <title>New</title>
      <g id="Group_10457">
        <g id="Graphic_10456"/>
        <g id="Graphic_10455">
          <path d="M -11.790763 -2798.105 L -14.108358 -2800.4225 C -14.252183 -2800.5663 -14.252183 -2800.7995 -14.108358 -2800.9433 C -13.964533 -2801.087 -13.731346 -2801.087 -13.58752 -2800.9433 L -10.641219 -2797.997 C -10.497394 -2797.8532 -10.497394 -2797.62 -10.641219 -2797.4762 L -13.58752 -2794.53 C -13.731346 -2794.386 -13.964533 -2794.386 -14.108358 -2794.53 C -14.252183 -2794.6737 -14.252183 -2794.907 -14.108358 -2795.0507 L -11.790763 -2797.3683 L -18.267391 -2797.3683 C -18.47079 -2797.3683 -18.63568 -2797.5332 -18.63568 -2797.7366 C -18.63568 -2797.94 -18.47079 -2798.105 -18.267391 -2798.105 Z M -9.428487 -2791.4757 C -8.818288 -2791.4757 -8.323624 -2791.9704 -8.323624 -2792.5806 L -8.323624 -2802.8926 C -8.323624 -2803.5028 -8.818288 -2803.9975 -9.428507 -2803.9975 L -19.745656 -2803.998 C -20.355855 -2803.998 -20.85052 -2803.5034 -20.85052 -2802.8932 L -20.845405 -2792.5807 C -20.84517 -2791.9707 -20.350575 -2791.4763 -19.740542 -2791.4763 C -19.735926 -2791.4763 -16.298574 -2791.476 -9.428487 -2791.4757 Z M -21.58198 -2792.5804 L -21.587094 -2802.8925 C -21.587094 -2803.9102 -20.762654 -2804.7346 -19.745636 -2804.7346 L -9.428487 -2804.734 C -8.411489 -2804.734 -7.587049 -2803.9096 -7.587049 -2802.8926 L -7.587049 -2792.5806 C -7.587049 -2791.5636 -8.411489 -2790.739 -9.428487 -2790.739 L -19.740542 -2790.739 C -20.769693 -2790.7522 -21.58159 -2791.5714 -21.58198 -2792.5804 Z" fill="#999"/>
        </g>
      </g>
    </g>
  </g>
</svg>
