<svg height="18" viewBox="-21.587 -2806.737 24 18" width="24" xmlns="http://www.w3.org/2000/svg"><path d="m-11.790763-2798.105-2.317595-2.3175c-.143825-.1438-.143825-.377 0-.5208.143825-.1437.377012-.1437.520838 0l2.946301 2.9463c.143825.1438.143825.377 0 .5208l-2.946301 2.9462c-.143826.144-.377013.144-.520838 0-.143825-.1437-.143825-.377 0-.5207l2.317595-2.3176h-6.476628c-.203399 0-.368289-.1649-.368289-.3683s.16489-.3684.368289-.3684zm2.362276 6.6293c.610199 0 1.104863-.4947 1.104863-1.1049v-10.312c0-.6102-.494664-1.1049-1.104883-1.1049l-10.317149-.0005c-.610199 0-1.104864.4946-1.104864 1.1048l.005115 10.3125c.000235.61.49483 1.1044 1.104863 1.1044.004616 0 3.441968.0003 10.312055.0006zm-12.153493-1.1047-.005114-10.3121c0-1.0177.82444-1.8421 1.841458-1.8421l10.317149.0006c1.016998 0 1.841438.8244 1.841438 1.8414v10.312c0 1.017-.82444 1.8416-1.841438 1.8416h-10.312055c-1.029151-.0132-1.841048-.8324-1.841438-1.8414z" fill="#999"/></svg>