<svg height="18" viewBox="-201.587 -2834.086 24 18" width="24" xmlns="http://www.w3.org/2000/svg"><g fill="#999"><path d="m-199.34868-2830.0164h-.03974l-1.97351 1.1304-.22517-.6863 2.2914-1.3222h.80794v11.7881h-.86092z"/><path d="m-196.21145-2819.1064v-.5349l1.11258-1.1203c3.36424-3.2094 4.84768-4.8747 4.84768-6.8932 0-1.3422-.58278-2.6745-2.63576-2.6745-1.15232 0-2.05298.5853-2.56953 1.0193l-.35762-.5853c.78146-.6964 1.84106-1.1909 3.09934-1.1909 2.51656 0 3.36424 1.857 3.36424 3.2498 0 2.3214-1.72186 4.1884-4.75498 7.1051l-.86092.868v.0403h5.94702v.7368h-7.2053z"/></g></svg>