<?xml version="1.0" encoding="UTF-8" standalone="no"?>
<!DOCTYPE svg PUBLIC "-//W3C//DTD SVG 1.1//EN" "http://www.w3.org/Graphics/SVG/1.1/DTD/svg11.dtd">
<svg xmlns:dc="http://purl.org/dc/elements/1.1/" xmlns:xl="http://www.w3.org/1999/xlink" version="1.1" xmlns="http://www.w3.org/2000/svg" viewBox="-204.49355 -2834.0862 24 18" width="24" height="18">
  <defs/>
  <g id="SOURCES" stroke-dasharray="none" stroke="none" stroke-opacity="1" fill="none" fill-opacity="1">
    <title>SOURCES</title>
    <g id="SOURCES_New">
      <title>New</title>
      <g id="Group_10494">
        <g id="Graphic_10247"/>
        <g id="Group_10245">
          <title>layout-4</title>
          <g id="Graphic_10246">
            <path d="M -196.71577 -2818.864 L -192.438 -2818.864 C -191.79244 -2818.864 -191.27132 -2819.385 -191.27132 -2820.0307 L -191.27132 -2825.864 L -196.71577 -2825.864 Z M -197.49355 -2818.864 L -197.49355 -2823.5307 L -203.71577 -2823.5307 L -203.71577 -2820.0307 C -203.71577 -2819.385 -203.19466 -2818.864 -202.5491 -2818.864 Z M -197.49355 -2824.3084 L -197.49355 -2831.3084 L -202.5491 -2831.3084 C -203.19466 -2831.3084 -203.71577 -2830.7873 -203.71577 -2830.1418 L -203.71577 -2824.3084 Z M -196.71577 -2831.3084 L -196.71577 -2826.6418 L -191.27132 -2826.6418 L -191.27132 -2830.1418 C -191.27132 -2830.7873 -191.79244 -2831.3084 -192.438 -2831.3084 Z M -204.49355 -2830.1418 C -204.49355 -2831.215 -203.62244 -2832.0862 -202.5491 -2832.0862 L -192.438 -2832.0862 C -191.36466 -2832.0862 -190.49355 -2831.215 -190.49355 -2830.1418 L -190.49355 -2820.0307 C -190.49355 -2818.9573 -191.36466 -2818.0862 -192.438 -2818.0862 L -202.5491 -2818.0862 C -203.62244 -2818.0862 -204.49355 -2818.9573 -204.49355 -2820.0307 Z" fill="#999"/>
          </g>
        </g>
      </g>
    </g>
  </g>
</svg>
