<svg height="18" viewBox="-204.494 -2834.086 24 18" width="24" xmlns="http://www.w3.org/2000/svg"><path d="m-196.71577-2818.864h4.27777c.64556 0 1.16668-.521 1.16668-1.1667v-5.8333h-5.44445zm-.77778 0v-4.6667h-6.22222v3.5c0 .6457.52111 1.1667 1.16667 1.1667zm0-5.4444v-7h-5.05555c-.64556 0-1.16667.5211-1.16667 1.1666v5.8334zm.77778-7v4.6666h5.44445v-3.5c0-.6455-.52112-1.1666-1.16668-1.1666zm-7.77778 1.1666c0-1.0732.87111-1.9444 1.94445-1.9444h10.1111c1.07334 0 1.94445.8712 1.94445 1.9444v10.1111c0 1.0734-.87111 1.9445-1.94445 1.9445h-10.1111c-1.07334 0-1.94445-.8711-1.94445-1.9445z" fill="#999"/></svg>