<svg height="18" viewBox="-165.587 -2834.086 24 18" width="24" xmlns="http://www.w3.org/2000/svg"><path d="m-163.719-2828.353h.46667c.26133 0 .46667.2054.46667.4668 0 .2612-.20534.4666-.46667.4666h-1.86667c-.26133 0-.46666-.2054-.46666-.4666 0-.2614.20533-.4668.46666-.4668h.46667v-2.8h-.46667c-.26133 0-.46666-.2052-.46666-.4666s.20533-.4666.46666-.4666h.93334c.26133 0 .46666.2052.46666.4666zm-.93333 2.8v.4668c0 .2612-.20533.4666-.46667.4666-.26133 0-.46666-.2054-.46666-.4666v-.9334c0-.2614.20533-.4666.46666-.4666h1.86667c.26133 0 .46667.2052.46667.4666v.9334c0 .1212-.04667.2426-.14.3266l-1.07334 1.0734h.73734c.26133 0 .46666.2052.46666.4666s-.20533.4666-.46666.4666h-1.85734c-.42 0-.62533-.504-.32666-.7932l1.72666-1.7268v-.2706h-.93333zm-.46667 4.6668c-.26133 0-.46666-.2054-.46666-.4668 0-.2612.20533-.4666.46666-.4666h1.86667c.26133 0 .46667.2054.46667.4666v.9334c0 .1214-.04667.2426-.14.3266l-.14.14.14.14c.084.084.14.2054.14.3268v.9332c0 .2614-.20534.4668-.46667.4668h-1.86667c-.26133 0-.46666-.2054-.46666-.4668 0-.2612.20533-.4666.46666-.4666h1.4v-.2706l-.32666-.3268c-.18667-.1866-.18667-.476 0-.6626l.32666-.3266v-.2708h-1.4zm4.66667.9332c-.26133 0-.46667-.2052-.46667-.4666s.20534-.4666.46667-.4666h11.2c.26133 0 .46667.2052.46667.4666s-.20534.4666-.46667.4666zm0-4.6666c-.26133 0-.46667-.2054-.46667-.4666 0-.2614.20534-.4668.46667-.4668h11.2c.26133 0 .46667.2054.46667.4668 0 .2612-.20534.4666-.46667.4666zm0-4.6666c-.26133 0-.46667-.2054-.46667-.4668 0-.2612.20534-.4666.46667-.4666h11.2c.26133 0 .46667.2054.46667.4666 0 .2614-.20534.4668-.46667.4668z" fill="#999"/></svg>