<svg height="18" viewBox="-57.587 -2834.086 24 18" width="24" xmlns="http://www.w3.org/2000/svg"><path d="m-51.987094-2823.6862h6.65c.966 0 1.75.784 1.75 1.75v2.1c0 .966-.784 1.75-1.75 1.75h-10.5c-.966 0-1.75-.784-1.75-1.75v-10.5c0-.966.784-1.75 1.75-1.75h2.1c.966 0 1.75.784 1.75 1.75zm-.763 4.2h-2.387c-.196 0-.35-.154-.35-.35s.154-.35.35-.35h2.45v-1.4h-1.75c-.196 0-.35-.154-.35-.35s.154-.35.35-.35h1.75v-1.4h-2.45c-.196 0-.35-.154-.35-.35s.154-.35.35-.35h2.45v-1.4h-1.75c-.196 0-.35-.154-.35-.35s.154-.35.35-.35h1.75v-1.4h-2.45c-.196 0-.35-.154-.35-.35s.154-.35.35-.35h2.45v-1.4h-1.75c-.196 0-.35-.154-.35-.35s.154-.35.35-.35h1.687c-.147-.406-.532-.7-.987-.7h-2.1c-.581 0-1.05.469-1.05 1.05v10.5c0 .581.469 1.05 1.05 1.05h2.1c.455 0 .847-.294.987-.7zm.763-3.5v3.15c0 .392-.133.756-.35 1.05h7c.581 0 1.05-.469 1.05-1.05v-2.1c0-.581-.469-1.05-1.05-1.05zm4.9.7h1.4c.385 0 .7.315.7.7v1.4c0 .385-.315.7-.7.7h-1.4c-.385 0-.7-.315-.7-.7v-1.4c0-.385.315-.7.7-.7zm0 .7v1.4h1.4v-1.4z" fill="#999"/></svg>