<svg height="18" viewBox="-21.587 -2834.086 24 18" width="24" xmlns="http://www.w3.org/2000/svg"><path d="M-15.47-2831.323a6.3 6.3 0 1 0 7.028 4.837h-1.245v.35c0 .196-.154.35-.35.35h-1.05v.203l.595.595c.14.14.14.357 0 .497l-1.295 1.295v1.253a.381.381 0 0 1-.035.154l-.7 1.4-.063.09-.7.7a.347.347 0 0 1-.497 0l-.7-.7a.356.356 0 0 1-.105-.244v-1.953l-.595-.595a.356.356 0 0 1-.105-.245v-.553l-.56-.56-1.351-.672-.091-.063-.7-.7a.347.347 0 0 1 0-.497l.595-.595v-.553c0-.196.154-.35.35-.35h1.253l.595-.595c.14-.14.357-.14.497 0l.658.658 1.274.637h.469l.497-.497v-.413l-.595-.595a.356.356 0 0 1-.105-.245v-.35h-.7v.35c0 .196-.154.35-.35.35h-.7a.328.328 0 0 1-.245-.105l-.595-.595h-.553a.346.346 0 0 1-.245-.595l.595-.595v-.47l-.182-.37zm.75-.063l.098.189a.41.41 0 0 1 .035.154v.7a.328.328 0 0 1-.105.245l-.126.126a.293.293 0 0 1 .126.077l.595.595h.203v-.35c0-.196.154-.35.35-.35h1.4c.196 0 .35.154.35.35v.553l.595.595a.356.356 0 0 1 .105.245v.7a.328.328 0 0 1-.105.245l-.7.7a.356.356 0 0 1-.245.105h-.7a.381.381 0 0 1-.154-.035l-1.4-.7-.091-.063-.455-.455-.455.455a.356.356 0 0 1-.245.105h-1.05v.35a.328.328 0 0 1-.105.245l-.455.455.413.413 1.35.672.092.063.7.7a.356.356 0 0 1 .105.245v.553l.595.595a.356.356 0 0 1 .105.245v1.953l.35.35.413-.413.637-1.274v-1.316c0-.091.035-.182.105-.245l1.155-1.155-.455-.455a.356.356 0 0 1-.105-.245v-.7c0-.196.154-.35.35-.35h1.05v-.35c0-.196.154-.35.35-.35h1.393a6.302 6.302 0 0 0-5.943-4.2h-.133zm.133 13.3c-3.864 0-7-3.136-7-7s3.136-7 7-7 7 3.136 7 7-3.136 7-7 7z" fill="#999"/></svg>