<svg height="18" viewBox="13.503 -2834.086 24 18" width="24" xmlns="http://www.w3.org/2000/svg"><path d="m20.25303-2819.8362h1.5v-1.5h-1.5zm-.75 0v-1.5h-4.124999c-1.035 0-1.875-.84-1.875-1.875v-6c0-1.035.84-1.875 1.875-1.875h11.249999c1.035 0 1.875.84 1.875 1.875v6c0 1.035-.84 1.875-1.875 1.875h-4.125v1.5h1.125c.21 0 .375.165.375.375s-.165.375-.375.375h-5.249999c-.21 0-.375-.165-.375-.375s.165-.375.375-.375zm-4.124999-10.5c-.6225 0-1.125.5025-1.125 1.125v6c0 .6225.5025 1.125 1.125 1.125h11.249999c.6225 0 1.125-.5025 1.125-1.125v-6c0-.6225-.5025-1.125-1.125-1.125z" fill="#999"/></svg>