<svg height="18" viewBox="-850.497 -2806.737 24 18" width="24" xmlns="http://www.w3.org/2000/svg"><path d="M-840.938-2797.799h-6.059a.385.385 0 0 1-.389-.389c0-.217.171-.389.389-.389h6.059l-1.672-1.672a.385.385 0 0 1 0-.552.385.385 0 0 1 .552 0l2.333 2.333a.385.385 0 0 1 0 .552l-2.333 2.334a.385.385 0 0 1-.552 0 .385.385 0 0 1 0-.552l1.672-1.673zm-3.337-5.055a.385.385 0 0 1-.389.388.385.385 0 0 1-.388-.388c0-1.074.87-1.945 1.944-1.945h6.222c1.073 0 1.945.871 1.945 1.945v10.11a1.945 1.945 0 0 1-1.945 1.945h-6.222a1.945 1.945 0 0 1-1.945-1.944c0-.218.172-.389.39-.389.217 0 .388.171.388.389 0 .645.521 1.166 1.167 1.166h6.222c.646 0 1.167-.52 1.167-1.166v-10.111c0-.646-.521-1.167-1.167-1.167h-6.222c-.646 0-1.167.521-1.167 1.167zm-1.944 11.277c.218 0 .389.172.389.39a.385.385 0 0 1-.39.388h-2.332a1.945 1.945 0 0 1-1.945-1.944v-10.111c0-1.074.871-1.945 1.945-1.945h2.333c.218 0 .389.171.389.389a.385.385 0 0 1-.39.389h-2.332c-.646 0-1.167.521-1.167 1.167v10.11c0 .646.52 1.167 1.167 1.167z" fill="#999"/></svg>