<?xml version="1.0" encoding="UTF-8" standalone="no"?>
<!DOCTYPE svg PUBLIC "-//W3C//DTD SVG 1.1//EN" "http://www.w3.org/Graphics/SVG/1.1/DTD/svg11.dtd">
<svg xmlns:dc="http://purl.org/dc/elements/1.1/" xmlns:xl="http://www.w3.org/1999/xlink" version="1.1" xmlns="http://www.w3.org/2000/svg" viewBox="-814.497 -2806.737 24 18" width="24" height="18">
  <defs/>
  <g id="SOURCES" stroke-dasharray="none" stroke="none" stroke-opacity="1" fill="none" fill-opacity="1">
    <title>SOURCES</title>
    <g id="SOURCES_New">
      <title>New</title>
      <g id="Group_10466">
        <g id="Graphic_10314"/>
        <g id="Group_10315">
          <title>slider-rectangle-h</title>
          <g id="Graphic_10316">
            <path d="M -810.6081 -2792.6278 L -814.1081 -2792.6278 C -814.3259 -2792.6278 -814.497 -2792.8327 -814.497 -2793.0935 C -814.497 -2793.3543 -814.3259 -2793.5592 -814.1081 -2793.5592 L -810.6081 -2793.5592 L -810.6081 -2794.4907 C -810.6081 -2795.003 -810.2581 -2795.4222 -809.8303 -2795.4222 L -808.2747 -2795.4222 C -807.847 -2795.4222 -807.497 -2795.003 -807.497 -2794.4907 L -807.497 -2793.5592 L -800.8859 -2793.5592 C -800.6681 -2793.5592 -800.497 -2793.3543 -800.497 -2793.0935 C -800.497 -2792.8327 -800.6681 -2792.6278 -800.8859 -2792.6278 L -807.497 -2792.6278 L -807.497 -2791.6683 C -807.497 -2791.156 -807.847 -2790.737 -808.2747 -2790.737 L -809.8303 -2790.737 C -810.2581 -2790.737 -810.6081 -2791.156 -810.6081 -2791.6683 Z M -805.9414 -2797.285 L -814.1081 -2797.285 C -814.3259 -2797.285 -814.497 -2797.49 -814.497 -2797.751 C -814.497 -2798.0117 -814.3259 -2798.2166 -814.1081 -2798.2166 L -805.9414 -2798.2166 L -805.9414 -2799.148 C -805.9414 -2799.6604 -805.5914 -2800.0795 -805.1636 -2800.0795 L -803.6081 -2800.0795 C -803.1803 -2800.0795 -802.8303 -2799.6604 -802.8303 -2799.148 L -802.8303 -2798.2166 L -800.8859 -2798.2166 C -800.6681 -2798.2166 -800.497 -2798.0117 -800.497 -2797.751 C -800.497 -2797.49 -800.6681 -2797.285 -800.8859 -2797.285 L -802.8303 -2797.285 L -802.8303 -2796.3257 C -802.8303 -2795.8134 -803.1803 -2795.3942 -803.6081 -2795.3942 L -805.1636 -2795.3942 C -805.5914 -2795.3942 -805.9414 -2795.8134 -805.9414 -2796.3257 L -805.9414 -2797.285 Z M -812.9414 -2801.9425 L -814.1081 -2801.9425 C -814.3259 -2801.9425 -814.497 -2802.1474 -814.497 -2802.4082 C -814.497 -2802.669 -814.3259 -2802.874 -814.1081 -2802.874 L -812.9414 -2802.874 L -812.9414 -2803.8054 C -812.9414 -2804.3177 -812.5914 -2804.737 -812.1636 -2804.737 L -810.6081 -2804.737 C -810.1803 -2804.737 -809.8303 -2804.3177 -809.8303 -2803.8054 L -809.8303 -2802.874 L -800.8859 -2802.874 C -800.6681 -2802.874 -800.497 -2802.669 -800.497 -2802.4082 C -800.497 -2802.1474 -800.6681 -2801.9425 -800.8859 -2801.9425 L -809.8303 -2801.9425 L -809.8303 -2800.983 C -809.8303 -2800.4707 -810.1803 -2800.0516 -810.6081 -2800.0516 L -812.1636 -2800.0516 C -812.5914 -2800.0516 -812.9414 -2800.4707 -812.9414 -2800.983 Z M -812.1636 -2803.8054 L -812.1636 -2800.983 L -810.6081 -2800.983 L -810.6081 -2803.8054 Z M -805.1636 -2799.148 L -805.1636 -2796.3257 L -803.6081 -2796.3257 L -803.6081 -2799.148 L -805.1636 -2799.148 Z M -809.8303 -2794.4907 L -809.8303 -2791.6683 L -808.2747 -2791.6683 L -808.2747 -2794.4907 Z" fill="#999"/>
          </g>
        </g>
      </g>
    </g>
  </g>
</svg>
