<svg height="18" viewBox="-778.497 -2807.737 24 18" width="24" xmlns="http://www.w3.org/2000/svg"><path d="m-770.3696-2794.0137c.1474.8767.9063 1.54 1.82 1.54h.7368c1.42215 0 2.579-1.1569 2.579-2.579v-8.4737c-.4053 0-.73685-.3316-.73685-.7368v-.7368c0-.4053.33155-.737.73685-.737h.7368c.4053 0 .7369.3317.7369.737v.7368c0 .4052-.3316.7368-.7369.7368v8.4737c0 1.8347-1.481 3.3157-3.3158 3.3157h-.7368c-1.2968 0-2.3726-.9578-2.5495-2.2104-.0073 0-.0147 0-.02945 0-2.43895 0-4.42105-1.9821-4.42105-4.4211 0-2.181 1.5842-4.001 3.6695-4.3547-.1474-1.2821-1.2379-2.2768-2.5642-2.2768-1.4221 0-2.579 1.1568-2.579 2.579v8.4736c.4053 0 .7369.3316.7369.7368v.7369c0 .4052-.3316.7367-.7369.7367h-.7368c-.4053 0-.7369-.3315-.7369-.7367v-.7369c0-.4052.3316-.7368.7369-.7368v-8.4736c0-1.8348 1.481-3.316 3.3158-3.316 1.7094 0 3.1094 1.2896 3.29365 2.9475h.0221c2.43895 0 4.42105 1.9821 4.42105 4.421 0 2.1811-1.5842 3.9937-3.6621 4.3548zm2.1221-2.0558c-.0884-.2358-.2505-.4347-.4716-.5675l-1.12-.6704c-.361.2654-.8105.42-1.28945.42s-.92845-.1546-1.28945-.42l-1.12.6704c-.2211.1328-.3832.3317-.4716.5675.6779.8475 1.7168 1.3853 2.88105 1.3853s2.20315-.5378 2.88105-1.3853zm.4421-.7147c.2284-.479.3611-1.0168.3611-1.5843 0-2.0335-1.6506-3.6842-3.68425-3.6842s-3.68425 1.6507-3.68425 3.6842c0 .5675.1253 1.1053.3611 1.5843.14-.1916.3242-.3611.5379-.4864l.96525-.5821c-.24315-.3537-.39055-.7883-.39055-1.2526 0-1.2232.9874-2.2105 2.21055-2.2105s2.21055.9873 2.21055 2.2105c0 .4643-.14.8989-.39055 1.2526l.96525.5821c.2137.1253.3905.2948.5379.4864zm-3.32315-.8474c.81055 0 1.47365-.6632 1.47365-1.4737s-.6631-1.4737-1.47365-1.4737-1.47365.6632-1.47365 1.4737.6631 1.4737 1.47365 1.4737zm-6.63155 4.421v.7369h.7368v-.7369zm12.5263-11.7894v.7368h.7368v-.7368z" fill="#999"/></svg>