<?xml version="1.0" encoding="UTF-8" standalone="no"?>
<!DOCTYPE svg PUBLIC "-//W3C//DTD SVG 1.1//EN" "http://www.w3.org/Graphics/SVG/1.1/DTD/svg11.dtd">
<svg xmlns:dc="http://purl.org/dc/elements/1.1/" xmlns:xl="http://www.w3.org/1999/xlink" version="1.1" xmlns="http://www.w3.org/2000/svg" viewBox="-778.497 -2807.737 24 18" width="24" height="18">
  <defs/>
  <g id="SOURCES" stroke-dasharray="none" stroke="none" stroke-opacity="1" fill="none" fill-opacity="1">
    <title>SOURCES</title>
    <g id="SOURCES_New">
      <title>New</title>
      <g id="Group_10468">
        <g id="Graphic_10310"/>
        <g id="Group_10311">
          <title>user-journey</title>
          <g id="Graphic_10312">
            <path d="M -770.3696 -2794.0137 C -770.2222 -2793.137 -769.4633 -2792.4737 -768.5496 -2792.4737 L -767.8128 -2792.4737 C -766.39065 -2792.4737 -765.2338 -2793.6306 -765.2338 -2795.0527 L -765.2338 -2803.5264 C -765.6391 -2803.5264 -765.97065 -2803.858 -765.97065 -2804.2632 L -765.97065 -2805 C -765.97065 -2805.4053 -765.6391 -2805.737 -765.2338 -2805.737 L -764.497 -2805.737 C -764.0917 -2805.737 -763.7601 -2805.4053 -763.7601 -2805 L -763.7601 -2804.2632 C -763.7601 -2803.858 -764.0917 -2803.5264 -764.497 -2803.5264 L -764.497 -2795.0527 C -764.497 -2793.218 -765.978 -2791.737 -767.8128 -2791.737 L -768.5496 -2791.737 C -769.8464 -2791.737 -770.9222 -2792.6948 -771.0991 -2793.9474 C -771.1064 -2793.9474 -771.1138 -2793.9474 -771.12855 -2793.9474 C -773.5675 -2793.9474 -775.5496 -2795.9295 -775.5496 -2798.3685 C -775.5496 -2800.5495 -773.9654 -2802.3695 -771.8801 -2802.7232 C -772.0275 -2804.0053 -773.118 -2805 -774.4443 -2805 C -775.8664 -2805 -777.0233 -2803.8432 -777.0233 -2802.421 L -777.0233 -2793.9474 C -776.618 -2793.9474 -776.2864 -2793.6158 -776.2864 -2793.2106 L -776.2864 -2792.4737 C -776.2864 -2792.0685 -776.618 -2791.737 -777.0233 -2791.737 L -777.7601 -2791.737 C -778.1654 -2791.737 -778.497 -2792.0685 -778.497 -2792.4737 L -778.497 -2793.2106 C -778.497 -2793.6158 -778.1654 -2793.9474 -777.7601 -2793.9474 L -777.7601 -2802.421 C -777.7601 -2804.2558 -776.2791 -2805.737 -774.4443 -2805.737 C -772.7349 -2805.737 -771.3349 -2804.4474 -771.15065 -2802.7895 C -771.15065 -2802.7895 -771.1359 -2802.7895 -771.12855 -2802.7895 C -768.6896 -2802.7895 -766.7075 -2800.8074 -766.7075 -2798.3685 C -766.7075 -2796.1874 -768.2917 -2794.3748 -770.3696 -2794.0137 Z M -768.2475 -2796.0695 C -768.3359 -2796.3053 -768.498 -2796.5042 -768.7191 -2796.637 L -769.8391 -2797.3074 C -770.2001 -2797.042 -770.6496 -2796.8874 -771.12855 -2796.8874 C -771.6075 -2796.8874 -772.057 -2797.042 -772.418 -2797.3074 L -773.538 -2796.637 C -773.7591 -2796.5042 -773.9212 -2796.3053 -774.0096 -2796.0695 C -773.3317 -2795.222 -772.2928 -2794.6842 -771.12855 -2794.6842 C -769.9643 -2794.6842 -768.9254 -2795.222 -768.2475 -2796.0695 Z M -767.8054 -2796.7842 C -767.577 -2797.2632 -767.4443 -2797.801 -767.4443 -2798.3685 C -767.4443 -2800.402 -769.0949 -2802.0527 -771.12855 -2802.0527 C -773.1622 -2802.0527 -774.8128 -2800.402 -774.8128 -2798.3685 C -774.8128 -2797.801 -774.6875 -2797.2632 -774.4517 -2796.7842 C -774.3117 -2796.9758 -774.1275 -2797.1453 -773.9138 -2797.2706 L -772.94855 -2797.8527 C -773.1917 -2798.2064 -773.3391 -2798.641 -773.3391 -2799.1053 C -773.3391 -2800.3285 -772.3517 -2801.3158 -771.12855 -2801.3158 C -769.9054 -2801.3158 -768.918 -2800.3285 -768.918 -2799.1053 C -768.918 -2798.641 -769.058 -2798.2064 -769.30855 -2797.8527 L -768.3433 -2797.2706 C -768.1296 -2797.1453 -767.9528 -2796.9758 -767.8054 -2796.7842 Z M -771.12855 -2797.6316 C -770.318 -2797.6316 -769.6549 -2798.2948 -769.6549 -2799.1053 C -769.6549 -2799.9158 -770.318 -2800.579 -771.12855 -2800.579 C -771.9391 -2800.579 -772.6022 -2799.9158 -772.6022 -2799.1053 C -772.6022 -2798.2948 -771.9391 -2797.6316 -771.12855 -2797.6316 Z M -777.7601 -2793.2106 L -777.7601 -2792.4737 L -777.0233 -2792.4737 L -777.0233 -2793.2106 Z M -765.2338 -2805 L -765.2338 -2804.2632 L -764.497 -2804.2632 L -764.497 -2805 Z" fill="#999"/>
          </g>
        </g>
      </g>
    </g>
  </g>
</svg>
