<?xml version="1.0" encoding="UTF-8" standalone="no"?>
<!DOCTYPE svg PUBLIC "-//W3C//DTD SVG 1.1//EN" "http://www.w3.org/Graphics/SVG/1.1/DTD/svg11.dtd">
<svg xmlns:dc="http://purl.org/dc/elements/1.1/" xmlns:xl="http://www.w3.org/1999/xlink" version="1.1" xmlns="http://www.w3.org/2000/svg" viewBox="-741.5871 -2807.737 24 18" width="24" height="18">
  <defs/>
  <g id="SOURCES" stroke-dasharray="none" stroke="none" stroke-opacity="1" fill="none" fill-opacity="1">
    <title>SOURCES</title>
    <g id="SOURCES_New">
      <title>New</title>
      <g id="Group_10504">
        <g id="Graphic_10232"/>
        <g id="Group_10230">
          <title>eye</title>
          <g id="Graphic_10231">
            <path d="M -741.56165 -2798.865 C -740.1099 -2802.7958 -735.9106 -2804.7434 -732.1794 -2803.2167 C -730.2798 -2802.439 -728.7738 -2800.8624 -728.0411 -2798.865 C -728.0072 -2798.7792 -728.0072 -2798.6865 -728.0411 -2798.608 C -729.4861 -2794.6843 -733.6922 -2792.7295 -737.4234 -2794.2562 C -739.3229 -2795.0338 -740.8222 -2796.6105 -741.56165 -2798.608 C -741.5956 -2798.6936 -741.5956 -2798.7864 -741.56165 -2798.865 Z M -737.1724 -2794.9197 C -733.8279 -2793.557 -730.0695 -2795.262 -728.7195 -2798.7364 C -729.4047 -2800.4843 -730.74115 -2801.8683 -732.4236 -2802.5532 C -735.7681 -2803.9158 -739.5197 -2802.2108 -740.8765 -2798.7364 C -740.1913 -2796.9886 -738.8548 -2795.6046 -737.1724 -2794.9197 Z M -734.798 -2795.8828 C -736.29726 -2795.8828 -737.5116 -2797.1598 -737.5116 -2798.7364 C -737.5116 -2800.313 -736.29726 -2801.59 -734.798 -2801.59 C -733.2987 -2801.59 -732.0844 -2800.313 -732.0844 -2798.7364 C -732.0844 -2797.1598 -733.2987 -2795.8828 -734.798 -2795.8828 Z M -734.798 -2796.5962 C -733.6718 -2796.5962 -732.7628 -2797.5522 -732.7628 -2798.7364 C -732.7628 -2799.9207 -733.6718 -2800.8767 -734.798 -2800.8767 C -735.9241 -2800.8767 -736.8332 -2799.9207 -736.8332 -2798.7364 C -736.8332 -2797.5522 -735.9241 -2796.5962 -734.798 -2796.5962 Z" fill="#999"/>
          </g>
        </g>
      </g>
    </g>
  </g>
</svg>
