<svg height="18" viewBox="-886.497 -2806.737 24 18" width="24" xmlns="http://www.w3.org/2000/svg"><path d="m-873.2747-2802.4655v-.3888c0-.6457-.5212-1.1667-1.1667-1.1667h-10.1111c-.6456 0-1.1667.521-1.1667 1.1667v.3888zm0 .7778h-12.4445v8.9445c0 .6455.5211 1.1666 1.1667 1.1666h10.1111c.6455 0 1.1667-.5211 1.1667-1.1666zm-13.2223-1.1666c0-1.0734.8711-1.9445 1.9445-1.9445h10.1111c1.0733 0 1.9444.8711 1.9444 1.9445v10.1111c0 1.0732-.8711 1.9444-1.9444 1.9444h-10.1111c-1.0734 0-1.9445-.8712-1.9445-1.9444zm8.5556 3.8888c0-.6455.5211-1.1665 1.1667-1.1665h.7777c.6456 0 1.1667.521 1.1667 1.1665v4.6667c0 .6456-.5211 1.1668-1.1667 1.1668h-.7777c-.6456 0-1.1667-.5212-1.1667-1.1668zm.7778 0v4.6667c0 .2178.1711.3888.3889.3888h.7777c.2178 0 .3889-.171.3889-.3888v-4.6667c0-.2177-.1711-.3888-.3889-.3888h-.7777c-.2178 0-.3889.1711-.3889.3888zm-6.6111-.3888c-.2178 0-.3889-.1712-.3889-.3889 0-.2178.1711-.3888.3889-.3888h3.8888c.2178 0 .3889.171.3889.3888 0 .2177-.1711.3889-.3889.3889zm0 1.5555c-.2178 0-.3889-.1712-.3889-.3889 0-.2178.1711-.3889.3889-.3889h3.8888c.2178 0 .3889.1711.3889.3889 0 .2177-.1711.3889-.3889.3889zm0 1.5556c-.2178 0-.3889-.1711-.3889-.3888 0-.218.1711-.389.3889-.389h2.3333c.2178 0 .3889.171.3889.389 0 .2177-.1711.3888-.3889.3888zm.7777.7777h2.3334c.6455 0 1.1666.5212 1.1666 1.1667 0 .6456-.5211 1.1668-1.1666 1.1668h-2.3334c-.6455 0-1.1666-.5212-1.1666-1.1668 0-.6455.5211-1.1667 1.1666-1.1667zm0 .7778c-.2177 0-.3889.1711-.3889.3889s.1712.3888.3889.3888h2.3334c.2177 0 .3889-.171.3889-.3888s-.1712-.3889-.3889-.3889z" fill="#999"/></svg>