<?xml version="1.0" encoding="UTF-8" standalone="no"?>
<!DOCTYPE svg PUBLIC "-//W3C//DTD SVG 1.1//EN" "http://www.w3.org/Graphics/SVG/1.1/DTD/svg11.dtd">
<svg xmlns:dc="http://purl.org/dc/elements/1.1/" xmlns:xl="http://www.w3.org/1999/xlink" version="1.1" xmlns="http://www.w3.org/2000/svg" viewBox="-706.497 -2806.737 24 18" width="24" height="18">
  <defs/>
  <g id="SOURCES" stroke-dasharray="none" stroke="none" stroke-opacity="1" fill="none" fill-opacity="1">
    <title>SOURCES</title>
    <g id="SOURCES_New">
      <title>New</title>
      <g id="Group_10471">
        <g id="Graphic_10306"/>
        <g id="Group_10307">
          <title>my-location</title>
          <g id="Graphic_10308">
            <path d="M -693.72045 -2797.4325 C -693.8726 -2794.4804 -696.24045 -2792.1125 -699.1926 -2791.9604 L -699.1926 -2791.0412 C -699.1926 -2790.8708 -699.3265 -2790.737 -699.497 -2790.737 C -699.6674 -2790.737 -699.8013 -2790.8708 -699.8013 -2791.0412 L -699.8013 -2791.9604 C -702.7535 -2792.1125 -705.1213 -2794.4804 -705.2735 -2797.4325 L -706.1926 -2797.4325 C -706.36306 -2797.4325 -706.497 -2797.5664 -706.497 -2797.737 C -706.497 -2797.9073 -706.36306 -2798.0412 -706.1926 -2798.0412 L -705.2735 -2798.0412 C -705.1213 -2800.9934 -702.7535 -2803.3612 -699.8013 -2803.5134 L -699.8013 -2804.4325 C -699.8013 -2804.603 -699.6674 -2804.737 -699.497 -2804.737 C -699.3265 -2804.737 -699.1926 -2804.603 -699.1926 -2804.4325 L -699.1926 -2803.5134 C -696.24045 -2803.3612 -693.8726 -2800.9934 -693.72045 -2798.0412 L -692.8013 -2798.0412 C -692.6309 -2798.0412 -692.497 -2797.9073 -692.497 -2797.737 C -692.497 -2797.5664 -692.6309 -2797.4325 -692.8013 -2797.4325 Z M -699.497 -2792.563 C -696.6422 -2792.563 -694.32306 -2794.882 -694.32306 -2797.737 C -694.32306 -2800.5917 -696.6422 -2802.9108 -699.497 -2802.9108 C -702.35175 -2802.9108 -704.6709 -2800.5917 -704.6709 -2797.737 C -704.6709 -2794.882 -702.35175 -2792.563 -699.497 -2792.563 Z M -699.497 -2794.9977 C -701.0126 -2794.9977 -702.2361 -2796.2212 -702.2361 -2797.737 C -702.2361 -2799.2525 -701.0126 -2800.476 -699.497 -2800.476 C -697.9813 -2800.476 -696.7578 -2799.2525 -696.7578 -2797.737 C -696.7578 -2796.2212 -697.9813 -2794.9977 -699.497 -2794.9977 Z M -699.497 -2795.6064 C -698.3222 -2795.6064 -697.3665 -2796.562 -697.3665 -2797.737 C -697.3665 -2798.9117 -698.3222 -2799.8673 -699.497 -2799.8673 C -700.67175 -2799.8673 -701.6274 -2798.9117 -701.6274 -2797.737 C -701.6274 -2796.562 -700.67175 -2795.6064 -699.497 -2795.6064 Z" fill="#999"/>
          </g>
        </g>
      </g>
    </g>
  </g>
</svg>
