<?xml version="1.0" encoding="UTF-8" standalone="no"?>
<!DOCTYPE svg PUBLIC "-//W3C//DTD SVG 1.1//EN" "http://www.w3.org/Graphics/SVG/1.1/DTD/svg11.dtd">
<svg xmlns:dc="http://purl.org/dc/elements/1.1/" xmlns:xl="http://www.w3.org/1999/xlink" version="1.1" xmlns="http://www.w3.org/2000/svg" viewBox="-166.70993 -2805.737 15.207604 16" width="15.207604" height="16">
  <defs/>
  <g id="SOURCES" stroke-dasharray="none" stroke="none" stroke-opacity="1" fill="none" fill-opacity="1">
    <title>SOURCES</title>
    <g id="SOURCES_New">
      <title>New</title>
      <g id="Group_10241">
        <title>git-pull</title>
        <g id="Graphic_10242">
          <path d="M -158.13765 -2803.3357 L -157.50533 -2803.3357 C -155.51234 -2803.3357 -153.90353 -2801.727 -153.90353 -2799.734 L -153.90353 -2799.3017 C -152.54285 -2799.1096 -151.50233 -2797.941 -151.50233 -2796.5323 C -151.50233 -2794.9875 -152.75896 -2793.731 -154.30373 -2793.731 C -155.8485 -2793.731 -157.10513 -2794.9875 -157.10513 -2796.5323 C -157.10513 -2797.941 -156.06461 -2799.1096 -154.70393 -2799.3017 L -154.70393 -2799.734 C -154.70393 -2801.2786 -155.96056 -2802.5353 -157.50533 -2802.5353 L -158.13765 -2802.5353 L -157.21719 -2801.6148 C -157.0571 -2801.4547 -157.0571 -2801.2066 -157.21719 -2801.0465 C -157.37727 -2800.8865 -157.6254 -2800.8865 -157.78547 -2801.0465 L -159.38627 -2802.6473 C -159.54635 -2802.8074 -159.54635 -2803.0555 -159.38627 -2803.2156 L -157.78547 -2804.8164 C -157.6254 -2804.9765 -157.37727 -2804.9765 -157.21719 -2804.8164 C -157.0571 -2804.6563 -157.0571 -2804.4082 -157.21719 -2804.248 L -158.13765 -2803.3277 Z M -164.30873 -2795.2997 L -164.30873 -2800.158 C -165.66941 -2800.3502 -166.70993 -2801.5188 -166.70993 -2802.9275 C -166.70993 -2804.4802 -165.4533 -2805.737 -163.90853 -2805.737 C -162.36376 -2805.737 -161.10713 -2804.4802 -161.10713 -2802.9355 C -161.10713 -2801.5268 -162.14765 -2800.3582 -163.50833 -2800.166 L -163.50833 -2795.3077 C -162.14765 -2795.1156 -161.10713 -2793.947 -161.10713 -2792.5383 C -161.10713 -2790.9935 -162.36376 -2789.737 -163.90853 -2789.737 C -165.4533 -2789.737 -166.70993 -2790.9935 -166.70993 -2792.5383 C -166.70993 -2793.947 -165.66941 -2795.1156 -164.30873 -2795.3077 Z M -165.90953 -2792.5303 C -165.90953 -2791.4257 -165.01309 -2790.5293 -163.90853 -2790.5293 C -162.80398 -2790.5293 -161.90753 -2791.4257 -161.90753 -2792.5303 C -161.90753 -2793.6348 -162.80398 -2794.5313 -163.90853 -2794.5313 C -165.01309 -2794.5313 -165.90953 -2793.6348 -165.90953 -2792.5303 Z M -165.90953 -2802.9355 C -165.90953 -2801.831 -165.01309 -2800.9345 -163.90853 -2800.9345 C -162.80398 -2800.9345 -161.90753 -2801.831 -161.90753 -2802.9355 C -161.90753 -2804.04 -162.80398 -2804.9365 -163.90853 -2804.9365 C -165.01309 -2804.9365 -165.90953 -2804.04 -165.90953 -2802.9355 Z M -154.30373 -2794.5313 C -153.19918 -2794.5313 -152.30273 -2795.4277 -152.30273 -2796.5323 C -152.30273 -2797.6368 -153.19918 -2798.5333 -154.30373 -2798.5333 C -155.40828 -2798.5333 -156.30473 -2797.6368 -156.30473 -2796.5323 C -156.30473 -2795.4277 -155.40828 -2794.5313 -154.30373 -2794.5313 Z" fill="#999"/>
        </g>
      </g>
    </g>
  </g>
</svg>
