<svg height="16" viewBox="-166.71 -2805.737 15.208 16" width="15.208" xmlns="http://www.w3.org/2000/svg"><path d="m-158.13765-2803.3357h.63232c1.99299 0 3.6018 1.6087 3.6018 3.6017v.4323c1.36068.1921 2.4012 1.3607 2.4012 2.7694 0 1.5448-1.25663 2.8013-2.8014 2.8013s-2.8014-1.2565-2.8014-2.8013c0-1.4087 1.04052-2.5773 2.4012-2.7694v-.4323c0-1.5446-1.25663-2.8013-2.8014-2.8013h-.63232l.92046.9205c.16009.1601.16009.4082 0 .5683-.16008.16-.40821.16-.56828 0l-1.6008-1.6008c-.16008-.1601-.16008-.4082 0-.5683l1.6008-1.6008c.16007-.1601.4082-.1601.56828 0 .16009.1601.16009.4082 0 .5684l-.92046.9203zm-6.17108 8.036v-4.8583c-1.36068-.1922-2.4012-1.3608-2.4012-2.7695 0-1.5527 1.25663-2.8095 2.8014-2.8095s2.8014 1.2568 2.8014 2.8015c0 1.4087-1.04052 2.5773-2.4012 2.7695v4.8583c1.36068.1921 2.4012 1.3607 2.4012 2.7694 0 1.5448-1.25663 2.8013-2.8014 2.8013s-2.8014-1.2565-2.8014-2.8013c0-1.4087 1.04052-2.5773 2.4012-2.7694zm-1.6008 2.7694c0 1.1046.89644 2.001 2.001 2.001 1.10455 0 2.001-.8964 2.001-2.001 0-1.1045-.89645-2.001-2.001-2.001-1.10456 0-2.001.8965-2.001 2.001zm0-10.4052c0 1.1045.89644 2.001 2.001 2.001 1.10455 0 2.001-.8965 2.001-2.001s-.89645-2.001-2.001-2.001c-1.10456 0-2.001.8965-2.001 2.001zm11.6058 8.4042c1.10455 0 2.001-.8964 2.001-2.001 0-1.1045-.89645-2.001-2.001-2.001s-2.001.8965-2.001 2.001c0 1.1046.89645 2.001 2.001 2.001z" fill="#999"/></svg>