<svg height="18" viewBox="-594.983 -2807.737 24 18" width="24" xmlns="http://www.w3.org/2000/svg"><path d="M-590.874-2799.227l-2.842 1.463c-.35.182-.567.539-.567.931v.546c0 .581.47 1.05 1.05 1.05.196 0 .35.154.35.35s-.154.35-.35.35a1.75 1.75 0 0 1-1.75-1.75v-.546c0-.658.364-1.253.952-1.554l2.352-1.211a3.496 3.496 0 0 1-1.197-2.639 3.49 3.49 0 0 1 3.493-3.5 3.5 3.5 0 0 1 2.898 1.533.341.341 0 0 1-.09.483.341.341 0 0 1-.484-.091 2.793 2.793 0 0 0-2.317-1.225 2.8 2.8 0 0 0-2.8 2.8c0 .987.518 1.89 1.344 2.394a.351.351 0 0 1 .12.483.317.317 0 0 1-.155.133zm2.863 2.989l-2.856 1.302a1.046 1.046 0 0 0-.616.959v.497c0 .581.47 1.05 1.05 1.05h7.7c.581 0 1.05-.469 1.05-1.05v-.497c0-.413-.238-.784-.616-.959l-2.856-1.302c-.434.196-.917.301-1.428.301s-.994-.105-1.428-.301zm-.728-.441a3.501 3.501 0 0 1 2.156-6.258 3.501 3.501 0 0 1 2.156 6.258l2.422 1.099c.623.287 1.03.91 1.03 1.596v.497a1.75 1.75 0 0 1-1.75 1.75h-7.708a1.75 1.75 0 0 1-1.75-1.75v-.497c0-.686.4-1.309 1.03-1.596l2.421-1.099zm2.156.042a2.8 2.8 0 1 0 0-5.6 2.8 2.8 0 1 0 0 5.6z" fill="#999"/></svg>