<svg height="18" viewBox="-562.274 -2807.74 24 18" width="24" xmlns="http://www.w3.org/2000/svg"><path d="m-559.7516-2797.8837h3.7593l-1.87965-5.2349zm-.30394.8567-1.43976 4.0097c-.07996.2227-.3119.3341-.5199.2483-.20794-.0855-.3119-.334-.2319-.5568l3.9992-11.1379c.128-.3683.6159-.3683.7439 0l3.99924 11.1379c.07996.2228-.02399.4713-.23194.5568-.208.0858-.4399-.0256-.5199-.2483l-1.43975-4.0097zm12.94959-1.885c.024.0515.032.1115.032.1715v.1715.257 4.2837c0 .2399.17595.4283.39995.4283.2239 0 .3999.1886.3999.4284 0 .2399-.176.4284-.3999.4284-.42395 0-.7999-.2398-1.01584-.5998-.35996.3685-.84786.5998-1.38376.5998h-1.5997c-1.5357 0-2.39954-.7368-2.39954-2.1418s.79184-1.902 2.93544-2.339c.05334-.0115.1093-.023.168-.0343.3519-.0771.5759-.12.79984-.1799.83186-.2228 1.23176-.5912 1.28776-1.1481-.072-1.2851-.7039-1.8677-1.9916-1.8677-1.4078 0-1.99966.4283-1.99966 1.285 0 .24-.17594.4285-.39994.4285-.22394 0-.3999-.1885-.3999-.4285 0-1.422 1.0078-2.1418 2.7995-2.1418 1.62367 0 2.5755.8311 2.76745 2.3988zm-.76785 4.027v-2.2277c-.29595.2142-.6639.3857-1.1038.5055-.23995.06-.4719.12-.83984.1972-.05333.0113-.10931.0227-.16796.034-1.7677.36-2.2876.66-2.2876 1.4995s.4719 1.2851 1.5997 1.2851h1.5997c.6639 0 1.1998-.574 1.1998-1.2851z" fill="#999"/></svg>