<?xml version="1.0" encoding="UTF-8" standalone="no"?>
<!DOCTYPE svg PUBLIC "-//W3C//DTD SVG 1.1//EN" "http://www.w3.org/Graphics/SVG/1.1/DTD/svg11.dtd">
<svg xmlns:dc="http://purl.org/dc/elements/1.1/" xmlns:xl="http://www.w3.org/1999/xlink" version="1.1" xmlns="http://www.w3.org/2000/svg" viewBox="-488.73985 -2807.737 24 18" width="24" height="18">
  <defs/>
  <g id="SOURCES" stroke-dasharray="none" stroke="none" stroke-opacity="1" fill="none" fill-opacity="1">
    <title>SOURCES</title>
    <g id="SOURCES_New">
      <title>New</title>
      <g id="Group_10479">
        <g id="Graphic_10282"/>
        <g id="Group_10283">
          <title>compass</title>
          <g id="Graphic_10284">
            <path d="M -480.36085 -2797.561 C -480.37485 -2797.519 -480.40285 -2797.47 -480.43785 -2797.435 C -480.47285 -2797.4 -480.51485 -2797.372 -480.56385 -2797.358 L -484.05685 -2795.958 C -484.34385 -2795.846 -484.62385 -2796.126 -484.51185 -2796.413 L -483.11185 -2799.906 C -483.09785 -2799.948 -483.06985 -2799.997 -483.03485 -2800.032 C -482.99985 -2800.067 -482.95785 -2800.095 -482.90885 -2800.109 L -479.41585 -2801.509 C -479.12885 -2801.621 -478.84885 -2801.341 -478.96085 -2801.054 Z M -482.16685 -2799.661 L -480.81585 -2798.31 L -479.91285 -2800.557 L -482.15985 -2799.654 Z M -481.31285 -2797.813 L -482.66385 -2799.164 L -483.56685 -2796.917 L -481.31985 -2797.82 Z M -481.73985 -2791.737 C -485.60385 -2791.737 -488.73985 -2794.873 -488.73985 -2798.737 C -488.73985 -2802.601 -485.60385 -2805.737 -481.73985 -2805.737 C -477.87585 -2805.737 -474.73985 -2802.601 -474.73985 -2798.737 C -474.73985 -2794.873 -477.87585 -2791.737 -481.73985 -2791.737 Z M -481.73985 -2792.437 C -478.26085 -2792.437 -475.43985 -2795.258 -475.43985 -2798.737 C -475.43985 -2802.216 -478.26085 -2805.037 -481.73985 -2805.037 C -485.21885 -2805.037 -488.03985 -2802.216 -488.03985 -2798.737 C -488.03985 -2795.258 -485.21885 -2792.437 -481.73985 -2792.437 Z" fill="#999"/>
          </g>
        </g>
      </g>
    </g>
  </g>
</svg>
