<svg height="18" viewBox="-452.99 -2807.737 24.25 18" width="24.25" xmlns="http://www.w3.org/2000/svg"><g fill="none"><path d="m-450.74535-2795.9914-.08242-.5304c-.13186-.9319.36264-1.9785 1.46704-3.0252 1.15383-1.061 1.58243-1.8064 1.58243-2.6092 0-1.0178-.7253-1.8208-2.3407-1.8208-.7912 0-1.6813.2294-2.22525.6165l-.3956-.6022c.77472-.5303 1.97802-.7743 2.80219-.7743 2.2088 0 3.19781 1.2904 3.19781 2.5234 0 .9749-.56045 1.8066-1.78025 2.9534-1.0714 1.0322-1.4505 1.8495-1.3846 2.6522l.033.6166h-.89013zm-.37912 2.466c0-.4588.36264-.8029.85717-.8029.4945 0 .82415.3441.82415.8029 0 .4158-.32965.7884-.85715.7884-.52747 0-.85714-.3726-.82417-.7884z" fill="#999"/><path d="m-450.74535-2795.9914-.08242-.5304c-.13186-.9319.36264-1.9785 1.46704-3.0252 1.15383-1.061 1.58243-1.8064 1.58243-2.6092 0-1.0178-.7253-1.8208-2.3407-1.8208-.7912 0-1.6813.2294-2.22525.6165l-.3956-.6022c.77472-.5303 1.97802-.7743 2.80219-.7743 2.2088 0 3.19781 1.2904 3.19781 2.5234 0 .9749-.56045 1.8066-1.78025 2.9534-1.0714 1.0322-1.4505 1.8495-1.3846 2.6522l.033.6166h-.89013zm-.37912 2.466c0-.4588.36264-.8029.85717-.8029.4945 0 .82415.3441.82415.8029 0 .4158-.32965.7884-.85715.7884-.52747 0-.85714-.3726-.82417-.7884z" stroke="#999" stroke-linejoin="round" stroke-width=".5"/></g></svg>