<svg height="18" viewBox="-452.99 -2807.737 24.25 18" width="24.25" xmlns="http://www.w3.org/2000/svg"><g fill="none"><path d="M-450.745-2795.991l-.083-.53c-.132-.933.363-1.98 1.467-3.026 1.154-1.061 1.583-1.806 1.583-2.61 0-1.017-.726-1.82-2.341-1.82-.791 0-1.681.23-2.225.617l-.396-.603c.775-.53 1.978-.774 2.802-.774 2.21 0 3.198 1.29 3.198 2.523 0 .975-.56 1.807-1.78 2.954-1.072 1.032-1.45 1.85-1.385 2.652l.033.617h-.89zm-.38 2.466c0-.46.363-.803.858-.803.494 0 .824.344.824.803 0 .415-.33.788-.857.788-.528 0-.857-.373-.824-.788z" fill="#999"/><path d="M-450.745-2795.991l-.083-.53c-.132-.933.363-1.98 1.467-3.026 1.154-1.061 1.583-1.806 1.583-2.61 0-1.017-.726-1.82-2.341-1.82-.791 0-1.681.23-2.225.617l-.396-.603c.775-.53 1.978-.774 2.802-.774 2.21 0 3.198 1.29 3.198 2.523 0 .975-.56 1.807-1.78 2.954-1.072 1.032-1.45 1.85-1.385 2.652l.033.617h-.89zm-.38 2.466c0-.46.363-.803.858-.803.494 0 .824.344.824.803 0 .415-.33.788-.857.788-.528 0-.857-.373-.824-.788z" stroke="#999" stroke-linejoin="round" stroke-width=".5"/></g></svg>