<?xml version="1.0" encoding="UTF-8" standalone="no"?>
<!DOCTYPE svg PUBLIC "-//W3C//DTD SVG 1.1//EN" "http://www.w3.org/Graphics/SVG/1.1/DTD/svg11.dtd">
<svg xmlns:dc="http://purl.org/dc/elements/1.1/" xmlns:xl="http://www.w3.org/1999/xlink" version="1.1" xmlns="http://www.w3.org/2000/svg" viewBox="-416.73985 -2807.737 24 18" width="24" height="18">
  <defs/>
  <g id="SOURCES" stroke-dasharray="none" stroke="none" stroke-opacity="1" fill="none" fill-opacity="1">
    <title>SOURCES</title>
    <g id="SOURCES_New">
      <title>New</title>
      <g id="Group_10484">
        <g id="Graphic_10275"/>
        <g id="Group_10276">
          <title>tray-plus</title>
          <g id="Graphic_10277">
            <path d="M -404.2954 -2804.1813 L -403.12874 -2804.1813 C -402.91096 -2804.1813 -402.73985 -2804.0102 -402.73985 -2803.7924 C -402.73985 -2803.5747 -402.91096 -2803.4035 -403.12874 -2803.4035 L -404.2954 -2803.4035 L -404.2954 -2802.237 C -404.2954 -2802.019 -404.4665 -2801.848 -404.6843 -2801.848 C -404.90208 -2801.848 -405.0732 -2802.019 -405.0732 -2802.237 L -405.0732 -2803.4035 L -406.23985 -2803.4035 C -406.45763 -2803.4035 -406.62874 -2803.5747 -406.62874 -2803.7924 C -406.62874 -2804.0102 -406.45763 -2804.1813 -406.23985 -2804.1813 L -405.0732 -2804.1813 L -405.0732 -2805.348 C -405.0732 -2805.5658 -404.90208 -2805.737 -404.6843 -2805.737 C -404.4665 -2805.737 -404.2954 -2805.5658 -404.2954 -2805.348 Z M -415.9621 -2796.4035 L -411.6843 -2796.4035 C -411.4665 -2796.4035 -411.2954 -2796.2324 -411.2954 -2796.0147 C -411.2954 -2795.369 -410.7743 -2794.848 -410.12874 -2794.848 L -409.35096 -2794.848 C -408.7054 -2794.848 -408.1843 -2795.369 -408.1843 -2796.0147 C -408.1843 -2796.2324 -408.0132 -2796.4035 -407.7954 -2796.4035 L -403.51763 -2796.4035 L -403.51763 -2800.6813 C -403.51763 -2800.899 -403.3465 -2801.0702 -403.12874 -2801.0702 C -402.91096 -2801.0702 -402.73985 -2800.899 -402.73985 -2800.6813 L -402.73985 -2793.6813 C -402.73985 -2792.608 -403.61096 -2791.737 -404.6843 -2791.737 L -414.7954 -2791.737 C -415.86874 -2791.737 -416.73985 -2792.608 -416.73985 -2793.6813 L -416.73985 -2803.7924 C -416.73985 -2804.8658 -415.86874 -2805.737 -414.7954 -2805.737 L -407.7954 -2805.737 C -407.57763 -2805.737 -407.4065 -2805.5658 -407.4065 -2805.348 C -407.4065 -2805.1302 -407.57763 -2804.959 -407.7954 -2804.959 L -414.7954 -2804.959 C -415.44096 -2804.959 -415.9621 -2804.438 -415.9621 -2803.7924 Z M -415.9621 -2795.6258 L -415.9621 -2793.6813 C -415.9621 -2793.0358 -415.44096 -2792.5147 -414.7954 -2792.5147 L -404.6843 -2792.5147 C -404.03874 -2792.5147 -403.51763 -2793.0358 -403.51763 -2793.6813 L -403.51763 -2795.6258 L -407.4454 -2795.6258 C -407.6243 -2794.739 -408.40985 -2794.0702 -409.35096 -2794.0702 L -410.12874 -2794.0702 C -411.06985 -2794.0702 -411.8554 -2794.739 -412.0343 -2795.6258 Z" fill="#999"/>
          </g>
        </g>
      </g>
    </g>
  </g>
</svg>
