<?xml version="1.0" encoding="UTF-8" standalone="no"?>
<!DOCTYPE svg PUBLIC "-//W3C//DTD SVG 1.1//EN" "http://www.w3.org/Graphics/SVG/1.1/DTD/svg11.dtd">
<svg xmlns:dc="http://purl.org/dc/elements/1.1/" xmlns:xl="http://www.w3.org/1999/xlink" version="1.1" xmlns="http://www.w3.org/2000/svg" viewBox="-310.70993 -2806.937 24 18" width="24" height="18">
  <defs/>
  <g id="SOURCES" stroke-dasharray="none" stroke="none" stroke-opacity="1" fill="none" fill-opacity="1">
    <title>SOURCES</title>
    <g id="SOURCES_New">
      <title>New</title>
      <g id="Group_10488">
        <g id="Graphic_10227"/>
        <g id="Group_10225">
          <title>user-interview</title>
          <g id="Graphic_10226">
            <path d="M -301.29613 -2797.1354 L -298.35644 -2795.8015 C -297.60028 -2795.453 -297.1075 -2794.697 -297.1075 -2793.8644 L -297.1075 -2793.261 C -297.1075 -2792.0887 -298.05908 -2791.137 -299.23155 -2791.137 L -308.5859 -2791.137 C -309.75836 -2791.137 -310.70993 -2792.0887 -310.70993 -2793.261 L -310.70993 -2793.8644 C -310.70993 -2794.697 -310.22565 -2795.453 -309.461 -2795.8015 L -306.5213 -2797.1354 C -307.51536 -2797.917 -308.15258 -2799.1235 -308.15258 -2800.483 C -308.16107 -2802.828 -306.25792 -2804.731 -303.91297 -2804.731 C -301.568 -2804.731 -299.66486 -2802.828 -299.66486 -2800.483 C -299.66486 -2799.1235 -300.30208 -2797.9086 -301.29613 -2797.1354 Z M -305.6462 -2796.6 L -309.11265 -2795.02 C -309.57144 -2794.816 -309.8603 -2794.357 -309.8603 -2793.856 L -309.8603 -2793.2526 C -309.8603 -2792.5475 -309.29107 -2791.9782 -308.5859 -2791.9782 L -299.24005 -2791.9782 C -298.53487 -2791.9782 -297.96562 -2792.5475 -297.96562 -2793.2526 L -297.96562 -2793.856 C -297.96562 -2794.357 -298.2545 -2794.8075 -298.7133 -2795.02 L -302.17974 -2796.6 C -302.7065 -2796.3623 -303.29274 -2796.2348 -303.91297 -2796.2348 C -304.5332 -2796.2348 -305.11943 -2796.3623 -305.6462 -2796.6 Z M -303.91297 -2797.0844 C -302.0353 -2797.0844 -300.5145 -2798.6053 -300.5145 -2800.483 C -300.5145 -2802.3606 -302.0353 -2803.8814 -303.91297 -2803.8814 C -305.79063 -2803.8814 -307.31145 -2802.3606 -307.31145 -2800.483 C -307.31145 -2798.6053 -305.79063 -2797.0844 -303.91297 -2797.0844 Z M -297.84667 -2802.3096 C -298.0081 -2802.4796 -298.0081 -2802.743 -297.84667 -2802.913 C -297.67675 -2803.0743 -297.41337 -2803.0743 -297.24344 -2802.913 C -295.92653 -2801.5705 -295.92653 -2799.4124 -297.24344 -2798.07 C -297.40487 -2797.9 -297.67675 -2797.9 -297.84667 -2798.07 C -298.0166 -2798.2314 -298.0166 -2798.5033 -297.84667 -2798.6732 C -296.8526 -2799.6843 -296.8526 -2801.3156 -297.84667 -2802.3266 Z M -296.12194 -2803.992 C -296.30036 -2804.1448 -296.30886 -2804.4167 -296.15593 -2804.595 C -296.003 -2804.7735 -295.7311 -2804.782 -295.5527 -2804.629 C -293.2672 -2802.573 -293.0803 -2799.047 -295.14488 -2796.7616 C -295.27232 -2796.617 -295.40826 -2796.4812 -295.5527 -2796.3538 C -295.7311 -2796.201 -295.9945 -2796.2093 -296.15593 -2796.3878 C -296.31735 -2796.5662 -296.30036 -2796.8296 -296.12194 -2796.991 C -296.003 -2797.1014 -295.88405 -2797.212 -295.7736 -2797.3393 C -294.02338 -2799.2765 -294.1848 -2802.2587 -296.12194 -2804.009 Z" fill="#999"/>
          </g>
        </g>
      </g>
    </g>
  </g>
</svg>
