<svg height="16.5" viewBox="-158.524 -3115.908 16.5 16.5" width="16.5" xmlns="http://www.w3.org/2000/svg"><g fill="none"><path d="m-144.61725-3113.3148c-3.12419-3.1242-8.1895-3.1242-11.31369 0-3.12421 3.1242-3.12421 8.1896 0 11.3138 3.12419 3.124 8.1895 3.124 11.31369 0 3.12421-3.1242 3.12421-8.1896 0-11.3138m-3.07116.8008-7.44164 7.4418c-1.10842-2.0798-.78613-4.7218.96687-6.4748s4.39491-2.0753 6.47477-.967zm-5.17137 9.712 7.44164-7.4416c1.10842 2.0799.78613 4.7216-.96687 6.4746-1.75299 1.753-4.39492 2.0755-6.47477.967z" fill="#999"/><path d="m-144.61725-3113.3148c-3.12419-3.1242-8.1895-3.1242-11.31369 0-3.12421 3.1242-3.12421 8.1896 0 11.3138 3.12419 3.124 8.1895 3.124 11.31369 0 3.12421-3.1242 3.12421-8.1896 0-11.3138m-3.07116.8008-7.44164 7.4418c-1.10842-2.0798-.78613-4.7218.96687-6.4748s4.39491-2.0753 6.47477-.967zm-5.17137 9.712 7.44164-7.4416c1.10842 2.0799.78613 4.7216-.96687 6.4746-1.75299 1.753-4.39492 2.0755-6.47477.967z" stroke="#fff" stroke-linecap="round" stroke-linejoin="round" stroke-width=".5"/></g></svg>