<svg height="16" viewBox="-774.274 -3115.658 16 16" width="16" xmlns="http://www.w3.org/2000/svg"><path d="M-767.399-3112.595v2.725l-5.196-3.649a1.061 1.061 0 0 0-1.497.297 1.187 1.187 0 0 0-.182.627v9.876c0 .614.482 1.113 1.074 1.113.215 0 .43-.061.605-.19l5.196-3.648v2.725c0 .614.482 1.113 1.074 1.113.215 0 .43-.061.606-.19l6.94-4.873a1.22 1.22 0 0 0 0-1.976l-6.94-4.874a1.061 1.061 0 0 0-1.498.297 1.187 1.187 0 0 0-.182.627zm.651 6.432h-.785l-5.433 3.815a.406.406 0 0 1-.234.074.43.43 0 0 1-.423-.438V-3112.602c0-.087.026-.168.072-.243.13-.195.39-.249.585-.114l5.398 3.796h.82v-3.439c0-.087.026-.168.072-.243.13-.195.39-.249.586-.114l6.94 4.88a.532.532 0 0 1 0 .856l-6.94 4.875a.407.407 0 0 1-.235.074.43.43 0 0 1-.423-.438z" fill="#fff"/></svg>