<svg height="16.5" viewBox="-158.524 -3115.908 16.5 16.5" width="16.5" xmlns="http://www.w3.org/2000/svg"><g fill="none"><path d="M-144.617-3113.315A8 8 0 1 0-155.931-3102a8 8 0 0 0 11.314-11.314m-3.071.801l-7.442 7.442a5.502 5.502 0 0 1 7.442-7.442zm-5.172 9.712l7.442-7.442a5.502 5.502 0 0 1-7.442 7.442z" fill="#999"/><path d="M-144.617-3113.315A8 8 0 1 0-155.931-3102a8 8 0 0 0 11.314-11.314m-3.071.801l-7.442 7.442a5.502 5.502 0 0 1 7.442-7.442zm-5.172 9.712l7.442-7.442a5.502 5.502 0 0 1-7.442 7.442z" stroke="#fff" stroke-linecap="round" stroke-linejoin="round" stroke-width=".5"/></g></svg>