<?xml version="1.0" encoding="UTF-8" standalone="no"?>
<!DOCTYPE svg PUBLIC "-//W3C//DTD SVG 1.1//EN" "http://www.w3.org/Graphics/SVG/1.1/DTD/svg11.dtd">
<svg xmlns="http://www.w3.org/2000/svg" xmlns:xl="http://www.w3.org/1999/xlink" version="1.1" xmlns:dc="http://purl.org/dc/elements/1.1/" viewBox="-550.2741 -3115.658 16.000008 16.000008" width="16.000008" height="16.000008">
  <defs/>
  <g id="SOURCES" stroke-opacity="1" fill="none" stroke="none" fill-opacity="1" stroke-dasharray="none">
    <title>SOURCES</title>
    <g id="SOURCES_Dark">
      <title>Dark</title>
      <g id="Graphic_11154"/>
      <g id="Graphic_11153">
        <path d="M -546.0474 -3112.324 L -547.94076 -3112.324 C -548.1274 -3112.324 -548.2741 -3112.4708 -548.2741 -3112.6575 C -548.2741 -3112.844 -548.1274 -3112.9908 -547.94076 -3112.9908 L -545.2741 -3112.9908 C -545.0874 -3112.9908 -544.94076 -3112.844 -544.94076 -3112.6575 L -544.94076 -3109.9908 C -544.94076 -3109.804 -545.0874 -3109.6575 -545.2741 -3109.6575 C -545.46076 -3109.6575 -545.6074 -3109.804 -545.6074 -3109.9908 L -545.6074 -3111.824 C -546.8541 -3110.824 -547.6074 -3109.304 -547.6074 -3107.6575 C -547.6074 -3104.7108 -545.22076 -3102.324 -542.2741 -3102.324 C -539.3274 -3102.324 -536.94076 -3104.7108 -536.94076 -3107.6575 C -536.94076 -3110.604 -539.1541 -3112.824 -541.96076 -3112.984 C -542.1474 -3112.9975 -542.2874 -3113.1508 -542.2741 -3113.3375 C -542.26076 -3113.524 -542.1074 -3113.664 -541.9274 -3113.6508 C -538.76076 -3113.4708 -536.2741 -3110.844 -536.2741 -3107.664 C -536.2741 -3104.484 -538.96076 -3101.664 -542.2741 -3101.664 C -545.5874 -3101.664 -548.2741 -3104.344 -548.2741 -3107.6575 C -548.2741 -3109.504 -547.44076 -3111.204 -546.0474 -3112.324 Z" fill="white"/>
        <path d="M -546.0474 -3112.324 L -547.94076 -3112.324 C -548.1274 -3112.324 -548.2741 -3112.4708 -548.2741 -3112.6575 C -548.2741 -3112.844 -548.1274 -3112.9908 -547.94076 -3112.9908 L -545.2741 -3112.9908 C -545.0874 -3112.9908 -544.94076 -3112.844 -544.94076 -3112.6575 L -544.94076 -3109.9908 C -544.94076 -3109.804 -545.0874 -3109.6575 -545.2741 -3109.6575 C -545.46076 -3109.6575 -545.6074 -3109.804 -545.6074 -3109.9908 L -545.6074 -3111.824 C -546.8541 -3110.824 -547.6074 -3109.304 -547.6074 -3107.6575 C -547.6074 -3104.7108 -545.22076 -3102.324 -542.2741 -3102.324 C -539.3274 -3102.324 -536.94076 -3104.7108 -536.94076 -3107.6575 C -536.94076 -3110.604 -539.1541 -3112.824 -541.96076 -3112.984 C -542.1474 -3112.9975 -542.2874 -3113.1508 -542.2741 -3113.3375 C -542.26076 -3113.524 -542.1074 -3113.664 -541.9274 -3113.6508 C -538.76076 -3113.4708 -536.2741 -3110.844 -536.2741 -3107.664 C -536.2741 -3104.484 -538.96076 -3101.664 -542.2741 -3101.664 C -545.5874 -3101.664 -548.2741 -3104.344 -548.2741 -3107.6575 C -548.2741 -3109.504 -547.44076 -3111.204 -546.0474 -3112.324 Z" stroke="white" stroke-linecap="butt" stroke-linejoin="round" stroke-width=".25"/>
      </g>
    </g>
  </g>
</svg>
