<?xml version="1.0" encoding="UTF-8" standalone="no"?>
<!DOCTYPE svg PUBLIC "-//W3C//DTD SVG 1.1//EN" "http://www.w3.org/Graphics/SVG/1.1/DTD/svg11.dtd">
<svg xmlns="http://www.w3.org/2000/svg" xmlns:xl="http://www.w3.org/1999/xlink" version="1.1" xmlns:dc="http://purl.org/dc/elements/1.1/" viewBox="-383.0258 -3115.658 16.666662 16.000008" width="16.666662" height="16.000008">
  <defs/>
  <g id="SOURCES" stroke-opacity="1" fill="none" stroke="none" fill-opacity="1" stroke-dasharray="none">
    <title>SOURCES</title>
    <g id="SOURCES_Dark">
      <title>Dark</title>
      <g id="Graphic_11244">
        <title>views/tabs/view.inspector</title>
        <path d="M -374.69246 -3113.1124 C -378.3288 -3113.1124 -381.43427 -3110.8506 -382.69245 -3107.658 C -381.43427 -3104.465 -378.3288 -3102.2034 -374.69246 -3102.2034 C -371.0561 -3102.2034 -367.95064 -3104.465 -366.69246 -3107.658 C -367.95064 -3110.8506 -371.0561 -3113.1124 -374.69246 -3113.1124 Z M -374.69246 -3104.0215 C -376.69973 -3104.0215 -378.3288 -3105.6506 -378.3288 -3107.658 C -378.3288 -3109.665 -376.69973 -3111.2943 -374.69246 -3111.2943 C -372.6852 -3111.2943 -371.0561 -3109.665 -371.0561 -3107.658 C -371.0561 -3105.6506 -372.6852 -3104.0215 -374.69246 -3104.0215 Z M -374.69246 -3109.8397 C -375.89973 -3109.8397 -376.87427 -3108.865 -376.87427 -3107.658 C -376.87427 -3106.4506 -375.89973 -3105.476 -374.69246 -3105.476 C -373.4852 -3105.476 -372.51064 -3106.4506 -372.51064 -3107.658 C -372.51064 -3108.865 -373.4852 -3109.8397 -374.69246 -3109.8397 Z" fill="#999"/>
        <path d="M -374.69246 -3113.1124 C -378.3288 -3113.1124 -381.43427 -3110.8506 -382.69245 -3107.658 C -381.43427 -3104.465 -378.3288 -3102.2034 -374.69246 -3102.2034 C -371.0561 -3102.2034 -367.95064 -3104.465 -366.69246 -3107.658 C -367.95064 -3110.8506 -371.0561 -3113.1124 -374.69246 -3113.1124 Z M -374.69246 -3104.0215 C -376.69973 -3104.0215 -378.3288 -3105.6506 -378.3288 -3107.658 C -378.3288 -3109.665 -376.69973 -3111.2943 -374.69246 -3111.2943 C -372.6852 -3111.2943 -371.0561 -3109.665 -371.0561 -3107.658 C -371.0561 -3105.6506 -372.6852 -3104.0215 -374.69246 -3104.0215 Z M -374.69246 -3109.8397 C -375.89973 -3109.8397 -376.87427 -3108.865 -376.87427 -3107.658 C -376.87427 -3106.4506 -375.89973 -3105.476 -374.69246 -3105.476 C -373.4852 -3105.476 -372.51064 -3106.4506 -372.51064 -3107.658 C -372.51064 -3108.865 -373.4852 -3109.8397 -374.69246 -3109.8397 Z" stroke="white" stroke-linecap="round" stroke-linejoin="round" stroke-width=".6666665"/>
      </g>
      <g id="Graphic_12164"/>
    </g>
  </g>
</svg>
