<svg height="16" viewBox="-718.274 -3115.658 16 16" width="16" xmlns="http://www.w3.org/2000/svg"><path d="m-705.3368-3111.7084h-9.8831c-.2427 0-.4382.1954-.4382.4382 0 .0876.027.1752.0742.2427l4.8741 7.1865c.1618.236.4854.2966.7213.1348.05395-.0338.10115-.0808.13485-.1348l4.88085-7.1865c.1348-.2022.0809-.4719-.1146-.6067-.0742-.0472-.1551-.0742-.2427-.0742zm0-.6741c.2224 0 .4382.0675.6269.1887.5056.3506.6405 1.0382.29665 1.5506l-4.87415 7.1864c-.0876.1281-.1955.2358-.3168.3168-.5461.371-1.2876.2293-1.6584-.3168l-4.8741-7.1864c-.1281-.1821-.1888-.4045-.1888-.627 0-.6135.4989-1.1123 1.11236-1.1123z" fill="#fff"/></svg>