<svg height="16" viewBox="-130.274 -3115.658 16 16" width="16" xmlns="http://www.w3.org/2000/svg"><g fill="none"><path d="M-126.56-3105.944h-1.714v4.286h4.286v-1.714h-2.572zm-1.714-3.428h1.714v-2.572h2.572v-1.714h-4.286zm10.286 6h-2.572v1.714h4.286v-4.286h-1.714zm-2.572-10.286v1.714h2.572v2.572h1.714v-4.286z" fill="#999"/><path d="M-126.56-3105.944h-1.714v4.286h4.286v-1.714h-2.572zm-1.714-3.428h1.714v-2.572h2.572v-1.714h-4.286zm10.286 6h-2.572v1.714h4.286v-4.286h-1.714zm-2.572-10.286v1.714h2.572v2.572h1.714v-4.286z" stroke="#fff" stroke-linecap="round" stroke-linejoin="round" stroke-width=".5"/><path d="M-117.368-3114.065l1.501 1.5-11.314 11.314-1.5-1.5z" fill="#999"/><path d="M-117.368-3114.065l1.501 1.5-11.314 11.314-1.5-1.5z" stroke="#fff" stroke-linecap="round" stroke-linejoin="round" stroke-width=".5"/></g></svg>