<?xml version="1.0" encoding="UTF-8" standalone="no"?>
<!DOCTYPE svg PUBLIC "-//W3C//DTD SVG 1.1//EN" "http://www.w3.org/Graphics/SVG/1.1/DTD/svg11.dtd">
<svg xmlns="http://www.w3.org/2000/svg" xmlns:xl="http://www.w3.org/1999/xlink" version="1.1" xmlns:dc="http://purl.org/dc/elements/1.1/" viewBox="-774.2741 -3115.658 16.000008 16.000008" width="16.000008" height="16.000008">
  <defs/>
  <g id="SOURCES" stroke-opacity="1" fill="none" stroke="none" fill-opacity="1" stroke-dasharray="none">
    <title>SOURCES</title>
    <g id="SOURCES_Dark">
      <title>Dark</title>
      <g id="Graphic_11166"/>
      <g id="Graphic_11165">
        <path d="M -767.399 -3112.595 L -767.399 -3109.8697 L -772.5945 -3113.5187 C -773.0893 -3113.8626 -773.7533 -3113.7277 -774.0918 -3113.222 C -774.209 -3113.0334 -774.2741 -3112.8176 -774.2741 -3112.595 L -774.2741 -3112.595 L -774.2741 -3102.719 C -774.2741 -3102.1054 -773.79235 -3101.6065 -773.1999 -3101.6065 C -772.9851 -3101.6065 -772.7703 -3101.667 -772.5945 -3101.7953 L -767.399 -3105.4443 L -767.399 -3102.719 C -767.399 -3102.1054 -766.9173 -3101.6065 -766.3249 -3101.6065 C -766.11 -3101.6065 -765.8952 -3101.667 -765.7194 -3101.7953 L -758.77965 -3106.6694 C -758.2523 -3107.04 -758.1156 -3107.7817 -758.4737 -3108.3278 C -758.5518 -3108.449 -758.656 -3108.557 -758.77965 -3108.6446 L -765.7194 -3113.5187 C -766.2142 -3113.8626 -766.8782 -3113.7277 -767.2167 -3113.222 C -767.3339 -3113.0334 -767.399 -3112.8176 -767.399 -3112.595 Z M -766.748 -3106.1634 L -767.5333 -3106.1634 L -772.9656 -3102.348 C -773.0307 -3102.301 -773.1153 -3102.274 -773.1999 -3102.274 C -773.4343 -3102.274 -773.6231 -3102.4694 -773.6231 -3102.712 L -773.6231 -3112.595 L -773.6231 -3112.602 C -773.6231 -3112.6895 -773.597 -3112.7704 -773.5515 -3112.8446 C -773.4213 -3113.04 -773.1609 -3113.094 -772.9656 -3112.9592 L -767.5685 -3109.1634 L -766.748 -3109.1634 L -766.748 -3112.595 L -766.748 -3112.602 C -766.748 -3112.6895 -766.722 -3112.7704 -766.6764 -3112.8446 C -766.5462 -3113.04 -766.2858 -3113.094 -766.0905 -3112.9592 L -759.1507 -3108.0784 C -759.09865 -3108.0446 -759.0531 -3107.9975 -759.0205 -3107.9435 C -758.8643 -3107.7076 -758.9229 -3107.384 -759.1507 -3107.222 L -766.0905 -3102.348 C -766.1556 -3102.301 -766.2402 -3102.274 -766.3249 -3102.274 C -766.5592 -3102.274 -766.748 -3102.4694 -766.748 -3102.712 Z" fill="white"/>
      </g>
    </g>
  </g>
</svg>
