<svg height="16" viewBox="-354.607 -3115.658 16.667 16" width="16.667" xmlns="http://www.w3.org/2000/svg"><g fill="none"><path d="m-346.2741-3113.1124c-3.63636 0-6.7418 2.2618-8 5.4544 1.2582 3.193 4.36364 5.4546 8 5.4546s6.7418-2.2616 8-5.4546c-1.2582-3.1926-4.36364-5.4544-8-5.4544zm0 9.0909c-2.00727 0-3.63636-1.6291-3.63636-3.6365 0-2.007 1.62909-3.6363 3.63636-3.6363s3.63636 1.6293 3.63636 3.6363c0 2.0074-1.62909 3.6365-3.63636 3.6365zm0-5.8182c-1.20727 0-2.1818.9747-2.1818 2.1817 0 1.2074.97453 2.182 2.1818 2.182s2.1818-.9746 2.1818-2.182c0-1.207-.97453-2.1817-2.1818-2.1817z" fill="#999"/><path d="m-346.2741-3113.1124c-3.63636 0-6.7418 2.2618-8 5.4544 1.2582 3.193 4.36364 5.4546 8 5.4546s6.7418-2.2616 8-5.4546c-1.2582-3.1926-4.36364-5.4544-8-5.4544zm0 9.0909c-2.00727 0-3.63636-1.6291-3.63636-3.6365 0-2.007 1.62909-3.6363 3.63636-3.6363s3.63636 1.6293 3.63636 3.6363c0 2.0074-1.62909 3.6365-3.63636 3.6365zm0-5.8182c-1.20727 0-2.1818.9747-2.1818 2.1817 0 1.2074.97453 2.182 2.1818 2.182s2.1818-.9746 2.1818-2.182c0-1.207-.97453-2.1817-2.1818-2.1817z" stroke="#fff" stroke-linecap="round" stroke-linejoin="round" stroke-width=".667"/><path d="m-341.3675-3114.065 1.50052 1.5005-11.31372 11.3137-1.5005-1.5005z" fill="#999"/><path d="m-341.3675-3114.065 1.50052 1.5005-11.31372 11.3137-1.5005-1.5005z" stroke="#fff" stroke-linecap="round" stroke-linejoin="round" stroke-width=".5"/></g></svg>