<svg height="16" viewBox="-802.274 -3115.658 16 16" width="16" xmlns="http://www.w3.org/2000/svg"><g fill="none"><path d="m-791.1041-3107.5367c.21-.18.53-.16.71.05s.16.53-.05.71l-3.5 3c-.19.16-.46.16-.65 0l-3.5-3c-.21-.18-.23-.5-.05-.71s.5-.23.71-.05l3.17 2.72zm0-4c.21-.18.53-.16.71.05s.16.53-.05.71l-3.5 3c-.19.16-.46.16-.65 0l-3.51-3c-.21-.18-.23-.5-.05-.71s.5-.23.71-.05l3.17 2.72z" fill="#fff"/><path d="m-791.1041-3106.2163c.21-.18.53-.16.71.05s.16.53-.05.71l-3.5 3c-.19.16-.46.16-.65 0l-3.5-3c-.21-.18-.23-.5-.05-.71s.5-.23.71-.05l3.17 2.72zm0-4c.21-.18.53-.16.71.05s.16.53-.05.71l-3.5 3c-.19.16-.46.16-.65 0l-3.51-3c-.21-.18-.23-.5-.05-.71s.5-.23.71-.05l3.17 2.72z" fill="#999"/></g></svg>