<svg height="16" viewBox="-690.274 -3115.658 16 16" width="16" xmlns="http://www.w3.org/2000/svg"><g fill="none"><path d="M-678.57-3113.22l1.896 1.768-8.72 8.846h-1.895v-1.895z" fill="#999"/><g fill="#fff"><path d="M-677.891-3110.176l-1.251-1.251 1.25 1.25-7.581 7.583zm-9.478 5.686v1.896zm8.846-8.846l-7.582 7.583zm1.895 1.896l-.733-.733.733.733-.897.897z"/><path d="M-678.523-3113.652a.296.296 0 0 0-.221.095l-8.846 8.846a.322.322 0 0 0-.095.221v1.896c0 .177.139.316.316.316h1.896a.297.297 0 0 0 .22-.095l8.847-8.846a.313.313 0 0 0 0-.449l-1.896-1.895a.317.317 0 0 0-.221-.095zm.632 3.027l-1.447-1.447.815-.815 1.447 1.447zm-9.162 7.715v-1.447l7.266-7.266 1.447 1.447-7.266 7.266z"/></g></g></svg>