<svg height="16" viewBox="-438.274 -3115.658 16 16" width="16" xmlns="http://www.w3.org/2000/svg"><g fill="none"><path d="m-430.1529-3110.828c-.18-.21-.16-.53.05-.71s.53-.16.71.05l3 3.5c.16.19.16.46 0 .65l-3 3.5c-.18.21-.5.23-.71.05s-.23-.5-.05-.71l2.72-3.17zm-4 0c-.18-.21-.16-.53.05-.71s.53-.16.71.05l3 3.5c.16.19.16.46 0 .65l-3 3.51c-.18.21-.5.23-.71.05s-.23-.5-.05-.71l2.72-3.17z" fill="#fff"/><path d="m-428.9925-3110.828c-.18-.21-.16-.53.05-.71s.53-.16.71.05l3 3.5c.16.19.16.46 0 .65l-3 3.5c-.18.21-.5.23-.71.05s-.23-.5-.05-.71l2.72-3.17zm-4 0c-.18-.21-.16-.53.05-.71s.53-.16.71.05l3 3.5c.16.19.16.46 0 .65l-3 3.51c-.18.21-.5.23-.71.05s-.23-.5-.05-.71l2.72-3.17z" fill="#999"/></g></svg>