<svg height="16" viewBox="-886.274 -3115.658 16 16" width="16" xmlns="http://www.w3.org/2000/svg"><g fill="none"><path d="m-882.7503-3112.138h8.960156v8.960159h-8.960156z" fill="#000"/><path d="m-882.7503-3112.138h8.960156v8.960159h-8.960156z" stroke="#000" stroke-linecap="round" stroke-linejoin="round" stroke-width=".5"/><path d="m-882.7503-3112.138h2.986719v2.98672h-2.986719z" fill="#999a99"/><path d="m-882.7503-3112.138h2.986719v2.98672h-2.986719z" stroke="#fff" stroke-linecap="round" stroke-linejoin="round" stroke-width=".5"/><path d="m-879.7636-3112.138h2.986719v2.98672h-2.986719z" fill="#999a99"/><path d="m-879.7636-3112.138h2.986719v2.98672h-2.986719z" stroke="#fff" stroke-linecap="round" stroke-linejoin="round" stroke-width=".5"/><path d="m-876.7769-3112.138h2.986719v2.98672h-2.986719z" fill="#999a99"/><path d="m-876.7769-3112.138h2.986719v2.98672h-2.986719z" stroke="#fff" stroke-linecap="round" stroke-linejoin="round" stroke-width=".5"/><path d="m-882.7503-3109.1513h2.986719v2.98672h-2.986719z" fill="#999a99"/><path d="m-882.7503-3109.1513h2.986719v2.98672h-2.986719z" stroke="#fff" stroke-linecap="round" stroke-linejoin="round" stroke-width=".5"/><path d="m-879.7636-3109.1513h2.986719v2.98672h-2.986719z" fill="#999a99"/><path d="m-879.7636-3109.1513h2.986719v2.98672h-2.986719z" stroke="#fff" stroke-linecap="round" stroke-linejoin="round" stroke-width=".5"/><path d="m-876.7769-3109.1513h2.986719v2.98672h-2.986719z" fill="#999a99"/><path d="m-876.7769-3109.1513h2.986719v2.98672h-2.986719z" stroke="#fff" stroke-linecap="round" stroke-linejoin="round" stroke-width=".5"/><path d="m-882.758-3106.1723h2.986719v2.98672h-2.986719z" fill="#999a99"/><path d="m-882.758-3106.1723h2.986719v2.98672h-2.986719z" stroke="#fff" stroke-linecap="round" stroke-linejoin="round" stroke-width=".5"/><path d="m-879.7713-3106.1723h2.986719v2.98672h-2.986719z" fill="#999a99"/><path d="m-879.7713-3106.1723h2.986719v2.98672h-2.986719z" stroke="#fff" stroke-linecap="round" stroke-linejoin="round" stroke-width=".5"/><path d="m-876.7846-3106.1723h2.986719v2.98672h-2.986719z" fill="#999a99"/><path d="m-876.7846-3106.1723h2.986719v2.98672h-2.986719z" stroke="#fff" stroke-linecap="round" stroke-linejoin="round" stroke-width=".5"/></g></svg>