<?xml version="1.0" encoding="UTF-8" standalone="no"?>
<!DOCTYPE svg PUBLIC "-//W3C//DTD SVG 1.1//EN" "http://www.w3.org/Graphics/SVG/1.1/DTD/svg11.dtd">
<svg xmlns="http://www.w3.org/2000/svg" xmlns:xl="http://www.w3.org/1999/xlink" version="1.1" xmlns:dc="http://purl.org/dc/elements/1.1/" viewBox="-130.2741 -3115.658 16.000008 16.000008" width="16.000008" height="16.000008">
  <defs/>
  <g id="SOURCES" stroke-opacity="1" fill="none" stroke="none" fill-opacity="1" stroke-dasharray="none">
    <title>SOURCES</title>
    <g id="SOURCES_Dark">
      <title>Dark</title>
      <g id="Graphic_11199"/>
      <g id="Graphic_11200">
        <path d="M -126.5598 -3105.9436 L -128.27409 -3105.9436 L -128.27409 -3101.658 L -123.98838 -3101.658 L -123.98838 -3103.3722 L -126.5598 -3103.3722 L -126.5598 -3105.9436 Z M -128.27409 -3109.3722 L -126.5598 -3109.3722 L -126.5598 -3111.9436 L -123.98838 -3111.9436 L -123.98838 -3113.658 L -128.27409 -3113.658 L -128.27409 -3109.3722 Z M -117.98838 -3103.3722 L -120.5598 -3103.3722 L -120.5598 -3101.658 L -116.27409 -3101.658 L -116.27409 -3105.9436 L -117.98838 -3105.9436 L -117.98838 -3103.3722 Z M -120.5598 -3113.658 L -120.5598 -3111.9436 L -117.98838 -3111.9436 L -117.98838 -3109.3722 L -116.27409 -3109.3722 L -116.27409 -3113.658 L -120.5598 -3113.658 Z" fill="#999"/>
        <path d="M -126.5598 -3105.9436 L -128.27409 -3105.9436 L -128.27409 -3101.658 L -123.98838 -3101.658 L -123.98838 -3103.3722 L -126.5598 -3103.3722 L -126.5598 -3105.9436 Z M -128.27409 -3109.3722 L -126.5598 -3109.3722 L -126.5598 -3111.9436 L -123.98838 -3111.9436 L -123.98838 -3113.658 L -128.27409 -3113.658 L -128.27409 -3109.3722 Z M -117.98838 -3103.3722 L -120.5598 -3103.3722 L -120.5598 -3101.658 L -116.27409 -3101.658 L -116.27409 -3105.9436 L -117.98838 -3105.9436 L -117.98838 -3103.3722 Z M -120.5598 -3113.658 L -120.5598 -3111.9436 L -117.98838 -3111.9436 L -117.98838 -3109.3722 L -116.27409 -3109.3722 L -116.27409 -3113.658 L -120.5598 -3113.658 Z" stroke="white" stroke-linecap="round" stroke-linejoin="round" stroke-width=".5"/>
      </g>
      <g id="Graphic_11197">
        <path d="M -117.3675 -3114.065 L -115.86697 -3112.5645 L -127.18068 -3101.2508 L -128.68121 -3102.7513 Z" fill="#999"/>
        <path d="M -117.3675 -3114.065 L -115.86697 -3112.5645 L -127.18068 -3101.2508 L -128.68121 -3102.7513 Z" stroke="white" stroke-linecap="round" stroke-linejoin="round" stroke-width=".5"/>
      </g>
    </g>
  </g>
</svg>
