<?xml version="1.0" encoding="UTF-8" standalone="no"?>
<!DOCTYPE svg PUBLIC "-//W3C//DTD SVG 1.1//EN" "http://www.w3.org/Graphics/SVG/1.1/DTD/svg11.dtd">
<svg xmlns="http://www.w3.org/2000/svg" xmlns:xl="http://www.w3.org/1999/xlink" version="1.1" xmlns:dc="http://purl.org/dc/elements/1.1/" viewBox="-578.2741 -3115.658 16.000008 16.000008" width="16.000008" height="16.000008">
  <defs/>
  <g id="SOURCES" stroke-opacity="1" fill="none" stroke="none" fill-opacity="1" stroke-dasharray="none">
    <title>SOURCES</title>
    <g id="SOURCES_Dark">
      <title>Dark</title>
      <g id="Graphic_11182"/>
      <g id="Graphic_11181">
        <path d="M -569.81256 -3108.1194 L -564.73563 -3108.1194 C -564.4772 -3108.1194 -564.2741 -3107.9164 -564.2741 -3107.658 C -564.2741 -3107.3994 -564.4772 -3107.1964 -564.73563 -3107.1964 L -569.81256 -3107.1964 L -569.81256 -3102.1194 C -569.81256 -3101.861 -570.01563 -3101.658 -570.2741 -3101.658 C -570.53256 -3101.658 -570.73563 -3101.861 -570.73563 -3102.1194 L -570.73563 -3107.1964 L -575.81256 -3107.1964 C -576.071 -3107.1964 -576.2741 -3107.3994 -576.2741 -3107.658 C -576.2741 -3107.9164 -576.071 -3108.1194 -575.81256 -3108.1194 L -570.73563 -3108.1194 L -570.73563 -3113.1964 C -570.73563 -3113.455 -570.53256 -3113.658 -570.2741 -3113.658 C -570.01563 -3113.658 -569.81256 -3113.455 -569.81256 -3113.1964 Z" fill="white"/>
      </g>
    </g>
  </g>
</svg>
