<svg height="16" viewBox="-383.026 -3115.658 16.667 16" width="16.667" xmlns="http://www.w3.org/2000/svg"><g fill="none"><path d="m-374.69246-3113.1124c-3.63634 0-6.74181 2.2618-7.99999 5.4544 1.25818 3.193 4.36365 5.4546 7.99999 5.4546 3.63636 0 6.74182-2.2616 8-5.4546-1.25818-3.1926-4.36364-5.4544-8-5.4544zm0 9.0909c-2.00727 0-3.63634-1.6291-3.63634-3.6365 0-2.007 1.62907-3.6363 3.63634-3.6363 2.00726 0 3.63636 1.6293 3.63636 3.6363 0 2.0074-1.6291 3.6365-3.63636 3.6365zm0-5.8182c-1.20727 0-2.18181.9747-2.18181 2.1817 0 1.2074.97454 2.182 2.18181 2.182 1.20726 0 2.18182-.9746 2.18182-2.182 0-1.207-.97456-2.1817-2.18182-2.1817z" fill="#999"/><path d="m-374.69246-3113.1124c-3.63634 0-6.74181 2.2618-7.99999 5.4544 1.25818 3.193 4.36365 5.4546 7.99999 5.4546 3.63636 0 6.74182-2.2616 8-5.4546-1.25818-3.1926-4.36364-5.4544-8-5.4544zm0 9.0909c-2.00727 0-3.63634-1.6291-3.63634-3.6365 0-2.007 1.62907-3.6363 3.63634-3.6363 2.00726 0 3.63636 1.6293 3.63636 3.6363 0 2.0074-1.6291 3.6365-3.63636 3.6365zm0-5.8182c-1.20727 0-2.18181.9747-2.18181 2.1817 0 1.2074.97454 2.182 2.18181 2.182 1.20726 0 2.18182-.9746 2.18182-2.182 0-1.207-.97456-2.1817-2.18182-2.1817z" stroke="#fff" stroke-linecap="round" stroke-linejoin="round" stroke-width=".667"/></g></svg>