<?xml version="1.0" encoding="UTF-8" standalone="no"?>
<!DOCTYPE svg PUBLIC "-//W3C//DTD SVG 1.1//EN" "http://www.w3.org/Graphics/SVG/1.1/DTD/svg11.dtd">
<svg xmlns="http://www.w3.org/2000/svg" xmlns:xl="http://www.w3.org/1999/xlink" version="1.1" xmlns:dc="http://purl.org/dc/elements/1.1/" viewBox="-354.60743 -3115.658 16.666662 16.000008" width="16.666662" height="16.000008">
  <defs/>
  <g id="SOURCES" stroke-opacity="1" fill="none" stroke="none" fill-opacity="1" stroke-dasharray="none">
    <title>SOURCES</title>
    <g id="SOURCES_Dark">
      <title>Dark</title>
      <g id="Graphic_11243"/>
      <g id="Graphic_11242">
        <title>views/tabs/view.inspector</title>
        <path d="M -346.2741 -3113.1124 C -349.91046 -3113.1124 -353.0159 -3110.8506 -354.2741 -3107.658 C -353.0159 -3104.465 -349.91046 -3102.2034 -346.2741 -3102.2034 C -342.63774 -3102.2034 -339.5323 -3104.465 -338.2741 -3107.658 C -339.5323 -3110.8506 -342.63774 -3113.1124 -346.2741 -3113.1124 Z M -346.2741 -3104.0215 C -348.28137 -3104.0215 -349.91046 -3105.6506 -349.91046 -3107.658 C -349.91046 -3109.665 -348.28137 -3111.2943 -346.2741 -3111.2943 C -344.26683 -3111.2943 -342.63774 -3109.665 -342.63774 -3107.658 C -342.63774 -3105.6506 -344.26683 -3104.0215 -346.2741 -3104.0215 Z M -346.2741 -3109.8397 C -347.48137 -3109.8397 -348.4559 -3108.865 -348.4559 -3107.658 C -348.4559 -3106.4506 -347.48137 -3105.476 -346.2741 -3105.476 C -345.06683 -3105.476 -344.0923 -3106.4506 -344.0923 -3107.658 C -344.0923 -3108.865 -345.06683 -3109.8397 -346.2741 -3109.8397 Z" fill="#999"/>
        <path d="M -346.2741 -3113.1124 C -349.91046 -3113.1124 -353.0159 -3110.8506 -354.2741 -3107.658 C -353.0159 -3104.465 -349.91046 -3102.2034 -346.2741 -3102.2034 C -342.63774 -3102.2034 -339.5323 -3104.465 -338.2741 -3107.658 C -339.5323 -3110.8506 -342.63774 -3113.1124 -346.2741 -3113.1124 Z M -346.2741 -3104.0215 C -348.28137 -3104.0215 -349.91046 -3105.6506 -349.91046 -3107.658 C -349.91046 -3109.665 -348.28137 -3111.2943 -346.2741 -3111.2943 C -344.26683 -3111.2943 -342.63774 -3109.665 -342.63774 -3107.658 C -342.63774 -3105.6506 -344.26683 -3104.0215 -346.2741 -3104.0215 Z M -346.2741 -3109.8397 C -347.48137 -3109.8397 -348.4559 -3108.865 -348.4559 -3107.658 C -348.4559 -3106.4506 -347.48137 -3105.476 -346.2741 -3105.476 C -345.06683 -3105.476 -344.0923 -3106.4506 -344.0923 -3107.658 C -344.0923 -3108.865 -345.06683 -3109.8397 -346.2741 -3109.8397 Z" stroke="white" stroke-linecap="round" stroke-linejoin="round" stroke-width=".6666665"/>
      </g>
      <g id="Graphic_11241">
        <path d="M -341.3675 -3114.065 L -339.86698 -3112.5645 L -351.1807 -3101.2508 L -352.6812 -3102.7513 Z" fill="#999"/>
        <path d="M -341.3675 -3114.065 L -339.86698 -3112.5645 L -351.1807 -3101.2508 L -352.6812 -3102.7513 Z" stroke="white" stroke-linecap="round" stroke-linejoin="round" stroke-width=".5"/>
      </g>
    </g>
  </g>
</svg>
