<?xml version="1.0" encoding="UTF-8" standalone="no"?>
<!DOCTYPE svg PUBLIC "-//W3C//DTD SVG 1.1//EN" "http://www.w3.org/Graphics/SVG/1.1/DTD/svg11.dtd">
<svg xmlns="http://www.w3.org/2000/svg" xmlns:xl="http://www.w3.org/1999/xlink" version="1.1" xmlns:dc="http://purl.org/dc/elements/1.1/" viewBox="-718.2741 -3115.658 16.000008 16.000008" width="16.000008" height="16.000008">
  <defs/>
  <g id="SOURCES" stroke-opacity="1" fill="none" stroke="none" fill-opacity="1" stroke-dasharray="none">
    <title>SOURCES</title>
    <g id="SOURCES_Dark">
      <title>Dark</title>
      <g id="Graphic_11170"/>
      <g id="Graphic_11169">
        <path d="M -705.3368 -3111.7084 L -715.2199 -3111.7084 C -715.4626 -3111.7084 -715.6581 -3111.513 -715.6581 -3111.2702 C -715.6581 -3111.1826 -715.6311 -3111.095 -715.5839 -3111.0275 L -710.7098 -3103.841 C -710.548 -3103.605 -710.2244 -3103.5444 -709.9885 -3103.7062 C -709.93455 -3103.74 -709.88735 -3103.787 -709.85365 -3103.841 L -704.9728 -3111.0275 C -704.838 -3111.2297 -704.8919 -3111.4994 -705.0874 -3111.6342 C -705.1616 -3111.6814 -705.2425 -3111.7084 -705.3301 -3111.7084 Z M -705.3368 -3112.3825 C -705.1144 -3112.3825 -704.8986 -3112.315 -704.7099 -3112.1938 C -704.2043 -3111.8432 -704.0694 -3111.1556 -704.41325 -3110.6432 L -709.2874 -3103.4568 C -709.375 -3103.3287 -709.4829 -3103.221 -709.6042 -3103.14 C -710.1503 -3102.769 -710.8918 -3102.9107 -711.2626 -3103.4568 L -716.1367 -3110.6432 C -716.2648 -3110.8253 -716.3255 -3111.0477 -716.3255 -3111.2702 C -716.3255 -3111.8837 -715.8266 -3112.3825 -715.21314 -3112.3825 Z" fill="white"/>
      </g>
    </g>
  </g>
</svg>
