<svg height="16" viewBox="-662.274 -3115.658 16 16" width="16" xmlns="http://www.w3.org/2000/svg"><g fill="#8eed62"><circle cx="-654.274" cy="-3107.658" r="8"/><path d="m-653.2481-3112.595v9.883c0 .2426.15266.438.3422.438.06846 0 .1369-.027.1896-.074l5.6128-4.874c.1843-.162.2317-.4856.10534-.7215-.02634-.054-.06318-.1011-.10534-.1349l-5.6128-4.8808c-.158-.1348-.3686-.0808-.4739.1146-.0369.0742-.0579.1551-.0579.2426zm-.5266 0c0-.2226.0527-.4384.14746-.627.27379-.5057.81084-.6406 1.21104-.2967l5.61286 4.8741c.10004.0876.18429.1956.24744.3168.2896.5461.17905 1.2878-.24744 1.6584l-5.61286 4.8741c-.1422.1283-.3159.1888-.4897.1888-.4791 0-.8688-.4989-.8688-1.1125z"/><path d="m-655.30005-3102.7206v-9.8831c0-.2427-.1527-.4383-.34225-.4383-.06845 0-.1369.027-.18956.0743l-5.61284 4.8741c-.1843.1616-.2317.4854-.1053.7213.0263.0539.06315.1013.1053.1348l5.61284 4.8809c.15796.1348.36856.0809.47386-.1146.0369-.0742.05795-.1551.05795-.2428zm.52655 0c0 .2226-.0527.4382-.14745.6269-.2738.5057-.81085.6405-1.21105.2967l-5.61285-4.874c-.10005-.0878-.18429-.1957-.24745-.317-.2896-.546-.17905-1.2876.24745-1.6584l5.61285-4.8741c.1422-.1281.31594-.1888.4897-.1888.47915 0 .8688.4989.8688 1.1123z"/></g></svg>