<svg height="16" viewBox="-606.274 -3115.658 16 16" width="16" xmlns="http://www.w3.org/2000/svg"><g fill="none"><path d="M-602.047-3112.324h-1.894a.33.33 0 0 1-.333-.334.33.33 0 0 1 .333-.333h2.667a.33.33 0 0 1 .333.333v2.667a.33.33 0 0 1-.333.333.33.33 0 0 1-.333-.333v-1.833c-1.247 1-2 2.52-2 4.167a5.332 5.332 0 0 0 5.333 5.333 5.332 5.332 0 0 0 5.333-5.333c0-2.947-2.213-5.167-5.02-5.327a.33.33 0 0 1-.313-.354.329.329 0 0 1 .347-.313c3.166.18 5.653 2.807 5.653 5.987s-2.687 6-6 6-6-2.68-6-5.994c0-1.846.833-3.546 2.227-4.666z" fill="#8eed62"/><path d="M-602.047-3112.324h-1.894a.33.33 0 0 1-.333-.334.33.33 0 0 1 .333-.333h2.667a.33.33 0 0 1 .333.333v2.667a.33.33 0 0 1-.333.333.33.33 0 0 1-.333-.333v-1.833c-1.247 1-2 2.52-2 4.167a5.332 5.332 0 0 0 5.333 5.333 5.332 5.332 0 0 0 5.333-5.333c0-2.947-2.213-5.167-5.02-5.327a.33.33 0 0 1-.313-.354.329.329 0 0 1 .347-.313c3.166.18 5.653 2.807 5.653 5.987s-2.687 6-6 6-6-2.68-6-5.994c0-1.846.833-3.546 2.227-4.666z" stroke="#508034" stroke-linejoin="round" stroke-width=".25"/></g></svg>