<svg height="16" viewBox="-466.274 -3115.658 16 16" width="16" xmlns="http://www.w3.org/2000/svg"><path d="m-462.3246-3112.595v9.883c0 .2426.1955.438.4382.438.08765 0 .1753-.027.2427-.074l7.18645-4.874c.23595-.162.29665-.4856.13485-.7215-.0337-.054-.0809-.1011-.13485-.1349l-7.18645-4.8808c-.20224-.1348-.4719-.0808-.6067.1146-.0472.0742-.0742.1551-.0742.2426zm-.67413 0c0-.2226.06743-.4384.18876-.627.35057-.5057 1.03817-.6406 1.55057-.2967l7.1864 4.8741c.1281.0876.23597.1956.31687.3168.37078.5461.22923 1.2878-.31687 1.6584l-7.1864 4.8741c-.18205.1283-.4045.1888-.627.1888-.61346 0-1.11233-.4989-1.11233-1.1125z" fill="#fff"/></svg>