<svg height="16" viewBox="-690.274 -3115.658 16 16" width="16" xmlns="http://www.w3.org/2000/svg"><g fill="none"><path d="m-678.5692-3113.2207 1.89556 1.7692-8.71946 8.8458h-1.8956v-1.8955z" fill="#999"/><g fill="#fff"><path d="m-677.8914-3110.1764-1.251-1.2511 1.251 1.2511-7.5821 7.5821zm-9.4777 5.6866v1.8955zm8.8459-8.8459-7.5822 7.5822zm1.8955 1.8957-.7329-.733.7329.733-.8972.897z"/><path d="m-678.5232-3113.6516c-.0822 0-.1643.0316-.2212.0948l-8.8458 8.8458c-.0569.057-.0948.139-.0948.2212v1.8955c0 .1769.139.3159.3159.3159h1.8956c.0821 0 .16424-.0316.2211-.0946l8.8459-8.846c.1263-.1263.1263-.3222 0-.4486l-1.8956-1.8954c-.0632-.0633-.1453-.095-.2211-.095zm.6318 3.0266-1.4469-1.447.8151-.815 1.4469 1.447zm-9.16175 7.7148v-1.4468l7.26625-7.2664 1.4469 1.447-7.2662 7.2662z"/></g></g></svg>