<svg height="16" viewBox="-354.607 -3115.658 16.667 16" width="16.667" xmlns="http://www.w3.org/2000/svg"><g fill="none"><path d="M-346.274-3113.112c-3.636 0-6.742 2.261-8 5.454 1.258 3.193 4.364 5.455 8 5.455s6.742-2.262 8-5.455c-1.258-3.193-4.364-5.454-8-5.454zm0 9.09a3.638 3.638 0 0 1-3.636-3.636c0-2.007 1.629-3.636 3.636-3.636s3.636 1.629 3.636 3.636a3.638 3.638 0 0 1-3.636 3.636zm0-5.818a2.179 2.179 0 0 0-2.182 2.182c0 1.207.975 2.182 2.182 2.182s2.182-.975 2.182-2.182a2.179 2.179 0 0 0-2.182-2.182z" fill="#999"/><path d="M-346.274-3113.112c-3.636 0-6.742 2.261-8 5.454 1.258 3.193 4.364 5.455 8 5.455s6.742-2.262 8-5.455c-1.258-3.193-4.364-5.454-8-5.454zm0 9.09a3.638 3.638 0 0 1-3.636-3.636c0-2.007 1.629-3.636 3.636-3.636s3.636 1.629 3.636 3.636a3.638 3.638 0 0 1-3.636 3.636zm0-5.818a2.179 2.179 0 0 0-2.182 2.182c0 1.207.975 2.182 2.182 2.182s2.182-.975 2.182-2.182a2.179 2.179 0 0 0-2.182-2.182z" stroke="#fff" stroke-linecap="round" stroke-linejoin="round" stroke-width=".667"/><path d="M-341.368-3114.065l1.501 1.5-11.314 11.314-1.5-1.5z" fill="#999"/><path d="M-341.368-3114.065l1.501 1.5-11.314 11.314-1.5-1.5z" stroke="#fff" stroke-linecap="round" stroke-linejoin="round" stroke-width=".5"/></g></svg>