<?xml version="1.0" encoding="UTF-8" standalone="no"?>
<!DOCTYPE svg PUBLIC "-//W3C//DTD SVG 1.1//EN" "http://www.w3.org/Graphics/SVG/1.1/DTD/svg11.dtd">
<svg xmlns="http://www.w3.org/2000/svg" xmlns:xl="http://www.w3.org/1999/xlink" version="1.1" xmlns:dc="http://purl.org/dc/elements/1.1/" viewBox="-494.2741 -3115.658 16.000008 16.000008" width="16.000008" height="16.000008">
  <defs/>
  <g id="SOURCES" stroke-opacity="1" fill="none" stroke="none" fill-opacity="1" stroke-dasharray="none">
    <title>SOURCES</title>
    <g id="SOURCES_Dark">
      <title>Dark</title>
      <g id="Graphic_11174"/>
      <g id="Graphic_11173">
        <path d="M -490.3246 -3112.595 L -490.3246 -3102.712 C -490.3246 -3102.4694 -490.1291 -3102.274 -489.8864 -3102.274 C -489.79875 -3102.274 -489.7111 -3102.301 -489.6437 -3102.348 L -482.45725 -3107.222 C -482.2213 -3107.384 -482.1606 -3107.7076 -482.3224 -3107.9435 C -482.3561 -3107.9975 -482.4033 -3108.0446 -482.45725 -3108.0784 L -489.6437 -3112.9592 C -489.84594 -3113.094 -490.1156 -3113.04 -490.2504 -3112.8446 C -490.2976 -3112.7704 -490.3246 -3112.6895 -490.3246 -3112.602 Z M -490.99873 -3112.595 C -490.99873 -3112.8176 -490.9313 -3113.0334 -490.81 -3113.222 C -490.4594 -3113.7277 -489.7718 -3113.8626 -489.2594 -3113.5187 L -482.073 -3108.6446 C -481.9449 -3108.557 -481.83703 -3108.449 -481.75613 -3108.3278 C -481.38535 -3107.7817 -481.5269 -3107.04 -482.073 -3106.6694 L -489.2594 -3101.7953 C -489.44145 -3101.667 -489.6639 -3101.6065 -489.8864 -3101.6065 C -490.49986 -3101.6065 -490.99873 -3102.1054 -490.99873 -3102.719 Z" fill="#8eed62"/>
      </g>
    </g>
  </g>
</svg>
