<svg height="16" viewBox="-662.274 -3115.658 16 16" width="16" xmlns="http://www.w3.org/2000/svg"><g fill="#8eed62"><circle cx="-654.274" cy="-3107.658" r="8"/><path d="M-653.248-3112.595v9.883c0 .243.153.438.342.438a.288.288 0 0 0 .19-.074l5.613-4.874c.184-.162.231-.486.105-.721a.397.397 0 0 0-.105-.135l-5.613-4.881c-.158-.135-.369-.081-.474.114a.54.54 0 0 0-.058.243zm-.527 0c0-.223.053-.438.148-.627.274-.506.81-.64 1.21-.297l5.614 4.874c.1.088.184.196.247.317.29.546.18 1.288-.247 1.659l-5.613 4.874a.725.725 0 0 1-.49.189c-.479 0-.869-.5-.869-1.113zm-1.525 9.874v-9.883c0-.242-.153-.438-.342-.438a.287.287 0 0 0-.19.074l-5.613 4.874c-.184.162-.231.486-.105.722a.394.394 0 0 0 .105.135l5.613 4.88c.158.135.369.081.474-.114a.54.54 0 0 0 .058-.243zm.526 0c0 .223-.052.439-.147.627-.274.506-.81.64-1.211.297l-5.613-4.874a1.094 1.094 0 0 1-.247-.317c-.29-.546-.18-1.288.247-1.658l5.613-4.874a.726.726 0 0 1 .49-.19c.479 0 .868.5.868 1.113z"/></g></svg>