<svg height="16" viewBox="-886.274 -3115.658 16 16" width="16" xmlns="http://www.w3.org/2000/svg"><g fill="none"><path d="M-882.75-3112.138h8.96v8.96h-8.96z" fill="#000"/><path d="M-882.75-3112.138h8.96v8.96h-8.96z" stroke="#000" stroke-linecap="round" stroke-linejoin="round" stroke-width=".5"/><path d="M-882.75-3112.138h2.986v2.987h-2.986z" fill="#999a99"/><path d="M-882.75-3112.138h2.986v2.987h-2.986z" stroke="#fff" stroke-linecap="round" stroke-linejoin="round" stroke-width=".5"/><path d="M-879.764-3112.138h2.987v2.987h-2.987z" fill="#999a99"/><path d="M-879.764-3112.138h2.987v2.987h-2.987z" stroke="#fff" stroke-linecap="round" stroke-linejoin="round" stroke-width=".5"/><path d="M-876.777-3112.138h2.987v2.987h-2.987z" fill="#999a99"/><path d="M-876.777-3112.138h2.987v2.987h-2.987z" stroke="#fff" stroke-linecap="round" stroke-linejoin="round" stroke-width=".5"/><path d="M-882.75-3109.151h2.986v2.986h-2.986z" fill="#999a99"/><path d="M-882.75-3109.151h2.986v2.986h-2.986z" stroke="#fff" stroke-linecap="round" stroke-linejoin="round" stroke-width=".5"/><path d="M-879.764-3109.151h2.987v2.986h-2.987z" fill="#999a99"/><path d="M-879.764-3109.151h2.987v2.986h-2.987z" stroke="#fff" stroke-linecap="round" stroke-linejoin="round" stroke-width=".5"/><path d="M-876.777-3109.151h2.987v2.986h-2.987z" fill="#999a99"/><path d="M-876.777-3109.151h2.987v2.986h-2.987z" stroke="#fff" stroke-linecap="round" stroke-linejoin="round" stroke-width=".5"/><path d="M-882.758-3106.172h2.987v2.986h-2.987z" fill="#999a99"/><path d="M-882.758-3106.172h2.987v2.986h-2.987z" stroke="#fff" stroke-linecap="round" stroke-linejoin="round" stroke-width=".5"/><path d="M-879.771-3106.172h2.986v2.986h-2.986z" fill="#999a99"/><path d="M-879.771-3106.172h2.986v2.986h-2.986z" stroke="#fff" stroke-linecap="round" stroke-linejoin="round" stroke-width=".5"/><path d="M-876.785-3106.172h2.987v2.986h-2.987z" fill="#999a99"/><path d="M-876.785-3106.172h2.987v2.986h-2.987z" stroke="#fff" stroke-linecap="round" stroke-linejoin="round" stroke-width=".5"/></g></svg>