<svg height="16" viewBox="-774.274 -3115.658 16 16" width="16" xmlns="http://www.w3.org/2000/svg"><path d="m-767.399-3112.595v2.7253l-5.1955-3.649c-.4948-.3439-1.1588-.209-1.4973.2967-.1172.1886-.1823.4044-.1823.627v9.876c0 .6136.48175 1.1125 1.0742 1.1125.2148 0 .4296-.0605.6054-.1888l5.1955-3.649v2.7253c0 .6136.4817 1.1125 1.0741 1.1125.2149 0 .4297-.0605.6055-.1888l6.93975-4.8741c.52735-.3706.66405-1.1123.30595-1.6584-.0781-.1212-.1823-.2292-.30595-.3168l-6.93975-4.8741c-.4948-.3439-1.1588-.209-1.4973.2967-.1172.1886-.1823.4044-.1823.627zm.651 6.4316h-.7853l-5.4323 3.8154c-.0651.047-.1497.074-.2343.074-.2344 0-.4232-.1954-.4232-.438v-9.883-.007c0-.0875.0261-.1684.0716-.2426.1302-.1954.3906-.2494.5859-.1146l5.3971 3.7958h.8205v-3.4316-.007c0-.0875.026-.1684.0716-.2426.1302-.1954.3906-.2494.5859-.1146l6.9398 4.8808c.05205.0338.0976.0809.1302.1349.1562.2359.0976.5595-.1302.7215l-6.9398 4.874c-.0651.047-.1497.074-.2344.074-.2343 0-.4231-.1954-.4231-.438z" fill="#fff"/></svg>