<svg height="16" viewBox="-606.274 -3115.658 16 16" width="16" xmlns="http://www.w3.org/2000/svg"><g fill="none"><path d="m-602.0474-3112.324h-1.89336c-.18664 0-.33334-.1468-.33334-.3335 0-.1865.1467-.3333.33334-.3333h2.66666c.1867 0 .33334.1468.33334.3333v2.6667c0 .1868-.14664.3333-.33334.3333-.18666 0-.3333-.1465-.3333-.3333v-1.8332c-1.2467 1-2 2.52-2 4.1665 0 2.9467 2.38664 5.3335 5.3333 5.3335 2.9467 0 5.33334-2.3868 5.33334-5.3335 0-2.9465-2.21334-5.1665-5.02-5.3265-.18664-.0135-.32664-.1668-.31334-.3535.01334-.1865.1667-.3265.3467-.3133 3.16664.18 5.6533 2.8068 5.6533 5.9868s-2.68666 6-6 6c-3.3133 0-6-2.68-6-5.9935 0-1.8465.83334-3.5465 2.2267-4.6665z" fill="#8eed62"/><path d="m-602.0474-3112.324h-1.89336c-.18664 0-.33334-.1468-.33334-.3335 0-.1865.1467-.3333.33334-.3333h2.66666c.1867 0 .33334.1468.33334.3333v2.6667c0 .1868-.14664.3333-.33334.3333-.18666 0-.3333-.1465-.3333-.3333v-1.8332c-1.2467 1-2 2.52-2 4.1665 0 2.9467 2.38664 5.3335 5.3333 5.3335 2.9467 0 5.33334-2.3868 5.33334-5.3335 0-2.9465-2.21334-5.1665-5.02-5.3265-.18664-.0135-.32664-.1668-.31334-.3535.01334-.1865.1667-.3265.3467-.3133 3.16664.18 5.6533 2.8068 5.6533 5.9868s-2.68666 6-6 6c-3.3133 0-6-2.68-6-5.9935 0-1.8465.83334-3.5465 2.2267-4.6665z" stroke="#508034" stroke-linejoin="round" stroke-width=".25"/></g></svg>