<?xml version="1.0" encoding="UTF-8" standalone="no"?>
<!DOCTYPE svg PUBLIC "-//W3C//DTD SVG 1.1//EN" "http://www.w3.org/Graphics/SVG/1.1/DTD/svg11.dtd">
<svg xmlns="http://www.w3.org/2000/svg" xmlns:xl="http://www.w3.org/1999/xlink" version="1.1" xmlns:dc="http://purl.org/dc/elements/1.1/" viewBox="-690.2741 -3115.658 16.000008 16.000008" width="16.000008" height="16.000008">
  <defs/>
  <g id="SOURCES" stroke-opacity="1" fill="none" stroke="none" fill-opacity="1" stroke-dasharray="none">
    <title>SOURCES</title>
    <g id="SOURCES_Dark">
      <title>Dark</title>
      <g id="Graphic_11227"/>
      <g id="Graphic_11233">
        <path d="M -678.5692 -3113.2207 L -676.67364 -3111.4515 L -685.3931 -3102.6057 L -687.2887 -3102.6057 L -687.2887 -3104.5012 Z" fill="#999"/>
      </g>
      <g id="Graphic_11232">
        <path d="M -677.8914 -3110.1764 L -679.1424 -3111.4275 L -677.8914 -3110.1764 L -685.4735 -3102.5943 Z M -687.3691 -3104.4898 L -687.3691 -3102.5943 Z M -678.5232 -3113.3357 L -686.1054 -3105.7535 Z M -676.6277 -3111.44 L -677.3606 -3112.173 L -676.6277 -3111.44 L -677.5249 -3110.543 Z" fill="white"/>
      </g>
      <g id="Graphic_11231">
        <path d="M -678.5232 -3113.6516 C -678.6054 -3113.6516 -678.6875 -3113.62 -678.7444 -3113.5568 L -687.5902 -3104.711 C -687.6471 -3104.654 -687.685 -3104.572 -687.685 -3104.4898 L -687.685 -3102.5943 C -687.685 -3102.4174 -687.546 -3102.2784 -687.3691 -3102.2784 L -685.4735 -3102.2784 C -685.3914 -3102.2784 -685.30926 -3102.31 -685.2524 -3102.373 L -676.4065 -3111.219 C -676.2802 -3111.3453 -676.2802 -3111.5412 -676.4065 -3111.6676 L -678.3021 -3113.563 C -678.3653 -3113.6263 -678.4474 -3113.658 -678.5232 -3113.658 Z M -677.8914 -3110.625 L -679.3383 -3112.072 L -678.5232 -3112.887 L -677.0763 -3111.44 Z M -687.05315 -3102.9102 L -687.05315 -3104.357 L -679.7869 -3111.6234 L -678.34 -3110.1764 L -685.6062 -3102.9102 Z" fill="white"/>
      </g>
    </g>
  </g>
</svg>
