<?xml version="1.0" encoding="UTF-8" standalone="no"?>
<!DOCTYPE svg PUBLIC "-//W3C//DTD SVG 1.1//EN" "http://www.w3.org/Graphics/SVG/1.1/DTD/svg11.dtd">
<svg xmlns="http://www.w3.org/2000/svg" xmlns:xl="http://www.w3.org/1999/xlink" version="1.1" xmlns:dc="http://purl.org/dc/elements/1.1/" viewBox="-186.2741 -3115.658 16.000008 16.000008" width="16.000008" height="16.000008">
  <defs/>
  <g id="SOURCES" stroke-opacity="1" fill="none" stroke="none" fill-opacity="1" stroke-dasharray="none">
    <title>SOURCES</title>
    <g id="SOURCES_Dark">
      <title>Dark</title>
      <g id="Graphic_11202"/>
      <g id="Graphic_11203">
        <path d="M -182.55981 -3105.9436 L -184.2741 -3105.9436 L -184.2741 -3101.658 L -179.98839 -3101.658 L -179.98839 -3103.3722 L -182.55981 -3103.3722 L -182.55981 -3105.9436 Z M -184.2741 -3109.3722 L -182.55981 -3109.3722 L -182.55981 -3111.9436 L -179.98839 -3111.9436 L -179.98839 -3113.658 L -184.2741 -3113.658 L -184.2741 -3109.3722 Z M -173.98839 -3103.3722 L -176.55981 -3103.3722 L -176.55981 -3101.658 L -172.2741 -3101.658 L -172.2741 -3105.9436 L -173.98839 -3105.9436 L -173.98839 -3103.3722 Z M -176.55981 -3113.658 L -176.55981 -3111.9436 L -173.98839 -3111.9436 L -173.98839 -3109.3722 L -172.2741 -3109.3722 L -172.2741 -3113.658 L -176.55981 -3113.658 Z" fill="#999"/>
        <path d="M -182.55981 -3105.9436 L -184.2741 -3105.9436 L -184.2741 -3101.658 L -179.98839 -3101.658 L -179.98839 -3103.3722 L -182.55981 -3103.3722 L -182.55981 -3105.9436 Z M -184.2741 -3109.3722 L -182.55981 -3109.3722 L -182.55981 -3111.9436 L -179.98839 -3111.9436 L -179.98839 -3113.658 L -184.2741 -3113.658 L -184.2741 -3109.3722 Z M -173.98839 -3103.3722 L -176.55981 -3103.3722 L -176.55981 -3101.658 L -172.2741 -3101.658 L -172.2741 -3105.9436 L -173.98839 -3105.9436 L -173.98839 -3103.3722 Z M -176.55981 -3113.658 L -176.55981 -3111.9436 L -173.98839 -3111.9436 L -173.98839 -3109.3722 L -172.2741 -3109.3722 L -172.2741 -3113.658 L -176.55981 -3113.658 Z" stroke="white" stroke-linecap="round" stroke-linejoin="round" stroke-width=".5"/>
      </g>
    </g>
  </g>
</svg>
