<svg height="24.75" viewBox="-78.068 -3121.091 24.75 24.75" width="24.75" xmlns="http://www.w3.org/2000/svg"><g fill="none"><circle cx="-65.693" cy="-3108.716" fill="#656666" r="8"/><circle cx="-65.693" cy="-3108.716" r="8"/><path d="M-65.693-3100.716c-4.416 0-8-3.584-8-8s3.584-8 8-8 8 3.584 8 8-3.584 8-8 8zm0-.8a7.2 7.2 0 1 0 0-14.401 7.2 7.2 0 0 0 0 14.401zm3.032-5.528a.406.406 0 0 1 .096.56.406.406 0 0 1-.56.096l-2.8-2a.404.404 0 0 1-.152-.224l-1.2-4.4c-.056-.216.064-.432.28-.488s.432.064.488.28l1.16 4.264 2.688 1.92z" fill="#c0e0ff"/></g></svg>