<?xml version="1.0" encoding="UTF-8" standalone="no"?>
<!DOCTYPE svg PUBLIC "-//W3C//DTD SVG 1.1//EN" "http://www.w3.org/Graphics/SVG/1.1/DTD/svg11.dtd">
<svg xmlns="http://www.w3.org/2000/svg" xmlns:dc="http://purl.org/dc/elements/1.1/" version="1.1" xmlns:xl="http://www.w3.org/1999/xlink" viewBox="-78.06768 -3121.0908 24.75 24.75" width="24.75" height="24.75">
  <defs/>
  <g id="SOURCES" stroke-dasharray="none" stroke-opacity="1" stroke="none" fill="none" fill-opacity="1">
    <title>SOURCES</title>
    <g id="SOURCES_Dark">
      <title>Dark</title>
      <g id="Graphic_12498"/>
      <g id="Graphic_12499">
        <circle cx="-65.69268" cy="-3108.7158" r="8.0000070208016" fill="#656666"/>
        <circle cx="-65.69268" cy="-3108.7158" r="8.0000070208016" stroke="black" stroke-linecap="round" stroke-linejoin="round" stroke-width="0"/>
      </g>
      <g id="Group_12496">
        <title>clock</title>
        <g id="Graphic_12497">
          <path d="M -65.69268 -3100.7158 C -70.10868 -3100.7158 -73.69268 -3104.2998 -73.69268 -3108.7158 C -73.69268 -3113.1318 -70.10868 -3116.7158 -65.69268 -3116.7158 C -61.27668 -3116.7158 -57.69268 -3113.1318 -57.69268 -3108.7158 C -57.69268 -3104.2998 -61.27668 -3100.7158 -65.69268 -3100.7158 Z M -65.69268 -3101.5158 C -61.71668 -3101.5158 -58.49268 -3104.7398 -58.49268 -3108.7158 C -58.49268 -3112.6918 -61.71668 -3115.9158 -65.69268 -3115.9158 C -69.66868 -3115.9158 -72.89268 -3112.6918 -72.89268 -3108.7158 C -72.89268 -3104.7398 -69.66868 -3101.5158 -65.69268 -3101.5158 Z M -62.66068 -3107.0438 C -62.48468 -3106.9158 -62.43668 -3106.6678 -62.56468 -3106.4838 C -62.69268 -3106.3078 -62.94068 -3106.2598 -63.12468 -3106.3878 L -65.92468 -3108.3878 C -65.99668 -3108.4438 -66.05268 -3108.5158 -66.07668 -3108.6118 L -67.27668 -3113.0118 C -67.33268 -3113.2278 -67.21268 -3113.4438 -66.99668 -3113.4998 C -66.78068 -3113.5558 -66.56468 -3113.4358 -66.50868 -3113.2198 L -65.34868 -3108.9558 L -62.66068 -3107.0358 Z" fill="#c0e0ff"/>
        </g>
      </g>
    </g>
  </g>
</svg>
