<?xml version="1.0" encoding="UTF-8" standalone="no"?>
<!DOCTYPE svg PUBLIC "-//W3C//DTD SVG 1.1//EN" "http://www.w3.org/Graphics/SVG/1.1/DTD/svg11.dtd">
<svg xmlns:dc="http://purl.org/dc/elements/1.1/" version="1.1" xmlns="http://www.w3.org/2000/svg" xmlns:xl="http://www.w3.org/1999/xlink" viewBox="-886.7741 -3200.298 24.999996 25" width="24.999996" height="25">
  <defs/>
  <g id="SOURCES" stroke="none" stroke-dasharray="none" fill-opacity="1" stroke-opacity="1" fill="none">
    <title>SOURCES</title>
    <g id="SOURCES_Dark">
      <title>Dark</title>
      <g id="Graphic_11392">
        <circle cx="-874.2741" cy="-3187.798" r="12.000018268838" fill="#666"/>
        <circle cx="-874.2741" cy="-3187.798" r="12.000018268838" stroke="white" stroke-linecap="round" stroke-linejoin="round" stroke-width=".25"/>
      </g>
      <g id="Graphic_11391">
        <path d="M -881.2479 -3187.9237 C -879.7502 -3191.7797 -875.4183 -3193.6902 -871.5693 -3192.1926 C -869.6098 -3191.4298 -868.0562 -3189.883 -867.3003 -3187.9237 C -867.2654 -3187.8397 -867.2654 -3187.7487 -867.3003 -3187.6717 C -868.791 -3183.8227 -873.1299 -3181.905 -876.9789 -3183.4028 C -878.9384 -3184.1656 -880.485 -3185.7122 -881.2479 -3187.6717 C -881.2828 -3187.7557 -881.2828 -3187.8467 -881.2479 -3187.9237 Z M -876.72 -3184.0536 C -873.2698 -3182.717 -869.3928 -3184.3896 -868.0002 -3187.7977 C -868.707 -3189.5123 -870.0856 -3190.87 -871.8212 -3191.5418 C -875.2713 -3192.8784 -879.1414 -3191.206 -880.541 -3187.7977 C -879.8342 -3186.083 -878.4556 -3184.7255 -876.72 -3184.0536 Z M -874.2706 -3184.9984 C -875.8172 -3184.9984 -877.0699 -3186.251 -877.0699 -3187.7977 C -877.0699 -3189.3443 -875.8172 -3190.597 -874.2706 -3190.597 C -872.724 -3190.597 -871.4713 -3189.3443 -871.4713 -3187.7977 C -871.4713 -3186.251 -872.724 -3184.9984 -874.2706 -3184.9984 Z M -874.2706 -3185.6982 C -873.1089 -3185.6982 -872.1711 -3186.636 -872.1711 -3187.7977 C -872.1711 -3188.9594 -873.1089 -3189.897 -874.2706 -3189.897 C -875.4323 -3189.897 -876.3701 -3188.9594 -876.3701 -3187.7977 C -876.3701 -3186.636 -875.4323 -3185.6982 -874.2706 -3185.6982 Z" fill="#fc6d7e"/>
      </g>
    </g>
  </g>
</svg>
