<svg height="25" viewBox="-814.774 -3200.298 25 25" width="25" xmlns="http://www.w3.org/2000/svg"><g fill="none"><circle cx="-802.274" cy="-3187.798" fill="#666" r="12"/><circle cx="-802.274" cy="-3187.798" r="12" stroke="#fff" stroke-linecap="round" stroke-linejoin="round" stroke-width=".25"/><path d="M-801.905-3188.174a.365.365 0 0 1-.369.368.365.365 0 0 1-.368-.368v-2.948c0-.206.162-.368.368-.368.207 0 .369.162.369.368zm-.737 1.842h.737v.736h-.737zm.044-9.38c.14-.258.516-.258.648 0l6.632 12.526a.367.367 0 0 1-.324.538h-13.263a.364.364 0 0 1-.324-.538zm-5.695 12.327h12.04l-6.02-11.369z" fill="#fc6d7e"/></g></svg>