<?xml version="1.0" encoding="UTF-8" standalone="no"?>
<!DOCTYPE svg PUBLIC "-//W3C//DTD SVG 1.1//EN" "http://www.w3.org/Graphics/SVG/1.1/DTD/svg11.dtd">
<svg xmlns:dc="http://purl.org/dc/elements/1.1/" version="1.1" xmlns="http://www.w3.org/2000/svg" xmlns:xl="http://www.w3.org/1999/xlink" viewBox="-850.7741 -3200.298 24.999996 25" width="24.999996" height="25">
  <defs/>
  <g id="SOURCES" stroke="none" stroke-dasharray="none" fill-opacity="1" stroke-opacity="1" fill="none">
    <title>SOURCES</title>
    <g id="SOURCES_Dark">
      <title>Dark</title>
      <g id="Graphic_11388">
        <circle cx="-838.2741" cy="-3187.798" r="12.000018268838" fill="#666"/>
        <circle cx="-838.2741" cy="-3187.798" r="12.000018268838" stroke="white" stroke-linecap="round" stroke-linejoin="round" stroke-width=".25"/>
      </g>
      <g id="Graphic_11387">
        <path d="M -836.0795 -3182.3537 C -836.4061 -3181.436 -837.2773 -3180.798 -838.2806 -3180.798 C -839.2839 -3180.798 -840.155 -3181.436 -840.4817 -3182.3537 L -841.7184 -3182.3537 C -842.7917 -3182.3537 -843.6628 -3183.2248 -843.6628 -3184.298 C -843.6628 -3184.5704 -843.6084 -3184.8426 -843.4917 -3185.0915 L -842.9395 -3186.328 L -842.9395 -3188.576 C -842.9395 -3190.606 -841.6406 -3192.3326 -839.8284 -3192.978 L -839.8284 -3193.2426 C -839.8284 -3194.098 -839.1284 -3194.798 -838.2728 -3194.798 C -837.4173 -3194.798 -836.7173 -3194.098 -836.7173 -3193.2426 L -836.7173 -3192.978 C -834.905 -3192.3404 -833.6061 -3190.606 -833.6061 -3188.576 L -833.6061 -3186.328 L -833.0539 -3185.0915 C -832.6184 -3184.1115 -833.0539 -3182.9604 -834.0417 -3182.5248 C -834.2906 -3182.416 -834.5628 -3182.3537 -834.835 -3182.3537 L -836.0717 -3182.3537 Z M -836.9273 -3182.3537 L -839.6261 -3182.3537 C -839.3539 -3181.887 -838.8484 -3181.576 -838.2806 -3181.576 C -837.7128 -3181.576 -837.2073 -3181.887 -836.935 -3182.3537 Z M -837.5028 -3193.1804 L -837.5028 -3193.2426 C -837.5028 -3193.6704 -837.8528 -3194.0204 -838.2806 -3194.0204 C -838.7084 -3194.0204 -839.0584 -3193.6704 -839.0584 -3193.2426 L -839.0584 -3193.1804 C -838.8017 -3193.2192 -838.545 -3193.2426 -838.2806 -3193.2426 C -838.0161 -3193.2426 -837.7595 -3193.2192 -837.5028 -3193.1804 Z M -838.2806 -3192.4648 C -840.4273 -3192.4648 -842.1695 -3190.7226 -842.1695 -3188.576 L -842.1695 -3186.2426 L -842.2006 -3186.087 L -842.7839 -3184.7726 C -842.8539 -3184.6248 -842.885 -3184.4615 -842.885 -3184.298 C -842.885 -3183.6526 -842.3639 -3183.1315 -841.7184 -3183.1315 L -834.8428 -3183.1315 C -834.6795 -3183.1315 -834.5161 -3183.1626 -834.3684 -3183.2326 C -833.7773 -3183.497 -833.5128 -3184.1815 -833.7773 -3184.7726 L -834.3606 -3186.087 L -834.3917 -3186.2426 L -834.3917 -3188.576 C -834.3917 -3190.7226 -836.1339 -3192.4648 -838.2806 -3192.4648 Z" fill="#fc6d7e"/>
      </g>
    </g>
  </g>
</svg>
