<svg height="25" viewBox="-850.774 -3200.298 25 25" width="25" xmlns="http://www.w3.org/2000/svg"><g fill="none"><circle cx="-838.274" cy="-3187.798" fill="#666" r="12"/><circle cx="-838.274" cy="-3187.798" r="12" stroke="#fff" stroke-linecap="round" stroke-linejoin="round" stroke-width=".25"/><path d="M-836.08-3182.354c-.326.918-1.197 1.556-2.2 1.556s-1.875-.638-2.202-1.556h-1.236a1.945 1.945 0 0 1-1.774-2.738l.552-1.236v-2.248a4.677 4.677 0 0 1 3.112-4.402v-.265c0-.855.7-1.555 1.555-1.555.856 0 1.556.7 1.556 1.555v.265a4.669 4.669 0 0 1 3.11 4.402v2.248l.553 1.236c.436.98 0 2.132-.988 2.567a1.994 1.994 0 0 1-.793.171h-1.237zm-.847 0h-2.7c.273.467.779.778 1.346.778s1.074-.311 1.346-.778zm-.576-10.826v-.063c0-.427-.35-.777-.778-.777s-.777.35-.777.777v.063c.256-.04.513-.063.777-.063.265 0 .521.024.778.063zm-.778.715a3.89 3.89 0 0 0-3.889 3.889v2.333l-.03.156-.584 1.314a1.165 1.165 0 0 0 1.066 1.641h6.875c.163 0 .327-.03.475-.1.59-.265.855-.95.59-1.54l-.583-1.315-.03-.156v-2.333a3.89 3.89 0 0 0-3.89-3.889z" fill="#fc6d7e"/></g></svg>