<?xml version="1.0" encoding="UTF-8" standalone="no"?>
<!DOCTYPE svg PUBLIC "-//W3C//DTD SVG 1.1//EN" "http://www.w3.org/Graphics/SVG/1.1/DTD/svg11.dtd">
<svg xmlns:dc="http://purl.org/dc/elements/1.1/" version="1.1" xmlns="http://www.w3.org/2000/svg" xmlns:xl="http://www.w3.org/1999/xlink" viewBox="-814.7741 -3200.298 24.999996 25" width="24.999996" height="25">
  <defs/>
  <g id="SOURCES" stroke="none" stroke-dasharray="none" fill-opacity="1" stroke-opacity="1" fill="none">
    <title>SOURCES</title>
    <g id="SOURCES_Dark">
      <title>Dark</title>
      <g id="Graphic_11384">
        <circle cx="-802.2741" cy="-3187.798" r="12.000018268838" fill="#666"/>
        <circle cx="-802.2741" cy="-3187.798" r="12.000018268838" stroke="white" stroke-linecap="round" stroke-linejoin="round" stroke-width=".25"/>
      </g>
      <g id="Graphic_11383">
        <path d="M -801.9052 -3188.1743 C -801.9052 -3187.968 -802.0673 -3187.806 -802.2737 -3187.806 C -802.48 -3187.806 -802.6421 -3187.968 -802.6421 -3188.1743 L -802.6421 -3191.1216 C -802.6421 -3191.328 -802.48 -3191.49 -802.2737 -3191.49 C -802.0673 -3191.49 -801.9052 -3191.328 -801.9052 -3191.1216 Z M -802.6421 -3186.3323 L -801.9052 -3186.3323 L -801.9052 -3185.5955 L -802.6421 -3185.5955 Z M -802.5979 -3195.712 C -802.4579 -3195.97 -802.0821 -3195.97 -801.9495 -3195.712 L -795.3181 -3183.186 C -795.1855 -3182.943 -795.3697 -3182.6482 -795.6423 -3182.6482 L -808.905 -3182.6482 C -809.185 -3182.6482 -809.3618 -3182.943 -809.2292 -3183.186 Z M -808.2934 -3183.385 L -796.2539 -3183.385 L -802.2737 -3194.754 Z" fill="#fc6d7e"/>
      </g>
    </g>
  </g>
</svg>
