<svg height="25" viewBox="-886.774 -3200.298 25 25" width="25" xmlns="http://www.w3.org/2000/svg"><g fill="none"><circle cx="-874.274" cy="-3187.798" fill="#666" r="12"/><circle cx="-874.274" cy="-3187.798" r="12" stroke="#fff" stroke-linecap="round" stroke-linejoin="round" stroke-width=".25"/><path d="M-881.248-3187.924c1.498-3.856 5.83-5.766 9.679-4.269a7.477 7.477 0 0 1 4.269 4.27.316.316 0 0 1 0 .251c-1.491 3.85-5.83 5.767-9.679 4.27a7.496 7.496 0 0 1-4.269-4.27.316.316 0 0 1 0-.252zm4.528 3.87c3.45 1.337 7.327-.336 8.72-3.744a6.787 6.787 0 0 0-3.821-3.744 6.776 6.776 0 0 0-8.72 3.744 6.787 6.787 0 0 0 3.821 3.744zm2.45-.944a2.798 2.798 0 1 1 0-5.599 2.799 2.799 0 1 1 0 5.599zm0-.7c1.161 0 2.099-.938 2.099-2.1s-.938-2.099-2.1-2.099-2.1.938-2.1 2.1.939 2.099 2.1 2.099z" fill="#fc6d7e"/></g></svg>