<svg height="25" viewBox="-814.774 -3200.298 25 25" width="25" xmlns="http://www.w3.org/2000/svg"><g fill="none"><circle cx="-802.274" cy="-3187.798" fill="#666" r="12"/><circle cx="-802.274" cy="-3187.798" r="12" stroke="#fff" stroke-linecap="round" stroke-linejoin="round" stroke-width=".25"/><path d="m-801.9052-3188.1743c0 .2063-.1621.3683-.3685.3683-.2063 0-.3684-.162-.3684-.3683v-2.9473c0-.2064.1621-.3684.3684-.3684.2064 0 .3685.162.3685.3684zm-.7369 1.842h.7369v.7368h-.7369zm.0442-9.3797c.14-.258.5158-.258.6484 0l6.6314 12.526c.1326.243-.0516.5378-.3242.5378h-13.2627c-.28 0-.4568-.2948-.3242-.5378zm-5.6955 12.327h12.0395l-6.0198-11.369z" fill="#fc6d7e"/></g></svg>