<svg height="25" viewBox="-886.774 -3200.298 25 25" width="25" xmlns="http://www.w3.org/2000/svg"><g fill="none"><circle cx="-874.274" cy="-3187.798" fill="#666" r="12"/><circle cx="-874.274" cy="-3187.798" r="12" stroke="#fff" stroke-linecap="round" stroke-linejoin="round" stroke-width=".25"/><path d="m-881.2479-3187.9237c1.4977-3.856 5.8296-5.7665 9.6786-4.2689 1.9595.7628 3.5131 2.3096 4.269 4.2689.0349.084.0349.175 0 .252-1.4907 3.849-5.8296 5.7667-9.6786 4.2689-1.9595-.7628-3.5061-2.3094-4.269-4.2689-.0349-.084-.0349-.175 0-.252zm4.5279 3.8701c3.4502 1.3366 7.3272-.336 8.7198-3.7441-.7068-1.7146-2.0854-3.0723-3.821-3.7441-3.4501-1.3366-7.3202.3358-8.7198 3.7441.7068 1.7147 2.0854 3.0722 3.821 3.7441zm2.4494-.9448c-1.5466 0-2.7993-1.2526-2.7993-2.7993 0-1.5466 1.2527-2.7993 2.7993-2.7993s2.7993 1.2527 2.7993 2.7993c0 1.5467-1.2527 2.7993-2.7993 2.7993zm0-.6998c1.1617 0 2.0995-.9378 2.0995-2.0995s-.9378-2.0993-2.0995-2.0993-2.0995.9376-2.0995 2.0993.9378 2.0995 2.0995 2.0995z" fill="#fc6d7e"/></g></svg>