<svg height="25" viewBox="-850.774 -3200.298 25 25" width="25" xmlns="http://www.w3.org/2000/svg"><g fill="none"><circle cx="-838.274" cy="-3187.798" fill="#666" r="12"/><circle cx="-838.274" cy="-3187.798" r="12" stroke="#fff" stroke-linecap="round" stroke-linejoin="round" stroke-width=".25"/><path d="m-836.0795-3182.3537c-.3266.9177-1.1978 1.5557-2.2011 1.5557s-1.8744-.638-2.2011-1.5557h-1.2367c-1.0733 0-1.9444-.8711-1.9444-1.9443 0-.2724.0544-.5446.1711-.7935l.5522-1.2365v-2.248c0-2.03 1.2989-3.7566 3.1111-4.402v-.2646c0-.8554.7-1.5554 1.5556-1.5554.8555 0 1.5555.7 1.5555 1.5554v.2646c1.8123.6376 3.1112 2.372 3.1112 4.402v2.248l.5522 1.2365c.4355.98 0 2.1311-.9878 2.5667-.2489.1088-.5211.1711-.7933.1711h-1.2367zm-.8478 0h-2.6988c.2722.4667.7777.7777 1.3455.7777s1.0733-.311 1.3456-.7777zm-.5755-10.8267v-.0622c0-.4278-.35-.7778-.7778-.7778s-.7778.35-.7778.7778v.0622c.2567-.0388.5134-.0622.7778-.0622.2645 0 .5211.0234.7778.0622zm-.7778.7156c-2.1467 0-3.8889 1.7422-3.8889 3.8888v2.3334l-.0311.1556-.5833 1.3144c-.07.1478-.1011.3111-.1011.4746 0 .6454.5211 1.1665 1.1666 1.1665h6.8756c.1633 0 .3267-.0311.4744-.1011.5911-.2644.8556-.9489.5911-1.54l-.5833-1.3144-.0311-.1556v-2.3334c0-2.1466-1.7422-3.8888-3.8889-3.8888z" fill="#fc6d7e"/></g></svg>