<svg height="25" viewBox="-670.774 -3200.298 25 25" width="25" xmlns="http://www.w3.org/2000/svg"><g fill="none"><circle cx="-658.274" cy="-3187.798" fill="#666" r="12"/><circle cx="-658.274" cy="-3187.798" r="12" stroke="#fff" stroke-linecap="round" stroke-linejoin="round" stroke-width=".25"/><path d="M-661.995-3193.51v11.433a.506.506 0 0 0 .788.421l8.313-5.638a.601.601 0 0 0 0-.99l-8.313-5.646a.51.51 0 0 0-.702.132.518.518 0 0 0-.086.281zm-.78 0c0-.257.078-.506.219-.725a1.299 1.299 0 0 1 1.793-.343l8.313 5.638a1.38 1.38 0 0 1 0 2.285l-8.313 5.638a1.26 1.26 0 0 1-.725.219c-.71 0-1.286-.577-1.286-1.287z" fill="#8eed62"/></g></svg>