<?xml version="1.0" encoding="UTF-8" standalone="no"?>
<!DOCTYPE svg PUBLIC "-//W3C//DTD SVG 1.1//EN" "http://www.w3.org/Graphics/SVG/1.1/DTD/svg11.dtd">
<svg xmlns:xl="http://www.w3.org/1999/xlink" version="1.1" xmlns="http://www.w3.org/2000/svg" xmlns:dc="http://purl.org/dc/elements/1.1/" viewBox="-526.77413 -3200.298 24.999996 25" width="24.999996" height="25">
  <defs/>
  <g id="SOURCES" fill-opacity="1" stroke-opacity="1" stroke-dasharray="none" stroke="none" fill="none">
    <title>SOURCES</title>
    <g id="SOURCES_Dark">
      <title>Dark</title>
      <g id="Graphic_11356">
        <circle cx="-514.27413" cy="-3187.798" r="12.000018268838" fill="#666"/>
        <circle cx="-514.27413" cy="-3187.798" r="12.000018268838" stroke="white" stroke-linecap="round" stroke-linejoin="round" stroke-width=".25"/>
      </g>
      <g id="Graphic_11355">
        <path d="M -518.1557 -3182.926 C -519.6101 -3184.094 -520.489 -3185.869 -520.489 -3187.792 C -520.489 -3191.085 -517.92234 -3193.81 -514.6557 -3194.0046 C -514.4379 -3194.02 -514.27456 -3194.1992 -514.2901 -3194.417 C -514.3057 -3194.635 -514.48456 -3194.7987 -514.70234 -3194.783 C -518.3812 -3194.5573 -521.2668 -3191.4977 -521.2668 -3187.792 C -521.2668 -3185.643 -520.2868 -3183.658 -518.669 -3182.3422 L -520.8779 -3182.3422 C -521.0957 -3182.3422 -521.2668 -3182.171 -521.2668 -3181.953 C -521.2668 -3181.735 -521.0957 -3181.5637 -520.8779 -3181.5637 L -517.7668 -3181.5637 C -517.549 -3181.5637 -517.3779 -3181.735 -517.3779 -3181.953 L -517.3779 -3185.067 C -517.3779 -3185.285 -517.549 -3185.4563 -517.7668 -3185.4563 C -517.98456 -3185.4563 -518.1557 -3185.285 -518.1557 -3185.067 Z M -510.3779 -3192.65 C -508.92345 -3191.482 -508.04456 -3189.707 -508.04456 -3187.784 C -508.04456 -3184.4754 -510.6268 -3181.7505 -513.909 -3181.5637 C -514.1268 -3181.548 -514.2901 -3181.369 -514.27456 -3181.151 C -514.259 -3180.933 -514.0801 -3180.7696 -513.86234 -3180.785 C -510.1679 -3181.003 -507.2668 -3184.0705 -507.2668 -3187.792 C -507.2668 -3189.9406 -508.2468 -3191.926 -509.86456 -3193.2416 L -507.6557 -3193.2416 C -507.4379 -3193.2416 -507.2668 -3193.413 -507.2668 -3193.631 C -507.2668 -3193.849 -507.4379 -3194.02 -507.6557 -3194.02 L -510.7668 -3194.02 C -510.98456 -3194.02 -511.1557 -3193.849 -511.1557 -3193.631 L -511.1557 -3190.5168 C -511.1557 -3190.2988 -510.98456 -3190.1275 -510.7668 -3190.1275 C -510.549 -3190.1275 -510.3779 -3190.2988 -510.3779 -3190.5168 L -510.3779 -3192.6577 Z" fill="#c0e0ff"/>
      </g>
    </g>
  </g>
</svg>
