<?xml version="1.0" encoding="UTF-8" standalone="no"?>
<!DOCTYPE svg PUBLIC "-//W3C//DTD SVG 1.1//EN" "http://www.w3.org/Graphics/SVG/1.1/DTD/svg11.dtd">
<svg xmlns="http://www.w3.org/2000/svg" xmlns:xl="http://www.w3.org/1999/xlink" version="1.1" xmlns:dc="http://purl.org/dc/elements/1.1/" viewBox="-382.77414 -3215.705 25 25" width="25" height="25">
  <defs/>
  <g id="SOURCES" stroke-opacity="1" fill="none" stroke="none" fill-opacity="1" stroke-dasharray="none">
    <title>SOURCES</title>
    <g id="SOURCES_Dark">
      <title>Dark</title>
      <g id="Graphic_10878">
        <path d="M -362.11414 -3215.205 L -378.43414 -3215.205 C -380.5549 -3215.205 -382.27414 -3213.486 -382.27414 -3211.365 L -382.27414 -3195.045 C -382.27414 -3192.9243 -380.5549 -3191.205 -378.43414 -3191.205 L -362.11414 -3191.205 C -359.99336 -3191.205 -358.27414 -3192.9243 -358.27414 -3195.045 L -358.27414 -3211.365 C -358.27414 -3213.486 -359.99336 -3215.205 -362.11414 -3215.205 Z" fill="#666"/>
        <path d="M -362.11414 -3215.205 L -378.43414 -3215.205 C -380.5549 -3215.205 -382.27414 -3213.486 -382.27414 -3211.365 L -382.27414 -3195.045 C -382.27414 -3192.9243 -380.5549 -3191.205 -378.43414 -3191.205 L -362.11414 -3191.205 C -359.99336 -3191.205 -358.27414 -3192.9243 -358.27414 -3195.045 L -358.27414 -3211.365 C -358.27414 -3213.486 -359.99336 -3215.205 -362.11414 -3215.205 Z" stroke="white" stroke-linecap="round" stroke-linejoin="round" stroke-width=".25"/>
      </g>
      <g id="Graphic_10877">
        <rect x="-382.27414" y="-3215.205" width="24" height="24" stroke="gray" stroke-opacity="0" stroke-linecap="round" stroke-linejoin="round" stroke-width=".25"/>
      </g>
      <g id="Graphic_10875">
        <path d="M -370.30562 -3200.636 L -370.30562 -3196.4837 L -372.39246 -3198.7345 L -373.0258 -3198.0514 L -369.85912 -3194.636 L -366.69246 -3198.0514 L -367.3258 -3198.7345 L -369.41262 -3196.4837 L -369.41262 -3200.636 Z" fill="#8eed62"/>
        <path d="M -370.30562 -3200.636 L -370.30562 -3196.4837 L -372.39246 -3198.7345 L -373.0258 -3198.0514 L -369.85912 -3194.636 L -366.69246 -3198.0514 L -367.3258 -3198.7345 L -369.41262 -3196.4837 L -369.41262 -3200.636 Z" stroke="#528636" stroke-linecap="round" stroke-linejoin="round" stroke-width=".25"/>
      </g>
      <g id="Graphic_10874">
        <path d="M -370.12208 -3205.323 C -373.09633 -3205.6815 -374.71645 -3209.068 -373.049 -3211.5785 C -370.6635 -3215.173 -365.2228 -3213.1156 -365.554 -3208.739 C -365.68436 -3207.0062 -366.92494 -3206.0453 -367.23404 -3204.4788 C -367.9584 -3200.8107 -363.36825 -3199.0486 -361.31602 -3202.0555 C -359.9209 -3204.1003 -361.38436 -3206.9726 -363.8403 -3207.1492 C -364.15675 -3207.1713 -364.71397 -3207.0073 -364.81174 -3207.4184 C -364.92213 -3207.882 -364.4059 -3207.9104 -364.08526 -3207.9093 C -361.03006 -3207.8967 -359.0388 -3204.5955 -360.4865 -3201.9093 C -362.544 -3198.0898 -368.4105 -3199.6605 -368.05093 -3204.1098 C -367.86274 -3206.4364 -365.6339 -3207.6497 -366.435 -3210.2318 C -367.32655 -3213.102 -371.042 -3213.5687 -372.52124 -3210.9666 C -373.69034 -3208.9102 -372.3078 -3206.3102 -369.96227 -3206.0695 C -370.1305 -3206.4143 -370.47953 -3206.7213 -370.66036 -3207.0493 C -370.88325 -3207.453 -370.40384 -3207.8967 -370.0117 -3207.4667 C -369.58484 -3206.998 -369.2379 -3206.3712 -368.7974 -3205.899 C -368.68804 -3205.7015 -368.7406 -3205.4954 -368.86257 -3205.3167 C -369.42924 -3204.9898 -369.9938 -3204.339 -370.5489 -3204.036 C -370.8675 -3203.8627 -371.26804 -3204.1476 -371.09772 -3204.503 C -370.97997 -3204.749 -370.1284 -3205.26 -370.11997 -3205.323 Z" fill="#c0e0ff"/>
      </g>
      <g id="Graphic_10873">
        <path d="M -376.56156 -3194.636 C -378.21755 -3194.636 -379.56154 -3195.98 -379.56154 -3197.636 C -379.56154 -3199.292 -378.21755 -3200.636 -376.56156 -3200.636 C -374.90557 -3200.636 -373.56158 -3199.292 -373.56158 -3197.636 C -373.56158 -3195.98 -374.90557 -3194.636 -376.56156 -3194.636 Z M -376.56156 -3194.936 C -375.07057 -3194.936 -373.86157 -3196.145 -373.86157 -3197.636 C -373.86157 -3199.127 -375.07057 -3200.336 -376.56156 -3200.336 C -378.05255 -3200.336 -379.26154 -3199.127 -379.26154 -3197.636 C -379.26154 -3196.145 -378.05255 -3194.936 -376.56156 -3194.936 Z M -375.42456 -3197.009 C -375.35856 -3196.961 -375.34056 -3196.868 -375.38856 -3196.799 C -375.43656 -3196.733 -375.52956 -3196.715 -375.59856 -3196.763 L -376.64856 -3197.513 C -376.67556 -3197.534 -376.69656 -3197.561 -376.70556 -3197.597 L -377.15555 -3199.247 C -377.17655 -3199.328 -377.13155 -3199.409 -377.05055 -3199.43 C -376.96955 -3199.451 -376.88855 -3199.406 -376.86755 -3199.325 L -376.43256 -3197.726 L -375.42456 -3197.006 Z" fill="#c0e0ff"/>
        <path d="M -376.56156 -3194.636 C -378.21755 -3194.636 -379.56154 -3195.98 -379.56154 -3197.636 C -379.56154 -3199.292 -378.21755 -3200.636 -376.56156 -3200.636 C -374.90557 -3200.636 -373.56158 -3199.292 -373.56158 -3197.636 C -373.56158 -3195.98 -374.90557 -3194.636 -376.56156 -3194.636 Z M -376.56156 -3194.936 C -375.07057 -3194.936 -373.86157 -3196.145 -373.86157 -3197.636 C -373.86157 -3199.127 -375.07057 -3200.336 -376.56156 -3200.336 C -378.05255 -3200.336 -379.26154 -3199.127 -379.26154 -3197.636 C -379.26154 -3196.145 -378.05255 -3194.936 -376.56156 -3194.936 Z M -375.42456 -3197.009 C -375.35856 -3196.961 -375.34056 -3196.868 -375.38856 -3196.799 C -375.43656 -3196.733 -375.52956 -3196.715 -375.59856 -3196.763 L -376.64856 -3197.513 C -376.67556 -3197.534 -376.69656 -3197.561 -376.70556 -3197.597 L -377.15555 -3199.247 C -377.17655 -3199.328 -377.13155 -3199.409 -377.05055 -3199.43 C -376.96955 -3199.451 -376.88855 -3199.406 -376.86755 -3199.325 L -376.43256 -3197.726 L -375.42456 -3197.006 Z" stroke="#c0e0ff" stroke-linecap="butt" stroke-linejoin="round" stroke-width=".25"/>
      </g>
    </g>
  </g>
</svg>
