<svg height="25" viewBox="-706.774 -3215.705 25 25" width="25" xmlns="http://www.w3.org/2000/svg"><g fill="none"><circle cx="-694.274" cy="-3203.205" fill="#666" r="12"/><circle cx="-694.274" cy="-3203.205" r="12" stroke="#fff" stroke-linecap="round" stroke-linejoin="round" stroke-width=".25"/><path d="M-699.726-3207.607a7 7 0 1 1 5.444 11.402c-3.865 0-6.758-2.886-6.984-6.572a.386.386 0 0 1 .366-.413.386.386 0 0 1 .412.366c.202 3.274 2.917 5.841 6.214 5.841s6.223-2.784 6.223-6.222a6.227 6.227 0 0 0-6.23-6.222 6.225 6.225 0 0 0-4.862 2.333h2.14c.217 0 .388.171.388.389a.385.385 0 0 1-.389.389h-3.11a.385.385 0 0 1-.39-.389v-3.111c0-.218.172-.389.39-.389s.388.171.388.389z" fill="#c0e0ff"/></g></svg>