<svg height="25" viewBox="-562.839 -3200.452 25 25" width="25" xmlns="http://www.w3.org/2000/svg"><g fill="none"><circle cx="-550.339" cy="-3187.952" fill="#666" r="12"/><circle cx="-550.339" cy="-3187.952" r="12" stroke="#fff" stroke-linecap="round" stroke-linejoin="round" stroke-width=".25"/><path d="M-550.339-3188.847l5.154-5.141a.615.615 0 0 1 .882 0 .615.615 0 0 1 0 .881l-5.154 5.155 5.154 5.154c.248.248.248.633 0 .882s-.633.248-.882 0l-5.154-5.155-5.154 5.13a.615.615 0 0 1-.882 0 .615.615 0 0 1 0-.882l5.154-5.154-5.142-5.142a.6.6 0 0 1 0-.87.6.6 0 0 1 .87 0l5.154 5.155z" fill="#fc6d7e"/></g></svg>