<svg height="25" viewBox="-238.774 -3215.705 25 25" width="25" xmlns="http://www.w3.org/2000/svg"><g fill="none"><path d="M-218.114-3215.205h-16.32a3.84 3.84 0 0 0-3.84 3.84v16.32a3.84 3.84 0 0 0 3.84 3.84h16.32a3.84 3.84 0 0 0 3.84-3.84v-16.32a3.84 3.84 0 0 0-3.84-3.84z" fill="#666"/><path d="M-218.114-3215.205h-16.32a3.84 3.84 0 0 0-3.84 3.84v16.32a3.84 3.84 0 0 0 3.84 3.84h16.32a3.84 3.84 0 0 0 3.84-3.84v-16.32a3.84 3.84 0 0 0-3.84-3.84z" stroke="#fff" stroke-linecap="round" stroke-linejoin="round" stroke-width=".25"/><path d="M-238.274-3215.205h24v24h-24z"/><path d="M-230.002-3194.924l-1.819-1.818-1.818 1.818-.606-.606 1.818-1.818-1.818-1.819.606-.606 1.818 1.819 1.819-1.819.606.606-1.819 1.819 1.819 1.818z" fill="#ff0919"/><path d="M-230.002-3194.924l-1.819-1.818-1.818 1.818-.606-.606 1.818-1.818-1.818-1.819.606-.606 1.818 1.819 1.819-1.819.606.606-1.819 1.819 1.819 1.818z" stroke="#9f4c4b" stroke-linecap="round" stroke-linejoin="round" stroke-width=".25"/><path d="M-226.826-3205.558c-2.975-.358-4.595-3.745-2.927-6.255 2.385-3.595 7.826-1.537 7.495 2.84-.13 1.732-1.371 2.693-1.68 4.26-.725 3.668 3.866 5.43 5.918 2.423 1.395-2.045-.069-4.917-2.524-5.094-.317-.022-.874.142-.972-.269-.11-.464.406-.492.727-.491 3.055.013 5.046 3.314 3.598 6-2.057 3.82-7.924 2.249-7.564-2.2.188-2.327 2.417-3.54 1.616-6.122-.892-2.87-4.607-3.337-6.086-.735-1.17 2.056.213 4.656 2.559 4.897-.169-.345-.518-.652-.699-.98-.222-.404.257-.847.65-.417.426.469.773 1.095 1.213 1.567.11.198.057.404-.065.583-.566.327-1.131.977-1.686 1.28-.319.174-.72-.111-.549-.467.118-.246.97-.757.978-.82z" fill="#c0e0ff"/></g></svg>