<svg height="25" viewBox="-634.774 -3215.705 25 25" width="25" xmlns="http://www.w3.org/2000/svg"><g fill="none"><circle cx="-622.274" cy="-3203.205" fill="#666" r="12"/><circle cx="-622.274" cy="-3203.205" r="12" stroke="#fff" stroke-linecap="round" stroke-linejoin="round" stroke-width=".25"/><path d="m-623.8297-3201.7782 6.2145 4.2155c.2333.1557.5444.0934.7-.1323.0544-.0854.0855-.1788.0855-.28v-11.402c0-.28-.2255-.5057-.5055-.5057-.10115 0-.20226.0311-.28.0857l-6.2145 4.2154v3.8112zm0-4.7522 5.7711-3.92c.21-.1478.4667-.2178.7234-.2178.70774 0 1.2833.5755 1.2833 1.2832v11.4023c0 .2567-.0778.5057-.2178.7234-.4044.5833-1.19776.7389-1.7889.3423l-5.7711-3.92v2.2088c0 1.0732-.8711 1.9444-1.9444 1.9444h-.7778c-1.0733 0-1.94445-.8712-1.94445-1.9444v-10.1111c0-1.0734.87115-1.9445 1.94445-1.9445h.7778c1.0733 0 1.9444.8711 1.9444 1.9445zm-1.9444 9.0688c.6455 0 1.16664-.5211 1.16664-1.1666v-10.1111c0-.6457-.52114-1.1667-1.16664-1.1667h-.7778c-.64556 0-1.1667.521-1.1667 1.1667v10.1111c0 .6455.52114 1.1666 1.1667 1.1666z" fill="#e3e6e1"/></g></svg>