<svg height="25" viewBox="-634.774 -3215.705 25 25" width="25" xmlns="http://www.w3.org/2000/svg"><g fill="none"><circle cx="-622.274" cy="-3203.205" fill="#666" r="12"/><circle cx="-622.274" cy="-3203.205" r="12" stroke="#fff" stroke-linecap="round" stroke-linejoin="round" stroke-width=".25"/><path d="M-623.83-3201.778l6.215 4.215a.508.508 0 0 0 .7-.132.515.515 0 0 0 .085-.28v-11.402a.505.505 0 0 0-.785-.42l-6.215 4.215v3.812zm0-4.752l5.771-3.92c.21-.148.467-.218.724-.218.708 0 1.283.575 1.283 1.283v11.402c0 .257-.078.506-.218.724a1.296 1.296 0 0 1-1.789.342l-5.77-3.92v2.209a1.945 1.945 0 0 1-1.945 1.944h-.778a1.945 1.945 0 0 1-1.944-1.944v-10.111c0-1.074.87-1.945 1.944-1.945h.778c1.073 0 1.944.871 1.944 1.945zm-1.944 9.068c.645 0 1.167-.52 1.167-1.166v-10.111c0-.646-.522-1.167-1.167-1.167h-.778c-.645 0-1.167.521-1.167 1.167v10.11c0 .646.522 1.167 1.167 1.167z" fill="#e3e6e1"/></g></svg>