<svg height="25" viewBox="-454.774 -3215.705 25 25" width="25" xmlns="http://www.w3.org/2000/svg"><g fill="none"><path d="M-434.114-3215.205h-16.32a3.84 3.84 0 0 0-3.84 3.84v16.32a3.84 3.84 0 0 0 3.84 3.84h16.32a3.84 3.84 0 0 0 3.84-3.84v-16.32a3.84 3.84 0 0 0-3.84-3.84z" fill="#666"/><path d="M-434.114-3215.205h-16.32a3.84 3.84 0 0 0-3.84 3.84v16.32a3.84 3.84 0 0 0 3.84 3.84h16.32a3.84 3.84 0 0 0 3.84-3.84v-16.32a3.84 3.84 0 0 0-3.84-3.84z" stroke="#fff" stroke-linecap="round" stroke-linejoin="round" stroke-width=".25"/><path d="M-454.274-3215.205h24v24h-24z"/><path d="M-446.901-3201.205v4.152l-2.087-2.25-.634.683 3.167 3.415 3.167-3.415-.634-.684-2.086 2.251v-4.152z" fill="#8eed62"/><path d="M-446.901-3201.205v4.152l-2.087-2.25-.634.683 3.167 3.415 3.167-3.415-.634-.684-2.086 2.251v-4.152z" stroke="#518737" stroke-linecap="round" stroke-linejoin="round" stroke-width=".25"/><path d="M-442.077-3205.558c-2.974-.358-4.594-3.745-2.927-6.255 2.386-3.595 7.827-1.537 7.495 2.84-.13 1.732-1.37 2.693-1.68 4.26-.724 3.668 3.866 5.43 5.918 2.423 1.396-2.045-.068-4.917-2.524-5.094-.316-.022-.874.142-.971-.269-.11-.464.406-.492.726-.491 3.055.013 5.047 3.314 3.599 6-2.058 3.82-7.924 2.249-7.564-2.2.188-2.327 2.417-3.54 1.615-6.122-.891-2.87-4.607-3.337-6.086-.735-1.169 2.056.214 4.656 2.56 4.897-.17-.345-.518-.652-.699-.98-.223-.404.257-.847.649-.417.427.468.774 1.095 1.214 1.567.11.198.057.404-.065.583-.567.327-1.131.977-1.686 1.28-.319.174-.72-.111-.55-.467.118-.246.97-.757.978-.82z" fill="#c0e0ff"/></g></svg>