<?xml version="1.0" encoding="UTF-8" standalone="no"?>
<!DOCTYPE svg PUBLIC "-//W3C//DTD SVG 1.1//EN" "http://www.w3.org/Graphics/SVG/1.1/DTD/svg11.dtd">
<svg xmlns="http://www.w3.org/2000/svg" xmlns:xl="http://www.w3.org/1999/xlink" version="1.1" xmlns:dc="http://purl.org/dc/elements/1.1/" viewBox="-274.77414 -3215.705 25 25" width="25" height="25">
  <defs/>
  <g id="SOURCES" stroke-opacity="1" fill="none" stroke="none" fill-opacity="1" stroke-dasharray="none">
    <title>SOURCES</title>
    <g id="SOURCES_Dark">
      <title>Dark</title>
      <g id="Graphic_10885">
        <path d="M -254.11414 -3215.205 L -270.43414 -3215.205 C -272.5549 -3215.205 -274.27414 -3213.486 -274.27414 -3211.365 L -274.27414 -3195.045 C -274.27414 -3192.9243 -272.5549 -3191.205 -270.43414 -3191.205 L -254.11414 -3191.205 C -251.99336 -3191.205 -250.27414 -3192.9243 -250.27414 -3195.045 L -250.27414 -3211.365 C -250.27414 -3213.486 -251.99336 -3215.205 -254.11414 -3215.205 Z" fill="#666"/>
        <path d="M -254.11414 -3215.205 L -270.43414 -3215.205 C -272.5549 -3215.205 -274.27414 -3213.486 -274.27414 -3211.365 L -274.27414 -3195.045 C -274.27414 -3192.9243 -272.5549 -3191.205 -270.43414 -3191.205 L -254.11414 -3191.205 C -251.99336 -3191.205 -250.27414 -3192.9243 -250.27414 -3195.045 L -250.27414 -3211.365 C -250.27414 -3213.486 -251.99336 -3215.205 -254.11414 -3215.205 Z" stroke="white" stroke-linecap="round" stroke-linejoin="round" stroke-width=".25"/>
      </g>
      <g id="Graphic_10884">
        <rect x="-274.27414" y="-3215.205" width="24" height="24" stroke="gray" stroke-opacity="0" stroke-linecap="round" stroke-linejoin="round" stroke-width=".25"/>
      </g>
      <g id="Graphic_10882">
        <path d="M -265.21215 -3197.2075 L -267.78356 -3197.2075 L -267.78356 -3194.636 L -268.6407 -3194.636 L -268.6407 -3197.2075 L -271.2121 -3197.2075 L -271.2121 -3198.0646 L -268.6407 -3198.0646 L -268.6407 -3200.636 L -267.78356 -3200.636 L -267.78356 -3198.0646 L -265.21215 -3198.0646 L -265.21215 -3197.2075 Z" fill="#f9b841"/>
        <path d="M -265.21215 -3197.2075 L -267.78356 -3197.2075 L -267.78356 -3194.636 L -268.6407 -3194.636 L -268.6407 -3197.2075 L -271.2121 -3197.2075 L -271.2121 -3198.0646 L -268.6407 -3198.0646 L -268.6407 -3200.636 L -267.78356 -3200.636 L -267.78356 -3198.0646 L -265.21215 -3198.0646 L -265.21215 -3197.2075 Z" stroke="#cf7839" stroke-linecap="round" stroke-linejoin="round" stroke-width=".25"/>
      </g>
      <g id="Graphic_10881">
        <path d="M -261.9629 -3205.323 C -264.93716 -3205.6815 -266.55728 -3209.068 -264.88985 -3211.5785 C -262.50435 -3215.173 -257.06365 -3213.1156 -257.39482 -3208.739 C -257.5252 -3207.0062 -258.76577 -3206.0453 -259.07487 -3204.4788 C -259.79924 -3200.8107 -255.20908 -3199.0486 -253.15685 -3202.0555 C -251.76172 -3204.1003 -253.2252 -3206.9726 -255.68113 -3207.1492 C -255.99758 -3207.1713 -256.5548 -3207.0073 -256.65257 -3207.4184 C -256.76296 -3207.882 -256.24675 -3207.9104 -255.9261 -3207.9093 C -252.8709 -3207.8967 -250.87964 -3204.5955 -252.32734 -3201.9093 C -254.38482 -3198.0898 -260.25132 -3199.6605 -259.89176 -3204.1098 C -259.70357 -3206.4364 -257.47472 -3207.6497 -258.27584 -3210.2318 C -259.16738 -3213.102 -262.88283 -3213.5687 -264.36207 -3210.9666 C -265.53117 -3208.9102 -264.14865 -3206.3102 -261.8031 -3206.0695 C -261.97132 -3206.4143 -262.32036 -3206.7213 -262.5012 -3207.0493 C -262.72408 -3207.453 -262.24467 -3207.8967 -261.8525 -3207.4667 C -261.42567 -3206.998 -261.07873 -3206.3712 -260.6382 -3205.899 C -260.52887 -3205.7015 -260.58144 -3205.4954 -260.7034 -3205.3167 C -261.27007 -3204.9898 -261.83464 -3204.339 -262.38975 -3204.036 C -262.7083 -3203.8627 -263.10887 -3204.1476 -262.93855 -3204.503 C -262.8208 -3204.749 -261.9692 -3205.26 -261.9608 -3205.323 Z" fill="#c0e0ff"/>
      </g>
      <g id="Graphic_10880">
        <path d="M -259.3983 -3200.4515 C -259.3983 -3201.0808 -259.80643 -3201.591 -260.3099 -3201.591 L -263.3485 -3201.591 C -263.85197 -3201.591 -264.2601 -3201.0808 -264.2601 -3200.4515 L -264.2601 -3198.1727 C -264.2601 -3197.5434 -263.85197 -3197.0333 -263.3485 -3197.0333 L -260.3099 -3197.0333 C -259.80643 -3197.0333 -259.3983 -3197.5434 -259.3983 -3198.1727 Z" fill="white"/>
        <path d="M -259.3983 -3200.4515 C -259.3983 -3201.0808 -259.80643 -3201.591 -260.3099 -3201.591 L -263.3485 -3201.591 C -263.85197 -3201.591 -264.2601 -3201.0808 -264.2601 -3200.4515 L -264.2601 -3198.1727 C -264.2601 -3197.5434 -263.85197 -3197.0333 -263.3485 -3197.0333 L -260.3099 -3197.0333 C -259.80643 -3197.0333 -259.3983 -3197.5434 -259.3983 -3198.1727 Z" stroke="#528636" stroke-linecap="butt" stroke-linejoin="round" stroke-width=".5"/>
      </g>
      <g id="Graphic_10879">
        <path d="M -257.10362 -3198.2375 C -257.10362 -3198.8668 -257.51175 -3199.377 -258.0152 -3199.377 L -261.05382 -3199.377 C -261.5573 -3199.377 -261.9654 -3198.8668 -261.9654 -3198.2375 L -261.9654 -3195.9587 C -261.9654 -3195.3294 -261.5573 -3194.8193 -261.05382 -3194.8193 L -258.0152 -3194.8193 C -257.51175 -3194.8193 -257.10362 -3195.3294 -257.10362 -3195.9587 Z" fill="white"/>
        <path d="M -257.10362 -3198.2375 C -257.10362 -3198.8668 -257.51175 -3199.377 -258.0152 -3199.377 L -261.05382 -3199.377 C -261.5573 -3199.377 -261.9654 -3198.8668 -261.9654 -3198.2375 L -261.9654 -3195.9587 C -261.9654 -3195.3294 -261.5573 -3194.8193 -261.05382 -3194.8193 L -258.0152 -3194.8193 C -257.51175 -3194.8193 -257.10362 -3195.3294 -257.10362 -3195.9587 Z" stroke="#528636" stroke-linecap="butt" stroke-linejoin="round" stroke-width=".5"/>
      </g>
    </g>
  </g>
</svg>
