<svg height="25" viewBox="-706.774 -3215.705 25 25" width="25" xmlns="http://www.w3.org/2000/svg"><g fill="none"><circle cx="-694.274" cy="-3203.205" fill="#666" r="12"/><circle cx="-694.274" cy="-3203.205" r="12" stroke="#fff" stroke-linecap="round" stroke-linejoin="round" stroke-width=".25"/><path d="m-699.7258-3207.6073c1.3144-1.6177 3.29775-2.5977 5.4444-2.5977 3.8656 0 7 3.1343 7 7 0 3.8654-3.1344 7-7 7-3.8655 0-6.7589-2.8857-6.9844-6.5723-.0156-.2177.14775-.3967.3655-.4123.2178-.0154.3967.1478.41225.3656.20225 3.2744 2.91665 5.841 6.21445 5.841s6.2222-2.7843 6.2222-6.222c0-3.438-2.7922-6.2223-6.23-6.2223-1.9211 0-3.6944.8789-4.8611 2.3333h2.1389c.2178 0 .3889.171.3889.389 0 .2177-.1711.3888-.3889.3888h-3.1111c-.2178 0-.3889-.1711-.3889-.3888v-3.1112c0-.2178.1711-.3888.3889-.3888s.3889.171.3889.3888z" fill="#c0e0ff"/></g></svg>