<svg height="25" viewBox="-778.774 -3215.705 25 25" width="25" xmlns="http://www.w3.org/2000/svg"><g fill="none"><circle cx="-766.274" cy="-3203.205" fill="#666" r="12"/><circle cx="-766.274" cy="-3203.205" r="12" stroke="#fff" stroke-linecap="round" stroke-linejoin="round" stroke-width=".25"/><g fill="#8eed62"><path d="M-772.138-3208.916v11.432c0 .28.165.507.368.507a.297.297 0 0 0 .204-.086l6.036-5.638c.198-.187.25-.562.114-.834a.454.454 0 0 0-.114-.156l-6.036-5.646c-.17-.156-.396-.094-.51.132a.663.663 0 0 0-.061.281zm-.566 0c0-.258.057-.507.159-.726.294-.584.872-.74 1.302-.343l6.036 5.639c.108.101.198.226.266.366.312.632.193 1.49-.266 1.918l-6.036 5.638a.75.75 0 0 1-.527.219c-.515 0-.934-.577-.934-1.287z"/><path d="M-764.606-3208.916v11.432c0 .28.164.507.368.507a.297.297 0 0 0 .204-.086l6.036-5.638c.198-.187.249-.562.113-.834a.454.454 0 0 0-.113-.156l-6.036-5.646c-.17-.156-.397-.094-.51.132a.665.665 0 0 0-.062.281zm-.566 0c0-.258.056-.507.158-.726.295-.584.872-.74 1.303-.343l6.036 5.639c.107.101.198.226.266.366.311.632.192 1.49-.266 1.918l-6.036 5.638a.75.75 0 0 1-.527.219c-.515 0-.934-.577-.934-1.287z"/></g></g></svg>