<svg height="25" viewBox="-742.774 -3200.298 25 25" width="25" xmlns="http://www.w3.org/2000/svg"><g fill="none"><circle cx="-730.274" cy="-3187.798" fill="#666" r="12"/><circle cx="-730.274" cy="-3187.798" r="12" stroke="#fff" stroke-linecap="round" stroke-linejoin="round" stroke-width=".25"/><path d="M-733.774-3193.131c-.646 0-1.167.446-1.167 1v8.666c0 .554.521 1 1.167 1h.778c.645 0 1.166-.446 1.166-1v-8.666c0-.554-.52-1-1.166-1zm0-.667h.778c1.073 0 1.944.747 1.944 1.667v8.666c0 .92-.871 1.667-1.944 1.667h-.778c-1.073 0-1.945-.747-1.945-1.667v-8.666c0-.92.872-1.667 1.945-1.667zm6.222 0h.778c1.073 0 1.944.747 1.944 1.667v8.666c0 .92-.87 1.667-1.944 1.667h-.778c-1.073 0-1.944-.747-1.944-1.667v-8.666c0-.92.87-1.667 1.944-1.667zm0 .666c-.645 0-1.167.447-1.167 1v8.667c0 .554.522 1 1.167 1h.778c.645 0 1.167-.446 1.167-1v-8.666c0-.554-.522-1-1.167-1z" fill="#f9b841"/></g></svg>