<svg height="25" viewBox="-238.774 -3215.705 25 25" width="25" xmlns="http://www.w3.org/2000/svg"><g fill="none"><path d="m-218.11414-3215.205h-16.32c-2.12076 0-3.84 1.719-3.84 3.84v16.32c0 2.1207 1.71924 3.84 3.84 3.84h16.32c2.12078 0 3.84-1.7193 3.84-3.84v-16.32c0-2.121-1.71922-3.84-3.84-3.84z" fill="#666"/><path d="m-218.11414-3215.205h-16.32c-2.12076 0-3.84 1.719-3.84 3.84v16.32c0 2.1207 1.71924 3.84 3.84 3.84h16.32c2.12078 0 3.84-1.7193 3.84-3.84v-16.32c0-2.121-1.71922-3.84-3.84-3.84z" stroke="#fff" stroke-linecap="round" stroke-linejoin="round" stroke-width=".25"/><path d="m-238.27414-3215.205h24v24h-24z"/><path d="m-230.00245-3194.924-1.81825-1.8182-1.81827 1.8182-.60609-.606 1.81826-1.8183-1.81826-1.8183.60609-.6061 1.81827 1.8183 1.81825-1.8183.60609.6061-1.81826 1.8183 1.81826 1.8183z" fill="#ff0919"/><path d="m-230.00245-3194.924-1.81825-1.8182-1.81827 1.8182-.60609-.606 1.81826-1.8183-1.81826-1.8183.60609-.6061 1.81827 1.8183 1.81825-1.8183.60609.6061-1.81826 1.8183 1.81826 1.8183z" stroke="#9f4c4b" stroke-linecap="round" stroke-linejoin="round" stroke-width=".25"/><path d="m-226.82628-3205.5577c-2.97426-.3586-4.59439-3.7449-2.92695-6.2556 2.38551-3.5947 7.82623-1.537 7.49506 2.8397-.13037 1.7326-1.37096 2.6936-1.68006 4.2601-.72437 3.6681 3.86581 5.4302 5.91804 2.4235 1.39514-2.045-.06833-4.9173-2.52428-5.094-.31646-.022-.87367.142-.97145-.269-.11038-.4637.40582-.492.72648-.491 3.05522.0126 5.04647 3.3138 3.59877 6-2.05749 3.8195-7.92401 2.249-7.56445-2.2005.18819-2.3265 2.41705-3.5399 1.61592-6.122-.89154-2.8702-4.607-3.337-6.08626-.7349-1.1691 2.0564.21343 4.6564 2.55899 4.8972-.16823-.3448-.51727-.6518-.6981-.9798-.22289-.4038.25653-.8474.64867-.4174.42686.4689.7738 1.0954 1.21432 1.5674.10934.1978.05678.404-.06518.5826-.56668.3269-1.13126.9777-1.68637 1.2804-.31856.1736-.71912-.1113-.5488-.4667.11775-.246.96933-.757.97775-.82z" fill="#c0e0ff"/></g></svg>