<?xml version="1.0" encoding="UTF-8" standalone="no"?>
<!DOCTYPE svg PUBLIC "-//W3C//DTD SVG 1.1//EN" "http://www.w3.org/Graphics/SVG/1.1/DTD/svg11.dtd">
<svg xmlns="http://www.w3.org/2000/svg" xmlns:xl="http://www.w3.org/1999/xlink" version="1.1" xmlns:dc="http://purl.org/dc/elements/1.1/" viewBox="-490.77414 -3215.705 25 25" width="25" height="25">
  <defs/>
  <g id="SOURCES" stroke-opacity="1" fill="none" stroke="none" fill-opacity="1" stroke-dasharray="none">
    <title>SOURCES</title>
    <g id="SOURCES_Dark">
      <title>Dark</title>
      <g id="Graphic_10914">
        <path d="M -470.11414 -3215.205 L -486.43414 -3215.205 C -488.5549 -3215.205 -490.27414 -3213.486 -490.27414 -3211.365 L -490.27414 -3195.045 C -490.27414 -3192.9243 -488.5549 -3191.205 -486.43414 -3191.205 L -470.11414 -3191.205 C -467.99336 -3191.205 -466.27414 -3192.9243 -466.27414 -3195.045 L -466.27414 -3211.365 C -466.27414 -3213.486 -467.99336 -3215.205 -470.11414 -3215.205 Z" fill="#666"/>
        <path d="M -470.11414 -3215.205 L -486.43414 -3215.205 C -488.5549 -3215.205 -490.27414 -3213.486 -490.27414 -3211.365 L -490.27414 -3195.045 C -490.27414 -3192.9243 -488.5549 -3191.205 -486.43414 -3191.205 L -470.11414 -3191.205 C -467.99336 -3191.205 -466.27414 -3192.9243 -466.27414 -3195.045 L -466.27414 -3211.365 C -466.27414 -3213.486 -467.99336 -3215.205 -470.11414 -3215.205 Z" stroke="white" stroke-linecap="round" stroke-linejoin="round" stroke-width=".25"/>
      </g>
      <g id="Graphic_10913">
        <rect x="-490.27414" y="-3215.205" width="24" height="24" stroke="gray" stroke-opacity="0" stroke-linecap="round" stroke-linejoin="round" stroke-width=".25"/>
      </g>
      <g id="Graphic_10911">
        <path d="M -482.0718 -3201.9087 C -485.7896 -3202.3568 -487.81474 -3206.5898 -485.73045 -3209.728 C -482.7486 -3214.2212 -475.9477 -3211.6494 -476.36167 -3206.1784 C -476.5246 -3204.0127 -478.07536 -3202.8115 -478.4617 -3200.8534 C -479.3672 -3196.2682 -473.6295 -3194.0657 -471.0642 -3197.8242 C -469.3203 -3200.3803 -471.14963 -3203.9706 -474.21955 -3204.1914 C -474.6151 -3204.219 -475.31164 -3204.014 -475.43386 -3204.528 C -475.57185 -3205.1074 -474.9266 -3205.143 -474.52576 -3205.1416 C -470.70675 -3205.1258 -468.2177 -3200.9993 -470.0273 -3197.6415 C -472.5992 -3192.867 -479.9323 -3194.8305 -479.48284 -3200.392 C -479.2476 -3203.3004 -476.46154 -3204.817 -477.46295 -3208.0446 C -478.5774 -3211.6323 -483.2217 -3212.2158 -485.07073 -3208.963 C -486.5321 -3206.3927 -484.80396 -3203.1427 -481.872 -3202.8417 C -482.0823 -3203.2728 -482.5186 -3203.6565 -482.74464 -3204.0666 C -483.02324 -3204.5712 -482.424 -3205.1258 -481.9338 -3204.5883 C -481.40023 -3204.002 -480.96655 -3203.219 -480.4159 -3202.629 C -480.27924 -3202.3818 -480.34494 -3202.1242 -480.4974 -3201.9008 C -481.20573 -3201.492 -481.91145 -3200.6786 -482.60533 -3200.3 C -483.00353 -3200.0833 -483.50423 -3200.4394 -483.29134 -3200.8836 C -483.14415 -3201.191 -482.07966 -3201.83 -482.06915 -3201.9087 Z" fill="#c0e0ff"/>
      </g>
    </g>
  </g>
</svg>
