<svg height="25" viewBox="-742.774 -3200.298 25 25" width="25" xmlns="http://www.w3.org/2000/svg"><g fill="none"><circle cx="-730.274" cy="-3187.798" fill="#666" r="12"/><circle cx="-730.274" cy="-3187.798" r="12" stroke="#fff" stroke-linecap="round" stroke-linejoin="round" stroke-width=".25"/><path d="m-733.7741-3193.1315c-.6456 0-1.1667.4467-1.1667 1v8.6667c0 .5533.5211 1 1.1667 1h.7778c.6455 0 1.1666-.4467 1.1666-1v-8.6667c0-.5533-.5211-1-1.1666-1zm0-.6665h.7778c1.0733 0 1.9444.7465 1.9444 1.6665v8.6667c0 .92-.8711 1.6668-1.9444 1.6668h-.7778c-1.07335 0-1.9445-.7468-1.9445-1.6668v-8.6667c0-.92.87115-1.6665 1.9445-1.6665zm6.2222 0h.7778c1.0733 0 1.9444.7465 1.9444 1.6665v8.6667c0 .92-.8711 1.6668-1.9444 1.6668h-.7778c-1.0733 0-1.9444-.7468-1.9444-1.6668v-8.6667c0-.92.8711-1.6665 1.9444-1.6665zm0 .6665c-.64555 0-1.1667.4467-1.1667 1v8.6667c0 .5533.52115 1 1.1667 1h.7778c.6455 0 1.16665-.4467 1.16665-1v-8.6667c0-.5533-.52115-1-1.16665-1z" fill="#f9b841"/></g></svg>