<svg height="25" viewBox="-382.774 -3215.705 25 25" width="25" xmlns="http://www.w3.org/2000/svg"><g fill="none"><path d="M-362.114-3215.205h-16.32a3.84 3.84 0 0 0-3.84 3.84v16.32a3.84 3.84 0 0 0 3.84 3.84h16.32a3.84 3.84 0 0 0 3.84-3.84v-16.32a3.84 3.84 0 0 0-3.84-3.84z" fill="#666"/><path d="M-362.114-3215.205h-16.32a3.84 3.84 0 0 0-3.84 3.84v16.32a3.84 3.84 0 0 0 3.84 3.84h16.32a3.84 3.84 0 0 0 3.84-3.84v-16.32a3.84 3.84 0 0 0-3.84-3.84z" stroke="#fff" stroke-linecap="round" stroke-linejoin="round" stroke-width=".25"/><path d="M-382.274-3215.205h24v24h-24z"/><path d="M-370.306-3200.636v4.152l-2.086-2.25-.634.683 3.167 3.415 3.167-3.415-.634-.683-2.087 2.25v-4.152z" fill="#8eed62"/><path d="M-370.306-3200.636v4.152l-2.086-2.25-.634.683 3.167 3.415 3.167-3.415-.634-.683-2.087 2.25v-4.152z" stroke="#528636" stroke-linecap="round" stroke-linejoin="round" stroke-width=".25"/><path d="M-370.122-3205.323c-2.974-.358-4.594-3.745-2.927-6.255 2.385-3.595 7.826-1.538 7.495 2.839-.13 1.733-1.37 2.694-1.68 4.26-.724 3.668 3.866 5.43 5.918 2.423 1.395-2.044-.068-4.917-2.524-5.093-.317-.022-.874.142-.972-.27-.11-.463.406-.491.727-.49 3.055.012 5.046 3.314 3.599 6-2.058 3.82-7.924 2.249-7.565-2.2.188-2.327 2.417-3.54 1.616-6.123-.892-2.87-4.607-3.337-6.086-.735-1.17 2.057.213 4.657 2.559 4.898-.168-.345-.518-.652-.698-.98-.223-.404.256-.848.648-.418.427.469.774 1.096 1.215 1.568.109.198.056.404-.066.582-.566.327-1.13.978-1.686 1.281-.318.173-.719-.112-.549-.467.118-.246.97-.757.978-.82zm-6.44 10.687a3.001 3.001 0 0 1 0-6 3.001 3.001 0 0 1 0 6zm0-.3a2.7 2.7 0 1 0 0-5.4 2.7 2.7 0 0 0 0 5.4zm1.137-2.073a.152.152 0 0 1 .036.21.152.152 0 0 1-.21.036l-1.05-.75a.152.152 0 0 1-.057-.084l-.45-1.65c-.02-.081.024-.162.105-.183s.162.024.183.105l.435 1.599 1.008.72z" fill="#c0e0ff"/><path d="M-376.562-3194.636a3.001 3.001 0 0 1 0-6 3.001 3.001 0 0 1 0 6zm0-.3a2.7 2.7 0 1 0 0-5.4 2.7 2.7 0 0 0 0 5.4zm1.137-2.073a.152.152 0 0 1 .036.21.152.152 0 0 1-.21.036l-1.05-.75a.152.152 0 0 1-.057-.084l-.45-1.65c-.02-.081.024-.162.105-.183s.162.024.183.105l.435 1.599 1.008.72z" stroke="#c0e0ff" stroke-linejoin="round" stroke-width=".25"/></g></svg>