<svg height="25" viewBox="-526.774 -3215.705 25 25" width="25" xmlns="http://www.w3.org/2000/svg"><g fill="none"><circle cx="-514.274" cy="-3203.205" fill="#666" r="12"/><circle cx="-514.274" cy="-3203.205" r="12" stroke="#fff" stroke-linecap="round" stroke-linejoin="round" stroke-width=".25"/><path d="m-518.159-3198.357c-1.4529-1.1653-2.3309-2.9368-2.3309-4.856 0-3.2865 2.564-6.006 5.8273-6.2.21753-.0156.3807-.1943.36516-.412-.01556-.2174-.19426-.3806-.4118-.365-3.67506.2252-6.55766 3.2787-6.55766 6.977 0 2.1446.979 4.126 2.5951 5.439h-2.2066c-.21754 0-.3885.171-.3885.3884 0 .2176.17096.3886.3885.3886h3.1079c.21755 0 .3885-.171.3885-.3886v-3.1079c0-.2175-.17095-.3885-.3885-.3885s-.3885.171-.3885.3885zm7.7697-9.704c1.45295 1.1653 2.3309 2.9368 2.3309 4.856 0 3.302-2.5795 6.0214-5.8583 6.208-.2176.0154-.38074.194-.3652.4117.01554.2175.19424.3807.4118.3653 3.6906-.2177 6.5887-3.279 6.5887-6.993 0-2.1443-.979-4.1256-2.5951-5.4387h2.2066c.21757 0 .3885-.1709.3885-.3883 0-.2177-.17093-.3886-.3885-.3886h-3.10787c-.21753 0-.38848.1709-.38848.3886v3.1077c0 .2176.17095.3885.38848.3885.21757 0 .38847-.1709.38847-.3885v-2.1367z" fill="#c0e0ff"/></g></svg>