<?xml version="1.0" encoding="UTF-8" standalone="no"?>
<!DOCTYPE svg PUBLIC "-//W3C//DTD SVG 1.1//EN" "http://www.w3.org/Graphics/SVG/1.1/DTD/svg11.dtd">
<svg xmlns="http://www.w3.org/2000/svg" xmlns:xl="http://www.w3.org/1999/xlink" version="1.1" xmlns:dc="http://purl.org/dc/elements/1.1/" viewBox="-454.77414 -3215.705 25 25" width="25" height="25">
  <defs/>
  <g id="SOURCES" stroke-opacity="1" fill="none" stroke="none" fill-opacity="1" stroke-dasharray="none">
    <title>SOURCES</title>
    <g id="SOURCES_Dark">
      <title>Dark</title>
      <g id="Graphic_10909">
        <path d="M -434.11414 -3215.205 L -450.43414 -3215.205 C -452.5549 -3215.205 -454.27414 -3213.486 -454.27414 -3211.365 L -454.27414 -3195.045 C -454.27414 -3192.9243 -452.5549 -3191.205 -450.43414 -3191.205 L -434.11414 -3191.205 C -431.99336 -3191.205 -430.27414 -3192.9243 -430.27414 -3195.045 L -430.27414 -3211.365 C -430.27414 -3213.486 -431.99336 -3215.205 -434.11414 -3215.205 Z" fill="#666"/>
        <path d="M -434.11414 -3215.205 L -450.43414 -3215.205 C -452.5549 -3215.205 -454.27414 -3213.486 -454.27414 -3211.365 L -454.27414 -3195.045 C -454.27414 -3192.9243 -452.5549 -3191.205 -450.43414 -3191.205 L -434.11414 -3191.205 C -431.99336 -3191.205 -430.27414 -3192.9243 -430.27414 -3195.045 L -430.27414 -3211.365 C -430.27414 -3213.486 -431.99336 -3215.205 -434.11414 -3215.205 Z" stroke="white" stroke-linecap="round" stroke-linejoin="round" stroke-width=".25"/>
      </g>
      <g id="Graphic_10908">
        <rect x="-454.27414" y="-3215.205" width="24" height="24" stroke="gray" stroke-opacity="0" stroke-linecap="round" stroke-linejoin="round" stroke-width=".25"/>
      </g>
      <g id="Graphic_10907">
        <path d="M -446.90147 -3201.205 L -446.90147 -3197.053 L -448.9883 -3199.3036 L -449.62163 -3198.6205 L -446.45497 -3195.205 L -443.2883 -3198.6205 L -443.92163 -3199.3036 L -446.00847 -3197.053 L -446.00847 -3201.205 Z" fill="#8eed62"/>
        <path d="M -446.90147 -3201.205 L -446.90147 -3197.053 L -448.9883 -3199.3036 L -449.62163 -3198.6205 L -446.45497 -3195.205 L -443.2883 -3198.6205 L -443.92163 -3199.3036 L -446.00847 -3197.053 L -446.00847 -3201.205 Z" stroke="#518737" stroke-linecap="round" stroke-linejoin="round" stroke-width=".25"/>
      </g>
      <g id="Graphic_10906">
        <path d="M -442.07665 -3205.5578 C -445.0509 -3205.9163 -446.671 -3209.3027 -445.0036 -3211.8133 C -442.6181 -3215.408 -437.1774 -3213.3503 -437.50856 -3208.9736 C -437.6389 -3207.241 -438.8795 -3206.28 -439.1886 -3204.7136 C -439.913 -3201.0454 -435.3228 -3199.2834 -433.2706 -3202.2902 C -431.87546 -3204.335 -433.33893 -3207.2073 -435.79487 -3207.384 C -436.1113 -3207.406 -436.66853 -3207.242 -436.7663 -3207.653 C -436.8767 -3208.1168 -436.3605 -3208.145 -436.03983 -3208.144 C -432.98463 -3208.1315 -430.9934 -3204.8303 -432.4411 -3202.144 C -434.49856 -3198.3245 -440.36506 -3199.8953 -440.0055 -3204.3445 C -439.8173 -3206.671 -437.58846 -3207.8844 -438.3896 -3210.4665 C -439.2811 -3213.3367 -442.99657 -3213.8035 -444.4758 -3211.2014 C -445.6449 -3209.145 -444.2624 -3206.545 -441.91684 -3206.3042 C -442.08506 -3206.649 -442.4341 -3206.956 -442.61493 -3207.284 C -442.8378 -3207.688 -442.3584 -3208.1315 -441.96625 -3207.7015 C -441.5394 -3207.2326 -441.19247 -3206.606 -440.75195 -3206.134 C -440.6426 -3205.9363 -440.6952 -3205.7302 -440.81714 -3205.5515 C -441.3838 -3205.2245 -441.9484 -3204.5737 -442.5035 -3204.271 C -442.82205 -3204.0975 -443.2226 -3204.3824 -443.0523 -3204.7377 C -442.93454 -3204.9838 -442.08295 -3205.4947 -442.07454 -3205.5578 Z" fill="#c0e0ff"/>
      </g>
    </g>
  </g>
</svg>
