<?xml version="1.0" encoding="UTF-8" standalone="no"?>
<!DOCTYPE svg PUBLIC "-//W3C//DTD SVG 1.1//EN" "http://www.w3.org/Graphics/SVG/1.1/DTD/svg11.dtd">
<svg xmlns="http://www.w3.org/2000/svg" xmlns:xl="http://www.w3.org/1999/xlink" version="1.1" xmlns:dc="http://purl.org/dc/elements/1.1/" viewBox="-634.7741 -3215.705 24.999996 25" width="24.999996" height="25">
  <defs/>
  <g id="SOURCES" stroke-opacity="1" fill="none" stroke="none" fill-opacity="1" stroke-dasharray="none">
    <title>SOURCES</title>
    <g id="SOURCES_Dark">
      <title>Dark</title>
      <g id="Graphic_11364">
        <circle cx="-622.2741" cy="-3203.205" r="12.000018268838" fill="#666"/>
        <circle cx="-622.2741" cy="-3203.205" r="12.000018268838" stroke="white" stroke-linecap="round" stroke-linejoin="round" stroke-width=".25"/>
      </g>
      <g id="Graphic_11363">
        <path d="M -623.8297 -3201.7782 L -617.6152 -3197.5627 C -617.3819 -3197.407 -617.0708 -3197.4693 -616.9152 -3197.695 C -616.8608 -3197.7804 -616.8297 -3197.8738 -616.8297 -3197.975 L -616.8297 -3209.377 C -616.8297 -3209.657 -617.0552 -3209.8827 -617.3352 -3209.8827 C -617.43635 -3209.8827 -617.53746 -3209.8516 -617.6152 -3209.797 L -623.8297 -3205.5816 L -623.8297 -3201.7704 Z M -623.8297 -3206.5304 L -618.0586 -3210.4504 C -617.8486 -3210.5982 -617.5919 -3210.6682 -617.3352 -3210.6682 C -616.62746 -3210.6682 -616.0519 -3210.0927 -616.0519 -3209.385 L -616.0519 -3197.9827 C -616.0519 -3197.726 -616.1297 -3197.477 -616.2697 -3197.2593 C -616.6741 -3196.676 -617.46746 -3196.5204 -618.0586 -3196.917 L -623.8297 -3200.837 L -623.8297 -3198.6282 C -623.8297 -3197.555 -624.7008 -3196.6838 -625.7741 -3196.6838 L -626.5519 -3196.6838 C -627.6252 -3196.6838 -628.49635 -3197.555 -628.49635 -3198.6282 L -628.49635 -3208.7393 C -628.49635 -3209.8127 -627.6252 -3210.6838 -626.5519 -3210.6838 L -625.7741 -3210.6838 C -624.7008 -3210.6838 -623.8297 -3209.8127 -623.8297 -3208.7393 Z M -625.7741 -3197.4616 C -625.1286 -3197.4616 -624.60746 -3197.9827 -624.60746 -3198.6282 L -624.60746 -3208.7393 C -624.60746 -3209.385 -625.1286 -3209.906 -625.7741 -3209.906 L -626.5519 -3209.906 C -627.19746 -3209.906 -627.7186 -3209.385 -627.7186 -3208.7393 L -627.7186 -3198.6282 C -627.7186 -3197.9827 -627.19746 -3197.4616 -626.5519 -3197.4616 Z" fill="#e3e6e1"/>
      </g>
    </g>
  </g>
</svg>
