<?xml version="1.0" encoding="UTF-8" standalone="no"?>
<!DOCTYPE svg PUBLIC "-//W3C//DTD SVG 1.1//EN" "http://www.w3.org/Graphics/SVG/1.1/DTD/svg11.dtd">
<svg xmlns="http://www.w3.org/2000/svg" xmlns:xl="http://www.w3.org/1999/xlink" version="1.1" xmlns:dc="http://purl.org/dc/elements/1.1/" viewBox="-346.77414 -3215.705 25 25" width="25" height="25">
  <defs/>
  <g id="SOURCES" stroke-opacity="1" fill="none" stroke="none" fill-opacity="1" stroke-dasharray="none">
    <title>SOURCES</title>
    <g id="SOURCES_Dark">
      <title>Dark</title>
      <g id="Graphic_10899">
        <path d="M -326.11414 -3215.205 L -342.43414 -3215.205 C -344.5549 -3215.205 -346.27414 -3213.486 -346.27414 -3211.365 L -346.27414 -3195.045 C -346.27414 -3192.9243 -344.5549 -3191.205 -342.43414 -3191.205 L -326.11414 -3191.205 C -323.99336 -3191.205 -322.27414 -3192.9243 -322.27414 -3195.045 L -322.27414 -3211.365 C -322.27414 -3213.486 -323.99336 -3215.205 -326.11414 -3215.205 Z" fill="#666"/>
        <path d="M -326.11414 -3215.205 L -342.43414 -3215.205 C -344.5549 -3215.205 -346.27414 -3213.486 -346.27414 -3211.365 L -346.27414 -3195.045 C -346.27414 -3192.9243 -344.5549 -3191.205 -342.43414 -3191.205 L -326.11414 -3191.205 C -323.99336 -3191.205 -322.27414 -3192.9243 -322.27414 -3195.045 L -322.27414 -3211.365 C -322.27414 -3213.486 -323.99336 -3215.205 -326.11414 -3215.205 Z" stroke="white" stroke-linecap="round" stroke-linejoin="round" stroke-width=".25"/>
      </g>
      <g id="Graphic_10898">
        <rect x="-346.27414" y="-3215.205" width="24" height="24" stroke="gray" stroke-opacity="0" stroke-linecap="round" stroke-linejoin="round" stroke-width=".25"/>
      </g>
      <g id="Graphic_10896">
        <path d="M -337.22983 -3197.2075 L -339.80124 -3197.2075 L -339.80124 -3194.636 L -340.65837 -3194.636 L -340.65837 -3197.2075 L -343.2298 -3197.2075 L -343.2298 -3198.0646 L -340.65837 -3198.0646 L -340.65837 -3200.636 L -339.80124 -3200.636 L -339.80124 -3198.0646 L -337.22983 -3198.0646 L -337.22983 -3197.2075 Z" fill="#f9b841"/>
        <path d="M -337.22983 -3197.2075 L -339.80124 -3197.2075 L -339.80124 -3194.636 L -340.65837 -3194.636 L -340.65837 -3197.2075 L -343.2298 -3197.2075 L -343.2298 -3198.0646 L -340.65837 -3198.0646 L -340.65837 -3200.636 L -339.80124 -3200.636 L -339.80124 -3198.0646 L -337.22983 -3198.0646 L -337.22983 -3197.2075 Z" stroke="#cf7839" stroke-linecap="round" stroke-linejoin="round" stroke-width=".25"/>
      </g>
      <g id="Graphic_10895">
        <path d="M -334.12208 -3205.323 C -337.09633 -3205.6815 -338.71645 -3209.068 -337.049 -3211.5785 C -334.6635 -3215.173 -329.2228 -3213.1156 -329.554 -3208.739 C -329.68436 -3207.0062 -330.92494 -3206.0453 -331.23404 -3204.4788 C -331.9584 -3200.8107 -327.36825 -3199.0486 -325.31602 -3202.0555 C -323.9209 -3204.1003 -325.38436 -3206.9726 -327.8403 -3207.1492 C -328.15675 -3207.1713 -328.71397 -3207.0073 -328.81174 -3207.4184 C -328.92213 -3207.882 -328.40592 -3207.9104 -328.08526 -3207.9093 C -325.03006 -3207.8967 -323.0388 -3204.5955 -324.4865 -3201.9093 C -326.544 -3198.0898 -332.4105 -3199.6605 -332.05093 -3204.1098 C -331.86274 -3206.4364 -329.6339 -3207.6497 -330.435 -3210.2318 C -331.32655 -3213.102 -335.042 -3213.5687 -336.52124 -3210.9666 C -337.69034 -3208.9102 -336.3078 -3206.3102 -333.96227 -3206.0695 C -334.1305 -3206.4143 -334.47953 -3206.7213 -334.66036 -3207.0493 C -334.88325 -3207.453 -334.40384 -3207.8967 -334.0117 -3207.4667 C -333.58484 -3206.998 -333.2379 -3206.3712 -332.7974 -3205.899 C -332.68804 -3205.7015 -332.7406 -3205.4954 -332.86257 -3205.3167 C -333.42924 -3204.9898 -333.9938 -3204.339 -334.54892 -3204.036 C -334.86748 -3203.8627 -335.26804 -3204.1476 -335.09772 -3204.503 C -334.97997 -3204.749 -334.1284 -3205.26 -334.11997 -3205.323 Z" fill="#c0e0ff"/>
      </g>
    </g>
  </g>
</svg>
