<svg height="25" viewBox="-454.774 -3215.705 25 25" width="25" xmlns="http://www.w3.org/2000/svg"><g fill="none"><path d="m-434.11414-3215.205h-16.32c-2.12076 0-3.84 1.719-3.84 3.84v16.32c0 2.1207 1.71924 3.84 3.84 3.84h16.32c2.12078 0 3.84-1.7193 3.84-3.84v-16.32c0-2.121-1.71922-3.84-3.84-3.84z" fill="#666"/><path d="m-434.11414-3215.205h-16.32c-2.12076 0-3.84 1.719-3.84 3.84v16.32c0 2.1207 1.71924 3.84 3.84 3.84h16.32c2.12078 0 3.84-1.7193 3.84-3.84v-16.32c0-2.121-1.71922-3.84-3.84-3.84z" stroke="#fff" stroke-linecap="round" stroke-linejoin="round" stroke-width=".25"/><path d="m-454.27414-3215.205h24v24h-24z"/><path d="m-446.90147-3201.205v4.152l-2.08683-2.2506-.63333.6831 3.16666 3.4155 3.16667-3.4155-.63333-.6831-2.08684 2.2506v-4.152z" fill="#8eed62"/><path d="m-446.90147-3201.205v4.152l-2.08683-2.2506-.63333.6831 3.16666 3.4155 3.16667-3.4155-.63333-.6831-2.08684 2.2506v-4.152z" stroke="#518737" stroke-linecap="round" stroke-linejoin="round" stroke-width=".25"/><path d="m-442.07665-3205.5578c-2.97425-.3585-4.59435-3.7449-2.92695-6.2555 2.3855-3.5947 7.8262-1.537 7.49504 2.8397-.13034 1.7326-1.37094 2.6936-1.68004 4.26-.7244 3.6682 3.8658 5.4302 5.918 2.4234 1.39514-2.0448-.06833-4.9171-2.52427-5.0938-.31643-.022-.87366.142-.97143-.269-.1104-.4638.4058-.492.72647-.491 3.0552.0125 5.04643 3.3137 3.59873 6-2.05746 3.8195-7.92396 2.2487-7.5644-2.2005.1882-2.3265 2.41704-3.5399 1.6159-6.122-.8915-2.8702-4.60697-3.337-6.0862-.7349-1.1691 2.0564.2134 4.6564 2.55896 4.8972-.16822-.3448-.51726-.6518-.69809-.9798-.22287-.404.25653-.8475.64868-.4175.42685.4689.77378 1.0955 1.2143 1.5675.10935.1977.05675.4038-.06519.5825-.56666.327-1.13126.9778-1.68636 1.2805-.31855.1735-.7191-.1114-.5488-.4667.11776-.2461.96935-.757.97776-.8201z" fill="#c0e0ff"/></g></svg>