<svg height="25" viewBox="-598.774 -3215.705 25 25" width="25" xmlns="http://www.w3.org/2000/svg"><g fill="none"><circle cx="-586.274" cy="-3203.205" fill="#666" r="12"/><circle cx="-586.274" cy="-3203.205" r="12" stroke="#fff" stroke-linecap="round" stroke-linejoin="round" stroke-width=".25"/><path d="M-584.719-3205.11l-6.214-4.216a.508.508 0 0 0-.7.132.516.516 0 0 0-.086.28v11.402a.505.505 0 0 0 .786.42l6.214-4.215v-3.811zm0 4.752l-5.77 3.92c-.21.147-.467.217-.724.217a1.285 1.285 0 0 1-1.283-1.283v-11.402c0-.257.077-.506.217-.724a1.295 1.295 0 0 1 1.79-.342l5.77 3.92v-2.209c0-1.073.872-1.944 1.945-1.944h.778c1.073 0 1.944.871 1.944 1.944v10.111a1.945 1.945 0 0 1-1.944 1.945h-.778a1.945 1.945 0 0 1-1.945-1.945zm1.945-9.07c-.646 0-1.167.522-1.167 1.167v10.111c0 .646.521 1.167 1.167 1.167h.778c.645 0 1.166-.521 1.166-1.167v-10.11c0-.646-.52-1.167-1.166-1.167z" fill="#e3e6e1"/></g></svg>