<svg height="25" viewBox="-598.774 -3215.705 25 25" width="25" xmlns="http://www.w3.org/2000/svg"><g fill="none"><circle cx="-586.274" cy="-3203.205" fill="#666" r="12"/><circle cx="-586.274" cy="-3203.205" r="12" stroke="#fff" stroke-linecap="round" stroke-linejoin="round" stroke-width=".25"/><path d="m-584.7186-3205.1107-6.2144-4.2155c-.23335-.1556-.54446-.0934-.7.1322-.05446.0856-.0856.179-.0856.28v11.4022c0 .28.2256.5056.5056.5056.1011 0 .2022-.0311.28-.0856l6.2144-4.2155v-3.8111zm0 4.7523-5.7711 3.92c-.21.1477-.46665.2177-.7233.2177-.7078 0-1.28335-.5755-1.28335-1.2833v-11.4022c0-.2568.07775-.5056.21775-.7234.4045-.5834 1.1978-.7388 1.7889-.3422l5.7711 3.92v-2.2089c0-1.0733.87114-1.9443 1.9445-1.9443h.77775c1.07335 0 1.94445.871 1.94445 1.9443v10.1111c0 1.0734-.8711 1.9446-1.94445 1.9446h-.77775c-1.07336 0-1.9445-.8712-1.9445-1.9446zm1.9445-9.0689c-.6456 0-1.1667.5211-1.1667 1.1666v10.1111c0 .6456.5211 1.1666 1.1667 1.1666h.77775c.64555 0 1.16665-.521 1.16665-1.1666v-10.1111c0-.6455-.5211-1.1666-1.16665-1.1666z" fill="#e3e6e1"/></g></svg>