<svg height="25" viewBox="-490.774 -3215.705 25 25" width="25" xmlns="http://www.w3.org/2000/svg"><g fill="none"><path d="M-470.114-3215.205h-16.32a3.84 3.84 0 0 0-3.84 3.84v16.32a3.84 3.84 0 0 0 3.84 3.84h16.32a3.84 3.84 0 0 0 3.84-3.84v-16.32a3.84 3.84 0 0 0-3.84-3.84z" fill="#666"/><path d="M-470.114-3215.205h-16.32a3.84 3.84 0 0 0-3.84 3.84v16.32a3.84 3.84 0 0 0 3.84 3.84h16.32a3.84 3.84 0 0 0 3.84-3.84v-16.32a3.84 3.84 0 0 0-3.84-3.84z" stroke="#fff" stroke-linecap="round" stroke-linejoin="round" stroke-width=".25"/><path d="M-490.274-3215.205h24v24h-24z"/><path d="M-482.072-3201.909c-3.718-.448-5.743-4.68-3.658-7.819 2.981-4.493 9.782-1.921 9.368 3.55-.163 2.165-1.713 3.366-2.1 5.325-.905 4.585 4.832 6.787 7.398 3.029 1.744-2.556-.086-6.147-3.156-6.367-.395-.028-1.092.177-1.214-.337-.138-.58.507-.615.908-.614 3.82.016 6.308 4.143 4.499 7.5-2.572 4.775-9.905 2.811-9.456-2.75.235-2.908 3.021-4.425 2.02-7.653-1.114-3.587-5.759-4.17-7.608-.918-1.461 2.57.267 5.82 3.199 6.121-.21-.43-.647-.815-.873-1.225-.278-.504.321-1.059.811-.521.534.586.967 1.369 1.518 1.959.137.247.071.505-.081.728-.709.409-1.414 1.222-2.108 1.601-.399.217-.9-.14-.686-.584.147-.307 1.211-.946 1.222-1.025z" fill="#c0e0ff"/></g></svg>