<svg height="25" viewBox="-670.774 -3200.298 25 25" width="25" xmlns="http://www.w3.org/2000/svg"><g fill="none"><circle cx="-658.274" cy="-3187.798" fill="#666" r="12"/><circle cx="-658.274" cy="-3187.798" r="12" stroke="#fff" stroke-linecap="round" stroke-linejoin="round" stroke-width=".25"/><path d="m-661.9947-3193.5093v11.4323c0 .2807.2262.507.5069.507.1014 0 .2028-.0314.28075-.086l8.31295-5.638c.273-.1873.34315-.5616.156-.8345-.039-.0625-.0936-.117-.156-.156l-8.31295-5.6459c-.23395-.156-.54585-.0936-.70185.1324-.0546.086-.0858.1795-.0858.281zm-.7798 0c0-.2574.078-.5069.21834-.7253.40552-.5849 1.20096-.7408 1.79361-.3431l8.31295 5.6382c.1482.1015.273.2261.36655.3665.4289.6316.26515 1.4894-.36655 1.9184l-8.31295 5.6381c-.21055.1482-.4679.2185-.72525.2185-.7096 0-1.2867-.5772-1.2867-1.287z" fill="#8eed62"/></g></svg>