<?xml version="1.0" encoding="UTF-8" standalone="no"?>
<!DOCTYPE svg PUBLIC "-//W3C//DTD SVG 1.1//EN" "http://www.w3.org/Graphics/SVG/1.1/DTD/svg11.dtd">
<svg xmlns="http://www.w3.org/2000/svg" xmlns:xl="http://www.w3.org/1999/xlink" version="1.1" xmlns:dc="http://purl.org/dc/elements/1.1/" viewBox="-706.7741 -3215.705 24.999996 25" width="24.999996" height="25">
  <defs/>
  <g id="SOURCES" stroke-opacity="1" fill="none" stroke="none" fill-opacity="1" stroke-dasharray="none">
    <title>SOURCES</title>
    <g id="SOURCES_Dark">
      <title>Dark</title>
      <g id="Graphic_11376">
        <circle cx="-694.2741" cy="-3203.205" r="12.000018268838" fill="#666"/>
        <circle cx="-694.2741" cy="-3203.205" r="12.000018268838" stroke="white" stroke-linecap="round" stroke-linejoin="round" stroke-width=".25"/>
      </g>
      <g id="Graphic_11375">
        <path d="M -699.7258 -3207.6073 C -698.4114 -3209.225 -696.42805 -3210.205 -694.2814 -3210.205 C -690.4158 -3210.205 -687.2814 -3207.0707 -687.2814 -3203.205 C -687.2814 -3199.3396 -690.4158 -3196.205 -694.2814 -3196.205 C -698.1469 -3196.205 -701.0403 -3199.0907 -701.2658 -3202.7773 C -701.2814 -3202.995 -701.11805 -3203.174 -700.9003 -3203.1896 C -700.6825 -3203.205 -700.5036 -3203.0418 -700.48805 -3202.824 C -700.2858 -3199.5496 -697.5714 -3196.983 -694.2736 -3196.983 C -690.9758 -3196.983 -688.0514 -3199.7673 -688.0514 -3203.205 C -688.0514 -3206.643 -690.8436 -3209.4273 -694.2814 -3209.4273 C -696.2025 -3209.4273 -697.9758 -3208.5484 -699.1425 -3207.094 L -697.0036 -3207.094 C -696.7858 -3207.094 -696.6147 -3206.923 -696.6147 -3206.705 C -696.6147 -3206.4873 -696.7858 -3206.3162 -697.0036 -3206.3162 L -700.1147 -3206.3162 C -700.3325 -3206.3162 -700.5036 -3206.4873 -700.5036 -3206.705 L -700.5036 -3209.8162 C -700.5036 -3210.034 -700.3325 -3210.205 -700.1147 -3210.205 C -699.8969 -3210.205 -699.7258 -3210.034 -699.7258 -3209.8162 Z" fill="#c0e0ff"/>
      </g>
    </g>
  </g>
</svg>
