<?xml version="1.0" encoding="UTF-8" standalone="no"?>
<!DOCTYPE svg PUBLIC "-//W3C//DTD SVG 1.1//EN" "http://www.w3.org/Graphics/SVG/1.1/DTD/svg11.dtd">
<svg xmlns="http://www.w3.org/2000/svg" xmlns:xl="http://www.w3.org/1999/xlink" version="1.1" xmlns:dc="http://purl.org/dc/elements/1.1/" viewBox="-310.77414 -3215.705 25 25" width="25" height="25">
  <defs/>
  <g id="SOURCES" stroke-opacity="1" fill="none" stroke="none" fill-opacity="1" stroke-dasharray="none">
    <title>SOURCES</title>
    <g id="SOURCES_Dark">
      <title>Dark</title>
      <g id="Graphic_10894">
        <path d="M -290.11414 -3215.205 L -306.43414 -3215.205 C -308.5549 -3215.205 -310.27414 -3213.486 -310.27414 -3211.365 L -310.27414 -3195.045 C -310.27414 -3192.9243 -308.5549 -3191.205 -306.43414 -3191.205 L -290.11414 -3191.205 C -287.99336 -3191.205 -286.27414 -3192.9243 -286.27414 -3195.045 L -286.27414 -3211.365 C -286.27414 -3213.486 -287.99336 -3215.205 -290.11414 -3215.205 Z" fill="#666"/>
        <path d="M -290.11414 -3215.205 L -306.43414 -3215.205 C -308.5549 -3215.205 -310.27414 -3213.486 -310.27414 -3211.365 L -310.27414 -3195.045 C -310.27414 -3192.9243 -308.5549 -3191.205 -306.43414 -3191.205 L -290.11414 -3191.205 C -287.99336 -3191.205 -286.27414 -3192.9243 -286.27414 -3195.045 L -286.27414 -3211.365 C -286.27414 -3213.486 -287.99336 -3215.205 -290.11414 -3215.205 Z" stroke="white" stroke-linecap="round" stroke-linejoin="round" stroke-width=".25"/>
      </g>
      <g id="Graphic_10893">
        <rect x="-310.27414" y="-3215.205" width="24" height="24" stroke="gray" stroke-opacity="0" stroke-linecap="round" stroke-linejoin="round" stroke-width=".25"/>
      </g>
      <g id="Graphic_10892">
        <path d="M -301.221 -3197.2075 L -303.7924 -3197.2075 L -303.7924 -3194.636 L -304.64954 -3194.636 L -304.64954 -3197.2075 L -307.22095 -3197.2075 L -307.22095 -3198.0646 L -304.64954 -3198.0646 L -304.64954 -3200.636 L -303.7924 -3200.636 L -303.7924 -3198.0646 L -301.221 -3198.0646 L -301.221 -3197.2075 Z" fill="#f9b841"/>
        <path d="M -301.221 -3197.2075 L -303.7924 -3197.2075 L -303.7924 -3194.636 L -304.64954 -3194.636 L -304.64954 -3197.2075 L -307.22095 -3197.2075 L -307.22095 -3198.0646 L -304.64954 -3198.0646 L -304.64954 -3200.636 L -303.7924 -3200.636 L -303.7924 -3198.0646 L -301.221 -3198.0646 L -301.221 -3197.2075 Z" stroke="#cf7839" stroke-linecap="round" stroke-linejoin="round" stroke-width=".25"/>
      </g>
      <g id="Graphic_10891">
        <path d="M -296.29662 -3194.636 L -296.29662 -3198.7883 L -294.2098 -3196.5375 L -293.57646 -3197.2206 L -296.74312 -3200.636 L -299.9098 -3197.2206 L -299.27646 -3196.5375 L -297.18962 -3198.7883 L -297.18962 -3194.636 Z" fill="#c0e0ff"/>
        <path d="M -296.29662 -3194.636 L -296.29662 -3198.7883 L -294.2098 -3196.5375 L -293.57646 -3197.2206 L -296.74312 -3200.636 L -299.9098 -3197.2206 L -299.27646 -3196.5375 L -297.18962 -3198.7883 L -297.18962 -3194.636 Z" stroke="#5a77a1" stroke-linecap="round" stroke-linejoin="round" stroke-width=".25"/>
      </g>
      <g id="Graphic_10890">
        <path d="M -298.12208 -3205.323 C -301.09633 -3205.6815 -302.71645 -3209.068 -301.049 -3211.5785 C -298.6635 -3215.173 -293.2228 -3213.1156 -293.554 -3208.739 C -293.68436 -3207.0062 -294.92494 -3206.0453 -295.23404 -3204.4788 C -295.9584 -3200.8107 -291.36825 -3199.0486 -289.31602 -3202.0555 C -287.9209 -3204.1003 -289.38436 -3206.9726 -291.8403 -3207.1492 C -292.15675 -3207.1713 -292.71397 -3207.0073 -292.81174 -3207.4184 C -292.92213 -3207.882 -292.40592 -3207.9104 -292.08526 -3207.9093 C -289.03006 -3207.8967 -287.0388 -3204.5955 -288.4865 -3201.9093 C -290.544 -3198.0898 -296.4105 -3199.6605 -296.05093 -3204.1098 C -295.86274 -3206.4364 -293.6339 -3207.6497 -294.435 -3210.2318 C -295.32655 -3213.102 -299.042 -3213.5687 -300.52124 -3210.9666 C -301.69034 -3208.9102 -300.30782 -3206.3102 -297.96227 -3206.0695 C -298.1305 -3206.4143 -298.47953 -3206.7213 -298.66036 -3207.0493 C -298.88325 -3207.453 -298.40384 -3207.8967 -298.0117 -3207.4667 C -297.58484 -3206.998 -297.2379 -3206.3712 -296.7974 -3205.899 C -296.68804 -3205.7015 -296.7406 -3205.4954 -296.86257 -3205.3167 C -297.42924 -3204.9898 -297.9938 -3204.339 -298.54892 -3204.036 C -298.86748 -3203.8627 -299.26804 -3204.1476 -299.09772 -3204.503 C -298.97997 -3204.749 -298.1284 -3205.26 -298.11997 -3205.323 Z" fill="#c0e0ff"/>
      </g>
    </g>
  </g>
</svg>
