<svg height="25" viewBox="-562.839 -3200.452 25 25" width="25" xmlns="http://www.w3.org/2000/svg"><g fill="none"><circle cx="-550.339" cy="-3187.952" fill="#666" r="12"/><circle cx="-550.339" cy="-3187.952" r="12" stroke="#fff" stroke-linecap="round" stroke-linejoin="round" stroke-width=".25"/><path d="m-550.33903-3188.8466 5.15413-5.1417c.2484-.2484.6334-.2484.8818 0 .2484.2483.2484.6333 0 .8818l-5.15414 5.1541 5.15414 5.1541c.2484.2483.2484.6333 0 .8818s-.6334.2485-.8818 0l-5.15413-5.1541-5.15417 5.1293c-.24836.2483-.6334.2483-.88176 0-.24839-.2484-.24839-.6334 0-.8817l5.15416-5.1542-5.14174-5.1418c-.24839-.236-.24839-.6333 0-.8693.23594-.2484.6334-.2484.86934 0l5.15417 5.1543z" fill="#fc6d7e"/></g></svg>