<svg height="25" viewBox="-274.774 -3215.705 25 25" width="25" xmlns="http://www.w3.org/2000/svg"><g fill="none"><path d="M-254.114-3215.205h-16.32a3.84 3.84 0 0 0-3.84 3.84v16.32a3.84 3.84 0 0 0 3.84 3.84h16.32a3.84 3.84 0 0 0 3.84-3.84v-16.32a3.84 3.84 0 0 0-3.84-3.84z" fill="#666"/><path d="M-254.114-3215.205h-16.32a3.84 3.84 0 0 0-3.84 3.84v16.32a3.84 3.84 0 0 0 3.84 3.84h16.32a3.84 3.84 0 0 0 3.84-3.84v-16.32a3.84 3.84 0 0 0-3.84-3.84z" stroke="#fff" stroke-linecap="round" stroke-linejoin="round" stroke-width=".25"/><path d="M-274.274-3215.205h24v24h-24z"/><path d="M-265.212-3197.207h-2.572v2.571h-.857v-2.571h-2.571v-.858h2.571v-2.571h.857v2.571h2.572z" fill="#f9b841"/><path d="M-265.212-3197.207h-2.572v2.571h-.857v-2.571h-2.571v-.858h2.571v-2.571h.857v2.571h2.572z" stroke="#cf7839" stroke-linecap="round" stroke-linejoin="round" stroke-width=".25"/><path d="M-261.963-3205.323c-2.974-.358-4.594-3.745-2.927-6.255 2.386-3.595 7.826-1.538 7.495 2.839-.13 1.733-1.37 2.694-1.68 4.26-.724 3.668 3.866 5.43 5.918 2.423 1.395-2.044-.068-4.917-2.524-5.093-.317-.022-.874.142-.972-.27-.11-.463.406-.491.727-.49 3.055.012 5.046 3.314 3.599 6-2.058 3.82-7.924 2.249-7.565-2.2.188-2.327 2.417-3.54 1.616-6.123-.891-2.87-4.607-3.337-6.086-.735-1.17 2.057.213 4.657 2.559 4.898-.168-.345-.517-.652-.698-.98-.223-.404.256-.848.648-.418.427.469.774 1.096 1.215 1.568.11.198.057.404-.065.582-.567.327-1.132.978-1.687 1.281-.318.173-.719-.112-.549-.467.118-.246.97-.757.978-.82z" fill="#c0e0ff"/><path d="M-259.398-3200.452c0-.629-.408-1.139-.912-1.139h-3.039c-.503 0-.911.51-.911 1.14v2.278c0 .63.408 1.14.911 1.14h3.04c.503 0 .91-.51.91-1.14z" fill="#fff"/><path d="M-259.398-3200.452c0-.629-.408-1.139-.912-1.139h-3.039c-.503 0-.911.51-.911 1.14v2.278c0 .63.408 1.14.911 1.14h3.04c.503 0 .91-.51.91-1.14z" stroke="#528636" stroke-linejoin="round" stroke-width=".5"/><path d="M-257.104-3198.238c0-.629-.408-1.139-.911-1.139h-3.039c-.503 0-.911.51-.911 1.14v2.278c0 .63.408 1.14.911 1.14h3.039c.503 0 .911-.51.911-1.14z" fill="#fff"/><path d="M-257.104-3198.238c0-.629-.408-1.139-.911-1.139h-3.039c-.503 0-.911.51-.911 1.14v2.278c0 .63.408 1.14.911 1.14h3.039c.503 0 .911-.51.911-1.14z" stroke="#528636" stroke-linejoin="round" stroke-width=".5"/></g></svg>