<svg height="25" viewBox="-418.774 -3215.705 25 25" width="25" xmlns="http://www.w3.org/2000/svg"><g fill="none"><path d="m-398.11414-3215.205h-16.32c-2.12076 0-3.84 1.719-3.84 3.84v16.32c0 2.1207 1.71924 3.84 3.84 3.84h16.32c2.12078 0 3.84-1.7193 3.84-3.84v-16.32c0-2.121-1.71922-3.84-3.84-3.84z" fill="#666"/><path d="m-398.11414-3215.205h-16.32c-2.12076 0-3.84 1.719-3.84 3.84v16.32c0 2.1207 1.71924 3.84 3.84 3.84h16.32c2.12078 0 3.84-1.7193 3.84-3.84v-16.32c0-2.121-1.71922-3.84-3.84-3.84z" stroke="#fff" stroke-linecap="round" stroke-linejoin="round" stroke-width=".25"/><path d="m-418.27414-3215.205h24v24h-24z"/><path d="m-410.00847-3195.205v-4.1524l2.08684 2.2508.63333-.6831-3.16667-3.4153-3.16666 3.4153.63333.6831 2.08683-2.2508v4.1524z" fill="#c0e0ff"/><path d="m-410.00847-3195.205v-4.1524l2.08684 2.2508.63333-.6831-3.16667-3.4153-3.16666 3.4153.63333.6831 2.08683-2.2508v4.1524z" stroke="#5a77a1" stroke-linecap="round" stroke-linejoin="round" stroke-width=".25"/><path d="m-406.1221-3205.323c-2.97423-.3585-4.59435-3.745-2.9269-6.2555 2.3855-3.5945 7.8262-1.5371 7.495 2.8395-.13036 1.7328-1.37094 2.6937-1.68004 4.2602-.72436 3.6681 3.86579 5.4302 5.91804 2.4233 1.3951-2.0448-.06836-4.9171-2.5243-5.0937-.31645-.0221-.87367.1419-.97144-.2692-.11039-.4636.40584-.492.72648-.4909 3.0552.0126 5.04646 3.3138 3.59876 6-2.0575 3.8195-7.924 2.2488-7.56443-2.2005.18819-2.3266 2.41703-3.5399 1.61593-6.122-.89155-2.8702-4.607-3.3369-6.08624-.7348-1.1691 2.0564.21344 4.6564 2.55897 4.8971-.16823-.3448-.51726-.6518-.69809-.9798-.22289-.4037.25652-.8474.64866-.4174.42686.4687.7738 1.0955 1.2143 1.5677.10936.1975.0568.4036-.06517.5823-.56667.3269-1.13123.9777-1.68633 1.2807-.3186.1733-.71914-.1116-.5488-.467.11773-.246.9693-.757.97773-.82z" fill="#c0e0ff"/></g></svg>