<svg height="25" viewBox="-490.774 -3215.705 25 25" width="25" xmlns="http://www.w3.org/2000/svg"><g fill="none"><path d="m-470.11414-3215.205h-16.32c-2.12076 0-3.84 1.719-3.84 3.84v16.32c0 2.1207 1.71924 3.84 3.84 3.84h16.32c2.12078 0 3.84-1.7193 3.84-3.84v-16.32c0-2.121-1.71922-3.84-3.84-3.84z" fill="#666"/><path d="m-470.11414-3215.205h-16.32c-2.12076 0-3.84 1.719-3.84 3.84v16.32c0 2.1207 1.71924 3.84 3.84 3.84h16.32c2.12078 0 3.84-1.7193 3.84-3.84v-16.32c0-2.121-1.71922-3.84-3.84-3.84z" stroke="#fff" stroke-linecap="round" stroke-linejoin="round" stroke-width=".25"/><path d="m-490.27414-3215.205h24v24h-24z"/><path d="m-482.0718-3201.9087c-3.7178-.4481-5.74294-4.6811-3.65865-7.8193 2.98185-4.4932 9.78275-1.9214 9.36878 3.5496-.16293 2.1657-1.71369 3.3669-2.10003 5.325-.9055 4.5852 4.8322 6.7877 7.3975 3.0292 1.7439-2.5561-.08543-6.1464-3.15535-6.3672-.39555-.0276-1.09209.1774-1.21431-.3366-.13799-.5794.50726-.615.9081-.6136 3.81901.0158 6.30806 4.1423 4.49846 7.5001-2.5719 4.7745-9.905 2.811-9.45554-2.7505.23524-2.9084 3.0213-4.425 2.01989-7.6526-1.11445-3.5877-5.75875-4.1712-7.60778-.9184-1.46137 2.5703.26677 5.8203 3.19873 6.1213-.2103-.4311-.6466-.8148-.87264-1.2249-.2786-.5046.32064-1.0592.81084-.5217.53357.5863.96725 1.3693 1.5179 1.9593.13666.2472.07096.5048-.0815.7282-.70833.4088-1.41405 1.2222-2.10793 1.6008-.3982.2167-.8989-.1394-.68601-.5836.14719-.3074 1.21168-.9464 1.22219-1.0251z" fill="#c0e0ff"/></g></svg>