<?xml version="1.0" encoding="UTF-8" standalone="no"?>
<!DOCTYPE svg PUBLIC "-//W3C//DTD SVG 1.1//EN" "http://www.w3.org/Graphics/SVG/1.1/DTD/svg11.dtd">
<svg xmlns="http://www.w3.org/2000/svg" xmlns:xl="http://www.w3.org/1999/xlink" version="1.1" xmlns:dc="http://purl.org/dc/elements/1.1/" viewBox="-526.77413 -3215.705 24.999996 25" width="24.999996" height="25">
  <defs/>
  <g id="SOURCES" stroke-opacity="1" fill="none" stroke="none" fill-opacity="1" stroke-dasharray="none">
    <title>SOURCES</title>
    <g id="SOURCES_Dark">
      <title>Dark</title>
      <g id="Graphic_11356">
        <circle cx="-514.27413" cy="-3203.205" r="12.000018268838" fill="#666"/>
        <circle cx="-514.27413" cy="-3203.205" r="12.000018268838" stroke="white" stroke-linecap="round" stroke-linejoin="round" stroke-width=".25"/>
      </g>
      <g id="Graphic_11355">
        <path d="M -518.159 -3198.357 C -519.6119 -3199.5223 -520.4899 -3201.2938 -520.4899 -3203.213 C -520.4899 -3206.4995 -517.9259 -3209.219 -514.6626 -3209.413 C -514.44507 -3209.4286 -514.2819 -3209.6073 -514.29744 -3209.825 C -514.313 -3210.0424 -514.4917 -3210.2056 -514.70924 -3210.19 C -518.3843 -3209.9648 -521.2669 -3206.9113 -521.2669 -3203.213 C -521.2669 -3201.0684 -520.2879 -3199.087 -518.6718 -3197.774 L -520.8784 -3197.774 C -521.09594 -3197.774 -521.2669 -3197.603 -521.2669 -3197.3856 C -521.2669 -3197.168 -521.09594 -3196.997 -520.8784 -3196.997 L -517.7705 -3196.997 C -517.55295 -3196.997 -517.382 -3197.168 -517.382 -3197.3856 L -517.382 -3200.4935 C -517.382 -3200.711 -517.55295 -3200.882 -517.7705 -3200.882 C -517.98805 -3200.882 -518.159 -3200.711 -518.159 -3200.4935 Z M -510.3893 -3208.061 C -508.93635 -3206.8957 -508.0584 -3205.1242 -508.0584 -3203.205 C -508.0584 -3199.903 -510.6379 -3197.1836 -513.9167 -3196.997 C -514.1343 -3196.9816 -514.29744 -3196.803 -514.2819 -3196.5853 C -514.26636 -3196.3678 -514.08766 -3196.2046 -513.8701 -3196.22 C -510.1795 -3196.4377 -507.2814 -3199.499 -507.2814 -3203.213 C -507.2814 -3205.3573 -508.2604 -3207.3386 -509.8765 -3208.6517 L -507.6699 -3208.6517 C -507.45233 -3208.6517 -507.2814 -3208.8226 -507.2814 -3209.04 C -507.2814 -3209.2577 -507.45233 -3209.4286 -507.6699 -3209.4286 L -510.77777 -3209.4286 C -510.9953 -3209.4286 -511.16625 -3209.2577 -511.16625 -3209.04 L -511.16625 -3205.9323 C -511.16625 -3205.7147 -510.9953 -3205.5438 -510.77777 -3205.5438 C -510.5602 -3205.5438 -510.3893 -3205.7147 -510.3893 -3205.9323 L -510.3893 -3208.069 Z" fill="#c0e0ff"/>
      </g>
    </g>
  </g>
</svg>
