<?xml version="1.0" encoding="UTF-8" standalone="no"?>
<!DOCTYPE svg PUBLIC "-//W3C//DTD SVG 1.1//EN" "http://www.w3.org/Graphics/SVG/1.1/DTD/svg11.dtd">
<svg version="1.1" xmlns:xl="http://www.w3.org/1999/xlink" xmlns="http://www.w3.org/2000/svg" xmlns:dc="http://purl.org/dc/elements/1.1/" viewBox="-670.7741 -3200.298 24.999996 25" width="24.999996" height="25">
  <defs/>
  <g id="SOURCES" fill="none" stroke-dasharray="none" fill-opacity="1" stroke="none" stroke-opacity="1">
    <title>SOURCES</title>
    <g id="SOURCES_Dark">
      <title>Dark</title>
      <g id="Graphic_11372">
        <circle cx="-658.2741" cy="-3187.798" r="12.000018268838" fill="#666"/>
        <circle cx="-658.2741" cy="-3187.798" r="12.000018268838" stroke="white" stroke-linecap="round" stroke-linejoin="round" stroke-width=".25"/>
      </g>
      <g id="Graphic_11371">
        <path d="M -661.9947 -3193.5093 L -661.9947 -3182.077 C -661.9947 -3181.7963 -661.7685 -3181.57 -661.4878 -3181.57 C -661.3864 -3181.57 -661.285 -3181.6014 -661.20705 -3181.656 L -652.8941 -3187.294 C -652.6211 -3187.4813 -652.55095 -3187.8556 -652.7381 -3188.1285 C -652.7771 -3188.191 -652.8317 -3188.2455 -652.8941 -3188.2845 L -661.20705 -3193.9304 C -661.441 -3194.0864 -661.7529 -3194.024 -661.9089 -3193.798 C -661.9635 -3193.712 -661.9947 -3193.6185 -661.9947 -3193.517 Z M -662.7745 -3193.5093 C -662.7745 -3193.7667 -662.6965 -3194.0162 -662.55616 -3194.2346 C -662.15064 -3194.8195 -661.3552 -3194.9754 -660.76255 -3194.5777 L -652.4496 -3188.9395 C -652.3014 -3188.838 -652.1766 -3188.7134 -652.08305 -3188.573 C -651.65415 -3187.9414 -651.8179 -3187.0836 -652.4496 -3186.6546 L -660.76255 -3181.0165 C -660.9731 -3180.8683 -661.23045 -3180.798 -661.4878 -3180.798 C -662.1974 -3180.798 -662.7745 -3181.3752 -662.7745 -3182.085 Z" fill="#8eed62"/>
      </g>
    </g>
  </g>
</svg>
