<svg height="25" viewBox="-274.774 -3215.705 25 25" width="25" xmlns="http://www.w3.org/2000/svg"><g fill="none"><path d="m-254.11414-3215.205h-16.32c-2.12076 0-3.84 1.719-3.84 3.84v16.32c0 2.1207 1.71924 3.84 3.84 3.84h16.32c2.12078 0 3.84-1.7193 3.84-3.84v-16.32c0-2.121-1.71922-3.84-3.84-3.84z" fill="#666"/><path d="m-254.11414-3215.205h-16.32c-2.12076 0-3.84 1.719-3.84 3.84v16.32c0 2.1207 1.71924 3.84 3.84 3.84h16.32c2.12078 0 3.84-1.7193 3.84-3.84v-16.32c0-2.121-1.71922-3.84-3.84-3.84z" stroke="#fff" stroke-linecap="round" stroke-linejoin="round" stroke-width=".25"/><path d="m-274.27414-3215.205h24v24h-24z"/><path d="m-265.21215-3197.2075h-2.57141v2.5715h-.85714v-2.5715h-2.5714v-.8571h2.5714v-2.5714h.85714v2.5714h2.57141z" fill="#f9b841"/><path d="m-265.21215-3197.2075h-2.57141v2.5715h-.85714v-2.5715h-2.5714v-.8571h2.5714v-2.5714h.85714v2.5714h2.57141z" stroke="#cf7839" stroke-linecap="round" stroke-linejoin="round" stroke-width=".25"/><path d="m-261.9629-3205.323c-2.97426-.3585-4.59438-3.745-2.92695-6.2555 2.3855-3.5945 7.8262-1.5371 7.49503 2.8395-.13038 1.7328-1.37095 2.6937-1.68005 4.2602-.72437 3.6681 3.86579 5.4302 5.91802 2.4233 1.39513-2.0448-.06835-4.9171-2.52428-5.0937-.31645-.0221-.87367.1419-.97144-.2692-.11039-.4636.40582-.492.72647-.4909 3.0552.0126 5.04646 3.3138 3.59876 6-2.05748 3.8195-7.92398 2.2488-7.56442-2.2005.18819-2.3266 2.41704-3.5399 1.61592-6.122-.89154-2.8702-4.60699-3.3369-6.08623-.7348-1.1691 2.0564.21342 4.6564 2.55897 4.8971-.16822-.3448-.51726-.6518-.6981-.9798-.22288-.4037.25653-.8474.6487-.4174.42683.4687.77377 1.0955 1.2143 1.5677.10933.1975.05676.4036-.0652.5823-.56667.3269-1.13124.9777-1.68635 1.2807-.31855.1733-.71912-.1116-.5488-.467.11775-.246.96935-.757.97775-.82z" fill="#c0e0ff"/><path d="m-259.3983-3200.4515c0-.6293-.40813-1.1395-.9116-1.1395h-3.0386c-.50347 0-.9116.5102-.9116 1.1395v2.2788c0 .6293.40813 1.1394.9116 1.1394h3.0386c.50347 0 .9116-.5101.9116-1.1394z" fill="#fff"/><path d="m-259.3983-3200.4515c0-.6293-.40813-1.1395-.9116-1.1395h-3.0386c-.50347 0-.9116.5102-.9116 1.1395v2.2788c0 .6293.40813 1.1394.9116 1.1394h3.0386c.50347 0 .9116-.5101.9116-1.1394z" stroke="#528636" stroke-linejoin="round" stroke-width=".5"/><path d="m-257.10362-3198.2375c0-.6293-.40813-1.1395-.91158-1.1395h-3.03862c-.50348 0-.91158.5102-.91158 1.1395v2.2788c0 .6293.4081 1.1394.91158 1.1394h3.03862c.50345 0 .91158-.5101.91158-1.1394z" fill="#fff"/><path d="m-257.10362-3198.2375c0-.6293-.40813-1.1395-.91158-1.1395h-3.03862c-.50348 0-.91158.5102-.91158 1.1395v2.2788c0 .6293.4081 1.1394.91158 1.1394h3.03862c.50345 0 .91158-.5101.91158-1.1394z" stroke="#528636" stroke-linejoin="round" stroke-width=".5"/></g></svg>