<svg height="25" viewBox="-778.774 -3215.705 25 25" width="25" xmlns="http://www.w3.org/2000/svg"><g fill="none"><circle cx="-766.274" cy="-3203.205" fill="#666" r="12"/><circle cx="-766.274" cy="-3203.205" r="12" stroke="#fff" stroke-linecap="round" stroke-linejoin="round" stroke-width=".25"/><g fill="#8eed62"><path d="m-772.1375-3208.9163v11.4323c0 .2807.1642.507.368.507.0736 0 .14725-.0313.2039-.086l6.0359-5.638c.1982-.1872.2492-.5616.1133-.8345-.0283-.0625-.068-.117-.1133-.156l-6.0359-5.6459c-.1699-.156-.3964-.0936-.5096.1324-.0397.086-.0623.1795-.0623.281zm-.5662 0c0-.2574.0566-.5069.1585-.7253.2944-.5848.872-.7408 1.3023-.3431l6.036 5.6382c.1076.1015.19815.2261.2661.3665.3114.6317.1925 1.4895-.2661 1.9184l-6.036 5.6381c-.1529.1482-.3397.2185-.5266.2185-.5152 0-.9342-.577-.9342-1.287z"/><path d="m-764.6061-3208.9163v11.4323c0 .2807.1642.507.3681.507.0736 0 .1472-.0313.2038-.086l6.036-5.638c.1981-.1872.2491-.5616.1132-.8345-.0283-.0625-.0679-.117-.1132-.156l-6.036-5.6459c-.1699-.156-.39635-.0936-.5096.1324-.0396.086-.0623.1795-.0623.281zm-.5662 0c0-.2574.0566-.5069.1585-.7253.2945-.5848.872-.7408 1.30235-.3431l6.03595 5.6382c.1076.1015.1982.2261.2661.3665.31145.6317.19255 1.4895-.2661 1.9184l-6.03595 5.6381c-.15285.1482-.33975.2185-.52655.2185-.5153 0-.9343-.577-.9343-1.287z"/></g></g></svg>