<svg height="25" viewBox="-849.831 -3314.16 25 25" width="25" xmlns="http://www.w3.org/2000/svg"><g fill="none"><circle cx="-837.331" cy="-3301.66" fill="#666" r="12"/><circle cx="-837.331" cy="-3301.66" r="12" stroke="#fff" stroke-linecap="round" stroke-linejoin="round" stroke-width=".25"/><path d="m-844.3307-3296.887v-7.6364c0-.8781.7127-1.5909 1.5909-1.5909h1.2282c.3182 0 .6173-.1591.7954-.4263l.5155-.7764c.2927-.4454.7891-.7064 1.3236-.7064h3.0928c.5345 0 1.0309.2674 1.3236.7064l.5154.7764c.1782.2672.4773.4263.7955.4263h1.2282c.8782 0 1.5909.7128 1.5909 1.5909v7.6364c0 .878-.7127 1.591-1.5909 1.591h-10.8182c-.8782 0-1.5909-.713-1.5909-1.591zm.6364 0c0 .528.4263.9546.9545.9546h10.8182c.5282 0 .9545-.4266.9545-.9546v-7.6364c0-.5281-.4263-.9546-.9545-.9546h-1.2282c-.5345 0-1.0309-.267-1.3236-.7063l-.5155-.7763c-.1782-.2674-.4773-.4264-.7954-.4264h-3.0928c-.3182 0-.6172.159-.7954.4264l-.5155.7763c-.2927.4453-.7891.7063-1.3236.7063h-1.2282c-.5282 0-.9545.4265-.9545.9546zm6.3636-.318c-2.1064 0-3.8182-1.712-3.8182-3.8184 0-2.1063 1.7118-3.8181 3.8182-3.8181s3.8182 1.7118 3.8182 3.8181c0 2.1064-1.7118 3.8184-3.8182 3.8184zm0-.6365c1.7564 0 3.1818-1.4255 3.1818-3.1819 0-1.7563-1.4254-3.1816-3.1818-3.1816s-3.1818 1.4253-3.1818 3.1816c0 1.7564 1.4254 3.1819 3.1818 3.1819z" fill="#e3e6e1"/></g></svg>