<?xml version="1.0" encoding="UTF-8" standalone="no"?>
<!DOCTYPE svg PUBLIC "-//W3C//DTD SVG 1.1//EN" "http://www.w3.org/Graphics/SVG/1.1/DTD/svg11.dtd">
<svg xmlns="http://www.w3.org/2000/svg" xmlns:xl="http://www.w3.org/1999/xlink" version="1.1" xmlns:dc="http://purl.org/dc/elements/1.1/" viewBox="-849.8307 -3314.1597 24.999996 25" width="24.999996" height="25">
  <defs/>
  <g id="SOURCES" stroke-opacity="1" fill="none" stroke="none" fill-opacity="1" stroke-dasharray="none">
    <title>SOURCES</title>
    <g id="SOURCES_Dark">
      <title>Dark</title>
      <g id="Graphic_11529">
        <circle cx="-837.3307" cy="-3301.6597" r="12.000018268838" fill="#666"/>
        <circle cx="-837.3307" cy="-3301.6597" r="12.000018268838" stroke="white" stroke-linecap="round" stroke-linejoin="round" stroke-width=".25"/>
      </g>
      <g id="Graphic_11528">
        <path d="M -844.3307 -3296.887 L -844.3307 -3304.5234 C -844.3307 -3305.4015 -843.618 -3306.1143 -842.7398 -3306.1143 L -841.5116 -3306.1143 C -841.1934 -3306.1143 -840.8943 -3306.2734 -840.7162 -3306.5406 L -840.2007 -3307.317 C -839.908 -3307.7624 -839.4116 -3308.0234 -838.8771 -3308.0234 L -835.7843 -3308.0234 C -835.2498 -3308.0234 -834.7534 -3307.756 -834.4607 -3307.317 L -833.9453 -3306.5406 C -833.7671 -3306.2734 -833.468 -3306.1143 -833.1498 -3306.1143 L -831.9216 -3306.1143 C -831.0434 -3306.1143 -830.3307 -3305.4015 -830.3307 -3304.5234 L -830.3307 -3296.887 C -830.3307 -3296.009 -831.0434 -3295.296 -831.9216 -3295.296 L -842.7398 -3295.296 C -843.618 -3295.296 -844.3307 -3296.009 -844.3307 -3296.887 Z M -843.6943 -3296.887 C -843.6943 -3296.359 -843.268 -3295.9324 -842.7398 -3295.9324 L -831.9216 -3295.9324 C -831.3934 -3295.9324 -830.9671 -3296.359 -830.9671 -3296.887 L -830.9671 -3304.5234 C -830.9671 -3305.0515 -831.3934 -3305.478 -831.9216 -3305.478 L -833.1498 -3305.478 C -833.6843 -3305.478 -834.1807 -3305.745 -834.4734 -3306.1843 L -834.9889 -3306.9606 C -835.1671 -3307.228 -835.4662 -3307.387 -835.7843 -3307.387 L -838.8771 -3307.387 C -839.1953 -3307.387 -839.4943 -3307.228 -839.6725 -3306.9606 L -840.188 -3306.1843 C -840.4807 -3305.739 -840.9771 -3305.478 -841.5116 -3305.478 L -842.7398 -3305.478 C -843.268 -3305.478 -843.6943 -3305.0515 -843.6943 -3304.5234 Z M -837.3307 -3297.205 C -839.4371 -3297.205 -841.1489 -3298.917 -841.1489 -3301.0234 C -841.1489 -3303.1297 -839.4371 -3304.8415 -837.3307 -3304.8415 C -835.2243 -3304.8415 -833.5125 -3303.1297 -833.5125 -3301.0234 C -833.5125 -3298.917 -835.2243 -3297.205 -837.3307 -3297.205 Z M -837.3307 -3297.8415 C -835.5743 -3297.8415 -834.1489 -3299.267 -834.1489 -3301.0234 C -834.1489 -3302.7797 -835.5743 -3304.205 -837.3307 -3304.205 C -839.0871 -3304.205 -840.5125 -3302.7797 -840.5125 -3301.0234 C -840.5125 -3299.267 -839.0871 -3297.8415 -837.3307 -3297.8415 Z" fill="#e3e6e1"/>
      </g>
    </g>
  </g>
</svg>
