<svg height="25" viewBox="-885.831 -3314.16 25 25" width="25" xmlns="http://www.w3.org/2000/svg"><g fill="none"><circle cx="-873.331" cy="-3301.66" fill="#666" r="12"/><circle cx="-873.331" cy="-3301.66" r="12" stroke="#fff" stroke-linecap="round" stroke-linejoin="round" stroke-width=".25"/><path d="m-876.8307-3307.882c-.6456 0-1.1667.521-1.1667 1.1667v10.1113c0 .6454.5211 1.1665 1.1667 1.1665h.7778c.6455 0 1.1666-.5211 1.1666-1.1665v-10.1113c0-.6457-.5211-1.1667-1.1666-1.1667zm0-.7777h.7778c1.0733 0 1.9444.8711 1.9444 1.9444v10.1113c0 1.073-.8711 1.9443-1.9444 1.9443h-.7778c-1.0733 0-1.9444-.8713-1.9444-1.9443v-10.1113c0-1.0733.8711-1.9444 1.9444-1.9444zm6.2222 0h.7778c1.0733 0 1.9444.8711 1.9444 1.9444v10.1113c0 1.073-.8711 1.9443-1.9444 1.9443h-.7778c-1.0733 0-1.9444-.8713-1.9444-1.9443v-10.1113c0-1.0733.8711-1.9444 1.9444-1.9444zm0 .7777c-.6455 0-1.1666.521-1.1666 1.1667v10.1113c0 .6454.5211 1.1665 1.1666 1.1665h.7778c.6456 0 1.1667-.5211 1.1667-1.1665v-10.1113c0-.6457-.5211-1.1667-1.1667-1.1667z" fill="#e3e6e1"/></g></svg>