<?xml version="1.0" encoding="UTF-8" standalone="no"?>
<!DOCTYPE svg PUBLIC "-//W3C//DTD SVG 1.1//EN" "http://www.w3.org/Graphics/SVG/1.1/DTD/svg11.dtd">
<svg xmlns="http://www.w3.org/2000/svg" xmlns:xl="http://www.w3.org/1999/xlink" version="1.1" xmlns:dc="http://purl.org/dc/elements/1.1/" viewBox="-813.8307 -3314.1597 25.000035 25" width="25.000035" height="25">
  <defs/>
  <g id="SOURCES" stroke-opacity="1" fill="none" stroke="none" fill-opacity="1" stroke-dasharray="none">
    <title>SOURCES</title>
    <g id="SOURCES_Dark">
      <title>Dark</title>
      <g id="Graphic_11524">
        <circle cx="-801.3307" cy="-3301.6597" r="12.0000278184556" fill="#666"/>
        <circle cx="-801.3307" cy="-3301.6597" r="12.0000278184556" stroke="white" stroke-linecap="round" stroke-linejoin="round" stroke-width=".2500004"/>
      </g>
      <g id="Graphic_11523">
        <path d="M -802.7773 -3300.104 L -799.884 -3300.104 L -800.49845 -3302.554 C -800.7629 -3302.484 -801.0429 -3302.4375 -801.3307 -3302.4375 C -801.61845 -3302.4375 -801.89845 -3302.4764 -802.1629 -3302.554 L -802.7773 -3300.104 Z M -803.57845 -3300.104 L -802.894 -3302.8575 C -803.8196 -3303.394 -804.4418 -3304.3975 -804.4418 -3305.5486 C -804.4418 -3307.2675 -803.0496 -3308.6597 -801.3307 -3308.6597 C -799.6118 -3308.6597 -798.2196 -3307.2675 -798.2196 -3305.5486 C -798.2196 -3304.3975 -798.8418 -3303.394 -799.7673 -3302.8575 L -799.0829 -3300.104 L -796.2751 -3300.104 C -795.2018 -3300.104 -794.3307 -3299.233 -794.3307 -3298.1597 L -794.3307 -3296.604 C -794.3307 -3296.3864 -794.5018 -3296.2153 -794.7196 -3296.2153 L -807.9418 -3296.2153 C -808.1596 -3296.2153 -808.3307 -3296.3864 -808.3307 -3296.604 L -808.3307 -3298.1597 C -808.3307 -3299.233 -807.4596 -3300.104 -806.3862 -3300.104 Z M -801.3307 -3303.2153 C -800.0396 -3303.2153 -798.9973 -3304.2575 -798.9973 -3305.5486 C -798.9973 -3306.8397 -800.0396 -3307.882 -801.3307 -3307.882 C -802.6218 -3307.882 -803.664 -3306.8397 -803.664 -3305.5486 C -803.664 -3304.2575 -802.6218 -3303.2153 -801.3307 -3303.2153 Z M -795.10845 -3296.993 L -795.10845 -3298.1597 C -795.10845 -3298.8053 -795.6296 -3299.3264 -796.2751 -3299.3264 L -806.3862 -3299.3264 C -807.0318 -3299.3264 -807.5529 -3298.8053 -807.5529 -3298.1597 L -807.5529 -3296.993 Z M -807.9418 -3294.6597 C -808.1596 -3294.6597 -808.3307 -3294.831 -808.3307 -3295.0486 C -808.3307 -3295.2664 -808.1596 -3295.4375 -807.9418 -3295.4375 L -794.7196 -3295.4375 C -794.5018 -3295.4375 -794.3307 -3295.2664 -794.3307 -3295.0486 C -794.3307 -3294.831 -794.5018 -3294.6597 -794.7196 -3294.6597 Z" fill="#e3e6e1"/>
      </g>
    </g>
  </g>
</svg>
