<svg height="25" viewBox="-885.831 -3314.16 25 25" width="25" xmlns="http://www.w3.org/2000/svg"><g fill="none"><circle cx="-873.331" cy="-3301.66" fill="#666" r="12"/><circle cx="-873.331" cy="-3301.66" r="12" stroke="#fff" stroke-linecap="round" stroke-linejoin="round" stroke-width=".25"/><path d="M-876.83-3307.882c-.646 0-1.167.521-1.167 1.167v10.111c0 .645.52 1.167 1.166 1.167h.778c.646 0 1.167-.522 1.167-1.167v-10.111c0-.646-.521-1.167-1.167-1.167zm0-.778h.777c1.073 0 1.944.871 1.944 1.945v10.111a1.945 1.945 0 0 1-1.944 1.944h-.778a1.945 1.945 0 0 1-1.944-1.944v-10.111c0-1.074.871-1.945 1.944-1.945zm6.222 0h.777c1.074 0 1.945.871 1.945 1.945v10.111a1.945 1.945 0 0 1-1.945 1.944h-.777a1.945 1.945 0 0 1-1.945-1.944v-10.111c0-1.074.871-1.945 1.945-1.945zm0 .778c-.646 0-1.167.521-1.167 1.167v10.111c0 .645.521 1.167 1.167 1.167h.777c.646 0 1.167-.522 1.167-1.167v-10.111c0-.646-.521-1.167-1.167-1.167z" fill="#e3e6e1"/></g></svg>