<?xml version="1.0" encoding="UTF-8" standalone="no"?>
<!DOCTYPE svg PUBLIC "-//W3C//DTD SVG 1.1//EN" "http://www.w3.org/Graphics/SVG/1.1/DTD/svg11.dtd">
<svg xmlns="http://www.w3.org/2000/svg" xmlns:xl="http://www.w3.org/1999/xlink" version="1.1" xmlns:dc="http://purl.org/dc/elements/1.1/" viewBox="-885.8307 -3314.1597 24.999996 25" width="24.999996" height="25">
  <defs/>
  <g id="SOURCES" stroke-opacity="1" fill="none" stroke="none" fill-opacity="1" stroke-dasharray="none">
    <title>SOURCES</title>
    <g id="SOURCES_Dark">
      <title>Dark</title>
      <g id="Graphic_11533">
        <circle cx="-873.3307" cy="-3301.6597" r="12.000018268838" fill="#666"/>
        <circle cx="-873.3307" cy="-3301.6597" r="12.000018268838" stroke="white" stroke-linecap="round" stroke-linejoin="round" stroke-width=".25"/>
      </g>
      <g id="Graphic_11532">
        <path d="M -876.8307 -3307.882 C -877.4763 -3307.882 -877.9974 -3307.361 -877.9974 -3306.7153 L -877.9974 -3296.604 C -877.9974 -3295.9586 -877.4763 -3295.4375 -876.8307 -3295.4375 L -876.0529 -3295.4375 C -875.4074 -3295.4375 -874.8863 -3295.9586 -874.8863 -3296.604 L -874.8863 -3306.7153 C -874.8863 -3307.361 -875.4074 -3307.882 -876.0529 -3307.882 Z M -876.8307 -3308.6597 L -876.0529 -3308.6597 C -874.9796 -3308.6597 -874.1085 -3307.7886 -874.1085 -3306.7153 L -874.1085 -3296.604 C -874.1085 -3295.531 -874.9796 -3294.6597 -876.0529 -3294.6597 L -876.8307 -3294.6597 C -877.904 -3294.6597 -878.7751 -3295.531 -878.7751 -3296.604 L -878.7751 -3306.7153 C -878.7751 -3307.7886 -877.904 -3308.6597 -876.8307 -3308.6597 Z M -870.6085 -3308.6597 L -869.8307 -3308.6597 C -868.7574 -3308.6597 -867.8863 -3307.7886 -867.8863 -3306.7153 L -867.8863 -3296.604 C -867.8863 -3295.531 -868.7574 -3294.6597 -869.8307 -3294.6597 L -870.6085 -3294.6597 C -871.6818 -3294.6597 -872.5529 -3295.531 -872.5529 -3296.604 L -872.5529 -3306.7153 C -872.5529 -3307.7886 -871.6818 -3308.6597 -870.6085 -3308.6597 Z M -870.6085 -3307.882 C -871.254 -3307.882 -871.7751 -3307.361 -871.7751 -3306.7153 L -871.7751 -3296.604 C -871.7751 -3295.9586 -871.254 -3295.4375 -870.6085 -3295.4375 L -869.8307 -3295.4375 C -869.1851 -3295.4375 -868.664 -3295.9586 -868.664 -3296.604 L -868.664 -3306.7153 C -868.664 -3307.361 -869.1851 -3307.882 -869.8307 -3307.882 Z" fill="#e3e6e1"/>
      </g>
    </g>
  </g>
</svg>
