<svg height="25" viewBox="-849.831 -3314.16 25 25" width="25" xmlns="http://www.w3.org/2000/svg"><g fill="none"><circle cx="-837.331" cy="-3301.66" fill="#666" r="12"/><circle cx="-837.331" cy="-3301.66" r="12" stroke="#fff" stroke-linecap="round" stroke-linejoin="round" stroke-width=".25"/><path d="M-844.33-3296.887v-7.636c0-.878.712-1.591 1.59-1.591h1.228c.319 0 .618-.16.796-.427l.515-.776c.293-.445.79-.706 1.324-.706h3.093c.534 0 1.03.267 1.323.706l.516.776a.957.957 0 0 0 .795.427h1.228c.879 0 1.591.712 1.591 1.59v7.637c0 .878-.712 1.591-1.59 1.591h-10.819c-.878 0-1.59-.713-1.59-1.591zm.636 0c0 .528.426.955.954.955h10.818a.953.953 0 0 0 .955-.955v-7.636a.953.953 0 0 0-.955-.955h-1.228a1.59 1.59 0 0 1-1.323-.706l-.516-.777a.956.956 0 0 0-.795-.426h-3.093a.956.956 0 0 0-.795.426l-.516.777c-.293.445-.79.706-1.324.706h-1.228a.953.953 0 0 0-.954.955zm6.363-.318a3.821 3.821 0 0 1-3.818-3.818c0-2.107 1.712-3.819 3.818-3.819s3.819 1.712 3.819 3.819a3.821 3.821 0 0 1-3.819 3.818zm0-.637a3.183 3.183 0 0 0 0-6.363 3.183 3.183 0 0 0 0 6.363z" fill="#e3e6e1"/></g></svg>