<svg height="25" viewBox="-813.831 -3314.16 25 25" width="25" xmlns="http://www.w3.org/2000/svg"><g fill="none"><circle cx="-801.331" cy="-3301.66" fill="#666" r="12"/><circle cx="-801.331" cy="-3301.66" r="12" stroke="#fff" stroke-linecap="round" stroke-linejoin="round" stroke-width=".25"/><path d="m-802.7773-3300.104h2.8933l-.61445-2.45c-.26445.07-.54445.1165-.83225.1165-.28775 0-.56775-.0389-.8322-.1165zm-.80115 0 .68445-2.7535c-.9256-.5365-1.5478-1.54-1.5478-2.6911 0-1.7189 1.3922-3.1111 3.1111-3.1111s3.1111 1.3922 3.1111 3.1111c0 1.1511-.6222 2.1546-1.5477 2.6911l.6844 2.7535h2.8078c1.0733 0 1.9444.871 1.9444 1.9443v1.5557c0 .2176-.1711.3887-.3889.3887h-13.2222c-.2178 0-.3889-.1711-.3889-.3887v-1.5557c0-1.0733.8711-1.9443 1.9445-1.9443zm2.24775-3.1113c1.2911 0 2.3334-1.0422 2.3334-2.3333s-1.0423-2.3334-2.3334-2.3334-2.3333 1.0423-2.3333 2.3334 1.0422 2.3333 2.3333 2.3333zm6.22225 6.2223v-1.1667c0-.6456-.52115-1.1667-1.16665-1.1667h-10.1111c-.6456 0-1.1667.5211-1.1667 1.1667v1.1667zm-12.83335 2.3333c-.2178 0-.3889-.1713-.3889-.3889 0-.2178.1711-.3889.3889-.3889h13.2222c.2178 0 .3889.1711.3889.3889 0 .2176-.1711.3889-.3889.3889z" fill="#e3e6e1"/></g></svg>