<svg height="25" viewBox="-813.831 -3314.16 25 25" width="25" xmlns="http://www.w3.org/2000/svg"><g fill="none"><circle cx="-801.331" cy="-3301.66" fill="#666" r="12"/><circle cx="-801.331" cy="-3301.66" r="12" stroke="#fff" stroke-linecap="round" stroke-linejoin="round" stroke-width=".25"/><path d="M-802.777-3300.104h2.893l-.614-2.45c-.265.07-.545.117-.833.117-.287 0-.567-.04-.832-.117zm-.801 0l.684-2.753a3.11 3.11 0 1 1 4.674-2.691 3.105 3.105 0 0 1-1.547 2.69l.684 2.754h2.808c1.073 0 1.944.871 1.944 1.944v1.556a.385.385 0 0 1-.389.389h-13.222a.385.385 0 0 1-.389-.389v-1.556c0-1.073.871-1.944 1.945-1.944zm2.247-3.111c1.291 0 2.334-1.042 2.334-2.334s-1.043-2.333-2.334-2.333-2.333 1.042-2.333 2.333 1.042 2.334 2.333 2.334zm6.223 6.222v-1.167c0-.645-.522-1.166-1.167-1.166h-10.111c-.646 0-1.167.52-1.167 1.166v1.167zm-12.834 2.333a.385.385 0 0 1-.389-.389c0-.217.171-.389.39-.389h13.221c.218 0 .39.172.39.39a.385.385 0 0 1-.39.388z" fill="#e3e6e1"/></g></svg>