<svg height="25" viewBox="-741.831 -3314.16 25 25" width="25" xmlns="http://www.w3.org/2000/svg"><g fill="none"><circle cx="-729.331" cy="-3301.66" fill="#666" r="12"/><circle cx="-729.331" cy="-3301.66" r="12" stroke="#fff" stroke-linecap="round" stroke-linejoin="round" stroke-width=".25"/><path d="M-732.714-3298.93h-1.672a1.945 1.945 0 0 1-1.945-1.945v-3.889c0-1.073.872-1.944 1.945-1.944h5.444c1.058 0 1.914.84 1.945 1.89l1.734-1.447a1.795 1.795 0 0 1 2.52.225c.265.32.412.724.412 1.144v4.13a1.79 1.79 0 0 1-2.932 1.376l-1.734-1.446a1.944 1.944 0 0 1-1.945 1.89h-1.672l1.921 1.649c.164.14.18.389.04.552a.393.393 0 0 1-.553.039l-2.466-2.116-2.465 2.116a.393.393 0 0 1-.552-.039.393.393 0 0 1 .038-.552l1.922-1.65zm4.939-2.723v-3.103c0-.646-.521-1.167-1.167-1.167h-5.444c-.646 0-1.167.521-1.167 1.167v3.889c0 .645.521 1.166 1.167 1.166h5.444c.646 0 1.167-.52 1.167-1.166v-.778zm.778-2.154v1.967l2.232 1.86a1.01 1.01 0 0 0 1.657-.778v-4.13a1.012 1.012 0 0 0-1.657-.778z" fill="#e3e6e1"/></g></svg>