<svg height="25" viewBox="-705.831 -3314.16 25 25" width="25" xmlns="http://www.w3.org/2000/svg"><g fill="none"><path d="M-701.49-3313.66h16.32a3.84 3.84 0 0 1 3.84 3.84v16.32a3.84 3.84 0 0 1-3.84 3.84h-16.32a3.84 3.84 0 0 1-3.84-3.84v-16.32a3.84 3.84 0 0 1 3.84-3.84z" fill="#666"/><path d="M-701.49-3313.66h16.32a3.84 3.84 0 0 1 3.84 3.84v16.32a3.84 3.84 0 0 1-3.84 3.84h-16.32a3.84 3.84 0 0 1-3.84-3.84v-16.32a3.84 3.84 0 0 1 3.84-3.84z" stroke="#fff" stroke-linecap="round" stroke-linejoin="round" stroke-width=".25"/><path d="M-689.737-3303.215s-.063.008-.094.008c-.038 0-.07 0-.1-.016h-6.9c-.645 0-1.166.521-1.166 1.167v5.444c0 .646.52 1.167 1.166 1.167h7c.646 0 1.167-.521 1.167-1.167v-5.444a1.17 1.17 0 0 0-1.073-1.167zm-6.705-.778h6.223v-.778a3.11 3.11 0 1 0-6.223 0zm7 .039a1.944 1.944 0 0 1 1.556 1.905v5.445a1.945 1.945 0 0 1-1.945 1.944h-7a1.945 1.945 0 0 1-1.944-1.944v-5.445c0-.94.669-1.726 1.556-1.905v-.817c0-2.146 1.742-3.889 3.888-3.889s3.89 1.743 3.89 3.889zm-4.666 3.85v.295c0 .514.116 1.02.35 1.47l.217.428a.246.246 0 0 0 .218.132.255.255 0 0 0 .218-.132l.218-.428c.225-.459.35-.964.35-1.47v-.295c0-.428-.35-.778-.778-.778s-.778.35-.778.778zm-.778 0c0-.856.7-1.556 1.555-1.556.856 0 1.556.7 1.556 1.556v.295c0 .63-.148 1.253-.428 1.82l-.218.428c-.17.342-.528.56-.91.56s-.738-.218-.91-.56l-.217-.428a4.116 4.116 0 0 1-.428-1.82z" fill="#e3e6e1"/></g></svg>