<svg height="25" viewBox="-741.831 -3314.16 25 25" width="25" xmlns="http://www.w3.org/2000/svg"><g fill="none"><circle cx="-729.331" cy="-3301.66" fill="#666" r="12"/><circle cx="-729.331" cy="-3301.66" r="12" stroke="#fff" stroke-linecap="round" stroke-linejoin="round" stroke-width=".25"/><path d="m-732.71395-3298.9307h-1.67225c-1.0733 0-1.9444-.8711-1.9444-1.9443v-3.889c0-1.0733.8711-1.9444 1.9444-1.9444h5.4445c1.05775 0 1.9133.84 1.9444 1.89l1.73446-1.4466c.76224-.63 1.89-.529 2.52.2254.26444.3189.41224.7234.41224 1.1434v4.13c0 .9878-.8011 1.7889-1.7889 1.7889-.42 0-.82445-.1477-1.14334-.4123l-1.73446-1.4466c-.0311 1.05-.88665 1.89-1.9444 1.89h-1.67225l1.92111 1.6489c.16334.14.17889.3889.03889.5523-.14.1632-.38885.1788-.55225.0388l-2.4655-2.1156-2.4656 2.1156c-.1633.14-.4122.1244-.5522-.0388-.14-.1634-.12445-.4123.0389-.5523l1.9211-1.6489zm4.93885-2.7223v-2.3254-.7778c0-.6456-.5211-1.1668-1.1666-1.1668h-5.4445c-.6455 0-1.1666.5212-1.1666 1.1668v3.8889c0 .6455.5211 1.1666 1.1666 1.1666h5.4445c.6455 0 1.1666-.5211 1.1666-1.1666v-.7777zm.7778-2.1543v1.9677l2.2322 1.8589c.1789.1477.41226.2334.6456.2334.56 0 1.0111-.4511 1.0111-1.0111v-4.13c0-.2334-.08555-.4666-.2333-.6456-.3578-.4278-.9956-.49-1.4234-.1322z" fill="#e3e6e1"/></g></svg>