<?xml version="1.0" encoding="UTF-8" standalone="no"?>
<!DOCTYPE svg PUBLIC "-//W3C//DTD SVG 1.1//EN" "http://www.w3.org/Graphics/SVG/1.1/DTD/svg11.dtd">
<svg xmlns="http://www.w3.org/2000/svg" xmlns:xl="http://www.w3.org/1999/xlink" version="1.1" xmlns:dc="http://purl.org/dc/elements/1.1/" viewBox="-705.8306 -3314.1597 25 25" width="25" height="25">
  <defs/>
  <g id="SOURCES" stroke-opacity="1" fill="none" stroke="none" fill-opacity="1" stroke-dasharray="none">
    <title>SOURCES</title>
    <g id="SOURCES_Dark">
      <title>Dark</title>
      <g id="Graphic_11516">
        <path d="M -701.4906 -3313.6597 L -685.1706 -3313.6597 C -683.0498 -3313.6597 -681.3306 -3311.9405 -681.3306 -3309.8197 L -681.3306 -3293.4997 C -681.3306 -3291.379 -683.0498 -3289.6597 -685.1706 -3289.6597 L -701.4906 -3289.6597 C -703.6114 -3289.6597 -705.3306 -3291.379 -705.3306 -3293.4997 L -705.3306 -3309.8197 C -705.3306 -3311.9405 -703.6114 -3313.6597 -701.4906 -3313.6597 Z" fill="#666"/>
        <path d="M -701.4906 -3313.6597 L -685.1706 -3313.6597 C -683.0498 -3313.6597 -681.3306 -3311.9405 -681.3306 -3309.8197 L -681.3306 -3293.4997 C -681.3306 -3291.379 -683.0498 -3289.6597 -685.1706 -3289.6597 L -701.4906 -3289.6597 C -703.6114 -3289.6597 -705.3306 -3291.379 -705.3306 -3293.4997 L -705.3306 -3309.8197 C -705.3306 -3311.9405 -703.6114 -3313.6597 -701.4906 -3313.6597 Z" stroke="white" stroke-linecap="round" stroke-linejoin="round" stroke-width=".25"/>
      </g>
      <g id="Graphic_11515">
        <path d="M -689.7373 -3303.2153 C -689.7373 -3303.2153 -689.7995 -3303.2075 -689.8306 -3303.2075 C -689.8695 -3303.2075 -689.9006 -3303.2075 -689.9317 -3303.223 L -696.8306 -3303.223 C -697.4762 -3303.223 -697.9973 -3302.702 -697.9973 -3302.0564 L -697.9973 -3296.612 C -697.9973 -3295.9664 -697.4762 -3295.4453 -696.8306 -3295.4453 L -689.8306 -3295.4453 C -689.18505 -3295.4453 -688.6639 -3295.9664 -688.6639 -3296.612 L -688.6639 -3302.0564 C -688.6639 -3302.671 -689.1384 -3303.1764 -689.7373 -3303.223 Z M -696.4417 -3303.993 L -690.2195 -3303.993 L -690.2195 -3304.771 C -690.2195 -3306.4897 -691.6117 -3307.882 -693.3306 -3307.882 C -695.0495 -3307.882 -696.4417 -3306.4897 -696.4417 -3304.771 Z M -689.4417 -3303.954 C -688.55505 -3303.7753 -687.8862 -3302.9897 -687.8862 -3302.0486 L -687.8862 -3296.604 C -687.8862 -3295.531 -688.7573 -3294.6597 -689.8306 -3294.6597 L -696.8306 -3294.6597 C -697.9039 -3294.6597 -698.77505 -3295.531 -698.77505 -3296.604 L -698.77505 -3302.0486 C -698.77505 -3302.9897 -698.1062 -3303.7753 -697.2195 -3303.954 L -697.2195 -3304.771 C -697.2195 -3306.9175 -695.4773 -3308.6597 -693.3306 -3308.6597 C -691.1839 -3308.6597 -689.4417 -3306.9175 -689.4417 -3304.771 Z M -694.1084 -3300.104 L -694.1084 -3299.8086 C -694.1084 -3299.2953 -693.9917 -3298.7897 -693.7584 -3298.3386 L -693.5406 -3297.911 C -693.5017 -3297.833 -693.4162 -3297.7786 -693.3228 -3297.7786 C -693.2295 -3297.7786 -693.1517 -3297.833 -693.10505 -3297.911 L -692.8873 -3298.3386 C -692.6617 -3298.7975 -692.5373 -3299.303 -692.5373 -3299.8086 L -692.5373 -3300.104 C -692.5373 -3300.532 -692.8873 -3300.882 -693.31505 -3300.882 C -693.7428 -3300.882 -694.0928 -3300.532 -694.0928 -3300.104 Z M -694.8862 -3300.104 C -694.8862 -3300.9597 -694.1862 -3301.6597 -693.3306 -3301.6597 C -692.47505 -3301.6597 -691.77505 -3300.9597 -691.77505 -3300.104 L -691.77505 -3299.8086 C -691.77505 -3299.1786 -691.9228 -3298.5564 -692.2028 -3297.9886 L -692.4206 -3297.561 C -692.5917 -3297.2186 -692.9495 -3297.001 -693.3306 -3297.001 C -693.7117 -3297.001 -694.0695 -3297.2186 -694.2406 -3297.561 L -694.4584 -3297.9886 C -694.7384 -3298.5564 -694.8862 -3299.1786 -694.8862 -3299.8086 Z" fill="#e3e6e1"/>
      </g>
    </g>
  </g>
</svg>
