<svg height="25" viewBox="-705.831 -3314.16 25 25" width="25" xmlns="http://www.w3.org/2000/svg"><g fill="none"><path d="m-701.4906-3313.6597h16.32c2.1208 0 3.84 1.7192 3.84 3.84v16.32c0 2.1207-1.7192 3.84-3.84 3.84h-16.32c-2.1208 0-3.84-1.7193-3.84-3.84v-16.32c0-2.1208 1.7192-3.84 3.84-3.84z" fill="#666"/><path d="m-701.4906-3313.6597h16.32c2.1208 0 3.84 1.7192 3.84 3.84v16.32c0 2.1207-1.7192 3.84-3.84 3.84h-16.32c-2.1208 0-3.84-1.7193-3.84-3.84v-16.32c0-2.1208 1.7192-3.84 3.84-3.84z" stroke="#fff" stroke-linecap="round" stroke-linejoin="round" stroke-width=".25"/><path d="m-689.7373-3303.2153s-.0622.0078-.0933.0078c-.0389 0-.07 0-.1011-.0155h-6.8989c-.6456 0-1.1667.521-1.1667 1.1666v5.4444c0 .6456.5211 1.1667 1.1667 1.1667h7c.64555 0 1.1667-.5211 1.1667-1.1667v-5.4444c0-.6146-.4745-1.12-1.0734-1.1666zm-6.7044-.7777h6.2222v-.778c0-1.7187-1.3922-3.111-3.1111-3.111s-3.1111 1.3923-3.1111 3.111zm7 .039c.88665.1787 1.5555.9643 1.5555 1.9054v5.4446c0 1.073-.8711 1.9443-1.9444 1.9443h-7c-1.0733 0-1.94445-.8713-1.94445-1.9443v-5.4446c0-.9411.66885-1.7267 1.55555-1.9054v-.817c0-2.1465 1.7422-3.8887 3.8889-3.8887s3.8889 1.7422 3.8889 3.8887zm-4.6667 3.85v.2954c0 .5133.1167 1.0189.35 1.47l.2178.4276c.0389.078.1244.1324.2178.1324.0933 0 .1711-.0544.21775-.1324l.21775-.4276c.2256-.4589.35-.9644.35-1.47v-.2954c0-.428-.35-.778-.77775-.778s-.77775.35-.77775.778zm-.7778 0c0-.8557.7-1.5557 1.5556-1.5557.85555 0 1.55555.7 1.55555 1.5557v.2954c0 .63-.14775 1.2522-.42775 1.82l-.2178.4276c-.1711.3424-.5289.56-.91.56s-.7389-.2176-.91-.56l-.2178-.4276c-.28-.5678-.4278-1.19-.4278-1.82z" fill="#e3e6e1"/></g></svg>