<svg height="25" viewBox="-669.831 -3314.16 25 25" width="25" xmlns="http://www.w3.org/2000/svg"><g fill="none"><circle cx="-657.331" cy="-3301.66" fill="#666" r="12"/><circle cx="-657.331" cy="-3301.66" r="12" stroke="#fff" stroke-linecap="round" stroke-linejoin="round" stroke-width=".25"/><path d="M-651.108-3295.99v-2.17c0-.218.17-.389.388-.389s.39.171.39.39v3.11a.385.385 0 0 1-.39.39h-3.11a.385.385 0 0 1-.39-.39c0-.217.172-.389.39-.389h2.17l-4.006-4.005a.385.385 0 0 1 0-.552.385.385 0 0 1 .552 0zm-12.445-11.34v2.17c0 .218-.17.389-.389.389s-.389-.171-.389-.389v-3.111c0-.218.172-.389.39-.389h3.11c.218 0 .39.171.39.389a.385.385 0 0 1-.39.389H-663l4.006 4.006a.385.385 0 0 1 0 .552.385.385 0 0 1-.552 0zm.552 11.892h2.17c.218 0 .39.172.39.39a.385.385 0 0 1-.39.388h-3.11a.385.385 0 0 1-.39-.389v-3.11c0-.219.172-.39.39-.39s.388.171.388.39v2.17l4.006-4.006a.385.385 0 0 1 .552 0 .385.385 0 0 1 0 .552zm11.34-12.444h-2.17a.385.385 0 0 1-.388-.389c0-.218.17-.389.388-.389h3.112c.217 0 .388.171.388.389v3.135a.385.385 0 0 1-.388.388.385.385 0 0 1-.39-.388v-2.194l-4.005 4.006a.385.385 0 0 1-.552 0 .385.385 0 0 1 0-.552z" fill="#e3e6e1"/></g></svg>