<svg height="25" viewBox="-633.831 -3314.16 25 25" width="25" xmlns="http://www.w3.org/2000/svg"><g fill="none"><circle cx="-621.331" cy="-3301.66" fill="#666" r="12"/><circle cx="-621.331" cy="-3301.66" r="12" stroke="#fff" stroke-linecap="round" stroke-linejoin="round" stroke-width=".25"/><path d="M-624.213-3299.337h-3.721c-.218 0-.389-.17-.389-.388s.171-.389.389-.389h4.661c.218 0 .389.171.389.389v4.661c0 .218-.171.389-.389.389a.385.385 0 0 1-.388-.389v-3.721l-4.001 3.993a.385.385 0 0 1-.552 0 .385.385 0 0 1 0-.551l4.001-4.001zm.552-5.213v-3.721c0-.218.17-.389.388-.389s.389.171.389.389v4.661c0 .218-.171.389-.389.389h-4.661a.385.385 0 0 1-.389-.389c0-.217.171-.388.389-.388h3.721l-3.993-4.001a.375.375 0 0 1 0-.544.375.375 0 0 1 .544 0l4 4.001zm5.213.552h3.721c.218 0 .389.17.389.388s-.171.389-.389.389h-4.661a.385.385 0 0 1-.389-.389v-4.661c0-.218.171-.389.389-.389.217 0 .388.171.388.389v3.721l4.001-3.993a.384.384 0 0 1 .552 0 .384.384 0 0 1 0 .551l-4.001 4.002zm0 4.661l4 4.001c.156.156.156.397 0 .552s-.395.155-.55 0l-4.002-4.001v3.737c0 .217-.17.388-.388.388a.385.385 0 0 1-.389-.388v-4.677c0-.218.171-.389.389-.389h4.661c.218 0 .389.171.389.389s-.171.388-.389.388z" fill="#e3e6e1"/></g></svg>