<svg height="25" viewBox="-633.831 -3314.16 25 25" width="25" xmlns="http://www.w3.org/2000/svg"><g fill="none"><circle cx="-621.331" cy="-3301.66" fill="#666" r="12"/><circle cx="-621.331" cy="-3301.66" r="12" stroke="#fff" stroke-linecap="round" stroke-linejoin="round" stroke-width=".25"/><path d="m-624.2129-3299.3367h-3.7214c-.21756 0-.3885-.171-.3885-.3885s.17094-.3885.3885-.3885h4.66146c.21754 0 .38844.171.38844.3885v4.6615c0 .2177-.1709.3884-.38844.3884-.21756 0-.38846-.1707-.38846-.3884v-3.7213l-4.0011 3.9932c-.1554.1554-.3962.1554-.5516 0-.1554-.1552-.1554-.3962 0-.5516l4.0011-4.0011zm.5516-5.2133v-3.7213c0-.2175.1709-.3884.38846-.3884.21754 0 .38844.1709.38844.3884v4.6615c0 .2176-.1709.3885-.38844.3885h-4.66146c-.21756 0-.3885-.1709-.3885-.3885 0-.2175.17094-.3884.3885-.3884h3.7214l-3.99335-4.0011c-.15535-.1477-.15535-.3963 0-.5437.14765-.1556.39625-.1556.54385 0l4.0011 4.001zm5.2131.5518h3.7214c.21756 0 .3885.1709.3885.3884 0 .2176-.17094.3885-.3885.3885h-4.6615c-.2175 0-.3884-.1709-.3884-.3885v-4.6615c0-.2175.1709-.3884.3884-.3884.2176 0 .3885.1709.3885.3884v3.7213l4.0011-3.993c.1554-.1556.3962-.1556.5516 0 .1554.1552.1554.396 0 .5514l-4.0011 4.0011zm0 4.6615 4.0011 4.0011c.1554.1553.1554.3962 0 .5516s-.3962.1554-.5516 0l-4.0011-4.001v3.737c0 .2174-.1709.3883-.3885.3883-.2175 0-.3884-.1709-.3884-.3883v-4.6772c0-.2175.1709-.3885.3884-.3885h4.6615c.21756 0 .3885.171.3885.3885s-.17094.3885-.3885.3885z" fill="#e3e6e1"/></g></svg>