<svg height="25" viewBox="-669.831 -3314.16 25 25" width="25" xmlns="http://www.w3.org/2000/svg"><g fill="none"><circle cx="-657.331" cy="-3301.66" fill="#666" r="12"/><circle cx="-657.331" cy="-3301.66" r="12" stroke="#fff" stroke-linecap="round" stroke-linejoin="round" stroke-width=".25"/><path d="m-651.1084-3295.9897v-2.17c0-.2178.17115-.3889.3889-.3889.2178 0 .3889.1711.3889.3889v3.1111c0 .2176-.1711.3889-.3889.3889h-3.1111c-.2178 0-.3889-.1713-.3889-.3889 0-.2178.1711-.3889.3889-.3889h2.17l-4.00554-4.0055c-.15556-.1556-.15556-.3967 0-.5523.15554-.1557.39664-.1557.55224 0zm-12.4444-11.34v2.17c0 .2177-.1711.3887-.3889.3887s-.3889-.171-.3889-.3887v-3.1113c0-.2176.1711-.3887.3889-.3887h3.1111c.2178 0 .3889.1711.3889.3887 0 .218-.1711.389-.3889.389h-2.17l4.0056 4.0056c.1555.1554.1555.3967 0 .5524-.1556.1554-.3967.1554-.55225 0zm.5522 11.8922h2.17c.2178 0 .3889.1711.3889.3889 0 .2176-.1711.3889-.3889.3889h-3.1111c-.2178 0-.3889-.1713-.3889-.3889v-3.1111c0-.2178.1711-.3889.3889-.3889s.3889.1711.3889.3889v2.17l4.00555-4.0056c.15555-.1557.39665-.1557.55225 0 .1555.1556.1555.3967 0 .5523zm11.34-12.4445h-2.17c-.2178 0-.3889-.171-.3889-.389 0-.2176.1711-.3887.3889-.3887h3.1111c.2178 0 .3889.1711.3889.3887v3.1346c0 .2178-.1711.3889-.3889.3889-.21775 0-.3889-.1711-.3889-.3889v-2.1933l-4.0055 4.0057c-.1556.1554-.3967.1554-.55224 0-.15556-.1557-.15556-.397 0-.5524z" fill="#e3e6e1"/></g></svg>