<?xml version="1.0" encoding="UTF-8" standalone="no"?>
<!DOCTYPE svg PUBLIC "-//W3C//DTD SVG 1.1//EN" "http://www.w3.org/Graphics/SVG/1.1/DTD/svg11.dtd">
<svg xmlns="http://www.w3.org/2000/svg" xmlns:xl="http://www.w3.org/1999/xlink" version="1.1" xmlns:dc="http://purl.org/dc/elements/1.1/" viewBox="-669.8306 -3314.1597 25.000035 25" width="25.000035" height="25">
  <defs/>
  <g id="SOURCES" stroke-opacity="1" fill="none" stroke="none" fill-opacity="1" stroke-dasharray="none">
    <title>SOURCES</title>
    <g id="SOURCES_Dark">
      <title>Dark</title>
      <g id="Graphic_11486">
        <circle cx="-657.3306" cy="-3301.6597" r="12.0000278184556" fill="#666"/>
        <circle cx="-657.3306" cy="-3301.6597" r="12.0000278184556" stroke="white" stroke-linecap="round" stroke-linejoin="round" stroke-width=".2500004"/>
      </g>
      <g id="Graphic_11485">
        <path d="M -651.1084 -3295.9897 L -651.1084 -3298.1597 C -651.1084 -3298.3775 -650.93725 -3298.5486 -650.7195 -3298.5486 C -650.5017 -3298.5486 -650.3306 -3298.3775 -650.3306 -3298.1597 L -650.3306 -3295.0486 C -650.3306 -3294.831 -650.5017 -3294.6597 -650.7195 -3294.6597 L -653.8306 -3294.6597 C -654.0484 -3294.6597 -654.2195 -3294.831 -654.2195 -3295.0486 C -654.2195 -3295.2664 -654.0484 -3295.4375 -653.8306 -3295.4375 L -651.6606 -3295.4375 L -655.66614 -3299.443 C -655.8217 -3299.5986 -655.8217 -3299.8397 -655.66614 -3299.9953 C -655.5106 -3300.151 -655.2695 -3300.151 -655.1139 -3299.9953 Z M -663.5528 -3307.3297 L -663.5528 -3305.1597 C -663.5528 -3304.942 -663.7239 -3304.771 -663.9417 -3304.771 C -664.1595 -3304.771 -664.3306 -3304.942 -664.3306 -3305.1597 L -664.3306 -3308.271 C -664.3306 -3308.4886 -664.1595 -3308.6597 -663.9417 -3308.6597 L -660.8306 -3308.6597 C -660.6128 -3308.6597 -660.4417 -3308.4886 -660.4417 -3308.271 C -660.4417 -3308.053 -660.6128 -3307.882 -660.8306 -3307.882 L -663.0006 -3307.882 L -658.995 -3303.8764 C -658.8395 -3303.721 -658.8395 -3303.4797 -658.995 -3303.324 C -659.1506 -3303.1686 -659.3917 -3303.1686 -659.54725 -3303.324 Z M -663.0006 -3295.4375 L -660.8306 -3295.4375 C -660.6128 -3295.4375 -660.4417 -3295.2664 -660.4417 -3295.0486 C -660.4417 -3294.831 -660.6128 -3294.6597 -660.8306 -3294.6597 L -663.9417 -3294.6597 C -664.1595 -3294.6597 -664.3306 -3294.831 -664.3306 -3295.0486 L -664.3306 -3298.1597 C -664.3306 -3298.3775 -664.1595 -3298.5486 -663.9417 -3298.5486 C -663.7239 -3298.5486 -663.5528 -3298.3775 -663.5528 -3298.1597 L -663.5528 -3295.9897 L -659.54725 -3299.9953 C -659.3917 -3300.151 -659.1506 -3300.151 -658.995 -3299.9953 C -658.8395 -3299.8397 -658.8395 -3299.5986 -658.995 -3299.443 Z M -651.6606 -3307.882 L -653.8306 -3307.882 C -654.0484 -3307.882 -654.2195 -3308.053 -654.2195 -3308.271 C -654.2195 -3308.4886 -654.0484 -3308.6597 -653.8306 -3308.6597 L -650.7195 -3308.6597 C -650.5017 -3308.6597 -650.3306 -3308.4886 -650.3306 -3308.271 L -650.3306 -3305.1364 C -650.3306 -3304.9186 -650.5017 -3304.7475 -650.7195 -3304.7475 C -650.93725 -3304.7475 -651.1084 -3304.9186 -651.1084 -3305.1364 L -651.1084 -3307.3297 L -655.1139 -3303.324 C -655.2695 -3303.1686 -655.5106 -3303.1686 -655.66614 -3303.324 C -655.8217 -3303.4797 -655.8217 -3303.721 -655.66614 -3303.8764 Z" fill="#e3e6e1"/>
      </g>
    </g>
  </g>
</svg>
