<svg height="25" viewBox="-597.831 -3314.16 25 25" width="25" xmlns="http://www.w3.org/2000/svg"><g fill="none"><path d="M-593.49-3313.66h16.32a3.84 3.84 0 0 1 3.84 3.84v16.32a3.84 3.84 0 0 1-3.84 3.84h-16.32a3.84 3.84 0 0 1-3.84-3.84v-16.32a3.84 3.84 0 0 1 3.84-3.84z" fill="#666"/><path d="M-593.49-3313.66h16.32a3.84 3.84 0 0 1 3.84 3.84v16.32a3.84 3.84 0 0 1-3.84 3.84h-16.32a3.84 3.84 0 0 1-3.84-3.84v-16.32a3.84 3.84 0 0 1 3.84-3.84z" stroke="#fff" stroke-linecap="round" stroke-linejoin="round" stroke-width=".25"/><path d="M-585.15-3301.66v-6.444a6.445 6.445 0 1 1 0 12.889z" fill="#e3e6e1"/><g stroke="#e3e6e1"><path d="M-585.15-3301.66v-6.444a6.445 6.445 0 1 1 0 12.889z" stroke-linecap="round" stroke-linejoin="round" stroke-width=".5"/><path d="M-585.511-3301.66v6.445a6.445 6.445 0 0 1 0-12.89z" stroke-linejoin="bevel"/><path d="M-585.12-3309.66v16" stroke-linecap="round" stroke-linejoin="round" stroke-width=".5"/></g></g></svg>