<svg height="25" viewBox="-597.831 -3314.16 25 25" width="25" xmlns="http://www.w3.org/2000/svg"><g fill="none"><path d="m-593.4905-3313.6597h16.31996c2.12078 0 3.84001 1.7192 3.84001 3.84v16.32c0 2.1207-1.71923 3.84-3.84001 3.84h-16.31996c-2.1208 0-3.84-1.7193-3.84-3.84v-16.32c0-2.1208 1.7192-3.84 3.84-3.84z" fill="#666"/><path d="m-593.4905-3313.6597h16.31996c2.12078 0 3.84001 1.7192 3.84001 3.84v16.32c0 2.1207-1.71923 3.84-3.84001 3.84h-16.31996c-2.1208 0-3.84-1.7193-3.84-3.84v-16.32c0-2.1208 1.7192-3.84 3.84-3.84z" stroke="#fff" stroke-linecap="round" stroke-linejoin="round" stroke-width=".25"/><path d="m-585.1499-3301.6597v-6.4446c3.5593 0 6.4446 2.8853 6.4446 6.4446 0 3.5592-2.8853 6.4447-6.4446 6.4447z" fill="#e3e6e1"/><g stroke="#e3e6e1"><path d="m-585.1499-3301.6597v-6.4446c3.5593 0 6.4446 2.8853 6.4446 6.4446 0 3.5592-2.8853 6.4447-6.4446 6.4447z" stroke-linecap="round" stroke-linejoin="round" stroke-width=".5"/><path d="m-585.5112-3301.6597v6.4447c-3.55924 0-6.4446-2.8855-6.4446-6.4447 0-3.5593 2.88536-6.4446 6.4446-6.4446z" stroke-linejoin="bevel"/><path d="m-585.1194-3309.6597v16" stroke-linecap="round" stroke-linejoin="round" stroke-width=".5"/></g></g></svg>