<svg height="25" viewBox="-561.831 -3314.16 25 25" width="25" xmlns="http://www.w3.org/2000/svg"><g fill="none"><path d="M-557.49-3313.66h16.32a3.84 3.84 0 0 1 3.84 3.84v16.32a3.84 3.84 0 0 1-3.84 3.84h-16.32a3.84 3.84 0 0 1-3.84-3.84v-16.32a3.84 3.84 0 0 1 3.84-3.84z" fill="#666"/><path d="M-557.49-3313.66h16.32a3.84 3.84 0 0 1 3.84 3.84v16.32a3.84 3.84 0 0 1-3.84 3.84h-16.32a3.84 3.84 0 0 1-3.84-3.84v-16.32a3.84 3.84 0 0 1 3.84-3.84z" stroke="#fff" stroke-linecap="round" stroke-linejoin="round" stroke-width=".25"/><path d="M-543.108-3297.771v-8.944c0-.646-.521-1.167-1.167-1.167h-10.111c-.646 0-1.167.521-1.167 1.167v8.944zm0 .778h-12.445v.389c0 .645.521 1.166 1.167 1.166h10.111c.646 0 1.167-.52 1.167-1.166zm-13.223-9.722c0-1.074.872-1.945 1.945-1.945h10.111c1.073 0 1.944.871 1.944 1.945v10.111a1.945 1.945 0 0 1-1.944 1.944h-10.111a1.945 1.945 0 0 1-1.945-1.944zm7 6.502l1.704-1.361a.385.385 0 0 1 .544.062.385.385 0 0 1-.062.544l-1.944 1.556a.376.376 0 0 1-.483 0l-1.944-1.556a.386.386 0 0 1-.062-.544.385.385 0 0 1 .544-.062z" fill="#e3e6e1"/><g fill="#ccc"><path d="M-554.544-3297.286h10.4a1.1 1.1 0 0 1 0 2.2h-10.4a1.1 1.1 0 0 1 0-2.2z"/><path d="M-555.644-3297.286h12.6v.884h-12.6z"/></g></g></svg>