<?xml version="1.0" encoding="UTF-8" standalone="no"?>
<!DOCTYPE svg PUBLIC "-//W3C//DTD SVG 1.1//EN" "http://www.w3.org/Graphics/SVG/1.1/DTD/svg11.dtd">
<svg xmlns="http://www.w3.org/2000/svg" xmlns:xl="http://www.w3.org/1999/xlink" version="1.1" xmlns:dc="http://purl.org/dc/elements/1.1/" viewBox="-597.8305 -3314.1597 25 25" width="25" height="25">
  <defs/>
  <g id="SOURCES" stroke-opacity="1" fill="none" stroke="none" fill-opacity="1" stroke-dasharray="none">
    <title>SOURCES</title>
    <g id="SOURCES_Dark">
      <title>Dark</title>
      <g id="Graphic_10943">
        <path d="M -593.4905 -3313.6597 L -577.17054 -3313.6597 C -575.04976 -3313.6597 -573.33053 -3311.9405 -573.33053 -3309.8197 L -573.33053 -3293.4997 C -573.33053 -3291.379 -575.04976 -3289.6597 -577.17054 -3289.6597 L -593.4905 -3289.6597 C -595.6113 -3289.6597 -597.3305 -3291.379 -597.3305 -3293.4997 L -597.3305 -3309.8197 C -597.3305 -3311.9405 -595.6113 -3313.6597 -593.4905 -3313.6597 Z" fill="#666"/>
        <path d="M -593.4905 -3313.6597 L -577.17054 -3313.6597 C -575.04976 -3313.6597 -573.33053 -3311.9405 -573.33053 -3309.8197 L -573.33053 -3293.4997 C -573.33053 -3291.379 -575.04976 -3289.6597 -577.17054 -3289.6597 L -593.4905 -3289.6597 C -595.6113 -3289.6597 -597.3305 -3291.379 -597.3305 -3293.4997 L -597.3305 -3309.8197 C -597.3305 -3311.9405 -595.6113 -3313.6597 -593.4905 -3313.6597 Z" stroke="white" stroke-linecap="round" stroke-linejoin="round" stroke-width=".25"/>
      </g>
      <g id="Graphic_10942">
        <path d="M -585.1499 -3301.6597 L -585.1499 -3308.1043 C -581.5906 -3308.1043 -578.7053 -3305.219 -578.7053 -3301.6597 C -578.7053 -3298.1005 -581.5906 -3295.215 -585.1499 -3295.215 L -585.1499 -3301.6597 Z" fill="#e3e6e1"/>
        <path d="M -585.1499 -3301.6597 L -585.1499 -3308.1043 C -581.5906 -3308.1043 -578.7053 -3305.219 -578.7053 -3301.6597 C -578.7053 -3298.1005 -581.5906 -3295.215 -585.1499 -3295.215 L -585.1499 -3301.6597 Z" stroke="#e3e6e1" stroke-linecap="round" stroke-linejoin="round" stroke-width=".5"/>
      </g>
      <g id="Graphic_10941">
        <path d="M -585.5112 -3301.6597 L -585.5112 -3295.215 C -589.07044 -3295.215 -591.9558 -3298.1005 -591.9558 -3301.6597 C -591.9558 -3305.219 -589.07044 -3308.1043 -585.5112 -3308.1043 L -585.5112 -3301.6597 Z" stroke="#e3e6e1" stroke-linecap="butt" stroke-linejoin="bevel" stroke-width="1"/>
      </g>
      <g id="Line_10939">
        <line x1="-585.1194" y1="-3309.6597" x2="-585.1194" y2="-3293.6597" stroke="#e3e6e1" stroke-linecap="round" stroke-linejoin="round" stroke-width=".5"/>
      </g>
    </g>
  </g>
</svg>
