<svg height="25" viewBox="-489.831 -3314.16 25 25" width="25" xmlns="http://www.w3.org/2000/svg"><g fill="none"><path d="m-485.49053-3313.6597h16.31999c2.12078 0 3.84001 1.7192 3.84001 3.84v16.32c0 2.1207-1.71923 3.84-3.84001 3.84h-16.31999c-2.12077 0-3.84-1.7193-3.84-3.84v-16.32c0-2.1208 1.71923-3.84 3.84-3.84z" fill="#666"/><path d="m-485.49053-3313.6597h16.31999c2.12078 0 3.84001 1.7192 3.84001 3.84v16.32c0 2.1207-1.71923 3.84-3.84001 3.84h-16.31999c-2.12077 0-3.84-1.7193-3.84-3.84v-16.32c0-2.1208 1.71923-3.84 3.84-3.84z" stroke="#fff" stroke-linecap="round" stroke-linejoin="round" stroke-width=".25"/><path d="m-483.55276-3305.5486v8.9446c0 .6454.52111 1.1665 1.16666 1.1665h10.1111c.6456 0 1.1667-.5211 1.1667-1.1665v-8.9446zm0-.7778h12.44446v-.3889c0-.6457-.5211-1.1667-1.1667-1.1667h-10.1111c-.64555 0-1.16666.521-1.16666 1.1667zm13.22223 9.7224c0 1.073-.87112 1.9443-1.94447 1.9443h-10.1111c-1.0733 0-1.94443-.8713-1.94443-1.9443v-10.1113c0-1.0733.87113-1.9444 1.94443-1.9444h10.1111c1.07335 0 1.94447.8711 1.94447 1.9444zm-7-6.5024-1.70334 1.3611c-.17113.1323-.41223.1089-.54443-.0622-.13223-.1711-.1089-.4122.0622-.5445l1.94445-1.5555c.14-.1165.34225-.1165.48225 0l1.9444 1.5555c.17113.1323.19447.381.06224.5445-.13224.1711-.38111.1945-.54444.0622z" fill="#e3e6e1"/></g></svg>