<?xml version="1.0" encoding="UTF-8" standalone="no"?>
<!DOCTYPE svg PUBLIC "-//W3C//DTD SVG 1.1//EN" "http://www.w3.org/Graphics/SVG/1.1/DTD/svg11.dtd">
<svg xmlns="http://www.w3.org/2000/svg" xmlns:xl="http://www.w3.org/1999/xlink" version="1.1" xmlns:dc="http://purl.org/dc/elements/1.1/" viewBox="-525.83053 -3314.1597 25 25" width="25" height="25">
  <defs/>
  <g id="SOURCES" stroke-opacity="1" fill="none" stroke="none" fill-opacity="1" stroke-dasharray="none">
    <title>SOURCES</title>
    <g id="SOURCES_Dark">
      <title>Dark</title>
      <g id="Graphic_11512">
        <path d="M -521.49053 -3313.6597 L -505.17054 -3313.6597 C -503.04976 -3313.6597 -501.33053 -3311.9405 -501.33053 -3309.8197 L -501.33053 -3293.4997 C -501.33053 -3291.379 -503.04976 -3289.6597 -505.17054 -3289.6597 L -521.49053 -3289.6597 C -523.6113 -3289.6597 -525.33053 -3291.379 -525.33053 -3293.4997 L -525.33053 -3309.8197 C -525.33053 -3311.9405 -523.6113 -3313.6597 -521.49053 -3313.6597 Z" fill="#666"/>
        <path d="M -521.49053 -3313.6597 L -505.17054 -3313.6597 C -503.04976 -3313.6597 -501.33053 -3311.9405 -501.33053 -3309.8197 L -501.33053 -3293.4997 C -501.33053 -3291.379 -503.04976 -3289.6597 -505.17054 -3289.6597 L -521.49053 -3289.6597 C -523.6113 -3289.6597 -525.33053 -3291.379 -525.33053 -3293.4997 L -525.33053 -3309.8197 C -525.33053 -3311.9405 -523.6113 -3313.6597 -521.49053 -3313.6597 Z" stroke="white" stroke-linecap="round" stroke-linejoin="round" stroke-width=".25"/>
      </g>
      <g id="Graphic_11511">
        <path d="M -507.1083 -3297.771 L -507.1083 -3306.7153 C -507.1083 -3307.361 -507.6294 -3307.882 -508.275 -3307.882 L -518.3861 -3307.882 C -519.03165 -3307.882 -519.55276 -3307.361 -519.55276 -3306.7153 L -519.55276 -3297.771 Z M -507.1083 -3296.993 L -519.55276 -3296.993 L -519.55276 -3296.604 C -519.55276 -3295.9586 -519.03165 -3295.4375 -518.3861 -3295.4375 L -508.275 -3295.4375 C -507.6294 -3295.4375 -507.1083 -3295.9586 -507.1083 -3296.604 Z M -520.33053 -3306.7153 C -520.33053 -3307.7886 -519.4594 -3308.6597 -518.3861 -3308.6597 L -508.275 -3308.6597 C -507.20165 -3308.6597 -506.33053 -3307.7886 -506.33053 -3306.7153 L -506.33053 -3296.604 C -506.33053 -3295.531 -507.20165 -3294.6597 -508.275 -3294.6597 L -518.3861 -3294.6597 C -519.4594 -3294.6597 -520.33053 -3295.531 -520.33053 -3296.604 Z M -513.33053 -3300.213 L -511.6272 -3301.574 C -511.4561 -3301.7064 -511.215 -3301.683 -511.08276 -3301.512 C -510.95053 -3301.341 -510.97387 -3301.0997 -511.145 -3300.9675 L -513.0894 -3299.412 C -513.2294 -3299.2953 -513.43165 -3299.2953 -513.57165 -3299.412 L -515.5161 -3300.9675 C -515.6872 -3301.0997 -515.71053 -3301.3486 -515.5783 -3301.512 C -515.4461 -3301.683 -515.1972 -3301.7064 -515.03387 -3301.574 Z" fill="#e3e6e1"/>
      </g>
    </g>
  </g>
</svg>
