<svg height="25" viewBox="-489.831 -3314.16 25 25" width="25" xmlns="http://www.w3.org/2000/svg"><g fill="none"><path d="M-485.49-3313.66h16.32a3.84 3.84 0 0 1 3.84 3.84v16.32a3.84 3.84 0 0 1-3.84 3.84h-16.32a3.84 3.84 0 0 1-3.84-3.84v-16.32a3.84 3.84 0 0 1 3.84-3.84z" fill="#666"/><path d="M-485.49-3313.66h16.32a3.84 3.84 0 0 1 3.84 3.84v16.32a3.84 3.84 0 0 1-3.84 3.84h-16.32a3.84 3.84 0 0 1-3.84-3.84v-16.32a3.84 3.84 0 0 1 3.84-3.84z" stroke="#fff" stroke-linecap="round" stroke-linejoin="round" stroke-width=".25"/><path d="M-483.553-3305.549v8.945c0 .645.521 1.166 1.167 1.166h10.111c.646 0 1.167-.52 1.167-1.166v-8.945zm0-.777h12.445v-.39c0-.645-.521-1.166-1.167-1.166h-10.111c-.646 0-1.167.521-1.167 1.167zm13.222 9.722a1.945 1.945 0 0 1-1.944 1.944h-10.111a1.945 1.945 0 0 1-1.945-1.944v-10.111c0-1.074.872-1.945 1.945-1.945h10.111c1.073 0 1.944.871 1.944 1.945zm-7-6.502l-1.703 1.36a.385.385 0 0 1-.544-.061.385.385 0 0 1 .062-.545l1.944-1.555a.376.376 0 0 1 .483 0l1.944 1.555a.385.385 0 0 1 .062.545.385.385 0 0 1-.544.062z" fill="#e3e6e1"/></g></svg>