<svg height="25" viewBox="-525.831 -3314.16 25 25" width="25" xmlns="http://www.w3.org/2000/svg"><g fill="none"><path d="m-521.49053-3313.6597h16.31999c2.12078 0 3.84001 1.7192 3.84001 3.84v16.32c0 2.1207-1.71923 3.84-3.84001 3.84h-16.31999c-2.12077 0-3.84-1.7193-3.84-3.84v-16.32c0-2.1208 1.71923-3.84 3.84-3.84z" fill="#666"/><path d="m-521.49053-3313.6597h16.31999c2.12078 0 3.84001 1.7192 3.84001 3.84v16.32c0 2.1207-1.71923 3.84-3.84001 3.84h-16.31999c-2.12077 0-3.84-1.7193-3.84-3.84v-16.32c0-2.1208 1.71923-3.84 3.84-3.84z" stroke="#fff" stroke-linecap="round" stroke-linejoin="round" stroke-width=".25"/><path d="m-507.1083-3297.771v-8.9443c0-.6457-.5211-1.1667-1.1667-1.1667h-10.1111c-.64555 0-1.16666.521-1.16666 1.1667v8.9443zm0 .778h-12.44446v.389c0 .6454.52111 1.1665 1.16666 1.1665h10.1111c.6456 0 1.1667-.5211 1.1667-1.1665zm-13.22223-9.7223c0-1.0733.87113-1.9444 1.94443-1.9444h10.1111c1.07335 0 1.94447.8711 1.94447 1.9444v10.1113c0 1.073-.87112 1.9443-1.94447 1.9443h-10.1111c-1.0733 0-1.94443-.8713-1.94443-1.9443zm7 6.5023 1.70333-1.361c.1711-.1324.4122-.109.54444.062.13223.171.10889.4123-.06224.5445l-1.9444 1.5555c-.14.1167-.34225.1167-.48225 0l-1.94445-1.5555c-.1711-.1322-.19443-.3811-.0622-.5445.1322-.171.3811-.1944.54443-.062z" fill="#e3e6e1"/></g></svg>