<svg height="25" viewBox="-453.831 -3314.16 25 25" width="25" xmlns="http://www.w3.org/2000/svg"><g fill="none"><circle cx="-441.33" cy="-3301.66" fill="#666" r="12"/><circle cx="-441.33" cy="-3301.66" r="12" stroke="#fff" stroke-linecap="round" stroke-linejoin="round" stroke-width=".25"/><path d="M-444.213-3299.326h-3.721a.385.385 0 0 1-.389-.39c0-.217.171-.388.389-.388h4.661c.218 0 .389.171.389.389v4.666c0 .218-.171.39-.389.39a.385.385 0 0 1-.388-.39v-3.725l-4.001 3.998a.385.385 0 0 1-.552 0 .385.385 0 0 1 0-.553l4.001-4.005zm5.765-4.667h3.721c.218 0 .389.171.389.389s-.171.389-.389.389h-4.661a.385.385 0 0 1-.389-.389v-4.667c0-.218.171-.389.389-.389s.388.171.388.389v3.726l4.001-3.998a.384.384 0 0 1 .552 0 .385.385 0 0 1 0 .552l-4.001 4.006z" fill="#e3e6e1"/></g></svg>