<svg height="25" viewBox="-453.831 -3314.16 25 25" width="25" xmlns="http://www.w3.org/2000/svg"><g fill="none"><circle cx="-441.33" cy="-3301.66" fill="#666" r="12"/><circle cx="-441.33" cy="-3301.66" r="12" stroke="#fff" stroke-linecap="round" stroke-linejoin="round" stroke-width=".25"/><path d="m-444.2128-3299.3264h-3.72144c-.21756 0-.38846-.1711-.38846-.3889 0-.2177.1709-.3887.38846-.3887h4.6615c.21754 0 .38844.171.38844.3887v4.6667c0 .2176-.1709.3889-.38844.3889-.21756 0-.38846-.1713-.38846-.3889v-3.7254l-4.0011 3.9976c-.1554.1554-.39624.1554-.55163 0-.15537-.1556-.15537-.3966 0-.5522l4.00113-4.0054zm5.7647-4.6666h3.72145c.21755 0 .38845.171.38845.389 0 .2176-.1709.3887-.38845.3887h-4.6615c-.21755 0-.38845-.1711-.38845-.3887v-4.667c0-.2176.1709-.3887.38845-.3887s.38845.1711.38845.3887v3.7257l4.0011-3.9977c.1554-.1556.39625-.1556.55164 0 .15536.1555.15536.3966 0 .552l-4.00114 4.0057z" fill="#e3e6e1"/></g></svg>