<?xml version="1.0" encoding="UTF-8" standalone="no"?>
<!DOCTYPE svg PUBLIC "-//W3C//DTD SVG 1.1//EN" "http://www.w3.org/Graphics/SVG/1.1/DTD/svg11.dtd">
<svg xmlns="http://www.w3.org/2000/svg" xmlns:xl="http://www.w3.org/1999/xlink" version="1.1" xmlns:dc="http://purl.org/dc/elements/1.1/" viewBox="-453.83053 -3314.1597 25.000035 25" width="25.000035" height="25">
  <defs/>
  <g id="SOURCES" stroke-opacity="1" fill="none" stroke="none" fill-opacity="1" stroke-dasharray="none">
    <title>SOURCES</title>
    <g id="SOURCES_Dark">
      <title>Dark</title>
      <g id="Graphic_11498">
        <circle cx="-441.3305" cy="-3301.6597" r="12.0000278184556" fill="#666"/>
        <circle cx="-441.3305" cy="-3301.6597" r="12.0000278184556" stroke="white" stroke-linecap="round" stroke-linejoin="round" stroke-width=".2500004"/>
      </g>
      <g id="Graphic_11497">
        <path d="M -444.2128 -3299.3264 L -447.93424 -3299.3264 C -448.1518 -3299.3264 -448.3227 -3299.4975 -448.3227 -3299.7153 C -448.3227 -3299.933 -448.1518 -3300.104 -447.93424 -3300.104 L -443.27274 -3300.104 C -443.0552 -3300.104 -442.8843 -3299.933 -442.8843 -3299.7153 L -442.8843 -3295.0486 C -442.8843 -3294.831 -443.0552 -3294.6597 -443.27274 -3294.6597 C -443.4903 -3294.6597 -443.6612 -3294.831 -443.6612 -3295.0486 L -443.6612 -3298.774 L -447.6623 -3294.7764 C -447.8177 -3294.621 -448.05854 -3294.621 -448.21393 -3294.7764 C -448.3693 -3294.932 -448.3693 -3295.173 -448.21393 -3295.3286 L -444.2128 -3299.334 Z M -438.4481 -3303.993 L -434.72665 -3303.993 C -434.5091 -3303.993 -434.3382 -3303.822 -434.3382 -3303.604 C -434.3382 -3303.3864 -434.5091 -3303.2153 -434.72665 -3303.2153 L -439.38815 -3303.2153 C -439.6057 -3303.2153 -439.7766 -3303.3864 -439.7766 -3303.604 L -439.7766 -3308.271 C -439.7766 -3308.4886 -439.6057 -3308.6597 -439.38815 -3308.6597 C -439.1706 -3308.6597 -438.9997 -3308.4886 -438.9997 -3308.271 L -438.9997 -3304.5453 L -434.9986 -3308.543 C -434.8432 -3308.6986 -434.60235 -3308.6986 -434.44696 -3308.543 C -434.2916 -3308.3875 -434.2916 -3308.1464 -434.44696 -3307.991 L -438.4481 -3303.9853 Z" fill="#e3e6e1"/>
      </g>
    </g>
  </g>
</svg>
