<svg height="24.75" viewBox="-13.478 -3263.623 24.75 24.75" width="24.75" xmlns="http://www.w3.org/2000/svg"><g fill="none"><circle cx="-1.103" cy="-3251.248" fill="#666" r="8"/><circle cx="-1.103" cy="-3251.248" r="8"/><circle cx="-1.103" cy="-3251.248" fill="#fff" r="8"/><circle cx="-1.103" cy="-3251.248" r="8"/><path d="m-.7223139-3251.629h2.6666667c.2103942 0 .3809522.1705.3809522.381 0 .2103-.170558.381-.3809522.381h-2.6666667v2.6666c0 .2104-.1705582.3809-.3809524.3809s-.3809524-.1705-.3809524-.3809v-2.6666h-2.6666666c-.2103942 0-.3809524-.1707-.3809524-.381 0-.2105.1705582-.381.3809524-.381h2.6666666v-2.6667c0-.2103.1705582-.3809.3809524-.3809s.3809524.1706.3809524.3809zm-.3809524 8.381c-4.4182777 0-7.9999997-3.5818-7.9999997-8 0-4.4183 3.581722-8 7.9999997-8 4.418278 0 8.0000003 3.5817 8.0000003 8 0 4.4182-3.5817223 8-8.0000003 8zm0-.762c3.9974896 0 7.2380953-3.2406 7.2380953-7.238 0-3.9976-3.2406057-7.238-7.2380953-7.238-3.9974897 0-7.2380957 3.2404-7.2380957 7.238 0 3.9974 3.240606 7.238 7.2380957 7.238z" fill="#518736"/></g></svg>