<svg height="24.75" viewBox="-13.478 -3263.623 24.75 24.75" width="24.75" xmlns="http://www.w3.org/2000/svg"><g fill="none"><circle cx="-1.103" cy="-3251.248" fill="#666" r="8"/><circle cx="-1.103" cy="-3251.248" r="8"/><circle cx="-1.103" cy="-3251.248" fill="#fff" r="8"/><circle cx="-1.103" cy="-3251.248" r="8"/><path d="M-.722-3251.629h2.666a.38.38 0 1 1 0 .762H-.722v2.667a.38.38 0 0 1-.762 0v-2.667h-2.667a.381.381 0 0 1 0-.762h2.667v-2.667a.381.381 0 0 1 .762 0zm-.381 8.381a8 8 0 1 1 0-16 8 8 0 0 1 0 16zm0-.762a7.238 7.238 0 1 0 0-14.476 7.238 7.238 0 0 0 0 14.476z" fill="#518736"/></g></svg>