<?xml version="1.0" encoding="UTF-8" standalone="no"?>
<!DOCTYPE svg PUBLIC "-//W3C//DTD SVG 1.1//EN" "http://www.w3.org/Graphics/SVG/1.1/DTD/svg11.dtd">
<svg xmlns="http://www.w3.org/2000/svg" xmlns:dc="http://purl.org/dc/elements/1.1/" version="1.1" xmlns:xl="http://www.w3.org/1999/xlink" viewBox="-13.478266 -3263.623 24.75 24.75" width="24.75" height="24.75">
  <defs/>
  <g id="SOURCES" stroke-dasharray="none" stroke-opacity="1" stroke="none" fill="none" fill-opacity="1">
    <title>SOURCES</title>
    <g id="SOURCES_Light">
      <title>Light</title>
      <g id="Graphic_12388"/>
      <g id="Graphic_12389">
        <circle cx="-1.1032663" cy="-3251.248" r="8.0000070208016" fill="#666"/>
        <circle cx="-1.1032663" cy="-3251.248" r="8.0000070208016" stroke="black" stroke-linecap="round" stroke-linejoin="round" stroke-width="0"/>
      </g>
      <g id="Graphic_12387">
        <circle cx="-1.1032663" cy="-3251.248" r="8.0000070208016" fill="white"/>
        <circle cx="-1.1032663" cy="-3251.248" r="8.0000070208016" stroke="black" stroke-linecap="round" stroke-linejoin="round" stroke-width="0"/>
      </g>
      <g id="Graphic_12386">
        <path d="M -.7223139 -3251.629 L 1.9443528 -3251.629 C 2.154747 -3251.629 2.325305 -3251.4585 2.325305 -3251.248 C 2.325305 -3251.0377 2.154747 -3250.867 1.9443528 -3250.867 L -.7223139 -3250.867 L -.7223139 -3248.2004 C -.7223139 -3247.99 -.8928721 -3247.8195 -1.1032663 -3247.8195 C -1.3136605 -3247.8195 -1.4842187 -3247.99 -1.4842187 -3248.2004 L -1.4842187 -3250.867 L -4.1508853 -3250.867 C -4.3612795 -3250.867 -4.5318377 -3251.0377 -4.5318377 -3251.248 C -4.5318377 -3251.4585 -4.3612795 -3251.629 -4.1508853 -3251.629 L -1.4842187 -3251.629 L -1.4842187 -3254.2957 C -1.4842187 -3254.506 -1.3136605 -3254.6766 -1.1032663 -3254.6766 C -.8928721 -3254.6766 -.7223139 -3254.506 -.7223139 -3254.2957 Z M -1.1032663 -3243.248 C -5.521544 -3243.248 -9.103266 -3246.8298 -9.103266 -3251.248 C -9.103266 -3255.6663 -5.521544 -3259.248 -1.1032663 -3259.248 C 3.3150117 -3259.248 6.896734 -3255.6663 6.896734 -3251.248 C 6.896734 -3246.8298 3.3150117 -3243.248 -1.1032663 -3243.248 Z M -1.1032663 -3244.01 C 2.8942233 -3244.01 6.134829 -3247.2506 6.134829 -3251.248 C 6.134829 -3255.2456 2.8942233 -3258.486 -1.1032663 -3258.486 C -5.100756 -3258.486 -8.341362 -3255.2456 -8.341362 -3251.248 C -8.341362 -3247.2506 -5.100756 -3244.01 -1.1032663 -3244.01 Z" fill="#518736"/>
      </g>
    </g>
  </g>
</svg>
