<svg height="25" viewBox="-201.787 -3697.64 25 25" width="25" xmlns="http://www.w3.org/2000/svg"><g fill="none"><path d="m-197.44654-3697.14h16.32c2.12078 0 3.84 1.7194 3.84 3.84v16.32c0 2.121-1.71922 3.84-3.84 3.84h-16.32c-2.12076 0-3.84-1.719-3.84-3.84v-16.32c0-2.1206 1.71924-3.84 3.84-3.84z" fill="#fff"/><path d="m-197.44654-3697.14h16.32c2.12078 0 3.84 1.7194 3.84 3.84v16.32c0 2.121-1.71922 3.84-3.84 3.84h-16.32c-2.12076 0-3.84-1.719-3.84-3.84v-16.32c0-2.1206 1.71924-3.84 3.84-3.84z" stroke="#000" stroke-linecap="round" stroke-linejoin="round" stroke-width=".25"/><path d="m-184.84206-3681.3265 3.42223 3.4223c.17777.1777.17777.4532 0 .6312-.17778.1776-.45334.1776-.63111 0l-3.42223-3.4224c-1.25333 1.1112-2.89777 1.7778-4.70223 1.7778-3.92888 0-7.1111-3.1824-7.1111-7.1111 0-3.9289 3.18222-7.1113 7.1111-7.1113 3.9289 0 7.11112 3.1824 7.11112 7.1113 0 1.8045-.67555 3.4487-1.77778 4.7022zm-5.33334 1.52c3.44 0 6.22223-2.7822 6.22223-6.2222s-2.78223-6.2223-6.22223-6.2223-6.2222 2.7823-6.2222 6.2223 2.7822 6.2222 6.2222 6.2222z" fill="#5c75a0"/></g></svg>