<svg viewBox="-741.774 -3261.805 25 25" xmlns="http://www.w3.org/2000/svg"><g fill="none"><path d="M-721.114-3237.305h-16.32a3.84 3.84 0 0 1-3.84-3.84v-16.32a3.84 3.84 0 0 1 3.84-3.84h16.32a3.84 3.84 0 0 1 3.84 3.84v16.32a3.84 3.84 0 0 1-3.84 3.84z" fill="#fff"/><path d="M-721.114-3237.305h-16.32a3.84 3.84 0 0 1-3.84-3.84v-16.32a3.84 3.84 0 0 1 3.84-3.84h16.32a3.84 3.84 0 0 1 3.84 3.84v16.32a3.84 3.84 0 0 1-3.84 3.84z" stroke="#000" stroke-linecap="round" stroke-linejoin="round" stroke-width=".25"/><path d="M-727.7-3247.964a.398.398 0 0 1-.234.234l-3.992 1.597a.4.4 0 0 1-.52-.52l1.597-3.992a.398.398 0 0 1 .235-.234l3.991-1.597a.4.4 0 0 1 .52.52l-1.596 3.992zm-2.062-2.395l1.542 1.543 1.028-2.57zm.976 2.108l-1.542-1.542-1.028 2.57zm-.488 6.946a8 8 0 1 1 0-16 8 8 0 0 1 0 16zm0-.8a7.2 7.2 0 1 0 0-14.4 7.2 7.2 0 0 0 0 14.4z" fill="#5c76a1"/></g></svg>