<svg height="24.75" viewBox="-850.649 -3263.623 24.75 24.75" width="24.75" xmlns="http://www.w3.org/2000/svg"><g fill="none"><circle cx="-838.274" cy="-3251.248" fill="#666" r="8"/><circle cx="-838.274" cy="-3251.248" r="8"/><circle cx="-838.274" cy="-3251.248" fill="#fff" r="8"/><circle cx="-838.274" cy="-3251.248" r="8"/><path d="m-835.0801-3251.6322-2.6496-2.6498c-.1645-.1643-.1645-.431 0-.5953.1644-.1644.431-.1644.5954 0l3.3685 3.3683c.1644.1645.1644.431 0 .5956l-3.3685 3.3684c-.1644.1644-.431.1644-.5954 0-.1645-.1644-.1645-.431 0-.5955l2.6496-2.6495h-7.4045c-.2326 0-.4211-.1886-.4211-.421 0-.2327.1885-.4212.4211-.4212zm-3.194-7.5788c4.4183 0 8 3.5816 8 8 0 4.418-3.5817 8-8 8s-8-3.582-8-8c0-4.4184 3.5817-8 8-8zm0 .842c-3.9532 0-7.1579 3.2046-7.1579 7.158 0 3.953 3.2047 7.1577 7.1579 7.1577s7.1579-3.2047 7.1579-7.1577c0-3.9534-3.2047-7.158-7.1579-7.158z" fill="#5c76a2"/></g></svg>