<?xml version="1.0" encoding="UTF-8" standalone="no"?>
<!DOCTYPE svg PUBLIC "-//W3C//DTD SVG 1.1//EN" "http://www.w3.org/Graphics/SVG/1.1/DTD/svg11.dtd">
<svg version="1.1" xmlns="http://www.w3.org/2000/svg" xmlns:xl="http://www.w3.org/1999/xlink" xmlns:dc="http://purl.org/dc/elements/1.1/" viewBox="-201.78654 -3697.64 25 25" width="25" height="25">
  <defs/>
  <g id="SOURCES" stroke-dasharray="none" fill="none" stroke="none" fill-opacity="1" stroke-opacity="1">
    <title>SOURCES</title>
    <g id="SOURCES_Calque_2">
      <title>Calque 2</title>
      <g id="Group_9171">
        <g id="Graphic_9170">
          <path d="M -197.44654 -3697.14 L -181.12654 -3697.14 C -179.00576 -3697.14 -177.28654 -3695.4206 -177.28654 -3693.3 L -177.28654 -3676.98 C -177.28654 -3674.859 -179.00576 -3673.14 -181.12654 -3673.14 L -197.44654 -3673.14 C -199.5673 -3673.14 -201.28654 -3674.859 -201.28654 -3676.98 L -201.28654 -3693.3 C -201.28654 -3695.4206 -199.5673 -3697.14 -197.44654 -3697.14 Z" fill="white"/>
          <path d="M -197.44654 -3697.14 L -181.12654 -3697.14 C -179.00576 -3697.14 -177.28654 -3695.4206 -177.28654 -3693.3 L -177.28654 -3676.98 C -177.28654 -3674.859 -179.00576 -3673.14 -181.12654 -3673.14 L -197.44654 -3673.14 C -199.5673 -3673.14 -201.28654 -3674.859 -201.28654 -3676.98 L -201.28654 -3693.3 C -201.28654 -3695.4206 -199.5673 -3697.14 -197.44654 -3697.14 Z" stroke="black" stroke-linecap="round" stroke-linejoin="round" stroke-width=".25"/>
        </g>
        <g id="Group_9165">
          <title>search</title>
          <g id="Graphic_9166">
            <path d="M -184.84206 -3681.3265 L -181.41983 -3677.9042 C -181.24206 -3677.7265 -181.24206 -3677.451 -181.41983 -3677.273 C -181.59761 -3677.0954 -181.87317 -3677.0954 -182.05094 -3677.273 L -185.47317 -3680.6954 C -186.7265 -3679.5842 -188.37094 -3678.9176 -190.1754 -3678.9176 C -194.10428 -3678.9176 -197.2865 -3682.1 -197.2865 -3686.0287 C -197.2865 -3689.9576 -194.10428 -3693.14 -190.1754 -3693.14 C -186.2465 -3693.14 -183.06428 -3689.9576 -183.06428 -3686.0287 C -183.06428 -3684.2242 -183.73983 -3682.58 -184.84206 -3681.3265 Z M -190.1754 -3679.8065 C -186.7354 -3679.8065 -183.95317 -3682.5887 -183.95317 -3686.0287 C -183.95317 -3689.4687 -186.7354 -3692.251 -190.1754 -3692.251 C -193.6154 -3692.251 -196.3976 -3689.4687 -196.3976 -3686.0287 C -196.3976 -3682.5887 -193.6154 -3679.8065 -190.1754 -3679.8065 Z" fill="#5c75a0"/>
          </g>
        </g>
      </g>
    </g>
  </g>
</svg>
