<svg viewBox="-850.649 -3263.623 24.75 24.75" xmlns="http://www.w3.org/2000/svg"><g fill="none"><circle cx="-838.274" cy="-3251.248" fill="#666" r="8"/><circle cx="-838.274" cy="-3251.248" r="8"/><circle cx="-838.274" cy="-3251.248" fill="#fff" r="8"/><circle cx="-838.274" cy="-3251.248" r="8"/><path d="m-835.08-3251.632-2.65-2.65a.42.42 0 1 1 .596-.595l3.368 3.368a.421.421 0 0 1 0 .596l-3.368 3.368a.421.421 0 1 1 -.596-.595l2.65-2.65h-7.405a.421.421 0 0 1 0-.842zm-3.194-7.579a8 8 0 1 1 0 16 8 8 0 0 1 0-16zm0 .842a7.158 7.158 0 1 0 0 14.316 7.158 7.158 0 0 0 0-14.316z" fill="#5c76a2"/></g></svg>