<svg height="25" viewBox="-115.383 -3675.743 25 25" width="25" xmlns="http://www.w3.org/2000/svg"><g fill="none"><path d="m-111.04302-3675.243h16.32c2.12078 0 3.84 1.7194 3.84 3.84v16.32c0 2.121-1.71922 3.84-3.84 3.84h-16.32c-2.12077 0-3.84-1.719-3.84-3.84v-16.32c0-2.1206 1.71923-3.84 3.84-3.84z" fill="#fff"/><path d="m-111.04302-3675.243h16.32c2.12078 0 3.84 1.7194 3.84 3.84v16.32c0 2.121-1.71922 3.84-3.84 3.84h-16.32c-2.12077 0-3.84-1.719-3.84-3.84v-16.32c0-2.1206 1.71923-3.84 3.84-3.84z" stroke="#000" stroke-linecap="round" stroke-linejoin="round" stroke-width=".25"/><path d="m-110.4386-3668.1317c-.24889 0-.44445-.1956-.44445-.4443 0-.249.19556-.4446.44445-.4446h15.11117c.24889 0 .44444.1956.44444.4446 0 .2487-.19555.4443-.44444.4443zm6.22224 3.5557c-.24889 0-.44444-.1957-.44444-.4446s.19555-.4444.44444-.4444h8.88893c.24889 0 .44444.1955.44444.4444s-.19555.4446-.44444.4446zm0 3.5554c-.24889 0-.44444-.1954-.44444-.4444s.19555-.4445.44444-.4445h8.88893c.24889 0 .44444.1955.44444.4445s-.19555.4444-.44444.4444zm-6.22224 3.5556c-.24889 0-.44445-.1956-.44445-.4444 0-.2489.19556-.4446.44445-.4446h15.11117c.24889 0 .44444.1957.44444.4446 0 .2488-.19555.4444-.44444.4444zm-.44445-8.4445c0-.3645.41778-.5778.71112-.3555l3.55556 2.6666c.24001.1778.24001.5334 0 .7112l-3.55556 2.6666c-.29334.2223-.71112.0089-.71112-.3554zm.88889.8889v3.5556l2.37335-1.778z" fill="#5c75a0"/></g></svg>