<svg height="25" viewBox="-848.587 -3741.319 25 25" width="25" xmlns="http://www.w3.org/2000/svg"><g fill="none"><path d="m-827.9265-3716.8194h-16.32c-2.1208 0-3.84-1.7193-3.84-3.84v-16.32c0-2.1206 1.7192-3.84 3.84-3.84h16.32c2.1208 0 3.84 1.7194 3.84 3.84v16.32c0 2.1207-1.7192 3.84-3.84 3.84z" fill="#fff"/><path d="m-827.9265-3716.8194h-16.32c-2.1208 0-3.84-1.7193-3.84-3.84v-16.32c0-2.1206 1.7192-3.84 3.84-3.84h16.32c2.1208 0 3.84 1.7194 3.84 3.84v16.32c0 2.1207-1.7192 3.84-3.84 3.84z" stroke="#000" stroke-linecap="round" stroke-linejoin="round" stroke-width=".25"/><path d="m-838.1195-3733.618c-.1761 1.2248-1.1446 2.2013-2.3692 2.3693v4.8585c1.3607.1922 2.4012 1.3607 2.4012 2.7692 0 1.545-1.2566 2.8016-2.8014 2.8016s-2.8014-1.2566-2.8014-2.8016c0-1.4085 1.0405-2.577 2.4012-2.7692v-4.8585c-1.3607-.1921-2.4012-1.3606-2.4012-2.7693 0-1.545 1.2566-2.8014 2.8014-2.8014 1.4087 0 2.5773 1.0404 2.7694 2.4012h3.6338c1.993 0 3.6018 1.6088 3.6018 3.6018v.4322c1.3607.1922 2.4012 1.3607 2.4012 2.7692 0 1.545-1.2566 2.8016-2.8014 2.8016s-2.8014-1.2566-2.8014-2.8016c0-1.4085 1.0405-2.577 2.4012-2.7692v-.4322c0-1.5446-1.2566-2.8016-2.8014-2.8016zm-4.7704-.4c0 1.1045.8964 2.001 2.001 2.001 1.1045 0 2.001-.8965 2.001-2.001 0-1.1046-.8965-2.001-2.001-2.001-1.1046 0-2.001.8964-2.001 2.001zm0 10.405c0 1.1047.8964 2.001 2.001 2.001 1.1045 0 2.001-.8963 2.001-2.001 0-1.1044-.8965-2.001-2.001-2.001-1.1046 0-2.001.8966-2.001 2.001zm11.6058-6.003c-1.1046 0-2.001.8966-2.001 2.001 0 1.1047.8964 2.001 2.001 2.001 1.1045 0 2.001-.8963 2.001-2.001 0-1.1044-.8965-2.001-2.001-2.001z" fill="#5c76a1"/></g></svg>