<?xml version="1.0" encoding="UTF-8" standalone="no"?>
<!DOCTYPE svg PUBLIC "-//W3C//DTD SVG 1.1//EN" "http://www.w3.org/Graphics/SVG/1.1/DTD/svg11.dtd">
<svg version="1.1" xmlns="http://www.w3.org/2000/svg" xmlns:xl="http://www.w3.org/1999/xlink" xmlns:dc="http://purl.org/dc/elements/1.1/" viewBox="-848.5865 -3741.3194 25 25" width="25" height="25">
  <defs/>
  <g id="SOURCES" stroke-dasharray="none" fill="none" stroke="none" fill-opacity="1" stroke-opacity="1">
    <title>SOURCES</title>
    <g id="SOURCES_Calque_2">
      <title>Calque 2</title>
      <g id="Graphic_9039">
        <title>views/view.other</title>
        <path d="M -827.9265 -3716.8194 L -844.2465 -3716.8194 C -846.3673 -3716.8194 -848.0865 -3718.5387 -848.0865 -3720.6594 L -848.0865 -3736.9794 C -848.0865 -3739.1 -846.3673 -3740.8194 -844.2465 -3740.8194 L -827.9265 -3740.8194 C -825.8057 -3740.8194 -824.0865 -3739.1 -824.0865 -3736.9794 L -824.0865 -3720.6594 C -824.0865 -3718.5387 -825.8057 -3716.8194 -827.9265 -3716.8194 Z" fill="white"/>
        <path d="M -827.9265 -3716.8194 L -844.2465 -3716.8194 C -846.3673 -3716.8194 -848.0865 -3718.5387 -848.0865 -3720.6594 L -848.0865 -3736.9794 C -848.0865 -3739.1 -846.3673 -3740.8194 -844.2465 -3740.8194 L -827.9265 -3740.8194 C -825.8057 -3740.8194 -824.0865 -3739.1 -824.0865 -3736.9794 L -824.0865 -3720.6594 C -824.0865 -3718.5387 -825.8057 -3716.8194 -827.9265 -3716.8194 Z" stroke="black" stroke-linecap="round" stroke-linejoin="round" stroke-width=".25"/>
      </g>
      <g id="Group_9040">
        <title>git-merge</title>
        <g id="Graphic_9041">
          <path d="M -838.1195 -3733.618 C -838.2956 -3732.3932 -839.2641 -3731.4167 -840.4887 -3731.2487 L -840.4887 -3726.3902 C -839.128 -3726.198 -838.0875 -3725.0295 -838.0875 -3723.621 C -838.0875 -3722.076 -839.3441 -3720.8194 -840.8889 -3720.8194 C -842.4337 -3720.8194 -843.6903 -3722.076 -843.6903 -3723.621 C -843.6903 -3725.0295 -842.6498 -3726.198 -841.2891 -3726.3902 L -841.2891 -3731.2487 C -842.6498 -3731.4408 -843.6903 -3732.6093 -843.6903 -3734.018 C -843.6903 -3735.563 -842.4337 -3736.8194 -840.8889 -3736.8194 C -839.4802 -3736.8194 -838.3116 -3735.779 -838.1195 -3734.4182 L -834.4857 -3734.4182 C -832.4927 -3734.4182 -830.8839 -3732.8094 -830.8839 -3730.8164 L -830.8839 -3730.3842 C -829.5232 -3730.192 -828.4827 -3729.0235 -828.4827 -3727.615 C -828.4827 -3726.07 -829.7393 -3724.8134 -831.2841 -3724.8134 C -832.8289 -3724.8134 -834.0855 -3726.07 -834.0855 -3727.615 C -834.0855 -3729.0235 -833.045 -3730.192 -831.6843 -3730.3842 L -831.6843 -3730.8164 C -831.6843 -3732.361 -832.9409 -3733.618 -834.4857 -3733.618 L -838.1195 -3733.618 Z M -842.8899 -3734.018 C -842.8899 -3732.9135 -841.9935 -3732.017 -840.8889 -3732.017 C -839.7844 -3732.017 -838.8879 -3732.9135 -838.8879 -3734.018 C -838.8879 -3735.1226 -839.7844 -3736.019 -840.8889 -3736.019 C -841.9935 -3736.019 -842.8899 -3735.1226 -842.8899 -3734.018 Z M -842.8899 -3723.613 C -842.8899 -3722.5083 -841.9935 -3721.612 -840.8889 -3721.612 C -839.7844 -3721.612 -838.8879 -3722.5083 -838.8879 -3723.613 C -838.8879 -3724.7174 -839.7844 -3725.614 -840.8889 -3725.614 C -841.9935 -3725.614 -842.8899 -3724.7174 -842.8899 -3723.613 Z M -831.2841 -3729.616 C -832.3887 -3729.616 -833.2851 -3728.7194 -833.2851 -3727.615 C -833.2851 -3726.5103 -832.3887 -3725.614 -831.2841 -3725.614 C -830.1796 -3725.614 -829.2831 -3726.5103 -829.2831 -3727.615 C -829.2831 -3728.7194 -830.1796 -3729.616 -831.2841 -3729.616 Z" fill="#5c76a1"/>
        </g>
      </g>
    </g>
  </g>
</svg>
