<svg xmlns="http://www.w3.org/2000/svg" viewBox="-848.587 -3741.319 25 25"><g fill="none"><path d="M-827.927-3716.82h-16.32a3.84 3.84 0 0 1-3.84-3.84v-16.32a3.84 3.84 0 0 1 3.84-3.84h16.32a3.84 3.84 0 0 1 3.84 3.84v16.32a3.84 3.84 0 0 1-3.84 3.84z" fill="#fff"/><path d="M-827.927-3716.82h-16.32a3.84 3.84 0 0 1-3.84-3.84v-16.32a3.84 3.84 0 0 1 3.84-3.84h16.32a3.84 3.84 0 0 1 3.84 3.84v16.32a3.84 3.84 0 0 1-3.84 3.84z" stroke="#000" stroke-linecap="round" stroke-linejoin="round" stroke-width=".25"/><path d="M-838.12-3733.618a2.793 2.793 0 0 1-2.369 2.37v4.858a2.796 2.796 0 0 1 2.402 2.769 2.804 2.804 0 0 1-2.802 2.802 2.804 2.804 0 0 1-2.801-2.802 2.796 2.796 0 0 1 2.4-2.77v-4.858a2.796 2.796 0 0 1-2.4-2.769 2.804 2.804 0 0 1 2.801-2.801 2.796 2.796 0 0 1 2.77 2.4h3.633a3.597 3.597 0 0 1 3.602 3.603v.432a2.796 2.796 0 0 1 2.401 2.769 2.804 2.804 0 0 1-2.801 2.802 2.804 2.804 0 0 1-2.802-2.802 2.796 2.796 0 0 1 2.402-2.77v-.431a2.805 2.805 0 0 0-2.802-2.802h-3.634zm-4.77-.4a2.002 2.002 0 1 0 4.004-.001 2.002 2.002 0 0 0-4.004.001zm0 10.405a2.002 2.002 0 1 0 4.003-.001 2.002 2.002 0 0 0-4.003.001zm11.606-6.003a2.002 2.002 0 1 0 .001 4.004 2.002 2.002 0 0 0-.001-4.004z" fill="#5c76a1"/></g></svg>