<svg height="25" viewBox="-883.384 -3741.319 25 25" width="25" xmlns="http://www.w3.org/2000/svg"><g fill="none"><path d="m-862.724-3716.8194h-16.32c-2.1208 0-3.84-1.7193-3.84-3.84v-16.32c0-2.1206 1.7192-3.84 3.84-3.84h16.32c2.1208 0 3.84 1.7194 3.84 3.84v16.32c0 2.1207-1.7192 3.84-3.84 3.84z" fill="#fff"/><path d="m-862.724-3716.8194h-16.32c-2.1208 0-3.84-1.7193-3.84-3.84v-16.32c0-2.1206 1.7192-3.84 3.84-3.84h16.32c2.1208 0 3.84 1.7194 3.84 3.84v16.32c0 2.1207-1.7192 3.84-3.84 3.84z" stroke="#000" stroke-linecap="round" stroke-linejoin="round" stroke-width=".25"/><path d="m-878.884-3733.7083c0-.4887.4-.8887.8889-.8887h.8889c.4889 0 .8889.4.8889.8887v.8889c0 .4888-.4.8888-.8889.8888h-.8889c-.4889 0-.8889-.4-.8889-.8888zm4.8889.8889c-.2489 0-.4445-.1956-.4445-.4446 0-.2488.1956-.4443.4445-.4443h10.6667c.2488 0 .4444.1955.4444.4443 0 .249-.1956.4446-.4444.4446zm-4.8889 3.5554c0-.4888.4-.8888.8889-.8888h.8889c.4889 0 .8889.4.8889.8888v.889c0 .489-.4.889-.8889.889h-.8889c-.4889 0-.8889-.4-.8889-.889zm4.8889.889c-.2489 0-.4445-.1956-.4445-.4444 0-.2489.1956-.4446.4445-.4446h10.6667c.2488 0 .4444.1957.4444.4446 0 .2488-.1956.4444-.4444.4444zm-4.8889 3.5556c0-.4889.4-.8889.8889-.8889h.8889c.4889 0 .8889.4.8889.8889v.8888c0 .4889-.4.8889-.8889.8889h-.8889c-.4889 0-.8889-.4-.8889-.8889zm.8889-8.8889v.8889h.8889v-.8889zm0 4.4443v.889h.8889v-.889zm0 4.4446v.8888h.8889v-.8888zm4 .8888c-.2489 0-.4445-.1954-.4445-.4444s.1956-.4444.4445-.4444h10.6667c.2488 0 .4444.1954.4444.4444s-.1956.4444-.4444.4444z" fill="#5c76a1"/></g></svg>