<svg xmlns="http://www.w3.org/2000/svg" viewBox="-201.787 -3697.64 25 25"><g fill="none"><path d="M-197.447-3697.14h16.32a3.84 3.84 0 0 1 3.84 3.84v16.32a3.84 3.84 0 0 1-3.84 3.84h-16.32a3.84 3.84 0 0 1-3.84-3.84v-16.32a3.84 3.84 0 0 1 3.84-3.84z" fill="#fff"/><path d="M-197.447-3697.14h16.32a3.84 3.84 0 0 1 3.84 3.84v16.32a3.84 3.84 0 0 1-3.84 3.84h-16.32a3.84 3.84 0 0 1-3.84-3.84v-16.32a3.84 3.84 0 0 1 3.84-3.84z" stroke="#000" stroke-linecap="round" stroke-linejoin="round" stroke-width=".25"/><path d="m-184.842-3681.327 3.422 3.423a.44.44 0 0 1 0 .631.44.44 0 0 1-.63 0l-3.423-3.422a7.054 7.054 0 0 1-4.702 1.777 7.11 7.11 0 0 1-7.111-7.11 7.11 7.11 0 0 1 7.11-7.112 7.11 7.11 0 0 1 5.334 11.813zm-5.333 1.52a6.218 6.218 0 0 0 6.222-6.222 6.218 6.218 0 0 0-6.222-6.222 6.218 6.218 0 0 0-6.223 6.222 6.218 6.218 0 0 0 6.223 6.222z" fill="#5c75a0"/></g></svg>