<svg height="25" viewBox="-115.383 -3675.743 25 25" width="25" xmlns="http://www.w3.org/2000/svg"><g fill="none"><path d="M-111.043-3675.243h16.32a3.84 3.84 0 0 1 3.84 3.84v16.32a3.84 3.84 0 0 1-3.84 3.84h-16.32a3.84 3.84 0 0 1-3.84-3.84v-16.32a3.84 3.84 0 0 1 3.84-3.84z" fill="#fff"/><path d="M-111.043-3675.243h16.32a3.84 3.84 0 0 1 3.84 3.84v16.32a3.84 3.84 0 0 1-3.84 3.84h-16.32a3.84 3.84 0 0 1-3.84-3.84v-16.32a3.84 3.84 0 0 1 3.84-3.84z" stroke="#000" stroke-linecap="round" stroke-linejoin="round" stroke-width=".25"/><path d="M-110.439-3668.132a.44.44 0 0 1-.444-.444.44.44 0 0 1 .444-.445h15.112a.44.44 0 0 1 .444.445.44.44 0 0 1-.444.444zm6.223 3.556c-.25 0-.445-.196-.445-.445s.196-.444.445-.444h8.889c.248 0 .444.196.444.444s-.196.445-.444.445zm0 3.555c-.25 0-.445-.195-.445-.444s.196-.444.445-.444h8.889c.248 0 .444.195.444.444s-.196.444-.444.444zm-6.223 3.556a.44.44 0 0 1-.444-.444.44.44 0 0 1 .444-.445h15.112a.44.44 0 0 1 .444.445.44.44 0 0 1-.444.444zm-.444-8.444c0-.365.418-.578.711-.356l3.556 2.667c.24.177.24.533 0 .71l-3.556 2.667a.444.444 0 0 1-.711-.355zm.889.888v3.556l2.373-1.778z" fill="#5c75a0"/></g></svg>