<svg height="25" viewBox="-883.384 -3741.319 25 25" width="25" xmlns="http://www.w3.org/2000/svg"><g fill="none"><path d="M-862.724-3716.82h-16.32a3.84 3.84 0 0 1-3.84-3.84v-16.32a3.84 3.84 0 0 1 3.84-3.84h16.32a3.84 3.84 0 0 1 3.84 3.84v16.32a3.84 3.84 0 0 1-3.84 3.84z" fill="#fff"/><path d="M-862.724-3716.82h-16.32a3.84 3.84 0 0 1-3.84-3.84v-16.32a3.84 3.84 0 0 1 3.84-3.84h16.32a3.84 3.84 0 0 1 3.84 3.84v16.32a3.84 3.84 0 0 1-3.84 3.84z" stroke="#000" stroke-linecap="round" stroke-linejoin="round" stroke-width=".25"/><path d="M-878.884-3733.708c0-.489.4-.889.889-.889h.889c.489 0 .889.4.889.889v.889c0 .488-.4.888-.89.888h-.888a.891.891 0 0 1-.889-.888zm4.889.889a.44.44 0 0 1-.445-.445.44.44 0 0 1 .445-.444h10.667a.44.44 0 0 1 .444.444.44.44 0 0 1-.444.445zm-4.889 3.555c0-.489.4-.889.889-.889h.889c.489 0 .889.4.889.889v.889c0 .489-.4.889-.89.889h-.888a.892.892 0 0 1-.889-.889zm4.889.889a.44.44 0 0 1-.445-.444.44.44 0 0 1 .445-.445h10.667a.44.44 0 0 1 .444.445.44.44 0 0 1-.444.444zm-4.889 3.556c0-.49.4-.89.889-.89h.889c.489 0 .889.4.889.89v.888c0 .49-.4.89-.89.89h-.888a.892.892 0 0 1-.889-.89zm.889-8.89v.89h.889v-.89zm0 4.445v.889h.889v-.889zm0 4.445v.888h.889v-.888zm4 .888c-.249 0-.445-.195-.445-.444s.196-.444.445-.444h10.667c.248 0 .444.195.444.444s-.196.444-.444.444z" fill="#5c76a1"/></g></svg>