<?xml version="1.0" encoding="UTF-8" standalone="no"?>
<!DOCTYPE svg PUBLIC "-//W3C//DTD SVG 1.1//EN" "http://www.w3.org/Graphics/SVG/1.1/DTD/svg11.dtd">
<svg xmlns="http://www.w3.org/2000/svg" xmlns:dc="http://purl.org/dc/elements/1.1/" version="1.1" xmlns:xl="http://www.w3.org/1999/xlink" viewBox="-850.6491 -3263.623 24.75 24.75" width="24.75" height="24.75">
  <defs/>
  <g id="SOURCES" stroke-dasharray="none" stroke-opacity="1" stroke="none" fill="none" fill-opacity="1">
    <title>SOURCES</title>
    <g id="SOURCES_Calque_4">
      <title>Calque 4</title>
      <g id="Group_12345">
        <g id="Graphic_12348">
          <circle cx="-838.2741" cy="-3251.248" r="8.00000702080163" fill="#666"/>
          <circle cx="-838.2741" cy="-3251.248" r="8.00000702080163" stroke="black" stroke-linecap="round" stroke-linejoin="round" stroke-width="0"/>
        </g>
        <g id="Graphic_12347"/>
        <g id="Graphic_12346">
          <circle cx="-838.2741" cy="-3251.248" r="8.00000702080163" fill="white"/>
          <circle cx="-838.2741" cy="-3251.248" r="8.00000702080163" stroke="black" stroke-linecap="round" stroke-linejoin="round" stroke-width="0"/>
        </g>
      </g>
      <g id="Graphic_12344">
        <path d="M -835.0801 -3251.6322 L -837.7297 -3254.282 C -837.8942 -3254.4463 -837.8942 -3254.713 -837.7297 -3254.8773 C -837.5653 -3255.0417 -837.2987 -3255.0417 -837.1343 -3254.8773 L -833.7658 -3251.509 C -833.6014 -3251.3445 -833.6014 -3251.078 -833.7658 -3250.9134 L -837.1343 -3247.545 C -837.2987 -3247.3806 -837.5653 -3247.3806 -837.7297 -3247.545 C -837.8942 -3247.7094 -837.8942 -3247.976 -837.7297 -3248.1405 L -835.0801 -3250.79 L -842.4846 -3250.79 C -842.7172 -3250.79 -842.9057 -3250.9786 -842.9057 -3251.211 C -842.9057 -3251.4437 -842.7172 -3251.6322 -842.4846 -3251.6322 L -835.0801 -3251.6322 Z M -838.2741 -3259.211 C -833.8558 -3259.211 -830.2741 -3255.6294 -830.2741 -3251.211 C -830.2741 -3246.793 -833.8558 -3243.211 -838.2741 -3243.211 C -842.6924 -3243.211 -846.2741 -3246.793 -846.2741 -3251.211 C -846.2741 -3255.6294 -842.6924 -3259.211 -838.2741 -3259.211 Z M -838.2741 -3258.369 C -842.2273 -3258.369 -845.432 -3255.1644 -845.432 -3251.211 C -845.432 -3247.258 -842.2273 -3244.0533 -838.2741 -3244.0533 C -834.3209 -3244.0533 -831.1162 -3247.258 -831.1162 -3251.211 C -831.1162 -3255.1644 -834.3209 -3258.369 -838.2741 -3258.369 Z" fill="#5c76a2"/>
      </g>
    </g>
  </g>
</svg>
