<svg xmlns="http://www.w3.org/2000/svg" viewBox="-115.383 -3675.743 25 25"><g fill="none"><path d="M-111.043-3675.243h16.32a3.84 3.84 0 0 1 3.84 3.84v16.32a3.84 3.84 0 0 1-3.84 3.84h-16.32a3.84 3.84 0 0 1-3.84-3.84v-16.32a3.84 3.84 0 0 1 3.84-3.84z" fill="#fff"/><path d="M-111.043-3675.243h16.32a3.84 3.84 0 0 1 3.84 3.84v16.32a3.84 3.84 0 0 1-3.84 3.84h-16.32a3.84 3.84 0 0 1-3.84-3.84v-16.32a3.84 3.84 0 0 1 3.84-3.84z" stroke="#000" stroke-linecap="round" stroke-linejoin="round" stroke-width=".25"/><path d="M-110.439-3668.132a.44.44 0 0 1-.444-.444.44.44 0 0 1 .444-.445h15.112a.44.44 0 0 1 .444.445.44.44 0 0 1-.444.444zm6.223 3.556a.44.44 0 0 1-.445-.445.44.44 0 0 1 .445-.444h8.889a.44.44 0 0 1 .444.444.44.44 0 0 1-.444.445zm0 3.555a.44.44 0 0 1-.445-.444.44.44 0 0 1 .445-.445h8.889a.44.44 0 0 1 .444.445.44.44 0 0 1-.444.444zm-6.223 3.556a.44.44 0 0 1-.444-.444.44.44 0 0 1 .444-.445h15.112a.44.44 0 0 1 .444.445.44.44 0 0 1-.444.444zm-.444-8.445c0-.364.418-.577.711-.355l3.556 2.667a.44.44 0 0 1 0 .71l-3.556 2.667a.444.444 0 0 1-.711-.355zm.889.89v3.555l2.373-1.778z" fill="#5c75a0"/></g></svg>