<svg height="24.75" viewBox="-884.061 -3263.623 24.75 24.75" width="24.75" xmlns="http://www.w3.org/2000/svg"><g fill="none"><circle cx="-871.686" cy="-3251.248" fill="#666" r="8"/><circle cx="-871.686" cy="-3251.248" r="8"/><circle cx="-871.686" cy="-3251.248" fill="#fff" r="8"/><circle cx="-871.686" cy="-3251.248" r="8"/><path d="m-874.8798-3250.864 2.6497 2.6497c.1644.1643.1644.4311 0 .5953-.1644.1646-.431.1646-.5955 0l-3.3684-3.3682c-.1644-.1645-.1644-.4311 0-.5955l3.3684-3.3683c.1645-.1645.4311-.1645.5955 0 .1644.1643.1644.431 0 .5953l-2.6497 2.6497h7.4046c.2325 0 .421.1885.421.421 0 .2326-.1885.421-.421.421zm3.1941 7.579c-4.4183 0-8-3.5817-8-8 0-4.4182 3.5817-8 8-8 4.4182 0 8 3.5818 8 8 0 4.4183-3.5818 8-8 8zm0-.842c3.9532 0 7.1579-3.2048 7.1579-7.158 0-3.953-3.2047-7.158-7.1579-7.158s-7.1579 3.205-7.1579 7.158c0 3.9532 3.2047 7.158 7.1579 7.158z" fill="#5d76a1"/></g></svg>