<svg height="25" viewBox="-79.383 -3675.743 25 25" width="25" xmlns="http://www.w3.org/2000/svg"><g fill="none"><path d="M-75.043-3675.243h16.32a3.84 3.84 0 0 1 3.84 3.84v16.32a3.84 3.84 0 0 1-3.84 3.84h-16.32a3.84 3.84 0 0 1-3.84-3.84v-16.32a3.84 3.84 0 0 1 3.84-3.84z" fill="#fff"/><path d="M-75.043-3675.243h16.32a3.84 3.84 0 0 1 3.84 3.84v16.32a3.84 3.84 0 0 1-3.84 3.84h-16.32a3.84 3.84 0 0 1-3.84-3.84v-16.32a3.84 3.84 0 0 1 3.84-3.84z" stroke="#000" stroke-linecap="round" stroke-linejoin="round" stroke-width=".25"/><path d="M-65.126-3667.198s-.028.036-.042.05a1.062 1.062 0 0 0 0 1.5 1.05 1.05 0 0 0 1.388.084l.498-.498a1.754 1.754 0 0 1-1.493-1.493l-.358.357zm-1.037 1.038l-6.714 6.721a1.062 1.062 0 0 0 0 1.5c.413.414 1.08.414 1.493 0l6.707-6.721a1.739 1.739 0 0 1-.981-.498 1.75 1.75 0 0 1-.498-1.009zm3.035.939s-.028.042-.05.063c-.041.042-.083.084-.125.119l-7.584 7.59a1.751 1.751 0 0 1-2.48 0 1.76 1.76 0 0 1 0-2.487l9.082-9.098s.029-.028.043-.035a1.764 1.764 0 0 1 1.205-.483 1.753 1.753 0 0 1 1.276 2.95c-.014.014-.021.028-.035.05l-1.34 1.338zm-.96 4.78h.35c.196 0 .35.154.35.35 0 .197-.154.351-.35.351h-.35v.392c0 .197-.154.35-.35.35a.347.347 0 0 1-.351-.35v-.392h-.35a.347.347 0 0 1-.351-.35c0-.197.154-.351.35-.351h.35v-.35c0-.197.155-.351.351-.351.197 0 .35.154.35.35zm-4.906-8.41v-.351c0-.196.154-.35.35-.35.196 0 .35.154.35.35v.35h.35c.197 0 .351.155.351.351 0 .196-.154.35-.35.35h-.35v.35c0 .197-.155.351-.351.351a.347.347 0 0 1-.35-.35v-.35h-.35a.347.347 0 0 1-.351-.351c0-.196.154-.35.35-.35zm8.41 5.606h.35c.197 0 .351.155.351.351 0 .196-.154.35-.35.35h-.35v.35c0 .197-.155.351-.351.351a.347.347 0 0 1-.35-.35v-.35h-.351a.347.347 0 0 1-.35-.351c0-.196.154-.35.35-.35h.35v-.351c0-.196.154-.35.35-.35.197 0 .351.154.351.35zm-2.453-3.504a1.05 1.05 0 0 0 1.051-1.051 1.05 1.05 0 1 0-1.051 1.051z" fill="#5c75a0"/></g></svg>