<svg height="25" viewBox="-79.383 -3675.743 25 25" width="25" xmlns="http://www.w3.org/2000/svg"><g fill="none"><path d="m-75.04302-3675.243h16.32c2.120776 0 3.84 1.7194 3.84 3.84v16.32c0 2.121-1.719224 3.84-3.84 3.84h-16.32c-2.12077 0-3.84-1.719-3.84-3.84v-16.32c0-2.1206 1.71923-3.84 3.84-3.84z" fill="#fff"/><path d="m-75.04302-3675.243h16.32c2.120776 0 3.84 1.7194 3.84 3.84v16.32c0 2.121-1.719224 3.84-3.84 3.84h-16.32c-2.12077 0-3.84-1.719-3.84-3.84v-16.32c0-2.1206 1.71923-3.84 3.84-3.84z" stroke="#000" stroke-linecap="round" stroke-linejoin="round" stroke-width=".25"/><path d="m-65.12557-3667.1975s-.028036.0351-.04205.0491c-.41352.4134-.41352 1.0864 0 1.4998.37847.3786.974214.4066 1.38773.0842l.49762-.4976c-.77096-.105-1.38773-.722-1.49286-1.493l-.35745.3575zm-1.0373 1.0375-6.71439 6.721c-.41352.4137-.41352 1.0866 0 1.5.41352.4136 1.07935.4136 1.492866 0l6.707384-6.7213c-.35745-.0561-.707885-.2173-.98123-.4977-.28035-.2803-.44856-.6377-.49762-1.009zm3.034796.939s-.028036.042-.049061.063c-.042055.042-.084105.084-.126155.119l-7.58348 7.5907c-.68686.6869-1.794245.6869-2.4811 0-.68686-.6867-.68686-1.8013 0-2.4881l9.08335-9.0976s.028035-.028.04205-.035c.3154-.294.73592-.4834 1.20551-.4834.96721 0 1.75219.7849 1.75219 1.7522 0 .4625-.18223.8832-.476596 1.1985-.014014.014-.021024.028-.035044.049l-1.33867 1.3387zm-.9602 4.78h.350438c.196246 0 .350436.154.350436.3504 0 .1962-.15419.3506-.350436.3506h-.350438v.3923c0 .1963-.154196.3505-.350436.3505-.19625 0-.35044-.1542-.35044-.3505v-.3923h-.35044c-.19624 0-.35044-.1544-.35044-.3506 0-.1964.1542-.3504.35044-.3504h.35044v-.3505c0-.1962.15419-.3505.35044-.3505.19624 0 .350436.1543.350436.3505zm-4.906136-8.4106v-.3504c0-.1962.154196-.3504.35044-.3504.19625 0 .35044.1542.35044.3504v.3504h.35044c.19624 0 .350435.1542.350435.3506 0 .196-.154195.3503-.350435.3503h-.35044v.3505c0 .1962-.15419.3502-.35044.3502-.196244 0-.35044-.154-.35044-.3502v-.3505h-.350435c-.196245 0-.350435-.1543-.350435-.3503 0-.1964.15419-.3506.350435-.3506zm8.410516 5.6071h.350438c.196246 0 .350436.1541.350436.3505 0 .196-.15419.3503-.350436.3503h-.350438v.3505c0 .1962-.154196.3502-.350436.3502-.19625 0-.35044-.154-.35044-.3502v-.3505h-.35044c-.19624 0-.350436-.1543-.350436-.3503 0-.1964.154196-.3505.350436-.3505h.35044v-.3505c0-.1962.15419-.3504.35044-.3504.19624 0 .350436.1542.350436.3504zm-2.453066-3.5045c.58173 0 1.051314-.4695 1.051314-1.0512 0-.5818-.469584-1.0514-1.051314-1.0514s-1.051314.4696-1.051314 1.0514c0 .5817.469584 1.0512 1.051314 1.0512z" fill="#5c75a0"/></g></svg>