<?xml version="1.0" encoding="UTF-8" standalone="no"?>
<!DOCTYPE svg PUBLIC "-//W3C//DTD SVG 1.1//EN" "http://www.w3.org/Graphics/SVG/1.1/DTD/svg11.dtd">
<svg xmlns:dc="http://purl.org/dc/elements/1.1/" xmlns:xl="http://www.w3.org/1999/xlink" version="1.1" xmlns="http://www.w3.org/2000/svg" viewBox="-79.38302 -3675.743 25 25" width="25" height="25">
  <defs/>
  <g id="SOURCES" stroke-dasharray="none" stroke="none" stroke-opacity="1" fill="none" fill-opacity="1">
    <title>SOURCES</title>
    <g id="SOURCES_Calque_2">
      <title>Calque 2</title>
      <g id="Graphic_9959">
        <path d="M -75.04302 -3675.243 L -58.72302 -3675.243 C -56.602244 -3675.243 -54.88302 -3673.5236 -54.88302 -3671.403 L -54.88302 -3655.083 C -54.88302 -3652.962 -56.602244 -3651.243 -58.72302 -3651.243 L -75.04302 -3651.243 C -77.16379 -3651.243 -78.88302 -3652.962 -78.88302 -3655.083 L -78.88302 -3671.403 C -78.88302 -3673.5236 -77.16379 -3675.243 -75.04302 -3675.243 Z" fill="white"/>
        <path d="M -75.04302 -3675.243 L -58.72302 -3675.243 C -56.602244 -3675.243 -54.88302 -3673.5236 -54.88302 -3671.403 L -54.88302 -3655.083 C -54.88302 -3652.962 -56.602244 -3651.243 -58.72302 -3651.243 L -75.04302 -3651.243 C -77.16379 -3651.243 -78.88302 -3652.962 -78.88302 -3655.083 L -78.88302 -3671.403 C -78.88302 -3673.5236 -77.16379 -3675.243 -75.04302 -3675.243 Z" stroke="black" stroke-linecap="round" stroke-linejoin="round" stroke-width=".25"/>
      </g>
      <g id="Group_9957">
        <title>magic-wand</title>
        <g id="Graphic_9958">
          <path d="M -65.12557 -3667.1975 C -65.12557 -3667.1975 -65.153606 -3667.1624 -65.16762 -3667.1484 C -65.58114 -3666.735 -65.58114 -3666.062 -65.16762 -3665.6486 C -64.78915 -3665.27 -64.193406 -3665.242 -63.77989 -3665.5644 L -63.28227 -3666.062 C -64.05323 -3666.167 -64.67 -3666.784 -64.77513 -3667.555 L -65.13258 -3667.1975 Z M -66.16287 -3666.16 L -72.87726 -3659.439 C -73.29078 -3659.0253 -73.29078 -3658.3524 -72.87726 -3657.939 C -72.46374 -3657.5254 -71.79791 -3657.5254 -71.384394 -3657.939 L -64.67701 -3664.6603 C -65.03446 -3664.7164 -65.384895 -3664.8776 -65.65824 -3665.158 C -65.93859 -3665.4383 -66.1068 -3665.7957 -66.15586 -3666.167 Z M -63.128074 -3665.221 C -63.128074 -3665.221 -63.15611 -3665.179 -63.177135 -3665.158 C -63.21919 -3665.116 -63.26124 -3665.074 -63.30329 -3665.039 L -70.88677 -3657.4483 C -71.57363 -3656.7614 -72.681015 -3656.7614 -73.36787 -3657.4483 C -74.05473 -3658.135 -74.05473 -3659.2496 -73.36787 -3659.9364 L -64.28452 -3669.034 C -64.28452 -3669.034 -64.256485 -3669.062 -64.24247 -3669.069 C -63.92707 -3669.363 -63.50655 -3669.5524 -63.03696 -3669.5524 C -62.06975 -3669.5524 -61.28477 -3668.7675 -61.28477 -3667.8002 C -61.28477 -3667.3377 -61.467 -3666.917 -61.761366 -3666.6017 C -61.77538 -3666.5877 -61.78239 -3666.5737 -61.79641 -3666.5527 L -63.13508 -3665.214 Z M -64.088274 -3660.441 L -63.737836 -3660.441 C -63.54159 -3660.441 -63.3874 -3660.287 -63.3874 -3660.0906 C -63.3874 -3659.8944 -63.54159 -3659.74 -63.737836 -3659.74 L -64.088274 -3659.74 L -64.088274 -3659.3477 C -64.088274 -3659.1514 -64.24247 -3658.9972 -64.43871 -3658.9972 C -64.63496 -3658.9972 -64.78915 -3659.1514 -64.78915 -3659.3477 L -64.78915 -3659.74 L -65.13959 -3659.74 C -65.33583 -3659.74 -65.49003 -3659.8944 -65.49003 -3660.0906 C -65.49003 -3660.287 -65.33583 -3660.441 -65.13959 -3660.441 L -64.78915 -3660.441 L -64.78915 -3660.7915 C -64.78915 -3660.9877 -64.63496 -3661.142 -64.43871 -3661.142 C -64.24247 -3661.142 -64.088274 -3660.9877 -64.088274 -3660.7915 Z M -68.99441 -3668.8516 L -68.99441 -3669.202 C -68.99441 -3669.3982 -68.840214 -3669.5524 -68.64397 -3669.5524 C -68.44772 -3669.5524 -68.29353 -3669.3982 -68.29353 -3669.202 L -68.29353 -3668.8516 L -67.94309 -3668.8516 C -67.74685 -3668.8516 -67.592655 -3668.6974 -67.592655 -3668.501 C -67.592655 -3668.305 -67.74685 -3668.1507 -67.94309 -3668.1507 L -68.29353 -3668.1507 L -68.29353 -3667.8002 C -68.29353 -3667.604 -68.44772 -3667.45 -68.64397 -3667.45 C -68.840214 -3667.45 -68.99441 -3667.604 -68.99441 -3667.8002 L -68.99441 -3668.1507 L -69.344845 -3668.1507 C -69.54109 -3668.1507 -69.69528 -3668.305 -69.69528 -3668.501 C -69.69528 -3668.6974 -69.54109 -3668.8516 -69.344845 -3668.8516 Z M -60.583894 -3663.2445 L -60.233456 -3663.2445 C -60.03721 -3663.2445 -59.88302 -3663.0904 -59.88302 -3662.894 C -59.88302 -3662.698 -60.03721 -3662.5437 -60.233456 -3662.5437 L -60.583894 -3662.5437 L -60.583894 -3662.1932 C -60.583894 -3661.997 -60.73809 -3661.843 -60.93433 -3661.843 C -61.13058 -3661.843 -61.28477 -3661.997 -61.28477 -3662.1932 L -61.28477 -3662.5437 L -61.63521 -3662.5437 C -61.83145 -3662.5437 -61.985646 -3662.698 -61.985646 -3662.894 C -61.985646 -3663.0904 -61.83145 -3663.2445 -61.63521 -3663.2445 L -61.28477 -3663.2445 L -61.28477 -3663.595 C -61.28477 -3663.7912 -61.13058 -3663.9454 -60.93433 -3663.9454 C -60.73809 -3663.9454 -60.583894 -3663.7912 -60.583894 -3663.595 Z M -63.03696 -3666.749 C -62.45523 -3666.749 -61.985646 -3667.2185 -61.985646 -3667.8002 C -61.985646 -3668.382 -62.45523 -3668.8516 -63.03696 -3668.8516 C -63.61869 -3668.8516 -64.088274 -3668.382 -64.088274 -3667.8002 C -64.088274 -3667.2185 -63.61869 -3666.749 -63.03696 -3666.749 Z" fill="#5c75a0"/>
        </g>
      </g>
    </g>
  </g>
</svg>
