<svg height="25" viewBox="-187.383 -3675.743 25 25" width="25" xmlns="http://www.w3.org/2000/svg"><g fill="none"><path d="M-183.043-3675.243h16.32a3.84 3.84 0 0 1 3.84 3.84v16.32a3.84 3.84 0 0 1-3.84 3.84h-16.32a3.84 3.84 0 0 1-3.84-3.84v-16.32a3.84 3.84 0 0 1 3.84-3.84z" fill="#fff"/><path d="M-183.043-3675.243h16.32a3.84 3.84 0 0 1 3.84 3.84v16.32a3.84 3.84 0 0 1-3.84 3.84h-16.32a3.84 3.84 0 0 1-3.84-3.84v-16.32a3.84 3.84 0 0 1 3.84-3.84z" stroke="#000" stroke-linecap="round" stroke-linejoin="round" stroke-width=".25"/><path d="M-168.483-3667.619v10.376a2 2 0 0 1-2 2h-8.8a2 2 0 0 1-2-2v-12a2 2 0 0 1 2-2h7.176c.104 0 .216.032.304.12l3.2 3.2c.088.088.12.2.12.304zm-4-2.824h-6.8c-.664 0-1.2.536-1.2 1.2v12c0 .664.536 1.2 1.2 1.2h8.8c.664 0 1.2-.536 1.2-1.2v-10h-2.8a.396.396 0 0 1-.4-.4zm.8.568v1.832h1.832zm-.784 9.28l1.472 1.472c.16.16.16.408 0 .568s-.408.16-.568 0l-1.472-1.472a3.57 3.57 0 0 1-2.248.784c-1.992 0-3.6-1.608-3.6-3.6s1.608-3.6 3.6-3.6 3.6 1.608 3.6 3.6c0 .848-.296 1.632-.784 2.248zm-2.816.552c1.544 0 2.8-1.256 2.8-2.8s-1.256-2.8-2.8-2.8-2.8 1.256-2.8 2.8 1.256 2.8 2.8 2.8z" fill="#5c75a0"/></g></svg>