<?xml version="1.0" encoding="UTF-8" standalone="no"?>
<!DOCTYPE svg PUBLIC "-//W3C//DTD SVG 1.1//EN" "http://www.w3.org/Graphics/SVG/1.1/DTD/svg11.dtd">
<svg xmlns:dc="http://purl.org/dc/elements/1.1/" xmlns:xl="http://www.w3.org/1999/xlink" version="1.1" xmlns="http://www.w3.org/2000/svg" viewBox="-187.38302 -3675.743 25 25" width="25" height="25">
  <defs/>
  <g id="SOURCES" stroke-dasharray="none" stroke="none" stroke-opacity="1" fill="none" fill-opacity="1">
    <title>SOURCES</title>
    <g id="SOURCES_Calque_2">
      <title>Calque 2</title>
      <g id="Graphic_9940">
        <path d="M -183.04302 -3675.243 L -166.72302 -3675.243 C -164.60224 -3675.243 -162.88302 -3673.5236 -162.88302 -3671.403 L -162.88302 -3655.083 C -162.88302 -3652.962 -164.60224 -3651.243 -166.72302 -3651.243 L -183.04302 -3651.243 C -185.1638 -3651.243 -186.88302 -3652.962 -186.88302 -3655.083 L -186.88302 -3671.403 C -186.88302 -3673.5236 -185.1638 -3675.243 -183.04302 -3675.243 Z" fill="white"/>
        <path d="M -183.04302 -3675.243 L -166.72302 -3675.243 C -164.60224 -3675.243 -162.88302 -3673.5236 -162.88302 -3671.403 L -162.88302 -3655.083 C -162.88302 -3652.962 -164.60224 -3651.243 -166.72302 -3651.243 L -183.04302 -3651.243 C -185.1638 -3651.243 -186.88302 -3652.962 -186.88302 -3655.083 L -186.88302 -3671.403 C -186.88302 -3673.5236 -185.1638 -3675.243 -183.04302 -3675.243 Z" stroke="black" stroke-linecap="round" stroke-linejoin="round" stroke-width=".25"/>
      </g>
      <g id="Group_9942">
        <title>file-search</title>
        <g id="Graphic_9943">
          <path d="M -168.48302 -3667.619 L -168.48302 -3657.243 C -168.48302 -3656.139 -169.37902 -3655.243 -170.48302 -3655.243 L -179.28302 -3655.243 C -180.38702 -3655.243 -181.28302 -3656.139 -181.28302 -3657.243 L -181.28302 -3669.243 C -181.28302 -3670.347 -180.38702 -3671.243 -179.28302 -3671.243 L -172.10702 -3671.243 C -172.00302 -3671.243 -171.89102 -3671.211 -171.80302 -3671.123 L -168.60302 -3667.923 C -168.51502 -3667.835 -168.48302 -3667.723 -168.48302 -3667.619 Z M -172.48302 -3670.443 L -179.28302 -3670.443 C -179.94702 -3670.443 -180.48302 -3669.907 -180.48302 -3669.243 L -180.48302 -3657.243 C -180.48302 -3656.579 -179.94702 -3656.043 -179.28302 -3656.043 L -170.48302 -3656.043 C -169.81902 -3656.043 -169.28302 -3656.579 -169.28302 -3657.243 L -169.28302 -3667.243 L -172.08302 -3667.243 C -172.30702 -3667.243 -172.48302 -3667.419 -172.48302 -3667.643 Z M -171.68302 -3669.875 L -171.68302 -3668.043 L -169.85102 -3668.043 Z M -172.46702 -3660.595 L -170.99502 -3659.123 C -170.83502 -3658.963 -170.83502 -3658.715 -170.99502 -3658.555 C -171.15502 -3658.395 -171.40302 -3658.395 -171.56302 -3658.555 L -173.03502 -3660.027 C -173.65102 -3659.531 -174.43502 -3659.243 -175.28302 -3659.243 C -177.27502 -3659.243 -178.88302 -3660.851 -178.88302 -3662.843 C -178.88302 -3664.835 -177.27502 -3666.443 -175.28302 -3666.443 C -173.29102 -3666.443 -171.68302 -3664.835 -171.68302 -3662.843 C -171.68302 -3661.995 -171.97902 -3661.211 -172.46702 -3660.595 Z M -175.28302 -3660.043 C -173.73902 -3660.043 -172.48302 -3661.299 -172.48302 -3662.843 C -172.48302 -3664.387 -173.73902 -3665.643 -175.28302 -3665.643 C -176.82702 -3665.643 -178.08302 -3664.387 -178.08302 -3662.843 C -178.08302 -3661.299 -176.82702 -3660.043 -175.28302 -3660.043 Z" fill="#5c75a0"/>
        </g>
      </g>
    </g>
  </g>
</svg>
