<?xml version="1.0" encoding="UTF-8" standalone="no"?>
<!DOCTYPE svg PUBLIC "-//W3C//DTD SVG 1.1//EN" "http://www.w3.org/Graphics/SVG/1.1/DTD/svg11.dtd">
<svg version="1.1" xmlns="http://www.w3.org/2000/svg" xmlns:xl="http://www.w3.org/1999/xlink" xmlns:dc="http://purl.org/dc/elements/1.1/" viewBox="-763.698 -3742.6376 25 24.58723" width="25" height="24.58723">
  <defs/>
  <g id="SOURCES" stroke-dasharray="none" fill="none" stroke="none" fill-opacity="1" stroke-opacity="1">
    <title>SOURCES</title>
    <g id="SOURCES_Calque_2">
      <title>Calque 2</title>
      <g id="Group_9047">
        <g id="Graphic_9049">
          <path d="M -746.3943 -3742.1376 L -759.3467 -3742.1376 C -761.4737 -3742.1376 -763.198 -3740.4133 -763.198 -3738.2862 L -763.198 -3725.647 C -763.198 -3723.52 -761.4737 -3721.7956 -759.3467 -3721.7956 L -746.3943 -3721.7956 C -744.2673 -3721.7956 -742.543 -3723.52 -742.543 -3725.647 L -742.543 -3738.2862 C -742.543 -3740.4133 -744.2673 -3742.1376 -746.3943 -3742.1376 Z" fill="white"/>
          <path d="M -746.3943 -3742.1376 L -759.3467 -3742.1376 C -761.4737 -3742.1376 -763.198 -3740.4133 -763.198 -3738.2862 L -763.198 -3725.647 C -763.198 -3723.52 -761.4737 -3721.7956 -759.3467 -3721.7956 L -746.3943 -3721.7956 C -744.2673 -3721.7956 -742.543 -3723.52 -742.543 -3725.647 L -742.543 -3738.2862 C -742.543 -3740.4133 -744.2673 -3742.1376 -746.3943 -3742.1376 Z" stroke="black" stroke-linecap="round" stroke-linejoin="round" stroke-width=".25"/>
        </g>
        <g id="Graphic_9048">
          <path d="M -743.0494 -3738.8923 L -756.00175 -3738.8923 C -758.1288 -3738.8923 -759.8531 -3737.168 -759.8531 -3735.041 L -759.8531 -3722.4017 C -759.8531 -3720.2746 -758.1288 -3718.5503 -756.00175 -3718.5503 L -743.0494 -3718.5503 C -740.9223 -3718.5503 -739.198 -3720.2746 -739.198 -3722.4017 L -739.198 -3735.041 C -739.198 -3737.168 -740.9223 -3738.8923 -743.0494 -3738.8923 Z" fill="white"/>
          <path d="M -743.0494 -3738.8923 L -756.00175 -3738.8923 C -758.1288 -3738.8923 -759.8531 -3737.168 -759.8531 -3735.041 L -759.8531 -3722.4017 C -759.8531 -3720.2746 -758.1288 -3718.5503 -756.00175 -3718.5503 L -743.0494 -3718.5503 C -740.9223 -3718.5503 -739.198 -3720.2746 -739.198 -3722.4017 L -739.198 -3735.041 C -739.198 -3737.168 -740.9223 -3738.8923 -743.0494 -3738.8923 Z" stroke="black" stroke-linecap="round" stroke-linejoin="round" stroke-width=".25"/>
        </g>
      </g>
      <g id="Group_9069">
        <title>attach-document</title>
        <g id="Graphic_9070">
          <path d="M -749.2865 -3730.6615 C -749.4928 -3730.6615 -749.6549 -3730.8237 -749.6549 -3731.03 C -749.6549 -3731.2363 -749.4928 -3731.3984 -749.2865 -3731.3984 L -745.6023 -3731.3984 C -745.39595 -3731.3984 -745.2338 -3731.2363 -745.2338 -3731.03 C -745.2338 -3730.8237 -745.39595 -3730.6615 -745.6023 -3730.6615 Z M -750.7602 -3728.451 C -750.9665 -3728.451 -751.1286 -3728.613 -751.1286 -3728.8194 C -751.1286 -3729.0258 -750.9665 -3729.188 -750.7602 -3729.188 L -745.6023 -3729.188 C -745.39595 -3729.188 -745.2338 -3729.0258 -745.2338 -3728.8194 C -745.2338 -3728.613 -745.39595 -3728.451 -745.6023 -3728.451 Z M -750.7602 -3726.2405 C -750.9665 -3726.2405 -751.1286 -3726.4026 -751.1286 -3726.609 C -751.1286 -3726.8152 -750.9665 -3726.9773 -750.7602 -3726.9773 L -747.07595 -3726.9773 C -746.8696 -3726.9773 -746.7075 -3726.8152 -746.7075 -3726.609 C -746.7075 -3726.4026 -746.8696 -3726.2405 -747.07595 -3726.2405 Z M -749.2865 -3734.3458 C -749.4928 -3734.3458 -749.6549 -3734.508 -749.6549 -3734.714 C -749.6549 -3734.9205 -749.4928 -3735.0826 -749.2865 -3735.0826 L -744.1286 -3735.0826 C -743.1117 -3735.0826 -742.2865 -3734.2573 -742.2865 -3733.2405 L -742.2865 -3723.6615 C -742.2865 -3722.6447 -743.1117 -3721.8194 -744.1286 -3721.8194 L -752.2338 -3721.8194 C -753.2507 -3721.8194 -754.07595 -3722.6447 -754.07595 -3723.6615 L -754.07595 -3727.3458 C -754.07595 -3727.552 -753.9138 -3727.714 -753.7075 -3727.714 C -753.5012 -3727.714 -753.3391 -3727.552 -753.3391 -3727.3458 L -753.3391 -3723.6615 C -753.3391 -3723.05 -752.8454 -3722.5563 -752.2338 -3722.5563 L -744.1286 -3722.5563 C -743.517 -3722.5563 -743.0233 -3723.05 -743.0233 -3723.6615 L -743.0233 -3733.2405 C -743.0233 -3733.852 -743.517 -3734.3458 -744.1286 -3734.3458 Z M -753.3391 -3731.767 C -753.3391 -3731.5605 -753.5012 -3731.3984 -753.7075 -3731.3984 C -753.9138 -3731.3984 -754.07595 -3731.5605 -754.07595 -3731.767 L -754.07595 -3734.3458 C -754.07595 -3735.1563 -753.4128 -3735.8194 -752.6023 -3735.8194 C -751.7917 -3735.8194 -751.1286 -3735.1563 -751.1286 -3734.3458 L -751.1286 -3731.767 C -751.1286 -3730.3447 -752.2854 -3729.188 -753.7075 -3729.188 C -755.1296 -3729.188 -756.2865 -3730.3447 -756.2865 -3731.767 L -756.2865 -3735.451 C -756.2865 -3735.6573 -756.1244 -3735.8194 -755.91805 -3735.8194 C -755.7117 -3735.8194 -755.5496 -3735.6573 -755.5496 -3735.451 L -755.5496 -3731.767 C -755.5496 -3730.75 -754.7244 -3729.9247 -753.7075 -3729.9247 C -752.6907 -3729.9247 -751.8654 -3730.75 -751.8654 -3731.767 L -751.8654 -3734.3458 C -751.8654 -3734.751 -752.197 -3735.0826 -752.6023 -3735.0826 C -753.0075 -3735.0826 -753.3391 -3734.751 -753.3391 -3734.3458 Z" fill="#5c76a1"/>
        </g>
      </g>
    </g>
  </g>
</svg>
