<svg height="24.587" viewBox="-763.698 -3742.638 25 24.587" width="25" xmlns="http://www.w3.org/2000/svg"><g fill="none"><path d="M-746.394-3742.138h-12.953a3.851 3.851 0 0 0-3.851 3.852v12.639a3.851 3.851 0 0 0 3.851 3.851h12.953a3.851 3.851 0 0 0 3.851-3.851v-12.64a3.851 3.851 0 0 0-3.851-3.85z" fill="#fff"/><path d="M-746.394-3742.138h-12.953a3.851 3.851 0 0 0-3.851 3.852v12.639a3.851 3.851 0 0 0 3.851 3.851h12.953a3.851 3.851 0 0 0 3.851-3.851v-12.64a3.851 3.851 0 0 0-3.851-3.85z" stroke="#000" stroke-linecap="round" stroke-linejoin="round" stroke-width=".25"/><path d="M-743.05-3738.892h-12.952a3.851 3.851 0 0 0-3.851 3.851v12.64a3.851 3.851 0 0 0 3.851 3.85h12.953a3.851 3.851 0 0 0 3.851-3.85v-12.64a3.851 3.851 0 0 0-3.851-3.851z" fill="#fff"/><path d="M-743.05-3738.892h-12.952a3.851 3.851 0 0 0-3.851 3.851v12.64a3.851 3.851 0 0 0 3.851 3.85h12.953a3.851 3.851 0 0 0 3.851-3.85v-12.64a3.851 3.851 0 0 0-3.851-3.851z" stroke="#000" stroke-linecap="round" stroke-linejoin="round" stroke-width=".25"/><path d="M-749.287-3730.662c-.206 0-.368-.162-.368-.368s.162-.368.368-.368h3.685c.206 0 .368.162.368.368s-.162.368-.368.368zm-1.473 2.211c-.207 0-.369-.162-.369-.368s.163-.369.369-.369h5.158c.206 0 .368.162.368.369s-.162.368-.368.368zm0 2.21a.365.365 0 0 1-.369-.368c0-.206.163-.368.369-.368h3.684c.206 0 .368.162.368.368a.365.365 0 0 1-.368.368zm1.473-8.105a.365.365 0 0 1-.368-.368c0-.206.162-.369.368-.369h5.158c1.017 0 1.843.826 1.843 1.843v9.578a1.843 1.843 0 0 1-1.843 1.843h-8.105a1.843 1.843 0 0 1-1.842-1.842v-3.685c0-.206.162-.368.369-.368s.368.162.368.368v3.685c0 .611.494 1.105 1.105 1.105h8.105c.612 0 1.106-.494 1.106-1.105v-9.58c0-.611-.494-1.105-1.106-1.105zm-4.052 2.579c0 .206-.162.369-.368.369s-.369-.163-.369-.369v-2.579c0-.81.663-1.473 1.474-1.473.81 0 1.473.663 1.473 1.473v2.579c0 1.422-1.156 2.579-2.578 2.579s-2.58-1.157-2.58-2.579v-3.684c0-.206.163-.368.369-.368s.368.162.368.368v3.684a1.843 1.843 0 0 0 3.685 0v-2.579a.739.739 0 0 0-.737-.737.739.739 0 0 0-.737.737z" fill="#5c76a1"/></g></svg>