<svg height="24.587" viewBox="-763.698 -3742.638 25 24.587" width="25" xmlns="http://www.w3.org/2000/svg"><g fill="none"><path d="m-746.3943-3742.1376h-12.9524c-2.127 0-3.8513 1.7243-3.8513 3.8514v12.6392c0 2.127 1.7243 3.8514 3.8513 3.8514h12.9524c2.127 0 3.8513-1.7244 3.8513-3.8514v-12.6392c0-2.1271-1.7243-3.8514-3.8513-3.8514z" fill="#fff"/><path d="m-746.3943-3742.1376h-12.9524c-2.127 0-3.8513 1.7243-3.8513 3.8514v12.6392c0 2.127 1.7243 3.8514 3.8513 3.8514h12.9524c2.127 0 3.8513-1.7244 3.8513-3.8514v-12.6392c0-2.1271-1.7243-3.8514-3.8513-3.8514z" stroke="#000" stroke-linecap="round" stroke-linejoin="round" stroke-width=".25"/><path d="m-743.0494-3738.8923h-12.95235c-2.12705 0-3.85135 1.7243-3.85135 3.8513v12.6393c0 2.1271 1.7243 3.8514 3.85135 3.8514h12.95235c2.1271 0 3.8514-1.7243 3.8514-3.8514v-12.6393c0-2.127-1.7243-3.8513-3.8514-3.8513z" fill="#fff"/><path d="m-743.0494-3738.8923h-12.95235c-2.12705 0-3.85135 1.7243-3.85135 3.8513v12.6393c0 2.1271 1.7243 3.8514 3.85135 3.8514h12.95235c2.1271 0 3.8514-1.7243 3.8514-3.8514v-12.6393c0-2.127-1.7243-3.8513-3.8514-3.8513z" stroke="#000" stroke-linecap="round" stroke-linejoin="round" stroke-width=".25"/><path d="m-749.2865-3730.6615c-.2063 0-.3684-.1622-.3684-.3685s.1621-.3684.3684-.3684h3.6842c.20635 0 .3685.1621.3685.3684s-.16215.3685-.3685.3685zm-1.4737 2.2105c-.2063 0-.3684-.162-.3684-.3684s.1621-.3686.3684-.3686h5.1579c.20635 0 .3685.1622.3685.3686s-.16215.3684-.3685.3684zm0 2.2105c-.2063 0-.3684-.1621-.3684-.3685 0-.2062.1621-.3683.3684-.3683h3.68425c.20635 0 .36845.1621.36845.3683 0 .2064-.1621.3685-.36845.3685zm1.4737-8.1053c-.2063 0-.3684-.1622-.3684-.3682 0-.2065.1621-.3686.3684-.3686h5.1579c1.0169 0 1.8421.8253 1.8421 1.8421v9.579c0 1.0168-.8252 1.8421-1.8421 1.8421h-8.1052c-1.0169 0-1.84215-.8253-1.84215-1.8421v-3.6843c0-.2062.16215-.3682.36845-.3682s.3684.162.3684.3682v3.6843c0 .6115.4937 1.1052 1.1053 1.1052h8.1052c.6116 0 1.1053-.4937 1.1053-1.1052v-9.579c0-.6115-.4937-1.1053-1.1053-1.1053zm-4.0526 2.5788c0 .2065-.1621.3686-.3684.3686s-.36845-.1621-.36845-.3686v-2.5788c0-.8105.66315-1.4736 1.47365-1.4736.8106 0 1.4737.6631 1.4737 1.4736v2.5788c0 1.4223-1.1568 2.579-2.5789 2.579s-2.579-1.1567-2.579-2.579v-3.684c0-.2063.1621-.3684.36845-.3684s.36845.1621.36845.3684v3.684c0 1.017.8252 1.8423 1.8421 1.8423 1.0168 0 1.8421-.8253 1.8421-1.8423v-2.5788c0-.4052-.3316-.7368-.7369-.7368-.4052 0-.7368.3316-.7368.7368z" fill="#5c76a1"/></g></svg>