<svg height="24.75" viewBox="-670.649 -3263.623 24.75 24.75" width="24.75" xmlns="http://www.w3.org/2000/svg"><g fill="none"><circle cx="-658.274" cy="-3251.248" fill="#666" r="8"/><circle cx="-658.274" cy="-3251.248" r="8"/><circle cx="-658.274" cy="-3251.248" fill="#fff" r="8"/><circle cx="-658.274" cy="-3251.248" r="8"/><path d="m-658.2741-3243.1743c-4.4183 0-8-3.5817-8-8 0-4.4182 3.5817-8 8-8s8 3.5818 8 8c0 4.4183-3.5817 8-8 8zm0-.8c3.97645 0 7.2-3.2237 7.2-7.2 0-3.9764-3.22355-7.2-7.2-7.2s-7.2 3.2236-7.2 7.2c0 3.9763 3.22355 7.2 7.2 7.2zm-4.4-8.8c-.2209 0-.4-.179-.4-.4 0-.2207.1791-.4.4-.4h8.8c.2209 0 .4.1793.4.4 0 .221-.1791.4-.4.4zm1.6 2.4c-.2209 0-.4-.179-.4-.4 0-.2207.1791-.4.4-.4h5.6c.2209 0 .4.1793.4.4 0 .221-.1791.4-.4.4zm1.6 2.4c-.2209 0-.4-.179-.4-.4 0-.2207.1791-.4.4-.4h2.4c.2209 0 .4.1793.4.4 0 .221-.1791.4-.4.4z" fill="#5b77a1"/></g></svg>