<svg height="24.75" viewBox="-670.649 -3263.623 24.75 24.75" width="24.75" xmlns="http://www.w3.org/2000/svg"><g fill="none"><circle cx="-658.274" cy="-3251.248" fill="#666" r="8"/><circle cx="-658.274" cy="-3251.248" r="8"/><circle cx="-658.274" cy="-3251.248" fill="#fff" r="8"/><circle cx="-658.274" cy="-3251.248" r="8"/><path d="M-658.274-3243.174a8 8 0 1 1 0-16 8 8 0 0 1 0 16zm0-.8a7.2 7.2 0 1 0 0-14.4 7.2 7.2 0 0 0 0 14.4zm-4.4-8.8a.4.4 0 1 1 0-.8h8.8a.4.4 0 0 1 0 .8zm1.6 2.4a.4.4 0 1 1 0-.8h5.6a.4.4 0 0 1 0 .8zm1.6 2.4a.4.4 0 1 1 0-.8h2.4a.4.4 0 0 1 0 .8z" fill="#5b77a1"/></g></svg>