<svg height="24.75" viewBox="63.625 -3230.375 24.75 24.75" width="24.75" xmlns="http://www.w3.org/2000/svg"><path d="m82.2347-3225c-.27614 0-.5.224-.5.5v1c0 .276.22386.5.5.5h1c.27614 0 .5-.224.5-.5v-1c0-.276-.22386-.5-.5-.5zm0-1h1c.82842 0 1.49999.6716 1.49999 1.5v1c0 .8284-.67157 1.5-1.49999 1.5h-1c-.82843 0-1.5-.6716-1.5-1.5v-1c0-.8284.67157-1.5 1.5-1.5zm0 7c-.27614 0-.5.224-.5.5v1c0 .276.22386.5.5.5h1c.27614 0 .5-.224.5-.5v-1c0-.276-.22386-.5-.5-.5zm0-1h1c.82842 0 1.49999.6716 1.49999 1.5v1c0 .8284-.67157 1.5-1.49999 1.5h-1c-.82843 0-1.5-.6716-1.5-1.5v-1c0-.8284.67157-1.5 1.5-1.5zm0 7c-.27614 0-.5.224-.5.5v1c0 .276.22386.5.5.5h1c.27614 0 .5-.224.5-.5v-1c0-.276-.22386-.5-.5-.5zm0-1h1c.82842 0 1.49999.6716 1.49999 1.5v1c0 .8284-.67157 1.5-1.49999 1.5h-1c-.82843 0-1.5-.6716-1.5-1.5v-1c0-.8284.67157-1.5 1.5-1.5z" fill="#5c75a1"/></svg>