<?xml version="1.0" encoding="UTF-8" standalone="no"?>
<!DOCTYPE svg PUBLIC "-//W3C//DTD SVG 1.1//EN" "http://www.w3.org/Graphics/SVG/1.1/DTD/svg11.dtd">
<svg version="1.1" xmlns="http://www.w3.org/2000/svg" xmlns:xl="http://www.w3.org/1999/xlink" xmlns:dc="http://purl.org/dc/elements/1.1/" viewBox="-241.78654 -3737.64 25 25" width="25" height="25">
  <defs/>
  <g id="SOURCES" stroke-dasharray="none" fill="none" stroke="none" fill-opacity="1" stroke-opacity="1">
    <title>SOURCES</title>
    <g id="SOURCES_Calque_2">
      <title>Calque 2</title>
      <g id="Group_9164">
        <g id="Graphic_9161">
          <path d="M -237.44654 -3737.14 L -221.12654 -3737.14 C -219.00576 -3737.14 -217.28654 -3735.4206 -217.28654 -3733.3 L -217.28654 -3716.98 C -217.28654 -3714.859 -219.00576 -3713.14 -221.12654 -3713.14 L -237.44654 -3713.14 C -239.5673 -3713.14 -241.28654 -3714.859 -241.28654 -3716.98 L -241.28654 -3733.3 C -241.28654 -3735.4206 -239.5673 -3737.14 -237.44654 -3737.14 Z" fill="white"/>
          <path d="M -237.44654 -3737.14 L -221.12654 -3737.14 C -219.00576 -3737.14 -217.28654 -3735.4206 -217.28654 -3733.3 L -217.28654 -3716.98 C -217.28654 -3714.859 -219.00576 -3713.14 -221.12654 -3713.14 L -237.44654 -3713.14 C -239.5673 -3713.14 -241.28654 -3714.859 -241.28654 -3716.98 L -241.28654 -3733.3 C -241.28654 -3735.4206 -239.5673 -3737.14 -237.44654 -3737.14 Z" stroke="black" stroke-linecap="round" stroke-linejoin="round" stroke-width=".25"/>
        </g>
        <g id="Group_9162">
          <title>script</title>
          <g id="Graphic_9163">
            <path d="M -224.48654 -3720.34 L -224.48654 -3731.14 C -224.48654 -3731.804 -225.02254 -3732.34 -225.68654 -3732.34 L -234.30254 -3732.34 C -234.16654 -3732.108 -234.08654 -3731.828 -234.08654 -3731.54 L -234.08654 -3718.74 C -234.08654 -3718.3 -233.72654 -3717.94 -233.28654 -3717.94 C -232.84654 -3717.94 -232.48654 -3718.3 -232.48654 -3718.74 L -232.48654 -3719.94 C -232.48654 -3720.164 -232.31054 -3720.34 -232.08654 -3720.34 Z M -223.68654 -3720.34 L -221.68654 -3720.34 C -221.46254 -3720.34 -221.28654 -3720.164 -221.28654 -3719.94 L -221.28654 -3719.14 C -221.28654 -3718.036 -222.18254 -3717.14 -223.28654 -3717.14 L -233.28654 -3717.14 C -234.16654 -3717.14 -234.88654 -3717.86 -234.88654 -3718.74 L -234.88654 -3729.94 L -235.68654 -3729.94 C -236.56654 -3729.94 -237.28654 -3730.66 -237.28654 -3731.54 C -237.28654 -3732.42 -236.56654 -3733.14 -235.68654 -3733.14 L -225.68654 -3733.14 C -224.58254 -3733.14 -223.68654 -3732.244 -223.68654 -3731.14 Z M -231.68654 -3719.54 L -231.68654 -3718.74 C -231.68654 -3718.452 -231.76654 -3718.172 -231.90254 -3717.94 L -223.28654 -3717.94 C -222.62254 -3717.94 -222.08654 -3718.476 -222.08654 -3719.14 L -222.08654 -3719.54 Z M -234.88654 -3730.74 L -234.88654 -3731.54 C -234.88654 -3731.98 -235.24654 -3732.34 -235.68654 -3732.34 C -236.12654 -3732.34 -236.48654 -3731.98 -236.48654 -3731.54 C -236.48654 -3731.1 -236.12654 -3730.74 -235.68654 -3730.74 Z M -232.08654 -3729.14 C -232.31054 -3729.14 -232.48654 -3729.316 -232.48654 -3729.54 C -232.48654 -3729.764 -232.31054 -3729.94 -232.08654 -3729.94 L -226.48654 -3729.94 C -226.26254 -3729.94 -226.08654 -3729.764 -226.08654 -3729.54 C -226.08654 -3729.316 -226.26254 -3729.14 -226.48654 -3729.14 Z M -232.08654 -3726.74 C -232.31054 -3726.74 -232.48654 -3726.916 -232.48654 -3727.14 C -232.48654 -3727.364 -232.31054 -3727.54 -232.08654 -3727.54 L -226.48654 -3727.54 C -226.26254 -3727.54 -226.08654 -3727.364 -226.08654 -3727.14 C -226.08654 -3726.916 -226.26254 -3726.74 -226.48654 -3726.74 Z M -232.08654 -3724.34 C -232.31054 -3724.34 -232.48654 -3724.516 -232.48654 -3724.74 C -232.48654 -3724.964 -232.31054 -3725.14 -232.08654 -3725.14 L -226.48654 -3725.14 C -226.26254 -3725.14 -226.08654 -3724.964 -226.08654 -3724.74 C -226.08654 -3724.516 -226.26254 -3724.34 -226.48654 -3724.34 Z M -232.08654 -3721.94 C -232.31054 -3721.94 -232.48654 -3722.116 -232.48654 -3722.34 C -232.48654 -3722.564 -232.31054 -3722.74 -232.08654 -3722.74 L -228.08654 -3722.74 C -227.86254 -3722.74 -227.68654 -3722.564 -227.68654 -3722.34 C -227.68654 -3722.116 -227.86254 -3721.94 -228.08654 -3721.94 Z" fill="#5c76a1"/>
          </g>
        </g>
      </g>
    </g>
  </g>
</svg>
