<svg viewBox="-241.787 -3737.64 25 25" xmlns="http://www.w3.org/2000/svg"><g fill="none"><path d="m-237.447-3737.14h16.32a3.84 3.84 0 0 1 3.84 3.84v16.32a3.84 3.84 0 0 1 -3.84 3.84h-16.32a3.84 3.84 0 0 1 -3.84-3.84v-16.32a3.84 3.84 0 0 1 3.84-3.84z" fill="#fff"/><path d="m-237.447-3737.14h16.32a3.84 3.84 0 0 1 3.84 3.84v16.32a3.84 3.84 0 0 1 -3.84 3.84h-16.32a3.84 3.84 0 0 1 -3.84-3.84v-16.32a3.84 3.84 0 0 1 3.84-3.84z" stroke="#000" stroke-linecap="round" stroke-linejoin="round" stroke-width=".25"/><path d="m-224.487-3720.34v-10.8c0-.664-.536-1.2-1.2-1.2h-8.616c.136.232.216.512.216.8v12.8c0 .44.36.8.8.8s.8-.36.8-.8v-1.2c0-.224.176-.4.4-.4zm.8 0h2c.224 0 .4.176.4.4v.8a2 2 0 0 1 -2 2h-10c-.88 0-1.6-.72-1.6-1.6v-11.2h-.8c-.88 0-1.6-.72-1.6-1.6s.72-1.6 1.6-1.6h10a2 2 0 0 1 2 2zm-8 .8v.8c0 .288-.08.568-.216.8h8.616c.664 0 1.2-.536 1.2-1.2v-.4zm-3.2-11.2v-.8c0-.44-.36-.8-.8-.8s-.8.36-.8.8.36.8.8.8zm2.8 1.6a.396.396 0 0 1 -.4-.4c0-.224.176-.4.4-.4h5.6c.224 0 .4.176.4.4s-.176.4-.4.4zm0 2.4a.396.396 0 0 1 -.4-.4c0-.224.176-.4.4-.4h5.6c.224 0 .4.176.4.4s-.176.4-.4.4zm0 2.4a.396.396 0 0 1 -.4-.4c0-.224.176-.4.4-.4h5.6c.224 0 .4.176.4.4s-.176.4-.4.4zm0 2.4a.396.396 0 0 1 -.4-.4c0-.224.176-.4.4-.4h4c.224 0 .4.176.4.4s-.176.4-.4.4z" fill="#5c76a1"/></g></svg>