<svg height="25" viewBox="-151.383 -3675.743 25 25" width="25" xmlns="http://www.w3.org/2000/svg"><g fill="none"><path d="m-147.04302-3675.243h16.32c2.12078 0 3.84 1.7194 3.84 3.84v16.32c0 2.121-1.71922 3.84-3.84 3.84h-16.32c-2.12077 0-3.84-1.719-3.84-3.84v-16.32c0-2.1206 1.71923-3.84 3.84-3.84z" fill="#fff"/><path d="m-147.04302-3675.243h16.32c2.12078 0 3.84 1.7194 3.84 3.84v16.32c0 2.121-1.71922 3.84-3.84 3.84h-16.32c-2.12077 0-3.84-1.719-3.84-3.84v-16.32c0-2.1206 1.71923-3.84 3.84-3.84z" stroke="#000" stroke-linecap="round" stroke-linejoin="round" stroke-width=".25"/><path d="m-141.2919-3666.794-1.90223-1.911c-.17777-.178-.17777-.4534 0-.631.17778-.178.45333-.178.63111 0l2.66667 2.6665c.17778.1778.17778.4535 0 .6311l-2.66667 2.6667c-.17778.1777-.45333.1777-.63111 0-.17777-.1778-.17777-.4533 0-.6313l1.91111-1.911h-3.36888c-.73778 0-1.33334.5956-1.33334 1.3334v5.3334c0 .7377.59556 1.3332 1.33334 1.3332h4.44444c.24889 0 .44444.1956.44444.4445s-.19555.4445-.44444.4445h-4.45334c-1.22666 0-2.22222-.9956-2.22222-2.2222v-5.3334c0-1.2266.99556-2.2224 2.22222-2.2224h3.3689zm3.74222.889c-.24889 0-.44445-.1956-.44445-.4445s.19556-.4445.44445-.4445h6.22222c.24889 0 .44444.1956.44444.4445s-.19555.4445-.44444.4445zm0 4.4444c-.24889 0-.44445-.1954-.44445-.4444s.19556-.4445.44445-.4445h6.22222c.24889 0 .44444.1955.44444.4445s-.19555.4444-.44444.4444zm0 4.4446c-.24889 0-.44445-.1957-.44445-.4446s.19556-.4444.44445-.4444h6.22222c.24889 0 .44444.1955.44444.4444s-.19555.4446-.44444.4446z" fill="#5f78a3"/></g></svg>