<svg height="25" viewBox="-151.383 -3675.743 25 25" width="25" xmlns="http://www.w3.org/2000/svg"><g fill="none"><path d="M-147.043-3675.243h16.32a3.84 3.84 0 0 1 3.84 3.84v16.32a3.84 3.84 0 0 1-3.84 3.84h-16.32a3.84 3.84 0 0 1-3.84-3.84v-16.32a3.84 3.84 0 0 1 3.84-3.84z" fill="#fff"/><path d="M-147.043-3675.243h16.32a3.84 3.84 0 0 1 3.84 3.84v16.32a3.84 3.84 0 0 1-3.84 3.84h-16.32a3.84 3.84 0 0 1-3.84-3.84v-16.32a3.84 3.84 0 0 1 3.84-3.84z" stroke="#000" stroke-linecap="round" stroke-linejoin="round" stroke-width=".25"/><path d="M-141.292-3666.794l-1.902-1.911a.44.44 0 0 1 0-.631.44.44 0 0 1 .631 0l2.667 2.667a.44.44 0 0 1 0 .63l-2.667 2.667a.44.44 0 0 1-.631 0 .44.44 0 0 1 0-.631l1.911-1.911h-3.369c-.738 0-1.333.596-1.333 1.333v5.334c0 .738.595 1.333 1.333 1.333h4.445c.248 0 .444.196.444.445s-.196.444-.444.444h-4.454a2.223 2.223 0 0 1-2.222-2.222v-5.334c0-1.226.996-2.222 2.222-2.222h3.37zm3.742.889c-.249 0-.444-.196-.444-.444s.195-.445.444-.445h6.223c.248 0 .444.196.444.445s-.196.444-.444.444zm0 4.444c-.249 0-.444-.195-.444-.444s.195-.444.444-.444h6.223c.248 0 .444.195.444.444s-.196.444-.444.444zm0 4.445c-.249 0-.444-.196-.444-.445s.195-.444.444-.444h6.223c.248 0 .444.196.444.444s-.196.445-.444.445z" fill="#5f78a3"/></g></svg>