<svg height="25" viewBox="-641.787 -3742.319 25 25" width="25" xmlns="http://www.w3.org/2000/svg"><g fill="none"><path d="m-637.4465-3741.8194h16.32c2.1208 0 3.84 1.7194 3.84 3.84v16.32c0 2.1207-1.7192 3.84-3.84 3.84h-16.32c-2.1208 0-3.84-1.7193-3.84-3.84v-16.32c0-2.1206 1.7192-3.84 3.84-3.84z" fill="#fff"/><path d="m-637.4465-3741.8194h16.32c2.1208 0 3.84 1.7194 3.84 3.84v16.32c0 2.1207-1.7192 3.84-3.84 3.84h-16.32c-2.1208 0-3.84-1.7193-3.84-3.84v-16.32c0-2.1206 1.7192-3.84 3.84-3.84z" stroke="#000" stroke-linecap="round" stroke-linejoin="round" stroke-width=".25"/><path d="m-628.7215-3721.8194c-4.416 0-8-3.584-8-8s3.584-8 8-8 8 3.584 8 8-3.584 8-8 8zm0-.8c3.976 0 7.2-3.224 7.2-7.2s-3.224-7.2-7.2-7.2-7.2 3.224-7.2 7.2 3.224 7.2 7.2 7.2zm-3.2-9.744c0-.264.072-.528.208-.752.416-.68 1.304-.896 1.976-.48l4.392 2.68c.176.104.32.248.424.424.368.6.176 1.392-.424 1.76l-4.392 2.68c-.224.136-.488.208-.752.208-.792 0-1.44-.648-1.44-1.44v-5.088zm.8 0v5.088c0 .352.288.64.64.64.12 0 .232-.032.336-.096l4.392-2.68c.224-.136.296-.432.16-.656-.04-.064-.096-.12-.16-.16l-4.392-2.68c-.304-.184-.696-.088-.88.216-.064.104-.096.216-.096.336z" fill="#518738"/></g></svg>