<?xml version="1.0" encoding="UTF-8" standalone="no"?>
<!DOCTYPE svg PUBLIC "-//W3C//DTD SVG 1.1//EN" "http://www.w3.org/Graphics/SVG/1.1/DTD/svg11.dtd">
<svg version="1.1" xmlns="http://www.w3.org/2000/svg" xmlns:xl="http://www.w3.org/1999/xlink" xmlns:dc="http://purl.org/dc/elements/1.1/" viewBox="-641.7865 -3742.3194 25 25" width="25" height="25">
  <defs/>
  <g id="SOURCES" stroke-dasharray="none" fill="none" stroke="none" fill-opacity="1" stroke-opacity="1">
    <title>SOURCES</title>
    <g id="SOURCES_Calque_2">
      <title>Calque 2</title>
      <g id="Graphic_9073">
        <path d="M -637.4465 -3741.8194 L -621.1265 -3741.8194 C -619.0057 -3741.8194 -617.2865 -3740.1 -617.2865 -3737.9794 L -617.2865 -3721.6594 C -617.2865 -3719.5387 -619.0057 -3717.8194 -621.1265 -3717.8194 L -637.4465 -3717.8194 C -639.5673 -3717.8194 -641.2865 -3719.5387 -641.2865 -3721.6594 L -641.2865 -3737.9794 C -641.2865 -3740.1 -639.5673 -3741.8194 -637.4465 -3741.8194 Z" fill="white"/>
        <path d="M -637.4465 -3741.8194 L -621.1265 -3741.8194 C -619.0057 -3741.8194 -617.2865 -3740.1 -617.2865 -3737.9794 L -617.2865 -3721.6594 C -617.2865 -3719.5387 -619.0057 -3717.8194 -621.1265 -3717.8194 L -637.4465 -3717.8194 C -639.5673 -3717.8194 -641.2865 -3719.5387 -641.2865 -3721.6594 L -641.2865 -3737.9794 C -641.2865 -3740.1 -639.5673 -3741.8194 -637.4465 -3741.8194 Z" stroke="black" stroke-linecap="round" stroke-linejoin="round" stroke-width=".25"/>
      </g>
      <g id="Group_9071">
        <title>play-alt</title>
        <g id="Graphic_9072">
          <path d="M -628.7215 -3721.8194 C -633.1375 -3721.8194 -636.7215 -3725.4034 -636.7215 -3729.8194 C -636.7215 -3734.2354 -633.1375 -3737.8194 -628.7215 -3737.8194 C -624.3055 -3737.8194 -620.7215 -3734.2354 -620.7215 -3729.8194 C -620.7215 -3725.4034 -624.3055 -3721.8194 -628.7215 -3721.8194 Z M -628.7215 -3722.6194 C -624.7455 -3722.6194 -621.5215 -3725.8434 -621.5215 -3729.8194 C -621.5215 -3733.7954 -624.7455 -3737.0194 -628.7215 -3737.0194 C -632.6975 -3737.0194 -635.9215 -3733.7954 -635.9215 -3729.8194 C -635.9215 -3725.8434 -632.6975 -3722.6194 -628.7215 -3722.6194 Z M -631.9215 -3732.3634 C -631.9215 -3732.6274 -631.8495 -3732.8914 -631.7135 -3733.1154 C -631.2975 -3733.7954 -630.4095 -3734.0114 -629.7375 -3733.5954 L -625.3455 -3730.9154 C -625.1695 -3730.8114 -625.0255 -3730.6674 -624.9215 -3730.4914 C -624.5535 -3729.8914 -624.7455 -3729.0994 -625.3455 -3728.7314 L -629.7375 -3726.0514 C -629.9615 -3725.9154 -630.2255 -3725.8434 -630.4895 -3725.8434 C -631.2815 -3725.8434 -631.9295 -3726.4914 -631.9295 -3727.2834 L -631.9295 -3732.3714 Z M -631.1215 -3732.3634 L -631.1215 -3727.2754 C -631.1215 -3726.9234 -630.8335 -3726.6354 -630.4815 -3726.6354 C -630.3615 -3726.6354 -630.2495 -3726.6674 -630.1455 -3726.7314 L -625.7535 -3729.4114 C -625.5295 -3729.5474 -625.4575 -3729.8434 -625.5935 -3730.0674 C -625.6335 -3730.1314 -625.6895 -3730.1874 -625.7535 -3730.2274 L -630.1455 -3732.9074 C -630.4495 -3733.0914 -630.8415 -3732.9954 -631.0255 -3732.6914 C -631.0895 -3732.5874 -631.1215 -3732.4754 -631.1215 -3732.3554 Z" fill="#518738"/>
        </g>
      </g>
    </g>
  </g>
</svg>
