<svg xmlns="http://www.w3.org/2000/svg" viewBox="-641.787 -3742.319 25 25"><g fill="none"><path d="M-637.447-3741.82h16.32a3.84 3.84 0 0 1 3.84 3.84v16.32a3.84 3.84 0 0 1-3.84 3.84h-16.32a3.84 3.84 0 0 1-3.84-3.84v-16.32a3.84 3.84 0 0 1 3.84-3.84z" fill="#fff"/><path d="M-637.447-3741.82h16.32a3.84 3.84 0 0 1 3.84 3.84v16.32a3.84 3.84 0 0 1-3.84 3.84h-16.32a3.84 3.84 0 0 1-3.84-3.84v-16.32a3.84 3.84 0 0 1 3.84-3.84z" stroke="#000" stroke-linecap="round" stroke-linejoin="round" stroke-width=".25"/><path d="M-628.721-3721.82c-4.417 0-8-3.583-8-8 0-4.415 3.583-8 8-8 4.415 0 8 3.585 8 8 0 4.417-3.585 8-8 8zm0-.8a7.2 7.2 0 1 0-.002-14.4 7.2 7.2 0 0 0 .001 14.4zm-3.2-9.743a1.436 1.436 0 0 1 2.184-1.232l4.391 2.68a1.284 1.284 0 0 1 0 2.184l-4.391 2.68a1.444 1.444 0 0 1-2.192-1.232v-5.088zm.8 0v5.088a.642.642 0 0 0 .976.544l4.391-2.68a.48.48 0 0 0 0-.816l-4.391-2.68a.639.639 0 0 0-.88.216.63.63 0 0 0-.096.336z" fill="#518738"/></g></svg>