<svg xmlns="http://www.w3.org/2000/svg" viewBox="-481.786 -3741.319 25 25"><g fill="none"><path d="M-477.447-3740.82h16.32a3.84 3.84 0 0 1 3.84 3.84v16.32a3.84 3.84 0 0 1-3.84 3.84h-16.32a3.84 3.84 0 0 1-3.84-3.84v-16.32a3.84 3.84 0 0 1 3.84-3.84z" fill="#fff"/><path d="M-477.447-3740.82h16.32a3.84 3.84 0 0 1 3.84 3.84v16.32a3.84 3.84 0 0 1-3.84 3.84h-16.32a3.84 3.84 0 0 1-3.84-3.84v-16.32a3.84 3.84 0 0 1 3.84-3.84z" stroke="#000" stroke-linecap="round" stroke-linejoin="round" stroke-width=".25"/><path d="M-463.953-3725.264h2.222a.44.44 0 0 0 .445-.444.44.44 0 0 0-.445-.445h-2.222v-2.222a.44.44 0 0 0-.445-.444.44.44 0 0 0-.444.444v2.222h-2.222a.44.44 0 0 0-.445.445.44.44 0 0 0 .445.444h2.222v2.222a.44.44 0 0 0 .444.445.44.44 0 0 0 .445-.445zm-5.778 0a.44.44 0 0 0 .445-.444.44.44 0 0 0-.445-.445h-7.111a.44.44 0 0 0-.445.445.44.44 0 0 0 .445.444zm2.667-4.444a.44.44 0 0 0 .444-.445.44.44 0 0 0-.444-.444h-9.778a.44.44 0 0 0-.445.444.44.44 0 0 0 .445.445zm5.333-4.445a.44.44 0 0 0 .445-.444.44.44 0 0 0-.445-.445h-15.111a.44.44 0 0 0-.445.445.44.44 0 0 0 .445.444z" fill="#5c76a1"/></g></svg>