<svg height="25" viewBox="-601.787 -3742.319 25 25" width="25" xmlns="http://www.w3.org/2000/svg"><g fill="none"><path d="M-597.447-3741.82h16.32a3.84 3.84 0 0 1 3.84 3.84v16.32a3.84 3.84 0 0 1-3.84 3.84h-16.32a3.84 3.84 0 0 1-3.84-3.84v-16.32a3.84 3.84 0 0 1 3.84-3.84z" fill="#fff"/><path d="M-597.447-3741.82h16.32a3.84 3.84 0 0 1 3.84 3.84v16.32a3.84 3.84 0 0 1-3.84 3.84h-16.32a3.84 3.84 0 0 1-3.84-3.84v-16.32a3.84 3.84 0 0 1 3.84-3.84z" stroke="#000" stroke-linecap="round" stroke-linejoin="round" stroke-width=".25"/><path d="M-595.687-3735.82a2 2 0 0 1 2-2h10.4c.224 0 .4.177.4.4s-.176.4-.4.4h-10.4a1.199 1.199 0 1 0 0 2.4h8.8a2 2 0 0 1 2 2v8.8a2 2 0 0 1-2 2h-7.2a3.595 3.595 0 0 1-3.6-3.6zm.8 10.4c0 1.545 1.256 2.8 2.8 2.8h7.2c.664 0 1.2-.535 1.2-1.2v-8.8c0-.663-.536-1.2-1.2-1.2h-8.8a2.02 2.02 0 0 1-1.2-.4zm1.2-10c-.224 0-.4-.175-.4-.4s.176-.4.4-.4h10.4c.224 0 .4.177.4.4s-.176.4-.4.4zm1.2 4.4c0-.223.176-.4.4-.4h5.6c.224 0 .4.177.4.4v2.4c0 .225-.176.4-.4.4h-5.6a.396.396 0 0 1-.4-.4zm.8 2h4.8v-1.6h-4.8zm-.4 2.4c-.224 0-.4-.175-.4-.4s.176-.4.4-.4h5.6c.224 0 .4.177.4.4s-.176.4-.4.4zm0 1.6c-.224 0-.4-.175-.4-.4s.176-.4.4-.4h3.2c.224 0 .4.177.4.4s-.176.4-.4.4z" fill="#5c76a1"/></g></svg>