<svg viewBox="-561.787 -3742.319 25 25" xmlns="http://www.w3.org/2000/svg"><g fill="none"><path d="m-557.447-3741.82h16.32a3.84 3.84 0 0 1 3.84 3.84v16.32a3.84 3.84 0 0 1 -3.84 3.84h-16.32a3.84 3.84 0 0 1 -3.84-3.84v-16.32a3.84 3.84 0 0 1 3.84-3.84z" fill="#fff"/><path d="m-557.447-3741.82h16.32a3.84 3.84 0 0 1 3.84 3.84v16.32a3.84 3.84 0 0 1 -3.84 3.84h-16.32a3.84 3.84 0 0 1 -3.84-3.84v-16.32a3.84 3.84 0 0 1 3.84-3.84z" stroke="#000" stroke-linecap="round" stroke-linejoin="round" stroke-width=".25"/><path d="m-549.287-3737.02a7.2 7.2 0 0 0 0 14.4h.4a.625.625 0 0 0 .608-.471 1.23 1.23 0 0 0 -.24-1.104l-1.471-1.768a.399.399 0 0 1 .231-.648l4.865-.976a3.502 3.502 0 0 0 2.816-3.432c0-3.312-2.688-6-6-6h-1.2zm.337 11.065 1.04 1.248c.415.496.567 1.16.407 1.784a1.44 1.44 0 0 1 -1.391 1.104h-.4c-4.409 0-7.993-3.584-7.993-8s3.585-8 8-8h1.2c3.752 0 6.8 3.048 6.8 6.8a4.3 4.3 0 0 1 -3.455 4.216l-4.2.84zm4.464-5.464c.44 0 .8-.36.8-.8s-.36-.8-.8-.8-.8.36-.8.8.36.8.8.8zm-3.2-2.4c.44 0 .8-.36.8-.8s-.36-.8-.8-.8-.8.36-.8.8.36.8.8.8zm-4 .8c.44 0 .8-.36.8-.8s-.36-.8-.8-.8-.8.36-.8.8.36.8.8.8zm-2.4 3.2c.44 0 .8-.36.8-.8s-.36-.8-.8-.8-.8.36-.8.8.36.8.8.8z" fill="#9f4c4d"/></g></svg>