<svg height="25" viewBox="-521.787 -3741.319 25 25" width="25" xmlns="http://www.w3.org/2000/svg"><g fill="none"><path d="M-517.447-3740.82h16.32a3.84 3.84 0 0 1 3.84 3.84v16.32a3.84 3.84 0 0 1-3.84 3.84h-16.32a3.84 3.84 0 0 1-3.84-3.84v-16.32a3.84 3.84 0 0 1 3.84-3.84z" fill="#fff"/><path d="M-517.447-3740.82h16.32a3.84 3.84 0 0 1 3.84 3.84v16.32a3.84 3.84 0 0 1-3.84 3.84h-16.32a3.84 3.84 0 0 1-3.84-3.84v-16.32a3.84 3.84 0 0 1 3.84-3.84z" stroke="#000" stroke-linecap="round" stroke-linejoin="round" stroke-width=".25"/><path d="M-514.486-3736.02c-.224 0-.4.177-.4.4v2.4c0 .225.176.4.4.4h7.2c.224 0 .4-.175.4-.4v-2.4c0-.223-.176-.4-.4-.4zm0-.8h7.2c.664 0 1.2.537 1.2 1.2v2.4c0 .665-.536 1.2-1.2 1.2h-7.2c-.664 0-1.2-.535-1.2-1.2v-2.4c0-.663.536-1.2 1.2-1.2zm.8 1.6h.8c.223 0 .4.177.4.4v.8c0 .225-.177.4-.4.4h-.8a.396.396 0 0 1-.4-.4v-.8c0-.223.176-.4.4-.4zm2.4 0h.8c.223 0 .4.177.4.4v.8c0 .225-.177.4-.4.4h-.8a.396.396 0 0 1-.4-.4v-.8c0-.223.175-.4.4-.4zm6 9.6v-.8h-2c-.665 0-1.2-.535-1.2-1.2v-.8c0-.663.535-1.2 1.2-1.2h2v-.4c0-.223-.177-.4-.4-.4h-7.2c-.225 0-.4.177-.4.4v.4h2c.663 0 1.2.537 1.2 1.2v.8c0 .665-.537 1.2-1.2 1.2h-4.8c-.664 0-1.2-.535-1.2-1.2v-.8c0-.663.535-1.2 1.2-1.2h2v-.4c0-.663.536-1.2 1.2-1.2h2v-1.2c0-.223.176-.4.4-.4s.4.177.4.4v1.2h4.4c.663 0 1.2.537 1.2 1.2v.4h2c.663 0 1.2.537 1.2 1.2v.8c0 .665-.537 1.2-1.2 1.2h-2v.873c.463.168.8.608.8 1.128v.4h.4c.663 0 1.2.536 1.2 1.2v.8c0 .664-.537 1.2-1.2 1.2h-1.6c-.665 0-1.2-.536-1.2-1.2v-.8c0-.664.535-1.2 1.2-1.2h.4v-.4c0-.224-.177-.4-.4-.4h-4.4v.8h.4c.663 0 1.2.536 1.2 1.2v.8c0 .664-.537 1.2-1.2 1.2h-1.6c-.665 0-1.2-.536-1.2-1.2v-.8c0-.664.535-1.2 1.2-1.2h.4v-.8h-4.4c-.225 0-.4.176-.4.4v.4h.4c.663 0 1.2.536 1.2 1.2v.8c0 .664-.537 1.2-1.2 1.2h-1.6c-.665 0-1.2-.536-1.2-1.2v-.8c0-.664.535-1.2 1.2-1.2h.4v-.4c0-.664.535-1.2 1.2-1.2zm-3.6-9.6h.8c.223 0 .4.177.4.4v.8c0 .225-.177.4-.4.4h-.8a.396.396 0 0 1-.4-.4v-.8c0-.223.175-.4.4-.4zm1.6 6.4c-.225 0-.4.177-.4.4v.8c0 .225.175.4.4.4h4.8c.223 0 .4-.175.4-.4v-.8c0-.223-.177-.4-.4-.4zm-8.8 0c-.224 0-.4.177-.4.4v.8c0 .225.176.4.4.4h4.8c.224 0 .4-.175.4-.4v-.8c0-.223-.176-.4-.4-.4zm0 5.6c-.224 0-.4.177-.4.4v.8c0 .225.176.4.4.4h1.6c.224 0 .4-.175.4-.4v-.8c0-.223-.176-.4-.4-.4zm5.6 0c-.224 0-.4.177-.4.4v.8c0 .225.176.4.4.4h1.6c.224 0 .4-.175.4-.4v-.8c0-.223-.176-.4-.4-.4zm5.6 0c-.224 0-.4.177-.4.4v.8c0 .225.176.4.4.4h1.6c.224 0 .4-.175.4-.4v-.8c0-.223-.176-.4-.4-.4z" fill="#518737"/></g></svg>