<svg height="25" viewBox="-481.786 -3741.319 25 25" width="25" xmlns="http://www.w3.org/2000/svg"><g fill="none"><path d="m-477.4465-3740.8194h16.32c2.1208 0 3.84 1.7194 3.84 3.84v16.32c0 2.1207-1.7192 3.84-3.84 3.84h-16.32c-2.1208 0-3.84-1.7193-3.84-3.84v-16.32c0-2.1206 1.7192-3.84 3.84-3.84z" fill="#fff"/><path d="m-477.4465-3740.8194h16.32c2.1208 0 3.84 1.7194 3.84 3.84v16.32c0 2.1207-1.7192 3.84-3.84 3.84h-16.32c-2.1208 0-3.84-1.7193-3.84-3.84v-16.32c0-2.1206 1.7192-3.84 3.84-3.84z" stroke="#000" stroke-linecap="round" stroke-linejoin="round" stroke-width=".25"/><path d="m-463.95317-3725.264h2.22223c.24888 0 .44444-.1954.44444-.4443 0-.2487-.19556-.4445-.44444-.4445h-2.22223v-2.2222c0-.249-.19553-.4444-.44443-.4444s-.44446.1954-.44446.4444v2.2222h-2.22224c-.24887 0-.4444.1958-.4444.4445 0 .2489.19553.4443.4444.4443h2.22224v2.2223c0 .2489.19556.4447.44446.4447s.44443-.1958.44443-.4447zm-5.77777 0c.24888 0 .44444-.1954.44444-.4443 0-.2487-.19556-.4445-.44444-.4445h-7.11112c-.24888 0-.44444.1958-.44444.4445 0 .2489.19556.4443.44444.4443zm2.66664-4.4443c.2489 0 .44447-.1957.44447-.4445 0-.2489-.19557-.4442-.44447-.4442h-9.77776c-.24888 0-.44444.1953-.44444.4442 0 .2488.19556.4445.44444.4445zm5.33336-4.4445c.24888 0 .44444-.1955.44444-.4442 0-.249-.19556-.4447-.44444-.4447h-15.11112c-.24888 0-.44444.1957-.44444.4447 0 .2487.19556.4442.44444.4442z" fill="#5c76a1"/></g></svg>