<?xml version="1.0" encoding="UTF-8" standalone="no"?>
<!DOCTYPE svg PUBLIC "-//W3C//DTD SVG 1.1//EN" "http://www.w3.org/Graphics/SVG/1.1/DTD/svg11.dtd">
<svg version="1.1" xmlns="http://www.w3.org/2000/svg" xmlns:xl="http://www.w3.org/1999/xlink" xmlns:dc="http://purl.org/dc/elements/1.1/" viewBox="-561.7865 -3742.3194 25 25" width="25" height="25">
  <defs/>
  <g id="SOURCES" stroke-dasharray="none" fill="none" stroke="none" fill-opacity="1" stroke-opacity="1">
    <title>SOURCES</title>
    <g id="SOURCES_Calque_2">
      <title>Calque 2</title>
      <g id="Graphic_9079">
        <path d="M -557.4465 -3741.8194 L -541.1265 -3741.8194 C -539.0057 -3741.8194 -537.2865 -3740.1 -537.2865 -3737.9794 L -537.2865 -3721.6594 C -537.2865 -3719.5387 -539.0057 -3717.8194 -541.1265 -3717.8194 L -557.4465 -3717.8194 C -559.5673 -3717.8194 -561.2865 -3719.5387 -561.2865 -3721.6594 L -561.2865 -3737.9794 C -561.2865 -3740.1 -559.5673 -3741.8194 -557.4465 -3741.8194 Z" fill="white"/>
        <path d="M -557.4465 -3741.8194 L -541.1265 -3741.8194 C -539.0057 -3741.8194 -537.2865 -3740.1 -537.2865 -3737.9794 L -537.2865 -3721.6594 C -537.2865 -3719.5387 -539.0057 -3717.8194 -541.1265 -3717.8194 L -557.4465 -3717.8194 C -559.5673 -3717.8194 -561.2865 -3719.5387 -561.2865 -3721.6594 L -561.2865 -3737.9794 C -561.2865 -3740.1 -559.5673 -3741.8194 -557.4465 -3741.8194 Z" stroke="black" stroke-linecap="round" stroke-linejoin="round" stroke-width=".25"/>
      </g>
      <g id="Group_9077">
        <title>palette</title>
        <g id="Graphic_9078">
          <path d="M -549.2865 -3737.0194 C -553.2625 -3737.0194 -556.4865 -3733.7954 -556.4865 -3729.8194 C -556.4865 -3725.8434 -553.2625 -3722.6194 -549.2865 -3722.6194 L -548.8865 -3722.6194 C -548.5985 -3722.6194 -548.3505 -3722.8114 -548.2785 -3723.0914 C -548.1745 -3723.4914 -548.2705 -3723.8994 -548.5185 -3724.1954 L -549.9905 -3725.9634 C -550.1825 -3726.1954 -550.0625 -3726.5554 -549.7585 -3726.6114 L -544.8945 -3727.5874 C -543.2545 -3727.9154 -542.0785 -3729.3554 -542.0785 -3731.0194 C -542.0785 -3734.3314 -544.7665 -3737.0194 -548.0785 -3737.0194 L -549.2785 -3737.0194 Z M -548.9505 -3725.9554 L -547.9105 -3724.7074 C -547.4945 -3724.2114 -547.3425 -3723.5474 -547.5025 -3722.9234 C -547.6705 -3722.2674 -548.2385 -3721.8194 -548.8945 -3721.8194 L -549.2945 -3721.8194 C -553.7025 -3721.8194 -557.2865 -3725.4034 -557.2865 -3729.8194 C -557.2865 -3734.2354 -553.7025 -3737.8194 -549.2865 -3737.8194 L -548.0865 -3737.8194 C -544.3345 -3737.8194 -541.2865 -3734.7714 -541.2865 -3731.0194 C -541.2865 -3728.9714 -542.7345 -3727.2034 -544.7425 -3726.8034 L -548.9425 -3725.9634 Z M -544.4865 -3731.4194 C -544.0465 -3731.4194 -543.6865 -3731.7794 -543.6865 -3732.2194 C -543.6865 -3732.6594 -544.0465 -3733.0194 -544.4865 -3733.0194 C -544.9265 -3733.0194 -545.2865 -3732.6594 -545.2865 -3732.2194 C -545.2865 -3731.7794 -544.9265 -3731.4194 -544.4865 -3731.4194 Z M -547.6865 -3733.8194 C -547.2465 -3733.8194 -546.8865 -3734.1794 -546.8865 -3734.6194 C -546.8865 -3735.0594 -547.2465 -3735.4194 -547.6865 -3735.4194 C -548.1265 -3735.4194 -548.4865 -3735.0594 -548.4865 -3734.6194 C -548.4865 -3734.1794 -548.1265 -3733.8194 -547.6865 -3733.8194 Z M -551.6865 -3733.0194 C -551.2465 -3733.0194 -550.8865 -3733.3794 -550.8865 -3733.8194 C -550.8865 -3734.2594 -551.2465 -3734.6194 -551.6865 -3734.6194 C -552.1265 -3734.6194 -552.4865 -3734.2594 -552.4865 -3733.8194 C -552.4865 -3733.3794 -552.1265 -3733.0194 -551.6865 -3733.0194 Z M -554.0865 -3729.8194 C -553.6465 -3729.8194 -553.2865 -3730.1794 -553.2865 -3730.6194 C -553.2865 -3731.0594 -553.6465 -3731.4194 -554.0865 -3731.4194 C -554.5265 -3731.4194 -554.8865 -3731.0594 -554.8865 -3730.6194 C -554.8865 -3730.1794 -554.5265 -3729.8194 -554.0865 -3729.8194 Z" fill="#9f4c4d"/>
        </g>
      </g>
    </g>
  </g>
</svg>
