<?xml version="1.0" encoding="UTF-8" standalone="no"?>
<!DOCTYPE svg PUBLIC "-//W3C//DTD SVG 1.1//EN" "http://www.w3.org/Graphics/SVG/1.1/DTD/svg11.dtd">
<svg version="1.1" xmlns="http://www.w3.org/2000/svg" xmlns:xl="http://www.w3.org/1999/xlink" xmlns:dc="http://purl.org/dc/elements/1.1/" viewBox="-481.7865 -3741.3194 25 25" width="25" height="25">
  <defs/>
  <g id="SOURCES" stroke-dasharray="none" fill="none" stroke="none" fill-opacity="1" stroke-opacity="1">
    <title>SOURCES</title>
    <g id="SOURCES_Calque_2">
      <title>Calque 2</title>
      <g id="Graphic_9085">
        <path d="M -477.4465 -3740.8194 L -461.1265 -3740.8194 C -459.0057 -3740.8194 -457.2865 -3739.1 -457.2865 -3736.9794 L -457.2865 -3720.6594 C -457.2865 -3718.5387 -459.0057 -3716.8194 -461.1265 -3716.8194 L -477.4465 -3716.8194 C -479.5673 -3716.8194 -481.2865 -3718.5387 -481.2865 -3720.6594 L -481.2865 -3736.9794 C -481.2865 -3739.1 -479.5673 -3740.8194 -477.4465 -3740.8194 Z" fill="white"/>
        <path d="M -477.4465 -3740.8194 L -461.1265 -3740.8194 C -459.0057 -3740.8194 -457.2865 -3739.1 -457.2865 -3736.9794 L -457.2865 -3720.6594 C -457.2865 -3718.5387 -459.0057 -3716.8194 -461.1265 -3716.8194 L -477.4465 -3716.8194 C -479.5673 -3716.8194 -481.2865 -3718.5387 -481.2865 -3720.6594 L -481.2865 -3736.9794 C -481.2865 -3739.1 -479.5673 -3740.8194 -477.4465 -3740.8194 Z" stroke="black" stroke-linecap="round" stroke-linejoin="round" stroke-width=".25"/>
      </g>
      <g id="Group_9101">
        <title>add-to-list</title>
        <g id="Graphic_9102">
          <path d="M -463.95317 -3725.264 L -461.73094 -3725.264 C -461.48206 -3725.264 -461.2865 -3725.4594 -461.2865 -3725.7083 C -461.2865 -3725.957 -461.48206 -3726.1528 -461.73094 -3726.1528 L -463.95317 -3726.1528 L -463.95317 -3728.375 C -463.95317 -3728.624 -464.1487 -3728.8194 -464.3976 -3728.8194 C -464.6465 -3728.8194 -464.84206 -3728.624 -464.84206 -3728.375 L -464.84206 -3726.1528 L -467.0643 -3726.1528 C -467.31317 -3726.1528 -467.5087 -3725.957 -467.5087 -3725.7083 C -467.5087 -3725.4594 -467.31317 -3725.264 -467.0643 -3725.264 L -464.84206 -3725.264 L -464.84206 -3723.0417 C -464.84206 -3722.7928 -464.6465 -3722.597 -464.3976 -3722.597 C -464.1487 -3722.597 -463.95317 -3722.7928 -463.95317 -3723.0417 Z M -469.73094 -3725.264 C -469.48206 -3725.264 -469.2865 -3725.4594 -469.2865 -3725.7083 C -469.2865 -3725.957 -469.48206 -3726.1528 -469.73094 -3726.1528 L -476.84206 -3726.1528 C -477.09094 -3726.1528 -477.2865 -3725.957 -477.2865 -3725.7083 C -477.2865 -3725.4594 -477.09094 -3725.264 -476.84206 -3725.264 Z M -467.0643 -3729.7083 C -466.8154 -3729.7083 -466.61983 -3729.904 -466.61983 -3730.1528 C -466.61983 -3730.4017 -466.8154 -3730.597 -467.0643 -3730.597 L -476.84206 -3730.597 C -477.09094 -3730.597 -477.2865 -3730.4017 -477.2865 -3730.1528 C -477.2865 -3729.904 -477.09094 -3729.7083 -476.84206 -3729.7083 Z M -461.73094 -3734.1528 C -461.48206 -3734.1528 -461.2865 -3734.3483 -461.2865 -3734.597 C -461.2865 -3734.846 -461.48206 -3735.0417 -461.73094 -3735.0417 L -476.84206 -3735.0417 C -477.09094 -3735.0417 -477.2865 -3734.846 -477.2865 -3734.597 C -477.2865 -3734.3483 -477.09094 -3734.1528 -476.84206 -3734.1528 Z" fill="#5c76a1"/>
        </g>
      </g>
    </g>
  </g>
</svg>
