<?xml version="1.0" encoding="UTF-8" standalone="no"?>
<!DOCTYPE svg PUBLIC "-//W3C//DTD SVG 1.1//EN" "http://www.w3.org/Graphics/SVG/1.1/DTD/svg11.dtd">
<svg version="1.1" xmlns="http://www.w3.org/2000/svg" xmlns:xl="http://www.w3.org/1999/xlink" xmlns:dc="http://purl.org/dc/elements/1.1/" viewBox="-601.7865 -3742.3194 25 25" width="25" height="25">
  <defs/>
  <g id="SOURCES" stroke-dasharray="none" fill="none" stroke="none" fill-opacity="1" stroke-opacity="1">
    <title>SOURCES</title>
    <g id="SOURCES_Calque_2">
      <title>Calque 2</title>
      <g id="Graphic_9076">
        <path d="M -597.4465 -3741.8194 L -581.1265 -3741.8194 C -579.0057 -3741.8194 -577.2865 -3740.1 -577.2865 -3737.9794 L -577.2865 -3721.6594 C -577.2865 -3719.5387 -579.0057 -3717.8194 -581.1265 -3717.8194 L -597.4465 -3717.8194 C -599.5673 -3717.8194 -601.2865 -3719.5387 -601.2865 -3721.6594 L -601.2865 -3737.9794 C -601.2865 -3740.1 -599.5673 -3741.8194 -597.4465 -3741.8194 Z" fill="white"/>
        <path d="M -597.4465 -3741.8194 L -581.1265 -3741.8194 C -579.0057 -3741.8194 -577.2865 -3740.1 -577.2865 -3737.9794 L -577.2865 -3721.6594 C -577.2865 -3719.5387 -579.0057 -3717.8194 -581.1265 -3717.8194 L -597.4465 -3717.8194 C -599.5673 -3717.8194 -601.2865 -3719.5387 -601.2865 -3721.6594 L -601.2865 -3737.9794 C -601.2865 -3740.1 -599.5673 -3741.8194 -597.4465 -3741.8194 Z" stroke="black" stroke-linecap="round" stroke-linejoin="round" stroke-width=".25"/>
      </g>
      <g id="Group_9074">
        <title>book-alt</title>
        <g id="Graphic_9075">
          <path d="M -595.6865 -3735.8194 C -595.6865 -3736.9234 -594.7905 -3737.8194 -593.6865 -3737.8194 L -583.2865 -3737.8194 C -583.0625 -3737.8194 -582.8865 -3737.6434 -582.8865 -3737.4194 C -582.8865 -3737.1954 -583.0625 -3737.0194 -583.2865 -3737.0194 L -593.6865 -3737.0194 C -594.3505 -3737.0194 -594.8865 -3736.4834 -594.8865 -3735.8194 C -594.8865 -3735.1554 -594.3505 -3734.6194 -593.6865 -3734.6194 L -584.8865 -3734.6194 C -583.7825 -3734.6194 -582.8865 -3733.7234 -582.8865 -3732.6194 L -582.8865 -3723.8194 C -582.8865 -3722.7154 -583.7825 -3721.8194 -584.8865 -3721.8194 L -592.0865 -3721.8194 C -594.0785 -3721.8194 -595.6865 -3723.4274 -595.6865 -3725.4194 Z M -594.8865 -3725.4194 C -594.8865 -3723.8754 -593.6305 -3722.6194 -592.0865 -3722.6194 L -584.8865 -3722.6194 C -584.2225 -3722.6194 -583.6865 -3723.1554 -583.6865 -3723.8194 L -583.6865 -3732.6194 C -583.6865 -3733.2834 -584.2225 -3733.8194 -584.8865 -3733.8194 L -593.6865 -3733.8194 C -594.1345 -3733.8194 -594.5505 -3733.9714 -594.8865 -3734.2194 Z M -593.6865 -3735.4194 C -593.9105 -3735.4194 -594.0865 -3735.5954 -594.0865 -3735.8194 C -594.0865 -3736.0434 -593.9105 -3736.2194 -593.6865 -3736.2194 L -583.2865 -3736.2194 C -583.0625 -3736.2194 -582.8865 -3736.0434 -582.8865 -3735.8194 C -582.8865 -3735.5954 -583.0625 -3735.4194 -583.2865 -3735.4194 Z M -592.4865 -3731.0194 C -592.4865 -3731.2434 -592.3105 -3731.4194 -592.0865 -3731.4194 L -586.4865 -3731.4194 C -586.2625 -3731.4194 -586.0865 -3731.2434 -586.0865 -3731.0194 L -586.0865 -3728.6194 C -586.0865 -3728.3954 -586.2625 -3728.2194 -586.4865 -3728.2194 L -592.0865 -3728.2194 C -592.3105 -3728.2194 -592.4865 -3728.3954 -592.4865 -3728.6194 Z M -591.6865 -3729.0194 L -586.8865 -3729.0194 L -586.8865 -3730.6194 L -591.6865 -3730.6194 Z M -592.0865 -3726.6194 C -592.3105 -3726.6194 -592.4865 -3726.7954 -592.4865 -3727.0194 C -592.4865 -3727.2434 -592.3105 -3727.4194 -592.0865 -3727.4194 L -586.4865 -3727.4194 C -586.2625 -3727.4194 -586.0865 -3727.2434 -586.0865 -3727.0194 C -586.0865 -3726.7954 -586.2625 -3726.6194 -586.4865 -3726.6194 Z M -592.0865 -3725.0194 C -592.3105 -3725.0194 -592.4865 -3725.1954 -592.4865 -3725.4194 C -592.4865 -3725.6434 -592.3105 -3725.8194 -592.0865 -3725.8194 L -588.8865 -3725.8194 C -588.6625 -3725.8194 -588.4865 -3725.6434 -588.4865 -3725.4194 C -588.4865 -3725.1954 -588.6625 -3725.0194 -588.8865 -3725.0194 Z" fill="#5c76a1"/>
        </g>
      </g>
    </g>
  </g>
</svg>
