<svg height="25" viewBox="-601.787 -3742.319 25 25" width="25" xmlns="http://www.w3.org/2000/svg"><g fill="none"><path d="m-597.4465-3741.8194h16.32c2.1208 0 3.84 1.7194 3.84 3.84v16.32c0 2.1207-1.7192 3.84-3.84 3.84h-16.32c-2.1208 0-3.84-1.7193-3.84-3.84v-16.32c0-2.1206 1.7192-3.84 3.84-3.84z" fill="#fff"/><path d="m-597.4465-3741.8194h16.32c2.1208 0 3.84 1.7194 3.84 3.84v16.32c0 2.1207-1.7192 3.84-3.84 3.84h-16.32c-2.1208 0-3.84-1.7193-3.84-3.84v-16.32c0-2.1206 1.7192-3.84 3.84-3.84z" stroke="#000" stroke-linecap="round" stroke-linejoin="round" stroke-width=".25"/><path d="m-595.6865-3735.8194c0-1.104.896-2 2-2h10.4c.224 0 .4.176.4.4s-.176.4-.4.4h-10.4c-.664 0-1.2.536-1.2 1.2s.536 1.2 1.2 1.2h8.8c1.104 0 2 .896 2 2v8.8c0 1.104-.896 2-2 2h-7.2c-1.992 0-3.6-1.608-3.6-3.6zm.8 10.4c0 1.544 1.256 2.8 2.8 2.8h7.2c.664 0 1.2-.536 1.2-1.2v-8.8c0-.664-.536-1.2-1.2-1.2h-8.8c-.448 0-.864-.152-1.2-.4zm1.2-10c-.224 0-.4-.176-.4-.4s.176-.4.4-.4h10.4c.224 0 .4.176.4.4s-.176.4-.4.4zm1.2 4.4c0-.224.176-.4.4-.4h5.6c.224 0 .4.176.4.4v2.4c0 .224-.176.4-.4.4h-5.6c-.224 0-.4-.176-.4-.4zm.8 2h4.8v-1.6h-4.8zm-.4 2.4c-.224 0-.4-.176-.4-.4s.176-.4.4-.4h5.6c.224 0 .4.176.4.4s-.176.4-.4.4zm0 1.6c-.224 0-.4-.176-.4-.4s.176-.4.4-.4h3.2c.224 0 .4.176.4.4s-.176.4-.4.4z" fill="#5c76a1"/></g></svg>