<?xml version="1.0" encoding="UTF-8" standalone="no"?>
<!DOCTYPE svg PUBLIC "-//W3C//DTD SVG 1.1//EN" "http://www.w3.org/Graphics/SVG/1.1/DTD/svg11.dtd">
<svg version="1.1" xmlns="http://www.w3.org/2000/svg" xmlns:xl="http://www.w3.org/1999/xlink" xmlns:dc="http://purl.org/dc/elements/1.1/" viewBox="-521.7865 -3741.3194 25 25" width="25" height="25">
  <defs/>
  <g id="SOURCES" stroke-dasharray="none" fill="none" stroke="none" fill-opacity="1" stroke-opacity="1">
    <title>SOURCES</title>
    <g id="SOURCES_Calque_2">
      <title>Calque 2</title>
      <g id="Group_9095">
        <g id="Graphic_9082">
          <path d="M -517.4465 -3740.8194 L -501.1265 -3740.8194 C -499.0057 -3740.8194 -497.2865 -3739.1 -497.2865 -3736.9794 L -497.2865 -3720.6594 C -497.2865 -3718.5387 -499.0057 -3716.8194 -501.1265 -3716.8194 L -517.4465 -3716.8194 C -519.5673 -3716.8194 -521.2865 -3718.5387 -521.2865 -3720.6594 L -521.2865 -3736.9794 C -521.2865 -3739.1 -519.5673 -3740.8194 -517.4465 -3740.8194 Z" fill="white"/>
          <path d="M -517.4465 -3740.8194 L -501.1265 -3740.8194 C -499.0057 -3740.8194 -497.2865 -3739.1 -497.2865 -3736.9794 L -497.2865 -3720.6594 C -497.2865 -3718.5387 -499.0057 -3716.8194 -501.1265 -3716.8194 L -517.4465 -3716.8194 C -519.5673 -3716.8194 -521.2865 -3718.5387 -521.2865 -3720.6594 L -521.2865 -3736.9794 C -521.2865 -3739.1 -519.5673 -3740.8194 -517.4465 -3740.8194 Z" stroke="black" stroke-linecap="round" stroke-linejoin="round" stroke-width=".25"/>
        </g>
        <g id="Group_9080">
          <title>information-architecture</title>
          <g id="Graphic_9081">
            <path d="M -514.4865 -3736.0194 C -514.7105 -3736.0194 -514.8865 -3735.8434 -514.8865 -3735.6194 L -514.8865 -3733.2194 C -514.8865 -3732.9954 -514.7105 -3732.8194 -514.4865 -3732.8194 L -507.2865 -3732.8194 C -507.0625 -3732.8194 -506.8865 -3732.9954 -506.8865 -3733.2194 L -506.8865 -3735.6194 C -506.8865 -3735.8434 -507.0625 -3736.0194 -507.2865 -3736.0194 Z M -514.4865 -3736.8194 L -507.2865 -3736.8194 C -506.6225 -3736.8194 -506.0865 -3736.2834 -506.0865 -3735.6194 L -506.0865 -3733.2194 C -506.0865 -3732.5554 -506.6225 -3732.0194 -507.2865 -3732.0194 L -514.4865 -3732.0194 C -515.1505 -3732.0194 -515.6865 -3732.5554 -515.6865 -3733.2194 L -515.6865 -3735.6194 C -515.6865 -3736.2834 -515.1505 -3736.8194 -514.4865 -3736.8194 Z M -513.6865 -3735.2194 L -512.8865 -3735.2194 C -512.6625 -3735.2194 -512.4865 -3735.0434 -512.4865 -3734.8194 L -512.4865 -3734.0194 C -512.4865 -3733.7954 -512.6625 -3733.6194 -512.8865 -3733.6194 L -513.6865 -3733.6194 C -513.9105 -3733.6194 -514.0865 -3733.7954 -514.0865 -3734.0194 L -514.0865 -3734.8194 C -514.0865 -3735.0434 -513.9105 -3735.2194 -513.6865 -3735.2194 Z M -511.2865 -3735.2194 L -510.4865 -3735.2194 C -510.2625 -3735.2194 -510.0865 -3735.0434 -510.0865 -3734.8194 L -510.0865 -3734.0194 C -510.0865 -3733.7954 -510.2625 -3733.6194 -510.4865 -3733.6194 L -511.2865 -3733.6194 C -511.5105 -3733.6194 -511.6865 -3733.7954 -511.6865 -3734.0194 L -511.6865 -3734.8194 C -511.6865 -3735.0434 -511.5105 -3735.2194 -511.2865 -3735.2194 Z M -505.2865 -3725.6194 L -505.2865 -3726.4194 L -507.2865 -3726.4194 C -507.9505 -3726.4194 -508.4865 -3726.9554 -508.4865 -3727.6194 L -508.4865 -3728.4194 C -508.4865 -3729.0834 -507.9505 -3729.6194 -507.2865 -3729.6194 L -505.2865 -3729.6194 L -505.2865 -3730.0194 C -505.2865 -3730.2434 -505.4625 -3730.4194 -505.6865 -3730.4194 L -512.8865 -3730.4194 C -513.1105 -3730.4194 -513.2865 -3730.2434 -513.2865 -3730.0194 L -513.2865 -3729.6194 L -511.2865 -3729.6194 C -510.6225 -3729.6194 -510.0865 -3729.0834 -510.0865 -3728.4194 L -510.0865 -3727.6194 C -510.0865 -3726.9554 -510.6225 -3726.4194 -511.2865 -3726.4194 L -516.0865 -3726.4194 C -516.7505 -3726.4194 -517.2865 -3726.9554 -517.2865 -3727.6194 L -517.2865 -3728.4194 C -517.2865 -3729.0834 -516.7505 -3729.6194 -516.0865 -3729.6194 L -514.0865 -3729.6194 L -514.0865 -3730.0194 C -514.0865 -3730.6834 -513.5505 -3731.2194 -512.8865 -3731.2194 L -510.8865 -3731.2194 L -510.8865 -3732.4194 C -510.8865 -3732.6434 -510.7105 -3732.8194 -510.4865 -3732.8194 C -510.2625 -3732.8194 -510.0865 -3732.6434 -510.0865 -3732.4194 L -510.0865 -3731.2194 L -505.6865 -3731.2194 C -505.0225 -3731.2194 -504.4865 -3730.6834 -504.4865 -3730.0194 L -504.4865 -3729.6194 L -502.4865 -3729.6194 C -501.8225 -3729.6194 -501.2865 -3729.0834 -501.2865 -3728.4194 L -501.2865 -3727.6194 C -501.2865 -3726.9554 -501.8225 -3726.4194 -502.4865 -3726.4194 L -504.4865 -3726.4194 L -504.4865 -3725.5474 C -504.0225 -3725.3794 -503.6865 -3724.9394 -503.6865 -3724.4194 L -503.6865 -3724.0194 L -503.2865 -3724.0194 C -502.6225 -3724.0194 -502.0865 -3723.4834 -502.0865 -3722.8194 L -502.0865 -3722.0194 C -502.0865 -3721.3554 -502.6225 -3720.8194 -503.2865 -3720.8194 L -504.8865 -3720.8194 C -505.5505 -3720.8194 -506.0865 -3721.3554 -506.0865 -3722.0194 L -506.0865 -3722.8194 C -506.0865 -3723.4834 -505.5505 -3724.0194 -504.8865 -3724.0194 L -504.4865 -3724.0194 L -504.4865 -3724.4194 C -504.4865 -3724.6434 -504.6625 -3724.8194 -504.8865 -3724.8194 L -509.2865 -3724.8194 L -509.2865 -3724.0194 L -508.8865 -3724.0194 C -508.2225 -3724.0194 -507.6865 -3723.4834 -507.6865 -3722.8194 L -507.6865 -3722.0194 C -507.6865 -3721.3554 -508.2225 -3720.8194 -508.8865 -3720.8194 L -510.4865 -3720.8194 C -511.1505 -3720.8194 -511.6865 -3721.3554 -511.6865 -3722.0194 L -511.6865 -3722.8194 C -511.6865 -3723.4834 -511.1505 -3724.0194 -510.4865 -3724.0194 L -510.0865 -3724.0194 L -510.0865 -3724.8194 L -514.4865 -3724.8194 C -514.7105 -3724.8194 -514.8865 -3724.6434 -514.8865 -3724.4194 L -514.8865 -3724.0194 L -514.4865 -3724.0194 C -513.8225 -3724.0194 -513.2865 -3723.4834 -513.2865 -3722.8194 L -513.2865 -3722.0194 C -513.2865 -3721.3554 -513.8225 -3720.8194 -514.4865 -3720.8194 L -516.0865 -3720.8194 C -516.7505 -3720.8194 -517.2865 -3721.3554 -517.2865 -3722.0194 L -517.2865 -3722.8194 C -517.2865 -3723.4834 -516.7505 -3724.0194 -516.0865 -3724.0194 L -515.6865 -3724.0194 L -515.6865 -3724.4194 C -515.6865 -3725.0834 -515.1505 -3725.6194 -514.4865 -3725.6194 Z M -508.8865 -3735.2194 L -508.0865 -3735.2194 C -507.8625 -3735.2194 -507.6865 -3735.0434 -507.6865 -3734.8194 L -507.6865 -3734.0194 C -507.6865 -3733.7954 -507.8625 -3733.6194 -508.0865 -3733.6194 L -508.8865 -3733.6194 C -509.1105 -3733.6194 -509.2865 -3733.7954 -509.2865 -3734.0194 L -509.2865 -3734.8194 C -509.2865 -3735.0434 -509.1105 -3735.2194 -508.8865 -3735.2194 Z M -507.2865 -3728.8194 C -507.5105 -3728.8194 -507.6865 -3728.6434 -507.6865 -3728.4194 L -507.6865 -3727.6194 C -507.6865 -3727.3954 -507.5105 -3727.2194 -507.2865 -3727.2194 L -502.4865 -3727.2194 C -502.2625 -3727.2194 -502.0865 -3727.3954 -502.0865 -3727.6194 L -502.0865 -3728.4194 C -502.0865 -3728.6434 -502.2625 -3728.8194 -502.4865 -3728.8194 Z M -516.0865 -3728.8194 C -516.3105 -3728.8194 -516.4865 -3728.6434 -516.4865 -3728.4194 L -516.4865 -3727.6194 C -516.4865 -3727.3954 -516.3105 -3727.2194 -516.0865 -3727.2194 L -511.2865 -3727.2194 C -511.0625 -3727.2194 -510.8865 -3727.3954 -510.8865 -3727.6194 L -510.8865 -3728.4194 C -510.8865 -3728.6434 -511.0625 -3728.8194 -511.2865 -3728.8194 Z M -516.0865 -3723.2194 C -516.3105 -3723.2194 -516.4865 -3723.0434 -516.4865 -3722.8194 L -516.4865 -3722.0194 C -516.4865 -3721.7954 -516.3105 -3721.6194 -516.0865 -3721.6194 L -514.4865 -3721.6194 C -514.2625 -3721.6194 -514.0865 -3721.7954 -514.0865 -3722.0194 L -514.0865 -3722.8194 C -514.0865 -3723.0434 -514.2625 -3723.2194 -514.4865 -3723.2194 Z M -510.4865 -3723.2194 C -510.7105 -3723.2194 -510.8865 -3723.0434 -510.8865 -3722.8194 L -510.8865 -3722.0194 C -510.8865 -3721.7954 -510.7105 -3721.6194 -510.4865 -3721.6194 L -508.8865 -3721.6194 C -508.6625 -3721.6194 -508.4865 -3721.7954 -508.4865 -3722.0194 L -508.4865 -3722.8194 C -508.4865 -3723.0434 -508.6625 -3723.2194 -508.8865 -3723.2194 Z M -504.8865 -3723.2194 C -505.1105 -3723.2194 -505.2865 -3723.0434 -505.2865 -3722.8194 L -505.2865 -3722.0194 C -505.2865 -3721.7954 -505.1105 -3721.6194 -504.8865 -3721.6194 L -503.2865 -3721.6194 C -503.0625 -3721.6194 -502.8865 -3721.7954 -502.8865 -3722.0194 L -502.8865 -3722.8194 C -502.8865 -3723.0434 -503.0625 -3723.2194 -503.2865 -3723.2194 Z" fill="#518737"/>
          </g>
        </g>
      </g>
    </g>
  </g>
</svg>
