<?xml version="1.0" encoding="UTF-8" standalone="no"?>
<!DOCTYPE svg PUBLIC "-//W3C//DTD SVG 1.1//EN" "http://www.w3.org/Graphics/SVG/1.1/DTD/svg11.dtd">
<svg version="1.1" xmlns="http://www.w3.org/2000/svg" xmlns:xl="http://www.w3.org/1999/xlink" xmlns:dc="http://purl.org/dc/elements/1.1/" viewBox="-399.6305 -3737.64 25 25" width="25" height="25">
  <defs/>
  <g id="SOURCES" stroke-dasharray="none" fill="none" stroke="none" fill-opacity="1" stroke-opacity="1">
    <title>SOURCES</title>
    <g id="SOURCES_Calque_2">
      <title>Calque 2</title>
      <g id="Group_9152">
        <g id="Graphic_9128">
          <path d="M -395.2905 -3737.14 L -378.9705 -3737.14 C -376.84973 -3737.14 -375.1305 -3735.4206 -375.1305 -3733.3 L -375.1305 -3716.98 C -375.1305 -3714.859 -376.84973 -3713.14 -378.9705 -3713.14 L -395.2905 -3713.14 C -397.41127 -3713.14 -399.1305 -3714.859 -399.1305 -3716.98 L -399.1305 -3733.3 C -399.1305 -3735.4206 -397.41127 -3737.14 -395.2905 -3737.14 Z" fill="white"/>
          <path d="M -395.2905 -3737.14 L -378.9705 -3737.14 C -376.84973 -3737.14 -375.1305 -3735.4206 -375.1305 -3733.3 L -375.1305 -3716.98 C -375.1305 -3714.859 -376.84973 -3713.14 -378.9705 -3713.14 L -395.2905 -3713.14 C -397.41127 -3713.14 -399.1305 -3714.859 -399.1305 -3716.98 L -399.1305 -3733.3 C -399.1305 -3735.4206 -397.41127 -3737.14 -395.2905 -3737.14 Z" stroke="black" stroke-linecap="round" stroke-linejoin="round" stroke-width=".25"/>
        </g>
        <g id="Group_9149">
          <g id="Graphic_9126">
            <path d="M -388.1264 -3719.1042 C -388.3753 -3719.1042 -388.57085 -3719.3 -388.57085 -3719.5487 C -388.57085 -3719.7976 -388.3753 -3719.993 -388.1264 -3719.993 L -383.68196 -3719.993 C -383.43307 -3719.993 -383.2375 -3719.7976 -383.2375 -3719.5487 C -383.2375 -3719.3 -383.43307 -3719.1042 -383.68196 -3719.1042 Z M -388.1264 -3726.2154 C -388.3753 -3726.2154 -388.57085 -3726.411 -388.57085 -3726.66 C -388.57085 -3726.9087 -388.3753 -3727.1042 -388.1264 -3727.1042 L -383.68196 -3727.1042 C -383.43307 -3727.1042 -383.2375 -3726.9087 -383.2375 -3726.66 C -383.2375 -3726.411 -383.43307 -3726.2154 -383.68196 -3726.2154 Z M -388.1264 -3729.771 C -388.3753 -3729.771 -388.57085 -3729.9665 -388.57085 -3730.2154 C -388.57085 -3730.4642 -388.3753 -3730.66 -388.1264 -3730.66 L -381.0153 -3730.66 C -380.7664 -3730.66 -380.57085 -3730.4642 -380.57085 -3730.2154 C -380.57085 -3729.9665 -380.7664 -3729.771 -381.0153 -3729.771 Z M -388.1264 -3722.66 C -388.3753 -3722.66 -388.57085 -3722.8554 -388.57085 -3723.1042 C -388.57085 -3723.353 -388.3753 -3723.5487 -388.1264 -3723.5487 L -381.0153 -3723.5487 C -380.7664 -3723.5487 -380.57085 -3723.353 -380.57085 -3723.1042 C -380.57085 -3722.8554 -380.7664 -3722.66 -381.0153 -3722.66 Z" fill="#5c76a1"/>
          </g>
          <g id="Graphic_9125">
            <path d="M -392.40517 -3732.6954 C -392.40517 -3732.9442 -392.2096 -3733.14 -391.96073 -3733.14 C -391.71184 -3733.14 -391.5163 -3732.9442 -391.5163 -3732.6954 L -391.5163 -3717.5842 C -391.5163 -3717.3354 -391.71184 -3717.14 -391.96073 -3717.14 C -392.2096 -3717.14 -392.40517 -3717.3354 -392.40517 -3717.5842 Z" fill="#5c76a1"/>
          </g>
          <g id="Graphic_9124">
            <circle cx="-392.09904" cy="-3729.5842" r="1.59111365355065" fill="white"/>
            <circle cx="-392.09904" cy="-3729.5842" r="1.59111365355065" stroke="#c2c2c2" stroke-linecap="butt" stroke-linejoin="round" stroke-width="1"/>
          </g>
          <g id="Graphic_9123">
            <circle cx="-392.09904" cy="-3720.5087" r="1.59111365355059" fill="white"/>
            <circle cx="-392.09904" cy="-3720.5087" r="1.59111365355059" stroke="#c2c2c2" stroke-linecap="butt" stroke-linejoin="round" stroke-width="1"/>
          </g>
        </g>
      </g>
    </g>
  </g>
</svg>
