<?xml version="1.0" encoding="UTF-8" standalone="no"?>
<!DOCTYPE svg PUBLIC "-//W3C//DTD SVG 1.1//EN" "http://www.w3.org/Graphics/SVG/1.1/DTD/svg11.dtd">
<svg version="1.1" xmlns="http://www.w3.org/2000/svg" xmlns:xl="http://www.w3.org/1999/xlink" xmlns:dc="http://purl.org/dc/elements/1.1/" viewBox="-401.2215 -3742.3194 25 25" width="25" height="25">
  <defs/>
  <g id="SOURCES" stroke-dasharray="none" fill="none" stroke="none" fill-opacity="1" stroke-opacity="1">
    <title>SOURCES</title>
    <g id="SOURCES_Calque_2">
      <title>Calque 2</title>
      <g id="Graphic_9100">
        <path d="M -396.8815 -3741.8194 L -380.5615 -3741.8194 C -378.44075 -3741.8194 -376.7215 -3740.1 -376.7215 -3737.9794 L -376.7215 -3721.6594 C -376.7215 -3719.5387 -378.44075 -3717.8194 -380.5615 -3717.8194 L -396.8815 -3717.8194 C -399.0023 -3717.8194 -400.7215 -3719.5387 -400.7215 -3721.6594 L -400.7215 -3737.9794 C -400.7215 -3740.1 -399.0023 -3741.8194 -396.8815 -3741.8194 Z" fill="white"/>
        <path d="M -396.8815 -3741.8194 L -380.5615 -3741.8194 C -378.44075 -3741.8194 -376.7215 -3740.1 -376.7215 -3737.9794 L -376.7215 -3721.6594 C -376.7215 -3719.5387 -378.44075 -3717.8194 -380.5615 -3717.8194 L -396.8815 -3717.8194 C -399.0023 -3717.8194 -400.7215 -3719.5387 -400.7215 -3721.6594 L -400.7215 -3737.9794 C -400.7215 -3740.1 -399.0023 -3741.8194 -396.8815 -3741.8194 Z" stroke="black" stroke-linecap="round" stroke-linejoin="round" stroke-width=".25"/>
      </g>
      <g id="Group_9117">
        <g id="Group_9114">
          <title>indent-left-alt</title>
          <g id="Graphic_9115">
            <path d="M -391.92084 -3737.375 C -391.92084 -3737.624 -391.7253 -3737.8194 -391.4764 -3737.8194 C -391.2275 -3737.8194 -391.03195 -3737.624 -391.03195 -3737.375 L -391.03195 -3722.264 C -391.03195 -3722.015 -391.2275 -3721.8194 -391.4764 -3721.8194 C -391.7253 -3721.8194 -391.92084 -3722.015 -391.92084 -3722.264 Z M -388.80973 -3723.597 C -389.0586 -3723.597 -389.25417 -3723.7928 -389.25417 -3724.0417 C -389.25417 -3724.2906 -389.0586 -3724.486 -388.80973 -3724.486 L -384.3653 -3724.486 C -384.1164 -3724.486 -383.92084 -3724.2906 -383.92084 -3724.0417 C -383.92084 -3723.7928 -384.1164 -3723.597 -384.3653 -3723.597 Z M -388.80973 -3730.7083 C -389.0586 -3730.7083 -389.25417 -3730.904 -389.25417 -3731.1528 C -389.25417 -3731.4017 -389.0586 -3731.597 -388.80973 -3731.597 L -384.3653 -3731.597 C -384.1164 -3731.597 -383.92084 -3731.4017 -383.92084 -3731.1528 C -383.92084 -3730.904 -384.1164 -3730.7083 -384.3653 -3730.7083 Z M -388.80973 -3734.264 C -389.0586 -3734.264 -389.25417 -3734.4594 -389.25417 -3734.7083 C -389.25417 -3734.957 -389.0586 -3735.1528 -388.80973 -3735.1528 L -381.6986 -3735.1528 C -381.44973 -3735.1528 -381.25417 -3734.957 -381.25417 -3734.7083 C -381.25417 -3734.4594 -381.44973 -3734.264 -381.6986 -3734.264 Z M -388.80973 -3727.1528 C -389.0586 -3727.1528 -389.25417 -3727.3483 -389.25417 -3727.597 C -389.25417 -3727.846 -389.0586 -3728.0417 -388.80973 -3728.0417 L -381.6986 -3728.0417 C -381.44973 -3728.0417 -381.25417 -3727.846 -381.25417 -3727.597 C -381.25417 -3727.3483 -381.44973 -3727.1528 -381.6986 -3727.1528 Z" fill="#5c76a1"/>
          </g>
        </g>
        <g id="Group_9112">
          <title>list-number</title>
          <g id="Graphic_9113">
            <path d="M -394.40973 -3732.9306 L -393.9653 -3732.9306 C -393.7164 -3732.9306 -393.52084 -3732.735 -393.52084 -3732.486 C -393.52084 -3732.237 -393.7164 -3732.0417 -393.9653 -3732.0417 L -395.74306 -3732.0417 C -395.99195 -3732.0417 -396.1875 -3732.237 -396.1875 -3732.486 C -396.1875 -3732.735 -395.99195 -3732.9306 -395.74306 -3732.9306 L -395.2986 -3732.9306 L -395.2986 -3735.597 L -395.74306 -3735.597 C -395.99195 -3735.597 -396.1875 -3735.7928 -396.1875 -3736.0417 C -396.1875 -3736.2906 -395.99195 -3736.486 -395.74306 -3736.486 L -394.85417 -3736.486 C -394.6053 -3736.486 -394.40973 -3736.2906 -394.40973 -3736.0417 Z M -395.2986 -3730.264 L -395.2986 -3729.8194 C -395.2986 -3729.5706 -395.49417 -3729.375 -395.74306 -3729.375 C -395.99195 -3729.375 -396.1875 -3729.5706 -396.1875 -3729.8194 L -396.1875 -3730.7083 C -396.1875 -3730.957 -395.99195 -3731.1528 -395.74306 -3731.1528 L -393.9653 -3731.1528 C -393.7164 -3731.1528 -393.52084 -3730.957 -393.52084 -3730.7083 L -393.52084 -3729.8194 C -393.52084 -3729.704 -393.5653 -3729.5883 -393.65417 -3729.5083 L -394.6764 -3728.486 L -393.97417 -3728.486 C -393.7253 -3728.486 -393.52973 -3728.2906 -393.52973 -3728.0417 C -393.52973 -3727.7928 -393.7253 -3727.597 -393.97417 -3727.597 L -395.74306 -3727.597 C -396.14306 -3727.597 -396.3386 -3728.077 -396.05417 -3728.3528 L -394.40973 -3729.997 L -394.40973 -3730.255 L -395.2986 -3730.255 Z M -395.74306 -3725.8194 C -395.99195 -3725.8194 -396.1875 -3726.015 -396.1875 -3726.264 C -396.1875 -3726.5128 -395.99195 -3726.7083 -395.74306 -3726.7083 L -393.9653 -3726.7083 C -393.7164 -3726.7083 -393.52084 -3726.5128 -393.52084 -3726.264 L -393.52084 -3725.375 C -393.52084 -3725.2594 -393.5653 -3725.144 -393.65417 -3725.064 L -393.7875 -3724.9306 L -393.65417 -3724.797 C -393.57417 -3724.717 -393.52084 -3724.6017 -393.52084 -3724.486 L -393.52084 -3723.597 C -393.52084 -3723.3483 -393.7164 -3723.1528 -393.9653 -3723.1528 L -395.74306 -3723.1528 C -395.99195 -3723.1528 -396.1875 -3723.3483 -396.1875 -3723.597 C -396.1875 -3723.846 -395.99195 -3724.0417 -395.74306 -3724.0417 L -394.40973 -3724.0417 L -394.40973 -3724.2994 L -394.72084 -3724.6106 C -394.8986 -3724.7883 -394.8986 -3725.064 -394.72084 -3725.2417 L -394.40973 -3725.5528 L -394.40973 -3725.8106 L -395.74306 -3725.8106 Z" fill="#518738"/>
          </g>
        </g>
      </g>
    </g>
  </g>
</svg>
