<?xml version="1.0" encoding="UTF-8" standalone="no"?>
<!DOCTYPE svg PUBLIC "-//W3C//DTD SVG 1.1//EN" "http://www.w3.org/Graphics/SVG/1.1/DTD/svg11.dtd">
<svg version="1.1" xmlns="http://www.w3.org/2000/svg" xmlns:xl="http://www.w3.org/1999/xlink" xmlns:dc="http://purl.org/dc/elements/1.1/" viewBox="-241.78654 -3737.64 25 25" width="25" height="25">
  <defs/>
  <g id="SOURCES" stroke-dasharray="none" fill="none" stroke="none" fill-opacity="1" stroke-opacity="1">
    <title>SOURCES</title>
    <g id="SOURCES_Calque_2">
      <title>Calque 2</title>
      <g id="Group_9158">
        <g id="Graphic_9153">
          <title>views/view.other</title>
          <path d="M -237.44654 -3737.14 L -221.12654 -3737.14 C -219.00576 -3737.14 -217.28654 -3735.4206 -217.28654 -3733.3 L -217.28654 -3716.98 C -217.28654 -3714.859 -219.00576 -3713.14 -221.12654 -3713.14 L -237.44654 -3713.14 C -239.5673 -3713.14 -241.28654 -3714.859 -241.28654 -3716.98 L -241.28654 -3733.3 C -241.28654 -3735.4206 -239.5673 -3737.14 -237.44654 -3737.14 Z" fill="white"/>
          <path d="M -237.44654 -3737.14 L -221.12654 -3737.14 C -219.00576 -3737.14 -217.28654 -3735.4206 -217.28654 -3733.3 L -217.28654 -3716.98 C -217.28654 -3714.859 -219.00576 -3713.14 -221.12654 -3713.14 L -237.44654 -3713.14 C -239.5673 -3713.14 -241.28654 -3714.859 -241.28654 -3716.98 L -241.28654 -3733.3 C -241.28654 -3735.4206 -239.5673 -3737.14 -237.44654 -3737.14 Z" stroke="black" stroke-linecap="round" stroke-linejoin="round" stroke-width=".25"/>
        </g>
        <g id="Group_9154">
          <g id="Line_9156">
            <line x1="-230.39707" y1="-3720.1568" x2="-223.28653" y2="-3730.123" stroke="#5c76a2" stroke-linecap="round" stroke-linejoin="round" stroke-width="1"/>
          </g>
          <g id="Line_9155">
            <line x1="-235.28654" y1="-3720.1568" x2="-228.176" y2="-3730.123" stroke="#5c76a2" stroke-linecap="round" stroke-linejoin="round" stroke-width="1"/>
          </g>
        </g>
      </g>
    </g>
  </g>
</svg>
