<svg height="25" viewBox="-401.221 -3742.319 25 25" width="25" xmlns="http://www.w3.org/2000/svg"><g fill="none"><path d="m-396.8815-3741.8194h16.32c2.12075 0 3.84 1.7194 3.84 3.84v16.32c0 2.1207-1.71925 3.84-3.84 3.84h-16.32c-2.1208 0-3.84-1.7193-3.84-3.84v-16.32c0-2.1206 1.7192-3.84 3.84-3.84z" fill="#fff"/><path d="m-396.8815-3741.8194h16.32c2.12075 0 3.84 1.7194 3.84 3.84v16.32c0 2.1207-1.71925 3.84-3.84 3.84h-16.32c-2.1208 0-3.84-1.7193-3.84-3.84v-16.32c0-2.1206 1.7192-3.84 3.84-3.84z" stroke="#000" stroke-linecap="round" stroke-linejoin="round" stroke-width=".25"/><path d="m-391.92084-3737.375c0-.249.19554-.4444.44444-.4444s.44445.1954.44445.4444v15.111c0 .249-.19555.4446-.44445.4446s-.44444-.1956-.44444-.4446zm3.11111 13.778c-.24887 0-.44444-.1958-.44444-.4447s.19557-.4443.44444-.4443h4.44443c.2489 0 .44446.1954.44446.4443s-.19556.4447-.44446.4447zm0-7.1113c-.24887 0-.44444-.1957-.44444-.4445 0-.2489.19557-.4442.44444-.4442h4.44443c.2489 0 .44446.1953.44446.4442 0 .2488-.19556.4445-.44446.4445zm0-3.5557c-.24887 0-.44444-.1954-.44444-.4443 0-.2487.19557-.4445.44444-.4445h7.11113c.24887 0 .44443.1958.44443.4445 0 .2489-.19556.4443-.44443.4443zm0 7.1112c-.24887 0-.44444-.1955-.44444-.4442 0-.249.19557-.4447.44444-.4447h7.11113c.24887 0 .44443.1957.44443.4447 0 .2487-.19556.4442-.44443.4442z" fill="#5c76a1"/><path d="m-394.40973-3732.9306h.44443c.2489 0 .44446.1956.44446.4446s-.19556.4443-.44446.4443h-1.77776c-.24889 0-.44444-.1953-.44444-.4443s.19555-.4446.44444-.4446h.44446v-2.6664h-.44446c-.24889 0-.44444-.1958-.44444-.4447s.19555-.4443.44444-.4443h.88889c.24887 0 .44444.1954.44444.4443zm-.88887 2.6666v.4446c0 .2488-.19557.4444-.44446.4444s-.44444-.1956-.44444-.4444v-.8889c0-.2487.19555-.4445.44444-.4445h1.77776c.2489 0 .44446.1958.44446.4445v.8889c0 .1154-.04446.2311-.13333.3111l-1.02223 1.0223h.70223c.24887 0 .44444.1954.44444.4443s-.19557.4447-.44444.4447h-1.76889c-.4 0-.59554-.48-.31111-.7558l1.64444-1.6442v-.258h-.88887zm-.44446 4.4446c-.24889 0-.44444-.1956-.44444-.4446 0-.2488.19555-.4443.44444-.4443h1.77776c.2489 0 .44446.1955.44446.4443v.889c0 .1156-.04446.231-.13333.311l-.13333.1334.13333.1336c.08.08.13333.1953.13333.311v.889c0 .2487-.19556.4442-.44446.4442h-1.77776c-.24889 0-.44444-.1955-.44444-.4442 0-.249.19555-.4447.44444-.4447h1.33333v-.2577l-.31111-.3112c-.17776-.1777-.17776-.4534 0-.6311l.31111-.3111v-.2578h-1.33333z" fill="#518738"/></g></svg>