<?xml version="1.0" encoding="UTF-8" standalone="no"?>
<!DOCTYPE svg PUBLIC "-//W3C//DTD SVG 1.1//EN" "http://www.w3.org/Graphics/SVG/1.1/DTD/svg11.dtd">
<svg version="1.1" xmlns="http://www.w3.org/2000/svg" xmlns:xl="http://www.w3.org/1999/xlink" xmlns:dc="http://purl.org/dc/elements/1.1/" viewBox="-279.25325 -3737.64 25 25" width="25" height="25">
  <defs/>
  <g id="SOURCES" stroke-dasharray="none" fill="none" stroke="none" fill-opacity="1" stroke-opacity="1">
    <title>SOURCES</title>
    <g id="SOURCES_Calque_2">
      <title>Calque 2</title>
      <g id="Group_9151">
        <g id="Graphic_9148">
          <path d="M -258.59325 -3713.14 L -274.91325 -3713.14 C -277.03403 -3713.14 -278.75325 -3714.859 -278.75325 -3716.98 L -278.75325 -3733.3 C -278.75325 -3735.4206 -277.03403 -3737.14 -274.91325 -3737.14 L -258.59325 -3737.14 C -256.47248 -3737.14 -254.75325 -3735.4206 -254.75325 -3733.3 L -254.75325 -3716.98 C -254.75325 -3714.859 -256.47248 -3713.14 -258.59325 -3713.14 Z" fill="white"/>
          <path d="M -258.59325 -3713.14 L -274.91325 -3713.14 C -277.03403 -3713.14 -278.75325 -3714.859 -278.75325 -3716.98 L -278.75325 -3733.3 C -278.75325 -3735.4206 -277.03403 -3737.14 -274.91325 -3737.14 L -258.59325 -3737.14 C -256.47248 -3737.14 -254.75325 -3735.4206 -254.75325 -3733.3 L -254.75325 -3716.98 C -254.75325 -3714.859 -256.47248 -3713.14 -258.59325 -3713.14 Z" stroke="black" stroke-linecap="round" stroke-linejoin="round" stroke-width=".25"/>
        </g>
        <g id="Group_9150">
          <g id="Graphic_9147">
            <path d="M -266.0914 -3731.1754 C -265.8425 -3731.1754 -265.64694 -3730.98 -265.64694 -3730.731 C -265.64694 -3730.482 -265.8425 -3730.2865 -266.0914 -3730.2865 L -270.53583 -3730.2865 C -270.78472 -3730.2865 -270.98028 -3730.482 -270.98028 -3730.731 C -270.98028 -3730.98 -270.78472 -3731.1754 -270.53583 -3731.1754 Z M -266.0914 -3724.0642 C -265.8425 -3724.0642 -265.64694 -3723.8687 -265.64694 -3723.62 C -265.64694 -3723.371 -265.8425 -3723.1754 -266.0914 -3723.1754 L -270.53583 -3723.1754 C -270.78472 -3723.1754 -270.98028 -3723.371 -270.98028 -3723.62 C -270.98028 -3723.8687 -270.78472 -3724.0642 -270.53583 -3724.0642 Z M -266.0914 -3720.5087 C -265.8425 -3720.5087 -265.64694 -3720.313 -265.64694 -3720.0642 C -265.64694 -3719.8154 -265.8425 -3719.62 -266.0914 -3719.62 L -273.2025 -3719.62 C -273.4514 -3719.62 -273.64694 -3719.8154 -273.64694 -3720.0642 C -273.64694 -3720.313 -273.4514 -3720.5087 -273.2025 -3720.5087 Z M -266.0914 -3727.62 C -265.8425 -3727.62 -265.64694 -3727.4242 -265.64694 -3727.1754 C -265.64694 -3726.9265 -265.8425 -3726.731 -266.0914 -3726.731 L -273.2025 -3726.731 C -273.4514 -3726.731 -273.64694 -3726.9265 -273.64694 -3727.1754 C -273.64694 -3727.4242 -273.4514 -3727.62 -273.2025 -3727.62 Z" fill="#5c76a1"/>
          </g>
          <g id="Graphic_9146">
            <path d="M -260.98275 -3717.5842 C -260.98275 -3717.3354 -261.1783 -3717.14 -261.4272 -3717.14 C -261.67608 -3717.14 -261.87164 -3717.3354 -261.87164 -3717.5842 L -261.87164 -3732.6954 C -261.87164 -3732.9442 -261.67608 -3733.14 -261.4272 -3733.14 C -261.1783 -3733.14 -260.98275 -3732.9442 -260.98275 -3732.6954 Z" fill="#5c76a1"/>
          </g>
          <g id="Graphic_9145">
            <circle cx="-261.45067" cy="-3720.5087" r="1.59111365355065" fill="#ef9b00"/>
            <circle cx="-261.45067" cy="-3720.5087" r="1.59111365355065" stroke="#c2c2c2" stroke-linecap="butt" stroke-linejoin="round" stroke-width="1"/>
          </g>
          <g id="Graphic_9144">
            <circle cx="-261.45067" cy="-3729.5842" r="1.59111365355061" fill="#9f4c4d"/>
            <circle cx="-261.45067" cy="-3729.5842" r="1.59111365355061" stroke="#c2c2c2" stroke-linecap="butt" stroke-linejoin="round" stroke-width="1"/>
          </g>
        </g>
      </g>
    </g>
  </g>
</svg>
