<svg xmlns="http://www.w3.org/2000/svg" viewBox="-399.63 -3737.64 25 25"><g fill="none"><path d="M-395.29-3737.14h16.32a3.84 3.84 0 0 1 3.84 3.84v16.32a3.84 3.84 0 0 1-3.84 3.84h-16.32a3.84 3.84 0 0 1-3.84-3.84v-16.32a3.84 3.84 0 0 1 3.84-3.84z" fill="#fff"/><path d="M-395.29-3737.14h16.32a3.84 3.84 0 0 1 3.84 3.84v16.32a3.84 3.84 0 0 1-3.84 3.84h-16.32a3.84 3.84 0 0 1-3.84-3.84v-16.32a3.84 3.84 0 0 1 3.84-3.84z" stroke="#000" stroke-linecap="round" stroke-linejoin="round" stroke-width=".25"/><path d="M-388.126-3719.104a.44.44 0 0 1-.445-.445.44.44 0 0 1 .445-.444h4.444a.44.44 0 0 1 .445.444.44.44 0 0 1-.445.445zm0-7.111a.44.44 0 0 1-.445-.445.44.44 0 0 1 .445-.444h4.444a.44.44 0 0 1 .445.444.44.44 0 0 1-.445.445zm0-3.556a.44.44 0 0 1-.445-.444.44.44 0 0 1 .445-.445h7.11a.44.44 0 0 1 .445.445.44.44 0 0 1-.444.444zm0 7.111a.44.44 0 0 1-.445-.444.44.44 0 0 1 .445-.445h7.11a.44.44 0 0 1 .445.445.44.44 0 0 1-.444.444zm-4.279-10.035a.44.44 0 0 1 .444-.445.44.44 0 0 1 .445.445v15.11a.44.44 0 0 1-.445.445.44.44 0 0 1-.444-.444z" fill="#5c76a1"/><circle cx="-392.099" cy="-3729.584" r="1.591" fill="#fff"/><circle cx="-392.099" cy="-3729.584" r="1.591" stroke="#c2c2c2" stroke-linejoin="round"/><circle cx="-392.099" cy="-3720.509" r="1.591" fill="#fff"/><circle cx="-392.099" cy="-3720.509" r="1.591" stroke="#c2c2c2" stroke-linejoin="round"/></g></svg>