<svg height="25" viewBox="-401.221 -3742.319 25 25" width="25" xmlns="http://www.w3.org/2000/svg"><g fill="none"><path d="M-396.882-3741.82h16.32a3.84 3.84 0 0 1 3.84 3.84v16.32a3.84 3.84 0 0 1-3.84 3.84h-16.32a3.84 3.84 0 0 1-3.84-3.84v-16.32a3.84 3.84 0 0 1 3.84-3.84z" fill="#fff"/><path d="M-396.882-3741.82h16.32a3.84 3.84 0 0 1 3.84 3.84v16.32a3.84 3.84 0 0 1-3.84 3.84h-16.32a3.84 3.84 0 0 1-3.84-3.84v-16.32a3.84 3.84 0 0 1 3.84-3.84z" stroke="#000" stroke-linecap="round" stroke-linejoin="round" stroke-width=".25"/><path d="M-391.92-3737.375c0-.249.195-.444.444-.444s.444.195.444.444v15.111c0 .249-.196.445-.444.445s-.445-.196-.445-.445zm3.11 13.778c-.249 0-.444-.196-.444-.445s.195-.444.444-.444h4.445c.249 0 .444.195.444.444s-.195.445-.444.445zm0-7.111a.44.44 0 0 1-.444-.445.44.44 0 0 1 .444-.444h4.445a.44.44 0 0 1 .444.444.44.44 0 0 1-.444.445zm0-3.556a.44.44 0 0 1-.444-.444.44.44 0 0 1 .444-.445h7.111a.44.44 0 0 1 .445.445.44.44 0 0 1-.445.444zm0 7.111a.44.44 0 0 1-.444-.444.44.44 0 0 1 .444-.445h7.111a.44.44 0 0 1 .445.445.44.44 0 0 1-.445.444z" fill="#5c76a1"/><path d="M-394.41-3732.93h.445c.249 0 .444.195.444.444s-.195.444-.444.444h-1.778c-.249 0-.445-.195-.445-.444s.196-.445.445-.445h.444v-2.666h-.444c-.249 0-.445-.196-.445-.445s.196-.444.445-.444h.889a.44.44 0 0 1 .444.444zm-.889 2.666v.445c0 .248-.195.444-.444.444s-.445-.196-.445-.444v-.89a.44.44 0 0 1 .445-.444h1.778a.44.44 0 0 1 .444.445v.889a.417.417 0 0 1-.133.31l-1.022 1.023h.702c.249 0 .444.195.444.444s-.195.445-.444.445h-1.77a.44.44 0 0 1-.31-.756l1.644-1.644v-.258h-.889zm-.444 4.445a.44.44 0 0 1-.445-.445.44.44 0 0 1 .445-.444h1.778a.44.44 0 0 1 .444.444v.889a.417.417 0 0 1-.133.311l-.134.133.134.134c.08.08.133.195.133.311v.889a.44.44 0 0 1-.444.444h-1.778a.44.44 0 0 1-.445-.444.44.44 0 0 1 .445-.445h1.333v-.257l-.31-.312a.44.44 0 0 1 0-.63l.31-.312v-.258h-1.333z" fill="#518738"/></g></svg>