<svg xmlns="http://www.w3.org/2000/svg" viewBox="-361.221 -3737.64 25 25"><g fill="none"><path d="M-356.882-3737.14h16.32a3.84 3.84 0 0 1 3.84 3.84v16.32a3.84 3.84 0 0 1-3.84 3.84h-16.32a3.84 3.84 0 0 1-3.84-3.84v-16.32a3.84 3.84 0 0 1 3.84-3.84z" fill="#fff"/><path d="M-356.882-3737.14h16.32a3.84 3.84 0 0 1 3.84 3.84v16.32a3.84 3.84 0 0 1-3.84 3.84h-16.32a3.84 3.84 0 0 1-3.84-3.84v-16.32a3.84 3.84 0 0 1 3.84-3.84z" stroke="#000" stroke-linecap="round" stroke-linejoin="round" stroke-width=".25"/><path d="M-355.435-3718.64c-.47 0-.84-.22-.84-.5s.37-.5.84-.5h8.392c.47 0 .84.22.84.5s-.37.5-.84.5zm0-8c-.47 0-.84-.22-.84-.5s.37-.5.84-.5h8.392c.47 0 .84.22.84.5s-.37.5-.84.5zm0-4c-.47 0-.84-.22-.84-.5s.37-.5.84-.5h13.427c.47 0 .84.22.84.5s-.37.5-.84.5zm0 8c-.47 0-.84-.22-.84-.5s.37-.5.84-.5h13.427c.47 0 .84.22.84.5s-.37.5-.84.5z" fill="#5c76a1"/><path fill="#fff" d="M-350.111-3724.293h6.141v2.26h-6.141z"/><path stroke="silver" stroke-linecap="round" stroke-linejoin="round" d="M-350.111-3724.293h6.141v2.26h-6.141z"/><path fill="#fff" d="M-354.077-3732.292h6.141v2.26h-6.141z"/><path stroke="silver" stroke-linecap="round" stroke-linejoin="round" d="M-354.077-3732.292h6.141v2.26h-6.141z"/></g></svg>