<svg height="25" viewBox="-279.253 -3737.64 25 25" width="25" xmlns="http://www.w3.org/2000/svg"><g fill="none"><path d="m-258.59325-3713.14h-16.32c-2.12078 0-3.84-1.719-3.84-3.84v-16.32c0-2.1206 1.71922-3.84 3.84-3.84h16.32c2.12077 0 3.84 1.7194 3.84 3.84v16.32c0 2.121-1.71923 3.84-3.84 3.84z" fill="#fff"/><path d="m-258.59325-3713.14h-16.32c-2.12078 0-3.84-1.719-3.84-3.84v-16.32c0-2.1206 1.71922-3.84 3.84-3.84h16.32c2.12077 0 3.84 1.7194 3.84 3.84v16.32c0 2.121-1.71923 3.84-3.84 3.84z" stroke="#000" stroke-linecap="round" stroke-linejoin="round" stroke-width=".25"/><path d="m-266.0914-3731.1754c.2489 0 .44446.1954.44446.4444s-.19556.4445-.44446.4445h-4.44443c-.24889 0-.44445-.1955-.44445-.4445s.19556-.4444.44445-.4444zm0 7.1112c.2489 0 .44446.1955.44446.4442 0 .249-.19556.4446-.44446.4446h-4.44443c-.24889 0-.44445-.1956-.44445-.4446 0-.2487.19556-.4442.44445-.4442zm0 3.5555c.2489 0 .44446.1957.44446.4445s-.19556.4442-.44446.4442h-7.1111c-.2489 0-.44444-.1954-.44444-.4442s.19554-.4445.44444-.4445zm0-7.1113c.2489 0 .44446.1958.44446.4446 0 .2489-.19556.4444-.44446.4444h-7.1111c-.2489 0-.44444-.1955-.44444-.4444 0-.2488.19554-.4446.44444-.4446z" fill="#5c76a1"/><path d="m-260.98275-3717.5842c0 .2488-.19555.4442-.44445.4442-.24888 0-.44444-.1954-.44444-.4442v-15.1112c0-.2488.19556-.4446.44444-.4446.2489 0 .44445.1958.44445.4446z" fill="#5c76a1"/><circle cx="-261.451" cy="-3720.509" fill="#ef9b00" r="1.591"/><circle cx="-261.451" cy="-3720.509" r="1.591" stroke="#c2c2c2" stroke-linejoin="round"/><circle cx="-261.451" cy="-3729.584" fill="#9f4c4d" r="1.591"/><circle cx="-261.451" cy="-3729.584" r="1.591" stroke="#c2c2c2" stroke-linejoin="round"/></g></svg>