<svg height="25" viewBox="-279.253 -3737.64 25 25" width="25" xmlns="http://www.w3.org/2000/svg"><g fill="none"><path d="M-258.593-3713.14h-16.32a3.84 3.84 0 0 1-3.84-3.84v-16.32a3.84 3.84 0 0 1 3.84-3.84h16.32a3.84 3.84 0 0 1 3.84 3.84v16.32a3.84 3.84 0 0 1-3.84 3.84z" fill="#fff"/><path d="M-258.593-3713.14h-16.32a3.84 3.84 0 0 1-3.84-3.84v-16.32a3.84 3.84 0 0 1 3.84-3.84h16.32a3.84 3.84 0 0 1 3.84 3.84v16.32a3.84 3.84 0 0 1-3.84 3.84z" stroke="#000" stroke-linecap="round" stroke-linejoin="round" stroke-width=".25"/><path d="M-266.091-3731.175c.248 0 .444.195.444.444s-.196.445-.444.445h-4.445c-.249 0-.444-.196-.444-.445s.195-.444.444-.444zm0 7.11a.44.44 0 0 1 .444.445.44.44 0 0 1-.444.445h-4.445a.44.44 0 0 1-.444-.445.44.44 0 0 1 .444-.444zm0 3.556c.248 0 .444.196.444.445s-.196.444-.444.444h-7.112c-.248 0-.444-.195-.444-.444s.196-.445.444-.445zm0-7.111a.44.44 0 0 1 .444.445.44.44 0 0 1-.444.444h-7.112a.44.44 0 0 1-.444-.444.44.44 0 0 1 .444-.445zm5.108 10.036a.44.44 0 0 1-.444.444.44.44 0 0 1-.445-.444v-15.111a.44.44 0 0 1 .445-.445.44.44 0 0 1 .444.445z" fill="#5c76a1"/><circle cx="-261.451" cy="-3720.509" fill="#ef9b00" r="1.591"/><circle cx="-261.451" cy="-3720.509" r="1.591" stroke="#c2c2c2" stroke-linejoin="round"/><circle cx="-261.451" cy="-3729.584" fill="#9f4c4d" r="1.591"/><circle cx="-261.451" cy="-3729.584" r="1.591" stroke="#c2c2c2" stroke-linejoin="round"/></g></svg>