<?xml version="1.0" encoding="UTF-8" standalone="no"?>
<!DOCTYPE svg PUBLIC "-//W3C//DTD SVG 1.1//EN" "http://www.w3.org/Graphics/SVG/1.1/DTD/svg11.dtd">
<svg version="1.1" xmlns="http://www.w3.org/2000/svg" xmlns:xl="http://www.w3.org/1999/xlink" xmlns:dc="http://purl.org/dc/elements/1.1/" viewBox="-361.2215 -3737.64 25 25" width="25" height="25">
  <defs/>
  <g id="SOURCES" stroke-dasharray="none" fill="none" stroke="none" fill-opacity="1" stroke-opacity="1">
    <title>SOURCES</title>
    <g id="SOURCES_Calque_2">
      <title>Calque 2</title>
      <g id="Group_9142">
        <g id="Graphic_9138">
          <path d="M -356.8815 -3737.14 L -340.56152 -3737.14 C -338.44075 -3737.14 -336.72152 -3735.4206 -336.72152 -3733.3 L -336.72152 -3716.98 C -336.72152 -3714.859 -338.44075 -3713.14 -340.56152 -3713.14 L -356.8815 -3713.14 C -359.0023 -3713.14 -360.7215 -3714.859 -360.7215 -3716.98 L -360.7215 -3733.3 C -360.7215 -3735.4206 -359.0023 -3737.14 -356.8815 -3737.14 Z" fill="white"/>
          <path d="M -356.8815 -3737.14 L -340.56152 -3737.14 C -338.44075 -3737.14 -336.72152 -3735.4206 -336.72152 -3733.3 L -336.72152 -3716.98 C -336.72152 -3714.859 -338.44075 -3713.14 -340.56152 -3713.14 L -356.8815 -3713.14 C -359.0023 -3713.14 -360.7215 -3714.859 -360.7215 -3716.98 L -360.7215 -3733.3 C -360.7215 -3735.4206 -359.0023 -3737.14 -356.8815 -3737.14 Z" stroke="black" stroke-linecap="round" stroke-linejoin="round" stroke-width=".25"/>
        </g>
        <g id="Graphic_9130">
          <path d="M -355.43515 -3718.64 C -355.9051 -3718.64 -356.27436 -3718.86 -356.27436 -3719.14 C -356.27436 -3719.42 -355.9051 -3719.64 -355.43515 -3719.64 L -347.0431 -3719.64 C -346.57316 -3719.64 -346.2039 -3719.42 -346.2039 -3719.14 C -346.2039 -3718.86 -346.57316 -3718.64 -347.0431 -3718.64 Z M -355.43515 -3726.64 C -355.9051 -3726.64 -356.27436 -3726.86 -356.27436 -3727.14 C -356.27436 -3727.42 -355.9051 -3727.64 -355.43515 -3727.64 L -347.0431 -3727.64 C -346.57316 -3727.64 -346.2039 -3727.42 -346.2039 -3727.14 C -346.2039 -3726.86 -346.57316 -3726.64 -347.0431 -3726.64 Z M -355.43515 -3730.64 C -355.9051 -3730.64 -356.27436 -3730.86 -356.27436 -3731.14 C -356.27436 -3731.42 -355.9051 -3731.64 -355.43515 -3731.64 L -342.0079 -3731.64 C -341.53793 -3731.64 -341.1687 -3731.42 -341.1687 -3731.14 C -341.1687 -3730.86 -341.53793 -3730.64 -342.0079 -3730.64 Z M -355.43515 -3722.64 C -355.9051 -3722.64 -356.27436 -3722.86 -356.27436 -3723.14 C -356.27436 -3723.42 -355.9051 -3723.64 -355.43515 -3723.64 L -342.0079 -3723.64 C -341.53793 -3723.64 -341.1687 -3723.42 -341.1687 -3723.14 C -341.1687 -3722.86 -341.53793 -3722.64 -342.0079 -3722.64 Z" fill="#5c76a1"/>
        </g>
        <g id="Graphic_9140">
          <rect x="-350.1112" y="-3724.293" width="6.1407026" height="2.2599124" fill="white"/>
          <rect x="-350.1112" y="-3724.293" width="6.1407026" height="2.2599124" stroke="silver" stroke-linecap="round" stroke-linejoin="round" stroke-width="1"/>
        </g>
        <g id="Graphic_9141">
          <rect x="-354.0767" y="-3732.2924" width="6.1407026" height="2.2599124" fill="white"/>
          <rect x="-354.0767" y="-3732.2924" width="6.1407026" height="2.2599124" stroke="silver" stroke-linecap="round" stroke-linejoin="round" stroke-width="1"/>
        </g>
      </g>
    </g>
  </g>
</svg>
