<svg height="25" viewBox="-241.787 -3737.64 25 25" width="25" xmlns="http://www.w3.org/2000/svg"><g fill="none"><path d="m-237.44654-3737.14h16.32c2.12078 0 3.84 1.7194 3.84 3.84v16.32c0 2.121-1.71922 3.84-3.84 3.84h-16.32c-2.12076 0-3.84-1.719-3.84-3.84v-16.32c0-2.1206 1.71924-3.84 3.84-3.84z" fill="#fff"/><g stroke-linecap="round" stroke-linejoin="round"><path d="m-237.44654-3737.14h16.32c2.12078 0 3.84 1.7194 3.84 3.84v16.32c0 2.121-1.71922 3.84-3.84 3.84h-16.32c-2.12076 0-3.84-1.719-3.84-3.84v-16.32c0-2.1206 1.71924-3.84 3.84-3.84z" stroke="#000" stroke-width=".25"/><path d="m-230.39707-3720.1568 7.11054-9.9662" stroke="#5c76a2"/><path d="m-235.28654-3720.1568 7.11054-9.9662" stroke="#5c76a2"/></g></g></svg>