<svg height="25" viewBox="-361.221 -3737.64 25 25" width="25" xmlns="http://www.w3.org/2000/svg"><g fill="none"><path d="m-356.8815-3737.14h16.31998c2.12077 0 3.84 1.7194 3.84 3.84v16.32c0 2.121-1.71923 3.84-3.84 3.84h-16.31998c-2.1208 0-3.84-1.719-3.84-3.84v-16.32c0-2.1206 1.7192-3.84 3.84-3.84z" fill="#fff"/><path d="m-356.8815-3737.14h16.31998c2.12077 0 3.84 1.7194 3.84 3.84v16.32c0 2.121-1.71923 3.84-3.84 3.84h-16.31998c-2.1208 0-3.84-1.719-3.84-3.84v-16.32c0-2.1206 1.7192-3.84 3.84-3.84z" stroke="#000" stroke-linecap="round" stroke-linejoin="round" stroke-width=".25"/><path d="m-355.43515-3718.64c-.46995 0-.83921-.22-.83921-.5s.36926-.5.83921-.5h8.39205c.46994 0 .8392.22.8392.5s-.36926.5-.8392.5zm0-8c-.46995 0-.83921-.22-.83921-.5s.36926-.5.83921-.5h8.39205c.46994 0 .8392.22.8392.5s-.36926.5-.8392.5zm0-4c-.46995 0-.83921-.22-.83921-.5s.36926-.5.83921-.5h13.42725c.46997 0 .8392.22.8392.5s-.36923.5-.8392.5zm0 8c-.46995 0-.83921-.22-.83921-.5s.36926-.5.83921-.5h13.42725c.46997 0 .8392.22.8392.5s-.36923.5-.8392.5z" fill="#5c76a1"/><path d="m-350.1112-3724.293h6.140703v2.259912h-6.140703z" fill="#fff"/><path d="m-350.1112-3724.293h6.140703v2.259912h-6.140703z" stroke="silver" stroke-linecap="round" stroke-linejoin="round"/><path d="m-354.0767-3732.2924h6.140703v2.259912h-6.140703z" fill="#fff"/><path d="m-354.0767-3732.2924h6.140703v2.259912h-6.140703z" stroke="silver" stroke-linecap="round" stroke-linejoin="round"/></g></svg>