<svg height="25" viewBox="-399.63 -3737.64 25 25" width="25" xmlns="http://www.w3.org/2000/svg"><g fill="none"><path d="m-395.2905-3737.14h16.32c2.12077 0 3.84 1.7194 3.84 3.84v16.32c0 2.121-1.71923 3.84-3.84 3.84h-16.32c-2.12077 0-3.84-1.719-3.84-3.84v-16.32c0-2.1206 1.71923-3.84 3.84-3.84z" fill="#fff"/><path d="m-395.2905-3737.14h16.32c2.12077 0 3.84 1.7194 3.84 3.84v16.32c0 2.121-1.71923 3.84-3.84 3.84h-16.32c-2.12077 0-3.84-1.719-3.84-3.84v-16.32c0-2.1206 1.71923-3.84 3.84-3.84z" stroke="#000" stroke-linecap="round" stroke-linejoin="round" stroke-width=".25"/><path d="m-388.1264-3719.1042c-.2489 0-.44445-.1958-.44445-.4445 0-.2489.19555-.4443.44445-.4443h4.44444c.24889 0 .44446.1954.44446.4443 0 .2487-.19557.4445-.44446.4445zm0-7.1112c-.2489 0-.44445-.1956-.44445-.4446 0-.2487.19555-.4442.44445-.4442h4.44444c.24889 0 .44446.1955.44446.4442 0 .249-.19557.4446-.44446.4446zm0-3.5556c-.2489 0-.44445-.1955-.44445-.4444 0-.2488.19555-.4446.44445-.4446h7.1111c.2489 0 .44445.1958.44445.4446 0 .2489-.19555.4444-.44445.4444zm0 7.111c-.2489 0-.44445-.1954-.44445-.4442s.19555-.4445.44445-.4445h7.1111c.2489 0 .44445.1957.44445.4445s-.19555.4442-.44445.4442z" fill="#5c76a1"/><path d="m-392.40517-3732.6954c0-.2488.19557-.4446.44444-.4446.24889 0 .44443.1958.44443.4446v15.1112c0 .2488-.19554.4442-.44443.4442-.24887 0-.44444-.1954-.44444-.4442z" fill="#5c76a1"/><circle cx="-392.099" cy="-3729.584" fill="#fff" r="1.591"/><circle cx="-392.099" cy="-3729.584" r="1.591" stroke="#c2c2c2" stroke-linejoin="round"/><circle cx="-392.099" cy="-3720.509" fill="#fff" r="1.591"/><circle cx="-392.099" cy="-3720.509" r="1.591" stroke="#c2c2c2" stroke-linejoin="round"/></g></svg>