<svg height="25" viewBox="-655.383 -3675.743 25 25" width="25" xmlns="http://www.w3.org/2000/svg"><g fill="none"><path d="m-651.043-3675.243h16.32c2.12076 0 3.84 1.7194 3.84 3.84v16.32c0 2.121-1.71924 3.84-3.84 3.84h-16.32c-2.1208 0-3.84-1.719-3.84-3.84v-16.32c0-2.1206 1.7192-3.84 3.84-3.84z" fill="#fff"/><path d="m-651.043-3675.243h16.32c2.12076 0 3.84 1.7194 3.84 3.84v16.32c0 2.121-1.71924 3.84-3.84 3.84h-16.32c-2.1208 0-3.84-1.719-3.84-3.84v-16.32c0-2.1206 1.7192-3.84 3.84-3.84z" stroke="#000" stroke-linecap="round" stroke-linejoin="round" stroke-width=".25"/><path d="m-640.4741-3659.6873h3.36884c1.22666 0 2.22221-.9957 2.22221-2.2222v-5.3333c0-1.2266-.99555-2.2222-2.22221-2.2222h-3.55554c-.2489 0-.44445.1956-.44445.4444 0 .2489.19555.4446.44445.4446h3.55554c.73776 0 1.33336.5954 1.33336 1.3332v5.3333c0 .7378-.5956 1.3335-1.33336 1.3335h-3.36884l1.9111-1.9112c.17774-.1778.17774-.4534 0-.6312-.1778-.1776-.4534-.1776-.63114 0l-2.66666 2.6667c-.1778.1777-.1778.4533 0 .6311l2.66666 2.6666c.17774.178.45334.178.63114 0 .17774-.1777.17774-.4533 0-.631l-1.9111-1.911zm-3.74225-8.8887c.24889 0 .44445-.1957.44445-.4446 0-.2488-.19556-.4444-.44445-.4444h-6.2222c-.24885 0-.44445.1956-.44445.4444 0 .2489.1956.4446.44445.4446zm0 4.4443c.24889 0 .44445-.1955.44445-.4443 0-.249-.19556-.4446-.44445-.4446h-6.2222c-.24885 0-.44445.1956-.44445.4446 0 .2488.1956.4443.44445.4443zm0 4.4444c.24889 0 .44445-.1957.44445-.4444 0-.2489-.19556-.4443-.44445-.4443h-6.2222c-.24885 0-.44445.1954-.44445.4443 0 .2487.1956.4444.44445.4444z" fill="#5c76a1"/></g></svg>