<svg height="25" viewBox="-655.383 -3675.743 25 25" width="25" xmlns="http://www.w3.org/2000/svg"><g fill="none"><path d="M-651.043-3675.243h16.32a3.84 3.84 0 0 1 3.84 3.84v16.32a3.84 3.84 0 0 1-3.84 3.84h-16.32a3.84 3.84 0 0 1-3.84-3.84v-16.32a3.84 3.84 0 0 1 3.84-3.84z" fill="#fff"/><path d="M-651.043-3675.243h16.32a3.84 3.84 0 0 1 3.84 3.84v16.32a3.84 3.84 0 0 1-3.84 3.84h-16.32a3.84 3.84 0 0 1-3.84-3.84v-16.32a3.84 3.84 0 0 1 3.84-3.84z" stroke="#000" stroke-linecap="round" stroke-linejoin="round" stroke-width=".25"/><path d="M-640.474-3659.687h3.369a2.223 2.223 0 0 0 2.222-2.223v-5.333a2.223 2.223 0 0 0-2.222-2.222h-3.556a.44.44 0 0 0-.444.444.44.44 0 0 0 .444.445h3.556c.737 0 1.333.595 1.333 1.333v5.333c0 .738-.596 1.334-1.333 1.334h-3.37l1.912-1.911a.44.44 0 0 0 0-.631.44.44 0 0 0-.631 0l-2.667 2.666a.44.44 0 0 0 0 .631l2.667 2.667a.44.44 0 0 0 .631 0 .44.44 0 0 0 0-.631l-1.911-1.911zm-3.742-8.889a.44.44 0 0 0 .444-.445.44.44 0 0 0-.444-.444h-6.223a.44.44 0 0 0-.444.444.44.44 0 0 0 .444.445zm0 4.444a.44.44 0 0 0 .444-.444.44.44 0 0 0-.444-.445h-6.223a.44.44 0 0 0-.444.445.44.44 0 0 0 .444.444zm0 4.445a.44.44 0 0 0 .444-.445.44.44 0 0 0-.444-.444h-6.223a.44.44 0 0 0-.444.444.44.44 0 0 0 .444.445z" fill="#5c76a1"/></g></svg>