<svg height="25" viewBox="-706.774 -3072.384 25 25" width="25" xmlns="http://www.w3.org/2000/svg"><g fill="none"><path d="m-697.8741-3071.8843h7.2c2.4 0 3.6 0 5.04.48 1.2.48 2.4 1.68 2.88 2.88.48 1.44.48 2.64.48 5.04v7.2c0 2.4 0 3.6-.48 5.04-.48 1.2-1.68 2.4-2.88 2.88-1.44.48-2.64.48-5.04.48h-7.2c-2.4 0-3.6 0-5.04-.48-1.2-.48-2.4-1.68-2.88-2.88-.48-1.44-.48-2.64-.48-5.04v-7.2c0-2.4 0-3.6.48-5.04.48-1.2 1.68-2.4 2.88-2.88 1.44-.48 2.64-.48 5.04-.48m0 0" fill="#91baff"/><path d="m-697.8741-3071.8843h7.2c2.4 0 3.6 0 5.04.48 1.2.48 2.4 1.68 2.88 2.88.48 1.44.48 2.64.48 5.04v7.2c0 2.4 0 3.6-.48 5.04-.48 1.2-1.68 2.4-2.88 2.88-1.44.48-2.64.48-5.04.48h-7.2c-2.4 0-3.6 0-5.04-.48-1.2-.48-2.4-1.68-2.88-2.88-.48-1.44-.48-2.64-.48-5.04v-7.2c0-2.4 0-3.6.48-5.04.48-1.2 1.68-2.4 2.88-2.88 1.44-.48 2.64-.48 5.04-.48m0 0" stroke="#5c76a2" stroke-linecap="round" stroke-linejoin="round" stroke-width=".25"/><path d="m-699.8261-3055.44c1.3346 1.6624 3.3632 2.6668 5.5609 2.6668 3.7636 0 6.87775-2.9333 7.1002-6.6668.0178-.2487.2224-.4354.47156-.4176.24914.0176.43594.2222.41814.4711-.258 4.2045-3.7547 7.5022-7.9899 7.5022-2.4557 0-4.72455-1.12-6.2282-2.9689v2.5245c0 .2487-.1958.4444-.4449.4444s-.4449-.1957-.4449-.4444v-3.5556c0-.2489.1958-.4444.4449-.4444h3.559c.2491 0 .4449.1955.4449.4444s-.1958.4443-.4449.4443zm11.1129-8.8887c-1.3346-1.6623-3.3632-2.6667-5.5609-2.6667-3.7814 0-6.8955 2.9511-7.1091 6.7022-.0178.2489-.2224.4356-.4715.4178-.2492-.0178-.436-.2222-.4182-.4711.2491-4.2222 3.7547-7.5378 8.0077-7.5378 2.4557 0 4.7246 1.12 6.2282 2.9689v-2.5246c0-.2487.1958-.4443.4449-.4443s.4449.1956.4449.4443v3.5557c0 .2489-.1958.4443-.4449.4443h-3.559c-.2491 0-.44485-.1954-.44485-.4443s.19575-.4444.44485-.4444h2.4468z" fill="#000"/></g></svg>