<?xml version="1.0" encoding="UTF-8" standalone="no"?>
<!DOCTYPE svg PUBLIC "-//W3C//DTD SVG 1.1//EN" "http://www.w3.org/Graphics/SVG/1.1/DTD/svg11.dtd">
<svg xmlns="http://www.w3.org/2000/svg" xmlns:xl="http://www.w3.org/1999/xlink" version="1.1" xmlns:dc="http://purl.org/dc/elements/1.1/" viewBox="-886.7741 -3072.3843 25 25" width="25" height="25">
  <defs/>
  <g id="SOURCES" stroke-opacity="1" fill="none" stroke="none" fill-opacity="1" stroke-dasharray="none">
    <title>SOURCES</title>
    <g id="SOURCES_Dark">
      <title>Dark</title>
      <g id="Graphic_11142">
        <path d="M -877.8741 -3071.8843 L -870.6741 -3071.8843 C -868.2741 -3071.8843 -867.0741 -3071.8843 -865.6341 -3071.4043 C -864.4341 -3070.9243 -863.2341 -3069.7243 -862.7541 -3068.5243 C -862.2741 -3067.0843 -862.2741 -3065.8843 -862.2741 -3063.4843 L -862.2741 -3056.2843 C -862.2741 -3053.8843 -862.2741 -3052.6843 -862.7541 -3051.2443 C -863.2341 -3050.0443 -864.4341 -3048.8443 -865.6341 -3048.3643 C -867.0741 -3047.8843 -868.2741 -3047.8843 -870.6741 -3047.8843 L -877.8741 -3047.8843 C -880.2741 -3047.8843 -881.4741 -3047.8843 -882.9141 -3048.3643 C -884.1141 -3048.8443 -885.3141 -3050.0443 -885.7941 -3051.2443 C -886.2741 -3052.6843 -886.2741 -3053.8843 -886.2741 -3056.2843 L -886.2741 -3063.4843 C -886.2741 -3065.8843 -886.2741 -3067.0843 -885.7941 -3068.5243 C -885.3141 -3069.7243 -884.1141 -3070.9243 -882.9141 -3071.4043 C -881.4741 -3071.8843 -880.2741 -3071.8843 -877.8741 -3071.8843 M -877.8741 -3071.8843" fill="#cde8ff"/>
        <path d="M -877.8741 -3071.8843 L -870.6741 -3071.8843 C -868.2741 -3071.8843 -867.0741 -3071.8843 -865.6341 -3071.4043 C -864.4341 -3070.9243 -863.2341 -3069.7243 -862.7541 -3068.5243 C -862.2741 -3067.0843 -862.2741 -3065.8843 -862.2741 -3063.4843 L -862.2741 -3056.2843 C -862.2741 -3053.8843 -862.2741 -3052.6843 -862.7541 -3051.2443 C -863.2341 -3050.0443 -864.4341 -3048.8443 -865.6341 -3048.3643 C -867.0741 -3047.8843 -868.2741 -3047.8843 -870.6741 -3047.8843 L -877.8741 -3047.8843 C -880.2741 -3047.8843 -881.4741 -3047.8843 -882.9141 -3048.3643 C -884.1141 -3048.8443 -885.3141 -3050.0443 -885.7941 -3051.2443 C -886.2741 -3052.6843 -886.2741 -3053.8843 -886.2741 -3056.2843 L -886.2741 -3063.4843 C -886.2741 -3065.8843 -886.2741 -3067.0843 -885.7941 -3068.5243 C -885.3141 -3069.7243 -884.1141 -3070.9243 -882.9141 -3071.4043 C -881.4741 -3071.8843 -880.2741 -3071.8843 -877.8741 -3071.8843 M -877.8741 -3071.8843" stroke="#65727e" stroke-linecap="round" stroke-linejoin="round" stroke-width=".25"/>
      </g>
      <g id="Graphic_11141">
        <path d="M -867.3716 -3056.96 L -867.3716 -3065.662 C -867.3716 -3066.4 -867.9672 -3066.9954 -868.705 -3066.9954 L -880.2605 -3066.9954 C -880.9983 -3066.9954 -881.5938 -3066.4 -881.5938 -3065.662 L -881.5938 -3059.6265 L -878.7938 -3062.4265 C -878.6161 -3062.6043 -878.3405 -3062.6043 -878.1627 -3062.4265 L -873.1405 -3057.4043 L -870.785 -3059.76 C -870.6072 -3059.9376 -870.3316 -3059.9376 -870.1538 -3059.76 L -867.3538 -3056.96 Z M -867.3716 -3055.6976 L -870.4827 -3058.8087 L -872.8383 -3056.4532 C -873.0161 -3056.2754 -873.2916 -3056.2754 -873.4694 -3056.4532 L -878.4916 -3061.4754 L -881.6027 -3058.3643 L -881.6027 -3054.1065 C -881.6027 -3053.3687 -881.0072 -3052.7732 -880.2694 -3052.7732 L -868.7138 -3052.7732 C -867.9761 -3052.7732 -867.3805 -3053.3687 -867.3805 -3054.1065 L -867.3805 -3055.6976 Z M -882.4827 -3065.662 C -882.4827 -3066.8887 -881.4872 -3067.8843 -880.2605 -3067.8843 L -868.705 -3067.8843 C -867.4783 -3067.8843 -866.4827 -3066.8887 -866.4827 -3065.662 L -866.4827 -3054.1065 C -866.4827 -3052.88 -867.4783 -3051.8843 -868.705 -3051.8843 L -880.2605 -3051.8843 C -881.4872 -3051.8843 -882.4827 -3052.88 -882.4827 -3054.1065 Z M -871.8161 -3065.2176 L -870.0383 -3065.2176 C -869.5494 -3065.2176 -869.1494 -3064.8176 -869.1494 -3064.3287 L -869.1494 -3062.551 C -869.1494 -3062.062 -869.5494 -3061.662 -870.0383 -3061.662 L -871.8161 -3061.662 C -872.305 -3061.662 -872.705 -3062.062 -872.705 -3062.551 L -872.705 -3064.3287 C -872.705 -3064.8176 -872.305 -3065.2176 -871.8161 -3065.2176 Z M -871.8161 -3064.3287 L -871.8161 -3062.551 L -870.0383 -3062.551 L -870.0383 -3064.3287 Z" fill="black"/>
      </g>
    </g>
  </g>
</svg>
