<?xml version="1.0" encoding="UTF-8" standalone="no"?>
<!DOCTYPE svg PUBLIC "-//W3C//DTD SVG 1.1//EN" "http://www.w3.org/Graphics/SVG/1.1/DTD/svg11.dtd">
<svg xmlns="http://www.w3.org/2000/svg" xmlns:xl="http://www.w3.org/1999/xlink" version="1.1" xmlns:dc="http://purl.org/dc/elements/1.1/" viewBox="-742.7741 -3072.3843 25 25" width="25" height="25">
  <defs/>
  <g id="SOURCES" stroke-opacity="1" fill="none" stroke="none" fill-opacity="1" stroke-dasharray="none">
    <title>SOURCES</title>
    <g id="SOURCES_Dark">
      <title>Dark</title>
      <g id="Graphic_11122">
        <path d="M -733.8741 -3071.8843 L -726.6741 -3071.8843 C -724.2741 -3071.8843 -723.0741 -3071.8843 -721.6341 -3071.4043 C -720.4341 -3070.9243 -719.2341 -3069.7243 -718.7541 -3068.5243 C -718.2741 -3067.0843 -718.2741 -3065.8843 -718.2741 -3063.4843 L -718.2741 -3056.2843 C -718.2741 -3053.8843 -718.2741 -3052.6843 -718.7541 -3051.2443 C -719.2341 -3050.0443 -720.4341 -3048.8443 -721.6341 -3048.3643 C -723.0741 -3047.8843 -724.2741 -3047.8843 -726.6741 -3047.8843 L -733.8741 -3047.8843 C -736.2741 -3047.8843 -737.4741 -3047.8843 -738.9141 -3048.3643 C -740.1141 -3048.8443 -741.3141 -3050.0443 -741.7941 -3051.2443 C -742.2741 -3052.6843 -742.2741 -3053.8843 -742.2741 -3056.2843 L -742.2741 -3063.4843 C -742.2741 -3065.8843 -742.2741 -3067.0843 -741.7941 -3068.5243 C -741.3141 -3069.7243 -740.1141 -3070.9243 -738.9141 -3071.4043 C -737.4741 -3071.8843 -736.2741 -3071.8843 -733.8741 -3071.8843 M -733.8741 -3071.8843" fill="#ff7a7c"/>
        <path d="M -733.8741 -3071.8843 L -726.6741 -3071.8843 C -724.2741 -3071.8843 -723.0741 -3071.8843 -721.6341 -3071.4043 C -720.4341 -3070.9243 -719.2341 -3069.7243 -718.7541 -3068.5243 C -718.2741 -3067.0843 -718.2741 -3065.8843 -718.2741 -3063.4843 L -718.2741 -3056.2843 C -718.2741 -3053.8843 -718.2741 -3052.6843 -718.7541 -3051.2443 C -719.2341 -3050.0443 -720.4341 -3048.8443 -721.6341 -3048.3643 C -723.0741 -3047.8843 -724.2741 -3047.8843 -726.6741 -3047.8843 L -733.8741 -3047.8843 C -736.2741 -3047.8843 -737.4741 -3047.8843 -738.9141 -3048.3643 C -740.1141 -3048.8443 -741.3141 -3050.0443 -741.7941 -3051.2443 C -742.2741 -3052.6843 -742.2741 -3053.8843 -742.2741 -3056.2843 L -742.2741 -3063.4843 C -742.2741 -3065.8843 -742.2741 -3067.0843 -741.7941 -3068.5243 C -741.3141 -3069.7243 -740.1141 -3070.9243 -738.9141 -3071.4043 C -737.4741 -3071.8843 -736.2741 -3071.8843 -733.8741 -3071.8843 M -733.8741 -3071.8843" stroke="#65727e" stroke-linecap="round" stroke-linejoin="round" stroke-width=".25"/>
      </g>
      <g id="Graphic_11121">
        <path d="M -734.3941 -3058.7143 C -734.2141 -3058.5043 -734.2341 -3058.1843 -734.4441 -3058.0043 C -734.6541 -3057.8243 -734.9741 -3057.8443 -735.1541 -3058.0543 L -738.1541 -3061.5543 C -738.3141 -3061.7443 -738.3141 -3062.0143 -738.1541 -3062.2043 L -735.1541 -3065.7043 C -734.9741 -3065.9143 -734.6541 -3065.9343 -734.4441 -3065.7543 C -734.2341 -3065.5743 -734.2141 -3065.2543 -734.3941 -3065.0443 L -737.1141 -3061.8743 L -734.3941 -3058.7043 Z M -733.3241 -3052.1743 C -733.4441 -3051.9243 -733.7341 -3051.8143 -733.9841 -3051.9343 C -734.2341 -3052.0543 -734.3441 -3052.3443 -734.2241 -3052.5943 L -727.2241 -3067.5943 C -727.1041 -3067.8443 -726.8141 -3067.9543 -726.5641 -3067.8343 C -726.3141 -3067.7143 -726.2041 -3067.4243 -726.3241 -3067.1743 L -733.3241 -3052.1743 Z M -726.1541 -3061.0543 C -726.3341 -3061.2643 -726.3141 -3061.5843 -726.1041 -3061.7643 C -725.8941 -3061.9443 -725.5741 -3061.9243 -725.3941 -3061.7143 L -722.3941 -3058.2143 C -722.2341 -3058.0243 -722.2341 -3057.7543 -722.3941 -3057.5643 L -725.3941 -3054.0643 C -725.5741 -3053.8543 -725.8941 -3053.8343 -726.1041 -3054.0143 C -726.3141 -3054.1943 -726.3341 -3054.5143 -726.1541 -3054.7243 L -723.4341 -3057.8943 L -726.1541 -3061.0643 Z" fill="black"/>
      </g>
    </g>
  </g>
</svg>
