<?xml version="1.0" encoding="UTF-8" standalone="no"?>
<!DOCTYPE svg PUBLIC "-//W3C//DTD SVG 1.1//EN" "http://www.w3.org/Graphics/SVG/1.1/DTD/svg11.dtd">
<svg xmlns="http://www.w3.org/2000/svg" xmlns:dc="http://purl.org/dc/elements/1.1/" version="1.1" xmlns:xl="http://www.w3.org/1999/xlink" viewBox="-670.2403 -3072.3843 25 25" width="25" height="25">
  <defs/>
  <g id="SOURCES" stroke-dasharray="none" stroke-opacity="1" stroke="none" fill="none" fill-opacity="1">
    <title>SOURCES</title>
    <g id="SOURCES_Dark">
      <title>Dark</title>
      <g id="Graphic_12500">
        <path d="M -661.3403 -3071.8843 L -654.1403 -3071.8843 C -651.7403 -3071.8843 -650.5403 -3071.8843 -649.1003 -3071.4043 C -647.9003 -3070.9243 -646.7003 -3069.7243 -646.2203 -3068.5243 C -645.7403 -3067.0843 -645.7403 -3065.8843 -645.7403 -3063.4843 L -645.7403 -3056.2843 C -645.7403 -3053.8843 -645.7403 -3052.6843 -646.2203 -3051.2443 C -646.7003 -3050.0443 -647.9003 -3048.8443 -649.1003 -3048.3643 C -650.5403 -3047.8843 -651.7403 -3047.8843 -654.1403 -3047.8843 L -661.3403 -3047.8843 C -663.7403 -3047.8843 -664.9403 -3047.8843 -666.3803 -3048.3643 C -667.5803 -3048.8443 -668.7803 -3050.0443 -669.2603 -3051.2443 C -669.7403 -3052.6843 -669.7403 -3053.8843 -669.7403 -3056.2843 L -669.7403 -3063.4843 C -669.7403 -3065.8843 -669.7403 -3067.0843 -669.2603 -3068.5243 C -668.7803 -3069.7243 -667.5803 -3070.9243 -666.3803 -3071.4043 C -664.9403 -3071.8843 -663.7403 -3071.8843 -661.3403 -3071.8843 M -661.3403 -3071.8843" fill="#12c8ca"/>
        <path d="M -661.3403 -3071.8843 L -654.1403 -3071.8843 C -651.7403 -3071.8843 -650.5403 -3071.8843 -649.1003 -3071.4043 C -647.9003 -3070.9243 -646.7003 -3069.7243 -646.2203 -3068.5243 C -645.7403 -3067.0843 -645.7403 -3065.8843 -645.7403 -3063.4843 L -645.7403 -3056.2843 C -645.7403 -3053.8843 -645.7403 -3052.6843 -646.2203 -3051.2443 C -646.7003 -3050.0443 -647.9003 -3048.8443 -649.1003 -3048.3643 C -650.5403 -3047.8843 -651.7403 -3047.8843 -654.1403 -3047.8843 L -661.3403 -3047.8843 C -663.7403 -3047.8843 -664.9403 -3047.8843 -666.3803 -3048.3643 C -667.5803 -3048.8443 -668.7803 -3050.0443 -669.2603 -3051.2443 C -669.7403 -3052.6843 -669.7403 -3053.8843 -669.7403 -3056.2843 L -669.7403 -3063.4843 C -669.7403 -3065.8843 -669.7403 -3067.0843 -669.2603 -3068.5243 C -668.7803 -3069.7243 -667.5803 -3070.9243 -666.3803 -3071.4043 C -664.9403 -3071.8843 -663.7403 -3071.8843 -661.3403 -3071.8843 M -661.3403 -3071.8843" stroke="#65727e" stroke-linecap="round" stroke-linejoin="round" stroke-width=".25"/>
      </g>
      <g id="Graphic_12503">
        <path d="M -664.048 -3062.1817 C -664.7107 -3062.1817 -665.248 -3061.6445 -665.248 -3060.9817 L -665.248 -3053.7817 C -665.248 -3053.119 -664.7107 -3052.5817 -664.048 -3052.5817 L -656.8403 -3052.5817 C -656.17754 -3052.5817 -655.6403 -3053.119 -655.6403 -3053.7817 L -655.6403 -3060.9817 C -655.6403 -3061.6445 -656.17754 -3062.1817 -656.8403 -3062.1817 Z M -660.448 -3062.9817 L -656.8403 -3062.9817 C -655.7357 -3062.9817 -654.8403 -3062.0863 -654.8403 -3060.9817 L -654.8403 -3057.3817 L -654.448 -3057.3817 C -654.22706 -3057.3817 -654.048 -3057.2027 -654.048 -3056.9817 C -654.048 -3056.761 -654.22706 -3056.5817 -654.448 -3056.5817 L -654.8403 -3056.5817 L -654.8403 -3053.7817 C -654.8403 -3052.677 -655.7357 -3051.7817 -656.8403 -3051.7817 L -664.048 -3051.7817 C -665.15254 -3051.7817 -666.048 -3052.677 -666.048 -3053.7817 L -666.048 -3060.9817 C -666.048 -3062.0863 -665.15254 -3062.9817 -664.048 -3062.9817 L -661.248 -3062.9817 L -661.248 -3063.3817 C -661.248 -3063.6027 -661.0689 -3063.7817 -660.848 -3063.7817 C -660.62706 -3063.7817 -660.448 -3063.6027 -660.448 -3063.3817 Z M -659.248 -3067.7817 C -659.02706 -3067.7817 -658.848 -3067.6027 -658.848 -3067.3817 C -658.848 -3067.161 -659.02706 -3066.9817 -659.248 -3066.9817 C -659.9107 -3066.9817 -660.448 -3066.4445 -660.448 -3065.7817 C -660.448 -3065.561 -660.62706 -3065.3817 -660.848 -3065.3817 C -661.0689 -3065.3817 -661.248 -3065.561 -661.248 -3065.7817 C -661.248 -3066.8863 -660.35254 -3067.7817 -659.248 -3067.7817 Z M -652.048 -3066.9817 C -652.2689 -3066.9817 -652.448 -3067.161 -652.448 -3067.3817 C -652.448 -3067.6027 -652.2689 -3067.7817 -652.048 -3067.7817 C -650.9434 -3067.7817 -650.048 -3066.8863 -650.048 -3065.7817 C -650.048 -3065.561 -650.22706 -3065.3817 -650.448 -3065.3817 C -650.6689 -3065.3817 -650.848 -3065.561 -650.848 -3065.7817 C -650.848 -3066.4445 -651.3852 -3066.9817 -652.048 -3066.9817 Z M -650.848 -3063.3817 C -650.848 -3063.6027 -650.6689 -3063.7817 -650.448 -3063.7817 C -650.22706 -3063.7817 -650.048 -3063.6027 -650.048 -3063.3817 L -650.048 -3060.9817 C -650.048 -3060.761 -650.22706 -3060.5817 -650.448 -3060.5817 C -650.6689 -3060.5817 -650.848 -3060.761 -650.848 -3060.9817 Z M -650.848 -3058.5817 C -650.848 -3058.8027 -650.6689 -3058.9817 -650.448 -3058.9817 C -650.22706 -3058.9817 -650.048 -3058.8027 -650.048 -3058.5817 C -650.048 -3057.477 -650.9434 -3056.5817 -652.048 -3056.5817 C -652.2689 -3056.5817 -652.448 -3056.761 -652.448 -3056.9817 C -652.448 -3057.2027 -652.2689 -3057.3817 -652.048 -3057.3817 C -651.3852 -3057.3817 -650.848 -3057.919 -650.848 -3058.5817 Z M -654.448 -3067.7817 C -654.22706 -3067.7817 -654.048 -3067.6027 -654.048 -3067.3817 C -654.048 -3067.161 -654.22706 -3066.9817 -654.448 -3066.9817 L -656.848 -3066.9817 C -657.0689 -3066.9817 -657.248 -3067.161 -657.248 -3067.3817 C -657.248 -3067.6027 -657.0689 -3067.7817 -656.848 -3067.7817 Z" fill="black"/>
      </g>
    </g>
  </g>
</svg>
