<svg height="25" viewBox="-634.87 -3072.498 25 25" width="25" xmlns="http://www.w3.org/2000/svg"><g fill="none"><path d="m-625.9703-3071.9983h7.2c2.4 0 3.6 0 5.04.48 1.2.48 2.4 1.68 2.88 2.88.48 1.44.48 2.64.48 5.04v7.2c0 2.4 0 3.6-.48 5.04-.48 1.2-1.68 2.4-2.88 2.88-1.44.48-2.64.48-5.04.48h-7.2c-2.4 0-3.6 0-5.04-.48-1.2-.48-2.4-1.68-2.88-2.88-.48-1.44-.48-2.64-.48-5.04v-7.2c0-2.4 0-3.6.48-5.04.48-1.2 1.68-2.4 2.88-2.88 1.44-.48 2.64-.48 5.04-.48m0 0" fill="#cb75c9"/><path d="m-625.9703-3071.9983h7.2c2.4 0 3.6 0 5.04.48 1.2.48 2.4 1.68 2.88 2.88.48 1.44.48 2.64.48 5.04v7.2c0 2.4 0 3.6-.48 5.04-.48 1.2-1.68 2.4-2.88 2.88-1.44.48-2.64.48-5.04.48h-7.2c-2.4 0-3.6 0-5.04-.48-1.2-.48-2.4-1.68-2.88-2.88-.48-1.44-.48-2.64-.48-5.04v-7.2c0-2.4 0-3.6.48-5.04.48-1.2 1.68-2.4 2.88-2.88 1.44-.48 2.64-.48 5.04-.48m0 0" stroke="#65727e" stroke-linecap="round" stroke-linejoin="round" stroke-width=".25"/><path d="m-623.2592-3054.4047v-6.927c0-.2453.199-.4443.44444-.4443.24546 0 .44446.199.44446.4443v6.927l1.90794-1.9079c.17356-.1736.45496-.1736.62856 0 .17355.1736.17355.455 0 .6286l-2.6667 2.6666c-.17355.1734-.45496.1734-.6285 0l-2.6667-2.6666c-.17356-.1736-.17356-.455 0-.6286.1736-.1736.455-.1736.62855 0zm4.2168-10.0381h.6721c2.2091 0 4 1.7908 4 4 0 2.2091-1.7909 4-4 4-.2455 0-.44446-.199-.44446-.4444 0-.2455.19896-.4445.44446-.4445 1.7182 0 3.1111-1.3929 3.1111-3.1111s-1.3929-3.1112-3.1111-3.1112h-.4689c.01616.146.02444.2943.02444.4445 0 .2455-.19898.4445-.44444.4445s-.44444-.199-.44444-.4445c0-1.7182-1.39286-3.1111-3.11112-3.1111h-.44444c-1.9637 0-3.55556 1.5919-3.55556 3.5556v.4444c0 .2456-.19898.4446-.44444.4446-1.2273 0-2.2222.9948-2.2222 2.222 0 1.2274.9949 2.2223 2.2222 2.2223.24546 0 .44444.199.44444.4445 0 .2454-.19898.4444-.44444.4444-1.7182 0-3.1111-1.3929-3.1111-3.1112 0-1.5672 1.159-2.864 2.66666-3.0795 0-2.4861 1.98984-4.476 4.44444-4.476h.44444c1.74166 0 3.22326 1.1131 3.77236 2.6667z" fill="#000"/></g></svg>