<svg height="25" viewBox="-850.774 -3072.384 25 25" width="25" xmlns="http://www.w3.org/2000/svg"><g fill="none"><path d="m-841.8741-3071.8843h7.2c2.4 0 3.6 0 5.04.48 1.2.48 2.4 1.68 2.88 2.88.48 1.44.48 2.64.48 5.04v7.2c0 2.4 0 3.6-.48 5.04-.48 1.2-1.68 2.4-2.88 2.88-1.44.48-2.64.48-5.04.48h-7.2c-2.4 0-3.6 0-5.04-.48-1.2-.48-2.4-1.68-2.88-2.88-.48-1.44-.48-2.64-.48-5.04v-7.2c0-2.4 0-3.6.48-5.04.48-1.2 1.68-2.4 2.88-2.88 1.44-.48 2.64-.48 5.04-.48m0 0" fill="#ff9244"/><path d="m-841.8741-3071.8843h7.2c2.4 0 3.6 0 5.04.48 1.2.48 2.4 1.68 2.88 2.88.48 1.44.48 2.64.48 5.04v7.2c0 2.4 0 3.6-.48 5.04-.48 1.2-1.68 2.4-2.88 2.88-1.44.48-2.64.48-5.04.48h-7.2c-2.4 0-3.6 0-5.04-.48-1.2-.48-2.4-1.68-2.88-2.88-.48-1.44-.48-2.64-.48-5.04v-7.2c0-2.4 0-3.6.48-5.04.48-1.2 1.68-2.4 2.88-2.88 1.44-.48 2.64-.48 5.04-.48m0 0" stroke="#cf7737" stroke-linecap="round" stroke-linejoin="round" stroke-width=".25"/><path d="m-845.7741-3065.3843c-.28 0-.5-.22-.5-.5s.22-.5.5-.5h15c.28 0 .5.22.5.5s-.22.5-.5.5zm0 8c-.28 0-.5-.22-.5-.5s.22-.5.5-.5h15c.28 0 .5.22.5.5s-.22.5-.5.5zm0-4c-.28 0-.5-.22-.5-.5s.22-.5.5-.5h9c.28 0 .5.22.5.5s-.22.5-.5.5zm0 8c-.28 0-.5-.22-.5-.5s.22-.5.5-.5h9c.28 0 .5.22.5.5s-.22.5-.5.5z" fill="#000"/></g></svg>