<?xml version="1.0" encoding="UTF-8" standalone="no"?>
<!DOCTYPE svg PUBLIC "-//W3C//DTD SVG 1.1//EN" "http://www.w3.org/Graphics/SVG/1.1/DTD/svg11.dtd">
<svg xmlns="http://www.w3.org/2000/svg" xmlns:xl="http://www.w3.org/1999/xlink" version="1.1" xmlns:dc="http://purl.org/dc/elements/1.1/" viewBox="-814.7741 -3072.3843 25 25" width="25" height="25">
  <defs/>
  <g id="SOURCES" stroke-opacity="1" fill="none" stroke="none" fill-opacity="1" stroke-dasharray="none">
    <title>SOURCES</title>
    <g id="SOURCES_Dark">
      <title>Dark</title>
      <g id="Graphic_11134">
        <path d="M -805.8741 -3071.8843 L -798.6741 -3071.8843 C -796.2741 -3071.8843 -795.0741 -3071.8843 -793.6341 -3071.4043 C -792.4341 -3070.9243 -791.2341 -3069.7243 -790.7541 -3068.5243 C -790.2741 -3067.0843 -790.2741 -3065.8843 -790.2741 -3063.4843 L -790.2741 -3056.2843 C -790.2741 -3053.8843 -790.2741 -3052.6843 -790.7541 -3051.2443 C -791.2341 -3050.0443 -792.4341 -3048.8443 -793.6341 -3048.3643 C -795.0741 -3047.8843 -796.2741 -3047.8843 -798.6741 -3047.8843 L -805.8741 -3047.8843 C -808.2741 -3047.8843 -809.4741 -3047.8843 -810.9141 -3048.3643 C -812.1141 -3048.8443 -813.3141 -3050.0443 -813.7941 -3051.2443 C -814.2741 -3052.6843 -814.2741 -3053.8843 -814.2741 -3056.2843 L -814.2741 -3063.4843 C -814.2741 -3065.8843 -814.2741 -3067.0843 -813.7941 -3068.5243 C -813.3141 -3069.7243 -812.1141 -3070.9243 -810.9141 -3071.4043 C -809.4741 -3071.8843 -808.2741 -3071.8843 -805.8741 -3071.8843 M -805.8741 -3071.8843" fill="#9aff69"/>
        <path d="M -805.8741 -3071.8843 L -798.6741 -3071.8843 C -796.2741 -3071.8843 -795.0741 -3071.8843 -793.6341 -3071.4043 C -792.4341 -3070.9243 -791.2341 -3069.7243 -790.7541 -3068.5243 C -790.2741 -3067.0843 -790.2741 -3065.8843 -790.2741 -3063.4843 L -790.2741 -3056.2843 C -790.2741 -3053.8843 -790.2741 -3052.6843 -790.7541 -3051.2443 C -791.2341 -3050.0443 -792.4341 -3048.8443 -793.6341 -3048.3643 C -795.0741 -3047.8843 -796.2741 -3047.8843 -798.6741 -3047.8843 L -805.8741 -3047.8843 C -808.2741 -3047.8843 -809.4741 -3047.8843 -810.9141 -3048.3643 C -812.1141 -3048.8443 -813.3141 -3050.0443 -813.7941 -3051.2443 C -814.2741 -3052.6843 -814.2741 -3053.8843 -814.2741 -3056.2843 L -814.2741 -3063.4843 C -814.2741 -3065.8843 -814.2741 -3067.0843 -813.7941 -3068.5243 C -813.3141 -3069.7243 -812.1141 -3070.9243 -810.9141 -3071.4043 C -809.4741 -3071.8843 -808.2741 -3071.8843 -805.8741 -3071.8843 M -805.8741 -3071.8843" stroke="#528637" stroke-linecap="round" stroke-linejoin="round" stroke-width=".25"/>
      </g>
      <g id="Graphic_11133">
        <path d="M -801.42965 -3055.1176 C -801.6341 -3054.1296 -802.5319 -3053.3843 -803.6074 -3053.3843 C -804.683 -3053.3843 -805.5808 -3054.1296 -805.7852 -3055.1176 L -809.8297 -3055.1176 C -810.0785 -3055.1176 -810.2741 -3055.3083 -810.2741 -3055.551 C -810.2741 -3055.7936 -810.0785 -3055.9843 -809.8297 -3055.9843 L -805.7852 -3055.9843 C -805.5808 -3056.9723 -804.683 -3057.7176 -803.6074 -3057.7176 C -802.5319 -3057.7176 -801.6341 -3056.9723 -801.42965 -3055.9843 L -794.7185 -3055.9843 C -794.46965 -3055.9843 -794.2741 -3055.7936 -794.2741 -3055.551 C -794.2741 -3055.3083 -794.46965 -3055.1176 -794.7185 -3055.1176 L -801.42965 -3055.1176 Z M -796.0963 -3059.451 C -796.3008 -3058.463 -797.1985 -3057.7176 -798.2741 -3057.7176 C -799.34965 -3057.7176 -800.2474 -3058.463 -800.4519 -3059.451 L -809.8297 -3059.451 C -810.0785 -3059.451 -810.2741 -3059.6416 -810.2741 -3059.8843 C -810.2741 -3060.127 -810.0785 -3060.3176 -809.8297 -3060.3176 L -800.4519 -3060.3176 C -800.2474 -3061.3056 -799.34965 -3062.051 -798.2741 -3062.051 C -797.1985 -3062.051 -796.3008 -3061.3056 -796.0963 -3060.3176 L -794.7185 -3060.3176 C -794.46965 -3060.3176 -794.2741 -3060.127 -794.2741 -3059.8843 C -794.2741 -3059.6416 -794.46965 -3059.451 -794.7185 -3059.451 Z M -804.0963 -3063.7843 C -804.3008 -3062.7963 -805.1985 -3062.051 -806.2741 -3062.051 C -807.3497 -3062.051 -808.2474 -3062.7963 -808.4519 -3063.7843 L -809.8297 -3063.7843 C -810.0785 -3063.7843 -810.2741 -3063.975 -810.2741 -3064.2176 C -810.2741 -3064.4603 -810.0785 -3064.651 -809.8297 -3064.651 L -808.4519 -3064.651 C -808.2474 -3065.639 -807.3497 -3066.3843 -806.2741 -3066.3843 C -805.1985 -3066.3843 -804.3008 -3065.639 -804.0963 -3064.651 L -794.7185 -3064.651 C -794.46965 -3064.651 -794.2741 -3064.4603 -794.2741 -3064.2176 C -794.2741 -3063.975 -794.46965 -3063.7843 -794.7185 -3063.7843 Z M -806.2741 -3062.9176 C -805.5363 -3062.9176 -804.9408 -3063.4983 -804.9408 -3064.2176 C -804.9408 -3064.937 -805.5363 -3065.5176 -806.2741 -3065.5176 C -807.0119 -3065.5176 -807.6074 -3064.937 -807.6074 -3064.2176 C -807.6074 -3063.4983 -807.0119 -3062.9176 -806.2741 -3062.9176 Z M -798.2741 -3058.5843 C -797.5363 -3058.5843 -796.9408 -3059.165 -796.9408 -3059.8843 C -796.9408 -3060.6036 -797.5363 -3061.1843 -798.2741 -3061.1843 C -799.0119 -3061.1843 -799.6074 -3060.6036 -799.6074 -3059.8843 C -799.6074 -3059.165 -799.0119 -3058.5843 -798.2741 -3058.5843 Z M -803.6074 -3054.251 C -802.8697 -3054.251 -802.2741 -3054.8316 -802.2741 -3055.551 C -802.2741 -3056.2703 -802.8697 -3056.851 -803.6074 -3056.851 C -804.3452 -3056.851 -804.9408 -3056.2703 -804.9408 -3055.551 C -804.9408 -3054.8316 -804.3452 -3054.251 -803.6074 -3054.251 Z" fill="black"/>
      </g>
    </g>
  </g>
</svg>
