<svg height="25" viewBox="-778.774 -3072.384 25 25" width="25" xmlns="http://www.w3.org/2000/svg"><g fill="none"><path d="M-769.874-3071.884h7.2c2.4 0 3.6 0 5.04.48 1.2.48 2.4 1.68 2.88 2.88.48 1.44.48 2.64.48 5.04v7.2c0 2.4 0 3.6-.48 5.04-.48 1.2-1.68 2.4-2.88 2.88-1.44.48-2.64.48-5.04.48h-7.2c-2.4 0-3.6 0-5.04-.48-1.2-.48-2.4-1.68-2.88-2.88-.48-1.44-.48-2.64-.48-5.04v-7.2c0-2.4 0-3.6.48-5.04.48-1.2 1.68-2.4 2.88-2.88 1.44-.48 2.64-.48 5.04-.48m0 0" fill="#ffe5bf"/><path d="M-769.874-3071.884h7.2c2.4 0 3.6 0 5.04.48 1.2.48 2.4 1.68 2.88 2.88.48 1.44.48 2.64.48 5.04v7.2c0 2.4 0 3.6-.48 5.04-.48 1.2-1.68 2.4-2.88 2.88-1.44.48-2.64.48-5.04.48h-7.2c-2.4 0-3.6 0-5.04-.48-1.2-.48-2.4-1.68-2.88-2.88-.48-1.44-.48-2.64-.48-5.04v-7.2c0-2.4 0-3.6.48-5.04.48-1.2 1.68-2.4 2.88-2.88 1.44-.48 2.64-.48 5.04-.48m0 0" stroke="#a7957d" stroke-linecap="round" stroke-linejoin="round" stroke-width=".25"/><path d="M-773.474-3063.572v2.088c0 .272.68.696 1.928 1.024 1.384.36 3.264.576 5.272.576s3.888-.208 5.272-.576c1.248-.328 1.928-.752 1.928-1.024v-2.088c-1.288.808-4.016 1.288-7.2 1.288s-5.912-.48-7.2-1.288zm-.8-1.112c0-1.464 3.544-2.4 8-2.4s8 .936 8 2.4v9.6c0 1.464-3.544 2.4-8 2.4s-8-.936-8-2.4zm15.2 4.312c-1.288.808-4.016 1.288-7.2 1.288s-5.912-.48-7.2-1.288v2.088c0 .272.68.696 1.928 1.024 1.384.36 3.264.576 5.272.576s3.888-.208 5.272-.576c1.248-.328 1.928-.752 1.928-1.024zm0 3.2c-1.288.808-4.016 1.288-7.2 1.288s-5.912-.48-7.2-1.288v2.088c0 .272.68.696 1.928 1.024 1.384.36 3.264.576 5.272.576s3.888-.208 5.272-.576c1.248-.328 1.928-.752 1.928-1.024zm-7.2-5.912c2.008 0 3.888-.208 5.272-.576 1.248-.328 1.928-.752 1.928-1.024s-.68-.696-1.928-1.024c-1.384-.36-3.264-.576-5.272-.576s-3.888.208-5.272.576c-1.248.328-1.928.752-1.928 1.024s.68.696 1.928 1.024c1.384.36 3.264.576 5.272.576z" fill="#000"/></g></svg>