<svg height="25" viewBox="-706.774 -3072.384 25 25" width="25" xmlns="http://www.w3.org/2000/svg"><g fill="none"><path d="M-697.874-3071.884h7.2c2.4 0 3.6 0 5.04.48 1.2.48 2.4 1.68 2.88 2.88.48 1.44.48 2.64.48 5.04v7.2c0 2.4 0 3.6-.48 5.04-.48 1.2-1.68 2.4-2.88 2.88-1.44.48-2.64.48-5.04.48h-7.2c-2.4 0-3.6 0-5.04-.48-1.2-.48-2.4-1.68-2.88-2.88-.48-1.44-.48-2.64-.48-5.04v-7.2c0-2.4 0-3.6.48-5.04.48-1.2 1.68-2.4 2.88-2.88 1.44-.48 2.64-.48 5.04-.48m0 0" fill="#91baff"/><path d="M-697.874-3071.884h7.2c2.4 0 3.6 0 5.04.48 1.2.48 2.4 1.68 2.88 2.88.48 1.44.48 2.64.48 5.04v7.2c0 2.4 0 3.6-.48 5.04-.48 1.2-1.68 2.4-2.88 2.88-1.44.48-2.64.48-5.04.48h-7.2c-2.4 0-3.6 0-5.04-.48-1.2-.48-2.4-1.68-2.88-2.88-.48-1.44-.48-2.64-.48-5.04v-7.2c0-2.4 0-3.6.48-5.04.48-1.2 1.68-2.4 2.88-2.88 1.44-.48 2.64-.48 5.04-.48m0 0" stroke="#5c76a2" stroke-linecap="round" stroke-linejoin="round" stroke-width=".25"/><path d="M-699.826-3055.44a7.123 7.123 0 0 0 5.56 2.667c3.764 0 6.879-2.933 7.101-6.667a.44.44 0 0 1 .472-.418.44.44 0 0 1 .418.471c-.258 4.205-3.755 7.503-7.99 7.503a8.023 8.023 0 0 1-6.228-2.97v2.525c0 .249-.196.445-.445.445s-.445-.196-.445-.445v-3.555a.44.44 0 0 1 .445-.445h3.559c.249 0 .445.196.445.445s-.196.444-.445.444zm11.113-8.889a7.123 7.123 0 0 0-5.561-2.666c-3.781 0-6.896 2.95-7.11 6.702a.44.44 0 0 1-.47.418.44.44 0 0 1-.419-.471c.25-4.223 3.755-7.538 8.008-7.538a8.023 8.023 0 0 1 6.228 2.969v-2.525c0-.249.196-.444.445-.444s.445.195.445.444v3.556a.44.44 0 0 1-.445.444h-3.56c-.248 0-.444-.195-.444-.444s.196-.445.445-.445h2.447z" fill="#000"/></g></svg>