<svg height="25" viewBox="-886.774 -3072.384 25 25" width="25" xmlns="http://www.w3.org/2000/svg"><g fill="none"><path d="m-877.8741-3071.8843h7.2c2.4 0 3.6 0 5.04.48 1.2.48 2.4 1.68 2.88 2.88.48 1.44.48 2.64.48 5.04v7.2c0 2.4 0 3.6-.48 5.04-.48 1.2-1.68 2.4-2.88 2.88-1.44.48-2.64.48-5.04.48h-7.2c-2.4 0-3.6 0-5.04-.48-1.2-.48-2.4-1.68-2.88-2.88-.48-1.44-.48-2.64-.48-5.04v-7.2c0-2.4 0-3.6.48-5.04.48-1.2 1.68-2.4 2.88-2.88 1.44-.48 2.64-.48 5.04-.48m0 0" fill="#cde8ff"/><path d="m-877.8741-3071.8843h7.2c2.4 0 3.6 0 5.04.48 1.2.48 2.4 1.68 2.88 2.88.48 1.44.48 2.64.48 5.04v7.2c0 2.4 0 3.6-.48 5.04-.48 1.2-1.68 2.4-2.88 2.88-1.44.48-2.64.48-5.04.48h-7.2c-2.4 0-3.6 0-5.04-.48-1.2-.48-2.4-1.68-2.88-2.88-.48-1.44-.48-2.64-.48-5.04v-7.2c0-2.4 0-3.6.48-5.04.48-1.2 1.68-2.4 2.88-2.88 1.44-.48 2.64-.48 5.04-.48m0 0" stroke="#65727e" stroke-linecap="round" stroke-linejoin="round" stroke-width=".25"/><path d="m-867.3716-3056.96v-8.702c0-.738-.5956-1.3334-1.3334-1.3334h-11.5555c-.7378 0-1.3333.5954-1.3333 1.3334v6.0355l2.8-2.8c.1777-.1778.4533-.1778.6311 0l5.0222 5.0222 2.3555-2.3557c.1778-.1776.4534-.1776.6312 0l2.8 2.8zm0 1.2624-3.1111-3.1111-2.3556 2.3555c-.1778.1778-.4533.1778-.6311 0l-5.0222-5.0222-3.1111 3.1111v4.2578c0 .7378.5955 1.3333 1.3333 1.3333h11.5556c.7377 0 1.3333-.5955 1.3333-1.3333v-1.5911zm-15.1111-9.9644c0-1.2267.9955-2.2223 2.2222-2.2223h11.5555c1.2267 0 2.2223.9956 2.2223 2.2223v11.5555c0 1.2265-.9956 2.2222-2.2223 2.2222h-11.5555c-1.2267 0-2.2222-.9957-2.2222-2.2222zm10.6666.4444h1.7778c.4889 0 .8889.4.8889.8889v1.7777c0 .489-.4.889-.8889.889h-1.7778c-.4889 0-.8889-.4-.8889-.889v-1.7777c0-.4889.4-.8889.8889-.8889zm0 .8889v1.7777h1.7778v-1.7777z" fill="#000"/></g></svg>