<svg height="25" viewBox="-886.774 -3072.384 25 25" width="25" xmlns="http://www.w3.org/2000/svg"><g fill="none"><path d="M-877.874-3071.884h7.2c2.4 0 3.6 0 5.04.48 1.2.48 2.4 1.68 2.88 2.88.48 1.44.48 2.64.48 5.04v7.2c0 2.4 0 3.6-.48 5.04-.48 1.2-1.68 2.4-2.88 2.88-1.44.48-2.64.48-5.04.48h-7.2c-2.4 0-3.6 0-5.04-.48-1.2-.48-2.4-1.68-2.88-2.88-.48-1.44-.48-2.64-.48-5.04v-7.2c0-2.4 0-3.6.48-5.04.48-1.2 1.68-2.4 2.88-2.88 1.44-.48 2.64-.48 5.04-.48m0 0" fill="#cde8ff"/><path d="M-877.874-3071.884h7.2c2.4 0 3.6 0 5.04.48 1.2.48 2.4 1.68 2.88 2.88.48 1.44.48 2.64.48 5.04v7.2c0 2.4 0 3.6-.48 5.04-.48 1.2-1.68 2.4-2.88 2.88-1.44.48-2.64.48-5.04.48h-7.2c-2.4 0-3.6 0-5.04-.48-1.2-.48-2.4-1.68-2.88-2.88-.48-1.44-.48-2.64-.48-5.04v-7.2c0-2.4 0-3.6.48-5.04.48-1.2 1.68-2.4 2.88-2.88 1.44-.48 2.64-.48 5.04-.48m0 0" stroke="#65727e" stroke-linecap="round" stroke-linejoin="round" stroke-width=".25"/><path d="M-867.372-3056.96v-8.702c0-.738-.595-1.333-1.333-1.333h-11.555c-.738 0-1.334.595-1.334 1.333v6.035l2.8-2.8a.44.44 0 0 1 .631 0l5.022 5.023 2.356-2.356a.44.44 0 0 1 .631 0l2.8 2.8zm0 1.262l-3.11-3.11-2.356 2.355a.44.44 0 0 1-.631 0l-5.023-5.022-3.11 3.11v4.259c0 .737.595 1.333 1.333 1.333h11.555c.738 0 1.334-.596 1.334-1.333v-1.592zm-15.11-9.964c0-1.227.995-2.222 2.222-2.222h11.555c1.227 0 2.222.995 2.222 2.222v11.556a2.223 2.223 0 0 1-2.222 2.222h-11.555a2.223 2.223 0 0 1-2.223-2.222zm10.666.444h1.778c.489 0 .889.4.889.89v1.777c0 .489-.4.889-.89.889h-1.777a.892.892 0 0 1-.889-.889v-1.778c0-.489.4-.889.889-.889zm0 .89v1.777h1.778v-1.778z" fill="#000"/></g></svg>