<?xml version="1.0" encoding="UTF-8" standalone="no"?>
<!DOCTYPE svg PUBLIC "-//W3C//DTD SVG 1.1//EN" "http://www.w3.org/Graphics/SVG/1.1/DTD/svg11.dtd">
<svg version="1.1" xmlns="http://www.w3.org/2000/svg" xmlns:xl="http://www.w3.org/1999/xlink" xmlns:dc="http://purl.org/dc/elements/1.1/" viewBox="-752.5 -3582.6755 25 25" width="25" height="25">
  <defs/>
  <g id="SOURCES" stroke-dasharray="none" fill="none" stroke="none" fill-opacity="1" stroke-opacity="1">
    <title>SOURCES</title>
    <g id="SOURCES_Calque_2">
      <title>Calque 2</title>
      <g id="Graphic_9602">
        <path d="M -743.6 -3582.1755 L -736.4 -3582.1755 C -734 -3582.1755 -732.8 -3582.1755 -731.36 -3581.6955 C -730.16 -3581.2155 -728.96 -3580.0155 -728.48 -3578.8155 C -728 -3577.3755 -728 -3576.1755 -728 -3573.7755 L -728 -3566.5755 C -728 -3564.1755 -728 -3562.9755 -728.48 -3561.5355 C -728.96 -3560.3355 -730.16 -3559.1355 -731.36 -3558.6555 C -732.8 -3558.1755 -734 -3558.1755 -736.4 -3558.1755 L -743.6 -3558.1755 C -746 -3558.1755 -747.2 -3558.1755 -748.64 -3558.6555 C -749.84 -3559.1355 -751.04 -3560.3355 -751.52 -3561.5355 C -752 -3562.9755 -752 -3564.1755 -752 -3566.5755 L -752 -3573.7755 C -752 -3576.1755 -752 -3577.3755 -751.52 -3578.8155 C -751.04 -3580.0155 -749.84 -3581.2155 -748.64 -3581.6955 C -747.2 -3582.1755 -746 -3582.1755 -743.6 -3582.1755 M -743.6 -3582.1755" fill="#9f4c4c"/>
        <path d="M -743.6 -3582.1755 L -736.4 -3582.1755 C -734 -3582.1755 -732.8 -3582.1755 -731.36 -3581.6955 C -730.16 -3581.2155 -728.96 -3580.0155 -728.48 -3578.8155 C -728 -3577.3755 -728 -3576.1755 -728 -3573.7755 L -728 -3566.5755 C -728 -3564.1755 -728 -3562.9755 -728.48 -3561.5355 C -728.96 -3560.3355 -730.16 -3559.1355 -731.36 -3558.6555 C -732.8 -3558.1755 -734 -3558.1755 -736.4 -3558.1755 L -743.6 -3558.1755 C -746 -3558.1755 -747.2 -3558.1755 -748.64 -3558.6555 C -749.84 -3559.1355 -751.04 -3560.3355 -751.52 -3561.5355 C -752 -3562.9755 -752 -3564.1755 -752 -3566.5755 L -752 -3573.7755 C -752 -3576.1755 -752 -3577.3755 -751.52 -3578.8155 C -751.04 -3580.0155 -749.84 -3581.2155 -748.64 -3581.6955 C -747.2 -3582.1755 -746 -3582.1755 -743.6 -3582.1755 M -743.6 -3582.1755" stroke="#9f4c4b" stroke-linecap="round" stroke-linejoin="round" stroke-width=".25"/>
      </g>
      <g id="Group_9626">
        <title>prototype</title>
        <g id="Graphic_9627">
          <path d="M -745.6 -3572.5755 L -745.6 -3570.1755 L -742.4 -3570.1755 L -742.4 -3572.5755 Z M -747.2 -3574.9755 L -736 -3574.9755 L -736 -3576.1755 C -736 -3576.8395 -736.536 -3577.3755 -737.2 -3577.3755 L -746 -3577.3755 C -746.664 -3577.3755 -747.2 -3576.8395 -747.2 -3576.1755 Z M -738.8 -3574.1755 L -747.2 -3574.1755 L -747.2 -3566.5755 C -747.2 -3565.9115 -746.664 -3565.3755 -746 -3565.3755 L -739.2 -3565.3755 L -739.2 -3566.1755 L -740.4 -3566.1755 C -740.624 -3566.1755 -740.8 -3566.3515 -740.8 -3566.5755 C -740.8 -3566.7995 -740.624 -3566.9755 -740.4 -3566.9755 L -739.2 -3566.9755 L -739.2 -3567.7755 L -740.4 -3567.7755 C -740.624 -3567.7755 -740.8 -3567.9515 -740.8 -3568.1755 C -740.8 -3568.3995 -740.624 -3568.5755 -740.4 -3568.5755 L -739.2 -3568.5755 L -739.2 -3569.3755 L -740.4 -3569.3755 C -740.624 -3569.3755 -740.8 -3569.5515 -740.8 -3569.7755 L -740.8 -3572.9755 C -740.8 -3573.1995 -740.624 -3573.3755 -740.4 -3573.3755 L -739.16 -3573.3755 C -739.104 -3573.6715 -738.976 -3573.9435 -738.8 -3574.1755 Z M -735.2 -3574.9755 L -734 -3574.9755 C -732.896 -3574.9755 -732 -3574.0795 -732 -3572.9755 L -732 -3564.1755 C -732 -3563.0715 -732.896 -3562.1755 -734 -3562.1755 L -737.2 -3562.1755 C -738.304 -3562.1755 -739.2 -3563.0715 -739.2 -3564.1755 L -739.2 -3564.5755 L -746 -3564.5755 C -747.104 -3564.5755 -748 -3565.4715 -748 -3566.5755 L -748 -3576.1755 C -748 -3577.2795 -747.104 -3578.1755 -746 -3578.1755 L -737.2 -3578.1755 C -736.096 -3578.1755 -735.2 -3577.2795 -735.2 -3576.1755 Z M -739.2 -3570.1755 L -739.2 -3572.5755 L -740 -3572.5755 L -740 -3570.1755 Z M -746 -3573.3755 L -742 -3573.3755 C -741.776 -3573.3755 -741.6 -3573.1995 -741.6 -3572.9755 L -741.6 -3569.7755 C -741.6 -3569.5515 -741.776 -3569.3755 -742 -3569.3755 L -746 -3569.3755 C -746.224 -3569.3755 -746.4 -3569.5515 -746.4 -3569.7755 L -746.4 -3572.9755 C -746.4 -3573.1995 -746.224 -3573.3755 -746 -3573.3755 Z M -738.4 -3572.9755 L -738.4 -3564.1755 C -738.4 -3563.5115 -737.864 -3562.9755 -737.2 -3562.9755 L -734 -3562.9755 C -733.336 -3562.9755 -732.8 -3563.5115 -732.8 -3564.1755 L -732.8 -3572.9755 C -732.8 -3573.6395 -733.336 -3574.1755 -734 -3574.1755 L -737.2 -3574.1755 C -737.864 -3574.1755 -738.4 -3573.6395 -738.4 -3572.9755 Z M -746 -3567.7755 C -746.224 -3567.7755 -746.4 -3567.9515 -746.4 -3568.1755 C -746.4 -3568.3995 -746.224 -3568.5755 -746 -3568.5755 L -742 -3568.5755 C -741.776 -3568.5755 -741.6 -3568.3995 -741.6 -3568.1755 C -741.6 -3567.9515 -741.776 -3567.7755 -742 -3567.7755 Z M -746 -3566.1755 C -746.224 -3566.1755 -746.4 -3566.3515 -746.4 -3566.5755 C -746.4 -3566.7995 -746.224 -3566.9755 -746 -3566.9755 L -743.6 -3566.9755 C -743.376 -3566.9755 -743.2 -3566.7995 -743.2 -3566.5755 C -743.2 -3566.3515 -743.376 -3566.1755 -743.6 -3566.1755 Z M -737.2 -3572.5755 L -734 -3572.5755 C -733.776 -3572.5755 -733.6 -3572.3995 -733.6 -3572.1755 L -733.6 -3570.5755 C -733.6 -3570.3515 -733.776 -3570.1755 -734 -3570.1755 L -737.2 -3570.1755 C -737.424 -3570.1755 -737.6 -3570.3515 -737.6 -3570.5755 L -737.6 -3572.1755 C -737.6 -3572.3995 -737.424 -3572.5755 -737.2 -3572.5755 Z M -736.8 -3571.7755 L -736.8 -3570.9755 L -734.4 -3570.9755 L -734.4 -3571.7755 Z M -737.2 -3568.5755 C -737.424 -3568.5755 -737.6 -3568.7515 -737.6 -3568.9755 C -737.6 -3569.1995 -737.424 -3569.3755 -737.2 -3569.3755 L -734 -3569.3755 C -733.776 -3569.3755 -733.6 -3569.1995 -733.6 -3568.9755 C -733.6 -3568.7515 -733.776 -3568.5755 -734 -3568.5755 Z M -737.2 -3566.9755 C -737.424 -3566.9755 -737.6 -3567.1515 -737.6 -3567.3755 C -737.6 -3567.5995 -737.424 -3567.7755 -737.2 -3567.7755 L -734.8 -3567.7755 C -734.576 -3567.7755 -734.4 -3567.5995 -734.4 -3567.3755 C -734.4 -3567.1515 -734.576 -3566.9755 -734.8 -3566.9755 Z M -746.4 -3576.5755 L -745.6 -3576.5755 L -745.6 -3575.7755 L -746.4 -3575.7755 Z M -744.8 -3576.5755 L -744 -3576.5755 L -744 -3575.7755 L -744.8 -3575.7755 Z M -743.2 -3576.5755 L -742.4 -3576.5755 L -742.4 -3575.7755 L -743.2 -3575.7755 Z M -736.4 -3563.7755 C -736.624 -3563.7755 -736.8 -3563.9515 -736.8 -3564.1755 C -736.8 -3564.3995 -736.624 -3564.5755 -736.4 -3564.5755 L -734.8 -3564.5755 C -734.576 -3564.5755 -734.4 -3564.3995 -734.4 -3564.1755 C -734.4 -3563.9515 -734.576 -3563.7755 -734.8 -3563.7755 Z" fill="white"/>
        </g>
      </g>
    </g>
  </g>
</svg>
