<svg height="25" viewBox="-814.774 -3072.384 25 25" width="25" xmlns="http://www.w3.org/2000/svg"><g fill="none"><path d="m-805.8741-3071.8843h7.2c2.4 0 3.6 0 5.04.48 1.2.48 2.4 1.68 2.88 2.88.48 1.44.48 2.64.48 5.04v7.2c0 2.4 0 3.6-.48 5.04-.48 1.2-1.68 2.4-2.88 2.88-1.44.48-2.64.48-5.04.48h-7.2c-2.4 0-3.6 0-5.04-.48-1.2-.48-2.4-1.68-2.88-2.88-.48-1.44-.48-2.64-.48-5.04v-7.2c0-2.4 0-3.6.48-5.04.48-1.2 1.68-2.4 2.88-2.88 1.44-.48 2.64-.48 5.04-.48m0 0" fill="#9aff69"/><path d="m-805.8741-3071.8843h7.2c2.4 0 3.6 0 5.04.48 1.2.48 2.4 1.68 2.88 2.88.48 1.44.48 2.64.48 5.04v7.2c0 2.4 0 3.6-.48 5.04-.48 1.2-1.68 2.4-2.88 2.88-1.44.48-2.64.48-5.04.48h-7.2c-2.4 0-3.6 0-5.04-.48-1.2-.48-2.4-1.68-2.88-2.88-.48-1.44-.48-2.64-.48-5.04v-7.2c0-2.4 0-3.6.48-5.04.48-1.2 1.68-2.4 2.88-2.88 1.44-.48 2.64-.48 5.04-.48m0 0" stroke="#528637" stroke-linecap="round" stroke-linejoin="round" stroke-width=".25"/><path d="m-801.42965-3055.1176c-.20445.988-1.10225 1.7333-2.17775 1.7333-1.0756 0-1.9734-.7453-2.1778-1.7333h-4.0445c-.2488 0-.4444-.1907-.4444-.4334 0-.2426.1956-.4333.4444-.4333h4.0445c.2044-.988 1.1022-1.7333 2.1778-1.7333 1.0755 0 1.9733.7453 2.17775 1.7333h6.71115c.24885 0 .4444.1907.4444.4333 0 .2427-.19555.4334-.4444.4334zm5.33335-4.3334c-.2045.988-1.1022 1.7334-2.1778 1.7334-1.07555 0-1.9733-.7454-2.1778-1.7334h-9.3778c-.2488 0-.4444-.1906-.4444-.4333s.1956-.4333.4444-.4333h9.3778c.2045-.988 1.10225-1.7334 2.1778-1.7334 1.0756 0 1.9733.7454 2.1778 1.7334h1.3778c.24885 0 .4444.1906.4444.4333s-.19555.4333-.4444.4333zm-8-4.3333c-.2045.988-1.1022 1.7333-2.1778 1.7333s-1.9733-.7453-2.1778-1.7333h-1.3778c-.2488 0-.4444-.1907-.4444-.4333 0-.2427.1956-.4334.4444-.4334h1.3778c.2045-.988 1.1022-1.7333 2.1778-1.7333s1.9733.7453 2.1778 1.7333h9.3778c.24885 0 .4444.1907.4444.4334 0 .2426-.19555.4333-.4444.4333zm-2.1778.8667c.7378 0 1.3333-.5807 1.3333-1.3 0-.7194-.5955-1.3-1.3333-1.3s-1.3333.5806-1.3333 1.3c0 .7193.5955 1.3 1.3333 1.3zm8 4.3333c.7378 0 1.3333-.5807 1.3333-1.3s-.5955-1.3-1.3333-1.3-1.3333.5807-1.3333 1.3.5955 1.3 1.3333 1.3zm-5.3333 4.3333c.7377 0 1.3333-.5806 1.3333-1.3 0-.7193-.5956-1.3-1.3333-1.3-.7378 0-1.3334.5807-1.3334 1.3 0 .7194.5956 1.3 1.3334 1.3z" fill="#000"/></g></svg>