<?xml version="1.0" encoding="UTF-8" standalone="no"?>
<!DOCTYPE svg PUBLIC "-//W3C//DTD SVG 1.1//EN" "http://www.w3.org/Graphics/SVG/1.1/DTD/svg11.dtd">
<svg xmlns:xl="http://www.w3.org/1999/xlink" xmlns:dc="http://purl.org/dc/elements/1.1/" version="1.1" xmlns="http://www.w3.org/2000/svg" viewBox="-634.8703 -3072.4983 25 25" width="25" height="25">
  <defs/>
  <g id="SOURCES" stroke="none" stroke-dasharray="none" stroke-opacity="1" fill="none" fill-opacity="1">
    <title>SOURCES</title>
    <g id="SOURCES_Dark">
      <title>Dark</title>
      <g id="Graphic_12515">
        <path d="M -625.9703 -3071.9983 L -618.7703 -3071.9983 C -616.3703 -3071.9983 -615.1703 -3071.9983 -613.7303 -3071.5183 C -612.5303 -3071.0383 -611.3303 -3069.8383 -610.8503 -3068.6383 C -610.3703 -3067.1983 -610.3703 -3065.9983 -610.3703 -3063.5983 L -610.3703 -3056.3983 C -610.3703 -3053.9983 -610.3703 -3052.7983 -610.8503 -3051.3583 C -611.3303 -3050.1583 -612.5303 -3048.9583 -613.7303 -3048.4783 C -615.1703 -3047.9983 -616.3703 -3047.9983 -618.7703 -3047.9983 L -625.9703 -3047.9983 C -628.3703 -3047.9983 -629.5703 -3047.9983 -631.0103 -3048.4783 C -632.2103 -3048.9583 -633.4103 -3050.1583 -633.8903 -3051.3583 C -634.3703 -3052.7983 -634.3703 -3053.9983 -634.3703 -3056.3983 L -634.3703 -3063.5983 C -634.3703 -3065.9983 -634.3703 -3067.1983 -633.8903 -3068.6383 C -633.4103 -3069.8383 -632.2103 -3071.0383 -631.0103 -3071.5183 C -629.5703 -3071.9983 -628.3703 -3071.9983 -625.9703 -3071.9983 M -625.9703 -3071.9983" fill="#cb75c9"/>
        <path d="M -625.9703 -3071.9983 L -618.7703 -3071.9983 C -616.3703 -3071.9983 -615.1703 -3071.9983 -613.7303 -3071.5183 C -612.5303 -3071.0383 -611.3303 -3069.8383 -610.8503 -3068.6383 C -610.3703 -3067.1983 -610.3703 -3065.9983 -610.3703 -3063.5983 L -610.3703 -3056.3983 C -610.3703 -3053.9983 -610.3703 -3052.7983 -610.8503 -3051.3583 C -611.3303 -3050.1583 -612.5303 -3048.9583 -613.7303 -3048.4783 C -615.1703 -3047.9983 -616.3703 -3047.9983 -618.7703 -3047.9983 L -625.9703 -3047.9983 C -628.3703 -3047.9983 -629.5703 -3047.9983 -631.0103 -3048.4783 C -632.2103 -3048.9583 -633.4103 -3050.1583 -633.8903 -3051.3583 C -634.3703 -3052.7983 -634.3703 -3053.9983 -634.3703 -3056.3983 L -634.3703 -3063.5983 C -634.3703 -3065.9983 -634.3703 -3067.1983 -633.8903 -3068.6383 C -633.4103 -3069.8383 -632.2103 -3071.0383 -631.0103 -3071.5183 C -629.5703 -3071.9983 -628.3703 -3071.9983 -625.9703 -3071.9983 M -625.9703 -3071.9983" stroke="#65727e" stroke-linecap="round" stroke-linejoin="round" stroke-width=".25"/>
      </g>
      <g id="Graphic_12514">
        <path d="M -623.2592 -3054.4047 L -623.2592 -3061.3317 C -623.2592 -3061.577 -623.0602 -3061.776 -622.81476 -3061.776 C -622.5693 -3061.776 -622.3703 -3061.577 -622.3703 -3061.3317 L -622.3703 -3054.4047 L -620.46236 -3056.3126 C -620.2888 -3056.4862 -620.0074 -3056.4862 -619.8338 -3056.3126 C -619.66025 -3056.139 -619.66025 -3055.8576 -619.8338 -3055.684 L -622.5005 -3053.0174 C -622.67405 -3052.844 -622.95546 -3052.844 -623.129 -3053.0174 L -625.7957 -3055.684 C -625.96926 -3055.8576 -625.96926 -3056.139 -625.7957 -3056.3126 C -625.6221 -3056.4862 -625.3407 -3056.4862 -625.16715 -3056.3126 Z M -619.0424 -3064.4428 L -618.3703 -3064.4428 C -616.1612 -3064.4428 -614.3703 -3062.652 -614.3703 -3060.4428 C -614.3703 -3058.2337 -616.1612 -3056.4428 -618.3703 -3056.4428 C -618.6158 -3056.4428 -618.81476 -3056.6418 -618.81476 -3056.8872 C -618.81476 -3057.1327 -618.6158 -3057.3317 -618.3703 -3057.3317 C -616.6521 -3057.3317 -615.2592 -3058.7246 -615.2592 -3060.4428 C -615.2592 -3062.161 -616.6521 -3063.554 -618.3703 -3063.554 L -618.8392 -3063.554 C -618.82304 -3063.408 -618.81476 -3063.2597 -618.81476 -3063.1095 C -618.81476 -3062.864 -619.01374 -3062.665 -619.2592 -3062.665 C -619.50466 -3062.665 -619.70364 -3062.864 -619.70364 -3063.1095 C -619.70364 -3064.8277 -621.0965 -3066.2206 -622.81476 -3066.2206 L -623.2592 -3066.2206 C -625.2229 -3066.2206 -626.81476 -3064.6287 -626.81476 -3062.665 L -626.81476 -3062.2206 C -626.81476 -3061.975 -627.01374 -3061.776 -627.2592 -3061.776 C -628.4865 -3061.776 -629.4814 -3060.7812 -629.4814 -3059.554 C -629.4814 -3058.3266 -628.4865 -3057.3317 -627.2592 -3057.3317 C -627.01374 -3057.3317 -626.81476 -3057.1327 -626.81476 -3056.8872 C -626.81476 -3056.6418 -627.01374 -3056.4428 -627.2592 -3056.4428 C -628.9774 -3056.4428 -630.3703 -3057.8357 -630.3703 -3059.554 C -630.3703 -3061.1212 -629.2113 -3062.418 -627.70364 -3062.6335 C -627.70364 -3065.1196 -625.7138 -3067.1095 -623.2592 -3067.1095 L -622.81476 -3067.1095 C -621.0731 -3067.1095 -619.5915 -3065.9964 -619.0424 -3064.4428 Z" fill="black"/>
      </g>
    </g>
  </g>
</svg>
