<?xml version="1.0" encoding="UTF-8" standalone="no"?>
<!DOCTYPE svg PUBLIC "-//W3C//DTD SVG 1.1//EN" "http://www.w3.org/Graphics/SVG/1.1/DTD/svg11.dtd">
<svg xmlns:xl="http://www.w3.org/1999/xlink" version="1.1" xmlns="http://www.w3.org/2000/svg" xmlns:dc="http://purl.org/dc/elements/1.1/" viewBox="-232.00004 -3168.7094 48 48" width="48" height="48">
  <defs/>
  <g id="SOURCES" fill="none" fill-opacity="1" stroke-dasharray="none" stroke="none" stroke-opacity="1">
    <title>SOURCES</title>
    <g id="SOURCES_Calque_1">
      <title>Calque 1</title>
      <g id="Group_6173">
        <g id="Graphic_6193">
          <path d="M -229.00004 -3168.7094 L -187.00004 -3168.7094 C -185.34319 -3168.7094 -184.00004 -3167.3663 -184.00004 -3165.7094 L -184.00004 -3123.7094 C -184.00004 -3122.0525 -185.34319 -3120.7094 -187.00004 -3120.7094 L -229.00004 -3120.7094 C -230.6569 -3120.7094 -232.00004 -3122.0525 -232.00004 -3123.7094 L -232.00004 -3165.7094 C -232.00004 -3167.3663 -230.6569 -3168.7094 -229.00004 -3168.7094 Z" fill="white"/>
          <text transform="translate(-227.00004 -3146.2604)" fill="#ef9b00">
            <tspan font-family="DIN Pro" font-weight="bold" font-size="9" fill="#ef9b00" x="3.6055" y="9">Graphical</tspan>
            <tspan font-family="DIN Pro" font-weight="bold" font-size="9" fill="#de1f00" y="9"> </tspan>
            <tspan font-family="DIN Pro" font-weight="bold" font-size="9" fill="#4288c4" x="3.178" y="21.261">Modelling</tspan>
            <tspan font-family="DIN Pro" font-weight="bold" font-size="10" fill="#de1f00" y="21.261"> </tspan>
          </text>
        </g>
        <g id="Group_6186">
          <g id="Graphic_6192">
            <path d="M -230.60408 -3146.258 L -227.57508 -3146.258 C -227.22334 -3150.7586 -225.32624 -3155.1613 -221.88376 -3158.6037 C -214.2153 -3166.2722 -201.7823 -3166.2722 -194.11384 -3158.6037 C -190.67136 -3155.1613 -188.77425 -3150.7586 -188.42252 -3146.258 L -185.39351 -3146.258 C -185.75052 -3151.5332 -187.94525 -3156.7074 -191.9777 -3160.74 C -200.8259 -3169.588 -215.1717 -3169.588 -224.0199 -3160.74 C -228.05235 -3156.7074 -230.24707 -3151.5332 -230.60408 -3146.258 Z" fill="#efb54f" fill-opacity=".25239327"/>
            <path d="M -230.60408 -3146.258 L -227.57508 -3146.258 C -227.22334 -3150.7586 -225.32624 -3155.1613 -221.88376 -3158.6037 C -214.2153 -3166.2722 -201.7823 -3166.2722 -194.11384 -3158.6037 C -190.67136 -3155.1613 -188.77425 -3150.7586 -188.42252 -3146.258 L -185.39351 -3146.258 C -185.75052 -3151.5332 -187.94525 -3156.7074 -191.9777 -3160.74 C -200.8259 -3169.588 -215.1717 -3169.588 -224.0199 -3160.74 C -228.05235 -3156.7074 -230.24707 -3151.5332 -230.60408 -3146.258 Z" stroke="#efb64f" stroke-linecap="round" stroke-linejoin="round" stroke-width="0"/>
          </g>
          <g id="Graphic_6191">
            <path d="M -224.92567 -3146.2208 L -221.89032 -3146.2208 C -221.56138 -3149.2807 -220.2241 -3152.253 -217.87848 -3154.5985 C -212.42208 -3160.055 -203.57552 -3160.055 -198.11912 -3154.5985 C -195.7735 -3152.253 -194.43622 -3149.2807 -194.10728 -3146.2208 L -191.07193 -3146.2208 C -191.41026 -3150.0563 -193.04727 -3153.799 -195.98297 -3156.7346 C -202.61913 -3163.3708 -213.37847 -3163.3708 -220.01463 -3156.7346 C -222.95032 -3153.799 -224.58734 -3150.0563 -224.92567 -3146.2208 Z" fill="#d3673a" fill-opacity=".24884463"/>
            <path d="M -224.92567 -3146.2208 L -221.89032 -3146.2208 C -221.56138 -3149.2807 -220.2241 -3152.253 -217.87848 -3154.5985 C -212.42208 -3160.055 -203.57552 -3160.055 -198.11912 -3154.5985 C -195.7735 -3152.253 -194.43622 -3149.2807 -194.10728 -3146.2208 L -191.07193 -3146.2208 C -191.41026 -3150.0563 -193.04727 -3153.799 -195.98297 -3156.7346 C -202.61913 -3163.3708 -213.37847 -3163.3708 -220.01463 -3156.7346 C -222.95032 -3153.799 -224.58734 -3150.0563 -224.92567 -3146.2208 Z" stroke="#d2673a" stroke-linecap="round" stroke-linejoin="round" stroke-width="0"/>
          </g>
          <g id="Graphic_6190">
            <path d="M -219.22303 -3146.258 L -216.16346 -3146.258 C -215.86554 -3147.846 -215.10212 -3149.3643 -213.8732 -3150.593 C -210.62886 -3153.8375 -205.36874 -3153.8375 -202.1244 -3150.593 C -200.89548 -3149.3643 -200.13206 -3147.846 -199.83413 -3146.258 L -196.77457 -3146.258 C -197.09737 -3148.625 -198.1686 -3150.9097 -199.98825 -3152.7293 C -204.41235 -3157.1535 -211.58524 -3157.1535 -216.00935 -3152.7293 C -217.829 -3150.9097 -218.90022 -3148.625 -219.22303 -3146.258 Z" fill="#3570a0" fill-opacity=".2496699"/>
            <path d="M -219.22303 -3146.258 L -216.16346 -3146.258 C -215.86554 -3147.846 -215.10212 -3149.3643 -213.8732 -3150.593 C -210.62886 -3153.8375 -205.36874 -3153.8375 -202.1244 -3150.593 C -200.89548 -3149.3643 -200.13206 -3147.846 -199.83413 -3146.258 L -196.77457 -3146.258 C -197.09737 -3148.625 -198.1686 -3150.9097 -199.98825 -3152.7293 C -204.41235 -3157.1535 -211.58524 -3157.1535 -216.00935 -3152.7293 C -217.829 -3150.9097 -218.90022 -3148.625 -219.22303 -3146.258 Z" stroke="#3770a0" stroke-linecap="round" stroke-linejoin="round" stroke-width="0"/>
          </g>
          <g id="Graphic_6189">
            <path d="M -224.9456 -3146.258 L -221.90973 -3146.258 C -221.57587 -3149.3084 -220.23956 -3152.27 -217.9008 -3154.6088 C -215.15255 -3157.357 -211.54425 -3158.721 -207.94228 -3158.701 C -206.05553 -3158.6903 -204.17052 -3158.3 -202.41175 -3157.5297 L -201.23099 -3160.3114 C -203.36788 -3161.242 -205.65704 -3161.712 -207.9478 -3161.722 C -212.32108 -3161.7406 -216.70022 -3160.0816 -220.03694 -3156.745 C -222.9658 -3153.816 -224.602 -3150.084 -224.9456 -3146.258 Z" fill="#d3673a"/>
            <path d="M -224.9456 -3146.258 L -221.90973 -3146.258 C -221.57587 -3149.3084 -220.23956 -3152.27 -217.9008 -3154.6088 C -215.15255 -3157.357 -211.54425 -3158.721 -207.94228 -3158.701 C -206.05553 -3158.6903 -204.17052 -3158.3 -202.41175 -3157.5297 L -201.23099 -3160.3114 C -203.36788 -3161.242 -205.65704 -3161.712 -207.9478 -3161.722 C -212.32108 -3161.7406 -216.70022 -3160.0816 -220.03694 -3156.745 C -222.9658 -3153.816 -224.602 -3150.084 -224.9456 -3146.258 Z" stroke="#d2673a" stroke-linecap="round" stroke-linejoin="round" stroke-width="0"/>
          </g>
          <g id="Graphic_6188">
            <path d="M -219.17855 -3146.2208 L -216.1229 -3146.2208 C -215.8357 -3147.8375 -215.06748 -3149.3856 -213.81827 -3150.6348 C -212.3114 -3152.1417 -210.36966 -3152.9487 -208.39702 -3153.0558 L -208.39702 -3156.08 C -211.14342 -3155.9708 -213.85764 -3154.8677 -215.95442 -3152.771 C -217.79424 -3150.931 -218.86895 -3148.616 -219.17855 -3146.2208 Z" fill="#3570a0"/>
            <path d="M -219.17855 -3146.2208 L -216.1229 -3146.2208 C -215.8357 -3147.8375 -215.06748 -3149.3856 -213.81827 -3150.6348 C -212.3114 -3152.1417 -210.36966 -3152.9487 -208.39702 -3153.0558 L -208.39702 -3156.08 C -211.14342 -3155.9708 -213.85764 -3154.8677 -215.95442 -3152.771 C -217.79424 -3150.931 -218.86895 -3148.616 -219.17855 -3146.2208 Z" stroke="#3770a0" stroke-linecap="round" stroke-linejoin="round" stroke-width="0"/>
          </g>
          <g id="Graphic_6187">
            <path d="M -230.60656 -3146.2208 L -227.57795 -3146.2208 C -227.23376 -3150.7344 -225.3357 -3155.1518 -221.88376 -3158.6037 C -214.2153 -3166.2722 -201.7823 -3166.2722 -194.11384 -3158.6037 C -193.24987 -3157.7398 -192.48324 -3156.8153 -191.81395 -3155.844 L -189.19 -3157.359 C -189.99343 -3158.5517 -190.92266 -3159.685 -191.9777 -3160.74 C -200.8259 -3169.588 -215.1717 -3169.588 -224.0199 -3160.74 C -228.0618 -3156.698 -230.25736 -3151.509 -230.60656 -3146.2208 Z" fill="#efb54f"/>
            <path d="M -230.60656 -3146.2208 L -227.57795 -3146.2208 C -227.23376 -3150.7344 -225.3357 -3155.1518 -221.88376 -3158.6037 C -214.2153 -3166.2722 -201.7823 -3166.2722 -194.11384 -3158.6037 C -193.24987 -3157.7398 -192.48324 -3156.8153 -191.81395 -3155.844 L -189.19 -3157.359 C -189.99343 -3158.5517 -190.92266 -3159.685 -191.9777 -3160.74 C -200.8259 -3169.588 -215.1717 -3169.588 -224.0199 -3160.74 C -228.0618 -3156.698 -230.25736 -3151.509 -230.60656 -3146.2208 Z" stroke="#efb64f" stroke-linecap="round" stroke-linejoin="round" stroke-width="0"/>
          </g>
        </g>
      </g>
    </g>
  </g>
</svg>
