<svg height="25" viewBox="-886.483 -3025.285 25 25" width="25" xmlns="http://www.w3.org/2000/svg"><g fill="none"><path d="m-861.9828-3008.1097v3.5017c0 2.1116-1.7116 3.8233-3.8231 3.8233h-3.4098c-2.1115 0-3.8232-1.7117-3.8232-3.8233v-3.5017c0-2.1113 1.7117-3.8233 3.8232-3.8233h3.4098c2.1115 0 3.8231 1.712 3.8231 3.8233z" fill="#666"/><path d="m-861.9828-3008.1097v3.5017c0 2.1116-1.7116 3.8233-3.8231 3.8233h-3.4098c-2.1115 0-3.8232-1.7117-3.8232-3.8233v-3.5017c0-2.1113 1.7117-3.8233 3.8232-3.8233h3.4098c2.1115 0 3.8231 1.712 3.8231 3.8233z" stroke="#fff" stroke-linecap="round" stroke-linejoin="round" stroke-width=".25"/><path d="m-874.8214-3008.1097v3.5017c0 2.1116-1.7117 3.8233-3.8232 3.8233h-3.4098c-2.1114 0-3.8231-1.7117-3.8231-3.8233v-3.5017c0-2.1113 1.7117-3.8233 3.8231-3.8233h3.4098c2.1115 0 3.8232 1.712 3.8232 3.8233z" fill="#666"/><path d="m-874.8214-3008.1097v3.5017c0 2.1116-1.7117 3.8233-3.8232 3.8233h-3.4098c-2.1114 0-3.8231-1.7117-3.8231-3.8233v-3.5017c0-2.1113 1.7117-3.8233 3.8231-3.8233h3.4098c2.1115 0 3.8232 1.712 3.8232 3.8233z" stroke="#fff" stroke-linecap="round" stroke-linejoin="round" stroke-width=".25"/><path d="m-862.088-3020.9616v3.5018c0 2.1115-1.7117 3.8232-3.8232 3.8232h-3.4097c-2.1115 0-3.8232-1.7117-3.8232-3.8232v-3.5018c0-2.1114 1.7117-3.8231 3.8232-3.8231h3.4097c2.1115 0 3.8232 1.7117 3.8232 3.8231z" fill="#666"/><path d="m-862.088-3020.9616v3.5018c0 2.1115-1.7117 3.8232-3.8232 3.8232h-3.4097c-2.1115 0-3.8232-1.7117-3.8232-3.8232v-3.5018c0-2.1114 1.7117-3.8231 3.8232-3.8231h3.4097c2.1115 0 3.8232 1.7117 3.8232 3.8231z" stroke="#fff" stroke-linecap="round" stroke-linejoin="round" stroke-width=".25"/><path d="m-874.9267-3020.9616v3.5018c0 2.1115-1.7117 3.8232-3.8231 3.8232h-3.4098c-2.1115 0-3.8232-1.7117-3.8232-3.8232v-3.5018c0-2.1114 1.7117-3.8231 3.8232-3.8231h3.4098c2.1114 0 3.8231 1.7117 3.8231 3.8231z" fill="#666"/><path d="m-874.9267-3020.9616v3.5018c0 2.1115-1.7117 3.8232-3.8231 3.8232h-3.4098c-2.1115 0-3.8232-1.7117-3.8232-3.8232v-3.5018c0-2.1114 1.7117-3.8231 3.8232-3.8231h3.4098c2.1114 0 3.8231 1.7117 3.8231 3.8231z" stroke="#fff" stroke-linecap="round" stroke-linejoin="round" stroke-width=".25"/></g></svg>