<svg height="25" viewBox="-778.483 -3025.285 25 25" width="25" xmlns="http://www.w3.org/2000/svg"><g fill="none"><path d="m-761.179-3024.7847h-12.9524c-2.1271 0-3.8514 1.7243-3.8514 3.8513v12.8916c0 2.1271 1.7243 3.8514 3.8514 3.8514h12.9524c2.127 0 3.8513-1.7243 3.8513-3.8514v-12.8916c0-2.127-1.7243-3.8513-3.8513-3.8513z" fill="#666"/><path d="m-761.179-3024.7847h-12.9524c-2.1271 0-3.8514 1.7243-3.8514 3.8513v12.8916c0 2.1271 1.7243 3.8514 3.8514 3.8514h12.9524c2.127 0 3.8513-1.7243 3.8513-3.8514v-12.8916c0-2.127-1.7243-3.8513-3.8513-3.8513z" stroke="#fff" stroke-linecap="round" stroke-linejoin="round" stroke-width=".25"/><path d="m-757.8341-3021.379h-12.9524c-2.127 0-3.8513 1.7242-3.8513 3.8513v12.8917c0 2.127 1.7243 3.8513 3.8513 3.8513h12.9524c2.12705 0 3.8513-1.7243 3.8513-3.8513v-12.8917c0-2.1271-1.72425-3.8513-3.8513-3.8513z" fill="#666"/><path d="m-757.8341-3021.379h-12.9524c-2.127 0-3.8513 1.7242-3.8513 3.8513v12.8917c0 2.127 1.7243 3.8513 3.8513 3.8513h12.9524c2.12705 0 3.8513-1.7243 3.8513-3.8513v-12.8917c0-2.1271-1.72425-3.8513-3.8513-3.8513z" stroke="#fff" stroke-linecap="round" stroke-linejoin="round" stroke-width=".25"/></g></svg>