<svg height="25" viewBox="-742.483 -3025.285 25 25" width="25" xmlns="http://www.w3.org/2000/svg"><g fill="none"><path d="m-738.1428-3024.7847h16.32c2.1208 0 3.84 1.7192 3.84 3.84v3.4247c0 2.1208-1.7192 3.84-3.84 3.84h-16.32c-2.1207 0-3.84-1.7192-3.84-3.84v-3.4247c0-2.1208 1.7193-3.84 3.84-3.84z" fill="#666"/><path d="m-738.1428-3024.7847h16.32c2.1208 0 3.84 1.7192 3.84 3.84v3.4247c0 2.1208-1.7192 3.84-3.84 3.84h-16.32c-2.1207 0-3.84-1.7192-3.84-3.84v-3.4247c0-2.1208 1.7193-3.84 3.84-3.84z" stroke="#fff" stroke-linecap="round" stroke-linejoin="round" stroke-width=".25"/><path d="m-738.1428-3011.8895h16.32c2.1208 0 3.84 1.7192 3.84 3.84v3.4248c0 2.1207-1.7192 3.84-3.84 3.84h-16.32c-2.1207 0-3.84-1.7193-3.84-3.84v-3.4248c0-2.1208 1.7193-3.84 3.84-3.84z" fill="#666"/><path d="m-738.1428-3011.8895h16.32c2.1208 0 3.84 1.7192 3.84 3.84v3.4248c0 2.1207-1.7192 3.84-3.84 3.84h-16.32c-2.1207 0-3.84-1.7193-3.84-3.84v-3.4248c0-2.1208 1.7193-3.84 3.84-3.84z" stroke="#fff" stroke-linecap="round" stroke-linejoin="round" stroke-width=".25"/></g></svg>