<svg height="25" viewBox="-850.483 -3025.285 25 25" width="25" xmlns="http://www.w3.org/2000/svg"><g fill="none"><path d="M-825.983-3020.945v16.32a3.84 3.84 0 0 1-3.84 3.84h-3.425a3.84 3.84 0 0 1-3.84-3.84v-16.32a3.84 3.84 0 0 1 3.84-3.84h3.425a3.84 3.84 0 0 1 3.84 3.84z" fill="#666"/><path d="M-825.983-3020.945v16.32a3.84 3.84 0 0 1-3.84 3.84h-3.425a3.84 3.84 0 0 1-3.84-3.84v-16.32a3.84 3.84 0 0 1 3.84-3.84h3.425a3.84 3.84 0 0 1 3.84 3.84z" stroke="#fff" stroke-linecap="round" stroke-linejoin="round" stroke-width=".25"/><path d="M-838.878-3020.945v16.32a3.84 3.84 0 0 1-3.84 3.84h-3.425a3.84 3.84 0 0 1-3.84-3.84v-16.32a3.84 3.84 0 0 1 3.84-3.84h3.425a3.84 3.84 0 0 1 3.84 3.84z" fill="#666"/><path d="M-838.878-3020.945v16.32a3.84 3.84 0 0 1-3.84 3.84h-3.425a3.84 3.84 0 0 1-3.84-3.84v-16.32a3.84 3.84 0 0 1 3.84-3.84h3.425a3.84 3.84 0 0 1 3.84 3.84z" stroke="#fff" stroke-linecap="round" stroke-linejoin="round" stroke-width=".25"/></g></svg>