<svg height="25" viewBox="-814.483 -3025.285 25 25" width="25" xmlns="http://www.w3.org/2000/svg"><g fill="none"><path d="m-810.1428-3024.7847h16.32c2.1208 0 3.84 1.7192 3.84 3.84v16.32c0 2.1207-1.7192 3.84-3.84 3.84h-16.32c-2.1207 0-3.84-1.7193-3.84-3.84v-16.32c0-2.1208 1.7193-3.84 3.84-3.84z" fill="#666"/><path d="m-810.1428-3024.7847h16.32c2.1208 0 3.84 1.7192 3.84 3.84v16.32c0 2.1207-1.7192 3.84-3.84 3.84h-16.32c-2.1207 0-3.84-1.7193-3.84-3.84v-16.32c0-2.1208 1.7193-3.84 3.84-3.84z" stroke="#fff" stroke-linecap="round" stroke-linejoin="round" stroke-width=".25"/><path d="m-801.0939-3005.6736h4.8889c.7378 0 1.3334-.5956 1.3334-1.3334v-6.6666h-6.2223zm-.8889 0v-5.3334h-7.1111v4c0 .7378.5956 1.3334 1.3334 1.3334zm0-6.2224v-8h-5.7777c-.7378 0-1.3334.5957-1.3334 1.3335v6.6665zm.8889-8v5.3335h6.2223v-4c0-.7378-.5956-1.3335-1.3334-1.3335zm-8.8889 1.3335c0-1.2267.9956-2.2222 2.2223-2.2222h11.5555c1.2267 0 2.2222.9955 2.2222 2.2222v11.5555c0 1.2267-.9955 2.2223-2.2222 2.2223h-11.5555c-1.2267 0-2.2223-.9956-2.2223-2.2223z" fill="#e3e6e1"/></g></svg>