<svg height="25" viewBox="-886.483 -3025.285 25 25" width="25" xmlns="http://www.w3.org/2000/svg"><g fill="none"><path d="M-861.983-3008.11v3.502a3.823 3.823 0 0 1-3.823 3.823h-3.41a3.823 3.823 0 0 1-3.823-3.823v-3.502a3.823 3.823 0 0 1 3.823-3.823h3.41a3.823 3.823 0 0 1 3.823 3.823z" fill="#666"/><path d="M-861.983-3008.11v3.502a3.823 3.823 0 0 1-3.823 3.823h-3.41a3.823 3.823 0 0 1-3.823-3.823v-3.502a3.823 3.823 0 0 1 3.823-3.823h3.41a3.823 3.823 0 0 1 3.823 3.823z" stroke="#fff" stroke-linecap="round" stroke-linejoin="round" stroke-width=".25"/><path d="M-874.821-3008.11v3.502a3.823 3.823 0 0 1-3.824 3.823h-3.41a3.823 3.823 0 0 1-3.823-3.823v-3.502a3.823 3.823 0 0 1 3.824-3.823h3.41a3.823 3.823 0 0 1 3.823 3.823z" fill="#666"/><path d="M-874.821-3008.11v3.502a3.823 3.823 0 0 1-3.824 3.823h-3.41a3.823 3.823 0 0 1-3.823-3.823v-3.502a3.823 3.823 0 0 1 3.824-3.823h3.41a3.823 3.823 0 0 1 3.823 3.823z" stroke="#fff" stroke-linecap="round" stroke-linejoin="round" stroke-width=".25"/><path d="M-862.088-3020.962v3.502a3.823 3.823 0 0 1-3.823 3.823h-3.41a3.823 3.823 0 0 1-3.823-3.823v-3.502a3.823 3.823 0 0 1 3.823-3.823h3.41a3.823 3.823 0 0 1 3.823 3.823z" fill="#666"/><path d="M-862.088-3020.962v3.502a3.823 3.823 0 0 1-3.823 3.823h-3.41a3.823 3.823 0 0 1-3.823-3.823v-3.502a3.823 3.823 0 0 1 3.823-3.823h3.41a3.823 3.823 0 0 1 3.823 3.823z" stroke="#fff" stroke-linecap="round" stroke-linejoin="round" stroke-width=".25"/><path d="M-874.927-3020.962v3.502a3.823 3.823 0 0 1-3.823 3.823h-3.41a3.823 3.823 0 0 1-3.823-3.823v-3.502a3.823 3.823 0 0 1 3.823-3.823h3.41a3.823 3.823 0 0 1 3.823 3.823z" fill="#666"/><path d="M-874.927-3020.962v3.502a3.823 3.823 0 0 1-3.823 3.823h-3.41a3.823 3.823 0 0 1-3.823-3.823v-3.502a3.823 3.823 0 0 1 3.823-3.823h3.41a3.823 3.823 0 0 1 3.823 3.823z" stroke="#fff" stroke-linecap="round" stroke-linejoin="round" stroke-width=".25"/></g></svg>