<?xml version="1.0" encoding="UTF-8" standalone="no"?>
<!DOCTYPE svg PUBLIC "-//W3C//DTD SVG 1.1//EN" "http://www.w3.org/Graphics/SVG/1.1/DTD/svg11.dtd">
<svg xmlns="http://www.w3.org/2000/svg" xmlns:xl="http://www.w3.org/1999/xlink" version="1.1" xmlns:dc="http://purl.org/dc/elements/1.1/" viewBox="-814.4828 -3025.2847 25 25" width="25" height="25">
  <defs/>
  <g id="SOURCES" stroke-opacity="1" fill="none" stroke="none" fill-opacity="1" stroke-dasharray="none">
    <title>SOURCES</title>
    <g id="SOURCES_Dark">
      <title>Dark</title>
      <g id="Graphic_11099">
        <path d="M -810.1428 -3024.7847 L -793.8228 -3024.7847 C -791.702 -3024.7847 -789.9828 -3023.0655 -789.9828 -3020.9447 L -789.9828 -3004.6247 C -789.9828 -3002.504 -791.702 -3000.7847 -793.8228 -3000.7847 L -810.1428 -3000.7847 C -812.2635 -3000.7847 -813.9828 -3002.504 -813.9828 -3004.6247 L -813.9828 -3020.9447 C -813.9828 -3023.0655 -812.2635 -3024.7847 -810.1428 -3024.7847 Z" fill="#666"/>
        <path d="M -810.1428 -3024.7847 L -793.8228 -3024.7847 C -791.702 -3024.7847 -789.9828 -3023.0655 -789.9828 -3020.9447 L -789.9828 -3004.6247 C -789.9828 -3002.504 -791.702 -3000.7847 -793.8228 -3000.7847 L -810.1428 -3000.7847 C -812.2635 -3000.7847 -813.9828 -3002.504 -813.9828 -3004.6247 L -813.9828 -3020.9447 C -813.9828 -3023.0655 -812.2635 -3024.7847 -810.1428 -3024.7847 Z" stroke="white" stroke-linecap="round" stroke-linejoin="round" stroke-width=".25"/>
      </g>
      <g id="Graphic_11098">
        <path d="M -801.0939 -3005.6736 L -796.205 -3005.6736 C -795.4672 -3005.6736 -794.8716 -3006.2692 -794.8716 -3007.007 L -794.8716 -3013.6736 L -801.0939 -3013.6736 Z M -801.9828 -3005.6736 L -801.9828 -3011.007 L -809.0939 -3011.007 L -809.0939 -3007.007 C -809.0939 -3006.2692 -808.4983 -3005.6736 -807.7605 -3005.6736 Z M -801.9828 -3011.896 L -801.9828 -3019.896 L -807.7605 -3019.896 C -808.4983 -3019.896 -809.0939 -3019.3003 -809.0939 -3018.5625 L -809.0939 -3011.896 Z M -801.0939 -3019.896 L -801.0939 -3014.5625 L -794.8716 -3014.5625 L -794.8716 -3018.5625 C -794.8716 -3019.3003 -795.4672 -3019.896 -796.205 -3019.896 Z M -809.9828 -3018.5625 C -809.9828 -3019.7892 -808.9872 -3020.7847 -807.7605 -3020.7847 L -796.205 -3020.7847 C -794.9783 -3020.7847 -793.9828 -3019.7892 -793.9828 -3018.5625 L -793.9828 -3007.007 C -793.9828 -3005.7803 -794.9783 -3004.7847 -796.205 -3004.7847 L -807.7605 -3004.7847 C -808.9872 -3004.7847 -809.9828 -3005.7803 -809.9828 -3007.007 Z" fill="#e3e6e1"/>
      </g>
    </g>
  </g>
</svg>
