<svg height="25" viewBox="-778.483 -3025.285 25 25" width="25" xmlns="http://www.w3.org/2000/svg"><g fill="none"><path d="M-761.179-3024.785h-12.952a3.851 3.851 0 0 0-3.852 3.852v12.891a3.851 3.851 0 0 0 3.852 3.852h12.952a3.851 3.851 0 0 0 3.851-3.852v-12.891a3.851 3.851 0 0 0-3.851-3.852z" fill="#666"/><path d="M-761.179-3024.785h-12.952a3.851 3.851 0 0 0-3.852 3.852v12.891a3.851 3.851 0 0 0 3.852 3.852h12.952a3.851 3.851 0 0 0 3.851-3.852v-12.891a3.851 3.851 0 0 0-3.851-3.852z" stroke="#fff" stroke-linecap="round" stroke-linejoin="round" stroke-width=".25"/><path d="M-757.834-3021.379h-12.953a3.851 3.851 0 0 0-3.85 3.851v12.892a3.851 3.851 0 0 0 3.85 3.851h12.953a3.851 3.851 0 0 0 3.851-3.851v-12.892a3.851 3.851 0 0 0-3.851-3.851z" fill="#666"/><path d="M-757.834-3021.379h-12.953a3.851 3.851 0 0 0-3.85 3.851v12.892a3.851 3.851 0 0 0 3.85 3.851h12.953a3.851 3.851 0 0 0 3.851-3.851v-12.892a3.851 3.851 0 0 0-3.851-3.851z" stroke="#fff" stroke-linecap="round" stroke-linejoin="round" stroke-width=".25"/></g></svg>