<svg height="25" viewBox="-742.483 -3025.285 25 25" width="25" xmlns="http://www.w3.org/2000/svg"><g fill="none"><path d="M-738.143-3024.785h16.32a3.84 3.84 0 0 1 3.84 3.84v3.425a3.84 3.84 0 0 1-3.84 3.84h-16.32a3.84 3.84 0 0 1-3.84-3.84v-3.425a3.84 3.84 0 0 1 3.84-3.84z" fill="#666"/><path d="M-738.143-3024.785h16.32a3.84 3.84 0 0 1 3.84 3.84v3.425a3.84 3.84 0 0 1-3.84 3.84h-16.32a3.84 3.84 0 0 1-3.84-3.84v-3.425a3.84 3.84 0 0 1 3.84-3.84z" stroke="#fff" stroke-linecap="round" stroke-linejoin="round" stroke-width=".25"/><path d="M-738.143-3011.89h16.32a3.84 3.84 0 0 1 3.84 3.84v3.425a3.84 3.84 0 0 1-3.84 3.84h-16.32a3.84 3.84 0 0 1-3.84-3.84v-3.425a3.84 3.84 0 0 1 3.84-3.84z" fill="#666"/><path d="M-738.143-3011.89h16.32a3.84 3.84 0 0 1 3.84 3.84v3.425a3.84 3.84 0 0 1-3.84 3.84h-16.32a3.84 3.84 0 0 1-3.84-3.84v-3.425a3.84 3.84 0 0 1 3.84-3.84z" stroke="#fff" stroke-linecap="round" stroke-linejoin="round" stroke-width=".25"/></g></svg>