<?xml version="1.0" encoding="UTF-8" standalone="no"?>
<!DOCTYPE svg PUBLIC "-//W3C//DTD SVG 1.1//EN" "http://www.w3.org/Graphics/SVG/1.1/DTD/svg11.dtd">
<svg xmlns="http://www.w3.org/2000/svg" xmlns:xl="http://www.w3.org/1999/xlink" version="1.1" xmlns:dc="http://purl.org/dc/elements/1.1/" viewBox="-742.4828 -3025.2847 25 25" width="25" height="25">
  <defs/>
  <g id="SOURCES" stroke-opacity="1" fill="none" stroke="none" fill-opacity="1" stroke-dasharray="none">
    <title>SOURCES</title>
    <g id="SOURCES_Dark">
      <title>Dark</title>
      <g id="Graphic_11116">
        <path d="M -738.1428 -3024.7847 L -721.8228 -3024.7847 C -719.702 -3024.7847 -717.9828 -3023.0655 -717.9828 -3020.9447 L -717.9828 -3017.52 C -717.9828 -3015.3992 -719.702 -3013.68 -721.8228 -3013.68 L -738.1428 -3013.68 C -740.2635 -3013.68 -741.9828 -3015.3992 -741.9828 -3017.52 L -741.9828 -3020.9447 C -741.9828 -3023.0655 -740.2635 -3024.7847 -738.1428 -3024.7847 Z" fill="#666"/>
        <path d="M -738.1428 -3024.7847 L -721.8228 -3024.7847 C -719.702 -3024.7847 -717.9828 -3023.0655 -717.9828 -3020.9447 L -717.9828 -3017.52 C -717.9828 -3015.3992 -719.702 -3013.68 -721.8228 -3013.68 L -738.1428 -3013.68 C -740.2635 -3013.68 -741.9828 -3015.3992 -741.9828 -3017.52 L -741.9828 -3020.9447 C -741.9828 -3023.0655 -740.2635 -3024.7847 -738.1428 -3024.7847 Z" stroke="white" stroke-linecap="round" stroke-linejoin="round" stroke-width=".25"/>
      </g>
      <g id="Graphic_11115">
        <path d="M -738.1428 -3011.8895 L -721.8228 -3011.8895 C -719.702 -3011.8895 -717.9828 -3010.1703 -717.9828 -3008.0495 L -717.9828 -3004.6247 C -717.9828 -3002.504 -719.702 -3000.7847 -721.8228 -3000.7847 L -738.1428 -3000.7847 C -740.2635 -3000.7847 -741.9828 -3002.504 -741.9828 -3004.6247 L -741.9828 -3008.0495 C -741.9828 -3010.1703 -740.2635 -3011.8895 -738.1428 -3011.8895 Z" fill="#666"/>
        <path d="M -738.1428 -3011.8895 L -721.8228 -3011.8895 C -719.702 -3011.8895 -717.9828 -3010.1703 -717.9828 -3008.0495 L -717.9828 -3004.6247 C -717.9828 -3002.504 -719.702 -3000.7847 -721.8228 -3000.7847 L -738.1428 -3000.7847 C -740.2635 -3000.7847 -741.9828 -3002.504 -741.9828 -3004.6247 L -741.9828 -3008.0495 C -741.9828 -3010.1703 -740.2635 -3011.8895 -738.1428 -3011.8895 Z" stroke="white" stroke-linecap="round" stroke-linejoin="round" stroke-width=".25"/>
      </g>
    </g>
  </g>
</svg>
