<svg height="25" viewBox="-850.483 -3025.285 25 25" width="25" xmlns="http://www.w3.org/2000/svg"><g fill="none"><path d="m-825.9828-3020.9447v16.32c0 2.1207-1.7192 3.84-3.84 3.84h-3.4247c-2.1208 0-3.84-1.7193-3.84-3.84v-16.32c0-2.1208 1.7192-3.84 3.84-3.84h3.4247c2.1208 0 3.84 1.7192 3.84 3.84z" fill="#666"/><path d="m-825.9828-3020.9447v16.32c0 2.1207-1.7192 3.84-3.84 3.84h-3.4247c-2.1208 0-3.84-1.7193-3.84-3.84v-16.32c0-2.1208 1.7192-3.84 3.84-3.84h3.4247c2.1208 0 3.84 1.7192 3.84 3.84z" stroke="#fff" stroke-linecap="round" stroke-linejoin="round" stroke-width=".25"/><path d="m-838.878-3020.9447v16.32c0 2.1207-1.7192 3.84-3.84 3.84h-3.4248c-2.1207 0-3.84-1.7193-3.84-3.84v-16.32c0-2.1208 1.7193-3.84 3.84-3.84h3.4248c2.1208 0 3.84 1.7192 3.84 3.84z" fill="#666"/><path d="m-838.878-3020.9447v16.32c0 2.1207-1.7192 3.84-3.84 3.84h-3.4248c-2.1207 0-3.84-1.7193-3.84-3.84v-16.32c0-2.1208 1.7193-3.84 3.84-3.84h3.4248c2.1208 0 3.84 1.7192 3.84 3.84z" stroke="#fff" stroke-linecap="round" stroke-linejoin="round" stroke-width=".25"/></g></svg>