<svg height="25" viewBox="-490.483 -3025.285 25 25" width="25" xmlns="http://www.w3.org/2000/svg"><g fill="none"><path d="m-469.82276-3024.7847h-16.32c-2.12077 0-3.84 1.7192-3.84 3.84v16.32c0 2.1207 1.71923 3.84 3.84 3.84h16.32c2.12076 0 3.84-1.7193 3.84-3.84v-16.32c0-2.1208-1.71924-3.84-3.84-3.84z" fill="#666"/><path d="m-469.82276-3024.7847h-16.32c-2.12077 0-3.84 1.7192-3.84 3.84v16.32c0 2.1207 1.71923 3.84 3.84 3.84h16.32c2.12076 0 3.84-1.7193 3.84-3.84v-16.32c0-2.1208-1.71924-3.84-3.84-3.84z" stroke="#fff" stroke-linecap="round" stroke-linejoin="round" stroke-width=".25"/><g fill="#c0e0ff"><path d="m-468.4205-3007.5335c0 1.114-.90414 2.0181-2.01815 2.0181h-10.50245c-1.114 0-2.01815-.9041-2.01815-2.0181v-10.5025c0-1.114.90415-2.018 2.01815-2.018h10.50245c1.11401 0 2.01815.904 2.01815 2.018zm-.80727-9.2915v-1.211c0-.67-.54086-1.211-1.21088-1.211h-10.50245c-.67 0-1.2109.541-1.2109 1.211v1.211zm0 .8072h-12.92423v8.4843c0 .67.5409 1.2109 1.2109 1.2109h10.50245c.67002 0 1.21088-.5409 1.21088-1.2109zm-12.11693-2.4218h.80723v.8073h-.80723zm1.6145 0h.80725v.8073h-.80725zm1.6145 0h.80727v.8073h-.80727z"/><path d="m-484.9622-3012.7847-2.47156-2.8805c-.16354-.1908-.14539-.4818.04543-.6452.19083-.1636.4816-.1454.64513.0454l2.72604 3.1804c.14536.1726.14536.418 0 .5906l-2.72604 3.1895c-.16353.1908-.4543.209-.64513.0455-.19082-.1637-.20897-.4544-.04543-.6453z"/></g></g></svg>