<svg height="25" viewBox="-634.483 -3025.285 25 25" width="25" xmlns="http://www.w3.org/2000/svg"><g fill="none"><path d="M-630.143-3024.785h16.32a3.84 3.84 0 0 1 3.84 3.84v16.32a3.84 3.84 0 0 1-3.84 3.84h-16.32a3.84 3.84 0 0 1-3.84-3.84v-16.32a3.84 3.84 0 0 1 3.84-3.84z" fill="#666"/><path d="M-630.143-3024.785h16.32a3.84 3.84 0 0 1 3.84 3.84v16.32a3.84 3.84 0 0 1-3.84 3.84h-16.32a3.84 3.84 0 0 1-3.84-3.84v-16.32a3.84 3.84 0 0 1 3.84-3.84z" stroke="#fff" stroke-linecap="round" stroke-linejoin="round" stroke-width=".25"/><path d="M-629.953-3012.928c1.712-4.407 6.663-6.59 11.061-4.879a8.544 8.544 0 0 1 4.88 4.879c.04.096.04.2 0 .288-1.704 4.399-6.663 6.59-11.062 4.878a8.568 8.568 0 0 1-4.879-4.878.36.36 0 0 1 0-.288zm5.175 4.423c3.943 1.527 8.374-.384 9.965-4.28a7.757 7.757 0 0 0-4.366-4.278 7.745 7.745 0 0 0-9.966 4.279 7.757 7.757 0 0 0 4.367 4.279zm2.8-1.08a3.198 3.198 0 1 1 0-6.398 3.198 3.198 0 1 1 0 6.398zm0-.8c1.327 0 2.399-1.072 2.399-2.4 0-1.327-1.072-2.399-2.4-2.399a2.396 2.396 0 0 0-2.4 2.4c0 1.327 1.073 2.399 2.4 2.399z" fill="#c0e0ff"/></g></svg>