<svg height="25" viewBox="-670.483 -3025.285 25 25" width="25" xmlns="http://www.w3.org/2000/svg"><g fill="none"><path d="m-649.82276-3024.7847h-16.32c-2.12074 0-3.84 1.7192-3.84 3.84v16.32c0 2.1207 1.71926 3.84 3.84 3.84h16.32c2.12076 0 3.84-1.7193 3.84-3.84v-16.32c0-2.1208-1.71924-3.84-3.84-3.84z" fill="#666"/><path d="m-649.82276-3024.7847h-16.32c-2.12074 0-3.84 1.7192-3.84 3.84v16.32c0 2.1207 1.71926 3.84 3.84 3.84h16.32c2.12076 0 3.84-1.7193 3.84-3.84v-16.32c0-2.1208-1.71924-3.84-3.84-3.84z" stroke="#fff" stroke-linecap="round" stroke-linejoin="round" stroke-width=".25"/><path d="m-661.2781-3006.386c.08885-.018.1777 0 .2666.0354.942.4444 1.9729.6756 3.03934.6756 3.92806 0 7.1096-3.1817 7.1096-7.1097 0-3.9281-3.19044-7.1096-7.11848-7.1096-3.92806 0-7.1096 3.1815-7.1096 7.1096 0 1.5197.47989 2.9593 1.34194 4.1591.09775.1333.1066.3021.0444.4443l-1.0842 2.3729 3.5015-.5866zm-4.1858 1.5907c-.3555.0623-.6221-.3022-.4799-.6221l1.3242-2.8972c-.87985-1.3064-1.35974-2.8527-1.35974-4.4701 0-4.4169 3.58144-7.9983 7.9983-7.9983 4.41684 0 7.9983 3.5814 7.9983 7.9983 0 4.4167-3.58146 7.9983-7.9983 7.9983-1.14646 0-2.26616-.24-3.28816-.7021l-4.1947.7021z" fill="#c0e0ff"/></g></svg>