<?xml version="1.0" encoding="UTF-8" standalone="no"?>
<!DOCTYPE svg PUBLIC "-//W3C//DTD SVG 1.1//EN" "http://www.w3.org/Graphics/SVG/1.1/DTD/svg11.dtd">
<svg xmlns="http://www.w3.org/2000/svg" xmlns:xl="http://www.w3.org/1999/xlink" version="1.1" xmlns:dc="http://purl.org/dc/elements/1.1/" viewBox="-454.48276 -3025.2847 25 25" width="25" height="25">
  <defs/>
  <g id="SOURCES" stroke-opacity="1" fill="none" stroke="none" fill-opacity="1" stroke-dasharray="none">
    <title>SOURCES</title>
    <g id="SOURCES_Dark">
      <title>Dark</title>
      <g id="Graphic_11071">
        <path d="M -433.82276 -3024.7847 L -450.14276 -3024.7847 C -452.26353 -3024.7847 -453.98276 -3023.0655 -453.98276 -3020.9447 L -453.98276 -3004.6247 C -453.98276 -3002.504 -452.26353 -3000.7847 -450.14276 -3000.7847 L -433.82276 -3000.7847 C -431.702 -3000.7847 -429.98276 -3002.504 -429.98276 -3004.6247 L -429.98276 -3020.9447 C -429.98276 -3023.0655 -431.702 -3024.7847 -433.82276 -3024.7847 Z" fill="#666"/>
        <path d="M -433.82276 -3024.7847 L -450.14276 -3024.7847 C -452.26353 -3024.7847 -453.98276 -3023.0655 -453.98276 -3020.9447 L -453.98276 -3004.6247 C -453.98276 -3002.504 -452.26353 -3000.7847 -450.14276 -3000.7847 L -433.82276 -3000.7847 C -431.702 -3000.7847 -429.98276 -3002.504 -429.98276 -3004.6247 L -429.98276 -3020.9447 C -429.98276 -3023.0655 -431.702 -3024.7847 -433.82276 -3024.7847 Z" stroke="white" stroke-linecap="round" stroke-linejoin="round" stroke-width=".25"/>
      </g>
      <g id="Graphic_11070">
        <path d="M -442.99076 -3019.9127 C -446.49476 -3019.4247 -449.18276 -3016.4167 -449.18276 -3012.7847 C -449.18276 -3008.8087 -445.95876 -3005.5847 -441.98276 -3005.5847 C -438.00676 -3005.5847 -434.78276 -3008.8087 -434.78276 -3012.7847 C -434.78276 -3013.3367 -434.84676 -3013.8727 -434.95876 -3014.3847 L -436.38276 -3014.3847 L -436.38276 -3013.9847 C -436.38276 -3013.7607 -436.55876 -3013.5847 -436.78276 -3013.5847 L -437.98276 -3013.5847 L -437.98276 -3013.3527 L -437.30276 -3012.6727 C -437.14276 -3012.5127 -437.14276 -3012.2647 -437.30276 -3012.1047 L -438.78276 -3010.6247 L -438.78276 -3009.1927 C -438.78276 -3009.1287 -438.79876 -3009.0727 -438.82276 -3009.0167 L -439.62276 -3007.4167 L -439.69476 -3007.3127 L -440.49476 -3006.5127 C -440.65476 -3006.3527 -440.90276 -3006.3527 -441.06276 -3006.5127 L -441.86276 -3007.3127 C -441.93476 -3007.3847 -441.98276 -3007.4887 -441.98276 -3007.5927 L -441.98276 -3009.8247 L -442.66276 -3010.5047 C -442.73476 -3010.5767 -442.78276 -3010.6807 -442.78276 -3010.7847 L -442.78276 -3011.4167 L -443.42276 -3012.0567 L -444.96676 -3012.8247 L -445.07076 -3012.8967 L -445.87076 -3013.6967 C -446.03076 -3013.8567 -446.03076 -3014.1047 -445.87076 -3014.2647 L -445.19076 -3014.9447 L -445.19076 -3015.5767 C -445.19076 -3015.8007 -445.01476 -3015.9767 -444.79076 -3015.9767 L -443.35876 -3015.9767 L -442.67876 -3016.6567 C -442.51876 -3016.8167 -442.27076 -3016.8167 -442.11076 -3016.6567 L -441.35876 -3015.9047 L -439.90276 -3015.1767 L -439.36676 -3015.1767 L -438.79876 -3015.7447 L -438.79876 -3016.2167 L -439.47876 -3016.8967 C -439.55076 -3016.9687 -439.59876 -3017.0727 -439.59876 -3017.1767 L -439.59876 -3017.5767 L -440.39876 -3017.5767 L -440.39876 -3017.1767 C -440.39876 -3016.9527 -440.57476 -3016.7767 -440.79876 -3016.7767 L -441.59876 -3016.7767 C -441.70276 -3016.7767 -441.80676 -3016.8167 -441.87876 -3016.8967 L -442.55876 -3017.5767 L -443.19076 -3017.5767 C -443.55076 -3017.5767 -443.72676 -3018.0087 -443.47076 -3018.2567 L -442.79076 -3018.9367 L -442.79076 -3019.4727 L -442.99876 -3019.8967 Z M -442.13476 -3019.9847 L -442.02276 -3019.7687 C -441.99876 -3019.7127 -441.98276 -3019.6487 -441.98276 -3019.5927 L -441.98276 -3018.7927 C -441.98276 -3018.6887 -442.02276 -3018.5847 -442.10276 -3018.5127 L -442.24676 -3018.3687 C -442.19076 -3018.3527 -442.14276 -3018.3207 -442.10276 -3018.2807 L -441.42276 -3017.6007 L -441.19076 -3017.6007 L -441.19076 -3018.0007 C -441.19076 -3018.2247 -441.01476 -3018.4007 -440.79076 -3018.4007 L -439.19076 -3018.4007 C -438.96676 -3018.4007 -438.79076 -3018.2247 -438.79076 -3018.0007 L -438.79076 -3017.3687 L -438.11076 -3016.6887 C -438.03876 -3016.6167 -437.99076 -3016.5127 -437.99076 -3016.4087 L -437.99076 -3015.6087 C -437.99076 -3015.5047 -438.03076 -3015.4007 -438.11076 -3015.3287 L -438.91076 -3014.5287 C -438.98276 -3014.4567 -439.08676 -3014.4087 -439.19076 -3014.4087 L -439.99076 -3014.4087 C -440.05476 -3014.4087 -440.11076 -3014.4247 -440.16676 -3014.4487 L -441.76676 -3015.2487 L -441.87076 -3015.3207 L -442.39076 -3015.8407 L -442.91076 -3015.3207 C -442.98276 -3015.2487 -443.08676 -3015.2007 -443.19076 -3015.2007 L -444.39076 -3015.2007 L -444.39076 -3014.8007 C -444.39076 -3014.6967 -444.43076 -3014.5927 -444.51076 -3014.5207 L -445.03076 -3014.0007 L -444.55876 -3013.5287 L -443.01476 -3012.7607 L -442.91076 -3012.6887 L -442.11076 -3011.8887 C -442.03876 -3011.8167 -441.99076 -3011.7127 -441.99076 -3011.6087 L -441.99076 -3010.9767 L -441.31076 -3010.2967 C -441.23876 -3010.2247 -441.19076 -3010.1207 -441.19076 -3010.0167 L -441.19076 -3007.7847 L -440.79076 -3007.3847 L -440.31876 -3007.8567 L -439.59076 -3009.3127 L -439.59076 -3010.8167 C -439.59076 -3010.9207 -439.55076 -3011.0247 -439.47076 -3011.0967 L -438.15076 -3012.4167 L -438.67076 -3012.9367 C -438.74276 -3013.0087 -438.79076 -3013.1127 -438.79076 -3013.2167 L -438.79076 -3014.0167 C -438.79076 -3014.2407 -438.61476 -3014.4167 -438.39076 -3014.4167 L -437.19076 -3014.4167 L -437.19076 -3014.8167 C -437.19076 -3015.0407 -437.01476 -3015.2167 -436.79076 -3015.2167 L -435.19876 -3015.2167 C -436.19076 -3018.0167 -438.85476 -3020.0167 -441.99076 -3020.0167 C -442.03876 -3020.0167 -442.09476 -3020.0167 -442.14276 -3020.0167 Z M -441.98276 -3004.7847 C -446.39876 -3004.7847 -449.98276 -3008.3687 -449.98276 -3012.7847 C -449.98276 -3017.2007 -446.39876 -3020.7847 -441.98276 -3020.7847 C -437.56676 -3020.7847 -433.98276 -3017.2007 -433.98276 -3012.7847 C -433.98276 -3008.3687 -437.56676 -3004.7847 -441.98276 -3004.7847 Z" fill="#c0e0ff"/>
      </g>
    </g>
  </g>
</svg>
