<?xml version="1.0" encoding="UTF-8" standalone="no"?>
<!DOCTYPE svg PUBLIC "-//W3C//DTD SVG 1.1//EN" "http://www.w3.org/Graphics/SVG/1.1/DTD/svg11.dtd">
<svg xmlns="http://www.w3.org/2000/svg" xmlns:xl="http://www.w3.org/1999/xlink" version="1.1" xmlns:dc="http://purl.org/dc/elements/1.1/" viewBox="-562.48276 -3025.2847 25 25" width="25" height="25">
  <defs/>
  <g id="SOURCES" stroke-opacity="1" fill="none" stroke="none" fill-opacity="1" stroke-dasharray="none">
    <title>SOURCES</title>
    <g id="SOURCES_Dark">
      <title>Dark</title>
      <g id="Graphic_11079">
        <path d="M -541.82276 -3024.7847 L -558.14276 -3024.7847 C -560.2635 -3024.7847 -561.98276 -3023.0655 -561.98276 -3020.9447 L -561.98276 -3004.6247 C -561.98276 -3002.504 -560.2635 -3000.7847 -558.14276 -3000.7847 L -541.82276 -3000.7847 C -539.702 -3000.7847 -537.98276 -3002.504 -537.98276 -3004.6247 L -537.98276 -3020.9447 C -537.98276 -3023.0655 -539.702 -3024.7847 -541.82276 -3024.7847 Z" fill="#666"/>
        <path d="M -541.82276 -3024.7847 L -558.14276 -3024.7847 C -560.2635 -3024.7847 -561.98276 -3023.0655 -561.98276 -3020.9447 L -561.98276 -3004.6247 C -561.98276 -3002.504 -560.2635 -3000.7847 -558.14276 -3000.7847 L -541.82276 -3000.7847 C -539.702 -3000.7847 -537.98276 -3002.504 -537.98276 -3004.6247 L -537.98276 -3020.9447 C -537.98276 -3023.0655 -539.702 -3024.7847 -541.82276 -3024.7847 Z" stroke="white" stroke-linecap="round" stroke-linejoin="round" stroke-width=".25"/>
      </g>
      <g id="Graphic_11078">
        <path d="M -550.78276 -3007.1847 L -549.18276 -3007.1847 L -549.18276 -3008.7847 L -550.78276 -3008.7847 Z M -551.58276 -3007.1847 L -551.58276 -3008.7847 L -555.98276 -3008.7847 C -557.08676 -3008.7847 -557.98276 -3009.6807 -557.98276 -3010.7847 L -557.98276 -3017.1847 C -557.98276 -3018.2887 -557.08676 -3019.1847 -555.98276 -3019.1847 L -543.98276 -3019.1847 C -542.87876 -3019.1847 -541.98276 -3018.2887 -541.98276 -3017.1847 L -541.98276 -3010.7847 C -541.98276 -3009.6807 -542.87876 -3008.7847 -543.98276 -3008.7847 L -548.38276 -3008.7847 L -548.38276 -3007.1847 L -547.18276 -3007.1847 C -546.95876 -3007.1847 -546.78276 -3007.0087 -546.78276 -3006.7847 C -546.78276 -3006.5607 -546.95876 -3006.3847 -547.18276 -3006.3847 L -552.78276 -3006.3847 C -553.00676 -3006.3847 -553.18276 -3006.5607 -553.18276 -3006.7847 C -553.18276 -3007.0087 -553.00676 -3007.1847 -552.78276 -3007.1847 Z M -555.98276 -3018.3847 C -556.64676 -3018.3847 -557.18276 -3017.8487 -557.18276 -3017.1847 L -557.18276 -3010.7847 C -557.18276 -3010.1207 -556.64676 -3009.5847 -555.98276 -3009.5847 L -543.98276 -3009.5847 C -543.31876 -3009.5847 -542.78276 -3010.1207 -542.78276 -3010.7847 L -542.78276 -3017.1847 C -542.78276 -3017.8487 -543.31876 -3018.3847 -543.98276 -3018.3847 Z" fill="#c0e0ff"/>
      </g>
    </g>
  </g>
</svg>
