<svg height="25" viewBox="-526.483 -3025.285 25 25" width="25" xmlns="http://www.w3.org/2000/svg"><g fill="none"><path d="m-505.82276-3024.7847h-16.32c-2.12074 0-3.84 1.7192-3.84 3.84v16.32c0 2.1207 1.71926 3.84 3.84 3.84h16.32c2.12076 0 3.84-1.7193 3.84-3.84v-16.32c0-2.1208-1.71924-3.84-3.84-3.84z" fill="#666"/><path d="m-505.82276-3024.7847h-16.32c-2.12074 0-3.84 1.7192-3.84 3.84v16.32c0 2.1207 1.71926 3.84 3.84 3.84h16.32c2.12076 0 3.84-1.7193 3.84-3.84v-16.32c0-2.1208-1.71924-3.84-3.84-3.84z" stroke="#fff" stroke-linecap="round" stroke-linejoin="round" stroke-width=".25"/><path d="m-517.5383-3007.9092h-4c-.2489 0-.44446-.1955-.44446-.4444s.19556-.4444.44446-.4444h4v-.889c0-.489.4-.889.8889-.889h1.77775c.48889 0 .88889.4.88889.889v.889h7.55556c.2489 0 .44444.1955.44444.4444s-.19554.4444-.44444.4444h-7.55556v.9156c0 .4889-.4.8889-.88889.8889h-1.77775c-.4889 0-.8889-.4-.8889-.8889zm5.3333-4.4444h-9.3333c-.2489 0-.44446-.1956-.44446-.4444 0-.249.19556-.4445.44446-.4445h9.3333v-.8889c0-.4889.4-.8889.8889-.8889h1.7778c.4889 0 .8889.4.8889.8889v.8889h2.2222c.2489 0 .44444.1955.44444.4445 0 .2488-.19554.4444-.44444.4444h-2.2222v.9156c0 .4888-.4.8888-.8889.8888h-1.7778c-.4889 0-.8889-.4-.8889-.8888zm-8-4.4444h-1.3333c-.2489 0-.44446-.1956-.44446-.4445s.19556-.4445.44446-.4445h1.3333v-.889c0-.4887.4-.8887.8889-.8887h1.7778c.4889 0 .8889.4.8889.8887v.889h10.2222c.2489 0 .44444.1956.44444.4445s-.19554.4445-.44444.4445h-10.2222v.9155c0 .4889-.4.8889-.8889.8889h-1.7778c-.4889 0-.8889-.4-.8889-.8889zm.8889-1.778v2.6935h1.7778v-2.6935zm8 4.4446v2.6934h1.7778v-2.6934zm-5.3333 4.4444v2.6934h1.77775v-2.6934z" fill="#c0e0ff"/></g></svg>