<?xml version="1.0" encoding="UTF-8" standalone="no"?>
<!DOCTYPE svg PUBLIC "-//W3C//DTD SVG 1.1//EN" "http://www.w3.org/Graphics/SVG/1.1/DTD/svg11.dtd">
<svg xmlns="http://www.w3.org/2000/svg" xmlns:xl="http://www.w3.org/1999/xlink" version="1.1" xmlns:dc="http://purl.org/dc/elements/1.1/" viewBox="-490.48276 -3025.2847 25 25" width="25" height="25">
  <defs/>
  <g id="SOURCES" stroke-opacity="1" fill="none" stroke="none" fill-opacity="1" stroke-dasharray="none">
    <title>SOURCES</title>
    <g id="SOURCES_Dark">
      <title>Dark</title>
      <g id="Graphic_11063">
        <path d="M -469.82276 -3024.7847 L -486.14276 -3024.7847 C -488.26353 -3024.7847 -489.98276 -3023.0655 -489.98276 -3020.9447 L -489.98276 -3004.6247 C -489.98276 -3002.504 -488.26353 -3000.7847 -486.14276 -3000.7847 L -469.82276 -3000.7847 C -467.702 -3000.7847 -465.98276 -3002.504 -465.98276 -3004.6247 L -465.98276 -3020.9447 C -465.98276 -3023.0655 -467.702 -3024.7847 -469.82276 -3024.7847 Z" fill="#666"/>
        <path d="M -469.82276 -3024.7847 L -486.14276 -3024.7847 C -488.26353 -3024.7847 -489.98276 -3023.0655 -489.98276 -3020.9447 L -489.98276 -3004.6247 C -489.98276 -3002.504 -488.26353 -3000.7847 -486.14276 -3000.7847 L -469.82276 -3000.7847 C -467.702 -3000.7847 -465.98276 -3002.504 -465.98276 -3004.6247 L -465.98276 -3020.9447 C -465.98276 -3023.0655 -467.702 -3024.7847 -469.82276 -3024.7847 Z" stroke="white" stroke-linecap="round" stroke-linejoin="round" stroke-width=".25"/>
      </g>
      <g id="Graphic_11062">
        <path d="M -468.4205 -3007.5335 C -468.4205 -3006.4195 -469.32464 -3005.5154 -470.43865 -3005.5154 L -480.9411 -3005.5154 C -482.0551 -3005.5154 -482.95925 -3006.4195 -482.95925 -3007.5335 L -482.95925 -3018.036 C -482.95925 -3019.15 -482.0551 -3020.054 -480.9411 -3020.054 L -470.43865 -3020.054 C -469.32464 -3020.054 -468.4205 -3019.15 -468.4205 -3018.036 L -468.4205 -3007.5335 Z M -469.22777 -3016.825 L -469.22777 -3018.036 C -469.22777 -3018.706 -469.76863 -3019.247 -470.43865 -3019.247 L -480.9411 -3019.247 C -481.6111 -3019.247 -482.152 -3018.706 -482.152 -3018.036 L -482.152 -3016.825 Z M -469.22777 -3016.0178 L -482.152 -3016.0178 L -482.152 -3007.5335 C -482.152 -3006.8635 -481.6111 -3006.3226 -480.9411 -3006.3226 L -470.43865 -3006.3226 C -469.76863 -3006.3226 -469.22777 -3006.8635 -469.22777 -3007.5335 Z M -481.3447 -3018.4396 L -480.53747 -3018.4396 L -480.53747 -3017.6323 L -481.3447 -3017.6323 Z M -479.7302 -3018.4396 L -478.92295 -3018.4396 L -478.92295 -3017.6323 L -479.7302 -3017.6323 Z M -478.1157 -3018.4396 L -477.30843 -3018.4396 L -477.30843 -3017.6323 L -478.1157 -3017.6323 Z" fill="#c0e0ff"/>
      </g>
      <g id="Graphic_11060">
        <path d="M -484.9622 -3012.7847 L -487.43376 -3015.6652 C -487.5973 -3015.856 -487.57915 -3016.147 -487.38833 -3016.3104 C -487.1975 -3016.474 -486.90673 -3016.4558 -486.7432 -3016.265 L -484.01716 -3013.0846 C -483.8718 -3012.912 -483.8718 -3012.6666 -484.01716 -3012.494 L -486.7432 -3009.3045 C -486.90673 -3009.1137 -487.1975 -3009.0955 -487.38833 -3009.259 C -487.57915 -3009.4227 -487.5973 -3009.7134 -487.43376 -3009.9043 L -484.9622 -3012.7847 Z" fill="#c0e0ff"/>
      </g>
    </g>
  </g>
</svg>
