<svg height="25" viewBox="-526.483 -3025.285 25 25" width="25" xmlns="http://www.w3.org/2000/svg"><g fill="none"><path d="M-505.823-3024.785h-16.32a3.84 3.84 0 0 0-3.84 3.84v16.32a3.84 3.84 0 0 0 3.84 3.84h16.32a3.84 3.84 0 0 0 3.84-3.84v-16.32a3.84 3.84 0 0 0-3.84-3.84z" fill="#666"/><path d="M-505.823-3024.785h-16.32a3.84 3.84 0 0 0-3.84 3.84v16.32a3.84 3.84 0 0 0 3.84 3.84h16.32a3.84 3.84 0 0 0 3.84-3.84v-16.32a3.84 3.84 0 0 0-3.84-3.84z" stroke="#fff" stroke-linecap="round" stroke-linejoin="round" stroke-width=".25"/><path d="M-517.538-3007.91h-4c-.25 0-.445-.195-.445-.444s.196-.444.445-.444h4v-.889c0-.489.4-.889.889-.889h1.777c.49 0 .89.4.89.889v.889h7.555c.249 0 .444.196.444.444s-.195.445-.444.445h-7.556v.915c0 .49-.4.89-.889.89h-1.777a.892.892 0 0 1-.89-.89zm5.333-4.444h-9.333a.44.44 0 0 1-.445-.444.44.44 0 0 1 .445-.445h9.333v-.888c0-.49.4-.89.889-.89h1.778c.489 0 .889.4.889.89v.889h2.222a.44.44 0 0 1 .444.444.44.44 0 0 1-.444.444h-2.222v.916c0 .489-.4.889-.89.889h-1.777a.891.891 0 0 1-.889-.889zm-8-4.444h-1.333c-.25 0-.445-.196-.445-.445s.196-.444.445-.444h1.333v-.889c0-.489.4-.889.889-.889h1.778c.489 0 .889.4.889.889v.889h10.222c.249 0 .444.196.444.445s-.195.444-.444.444h-10.222v.915c0 .49-.4.89-.89.89h-1.777a.892.892 0 0 1-.889-.89zm.889-1.778v2.694h1.778v-2.694zm8 4.445v2.693h1.778v-2.693zm-5.333 4.444v2.693h1.777v-2.693z" fill="#c0e0ff"/></g></svg>