<?xml version="1.0" encoding="UTF-8" standalone="no"?>
<!DOCTYPE svg PUBLIC "-//W3C//DTD SVG 1.1//EN" "http://www.w3.org/Graphics/SVG/1.1/DTD/svg11.dtd">
<svg xmlns="http://www.w3.org/2000/svg" xmlns:xl="http://www.w3.org/1999/xlink" version="1.1" xmlns:dc="http://purl.org/dc/elements/1.1/" viewBox="-670.48276 -3025.2847 25 25" width="25" height="25">
  <defs/>
  <g id="SOURCES" stroke-opacity="1" fill="none" stroke="none" fill-opacity="1" stroke-dasharray="none">
    <title>SOURCES</title>
    <g id="SOURCES_Dark">
      <title>Dark</title>
      <g id="Graphic_11091">
        <path d="M -649.82276 -3024.7847 L -666.14276 -3024.7847 C -668.2635 -3024.7847 -669.98276 -3023.0655 -669.98276 -3020.9447 L -669.98276 -3004.6247 C -669.98276 -3002.504 -668.2635 -3000.7847 -666.14276 -3000.7847 L -649.82276 -3000.7847 C -647.702 -3000.7847 -645.98276 -3002.504 -645.98276 -3004.6247 L -645.98276 -3020.9447 C -645.98276 -3023.0655 -647.702 -3024.7847 -649.82276 -3024.7847 Z" fill="#666"/>
        <path d="M -649.82276 -3024.7847 L -666.14276 -3024.7847 C -668.2635 -3024.7847 -669.98276 -3023.0655 -669.98276 -3020.9447 L -669.98276 -3004.6247 C -669.98276 -3002.504 -668.2635 -3000.7847 -666.14276 -3000.7847 L -649.82276 -3000.7847 C -647.702 -3000.7847 -645.98276 -3002.504 -645.98276 -3004.6247 L -645.98276 -3020.9447 C -645.98276 -3023.0655 -647.702 -3024.7847 -649.82276 -3024.7847 Z" stroke="white" stroke-linecap="round" stroke-linejoin="round" stroke-width=".25"/>
      </g>
      <g id="Graphic_11090">
        <path d="M -661.2781 -3006.386 C -661.18925 -3006.404 -661.1004 -3006.386 -661.0115 -3006.3506 C -660.0695 -3005.9062 -659.0386 -3005.675 -657.97216 -3005.675 C -654.0441 -3005.675 -650.86256 -3008.8567 -650.86256 -3012.7847 C -650.86256 -3016.7128 -654.053 -3019.8943 -657.98104 -3019.8943 C -661.9091 -3019.8943 -665.09064 -3016.7128 -665.09064 -3012.7847 C -665.09064 -3011.265 -664.61075 -3009.8254 -663.7487 -3008.6256 C -663.65095 -3008.4923 -663.6421 -3008.3235 -663.7043 -3008.1813 L -664.7885 -3005.8084 L -661.287 -3006.395 Z M -665.4639 -3004.7953 C -665.8194 -3004.733 -666.086 -3005.0975 -665.9438 -3005.4174 L -664.6196 -3008.3146 C -665.49945 -3009.621 -665.97934 -3011.1673 -665.97934 -3012.7847 C -665.97934 -3017.2016 -662.3979 -3020.783 -657.98104 -3020.783 C -653.5642 -3020.783 -649.98274 -3017.2016 -649.98274 -3012.7847 C -649.98274 -3008.368 -653.5642 -3004.7864 -657.98104 -3004.7864 C -659.1275 -3004.7864 -660.2472 -3005.0264 -661.2692 -3005.4885 L -665.4639 -3004.7864 Z" fill="#c0e0ff"/>
      </g>
    </g>
  </g>
</svg>
