<?xml version="1.0" encoding="UTF-8" standalone="no"?>
<!DOCTYPE svg PUBLIC "-//W3C//DTD SVG 1.1//EN" "http://www.w3.org/Graphics/SVG/1.1/DTD/svg11.dtd">
<svg xmlns="http://www.w3.org/2000/svg" xmlns:xl="http://www.w3.org/1999/xlink" version="1.1" xmlns:dc="http://purl.org/dc/elements/1.1/" viewBox="-526.48276 -3025.2847 25 25" width="25" height="25">
  <defs/>
  <g id="SOURCES" stroke-opacity="1" fill="none" stroke="none" fill-opacity="1" stroke-dasharray="none">
    <title>SOURCES</title>
    <g id="SOURCES_Dark">
      <title>Dark</title>
      <g id="Graphic_11075">
        <path d="M -505.82276 -3024.7847 L -522.14276 -3024.7847 C -524.2635 -3024.7847 -525.98276 -3023.0655 -525.98276 -3020.9447 L -525.98276 -3004.6247 C -525.98276 -3002.504 -524.2635 -3000.7847 -522.14276 -3000.7847 L -505.82276 -3000.7847 C -503.702 -3000.7847 -501.98276 -3002.504 -501.98276 -3004.6247 L -501.98276 -3020.9447 C -501.98276 -3023.0655 -503.702 -3024.7847 -505.82276 -3024.7847 Z" fill="#666"/>
        <path d="M -505.82276 -3024.7847 L -522.14276 -3024.7847 C -524.2635 -3024.7847 -525.98276 -3023.0655 -525.98276 -3020.9447 L -525.98276 -3004.6247 C -525.98276 -3002.504 -524.2635 -3000.7847 -522.14276 -3000.7847 L -505.82276 -3000.7847 C -503.702 -3000.7847 -501.98276 -3002.504 -501.98276 -3004.6247 L -501.98276 -3020.9447 C -501.98276 -3023.0655 -503.702 -3024.7847 -505.82276 -3024.7847 Z" stroke="white" stroke-linecap="round" stroke-linejoin="round" stroke-width=".25"/>
      </g>
      <g id="Graphic_11074">
        <path d="M -517.5383 -3007.9092 L -521.5383 -3007.9092 C -521.7872 -3007.9092 -521.98276 -3008.1047 -521.98276 -3008.3536 C -521.98276 -3008.6025 -521.7872 -3008.798 -521.5383 -3008.798 L -517.5383 -3008.798 L -517.5383 -3009.687 C -517.5383 -3010.176 -517.1383 -3010.576 -516.6494 -3010.576 L -514.87165 -3010.576 C -514.38276 -3010.576 -513.98276 -3010.176 -513.98276 -3009.687 L -513.98276 -3008.798 L -506.4272 -3008.798 C -506.1783 -3008.798 -505.98276 -3008.6025 -505.98276 -3008.3536 C -505.98276 -3008.1047 -506.1783 -3007.9092 -506.4272 -3007.9092 L -513.98276 -3007.9092 L -513.98276 -3006.9936 C -513.98276 -3006.5047 -514.38276 -3006.1047 -514.87165 -3006.1047 L -516.6494 -3006.1047 C -517.1383 -3006.1047 -517.5383 -3006.5047 -517.5383 -3006.9936 Z M -512.205 -3012.3536 L -521.5383 -3012.3536 C -521.7872 -3012.3536 -521.98276 -3012.5492 -521.98276 -3012.798 C -521.98276 -3013.047 -521.7872 -3013.2425 -521.5383 -3013.2425 L -512.205 -3013.2425 L -512.205 -3014.1314 C -512.205 -3014.6203 -511.805 -3015.0203 -511.3161 -3015.0203 L -509.5383 -3015.0203 C -509.0494 -3015.0203 -508.6494 -3014.6203 -508.6494 -3014.1314 L -508.6494 -3013.2425 L -506.4272 -3013.2425 C -506.1783 -3013.2425 -505.98276 -3013.047 -505.98276 -3012.798 C -505.98276 -3012.5492 -506.1783 -3012.3536 -506.4272 -3012.3536 L -508.6494 -3012.3536 L -508.6494 -3011.438 C -508.6494 -3010.9492 -509.0494 -3010.5492 -509.5383 -3010.5492 L -511.3161 -3010.5492 C -511.805 -3010.5492 -512.205 -3010.9492 -512.205 -3011.438 L -512.205 -3012.3536 Z M -520.205 -3016.798 L -521.5383 -3016.798 C -521.7872 -3016.798 -521.98276 -3016.9936 -521.98276 -3017.2425 C -521.98276 -3017.4914 -521.7872 -3017.687 -521.5383 -3017.687 L -520.205 -3017.687 L -520.205 -3018.576 C -520.205 -3019.0647 -519.805 -3019.4647 -519.3161 -3019.4647 L -517.5383 -3019.4647 C -517.0494 -3019.4647 -516.6494 -3019.0647 -516.6494 -3018.576 L -516.6494 -3017.687 L -506.4272 -3017.687 C -506.1783 -3017.687 -505.98276 -3017.4914 -505.98276 -3017.2425 C -505.98276 -3016.9936 -506.1783 -3016.798 -506.4272 -3016.798 L -516.6494 -3016.798 L -516.6494 -3015.8825 C -516.6494 -3015.3936 -517.0494 -3014.9936 -517.5383 -3014.9936 L -519.3161 -3014.9936 C -519.805 -3014.9936 -520.205 -3015.3936 -520.205 -3015.8825 Z M -519.3161 -3018.576 L -519.3161 -3015.8825 L -517.5383 -3015.8825 L -517.5383 -3018.576 Z M -511.3161 -3014.1314 L -511.3161 -3011.438 L -509.5383 -3011.438 L -509.5383 -3014.1314 L -511.3161 -3014.1314 Z M -516.6494 -3009.687 L -516.6494 -3006.9936 L -514.87165 -3006.9936 L -514.87165 -3009.687 Z" fill="#c0e0ff"/>
      </g>
    </g>
  </g>
</svg>
