<svg height="25" viewBox="-706.483 -3025.285 25 25" width="25" xmlns="http://www.w3.org/2000/svg"><g fill="none"><path d="m-702.14276-3024.7847h16.32c2.12076 0 3.84 1.7192 3.84 3.84v16.32c0 2.1207-1.71924 3.84-3.84 3.84h-16.32c-2.12074 0-3.84-1.7193-3.84-3.84v-16.32c0-2.1208 1.71926-3.84 3.84-3.84z" fill="#666"/><path d="m-702.14276-3024.7847h16.32c2.12076 0 3.84 1.7192 3.84 3.84v16.32c0 2.1207-1.71924 3.84-3.84 3.84h-16.32c-2.12074 0-3.84-1.7193-3.84-3.84v-16.32c0-2.1208 1.71926-3.84 3.84-3.84z" stroke="#fff" stroke-linecap="round" stroke-linejoin="round" stroke-width=".25"/><path d="m-691.3161-3011.007v-3.5555h-5.3333v3.5555zm0 .889h-5.3333v3.5555h5.3333zm-9.77776-.889h3.55556v-3.5555h-3.55556zm0 .889v2.222c0 .738.59556 1.3335 1.33336 1.3335h2.2222v-3.5555zm14.2222-.889v-3.5555h-3.55554v3.5555zm0 .889h-3.55554v3.5555h2.2222c.7378 0 1.33334-.5955 1.33334-1.3335zm-4.44444-5.3334v-3.5556h-5.3333v3.5556zm-9.77776 0h3.55556v-3.5556h-2.2222c-.7378 0-1.33336.5956-1.33336 1.3334zm14.2222 0v-2.2222c0-.7378-.59554-1.3334-1.33334-1.3334h-2.2222v3.5556zm-12.88884-4.4446h11.5555c1.2267 0 2.2222.9957 2.2222 2.2224v9.7776c0 1.2268-.9955 2.2224-2.2222 2.2224h-11.5555c-1.2267 0-2.22225-.9956-2.22225-2.2224v-9.7776c0-1.2267.99555-2.2224 2.22225-2.2224z" fill="#c0e0ff"/></g></svg>