<?xml version="1.0" encoding="UTF-8" standalone="no"?>
<!DOCTYPE svg PUBLIC "-//W3C//DTD SVG 1.1//EN" "http://www.w3.org/Graphics/SVG/1.1/DTD/svg11.dtd">
<svg xmlns="http://www.w3.org/2000/svg" xmlns:xl="http://www.w3.org/1999/xlink" version="1.1" xmlns:dc="http://purl.org/dc/elements/1.1/" viewBox="-706.48276 -3025.2847 25 25" width="25" height="25">
  <defs/>
  <g id="SOURCES" stroke-opacity="1" fill="none" stroke="none" fill-opacity="1" stroke-dasharray="none">
    <title>SOURCES</title>
    <g id="SOURCES_Dark">
      <title>Dark</title>
      <g id="Graphic_11095">
        <path d="M -702.14276 -3024.7847 L -685.82276 -3024.7847 C -683.702 -3024.7847 -681.98276 -3023.0655 -681.98276 -3020.9447 L -681.98276 -3004.6247 C -681.98276 -3002.504 -683.702 -3000.7847 -685.82276 -3000.7847 L -702.14276 -3000.7847 C -704.2635 -3000.7847 -705.98276 -3002.504 -705.98276 -3004.6247 L -705.98276 -3020.9447 C -705.98276 -3023.0655 -704.2635 -3024.7847 -702.14276 -3024.7847 Z" fill="#666"/>
        <path d="M -702.14276 -3024.7847 L -685.82276 -3024.7847 C -683.702 -3024.7847 -681.98276 -3023.0655 -681.98276 -3020.9447 L -681.98276 -3004.6247 C -681.98276 -3002.504 -683.702 -3000.7847 -685.82276 -3000.7847 L -702.14276 -3000.7847 C -704.2635 -3000.7847 -705.98276 -3002.504 -705.98276 -3004.6247 L -705.98276 -3020.9447 C -705.98276 -3023.0655 -704.2635 -3024.7847 -702.14276 -3024.7847 Z" stroke="white" stroke-linecap="round" stroke-linejoin="round" stroke-width=".25"/>
      </g>
      <g id="Graphic_11094">
        <path d="M -691.3161 -3011.007 L -691.3161 -3014.5625 L -696.6494 -3014.5625 L -696.6494 -3011.007 Z M -691.3161 -3010.118 L -696.6494 -3010.118 L -696.6494 -3006.5625 L -691.3161 -3006.5625 Z M -701.09386 -3011.007 L -697.5383 -3011.007 L -697.5383 -3014.5625 L -701.09386 -3014.5625 Z M -701.09386 -3010.118 L -701.09386 -3007.896 C -701.09386 -3007.158 -700.4983 -3006.5625 -699.7605 -3006.5625 L -697.5383 -3006.5625 L -697.5383 -3010.118 Z M -686.87166 -3011.007 L -686.87166 -3014.5625 L -690.4272 -3014.5625 L -690.4272 -3011.007 Z M -686.87166 -3010.118 L -690.4272 -3010.118 L -690.4272 -3006.5625 L -688.205 -3006.5625 C -687.4672 -3006.5625 -686.87166 -3007.158 -686.87166 -3007.896 Z M -691.3161 -3015.4514 L -691.3161 -3019.007 L -696.6494 -3019.007 L -696.6494 -3015.4514 Z M -701.09386 -3015.4514 L -697.5383 -3015.4514 L -697.5383 -3019.007 L -699.7605 -3019.007 C -700.4983 -3019.007 -701.09386 -3018.4114 -701.09386 -3017.6736 Z M -686.87166 -3015.4514 L -686.87166 -3017.6736 C -686.87166 -3018.4114 -687.4672 -3019.007 -688.205 -3019.007 L -690.4272 -3019.007 L -690.4272 -3015.4514 Z M -699.7605 -3019.896 L -688.205 -3019.896 C -686.9783 -3019.896 -685.9828 -3018.9003 -685.9828 -3017.6736 L -685.9828 -3007.896 C -685.9828 -3006.6692 -686.9783 -3005.6736 -688.205 -3005.6736 L -699.7605 -3005.6736 C -700.9872 -3005.6736 -701.98275 -3006.6692 -701.98275 -3007.896 L -701.98275 -3017.6736 C -701.98275 -3018.9003 -700.9872 -3019.896 -699.7605 -3019.896 Z" fill="#c0e0ff"/>
      </g>
    </g>
  </g>
</svg>
