<svg height="25" viewBox="-634.483 -3025.285 25 25" width="25" xmlns="http://www.w3.org/2000/svg"><g fill="none"><path d="m-630.14276-3024.7847h16.32c2.12076 0 3.84 1.7192 3.84 3.84v16.32c0 2.1207-1.71924 3.84-3.84 3.84h-16.32c-2.12074 0-3.84-1.7193-3.84-3.84v-16.32c0-2.1208 1.71926-3.84 3.84-3.84z" fill="#666"/><path d="m-630.14276-3024.7847h16.32c2.12076 0 3.84 1.7192 3.84 3.84v16.32c0 2.1207-1.71924 3.84-3.84 3.84h-16.32c-2.12074 0-3.84-1.7193-3.84-3.84v-16.32c0-2.1208 1.71926-3.84 3.84-3.84z" stroke="#fff" stroke-linecap="round" stroke-linejoin="round" stroke-width=".25"/><path d="m-629.9528-3012.9282c1.7116-4.4068 6.6624-6.5904 11.0613-4.8788 2.2394.8718 4.015 2.6393 4.87875 4.8788.03999.096.03999.1999 0 .2879-1.70355 4.3989-6.66235 6.5903-11.06125 4.8788-2.2394-.8718-4.007-2.6395-4.8788-4.8788-.03995-.096-.03995-.1999 0-.2879zm5.17474 4.4229c3.94302 1.5276 8.37391-.3839 9.96551-4.2789-.8078-1.9596-2.3834-3.5112-4.36691-4.279-3.94304-1.5276-8.36594.3839-9.96554 4.279.8078 1.9595 2.38344 3.5112 4.36694 4.2789zm2.7993-1.0797c-1.76754 0-3.1992-1.4317-3.1992-3.1992 0-1.7676 1.43166-3.1992 3.1992-3.1992 1.76756 0 3.1992 1.4316 3.1992 3.1992 0 1.7675-1.43164 3.1992-3.1992 3.1992zm0-.8c1.32766 0 2.3994-1.0716 2.3994-2.3992 0-1.3278-1.07174-2.3994-2.3994-2.3994-1.32764 0-2.3994 1.0716-2.3994 2.3994 0 1.3276 1.07176 2.3992 2.3994 2.3992z" fill="#c0e0ff"/></g></svg>