<svg height="25" viewBox="-562.483 -3025.285 25 25" width="25" xmlns="http://www.w3.org/2000/svg"><g fill="none"><path d="m-541.82276-3024.7847h-16.32c-2.12074 0-3.84 1.7192-3.84 3.84v16.32c0 2.1207 1.71926 3.84 3.84 3.84h16.32c2.12076 0 3.84-1.7193 3.84-3.84v-16.32c0-2.1208-1.71924-3.84-3.84-3.84z" fill="#666"/><path d="m-541.82276-3024.7847h-16.32c-2.12074 0-3.84 1.7192-3.84 3.84v16.32c0 2.1207 1.71926 3.84 3.84 3.84h16.32c2.12076 0 3.84-1.7193 3.84-3.84v-16.32c0-2.1208-1.71924-3.84-3.84-3.84z" stroke="#fff" stroke-linecap="round" stroke-linejoin="round" stroke-width=".25"/><path d="m-550.78276-3007.1847h1.6v-1.6h-1.6zm-.8 0v-1.6h-4.4c-1.104 0-2-.896-2-2v-6.4c0-1.104.896-2 2-2h12c1.104 0 2 .896 2 2v6.4c0 1.104-.896 2-2 2h-4.4v1.6h1.2c.224 0 .4.176.4.4s-.176.4-.4.4h-5.6c-.224 0-.4-.176-.4-.4s.176-.4.4-.4zm-4.4-11.2c-.664 0-1.2.536-1.2 1.2v6.4c0 .664.536 1.2 1.2 1.2h12c.664 0 1.2-.536 1.2-1.2v-6.4c0-.664-.536-1.2-1.2-1.2z" fill="#c0e0ff"/></g></svg>