<svg height="25" viewBox="-706.483 -3025.285 25 25" width="25" xmlns="http://www.w3.org/2000/svg"><g fill="none"><path d="M-702.143-3024.785h16.32a3.84 3.84 0 0 1 3.84 3.84v16.32a3.84 3.84 0 0 1-3.84 3.84h-16.32a3.84 3.84 0 0 1-3.84-3.84v-16.32a3.84 3.84 0 0 1 3.84-3.84z" fill="#666"/><path d="M-702.143-3024.785h16.32a3.84 3.84 0 0 1 3.84 3.84v16.32a3.84 3.84 0 0 1-3.84 3.84h-16.32a3.84 3.84 0 0 1-3.84-3.84v-16.32a3.84 3.84 0 0 1 3.84-3.84z" stroke="#fff" stroke-linecap="round" stroke-linejoin="round" stroke-width=".25"/><path d="M-691.316-3011.007v-3.555h-5.333v3.555zm0 .889h-5.333v3.555h5.333zm-9.778-.889h3.556v-3.555h-3.556zm0 .889v2.222c0 .738.596 1.334 1.334 1.334h2.222v-3.556zm14.222-.889v-3.555h-3.555v3.555zm0 .889h-3.555v3.555h2.222c.738 0 1.333-.595 1.333-1.333zm-4.444-5.333v-3.556h-5.333v3.556zm-9.778 0h3.556v-3.556h-2.222c-.738 0-1.334.596-1.334 1.333zm14.222 0v-2.223c0-.737-.595-1.333-1.333-1.333h-2.222v3.556zm-12.888-4.445h11.555c1.227 0 2.222.996 2.222 2.222v9.778a2.223 2.223 0 0 1-2.222 2.222h-11.555a2.223 2.223 0 0 1-2.223-2.222v-9.778c0-1.226.996-2.222 2.223-2.222z" fill="#c0e0ff"/></g></svg>