<svg height="25" viewBox="-598.483 -3025.285 25 25" width="25" xmlns="http://www.w3.org/2000/svg"><g fill="none"><path d="M-594.143-3024.785h16.32a3.84 3.84 0 0 1 3.84 3.84v16.32a3.84 3.84 0 0 1-3.84 3.84h-16.32a3.84 3.84 0 0 1-3.84-3.84v-16.32a3.84 3.84 0 0 1 3.84-3.84z" fill="#666"/><path d="M-594.143-3024.785h16.32a3.84 3.84 0 0 1 3.84 3.84v16.32a3.84 3.84 0 0 1-3.84 3.84h-16.32a3.84 3.84 0 0 1-3.84-3.84v-16.32a3.84 3.84 0 0 1 3.84-3.84z" stroke="#fff" stroke-linecap="round" stroke-linejoin="round" stroke-width=".25"/><path d="M-590.95-3010.353a.39.39 0 0 1 .312.04 5.2 5.2 0 1 0-1.816-1.816.39.39 0 0 1 .04.312l-.584 2.048zm8.711-6.176a6.005 6.005 0 0 1 3.504 8.656l.736 2.576a.4.4 0 0 1-.496.496l-2.576-.736a6.005 6.005 0 0 1-8.656-3.504c-.408-.12-.8-.288-1.168-.496l-2.575.736a.4.4 0 0 1-.496-.496l.736-2.576a6.002 6.002 0 1 1 10.991-4.656zm.2.92a6.002 6.002 0 0 1-6.768 6.768 5.208 5.208 0 0 0 7.48 2.528.39.39 0 0 1 .312-.04l2.048.584-.584-2.048a.39.39 0 0 1 .04-.312 5.2 5.2 0 0 0-2.528-7.48z" fill="#c0e0ff"/></g></svg>