<svg height="25" viewBox="-670.483 -3025.285 25 25" width="25" xmlns="http://www.w3.org/2000/svg"><g fill="none"><path d="M-649.823-3024.785h-16.32a3.84 3.84 0 0 0-3.84 3.84v16.32a3.84 3.84 0 0 0 3.84 3.84h16.32a3.84 3.84 0 0 0 3.84-3.84v-16.32a3.84 3.84 0 0 0-3.84-3.84z" fill="#666"/><path d="M-649.823-3024.785h-16.32a3.84 3.84 0 0 0-3.84 3.84v16.32a3.84 3.84 0 0 0 3.84 3.84h16.32a3.84 3.84 0 0 0 3.84-3.84v-16.32a3.84 3.84 0 0 0-3.84-3.84z" stroke="#fff" stroke-linecap="round" stroke-linejoin="round" stroke-width=".25"/><path d="M-661.278-3006.386a.465.465 0 0 1 .267.035 7.098 7.098 0 0 0 3.039.676 7.108 7.108 0 0 0 7.11-7.11c0-3.928-3.191-7.11-7.119-7.11a7.108 7.108 0 0 0-7.11 7.11c0 1.52.48 2.96 1.342 4.16a.445.445 0 0 1 .045.444l-1.084 2.373 3.501-.587zm-4.186 1.59a.446.446 0 0 1-.48-.621l1.324-2.898a7.98 7.98 0 0 1-1.36-4.47 7.999 7.999 0 1 1 7.999 7.999 7.974 7.974 0 0 1-3.288-.702l-4.195.702z" fill="#c0e0ff"/></g></svg>