<svg height="25" viewBox="-490.483 -3025.285 25 25" width="25" xmlns="http://www.w3.org/2000/svg"><g fill="none"><path d="M-469.823-3024.785h-16.32a3.84 3.84 0 0 0-3.84 3.84v16.32a3.84 3.84 0 0 0 3.84 3.84h16.32a3.84 3.84 0 0 0 3.84-3.84v-16.32a3.84 3.84 0 0 0-3.84-3.84z" fill="#666"/><path d="M-469.823-3024.785h-16.32a3.84 3.84 0 0 0-3.84 3.84v16.32a3.84 3.84 0 0 0 3.84 3.84h16.32a3.84 3.84 0 0 0 3.84-3.84v-16.32a3.84 3.84 0 0 0-3.84-3.84z" stroke="#fff" stroke-linecap="round" stroke-linejoin="round" stroke-width=".25"/><g fill="#c0e0ff"><path d="M-468.42-3007.534a2.019 2.019 0 0 1-2.019 2.019h-10.502a2.019 2.019 0 0 1-2.018-2.019v-10.502c0-1.114.904-2.018 2.018-2.018h10.502c1.114 0 2.019.904 2.019 2.018zm-.808-9.291v-1.211c0-.67-.54-1.211-1.21-1.211h-10.503c-.67 0-1.211.541-1.211 1.211v1.211zm0 .807h-12.924v8.485c0 .67.54 1.21 1.21 1.21h10.503c.67 0 1.211-.54 1.211-1.21zm-12.117-2.422h.808v.808h-.808zm1.615 0h.807v.808h-.807zm1.614 0h.808v.808h-.808zm-6.846 5.655l-2.472-2.88a.459.459 0 0 1 .046-.645.459.459 0 0 1 .645.045l2.726 3.18a.454.454 0 0 1 0 .591l-2.726 3.19a.459.459 0 0 1-.645.045.46.46 0 0 1-.046-.645z"/></g></g></svg>