<svg height="25" viewBox="-598.483 -3025.285 25 25" width="25" xmlns="http://www.w3.org/2000/svg"><g fill="none"><path d="m-594.14276-3024.7847h16.32c2.12076 0 3.84 1.7192 3.84 3.84v16.32c0 2.1207-1.71924 3.84-3.84 3.84h-16.32c-2.12074 0-3.84-1.7193-3.84-3.84v-16.32c0-2.1208 1.71926-3.84 3.84-3.84z" fill="#666"/><path d="m-594.14276-3024.7847h16.32c2.12076 0 3.84 1.7192 3.84 3.84v16.32c0 2.1207-1.71924 3.84-3.84 3.84h-16.32c-2.12074 0-3.84-1.7193-3.84-3.84v-16.32c0-2.1208 1.71926-3.84 3.84-3.84z" stroke="#fff" stroke-linecap="round" stroke-linejoin="round" stroke-width=".25"/><path d="m-590.9505-3010.353c.104-.032.216-.016.312.04.79994.472 1.7039.728 2.65585.728 2.87185 0 5.19975-2.328 5.19975-5.2 0-2.8717-2.3279-5.1996-5.19975-5.1996s-5.19975 2.3279-5.19975 5.1996c0 .944.256 1.856.728 2.656.056.096.072.208.04.312l-.584 2.048zm8.71155-6.1758c2.50385.76 4.25575 3.0798 4.25575 5.7438 0 1.032-.26396 2.032-.7519 2.9118l.7359 2.5759c.088.3039-.19196.5839-.49594.4959l-2.57586-.7359c-.88.4879-1.8799.7519-2.91186.7519-2.66384 0-4.98374-1.7519-5.7437-4.2556-.40798-.12-.79994-.288-1.16794-.496l-2.5759.736c-.30396.088-.58394-.192-.49595-.496l.73595-2.576c-.48796-.88-.75194-1.88-.75194-2.912 0-3.3117 2.68784-5.9995 5.99969-5.9995 2.70385 0 4.99975 1.7919 5.7437 4.2557zm.19999.92c.04.2718.056.5438.056.8238 0 3.312-2.68784 6-5.99969 6-.27999 0-.55195-.016-.82395-.056.78395 1.9357 2.67185 3.2557 4.82374 3.2557.94396 0 1.8559-.256 2.65586-.728.096-.056.208-.072.312-.04l2.0479.584-.584-2.0479c-.032-.104-.016-.216.04-.312.472-.7998.728-1.7038.728-2.6558 0-2.152-1.31996-4.048-3.25586-4.8238z" fill="#c0e0ff"/></g></svg>