<svg height="24.75" viewBox="-418.358 -3025.16 24.741 24.75" width="24.741" xmlns="http://www.w3.org/2000/svg"><g fill="none"><path d="m-401.18276-3024.7847h-13.6c-1.76731 0-3.2 1.4327-3.2 3.2v13.6c0 1.7673 1.43269 3.2 3.2 3.2h13.6c1.76731 0 3.2-1.4327 3.2-3.2v-13.6c0-1.7673-1.43269-3.2-3.2-3.2z" fill="#8797a7"/><path d="m-397.1913-3020.7847h-13.6c-1.76733 0-3.2 1.4327-3.2 3.2v13.6c0 1.7673 1.43267 3.2 3.2 3.2h13.6c1.7673 0 3.2-1.4327 3.2-3.2v-13.6c0-1.7673-1.4327-3.2-3.2-3.2z" fill="#66727e"/><path d="m-401.6613-3014.694-7.6667 7.6668v1.5267h1.5267l7.66665-7.6667zm.4733-.4732 1.5267 1.5267.86-.86-1.5267-1.5267zm-8.80665 10v-2c0-.0868.03335-.1733.1-.2333l9.33335-9.3335c.1333-.1332.34-.1332.4733 0l2 2c.13335.1335.13335.34 0 .4735l-9.34 9.3265c-.06.06-.14665.1-.2333.1h-2c-.1867 0-.33335-.1465-.33335-.3332z" fill="#fff"/></g></svg>