<svg height="24.75" viewBox="-382.721 -3025.16 24.386 24.75" width="24.386" xmlns="http://www.w3.org/2000/svg"><g fill="none"><path d="M-365.546-3024.785h-13.6a3.2 3.2 0 0 0-3.2 3.2v13.6a3.2 3.2 0 0 0 3.2 3.2h13.6a3.2 3.2 0 0 0 3.2-3.2v-13.6a3.2 3.2 0 0 0-3.2-3.2z" fill="#ff7a7c"/><path d="M-361.91-3020.785h-13.6a3.2 3.2 0 0 0-3.2 3.2v13.6a3.2 3.2 0 0 0 3.2 3.2h13.6a3.2 3.2 0 0 0 3.2-3.2v-13.6a3.2 3.2 0 0 0-3.2-3.2z" fill="#9f4c4d"/><path d="M-375.389-3015.101c0-.231-.18-.412-.411-.412s-.412.181-.412.412v4.117c0 .231.181.412.412.412h4.117c.23 0 .412-.181.412-.412a.408.408 0 0 0-.412-.412h-3.706zm12.353 9.058c0 .231.19.412.412.412.23 0 .412-.19.412-.412 0-1.02 0-1.548-.008-1.647-.215-3.92-3.467-7-7.404-7h-.23a7.413 7.413 0 0 0-6.292 3.492.408.408 0 0 0 .131.568c.19.124.445.066.569-.131a6.591 6.591 0 0 1 5.591-3.097h.231c3.5 0 6.39 2.743 6.58 6.218 0 .074 0 .626.008 1.606z" fill="#fff"/></g></svg>