<svg height="24.75" viewBox="-347.085 -3025.16 24.75 24.75" width="24.75" xmlns="http://www.w3.org/2000/svg"><g fill="none"><path d="m-329.90993-3024.7847h-13.60001c-1.76731 0-3.19999 1.4327-3.19999 3.2v13.6c0 1.7673 1.43268 3.2 3.19999 3.2h13.60001c1.76731 0 3.2-1.4327 3.2-3.2v-13.6c0-1.7673-1.43269-3.2-3.2-3.2z" fill="#8797a7"/><path d="m-325.9099-3020.7847h-13.6c-1.76733 0-3.2 1.4327-3.2 3.2v13.6c0 1.7673 1.43267 3.2 3.2 3.2h13.6c1.7673 0 3.2-1.4327 3.2-3.2v-13.6c0-1.7673-1.4327-3.2-3.2-3.2z" fill="#66727e"/><path d="m-335.40283-3015.7292v9.7992c0 .2405.19383.4344.43448.4344.0869 0 .17379-.0267.24065-.0734l7.1254-4.833c.23394-.1603.2941-.481.13368-.715-.03343-.0535-.08022-.1003-.13368-.1337l-7.1254-4.8393c-.20054-.134-.4679-.0804-.6016.1135-.0468.0735-.07353.1537-.07353.2405zm-.66842 0c0-.2206.06685-.4345.18715-.6218.3476-.501 1.0294-.635 1.5374-.294l7.1254 4.8328c.127.0869.23394.1938.31415.3142.36765.5414.22725 1.2766-.31415 1.6443l-7.1254 4.8327c-.1805.127-.40107.187-.62165.187-.60825 0-1.1029-.4945-1.1029-1.1028z" fill="#fff"/></g></svg>