<svg height="24.75" viewBox="-418.358 -3025.16 24.741 24.75" width="24.741" xmlns="http://www.w3.org/2000/svg"><g fill="none"><path d="M-401.183-3024.785h-13.6a3.2 3.2 0 0 0-3.2 3.2v13.6a3.2 3.2 0 0 0 3.2 3.2h13.6a3.2 3.2 0 0 0 3.2-3.2v-13.6a3.2 3.2 0 0 0-3.2-3.2z" fill="#8797a7"/><path d="M-397.191-3020.785h-13.6a3.2 3.2 0 0 0-3.2 3.2v13.6a3.2 3.2 0 0 0 3.2 3.2h13.6a3.2 3.2 0 0 0 3.2-3.2v-13.6a3.2 3.2 0 0 0-3.2-3.2z" fill="#66727e"/><path d="M-401.661-3014.694l-7.667 7.667v1.527h1.527l7.666-7.667zm.473-.473l1.527 1.527.86-.86-1.527-1.527zm-8.807 10v-2c0-.087.034-.173.1-.233l9.334-9.334a.33.33 0 0 1 .473 0l2 2a.33.33 0 0 1 0 .473l-9.34 9.327a.34.34 0 0 1-.233.1h-2a.33.33 0 0 1-.334-.333z" fill="#fff"/></g></svg>