<?xml version="1.0" encoding="UTF-8" standalone="no"?>
<!DOCTYPE svg PUBLIC "-//W3C//DTD SVG 1.1//EN" "http://www.w3.org/Graphics/SVG/1.1/DTD/svg11.dtd">
<svg xmlns="http://www.w3.org/2000/svg" xmlns:xl="http://www.w3.org/1999/xlink" version="1.1" xmlns:dc="http://purl.org/dc/elements/1.1/" viewBox="-382.72135 -3025.1597 24.38641 24.75" width="24.38641" height="24.75">
  <defs/>
  <g id="SOURCES" stroke-opacity="1" fill="none" stroke="none" fill-opacity="1" stroke-dasharray="none">
    <title>SOURCES</title>
    <g id="SOURCES_Dark">
      <title>Dark</title>
      <g id="Graphic_11056">
        <path d="M -365.54635 -3024.7847 L -379.14635 -3024.7847 C -380.91366 -3024.7847 -382.34635 -3023.352 -382.34635 -3021.5847 L -382.34635 -3007.9847 C -382.34635 -3006.2174 -380.91366 -3004.7847 -379.14635 -3004.7847 L -365.54635 -3004.7847 C -363.77903 -3004.7847 -362.34635 -3006.2174 -362.34635 -3007.9847 L -362.34635 -3021.5847 C -362.34635 -3023.352 -363.77903 -3024.7847 -365.54635 -3024.7847 Z" fill="#ff7a7c"/>
      </g>
      <g id="Graphic_11055">
        <path d="M -361.90993 -3020.7847 L -375.50994 -3020.7847 C -377.27725 -3020.7847 -378.70993 -3019.352 -378.70993 -3017.5847 L -378.70993 -3003.9847 C -378.70993 -3002.2174 -377.27725 -3000.7847 -375.50994 -3000.7847 L -361.90993 -3000.7847 C -360.14262 -3000.7847 -358.70993 -3002.2174 -358.70993 -3003.9847 L -358.70993 -3017.5847 C -358.70993 -3019.352 -360.14262 -3020.7847 -361.90993 -3020.7847 Z" fill="#9f4c4d"/>
      </g>
      <g id="Graphic_11054">
        <path d="M -375.38864 -3015.1014 C -375.38864 -3015.332 -375.5698 -3015.513 -375.8004 -3015.513 C -376.031 -3015.513 -376.21217 -3015.332 -376.21217 -3015.1014 L -376.21217 -3010.9838 C -376.21217 -3010.753 -376.031 -3010.572 -375.8004 -3010.572 L -371.68276 -3010.572 C -371.45217 -3010.572 -371.271 -3010.753 -371.271 -3010.9838 C -371.271 -3011.2143 -371.45217 -3011.3955 -371.68276 -3011.3955 L -375.38864 -3011.3955 Z M -363.0357 -3006.0426 C -363.0357 -3005.812 -362.8463 -3005.6308 -362.62393 -3005.6308 C -362.39334 -3005.6308 -362.21217 -3005.8202 -362.21217 -3006.0426 C -362.21217 -3007.0638 -362.21217 -3007.5908 -362.2204 -3007.6896 C -362.4345 -3011.6096 -365.68746 -3014.6896 -369.62393 -3014.6896 L -369.8545 -3014.6896 C -372.4157 -3014.6896 -374.78746 -3013.372 -376.1463 -3011.198 C -376.2698 -3011.0085 -376.21217 -3010.753 -376.0145 -3010.6296 C -375.8251 -3010.506 -375.5698 -3010.5638 -375.4463 -3010.7614 C -374.24393 -3012.6885 -372.12746 -3013.858 -369.8545 -3013.858 L -369.62393 -3013.858 C -366.12393 -3013.858 -363.23334 -3011.1155 -363.04393 -3007.6402 C -363.04393 -3007.566 -363.04393 -3007.0143 -363.0357 -3006.0343 Z" fill="white"/>
      </g>
    </g>
  </g>
</svg>
