<svg height="24.75" viewBox="-382.721 -3025.16 24.386 24.75" width="24.386" xmlns="http://www.w3.org/2000/svg"><g fill="none"><path d="m-365.54635-3024.7847h-13.6c-1.76731 0-3.2 1.4327-3.2 3.2v13.6c0 1.7673 1.43269 3.2 3.2 3.2h13.6c1.76732 0 3.2-1.4327 3.2-3.2v-13.6c0-1.7673-1.43268-3.2-3.2-3.2z" fill="#ff7a7c"/><path d="m-361.90993-3020.7847h-13.60001c-1.76731 0-3.19999 1.4327-3.19999 3.2v13.6c0 1.7673 1.43268 3.2 3.19999 3.2h13.60001c1.76731 0 3.2-1.4327 3.2-3.2v-13.6c0-1.7673-1.43269-3.2-3.2-3.2z" fill="#9f4c4d"/><path d="m-375.38864-3015.1014c0-.2306-.18116-.4116-.41176-.4116s-.41177.181-.41177.4116v4.1176c0 .2308.18117.4118.41177.4118h4.11764c.23059 0 .41176-.181.41176-.4118 0-.2305-.18117-.4117-.41176-.4117h-3.70588zm12.35294 9.0588c0 .2306.1894.4118.41177.4118.23059 0 .41176-.1894.41176-.4118 0-1.0212 0-1.5482-.00823-1.647-.2141-3.92-3.46706-7-7.40353-7h-.23057c-2.5612 0-4.93296 1.3176-6.2918 3.4916-.1235.1895-.06587.445.1318.5684.1894.1236.4447.0658.5682-.1318 1.20237-1.9271 3.31884-3.0966 5.5918-3.0966h.23057c3.5 0 6.39059 2.7425 6.58 6.2178 0 .0742 0 .6259.00823 1.6059z" fill="#fff"/></g></svg>