<?xml version="1.0" encoding="UTF-8" standalone="no"?>
<!DOCTYPE svg PUBLIC "-//W3C//DTD SVG 1.1//EN" "http://www.w3.org/Graphics/SVG/1.1/DTD/svg11.dtd">
<svg xmlns="http://www.w3.org/2000/svg" xmlns:xl="http://www.w3.org/1999/xlink" version="1.1" xmlns:dc="http://purl.org/dc/elements/1.1/" viewBox="-311.2099 -3025.2847 25 25" width="25" height="25">
  <defs/>
  <g id="SOURCES" stroke-opacity="1" fill="none" stroke="none" fill-opacity="1" stroke-dasharray="none">
    <title>SOURCES</title>
    <g id="SOURCES_Dark">
      <title>Dark</title>
      <g id="Graphic_11052">
        <title>views/view.other</title>
        <path d="M -306.8699 -3024.7847 L -290.54992 -3024.7847 C -288.42915 -3024.7847 -286.70992 -3023.0655 -286.70992 -3020.9447 L -286.70992 -3004.6247 C -286.70992 -3002.504 -288.42915 -3000.7847 -290.54992 -3000.7847 L -306.8699 -3000.7847 C -308.9907 -3000.7847 -310.70992 -3002.504 -310.70992 -3004.6247 L -310.70992 -3020.9447 C -310.70992 -3023.0655 -308.9907 -3024.7847 -306.8699 -3024.7847 Z" fill="#666"/>
        <path d="M -306.8699 -3024.7847 L -290.54992 -3024.7847 C -288.42915 -3024.7847 -286.70992 -3023.0655 -286.70992 -3020.9447 L -286.70992 -3004.6247 C -286.70992 -3002.504 -288.42915 -3000.7847 -290.54992 -3000.7847 L -306.8699 -3000.7847 C -308.9907 -3000.7847 -310.70992 -3002.504 -310.70992 -3004.6247 L -310.70992 -3020.9447 C -310.70992 -3023.0655 -308.9907 -3024.7847 -306.8699 -3024.7847 Z" stroke="white" stroke-linecap="round" stroke-linejoin="round" stroke-width=".25"/>
      </g>
      <g id="Graphic_11051">
        <path d="M -290.70993 -3007.0057 C -290.70993 -3005.7797 -291.70494 -3004.7847 -292.93092 -3004.7847 L -304.48895 -3004.7847 C -305.71493 -3004.7847 -306.70993 -3005.7797 -306.70993 -3007.0057 L -306.70993 -3018.5638 C -306.70993 -3019.7897 -305.71493 -3020.7847 -304.48895 -3020.7847 L -292.93092 -3020.7847 C -291.70494 -3020.7847 -290.70993 -3019.7897 -290.70993 -3018.5638 L -290.70993 -3007.0057 Z M -291.59833 -3017.231 L -291.59833 -3018.5638 C -291.59833 -3019.301 -292.19356 -3019.8963 -292.93092 -3019.8963 L -304.48895 -3019.8963 C -305.2263 -3019.8963 -305.82154 -3019.301 -305.82154 -3018.5638 L -305.82154 -3017.231 Z M -291.59833 -3016.3428 L -305.82154 -3016.3428 L -305.82154 -3007.0057 C -305.82154 -3006.2684 -305.2263 -3005.673 -304.48895 -3005.673 L -292.93092 -3005.673 C -292.19356 -3005.673 -291.59833 -3006.2684 -291.59833 -3007.0057 Z M -304.93314 -3019.008 L -304.04475 -3019.008 L -304.04475 -3018.1196 L -304.93314 -3018.1196 Z M -303.15635 -3019.008 L -302.26796 -3019.008 L -302.26796 -3018.1196 L -303.15635 -3018.1196 Z M -301.37956 -3019.008 L -300.49117 -3019.008 L -300.49117 -3018.1196 L -301.37956 -3018.1196 Z" fill="#e3e6e1"/>
      </g>
      <g id="Graphic_11048">
        <path d="M -303.093 -3014.0518 C -303.25663 -3014.0518 -303.3852 -3014.1753 -303.3852 -3014.3325 C -303.3852 -3014.4898 -303.25663 -3014.6133 -303.093 -3014.6133 L -294.32685 -3014.6133 C -294.1632 -3014.6133 -294.03464 -3014.4898 -294.03464 -3014.3325 C -294.03464 -3014.1753 -294.1632 -3014.0518 -294.32685 -3014.0518 Z M -303.093 -3011.8056 C -303.25663 -3011.8056 -303.3852 -3011.929 -303.3852 -3012.0864 C -303.3852 -3012.2436 -303.25663 -3012.367 -303.093 -3012.367 L -294.32685 -3012.367 C -294.1632 -3012.367 -294.03464 -3012.2436 -294.03464 -3012.0864 C -294.03464 -3011.929 -294.1632 -3011.8056 -294.32685 -3011.8056 Z M -303.093 -3009.5595 C -303.25663 -3009.5595 -303.3852 -3009.683 -303.3852 -3009.8402 C -303.3852 -3009.9975 -303.25663 -3010.121 -303.093 -3010.121 L -294.32685 -3010.121 C -294.1632 -3010.121 -294.03464 -3009.9975 -294.03464 -3009.8402 C -294.03464 -3009.683 -294.1632 -3009.5595 -294.32685 -3009.5595 Z M -303.093 -3007.3133 C -303.25663 -3007.3133 -303.3852 -3007.437 -303.3852 -3007.594 C -303.3852 -3007.7513 -303.25663 -3007.875 -303.093 -3007.875 L -297.8333 -3007.875 C -297.66967 -3007.875 -297.5411 -3007.7513 -297.5411 -3007.594 C -297.5411 -3007.437 -297.66967 -3007.3133 -297.8333 -3007.3133 Z" fill="#e3e6e1"/>
      </g>
    </g>
  </g>
</svg>
