<svg height="25" viewBox="-311.21 -3025.285 25 25" width="25" xmlns="http://www.w3.org/2000/svg"><g fill="none"><path d="M-306.87-3024.785h16.32a3.84 3.84 0 0 1 3.84 3.84v16.32a3.84 3.84 0 0 1-3.84 3.84h-16.32a3.84 3.84 0 0 1-3.84-3.84v-16.32a3.84 3.84 0 0 1 3.84-3.84z" fill="#666"/><path d="M-306.87-3024.785h16.32a3.84 3.84 0 0 1 3.84 3.84v16.32a3.84 3.84 0 0 1-3.84 3.84h-16.32a3.84 3.84 0 0 1-3.84-3.84v-16.32a3.84 3.84 0 0 1 3.84-3.84z" stroke="#fff" stroke-linecap="round" stroke-linejoin="round" stroke-width=".25"/><g fill="#e3e6e1"><path d="M-290.71-3007.006a2.222 2.222 0 0 1-2.22 2.221h-11.559a2.222 2.222 0 0 1-2.22-2.22v-11.559c0-1.226.994-2.22 2.22-2.22h11.558c1.226 0 2.221.994 2.221 2.22zm-.888-10.225v-1.333a1.33 1.33 0 0 0-1.333-1.332h-11.558a1.33 1.33 0 0 0-1.333 1.332v1.333zm0 .888h-14.224v9.337c0 .738.596 1.333 1.333 1.333h11.558a1.33 1.33 0 0 0 1.333-1.333zm-13.335-2.665h.888v.888h-.888zm1.777 0h.888v.888h-.888zm1.776 0h.889v.888h-.889z"/><path d="M-303.093-3014.052a.284.284 0 0 1-.292-.28c0-.158.128-.281.292-.281h8.766c.164 0 .292.123.292.28 0 .158-.128.281-.292.281zm0 2.246a.284.284 0 0 1-.292-.28c0-.158.128-.281.292-.281h8.766c.164 0 .292.123.292.28 0 .158-.128.281-.292.281zm0 2.246a.284.284 0 0 1-.292-.28c0-.157.128-.281.292-.281h8.766c.164 0 .292.123.292.28 0 .158-.128.281-.292.281zm0 2.247a.284.284 0 0 1-.292-.281c0-.157.128-.281.292-.281h5.26c.163 0 .292.124.292.281 0 .157-.129.28-.292.28z"/></g></g></svg>