<svg height="25" viewBox="-311.21 -3025.285 25 25" width="25" xmlns="http://www.w3.org/2000/svg"><g fill="none"><path d="m-306.8699-3024.7847h16.31998c2.12077 0 3.84 1.7192 3.84 3.84v16.32c0 2.1207-1.71923 3.84-3.84 3.84h-16.31998c-2.1208 0-3.84002-1.7193-3.84002-3.84v-16.32c0-2.1208 1.71922-3.84 3.84002-3.84z" fill="#666"/><path d="m-306.8699-3024.7847h16.31998c2.12077 0 3.84 1.7192 3.84 3.84v16.32c0 2.1207-1.71923 3.84-3.84 3.84h-16.31998c-2.1208 0-3.84002-1.7193-3.84002-3.84v-16.32c0-2.1208 1.71922-3.84 3.84002-3.84z" stroke="#fff" stroke-linecap="round" stroke-linejoin="round" stroke-width=".25"/><g fill="#e3e6e1"><path d="m-290.70993-3007.0057c0 1.226-.99501 2.221-2.22099 2.221h-11.55803c-1.22598 0-2.22098-.995-2.22098-2.221v-11.5581c0-1.2259.995-2.2209 2.22098-2.2209h11.55803c1.22598 0 2.22099.995 2.22099 2.2209zm-.8884-10.2253v-1.3328c0-.7372-.59523-1.3325-1.33259-1.3325h-11.55803c-.73735 0-1.33259.5953-1.33259 1.3325v1.3328zm0 .8882h-14.22321v9.3371c0 .7373.59524 1.3327 1.33259 1.3327h11.55803c.73736 0 1.33259-.5954 1.33259-1.3327zm-13.33481-2.6652h.88839v.8884h-.88839zm1.77679 0h.88839v.8884h-.88839zm1.77679 0h.88839v.8884h-.88839z"/><path d="m-303.093-3014.0518c-.16363 0-.2922-.1235-.2922-.2807 0-.1573.12857-.2808.2922-.2808h8.76615c.16365 0 .29221.1235.29221.2808 0 .1572-.12856.2807-.29221.2807zm0 2.2462c-.16363 0-.2922-.1234-.2922-.2808 0-.1572.12857-.2806.2922-.2806h8.76615c.16365 0 .29221.1234.29221.2806 0 .1574-.12856.2808-.29221.2808zm0 2.2461c-.16363 0-.2922-.1235-.2922-.2807 0-.1573.12857-.2808.2922-.2808h8.76615c.16365 0 .29221.1235.29221.2808 0 .1572-.12856.2807-.29221.2807zm0 2.2462c-.16363 0-.2922-.1237-.2922-.2807 0-.1573.12857-.281.2922-.281h5.2597c.16363 0 .2922.1237.2922.281 0 .157-.12857.2807-.2922.2807z"/></g></g></svg>