<svg height="25" viewBox="-275.21 -3025.285 25 25" width="25" xmlns="http://www.w3.org/2000/svg"><g fill="none"><path d="m-270.86992-3024.7847h16.32c2.12077 0 3.84 1.7192 3.84 3.84v16.32c0 2.1207-1.71923 3.84-3.84 3.84h-16.32c-2.12078 0-3.84-1.7193-3.84-3.84v-16.32c0-2.1208 1.71922-3.84 3.84-3.84z" fill="#666"/><path d="m-270.86992-3024.7847h16.32c2.12077 0 3.84 1.7192 3.84 3.84v16.32c0 2.1207-1.71923 3.84-3.84 3.84h-16.32c-2.12078 0-3.84-1.7193-3.84-3.84v-16.32c0-2.1208 1.71922-3.84 3.84-3.84z" stroke="#fff" stroke-linecap="round" stroke-linejoin="round" stroke-width=".25"/><path d="m-254.70992-3007.0057c0 1.226-.995 2.221-2.22098 2.221h-11.55803c-1.22597 0-2.22099-.995-2.22099-2.221v-11.5581c0-1.2259.99502-2.2209 2.22099-2.2209h11.55803c1.22598 0 2.22098.995 2.22098 2.2209zm-.88838-10.2253v-1.3328c0-.7372-.59524-1.3325-1.3326-1.3325h-11.55803c-.73737 0-1.33259.5953-1.33259 1.3325v1.3328zm0 .8882h-14.22322v9.3371c0 .7373.59522 1.3327 1.33259 1.3327h11.55803c.73736 0 1.3326-.5954 1.3326-1.3327zm-13.33483-2.6652h.8884v.8884h-.8884zm1.77679 0h.8884v.8884h-.8884zm1.77679 0h.8884v.8884h-.8884z" fill="#e3e6e1"/></g></svg>