<svg height="25" viewBox="-275.21 -3025.285 25 25" width="25" xmlns="http://www.w3.org/2000/svg"><g fill="none"><path d="M-270.87-3024.785h16.32a3.84 3.84 0 0 1 3.84 3.84v16.32a3.84 3.84 0 0 1-3.84 3.84h-16.32a3.84 3.84 0 0 1-3.84-3.84v-16.32a3.84 3.84 0 0 1 3.84-3.84z" fill="#666"/><path d="M-270.87-3024.785h16.32a3.84 3.84 0 0 1 3.84 3.84v16.32a3.84 3.84 0 0 1-3.84 3.84h-16.32a3.84 3.84 0 0 1-3.84-3.84v-16.32a3.84 3.84 0 0 1 3.84-3.84z" stroke="#fff" stroke-linecap="round" stroke-linejoin="round" stroke-width=".25"/><path d="M-254.71-3007.006a2.222 2.222 0 0 1-2.22 2.221h-11.559a2.222 2.222 0 0 1-2.22-2.22v-11.559c0-1.226.994-2.22 2.22-2.22h11.558c1.226 0 2.221.994 2.221 2.22zm-.888-10.225v-1.333a1.33 1.33 0 0 0-1.333-1.332h-11.558a1.33 1.33 0 0 0-1.333 1.332v1.333zm0 .888h-14.224v9.337a1.33 1.33 0 0 0 1.333 1.333h11.558c.737 0 1.333-.595 1.333-1.333zm-13.335-2.665h.888v.888h-.888zm1.777 0h.888v.888h-.888zm1.776 0h.889v.888h-.889z" fill="#e3e6e1"/></g></svg>