<svg height="25" viewBox="-886.483 -3651.322 25 25" width="25" xmlns="http://www.w3.org/2000/svg"><g fill="none"><circle cx="-873.983" cy="-3638.822" fill="#666" r="12"/><circle cx="-873.983" cy="-3638.822" r="12" stroke="#fff" stroke-linecap="round" stroke-linejoin="round" stroke-width=".25"/><path d="m-869.8331-3643.695 1.1871-.243c.506-.1034 1.0215.1285 1.2798.576l.6234 1.0796c.2582.4474.2013 1.0097-.1414 1.3961l-.8031.9057c.0694.3796.1046.7666.1046 1.1583 0 .3915-.0352.7788-.1046 1.1583l.8031.9056c.3427.3864.3996.9489.1414 1.3964l-.6234 1.0796c-.2583.4474-.7738.6791-1.2798.5754l-1.1871-.2427c-.5918.5045-1.271.8981-2.0052 1.1592l-.3826 1.1475c-.1633.49-.6219.8207-1.1384.8207h-1.2468c-.5165 0-.9751-.3307-1.1384-.8207l-.3826-1.1475c-.7343-.2611-1.4134-.6547-2.0052-1.1592l-1.1871.2427c-.506.1037-1.0216-.128-1.2798-.5754l-.6234-1.0796c-.2583-.4475-.2013-1.01.1414-1.3964l.8031-.9056c-.0694-.3795-.1046-.7668-.1046-1.1583 0-.3917.0352-.7787.1046-1.1583l-.8031-.9057c-.3427-.3864-.3997-.9487-.1414-1.3961l.6234-1.0796c.2582-.4475.7738-.6794 1.2798-.576l1.1871.243c.5918-.5044 1.2709-.898 2.0052-1.159l.3826-1.148c.1633-.49.6219-.8203 1.1384-.8203h1.2468c.5165 0 .9751.3303 1.1384.8203l.3826 1.148c.7342.261 1.4134.6546 2.0052 1.159zm-2.4435-.463c-.1216-.0386-.2174-.1332-.2578-.2543l-.4455-1.3367c-.0544-.163-.2073-.2733-.3794-.2733h-1.2468c-.1722 0-.325.1103-.3795.2733l-.4455 1.3367c-.0404.1211-.1361.2157-.2577.2543-.7647.2445-1.4665.6516-2.0597 1.191-.0944.0857-.2242.1213-.3492.0957l-1.3821-.2827c-.1687-.0346-.3405.0427-.4266.192l-.6234 1.0796c-.0861.1491-.0671.3364.0471.4654l.935 1.0543c.0846.0954.1186.2254.0917.35-.084.388-.1267.7863-.1267 1.1904s.0427.8023.1267 1.1903c.0269.1247-.0071.2546-.0917.35l-.935 1.0544c-.1142.1288-.1332.3163-.0471.4656l.6234 1.0796c.0861.1491.2579.2264.4266.1918l1.3821-.2828c.125-.0256.2548.01.3492.0959.5932.5392 1.295.9465 2.0597 1.1905.1216.039.2173.1336.2577.2547l.4455 1.3363c.0545.1635.2073.2737.3795.2737h1.2468c.1721 0 .325-.1102.3794-.2737l.4455-1.3363c.0404-.1211.1362-.2157.2578-.2547.7647-.244 1.4665-.6513 2.0596-1.1905.0945-.0859.2242-.1215.3493-.0959l1.3821.2828c.1686.0346.3405-.0427.4266-.1918l.6234-1.0796c.086-.1493.0671-.3368-.0472-.4656l-.9349-1.0544c-.0846-.0954-.1187-.2253-.0917-.35.0839-.388.1267-.7862.1267-1.1903s-.0428-.8024-.1267-1.1904c-.027-.1246.0071-.2546.0917-.35l.9349-1.0543c.1143-.129.1332-.3163.0472-.4654l-.6234-1.0796c-.0861-.1493-.258-.2266-.4266-.192l-1.3821.2827c-.1251.0256-.2548-.01-.3493-.0957-.5931-.5394-1.2949-.9465-2.0596-1.191zm-1.7061 8.5357c-1.7673 0-3.2-1.4327-3.2-3.2s1.4327-3.2 3.2-3.2 3.2 1.4327 3.2 3.2-1.4327 3.2-3.2 3.2zm0-.8c1.3255 0 2.4-1.0747 2.4-2.4 0-1.3257-1.0745-2.4-2.4-2.4s-2.4 1.0743-2.4 2.4c0 1.3253 1.0745 2.4 2.4 2.4z" fill="#c0e0ff"/></g></svg>