<svg height="25" viewBox="-886.483 -3651.322 25 25" width="25" xmlns="http://www.w3.org/2000/svg"><g fill="none"><circle cx="-873.983" cy="-3638.822" fill="#666" r="12"/><circle cx="-873.983" cy="-3638.822" r="12" stroke="#fff" stroke-linecap="round" stroke-linejoin="round" stroke-width=".25"/><path d="M-869.833-3643.695l1.187-.243a1.2 1.2 0 0 1 1.28.576l.623 1.08a1.2 1.2 0 0 1-.141 1.396l-.803.905a6.435 6.435 0 0 1 0 2.317l.803.906c.343.386.4.948.141 1.396l-.623 1.08a1.2 1.2 0 0 1-1.28.575l-1.187-.243a6.394 6.394 0 0 1-2.005 1.16l-.383 1.147a1.2 1.2 0 0 1-1.138.82h-1.247a1.2 1.2 0 0 1-1.138-.82l-.383-1.147a6.393 6.393 0 0 1-2.005-1.16l-1.187.243a1.2 1.2 0 0 1-1.28-.575l-.624-1.08a1.2 1.2 0 0 1 .142-1.396l.803-.906a6.436 6.436 0 0 1 0-2.317l-.803-.905a1.2 1.2 0 0 1-.142-1.396l.624-1.08a1.2 1.2 0 0 1 1.28-.576l1.187.243a6.393 6.393 0 0 1 2.005-1.159l.382-1.148a1.2 1.2 0 0 1 1.139-.82h1.247a1.2 1.2 0 0 1 1.138.82l.383 1.148a6.394 6.394 0 0 1 2.005 1.159zm-2.444-.463a.4.4 0 0 1-.257-.254l-.446-1.337a.4.4 0 0 0-.38-.273h-1.246a.4.4 0 0 0-.38.273l-.445 1.337a.4.4 0 0 1-.258.254 5.595 5.595 0 0 0-2.06 1.191.4.4 0 0 1-.349.096l-1.382-.283a.4.4 0 0 0-.426.192l-.624 1.08a.4.4 0 0 0 .047.465l.935 1.054a.4.4 0 0 1 .092.35 5.62 5.62 0 0 0 0 2.381.4.4 0 0 1-.092.35l-.935 1.054a.4.4 0 0 0-.047.466l.624 1.08a.4.4 0 0 0 .426.191l1.382-.282a.4.4 0 0 1 .35.095 5.59 5.59 0 0 0 2.06 1.191.4.4 0 0 1 .257.255l.445 1.336a.4.4 0 0 0 .38.274h1.247a.4.4 0 0 0 .38-.274l.445-1.336a.4.4 0 0 1 .257-.255 5.589 5.589 0 0 0 2.06-1.19.4.4 0 0 1 .35-.096l1.381.282a.4.4 0 0 0 .427-.191l.623-1.08a.4.4 0 0 0-.047-.466l-.935-1.054a.4.4 0 0 1-.091-.35 5.626 5.626 0 0 0 0-2.38.4.4 0 0 1 .091-.35l.935-1.055a.4.4 0 0 0 .047-.465l-.623-1.08a.4.4 0 0 0-.427-.192l-1.382.283a.4.4 0 0 1-.349-.096 5.594 5.594 0 0 0-2.06-1.191zm-1.706 8.536a3.2 3.2 0 1 1 0-6.4 3.2 3.2 0 0 1 0 6.4zm0-.8a2.4 2.4 0 1 0 0-4.8 2.4 2.4 0 0 0 0 4.8z" fill="#c0e0ff"/></g></svg>