<svg height="24.75" viewBox="-634.358 -3651.197 24.75 24.75" width="24.75" xmlns="http://www.w3.org/2000/svg"><g fill="none"><path d="M-630.143-3650.822h16.32a3.84 3.84 0 0 1 3.84 3.84v16.32a3.84 3.84 0 0 1-3.84 3.84h-16.32a3.84 3.84 0 0 1-3.84-3.84v-16.32a3.84 3.84 0 0 1 3.84-3.84z" fill="#4288c4"/><path d="M-619.297-3637.222a2 2 0 0 1 .514 1.339v1.46a2 2 0 0 1-2 2h-7.2a2 2 0 0 1-2-2v-1.46a2 2 0 0 1 .515-1.34h-.115a.4.4 0 1 1 0-.8h1.33l1.633-.911a3.2 3.2 0 1 1 5.43-2.086l.43-.44a2.4 2.4 0 1 1 3.954-.002l.004.003 1.452 1.492a2 2 0 0 1 .567 1.395v.55h.4a.4.4 0 0 1 0 .8zm-1.215-.8h4.93v-.55a1.2 1.2 0 0 0-.341-.837l-1.44-1.478a2.389 2.389 0 0 1-1.42.465c-.53 0-1.021-.173-1.418-.464l-1.44 1.477c-.169.172-.192.196-.236.252a.439.439 0 0 0-.106.314zm-.476.65l-1.863-1.04c-.455.248-.977.39-1.532.39a3.184 3.184 0 0 1-1.531-.39l-2.654 1.481a1.2 1.2 0 0 0-.615 1.048v1.46a1.2 1.2 0 0 0 1.2 1.2h7.2a1.2 1.2 0 0 0 1.2-1.2v-1.46a1.2 1.2 0 0 0-.615-1.048l-.527-.294a.401.401 0 0 1-.263-.147zm-3.395-1.45a2.4 2.4 0 1 0 0-4.8 2.4 2.4 0 0 0 0 4.8zm5.6-2.4a1.6 1.6 0 1 0 0-3.2 1.6 1.6 0 0 0 0 3.2z" fill="#fff"/></g></svg>