<svg height="24.75" viewBox="-742.358 -3651.197 24.75 24.75" width="24.75" xmlns="http://www.w3.org/2000/svg"><g fill="none"><path d="M-738.143-3650.822h16.32a3.84 3.84 0 0 1 3.84 3.84v16.32a3.84 3.84 0 0 1-3.84 3.84h-16.32a3.84 3.84 0 0 1-3.84-3.84v-16.32a3.84 3.84 0 0 1 3.84-3.84z" fill="#4288c4"/><path d="M-727.316-3637.044v-3.556h-5.333v3.555zm0 .888h-5.333v3.556h5.333zm-9.778-.888h3.556v-3.556h-3.556zm0 .888v2.223c0 .736.597 1.333 1.334 1.333h2.222v-3.556zm14.222-.888v-3.556h-3.555v3.555zm0 .888h-3.555v3.556h2.222c.736 0 1.333-.597 1.333-1.333zm-4.444-5.333v-3.555h-5.333v3.555zm-9.778 0h3.556v-3.555h-2.222c-.737 0-1.334.596-1.334 1.333zm14.222 0v-2.222c0-.737-.597-1.333-1.333-1.333h-2.222v3.555zm-12.888-4.444h11.555c1.227 0 2.222.995 2.222 2.222v9.778a2.222 2.222 0 0 1-2.222 2.222h-11.555a2.222 2.222 0 0 1-2.223-2.222v-9.778c0-1.227.995-2.222 2.223-2.222z" fill="#fff"/></g></svg>