<svg height="25" viewBox="-670.483 -3651.322 25 25" width="25" xmlns="http://www.w3.org/2000/svg"><g fill="none"><circle cx="-657.983" cy="-3638.822" fill="#666" r="12"/><circle cx="-657.983" cy="-3638.822" r="12" stroke="#fff" stroke-linecap="round" stroke-linejoin="round" stroke-width=".25"/><path d="m-652.7454-3634.1496 2.1406 2.1406c.1627.1627.1627.4265 0 .5892-.16275.1628-.4266.1628-.5893 0l-2.1406-2.1406-1.3847 2.0771c-.1884.2826-.6176.2333-.73684-.0847l-2.49996-6.6667c-.1256-.335.20146-.6621.5364-.5363l6.66664 2.5c.318.119.36741.5483.08486.7366zm-.878-.4164 1.816-1.2105-5.0467-1.8925 1.8925 5.0467 1.2107-1.8161c.016-.025.03494-.0486.0568-.0706.0219-.022.0456-.041.0707-.057zm-9.776-11.7317c.2301 0 .4167.1867.4167.4167s-.1866.4167-.4167.4167c-.69035 0-1.25.5596-1.25 1.25 0 .2301-.18654.4166-.41666.4166-.23014 0-.41664-.1865-.41664-.4166 0-1.1507.9327-2.0834 2.0833-2.0834zm2.5.8334c-.2301 0-.4167-.1867-.4167-.4167s.1866-.4167.4167-.4167h1.66665c.23015 0 .41665.1867.41665.4167s-.1865.4167-.41665.4167zm4.1666 0c-.2301 0-.4166-.1867-.4166-.4167s.1865-.4167.4166-.4167h1.6667c.2301 0 .41666.1867.41666.4167s-.18656.4167-.41666.4167zm-4.1666 14.1666c-.2301 0-.4167-.1866-.4167-.4167s.1866-.4166.4167-.4166h1.66665c.23015 0 .41665.1865.41665.4166s-.1865.4167-.41665.4167zm-4.5833-10.4167c0-.2301.1865-.4166.41664-.4166.23012 0 .41666.1865.41666.4166v1.6667c0 .2301-.18654.4167-.41666.4167-.23014 0-.41664-.1866-.41664-.4167zm0 4.1667c0-.2303.1865-.4167.41664-.4167.23012 0 .41666.1864.41666.4167v1.6667c0 .23-.18654.4166-.41666.4166-.23014 0-.41664-.1866-.41664-.4166zm0 4.1667c0-.23.1865-.4167.41664-.4167.23012 0 .41666.1867.41666.4167 0 .6903.55965 1.25 1.25 1.25.2301 0 .4167.1865.4167.4166s-.1866.4167-.4167.4167c-1.1506 0-2.0833-.9328-2.0833-2.0833zm14.9999-6.6667c0 .2301-.18654.4167-.41666.4167-.23014 0-.41664-.1866-.41664-.4167v-1.6667c0-.2301.1865-.4166.41664-.4166.23012 0 .41666.1865.41666.4166zm0-4.1666c0 .2301-.18654.4166-.41666.4166-.23014 0-.41664-.1865-.41664-.4166 0-.6904-.5597-1.25-1.25-1.25-.2301 0-.4167-.1867-.4167-.4167s.1866-.4167.4167-.4167c1.1506 0 2.0833.9327 2.0833 2.0834z" fill="#c0e0ff"/></g></svg>