<?xml version="1.0" encoding="UTF-8" standalone="no"?>
<!DOCTYPE svg PUBLIC "-//W3C//DTD SVG 1.1//EN" "http://www.w3.org/Graphics/SVG/1.1/DTD/svg11.dtd">
<svg xmlns="http://www.w3.org/2000/svg" xmlns:xl="http://www.w3.org/1999/xlink" version="1.1" xmlns:dc="http://purl.org/dc/elements/1.1/" viewBox="-598.4827 -3651.3223 24.999996 25" width="24.999996" height="25">
  <defs/>
  <g id="SOURCES" stroke-opacity="1" fill="none" stroke="none" fill-opacity="1" stroke-dasharray="none">
    <title>SOURCES</title>
    <g id="SOURCES_Dark">
      <title>Dark</title>
      <g id="Graphic_11578">
        <circle cx="-585.9827" cy="-3638.8223" r="12.000018268838" fill="#666"/>
        <circle cx="-585.9827" cy="-3638.8223" r="12.000018268838" stroke="white" stroke-linecap="round" stroke-linejoin="round" stroke-width=".25"/>
      </g>
      <g id="Graphic_11558">
        <path d="M -589.22496 -3638.2434 C -589.32375 -3638.046 -589.564 -3637.9658 -589.7616 -3638.0646 C -589.9592 -3638.1633 -590.0393 -3638.4036 -589.9405 -3638.601 C -589.075 -3640.3322 -587.73986 -3641.2223 -585.9827 -3641.2223 C -584.2256 -3641.2223 -582.8905 -3640.3322 -582.02496 -3638.601 C -581.92616 -3638.4036 -582.00625 -3638.1633 -582.20384 -3638.0646 C -582.4014 -3637.9658 -582.6417 -3638.046 -582.7405 -3638.2434 C -583.475 -3639.7124 -584.53986 -3640.4223 -585.9827 -3640.4223 C -587.4256 -3640.4223 -588.4905 -3639.7124 -589.22496 -3638.2434 Z M -589.1827 -3638.8223 L -587.1827 -3638.8223 C -586.9618 -3638.8223 -586.7827 -3638.6432 -586.7827 -3638.4223 C -586.7827 -3638.2014 -586.9618 -3638.0223 -587.1827 -3638.0223 L -589.5827 -3638.0223 C -589.80364 -3638.0223 -589.9827 -3638.2014 -589.9827 -3638.4223 L -589.9827 -3640.8223 C -589.9827 -3641.0432 -589.80364 -3641.2223 -589.5827 -3641.2223 C -589.3618 -3641.2223 -589.1827 -3641.0432 -589.1827 -3640.8223 Z M -591.1827 -3646.0223 C -590.9618 -3646.0223 -590.7827 -3645.8432 -590.7827 -3645.6223 C -590.7827 -3645.4014 -590.9618 -3645.2223 -591.1827 -3645.2223 C -591.8455 -3645.2223 -592.3827 -3644.685 -592.3827 -3644.0223 C -592.3827 -3643.8014 -592.5618 -3643.6223 -592.7827 -3643.6223 C -593.00364 -3643.6223 -593.1827 -3643.8014 -593.1827 -3644.0223 C -593.1827 -3645.127 -592.2873 -3646.0223 -591.1827 -3646.0223 Z M -589.5827 -3645.2223 C -589.80364 -3645.2223 -589.9827 -3645.4014 -589.9827 -3645.6223 C -589.9827 -3645.8432 -589.80364 -3646.0223 -589.5827 -3646.0223 L -587.9827 -3646.0223 C -587.7618 -3646.0223 -587.5827 -3645.8432 -587.5827 -3645.6223 C -587.5827 -3645.4014 -587.7618 -3645.2223 -587.9827 -3645.2223 Z M -593.1827 -3641.6223 C -593.1827 -3641.8432 -593.00364 -3642.0223 -592.7827 -3642.0223 C -592.5618 -3642.0223 -592.3827 -3641.8432 -592.3827 -3641.6223 L -592.3827 -3640.0223 C -592.3827 -3639.8014 -592.5618 -3639.6223 -592.7827 -3639.6223 C -593.00364 -3639.6223 -593.1827 -3639.8014 -593.1827 -3640.0223 Z M -593.1827 -3637.6223 C -593.1827 -3637.8432 -593.00364 -3638.0223 -592.7827 -3638.0223 C -592.5618 -3638.0223 -592.3827 -3637.8432 -592.3827 -3637.6223 L -592.3827 -3636.0223 C -592.3827 -3635.8014 -592.5618 -3635.6223 -592.7827 -3635.6223 C -593.00364 -3635.6223 -593.1827 -3635.8014 -593.1827 -3636.0223 Z M -593.1827 -3633.6223 C -593.1827 -3633.8432 -593.00364 -3634.0223 -592.7827 -3634.0223 C -592.5618 -3634.0223 -592.3827 -3633.8432 -592.3827 -3633.6223 C -592.3827 -3632.9596 -591.8455 -3632.4223 -591.1827 -3632.4223 C -590.9618 -3632.4223 -590.7827 -3632.2432 -590.7827 -3632.0223 C -590.7827 -3631.8014 -590.9618 -3631.6223 -591.1827 -3631.6223 C -592.2873 -3631.6223 -593.1827 -3632.5178 -593.1827 -3633.6223 Z M -589.5827 -3631.6223 C -589.80364 -3631.6223 -589.9827 -3631.8014 -589.9827 -3632.0223 C -589.9827 -3632.2432 -589.80364 -3632.4223 -589.5827 -3632.4223 L -587.9827 -3632.4223 C -587.7618 -3632.4223 -587.5827 -3632.2432 -587.5827 -3632.0223 C -587.5827 -3631.8014 -587.7618 -3631.6223 -587.9827 -3631.6223 Z M -585.9827 -3646.4223 C -585.9827 -3646.6432 -585.80364 -3646.8223 -585.5827 -3646.8223 C -585.3618 -3646.8223 -585.1827 -3646.6432 -585.1827 -3646.4223 L -585.1827 -3643.2223 C -585.1827 -3643.0014 -585.3618 -3642.8223 -585.5827 -3642.8223 C -585.80364 -3642.8223 -585.9827 -3643.0014 -585.9827 -3643.2223 Z M -585.9827 -3636.8223 C -585.9827 -3637.0432 -585.80364 -3637.2223 -585.5827 -3637.2223 C -585.3618 -3637.2223 -585.1827 -3637.0432 -585.1827 -3636.8223 L -585.1827 -3631.2223 C -585.1827 -3631.0014 -585.3618 -3630.8223 -585.5827 -3630.8223 C -585.80364 -3630.8223 -585.9827 -3631.0014 -585.9827 -3631.2223 Z M -583.1827 -3645.2223 C -583.40364 -3645.2223 -583.5827 -3645.4014 -583.5827 -3645.6223 C -583.5827 -3645.8432 -583.40364 -3646.0223 -583.1827 -3646.0223 L -580.7827 -3646.0223 C -579.67816 -3646.0223 -578.7827 -3645.127 -578.7827 -3644.0223 L -578.7827 -3633.6223 C -578.7827 -3632.5178 -579.67816 -3631.6223 -580.7827 -3631.6223 L -583.1827 -3631.6223 C -583.40364 -3631.6223 -583.5827 -3631.8014 -583.5827 -3632.0223 C -583.5827 -3632.2432 -583.40364 -3632.4223 -583.1827 -3632.4223 L -580.7827 -3632.4223 C -580.12 -3632.4223 -579.5827 -3632.9596 -579.5827 -3633.6223 L -579.5827 -3644.0223 C -579.5827 -3644.685 -580.12 -3645.2223 -580.7827 -3645.2223 Z" fill="#c0e0ff"/>
      </g>
    </g>
  </g>
</svg>
