<svg height="25" viewBox="-670.483 -3651.322 25 25" width="25" xmlns="http://www.w3.org/2000/svg"><g fill="none"><circle cx="-657.983" cy="-3638.822" fill="#666" r="12"/><circle cx="-657.983" cy="-3638.822" r="12" stroke="#fff" stroke-linecap="round" stroke-linejoin="round" stroke-width=".25"/><path d="M-652.745-3634.15l2.14 2.141a.417.417 0 1 1-.59.59l-2.14-2.141-1.384 2.077a.417.417 0 0 1-.737-.085l-2.5-6.667a.417.417 0 0 1 .536-.536l6.667 2.5a.416.416 0 0 1 .085.737zm-.878-.416l1.816-1.21-5.047-1.893 1.892 5.047 1.211-1.816a.426.426 0 0 1 .128-.128zm-9.776-11.732a.417.417 0 0 1 0 .834c-.69 0-1.25.56-1.25 1.25a.417.417 0 0 1-.834 0c0-1.151.933-2.084 2.084-2.084zm2.5.834a.417.417 0 0 1 0-.834h1.666a.417.417 0 0 1 0 .834zm4.166 0a.417.417 0 0 1 0-.834h1.667a.417.417 0 0 1 0 .834zm-4.166 14.166a.417.417 0 0 1 0-.833h1.666a.417.417 0 1 1 0 .833zm-4.584-10.416a.417.417 0 1 1 .834 0v1.666a.417.417 0 0 1-.834 0zm0 4.166a.417.417 0 1 1 .834 0v1.667a.417.417 0 0 1-.834 0zm0 4.167a.417.417 0 0 1 .834 0c0 .69.56 1.25 1.25 1.25a.417.417 0 1 1 0 .833 2.083 2.083 0 0 1-2.084-2.083zm15-6.667a.417.417 0 0 1-.833 0v-1.666a.417.417 0 1 1 .833 0zm0-4.166a.417.417 0 0 1-.833 0c0-.69-.56-1.25-1.25-1.25a.417.417 0 0 1 0-.834c1.15 0 2.083.933 2.083 2.084z" fill="#c0e0ff"/></g></svg>