<svg height="24.75" viewBox="-634.358 -3651.197 24.75 24.75" width="24.75" xmlns="http://www.w3.org/2000/svg"><g fill="none"><path d="m-630.1427-3650.8223h16.32c2.12075 0 3.84 1.7193 3.84 3.84v16.32c0 2.1208-1.71925 3.84-3.84 3.84h-16.32c-2.1208 0-3.84-1.7192-3.84-3.84v-16.32c0-2.1207 1.7192-3.84 3.84-3.84z" fill="#4288c4"/><path d="m-619.29725-3637.2223c.32625.3619.51455.8369.51455 1.3393v1.4607c0 1.1045-.89546 2-2 2h-7.2c-1.1046 0-2-.8955-2-2v-1.4607c0-.5023.1883-.9774.5146-1.3393h-.1146c-.22094 0-.4-.1791-.4-.4s.17906-.4.4-.4h1.32925l1.6337-.9117c-.59415-.581-.96295-1.3917-.96295-2.2883 0-1.7673 1.43266-3.2 3.2-3.2 1.7673 0 3.2 1.4327 3.2 3.2 0 .0683-.00215.1357-.00635.2028l.4299-.4409c-.26715-.3869-.42355-.8562-.42355-1.3619 0-1.3257 1.0745-2.4 2.4-2.4 1.32546 0 2.4 1.0743 2.4 2.4 0 .5053-.1561.9738-.4226 1.3603l.0031.0033 1.4523 1.4914c.3637.3733.5672.8741.5672 1.3953v.5497h.4c.2209 0 .4.1791.4.4s-.1791.4-.4.4zm-1.2144-.8h4.92895v-.5497c0-.3127-.1221-.613-.3403-.837l-1.43955-1.4784c-.39765.2924-.88875.4651-1.42015.4651-.5308 0-1.0214-.1723-1.4188-.4641l-1.4404 1.4774c-.1679.172-.1907.196-.23504.252-.07636.096-.10336.1676-.10566.3135zm-.47665.6503-1.8627-1.04c-.4549.2484-.9768.3897-1.5317.3897-.5548 0-1.0765-.1412-1.5314-.3897l-2.65346 1.481c-.37984.212-.61514.613-.61514 1.048v1.4607c0 .6627.5372 1.2 1.2 1.2h7.2c.6627 0 1.2-.5373 1.2-1.2v-1.4607c0-.435-.23534-.836-.6151-1.048l-.5274-.2943c-.1061-.013-.1994-.0677-.2631-.1467zm-3.3944-1.4503c1.32546 0 2.4-1.0747 2.4-2.4 0-1.3257-1.07454-2.4-2.4-2.4-1.3255 0-2.4 1.0743-2.4 2.4 0 1.3253 1.0745 2.4 2.4 2.4zm5.6-2.4c.8836 0 1.6-.7164 1.6-1.6 0-.8837-.7164-1.6-1.6-1.6-.8837 0-1.6.7163-1.6 1.6 0 .8836.7163 1.6 1.6 1.6z" fill="#fff"/></g></svg>