<?xml version="1.0" encoding="UTF-8" standalone="no"?>
<!DOCTYPE svg PUBLIC "-//W3C//DTD SVG 1.1//EN" "http://www.w3.org/Graphics/SVG/1.1/DTD/svg11.dtd">
<svg xmlns="http://www.w3.org/2000/svg" xmlns:xl="http://www.w3.org/1999/xlink" version="1.1" xmlns:dc="http://purl.org/dc/elements/1.1/" viewBox="-562.4827 -3651.3223 25 25" width="25" height="25">
  <defs/>
  <g id="SOURCES" stroke-opacity="1" fill="none" stroke="none" fill-opacity="1" stroke-dasharray="none">
    <title>SOURCES</title>
    <g id="SOURCES_Dark">
      <title>Dark</title>
      <g id="Graphic_12171">
        <path d="M -558.1427 -3650.8223 L -541.8227 -3650.8223 C -539.70196 -3650.8223 -537.9827 -3649.103 -537.9827 -3646.9823 L -537.9827 -3630.6623 C -537.9827 -3628.5415 -539.70196 -3626.8223 -541.8227 -3626.8223 L -558.1427 -3626.8223 C -560.2635 -3626.8223 -561.9827 -3628.5415 -561.9827 -3630.6623 L -561.9827 -3646.9823 C -561.9827 -3649.103 -560.2635 -3650.8223 -558.1427 -3650.8223 Z" fill="#666"/>
        <path d="M -558.1427 -3650.8223 L -541.8227 -3650.8223 C -539.70196 -3650.8223 -537.9827 -3649.103 -537.9827 -3646.9823 L -537.9827 -3630.6623 C -537.9827 -3628.5415 -539.70196 -3626.8223 -541.8227 -3626.8223 L -558.1427 -3626.8223 C -560.2635 -3626.8223 -561.9827 -3628.5415 -561.9827 -3630.6623 L -561.9827 -3646.9823 C -561.9827 -3649.103 -560.2635 -3650.8223 -558.1427 -3650.8223 Z" stroke="white" stroke-linecap="round" stroke-linejoin="round" stroke-width=".25"/>
      </g>
      <g id="Graphic_12170">
        <path d="M -549.9827 -3637.6744 L -543.2416 -3641.2223 L -549.9827 -3644.7703 L -556.72384 -3641.2223 Z M -557.769 -3641.5763 L -550.169 -3645.5762 C -550.0524 -3645.6376 -549.91305 -3645.6376 -549.79643 -3645.5762 L -542.1965 -3641.5763 C -541.91156 -3641.4263 -541.91156 -3641.0183 -542.1965 -3640.8683 L -549.79643 -3636.8684 C -549.91305 -3636.807 -550.0524 -3636.807 -550.169 -3636.8684 L -557.769 -3640.8683 C -558.0539 -3641.0183 -558.0539 -3641.4263 -557.769 -3641.5763 Z M -549.9827 -3635.2744 L -542.5691 -3639.1763 C -542.3736 -3639.279 -542.1317 -3639.204 -542.0288 -3639.0086 C -541.9259 -3638.813 -542.001 -3638.5712 -542.1965 -3638.4684 L -549.79643 -3634.4684 C -549.91305 -3634.407 -550.0524 -3634.407 -550.169 -3634.4684 L -557.769 -3638.4684 C -557.96446 -3638.5712 -558.0395 -3638.813 -557.93664 -3639.0086 C -557.83375 -3639.204 -557.59187 -3639.279 -557.3964 -3639.1763 Z M -549.9827 -3632.8744 L -542.5691 -3636.7763 C -542.3736 -3636.879 -542.1317 -3636.804 -542.0288 -3636.6086 C -541.9259 -3636.413 -542.001 -3636.1713 -542.1965 -3636.0684 L -549.79643 -3632.0684 C -549.91305 -3632.007 -550.0524 -3632.007 -550.169 -3632.0684 L -557.769 -3636.0684 C -557.96446 -3636.1713 -558.0395 -3636.413 -557.93664 -3636.6086 C -557.83375 -3636.804 -557.59187 -3636.879 -557.3964 -3636.7763 Z" fill="#c0e0ff"/>
      </g>
    </g>
  </g>
</svg>
