<svg height="24.75" viewBox="-706.358 -3651.197 24.75 24.75" width="24.75" xmlns="http://www.w3.org/2000/svg"><g fill="none"><path d="m-702.1427-3650.8223h16.32c2.12075 0 3.84 1.7193 3.84 3.84v16.32c0 2.1208-1.71925 3.84-3.84 3.84h-16.32c-2.1208 0-3.84-1.7192-3.84-3.84v-16.32c0-2.1207 1.7192-3.84 3.84-3.84z" fill="#4288c4"/><path d="m-701.9827-3643.635c0-1.208.8954-2.1873 2-2.1873h12c1.10455 0 2 .9793 2 2.1873v9.625c0 1.2083-.89545 2.1877-2 2.1877h-12c-1.1046 0-2-.9794-2-2.1877zm.8 0v9.625c0 .725.5372 1.3127 1.2 1.3127h12c.6627 0 1.2-.5877 1.2-1.3127v-9.625c0-.7247-.5373-1.3123-1.2-1.3123h-12c-.6628 0-1.2.5876-1.2 1.3123zm10.4.4377h1.6c.4418 0 .8.3917.8.875v1.75c0 .4833-.3582.875-.8.875h-1.6c-.44185 0-.8-.3917-.8-.875v-1.75c0-.4833.35815-.875.8-.875zm0 .875v1.75h1.6v-1.75zm-10.5172 6.8718c-.1562.1709-.40946.1709-.5657 0-.1562-.1708-.1562-.4478 0-.6185l4-4.375c.15624-.171.4095-.171.5657 0l4.5172 4.9405 2.1171-2.3155c.15624-.171.4095-.171.5657 0l3.6 3.9373c.1562.1707.1562.4477 0 .6187s-.40946.171-.5657 0l-3.3171-3.628-2.1172 2.3155c-.1562.1709-.40946.1709-.5657 0l-4.5171-4.9405z" fill="#fff"/></g></svg>