<?xml version="1.0" encoding="UTF-8" standalone="no"?>
<!DOCTYPE svg PUBLIC "-//W3C//DTD SVG 1.1//EN" "http://www.w3.org/Graphics/SVG/1.1/DTD/svg11.dtd">
<svg xmlns="http://www.w3.org/2000/svg" xmlns:xl="http://www.w3.org/1999/xlink" version="1.1" xmlns:dc="http://purl.org/dc/elements/1.1/" viewBox="-778.3577 -3651.1973 24.75 24.75" width="24.75" height="24.75">
  <defs/>
  <g id="SOURCES" stroke-opacity="1" fill="none" stroke="none" fill-opacity="1" stroke-dasharray="none">
    <title>SOURCES</title>
    <g id="SOURCES_Dark">
      <title>Dark</title>
      <g id="Graphic_11574">
        <title>views/view.other</title>
        <path d="M -774.1427 -3650.8223 L -757.8227 -3650.8223 C -755.70195 -3650.8223 -753.9827 -3649.103 -753.9827 -3646.9823 L -753.9827 -3630.6623 C -753.9827 -3628.5415 -755.70195 -3626.8223 -757.8227 -3626.8223 L -774.1427 -3626.8223 C -776.2635 -3626.8223 -777.9827 -3628.5415 -777.9827 -3630.6623 L -777.9827 -3646.9823 C -777.9827 -3649.103 -776.2635 -3650.8223 -774.1427 -3650.8223 Z" fill="#4288c4"/>
      </g>
      <g id="Graphic_11573">
        <path d="M -762.3464 -3643.8613 L -762.3464 -3636.3855 L -761.2555 -3635.2865 L -760.16455 -3636.3855 L -760.16455 -3643.8613 Z M -762.3464 -3644.5886 L -760.16455 -3644.5886 L -760.16455 -3646.0324 L -762.3464 -3646.0324 Z M -759.4373 -3643.134 L -759.4373 -3636.2356 C -759.4373 -3636.1397 -759.4752 -3636.0476 -759.5428 -3635.9794 L -760.9974 -3634.514 C -761.1396 -3634.371 -761.3713 -3634.371 -761.5135 -3634.514 L -762.9681 -3635.9794 C -763.0357 -3636.0476 -763.07365 -3636.1397 -763.07365 -3636.2356 L -763.07365 -3638.043 L -763.4373 -3638.043 C -764.0398 -3638.043 -764.5282 -3638.5315 -764.5282 -3639.134 L -764.5282 -3641.316 C -764.5282 -3641.9183 -764.0398 -3642.4068 -763.4373 -3642.4068 L -763.07365 -3642.4068 L -763.07365 -3643.134 L -770.3464 -3643.134 L -770.3464 -3637.6795 C -770.3464 -3637.4786 -770.5092 -3637.316 -770.71 -3637.316 L -771.0737 -3637.316 C -772.2787 -3637.316 -773.2555 -3636.339 -773.2555 -3635.134 C -773.2555 -3633.929 -772.2787 -3632.952 -771.0737 -3632.952 L -758.71 -3632.952 L -758.71 -3643.134 Z M -759.4373 -3643.8613 L -758.3464 -3643.8613 C -758.1455 -3643.8613 -757.9827 -3643.6985 -757.9827 -3643.4977 L -757.9827 -3632.5886 C -757.9827 -3632.3877 -758.1455 -3632.225 -758.3464 -3632.225 L -771.0737 -3632.225 C -772.6803 -3632.225 -773.9828 -3633.5274 -773.9828 -3635.134 L -773.9828 -3643.4977 C -773.9828 -3645.305 -772.5175 -3646.7704 -770.71 -3646.7704 C -770.5092 -3646.7704 -770.3464 -3646.6076 -770.3464 -3646.4068 L -770.3464 -3643.8613 L -763.07365 -3643.8613 L -763.07365 -3646.396 C -763.07365 -3646.597 -762.9108 -3646.7597 -762.71 -3646.7597 L -759.8009 -3646.7597 C -759.6001 -3646.7597 -759.4373 -3646.597 -759.4373 -3646.396 Z M -763.07365 -3641.6795 L -763.4373 -3641.6795 C -763.6381 -3641.6795 -763.8009 -3641.5167 -763.8009 -3641.316 L -763.8009 -3639.134 C -763.8009 -3638.933 -763.6381 -3638.7704 -763.4373 -3638.7704 L -763.07365 -3638.7704 Z M -773.2555 -3637.0583 C -772.7224 -3637.662 -771.9425 -3638.043 -771.0737 -3638.043 L -771.0737 -3646.0174 C -772.3072 -3645.841 -773.2555 -3644.78 -773.2555 -3643.4977 L -773.2555 -3637.0583 Z M -768.5282 -3642.4068 L -766.3464 -3642.4068 C -765.7439 -3642.4068 -765.2555 -3641.9183 -765.2555 -3641.316 L -765.2555 -3639.134 C -765.2555 -3638.5315 -765.7439 -3638.043 -766.3464 -3638.043 L -768.5282 -3638.043 C -769.1307 -3638.043 -769.6191 -3638.5315 -769.6191 -3639.134 L -769.6191 -3641.316 C -769.6191 -3641.9183 -769.1307 -3642.4068 -768.5282 -3642.4068 Z M -768.5282 -3641.6795 C -768.729 -3641.6795 -768.89185 -3641.5167 -768.89185 -3641.316 L -768.89185 -3639.134 C -768.89185 -3638.933 -768.729 -3638.7704 -768.5282 -3638.7704 L -766.3464 -3638.7704 C -766.14555 -3638.7704 -765.98275 -3638.933 -765.98275 -3639.134 L -765.98275 -3641.316 C -765.98275 -3641.5167 -766.14555 -3641.6795 -766.3464 -3641.6795 Z M -769.2555 -3635.8613 C -769.4563 -3635.8613 -769.6191 -3636.024 -769.6191 -3636.225 C -769.6191 -3636.4258 -769.4563 -3636.5886 -769.2555 -3636.5886 L -764.1646 -3636.5886 C -763.9637 -3636.5886 -763.8009 -3636.4258 -763.8009 -3636.225 C -763.8009 -3636.024 -763.9637 -3635.8613 -764.1646 -3635.8613 Z M -769.2555 -3634.4067 C -769.4563 -3634.4067 -769.6191 -3634.5695 -769.6191 -3634.7704 C -769.6191 -3634.971 -769.4563 -3635.134 -769.2555 -3635.134 L -763.4373 -3635.134 C -763.23645 -3635.134 -763.07365 -3634.971 -763.07365 -3634.7704 C -763.07365 -3634.5695 -763.23645 -3634.4067 -763.4373 -3634.4067 Z" fill="white"/>
      </g>
    </g>
  </g>
</svg>
