<?xml version="1.0" encoding="UTF-8" standalone="no"?>
<!DOCTYPE svg PUBLIC "-//W3C//DTD SVG 1.1//EN" "http://www.w3.org/Graphics/SVG/1.1/DTD/svg11.dtd">
<svg xmlns="http://www.w3.org/2000/svg" xmlns:xl="http://www.w3.org/1999/xlink" version="1.1" xmlns:dc="http://purl.org/dc/elements/1.1/" viewBox="-634.3577 -3651.1973 24.75 24.75" width="24.75" height="24.75">
  <defs/>
  <g id="SOURCES" stroke-opacity="1" fill="none" stroke="none" fill-opacity="1" stroke-dasharray="none">
    <title>SOURCES</title>
    <g id="SOURCES_Dark">
      <title>Dark</title>
      <g id="Graphic_11581">
        <title>views/view.other</title>
        <path d="M -630.1427 -3650.8223 L -613.8227 -3650.8223 C -611.70195 -3650.8223 -609.9827 -3649.103 -609.9827 -3646.9823 L -609.9827 -3630.6623 C -609.9827 -3628.5415 -611.70195 -3626.8223 -613.8227 -3626.8223 L -630.1427 -3626.8223 C -632.2635 -3626.8223 -633.9827 -3628.5415 -633.9827 -3630.6623 L -633.9827 -3646.9823 C -633.9827 -3649.103 -632.2635 -3650.8223 -630.1427 -3650.8223 Z" fill="#4288c4"/>
      </g>
      <g id="Graphic_11580">
        <path d="M -619.29725 -3637.2223 C -618.971 -3636.8604 -618.7827 -3636.3854 -618.7827 -3635.883 L -618.7827 -3634.4223 C -618.7827 -3633.3178 -619.67816 -3632.4223 -620.7827 -3632.4223 L -627.9827 -3632.4223 C -629.0873 -3632.4223 -629.9827 -3633.3178 -629.9827 -3634.4223 L -629.9827 -3635.883 C -629.9827 -3636.3853 -629.7944 -3636.8604 -629.4681 -3637.2223 L -629.5827 -3637.2223 C -629.80364 -3637.2223 -629.9827 -3637.4014 -629.9827 -3637.6223 C -629.9827 -3637.8432 -629.80364 -3638.0223 -629.5827 -3638.0223 L -628.25345 -3638.0223 L -626.61975 -3638.934 C -627.2139 -3639.515 -627.5827 -3640.3257 -627.5827 -3641.2223 C -627.5827 -3642.9896 -626.15004 -3644.4223 -624.3827 -3644.4223 C -622.6154 -3644.4223 -621.1827 -3642.9896 -621.1827 -3641.2223 C -621.1827 -3641.154 -621.18485 -3641.0866 -621.18905 -3641.0195 L -620.75915 -3641.4604 C -621.0263 -3641.8473 -621.1827 -3642.3166 -621.1827 -3642.8223 C -621.1827 -3644.148 -620.1082 -3645.2223 -618.7827 -3645.2223 C -617.45724 -3645.2223 -616.3827 -3644.148 -616.3827 -3642.8223 C -616.3827 -3642.317 -616.5388 -3641.8485 -616.8053 -3641.462 L -616.8022 -3641.4587 L -615.3499 -3639.9673 C -614.9862 -3639.594 -614.7827 -3639.0932 -614.7827 -3638.572 L -614.7827 -3638.0223 L -614.3827 -3638.0223 C -614.1618 -3638.0223 -613.9827 -3637.8432 -613.9827 -3637.6223 C -613.9827 -3637.4014 -614.1618 -3637.2223 -614.3827 -3637.2223 L -619.29725 -3637.2223 Z M -620.51165 -3638.0223 L -615.5827 -3638.0223 L -615.5827 -3638.572 C -615.5827 -3638.8847 -615.7048 -3639.185 -615.923 -3639.409 L -617.36255 -3640.8874 C -617.7602 -3640.595 -618.2513 -3640.4223 -618.7827 -3640.4223 C -619.3135 -3640.4223 -619.8041 -3640.5946 -620.2015 -3640.8864 L -621.6419 -3639.409 C -621.8098 -3639.237 -621.8326 -3639.213 -621.87694 -3639.157 C -621.9533 -3639.061 -621.9803 -3638.9894 -621.9826 -3638.8435 Z M -620.9883 -3637.372 L -622.851 -3638.412 C -623.3059 -3638.1636 -623.8278 -3638.0223 -624.3827 -3638.0223 C -624.9375 -3638.0223 -625.4592 -3638.1635 -625.9141 -3638.412 L -628.56756 -3636.931 C -628.9474 -3636.719 -629.1827 -3636.318 -629.1827 -3635.883 L -629.1827 -3634.4223 C -629.1827 -3633.7596 -628.6455 -3633.2223 -627.9827 -3633.2223 L -620.7827 -3633.2223 C -620.12 -3633.2223 -619.5827 -3633.7596 -619.5827 -3634.4223 L -619.5827 -3635.883 C -619.5827 -3636.318 -619.81804 -3636.719 -620.1978 -3636.931 L -620.7252 -3637.2253 C -620.8313 -3637.2383 -620.9246 -3637.293 -620.9883 -3637.372 Z M -624.3827 -3638.8223 C -623.05724 -3638.8223 -621.9827 -3639.897 -621.9827 -3641.2223 C -621.9827 -3642.548 -623.05724 -3643.6223 -624.3827 -3643.6223 C -625.7082 -3643.6223 -626.7827 -3642.548 -626.7827 -3641.2223 C -626.7827 -3639.897 -625.7082 -3638.8223 -624.3827 -3638.8223 Z M -618.7827 -3641.2223 C -617.8991 -3641.2223 -617.1827 -3641.9387 -617.1827 -3642.8223 C -617.1827 -3643.706 -617.8991 -3644.4223 -618.7827 -3644.4223 C -619.6664 -3644.4223 -620.3827 -3643.706 -620.3827 -3642.8223 C -620.3827 -3641.9387 -619.6664 -3641.2223 -618.7827 -3641.2223 Z" fill="white"/>
      </g>
    </g>
  </g>
</svg>
