<svg height="24.75" viewBox="-742.358 -3651.197 24.75 24.75" width="24.75" xmlns="http://www.w3.org/2000/svg"><g fill="none"><path d="m-738.1427-3650.8223h16.32c2.12075 0 3.84 1.7193 3.84 3.84v16.32c0 2.1208-1.71925 3.84-3.84 3.84h-16.32c-2.1208 0-3.84-1.7192-3.84-3.84v-16.32c0-2.1207 1.7192-3.84 3.84-3.84z" fill="#4288c4"/><path d="m-727.3161-3637.0445v-3.5555h-5.3333v3.5555zm0 .8888h-5.3333v3.5557h5.3333zm-9.7777-.8888h3.5555v-3.5555h-3.5555zm0 .8888v2.2223c0 .7364.5969 1.3334 1.3333 1.3334h2.2222v-3.5557zm14.2222-.8888v-3.5555h-3.5556v3.5555zm0 .8888h-3.5556v3.5557h2.22225c.73635 0 1.33335-.597 1.33335-1.3334zm-4.4445-5.3333v-3.5555h-5.3333v3.5555zm-9.7777 0h3.5555v-3.5555h-2.2222c-.7364 0-1.3333.5969-1.3333 1.3335zm14.2222 0v-2.222c0-.7366-.597-1.3335-1.33335-1.3335h-2.22225v3.5555zm-12.8889-4.4444h11.55555c1.22729 0 2.22225.9949 2.22225 2.2224v9.7776c0 1.2274-.99496 2.2222-2.22225 2.2222h-11.55555c-1.2273 0-2.2222-.9948-2.2222-2.2222v-9.7776c0-1.2275.9949-2.2224 2.2222-2.2224z" fill="#fff"/></g></svg>