<svg height="24.75" viewBox="-778.358 -3651.197 24.75 24.75" width="24.75" xmlns="http://www.w3.org/2000/svg"><g fill="none"><path d="M-774.143-3650.822h16.32a3.84 3.84 0 0 1 3.84 3.84v16.32a3.84 3.84 0 0 1-3.84 3.84h-16.32a3.84 3.84 0 0 1-3.84-3.84v-16.32a3.84 3.84 0 0 1 3.84-3.84z" fill="#4288c4"/><path d="M-762.346-3643.861v7.475l1.09 1.1 1.091-1.1v-7.475zm0-.728h2.181v-1.443h-2.181zm2.909 1.455v6.898a.364.364 0 0 1-.106.257l-1.454 1.465a.364.364 0 0 1-.517 0l-1.454-1.465a.364.364 0 0 1-.106-.257v-1.807h-.363c-.603 0-1.091-.488-1.091-1.091v-2.182c0-.602.488-1.09 1.09-1.09h.364v-.728h-7.272v5.455c0 .2-.163.363-.364.363h-.364a2.182 2.182 0 0 0 0 4.364h12.364v-10.182zm0-.727h1.09c.201 0 .364.162.364.363v10.91c0 .2-.163.363-.363.363h-12.728a2.91 2.91 0 0 1-2.909-2.909v-8.364a3.273 3.273 0 0 1 3.273-3.272c.2 0 .364.162.364.363v2.546h7.272v-2.535c0-.201.163-.364.364-.364h2.91c.2 0 .363.163.363.364zm-3.637 2.181h-.363c-.201 0-.364.163-.364.364v2.182c0 .201.163.364.364.364h.363zm-10.182 4.622a2.903 2.903 0 0 1 2.182-.985v-7.974a2.546 2.546 0 0 0-2.182 2.52zm4.728-5.349h2.182c.602 0 1.09.489 1.09 1.091v2.182c0 .602-.488 1.091-1.09 1.091h-2.182c-.603 0-1.091-.489-1.091-1.091v-2.182c0-.602.488-1.09 1.09-1.09zm0 .727c-.201 0-.364.163-.364.364v2.182c0 .201.163.364.364.364h2.182c.2 0 .363-.163.363-.364v-2.182c0-.2-.163-.364-.363-.364zm-.728 5.819a.364.364 0 1 1 0-.728h5.091a.364.364 0 1 1 0 .728zm0 1.454a.364.364 0 0 1 0-.727h5.819a.364.364 0 0 1 0 .727z" fill="#fff"/></g></svg>