<svg height="25" viewBox="-562.483 -3651.322 25 25" width="25" xmlns="http://www.w3.org/2000/svg"><g fill="none"><path d="m-558.1427-3650.8223h16.32c2.12074 0 3.84 1.7193 3.84 3.84v16.32c0 2.1208-1.71926 3.84-3.84 3.84h-16.32c-2.1208 0-3.84-1.7192-3.84-3.84v-16.32c0-2.1207 1.7192-3.84 3.84-3.84z" fill="#666"/><path d="m-558.1427-3650.8223h16.32c2.12074 0 3.84 1.7193 3.84 3.84v16.32c0 2.1208-1.71926 3.84-3.84 3.84h-16.32c-2.1208 0-3.84-1.7192-3.84-3.84v-16.32c0-2.1207 1.7192-3.84 3.84-3.84z" stroke="#fff" stroke-linecap="round" stroke-linejoin="round" stroke-width=".25"/><path d="m-549.9827-3637.6744 6.7411-3.5479-6.7411-3.548-6.74114 3.548zm-7.7863-3.9019 7.6-3.9999c.1166-.0614.25595-.0614.37257 0l7.59993 3.9999c.28494.15.28494.558 0 .708l-7.59993 3.9999c-.11662.0614-.25597.0614-.37257 0l-7.6-3.9999c-.2849-.15-.2849-.558 0-.708zm7.7863 6.3019 7.4136-3.9019c.1955-.1027.4374-.0277.5403.1677.1029.1956.0278.4374-.1677.5402l-7.59993 4c-.11662.0614-.25597.0614-.37257 0l-7.6-4c-.19546-.1028-.2705-.3446-.16764-.5402.10289-.1954.34477-.2704.54024-.1677zm0 2.4 7.4136-3.9019c.1955-.1027.4374-.0277.5403.1677.1029.1956.0278.4373-.1677.5402l-7.59993 4c-.11662.0614-.25597.0614-.37257 0l-7.6-4c-.19546-.1029-.2705-.3446-.16764-.5402.10289-.1954.34477-.2704.54024-.1677z" fill="#c0e0ff"/></g></svg>