<svg height="24.75" viewBox="-706.358 -3651.197 24.75 24.75" width="24.75" xmlns="http://www.w3.org/2000/svg"><g fill="none"><path d="M-702.143-3650.822h16.32a3.84 3.84 0 0 1 3.84 3.84v16.32a3.84 3.84 0 0 1-3.84 3.84h-16.32a3.84 3.84 0 0 1-3.84-3.84v-16.32a3.84 3.84 0 0 1 3.84-3.84z" fill="#4288c4"/><path d="M-701.983-3643.635c0-1.208.896-2.187 2-2.187h12c1.105 0 2 .979 2 2.187v9.625c0 1.208-.895 2.188-2 2.188h-12c-1.104 0-2-.98-2-2.188zm.8 0v9.625c0 .725.537 1.313 1.2 1.313h12c.663 0 1.2-.588 1.2-1.313v-9.625c0-.725-.537-1.312-1.2-1.312h-12c-.663 0-1.2.587-1.2 1.312zm10.4.438h1.6c.442 0 .8.391.8.875v1.75c0 .483-.358.875-.8.875h-1.6c-.442 0-.8-.392-.8-.875v-1.75c0-.484.358-.875.8-.875zm0 .875v1.75h1.6v-1.75zm-10.517 6.871a.376.376 0 0 1-.566 0 .467.467 0 0 1 0-.618l4-4.375a.376.376 0 0 1 .566 0l4.517 4.94 2.117-2.315a.376.376 0 0 1 .566 0l3.6 3.937c.156.171.156.448 0 .619s-.41.171-.566 0l-3.317-3.628-2.117 2.315a.376.376 0 0 1-.566 0l-4.517-4.94z" fill="#fff"/></g></svg>