<svg height="25" viewBox="-598.483 -3651.322 25 25" width="25" xmlns="http://www.w3.org/2000/svg"><g fill="none"><circle cx="-585.983" cy="-3638.822" fill="#666" r="12"/><circle cx="-585.983" cy="-3638.822" r="12" stroke="#fff" stroke-linecap="round" stroke-linejoin="round" stroke-width=".25"/><path d="M-589.225-3638.243a.4.4 0 0 1-.716-.358c.866-1.731 2.201-2.621 3.958-2.621 1.757 0 3.092.89 3.958 2.621a.4.4 0 1 1-.716.358c-.734-1.47-1.799-2.18-3.242-2.18s-2.508.71-3.242 2.18zm.042-.58h2a.4.4 0 0 1 0 .8h-2.4a.4.4 0 0 1-.4-.4v-2.4a.4.4 0 1 1 .8 0zm-2-7.2a.4.4 0 0 1 0 .8 1.2 1.2 0 0 0-1.2 1.2.4.4 0 0 1-.8 0 2 2 0 0 1 2-2zm1.6.8a.4.4 0 1 1 0-.8h1.6a.4.4 0 0 1 0 .8zm-3.6 3.6a.4.4 0 1 1 .8 0v1.6a.4.4 0 0 1-.8 0zm0 4a.4.4 0 1 1 .8 0v1.6a.4.4 0 0 1-.8 0zm0 4a.4.4 0 1 1 .8 0 1.2 1.2 0 0 0 1.2 1.2.4.4 0 0 1 0 .8 2 2 0 0 1-2-2zm3.6 2a.4.4 0 1 1 0-.8h1.6a.4.4 0 0 1 0 .8zm3.6-14.8a.4.4 0 1 1 .8 0v3.2a.4.4 0 0 1-.8 0zm0 9.6a.4.4 0 1 1 .8 0v5.6a.4.4 0 0 1-.8 0zm2.8-8.4a.4.4 0 1 1 0-.8h2.4a2 2 0 0 1 2 2v10.4a2 2 0 0 1-2 2h-2.4a.4.4 0 1 1 0-.8h2.4a1.2 1.2 0 0 0 1.2-1.2v-10.4a1.2 1.2 0 0 0-1.2-1.2z" fill="#c0e0ff"/></g></svg>