<svg height="25" viewBox="-598.483 -3651.322 25 25" width="25" xmlns="http://www.w3.org/2000/svg"><g fill="none"><circle cx="-585.983" cy="-3638.822" fill="#666" r="12"/><circle cx="-585.983" cy="-3638.822" r="12" stroke="#fff" stroke-linecap="round" stroke-linejoin="round" stroke-width=".25"/><path d="m-589.22496-3638.2434c-.09879.1974-.33904.2776-.53664.1788-.1976-.0987-.2777-.339-.1789-.5364.8655-1.7312 2.20064-2.6213 3.9578-2.6213 1.7571 0 3.0922.8901 3.95774 2.6213.0988.1974.01871.4377-.17888.5364-.19756.0988-.43786.0186-.53666-.1788-.7345-1.469-1.79936-2.1789-3.2422-2.1789-1.4429 0-2.5078.7099-3.24226 2.1789zm.04226-.5789h2c.2209 0 .4.1791.4.4s-.1791.4-.4.4h-2.4c-.22094 0-.4-.1791-.4-.4v-2.4c0-.2209.17906-.4.4-.4.2209 0 .4.1791.4.4zm-2-7.2c.2209 0 .4.1791.4.4s-.1791.4-.4.4c-.6628 0-1.2.5373-1.2 1.2 0 .2209-.1791.4-.4.4-.22094 0-.4-.1791-.4-.4 0-1.1047.8954-2 2-2zm1.6.8c-.22094 0-.4-.1791-.4-.4s.17906-.4.4-.4h1.6c.2209 0 .4.1791.4.4s-.1791.4-.4.4zm-3.6 3.6c0-.2209.17906-.4.4-.4.2209 0 .4.1791.4.4v1.6c0 .2209-.1791.4-.4.4-.22094 0-.4-.1791-.4-.4zm0 4c0-.2209.17906-.4.4-.4.2209 0 .4.1791.4.4v1.6c0 .2209-.1791.4-.4.4-.22094 0-.4-.1791-.4-.4zm0 4c0-.2209.17906-.4.4-.4.2209 0 .4.1791.4.4 0 .6627.5372 1.2 1.2 1.2.2209 0 .4.1791.4.4s-.1791.4-.4.4c-1.1046 0-2-.8955-2-2zm3.6 2c-.22094 0-.4-.1791-.4-.4s.17906-.4.4-.4h1.6c.2209 0 .4.1791.4.4s-.1791.4-.4.4zm3.6-14.8c0-.2209.17906-.4.4-.4.2209 0 .4.1791.4.4v3.2c0 .2209-.1791.4-.4.4-.22094 0-.4-.1791-.4-.4zm0 9.6c0-.2209.17906-.4.4-.4.2209 0 .4.1791.4.4v5.6c0 .2209-.1791.4-.4.4-.22094 0-.4-.1791-.4-.4zm2.8-8.4c-.22094 0-.4-.1791-.4-.4s.17906-.4.4-.4h2.4c1.10454 0 2 .8953 2 2v10.4c0 1.1045-.89546 2-2 2h-2.4c-.22094 0-.4-.1791-.4-.4s.17906-.4.4-.4h2.4c.6627 0 1.2-.5373 1.2-1.2v-10.4c0-.6627-.5373-1.2-1.2-1.2z" fill="#c0e0ff"/></g></svg>