<svg height="24.75" viewBox="-778.358 -3651.197 24.75 24.75" width="24.75" xmlns="http://www.w3.org/2000/svg"><g fill="none"><path d="m-774.1427-3650.8223h16.32c2.12075 0 3.84 1.7193 3.84 3.84v16.32c0 2.1208-1.71925 3.84-3.84 3.84h-16.32c-2.1208 0-3.84-1.7192-3.84-3.84v-16.32c0-2.1207 1.7192-3.84 3.84-3.84z" fill="#4288c4"/><path d="m-762.3464-3643.8613v7.4758l1.0909 1.099 1.09095-1.099v-7.4758zm0-.7273h2.18185v-1.4438h-2.18185zm2.9091 1.4546v6.8984c0 .0959-.0379.188-.1055.2562l-1.4546 1.4654c-.1422.143-.3739.143-.5161 0l-1.4546-1.4654c-.0676-.0682-.10555-.1603-.10555-.2562v-1.8074h-.36365c-.6025 0-1.0909-.4885-1.0909-1.091v-2.182c0-.6023.4884-1.0908 1.0909-1.0908h.36365v-.7272h-7.27275v5.4545c0 .2009-.1628.3635-.3636.3635h-.3637c-1.205 0-2.1818.977-2.1818 2.182s.9768 2.182 2.1818 2.182h12.3637v-10.182zm0-.7273h1.0909c.2009 0 .3637.1628.3637.3636v10.9091c0 .2009-.1628.3636-.3637.3636h-12.7273c-1.6066 0-2.9091-1.3024-2.9091-2.909v-8.3637c0-1.8073 1.4653-3.2727 3.2728-3.2727.2008 0 .3636.1628.3636.3636v2.5455h7.27275v-2.5347c0-.201.16285-.3637.36365-.3637h2.9091c.2008 0 .3636.1627.3636.3637zm-3.63635 2.1818h-.36365c-.2008 0-.3636.1628-.3636.3635v2.182c0 .201.1628.3636.3636.3636h.36365zm-10.18185 4.6212c.5331-.6037 1.313-.9847 2.1818-.9847v-7.9744c-1.2335.1764-2.1818 1.2374-2.1818 2.5197zm4.7273-5.3485h2.1818c.6025 0 1.0909.4885 1.0909 1.0908v2.182c0 .6025-.4884 1.091-1.0909 1.091h-2.1818c-.6025 0-1.0909-.4885-1.0909-1.091v-2.182c0-.6023.4884-1.0908 1.0909-1.0908zm0 .7273c-.2008 0-.36365.1628-.36365.3635v2.182c0 .201.16285.3636.36365.3636h2.1818c.20085 0 .36365-.1626.36365-.3636v-2.182c0-.2007-.1628-.3635-.36365-.3635zm-.7273 5.8182c-.2008 0-.3636-.1627-.3636-.3637 0-.2008.1628-.3636.3636-.3636h5.0909c.2009 0 .3637.1628.3637.3636 0 .201-.1628.3637-.3637.3637zm0 1.4546c-.2008 0-.3636-.1628-.3636-.3637 0-.2006.1628-.3636.3636-.3636h5.8182c.20085 0 .36365.163.36365.3636 0 .2009-.1628.3637-.36365.3637z" fill="#fff"/></g></svg>