<svg height="24.75" viewBox="-814.358 -3651.197 24.75 24.75" width="24.75" xmlns="http://www.w3.org/2000/svg"><g fill="none"><path d="m-810.1427-3650.8223h16.32c2.12075 0 3.84 1.7193 3.84 3.84v16.32c0 2.1208-1.71925 3.84-3.84 3.84h-16.32c-2.1208 0-3.84-1.7192-3.84-3.84v-16.32c0-2.1207 1.7192-3.84 3.84-3.84z" fill="#4288c4"/><path d="m-795.50015-3643.8223h-2.48255c-.2455 0-.4445-.2237-.4445-.5 0-.2762.199-.5.4445-.5h3.5555c.2455 0 .4445.2238.4445.5v4c0 .2763-.199.5-.4445.5-.2454 0-.4444-.2237-.4444-.5v-2.7927l-4.5746 5.1462c-.1736.1953-.455.1953-.6286 0l-2.3524-2.6462-3.2413 3.6462c-.1735.1953-.4549.1953-.6285 0-.1736-.1952-.1736-.5118 0-.7072l3.5556-4c.1735-.195.4549-.195.6285 0l2.3524 2.6466zm1.07295 10c.2455 0 .4445.2238.4445.5 0 .2763-.199.5-.4445.5h-13.3333c-1.2273 0-2.2222-1.1193-2.2222-2.5v-9c0-.2762.199-.5.4444-.5.2455 0 .4445.2238.4445.5v9c0 .8283.5969 1.5 1.3333 1.5z" fill="#fff"/></g></svg>