<svg height="24.75" viewBox="-814.358 -3651.197 24.75 24.75" width="24.75" xmlns="http://www.w3.org/2000/svg"><g fill="none"><path d="M-810.143-3650.822h16.32a3.84 3.84 0 0 1 3.84 3.84v16.32a3.84 3.84 0 0 1-3.84 3.84h-16.32a3.84 3.84 0 0 1-3.84-3.84v-16.32a3.84 3.84 0 0 1 3.84-3.84z" fill="#4288c4"/><path d="M-795.5-3643.822h-2.483c-.245 0-.444-.224-.444-.5s.199-.5.444-.5h3.556c.245 0 .444.224.444.5v4c0 .276-.199.5-.444.5-.246 0-.445-.224-.445-.5v-2.793l-4.574 5.146a.41.41 0 0 1-.629 0l-2.352-2.646-3.241 3.646a.41.41 0 0 1-.629 0 .545.545 0 0 1 0-.707l3.556-4a.41.41 0 0 1 .628 0l2.353 2.647zm1.073 10c.245 0 .444.224.444.5s-.199.5-.444.5h-13.333c-1.228 0-2.223-1.12-2.223-2.5v-9c0-.276.2-.5.445-.5s.444.224.444.5v9c0 .828.597 1.5 1.333 1.5z" fill="#fff"/></g></svg>