<svg height="25" viewBox="-562.483 -3651.322 25 25" width="25" xmlns="http://www.w3.org/2000/svg"><g fill="none"><path d="M-558.143-3650.822h16.32a3.84 3.84 0 0 1 3.84 3.84v16.32a3.84 3.84 0 0 1-3.84 3.84h-16.32a3.84 3.84 0 0 1-3.84-3.84v-16.32a3.84 3.84 0 0 1 3.84-3.84z" fill="#666"/><path d="M-558.143-3650.822h16.32a3.84 3.84 0 0 1 3.84 3.84v16.32a3.84 3.84 0 0 1-3.84 3.84h-16.32a3.84 3.84 0 0 1-3.84-3.84v-16.32a3.84 3.84 0 0 1 3.84-3.84z" stroke="#fff" stroke-linecap="round" stroke-linejoin="round" stroke-width=".25"/><path d="M-549.983-3637.674l6.741-3.548-6.74-3.548-6.742 3.548zm-7.786-3.902l7.6-4a.4.4 0 0 1 .373 0l7.6 4a.4.4 0 0 1 0 .708l-7.6 4a.4.4 0 0 1-.373 0l-7.6-4a.4.4 0 0 1 0-.708zm7.786 6.302l7.414-3.902a.4.4 0 0 1 .372.708l-7.6 4a.4.4 0 0 1-.372 0l-7.6-4a.4.4 0 1 1 .373-.708zm0 2.4l7.414-3.902a.4.4 0 0 1 .372.708l-7.6 4a.4.4 0 0 1-.372 0l-7.6-4a.4.4 0 1 1 .373-.708z" fill="#c0e0ff"/></g></svg>