<?xml version="1.0" encoding="UTF-8" standalone="no"?>
<!DOCTYPE svg PUBLIC "-//W3C//DTD SVG 1.1//EN" "http://www.w3.org/Graphics/SVG/1.1/DTD/svg11.dtd">
<svg xmlns="http://www.w3.org/2000/svg" xmlns:xl="http://www.w3.org/1999/xlink" version="1.1" xmlns:dc="http://purl.org/dc/elements/1.1/" viewBox="-742.3577 -3651.1973 24.75 24.75" width="24.75" height="24.75">
  <defs/>
  <g id="SOURCES" stroke-opacity="1" fill="none" stroke="none" fill-opacity="1" stroke-dasharray="none">
    <title>SOURCES</title>
    <g id="SOURCES_Dark">
      <title>Dark</title>
      <g id="Graphic_11590">
        <title>views/view.other</title>
        <path d="M -738.1427 -3650.8223 L -721.8227 -3650.8223 C -719.70195 -3650.8223 -717.9827 -3649.103 -717.9827 -3646.9823 L -717.9827 -3630.6623 C -717.9827 -3628.5415 -719.70195 -3626.8223 -721.8227 -3626.8223 L -738.1427 -3626.8223 C -740.2635 -3626.8223 -741.9827 -3628.5415 -741.9827 -3630.6623 L -741.9827 -3646.9823 C -741.9827 -3649.103 -740.2635 -3650.8223 -738.1427 -3650.8223 Z" fill="#4288c4"/>
      </g>
      <g id="Graphic_11589">
        <path d="M -727.3161 -3637.0445 L -727.3161 -3640.6 L -732.6494 -3640.6 L -732.6494 -3637.0445 Z M -727.3161 -3636.1557 L -732.6494 -3636.1557 L -732.6494 -3632.6 L -727.3161 -3632.6 Z M -737.0938 -3637.0445 L -733.5383 -3637.0445 L -733.5383 -3640.6 L -737.0938 -3640.6 Z M -737.0938 -3636.1557 L -737.0938 -3633.9334 C -737.0938 -3633.197 -736.4969 -3632.6 -735.7605 -3632.6 L -733.5383 -3632.6 L -733.5383 -3636.1557 Z M -722.8716 -3637.0445 L -722.8716 -3640.6 L -726.4272 -3640.6 L -726.4272 -3637.0445 Z M -722.8716 -3636.1557 L -726.4272 -3636.1557 L -726.4272 -3632.6 L -724.20495 -3632.6 C -723.4686 -3632.6 -722.8716 -3633.197 -722.8716 -3633.9334 Z M -727.3161 -3641.489 L -727.3161 -3645.0445 L -732.6494 -3645.0445 L -732.6494 -3641.489 Z M -737.0938 -3641.489 L -733.5383 -3641.489 L -733.5383 -3645.0445 L -735.7605 -3645.0445 C -736.4969 -3645.0445 -737.0938 -3644.4476 -737.0938 -3643.711 Z M -722.8716 -3641.489 L -722.8716 -3643.711 C -722.8716 -3644.4476 -723.4686 -3645.0445 -724.20495 -3645.0445 L -726.4272 -3645.0445 L -726.4272 -3641.489 Z M -735.7605 -3645.9334 L -724.20495 -3645.9334 C -722.97766 -3645.9334 -721.9827 -3644.9385 -721.9827 -3643.711 L -721.9827 -3633.9334 C -721.9827 -3632.706 -722.97766 -3631.7112 -724.20495 -3631.7112 L -735.7605 -3631.7112 C -736.9878 -3631.7112 -737.9827 -3632.706 -737.9827 -3633.9334 L -737.9827 -3643.711 C -737.9827 -3644.9385 -736.9878 -3645.9334 -735.7605 -3645.9334 Z" fill="white"/>
      </g>
    </g>
  </g>
</svg>
