<svg height="24.75" viewBox="-23.918 -3263.881 24.75 24.75" width="24.75" xmlns="http://www.w3.org/2000/svg"><g fill="none"><circle cx="-11.543" cy="-3251.506" fill="#666" r="8"/><circle cx="-11.543" cy="-3251.506" r="8"/><circle cx="-11.543" cy="-3251.506" fill="#666" r="8"/><circle cx="-11.543" cy="-3251.506" r="8"/><path d="m-11.162042-3251.8868h2.666667c.210394 0 .380952.1706.380952.3808 0 .2106-.170558.381-.380952.381h-2.666667v2.6668c0 .2102-.170558.3809-.380953.3809-.210394 0-.380952-.1707-.380952-.3809v-2.6668h-2.666667c-.210394 0-.380952-.1704-.380952-.381 0-.2102.170558-.3808.380952-.3808h2.666667v-2.6667c0-.2105.170558-.3809.380952-.3809.210395 0 .380953.1704.380953.3809zm-.380953 8.3808c-4.418278 0-8-3.5816-8-8 0-4.418 3.581722-8 8-8 4.4182785 0 8.0000005 3.582 8.0000005 8 0 4.4184-3.581722 8-8.0000005 8zm0-.7617c3.99749 0 7.2380957-3.2407 7.2380957-7.2383 0-3.9973-3.2406057-7.238-7.2380957-7.238-3.997489 0-7.238095 3.2407-7.238095 7.238 0 3.9976 3.240606 7.2383 7.238095 7.2383z" fill="#8cee61"/></g></svg>