<?xml version="1.0" encoding="UTF-8" standalone="no"?>
<!DOCTYPE svg PUBLIC "-//W3C//DTD SVG 1.1//EN" "http://www.w3.org/Graphics/SVG/1.1/DTD/svg11.dtd">
<svg xmlns="http://www.w3.org/2000/svg" xmlns:xl="http://www.w3.org/1999/xlink" version="1.1" xmlns:dc="http://purl.org/dc/elements/1.1/" viewBox="-94.48272 -3263.748 25 25" width="25" height="25">
  <defs/>
  <g id="SOURCES" stroke-opacity="1" fill="none" stroke="none" fill-opacity="1" stroke-dasharray="none">
    <title>SOURCES</title>
    <g id="SOURCES_Dark">
      <title>Dark</title>
      <g id="Graphic_10951">
        <path d="M -90.14272 -3263.248 L -73.82272 -3263.248 C -71.70195 -3263.248 -69.98272 -3261.529 -69.98272 -3259.408 L -69.98272 -3243.088 C -69.98272 -3240.9673 -71.70195 -3239.248 -73.82272 -3239.248 L -90.14272 -3239.248 C -92.2635 -3239.248 -93.98272 -3240.9673 -93.98272 -3243.088 L -93.98272 -3259.408 C -93.98272 -3261.529 -92.2635 -3263.248 -90.14272 -3263.248 Z" fill="#666"/>
        <path d="M -90.14272 -3263.248 L -73.82272 -3263.248 C -71.70195 -3263.248 -69.98272 -3261.529 -69.98272 -3259.408 L -69.98272 -3243.088 C -69.98272 -3240.9673 -71.70195 -3239.248 -73.82272 -3239.248 L -90.14272 -3239.248 C -92.2635 -3239.248 -93.98272 -3240.9673 -93.98272 -3243.088 L -93.98272 -3259.408 C -93.98272 -3261.529 -92.2635 -3263.248 -90.14272 -3263.248 Z" stroke="white" stroke-linecap="round" stroke-linejoin="round" stroke-width=".25"/>
      </g>
      <g id="Graphic_10950">
        <path d="M -89.53831 -3256.137 C -89.7872 -3256.137 -89.98275 -3256.3325 -89.98275 -3256.5814 C -89.98275 -3256.8303 -89.7872 -3257.026 -89.53831 -3257.026 L -74.42714 -3257.026 C -74.17825 -3257.026 -73.98269 -3256.8303 -73.98269 -3256.5814 C -73.98269 -3256.3325 -74.17825 -3256.137 -74.42714 -3256.137 Z M -83.31606 -3252.5814 C -83.56495 -3252.5814 -83.76051 -3252.777 -83.76051 -3253.026 C -83.76051 -3253.2747 -83.56495 -3253.4703 -83.31606 -3253.4703 L -74.42714 -3253.4703 C -74.17825 -3253.4703 -73.98269 -3253.2747 -73.98269 -3253.026 C -73.98269 -3252.777 -74.17825 -3252.5814 -74.42714 -3252.5814 Z M -83.31606 -3249.026 C -83.56495 -3249.026 -83.76051 -3249.2214 -83.76051 -3249.4703 C -83.76051 -3249.719 -83.56495 -3249.9147 -83.31606 -3249.9147 L -74.42714 -3249.9147 C -74.17825 -3249.9147 -73.98269 -3249.719 -73.98269 -3249.4703 C -73.98269 -3249.2214 -74.17825 -3249.026 -74.42714 -3249.026 Z M -89.53831 -3245.4703 C -89.7872 -3245.4703 -89.98275 -3245.666 -89.98275 -3245.9147 C -89.98275 -3246.1636 -89.7872 -3246.359 -89.53831 -3246.359 L -74.42714 -3246.359 C -74.17825 -3246.359 -73.98269 -3246.1636 -73.98269 -3245.9147 C -73.98269 -3245.666 -74.17825 -3245.4703 -74.42714 -3245.4703 Z M -89.98275 -3253.9147 C -89.98275 -3254.279 -89.56497 -3254.4925 -89.27164 -3254.2703 L -85.71607 -3251.6036 C -85.47607 -3251.426 -85.47607 -3251.0703 -85.71607 -3250.8925 L -89.27164 -3248.226 C -89.56497 -3248.0036 -89.98275 -3248.217 -89.98275 -3248.5814 Z M -89.09386 -3253.026 L -89.09386 -3249.4703 L -86.72052 -3251.248 Z" fill="#c0e0ff"/>
      </g>
    </g>
  </g>
</svg>
