<svg height="25" viewBox="-94.483 -3263.748 25 25" width="25" xmlns="http://www.w3.org/2000/svg"><g fill="none"><path d="M-90.143-3263.248h16.32a3.84 3.84 0 0 1 3.84 3.84v16.32a3.84 3.84 0 0 1-3.84 3.84h-16.32a3.84 3.84 0 0 1-3.84-3.84v-16.32a3.84 3.84 0 0 1 3.84-3.84z" fill="#666"/><path d="M-90.143-3263.248h16.32a3.84 3.84 0 0 1 3.84 3.84v16.32a3.84 3.84 0 0 1-3.84 3.84h-16.32a3.84 3.84 0 0 1-3.84-3.84v-16.32a3.84 3.84 0 0 1 3.84-3.84z" stroke="#fff" stroke-linecap="round" stroke-linejoin="round" stroke-width=".25"/><path d="M-89.538-3256.137c-.25 0-.445-.196-.445-.444s.196-.445.445-.445h15.11c.25 0 .445.196.445.445s-.195.444-.444.444zm6.222 3.556a.44.44 0 0 1-.445-.445.44.44 0 0 1 .445-.444h8.889a.44.44 0 0 1 .444.444.44.44 0 0 1-.444.445zm0 3.555a.44.44 0 0 1-.445-.444.44.44 0 0 1 .445-.445h8.889a.44.44 0 0 1 .444.445.44.44 0 0 1-.444.444zm-6.222 3.556a.44.44 0 0 1-.445-.445.44.44 0 0 1 .445-.444h15.11a.44.44 0 0 1 .445.444.44.44 0 0 1-.444.445zm-.445-8.445c0-.364.418-.577.711-.355l3.556 2.666c.24.178.24.534 0 .712l-3.556 2.666a.444.444 0 0 1-.71-.355zm.89.889v3.556l2.372-1.778z" fill="#c0e0ff"/></g></svg>