<svg height="25" viewBox="-202.483 -3263.748 25 25" width="25" xmlns="http://www.w3.org/2000/svg"><g fill="none"><path d="M-198.143-3263.248h16.32a3.84 3.84 0 0 1 3.84 3.84v16.32a3.84 3.84 0 0 1-3.84 3.84h-16.32a3.84 3.84 0 0 1-3.84-3.84v-16.32a3.84 3.84 0 0 1 3.84-3.84z" fill="#666"/><path d="M-198.143-3263.248h16.32a3.84 3.84 0 0 1 3.84 3.84v16.32a3.84 3.84 0 0 1-3.84 3.84h-16.32a3.84 3.84 0 0 1-3.84-3.84v-16.32a3.84 3.84 0 0 1 3.84-3.84z" stroke="#fff" stroke-linecap="round" stroke-linejoin="round" stroke-width=".25"/><path d="M-185.538-3247.435l3.422 3.423a.44.44 0 0 1 0 .63.44.44 0 0 1-.631 0l-3.422-3.422a7.054 7.054 0 0 1-4.703 1.778c-3.928 0-7.11-3.182-7.11-7.111s3.182-7.111 7.11-7.111a7.109 7.109 0 0 1 5.334 11.813zm-5.334 1.52c3.44 0 6.223-2.782 6.223-6.222s-2.783-6.222-6.223-6.222-6.222 2.782-6.222 6.222 2.782 6.222 6.222 6.222z" fill="#c0e0ff"/></g></svg>