<svg height="25" viewBox="-778.483 -3263.748 25 25" width="25" xmlns="http://www.w3.org/2000/svg"><g fill="none"><path d="m-757.8228-3239.248h-16.32c-2.1207 0-3.84-1.7193-3.84-3.84v-16.32c0-2.121 1.7193-3.84 3.84-3.84h16.32c2.1208 0 3.84 1.719 3.84 3.84v16.32c0 2.1207-1.7192 3.84-3.84 3.84z" fill="#666"/><path d="m-757.8228-3239.248h-16.32c-2.1207 0-3.84-1.7193-3.84-3.84v-16.32c0-2.121 1.7193-3.84 3.84-3.84h16.32c2.1208 0 3.84 1.719 3.84 3.84v16.32c0 2.1207-1.7192 3.84-3.84 3.84z" stroke="#fff" stroke-linecap="round" stroke-linejoin="round" stroke-width=".25"/><path d="m-768.0158-3256.0465c-.1761 1.2245-1.14455 2.2011-2.3692 2.3692v4.8583c1.3607.1922 2.4012 1.361 2.4012 2.7695 0 1.5448-1.2566 2.8015-2.8014 2.8015-1.5447 0-2.8014-1.2567-2.8014-2.8015 0-1.4085 1.0406-2.5773 2.4012-2.7695v-4.8583c-1.3606-.1921-2.4012-1.3607-2.4012-2.7694 0-1.5447 1.2567-2.8013 2.8014-2.8013 1.4087 0 2.5773 1.0405 2.7694 2.401h3.6338c1.993 0 3.6018 1.609 3.6018 3.602v.432c1.3607.1923 2.4012 1.361 2.4012 2.7695 0 1.5448-1.2566 2.8015-2.8014 2.8015-1.5447 0-2.8014-1.2567-2.8014-2.8015 0-1.4085 1.0406-2.5772 2.4012-2.7695v-.432c0-1.545-1.2566-2.8015-2.8014-2.8015zm-4.7704-.4002c0 1.1047.8965 2.001 2.001 2.001 1.1046 0 2.001-.8963 2.001-2.001 0-1.1045-.8964-2.001-2.001-2.001-1.1045 0-2.001.8965-2.001 2.001zm0 10.4052c0 1.1045.8965 2.001 2.001 2.001 1.1046 0 2.001-.8965 2.001-2.001s-.8964-2.001-2.001-2.001c-1.1045 0-2.001.8965-2.001 2.001zm11.6058-6.003c-1.1045 0-2.001.8965-2.001 2.001s.8965 2.001 2.001 2.001c1.1046 0 2.001-.8965 2.001-2.001s-.8964-2.001-2.001-2.001z" fill="#c0e0ff"/></g></svg>