<svg height="25" viewBox="-778.483 -3263.748 25 25" width="25" xmlns="http://www.w3.org/2000/svg"><g fill="none"><path d="M-757.823-3239.248h-16.32a3.84 3.84 0 0 1-3.84-3.84v-16.32a3.84 3.84 0 0 1 3.84-3.84h16.32a3.84 3.84 0 0 1 3.84 3.84v16.32a3.84 3.84 0 0 1-3.84 3.84z" fill="#666"/><path d="M-757.823-3239.248h-16.32a3.84 3.84 0 0 1-3.84-3.84v-16.32a3.84 3.84 0 0 1 3.84-3.84h16.32a3.84 3.84 0 0 1 3.84 3.84v16.32a3.84 3.84 0 0 1-3.84 3.84z" stroke="#fff" stroke-linecap="round" stroke-linejoin="round" stroke-width=".25"/><path d="M-768.016-3256.046a2.793 2.793 0 0 1-2.369 2.369v4.858a2.796 2.796 0 0 1 2.401 2.77 2.805 2.805 0 0 1-2.801 2.801 2.805 2.805 0 0 1-2.802-2.801 2.796 2.796 0 0 1 2.402-2.77v-4.858a2.796 2.796 0 0 1-2.402-2.77 2.804 2.804 0 0 1 2.802-2.801 2.796 2.796 0 0 1 2.77 2.401h3.633a3.597 3.597 0 0 1 3.602 3.602v.432a2.796 2.796 0 0 1 2.401 2.77 2.805 2.805 0 0 1-2.801 2.801 2.805 2.805 0 0 1-2.802-2.802 2.796 2.796 0 0 1 2.401-2.769v-.432a2.804 2.804 0 0 0-2.801-2.802zm-4.77-.4a2.002 2.002 0 1 0 4.003-.002 2.002 2.002 0 0 0-4.003.001zm0 10.404a2.002 2.002 0 1 0 4.003-.001 2.002 2.002 0 0 0-4.003.002zm11.606-6.002a2.002 2.002 0 1 0 .001 4.003 2.002 2.002 0 0 0-.001-4.003z" fill="#c0e0ff"/></g></svg>