<?xml version="1.0" encoding="UTF-8" standalone="no"?>
<!DOCTYPE svg PUBLIC "-//W3C//DTD SVG 1.1//EN" "http://www.w3.org/Graphics/SVG/1.1/DTD/svg11.dtd">
<svg xmlns="http://www.w3.org/2000/svg" xmlns:xl="http://www.w3.org/1999/xlink" version="1.1" xmlns:dc="http://purl.org/dc/elements/1.1/" viewBox="-814.4828 -3263.748 25 25" width="25" height="25">
  <defs/>
  <g id="SOURCES" stroke-opacity="1" fill="none" stroke="none" fill-opacity="1" stroke-dasharray="none">
    <title>SOURCES</title>
    <g id="SOURCES_Dark">
      <title>Dark</title>
      <g id="Graphic_11470">
        <title>views/view.other</title>
        <path d="M -793.8228 -3239.248 L -810.1428 -3239.248 C -812.2635 -3239.248 -813.9828 -3240.9673 -813.9828 -3243.088 L -813.9828 -3259.408 C -813.9828 -3261.529 -812.2635 -3263.248 -810.1428 -3263.248 L -793.8228 -3263.248 C -791.702 -3263.248 -789.9828 -3261.529 -789.9828 -3259.408 L -789.9828 -3243.088 C -789.9828 -3240.9673 -791.702 -3239.248 -793.8228 -3239.248 Z" fill="#666"/>
        <path d="M -793.8228 -3239.248 L -810.1428 -3239.248 C -812.2635 -3239.248 -813.9828 -3240.9673 -813.9828 -3243.088 L -813.9828 -3259.408 C -813.9828 -3261.529 -812.2635 -3263.248 -810.1428 -3263.248 L -793.8228 -3263.248 C -791.702 -3263.248 -789.9828 -3261.529 -789.9828 -3259.408 L -789.9828 -3243.088 C -789.9828 -3240.9673 -791.702 -3239.248 -793.8228 -3239.248 Z" stroke="white" stroke-linecap="round" stroke-linejoin="round" stroke-width=".25"/>
      </g>
      <g id="Graphic_11469">
        <path d="M -809.9828 -3256.137 C -809.9828 -3256.626 -809.5828 -3257.026 -809.0939 -3257.026 L -808.205 -3257.026 C -807.7161 -3257.026 -807.3161 -3256.626 -807.3161 -3256.137 L -807.3161 -3255.248 C -807.3161 -3254.759 -807.7161 -3254.359 -808.205 -3254.359 L -809.0939 -3254.359 C -809.5828 -3254.359 -809.9828 -3254.759 -809.9828 -3255.248 Z M -805.0939 -3255.248 C -805.3428 -3255.248 -805.5383 -3255.4436 -805.5383 -3255.6925 C -805.5383 -3255.9414 -805.3428 -3256.137 -805.0939 -3256.137 L -794.4272 -3256.137 C -794.1783 -3256.137 -793.9828 -3255.9414 -793.9828 -3255.6925 C -793.9828 -3255.4436 -794.1783 -3255.248 -794.4272 -3255.248 Z M -809.9828 -3251.6925 C -809.9828 -3252.1814 -809.5828 -3252.5814 -809.0939 -3252.5814 L -808.205 -3252.5814 C -807.7161 -3252.5814 -807.3161 -3252.1814 -807.3161 -3251.6925 L -807.3161 -3250.8036 C -807.3161 -3250.3147 -807.7161 -3249.9147 -808.205 -3249.9147 L -809.0939 -3249.9147 C -809.5828 -3249.9147 -809.9828 -3250.3147 -809.9828 -3250.8036 Z M -805.0939 -3250.8036 C -805.3428 -3250.8036 -805.5383 -3250.999 -805.5383 -3251.248 C -805.5383 -3251.497 -805.3428 -3251.6925 -805.0939 -3251.6925 L -794.4272 -3251.6925 C -794.1783 -3251.6925 -793.9828 -3251.497 -793.9828 -3251.248 C -793.9828 -3250.999 -794.1783 -3250.8036 -794.4272 -3250.8036 Z M -809.9828 -3247.248 C -809.9828 -3247.737 -809.5828 -3248.137 -809.0939 -3248.137 L -808.205 -3248.137 C -807.7161 -3248.137 -807.3161 -3247.737 -807.3161 -3247.248 L -807.3161 -3246.359 C -807.3161 -3245.8703 -807.7161 -3245.4703 -808.205 -3245.4703 L -809.0939 -3245.4703 C -809.5828 -3245.4703 -809.9828 -3245.8703 -809.9828 -3246.359 Z M -809.0939 -3256.137 L -809.0939 -3255.248 L -808.205 -3255.248 L -808.205 -3256.137 Z M -809.0939 -3251.6925 L -809.0939 -3250.8036 L -808.205 -3250.8036 L -808.205 -3251.6925 Z M -809.0939 -3247.248 L -809.0939 -3246.359 L -808.205 -3246.359 L -808.205 -3247.248 Z M -805.0939 -3246.359 C -805.3428 -3246.359 -805.5383 -3246.5547 -805.5383 -3246.8036 C -805.5383 -3247.0525 -805.3428 -3247.248 -805.0939 -3247.248 L -794.4272 -3247.248 C -794.1783 -3247.248 -793.9828 -3247.0525 -793.9828 -3246.8036 C -793.9828 -3246.5547 -794.1783 -3246.359 -794.4272 -3246.359 Z" fill="#c0e0ff"/>
      </g>
    </g>
  </g>
</svg>
