<svg height="24.75" viewBox="-850.872 -3263.76 24.75 24.75" width="24.75" xmlns="http://www.w3.org/2000/svg"><g fill="none"><circle cx="-838.497" cy="-3251.385" fill="#666" r="8"/><circle cx="-838.497" cy="-3251.385" r="8"/><circle cx="-838.497" cy="-3251.385" fill="#666" r="8"/><circle cx="-838.497" cy="-3251.385" r="8"/><path d="m-835.303-3251.769-2.6496-2.6496c-.1644-.1644-.1644-.431 0-.5954.1644-.1645.431-.1645.5955 0l3.3684 3.3684c.1644.1644.1644.431 0 .5956l-3.3684 3.3683c-.1645.1644-.4311.1644-.5955 0-.1644-.1643-.1644-.4311 0-.5955l2.6496-2.6498h-7.4045c-.2325 0-.4211-.1884-.4211-.421 0-.2324.1886-.421.4211-.421zm-3.194-7.579c4.4183 0 8 3.582 8 8 0 4.4184-3.5817 8-8 8s-8-3.5816-8-8c0-4.418 3.5817-8 8-8zm0 .8422c-3.9532 0-7.1579 3.2048-7.1579 7.1578 0 3.9533 3.2047 7.158 7.1579 7.158s7.1579-3.2047 7.1579-7.158c0-3.953-3.2047-7.1578-7.1579-7.1578z" fill="#c0e0ff"/></g></svg>