<svg height="25" viewBox="-202.483 -3263.748 25 25" width="25" xmlns="http://www.w3.org/2000/svg"><g fill="none"><path d="m-198.14272-3263.248h16.32c2.12077 0 3.84 1.719 3.84 3.84v16.32c0 2.1207-1.71923 3.84-3.84 3.84h-16.32c-2.12078 0-3.84-1.7193-3.84-3.84v-16.32c0-2.121 1.71922-3.84 3.84-3.84z" fill="#666"/><path d="m-198.14272-3263.248h16.32c2.12077 0 3.84 1.719 3.84 3.84v16.32c0 2.1207-1.71923 3.84-3.84 3.84h-16.32c-2.12078 0-3.84-1.7193-3.84-3.84v-16.32c0-2.121 1.71922-3.84 3.84-3.84z" stroke="#fff" stroke-linecap="round" stroke-linejoin="round" stroke-width=".25"/><path d="m-185.53824-3247.4347 3.42222 3.4222c.17778.1778.17778.4535 0 .6311-.17778.1778-.45333.1778-.63111 0l-3.42222-3.4222c-1.25334 1.1111-2.89778 1.7776-4.70223 1.7776-3.92888 0-7.11111-3.182-7.11111-7.111s3.18223-7.111 7.11111-7.111c3.92889 0 7.11112 3.182 7.11112 7.111 0 1.8045-.67556 3.449-1.77778 4.7023zm-5.33334 1.52c3.44 0 6.22223-2.7823 6.22223-6.2223s-2.78223-6.222-6.22223-6.222-6.22222 2.782-6.22222 6.222 2.78222 6.2223 6.22222 6.2223z" fill="#c0e0ff"/></g></svg>