<svg height="25" viewBox="-741.774 -3261.805 25 25" width="25" xmlns="http://www.w3.org/2000/svg"><g fill="none"><path d="m-721.1141-3237.3047h-16.32c-2.1208 0-3.84-1.7193-3.84-3.84v-16.32c0-2.1207 1.7192-3.84 3.84-3.84h16.32c2.1208 0 3.84 1.7193 3.84 3.84v16.32c0 2.1207-1.7192 3.84-3.84 3.84z" fill="#666"/><path d="m-721.1141-3237.3047h-16.32c-2.1208 0-3.84-1.7193-3.84-3.84v-16.32c0-2.1207 1.7192-3.84 3.84-3.84h16.32c2.1208 0 3.84 1.7193 3.84 3.84v16.32c0 2.1207-1.7192 3.84-3.84 3.84z" stroke="#fff" stroke-linecap="round" stroke-linejoin="round" stroke-width=".25"/><path d="m-727.6994-3247.9643c-.0195.0519-.0501.1007-.0919.1423-.0418.042-.0905.0726-.1425.092l-3.9918 1.5967c-.3265.1306-.6505-.1934-.5199-.5199l1.5967-3.9918c.0194-.052.05005-.1007.0918-.1425.0418-.0418.0906-.0725.1425-.0918l3.9918-1.5967c.32655-.1307.6506.1934.52.52zm-2.0629-2.3943 1.5421 1.5421 1.0281-2.5701zm.9764 2.1078-1.5421-1.5422-1.0281 2.5703zm-.4882 6.9461c-4.4183 0-8-3.5817-8-8s3.5817-8 8-8 8 3.5817 8 8-3.5817 8-8 8zm0-.8c3.9764 0 7.2-3.2235 7.2-7.2 0-3.9763-3.2236-7.2-7.2-7.2-3.9765 0-7.2 3.2237-7.2 7.2 0 3.9765 3.2235 7.2 7.2 7.2z" fill="#c0dfff"/></g></svg>