<svg height="24.75" viewBox="-850.872 -3263.76 24.75 24.75" width="24.75" xmlns="http://www.w3.org/2000/svg"><g fill="none"><circle cx="-838.497" cy="-3251.385" fill="#666" r="8"/><circle cx="-838.497" cy="-3251.385" r="8"/><circle cx="-838.497" cy="-3251.385" fill="#666" r="8"/><circle cx="-838.497" cy="-3251.385" r="8"/><path d="M-835.303-3251.769l-2.65-2.65a.421.421 0 1 1 .596-.595l3.368 3.368a.421.421 0 0 1 0 .596l-3.368 3.368a.421.421 0 0 1-.596-.595l2.65-2.65h-7.404a.421.421 0 1 1 0-.842zm-3.194-7.579a8 8 0 1 1 0 16 8 8 0 0 1 0-16zm0 .842a7.158 7.158 0 1 0 0 14.316 7.158 7.158 0 0 0 0-14.316z" fill="#c0e0ff"/></g></svg>