<svg height="24.75" viewBox="-884.284 -3263.76 24.75 24.75" width="24.75" xmlns="http://www.w3.org/2000/svg"><g fill="none"><circle cx="-871.909" cy="-3251.385" fill="#666" r="8"/><circle cx="-871.909" cy="-3251.385" r="8"/><circle cx="-871.909" cy="-3251.385" fill="#666" r="8"/><circle cx="-871.909" cy="-3251.385" r="8"/><path d="M-875.103-3251l2.65 2.649a.421.421 0 0 1-.595.596l-3.369-3.369a.421.421 0 0 1 0-.595l3.369-3.369a.421.421 0 0 1 .595.596l-2.65 2.65h7.405a.421.421 0 1 1 0 .841zm3.194 7.578a8 8 0 1 1 0-16 8 8 0 0 1 0 16zm0-.842a7.158 7.158 0 1 0 0-14.316 7.158 7.158 0 0 0 0 14.316z" fill="#c0e0ff"/></g></svg>