<svg height="25" viewBox="-94.483 -3263.748 25 25" width="25" xmlns="http://www.w3.org/2000/svg"><g fill="none"><path d="m-90.14272-3263.248h16.32c2.12077 0 3.84 1.719 3.84 3.84v16.32c0 2.1207-1.71923 3.84-3.84 3.84h-16.32c-2.12078 0-3.84-1.7193-3.84-3.84v-16.32c0-2.121 1.71922-3.84 3.84-3.84z" fill="#666"/><path d="m-90.14272-3263.248h16.32c2.12077 0 3.84 1.719 3.84 3.84v16.32c0 2.1207-1.71923 3.84-3.84 3.84h-16.32c-2.12078 0-3.84-1.7193-3.84-3.84v-16.32c0-2.121 1.71922-3.84 3.84-3.84z" stroke="#fff" stroke-linecap="round" stroke-linejoin="round" stroke-width=".25"/><path d="m-89.53831-3256.137c-.24889 0-.44444-.1955-.44444-.4444s.19555-.4446.44444-.4446h15.11117c.24889 0 .44445.1957.44445.4446s-.19556.4444-.44445.4444zm6.22225 3.5556c-.24889 0-.44445-.1956-.44445-.4446 0-.2487.19556-.4443.44445-.4443h8.88892c.24889 0 .44445.1956.44445.4443 0 .249-.19556.4446-.44445.4446zm0 3.5554c-.24889 0-.44445-.1954-.44445-.4443 0-.2487.19556-.4444.44445-.4444h8.88892c.24889 0 .44445.1957.44445.4444 0 .2489-.19556.4443-.44445.4443zm-6.22225 3.5557c-.24889 0-.44444-.1957-.44444-.4444 0-.2489.19555-.4443.44444-.4443h15.11117c.24889 0 .44445.1954.44445.4443 0 .2487-.19556.4444-.44445.4444zm-.44444-8.4444c0-.3643.41778-.5778.71111-.3556l3.55557 2.6667c.24.1776.24.5333 0 .7111l-3.55557 2.6665c-.29333.2224-.71111.009-.71111-.3554zm.88889.8887v3.5557l2.37334-1.7777z" fill="#c0e0ff"/></g></svg>