<svg height="25" viewBox="-814.483 -3263.748 25 25" width="25" xmlns="http://www.w3.org/2000/svg"><g fill="none"><path d="M-793.823-3239.248h-16.32a3.84 3.84 0 0 1-3.84-3.84v-16.32a3.84 3.84 0 0 1 3.84-3.84h16.32a3.84 3.84 0 0 1 3.84 3.84v16.32a3.84 3.84 0 0 1-3.84 3.84z" fill="#666"/><path d="M-793.823-3239.248h-16.32a3.84 3.84 0 0 1-3.84-3.84v-16.32a3.84 3.84 0 0 1 3.84-3.84h16.32a3.84 3.84 0 0 1 3.84 3.84v16.32a3.84 3.84 0 0 1-3.84 3.84z" stroke="#fff" stroke-linecap="round" stroke-linejoin="round" stroke-width=".25"/><path d="M-809.983-3256.137c0-.489.4-.889.89-.889h.888c.489 0 .889.4.889.889v.889c0 .489-.4.889-.889.889h-.889a.892.892 0 0 1-.889-.889zm4.89.889c-.25 0-.445-.196-.445-.445s.195-.444.444-.444h10.667c.249 0 .444.196.444.445s-.195.444-.444.444zm-4.89 3.555c0-.488.4-.888.89-.888h.888c.489 0 .889.4.889.889v.888c0 .49-.4.89-.889.89h-.889a.892.892 0 0 1-.889-.89zm4.89.89c-.25 0-.445-.196-.445-.445s.195-.445.444-.445h10.667c.249 0 .444.196.444.445s-.195.444-.444.444zm-4.89 3.555c0-.489.4-.889.89-.889h.888c.489 0 .889.4.889.889v.889c0 .489-.4.889-.889.889h-.889a.891.891 0 0 1-.889-.889zm.89-8.889v.889h.888v-.889zm0 4.444v.89h.888v-.89zm0 4.445v.889h.888v-.889zm4 .889c-.25 0-.445-.196-.445-.445s.195-.444.444-.444h10.667c.249 0 .444.196.444.444s-.195.445-.444.445z" fill="#c0e0ff"/></g></svg>