<?xml version="1.0" encoding="UTF-8" standalone="no"?>
<!DOCTYPE svg PUBLIC "-//W3C//DTD SVG 1.1//EN" "http://www.w3.org/Graphics/SVG/1.1/DTD/svg11.dtd">
<svg xmlns="http://www.w3.org/2000/svg" xmlns:xl="http://www.w3.org/1999/xlink" version="1.1" xmlns:dc="http://purl.org/dc/elements/1.1/" viewBox="-778.4828 -3263.748 25 25" width="25" height="25">
  <defs/>
  <g id="SOURCES" stroke-opacity="1" fill="none" stroke="none" fill-opacity="1" stroke-dasharray="none">
    <title>SOURCES</title>
    <g id="SOURCES_Dark">
      <title>Dark</title>
      <g id="Graphic_11466">
        <title>views/view.other</title>
        <path d="M -757.8228 -3239.248 L -774.1428 -3239.248 C -776.2635 -3239.248 -777.9828 -3240.9673 -777.9828 -3243.088 L -777.9828 -3259.408 C -777.9828 -3261.529 -776.2635 -3263.248 -774.1428 -3263.248 L -757.8228 -3263.248 C -755.702 -3263.248 -753.9828 -3261.529 -753.9828 -3259.408 L -753.9828 -3243.088 C -753.9828 -3240.9673 -755.702 -3239.248 -757.8228 -3239.248 Z" fill="#666"/>
        <path d="M -757.8228 -3239.248 L -774.1428 -3239.248 C -776.2635 -3239.248 -777.9828 -3240.9673 -777.9828 -3243.088 L -777.9828 -3259.408 C -777.9828 -3261.529 -776.2635 -3263.248 -774.1428 -3263.248 L -757.8228 -3263.248 C -755.702 -3263.248 -753.9828 -3261.529 -753.9828 -3259.408 L -753.9828 -3243.088 C -753.9828 -3240.9673 -755.702 -3239.248 -757.8228 -3239.248 Z" stroke="white" stroke-linecap="round" stroke-linejoin="round" stroke-width=".25"/>
      </g>
      <g id="Graphic_11465">
        <path d="M -768.0158 -3256.0465 C -768.1919 -3254.822 -769.16035 -3253.8454 -770.385 -3253.6773 L -770.385 -3248.819 C -769.0243 -3248.6268 -767.9838 -3247.458 -767.9838 -3246.0495 C -767.9838 -3244.5047 -769.2404 -3243.248 -770.7852 -3243.248 C -772.3299 -3243.248 -773.5866 -3244.5047 -773.5866 -3246.0495 C -773.5866 -3247.458 -772.546 -3248.6268 -771.1854 -3248.819 L -771.1854 -3253.6773 C -772.546 -3253.8694 -773.5866 -3255.038 -773.5866 -3256.4467 C -773.5866 -3257.9914 -772.3299 -3259.248 -770.7852 -3259.248 C -769.3765 -3259.248 -768.2079 -3258.2075 -768.0158 -3256.847 L -764.382 -3256.847 C -762.389 -3256.847 -760.7802 -3255.238 -760.7802 -3253.245 L -760.7802 -3252.813 C -759.4195 -3252.6207 -758.379 -3251.452 -758.379 -3250.0435 C -758.379 -3248.4987 -759.6356 -3247.242 -761.1804 -3247.242 C -762.7251 -3247.242 -763.9818 -3248.4987 -763.9818 -3250.0435 C -763.9818 -3251.452 -762.9412 -3252.6207 -761.5806 -3252.813 L -761.5806 -3253.245 C -761.5806 -3254.79 -762.8372 -3256.0465 -764.382 -3256.0465 L -768.0158 -3256.0465 Z M -772.7862 -3256.4467 C -772.7862 -3255.342 -771.8897 -3254.4457 -770.7852 -3254.4457 C -769.6806 -3254.4457 -768.7842 -3255.342 -768.7842 -3256.4467 C -768.7842 -3257.5512 -769.6806 -3258.4477 -770.7852 -3258.4477 C -771.8897 -3258.4477 -772.7862 -3257.5512 -772.7862 -3256.4467 Z M -772.7862 -3246.0415 C -772.7862 -3244.937 -771.8897 -3244.0405 -770.7852 -3244.0405 C -769.6806 -3244.0405 -768.7842 -3244.937 -768.7842 -3246.0415 C -768.7842 -3247.146 -769.6806 -3248.0425 -770.7852 -3248.0425 C -771.8897 -3248.0425 -772.7862 -3247.146 -772.7862 -3246.0415 Z M -761.1804 -3252.0445 C -762.2849 -3252.0445 -763.1814 -3251.148 -763.1814 -3250.0435 C -763.1814 -3248.939 -762.2849 -3248.0425 -761.1804 -3248.0425 C -760.0758 -3248.0425 -759.1794 -3248.939 -759.1794 -3250.0435 C -759.1794 -3251.148 -760.0758 -3252.0445 -761.1804 -3252.0445 Z" fill="#c0e0ff"/>
      </g>
    </g>
  </g>
</svg>
