<svg height="24.75" viewBox="-884.284 -3263.76 24.75 24.75" width="24.75" xmlns="http://www.w3.org/2000/svg"><g fill="none"><circle cx="-871.909" cy="-3251.385" fill="#666" r="8"/><circle cx="-871.909" cy="-3251.385" r="8"/><circle cx="-871.909" cy="-3251.385" fill="#666" r="8"/><circle cx="-871.909" cy="-3251.385" r="8"/><path d="m-875.1026-3251.0006 2.6496 2.6496c.1644.1644.1644.431 0 .5955s-.431.1645-.5954 0l-3.3685-3.3685c-.1644-.1644-.1644-.431 0-.5954l3.3685-3.3686c.1644-.1643.431-.1643.5954 0 .1644.1646.1644.431 0 .5956l-2.6496 2.6497h7.4045c.2326 0 .4211.1885.4211.421 0 .2327-.1885.4211-.4211.4211zm3.194 7.5789c-4.4183 0-8-3.5817-8-8s3.5817-8 8-8 8 3.5817 8 8-3.5817 8-8 8zm0-.8421c3.9532 0 7.1579-3.2047 7.1579-7.1579 0-3.9533-3.2047-7.1579-7.1579-7.1579s-7.1579 3.2046-7.1579 7.1579c0 3.9532 3.2047 7.1579 7.1579 7.1579z" fill="#c0e0ff"/></g></svg>