<svg height="25" viewBox="-814.483 -3263.748 25 25" width="25" xmlns="http://www.w3.org/2000/svg"><g fill="none"><path d="m-793.8228-3239.248h-16.32c-2.1207 0-3.84-1.7193-3.84-3.84v-16.32c0-2.121 1.7193-3.84 3.84-3.84h16.32c2.1208 0 3.84 1.719 3.84 3.84v16.32c0 2.1207-1.7192 3.84-3.84 3.84z" fill="#666"/><path d="m-793.8228-3239.248h-16.32c-2.1207 0-3.84-1.7193-3.84-3.84v-16.32c0-2.121 1.7193-3.84 3.84-3.84h16.32c2.1208 0 3.84 1.719 3.84 3.84v16.32c0 2.1207-1.7192 3.84-3.84 3.84z" stroke="#fff" stroke-linecap="round" stroke-linejoin="round" stroke-width=".25"/><path d="m-809.9828-3256.137c0-.489.4-.889.8889-.889h.8889c.4889 0 .8889.4.8889.889v.889c0 .489-.4.889-.8889.889h-.8889c-.4889 0-.8889-.4-.8889-.889zm4.8889.889c-.2489 0-.4444-.1956-.4444-.4445s.1955-.4445.4444-.4445h10.6667c.2489 0 .4444.1956.4444.4445s-.1955.4445-.4444.4445zm-4.8889 3.5555c0-.4889.4-.8889.8889-.8889h.8889c.4889 0 .8889.4.8889.8889v.8889c0 .4889-.4.8889-.8889.8889h-.8889c-.4889 0-.8889-.4-.8889-.8889zm4.8889.8889c-.2489 0-.4444-.1954-.4444-.4444s.1955-.4445.4444-.4445h10.6667c.2489 0 .4444.1955.4444.4445s-.1955.4444-.4444.4444zm-4.8889 3.5556c0-.489.4-.889.8889-.889h.8889c.4889 0 .8889.4.8889.889v.889c0 .4887-.4.8887-.8889.8887h-.8889c-.4889 0-.8889-.4-.8889-.8887zm.8889-8.889v.889h.8889v-.889zm0 4.4445v.8889h.8889v-.8889zm0 4.4445v.889h.8889v-.889zm4 .889c-.2489 0-.4444-.1957-.4444-.4446s.1955-.4444.4444-.4444h10.6667c.2489 0 .4444.1955.4444.4444s-.1955.4446-.4444.4446z" fill="#c0e0ff"/></g></svg>