<?xml version="1.0" encoding="UTF-8" standalone="no"?>
<!DOCTYPE svg PUBLIC "-//W3C//DTD SVG 1.1//EN" "http://www.w3.org/Graphics/SVG/1.1/DTD/svg11.dtd">
<svg xmlns="http://www.w3.org/2000/svg" xmlns:xl="http://www.w3.org/1999/xlink" version="1.1" xmlns:dc="http://purl.org/dc/elements/1.1/" viewBox="-202.48272 -3263.748 25 25" width="25" height="25">
  <defs/>
  <g id="SOURCES" stroke-opacity="1" fill="none" stroke="none" fill-opacity="1" stroke-dasharray="none">
    <title>SOURCES</title>
    <g id="SOURCES_Dark">
      <title>Dark</title>
      <g id="Graphic_11396">
        <path d="M -198.14272 -3263.248 L -181.82272 -3263.248 C -179.70195 -3263.248 -177.98272 -3261.529 -177.98272 -3259.408 L -177.98272 -3243.088 C -177.98272 -3240.9673 -179.70195 -3239.248 -181.82272 -3239.248 L -198.14272 -3239.248 C -200.2635 -3239.248 -201.98272 -3240.9673 -201.98272 -3243.088 L -201.98272 -3259.408 C -201.98272 -3261.529 -200.2635 -3263.248 -198.14272 -3263.248 Z" fill="#666"/>
        <path d="M -198.14272 -3263.248 L -181.82272 -3263.248 C -179.70195 -3263.248 -177.98272 -3261.529 -177.98272 -3259.408 L -177.98272 -3243.088 C -177.98272 -3240.9673 -179.70195 -3239.248 -181.82272 -3239.248 L -198.14272 -3239.248 C -200.2635 -3239.248 -201.98272 -3240.9673 -201.98272 -3243.088 L -201.98272 -3259.408 C -201.98272 -3261.529 -200.2635 -3263.248 -198.14272 -3263.248 Z" stroke="white" stroke-linecap="round" stroke-linejoin="round" stroke-width=".25"/>
      </g>
      <g id="Graphic_11395">
        <path d="M -185.53824 -3247.4347 L -182.11602 -3244.0125 C -181.93824 -3243.8347 -181.93824 -3243.559 -182.11602 -3243.3814 C -182.2938 -3243.2036 -182.56935 -3243.2036 -182.74713 -3243.3814 L -186.16935 -3246.8036 C -187.42269 -3245.6925 -189.06713 -3245.026 -190.87158 -3245.026 C -194.80046 -3245.026 -197.98269 -3248.208 -197.98269 -3252.137 C -197.98269 -3256.066 -194.80046 -3259.248 -190.87158 -3259.248 C -186.94269 -3259.248 -183.76046 -3256.066 -183.76046 -3252.137 C -183.76046 -3250.3325 -184.43602 -3248.688 -185.53824 -3247.4347 Z M -190.87158 -3245.9147 C -187.43158 -3245.9147 -184.64935 -3248.697 -184.64935 -3252.137 C -184.64935 -3255.577 -187.43158 -3258.359 -190.87158 -3258.359 C -194.31158 -3258.359 -197.0938 -3255.577 -197.0938 -3252.137 C -197.0938 -3248.697 -194.31158 -3245.9147 -190.87158 -3245.9147 Z" fill="#c0e0ff"/>
      </g>
    </g>
  </g>
</svg>
