<svg height="25" viewBox="-58.483 -3263.748 25 25" width="25" xmlns="http://www.w3.org/2000/svg"><g fill="none"><path d="m-54.14272-3263.248h16.319997c2.120773 0 3.84 1.719 3.84 3.84v16.32c0 2.1207-1.719227 3.84-3.84 3.84h-16.319997c-2.120776 0-3.84-1.7193-3.84-3.84v-16.32c0-2.121 1.719224-3.84 3.84-3.84z" fill="#666"/><path d="m-54.14272-3263.248h16.319997c2.120773 0 3.84 1.719 3.84 3.84v16.32c0 2.1207-1.719227 3.84-3.84 3.84h-16.319997c-2.120776 0-3.84-1.7193-3.84-3.84v-16.32c0-2.121 1.719224-3.84 3.84-3.84z" stroke="#fff" stroke-linecap="round" stroke-linejoin="round" stroke-width=".25"/><path d="m-44.225276-3255.2028s-.028034.0351-.042054.0491c-.413515.4137-.413515 1.0864 0 1.4997.378475.3787.97422.4067 1.387736.0843l.497624-.4976c-.770966-.1052-1.387736-.7219-1.49287-1.4929l-.357445.3574zm-1.037294 1.0373-6.714396 6.7215c-.413514.4135-.413514 1.0863 0 1.5.413516.4133 1.07935.4133 1.492866 0l6.707385-6.7216c-.357445-.0561-.707885-.2174-.981225-.4976-.28035-.2804-.44856-.6378-.497624-1.0093zm3.03479.9392s-.028034.0421-.04906.0631c-.042053.0422-.084106.0842-.12616.1192l-7.58348 7.5904c-.686856.6869-1.79424.6869-2.4811 0-.68686-.6868-.68686-1.8014 0-2.4881l9.083355-9.0973s.028035-.028.042055-.035c.31539-.2945.73592-.4837 1.205505-.4837.967209 0 1.75219.785 1.75219 1.7522 0 .4625-.182228.8831-.476595 1.1985-.01402.014-.021027.028-.035044.049l-1.338676 1.3387zm-.9602 4.78h.35044c.196244 0 .350437.1543.350437.3503 0 .1964-.154193.3506-.350437.3506h-.35044v.3924c0 .1963-.15419.3505-.350437.3505-.196246 0-.350438-.1542-.350438-.3505v-.3924h-.350438c-.196247 0-.350437-.1542-.350437-.3506 0-.196.15419-.3503.350437-.3503h.350438v-.3504c0-.1963.154192-.3503.350438-.3503.196247 0 .350437.154.350437.3503zm-4.90613-8.4107v-.3503c0-.1962.15419-.3504.350436-.3504.196244 0 .350438.1542.350438.3504v.3503h.350436c.19625 0 .35044.1544.35044.3506 0 .1964-.15419.3504-.35044.3504h-.350436v.3505c0 .1962-.154194.3505-.350438.3505-.196246 0-.350436-.1543-.350436-.3505v-.3505h-.35044c-.196245 0-.35044-.154-.35044-.3504 0-.1962.154195-.3506.35044-.3506zm8.41051 5.607h.35044c.196245 0 .350437.1544.350437.3506 0 .1964-.154192.3504-.350437.3504h-.35044v.3505c0 .1962-.15419.3505-.350437.3505-.196243 0-.350438-.1543-.350438-.3505v-.3505h-.350438c-.196247 0-.350437-.154-.350437-.3504 0-.1962.15419-.3506.350437-.3506h.350438v-.3503c0-.1962.154195-.3504.350438-.3504.196247 0 .350437.1542.350437.3504zm-2.453065-3.5042c.581725 0 1.051315-.4696 1.051315-1.0513s-.46959-1.0515-1.051315-1.0515-1.051315.4698-1.051315 1.0515.46959 1.0513 1.051315 1.0513z" fill="#c0e0ff"/></g></svg>