<svg height="25" viewBox="-58.483 -3263.748 25 25" width="25" xmlns="http://www.w3.org/2000/svg"><g fill="none"><path d="M-54.143-3263.248h16.32a3.84 3.84 0 0 1 3.84 3.84v16.32a3.84 3.84 0 0 1-3.84 3.84h-16.32a3.84 3.84 0 0 1-3.84-3.84v-16.32a3.84 3.84 0 0 1 3.84-3.84z" fill="#666"/><path d="M-54.143-3263.248h16.32a3.84 3.84 0 0 1 3.84 3.84v16.32a3.84 3.84 0 0 1-3.84 3.84h-16.32a3.84 3.84 0 0 1-3.84-3.84v-16.32a3.84 3.84 0 0 1 3.84-3.84z" stroke="#fff" stroke-linecap="round" stroke-linejoin="round" stroke-width=".25"/><path d="M-44.225-3255.203s-.028.035-.042.05a1.062 1.062 0 0 0 0 1.499 1.05 1.05 0 0 0 1.387.084l.498-.497a1.754 1.754 0 0 1-1.493-1.493l-.357.357zm-1.038 1.037l-6.714 6.722a1.062 1.062 0 0 0 0 1.5c.414.413 1.08.413 1.493 0l6.707-6.722a1.74 1.74 0 0 1-.98-.497 1.75 1.75 0 0 1-.499-1.01zm3.035.94s-.028.042-.049.063a1.919 1.919 0 0 1-.126.119l-7.583 7.59a1.751 1.751 0 0 1-2.482 0 1.76 1.76 0 0 1 0-2.488l9.084-9.097s.028-.028.042-.035a1.762 1.762 0 0 1 1.205-.484c.968 0 1.753.785 1.753 1.752 0 .463-.183.884-.477 1.199-.014.014-.021.028-.035.049l-1.339 1.339zm-.96 4.78h.35c.197 0 .35.154.35.35 0 .196-.153.35-.35.35h-.35v.393c0 .196-.154.35-.35.35a.347.347 0 0 1-.35-.35v-.392h-.351a.347.347 0 0 1-.35-.351c0-.196.153-.35.35-.35h.35v-.35c0-.197.154-.351.35-.351.197 0 .351.154.351.35zm-4.906-8.411v-.35c0-.197.154-.35.35-.35.197 0 .35.153.35.35v.35h.351c.196 0 .35.154.35.35 0 .197-.154.351-.35.351h-.35v.35c0 .197-.154.351-.35.351a.347.347 0 0 1-.351-.35v-.351h-.35a.347.347 0 0 1-.351-.35c0-.197.154-.351.35-.351zm8.41 5.607h.35c.197 0 .351.154.351.35 0 .197-.154.351-.35.351h-.35v.35c0 .197-.155.351-.351.351a.347.347 0 0 1-.35-.35v-.351h-.35a.347.347 0 0 1-.351-.35c0-.197.154-.351.35-.351h.35v-.35c0-.197.155-.35.351-.35.196 0 .35.153.35.35zm-2.453-3.504a1.05 1.05 0 1 0-1.051-1.051c0 .581.47 1.05 1.051 1.05z" fill="#c0e0ff"/></g></svg>