<?xml version="1.0" encoding="UTF-8" standalone="no"?>
<!DOCTYPE svg PUBLIC "-//W3C//DTD SVG 1.1//EN" "http://www.w3.org/Graphics/SVG/1.1/DTD/svg11.dtd">
<svg xmlns="http://www.w3.org/2000/svg" xmlns:xl="http://www.w3.org/1999/xlink" version="1.1" xmlns:dc="http://purl.org/dc/elements/1.1/" viewBox="-58.48272 -3263.748 25 25" width="25" height="25">
  <defs/>
  <g id="SOURCES" stroke-opacity="1" fill="none" stroke="none" fill-opacity="1" stroke-dasharray="none">
    <title>SOURCES</title>
    <g id="SOURCES_Dark">
      <title>Dark</title>
      <g id="Graphic_10946">
        <path d="M -54.14272 -3263.248 L -37.822723 -3263.248 C -35.70195 -3263.248 -33.982723 -3261.529 -33.982723 -3259.408 L -33.982723 -3243.088 C -33.982723 -3240.9673 -35.70195 -3239.248 -37.822723 -3239.248 L -54.14272 -3239.248 C -56.263496 -3239.248 -57.98272 -3240.9673 -57.98272 -3243.088 L -57.98272 -3259.408 C -57.98272 -3261.529 -56.263496 -3263.248 -54.14272 -3263.248 Z" fill="#666"/>
        <path d="M -54.14272 -3263.248 L -37.822723 -3263.248 C -35.70195 -3263.248 -33.982723 -3261.529 -33.982723 -3259.408 L -33.982723 -3243.088 C -33.982723 -3240.9673 -35.70195 -3239.248 -37.822723 -3239.248 L -54.14272 -3239.248 C -56.263496 -3239.248 -57.98272 -3240.9673 -57.98272 -3243.088 L -57.98272 -3259.408 C -57.98272 -3261.529 -56.263496 -3263.248 -54.14272 -3263.248 Z" stroke="white" stroke-linecap="round" stroke-linejoin="round" stroke-width=".25"/>
      </g>
      <g id="Graphic_10945">
        <path d="M -44.225276 -3255.2028 C -44.225276 -3255.2028 -44.25331 -3255.1677 -44.26733 -3255.1537 C -44.680845 -3254.74 -44.680845 -3254.0673 -44.26733 -3253.654 C -43.888855 -3253.2753 -43.29311 -3253.2473 -42.879594 -3253.5697 L -42.38197 -3254.0673 C -43.152936 -3254.1725 -43.769706 -3254.7892 -43.87484 -3255.5602 L -44.232285 -3255.2028 Z M -45.26257 -3254.1655 L -51.976966 -3247.444 C -52.39048 -3247.0305 -52.39048 -3246.3577 -51.976966 -3245.944 C -51.56345 -3245.5307 -50.897616 -3245.5307 -50.4841 -3245.944 L -43.776715 -3252.6656 C -44.13416 -3252.7217 -44.4846 -3252.883 -44.75794 -3253.1632 C -45.03829 -3253.4436 -45.2065 -3253.801 -45.255564 -3254.1725 Z M -42.22778 -3253.2263 C -42.22778 -3253.2263 -42.255814 -3253.1842 -42.27684 -3253.1632 C -42.318893 -3253.121 -42.360946 -3253.079 -42.403 -3253.044 L -49.98648 -3245.4536 C -50.673336 -3244.7667 -51.78072 -3244.7667 -52.46758 -3245.4536 C -53.15444 -3246.1404 -53.15444 -3247.255 -52.46758 -3247.9417 L -43.384225 -3257.039 C -43.384225 -3257.039 -43.35619 -3257.067 -43.34217 -3257.074 C -43.02678 -3257.3685 -42.60625 -3257.5577 -42.136665 -3257.5577 C -41.169456 -3257.5577 -40.384475 -3256.7727 -40.384475 -3255.8055 C -40.384475 -3255.343 -40.566703 -3254.9224 -40.86107 -3254.607 C -40.87509 -3254.593 -40.882097 -3254.579 -40.896114 -3254.558 L -42.23479 -3253.2193 Z M -43.18798 -3248.4463 L -42.83754 -3248.4463 C -42.641296 -3248.4463 -42.487103 -3248.292 -42.487103 -3248.096 C -42.487103 -3247.8996 -42.641296 -3247.7454 -42.83754 -3247.7454 L -43.18798 -3247.7454 L -43.18798 -3247.353 C -43.18798 -3247.1567 -43.34217 -3247.0025 -43.538417 -3247.0025 C -43.734663 -3247.0025 -43.888855 -3247.1567 -43.888855 -3247.353 L -43.888855 -3247.7454 L -44.239293 -3247.7454 C -44.43554 -3247.7454 -44.58973 -3247.8996 -44.58973 -3248.096 C -44.58973 -3248.292 -44.43554 -3248.4463 -44.239293 -3248.4463 L -43.888855 -3248.4463 L -43.888855 -3248.7967 C -43.888855 -3248.993 -43.734663 -3249.147 -43.538417 -3249.147 C -43.34217 -3249.147 -43.18798 -3248.993 -43.18798 -3248.7967 Z M -48.09411 -3256.857 L -48.09411 -3257.2073 C -48.09411 -3257.4035 -47.93992 -3257.5577 -47.743674 -3257.5577 C -47.54743 -3257.5577 -47.393236 -3257.4035 -47.393236 -3257.2073 L -47.393236 -3256.857 L -47.0428 -3256.857 C -46.84655 -3256.857 -46.69236 -3256.7026 -46.69236 -3256.5064 C -46.69236 -3256.31 -46.84655 -3256.156 -47.0428 -3256.156 L -47.393236 -3256.156 L -47.393236 -3255.8055 C -47.393236 -3255.6093 -47.54743 -3255.455 -47.743674 -3255.455 C -47.93992 -3255.455 -48.09411 -3255.6093 -48.09411 -3255.8055 L -48.09411 -3256.156 L -48.44455 -3256.156 C -48.640795 -3256.156 -48.79499 -3256.31 -48.79499 -3256.5064 C -48.79499 -3256.7026 -48.640795 -3256.857 -48.44455 -3256.857 Z M -39.6836 -3251.25 L -39.33316 -3251.25 C -39.136915 -3251.25 -38.982723 -3251.0956 -38.982723 -3250.8994 C -38.982723 -3250.703 -39.136915 -3250.549 -39.33316 -3250.549 L -39.6836 -3250.549 L -39.6836 -3250.1985 C -39.6836 -3250.0023 -39.83779 -3249.848 -40.034037 -3249.848 C -40.23028 -3249.848 -40.384475 -3250.0023 -40.384475 -3250.1985 L -40.384475 -3250.549 L -40.734913 -3250.549 C -40.93116 -3250.549 -41.08535 -3250.703 -41.08535 -3250.8994 C -41.08535 -3251.0956 -40.93116 -3251.25 -40.734913 -3251.25 L -40.384475 -3251.25 L -40.384475 -3251.6003 C -40.384475 -3251.7965 -40.23028 -3251.9507 -40.034037 -3251.9507 C -39.83779 -3251.9507 -39.6836 -3251.7965 -39.6836 -3251.6003 Z M -42.136665 -3254.7542 C -41.55494 -3254.7542 -41.08535 -3255.2238 -41.08535 -3255.8055 C -41.08535 -3256.3872 -41.55494 -3256.857 -42.136665 -3256.857 C -42.71839 -3256.857 -43.18798 -3256.3872 -43.18798 -3255.8055 C -43.18798 -3255.2238 -42.71839 -3254.7542 -42.136665 -3254.7542 Z" fill="#c0e0ff"/>
      </g>
    </g>
  </g>
</svg>
