<svg height="24.587" viewBox="-706.483 -3263.542 25 24.587" width="25" xmlns="http://www.w3.org/2000/svg"><g fill="none"><path d="m-689.179-3263.0417h-12.9524c-2.127 0-3.8513 1.7243-3.8513 3.8513v12.6394c0 2.127 1.7243 3.8512 3.8513 3.8512h12.9524c2.127 0 3.8513-1.7242 3.8513-3.8512v-12.6394c0-2.127-1.7243-3.8513-3.8513-3.8513z" fill="#666"/><path d="m-689.179-3263.0417h-12.9524c-2.127 0-3.8513 1.7243-3.8513 3.8513v12.6394c0 2.127 1.7243 3.8512 3.8513 3.8512h12.9524c2.127 0 3.8513-1.7242 3.8513-3.8512v-12.6394c0-2.127-1.7243-3.8513-3.8513-3.8513z" stroke="#fff" stroke-linecap="round" stroke-linejoin="round" stroke-width=".25"/><path d="m-685.83405-3259.7964h-12.95235c-2.1271 0-3.8514 1.7244-3.8514 3.8514v12.6392c0 2.1271 1.7243 3.8514 3.8514 3.8514h12.95235c2.12705 0 3.85135-1.7243 3.85135-3.8514v-12.6392c0-2.127-1.7243-3.8514-3.85135-3.8514z" fill="#666"/><path d="m-685.83405-3259.7964h-12.95235c-2.1271 0-3.8514 1.7244-3.8514 3.8514v12.6392c0 2.1271 1.7243 3.8514 3.8514 3.8514h12.95235c2.12705 0 3.85135-1.7243 3.85135-3.8514v-12.6392c0-2.127-1.7243-3.8514-3.85135-3.8514z" stroke="#fff" stroke-linecap="round" stroke-linejoin="round" stroke-width=".25"/><path d="m-692.0712-3251.5657c-.2063 0-.3684-.1621-.3684-.3683 0-.2064.1621-.3685.3684-.3685h3.68425c.20635 0 .36845.1621.36845.3685 0 .2062-.1621.3683-.36845.3683zm-1.47365 2.2107c-.20635 0-.36845-.1622-.36845-.3686s.1621-.3684.36845-.3684h5.1579c.20635 0 .36845.162.36845.3684s-.1621.3686-.36845.3686zm0 2.2104c-.20635 0-.36845-.1621-.36845-.3684 0-.2064.1621-.3685.36845-.3685h3.68425c.2063 0 .3684.1621.3684.3685 0 .2063-.1621.3684-.3684.3684zm1.47365-8.1054c-.2063 0-.3684-.162-.3684-.3683s.1621-.3684.3684-.3684h5.1579c1.0169 0 1.8421.8252 1.8421 1.8421v9.5789c0 1.0167-.8252 1.8421-1.8421 1.8421h-8.1052c-1.0169 0-1.8421-.8254-1.8421-1.8421v-3.6843c0-.206.1621-.3683.3684-.3683s.3684.1623.3684.3683v3.6843c0 .6117.4937 1.1053 1.1053 1.1053h8.1052c.6116 0 1.1053-.4936 1.1053-1.1053v-9.5789c0-.6114-.4937-1.1054-1.1053-1.1054zm-4.0526 2.579c0 .2064-.1621.3685-.3684.3685s-.3684-.1621-.3684-.3685v-2.579c0-.8104.6631-1.4736 1.47365-1.4736s1.47365.6632 1.47365 1.4736v2.579c0 1.422-1.1568 2.579-2.5789 2.579s-2.579-1.157-2.579-2.579v-3.684c0-.2065.1621-.3686.36846-.3686.20634 0 .36844.1621.36844.3686v3.684c0 1.017.8252 1.842 1.8421 1.842 1.0168 0 1.8421-.825 1.8421-1.842v-2.579c0-.405-.3316-.7367-.73685-.7367s-.73685.3317-.73685.7367z" fill="#c0e0ff"/></g></svg>