<svg height="24.587" viewBox="-706.483 -3263.542 25 24.587" width="25" xmlns="http://www.w3.org/2000/svg"><g fill="none"><path d="M-689.179-3263.042h-12.952a3.851 3.851 0 0 0-3.852 3.852v12.639a3.851 3.851 0 0 0 3.852 3.851h12.952a3.851 3.851 0 0 0 3.851-3.851v-12.64a3.851 3.851 0 0 0-3.851-3.85z" fill="#666"/><path d="M-689.179-3263.042h-12.952a3.851 3.851 0 0 0-3.852 3.852v12.639a3.851 3.851 0 0 0 3.852 3.851h12.952a3.851 3.851 0 0 0 3.851-3.851v-12.64a3.851 3.851 0 0 0-3.851-3.85z" stroke="#fff" stroke-linecap="round" stroke-linejoin="round" stroke-width=".25"/><path d="M-685.834-3259.796h-12.952a3.851 3.851 0 0 0-3.852 3.851v12.64a3.851 3.851 0 0 0 3.852 3.85h12.952a3.851 3.851 0 0 0 3.851-3.85v-12.64a3.851 3.851 0 0 0-3.851-3.851z" fill="#666"/><path d="M-685.834-3259.796h-12.952a3.851 3.851 0 0 0-3.852 3.851v12.64a3.851 3.851 0 0 0 3.852 3.85h12.952a3.851 3.851 0 0 0 3.851-3.85v-12.64a3.851 3.851 0 0 0-3.851-3.851z" stroke="#fff" stroke-linecap="round" stroke-linejoin="round" stroke-width=".25"/><path d="M-692.071-3251.566a.365.365 0 0 1-.369-.368c0-.206.163-.368.369-.368h3.684c.206 0 .368.162.368.368a.365.365 0 0 1-.368.368zm-1.474 2.211c-.206 0-.368-.162-.368-.369s.162-.368.368-.368h5.158c.206 0 .368.162.368.368s-.162.369-.368.369zm0 2.21a.365.365 0 0 1-.368-.368c0-.206.162-.368.368-.368h3.684c.207 0 .369.162.369.368a.365.365 0 0 1-.369.368zm1.474-8.105c-.206 0-.369-.162-.369-.368s.163-.369.369-.369h5.158c1.017 0 1.842.826 1.842 1.842v9.58a1.843 1.843 0 0 1-1.842 1.841h-8.105a1.843 1.843 0 0 1-1.843-1.842v-3.684c0-.206.163-.368.369-.368s.368.162.368.368v3.684c0 .612.494 1.106 1.106 1.106h8.105c.611 0 1.105-.494 1.105-1.106v-9.579c0-.611-.494-1.105-1.105-1.105zm-4.053 2.579c0 .206-.162.368-.368.368s-.369-.162-.369-.368v-2.579c0-.81.664-1.474 1.474-1.474s1.474.664 1.474 1.474v2.579c0 1.422-1.157 2.579-2.58 2.579s-2.578-1.157-2.578-2.579v-3.684c0-.206.162-.369.368-.369.207 0 .369.163.369.369v3.684a1.843 1.843 0 0 0 3.684 0v-2.579c0-.405-.332-.737-.737-.737s-.737.332-.737.737z" fill="#c0e0ff"/></g></svg>