<?xml version="1.0" encoding="UTF-8" standalone="no"?>
<!DOCTYPE svg PUBLIC "-//W3C//DTD SVG 1.1//EN" "http://www.w3.org/Graphics/SVG/1.1/DTD/svg11.dtd">
<svg xmlns="http://www.w3.org/2000/svg" xmlns:xl="http://www.w3.org/1999/xlink" version="1.1" xmlns:dc="http://purl.org/dc/elements/1.1/" viewBox="-706.4827 -3263.5417 25 24.58723" width="25" height="24.58723">
  <defs/>
  <g id="SOURCES" stroke-opacity="1" fill="none" stroke="none" fill-opacity="1" stroke-dasharray="none">
    <title>SOURCES</title>
    <g id="SOURCES_Dark">
      <title>Dark</title>
      <g id="Graphic_11457">
        <path d="M -689.179 -3263.0417 L -702.1314 -3263.0417 C -704.2584 -3263.0417 -705.9827 -3261.3174 -705.9827 -3259.1904 L -705.9827 -3246.551 C -705.9827 -3244.424 -704.2584 -3242.6998 -702.1314 -3242.6998 L -689.179 -3242.6998 C -687.052 -3242.6998 -685.3277 -3244.424 -685.3277 -3246.551 L -685.3277 -3259.1904 C -685.3277 -3261.3174 -687.052 -3263.0417 -689.179 -3263.0417 Z" fill="#666"/>
        <path d="M -689.179 -3263.0417 L -702.1314 -3263.0417 C -704.2584 -3263.0417 -705.9827 -3261.3174 -705.9827 -3259.1904 L -705.9827 -3246.551 C -705.9827 -3244.424 -704.2584 -3242.6998 -702.1314 -3242.6998 L -689.179 -3242.6998 C -687.052 -3242.6998 -685.3277 -3244.424 -685.3277 -3246.551 L -685.3277 -3259.1904 C -685.3277 -3261.3174 -687.052 -3263.0417 -689.179 -3263.0417 Z" stroke="white" stroke-linecap="round" stroke-linejoin="round" stroke-width=".25"/>
      </g>
      <g id="Graphic_11456">
        <path d="M -685.83405 -3259.7964 L -698.7864 -3259.7964 C -700.9135 -3259.7964 -702.6378 -3258.072 -702.6378 -3255.945 L -702.6378 -3243.3058 C -702.6378 -3241.1787 -700.9135 -3239.4544 -698.7864 -3239.4544 L -685.83405 -3239.4544 C -683.707 -3239.4544 -681.9827 -3241.1787 -681.9827 -3243.3058 L -681.9827 -3255.945 C -681.9827 -3258.072 -683.707 -3259.7964 -685.83405 -3259.7964 Z" fill="#666"/>
        <path d="M -685.83405 -3259.7964 L -698.7864 -3259.7964 C -700.9135 -3259.7964 -702.6378 -3258.072 -702.6378 -3255.945 L -702.6378 -3243.3058 C -702.6378 -3241.1787 -700.9135 -3239.4544 -698.7864 -3239.4544 L -685.83405 -3239.4544 C -683.707 -3239.4544 -681.9827 -3241.1787 -681.9827 -3243.3058 L -681.9827 -3255.945 C -681.9827 -3258.072 -683.707 -3259.7964 -685.83405 -3259.7964 Z" stroke="white" stroke-linecap="round" stroke-linejoin="round" stroke-width=".25"/>
      </g>
      <g id="Graphic_11454">
        <path d="M -692.0712 -3251.5657 C -692.2775 -3251.5657 -692.4396 -3251.7278 -692.4396 -3251.934 C -692.4396 -3252.1404 -692.2775 -3252.3025 -692.0712 -3252.3025 L -688.38695 -3252.3025 C -688.1806 -3252.3025 -688.0185 -3252.1404 -688.0185 -3251.934 C -688.0185 -3251.7278 -688.1806 -3251.5657 -688.38695 -3251.5657 Z M -693.54485 -3249.355 C -693.7512 -3249.355 -693.9133 -3249.5172 -693.9133 -3249.7236 C -693.9133 -3249.93 -693.7512 -3250.092 -693.54485 -3250.092 L -688.38695 -3250.092 C -688.1806 -3250.092 -688.0185 -3249.93 -688.0185 -3249.7236 C -688.0185 -3249.5172 -688.1806 -3249.355 -688.38695 -3249.355 Z M -693.54485 -3247.1446 C -693.7512 -3247.1446 -693.9133 -3247.3067 -693.9133 -3247.513 C -693.9133 -3247.7194 -693.7512 -3247.8815 -693.54485 -3247.8815 L -689.8606 -3247.8815 C -689.6543 -3247.8815 -689.4922 -3247.7194 -689.4922 -3247.513 C -689.4922 -3247.3067 -689.6543 -3247.1446 -689.8606 -3247.1446 Z M -692.0712 -3255.25 C -692.2775 -3255.25 -692.4396 -3255.412 -692.4396 -3255.6183 C -692.4396 -3255.8246 -692.2775 -3255.9867 -692.0712 -3255.9867 L -686.9133 -3255.9867 C -685.8964 -3255.9867 -685.0712 -3255.1615 -685.0712 -3254.1446 L -685.0712 -3244.5657 C -685.0712 -3243.549 -685.8964 -3242.7236 -686.9133 -3242.7236 L -695.0185 -3242.7236 C -696.0354 -3242.7236 -696.8606 -3243.549 -696.8606 -3244.5657 L -696.8606 -3248.25 C -696.8606 -3248.456 -696.6985 -3248.6183 -696.4922 -3248.6183 C -696.2859 -3248.6183 -696.1238 -3248.456 -696.1238 -3248.25 L -696.1238 -3244.5657 C -696.1238 -3243.954 -695.6301 -3243.4604 -695.0185 -3243.4604 L -686.9133 -3243.4604 C -686.3017 -3243.4604 -685.808 -3243.954 -685.808 -3244.5657 L -685.808 -3254.1446 C -685.808 -3254.756 -686.3017 -3255.25 -686.9133 -3255.25 Z M -696.1238 -3252.671 C -696.1238 -3252.4646 -696.2859 -3252.3025 -696.4922 -3252.3025 C -696.6985 -3252.3025 -696.8606 -3252.4646 -696.8606 -3252.671 L -696.8606 -3255.25 C -696.8606 -3256.0604 -696.1975 -3256.7236 -695.38695 -3256.7236 C -694.5764 -3256.7236 -693.9133 -3256.0604 -693.9133 -3255.25 L -693.9133 -3252.671 C -693.9133 -3251.249 -695.0701 -3250.092 -696.4922 -3250.092 C -697.9143 -3250.092 -699.0712 -3251.249 -699.0712 -3252.671 L -699.0712 -3256.355 C -699.0712 -3256.5615 -698.9091 -3256.7236 -698.70274 -3256.7236 C -698.4964 -3256.7236 -698.3343 -3256.5615 -698.3343 -3256.355 L -698.3343 -3252.671 C -698.3343 -3251.654 -697.5091 -3250.829 -696.4922 -3250.829 C -695.4754 -3250.829 -694.6501 -3251.654 -694.6501 -3252.671 L -694.6501 -3255.25 C -694.6501 -3255.655 -694.9817 -3255.9867 -695.38695 -3255.9867 C -695.7922 -3255.9867 -696.1238 -3255.655 -696.1238 -3255.25 Z" fill="#c0e0ff"/>
      </g>
    </g>
  </g>
</svg>
