<svg height="24.75" viewBox="-671.512 -3263.829 24.75 24.75" width="24.75" xmlns="http://www.w3.org/2000/svg"><g fill="none"><circle cx="-659.137" cy="-3251.454" fill="#666" r="8"/><circle cx="-659.137" cy="-3251.454" r="8"/><circle cx="-659.137" cy="-3251.454" fill="#666" r="8"/><circle cx="-659.137" cy="-3251.454" r="8"/><path d="M-659.137-3243.38a8 8 0 1 1 0-16 8 8 0 0 1 0 16zm0-.8a7.2 7.2 0 1 0 0-14.4 7.2 7.2 0 0 0 0 14.4zm-4.4-8.8a.4.4 0 1 1 0-.8h8.8a.4.4 0 1 1 0 .8zm1.6 2.4a.4.4 0 1 1 0-.8h5.6a.4.4 0 1 1 0 .8zm1.6 2.4a.4.4 0 1 1 0-.8h2.4a.4.4 0 1 1 0 .8z" fill="#c0e0ff"/></g></svg>