<svg height="24.75" viewBox="-671.512 -3263.829 24.75 24.75" width="24.75" xmlns="http://www.w3.org/2000/svg"><g fill="none"><circle cx="-659.137" cy="-3251.454" fill="#666" r="8"/><circle cx="-659.137" cy="-3251.454" r="8"/><circle cx="-659.137" cy="-3251.454" fill="#666" r="8"/><circle cx="-659.137" cy="-3251.454" r="8"/><path d="m-659.1373-3243.3806c-4.4183 0-8-3.5818-8-8 0-4.4184 3.5817-8 8-8 4.41824 0 7.99996 3.5816 7.99996 8 0 4.4182-3.58172 8-7.99996 8zm0-.8c3.9764 0 7.19996-3.2236 7.19996-7.2s-3.22356-7.2-7.19996-7.2c-3.9765 0-7.2 3.2236-7.2 7.2s3.2235 7.2 7.2 7.2zm-4.4-8.8c-.22095 0-.4-.1791-.4-.4 0-.221.17905-.4.4-.4h8.8c.2209 0 .4.179.4.4 0 .2209-.1791.4-.4.4zm1.6 2.4c-.22095 0-.4-.1791-.4-.4 0-.221.17905-.4.4-.4h5.6c.2209 0 .4.179.4.4 0 .2209-.1791.4-.4.4zm1.6 2.4c-.22095 0-.4-.1791-.4-.4 0-.221.17905-.4.4-.4h2.4c.2209 0 .4.179.4.4 0 .2209-.1791.4-.4.4z" fill="#c0e0ff"/></g></svg>