<svg height="24.75" viewBox="13.787 -3263.623 24.75 24.75" width="24.75" xmlns="http://www.w3.org/2000/svg"><path d="m32.396737-3258.248c-.276142 0-.499997.2238-.499997.5v1c0 .276.223855.5.499997.5h.999999c.276142 0 .499999-.224.499999-.5v-1c0-.2762-.223857-.5-.499999-.5zm0-1h.999999c.828424 0 1.499998.6715 1.499998 1.5v1c0 .8284-.671574 1.5-1.499998 1.5h-.999999c-.828427 0-1.499997-.6716-1.499997-1.5v-1c0-.8285.67157-1.5 1.499997-1.5zm0 7c-.276142 0-.499997.2238-.499997.5v1c0 .276.223855.5.499997.5h.999999c.276142 0 .499999-.224.499999-.5v-1c0-.2762-.223857-.5-.499999-.5zm0-1h.999999c.828424 0 1.499998.6715 1.499998 1.5v1c0 .8284-.671574 1.5-1.499998 1.5h-.999999c-.828427 0-1.499997-.6716-1.499997-1.5v-1c0-.8285.67157-1.5 1.499997-1.5zm0 7c-.276142 0-.499997.2238-.499997.5v1c0 .276.223855.5.499997.5h.999999c.276142 0 .499999-.224.499999-.5v-1c0-.2762-.223857-.5-.499999-.5zm0-1h.999999c.828424 0 1.499998.6715 1.499998 1.5v1c0 .8284-.671574 1.5-1.499998 1.5h-.999999c-.828427 0-1.499997-.6716-1.499997-1.5v-1c0-.8285.67157-1.5 1.499997-1.5z" fill="#c0e0ff"/></svg>