<?xml version="1.0" encoding="UTF-8" standalone="no"?>
<!DOCTYPE svg PUBLIC "-//W3C//DTD SVG 1.1//EN" "http://www.w3.org/Graphics/SVG/1.1/DTD/svg11.dtd">
<svg xmlns="http://www.w3.org/2000/svg" xmlns:xl="http://www.w3.org/1999/xlink" version="1.1" xmlns:dc="http://purl.org/dc/elements/1.1/" viewBox="-238.48272 -3263.748 25 25" width="25" height="25">
  <defs/>
  <g id="SOURCES" stroke-opacity="1" fill="none" stroke="none" fill-opacity="1" stroke-dasharray="none">
    <title>SOURCES</title>
    <g id="SOURCES_Dark">
      <title>Dark</title>
      <g id="Graphic_11400">
        <path d="M -234.14272 -3263.248 L -217.82272 -3263.248 C -215.70195 -3263.248 -213.98272 -3261.529 -213.98272 -3259.408 L -213.98272 -3243.088 C -213.98272 -3240.9673 -215.70195 -3239.248 -217.82272 -3239.248 L -234.14272 -3239.248 C -236.2635 -3239.248 -237.98272 -3240.9673 -237.98272 -3243.088 L -237.98272 -3259.408 C -237.98272 -3261.529 -236.2635 -3263.248 -234.14272 -3263.248 Z" fill="#666"/>
        <path d="M -234.14272 -3263.248 L -217.82272 -3263.248 C -215.70195 -3263.248 -213.98272 -3261.529 -213.98272 -3259.408 L -213.98272 -3243.088 C -213.98272 -3240.9673 -215.70195 -3239.248 -217.82272 -3239.248 L -234.14272 -3239.248 C -236.2635 -3239.248 -237.98272 -3240.9673 -237.98272 -3243.088 L -237.98272 -3259.408 C -237.98272 -3261.529 -236.2635 -3263.248 -234.14272 -3263.248 Z" stroke="white" stroke-linecap="round" stroke-linejoin="round" stroke-width=".25"/>
      </g>
      <g id="Graphic_11399">
        <path d="M -221.18272 -3246.448 L -221.18272 -3257.248 C -221.18272 -3257.912 -221.71872 -3258.448 -222.38272 -3258.448 L -230.99872 -3258.448 C -230.86272 -3258.216 -230.78272 -3257.936 -230.78272 -3257.648 L -230.78272 -3244.848 C -230.78272 -3244.408 -230.42272 -3244.048 -229.98272 -3244.048 C -229.54272 -3244.048 -229.18272 -3244.408 -229.18272 -3244.848 L -229.18272 -3246.048 C -229.18272 -3246.272 -229.00672 -3246.448 -228.78272 -3246.448 Z M -220.38272 -3246.448 L -218.38272 -3246.448 C -218.15872 -3246.448 -217.98272 -3246.272 -217.98272 -3246.048 L -217.98272 -3245.248 C -217.98272 -3244.144 -218.87872 -3243.248 -219.98272 -3243.248 L -229.98272 -3243.248 C -230.86272 -3243.248 -231.58272 -3243.968 -231.58272 -3244.848 L -231.58272 -3256.048 L -232.38272 -3256.048 C -233.26272 -3256.048 -233.98272 -3256.768 -233.98272 -3257.648 C -233.98272 -3258.528 -233.26272 -3259.248 -232.38272 -3259.248 L -222.38272 -3259.248 C -221.27872 -3259.248 -220.38272 -3258.352 -220.38272 -3257.248 Z M -228.38272 -3245.648 L -228.38272 -3244.848 C -228.38272 -3244.56 -228.46272 -3244.28 -228.59872 -3244.048 L -219.98272 -3244.048 C -219.31872 -3244.048 -218.78272 -3244.584 -218.78272 -3245.248 L -218.78272 -3245.648 Z M -231.58272 -3256.848 L -231.58272 -3257.648 C -231.58272 -3258.088 -231.94272 -3258.448 -232.38272 -3258.448 C -232.82272 -3258.448 -233.18272 -3258.088 -233.18272 -3257.648 C -233.18272 -3257.208 -232.82272 -3256.848 -232.38272 -3256.848 Z M -228.78272 -3255.248 C -229.00672 -3255.248 -229.18272 -3255.424 -229.18272 -3255.648 C -229.18272 -3255.872 -229.00672 -3256.048 -228.78272 -3256.048 L -223.18272 -3256.048 C -222.95872 -3256.048 -222.78272 -3255.872 -222.78272 -3255.648 C -222.78272 -3255.424 -222.95872 -3255.248 -223.18272 -3255.248 Z M -228.78272 -3252.848 C -229.00672 -3252.848 -229.18272 -3253.024 -229.18272 -3253.248 C -229.18272 -3253.472 -229.00672 -3253.648 -228.78272 -3253.648 L -223.18272 -3253.648 C -222.95872 -3253.648 -222.78272 -3253.472 -222.78272 -3253.248 C -222.78272 -3253.024 -222.95872 -3252.848 -223.18272 -3252.848 Z M -228.78272 -3250.448 C -229.00672 -3250.448 -229.18272 -3250.624 -229.18272 -3250.848 C -229.18272 -3251.072 -229.00672 -3251.248 -228.78272 -3251.248 L -223.18272 -3251.248 C -222.95872 -3251.248 -222.78272 -3251.072 -222.78272 -3250.848 C -222.78272 -3250.624 -222.95872 -3250.448 -223.18272 -3250.448 Z M -228.78272 -3248.048 C -229.00672 -3248.048 -229.18272 -3248.224 -229.18272 -3248.448 C -229.18272 -3248.672 -229.00672 -3248.848 -228.78272 -3248.848 L -224.78272 -3248.848 C -224.55872 -3248.848 -224.38272 -3248.672 -224.38272 -3248.448 C -224.38272 -3248.224 -224.55872 -3248.048 -224.78272 -3248.048 Z" fill="#c0e0ff"/>
      </g>
    </g>
  </g>
</svg>
