<svg height="25" viewBox="-238.483 -3263.748 25 25" width="25" xmlns="http://www.w3.org/2000/svg"><g fill="none"><path d="M-234.143-3263.248h16.32a3.84 3.84 0 0 1 3.84 3.84v16.32a3.84 3.84 0 0 1-3.84 3.84h-16.32a3.84 3.84 0 0 1-3.84-3.84v-16.32a3.84 3.84 0 0 1 3.84-3.84z" fill="#666"/><path d="M-234.143-3263.248h16.32a3.84 3.84 0 0 1 3.84 3.84v16.32a3.84 3.84 0 0 1-3.84 3.84h-16.32a3.84 3.84 0 0 1-3.84-3.84v-16.32a3.84 3.84 0 0 1 3.84-3.84z" stroke="#fff" stroke-linecap="round" stroke-linejoin="round" stroke-width=".25"/><path d="M-221.183-3246.448v-10.8c0-.664-.536-1.2-1.2-1.2h-8.616c.136.232.216.512.216.8v12.8c0 .44.36.8.8.8s.8-.36.8-.8v-1.2c0-.224.176-.4.4-.4zm.8 0h2c.224 0 .4.176.4.4v.8a2 2 0 0 1-2 2h-10c-.88 0-1.6-.72-1.6-1.6v-11.2h-.8c-.88 0-1.6-.72-1.6-1.6s.72-1.6 1.6-1.6h10a2 2 0 0 1 2 2zm-8 .8v.8c0 .288-.08.568-.216.8h8.616c.664 0 1.2-.536 1.2-1.2v-.4zm-3.2-11.2v-.8c0-.44-.36-.8-.8-.8s-.8.36-.8.8.36.8.8.8zm2.8 1.6c-.224 0-.4-.176-.4-.4s.176-.4.4-.4h5.6c.224 0 .4.176.4.4s-.176.4-.4.4zm0 2.4c-.224 0-.4-.176-.4-.4s.176-.4.4-.4h5.6c.224 0 .4.176.4.4s-.176.4-.4.4zm0 2.4c-.224 0-.4-.176-.4-.4s.176-.4.4-.4h5.6c.224 0 .4.176.4.4s-.176.4-.4.4zm0 2.4c-.224 0-.4-.176-.4-.4s.176-.4.4-.4h4c.224 0 .4.176.4.4s-.176.4-.4.4z" fill="#c0e0ff"/></g></svg>