<svg height="25" viewBox="-130.483 -3263.748 25 25" width="25" xmlns="http://www.w3.org/2000/svg"><g fill="none"><path d="m-126.14272-3263.248h16.32c2.12077 0 3.84 1.719 3.84 3.84v16.32c0 2.1207-1.71923 3.84-3.84 3.84h-16.32c-2.12078 0-3.84-1.7193-3.84-3.84v-16.32c0-2.121 1.71922-3.84 3.84-3.84z" fill="#666"/><path d="m-126.14272-3263.248h16.32c2.12077 0 3.84 1.719 3.84 3.84v16.32c0 2.1207-1.71923 3.84-3.84 3.84h-16.32c-2.12078 0-3.84-1.7193-3.84-3.84v-16.32c0-2.121 1.71922-3.84 3.84-3.84z" stroke="#fff" stroke-linecap="round" stroke-linejoin="round" stroke-width=".25"/><path d="m-120.39161-3254.799-1.90222-1.9113c-.17778-.1777-.17778-.4533 0-.6311.17777-.1776.45333-.1776.63111 0l2.66666 2.6667c.17778.1777.17778.4533 0 .6311l-2.66666 2.6666c-.17778.178-.45334.178-.63111 0-.17778-.1777-.17778-.4533 0-.631l1.91111-1.911h-3.36889c-.73778 0-1.33333.5954-1.33333 1.333v5.3335c0 .7378.59555 1.3335 1.33333 1.3335h4.44444c.24889 0 .44445.1954.44445.4443 0 .2487-.19556.4444-.44445.4444h-4.45333c-1.22667 0-2.22222-.9957-2.22222-2.2222v-5.3335c0-1.2265.99555-2.222 2.22222-2.222h3.36889zm3.74222.8887c-.24889 0-.44444-.1957-.44444-.4444 0-.2489.19555-.4443.44444-.4443h6.22222c.24889 0 .44445.1954.44445.4443 0 .2487-.19556.4444-.44445.4444zm0 4.4443c-.24889 0-.44444-.1954-.44444-.4443 0-.2487.19555-.4444.44444-.4444h6.22222c.24889 0 .44445.1957.44445.4444 0 .2489-.19556.4443-.44445.4443zm0 4.4446c-.24889 0-.44444-.1956-.44444-.4446 0-.2487.19555-.4443.44444-.4443h6.22222c.24889 0 .44445.1956.44445.4443 0 .249-.19556.4446-.44445.4446z" fill="#c0e0ff"/></g></svg>