<svg height="25" viewBox="-130.483 -3263.748 25 25" width="25" xmlns="http://www.w3.org/2000/svg"><g fill="none"><path d="M-126.143-3263.248h16.32a3.84 3.84 0 0 1 3.84 3.84v16.32a3.84 3.84 0 0 1-3.84 3.84h-16.32a3.84 3.84 0 0 1-3.84-3.84v-16.32a3.84 3.84 0 0 1 3.84-3.84z" fill="#666"/><path d="M-126.143-3263.248h16.32a3.84 3.84 0 0 1 3.84 3.84v16.32a3.84 3.84 0 0 1-3.84 3.84h-16.32a3.84 3.84 0 0 1-3.84-3.84v-16.32a3.84 3.84 0 0 1 3.84-3.84z" stroke="#fff" stroke-linecap="round" stroke-linejoin="round" stroke-width=".25"/><path d="M-120.392-3254.799l-1.902-1.911a.44.44 0 0 1 0-.631.44.44 0 0 1 .631 0l2.667 2.666a.44.44 0 0 1 0 .631l-2.667 2.667a.44.44 0 0 1-.63 0 .44.44 0 0 1 0-.631l1.91-1.911h-3.369c-.737 0-1.333.595-1.333 1.333v5.333c0 .738.596 1.334 1.333 1.334h4.445a.44.44 0 0 1 .444.444.44.44 0 0 1-.444.445h-4.453a2.223 2.223 0 0 1-2.223-2.222v-5.334c0-1.226.996-2.222 2.223-2.222h3.368zm3.743.889a.44.44 0 0 1-.445-.445.44.44 0 0 1 .445-.444h6.222a.44.44 0 0 1 .444.444.44.44 0 0 1-.444.445zm0 4.444a.44.44 0 0 1-.445-.444.44.44 0 0 1 .445-.445h6.222a.44.44 0 0 1 .444.445.44.44 0 0 1-.444.444zm0 4.445a.44.44 0 0 1-.445-.445.44.44 0 0 1 .445-.444h6.222a.44.44 0 0 1 .444.444.44.44 0 0 1-.444.445z" fill="#c0e0ff"/></g></svg>