<svg height="25" viewBox="-598.483 -3263.748 25 25" width="25" xmlns="http://www.w3.org/2000/svg"><g fill="none"><path d="M-594.143-3263.248h16.32a3.84 3.84 0 0 1 3.84 3.84v16.32a3.84 3.84 0 0 1-3.84 3.84h-16.32a3.84 3.84 0 0 1-3.84-3.84v-16.32a3.84 3.84 0 0 1 3.84-3.84z" fill="#666"/><path d="M-594.143-3263.248h16.32a3.84 3.84 0 0 1 3.84 3.84v16.32a3.84 3.84 0 0 1-3.84 3.84h-16.32a3.84 3.84 0 0 1-3.84-3.84v-16.32a3.84 3.84 0 0 1 3.84-3.84z" stroke="#fff" stroke-linecap="round" stroke-linejoin="round" stroke-width=".25"/><path d="M-585.418-3243.248c-4.416 0-8-3.584-8-8s3.584-8 8-8 8 3.584 8 8-3.584 8-8 8zm0-.8a7.2 7.2 0 1 0 0-14.401 7.2 7.2 0 0 0 0 14.401zm-3.2-9.744a1.436 1.436 0 0 1 2.184-1.232l4.392 2.68a1.284 1.284 0 0 1 0 2.184l-4.392 2.68a1.444 1.444 0 0 1-2.192-1.232v-5.088zm.8 0v5.088a.642.642 0 0 0 .976.544l4.392-2.68a.48.48 0 0 0 0-.816l-4.392-2.68a.639.639 0 0 0-.88.216.63.63 0 0 0-.096.336z" fill="#8eed62"/></g></svg>