<svg height="25" viewBox="-526.483 -3263.748 25 25" width="25" xmlns="http://www.w3.org/2000/svg"><g fill="none"><path d="m-522.1427-3263.248h16.32c2.12075 0 3.84 1.719 3.84 3.84v16.32c0 2.1207-1.71925 3.84-3.84 3.84h-16.32c-2.1208 0-3.84-1.7193-3.84-3.84v-16.32c0-2.121 1.7192-3.84 3.84-3.84z" fill="#666"/><path d="m-522.1427-3263.248h16.32c2.12075 0 3.84 1.719 3.84 3.84v16.32c0 2.1207-1.71925 3.84-3.84 3.84h-16.32c-2.1208 0-3.84-1.7193-3.84-3.84v-16.32c0-2.121 1.7192-3.84 3.84-3.84z" stroke="#fff" stroke-linecap="round" stroke-linejoin="round" stroke-width=".25"/><path d="m-513.9827-3258.448c-3.976 0-7.2 3.224-7.2 7.2s3.224 7.2 7.2 7.2h.4c.288 0 .536-.192.608-.472.104-.4.008-.808-.24-1.104l-1.472-1.768c-.192-.232-.072-.592.232-.648l4.864-.976c1.64-.328 2.816-1.768 2.816-3.432 0-3.312-2.688-6-6-6h-1.2zm.336 11.064 1.04 1.248c.416.496.568 1.16.408 1.784-.168.656-.736 1.104-1.392 1.104h-.4c-4.408 0-7.992-3.584-7.992-8s3.584-8 8-8h1.2c3.752 0 6.8 3.048 6.8 6.8 0 2.048-1.448 3.816-3.456 4.216l-4.2.84zm4.464-5.464c.44 0 .8-.36.8-.8s-.36-.8-.8-.8-.8.36-.8.8.36.8.8.8zm-3.2-2.4c.44 0 .8-.36.8-.8s-.36-.8-.8-.8-.8.36-.8.8.36.8.8.8zm-4 .8c.44 0 .8-.36.8-.8s-.36-.8-.8-.8-.8.36-.8.8.36.8.8.8zm-2.4 3.2c.44 0 .8-.36.8-.8s-.36-.8-.8-.8-.8.36-.8.8.36.8.8.8z" fill="#fc6d7e"/></g></svg>