<?xml version="1.0" encoding="UTF-8" standalone="no"?>
<!DOCTYPE svg PUBLIC "-//W3C//DTD SVG 1.1//EN" "http://www.w3.org/Graphics/SVG/1.1/DTD/svg11.dtd">
<svg xmlns:dc="http://purl.org/dc/elements/1.1/" version="1.1" xmlns="http://www.w3.org/2000/svg" xmlns:xl="http://www.w3.org/1999/xlink" viewBox="-526.4827 -3263.748 25 25" width="25" height="25">
  <defs/>
  <g id="SOURCES" stroke="none" stroke-dasharray="none" fill-opacity="1" stroke-opacity="1" fill="none">
    <title>SOURCES</title>
    <g id="SOURCES_Dark">
      <title>Dark</title>
      <g id="Graphic_11443">
        <path d="M -522.1427 -3263.248 L -505.8227 -3263.248 C -503.70195 -3263.248 -501.9827 -3261.529 -501.9827 -3259.408 L -501.9827 -3243.088 C -501.9827 -3240.9673 -503.70195 -3239.248 -505.8227 -3239.248 L -522.1427 -3239.248 C -524.2635 -3239.248 -525.9827 -3240.9673 -525.9827 -3243.088 L -525.9827 -3259.408 C -525.9827 -3261.529 -524.2635 -3263.248 -522.1427 -3263.248 Z" fill="#666"/>
        <path d="M -522.1427 -3263.248 L -505.8227 -3263.248 C -503.70195 -3263.248 -501.9827 -3261.529 -501.9827 -3259.408 L -501.9827 -3243.088 C -501.9827 -3240.9673 -503.70195 -3239.248 -505.8227 -3239.248 L -522.1427 -3239.248 C -524.2635 -3239.248 -525.9827 -3240.9673 -525.9827 -3243.088 L -525.9827 -3259.408 C -525.9827 -3261.529 -524.2635 -3263.248 -522.1427 -3263.248 Z" stroke="white" stroke-linecap="round" stroke-linejoin="round" stroke-width=".25"/>
      </g>
      <g id="Graphic_11442">
        <path d="M -513.9827 -3258.448 C -517.9587 -3258.448 -521.1827 -3255.224 -521.1827 -3251.248 C -521.1827 -3247.272 -517.9587 -3244.048 -513.9827 -3244.048 L -513.5827 -3244.048 C -513.2947 -3244.048 -513.0467 -3244.24 -512.9747 -3244.52 C -512.8707 -3244.92 -512.9667 -3245.328 -513.2147 -3245.624 L -514.6867 -3247.392 C -514.8787 -3247.624 -514.7587 -3247.984 -514.4547 -3248.04 L -509.5907 -3249.016 C -507.9507 -3249.344 -506.7747 -3250.784 -506.7747 -3252.448 C -506.7747 -3255.76 -509.4627 -3258.448 -512.7747 -3258.448 L -513.9747 -3258.448 Z M -513.6467 -3247.384 L -512.6067 -3246.136 C -512.1907 -3245.64 -512.0387 -3244.976 -512.1987 -3244.352 C -512.3667 -3243.696 -512.9347 -3243.248 -513.5907 -3243.248 L -513.9907 -3243.248 C -518.3987 -3243.248 -521.9827 -3246.832 -521.9827 -3251.248 C -521.9827 -3255.664 -518.3987 -3259.248 -513.9827 -3259.248 L -512.7827 -3259.248 C -509.0307 -3259.248 -505.9827 -3256.2 -505.9827 -3252.448 C -505.9827 -3250.4 -507.4307 -3248.632 -509.4387 -3248.232 L -513.6387 -3247.392 Z M -509.1827 -3252.848 C -508.7427 -3252.848 -508.3827 -3253.208 -508.3827 -3253.648 C -508.3827 -3254.088 -508.7427 -3254.448 -509.1827 -3254.448 C -509.6227 -3254.448 -509.9827 -3254.088 -509.9827 -3253.648 C -509.9827 -3253.208 -509.6227 -3252.848 -509.1827 -3252.848 Z M -512.3827 -3255.248 C -511.9427 -3255.248 -511.5827 -3255.608 -511.5827 -3256.048 C -511.5827 -3256.488 -511.9427 -3256.848 -512.3827 -3256.848 C -512.8227 -3256.848 -513.1827 -3256.488 -513.1827 -3256.048 C -513.1827 -3255.608 -512.8227 -3255.248 -512.3827 -3255.248 Z M -516.3827 -3254.448 C -515.9427 -3254.448 -515.5827 -3254.808 -515.5827 -3255.248 C -515.5827 -3255.688 -515.9427 -3256.048 -516.3827 -3256.048 C -516.8227 -3256.048 -517.1827 -3255.688 -517.1827 -3255.248 C -517.1827 -3254.808 -516.8227 -3254.448 -516.3827 -3254.448 Z M -518.7827 -3251.248 C -518.3427 -3251.248 -517.9827 -3251.608 -517.9827 -3252.048 C -517.9827 -3252.488 -518.3427 -3252.848 -518.7827 -3252.848 C -519.2227 -3252.848 -519.5827 -3252.488 -519.5827 -3252.048 C -519.5827 -3251.608 -519.2227 -3251.248 -518.7827 -3251.248 Z" fill="#fc6d7e"/>
      </g>
    </g>
  </g>
</svg>
