<?xml version="1.0" encoding="UTF-8" standalone="no"?>
<!DOCTYPE svg PUBLIC "-//W3C//DTD SVG 1.1//EN" "http://www.w3.org/Graphics/SVG/1.1/DTD/svg11.dtd">
<svg xmlns="http://www.w3.org/2000/svg" xmlns:xl="http://www.w3.org/1999/xlink" version="1.1" xmlns:dc="http://purl.org/dc/elements/1.1/" viewBox="-454.4827 -3263.748 25 25" width="25" height="25">
  <defs/>
  <g id="SOURCES" stroke-opacity="1" fill="none" stroke="none" fill-opacity="1" stroke-dasharray="none">
    <title>SOURCES</title>
    <g id="SOURCES_Dark">
      <title>Dark</title>
      <g id="Graphic_11435">
        <path d="M -450.1427 -3263.248 L -433.8227 -3263.248 C -431.70195 -3263.248 -429.9827 -3261.529 -429.9827 -3259.408 L -429.9827 -3243.088 C -429.9827 -3240.9673 -431.70195 -3239.248 -433.8227 -3239.248 L -450.1427 -3239.248 C -452.2635 -3239.248 -453.9827 -3240.9673 -453.9827 -3243.088 L -453.9827 -3259.408 C -453.9827 -3261.529 -452.2635 -3263.248 -450.1427 -3263.248 Z" fill="#666"/>
        <path d="M -450.1427 -3263.248 L -433.8227 -3263.248 C -431.70195 -3263.248 -429.9827 -3261.529 -429.9827 -3259.408 L -429.9827 -3243.088 C -429.9827 -3240.9673 -431.70195 -3239.248 -433.8227 -3239.248 L -450.1427 -3239.248 C -452.2635 -3239.248 -453.9827 -3240.9673 -453.9827 -3243.088 L -453.9827 -3259.408 C -453.9827 -3261.529 -452.2635 -3263.248 -450.1427 -3263.248 Z" stroke="white" stroke-linecap="round" stroke-linejoin="round" stroke-width=".25"/>
      </g>
      <g id="Graphic_11434">
        <path d="M -436.6494 -3247.6925 L -434.42717 -3247.6925 C -434.1783 -3247.6925 -433.9827 -3247.888 -433.9827 -3248.137 C -433.9827 -3248.386 -434.1783 -3248.5814 -434.42717 -3248.5814 L -436.6494 -3248.5814 L -436.6494 -3250.8036 C -436.6494 -3251.0525 -436.84494 -3251.248 -437.09383 -3251.248 C -437.3427 -3251.248 -437.5383 -3251.0525 -437.5383 -3250.8036 L -437.5383 -3248.5814 L -439.7605 -3248.5814 C -440.0094 -3248.5814 -440.20494 -3248.386 -440.20494 -3248.137 C -440.20494 -3247.888 -440.0094 -3247.6925 -439.7605 -3247.6925 L -437.5383 -3247.6925 L -437.5383 -3245.4703 C -437.5383 -3245.2214 -437.3427 -3245.026 -437.09383 -3245.026 C -436.84494 -3245.026 -436.6494 -3245.2214 -436.6494 -3245.4703 Z M -442.42717 -3247.6925 C -442.1783 -3247.6925 -441.9827 -3247.888 -441.9827 -3248.137 C -441.9827 -3248.386 -442.1783 -3248.5814 -442.42717 -3248.5814 L -449.5383 -3248.5814 C -449.78717 -3248.5814 -449.9827 -3248.386 -449.9827 -3248.137 C -449.9827 -3247.888 -449.78717 -3247.6925 -449.5383 -3247.6925 Z M -439.7605 -3252.137 C -439.5116 -3252.137 -439.31606 -3252.3325 -439.31606 -3252.5814 C -439.31606 -3252.8303 -439.5116 -3253.026 -439.7605 -3253.026 L -449.5383 -3253.026 C -449.78717 -3253.026 -449.9827 -3252.8303 -449.9827 -3252.5814 C -449.9827 -3252.3325 -449.78717 -3252.137 -449.5383 -3252.137 Z M -434.42717 -3256.5814 C -434.1783 -3256.5814 -433.9827 -3256.777 -433.9827 -3257.026 C -433.9827 -3257.2747 -434.1783 -3257.4703 -434.42717 -3257.4703 L -449.5383 -3257.4703 C -449.78717 -3257.4703 -449.9827 -3257.2747 -449.9827 -3257.026 C -449.9827 -3256.777 -449.78717 -3256.5814 -449.5383 -3256.5814 Z" fill="#c0e0ff"/>
      </g>
    </g>
  </g>
</svg>
