<svg height="25" viewBox="-454.483 -3263.748 25 25" width="25" xmlns="http://www.w3.org/2000/svg"><g fill="none"><path d="M-450.143-3263.248h16.32a3.84 3.84 0 0 1 3.84 3.84v16.32a3.84 3.84 0 0 1-3.84 3.84h-16.32a3.84 3.84 0 0 1-3.84-3.84v-16.32a3.84 3.84 0 0 1 3.84-3.84z" fill="#666"/><path d="M-450.143-3263.248h16.32a3.84 3.84 0 0 1 3.84 3.84v16.32a3.84 3.84 0 0 1-3.84 3.84h-16.32a3.84 3.84 0 0 1-3.84-3.84v-16.32a3.84 3.84 0 0 1 3.84-3.84z" stroke="#fff" stroke-linecap="round" stroke-linejoin="round" stroke-width=".25"/><path d="M-436.65-3247.693h2.223c.249 0 .444-.195.444-.444s-.195-.444-.444-.444h-2.222v-2.223a.44.44 0 0 0-.445-.444.44.44 0 0 0-.444.444v2.223h-2.223c-.248 0-.444.195-.444.444s.196.445.444.445h2.223v2.222a.44.44 0 0 0 .444.444.44.44 0 0 0 .445-.444zm-5.777 0c.249 0 .444-.195.444-.444s-.195-.444-.444-.444h-7.111c-.25 0-.445.195-.445.444s.196.445.445.445zm2.667-4.444c.248 0 .444-.196.444-.444s-.196-.445-.445-.445h-9.777c-.25 0-.445.196-.445.445s.196.444.445.444zm5.333-4.444a.44.44 0 0 0 .444-.445.44.44 0 0 0-.444-.444h-15.111a.44.44 0 0 0-.445.444.44.44 0 0 0 .445.445z" fill="#c0e0ff"/></g></svg>