<svg height="25" viewBox="-526.483 -3263.748 25 25" width="25" xmlns="http://www.w3.org/2000/svg"><g fill="none"><path d="M-522.143-3263.248h16.32a3.84 3.84 0 0 1 3.84 3.84v16.32a3.84 3.84 0 0 1-3.84 3.84h-16.32a3.84 3.84 0 0 1-3.84-3.84v-16.32a3.84 3.84 0 0 1 3.84-3.84z" fill="#666"/><path d="M-522.143-3263.248h16.32a3.84 3.84 0 0 1 3.84 3.84v16.32a3.84 3.84 0 0 1-3.84 3.84h-16.32a3.84 3.84 0 0 1-3.84-3.84v-16.32a3.84 3.84 0 0 1 3.84-3.84z" stroke="#fff" stroke-linecap="round" stroke-linejoin="round" stroke-width=".25"/><path d="M-513.983-3258.448a7.2 7.2 0 0 0 0 14.4h.4a.625.625 0 0 0 .608-.472 1.23 1.23 0 0 0-.24-1.104l-1.472-1.768a.399.399 0 0 1 .232-.648l4.864-.976a3.502 3.502 0 0 0 2.816-3.432c0-3.312-2.688-6-6-6h-1.2zm.336 11.064l1.04 1.248c.416.496.568 1.16.408 1.784a1.44 1.44 0 0 1-1.392 1.104h-.4c-4.408 0-7.992-3.584-7.992-8s3.584-8 8-8h1.2c3.752 0 6.8 3.048 6.8 6.8a4.3 4.3 0 0 1-3.456 4.216l-4.2.84zm4.464-5.464c.44 0 .8-.36.8-.8s-.36-.8-.8-.8-.8.36-.8.8.36.8.8.8zm-3.2-2.4c.44 0 .8-.36.8-.8s-.36-.8-.8-.8-.8.36-.8.8.36.8.8.8zm-4 .8c.44 0 .8-.36.8-.8s-.36-.8-.8-.8-.8.36-.8.8.36.8.8.8zm-2.4 3.2c.44 0 .8-.36.8-.8s-.36-.8-.8-.8-.8.36-.8.8.36.8.8.8z" fill="#fc6d7e"/></g></svg>