<?xml version="1.0" encoding="UTF-8" standalone="no"?>
<!DOCTYPE svg PUBLIC "-//W3C//DTD SVG 1.1//EN" "http://www.w3.org/Graphics/SVG/1.1/DTD/svg11.dtd">
<svg xmlns="http://www.w3.org/2000/svg" xmlns:xl="http://www.w3.org/1999/xlink" version="1.1" xmlns:dc="http://purl.org/dc/elements/1.1/" viewBox="-562.4827 -3263.748 25 25" width="25" height="25">
  <defs/>
  <g id="SOURCES" stroke-opacity="1" fill="none" stroke="none" fill-opacity="1" stroke-dasharray="none">
    <title>SOURCES</title>
    <g id="SOURCES_Dark">
      <title>Dark</title>
      <g id="Graphic_11447">
        <path d="M -558.1427 -3263.248 L -541.8227 -3263.248 C -539.70195 -3263.248 -537.9827 -3261.529 -537.9827 -3259.408 L -537.9827 -3243.088 C -537.9827 -3240.9673 -539.70195 -3239.248 -541.8227 -3239.248 L -558.1427 -3239.248 C -560.2635 -3239.248 -561.9827 -3240.9673 -561.9827 -3243.088 L -561.9827 -3259.408 C -561.9827 -3261.529 -560.2635 -3263.248 -558.1427 -3263.248 Z" fill="#666"/>
        <path d="M -558.1427 -3263.248 L -541.8227 -3263.248 C -539.70195 -3263.248 -537.9827 -3261.529 -537.9827 -3259.408 L -537.9827 -3243.088 C -537.9827 -3240.9673 -539.70195 -3239.248 -541.8227 -3239.248 L -558.1427 -3239.248 C -560.2635 -3239.248 -561.9827 -3240.9673 -561.9827 -3243.088 L -561.9827 -3259.408 C -561.9827 -3261.529 -560.2635 -3263.248 -558.1427 -3263.248 Z" stroke="white" stroke-linecap="round" stroke-linejoin="round" stroke-width=".25"/>
      </g>
      <g id="Graphic_11446">
        <path d="M -556.3827 -3257.248 C -556.3827 -3258.352 -555.4867 -3259.248 -554.3827 -3259.248 L -543.9827 -3259.248 C -543.7587 -3259.248 -543.5827 -3259.072 -543.5827 -3258.848 C -543.5827 -3258.624 -543.7587 -3258.448 -543.9827 -3258.448 L -554.3827 -3258.448 C -555.0467 -3258.448 -555.5827 -3257.912 -555.5827 -3257.248 C -555.5827 -3256.584 -555.0467 -3256.048 -554.3827 -3256.048 L -545.5827 -3256.048 C -544.4787 -3256.048 -543.5827 -3255.152 -543.5827 -3254.048 L -543.5827 -3245.248 C -543.5827 -3244.144 -544.4787 -3243.248 -545.5827 -3243.248 L -552.7827 -3243.248 C -554.7747 -3243.248 -556.3827 -3244.856 -556.3827 -3246.848 Z M -555.5827 -3246.848 C -555.5827 -3245.304 -554.3267 -3244.048 -552.7827 -3244.048 L -545.5827 -3244.048 C -544.9187 -3244.048 -544.3827 -3244.584 -544.3827 -3245.248 L -544.3827 -3254.048 C -544.3827 -3254.712 -544.9187 -3255.248 -545.5827 -3255.248 L -554.3827 -3255.248 C -554.8307 -3255.248 -555.2467 -3255.4 -555.5827 -3255.648 Z M -554.3827 -3256.848 C -554.6067 -3256.848 -554.7827 -3257.024 -554.7827 -3257.248 C -554.7827 -3257.472 -554.6067 -3257.648 -554.3827 -3257.648 L -543.9827 -3257.648 C -543.7587 -3257.648 -543.5827 -3257.472 -543.5827 -3257.248 C -543.5827 -3257.024 -543.7587 -3256.848 -543.9827 -3256.848 Z M -553.1827 -3252.448 C -553.1827 -3252.672 -553.0067 -3252.848 -552.7827 -3252.848 L -547.1827 -3252.848 C -546.9587 -3252.848 -546.7827 -3252.672 -546.7827 -3252.448 L -546.7827 -3250.048 C -546.7827 -3249.824 -546.9587 -3249.648 -547.1827 -3249.648 L -552.7827 -3249.648 C -553.0067 -3249.648 -553.1827 -3249.824 -553.1827 -3250.048 Z M -552.3827 -3250.448 L -547.5827 -3250.448 L -547.5827 -3252.048 L -552.3827 -3252.048 Z M -552.7827 -3248.048 C -553.0067 -3248.048 -553.1827 -3248.224 -553.1827 -3248.448 C -553.1827 -3248.672 -553.0067 -3248.848 -552.7827 -3248.848 L -547.1827 -3248.848 C -546.9587 -3248.848 -546.7827 -3248.672 -546.7827 -3248.448 C -546.7827 -3248.224 -546.9587 -3248.048 -547.1827 -3248.048 Z M -552.7827 -3246.448 C -553.0067 -3246.448 -553.1827 -3246.624 -553.1827 -3246.848 C -553.1827 -3247.072 -553.0067 -3247.248 -552.7827 -3247.248 L -549.5827 -3247.248 C -549.3587 -3247.248 -549.1827 -3247.072 -549.1827 -3246.848 C -549.1827 -3246.624 -549.3587 -3246.448 -549.5827 -3246.448 Z" fill="#c0e0ff"/>
      </g>
    </g>
  </g>
</svg>
