<svg height="25" viewBox="-454.483 -3263.748 25 25" width="25" xmlns="http://www.w3.org/2000/svg"><g fill="none"><path d="m-450.1427-3263.248h16.32c2.12075 0 3.84 1.719 3.84 3.84v16.32c0 2.1207-1.71925 3.84-3.84 3.84h-16.32c-2.1208 0-3.84-1.7193-3.84-3.84v-16.32c0-2.121 1.7192-3.84 3.84-3.84z" fill="#666"/><path d="m-450.1427-3263.248h16.32c2.12075 0 3.84 1.719 3.84 3.84v16.32c0 2.1207-1.71925 3.84-3.84 3.84h-16.32c-2.1208 0-3.84-1.7193-3.84-3.84v-16.32c0-2.121 1.7192-3.84 3.84-3.84z" stroke="#fff" stroke-linecap="round" stroke-linejoin="round" stroke-width=".25"/><path d="m-436.6494-3247.6925h2.22223c.24887 0 .44447-.1955.44447-.4445s-.1956-.4444-.44447-.4444h-2.22223v-2.2222c0-.2489-.19554-.4444-.44443-.4444-.24887 0-.44447.1955-.44447.4444v2.2222h-2.2222c-.2489 0-.44444.1954-.44444.4444s.19554.4445.44444.4445h2.2222v2.2222c0 .2489.1956.4443.44447.4443.24889 0 .44443-.1954.44443-.4443zm-5.77777 0c.24887 0 .44447-.1955.44447-.4445s-.1956-.4444-.44447-.4444h-7.11113c-.24887 0-.4444.1954-.4444.4444s.19553.4445.4444.4445zm2.66667-4.4445c.2489 0 .44444-.1955.44444-.4444s-.19554-.4446-.44444-.4446h-9.7778c-.24887 0-.4444.1957-.4444.4446s.19553.4444.4444.4444zm5.33333-4.4444c.24887 0 .44447-.1956.44447-.4446 0-.2487-.1956-.4443-.44447-.4443h-15.11113c-.24887 0-.4444.1956-.4444.4443 0 .249.19553.4446.4444.4446z" fill="#c0e0ff"/></g></svg>