<svg height="25" viewBox="-490.483 -3263.748 25 25" width="25" xmlns="http://www.w3.org/2000/svg"><g fill="none"><path d="m-486.1427-3263.248h16.32c2.12075 0 3.84 1.719 3.84 3.84v16.32c0 2.1207-1.71925 3.84-3.84 3.84h-16.32c-2.1208 0-3.84-1.7193-3.84-3.84v-16.32c0-2.121 1.7192-3.84 3.84-3.84z" fill="#666"/><path d="m-486.1427-3263.248h16.32c2.12075 0 3.84 1.719 3.84 3.84v16.32c0 2.1207-1.71925 3.84-3.84 3.84h-16.32c-2.1208 0-3.84-1.7193-3.84-3.84v-16.32c0-2.121 1.7192-3.84 3.84-3.84z" stroke="#fff" stroke-linecap="round" stroke-linejoin="round" stroke-width=".25"/><path d="m-483.1827-3258.448c-.224 0-.4.176-.4.4v2.4c0 .224.176.4.4.4h7.2c.224 0 .4-.176.4-.4v-2.4c0-.224-.176-.4-.4-.4zm0-.8h7.2c.664 0 1.2.536 1.2 1.2v2.4c0 .664-.536 1.2-1.2 1.2h-7.2c-.664 0-1.2-.536-1.2-1.2v-2.4c0-.664.536-1.2 1.2-1.2zm.8 1.6h.8c.224 0 .4.176.4.4v.8c0 .224-.176.4-.4.4h-.8c-.224 0-.4-.176-.4-.4v-.8c0-.224.176-.4.4-.4zm2.4 0h.8c.224 0 .4.176.4.4v.8c0 .224-.176.4-.4.4h-.8c-.224 0-.4-.176-.4-.4v-.8c0-.224.176-.4.4-.4zm6 9.6v-.8h-2c-.664 0-1.2-.536-1.2-1.2v-.8c0-.664.536-1.2 1.2-1.2h2v-.4c0-.224-.176-.4-.4-.4h-7.2c-.224 0-.4.176-.4.4v.4h2c.664 0 1.2.536 1.2 1.2v.8c0 .664-.536 1.2-1.2 1.2h-4.8c-.664 0-1.2-.536-1.2-1.2v-.8c0-.664.536-1.2 1.2-1.2h2v-.4c0-.664.536-1.2 1.2-1.2h2v-1.2c0-.224.176-.4.4-.4s.4.176.4.4v1.2h4.4c.664 0 1.2.536 1.2 1.2v.4h2c.664 0 1.2.536 1.2 1.2v.8c0 .664-.536 1.2-1.2 1.2h-2v.872c.464.168.8.608.8 1.128v.4h.4c.664 0 1.2.536 1.2 1.2v.8c0 .664-.536 1.2-1.2 1.2h-1.6c-.664 0-1.2-.536-1.2-1.2v-.8c0-.664.536-1.2 1.2-1.2h.4v-.4c0-.224-.176-.4-.4-.4h-4.4v.8h.4c.664 0 1.2.536 1.2 1.2v.8c0 .664-.536 1.2-1.2 1.2h-1.6c-.664 0-1.2-.536-1.2-1.2v-.8c0-.664.536-1.2 1.2-1.2h.4v-.8h-4.4c-.224 0-.4.176-.4.4v.4h.4c.664 0 1.2.536 1.2 1.2v.8c0 .664-.536 1.2-1.2 1.2h-1.6c-.664 0-1.2-.536-1.2-1.2v-.8c0-.664.536-1.2 1.2-1.2h.4v-.4c0-.664.536-1.2 1.2-1.2zm-3.6-9.6h.8c.224 0 .4.176.4.4v.8c0 .224-.176.4-.4.4h-.8c-.224 0-.4-.176-.4-.4v-.8c0-.224.176-.4.4-.4zm1.6 6.4c-.224 0-.4.176-.4.4v.8c0 .224.176.4.4.4h4.8c.224 0 .4-.176.4-.4v-.8c0-.224-.176-.4-.4-.4zm-8.8 0c-.224 0-.4.176-.4.4v.8c0 .224.176.4.4.4h4.8c.224 0 .4-.176.4-.4v-.8c0-.224-.176-.4-.4-.4zm0 5.6c-.224 0-.4.176-.4.4v.8c0 .224.176.4.4.4h1.6c.224 0 .4-.176.4-.4v-.8c0-.224-.176-.4-.4-.4zm5.6 0c-.224 0-.4.176-.4.4v.8c0 .224.176.4.4.4h1.6c.224 0 .4-.176.4-.4v-.8c0-.224-.176-.4-.4-.4zm5.6 0c-.224 0-.4.176-.4.4v.8c0 .224.176.4.4.4h1.6c.224 0 .4-.176.4-.4v-.8c0-.224-.176-.4-.4-.4z" fill="#8eed62"/></g></svg>