<svg height="25" viewBox="-346.483 -3263.748 25 25" width="25" xmlns="http://www.w3.org/2000/svg"><g fill="none"><path d="M-342.143-3263.248h16.32a3.84 3.84 0 0 1 3.84 3.84v16.32a3.84 3.84 0 0 1-3.84 3.84h-16.32a3.84 3.84 0 0 1-3.84-3.84v-16.32a3.84 3.84 0 0 1 3.84-3.84z" fill="#666"/><path d="M-342.143-3263.248h16.32a3.84 3.84 0 0 1 3.84 3.84v16.32a3.84 3.84 0 0 1-3.84 3.84h-16.32a3.84 3.84 0 0 1-3.84-3.84v-16.32a3.84 3.84 0 0 1 3.84-3.84z" stroke="#fff" stroke-linecap="round" stroke-linejoin="round" stroke-width=".25"/><path d="M-340.696-3244.748c-.47 0-.84-.22-.84-.5s.37-.5.84-.5h8.392c.47 0 .839.22.839.5s-.37.5-.84.5zm0-8c-.47 0-.84-.22-.84-.5s.37-.5.84-.5h8.392c.47 0 .839.22.839.5s-.37.5-.84.5zm0-4c-.47 0-.84-.22-.84-.5s.37-.5.84-.5h13.427c.47 0 .84.22.84.5s-.37.5-.84.5zm0 8c-.47 0-.84-.22-.84-.5s.37-.5.84-.5h13.427c.47 0 .84.22.84.5s-.37.5-.84.5z" fill="#c0e0ff"/><path d="M-335.372-3250.401h6.14v2.26h-6.14z" fill="#fff"/><path d="M-335.372-3250.401h6.14v2.26h-6.14z" stroke="silver" stroke-linecap="round" stroke-linejoin="round"/><path d="M-339.338-3258.4h6.14v2.26h-6.14z" fill="#fff"/><path d="M-339.338-3258.4h6.14v2.26h-6.14z" stroke="silver" stroke-linecap="round" stroke-linejoin="round"/></g></svg>