<svg height="25" viewBox="-310.483 -3263.748 25 25" width="25" xmlns="http://www.w3.org/2000/svg"><g fill="none"><path d="M-306.143-3263.248h16.32a3.84 3.84 0 0 1 3.84 3.84v16.32a3.84 3.84 0 0 1-3.84 3.84h-16.32a3.84 3.84 0 0 1-3.84-3.84v-16.32a3.84 3.84 0 0 1 3.84-3.84z" fill="#666"/><path d="M-306.143-3263.248h16.32a3.84 3.84 0 0 1 3.84 3.84v16.32a3.84 3.84 0 0 1-3.84 3.84h-16.32a3.84 3.84 0 0 1-3.84-3.84v-16.32a3.84 3.84 0 0 1 3.84-3.84z" stroke="#fff" stroke-linecap="round" stroke-linejoin="round" stroke-width=".25"/><path d="M-301.182-3258.804c0-.249.196-.444.444-.444s.445.196.445.444v15.111c0 .25-.196.445-.445.445s-.444-.196-.444-.445zm3.111 13.778a.44.44 0 0 1-.444-.444.44.44 0 0 1 .444-.445h4.445a.44.44 0 0 1 .444.445.44.44 0 0 1-.444.444zm0-7.111c-.249 0-.444-.196-.444-.444s.195-.445.444-.445h4.445c.248 0 .444.196.444.445s-.196.444-.444.444zm0-3.555c-.249 0-.444-.196-.444-.445s.195-.444.444-.444h7.111c.25 0 .445.195.445.444s-.196.445-.445.445zm0 7.11a.44.44 0 0 1-.444-.444.44.44 0 0 1 .444-.444h7.111a.44.44 0 0 1 .445.444.44.44 0 0 1-.445.445z" fill="#c0e0ff"/><path d="M-303.67-3254.359h.444a.44.44 0 0 1 .444.444.44.44 0 0 1-.445.445h-1.777a.44.44 0 0 1-.445-.445.44.44 0 0 1 .445-.444h.444v-2.667h-.444a.44.44 0 0 1-.445-.444.44.44 0 0 1 .445-.445h.889a.44.44 0 0 1 .444.445zm-.89 2.667v.444c0 .249-.195.444-.444.444s-.445-.195-.445-.444v-.889a.44.44 0 0 1 .445-.444h1.778a.44.44 0 0 1 .444.444v.889a.417.417 0 0 1-.133.311l-1.023 1.022h.703a.44.44 0 0 1 .444.445.44.44 0 0 1-.444.444h-1.77a.44.44 0 0 1-.31-.755l1.644-1.645v-.258h-.889zm-.444 4.444c-.25 0-.445-.196-.445-.445s.196-.444.445-.444h1.778a.44.44 0 0 1 .444.445v.888a.417.417 0 0 1-.133.311l-.134.134.134.133c.08.08.133.196.133.311v.889a.44.44 0 0 1-.445.445h-1.777a.44.44 0 0 1-.445-.445.44.44 0 0 1 .445-.444h1.333v-.258l-.311-.311a.44.44 0 0 1 0-.631l.311-.311v-.258h-1.333z" fill="#c2c2c2"/></g></svg>