<svg height="25" viewBox="-382.483 -3263.748 25 25" width="25" xmlns="http://www.w3.org/2000/svg"><g fill="none"><path d="M-378.143-3263.248h16.32a3.84 3.84 0 0 1 3.84 3.84v16.32a3.84 3.84 0 0 1-3.84 3.84h-16.32a3.84 3.84 0 0 1-3.84-3.84v-16.32a3.84 3.84 0 0 1 3.84-3.84z" fill="#666"/><path d="M-378.143-3263.248h16.32a3.84 3.84 0 0 1 3.84 3.84v16.32a3.84 3.84 0 0 1-3.84 3.84h-16.32a3.84 3.84 0 0 1-3.84-3.84v-16.32a3.84 3.84 0 0 1 3.84-3.84z" stroke="#fff" stroke-linecap="round" stroke-linejoin="round" stroke-width=".25"/><path d="M-370.979-3245.213c-.249 0-.444-.195-.444-.444s.196-.444.444-.444h4.445c.249 0 .444.195.444.444s-.195.445-.444.445zm0-7.11c-.249 0-.444-.196-.444-.445s.196-.445.444-.445h4.445c.249 0 .444.196.444.445s-.195.444-.444.444zm0-3.556c-.249 0-.444-.196-.444-.445s.196-.444.444-.444h7.111c.25 0 .445.196.445.444s-.196.445-.444.445zm0 7.111c-.249 0-.444-.196-.444-.445s.196-.444.444-.444h7.111c.25 0 .445.196.445.444s-.196.445-.444.445zm-4.278-10.036c0-.249.195-.444.444-.444s.444.196.444.444v15.111c0 .25-.195.445-.444.445s-.444-.196-.444-.445z" fill="#c0e0ff"/><circle cx="-374.951" cy="-3255.693" fill="#fff" r="1.591"/><circle cx="-374.951" cy="-3255.693" r="1.591" stroke="#c2c2c2" stroke-linejoin="round"/><circle cx="-374.951" cy="-3246.617" fill="#fff" r="1.591"/><circle cx="-374.951" cy="-3246.617" r="1.591" stroke="#c2c2c2" stroke-linejoin="round"/></g></svg>