<svg height="25" viewBox="-346.483 -3263.748 25 25" width="25" xmlns="http://www.w3.org/2000/svg"><g fill="none"><path d="m-342.14272-3263.248h16.32c2.12077 0 3.84 1.719 3.84 3.84v16.32c0 2.1207-1.71923 3.84-3.84 3.84h-16.32c-2.12078 0-3.84-1.7193-3.84-3.84v-16.32c0-2.121 1.71922-3.84 3.84-3.84z" fill="#666"/><path d="m-342.14272-3263.248h16.32c2.12077 0 3.84 1.719 3.84 3.84v16.32c0 2.1207-1.71923 3.84-3.84 3.84h-16.32c-2.12078 0-3.84-1.7193-3.84-3.84v-16.32c0-2.121 1.71922-3.84 3.84-3.84z" stroke="#fff" stroke-linecap="round" stroke-linejoin="round" stroke-width=".25"/><path d="m-340.69636-3244.748c-.46994 0-.8392-.22-.8392-.5s.36926-.5.8392-.5h8.39206c.46994 0 .8392.22.8392.5s-.36926.5-.8392.5zm0-8c-.46994 0-.8392-.22-.8392-.5s.36926-.5.8392-.5h8.39206c.46994 0 .8392.22.8392.5s-.36926.5-.8392.5zm0-4c-.46994 0-.8392-.22-.8392-.5s.36926-.5.8392-.5h13.42726c.46996 0 .8392.22.8392.5s-.36924.5-.8392.5zm0 8c-.46994 0-.8392-.22-.8392-.5s.36926-.5.8392-.5h13.42726c.46996 0 .8392.22.8392.5s-.36924.5-.8392.5z" fill="#c0e0ff"/><path d="m-335.3724-3250.4015h6.140703v2.259912h-6.140703z" fill="#fff"/><path d="m-335.3724-3250.4015h6.140703v2.259912h-6.140703z" stroke="silver" stroke-linecap="round" stroke-linejoin="round"/><path d="m-339.3379-3258.4007h6.140703v2.259912h-6.140703z" fill="#fff"/><path d="m-339.3379-3258.4007h6.140703v2.259912h-6.140703z" stroke="silver" stroke-linecap="round" stroke-linejoin="round"/></g></svg>