<svg height="25" viewBox="-274.483 -3263.748 25 25" width="25" xmlns="http://www.w3.org/2000/svg"><g fill="none"><path d="M-253.823-3239.248h-16.32a3.84 3.84 0 0 1-3.84-3.84v-16.32a3.84 3.84 0 0 1 3.84-3.84h16.32a3.84 3.84 0 0 1 3.84 3.84v16.32a3.84 3.84 0 0 1-3.84 3.84z" fill="#666"/><path d="M-253.823-3239.248h-16.32a3.84 3.84 0 0 1-3.84-3.84v-16.32a3.84 3.84 0 0 1 3.84-3.84h16.32a3.84 3.84 0 0 1 3.84 3.84v16.32a3.84 3.84 0 0 1-3.84 3.84z" stroke="#fff" stroke-linecap="round" stroke-linejoin="round" stroke-width=".25"/><path d="M-261.32-3257.284a.44.44 0 0 1 .444.445.44.44 0 0 1-.445.444h-4.444a.44.44 0 0 1-.445-.444.44.44 0 0 1 .445-.445zm0 7.111c.248 0 .444.196.444.445s-.196.444-.445.444h-4.444c-.25 0-.445-.195-.445-.444s.196-.445.445-.445zm0 3.556c.248 0 .444.196.444.445s-.196.444-.445.444h-7.111c-.249 0-.444-.196-.444-.445s.195-.444.444-.444zm0-7.111c.248 0 .444.196.444.444s-.196.445-.445.445h-7.111c-.249 0-.444-.196-.444-.445s.195-.444.444-.444z" fill="#c0e0ff"/><path d="M-256.212-3243.693c0 .25-.196.445-.445.445s-.444-.196-.444-.445v-15.11c0-.25.195-.445.444-.445s.445.196.445.444z" fill="#95c1ec"/><circle cx="-256.68" cy="-3246.617" fill="#f9b841" r="1.591"/><circle cx="-256.68" cy="-3246.617" r="1.591" stroke="#c2c2c2" stroke-linejoin="round"/><circle cx="-256.68" cy="-3255.693" fill="#ff0919" r="1.591"/><circle cx="-256.68" cy="-3255.693" r="1.591" stroke="#c2c2c2" stroke-linejoin="round"/></g></svg>