<?xml version="1.0" encoding="UTF-8" standalone="no"?>
<!DOCTYPE svg PUBLIC "-//W3C//DTD SVG 1.1//EN" "http://www.w3.org/Graphics/SVG/1.1/DTD/svg11.dtd">
<svg xmlns="http://www.w3.org/2000/svg" xmlns:xl="http://www.w3.org/1999/xlink" version="1.1" xmlns:dc="http://purl.org/dc/elements/1.1/" viewBox="-310.48272 -3263.748 25 25" width="25" height="25">
  <defs/>
  <g id="SOURCES" stroke-opacity="1" fill="none" stroke="none" fill-opacity="1" stroke-dasharray="none">
    <title>SOURCES</title>
    <g id="SOURCES_Dark">
      <title>Dark</title>
      <g id="Graphic_11431">
        <path d="M -306.14272 -3263.248 L -289.82272 -3263.248 C -287.70195 -3263.248 -285.98272 -3261.529 -285.98272 -3259.408 L -285.98272 -3243.088 C -285.98272 -3240.9673 -287.70195 -3239.248 -289.82272 -3239.248 L -306.14272 -3239.248 C -308.2635 -3239.248 -309.98272 -3240.9673 -309.98272 -3243.088 L -309.98272 -3259.408 C -309.98272 -3261.529 -308.2635 -3263.248 -306.14272 -3263.248 Z" fill="#666"/>
        <path d="M -306.14272 -3263.248 L -289.82272 -3263.248 C -287.70195 -3263.248 -285.98272 -3261.529 -285.98272 -3259.408 L -285.98272 -3243.088 C -285.98272 -3240.9673 -287.70195 -3239.248 -289.82272 -3239.248 L -306.14272 -3239.248 C -308.2635 -3239.248 -309.98272 -3240.9673 -309.98272 -3243.088 L -309.98272 -3259.408 C -309.98272 -3261.529 -308.2635 -3263.248 -306.14272 -3263.248 Z" stroke="white" stroke-linecap="round" stroke-linejoin="round" stroke-width=".25"/>
      </g>
      <g id="Graphic_11430">
        <path d="M -301.18204 -3258.8036 C -301.18204 -3259.0525 -300.9865 -3259.248 -300.7376 -3259.248 C -300.4887 -3259.248 -300.29315 -3259.0525 -300.29315 -3258.8036 L -300.29315 -3243.6925 C -300.29315 -3243.4436 -300.4887 -3243.248 -300.7376 -3243.248 C -300.9865 -3243.248 -301.18204 -3243.4436 -301.18204 -3243.6925 Z M -298.07093 -3245.026 C -298.31982 -3245.026 -298.51537 -3245.2214 -298.51537 -3245.4703 C -298.51537 -3245.719 -298.31982 -3245.9147 -298.07093 -3245.9147 L -293.6265 -3245.9147 C -293.3776 -3245.9147 -293.18204 -3245.719 -293.18204 -3245.4703 C -293.18204 -3245.2214 -293.3776 -3245.026 -293.6265 -3245.026 Z M -298.07093 -3252.137 C -298.31982 -3252.137 -298.51537 -3252.3325 -298.51537 -3252.5814 C -298.51537 -3252.8303 -298.31982 -3253.026 -298.07093 -3253.026 L -293.6265 -3253.026 C -293.3776 -3253.026 -293.18204 -3252.8303 -293.18204 -3252.5814 C -293.18204 -3252.3325 -293.3776 -3252.137 -293.6265 -3252.137 Z M -298.07093 -3255.6925 C -298.31982 -3255.6925 -298.51537 -3255.888 -298.51537 -3256.137 C -298.51537 -3256.386 -298.31982 -3256.5814 -298.07093 -3256.5814 L -290.95982 -3256.5814 C -290.71093 -3256.5814 -290.51537 -3256.386 -290.51537 -3256.137 C -290.51537 -3255.888 -290.71093 -3255.6925 -290.95982 -3255.6925 Z M -298.07093 -3248.5814 C -298.31982 -3248.5814 -298.51537 -3248.777 -298.51537 -3249.026 C -298.51537 -3249.2747 -298.31982 -3249.4703 -298.07093 -3249.4703 L -290.95982 -3249.4703 C -290.71093 -3249.4703 -290.51537 -3249.2747 -290.51537 -3249.026 C -290.51537 -3248.777 -290.71093 -3248.5814 -290.95982 -3248.5814 Z" fill="#c0e0ff"/>
      </g>
      <g id="Graphic_11428">
        <path d="M -303.67093 -3254.359 L -303.2265 -3254.359 C -302.9776 -3254.359 -302.78204 -3254.1636 -302.78204 -3253.9147 C -302.78204 -3253.666 -302.9776 -3253.4703 -303.2265 -3253.4703 L -305.00426 -3253.4703 C -305.25315 -3253.4703 -305.4487 -3253.666 -305.4487 -3253.9147 C -305.4487 -3254.1636 -305.25315 -3254.359 -305.00426 -3254.359 L -304.55982 -3254.359 L -304.55982 -3257.026 L -305.00426 -3257.026 C -305.25315 -3257.026 -305.4487 -3257.2214 -305.4487 -3257.4703 C -305.4487 -3257.719 -305.25315 -3257.9147 -305.00426 -3257.9147 L -304.11537 -3257.9147 C -303.8665 -3257.9147 -303.67093 -3257.719 -303.67093 -3257.4703 Z M -304.55982 -3251.6925 L -304.55982 -3251.248 C -304.55982 -3250.999 -304.75537 -3250.8036 -305.00426 -3250.8036 C -305.25315 -3250.8036 -305.4487 -3250.999 -305.4487 -3251.248 L -305.4487 -3252.137 C -305.4487 -3252.386 -305.25315 -3252.5814 -305.00426 -3252.5814 L -303.2265 -3252.5814 C -302.9776 -3252.5814 -302.78204 -3252.386 -302.78204 -3252.137 L -302.78204 -3251.248 C -302.78204 -3251.1325 -302.8265 -3251.017 -302.91537 -3250.937 L -303.9376 -3249.9147 L -303.23537 -3249.9147 C -302.9865 -3249.9147 -302.79093 -3249.719 -302.79093 -3249.4703 C -302.79093 -3249.2214 -302.9865 -3249.026 -303.23537 -3249.026 L -305.00426 -3249.026 C -305.40426 -3249.026 -305.59982 -3249.506 -305.31537 -3249.7814 L -303.67093 -3251.426 L -303.67093 -3251.6836 L -304.55982 -3251.6836 Z M -305.00426 -3247.248 C -305.25315 -3247.248 -305.4487 -3247.4436 -305.4487 -3247.6925 C -305.4487 -3247.9414 -305.25315 -3248.137 -305.00426 -3248.137 L -303.2265 -3248.137 C -302.9776 -3248.137 -302.78204 -3247.9414 -302.78204 -3247.6925 L -302.78204 -3246.8036 C -302.78204 -3246.688 -302.8265 -3246.5725 -302.91537 -3246.4925 L -303.0487 -3246.359 L -302.91537 -3246.226 C -302.83537 -3246.146 -302.78204 -3246.0303 -302.78204 -3245.9147 L -302.78204 -3245.026 C -302.78204 -3244.777 -302.9776 -3244.5814 -303.2265 -3244.5814 L -305.00426 -3244.5814 C -305.25315 -3244.5814 -305.4487 -3244.777 -305.4487 -3245.026 C -305.4487 -3245.2747 -305.25315 -3245.4703 -305.00426 -3245.4703 L -303.67093 -3245.4703 L -303.67093 -3245.728 L -303.98204 -3246.039 C -304.15982 -3246.217 -304.15982 -3246.4925 -303.98204 -3246.6703 L -303.67093 -3246.9814 L -303.67093 -3247.239 L -305.00426 -3247.239 Z" fill="#c2c2c2"/>
      </g>
    </g>
  </g>
</svg>
