<svg height="25" viewBox="-274.483 -3263.748 25 25" width="25" xmlns="http://www.w3.org/2000/svg"><g fill="none"><path d="m-253.82272-3239.248h-16.32c-2.12078 0-3.84-1.7193-3.84-3.84v-16.32c0-2.121 1.71922-3.84 3.84-3.84h16.32c2.12077 0 3.84 1.719 3.84 3.84v16.32c0 2.1207-1.71923 3.84-3.84 3.84z" fill="#666"/><path d="m-253.82272-3239.248h-16.32c-2.12078 0-3.84-1.7193-3.84-3.84v-16.32c0-2.121 1.71922-3.84 3.84-3.84h16.32c2.12077 0 3.84 1.719 3.84 3.84v16.32c0 2.1207-1.71923 3.84-3.84 3.84z" stroke="#fff" stroke-linecap="round" stroke-linejoin="round" stroke-width=".25"/><path d="m-261.32086-3257.2836c.24889 0 .44446.1956.44446.4446 0 .2487-.19557.4443-.44446.4443h-4.44444c-.2489 0-.44445-.1956-.44445-.4443 0-.249.19555-.4446.44445-.4446zm0 7.1111c.24889 0 .44446.1955.44446.4445s-.19557.4444-.44446.4444h-4.44444c-.2489 0-.44445-.1954-.44445-.4444s.19555-.4445.44445-.4445zm0 3.5555c.24889 0 .44446.1956.44446.4445s-.19557.4445-.44446.4445h-7.11111c-.24889 0-.44443-.1956-.44443-.4445s.19554-.4445.44443-.4445zm0-7.111c.24889 0 .44446.1955.44446.4444s-.19557.4446-.44446.4446h-7.11111c-.24889 0-.44443-.1957-.44443-.4446s.19554-.4444.44443-.4444z" fill="#c0e0ff"/><path d="m-256.21222-3243.6925c0 .2489-.19555.4445-.44444.4445s-.44444-.1956-.44444-.4445v-15.1111c0-.2489.19555-.4444.44444-.4444s.44444.1955.44444.4444z" fill="#95c1ec"/><circle cx="-256.68" cy="-3246.617" fill="#f9b841" r="1.591"/><circle cx="-256.68" cy="-3246.617" r="1.591" stroke="#c2c2c2" stroke-linejoin="round"/><circle cx="-256.68" cy="-3255.693" fill="#ff0919" r="1.591"/><circle cx="-256.68" cy="-3255.693" r="1.591" stroke="#c2c2c2" stroke-linejoin="round"/></g></svg>