<?xml version="1.0" encoding="UTF-8" standalone="no"?>
<!DOCTYPE svg PUBLIC "-//W3C//DTD SVG 1.1//EN" "http://www.w3.org/Graphics/SVG/1.1/DTD/svg11.dtd">
<svg xmlns="http://www.w3.org/2000/svg" xmlns:xl="http://www.w3.org/1999/xlink" version="1.1" xmlns:dc="http://purl.org/dc/elements/1.1/" viewBox="-274.48272 -3263.748 25 25" width="25" height="25">
  <defs/>
  <g id="SOURCES" stroke-opacity="1" fill="none" stroke="none" fill-opacity="1" stroke-dasharray="none">
    <title>SOURCES</title>
    <g id="SOURCES_Dark">
      <title>Dark</title>
      <g id="Graphic_11412">
        <path d="M -253.82272 -3239.248 L -270.14272 -3239.248 C -272.2635 -3239.248 -273.98272 -3240.9673 -273.98272 -3243.088 L -273.98272 -3259.408 C -273.98272 -3261.529 -272.2635 -3263.248 -270.14272 -3263.248 L -253.82272 -3263.248 C -251.70195 -3263.248 -249.98272 -3261.529 -249.98272 -3259.408 L -249.98272 -3243.088 C -249.98272 -3240.9673 -251.70195 -3239.248 -253.82272 -3239.248 Z" fill="#666"/>
        <path d="M -253.82272 -3239.248 L -270.14272 -3239.248 C -272.2635 -3239.248 -273.98272 -3240.9673 -273.98272 -3243.088 L -273.98272 -3259.408 C -273.98272 -3261.529 -272.2635 -3263.248 -270.14272 -3263.248 L -253.82272 -3263.248 C -251.70195 -3263.248 -249.98272 -3261.529 -249.98272 -3259.408 L -249.98272 -3243.088 C -249.98272 -3240.9673 -251.70195 -3239.248 -253.82272 -3239.248 Z" stroke="white" stroke-linecap="round" stroke-linejoin="round" stroke-width=".25"/>
      </g>
      <g id="Graphic_11411">
        <path d="M -261.32086 -3257.2836 C -261.07197 -3257.2836 -260.8764 -3257.088 -260.8764 -3256.839 C -260.8764 -3256.5903 -261.07197 -3256.3947 -261.32086 -3256.3947 L -265.7653 -3256.3947 C -266.0142 -3256.3947 -266.20975 -3256.5903 -266.20975 -3256.839 C -266.20975 -3257.088 -266.0142 -3257.2836 -265.7653 -3257.2836 Z M -261.32086 -3250.1725 C -261.07197 -3250.1725 -260.8764 -3249.977 -260.8764 -3249.728 C -260.8764 -3249.479 -261.07197 -3249.2836 -261.32086 -3249.2836 L -265.7653 -3249.2836 C -266.0142 -3249.2836 -266.20975 -3249.479 -266.20975 -3249.728 C -266.20975 -3249.977 -266.0142 -3250.1725 -265.7653 -3250.1725 Z M -261.32086 -3246.617 C -261.07197 -3246.617 -260.8764 -3246.4214 -260.8764 -3246.1725 C -260.8764 -3245.9236 -261.07197 -3245.728 -261.32086 -3245.728 L -268.43197 -3245.728 C -268.68086 -3245.728 -268.8764 -3245.9236 -268.8764 -3246.1725 C -268.8764 -3246.4214 -268.68086 -3246.617 -268.43197 -3246.617 Z M -261.32086 -3253.728 C -261.07197 -3253.728 -260.8764 -3253.5325 -260.8764 -3253.2836 C -260.8764 -3253.0347 -261.07197 -3252.839 -261.32086 -3252.839 L -268.43197 -3252.839 C -268.68086 -3252.839 -268.8764 -3253.0347 -268.8764 -3253.2836 C -268.8764 -3253.5325 -268.68086 -3253.728 -268.43197 -3253.728 Z" fill="#c0e0ff"/>
      </g>
      <g id="Graphic_11410">
        <path d="M -256.21222 -3243.6925 C -256.21222 -3243.4436 -256.40777 -3243.248 -256.65666 -3243.248 C -256.90555 -3243.248 -257.1011 -3243.4436 -257.1011 -3243.6925 L -257.1011 -3258.8036 C -257.1011 -3259.0525 -256.90555 -3259.248 -256.65666 -3259.248 C -256.40777 -3259.248 -256.21222 -3259.0525 -256.21222 -3258.8036 Z" fill="#95c1ec"/>
      </g>
      <g id="Graphic_11409">
        <circle cx="-256.68014" cy="-3246.617" r="1.59111365355066" fill="#f9b841"/>
        <circle cx="-256.68014" cy="-3246.617" r="1.59111365355066" stroke="#c2c2c2" stroke-linecap="butt" stroke-linejoin="round" stroke-width="1"/>
      </g>
      <g id="Graphic_11408">
        <circle cx="-256.68014" cy="-3255.6925" r="1.59111365355065" fill="#ff0919"/>
        <circle cx="-256.68014" cy="-3255.6925" r="1.59111365355065" stroke="#c2c2c2" stroke-linecap="butt" stroke-linejoin="round" stroke-width="1"/>
      </g>
    </g>
  </g>
</svg>
