<svg height="25" viewBox="-310.483 -3263.748 25 25" width="25" xmlns="http://www.w3.org/2000/svg"><g fill="none"><path d="m-306.14272-3263.248h16.32c2.12077 0 3.84 1.719 3.84 3.84v16.32c0 2.1207-1.71923 3.84-3.84 3.84h-16.32c-2.12078 0-3.84-1.7193-3.84-3.84v-16.32c0-2.121 1.71922-3.84 3.84-3.84z" fill="#666"/><path d="m-306.14272-3263.248h16.32c2.12077 0 3.84 1.719 3.84 3.84v16.32c0 2.1207-1.71923 3.84-3.84 3.84h-16.32c-2.12078 0-3.84-1.7193-3.84-3.84v-16.32c0-2.121 1.71922-3.84 3.84-3.84z" stroke="#fff" stroke-linecap="round" stroke-linejoin="round" stroke-width=".25"/><path d="m-301.18204-3258.8036c0-.2489.19554-.4444.44444-.4444s.44445.1955.44445.4444v15.1111c0 .2489-.19555.4445-.44445.4445s-.44444-.1956-.44444-.4445zm3.11111 13.7776c-.24889 0-.44444-.1954-.44444-.4443 0-.2487.19555-.4444.44444-.4444h4.44443c.2489 0 .44446.1957.44446.4444 0 .2489-.19556.4443-.44446.4443zm0-7.111c-.24889 0-.44444-.1955-.44444-.4444s.19555-.4446.44444-.4446h4.44443c.2489 0 .44446.1957.44446.4446s-.19556.4444-.44446.4444zm0-3.5555c-.24889 0-.44444-.1955-.44444-.4445s.19555-.4444.44444-.4444h7.11111c.24889 0 .44445.1954.44445.4444s-.19556.4445-.44445.4445zm0 7.1111c-.24889 0-.44444-.1956-.44444-.4446 0-.2487.19555-.4443.44444-.4443h7.11111c.24889 0 .44445.1956.44445.4443 0 .249-.19556.4446-.44445.4446z" fill="#c0e0ff"/><path d="m-303.67093-3254.359h.44443c.2489 0 .44446.1954.44446.4443 0 .2487-.19556.4444-.44446.4444h-1.77776c-.24889 0-.44444-.1957-.44444-.4444 0-.2489.19555-.4443.44444-.4443h.44444v-2.667h-.44444c-.24889 0-.44444-.1954-.44444-.4443 0-.2487.19555-.4444.44444-.4444h.88889c.24887 0 .44444.1957.44444.4444zm-.88889 2.6665v.4445c0 .249-.19555.4444-.44444.4444s-.44444-.1954-.44444-.4444v-.889c0-.249.19555-.4444.44444-.4444h1.77776c.2489 0 .44446.1954.44446.4444v.889c0 .1155-.04446.231-.13333.311l-1.02223 1.0223h.70223c.24887 0 .44444.1957.44444.4444 0 .2489-.19557.4443-.44444.4443h-1.76889c-.4 0-.59556-.48-.31111-.7554l1.64444-1.6446v-.2576h-.88889zm-.44444 4.4445c-.24889 0-.44444-.1956-.44444-.4445s.19555-.4445.44444-.4445h1.77776c.2489 0 .44446.1956.44446.4445v.8889c0 .1156-.04446.2311-.13333.3111l-.13333.1335.13333.133c.08.08.13333.1957.13333.3113v.8887c0 .249-.19556.4446-.44446.4446h-1.77776c-.24889 0-.44444-.1956-.44444-.4446 0-.2487.19555-.4443.44444-.4443h1.33333v-.2577l-.31111-.311c-.17778-.178-.17778-.4535 0-.6313l.31111-.3111v-.2576h-1.33333z" fill="#c2c2c2"/></g></svg>