<svg height="25" viewBox="-382.483 -3263.748 25 25" width="25" xmlns="http://www.w3.org/2000/svg"><g fill="none"><path d="m-378.1427-3263.248h16.31998c2.12077 0 3.84 1.719 3.84 3.84v16.32c0 2.1207-1.71923 3.84-3.84 3.84h-16.31998c-2.1208 0-3.84-1.7193-3.84-3.84v-16.32c0-2.121 1.7192-3.84 3.84-3.84z" fill="#666"/><path d="m-378.1427-3263.248h16.31998c2.12077 0 3.84 1.719 3.84 3.84v16.32c0 2.1207-1.71923 3.84-3.84 3.84h-16.31998c-2.1208 0-3.84-1.7193-3.84-3.84v-16.32c0-2.121 1.7192-3.84 3.84-3.84z" stroke="#fff" stroke-linecap="round" stroke-linejoin="round" stroke-width=".25"/><path d="m-370.97863-3245.2125c-.24887 0-.44444-.1955-.44444-.4445s.19557-.4444.44444-.4444h4.44443c.2489 0 .44446.1954.44446.4444s-.19556.4445-.44446.4445zm0-7.1111c-.24887 0-.44444-.1954-.44444-.4444s.19557-.4445.44444-.4445h4.44443c.2489 0 .44446.1955.44446.4445s-.19556.4444-.44446.4444zm0-3.5554c-.24887 0-.44444-.1957-.44444-.4446s.19557-.4444.44444-.4444h7.11113c.24887 0 .44443.1955.44443.4444s-.19556.4446-.44443.4446zm0 7.111c-.24887 0-.44444-.1956-.44444-.4445s.19557-.4445.44444-.4445h7.11113c.24887 0 .44443.1956.44443.4445s-.19556.4445-.44443.4445z" fill="#c0e0ff"/><path d="m-375.2574-3258.8036c0-.2489.19556-.4444.44445-.4444s.44445.1955.44445.4444v15.1111c0 .2489-.19556.4445-.44445.4445s-.44445-.1956-.44445-.4445z" fill="#c0e0ff"/><circle cx="-374.951" cy="-3255.693" fill="#fff" r="1.591"/><circle cx="-374.951" cy="-3255.693" r="1.591" stroke="#c2c2c2" stroke-linejoin="round"/><circle cx="-374.951" cy="-3246.617" fill="#fff" r="1.591"/><circle cx="-374.951" cy="-3246.617" r="1.591" stroke="#c2c2c2" stroke-linejoin="round"/></g></svg>