<svg height="25" viewBox="-634.483 -3263.748 25 25" width="25" xmlns="http://www.w3.org/2000/svg"><g fill="none"><path d="m-630.1427-3263.248h16.32c2.12075 0 3.84 1.719 3.84 3.84v16.32c0 2.1207-1.71925 3.84-3.84 3.84h-16.32c-2.1208 0-3.84-1.7193-3.84-3.84v-16.32c0-2.121 1.7192-3.84 3.84-3.84z" fill="#666"/><path d="m-630.1427-3263.248h16.32c2.12075 0 3.84 1.719 3.84 3.84v16.32c0 2.1207-1.71925 3.84-3.84 3.84h-16.32c-2.1208 0-3.84-1.7193-3.84-3.84v-16.32c0-2.121 1.7192-3.84 3.84-3.84z" stroke="#fff" stroke-linecap="round" stroke-linejoin="round" stroke-width=".25"/><path d="m-619.57384-3247.6925h3.36884c1.2267 0 2.22225-.9955 2.22225-2.2222v-5.3333c0-1.2267-.99555-2.2223-2.22225-2.2223h-3.5555c-.2489 0-.44445.1956-.44445.4443 0 .249.19555.4446.44445.4446h3.5555c.7378 0 1.33336.5954 1.33336 1.3334v5.3333c0 .7377-.59556 1.3333-1.33336 1.3333h-3.36884l1.9111-1.9111c.17778-.1778.17778-.4535 0-.6311-.17776-.1778-.45336-.1778-.63111 0l-2.66665 2.6666c-.1778.178-.1778.4534 0 .631l2.66665 2.6668c.17775.1778.45335.1778.63111 0 .17778-.1778.17778-.4533 0-.6311l-1.9111-1.9111zm-3.74221-8.8889c.24885 0 .44445-.1956.44445-.4446 0-.2487-.1956-.4443-.44445-.4443h-6.2222c-.24889 0-.44445.1956-.44445.4443 0 .249.19556.4446.44445.4446zm0 4.4444c.24885 0 .44445-.1955.44445-.4444s-.1956-.4446-.44445-.4446h-6.2222c-.24889 0-.44445.1957-.44445.4446s.19556.4444.44445.4444zm0 4.4445c.24885 0 .44445-.1955.44445-.4445s-.1956-.4444-.44445-.4444h-6.2222c-.24889 0-.44445.1954-.44445.4444s.19556.4445.44445.4445z" fill="#c0e0ff"/></g></svg>