<?xml version="1.0" encoding="UTF-8" standalone="no"?>
<!DOCTYPE svg PUBLIC "-//W3C//DTD SVG 1.1//EN" "http://www.w3.org/Graphics/SVG/1.1/DTD/svg11.dtd">
<svg xmlns="http://www.w3.org/2000/svg" xmlns:xl="http://www.w3.org/1999/xlink" version="1.1" xmlns:dc="http://purl.org/dc/elements/1.1/" viewBox="-634.4827 -3263.748 25 25" width="25" height="25">
  <defs/>
  <g id="SOURCES" stroke-opacity="1" fill="none" stroke="none" fill-opacity="1" stroke-dasharray="none">
    <title>SOURCES</title>
    <g id="SOURCES_Dark">
      <title>Dark</title>
      <g id="Graphic_11458">
        <path d="M -630.1427 -3263.248 L -613.8227 -3263.248 C -611.70195 -3263.248 -609.9827 -3261.529 -609.9827 -3259.408 L -609.9827 -3243.088 C -609.9827 -3240.9673 -611.70195 -3239.248 -613.8227 -3239.248 L -630.1427 -3239.248 C -632.2635 -3239.248 -633.9827 -3240.9673 -633.9827 -3243.088 L -633.9827 -3259.408 C -633.9827 -3261.529 -632.2635 -3263.248 -630.1427 -3263.248 Z" fill="#666"/>
        <path d="M -630.1427 -3263.248 L -613.8227 -3263.248 C -611.70195 -3263.248 -609.9827 -3261.529 -609.9827 -3259.408 L -609.9827 -3243.088 C -609.9827 -3240.9673 -611.70195 -3239.248 -613.8227 -3239.248 L -630.1427 -3239.248 C -632.2635 -3239.248 -633.9827 -3240.9673 -633.9827 -3243.088 L -633.9827 -3259.408 C -633.9827 -3261.529 -632.2635 -3263.248 -630.1427 -3263.248 Z" stroke="white" stroke-linecap="round" stroke-linejoin="round" stroke-width=".25"/>
      </g>
      <g id="Graphic_10948">
        <path d="M -619.57384 -3247.6925 L -616.205 -3247.6925 C -614.9783 -3247.6925 -613.98275 -3248.688 -613.98275 -3249.9147 L -613.98275 -3255.248 C -613.98275 -3256.4747 -614.9783 -3257.4703 -616.205 -3257.4703 L -619.7605 -3257.4703 C -620.0094 -3257.4703 -620.20495 -3257.2747 -620.20495 -3257.026 C -620.20495 -3256.777 -620.0094 -3256.5814 -619.7605 -3256.5814 L -616.205 -3256.5814 C -615.4672 -3256.5814 -614.87164 -3255.986 -614.87164 -3255.248 L -614.87164 -3249.9147 C -614.87164 -3249.177 -615.4672 -3248.5814 -616.205 -3248.5814 L -619.57384 -3248.5814 L -617.66274 -3250.4925 C -617.48496 -3250.6703 -617.48496 -3250.946 -617.66274 -3251.1236 C -617.8405 -3251.3014 -618.1161 -3251.3014 -618.29385 -3251.1236 L -620.9605 -3248.457 C -621.1383 -3248.279 -621.1383 -3248.0036 -620.9605 -3247.826 L -618.29385 -3245.1592 C -618.1161 -3244.9814 -617.8405 -3244.9814 -617.66274 -3245.1592 C -617.48496 -3245.337 -617.48496 -3245.6125 -617.66274 -3245.7903 L -619.57384 -3247.7014 Z M -623.31605 -3256.5814 C -623.0672 -3256.5814 -622.8716 -3256.777 -622.8716 -3257.026 C -622.8716 -3257.2747 -623.0672 -3257.4703 -623.31605 -3257.4703 L -629.53825 -3257.4703 C -629.78714 -3257.4703 -629.9827 -3257.2747 -629.9827 -3257.026 C -629.9827 -3256.777 -629.78714 -3256.5814 -629.53825 -3256.5814 Z M -623.31605 -3252.137 C -623.0672 -3252.137 -622.8716 -3252.3325 -622.8716 -3252.5814 C -622.8716 -3252.8303 -623.0672 -3253.026 -623.31605 -3253.026 L -629.53825 -3253.026 C -629.78714 -3253.026 -629.9827 -3252.8303 -629.9827 -3252.5814 C -629.9827 -3252.3325 -629.78714 -3252.137 -629.53825 -3252.137 Z M -623.31605 -3247.6925 C -623.0672 -3247.6925 -622.8716 -3247.888 -622.8716 -3248.137 C -622.8716 -3248.386 -623.0672 -3248.5814 -623.31605 -3248.5814 L -629.53825 -3248.5814 C -629.78714 -3248.5814 -629.9827 -3248.386 -629.9827 -3248.137 C -629.9827 -3247.888 -629.78714 -3247.6925 -629.53825 -3247.6925 Z" fill="#c0e0ff"/>
      </g>
    </g>
  </g>
</svg>
