<svg height="25" viewBox="-634.483 -3263.748 25 25" width="25" xmlns="http://www.w3.org/2000/svg"><g fill="none"><path d="M-630.143-3263.248h16.32a3.84 3.84 0 0 1 3.84 3.84v16.32a3.84 3.84 0 0 1-3.84 3.84h-16.32a3.84 3.84 0 0 1-3.84-3.84v-16.32a3.84 3.84 0 0 1 3.84-3.84z" fill="#666"/><path d="M-630.143-3263.248h16.32a3.84 3.84 0 0 1 3.84 3.84v16.32a3.84 3.84 0 0 1-3.84 3.84h-16.32a3.84 3.84 0 0 1-3.84-3.84v-16.32a3.84 3.84 0 0 1 3.84-3.84z" stroke="#fff" stroke-linecap="round" stroke-linejoin="round" stroke-width=".25"/><path d="M-619.574-3247.693h3.369a2.223 2.223 0 0 0 2.222-2.222v-5.333a2.223 2.223 0 0 0-2.222-2.222h-3.555a.44.44 0 0 0-.445.444.44.44 0 0 0 .444.445h3.556c.738 0 1.333.595 1.333 1.333v5.333c0 .738-.595 1.334-1.333 1.334h-3.369l1.911-1.912a.44.44 0 0 0 0-.63.44.44 0 0 0-.63 0l-2.668 2.666a.44.44 0 0 0 0 .631l2.667 2.667a.44.44 0 0 0 .631 0 .44.44 0 0 0 0-.631l-1.91-1.911zm-3.742-8.888a.44.44 0 0 0 .444-.445.44.44 0 0 0-.444-.444h-6.222a.44.44 0 0 0-.445.444.44.44 0 0 0 .445.445zm0 4.444c.249 0 .444-.196.444-.444s-.195-.445-.444-.445h-6.222c-.25 0-.445.196-.445.445s.196.444.445.444zm0 4.444c.249 0 .444-.195.444-.444s-.195-.444-.444-.444h-6.222c-.25 0-.445.195-.445.444s.196.445.445.445z" fill="#c0e0ff"/></g></svg>