<svg height="24.75" viewBox="-916.375 -3566.241 24.75 24.75" width="24.75" xmlns="http://www.w3.org/2000/svg"><path d="m-909.5503-3549.4218c1.3334 1.6651 3.357 2.6668 5.5518 2.6668 3.7635 0 6.8695-2.9328 7.0977-6.671.015-.245.2257-.4313.4707-.4163.245.0149.4315.2256.4166.4707-.2568 4.2063-3.751 7.5056-7.985 7.5056-2.456 0-4.7224-1.116-6.2222-2.971v2.5263c0 .2457-.199.4447-.4445.4447-.2454 0-.4444-.199-.4444-.4447v-3.5553c0-.2457.199-.4447.4444-.4447h3.5556c.2455 0 .4444.199.4444.4447 0 .2452-.1989.4442-.4444.4442zm11.1036-8.8889c-1.3332-1.6649-3.3569-2.6666-5.5518-2.6666-3.7755 0-6.8875 2.9508-7.0996 6.7029-.0139.2451-.2238.4324-.4688.4187-.2451-.0139-.4325-.2238-.4187-.4688.2387-4.2222 3.7396-7.5417 7.9871-7.5417 2.4561 0 4.7226 1.1158 6.2222 2.9709v-2.5265c0-.2454.199-.4444.4445-.4444.2454 0 .4444.199.4444.4444v3.5556c0 .2454-.199.4444-.4444.4444h-3.5556c-.2454 0-.4444-.199-.4444-.4444 0-.2455.199-.4445.4444-.4445z" fill="#518738"/></svg>