<svg height="24.75" viewBox="269.991 -3324.519 24.75 24.75" width="24.75" xmlns="http://www.w3.org/2000/svg"><path d="M290.366-3306.365a2.221 2.221 0 0 1-2.221 2.221h-11.557a2.221 2.221 0 0 1-2.221-2.221v-11.558c0-1.227.994-2.221 2.221-2.221h11.557c1.226 0 2.22.994 2.22 2.221zm-.889-10.225v-1.333c0-.736-.596-1.333-1.332-1.333h-11.557c-.736 0-1.333.597-1.333 1.333v1.333zm0 .888h-14.222v9.337c0 .736.597 1.332 1.333 1.332h11.557c.736 0 1.332-.596 1.332-1.332zm-13.333-2.665h.888v.888h-.888zm1.777 0h.888v.888h-.888zm1.777 0h.888v.888h-.888z" fill="#a6967d"/></svg>