<svg height="24.75" viewBox="-859.664 -3566.241 24.75 24.75" width="24.75" xmlns="http://www.w3.org/2000/svg"><path d="m-853.9137-3556.451c-.7753 1.987-.6309 4.2405.4665 6.1412 1.8817 3.2593 5.9746 4.4828 9.3259 2.8115.2196-.1097.4865-.0203.5961.1993.1095.2197.0203.4866-.1994.596-3.7712 1.881-8.3754.5044-10.4924-3.1623-1.228-2.127-1.395-4.6477-.5382-6.8741l-2.188 1.2634c-.2126.1226-.4844.0497-.6071-.163-.1227-.2124-.0499-.4842.1627-.607l3.0792-1.7778c.2125-.1227.4844-.0498.6071.1628l1.7778 3.079c.1227.2127.0499.4845-.1627.6073-.2126.1227-.4844.0497-.6071-.1627zm13.2498 5.1714c.7753-1.987.631-4.2404-.4665-6.1414-1.8877-3.2695-5.9992-4.4892-9.3547-2.797-.2192.1107-.4864.0226-.597-.1966-.1105-.2191-.0225-.4864.1967-.5969 3.7759-1.9045 8.4011-.5325 10.5248 3.1462 1.2281 2.127 1.395 4.6477.5383 6.874l2.1879-1.2632c.2126-.1227.4844-.0499.6072.1625.1227.2127.0499.4846-.1627.6073l-3.0792 1.7777c-.2126.123-.4844.05-.6071-.1626l-1.7778-3.0794c-.1227-.2124-.0499-.4842.1627-.607.2125-.1227.4844-.05.6071.1627z" fill="#518738"/></svg>