<?xml version="1.0" encoding="UTF-8" standalone="no"?>
<!DOCTYPE svg PUBLIC "-//W3C//DTD SVG 1.1//EN" "http://www.w3.org/Graphics/SVG/1.1/DTD/svg11.dtd">
<svg version="1.1" xmlns="http://www.w3.org/2000/svg" xmlns:xl="http://www.w3.org/1999/xlink" xmlns:dc="http://purl.org/dc/elements/1.1/" viewBox="-889.7991 -3566.2412 24.75 24.75" width="24.75" height="24.75">
  <defs/>
  <g id="SOURCES" stroke-dasharray="none" fill="none" stroke="none" fill-opacity="1" stroke-opacity="1">
    <title>SOURCES</title>
    <g id="SOURCES_Calque_1">
      <title>Calque 1</title>
      <g id="Graphic_6517">
        <path d="M -884.4534 -3552.7926 C -884.1312 -3550.684 -882.8795 -3548.8047 -880.9788 -3547.7073 C -877.7195 -3545.8256 -873.5632 -3546.8123 -871.4966 -3549.9355 C -871.3611 -3550.14 -871.0854 -3550.1963 -870.8807 -3550.061 C -870.676 -3549.9254 -870.6199 -3549.6496 -870.7553 -3549.445 C -873.0809 -3545.9305 -877.7564 -3544.8205 -881.4232 -3546.9375 C -883.5501 -3548.1655 -884.9551 -3550.265 -885.3264 -3552.6215 L -886.5896 -3550.4335 C -886.7123 -3550.221 -886.9841 -3550.148 -887.1967 -3550.271 C -887.4093 -3550.3936 -887.4821 -3550.6654 -887.3594 -3550.878 L -885.5816 -3553.957 C -885.4589 -3554.1697 -885.1871 -3554.2426 -884.9745 -3554.12 L -881.8953 -3552.342 C -881.6827 -3552.2193 -881.6099 -3551.9475 -881.7326 -3551.735 C -881.8553 -3551.5224 -882.1272 -3551.4495 -882.3397 -3551.5723 L -884.4534 -3552.7926 Z M -870.393 -3554.939 C -870.7151 -3557.0473 -871.9668 -3558.9267 -873.8676 -3560.024 C -877.1373 -3561.912 -881.3078 -3560.9124 -883.3676 -3557.769 C -883.5021 -3557.5637 -883.7776 -3557.5063 -883.9829 -3557.641 C -884.1882 -3557.7754 -884.2456 -3558.051 -884.1111 -3558.256 C -881.7932 -3561.7934 -877.1017 -3562.9177 -873.4232 -3560.794 C -871.2961 -3559.566 -869.8912 -3557.4663 -869.52 -3555.11 L -868.2568 -3557.298 C -868.1341 -3557.5105 -867.8623 -3557.5833 -867.6497 -3557.4606 C -867.4371 -3557.338 -867.3643 -3557.066 -867.487 -3556.8535 L -869.2648 -3553.7743 C -869.3875 -3553.5617 -869.6593 -3553.489 -869.8719 -3553.6116 L -872.9511 -3555.3894 C -873.1637 -3555.512 -873.2365 -3555.784 -873.1138 -3555.9965 C -872.9911 -3556.209 -872.7192 -3556.282 -872.5067 -3556.159 Z" fill="#518738"/>
      </g>
      <g id="Graphic_6521"/>
    </g>
  </g>
</svg>
