<svg height="24.75" viewBox="-997.645 -3568.334 24.75 24.75" width="24.75" xmlns="http://www.w3.org/2000/svg"><path d="m-980.8256-3550.4078c1.665-1.3332 2.6667-3.3569 2.6667-5.5517 0-3.7635-2.9327-6.8695-6.6707-7.0977-.245-.0148-.4315-.2258-.4166-.4708.015-.245.2257-.4314.4707-.4165 4.2064.2568 7.5055 3.7509 7.5055 7.985 0 2.4559-1.1157 4.7225-2.9709 6.2222h2.5264c.2455 0 .4445.199.4445.4443 0 .2456-.199.4446-.4445.4446h-3.5555c-.2455 0-.4445-.199-.4445-.4446v-3.5554c0-.2456.199-.4446.4445-.4446.2454 0 .4444.199.4444.4446zm-8.8889-11.1035c-1.6649 1.3333-2.6667 3.3568-2.6667 5.5518 0 3.7755 2.9508 6.8875 6.703 7.0995.2451.014.4325.224.4186.469-.0138.245-.2237.4324-.4688.4186-4.2222-.2386-7.5416-3.7396-7.5416-7.9871 0-2.4561 1.1157-4.7225 2.9708-6.2223h-2.5264c-.2455 0-.4444-.1989-.4444-.4442 0-.2457.1989-.4446.4444-.4446h3.5556c.2454 0 .4444.1989.4444.4446v3.5554c0 .2456-.199.4446-.4444.4446-.2455 0-.4445-.199-.4445-.4446z" fill="#518738"/></svg>