<svg viewBox="-942.87 -3566.224 24.75 24.75" xmlns="http://www.w3.org/2000/svg"><path d="m-933.08-3547.225a7.111 7.111 0 0 0 8.953-9.792.444.444 0 1 1 .795-.397 8 8 0 0 1 -10.036 11.03l1.263 2.189a.444.444 0 1 1 -.77.444l-1.778-3.079a.445.445 0 0 1 .163-.607l3.08-1.778a.444.444 0 1 1 .444.77zm5.172-13.25a7.111 7.111 0 0 0 -8.938 9.821.444.444 0 0 1 -.794.401 8 8 0 0 1 10.02-11.063l-1.263-2.188a.444.444 0 1 1 .77-.445l1.777 3.08a.445.445 0 0 1 -.162.607l-3.08 1.777a.445.445 0 0 1 -.444-.77z" fill="#518738"/></svg>