<svg height="24.75" viewBox="-859.664 -3566.241 24.75 24.75" width="24.75" xmlns="http://www.w3.org/2000/svg"><path d="M-853.914-3556.451a7.112 7.112 0 0 0 9.792 8.953.444.444 0 1 1 .397.795 8 8 0 0 1-11.03-10.036l-2.188 1.263a.445.445 0 0 1-.445-.77l3.08-1.778a.444.444 0 0 1 .607.163l1.778 3.079a.445.445 0 0 1-.77.445zm13.25 5.171a7.112 7.112 0 0 0-9.821-8.938.444.444 0 1 1-.4-.794 8 8 0 0 1 11.063 10.02l2.188-1.262a.445.445 0 0 1 .444.77l-3.08 1.777a.444.444 0 0 1-.606-.163l-1.778-3.079a.444.444 0 1 1 .77-.444z" fill="#518738"/></svg>