<svg height="24.75" viewBox="270.702 -3498.186 24.75 24.75" width="24.75" xmlns="http://www.w3.org/2000/svg"><path d="m290.3651-3490.1877v10.3771c0 1.1046-.89538 1.9999-1.9999 1.9999h-8.79955c-1.10451 0-1.9999-.8953-1.9999-1.9999v-11.9994c0-1.1045.89539-2 1.9999-2h7.17725c.1062-.0066.21674.029.3052.1173l3.19986 3.1997c.08848.0886.12388.199.11714.3053zm-3.9998-2.8223h-6.79965c-.66271 0-1.19995.5373-1.19995 1.2v11.9994c0 .6626.53724 1.2 1.19995 1.2h8.79955c.6627 0 1.19995-.5374 1.19995-1.2v-9.9994h-2.79985c-.2209 0-.4-.179-.4-.4zm.79997.5657v1.8343h1.83423zm-5.9997 5.0333c-.2209 0-.39997-.179-.39997-.4s.17907-.4.39997-.4h5.59973c.2209 0 .39997.179.39997.4s-.17907.4-.39997.4zm0 2.4c-.2209 0-.39997-.179-.39997-.4s.17907-.4.39997-.4h5.59973c.2209 0 .39997.179.39997.4s-.17907.4-.39997.4zm0 2.3998c-.2209 0-.39997-.1791-.39997-.4 0-.2208.17907-.3998.39997-.3998h3.9998c.2209 0 .39998.179.39998.3998 0 .2209-.17908.4-.39998.4z" fill="#666"/></svg>