<svg height="24.75" viewBox="269.991 -3359.674 24.75 24.75" width="24.75" xmlns="http://www.w3.org/2000/svg"><path d="m282.78692-3346.036c0 .2325-.1885.421-.42102.421-.23253 0-.42103-.1885-.42103-.421v-3.368c0-.2327.1885-.421.42103-.421.23252 0 .42102.1883.42102.421zm-.84205 2.105h.84205v.842h-.84205zm.04893-10.7224c.15814-.2986.58605-.2986.7442 0l7.5784 14.3147c.14845.2804-.05482.6181-.3721.6181h-15.1568c-.3173 0-.52056-.3377-.3721-.6181zm-6.50704 14.0907h13.75827l-6.87913-12.9939z" fill="#9f4d4e"/></svg>