<svg height="24.75" viewBox="-942.87 -3566.224 24.75 24.75" width="24.75" xmlns="http://www.w3.org/2000/svg"><path d="m-933.0799-3547.225c1.9872.7754 4.2406.631 6.1413-.4664 3.2593-1.8816 4.4829-5.9746 2.8115-9.3259-.1096-.2197-.0203-.4867.1993-.596.2197-.1097.4866-.0203.5961.1993 1.8808 3.7712.5043 8.3754-3.1624 10.4924-2.127 1.228-4.6476 1.3951-6.8741.5383l1.2632 2.1879c.1228.2124.0499.4844-.1626.6071-.2126.1228-.4844.0499-.6072-.1627l-1.7777-3.079c-.1228-.2127-.0499-.4845.1626-.6073l3.0792-1.7777c.2126-.1228.4844-.05.6072.1626.1227.2124.0499.4844-.1627.6072zm5.1715-13.2497c-1.987-.7753-4.2404-.631-6.1413.4667-3.2696 1.8875-4.4893 5.999-2.797 9.3545.1106.2192.0225.4865-.1966.597-.2192.1105-.4865.0225-.597-.1965-1.9044-3.776-.5323-8.4012 3.1462-10.525 2.127-1.228 4.6477-1.395 6.874-.5383l-1.2632-2.1879c-.1227-.2128-.0499-.4844.1627-.6071.2125-.1227.4844-.0499.6071.1626l1.7778 3.0792c.1227.2125.0499.4845-.1627.6072l-3.0792 1.7777c-.2126.1226-.4844.0499-.6071-.1626-.1228-.2128-.0499-.4844.1626-.6072z" fill="#518738"/></svg>