<?xml version="1.0" encoding="UTF-8" standalone="no"?>
<!DOCTYPE svg PUBLIC "-//W3C//DTD SVG 1.1//EN" "http://www.w3.org/Graphics/SVG/1.1/DTD/svg11.dtd">
<svg xmlns:dc="http://purl.org/dc/elements/1.1/" xmlns="http://www.w3.org/2000/svg" xmlns:xl="http://www.w3.org/1999/xlink" version="1.1" viewBox="269.9909 -3393.9858 24.75 24.75" width="24.75" height="24.75">
  <defs/>
  <g id="SOURCES" stroke="none" stroke-opacity="1" fill="none" stroke-dasharray="none" fill-opacity="1">
    <title>SOURCES</title>
    <g id="SOURCES_Calque_1">
      <title>Calque 1</title>
      <g id="Graphic_6313">
        <path d="M 282.8365 -3379.5726 L 285.79786 -3382.3695 C 285.98164 -3382.543 286.2796 -3382.543 286.46337 -3382.3695 C 286.64715 -3382.196 286.64715 -3381.9145 286.46337 -3381.741 L 282.69867 -3378.1854 C 282.5149 -3378.012 282.21693 -3378.012 282.03315 -3378.1854 L 278.26845 -3381.741 C 278.08467 -3381.9145 278.08467 -3382.196 278.26845 -3382.3695 C 278.45222 -3382.543 278.75018 -3382.543 278.93396 -3382.3695 L 281.89532 -3379.5726 L 281.89532 -3389.1663 C 281.89532 -3389.4118 282.106 -3389.6108 282.3659 -3389.6108 C 282.6258 -3389.6108 282.8365 -3389.4118 282.8365 -3389.1663 Z M 289.42473 -3378.4996 C 289.42473 -3378.745 289.63542 -3378.944 289.89532 -3378.944 C 290.15522 -3378.944 290.3659 -3378.745 290.3659 -3378.4996 L 290.3659 -3375.833 C 290.3659 -3374.6057 289.31246 -3373.6108 288.01297 -3373.6108 L 276.71885 -3373.6108 C 275.41936 -3373.6108 274.3659 -3374.6057 274.3659 -3375.833 L 274.3659 -3378.4996 C 274.3659 -3378.745 274.5766 -3378.944 274.8365 -3378.944 C 275.0964 -3378.944 275.3071 -3378.745 275.3071 -3378.4996 L 275.3071 -3375.833 C 275.3071 -3375.0966 275.93915 -3374.4996 276.71885 -3374.4996 L 288.01297 -3374.4996 C 288.79266 -3374.4996 289.42473 -3375.0966 289.42473 -3375.833 Z" fill="#528738"/>
      </g>
      <g id="Graphic_6318"/>
    </g>
  </g>
</svg>
