<svg xmlns="http://www.w3.org/2000/svg" viewBox="270.702 -3463.452 24.75 24.75"><path d="M290.188-3456.41v11.11a2.222 2.222 0 0 1-2.222 2.223h-8a2.222 2.222 0 0 1-2.222-2.223v-11.11h-.445a.444.444 0 1 1 0-.89h4v-.444c0-.736.597-1.333 1.334-1.333h2.666c.737 0 1.334.597 1.334 1.333v.444h4a.444.444 0 0 1 0 .89zm-11.555 0v11.11c0 .737.596 1.334 1.333 1.334h8c.736 0 1.333-.597 1.333-1.334v-11.11zm7.11-.89v-.444a.444.444 0 0 0-.444-.445h-2.666a.444.444 0 0 0-.445.445v.444zm0 4a.444.444 0 0 1 .89 0v6.223a.444.444 0 0 1-.89 0zm-4.444 0a.444.444 0 0 1 .889 0v6.223a.444.444 0 0 1-.889 0z" fill="#d2673a"/></svg>