<svg height="24.75" viewBox="-970.281 -3567.303 24.75 24.75" width="24.75" xmlns="http://www.w3.org/2000/svg"><path d="M-956.833-3547.898a7.111 7.111 0 0 0 2.857-12.957.444.444 0 0 1 .491-.742 8 8 0 0 1-3.177 14.572l2.188 1.263a.444.444 0 1 1-.444.77l-3.08-1.778a.445.445 0 0 1-.162-.607l1.778-3.08a.444.444 0 1 1 .77.445zm-2.146-14.06a7.112 7.112 0 0 0-2.83 12.975.444.444 0 1 1-.487.742 8 8 0 0 1 3.146-14.59l-2.188-1.264a.444.444 0 1 1 .444-.77l3.08 1.778a.444.444 0 0 1 .162.607l-1.778 3.08a.444.444 0 1 1-.77-.445z" fill="#518738"/></svg>