<?xml version="1.0" encoding="UTF-8" standalone="no"?>
<!DOCTYPE svg PUBLIC "-//W3C//DTD SVG 1.1//EN" "http://www.w3.org/Graphics/SVG/1.1/DTD/svg11.dtd">
<svg version="1.1" xmlns="http://www.w3.org/2000/svg" xmlns:xl="http://www.w3.org/1999/xlink" xmlns:dc="http://purl.org/dc/elements/1.1/" viewBox="-916.3745 -3566.2412 24.75 24.75" width="24.75" height="24.75">
  <defs/>
  <g id="SOURCES" stroke-dasharray="none" fill="none" stroke="none" fill-opacity="1" stroke-opacity="1">
    <title>SOURCES</title>
    <g id="SOURCES_Calque_1">
      <title>Calque 1</title>
      <g id="Graphic_6516">
        <path d="M -909.5503 -3549.4218 C -908.2169 -3547.7567 -906.1933 -3546.755 -903.9985 -3546.755 C -900.235 -3546.755 -897.129 -3549.6878 -896.9008 -3553.426 C -896.8858 -3553.671 -896.6751 -3553.8573 -896.4301 -3553.8423 C -896.1851 -3553.8274 -895.9986 -3553.6167 -896.0135 -3553.3716 C -896.2703 -3549.1653 -899.7645 -3545.866 -903.9985 -3545.866 C -906.4545 -3545.866 -908.7209 -3546.982 -910.2207 -3548.837 L -910.2207 -3546.3107 C -910.2207 -3546.065 -910.4197 -3545.866 -910.6652 -3545.866 C -910.9106 -3545.866 -911.1096 -3546.065 -911.1096 -3546.3107 L -911.1096 -3549.866 C -911.1096 -3550.1117 -910.9106 -3550.3107 -910.6652 -3550.3107 L -907.1096 -3550.3107 C -906.8641 -3550.3107 -906.6652 -3550.1117 -906.6652 -3549.866 C -906.6652 -3549.6208 -906.8641 -3549.4218 -907.1096 -3549.4218 L -909.5503 -3549.4218 Z M -898.4467 -3558.3107 C -899.7799 -3559.9756 -901.8036 -3560.9773 -903.9985 -3560.9773 C -907.774 -3560.9773 -910.886 -3558.0265 -911.0981 -3554.2744 C -911.112 -3554.0293 -911.3219 -3553.842 -911.5669 -3553.8557 C -911.812 -3553.8696 -911.9994 -3554.0795 -911.9856 -3554.3245 C -911.7469 -3558.5467 -908.246 -3561.8662 -903.9985 -3561.8662 C -901.5424 -3561.8662 -899.2759 -3560.7504 -897.7763 -3558.8953 L -897.7763 -3561.4218 C -897.7763 -3561.6672 -897.5773 -3561.8662 -897.3318 -3561.8662 C -897.0864 -3561.8662 -896.8874 -3561.6672 -896.8874 -3561.4218 L -896.8874 -3557.8662 C -896.8874 -3557.6208 -897.0864 -3557.4218 -897.3318 -3557.4218 L -900.8874 -3557.4218 C -901.1328 -3557.4218 -901.3318 -3557.6208 -901.3318 -3557.8662 C -901.3318 -3558.1117 -901.1328 -3558.3107 -900.8874 -3558.3107 Z" fill="#518738"/>
      </g>
      <g id="Graphic_6520"/>
      <g id="Graphic_6523"/>
    </g>
  </g>
</svg>
