<?xml version="1.0" encoding="UTF-8" standalone="no"?>
<!DOCTYPE svg PUBLIC "-//W3C//DTD SVG 1.1//EN" "http://www.w3.org/Graphics/SVG/1.1/DTD/svg11.dtd">
<svg xmlns:dc="http://purl.org/dc/elements/1.1/" xmlns:xl="http://www.w3.org/1999/xlink" version="1.1" xmlns="http://www.w3.org/2000/svg" viewBox="-577.67636 -3817.6782 17.320328 17.26394" width="17.320328" height="17.26394">
  <defs/>
  <g id="SOURCES" stroke-dasharray="none" stroke="none" stroke-opacity="1" fill="none" fill-opacity="1">
    <title>SOURCES</title>
    <g id="SOURCES_Calque_2">
      <title>Calque 2</title>
      <g id="Graphic_10022">
        <path d="M -572.95545 -3807.5215 C -576.549 -3807.9547 -578.5065 -3812.046 -576.49186 -3815.0796 C -573.6096 -3819.4226 -567.036 -3816.9367 -567.43615 -3811.6486 C -567.59366 -3809.5552 -569.0926 -3808.394 -569.466 -3806.5015 C -570.34125 -3802.0696 -564.7953 -3799.9406 -562.3157 -3803.5736 C -560.6301 -3806.044 -562.3983 -3809.5146 -565.3656 -3809.728 C -565.748 -3809.7547 -566.4212 -3809.5565 -566.53935 -3810.053 C -566.6727 -3810.6134 -566.049 -3810.6477 -565.6616 -3810.6464 C -561.9702 -3810.631 -559.5643 -3806.6425 -561.3135 -3803.397 C -563.7994 -3798.782 -570.88746 -3800.68 -570.453 -3806.0557 C -570.22565 -3808.8667 -567.5327 -3810.3326 -568.5006 -3813.4524 C -569.5778 -3816.92 -574.0669 -3817.484 -575.8542 -3814.3403 C -577.2667 -3811.8557 -575.5963 -3808.7143 -572.7624 -3808.4234 C -572.9656 -3808.84 -573.38734 -3809.211 -573.6058 -3809.6073 C -573.8751 -3810.095 -573.2959 -3810.631 -572.8221 -3810.1116 C -572.30634 -3809.545 -571.88716 -3808.788 -571.3549 -3808.2176 C -571.2228 -3807.979 -571.2863 -3807.73 -571.4337 -3807.514 C -572.11834 -3807.119 -572.8005 -3806.3326 -573.4712 -3805.9667 C -573.8561 -3805.757 -574.34004 -3806.1014 -574.13425 -3806.5307 C -573.992 -3806.828 -572.9631 -3807.4453 -572.9529 -3807.5215 Z" fill="#5c76a1"/>
      </g>
    </g>
  </g>
</svg>
