<?xml version="1.0" encoding="UTF-8" standalone="no"?>
<!DOCTYPE svg PUBLIC "-//W3C//DTD SVG 1.1//EN" "http://www.w3.org/Graphics/SVG/1.1/DTD/svg11.dtd">
<svg xmlns:dc="http://purl.org/dc/elements/1.1/" xmlns="http://www.w3.org/2000/svg" xmlns:xl="http://www.w3.org/1999/xlink" version="1.1" viewBox="270.70194 -3463.4524 24.75 24.75" width="24.75" height="24.75">
  <defs/>
  <g id="SOURCES" stroke="none" stroke-opacity="1" fill="none" stroke-dasharray="none" fill-opacity="1">
    <title>SOURCES</title>
    <g id="SOURCES_Calque_1">
      <title>Calque 1</title>
      <g id="Graphic_6316">
        <path d="M 290.18805 -3456.4107 L 290.18805 -3445.2996 C 290.18805 -3444.0723 289.19313 -3443.0774 287.96583 -3443.0774 L 279.96583 -3443.0774 C 278.73853 -3443.0774 277.7436 -3444.0723 277.7436 -3445.2996 L 277.7436 -3456.4107 L 277.29916 -3456.4107 C 277.0537 -3456.4107 276.85472 -3456.6097 276.85472 -3456.855 C 276.85472 -3457.1006 277.0537 -3457.2996 277.29916 -3457.2996 L 281.29916 -3457.2996 L 281.29916 -3457.744 C 281.29916 -3458.4804 281.89612 -3459.0774 282.6325 -3459.0774 L 285.29916 -3459.0774 C 286.03554 -3459.0774 286.6325 -3458.4804 286.6325 -3457.744 L 286.6325 -3457.2996 L 290.6325 -3457.2996 C 290.87796 -3457.2996 291.07694 -3457.1006 291.07694 -3456.855 C 291.07694 -3456.6097 290.87796 -3456.4107 290.6325 -3456.4107 Z M 278.6325 -3456.4107 L 278.6325 -3445.2996 C 278.6325 -3444.5632 279.22945 -3443.9663 279.96583 -3443.9663 L 287.96583 -3443.9663 C 288.7022 -3443.9663 289.29916 -3444.5632 289.29916 -3445.2996 L 289.29916 -3456.4107 Z M 285.7436 -3457.2996 L 285.7436 -3457.744 C 285.7436 -3457.9895 285.54462 -3458.1885 285.29916 -3458.1885 L 282.6325 -3458.1885 C 282.38704 -3458.1885 282.18805 -3457.9895 282.18805 -3457.744 L 282.18805 -3457.2996 Z M 285.7436 -3453.2996 C 285.7436 -3453.545 285.9426 -3453.744 286.18805 -3453.744 C 286.4335 -3453.744 286.6325 -3453.545 286.6325 -3453.2996 L 286.6325 -3447.0774 C 286.6325 -3446.832 286.4335 -3446.633 286.18805 -3446.633 C 285.9426 -3446.633 285.7436 -3446.832 285.7436 -3447.0774 Z M 281.29916 -3453.2996 C 281.29916 -3453.545 281.49815 -3453.744 281.7436 -3453.744 C 281.98907 -3453.744 282.18805 -3453.545 282.18805 -3453.2996 L 282.18805 -3447.0774 C 282.18805 -3446.832 281.98907 -3446.633 281.7436 -3446.633 C 281.49815 -3446.633 281.29916 -3446.832 281.29916 -3447.0774 Z" fill="#d2673a"/>
      </g>
      <g id="Graphic_6320"/>
    </g>
  </g>
</svg>
