<svg xmlns="http://www.w3.org/2000/svg" viewBox="269.991 -3428.719 24.75 24.75"><path d="M290.188-3421.677v-.445c0-.736-.597-1.333-1.333-1.333h-11.556c-.736 0-1.333.597-1.333 1.333v.445zm0 .889h-14.222v10.222c0 .736.597 1.333 1.333 1.333h11.556c.736 0 1.333-.597 1.333-1.333zm-15.111-1.334c0-1.227.995-2.222 2.222-2.222h11.556c1.227 0 2.222.995 2.222 2.222v11.556a2.222 2.222 0 0 1-2.222 2.222h-11.556a2.222 2.222 0 0 1-2.222-2.222zm9.778 4.445c0-.737.597-1.334 1.333-1.334h.889c.736 0 1.333.597 1.333 1.334v5.333c0 .736-.597 1.333-1.333 1.333h-.889a1.333 1.333 0 0 1-1.333-1.333zm.889 0v5.333c0 .245.199.444.444.444h.889a.444.444 0 0 0 .444-.444v-5.333a.445.445 0 0 0-.444-.445h-.889a.444.444 0 0 0-.444.445zm-7.556-.445a.444.444 0 1 1 0-.889h4.445a.444.444 0 0 1 0 .889zm0 1.778a.444.444 0 0 1 0-.889h4.445a.444.444 0 0 1 0 .889zm0 1.778a.444.444 0 0 1 0-.889h2.667a.444.444 0 1 1 0 .889zm.889.889h2.667a1.333 1.333 0 0 1 0 2.666h-2.667a1.333 1.333 0 0 1 0-2.666zm0 .889a.444.444 0 0 0 0 .888h2.667a.444.444 0 1 0 0-.889z" fill="#1572a4"/></svg>