<svg height="24.75" viewBox="270.702 -3498.186 24.75 24.75" width="24.75" xmlns="http://www.w3.org/2000/svg"><path d="M290.365-3490.188v10.377a2 2 0 0 1-2 2h-8.8a2 2 0 0 1-2-2v-11.999a2 2 0 0 1 2-2h7.178a.393.393 0 0 1 .305.117l3.2 3.2a.392.392 0 0 1 .117.305zm-4-2.822h-6.8a1.2 1.2 0 0 0-1.2 1.2v12a1.2 1.2 0 0 0 1.2 1.2h8.8a1.2 1.2 0 0 0 1.2-1.2v-10h-2.8a.4.4 0 0 1-.4-.4zm.8.566v1.834H289zm-6 5.033a.4.4 0 1 1 0-.8h5.6a.4.4 0 1 1 0 .8zm0 2.4a.4.4 0 1 1 0-.8h5.6a.4.4 0 1 1 0 .8zm0 2.4a.4.4 0 0 1 0-.8h4a.4.4 0 1 1 0 .8z" fill="#666"/></svg>