<svg height="24.75" viewBox="269.991 -3324.519 24.75 24.75" width="24.75" xmlns="http://www.w3.org/2000/svg"><path d="m290.3659-3306.3653c0 1.2267-.99445 2.2213-2.2212 2.2213h-11.5565c-1.22674 0-2.2212-.9946-2.2212-2.2213v-11.5577c0-1.2267.99446-2.221 2.2212-2.221h11.5565c1.22675 0 2.2212.9943 2.2212 2.221zm-.88847-10.2249v-1.3328c0-.736-.59668-1.3327-1.33273-1.3327h-11.5565c-.73605 0-1.33273.5967-1.33273 1.3327v1.3328zm0 .8885h-14.22196v9.3364c0 .736.59668 1.3327 1.33273 1.3327h11.5565c.73605 0 1.33273-.5967 1.33273-1.3327zm-13.33348-2.6653h.88848v.8883h-.88848zm1.77695 0h.8885v.8883h-.8885zm1.77696 0h.88848v.8883h-.88848z" fill="#a6967d"/></svg>