<svg height="24.75" viewBox="269.991 -3393.986 24.75 24.75" width="24.75" xmlns="http://www.w3.org/2000/svg"><path d="m282.8365-3379.5726 2.96136-2.7969c.18378-.1735.48174-.1735.66551 0 .18378.1735.18378.455 0 .6285l-3.7647 3.5556c-.18377.1734-.48174.1734-.66552 0l-3.7647-3.5556c-.18378-.1735-.18378-.455 0-.6285.18377-.1735.48173-.1735.66551 0l2.96136 2.7969v-9.5937c0-.2455.21068-.4445.47058-.4445s.4706.199.4706.4445zm6.58823 1.073c0-.2454.21069-.4444.47059-.4444s.47058.199.47058.4444v2.6666c0 1.2273-1.05344 2.2222-2.35293 2.2222h-11.29412c-1.29949 0-2.35295-.9949-2.35295-2.2222v-2.6666c0-.2454.2107-.4444.4706-.4444s.4706.199.4706.4444v2.6666c0 .7364.63205 1.3334 1.41175 1.3334h11.29412c.77969 0 1.41176-.597 1.41176-1.3334z" fill="#528738"/></svg>