<?xml version="1.0" encoding="UTF-8" standalone="no"?>
<!DOCTYPE svg PUBLIC "-//W3C//DTD SVG 1.1//EN" "http://www.w3.org/Graphics/SVG/1.1/DTD/svg11.dtd">
<svg xmlns:dc="http://purl.org/dc/elements/1.1/" xmlns="http://www.w3.org/2000/svg" xmlns:xl="http://www.w3.org/1999/xlink" version="1.1" viewBox="269.9909 -3359.674 24.75 24.75" width="24.75" height="24.75">
  <defs/>
  <g id="SOURCES" stroke="none" stroke-opacity="1" fill="none" stroke-dasharray="none" fill-opacity="1">
    <title>SOURCES</title>
    <g id="SOURCES_Calque_1">
      <title>Calque 1</title>
      <g id="Graphic_6323">
        <path d="M 282.78692 -3346.036 C 282.78692 -3345.8035 282.59842 -3345.615 282.3659 -3345.615 C 282.13337 -3345.615 281.94487 -3345.8035 281.94487 -3346.036 L 281.94487 -3349.404 C 281.94487 -3349.6367 282.13337 -3349.825 282.3659 -3349.825 C 282.59842 -3349.825 282.78692 -3349.6367 282.78692 -3349.404 Z M 281.94487 -3343.931 L 282.78692 -3343.931 L 282.78692 -3343.089 L 281.94487 -3343.089 Z M 281.9938 -3354.6534 C 282.15194 -3354.952 282.57985 -3354.952 282.738 -3354.6534 L 290.3164 -3340.3387 C 290.46485 -3340.0583 290.26158 -3339.7206 289.9443 -3339.7206 L 274.7875 -3339.7206 C 274.4702 -3339.7206 274.26694 -3340.0583 274.4154 -3340.3387 Z M 275.48676 -3340.5627 L 289.24503 -3340.5627 L 282.3659 -3353.5566 Z" fill="#9f4d4e"/>
      </g>
      <g id="Graphic_6324"/>
    </g>
  </g>
</svg>
