<svg height="24.75" viewBox="-997.645 -3568.334 24.75 24.75" width="24.75" xmlns="http://www.w3.org/2000/svg"><path d="M-980.826-3550.408a7.111 7.111 0 0 0-4.004-12.65.445.445 0 0 1 .054-.886 8 8 0 0 1 4.535 14.207h2.526a.444.444 0 1 1 0 .889h-3.555a.445.445 0 0 1-.445-.445v-3.555a.445.445 0 1 1 .89 0zm-8.888-11.103a7.111 7.111 0 0 0 4.036 12.651.445.445 0 0 1-.05.888 8 8 0 0 1-4.571-14.21h-2.527a.444.444 0 1 1 0-.889h3.556c.245 0 .444.2.444.445v3.555a.444.444 0 1 1-.888 0z" fill="#518738"/></svg>