<svg height="24.75" viewBox="-889.799 -3566.241 24.75 24.75" width="24.75" xmlns="http://www.w3.org/2000/svg"><path d="m-884.4534-3552.7926c.3222 2.1086 1.5739 3.9879 3.4746 5.0853 3.2593 1.8817 7.4156.895 9.4822-2.2282.1355-.2045.4112-.2608.6159-.1255.2047.1356.2608.4114.1254.616-2.3256 3.5145-7.0011 4.6245-10.6679 2.5075-2.1269-1.228-3.5319-3.3275-3.9032-5.684l-1.2632 2.188c-.1227.2125-.3945.2855-.6071.1625-.2126-.1226-.2854-.3944-.1627-.607l1.7778-3.079c.1227-.2127.3945-.2856.6071-.163l3.0792 1.778c.2126.1227.2854.3945.1627.607-.1227.2126-.3946.2855-.6071.1627zm14.0604-2.1464c-.3221-2.1083-1.5738-3.9877-3.4746-5.085-3.2697-1.888-7.4402-.8884-9.5 2.255-.1345.2053-.41.2627-.6153.128-.2053-.1344-.2627-.41-.1282-.615 2.3179-3.5374 7.0094-4.6617 10.6879-2.538 2.1271 1.228 3.532 3.3277 3.9032 5.684l1.2632-2.188c.1227-.2125.3945-.2853.6071-.1626.2126.1226.2854.3946.1627.6071l-1.7778 3.0792c-.1227.2126-.3945.2853-.6071.1627l-3.0792-1.7778c-.2126-.1226-.2854-.3946-.1627-.6071s.3946-.2855.6071-.1625z" fill="#518738"/></svg>