<svg height="17.264" viewBox="-577.676 -3817.678 17.32 17.264" width="17.32" xmlns="http://www.w3.org/2000/svg"><path d="M-572.955-3807.521c-3.594-.434-5.552-4.525-3.537-7.559 2.882-4.343 9.456-1.857 9.056 3.431-.158 2.094-1.657 3.255-2.03 5.147-.875 4.432 4.67 6.561 7.15 2.928 1.686-2.47-.082-5.94-3.05-6.154-.382-.027-1.055.172-1.173-.325-.134-.56.49-.595.877-.593 3.692.015 6.098 4.004 4.348 7.249-2.485 4.615-9.573 2.717-9.139-2.659.227-2.81 2.92-4.277 1.952-7.396-1.077-3.468-5.566-4.032-7.353-.888-1.413 2.484.258 5.626 3.092 5.917-.204-.417-.625-.788-.844-1.184-.27-.488.31-1.024.784-.505.516.567.935 1.324 1.467 1.894.132.239.069.488-.079.704-.684.395-1.367 1.181-2.037 1.547-.385.21-.869-.134-.663-.564.142-.297 1.17-.914 1.181-.99z" fill="#5c76a1"/></svg>