<svg height="17.264" viewBox="-577.676 -3817.678 17.32 17.264" width="17.32" xmlns="http://www.w3.org/2000/svg"><path d="m-572.95545-3807.5215c-3.59355-.4332-5.55105-4.5245-3.53641-7.5581 2.88226-4.343 9.45586-1.8571 9.05571 3.431-.15751 2.0934-1.65645 3.2546-2.02985 5.1471-.87525 4.4319 4.6707 6.5609 7.1503 2.9279 1.6856-2.4704-.0826-5.941-3.0499-6.1544-.3824-.0267-1.0556.1715-1.17375-.325-.13335-.5604.49035-.5947.87775-.5934 3.6914.0154 6.0973 4.0039 4.3481 7.2494-2.4859 4.615-9.57396 2.717-9.1395-2.6587.22735-2.811 2.9203-4.2769 1.9524-7.3967-1.0772-3.4676-5.5663-4.0316-7.3536-.8879-1.4125 2.4846.2579 5.626 3.0918 5.9169-.2032-.4166-.62494-.7876-.8434-1.1839-.2693-.4877.3099-1.0237.7837-.5043.51576.5666.93494 1.3236 1.4672 1.894.1321.2386.0686.4876-.0788.7036-.68464.395-1.3668 1.1814-2.0375 1.5473-.3849.2097-.86884-.1347-.66305-.564.14225-.2973 1.17115-.9146 1.18135-.9908z" fill="#5c76a1"/></svg>