<svg xmlns="http://www.w3.org/2000/svg" viewBox="269.991 -3393.986 24.75 24.75"><path d="m282.837-3379.573 2.96-2.796a.49.49 0 0 1 .666 0 .427.427 0 0 1 0 .628l-3.764 3.556a.49.49 0 0 1-.666 0l-3.765-3.556a.427.427 0 0 1 0-.628.49.49 0 0 1 .666 0l2.961 2.796v-9.593c0-.246.211-.445.47-.445.26 0 .471.2.471.445zm6.588 1.073c0-.245.21-.444.47-.444s.47.199.47.444v2.667c0 1.227-1.053 2.222-2.352 2.222h-11.294c-1.3 0-2.353-.995-2.353-2.222v-2.667c0-.245.21-.444.47-.444s.471.199.471.444v2.667c0 .736.632 1.333 1.412 1.333h11.294c.78 0 1.412-.597 1.412-1.333z" fill="#528738"/></svg>