<?xml version="1.0" encoding="UTF-8" standalone="no"?>
<!DOCTYPE svg PUBLIC "-//W3C//DTD SVG 1.1//EN" "http://www.w3.org/Graphics/SVG/1.1/DTD/svg11.dtd">
<svg version="1.1" xmlns="http://www.w3.org/2000/svg" xmlns:xl="http://www.w3.org/1999/xlink" xmlns:dc="http://purl.org/dc/elements/1.1/" viewBox="-997.645 -3568.3335 24.75 24.75" width="24.75" height="24.75">
  <defs/>
  <g id="SOURCES" stroke-dasharray="none" fill="none" stroke="none" fill-opacity="1" stroke-opacity="1">
    <title>SOURCES</title>
    <g id="SOURCES_Calque_1">
      <title>Calque 1</title>
      <g id="Graphic_6509">
        <path d="M -980.8256 -3550.4078 C -979.1606 -3551.741 -978.1589 -3553.7647 -978.1589 -3555.9595 C -978.1589 -3559.723 -981.0916 -3562.829 -984.8296 -3563.0572 C -985.0746 -3563.072 -985.2611 -3563.283 -985.2462 -3563.528 C -985.2312 -3563.773 -985.0205 -3563.9594 -984.7755 -3563.9445 C -980.5691 -3563.6877 -977.27 -3560.1936 -977.27 -3555.9595 C -977.27 -3553.5036 -978.3857 -3551.237 -980.2409 -3549.7373 L -977.7145 -3549.7373 C -977.469 -3549.7373 -977.27 -3549.5383 -977.27 -3549.293 C -977.27 -3549.0474 -977.469 -3548.8484 -977.7145 -3548.8484 L -981.27 -3548.8484 C -981.5155 -3548.8484 -981.7145 -3549.0474 -981.7145 -3549.293 L -981.7145 -3552.8484 C -981.7145 -3553.094 -981.5155 -3553.293 -981.27 -3553.293 C -981.0246 -3553.293 -980.8256 -3553.094 -980.8256 -3552.8484 L -980.8256 -3550.4078 Z M -989.7145 -3561.5113 C -991.3794 -3560.178 -992.3812 -3558.1545 -992.3812 -3555.9595 C -992.3812 -3552.184 -989.4304 -3549.072 -985.6782 -3548.86 C -985.4331 -3548.846 -985.2457 -3548.636 -985.2596 -3548.391 C -985.2734 -3548.146 -985.4833 -3547.9586 -985.7284 -3547.9724 C -989.9506 -3548.211 -993.27 -3551.712 -993.27 -3555.9595 C -993.27 -3558.4156 -992.1543 -3560.682 -990.2992 -3562.1818 L -992.8256 -3562.1818 C -993.0711 -3562.1818 -993.27 -3562.3807 -993.27 -3562.626 C -993.27 -3562.8717 -993.0711 -3563.0706 -992.8256 -3563.0706 L -989.27 -3563.0706 C -989.0246 -3563.0706 -988.8256 -3562.8717 -988.8256 -3562.626 L -988.8256 -3559.0706 C -988.8256 -3558.825 -989.0246 -3558.626 -989.27 -3558.626 C -989.5155 -3558.626 -989.7145 -3558.825 -989.7145 -3559.0706 Z" fill="#518738"/>
      </g>
      <g id="Graphic_6525"/>
    </g>
  </g>
</svg>
