<svg xmlns="http://www.w3.org/2000/svg" viewBox="-889.799 -3566.241 24.75 24.75"><path d="M-884.453-3552.793a7.112 7.112 0 0 0 12.957 2.857.445.445 0 0 1 .74.491 8 8 0 0 1-14.57-3.177l-1.264 2.188a.444.444 0 1 1-.77-.444l1.778-3.079a.445.445 0 0 1 .607-.163l3.08 1.778a.444.444 0 1 1-.445.77l-2.113-1.22zm14.06-2.146a7.111 7.111 0 0 0-12.975-2.83.444.444 0 0 1-.743-.487 8 8 0 0 1 14.591 3.146l1.263-2.188a.444.444 0 0 1 .77.444l-1.778 3.08a.445.445 0 0 1-.607.162l-3.08-1.777a.444.444 0 1 1 .445-.77z" fill="#518738"/></svg>