<?xml version="1.0" encoding="UTF-8" standalone="no"?>
<!DOCTYPE svg PUBLIC "-//W3C//DTD SVG 1.1//EN" "http://www.w3.org/Graphics/SVG/1.1/DTD/svg11.dtd">
<svg version="1.1" xmlns="http://www.w3.org/2000/svg" xmlns:xl="http://www.w3.org/1999/xlink" xmlns:dc="http://purl.org/dc/elements/1.1/" viewBox="-970.2813 -3567.3027 24.75 24.75" width="24.75" height="24.75">
  <defs/>
  <g id="SOURCES" stroke-dasharray="none" fill="none" stroke="none" fill-opacity="1" stroke-opacity="1">
    <title>SOURCES</title>
    <g id="SOURCES_Calque_1">
      <title>Calque 1</title>
      <g id="Graphic_6514">
        <path d="M -956.8327 -3547.8984 C -954.724 -3548.2205 -952.8448 -3549.4723 -951.7474 -3551.373 C -949.8657 -3554.6323 -950.8524 -3558.7885 -953.9755 -3560.855 C -954.1803 -3560.9906 -954.2364 -3561.2664 -954.1009 -3561.471 C -953.9655 -3561.6758 -953.6897 -3561.732 -953.485 -3561.5965 C -949.9706 -3559.271 -948.8606 -3554.5953 -950.9776 -3550.9286 C -952.2056 -3548.8016 -954.305 -3547.3966 -956.6616 -3547.0254 L -954.4736 -3545.762 C -954.261 -3545.6394 -954.1882 -3545.3676 -954.3109 -3545.155 C -954.4337 -3544.9425 -954.7055 -3544.8696 -954.9181 -3544.9924 L -957.9973 -3546.77 C -958.2098 -3546.893 -958.2827 -3547.1647 -958.1599 -3547.3773 L -956.3822 -3550.4565 C -956.2594 -3550.669 -955.9876 -3550.742 -955.775 -3550.619 C -955.5625 -3550.4964 -955.4896 -3550.2246 -955.6124 -3550.012 L -956.8327 -3547.8984 Z M -958.9789 -3561.9588 C -961.0874 -3561.6366 -962.9668 -3560.385 -964.0642 -3558.484 C -965.952 -3555.2145 -964.9525 -3551.044 -961.8091 -3548.984 C -961.6038 -3548.8497 -961.5464 -3548.574 -961.6809 -3548.369 C -961.8155 -3548.1636 -962.091 -3548.106 -962.2963 -3548.2407 C -965.8335 -3550.5585 -966.9578 -3555.25 -964.834 -3558.9286 C -963.606 -3561.0556 -961.5064 -3562.4605 -959.15 -3562.8317 L -961.338 -3564.095 C -961.5506 -3564.2177 -961.6234 -3564.4895 -961.5007 -3564.702 C -961.378 -3564.9146 -961.1061 -3564.9875 -960.8936 -3564.8648 L -957.8144 -3563.087 C -957.6018 -3562.9642 -957.529 -3562.6924 -957.6517 -3562.48 L -959.4295 -3559.4006 C -959.5522 -3559.188 -959.824 -3559.1152 -960.0366 -3559.238 C -960.2492 -3559.3607 -960.322 -3559.6325 -960.1993 -3559.845 Z" fill="#518738"/>
      </g>
      <g id="Graphic_6524"/>
    </g>
  </g>
</svg>
