<svg height="24.75" viewBox="-970.281 -3567.303 24.75 24.75" width="24.75" xmlns="http://www.w3.org/2000/svg"><path d="m-956.8327-3547.8984c2.1087-.3221 3.9879-1.5739 5.0853-3.4746 1.8817-3.2593.895-7.4155-2.2281-9.482-.2048-.1356-.2609-.4114-.1254-.616.1354-.2048.4112-.261.6159-.1255 3.5144 2.3255 4.6244 7.0012 2.5074 10.6679-1.228 2.127-3.3274 3.532-5.684 3.9032l2.188 1.2634c.2126.1226.2854.3944.1627.607-.1228.2125-.3946.2854-.6072.1626l-3.0792-1.7776c-.2125-.123-.2854-.3947-.1626-.6073l1.7777-3.0792c.1228-.2125.3946-.2855.6072-.1625.2125.1226.2854.3944.1626.607zm-2.1462-14.0604c-2.1085.3222-3.9879 1.5738-5.0853 3.4748-1.8878 3.2695-.8883 7.44 2.2551 9.5.2053.1343.2627.41.1282.615-.1346.2054-.4101.263-.6154.1283-3.5372-2.3178-4.6615-7.0093-2.5377-10.6879 1.228-2.127 3.3276-3.5319 5.684-3.9031l-2.188-1.2633c-.2126-.1227-.2854-.3945-.1627-.607.1227-.2126.3946-.2855.6071-.1628l3.0792 1.7778c.2126.1228.2854.3946.1627.607l-1.7778 3.0794c-.1227.2126-.3945.2854-.6071.1626-.2126-.1227-.2854-.3945-.1627-.607z" fill="#518738"/></svg>