<?xml version="1.0" encoding="UTF-8" standalone="no"?>
<!DOCTYPE svg PUBLIC "-//W3C//DTD SVG 1.1//EN" "http://www.w3.org/Graphics/SVG/1.1/DTD/svg11.dtd">
<svg xmlns:dc="http://purl.org/dc/elements/1.1/" xmlns="http://www.w3.org/2000/svg" xmlns:xl="http://www.w3.org/1999/xlink" version="1.1" viewBox="269.9909 -3428.719 24.75 24.75" width="24.75" height="24.75">
  <defs/>
  <g id="SOURCES" stroke="none" stroke-opacity="1" fill="none" stroke-dasharray="none" fill-opacity="1">
    <title>SOURCES</title>
    <g id="SOURCES_Calque_1">
      <title>Calque 1</title>
      <g id="Graphic_6317">
        <path d="M 290.18805 -3421.6774 L 290.18805 -3422.122 C 290.18805 -3422.8582 289.5911 -3423.455 288.85472 -3423.455 L 277.29916 -3423.455 C 276.5628 -3423.455 275.96583 -3422.8582 275.96583 -3422.122 L 275.96583 -3421.6774 Z M 290.18805 -3420.7885 L 275.96583 -3420.7885 L 275.96583 -3410.5663 C 275.96583 -3409.83 276.5628 -3409.233 277.29916 -3409.233 L 288.85472 -3409.233 C 289.5911 -3409.233 290.18805 -3409.83 290.18805 -3410.5663 Z M 275.07694 -3422.122 C 275.07694 -3423.349 276.07186 -3424.344 277.29916 -3424.344 L 288.85472 -3424.344 C 290.08202 -3424.344 291.07694 -3423.349 291.07694 -3422.122 L 291.07694 -3410.5663 C 291.07694 -3409.339 290.08202 -3408.344 288.85472 -3408.344 L 277.29916 -3408.344 C 276.07186 -3408.344 275.07694 -3409.339 275.07694 -3410.5663 Z M 284.85472 -3417.6774 C 284.85472 -3418.4138 285.45167 -3419.0107 286.18805 -3419.0107 L 287.07694 -3419.0107 C 287.81332 -3419.0107 288.41027 -3418.4138 288.41027 -3417.6774 L 288.41027 -3412.344 C 288.41027 -3411.6077 287.81332 -3411.0107 287.07694 -3411.0107 L 286.18805 -3411.0107 C 285.45167 -3411.0107 284.85472 -3411.6077 284.85472 -3412.344 Z M 285.7436 -3417.6774 L 285.7436 -3412.344 C 285.7436 -3412.0986 285.9426 -3411.8996 286.18805 -3411.8996 L 287.07694 -3411.8996 C 287.3224 -3411.8996 287.5214 -3412.0986 287.5214 -3412.344 L 287.5214 -3417.6774 C 287.5214 -3417.923 287.3224 -3418.122 287.07694 -3418.122 L 286.18805 -3418.122 C 285.9426 -3418.122 285.7436 -3417.923 285.7436 -3417.6774 Z M 278.18805 -3418.122 C 277.9426 -3418.122 277.7436 -3418.321 277.7436 -3418.5663 C 277.7436 -3418.8117 277.9426 -3419.0107 278.18805 -3419.0107 L 282.6325 -3419.0107 C 282.87796 -3419.0107 283.07694 -3418.8117 283.07694 -3418.5663 C 283.07694 -3418.321 282.87796 -3418.122 282.6325 -3418.122 Z M 278.18805 -3416.344 C 277.9426 -3416.344 277.7436 -3416.543 277.7436 -3416.7885 C 277.7436 -3417.034 277.9426 -3417.233 278.18805 -3417.233 L 282.6325 -3417.233 C 282.87796 -3417.233 283.07694 -3417.034 283.07694 -3416.7885 C 283.07694 -3416.543 282.87796 -3416.344 282.6325 -3416.344 Z M 278.18805 -3414.5663 C 277.9426 -3414.5663 277.7436 -3414.7653 277.7436 -3415.0107 C 277.7436 -3415.256 277.9426 -3415.455 278.18805 -3415.455 L 280.85472 -3415.455 C 281.10018 -3415.455 281.29916 -3415.256 281.29916 -3415.0107 C 281.29916 -3414.7653 281.10018 -3414.5663 280.85472 -3414.5663 Z M 279.07694 -3413.6774 L 281.7436 -3413.6774 C 282.48 -3413.6774 283.07694 -3413.0804 283.07694 -3412.344 C 283.07694 -3411.6077 282.48 -3411.0107 281.7436 -3411.0107 L 279.07694 -3411.0107 C 278.34056 -3411.0107 277.7436 -3411.6077 277.7436 -3412.344 C 277.7436 -3413.0804 278.34056 -3413.6774 279.07694 -3413.6774 Z M 279.07694 -3412.7885 C 278.83148 -3412.7885 278.6325 -3412.5895 278.6325 -3412.344 C 278.6325 -3412.0986 278.83148 -3411.8996 279.07694 -3411.8996 L 281.7436 -3411.8996 C 281.98907 -3411.8996 282.18805 -3412.0986 282.18805 -3412.344 C 282.18805 -3412.5895 281.98907 -3412.7885 281.7436 -3412.7885 Z" fill="#1572a4"/>
      </g>
      <g id="Graphic_6319"/>
    </g>
  </g>
</svg>
