<?xml version="1.0" encoding="UTF-8" standalone="no"?>
<!DOCTYPE svg PUBLIC "-//W3C//DTD SVG 1.1//EN" "http://www.w3.org/Graphics/SVG/1.1/DTD/svg11.dtd">
<svg version="1.1" xmlns="http://www.w3.org/2000/svg" xmlns:xl="http://www.w3.org/1999/xlink" xmlns:dc="http://purl.org/dc/elements/1.1/" viewBox="-859.6643 -3566.2412 24.75 24.75" width="24.75" height="24.75">
  <defs/>
  <g id="SOURCES" stroke-dasharray="none" fill="none" stroke="none" fill-opacity="1" stroke-opacity="1">
    <title>SOURCES</title>
    <g id="SOURCES_Calque_1">
      <title>Calque 1</title>
      <g id="Graphic_6518">
        <path d="M -853.9137 -3556.451 C -854.689 -3554.464 -854.5446 -3552.2105 -853.4472 -3550.3098 C -851.5655 -3547.0505 -847.4726 -3545.827 -844.1213 -3547.4983 C -843.9017 -3547.608 -843.6348 -3547.5186 -843.5252 -3547.299 C -843.4157 -3547.0793 -843.5049 -3546.8124 -843.7246 -3546.703 C -847.4958 -3544.822 -852.1 -3546.1986 -854.217 -3549.8653 C -855.445 -3551.9923 -855.612 -3554.513 -854.7552 -3556.7394 L -856.9432 -3555.476 C -857.1558 -3555.3534 -857.4276 -3555.4263 -857.5503 -3555.639 C -857.673 -3555.8514 -857.6002 -3556.1232 -857.3876 -3556.246 L -854.3084 -3558.0238 C -854.0959 -3558.1465 -853.824 -3558.0736 -853.7013 -3557.861 L -851.9235 -3554.782 C -851.8008 -3554.5693 -851.8736 -3554.2975 -852.0862 -3554.1747 C -852.2988 -3554.052 -852.5706 -3554.125 -852.6933 -3554.3374 L -853.9137 -3556.451 Z M -840.6639 -3551.2796 C -839.8886 -3553.2666 -840.0329 -3555.52 -841.1304 -3557.421 C -843.0181 -3560.6905 -847.1296 -3561.9102 -850.4851 -3560.218 C -850.7043 -3560.1073 -850.9715 -3560.1954 -851.0821 -3560.4146 C -851.1926 -3560.6337 -851.1046 -3560.901 -850.8854 -3561.0115 C -847.1095 -3562.916 -842.4843 -3561.544 -840.3606 -3557.8653 C -839.1325 -3555.7383 -838.9656 -3553.2176 -839.8223 -3550.9913 L -837.6344 -3552.2545 C -837.4218 -3552.3772 -837.15 -3552.3044 -837.0272 -3552.092 C -836.9045 -3551.8793 -836.9773 -3551.6074 -837.1899 -3551.4847 L -840.2691 -3549.707 C -840.4817 -3549.584 -840.7535 -3549.657 -840.8762 -3549.8696 L -842.654 -3552.949 C -842.7767 -3553.1614 -842.7039 -3553.4332 -842.4913 -3553.556 C -842.2788 -3553.6787 -842.0069 -3553.606 -841.8842 -3553.3933 Z" fill="#518738"/>
      </g>
      <g id="Graphic_6522"/>
    </g>
  </g>
</svg>
