<svg height="24.75" viewBox="270.702 -3463.452 24.75 24.75" width="24.75" xmlns="http://www.w3.org/2000/svg"><path d="m290.18805-3456.4107v11.1111c0 1.2273-.99492 2.2222-2.22222 2.2222h-8c-1.2273 0-2.22223-.9949-2.22223-2.2222v-11.1111h-.44444c-.24546 0-.44444-.199-.44444-.4443 0-.2456.19898-.4446.44444-.4446h4v-.4444c0-.7364.59696-1.3334 1.33334-1.3334h2.66666c.73638 0 1.33334.597 1.33334 1.3334v.4444h4c.24546 0 .44444.199.44444.4446 0 .2453-.19898.4443-.44444.4443zm-11.55555 0v11.1111c0 .7364.59695 1.3333 1.33333 1.3333h8c.73637 0 1.33333-.5969 1.33333-1.3333v-11.1111zm7.1111-.8889v-.4444c0-.2455-.19898-.4445-.44444-.4445h-2.66666c-.24546 0-.44445.199-.44445.4445v.4444zm0 4c0-.2454.199-.4444.44445-.4444s.44445.199.44445.4444v6.2222c0 .2454-.199.4444-.44445.4444s-.44445-.199-.44445-.4444zm-4.44444 0c0-.2454.19899-.4444.44444-.4444.24547 0 .44445.199.44445.4444v6.2222c0 .2454-.19898.4444-.44445.4444-.24545 0-.44444-.199-.44444-.4444z" fill="#d2673a"/></svg>