<svg height="24.75" viewBox="269.991 -3428.719 24.75 24.75" width="24.75" xmlns="http://www.w3.org/2000/svg"><path d="m290.18805-3421.6774v-.4446c0-.7362-.59695-1.333-1.33333-1.333h-11.55556c-.73636 0-1.33333.5968-1.33333 1.333v.4446zm0 .8889h-14.22222v10.2222c0 .7363.59697 1.3333 1.33333 1.3333h11.55556c.73638 0 1.33333-.597 1.33333-1.3333zm-15.11111-1.3335c0-1.227.99492-2.222 2.22222-2.222h11.55556c1.2273 0 2.22222.995 2.22222 2.222v11.5557c0 1.2273-.99492 2.2223-2.22222 2.2223h-11.55556c-1.2273 0-2.22222-.995-2.22222-2.2223zm9.77778 4.4446c0-.7364.59695-1.3333 1.33333-1.3333h.88889c.73638 0 1.33333.5969 1.33333 1.3333v5.3334c0 .7363-.59695 1.3333-1.33333 1.3333h-.88889c-.73638 0-1.33333-.597-1.33333-1.3333zm.88888 0v5.3334c0 .2454.199.4444.44445.4444h.88889c.24546 0 .44446-.199.44446-.4444v-5.3334c0-.2456-.199-.4446-.44446-.4446h-.88889c-.24545 0-.44445.199-.44445.4446zm-7.55555-.4446c-.24545 0-.44445-.199-.44445-.4443 0-.2454.199-.4444.44445-.4444h4.44445c.24546 0 .44444.199.44444.4444 0 .2453-.19898.4443-.44444.4443zm0 1.778c-.24545 0-.44445-.199-.44445-.4445s.199-.4445.44445-.4445h4.44445c.24546 0 .44444.199.44444.4445s-.19898.4445-.44444.4445zm0 1.7777c-.24545 0-.44445-.199-.44445-.4444 0-.2453.199-.4443.44445-.4443h2.66667c.24546 0 .44444.199.44444.4443 0 .2454-.19898.4444-.44444.4444zm.88889.8889h2.66666c.7364 0 1.33334.597 1.33334 1.3334 0 .7363-.59694 1.3333-1.33334 1.3333h-2.66666c-.73638 0-1.33334-.597-1.33334-1.3333 0-.7364.59696-1.3334 1.33334-1.3334zm0 .8889c-.24546 0-.44444.199-.44444.4445 0 .2454.19898.4444.44444.4444h2.66666c.24547 0 .44445-.199.44445-.4444 0-.2455-.19898-.4445-.44445-.4445z" fill="#1572a4"/></svg>