<svg height="25" viewBox="-850.483 -2925.879 25 25" width="25" xmlns="http://www.w3.org/2000/svg"><g fill="none"><path d="m-825.9828-2921.539v16.32c0 2.1207-1.7192 3.84-3.84 3.84h-16.32c-2.1207 0-3.84-1.7193-3.84-3.84v-16.32c0-2.121 1.7193-3.84 3.84-3.84h16.32c2.1208 0 3.84 1.719 3.84 3.84z" fill="#666"/><path d="m-825.9828-2921.539v16.32c0 2.1207-1.7192 3.84-3.84 3.84h-16.32c-2.1207 0-3.84-1.7193-3.84-3.84v-16.32c0-2.121 1.7193-3.84 3.84-3.84h16.32c2.1208 0 3.84 1.719 3.84 3.84z" stroke="#fff" stroke-linecap="round" stroke-linejoin="round" stroke-width=".25"/><path d="m-832.4828-2909.046h-11c-.83 0-1.5.67-1.5 1.5v1c0 .83.67 1.5 1.5 1.5h11c.83 0 1.5-.67 1.5-1.5v-1c0-.83-.67-1.5-1.5-1.5zm0-1c1.38 0 2.5 1.12 2.5 2.5v1c0 1.38-1.12 2.5-2.5 2.5h-11c-1.38 0-2.5-1.12-2.5-2.5v-1c0-1.38 1.12-2.5 2.5-2.5z" fill="#e3e6e1"/><path d="m-837.6779-2916.8316-.0042 3.5101c0 .1695-.1313.3005-.3007.3005-.1693 0-.3006-.131-.3006-.3005v-3.5143h-3.5143c-.1694 0-.3007-.1312-.3007-.3006s.1313-.3006.3007-.3006h3.5143l.0085-3.506c0-.1693.1312-.3006.3006-.3006s.3006.1313.3006.3006v3.5144h3.5059c.1652-.0044.3007.1313.2964.2964.0043.1652-.1312.3006-.2964.2964h-3.5143z" fill="#8eed62"/><path d="m-837.6779-2916.8316-.0042 3.5101c0 .1695-.1313.3005-.3007.3005-.1693 0-.3006-.131-.3006-.3005v-3.5143h-3.5143c-.1694 0-.3007-.1312-.3007-.3006s.1313-.3006.3007-.3006h3.5143l.0085-3.506c0-.1693.1312-.3006.3006-.3006s.3006.1313.3006.3006v3.5144h3.5059c.1652-.0044.3007.1313.2964.2964.0043.1652-.1312.3006-.2964.2964h-3.5143z" stroke="#518738" stroke-linejoin="round" stroke-width=".25"/></g></svg>