<?xml version="1.0" encoding="UTF-8" standalone="no"?>
<!DOCTYPE svg PUBLIC "-//W3C//DTD SVG 1.1//EN" "http://www.w3.org/Graphics/SVG/1.1/DTD/svg11.dtd">
<svg xmlns="http://www.w3.org/2000/svg" xmlns:xl="http://www.w3.org/1999/xlink" version="1.1" xmlns:dc="http://purl.org/dc/elements/1.1/" viewBox="-850.4828 -2925.879 25 25" width="25" height="25">
  <defs/>
  <g id="SOURCES" stroke-opacity="1" fill="none" stroke="none" fill-opacity="1" stroke-dasharray="none">
    <title>SOURCES</title>
    <g id="SOURCES_Dark">
      <title>Dark</title>
      <g id="Graphic_10982">
        <path d="M -825.9828 -2921.539 L -825.9828 -2905.219 C -825.9828 -2903.0983 -827.702 -2901.379 -829.8228 -2901.379 L -846.1428 -2901.379 C -848.2635 -2901.379 -849.9828 -2903.0983 -849.9828 -2905.219 L -849.9828 -2921.539 C -849.9828 -2923.66 -848.2635 -2925.379 -846.1428 -2925.379 L -829.8228 -2925.379 C -827.702 -2925.379 -825.9828 -2923.66 -825.9828 -2921.539 Z" fill="#666"/>
        <path d="M -825.9828 -2921.539 L -825.9828 -2905.219 C -825.9828 -2903.0983 -827.702 -2901.379 -829.8228 -2901.379 L -846.1428 -2901.379 C -848.2635 -2901.379 -849.9828 -2903.0983 -849.9828 -2905.219 L -849.9828 -2921.539 C -849.9828 -2923.66 -848.2635 -2925.379 -846.1428 -2925.379 L -829.8228 -2925.379 C -827.702 -2925.379 -825.9828 -2923.66 -825.9828 -2921.539 Z" stroke="white" stroke-linecap="round" stroke-linejoin="round" stroke-width=".25"/>
      </g>
      <g id="Graphic_10981">
        <path d="M -832.4828 -2909.046 L -843.4828 -2909.046 C -844.3128 -2909.046 -844.9828 -2908.376 -844.9828 -2907.546 L -844.9828 -2906.546 C -844.9828 -2905.716 -844.3128 -2905.046 -843.4828 -2905.046 L -832.4828 -2905.046 C -831.6528 -2905.046 -830.9828 -2905.716 -830.9828 -2906.546 L -830.9828 -2907.546 C -830.9828 -2908.376 -831.6528 -2909.046 -832.4828 -2909.046 Z M -832.4828 -2910.046 C -831.1028 -2910.046 -829.9828 -2908.926 -829.9828 -2907.546 L -829.9828 -2906.546 C -829.9828 -2905.166 -831.1028 -2904.046 -832.4828 -2904.046 L -843.4828 -2904.046 C -844.8628 -2904.046 -845.9828 -2905.166 -845.9828 -2906.546 L -845.9828 -2907.546 C -845.9828 -2908.926 -844.8628 -2910.046 -843.4828 -2910.046 Z" fill="#e3e6e1"/>
      </g>
      <g id="Graphic_10979">
        <path d="M -837.6779 -2916.8316 L -837.6821 -2913.3215 C -837.6821 -2913.152 -837.8134 -2913.021 -837.9828 -2913.021 C -838.1521 -2913.021 -838.2834 -2913.152 -838.2834 -2913.3215 L -838.2834 -2916.8358 L -841.7977 -2916.8358 C -841.9671 -2916.8358 -842.0984 -2916.967 -842.0984 -2917.1364 C -842.0984 -2917.3058 -841.9671 -2917.437 -841.7977 -2917.437 L -838.2834 -2917.437 L -838.2749 -2920.943 C -838.2749 -2921.1123 -838.1437 -2921.2436 -837.9743 -2921.2436 C -837.8049 -2921.2436 -837.6737 -2921.1123 -837.6737 -2920.943 L -837.6737 -2917.4286 L -834.1678 -2917.4286 C -834.0026 -2917.433 -833.8671 -2917.2973 -833.8714 -2917.1322 C -833.8671 -2916.967 -834.0026 -2916.8316 -834.1678 -2916.8358 L -837.6821 -2916.8358 Z" fill="#8eed62"/>
        <path d="M -837.6779 -2916.8316 L -837.6821 -2913.3215 C -837.6821 -2913.152 -837.8134 -2913.021 -837.9828 -2913.021 C -838.1521 -2913.021 -838.2834 -2913.152 -838.2834 -2913.3215 L -838.2834 -2916.8358 L -841.7977 -2916.8358 C -841.9671 -2916.8358 -842.0984 -2916.967 -842.0984 -2917.1364 C -842.0984 -2917.3058 -841.9671 -2917.437 -841.7977 -2917.437 L -838.2834 -2917.437 L -838.2749 -2920.943 C -838.2749 -2921.1123 -838.1437 -2921.2436 -837.9743 -2921.2436 C -837.8049 -2921.2436 -837.6737 -2921.1123 -837.6737 -2920.943 L -837.6737 -2917.4286 L -834.1678 -2917.4286 C -834.0026 -2917.433 -833.8671 -2917.2973 -833.8714 -2917.1322 C -833.8671 -2916.967 -834.0026 -2916.8316 -834.1678 -2916.8358 L -837.6821 -2916.8358 Z" stroke="#518738" stroke-linecap="butt" stroke-linejoin="round" stroke-width=".25"/>
      </g>
    </g>
  </g>
</svg>
