<svg height="25" viewBox="-886.483 -2925.879 25 25" width="25" xmlns="http://www.w3.org/2000/svg"><g fill="none"><path d="M-882.143-2925.379h16.32a3.84 3.84 0 0 1 3.84 3.84v16.32a3.84 3.84 0 0 1-3.84 3.84h-16.32a3.84 3.84 0 0 1-3.84-3.84v-16.32a3.84 3.84 0 0 1 3.84-3.84z" fill="#666"/><path d="M-882.143-2925.379h16.32a3.84 3.84 0 0 1 3.84 3.84v16.32a3.84 3.84 0 0 1-3.84 3.84h-16.32a3.84 3.84 0 0 1-3.84-3.84v-16.32a3.84 3.84 0 0 1 3.84-3.84z" stroke="#fff" stroke-linecap="round" stroke-linejoin="round" stroke-width=".25"/><path d="M-870.983-2918.879v11c0 .83.67 1.5 1.5 1.5h1c.83 0 1.5-.67 1.5-1.5v-11c0-.83-.67-1.5-1.5-1.5h-1c-.83 0-1.5.67-1.5 1.5zm-1 0a2.5 2.5 0 0 1 2.5-2.5h1a2.5 2.5 0 0 1 2.5 2.5v11a2.5 2.5 0 0 1-2.5 2.5h-1a2.5 2.5 0 0 1-2.5-2.5z" fill="#e3e6e1"/><path d="M-879.06-2913.684l3.51.004c.17 0 .301.131.301.301 0 .17-.13.3-.3.3h-3.515v3.515c0 .17-.13.3-.3.3-.17 0-.3-.13-.3-.3v-3.515l-3.507-.008c-.17 0-.3-.131-.3-.3s.13-.301.3-.301h3.515v-3.506a.29.29 0 0 1 .296-.297.29.29 0 0 1 .296.297v3.514z" fill="#8eed62"/><path d="M-879.06-2913.684l3.51.004c.17 0 .301.131.301.301 0 .17-.13.3-.3.3h-3.515v3.515c0 .17-.13.3-.3.3-.17 0-.3-.13-.3-.3v-3.515l-3.507-.008c-.17 0-.3-.131-.3-.3s.13-.301.3-.301h3.515v-3.506a.29.29 0 0 1 .296-.297.29.29 0 0 1 .296.297v3.514z" stroke="#518738" stroke-linejoin="round" stroke-width=".25"/></g></svg>