<svg height="25" viewBox="-778.483 -2925.879 25 25" width="25" xmlns="http://www.w3.org/2000/svg"><g fill="none"><path d="m-753.9828-2921.539v16.32c0 2.1207-1.7192 3.84-3.84 3.84h-16.32c-2.1207 0-3.84-1.7193-3.84-3.84v-16.32c0-2.121 1.7193-3.84 3.84-3.84h16.32c2.1208 0 3.84 1.719 3.84 3.84z" fill="#666"/><path d="m-753.9828-2921.539v16.32c0 2.1207-1.7192 3.84-3.84 3.84h-16.32c-2.1207 0-3.84-1.7193-3.84-3.84v-16.32c0-2.121 1.7193-3.84 3.84-3.84h16.32c2.1208 0 3.84 1.719 3.84 3.84z" stroke="#fff" stroke-linecap="round" stroke-linejoin="round" stroke-width=".25"/><path d="m-760.4828-2915.379h-11c-.83 0-1.5.67-1.5 1.5v1c0 .83.67 1.5 1.5 1.5h11c.83 0 1.5-.67 1.5-1.5v-1c0-.83-.67-1.5-1.5-1.5zm0-1c1.38 0 2.5 1.12 2.5 2.5v1c0 1.38-1.12 2.5-2.5 2.5h-11c-1.38 0-2.5-1.12-2.5-2.5v-1c0-1.38 1.12-2.5 2.5-2.5z" fill="#e3e6e1"/><path d="m-765.1928-2913.3258 4.1317 4.1418c.1996.1995.1996.509 0 .7085s-.509.1995-.7086 0l-4.1417-4.1417-4.1417 4.1417c-.1996.1995-.509.1995-.7086 0s-.1996-.509 0-.7085l4.1417-4.1418-4.1217-4.1417c-.1996-.1995-.1996-.509 0-.7085.1996-.1997.509-.1997.7086 0l4.1417 4.1416 4.1317-4.1316c.1896-.1997.509-.1997.6986 0 .1996.1895.1996.509 0 .6985l-4.1417 4.1417z" fill="#fc6d7d"/></g></svg>