<svg height="25" viewBox="-814.483 -2925.879 25 25" width="25" xmlns="http://www.w3.org/2000/svg"><g fill="none"><path d="M-810.143-2925.379h16.32a3.84 3.84 0 0 1 3.84 3.84v16.32a3.84 3.84 0 0 1-3.84 3.84h-16.32a3.84 3.84 0 0 1-3.84-3.84v-16.32a3.84 3.84 0 0 1 3.84-3.84z" fill="#666"/><path d="M-810.143-2925.379h16.32a3.84 3.84 0 0 1 3.84 3.84v16.32a3.84 3.84 0 0 1-3.84 3.84h-16.32a3.84 3.84 0 0 1-3.84-3.84v-16.32a3.84 3.84 0 0 1 3.84-3.84z" stroke="#fff" stroke-linecap="round" stroke-linejoin="round" stroke-width=".25"/><path d="M-803.983-2918.879v11c0 .83.67 1.5 1.5 1.5h1c.83 0 1.5-.67 1.5-1.5v-11c0-.83-.67-1.5-1.5-1.5h-1c-.83 0-1.5.67-1.5 1.5zm-1 0a2.5 2.5 0 0 1 2.5-2.5h1a2.5 2.5 0 0 1 2.5 2.5v11a2.5 2.5 0 0 1-2.5 2.5h-1a2.5 2.5 0 0 1-2.5-2.5z" fill="#e3e6e1"/><path d="M-801.93-2914.169l4.142-4.132c.2-.2.51-.2.709 0 .2.2.2.51 0 .709l-4.142 4.142 4.142 4.141c.2.2.2.51 0 .709-.2.2-.51.2-.709 0l-4.141-4.142-4.142 4.122c-.2.2-.51.2-.709 0-.2-.2-.2-.509 0-.709l4.142-4.141-4.132-4.132a.483.483 0 0 1 0-.699c.19-.2.51-.2.699 0l4.142 4.142z" fill="#fc6d7d"/></g></svg>