<svg height="25" viewBox="-814.483 -2925.879 25 25" width="25" xmlns="http://www.w3.org/2000/svg"><g fill="none"><path d="m-810.1428-2925.379h16.32c2.1208 0 3.84 1.719 3.84 3.84v16.32c0 2.1207-1.7192 3.84-3.84 3.84h-16.32c-2.1207 0-3.84-1.7193-3.84-3.84v-16.32c0-2.121 1.7193-3.84 3.84-3.84z" fill="#666"/><path d="m-810.1428-2925.379h16.32c2.1208 0 3.84 1.719 3.84 3.84v16.32c0 2.1207-1.7192 3.84-3.84 3.84h-16.32c-2.1207 0-3.84-1.7193-3.84-3.84v-16.32c0-2.121 1.7193-3.84 3.84-3.84z" stroke="#fff" stroke-linecap="round" stroke-linejoin="round" stroke-width=".25"/><path d="m-803.9828-2918.879v11c0 .83.67 1.5 1.5 1.5h1c.83 0 1.5-.67 1.5-1.5v-11c0-.83-.67-1.5-1.5-1.5h-1c-.83 0-1.5.67-1.5 1.5zm-1 0c0-1.38 1.12-2.5 2.5-2.5h1c1.38 0 2.5 1.12 2.5 2.5v11c0 1.38-1.12 2.5-2.5 2.5h-1c-1.38 0-2.5-1.12-2.5-2.5z" fill="#e3e6e1"/><path d="m-801.9295-2914.169 4.1417-4.1318c.19965-.1996.509-.1996.7086 0 .1996.1998.1996.509 0 .7086l-4.1417 4.1417 4.1417 4.1418c.1996.1997.1996.5089 0 .7087-.1996.1994-.50895.1994-.7086 0l-4.1417-4.142-4.1417 4.122c-.1996.1995-.509.1995-.7086 0-.1996-.1997-.1996-.509 0-.7087l4.1417-4.1417-4.1317-4.1316c-.1996-.1898-.1996-.509 0-.6988.1896-.1996.509-.1996.6986 0l4.1417 4.1418z" fill="#fc6d7d"/></g></svg>