<?xml version="1.0" encoding="UTF-8" standalone="no"?>
<!DOCTYPE svg PUBLIC "-//W3C//DTD SVG 1.1//EN" "http://www.w3.org/Graphics/SVG/1.1/DTD/svg11.dtd">
<svg xmlns:dc="http://purl.org/dc/elements/1.1/" version="1.1" xmlns="http://www.w3.org/2000/svg" xmlns:xl="http://www.w3.org/1999/xlink" viewBox="-814.4828 -2925.879 25 25" width="25" height="25">
  <defs/>
  <g id="SOURCES" stroke="none" stroke-dasharray="none" fill-opacity="1" stroke-opacity="1" fill="none">
    <title>SOURCES</title>
    <g id="SOURCES_Dark">
      <title>Dark</title>
      <g id="Graphic_11000">
        <path d="M -810.1428 -2925.379 L -793.8228 -2925.379 C -791.702 -2925.379 -789.9828 -2923.66 -789.9828 -2921.539 L -789.9828 -2905.219 C -789.9828 -2903.0983 -791.702 -2901.379 -793.8228 -2901.379 L -810.1428 -2901.379 C -812.2635 -2901.379 -813.9828 -2903.0983 -813.9828 -2905.219 L -813.9828 -2921.539 C -813.9828 -2923.66 -812.2635 -2925.379 -810.1428 -2925.379 Z" fill="#666"/>
        <path d="M -810.1428 -2925.379 L -793.8228 -2925.379 C -791.702 -2925.379 -789.9828 -2923.66 -789.9828 -2921.539 L -789.9828 -2905.219 C -789.9828 -2903.0983 -791.702 -2901.379 -793.8228 -2901.379 L -810.1428 -2901.379 C -812.2635 -2901.379 -813.9828 -2903.0983 -813.9828 -2905.219 L -813.9828 -2921.539 C -813.9828 -2923.66 -812.2635 -2925.379 -810.1428 -2925.379 Z" stroke="white" stroke-linecap="round" stroke-linejoin="round" stroke-width=".25"/>
      </g>
      <g id="Graphic_10999">
        <path d="M -803.9828 -2918.879 L -803.9828 -2907.879 C -803.9828 -2907.049 -803.3128 -2906.379 -802.4828 -2906.379 L -801.4828 -2906.379 C -800.6528 -2906.379 -799.9828 -2907.049 -799.9828 -2907.879 L -799.9828 -2918.879 C -799.9828 -2919.709 -800.6528 -2920.379 -801.4828 -2920.379 L -802.4828 -2920.379 C -803.3128 -2920.379 -803.9828 -2919.709 -803.9828 -2918.879 Z M -804.9828 -2918.879 C -804.9828 -2920.259 -803.8628 -2921.379 -802.4828 -2921.379 L -801.4828 -2921.379 C -800.1028 -2921.379 -798.9828 -2920.259 -798.9828 -2918.879 L -798.9828 -2907.879 C -798.9828 -2906.499 -800.1028 -2905.379 -801.4828 -2905.379 L -802.4828 -2905.379 C -803.8628 -2905.379 -804.9828 -2906.499 -804.9828 -2907.879 Z" fill="#e3e6e1"/>
      </g>
      <g id="Graphic_10997">
        <path d="M -801.9295 -2914.169 L -797.7878 -2918.3008 C -797.58815 -2918.5004 -797.2788 -2918.5004 -797.0792 -2918.3008 C -796.8796 -2918.101 -796.8796 -2917.7918 -797.0792 -2917.5922 L -801.2209 -2913.4505 L -797.0792 -2909.3087 C -796.8796 -2909.109 -796.8796 -2908.7998 -797.0792 -2908.6 C -797.2788 -2908.4006 -797.58815 -2908.4006 -797.7878 -2908.6 L -801.9295 -2912.742 L -806.0712 -2908.62 C -806.2708 -2908.4205 -806.5802 -2908.4205 -806.7798 -2908.62 C -806.9794 -2908.8197 -806.9794 -2909.129 -806.7798 -2909.3287 L -802.6381 -2913.4704 L -806.7698 -2917.602 C -806.9694 -2917.7918 -806.9694 -2918.111 -806.7698 -2918.3008 C -806.5802 -2918.5004 -806.2608 -2918.5004 -806.0712 -2918.3008 L -801.9295 -2914.159 Z" fill="#fc6d7d"/>
      </g>
    </g>
  </g>
</svg>
