<svg height="25" viewBox="-778.483 -2925.879 25 25" width="25" xmlns="http://www.w3.org/2000/svg"><g fill="none"><path d="M-753.983-2921.539v16.32a3.84 3.84 0 0 1-3.84 3.84h-16.32a3.84 3.84 0 0 1-3.84-3.84v-16.32a3.84 3.84 0 0 1 3.84-3.84h16.32a3.84 3.84 0 0 1 3.84 3.84z" fill="#666"/><path d="M-753.983-2921.539v16.32a3.84 3.84 0 0 1-3.84 3.84h-16.32a3.84 3.84 0 0 1-3.84-3.84v-16.32a3.84 3.84 0 0 1 3.84-3.84h16.32a3.84 3.84 0 0 1 3.84 3.84z" stroke="#fff" stroke-linecap="round" stroke-linejoin="round" stroke-width=".25"/><path d="M-760.483-2915.379h-11c-.83 0-1.5.67-1.5 1.5v1c0 .83.67 1.5 1.5 1.5h11c.83 0 1.5-.67 1.5-1.5v-1c0-.83-.67-1.5-1.5-1.5zm0-1a2.5 2.5 0 0 1 2.5 2.5v1a2.5 2.5 0 0 1-2.5 2.5h-11a2.5 2.5 0 0 1-2.5-2.5v-1a2.5 2.5 0 0 1 2.5-2.5z" fill="#e3e6e1"/><path d="M-765.193-2913.326l4.132 4.142c.2.2.2.509 0 .709s-.51.199-.709 0l-4.141-4.142-4.142 4.142c-.2.199-.51.199-.709 0s-.2-.51 0-.709l4.142-4.142-4.122-4.142c-.2-.199-.2-.509 0-.708.2-.2.51-.2.709 0l4.142 4.142 4.131-4.132c.19-.2.51-.2.699 0 .2.19.2.509 0 .698l-4.142 4.142z" fill="#fc6d7d"/></g></svg>