<svg height="25" viewBox="-742.483 -2925.879 25 25" width="25" xmlns="http://www.w3.org/2000/svg"><g fill="none"><circle cx="-729.983" cy="-2913.379" fill="#666" r="12"/><circle cx="-729.983" cy="-2913.379" r="12" stroke="#fff" stroke-linecap="round" stroke-linejoin="round" stroke-width=".25"/><path d="m-731.0041-2906.2706h.2664c.3908-.0266.7638-.1954 1.0569-.4884l.6217-.6218-6.9275-6.9186-.6217.6217c-.6573.6572-.6573 1.7317 0 2.3891l4.5384 4.5384c.2931.2932.675.4619 1.0569.4885zm2.0871 0h4.6983c.2487 0 .4441.1954.4441.4441 0 .2485-.1954.4441-.4441.4441h-6.4923c-.1066 0-.2221 0-.32865 0h-4.72495c-.2487 0-.4441-.1956-.4441-.4441 0-.2487.1954-.4441.4441-.4441h2.9309l-4.3963-4.3964c-1.0036-1.0035-1.0036-2.6377 0-3.6413l6.3147-6.3147c1.0036-1.0036 2.6378-1.0036 3.6414 0l4.5384 4.5384c1.0036 1.0036 1.0036 2.6378 0 3.6414l-6.1726 6.1726zm-6.43905-8.6594 6.91865 6.9187 5.06245-5.0625c.65725-.6572.65725-1.7319 0-2.3892l-4.52955-4.5294c-.6572-.6573-1.7319-.6573-2.3891 0z" fill="#fc6d7d"/></g></svg>