<svg height="25" viewBox="-742.483 -2925.879 25 25" width="25" xmlns="http://www.w3.org/2000/svg"><g fill="none"><circle cx="-729.983" cy="-2913.379" fill="#666" r="12"/><circle cx="-729.983" cy="-2913.379" r="12" stroke="#fff" stroke-linecap="round" stroke-linejoin="round" stroke-width=".25"/><path d="M-731.004-2906.27h.266a1.65 1.65 0 0 0 1.057-.489l.622-.622-6.928-6.918-.621.621a1.694 1.694 0 0 0 0 2.39l4.538 4.538a1.67 1.67 0 0 0 1.057.488zm2.087 0h4.698a.44.44 0 0 1 .444.444.44.44 0 0 1-.444.444h-11.546a.44.44 0 0 1-.444-.444.44.44 0 0 1 .444-.445h2.931l-4.396-4.396a2.578 2.578 0 0 1 0-3.641l6.315-6.315a2.578 2.578 0 0 1 3.641 0l4.538 4.538a2.578 2.578 0 0 1 0 3.642l-6.172 6.172zm-6.439-8.66l6.919 6.919 5.062-5.063a1.694 1.694 0 0 0 0-2.389l-4.53-4.53a1.694 1.694 0 0 0-2.389 0z" fill="#fc6d7d"/></g></svg>