<?xml version="1.0" encoding="UTF-8" standalone="no"?>
<!DOCTYPE svg PUBLIC "-//W3C//DTD SVG 1.1//EN" "http://www.w3.org/Graphics/SVG/1.1/DTD/svg11.dtd">
<svg xmlns:dc="http://purl.org/dc/elements/1.1/" version="1.1" xmlns="http://www.w3.org/2000/svg" xmlns:xl="http://www.w3.org/1999/xlink" viewBox="-742.4828 -2925.879 24.999996 25" width="24.999996" height="25">
  <defs/>
  <g id="SOURCES" stroke="none" stroke-dasharray="none" fill-opacity="1" stroke-opacity="1" fill="none">
    <title>SOURCES</title>
    <g id="SOURCES_Dark">
      <title>Dark</title>
      <g id="Graphic_11015">
        <circle cx="-729.9828" cy="-2913.379" r="12.0000182688381" fill="#666"/>
        <circle cx="-729.9828" cy="-2913.379" r="12.0000182688381" stroke="white" stroke-linecap="round" stroke-linejoin="round" stroke-width=".25"/>
      </g>
      <g id="Graphic_11014">
        <path d="M -731.0041 -2906.2706 L -730.7377 -2906.2706 C -730.3469 -2906.2972 -729.9739 -2906.466 -729.6808 -2906.759 L -729.0591 -2907.3808 L -735.9866 -2914.2994 L -736.6083 -2913.6777 C -737.2656 -2913.0205 -737.2656 -2911.946 -736.6083 -2911.2886 L -732.0699 -2906.7502 C -731.7768 -2906.457 -731.3949 -2906.2883 -731.013 -2906.2617 Z M -728.917 -2906.2706 L -724.2187 -2906.2706 C -723.97 -2906.2706 -723.7746 -2906.0752 -723.7746 -2905.8265 C -723.7746 -2905.578 -723.97 -2905.3824 -724.2187 -2905.3824 L -730.711 -2905.3824 C -730.8176 -2905.3824 -730.9331 -2905.3824 -731.03965 -2905.3824 L -735.7646 -2905.3824 C -736.0133 -2905.3824 -736.2087 -2905.578 -736.2087 -2905.8265 C -736.2087 -2906.0752 -736.0133 -2906.2706 -735.7646 -2906.2706 L -732.8337 -2906.2706 L -737.23 -2910.667 C -738.2336 -2911.6705 -738.2336 -2913.3047 -737.23 -2914.3083 L -730.9153 -2920.623 C -729.9117 -2921.6266 -728.2775 -2921.6266 -727.2739 -2920.623 L -722.7355 -2916.0846 C -721.7319 -2915.081 -721.7319 -2913.4468 -722.7355 -2912.4432 L -728.9081 -2906.2706 Z M -735.35605 -2914.93 L -728.4374 -2908.0113 L -723.37495 -2913.0738 C -722.7177 -2913.731 -722.7177 -2914.8057 -723.37495 -2915.463 L -727.9045 -2919.9924 C -728.5617 -2920.6497 -729.6364 -2920.6497 -730.2936 -2919.9924 Z" fill="#fc6d7d"/>
      </g>
    </g>
  </g>
</svg>
