<svg height="25" viewBox="-706.483 -2925.879 25 25" width="25" xmlns="http://www.w3.org/2000/svg"><g fill="none"><path d="M-702.143-2925.379h16.32a3.84 3.84 0 0 1 3.84 3.84v16.32a3.84 3.84 0 0 1-3.84 3.84h-16.32a3.84 3.84 0 0 1-3.84-3.84v-16.32a3.84 3.84 0 0 1 3.84-3.84z" fill="#666"/><path d="M-702.143-2925.379h16.32a3.84 3.84 0 0 1 3.84 3.84v16.32a3.84 3.84 0 0 1-3.84 3.84h-16.32a3.84 3.84 0 0 1-3.84-3.84v-16.32a3.84 3.84 0 0 1 3.84-3.84z" stroke="#fff" stroke-linecap="round" stroke-linejoin="round" stroke-width=".25"/><path d="M-697.27-2906.152l1.763-6.73h4.688l-2.451 6.73zm1.14-11.376c0-.358.071-.699.215-1.022a2.661 2.661 0 0 1 1.44-1.397c.33-.136.681-.205 1.054-.205.344 0 .678.069 1 .205.323.136.602.322.839.559.236.236.426.516.57.839.143.322.215.663.215 1.021 0 .373-.072.717-.215 1.032a2.66 2.66 0 0 1-.57.817 2.7 2.7 0 0 1-1.839.753 2.802 2.802 0 0 1-1.914-.753 2.571 2.571 0 0 1-.58-.817 2.466 2.466 0 0 1-.215-1.032z" fill="#e3e6e1"/><path d="M-697.27-2906.152l1.763-6.73h4.688l-2.451 6.73zm1.14-11.376c0-.358.071-.699.215-1.022a2.661 2.661 0 0 1 1.44-1.397c.33-.136.681-.205 1.054-.205.344 0 .678.069 1 .205.323.136.602.322.839.559.236.236.426.516.57.839.143.322.215.663.215 1.021 0 .373-.072.717-.215 1.032a2.66 2.66 0 0 1-.57.817 2.7 2.7 0 0 1-1.839.753 2.802 2.802 0 0 1-1.914-.753 2.571 2.571 0 0 1-.58-.817 2.466 2.466 0 0 1-.215-1.032z" stroke="#66727e" stroke-linecap="round" stroke-linejoin="round"/></g></svg>