<svg height="25" viewBox="-706.483 -2925.879 25 25" width="25" xmlns="http://www.w3.org/2000/svg"><g fill="none"><path d="m-702.1428-2925.379h16.32c2.1208 0 3.84 1.719 3.84 3.84v16.32c0 2.1207-1.7192 3.84-3.84 3.84h-16.32c-2.1207 0-3.84-1.7193-3.84-3.84v-16.32c0-2.121 1.7193-3.84 3.84-3.84z" fill="#666"/><path d="m-702.1428-2925.379h16.32c2.1208 0 3.84 1.719 3.84 3.84v16.32c0 2.1207-1.7192 3.84-3.84 3.84h-16.32c-2.1207 0-3.84-1.7193-3.84-3.84v-16.32c0-2.121 1.7193-3.84 3.84-3.84z" stroke="#fff" stroke-linecap="round" stroke-linejoin="round" stroke-width=".25"/><path d="m-697.2702-2906.1516 1.7634-6.7312h4.6882l-2.4516 6.7312zm1.1398-11.3764c0-.3584.0717-.699.215-1.0215.1434-.3225.33695-.6021.5807-.8385.2437-.2367.53045-.423.8602-.5593.32975-.1362.681-.2043 1.0538-.2043.34405 0 .6774.0681 1 .2043.32254.1363.6021.3226.8387.5593.2365.2364.4265.516.5699.8385.1433.3225.215.6631.215 1.0215 0 .3728-.0717.717-.215 1.0323-.1434.3154-.3334.5877-.5699.8172-.2366.2295-.51616.4122-.8387.5485-.3226.136-.65595.2042-1 .2042-.3728 0-.72405-.0682-1.0538-.2042-.32975-.1363-.6165-.319-.8602-.5485-.24375-.2295-.4373-.5018-.5807-.8172-.1433-.3153-.215-.6595-.215-1.0323z" fill="#e3e6e1"/><path d="m-697.2702-2906.1516 1.7634-6.7312h4.6882l-2.4516 6.7312zm1.1398-11.3764c0-.3584.0717-.699.215-1.0215.1434-.3225.33695-.6021.5807-.8385.2437-.2367.53045-.423.8602-.5593.32975-.1362.681-.2043 1.0538-.2043.34405 0 .6774.0681 1 .2043.32254.1363.6021.3226.8387.5593.2365.2364.4265.516.5699.8385.1433.3225.215.6631.215 1.0215 0 .3728-.0717.717-.215 1.0323-.1434.3154-.3334.5877-.5699.8172-.2366.2295-.51616.4122-.8387.5485-.3226.136-.65595.2042-1 .2042-.3728 0-.72405-.0682-1.0538-.2042-.32975-.1363-.6165-.319-.8602-.5485-.24375-.2295-.4373-.5018-.5807-.8172-.1433-.3153-.215-.6595-.215-1.0323z" stroke="#66727e" stroke-linecap="round" stroke-linejoin="round"/></g></svg>