<?xml version="1.0" encoding="UTF-8" standalone="no"?>
<!DOCTYPE svg PUBLIC "-//W3C//DTD SVG 1.1//EN" "http://www.w3.org/Graphics/SVG/1.1/DTD/svg11.dtd">
<svg xmlns="http://www.w3.org/2000/svg" xmlns:xl="http://www.w3.org/1999/xlink" version="1.1" xmlns:dc="http://purl.org/dc/elements/1.1/" viewBox="-670.4828 -2925.879 25 25" width="25" height="25">
  <defs/>
  <g id="SOURCES" stroke-opacity="1" fill="none" stroke="none" fill-opacity="1" stroke-dasharray="none">
    <title>SOURCES</title>
    <g id="SOURCES_Dark">
      <title>Dark</title>
      <g id="Graphic_11011">
        <path d="M -666.1428 -2925.379 L -649.8228 -2925.379 C -647.702 -2925.379 -645.98276 -2923.66 -645.98276 -2921.539 L -645.98276 -2905.219 C -645.98276 -2903.0983 -647.702 -2901.379 -649.8228 -2901.379 L -666.1428 -2901.379 C -668.2635 -2901.379 -669.9828 -2903.0983 -669.9828 -2905.219 L -669.9828 -2921.539 C -669.9828 -2923.66 -668.2635 -2925.379 -666.1428 -2925.379 Z" fill="#666"/>
        <path d="M -666.1428 -2925.379 L -649.8228 -2925.379 C -647.702 -2925.379 -645.98276 -2923.66 -645.98276 -2921.539 L -645.98276 -2905.219 C -645.98276 -2903.0983 -647.702 -2901.379 -649.8228 -2901.379 L -666.1428 -2901.379 C -668.2635 -2901.379 -669.9828 -2903.0983 -669.9828 -2905.219 L -669.9828 -2921.539 C -669.9828 -2923.66 -668.2635 -2925.379 -666.1428 -2925.379 Z" stroke="white" stroke-linecap="round" stroke-linejoin="round" stroke-width=".25"/>
      </g>
      <g id="Graphic_11010">
        <path d="M -652.33104 -2915.6394 L -663.6345 -2915.6394 C -664.7933 -2915.6394 -665.73275 -2916.5788 -665.73275 -2917.7376 L -665.73275 -2917.7376 C -665.73275 -2918.8965 -664.7933 -2919.836 -663.6345 -2919.836 L -652.33104 -2919.836 C -651.1722 -2919.836 -650.2328 -2918.8965 -650.2328 -2917.7376 L -650.2328 -2917.7376 C -650.2328 -2916.5788 -651.1722 -2915.6394 -652.33104 -2915.6394 Z" fill="white"/>
        <path d="M -652.33104 -2915.6394 L -663.6345 -2915.6394 C -664.7933 -2915.6394 -665.73275 -2916.5788 -665.73275 -2917.7376 L -665.73275 -2917.7376 C -665.73275 -2918.8965 -664.7933 -2919.836 -663.6345 -2919.836 L -652.33104 -2919.836 C -651.1722 -2919.836 -650.2328 -2918.8965 -650.2328 -2917.7376 L -650.2328 -2917.7376 C -650.2328 -2916.5788 -651.1722 -2915.6394 -652.33104 -2915.6394 Z" stroke="#65727e" stroke-linecap="round" stroke-linejoin="round" stroke-width="0"/>
      </g>
      <g id="Graphic_11007">
        <path d="M -655.3161 -2911.6013 L -655.3161 -2915.157 L -660.6494 -2915.157 L -660.6494 -2911.6013 Z M -655.3161 -2910.7124 L -660.6494 -2910.7124 L -660.6494 -2907.157 L -655.3161 -2907.157 Z M -665.0939 -2911.6013 L -661.5383 -2911.6013 L -661.5383 -2915.157 L -665.0939 -2915.157 Z M -665.0939 -2910.7124 L -665.0939 -2908.4902 C -665.0939 -2907.7524 -664.4983 -2907.157 -663.7605 -2907.157 L -661.5383 -2907.157 L -661.5383 -2910.7124 Z M -650.87166 -2911.6013 L -650.87166 -2915.157 L -654.4272 -2915.157 L -654.4272 -2911.6013 Z M -650.87166 -2910.7124 L -654.4272 -2910.7124 L -654.4272 -2907.157 L -652.205 -2907.157 C -651.4672 -2907.157 -650.87166 -2907.7524 -650.87166 -2908.4902 Z M -655.3161 -2916.0457 L -655.3161 -2919.6013 L -660.6494 -2919.6013 L -660.6494 -2916.0457 Z M -665.0939 -2916.0457 L -661.5383 -2916.0457 L -661.5383 -2919.6013 L -663.7605 -2919.6013 C -664.4983 -2919.6013 -665.0939 -2919.0057 -665.0939 -2918.268 Z M -650.87166 -2916.0457 L -650.87166 -2918.268 C -650.87166 -2919.0057 -651.4672 -2919.6013 -652.205 -2919.6013 L -654.4272 -2919.6013 L -654.4272 -2916.0457 Z M -663.7605 -2920.4902 L -652.205 -2920.4902 C -650.9783 -2920.4902 -649.9828 -2919.4946 -649.9828 -2918.268 L -649.9828 -2908.4902 C -649.9828 -2907.2635 -650.9783 -2906.268 -652.205 -2906.268 L -663.7605 -2906.268 C -664.9872 -2906.268 -665.98275 -2907.2635 -665.98275 -2908.4902 L -665.98275 -2918.268 C -665.98275 -2919.4946 -664.9872 -2920.4902 -663.7605 -2920.4902 Z" fill="#e3e6e1"/>
      </g>
    </g>
  </g>
</svg>
