<svg height="25" viewBox="-670.483 -2925.879 25 25" width="25" xmlns="http://www.w3.org/2000/svg"><g fill="none"><path d="m-666.1428-2925.379h16.32c2.1208 0 3.84004 1.719 3.84004 3.84v16.32c0 2.1207-1.71924 3.84-3.84004 3.84h-16.32c-2.1207 0-3.84-1.7193-3.84-3.84v-16.32c0-2.121 1.7193-3.84 3.84-3.84z" fill="#666"/><path d="m-666.1428-2925.379h16.32c2.1208 0 3.84004 1.719 3.84004 3.84v16.32c0 2.1207-1.71924 3.84-3.84004 3.84h-16.32c-2.1207 0-3.84-1.7193-3.84-3.84v-16.32c0-2.121 1.7193-3.84 3.84-3.84z" stroke="#fff" stroke-linecap="round" stroke-linejoin="round" stroke-width=".25"/><path d="m-652.33104-2915.6394h-11.30346c-1.1588 0-2.09825-.9394-2.09825-2.0982 0-1.1589.93945-2.0984 2.09825-2.0984h11.30346c1.15884 0 2.09824.9395 2.09824 2.0984 0 1.1588-.9394 2.0982-2.09824 2.0982z" fill="#fff"/><path d="m-652.33104-2915.6394h-11.30346c-1.1588 0-2.09825-.9394-2.09825-2.0982 0-1.1589.93945-2.0984 2.09825-2.0984h11.30346c1.15884 0 2.09824.9395 2.09824 2.0984 0 1.1588-.9394 2.0982-2.09824 2.0982z"/><path d="m-655.3161-2911.6013v-3.5557h-5.3333v3.5557zm0 .8889h-5.3333v3.5554h5.3333zm-9.7778-.8889h3.5556v-3.5557h-3.5556zm0 .8889v2.2222c0 .7378.5956 1.3332 1.3334 1.3332h2.2222v-3.5554zm14.22224-.8889v-3.5557h-3.55554v3.5557zm0 .8889h-3.55554v3.5554h2.2222c.7378 0 1.33334-.5954 1.33334-1.3332zm-4.44444-5.3333v-3.5556h-5.3333v3.5556zm-9.7778 0h3.5556v-3.5556h-2.2222c-.7378 0-1.3334.5956-1.3334 1.3333zm14.22224 0v-2.2223c0-.7377-.59554-1.3333-1.33334-1.3333h-2.2222v3.5556zm-12.88884-4.4445h11.5555c1.2267 0 2.2222.9956 2.2222 2.2222v9.7778c0 1.2267-.9955 2.2222-2.2222 2.2222h-11.5555c-1.2267 0-2.22225-.9955-2.22225-2.2222v-9.7778c0-1.2266.99555-2.2222 2.22225-2.2222z" fill="#e3e6e1"/></g></svg>