<svg height="25" viewBox="-670.483 -2925.879 25 25" width="25" xmlns="http://www.w3.org/2000/svg"><g fill="none"><path d="M-666.143-2925.379h16.32a3.84 3.84 0 0 1 3.84 3.84v16.32a3.84 3.84 0 0 1-3.84 3.84h-16.32a3.84 3.84 0 0 1-3.84-3.84v-16.32a3.84 3.84 0 0 1 3.84-3.84z" fill="#666"/><path d="M-666.143-2925.379h16.32a3.84 3.84 0 0 1 3.84 3.84v16.32a3.84 3.84 0 0 1-3.84 3.84h-16.32a3.84 3.84 0 0 1-3.84-3.84v-16.32a3.84 3.84 0 0 1 3.84-3.84z" stroke="#fff" stroke-linecap="round" stroke-linejoin="round" stroke-width=".25"/><path d="M-652.331-2915.64h-11.304a2.098 2.098 0 1 1 0-4.196h11.304a2.098 2.098 0 0 1 0 4.197z" fill="#fff"/><path d="M-652.331-2915.64h-11.304a2.098 2.098 0 1 1 0-4.196h11.304a2.098 2.098 0 0 1 0 4.197z"/><path d="M-655.316-2911.601v-3.556h-5.333v3.556zm0 .889h-5.333v3.555h5.333zm-9.778-.89h3.556v-3.555h-3.556zm0 .89v2.222c0 .738.596 1.333 1.334 1.333h2.222v-3.555zm14.222-.89v-3.555h-3.555v3.556zm0 .89h-3.555v3.555h2.222c.738 0 1.333-.595 1.333-1.333zm-4.444-5.334v-3.555h-5.333v3.555zm-9.778 0h3.556v-3.555h-2.222c-.738 0-1.334.595-1.334 1.333zm14.222 0v-2.222c0-.738-.595-1.333-1.333-1.333h-2.222v3.555zm-12.889-4.444h11.556c1.227 0 2.222.995 2.222 2.222v9.778a2.223 2.223 0 0 1-2.222 2.222h-11.555a2.223 2.223 0 0 1-2.223-2.222v-9.778c0-1.227.996-2.222 2.222-2.222z" fill="#e3e6e1"/></g></svg>