<svg xmlns="http://www.w3.org/2000/svg" viewBox="-58.71 -2806.737 24 18"><path d="m-51.16-2797.737 1.67 1.67a.389.389 0 0 1-.55.55l-1.67-1.67-1.67 1.67a.389.389 0 0 1-.55-.55l1.67-1.67-1.67-1.67a.389.389 0 0 1 .55-.55l1.67 1.67 1.67-1.67a.389.389 0 1 1 .55.55zm-7.55-5.055c0-1.074.87-1.945 1.945-1.945h10.11c1.075 0 1.945.87 1.945 1.945v10.11c0 1.075-.87 1.945-1.944 1.945h-10.111a1.944 1.944 0 0 1-1.945-1.944zm.778 0v10.11c0 .645.522 1.167 1.167 1.167h10.11c.645 0 1.167-.522 1.167-1.166v-10.111c0-.645-.522-1.167-1.166-1.167h-10.111c-.645 0-1.167.522-1.167 1.167z" fill="#999"/></svg>