<?xml version="1.0" encoding="UTF-8" standalone="no"?>
<!DOCTYPE svg PUBLIC "-//W3C//DTD SVG 1.1//EN" "http://www.w3.org/Graphics/SVG/1.1/DTD/svg11.dtd">
<svg xmlns:dc="http://purl.org/dc/elements/1.1/" xmlns:xl="http://www.w3.org/1999/xlink" version="1.1" xmlns="http://www.w3.org/2000/svg" viewBox="-58.709935 -2806.737 24 18" width="24" height="18">
  <defs/>
  <g id="SOURCES" stroke-dasharray="none" stroke="none" stroke-opacity="1" fill="none" fill-opacity="1">
    <title>SOURCES</title>
    <g id="SOURCES_New">
      <title>New</title>
      <g id="Group_10458">
        <g id="Graphic_10453">
          <path d="M -51.15996 -2797.737 L -49.490505 -2796.0674 C -49.338634 -2795.9155 -49.338634 -2795.6693 -49.490505 -2795.5174 C -49.642375 -2795.3656 -49.888606 -2795.3656 -50.040477 -2795.5174 L -51.709935 -2797.187 L -53.379393 -2795.5174 C -53.531264 -2795.3656 -53.777495 -2795.3656 -53.929365 -2795.5174 C -54.081236 -2795.6693 -54.081236 -2795.9155 -53.929365 -2796.0674 L -52.25991 -2797.737 L -53.929365 -2799.4063 C -54.081236 -2799.5582 -54.081236 -2799.8044 -53.929365 -2799.9563 C -53.777495 -2800.1082 -53.531264 -2800.1082 -53.379393 -2799.9563 L -51.709935 -2798.287 L -50.040477 -2799.9563 C -49.888606 -2800.1082 -49.642375 -2800.1082 -49.490505 -2799.9563 C -49.338634 -2799.8044 -49.338634 -2799.5582 -49.490505 -2799.4063 Z M -58.709935 -2802.7924 C -58.709935 -2803.8663 -57.83938 -2804.737 -56.76549 -2804.737 L -46.65438 -2804.737 C -45.58049 -2804.737 -44.709935 -2803.8663 -44.709935 -2802.7924 L -44.709935 -2792.6813 C -44.709935 -2791.6074 -45.58049 -2790.737 -46.65438 -2790.737 L -56.76549 -2790.737 C -57.83938 -2790.737 -58.709935 -2791.6074 -58.709935 -2792.6813 Z M -57.93216 -2802.7924 L -57.93216 -2792.6813 C -57.93216 -2792.037 -57.40982 -2791.5147 -56.76549 -2791.5147 L -46.65438 -2791.5147 C -46.010047 -2791.5147 -45.487713 -2792.037 -45.487713 -2792.6813 L -45.487713 -2802.7924 C -45.487713 -2803.4368 -46.010047 -2803.959 -46.65438 -2803.959 L -56.76549 -2803.959 C -57.40982 -2803.959 -57.93216 -2803.4368 -57.93216 -2802.7924 Z" fill="#999"/>
        </g>
        <g id="Graphic_10454"/>
      </g>
    </g>
  </g>
</svg>
