<svg height="18" viewBox="-58.71 -2806.737 24 18" width="24" xmlns="http://www.w3.org/2000/svg"><path d="m-51.15996-2797.737 1.669455 1.6696c.151871.1519.151871.3981 0 .55-.15187.1518-.398101.1518-.549972 0l-1.669458-1.6696-1.669458 1.6696c-.151871.1518-.398102.1518-.549972 0-.151871-.1519-.151871-.3981 0-.55l1.669455-1.6696-1.669455-1.6693c-.151871-.1519-.151871-.3981 0-.55.15187-.1519.398101-.1519.549972 0l1.669458 1.6693 1.669458-1.6693c.151871-.1519.398102-.1519.549972 0 .151871.1519.151871.3981 0 .55zm-7.549975-5.0554c0-1.0739.870555-1.9446 1.944445-1.9446h10.11111c1.07389 0 1.944445.8707 1.944445 1.9446v10.1111c0 1.0739-.870555 1.9443-1.944445 1.9443h-10.11111c-1.07389 0-1.944445-.8704-1.944445-1.9443zm.777775 0v10.1111c0 .6443.52234 1.1666 1.16667 1.1666h10.11111c.644333 0 1.166667-.5223 1.166667-1.1666v-10.1111c0-.6444-.522334-1.1666-1.166667-1.1666h-10.11111c-.64433 0-1.16667.5222-1.16667 1.1666z" fill="#999"/></svg>