<svg height="18" viewBox="-885.587 -2833.148 24 18" width="24" xmlns="http://www.w3.org/2000/svg"><path d="m-874.3148-2820.097-1.5851-1.585c-.1474-.1475-.1474-.376 0-.5235.1475-.1475.376-.1475.5234 0l2.2117 2.2115c.1475.1476.1475.376 0 .5236l-2.2117 2.2117c-.1474.1474-.3759.1474-.5234 0-.1474-.1473-.1474-.376 0-.5233l1.5851-1.5852h-3.5314c-.2064 0-.3686-.1622-.3686-.3686s.1622-.3686.3686-.3686h3.5314zm-3.8705-4.0032c-.4571.2064-.9658.317-1.504.317-.5381 0-1.0468-.1106-1.5039-.317l-3.0079 1.3712c-.3981.177-.6488.575-.6488 1.01v.5235c0 .6119.494 1.1058 1.1059 1.1058h3.6861c.2065 0 .3686.1622.3686.3687 0 .2064-.1621.3685-.3686.3685h-3.6861c-1.0174 0-1.8431-.8255-1.8431-1.843v-.5235c0-.7224.4202-1.3786 1.0837-1.681l2.5509-1.1573c-.8626-.6782-1.4155-1.7251-1.4155-2.9047 0-2.0347 1.6514-3.686 3.6861-3.686 2.0348 0 3.6862 1.6513 3.6862 3.686 0 1.1722-.5456 2.219-1.4081 2.8973l1.9168.8184c.1843.0811.2727.2948.1916.4865-.0811.1843-.2949.2728-.4865.1918l-2.4034-1.025zm-1.504-.4202c1.6293 0 2.949-1.3196 2.949-2.949 0-1.6292-1.3197-2.9489-2.949-2.9489-1.6292 0-2.9489 1.3197-2.9489 2.9489 0 1.6294 1.3197 2.949 2.9489 2.949z" fill="#999"/></svg>