<svg xmlns="http://www.w3.org/2000/svg" viewBox="-885.587 -2833.148 24 18"><path d="m-874.315-2820.097-1.585-1.585a.365.365 0 0 1 0-.524.365.365 0 0 1 .524 0l2.211 2.212a.365.365 0 0 1 0 .524l-2.212 2.211a.365.365 0 0 1-.523 0 .365.365 0 0 1 0-.523l1.585-1.585h-3.531a.365.365 0 0 1-.369-.369c0-.206.162-.368.369-.368h3.531zm-3.87-4.003a3.64 3.64 0 0 1-1.504.317 3.64 3.64 0 0 1-1.504-.317l-3.008 1.371a1.102 1.102 0 0 0-.649 1.01v.524c0 .611.494 1.105 1.106 1.105h3.686c.207 0 .369.163.369.369a.365.365 0 0 1-.369.369h-3.686a1.844 1.844 0 0 1-1.843-1.843v-.524c0-.722.42-1.379 1.084-1.681l2.55-1.157a3.687 3.687 0 1 1 5.957-2.905 3.673 3.673 0 0 1-1.408 2.897l1.917.819a.37.37 0 0 1 .192.486.371.371 0 0 1-.487.192l-2.403-1.025zm-1.504-.42a2.948 2.948 0 1 0 0-5.898 2.948 2.948 0 1 0 0 5.898z" fill="#999"/></svg>