<?xml version="1.0" encoding="UTF-8" standalone="no"?>
<!DOCTYPE svg PUBLIC "-//W3C//DTD SVG 1.1//EN" "http://www.w3.org/Graphics/SVG/1.1/DTD/svg11.dtd">
<svg xmlns:dc="http://purl.org/dc/elements/1.1/" xmlns:xl="http://www.w3.org/1999/xlink" version="1.1" xmlns="http://www.w3.org/2000/svg" viewBox="-777.5871 -2833.0862 24 18" width="24" height="18">
  <defs/>
  <g id="SOURCES" stroke-dasharray="none" stroke="none" stroke-opacity="1" fill="none" fill-opacity="1">
    <title>SOURCES</title>
    <g id="SOURCES_New">
      <title>New</title>
      <g id="Group_10467">
        <g id="Graphic_10121"/>
        <g id="Group_10029">
          <title>user-plus</title>
          <g id="Graphic_10030">
            <path d="M -768.00815 -2820.0336 L -768.00815 -2821.8757 C -768.00815 -2822.082 -767.846 -2822.244 -767.6397 -2822.244 C -767.4334 -2822.244 -767.2713 -2822.082 -767.2713 -2821.8757 L -767.2713 -2820.0336 L -765.4292 -2820.0336 C -765.2229 -2820.0336 -765.0608 -2819.8715 -765.0608 -2819.665 C -765.0608 -2819.459 -765.2229 -2819.2967 -765.4292 -2819.2967 L -767.2713 -2819.2967 L -767.2713 -2817.4546 C -767.2713 -2817.2483 -767.4334 -2817.0862 -767.6397 -2817.0862 C -767.846 -2817.0862 -768.00815 -2817.2483 -768.00815 -2817.4546 L -768.00815 -2819.2967 L -769.85025 -2819.2967 C -770.0566 -2819.2967 -770.2187 -2819.459 -770.2187 -2819.665 C -770.2187 -2819.8715 -770.0566 -2820.0336 -769.85025 -2820.0336 Z M -770.1892 -2824.042 C -770.646 -2823.8357 -771.1545 -2823.725 -771.6924 -2823.725 C -772.23025 -2823.725 -772.7387 -2823.8357 -773.1955 -2824.042 L -776.2018 -2822.6715 C -776.5997 -2822.4946 -776.85025 -2822.0967 -776.85025 -2821.662 L -776.85025 -2821.139 C -776.85025 -2820.5273 -776.3566 -2820.0336 -775.745 -2820.0336 L -772.0608 -2820.0336 C -771.8545 -2820.0336 -771.6924 -2819.8715 -771.6924 -2819.665 C -771.6924 -2819.459 -771.8545 -2819.2967 -772.0608 -2819.2967 L -775.745 -2819.2967 C -776.7618 -2819.2967 -777.5871 -2820.122 -777.5871 -2821.139 L -777.5871 -2821.662 C -777.5871 -2822.384 -777.1671 -2823.04 -776.5039 -2823.342 L -773.9545 -2824.499 C -774.8166 -2825.1767 -775.3692 -2826.223 -775.3692 -2827.402 C -775.3692 -2829.4357 -773.7187 -2831.0862 -771.685 -2831.0862 C -769.6513 -2831.0862 -768.0008 -2829.4357 -768.0008 -2827.402 C -768.0008 -2826.2304 -768.546 -2825.184 -769.40815 -2824.5062 L -767.4924 -2823.6883 C -767.30815 -2823.6073 -767.2197 -2823.3936 -767.3008 -2823.202 C -767.3818 -2823.0178 -767.5955 -2822.9294 -767.7871 -2823.0104 L -770.1892 -2824.0346 Z M -771.6924 -2824.4546 C -770.0639 -2824.4546 -768.745 -2825.7736 -768.745 -2827.402 C -768.745 -2829.0304 -770.0639 -2830.3494 -771.6924 -2830.3494 C -773.3208 -2830.3494 -774.6397 -2829.0304 -774.6397 -2827.402 C -774.6397 -2825.7736 -773.3208 -2824.4546 -771.6924 -2824.4546 Z" fill="#999"/>
          </g>
        </g>
      </g>
    </g>
  </g>
</svg>
