<svg height="18" viewBox="-777.587 -2833.086 24 18" width="24" xmlns="http://www.w3.org/2000/svg"><path d="m-768.00815-2820.0336v-1.8421c0-.2063.16215-.3683.36845-.3683s.3684.162.3684.3683v1.8421h1.8421c.2063 0 .3684.1621.3684.3686 0 .206-.1621.3683-.3684.3683h-1.8421v1.8421c0 .2063-.1621.3684-.3684.3684s-.36845-.1621-.36845-.3684v-1.8421h-1.8421c-.20635 0-.36845-.1623-.36845-.3683 0-.2065.1621-.3686.36845-.3686zm-2.18105-4.0084c-.4568.2063-.9653.317-1.5032.317-.53785 0-1.0463-.1107-1.5031-.317l-3.0063 1.3705c-.3979.1769-.64845.5748-.64845 1.0095v.523c0 .6117.49365 1.1054 1.10525 1.1054h3.6842c.2063 0 .3684.1621.3684.3686 0 .206-.1621.3683-.3684.3683h-3.6842c-1.0168 0-1.8421-.8253-1.8421-1.8423v-.523c0-.722.42-1.378 1.0832-1.68l2.5494-1.157c-.8621-.6777-1.4147-1.724-1.4147-2.903 0-2.0337 1.6505-3.6842 3.6842-3.6842s3.6842 1.6505 3.6842 3.6842c0 1.1716-.5452 2.218-1.40735 2.8958l1.91575.8179c.18425.081.2727.2947.1916.4863-.081.1842-.2947.2726-.4863.1916l-2.4021-1.0242zm-1.5032-.4126c1.6285 0 2.9474-1.319 2.9474-2.9474s-1.3189-2.9474-2.9474-2.9474c-1.6284 0-2.9473 1.319-2.9473 2.9474s1.3189 2.9474 2.9473 2.9474z" fill="#999"/></svg>