<?xml version="1.0" encoding="UTF-8" standalone="no"?>
<!DOCTYPE svg PUBLIC "-//W3C//DTD SVG 1.1//EN" "http://www.w3.org/Graphics/SVG/1.1/DTD/svg11.dtd">
<svg xmlns:dc="http://purl.org/dc/elements/1.1/" xmlns:xl="http://www.w3.org/1999/xlink" version="1.1" xmlns="http://www.w3.org/2000/svg" viewBox="-741.5871 -2833.0862 24 18" width="24" height="18">
  <defs/>
  <g id="SOURCES" stroke-dasharray="none" stroke="none" stroke-opacity="1" fill="none" fill-opacity="1">
    <title>SOURCES</title>
    <g id="SOURCES_New">
      <title>New</title>
      <g id="Group_10469">
        <g id="Graphic_10123"/>
        <g id="Group_10023">
          <title>refresh-left</title>
          <g id="Graphic_10024">
            <path d="M -738.9566 -2829.257 C -740.4814 -2827.8255 -741.306 -2825.7796 -741.1504 -2823.6325 C -740.86255 -2819.774 -737.5097 -2816.88 -733.6511 -2817.168 C -729.7926 -2817.4557 -726.8987 -2820.8086 -727.1865 -2824.667 C -727.4743 -2828.5257 -730.5705 -2831.2018 -734.2579 -2831.1473 C -734.4757 -2831.1473 -734.6469 -2830.9684 -734.6391 -2830.7506 C -734.6313 -2830.5328 -734.4602 -2830.3616 -734.2423 -2830.3694 C -730.96725 -2830.416 -728.2056 -2827.8956 -727.95665 -2824.605 C -727.7077 -2821.3143 -730.2749 -2818.1947 -733.7056 -2817.938 C -737.13625 -2817.6813 -740.1157 -2820.2563 -740.37245 -2823.687 C -740.5125 -2825.6007 -739.7734 -2827.4366 -738.4043 -2828.7046 L -738.2487 -2826.573 C -738.2331 -2826.3553 -738.0464 -2826.1997 -737.8286 -2826.2152 C -737.6108 -2826.2308 -737.4552 -2826.4175 -737.4708 -2826.6353 L -737.7041 -2829.7393 C -737.7197 -2829.957 -737.9064 -2830.1127 -738.1242 -2830.097 L -741.2282 -2829.8637 C -741.446 -2829.8482 -741.6016 -2829.6615 -741.586 -2829.4436 C -741.5705 -2829.2258 -741.3838 -2829.0702 -741.1659 -2829.0858 L -738.9644 -2829.249 Z" fill="#999"/>
          </g>
        </g>
      </g>
    </g>
  </g>
</svg>
