<svg xmlns="http://www.w3.org/2000/svg" viewBox="-741.587 -2833.086 24 18"><path d="M-738.957-2829.257a6.997 6.997 0 0 0-2.193 5.624 6.997 6.997 0 0 0 7.499 6.465 6.997 6.997 0 0 0 6.464-7.499c-.287-3.859-3.384-6.535-7.07-6.48a.38.38 0 0 0-.382.396.385.385 0 0 0 .397.382c3.275-.047 6.036 2.473 6.285 5.764.25 3.29-2.318 6.41-5.749 6.667a6.222 6.222 0 0 1-6.666-5.749 6.21 6.21 0 0 1 1.968-5.018l.155 2.132a.387.387 0 0 0 .42.358.387.387 0 0 0 .358-.42l-.233-3.104a.387.387 0 0 0-.42-.358l-3.104.233a.386.386 0 0 0-.358.42.386.386 0 0 0 .42.358l2.202-.163z" fill="#999"/></svg>