<?xml version="1.0" encoding="UTF-8" standalone="no"?>
<!DOCTYPE svg PUBLIC "-//W3C//DTD SVG 1.1//EN" "http://www.w3.org/Graphics/SVG/1.1/DTD/svg11.dtd">
<svg xmlns:dc="http://purl.org/dc/elements/1.1/" xmlns:xl="http://www.w3.org/1999/xlink" version="1.1" xmlns="http://www.w3.org/2000/svg" viewBox="-705.5871 -2834.0862 24 18" width="24" height="18">
  <defs/>
  <g id="SOURCES" stroke-dasharray="none" stroke="none" stroke-opacity="1" fill="none" fill-opacity="1">
    <title>SOURCES</title>
    <g id="SOURCES_New">
      <title>New</title>
      <g id="Group_10470">
        <g id="Graphic_10125"/>
        <g id="Group_10033">
          <title>flag</title>
          <g id="Graphic_10034">
            <path d="M -699.3649 -2830.5307 L -695.0871 -2830.5307 C -694.7682 -2830.5307 -694.5815 -2830.165 -694.776 -2829.9084 L -696.9304 -2827.0307 L -694.776 -2824.153 C -694.5815 -2823.8962 -694.7682 -2823.5307 -695.0871 -2823.5307 L -698.976 -2823.5307 C -699.6215 -2823.5307 -700.14265 -2824.0518 -700.14265 -2824.6973 C -700.14265 -2824.915 -700.3138 -2825.0862 -700.5315 -2825.0862 L -704.8093 -2825.0862 L -704.8093 -2818.475 C -704.8093 -2818.2573 -704.9804 -2818.0862 -705.1982 -2818.0862 C -705.416 -2818.0862 -705.5871 -2818.2573 -705.5871 -2818.475 L -705.5871 -2830.9196 C -705.5871 -2831.565 -705.066 -2832.0862 -704.4204 -2832.0862 L -700.5315 -2832.0862 C -699.886 -2832.0862 -699.3649 -2831.565 -699.3649 -2830.9196 L -699.3649 -2830.523 Z M -699.3649 -2829.753 L -699.3649 -2828.5862 C -699.3649 -2828.3684 -699.536 -2828.1973 -699.7538 -2828.1973 C -699.9715 -2828.1973 -700.14265 -2828.3684 -700.14265 -2828.5862 L -700.14265 -2830.1418 L -700.14265 -2830.9273 C -700.14265 -2831.145 -700.3138 -2831.3162 -700.5315 -2831.3162 L -704.4204 -2831.3162 C -704.6382 -2831.3162 -704.8093 -2831.145 -704.8093 -2830.9273 L -704.8093 -2825.864 L -700.5315 -2825.864 C -699.886 -2825.864 -699.3649 -2825.343 -699.3649 -2824.6973 C -699.3649 -2824.4796 -699.1938 -2824.3084 -698.976 -2824.3084 L -695.8649 -2824.3084 L -697.7315 -2826.7973 C -697.83265 -2826.9373 -697.83265 -2827.124 -697.7315 -2827.264 L -695.8649 -2829.753 Z" fill="#999"/>
          </g>
        </g>
      </g>
    </g>
  </g>
</svg>
