<svg height="18" viewBox="-669.587 -2834.086 24 18" width="24" xmlns="http://www.w3.org/2000/svg"><path d="M-658.22-2829.463h-6.995v10.502h6.996zm.875 0v10.502h1.312a1.31 1.31 0 0 0 1.312-1.311v-7.88a1.31 1.31 0 0 0-1.312-1.311zm-8.744 0h-1.312a1.31 1.31 0 0 0-1.312 1.312v7.879a1.31 1.31 0 0 0 1.312 1.311h1.312zm1.749-.874v-.438a1.31 1.31 0 0 1 1.311-1.311h2.624a1.31 1.31 0 0 1 1.311 1.311v.438h3.06c1.208 0 2.187.979 2.187 2.186v7.879c0 1.206-.98 2.186-2.186 2.186h-11.368a2.187 2.187 0 0 1-2.186-2.186v-7.88c0-1.206.98-2.185 2.186-2.185zm4.372 0v-.438a.433.433 0 0 0-.437-.437h-2.624a.433.433 0 0 0-.437.437v.438z" fill="#999"/></svg>