<svg height="18" viewBox="-669.587 -2834.086 24 18" width="24" xmlns="http://www.w3.org/2000/svg"><path d="m-658.2192-2829.463h-6.9956v10.5023h6.9956zm.87445 0v10.5023h1.31165c.7258 0 1.3117-.5859 1.3117-1.3117v-7.8788c0-.7258-.5859-1.3118-1.3117-1.3118zm-8.74455 0h-1.3117c-.72576 0-1.31164.586-1.31164 1.3118v7.8788c0 .7258.58588 1.3117 1.31164 1.3117h1.3117zm1.7489-.8743v-.4372c0-.7258.5859-1.3117 1.3117-1.3117h2.6234c.7258 0 1.31165.5859 1.31165 1.3117v.4372h3.06055c1.2068 0 2.1862.9793 2.1862 2.1861v7.8788c0 1.2068-.9794 2.1862-2.1862 2.1862h-11.3679c-1.2067 0-2.1861-.9794-2.1861-2.1862v-7.8788c0-1.2068.9794-2.1861 2.1861-2.1861zm4.3723 0v-.4372c0-.2449-.1924-.4373-.4372-.4373h-2.6234c-.24484 0-.4372.1924-.4372.4373v.4372z" fill="#999"/></svg>