<svg xmlns="http://www.w3.org/2000/svg" viewBox="-633.587 -2834.086 24 18"><path d="M-624.013-2830.613h-5.892v.368a.365.365 0 0 1-.368.368.365.365 0 0 1-.368-.368v-.368h-1.105c-.611 0-1.105.493-1.105 1.104v1.841h11.784v-1.84c0-.612-.494-1.105-1.105-1.105h-1.105v.368a.365.365 0 0 1-.368.368.365.365 0 0 1-.368-.368zm.736-.737h1.105c1.016 0 1.841.825 1.841 1.841v9.582a1.842 1.842 0 0 1-1.841 1.84h-9.574a1.842 1.842 0 0 1-1.841-1.84v-9.582c0-1.016.825-1.84 1.841-1.84h1.105v-.369c0-.206.162-.368.368-.368s.368.162.368.368v.368h5.892v-.368c0-.206.162-.368.368-.368s.368.162.368.368zm2.21 4.419h-11.784v7.004c0 .611.494 1.104 1.105 1.104h9.574c.611 0 1.105-.493 1.105-1.104z" fill="#999"/></svg>