<svg height="18" viewBox="-633.587 -2834.086 24 18" width="24" xmlns="http://www.w3.org/2000/svg"><path d="m-624.0132-2830.6133h-5.8916v.3683c0 .206-.16204.368-.36825.368s-.36825-.162-.36825-.368v-.3683h-1.10466c-.61124 0-1.10468.4933-1.10468 1.1047v1.8411h11.78324v-1.8411c0-.6114-.4934-1.1047-1.10465-1.1047h-1.10465v.3683c0 .206-.16205.368-.36826.368-.20624 0-.36824-.162-.36824-.368zm.7365-.7365h1.10465c1.01631 0 1.84115.8248 1.84115 1.8412v9.5812c0 1.0164-.82484 1.8412-1.84115 1.8412h-9.57391c-1.01634 0-1.84114-.8248-1.84114-1.8412v-9.5812c0-1.0164.8248-1.8412 1.84114-1.8412h1.10466v-.3682c0-.2062.16204-.3682.36825-.3682s.36825.162.36825.3682v.3682h5.8916v-.3682c0-.2062.162-.3682.36824-.3682.20621 0 .36826.162.36826.3682zm2.2093 4.4188h-11.78324v7.0036c0 .6114.49344 1.1047 1.10468 1.1047h9.57391c.61125 0 1.10465-.4933 1.10465-1.1047z" fill="#999"/></svg>