<svg viewBox="-634 -3239.414 24 18" xmlns="http://www.w3.org/2000/svg"><g fill="none"><g fill="#999"><path d="M-618.897-3227.487v-8.706a1.33 1.33 0 0 0-1.333-1.333h-11.549a1.33 1.33 0 0 0-1.333 1.332v6.033l2.799-2.799a.44.44 0 0 1 .63 0l5.02 5.02 2.354-2.355a.44.44 0 0 1 .631 0l2.798 2.799zm0 1.252l-3.11-3.109-2.354 2.354a.44.44 0 0 1-.63 0l-5.02-5.019-3.11 3.11v4.255a1.33 1.33 0 0 0 1.333 1.332h11.55a1.33 1.33 0 0 0 1.332-1.332v-1.59zm-15.103-9.958c0-1.226.995-2.221 2.221-2.221h11.55c1.225 0 2.22.995 2.22 2.22v11.55a2.222 2.222 0 0 1-2.22 2.22h-11.55a2.222 2.222 0 0 1-2.221-2.22z"/><path d="M-618-3224.635a2.222 2.222 0 0 1-2.221 2.22h-11.558a2.222 2.222 0 0 1-2.221-2.22v-11.558c0-1.226.995-2.221 2.221-2.221h11.558c1.226 0 2.221.995 2.221 2.22zm-.888-10.226v-1.332a1.33 1.33 0 0 0-1.333-1.333h-11.558a1.33 1.33 0 0 0-1.333 1.332v1.333zm0 .889h-14.224v9.337a1.33 1.33 0 0 0 1.333 1.332h11.558a1.33 1.33 0 0 0 1.333-1.332zm-13.335-2.666h.888v.889h-.888zm1.777 0h.888v.889h-.888zm1.776 0h.889v.889h-.889z"/><path d="M-625.493-3233.28h1.554a1 1 0 0 1 1 1v1.554a1 1 0 0 1-1 1h-1.554a1 1 0 0 1-1-1v-1.554a1 1 0 0 1 1-1z"/></g><path d="M-625.605-3232.391h1.777v1.777h-1.777z" fill="#fff"/></g></svg>