<?xml version="1.0" encoding="UTF-8" standalone="no"?>
<!DOCTYPE svg PUBLIC "-//W3C//DTD SVG 1.1//EN" "http://www.w3.org/Graphics/SVG/1.1/DTD/svg11.dtd">
<svg xmlns:dc="http://purl.org/dc/elements/1.1/" xmlns:xl="http://www.w3.org/1999/xlink" version="1.1" xmlns="http://www.w3.org/2000/svg" viewBox="-634 -3239.4145 24 18" width="24" height="18">
  <defs/>
  <g id="SOURCES" stroke-dasharray="none" stroke="none" stroke-opacity="1" fill="none" fill-opacity="1">
    <title>SOURCES</title>
    <g id="SOURCES_Calque_2">
      <title>Calque 2</title>
      <g id="Group_10262">
        <g id="Graphic_10260">
          <path d="M -618.8973 -3227.4872 L -618.8973 -3236.1935 C -618.8973 -3236.931 -619.4925 -3237.526 -620.2299 -3237.526 L -631.779 -3237.526 C -632.5164 -3237.526 -633.1116 -3236.931 -633.1116 -3236.1935 L -633.1116 -3230.1613 L -630.31316 -3232.9597 C -630.1355 -3233.1374 -629.8601 -3233.1374 -629.6824 -3232.9597 L -624.663 -3227.9403 L -622.3087 -3230.2946 C -622.13104 -3230.4722 -621.8556 -3230.4722 -621.67796 -3230.2946 L -618.8795 -3227.496 Z M -618.8973 -3226.2346 L -622.0067 -3229.344 L -624.3609 -3226.9897 C -624.5386 -3226.812 -624.814 -3226.812 -624.9917 -3226.9897 L -630.0111 -3232.009 L -633.1205 -3228.8998 L -633.1205 -3224.6444 C -633.1205 -3223.907 -632.5253 -3223.3118 -631.7879 -3223.3118 L -620.23876 -3223.3118 C -619.5014 -3223.3118 -618.9062 -3223.907 -618.9062 -3224.6444 L -618.9062 -3226.2346 Z M -634 -3236.1935 C -634 -3237.4195 -633.005 -3238.4145 -631.779 -3238.4145 L -620.2299 -3238.4145 C -619.0039 -3238.4145 -618.0089 -3237.4195 -618.0089 -3236.1935 L -618.0089 -3224.6444 C -618.0089 -3223.4184 -619.0039 -3222.4234 -620.2299 -3222.4234 L -631.779 -3222.4234 C -633.005 -3222.4234 -634 -3223.4184 -634 -3224.6444 Z" fill="#999"/>
        </g>
        <g id="Graphic_10258">
          <path d="M -618 -3224.6355 C -618 -3223.4095 -618.995 -3222.4145 -620.221 -3222.4145 L -631.779 -3222.4145 C -633.005 -3222.4145 -634 -3223.4095 -634 -3224.6355 L -634 -3236.1935 C -634 -3237.4195 -633.005 -3238.4145 -631.779 -3238.4145 L -620.221 -3238.4145 C -618.995 -3238.4145 -618 -3237.4195 -618 -3236.1935 L -618 -3224.6355 Z M -618.8884 -3234.861 L -618.8884 -3236.1935 C -618.8884 -3236.931 -619.4836 -3237.526 -620.221 -3237.526 L -631.779 -3237.526 C -632.5164 -3237.526 -633.1116 -3236.931 -633.1116 -3236.1935 L -633.1116 -3234.861 Z M -618.8884 -3233.9725 L -633.1116 -3233.9725 L -633.1116 -3224.6355 C -633.1116 -3223.898 -632.5164 -3223.303 -631.779 -3223.303 L -620.221 -3223.303 C -619.4836 -3223.303 -618.8884 -3223.898 -618.8884 -3224.6355 Z M -632.2232 -3236.6377 L -631.3348 -3236.6377 L -631.3348 -3235.7493 L -632.2232 -3235.7493 Z M -630.4464 -3236.6377 L -629.558 -3236.6377 L -629.558 -3235.7493 L -630.4464 -3235.7493 Z M -628.6696 -3236.6377 L -627.7812 -3236.6377 L -627.7812 -3235.7493 L -628.6696 -3235.7493 Z" fill="#999"/>
        </g>
        <g id="Graphic_10256">
          <path d="M -625.49306 -3233.2796 L -623.9395 -3233.2796 C -623.3872 -3233.2796 -622.9395 -3232.832 -622.9395 -3232.2796 L -622.9395 -3230.726 C -622.9395 -3230.1737 -623.3872 -3229.726 -623.9395 -3229.726 L -625.49306 -3229.726 C -626.04534 -3229.726 -626.49306 -3230.1737 -626.49306 -3230.726 L -626.49306 -3232.2796 C -626.49306 -3232.832 -626.04534 -3233.2796 -625.49306 -3233.2796 Z" fill="#999"/>
        </g>
        <g id="Graphic_10255">
          <rect x="-625.6047" y="-3232.391" width="1.7767907" height="1.7767907" fill="white"/>
        </g>
      </g>
      <g id="Graphic_10263"/>
    </g>
  </g>
</svg>
