<svg height="18" viewBox="-597.587 -2833.086 24 18" width="24" xmlns="http://www.w3.org/2000/svg"><path d="m-595.1019-2822.2778c-.7353-.5729-1.6864-.4912-2.4057-1.0172-.5115-.4093 1.5665-1.1693 2.7653-.304 1.1589.678 1.6944 2.701 2.4456 3.952.2318.3392.4236.4444.61544.2222 1.00701-2.0112 2.03002-6.3725 2.90116-8.863.38364-.9588.8632-3.5779 1.7583-2.5724 1.055 1.1927 1.69435 5.8347 3.5086 6.5012.54345.339 1.5984.3156 1.9261.912-.9271 1.0172-2.8612.643-3.65244-.7484-.91111-1.52-1.60646-4.7706-2.12596-4.6069-.41556.2105-.5115.9238-.74324 1.5318-.73526 2.3502-1.6464 5.3318-2.3657 7.647-.50351 1.4382-.70331 2.4205-1.31072 2.5373-.9271-.0585-1.99004-4.2328-3.17294-5.098l-.12785-.1053z" fill="#999"/></svg>