<svg viewBox="-525.587 -2833.086 24 18" xmlns="http://www.w3.org/2000/svg"><path d="M-512.787-2828.462v10.376a2 2 0 0 1-2 2h-8.8a2 2 0 0 1-2-2v-12a2 2 0 0 1 2-2h7.176c.104 0 .216.032.304.12l3.2 3.2c.088.088.12.2.12.304zm-4-2.824h-6.8c-.664 0-1.2.536-1.2 1.2v12c0 .664.536 1.2 1.2 1.2h8.8c.664 0 1.2-.536 1.2-1.2v-10h-2.8a.396.396 0 0 1-.4-.4zm.8.568v1.832h1.832zm-6 5.032a.396.396 0 0 1-.4-.4c0-.224.176-.4.4-.4h5.6c.224 0 .4.176.4.4s-.176.4-.4.4zm0 2.4a.396.396 0 0 1-.4-.4c0-.224.176-.4.4-.4h5.6c.224 0 .4.176.4.4s-.176.4-.4.4zm0 2.4a.396.396 0 0 1-.4-.4c0-.224.176-.4.4-.4h4c.224 0 .4.176.4.4s-.176.4-.4.4z" fill="#999"/></svg>