<svg xmlns="http://www.w3.org/2000/svg" viewBox="-453.587 -2834.086 24 18"><path d="M-440.587-2824.625v4.616h.5c.28 0 .5.203.5.461 0 .259-.22.462-.5.462h-2c-.28 0-.5-.203-.5-.462 0-.258.22-.461.5-.461h.5v-4.616h-2v.462c0 .258-.22.461-.5.461s-.5-.203-.5-.461v-.923c0-.259.22-.462.5-.462h6c.28 0 .5.203.5.462v.923c0 .258-.22.461-.5.461s-.5-.203-.5-.461v-.462zm-7-5.538v10.154h1.5c.28 0 .5.203.5.461 0 .259-.22.462-.5.462h-4c-.28 0-.5-.203-.5-.462 0-.258.22-.461.5-.461h1.5v-10.154h-4v1.385c0 .258-.22.461-.5.461s-.5-.203-.5-.461v-1.847c0-.258.22-.461.5-.461h10c.28 0 .5.203.5.461v1.847c0 .258-.22.461-.5.461s-.5-.203-.5-.461v-1.385z" fill="#999"/></svg>