<?xml version="1.0" encoding="UTF-8" standalone="no"?>
<!DOCTYPE svg PUBLIC "-//W3C//DTD SVG 1.1//EN" "http://www.w3.org/Graphics/SVG/1.1/DTD/svg11.dtd">
<svg xmlns:dc="http://purl.org/dc/elements/1.1/" xmlns:xl="http://www.w3.org/1999/xlink" version="1.1" xmlns="http://www.w3.org/2000/svg" viewBox="-416.5939 -2833.0862 24 18" width="24" height="18">
  <defs/>
  <g id="SOURCES" stroke-dasharray="none" stroke="none" stroke-opacity="1" fill="none" fill-opacity="1">
    <title>SOURCES</title>
    <g id="SOURCES_New">
      <title>New</title>
      <g id="Group_10483">
        <g id="Graphic_10149"/>
        <g id="Group_10052">
          <title>shape-polygon</title>
          <g id="Graphic_10053">
            <path d="M -415.17166 -2827.1973 C -414.78055 -2827.1973 -414.46055 -2827.5473 -414.46055 -2827.975 L -414.46055 -2828.0296 L -405.9272 -2829.4684 C -405.89877 -2829.0718 -405.593 -2828.753 -405.2161 -2828.753 L -405.2161 -2819.4196 C -405.5859 -2819.4196 -405.89166 -2819.1084 -405.9272 -2818.704 L -414.46055 -2820.143 L -414.46055 -2820.1973 C -414.46055 -2820.625 -414.78055 -2820.975 -415.17166 -2820.975 Z M -415.88277 -2827.1973 L -415.88277 -2820.975 C -416.2739 -2820.975 -416.5939 -2820.625 -416.5939 -2820.1973 L -416.5939 -2819.4196 C -416.5939 -2818.9918 -416.2739 -2818.6418 -415.88277 -2818.6418 L -415.17166 -2818.6418 C -414.8019 -2818.6418 -414.4961 -2818.953 -414.46055 -2819.3573 L -405.9272 -2817.9184 L -405.9272 -2817.864 C -405.9272 -2817.4362 -405.6072 -2817.0862 -405.2161 -2817.0862 L -404.505 -2817.0862 C -404.1139 -2817.0862 -403.7939 -2817.4362 -403.7939 -2817.864 L -403.7939 -2818.6418 C -403.7939 -2819.0696 -404.1139 -2819.4196 -404.505 -2819.4196 L -404.505 -2828.753 C -404.1139 -2828.753 -403.7939 -2829.103 -403.7939 -2829.5307 L -403.7939 -2830.3084 C -403.7939 -2830.7362 -404.1139 -2831.0862 -404.505 -2831.0862 L -405.2161 -2831.0862 C -405.6072 -2831.0862 -405.9272 -2830.7362 -405.9272 -2830.3084 L -405.9272 -2830.254 L -414.46055 -2828.815 C -414.489 -2829.2118 -414.79477 -2829.5307 -415.17166 -2829.5307 L -415.88277 -2829.5307 C -416.2739 -2829.5307 -416.5939 -2829.1807 -416.5939 -2828.753 L -416.5939 -2827.975 C -416.5939 -2827.5473 -416.2739 -2827.1973 -415.88277 -2827.1973 Z M -405.2161 -2818.2607 L -405.2161 -2818.6418 L -404.505 -2818.6418 L -404.505 -2817.864 L -405.2161 -2817.864 L -405.2161 -2818.245 C -405.2161 -2818.245 -405.2161 -2818.253 -405.2161 -2818.2607 Z M -415.17166 -2819.8007 L -415.17166 -2819.4196 L -415.88277 -2819.4196 L -415.88277 -2820.1973 L -415.17166 -2820.1973 L -415.17166 -2819.8162 C -415.17166 -2819.8162 -415.17166 -2819.8084 -415.17166 -2819.8007 Z M -405.2161 -2829.9273 L -405.2161 -2830.3084 L -404.505 -2830.3084 L -404.505 -2829.5307 L -405.2161 -2829.5307 L -405.2161 -2829.9118 C -405.2161 -2829.9118 -405.2161 -2829.9196 -405.2161 -2829.9273 Z M -415.17166 -2828.3562 L -415.17166 -2827.975 L -415.88277 -2827.975 L -415.88277 -2828.753 L -415.17166 -2828.753 L -415.17166 -2828.3718 C -415.17166 -2828.3718 -415.17166 -2828.364 -415.17166 -2828.3562 Z" fill="#999"/>
          </g>
        </g>
      </g>
    </g>
  </g>
</svg>
