<svg height="18" viewBox="-416.594 -2833.086 24 18" width="24" xmlns="http://www.w3.org/2000/svg"><path d="m-415.17166-2827.1973c.39111 0 .71111-.35.71111-.7777v-.0546l8.53335-1.4388c.02843.3966.3342.7154.7111.7154v9.3334c-.3698 0-.67556.3112-.7111.7156l-8.53335-1.439v-.0543c0-.4277-.32-.7777-.71111-.7777zm-.71111 0v6.2223c-.39113 0-.71113.35-.71113.7777v.7777c0 .4278.32.7778.71113.7778h.71111c.36976 0 .67556-.3112.71111-.7155l8.53335 1.4389v.0544c0 .4278.32.7778.7111.7778h.7111c.3911 0 .7111-.35.7111-.7778v-.7778c0-.4278-.32-.7778-.7111-.7778v-9.3334c.3911 0 .7111-.35.7111-.7777v-.7777c0-.4278-.32-.7778-.7111-.7778h-.7111c-.3911 0-.7111.35-.7111.7778v.0544l-8.53335 1.439c-.02845-.3968-.33422-.7157-.71111-.7157h-.71111c-.39113 0-.71113.35-.71113.7777v.778c0 .4277.32.7777.71113.7777zm10.66667 8.9366v-.3811h.7111v.7778h-.7111v-.381s0-.008 0-.0157zm-9.95556-1.54v.3811h-.71111v-.7777h.71111v.3811zm9.95556-10.1266v-.3811h.7111v.7777h-.7111v-.3811s0-.0078 0-.0155zm-9.95556 1.5711v.3812h-.71111v-.778h.71111v.3812z" fill="#999"/></svg>