<svg height="18" viewBox="-416.594 -2833.086 24 18" width="24" xmlns="http://www.w3.org/2000/svg"><path d="M-415.172-2827.197c.391 0 .711-.35.711-.778v-.055l8.534-1.438c.028.396.334.715.71.715v9.333c-.369 0-.675.312-.71.716l-8.534-1.439v-.054c0-.428-.32-.778-.71-.778zm-.71 0v6.222c-.392 0-.712.35-.712.778v.777c0 .428.32.778.711.778h.711c.37 0 .676-.311.711-.715l8.534 1.439v.054c0 .428.32.778.71.778h.712c.391 0 .711-.35.711-.778v-.778c0-.428-.32-.778-.711-.778v-9.333c.391 0 .711-.35.711-.778v-.777c0-.428-.32-.778-.711-.778h-.711c-.391 0-.711.35-.711.778v.054l-8.534 1.439c-.028-.397-.334-.716-.71-.716h-.712c-.39 0-.71.35-.71.778v.778c0 .428.32.778.71.778zm10.666 8.936v-.38h.711v.777h-.711v-.381-.016zm-9.956-1.54v.381h-.71v-.777h.71v.38zm9.956-10.126v-.381h.711v.777h-.711v-.38-.016zm-9.956 1.57v.382h-.71v-.778h.71v.381z" fill="#999"/></svg>