<svg height="18" viewBox="-381.587 -2834.086 24 18" width="24" xmlns="http://www.w3.org/2000/svg"><path d="M-376.715-2820.186a2.445 2.445 0 0 1-2.422 2.1 2.453 2.453 0 0 1-2.45-2.45c0-1.232.91-2.254 2.1-2.422v-4.25a2.445 2.445 0 0 1-2.1-2.421c0-1.358 1.099-2.457 2.45-2.457s2.45 1.099 2.45 2.45c0 1.232-.91 2.254-2.1 2.422v4.249a2.443 2.443 0 0 1 2.072 2.072h3.178a2.453 2.453 0 0 0 2.45-2.45v-.378a2.445 2.445 0 0 1-2.1-2.422c0-1.351 1.099-2.45 2.45-2.45s2.45 1.099 2.45 2.45c0 1.232-.91 2.254-2.1 2.422v.378a3.146 3.146 0 0 1-3.15 3.15h-3.178zm-4.172-.35a1.75 1.75 0 1 0 3.501-.001 1.75 1.75 0 0 0-3.501 0zm0-9.1a1.75 1.75 0 1 0 3.501-.001 1.75 1.75 0 0 0-3.501 0zm10.15 5.25a1.75 1.75 0 1 0-.001-3.501 1.75 1.75 0 0 0 0 3.5z" fill="#999"/></svg>