<svg height="18" viewBox="-309.587 -2833.086 24 18" width="24" xmlns="http://www.w3.org/2000/svg"><path d="m-308.80727-2829.8024v11.4324c0 .2806.22617.5068.50689.5068.10138 0 .20276-.0312.28074-.0858l8.31298-5.6382c.27294-.1871.34312-.5614.15596-.8344-.039-.0624-.09358-.117-.15596-.156l-8.31298-5.6459c-.23396-.156-.54588-.0935-.70186.1325-.05457.086-.08577.1794-.08577.2808zm-.77983 0c0-.2573.078-.5069.21836-.7252.40551-.5849 1.20094-.7409 1.7936-.3432l8.31298 5.6382c.14816.1014.27294.2261.36652.3666.42891.6316.26514 1.4894-.36652 1.9183l-8.31298 5.6382c-.21056.1481-.46789.2183-.72524.2183-.70964 0-1.28672-.5771-1.28672-1.2868z" fill="#999"/></svg>