<svg height="18" viewBox="-94.71 -2807.737 24 18" width="24" xmlns="http://www.w3.org/2000/svg"><g fill="none"><g fill="#999"><path d="m-81.49505-2796.1755v-7.618c0-.6452-.52083-1.166-1.16602-1.166h-10.1055c-.6452 0-1.16602.5208-1.16602 1.166v5.2782l2.44864-2.4487c.15547-.1554.39645-.1554.55192 0l4.392 4.392 2.05997-2.06c.15547-.1554.39644-.1554.55191 0l2.44864 2.4487zm0 1.096-2.72072-2.7207-2.05996 2.06c-.15547.1555-.39645.1555-.55192 0l-4.392-4.392-2.72071 2.7207v3.7235c0 .6452.52082 1.166 1.16602 1.166h10.10549c.6452 0 1.16602-.5208 1.16602-1.166v-1.3915zm-13.21488-8.714c0-1.0728.87062-1.9435 1.94336-1.9435h10.1055c1.07273 0 1.94336.8707 1.94336 1.9435v10.1055c0 1.0727-.87063 1.9433-1.94336 1.9433h-10.1055c-1.07274 0-1.94336-.8706-1.94336-1.9433z"/><path d="m-80.709935-2793.6802c0 1.0727-.870625 1.9432-1.943365 1.9432h-10.11327c-1.07274 0-1.94336-.8705-1.94336-1.9432v-10.1133c0-1.0728.87062-1.9435 1.94336-1.9435h10.11327c1.07274 0 1.943365.8707 1.943365 1.9435zm-.777345-8.9473v-1.166c0-.6452-.52082-1.166-1.16602-1.166h-10.11327c-.6452 0-1.16602.5208-1.16602 1.166v1.166zm0 .7775h-12.44531v8.1698c0 .6452.52082 1.166 1.16602 1.166h10.11327c.6452 0 1.16602-.5208 1.16602-1.166zm-11.66796-2.3322h.77734v.7772h-.77734zm1.55469 0h.77735v.7772h-.77735zm1.55469 0h.77735v.7772h-.77735z"/><path d="m-87.14136-2801.2438h1.10938c.55229 0 1 .4478 1 1v1.1094c0 .5524-.44771 1-1 1h-1.10938c-.55229 0-1-.4476-1-1v-1.1094c0-.5522.44771-1 1-1z"/></g><path d="m-87.36402-2800.4665h1.554692v1.554692h-1.554692z" fill="#fff"/></g></svg>