<svg viewBox="-94.71 -2807.737 24 18" xmlns="http://www.w3.org/2000/svg"><g fill="none"><g fill="#999"><path d="m-81.495-2796.175v-7.619c0-.645-.52-1.166-1.166-1.166h-10.106c-.645 0-1.166.521-1.166 1.166v5.279l2.45-2.449a.385.385 0 0 1 .551 0l4.392 4.392 2.06-2.06a.385.385 0 0 1 .552 0l2.448 2.449zm0 1.096-2.72-2.721-2.06 2.06a.385.385 0 0 1 -.553 0l-4.392-4.392-2.72 2.72v3.724c0 .645.52 1.166 1.166 1.166h10.105c.645 0 1.166-.52 1.166-1.166v-1.391zm-13.215-8.715c0-1.072.87-1.943 1.943-1.943h10.106c1.073 0 1.943.87 1.943 1.943v10.106c0 1.073-.87 1.943-1.943 1.943h-10.106a1.944 1.944 0 0 1 -1.943-1.943z"/><path d="m-80.71-2793.68c0 1.072-.87 1.943-1.943 1.943h-10.114a1.944 1.944 0 0 1 -1.943-1.943v-10.114c0-1.072.87-1.943 1.943-1.943h10.114c1.072 0 1.943.87 1.943 1.943zm-.777-8.948v-1.166c0-.645-.521-1.166-1.166-1.166h-10.114c-.645 0-1.166.521-1.166 1.166v1.166zm0 .778h-12.446v8.17c0 .645.521 1.166 1.166 1.166h10.114c.645 0 1.166-.521 1.166-1.166zm-11.668-2.332h.777v.777h-.777zm1.554 0h.778v.777h-.778zm1.555 0h.777v.777h-.777z"/><path d="m-87.141-2801.244h1.109a1 1 0 0 1 1 1v1.11a1 1 0 0 1 -1 1h-1.11a1 1 0 0 1 -1-1v-1.11a1 1 0 0 1 1-1z"/></g><path d="m-87.364-2800.466h1.555v1.555h-1.555z" fill="#fff"/></g></svg>