<svg xmlns="http://www.w3.org/2000/svg" viewBox="-21.587 -2806.737 24 18"><path d="m-11.79-2798.105-2.318-2.318a.368.368 0 1 1 .52-.52l2.947 2.946a.368.368 0 0 1 0 .52l-2.947 2.947a.368.368 0 1 1-.52-.52l2.317-2.318h-6.476a.368.368 0 0 1 0-.737zm2.362 6.63c.61 0 1.104-.495 1.104-1.106v-10.312c0-.61-.494-1.104-1.105-1.104l-10.317-.001c-.61 0-1.105.495-1.105 1.105l.006 10.312c0 .61.494 1.105 1.104 1.105h10.313zm-12.154-1.105-.005-10.313c0-1.017.824-1.842 1.841-1.842l10.318.001a1.84 1.84 0 0 1 1.841 1.841v10.312a1.842 1.842 0 0 1-1.841 1.842h-10.313a1.847 1.847 0 0 1-1.841-1.841z" fill="#999"/></svg>