<svg height="18" viewBox="-741.587 -2807.737 24 18" width="24" xmlns="http://www.w3.org/2000/svg"><path d="m-741.56165-2798.865c1.45175-3.9308 5.65105-5.8784 9.38225-4.3517 1.8996.7777 3.4056 2.3543 4.1383 4.3517.0339.0858.0339.1785 0 .257-1.445 3.9237-5.6511 5.8785-9.3823 4.3518-1.8995-.7776-3.3988-2.3543-4.13825-4.3518-.03395-.0856-.03395-.1784 0-.257zm4.38925 3.9453c3.3445 1.3627 7.1029-.3423 8.4529-3.8167-.6852-1.7479-2.02165-3.1319-3.7041-3.8168-3.3445-1.3626-7.0961.3424-8.4529 3.8168.6852 1.7478 2.0217 3.1318 3.7041 3.8167zm2.3744-.9631c-1.49926 0-2.7136-1.277-2.7136-2.8536s1.21434-2.8536 2.7136-2.8536c1.4993 0 2.7136 1.277 2.7136 2.8536s-1.2143 2.8536-2.7136 2.8536zm0-.7134c1.1262 0 2.0352-.956 2.0352-2.1402 0-1.1843-.909-2.1403-2.0352-2.1403-1.1261 0-2.0352.956-2.0352 2.1403 0 1.1842.9091 2.1402 2.0352 2.1402z" fill="#999"/></svg>