<?xml version="1.0" encoding="UTF-8" standalone="no"?>
<!DOCTYPE svg PUBLIC "-//W3C//DTD SVG 1.1//EN" "http://www.w3.org/Graphics/SVG/1.1/DTD/svg11.dtd">
<svg xmlns:dc="http://purl.org/dc/elements/1.1/" xmlns:xl="http://www.w3.org/1999/xlink" version="1.1" xmlns="http://www.w3.org/2000/svg" viewBox="-201.5871 -2834.0862 24 18" width="24" height="18">
  <defs/>
  <g id="SOURCES" stroke-dasharray="none" stroke="none" stroke-opacity="1" fill="none" fill-opacity="1">
    <title>SOURCES</title>
    <g id="SOURCES_New">
      <title>New</title>
      <g id="Group_10490">
        <g id="Graphic_10171"/>
        <g id="Group_10067">
          <g id="Graphic_10066">
            <path d="M -199.34868 -2830.0164 L -199.38842 -2830.0164 L -201.36193 -2828.886 L -201.5871 -2829.5723 L -199.2957 -2830.8945 L -198.48776 -2830.8945 L -198.48776 -2819.1064 L -199.34868 -2819.1064 Z" fill="#999"/>
          </g>
          <g id="Graphic_10065">
            <path d="M -196.21145 -2819.1064 L -196.21145 -2819.6413 L -195.09887 -2820.7616 C -191.73463 -2823.971 -190.25119 -2825.6363 -190.25119 -2827.6548 C -190.25119 -2828.997 -190.83397 -2830.3293 -192.88695 -2830.3293 C -194.03927 -2830.3293 -194.93993 -2829.744 -195.45648 -2829.31 L -195.8141 -2829.8953 C -195.03264 -2830.5917 -193.97304 -2831.0862 -192.71476 -2831.0862 C -190.1982 -2831.0862 -189.35052 -2829.2292 -189.35052 -2827.8364 C -189.35052 -2825.515 -191.07238 -2823.648 -194.1055 -2820.7313 L -194.96642 -2819.8633 L -194.96642 -2819.823 L -189.0194 -2819.823 L -189.0194 -2819.0862 L -196.2247 -2819.0862 Z" fill="#999"/>
          </g>
        </g>
      </g>
    </g>
  </g>
</svg>
