<svg height="18" viewBox="-204.494 -2834.086 24 18" width="24" xmlns="http://www.w3.org/2000/svg"><path d="M-196.716-2818.864h4.278c.646 0 1.167-.521 1.167-1.167v-5.833h-5.445zm-.778 0v-4.667h-6.222v3.5c0 .646.521 1.167 1.167 1.167zm0-5.444v-7h-5.055c-.646 0-1.167.52-1.167 1.166v5.834zm.778-7v4.666h5.445v-3.5c0-.645-.521-1.166-1.167-1.166zm-7.778 1.166c0-1.073.872-1.944 1.945-1.944h10.111c1.073 0 1.944.871 1.944 1.944v10.111a1.945 1.945 0 0 1-1.944 1.945h-10.111a1.945 1.945 0 0 1-1.945-1.945z" fill="#999"/></svg>