<svg xmlns="http://www.w3.org/2000/svg" viewBox="-165.587 -2834.086 24 18"><path d="M-163.719-2828.353h.467c.261 0 .466.205.466.467a.462.462 0 0 1-.466.466h-1.867a.462.462 0 0 1-.467-.466c0-.262.206-.467.467-.467h.467v-2.8h-.467a.462.462 0 0 1-.467-.467c0-.261.206-.466.467-.466h.933c.262 0 .467.205.467.466zm-.933 2.8v.467a.462.462 0 0 1-.467.466.462.462 0 0 1-.467-.466v-.934c0-.261.206-.466.467-.466h1.867c.261 0 .466.205.466.466v.934a.438.438 0 0 1-.14.326l-1.073 1.074h.737c.262 0 .467.205.467.466a.462.462 0 0 1-.467.467h-1.857a.462.462 0 0 1-.327-.793l1.727-1.727v-.27h-.933zm-.467 4.667a.462.462 0 0 1-.467-.467c0-.261.206-.467.467-.467h1.867c.261 0 .466.206.466.467v.933a.438.438 0 0 1-.14.327l-.14.14.14.14c.084.084.14.205.14.327v.933a.462.462 0 0 1-.466.467h-1.867a.462.462 0 0 1-.467-.467c0-.261.206-.467.467-.467h1.4v-.27l-.327-.327a.462.462 0 0 1 0-.663l.327-.326v-.271h-1.4zm4.667.933a.462.462 0 0 1-.467-.467c0-.261.205-.466.467-.466h11.2c.261 0 .466.205.466.466a.462.462 0 0 1-.466.467zm0-4.667a.462.462 0 0 1-.467-.466c0-.262.205-.467.467-.467h11.2c.261 0 .466.205.466.467a.462.462 0 0 1-.466.466zm0-4.666a.462.462 0 0 1-.467-.467c0-.261.205-.467.467-.467h11.2c.261 0 .466.206.466.467a.462.462 0 0 1-.466.467z" fill="#999"/></svg>