<svg xmlns="http://www.w3.org/2000/svg" viewBox="-129.587 -2834.086 24 18"><path d="M-129.587-2830.163c0-.508.415-.923.923-.923h.923c.508 0 .923.415.923.923v.923a.926.926 0 0 1-.923.923h-.923a.926.926 0 0 1-.923-.923zm5.077.923a.457.457 0 0 1-.462-.462c0-.258.203-.461.462-.461h11.077c.258 0 .461.203.461.461a.457.457 0 0 1-.461.462zm-5.077 3.692c0-.507.415-.923.923-.923h.923c.508 0 .923.416.923.923v.923a.926.926 0 0 1-.923.923h-.923a.926.926 0 0 1-.923-.923zm5.077.923a.457.457 0 0 1-.462-.461c0-.259.203-.462.462-.462h11.077c.258 0 .461.203.461.462a.457.457 0 0 1-.461.461zm-5.077 3.693c0-.508.415-.923.923-.923h.923c.508 0 .923.415.923.923v.923a.926.926 0 0 1-.923.923h-.923a.926.926 0 0 1-.923-.923zm.923-9.231v.923h.923v-.923zm0 4.615v.923h.923v-.923zm0 4.616v.923h.923v-.923zm4.154.923a.457.457 0 0 1-.462-.462c0-.258.203-.461.462-.461h11.077c.258 0 .461.203.461.461a.457.457 0 0 1-.461.462z" fill="#999"/></svg>