<svg height="18" viewBox="-129.587 -2834.086 24 18" width="24" xmlns="http://www.w3.org/2000/svg"><path d="m-129.5871-2830.163c0-.508.41539-.9232.92308-.9232h.92308c.50769 0 .92308.4152.92308.9232v.923c0 .5076-.41539.923-.92308.923h-.92308c-.50769 0-.92308-.4154-.92308-.923zm5.07693.923c-.25846 0-.46154-.203-.46154-.4616 0-.2584.20308-.4614.46154-.4614h11.07692c.25846 0 .46154.203.46154.4614 0 .2586-.20308.4616-.46154.4616zm-5.07693 3.6922c0-.5076.41539-.9232.92308-.9232h.92308c.50769 0 .92308.4156.92308.9232v.9231c0 .5077-.41539.9231-.92308.9231h-.92308c-.50769 0-.92308-.4154-.92308-.9231zm5.07693.9231c-.25846 0-.46154-.2031-.46154-.4615 0-.2585.20308-.4616.46154-.4616h11.07692c.25846 0 .46154.2031.46154.4616 0 .2584-.20308.4615-.46154.4615zm-5.07693 3.6923c0-.5076.41539-.923.92308-.923h.92308c.50769 0 .92308.4154.92308.923v.9231c0 .5077-.41539.9231-.92308.9231h-.92308c-.50769 0-.92308-.4154-.92308-.9231zm.92308-9.2306v.923h.92308v-.923zm0 4.6152v.9231h.92308v-.9231zm0 4.6154v.9231h.92308v-.9231zm4.15385.9231c-.25846 0-.46154-.2031-.46154-.4617 0-.2583.20308-.4614.46154-.4614h11.07692c.25846 0 .46154.2031.46154.4614 0 .2586-.20308.4617-.46154.4617z" fill="#999"/></svg>