<svg height="18" viewBox="-561.587 -2834.086 24 18" width="24" xmlns="http://www.w3.org/2000/svg"><path d="m-552.25376-2823.3362v-3.5h-4.66664v3.5zm0 .875h-4.66664v3.5h4.66664zm-8.55554-.875h3.1111v-3.5h-3.1111zm0 .875v2.1875c0 .7262.5211 1.3125 1.16665 1.3125h1.94445v-3.5zm12.4444-.875v-3.5h-3.1111v3.5zm0 .875h-3.1111v3.5h1.94446c.64554 0 1.16664-.5863 1.16664-1.3125zm-3.88886-5.25v-3.5h-4.66664v3.5zm-8.55554 0h3.1111v-3.5h-1.94445c-.64555 0-1.16665.5862-1.16665 1.3125zm12.4444 0v-2.1875c0-.7263-.5211-1.3125-1.16664-1.3125h-1.94446v3.5zm-11.27775-4.375h10.11111c1.07334 0 1.94444.98 1.94444 2.1875v9.625c0 1.2075-.8711 2.1875-1.94444 2.1875h-10.11111c-1.07335 0-1.94445-.98-1.94445-2.1875v-9.625c0-1.2075.8711-2.1875 1.94445-2.1875z" fill="#999"/></svg>