<svg height="18" viewBox="-21.587 -2834.086 24 18" width="24" xmlns="http://www.w3.org/2000/svg"><path d="m-15.469094-2831.3232c-3.066.427-5.418 3.059-5.418 6.237 0 3.479 2.821 6.3 6.3 6.3s6.3-2.821 6.3-6.3c0-.483-.056-.952-.154-1.4h-1.246v.35c0 .196-.154.35-.35.35h-1.05v.203l.595.595c.14.14.14.357 0 .497l-1.295 1.295v1.253c0 .056-.014.105-.035.154l-.7 1.4-.063.091-.7.7c-.14.14-.357.14-.497 0l-.7-.7c-.063-.063-.105-.154-.105-.245v-1.953l-.595-.595c-.063-.063-.105-.154-.105-.245v-.553l-.56-.56-1.351-.672-.091-.063-.7-.7c-.14-.14-.14-.357 0-.497l.595-.595v-.553c0-.196.154-.35.35-.35h1.253l.595-.595c.14-.14.357-.14.497 0l.658.658 1.274.637h.469l.497-.497v-.413l-.595-.595c-.063-.063-.105-.154-.105-.245v-.35h-.7v.35c0 .196-.154.35-.35.35h-.7c-.091 0-.182-.035-.245-.105l-.595-.595h-.553c-.315 0-.469-.378-.245-.595l.595-.595v-.469l-.182-.371zm.749-.063.098.189c.021.049.035.105.035.154v.7c0 .091-.035.182-.105.245l-.126.126c.049.014.091.042.126.077l.595.595h.203v-.35c0-.196.154-.35.35-.35h1.4c.196 0 .35.154.35.35v.553l.595.595c.063.063.105.154.105.245v.7c0 .091-.035.182-.105.245l-.7.7c-.063.063-.154.105-.245.105h-.7c-.056 0-.105-.014-.154-.035l-1.4-.7-.091-.063-.455-.455-.455.455c-.063.063-.154.105-.245.105h-1.05v.35c0 .091-.035.182-.105.245l-.455.455.413.413 1.351.672.091.063.7.7c.063.063.105.154.105.245v.553l.595.595c.063.063.105.154.105.245v1.953l.35.35.413-.413.637-1.274v-1.316c0-.091.035-.182.105-.245l1.155-1.155-.455-.455c-.063-.063-.105-.154-.105-.245v-.7c0-.196.154-.35.35-.35h1.05v-.35c0-.196.154-.35.35-.35h1.393c-.868-2.45-3.199-4.2-5.943-4.2-.042 0-.091 0-.133 0zm.133 13.3c-3.864 0-7-3.136-7-7s3.136-7 7-7 7 3.136 7 7-3.136 7-7 7z" fill="#999"/></svg>