<svg xmlns="http://www.w3.org/2000/svg" viewBox="13.503 -2834.086 24 18"><path d="M20.253-2819.836h1.5v-1.5h-1.5zm-.75 0v-1.5h-4.125a1.876 1.876 0 0 1-1.875-1.875v-6c0-1.035.84-1.875 1.875-1.875h11.25c1.035 0 1.875.84 1.875 1.875v6c0 1.035-.84 1.875-1.875 1.875h-4.125v1.5h1.125c.21 0 .375.165.375.375s-.165.375-.375.375h-5.25a.371.371 0 0 1-.375-.375c0-.21.165-.375.375-.375zm-4.125-10.5c-.622 0-1.125.502-1.125 1.125v6c0 .622.503 1.125 1.125 1.125h11.25c.623 0 1.125-.503 1.125-1.125v-6c0-.623-.502-1.125-1.125-1.125z" fill="#999"/></svg>