<svg height="18" viewBox="-886.497 -2806.737 24 18" width="24" xmlns="http://www.w3.org/2000/svg"><path d="M-873.275-2802.465v-.39c0-.645-.52-1.166-1.166-1.166h-10.112c-.645 0-1.166.521-1.166 1.167v.388zm0 .777h-12.444v8.945c0 .645.52 1.166 1.167 1.166h10.11c.646 0 1.167-.52 1.167-1.166zm-13.222-1.166c0-1.074.871-1.945 1.944-1.945h10.112c1.073 0 1.944.871 1.944 1.945v10.11a1.945 1.945 0 0 1-1.944 1.945h-10.112a1.945 1.945 0 0 1-1.944-1.944zm8.556 3.888c0-.645.52-1.166 1.166-1.166h.778c.646 0 1.167.521 1.167 1.167v4.666c0 .646-.521 1.167-1.167 1.167h-.778a1.165 1.165 0 0 1-1.166-1.167zm.777 0v4.667c0 .218.171.389.39.389h.777a.385.385 0 0 0 .389-.389v-4.666a.385.385 0 0 0-.389-.39h-.778a.385.385 0 0 0-.389.39zm-6.61-.388a.385.385 0 0 1-.39-.39c0-.217.171-.388.39-.388h3.888c.218 0 .389.171.389.389a.385.385 0 0 1-.389.389zm0 1.555a.385.385 0 0 1-.39-.389c0-.217.171-.389.39-.389h3.888c.218 0 .389.172.389.39a.385.385 0 0 1-.389.388zm0 1.556a.385.385 0 0 1-.39-.389c0-.218.171-.389.39-.389h2.333c.217 0 .388.171.388.389a.385.385 0 0 1-.388.389zm.777.778h2.333c.646 0 1.167.52 1.167 1.166 0 .646-.521 1.167-1.167 1.167h-2.333a1.165 1.165 0 0 1-1.167-1.167c0-.645.521-1.166 1.167-1.166zm0 .777c-.218 0-.389.171-.389.39s.171.388.389.388h2.333c.218 0 .39-.171.39-.389s-.172-.389-.39-.389z" fill="#999"/></svg>