<svg height="18" viewBox="-850.497 -2806.737 24 18" width="24" xmlns="http://www.w3.org/2000/svg"><path d="m-840.9381-2797.7988h-6.0589c-.2177 0-.3889-.1712-.3889-.3889 0-.2178.1712-.3889.3889-.3889h6.0589l-1.6722-1.6722c-.1556-.1555-.1556-.3967 0-.5522.1556-.1556.3967-.1556.5522 0l2.3334 2.3333c.1555.1557.1555.3967 0 .5522l-2.3334 2.3335c-.1555.1554-.3966.1554-.5522 0-.1556-.1557-.1556-.3968 0-.5523l1.6722-1.6723zm-3.3366-5.0555c0 .2177-.1712.3888-.3889.3888-.2178 0-.3889-.1711-.3889-.3888 0-1.0734.8711-1.9445 1.9444-1.9445h6.2222c1.0734 0 1.9445.8711 1.9445 1.9445v10.1111c0 1.0732-.8711 1.9444-1.9445 1.9444h-6.2222c-1.0733 0-1.9444-.8712-1.9444-1.9444 0-.2178.1711-.3888.3889-.3888.2177 0 .3889.171.3889.3888 0 .6455.5211 1.1666 1.1666 1.1666h6.2222c.6456 0 1.1667-.5211 1.1667-1.1666v-10.1111c0-.6457-.5211-1.1667-1.1667-1.1667h-6.2222c-.6455 0-1.1666.521-1.1666 1.1667zm-1.9445 11.2777c.2178 0 .3889.1711.3889.3889 0 .2177-.1711.3889-.3889.3889h-2.3333c-1.0734 0-1.9445-.8712-1.9445-1.9444v-10.1111c0-1.0734.8711-1.9445 1.9445-1.9445h2.3333c.2178 0 .3889.1711.3889.3888 0 .218-.1711.389-.3889.389h-2.3333c-.6456 0-1.1667.521-1.1667 1.1667v10.1111c0 .6455.5211 1.1666 1.1667 1.1666z" fill="#999"/></svg>