<svg viewBox="-814.497 -2806.737 24 18" xmlns="http://www.w3.org/2000/svg"><path d="m-810.608-2792.628h-3.5c-.218 0-.389-.205-.389-.465 0-.261.171-.466.389-.466h3.5v-.932c0-.512.35-.931.778-.931h1.555c.428 0 .778.419.778.931v.932h6.611c.218 0 .389.205.389.466 0 .26-.171.465-.389.465h-6.611v.96c0 .512-.35.931-.778.931h-1.555c-.428 0-.778-.419-.778-.931zm4.667-4.657h-8.167c-.218 0-.389-.205-.389-.466 0-.26.171-.466.389-.466h8.167v-.931c0-.512.35-.931.777-.931h1.556c.428 0 .778.419.778.931v.931h1.944c.218 0 .389.205.389.466s-.171.466-.389.466h-1.944v.96c0 .512-.35.93-.778.93h-1.556c-.427 0-.777-.418-.777-.93zm-7-4.658h-1.167c-.218 0-.389-.204-.389-.465s.171-.466.389-.466h1.167v-.931c0-.513.35-.932.777-.932h1.556c.428 0 .778.42.778.932v.931h8.944c.218 0 .389.205.389.466 0 .26-.171.465-.389.465h-8.944v.96c0 .512-.35.931-.778.931h-1.556c-.427 0-.777-.419-.777-.931zm.777-1.862v2.822h1.556v-2.822zm7 4.657v2.822h1.556v-2.822zm-4.666 4.657v2.823h1.555v-2.823z" fill="#999"/></svg>