<svg height="18" viewBox="-814.497 -2806.737 24 18" width="24" xmlns="http://www.w3.org/2000/svg"><path d="m-810.6081-2792.6278h-3.5c-.2178 0-.3889-.2049-.3889-.4657s.1711-.4657.3889-.4657h3.5v-.9315c0-.5123.35-.9315.7778-.9315h1.5556c.4277 0 .7777.4192.7777.9315v.9315h6.6111c.2178 0 .3889.2049.3889.4657s-.1711.4657-.3889.4657h-6.6111v.9595c0 .5123-.35.9313-.7777.9313h-1.5556c-.4278 0-.7778-.419-.7778-.9313zm4.6667-4.6572h-8.1667c-.2178 0-.3889-.205-.3889-.466 0-.2607.1711-.4656.3889-.4656h8.1667v-.9314c0-.5124.35-.9315.7778-.9315h1.5555c.4278 0 .7778.4191.7778.9315v.9314h1.9444c.2178 0 .3889.2049.3889.4656 0 .261-.1711.466-.3889.466h-1.9444v.9593c0 .5123-.35.9315-.7778.9315h-1.5555c-.4278 0-.7778-.4192-.7778-.9315zm-7-4.6575h-1.1667c-.2178 0-.3889-.2049-.3889-.4657s.1711-.4658.3889-.4658h1.1667v-.9314c0-.5123.35-.9316.7778-.9316h1.5555c.4278 0 .7778.4193.7778.9316v.9314h8.9444c.2178 0 .3889.205.3889.4658s-.1711.4657-.3889.4657h-8.9444v.9595c0 .5123-.35.9314-.7778.9314h-1.5555c-.4278 0-.7778-.4191-.7778-.9314zm.7778-1.8629v2.8224h1.5555v-2.8224zm7 4.6574v2.8223h1.5555v-2.8223zm-4.6667 4.6573v2.8224h1.5556v-2.8224z" fill="#999"/></svg>