<svg xmlns="http://www.w3.org/2000/svg" viewBox="-778.497 -2807.737 24 18"><path d="M-770.37-2794.014c.148.877.907 1.54 1.82 1.54h.737a2.582 2.582 0 0 0 2.58-2.579v-8.473a.739.739 0 0 1-.738-.737v-.737a.74.74 0 0 1 .737-.737h.737a.74.74 0 0 1 .737.737v.737a.739.739 0 0 1-.737.737v8.473a3.311 3.311 0 0 1-3.316 3.316h-.737a2.574 2.574 0 0 1-2.55-2.21h-.029a4.419 4.419 0 0 1-.752-8.776 2.582 2.582 0 0 0-5.143.302v8.474c.406 0 .738.331.738.736v.737a.739.739 0 0 1-.737.737h-.737a.739.739 0 0 1-.737-.737v-.737c0-.405.332-.736.737-.736v-8.474a3.311 3.311 0 0 1 3.316-3.316c1.71 0 3.11 1.29 3.293 2.948h.022a4.425 4.425 0 0 1 4.422 4.42 4.425 4.425 0 0 1-3.663 4.355zm2.123-2.055a1.112 1.112 0 0 0-.472-.568l-1.12-.67c-.361.265-.81.42-1.29.42a2.18 2.18 0 0 1-1.289-.42l-1.12.67a1.112 1.112 0 0 0-.472.568 3.677 3.677 0 0 0 2.881 1.385 3.677 3.677 0 0 0 2.882-1.385zm.442-.715a3.676 3.676 0 0 0 .36-1.584 3.686 3.686 0 0 0-3.684-3.685 3.686 3.686 0 0 0-3.684 3.684c0 .568.125 1.106.361 1.585.14-.192.324-.361.538-.487l.965-.582a2.208 2.208 0 0 1 1.82-3.463c1.224 0 2.211.987 2.211 2.21 0 .465-.14.9-.39 1.253l.965.582c.213.126.39.295.538.487zm-3.324-.848c.811 0 1.474-.663 1.474-1.473s-.663-1.474-1.474-1.474c-.81 0-1.473.663-1.473 1.474 0 .81.663 1.473 1.473 1.473zm-6.631 4.421v.737h.737v-.737zm12.526-11.789v.737h.737v-.737z" fill="#999"/></svg>