<svg viewBox="-741.587 -2807.737 24 18" xmlns="http://www.w3.org/2000/svg"><path d="m-741.562-2798.865c1.452-3.93 5.651-5.878 9.383-4.352 1.9.778 3.405 2.355 4.138 4.352a.337.337 0 0 1 0 .257c-1.445 3.924-5.651 5.879-9.382 4.352-1.9-.778-3.4-2.354-4.139-4.352a.337.337 0 0 1 0-.257zm4.39 3.945c3.344 1.363 7.103-.342 8.452-3.816-.685-1.748-2.021-3.132-3.704-3.817-3.344-1.363-7.096.342-8.452 3.817.685 1.747 2.021 3.131 3.704 3.816zm2.374-.963c-1.5 0-2.714-1.277-2.714-2.853 0-1.577 1.215-2.854 2.714-2.854 1.5 0 2.714 1.277 2.714 2.854 0 1.576-1.215 2.853-2.714 2.853zm0-.713c1.126 0 2.035-.956 2.035-2.14 0-1.185-.909-2.14-2.035-2.14s-2.035.955-2.035 2.14c0 1.184.909 2.14 2.035 2.14z" fill="#999"/></svg>