<svg height="18" viewBox="-706.497 -2806.737 24 18" width="24" xmlns="http://www.w3.org/2000/svg"><path d="m-693.72045-2797.4325c-.15215 2.9521-2.52 5.32-5.47215 5.4721v.9192c0 .1704-.1339.3042-.3044.3042-.1704 0-.3043-.1338-.3043-.3042v-.9192c-2.9522-.1521-5.32-2.52-5.4722-5.4721h-.9191c-.17046 0-.3044-.1339-.3044-.3045 0-.1703.13394-.3042.3044-.3042h.9191c.1522-2.9522 2.52-5.32 5.4722-5.4722v-.9191c0-.1705.1339-.3045.3043-.3045.1705 0 .3044.134.3044.3045v.9191c2.95215.1522 5.32 2.52 5.47215 5.4722h.91915c.1704 0 .3043.1339.3043.3042 0 .1706-.1339.3045-.3043.3045zm-5.77655 4.8695c2.8548 0 5.17394-2.319 5.17394-5.174 0-2.8547-2.31914-5.1738-5.17394-5.1738-2.85475 0-5.1739 2.3191-5.1739 5.1738 0 2.855 2.31915 5.174 5.1739 5.174zm0-2.4347c-1.5156 0-2.7391-1.2235-2.7391-2.7393 0-1.5155 1.2235-2.739 2.7391-2.739 1.5157 0 2.7392 1.2235 2.7392 2.739 0 1.5158-1.2235 2.7393-2.7392 2.7393zm0-.6087c1.1748 0 2.1305-.9556 2.1305-2.1306 0-1.1747-.9557-2.1303-2.1305-2.1303-1.17475 0-2.1304.9556-2.1304 2.1303 0 1.175.95565 2.1306 2.1304 2.1306z" fill="#999"/></svg>