<svg viewBox="-706.497 -2806.737 24 18" xmlns="http://www.w3.org/2000/svg"><path d="m-693.72-2797.432a5.784 5.784 0 0 1 -5.473 5.472v.919c0 .17-.134.304-.304.304a.301.301 0 0 1 -.304-.304v-.92a5.784 5.784 0 0 1 -5.472-5.472h-.92a.301.301 0 0 1 -.304-.304c0-.17.134-.304.304-.304h.92a5.784 5.784 0 0 1 5.472-5.472v-.92c0-.17.134-.304.304-.304s.304.134.304.305v.919a5.784 5.784 0 0 1 5.473 5.472h.919c.17 0 .304.134.304.304s-.134.305-.304.305zm-5.777 4.869a5.177 5.177 0 0 0 5.174-5.174 5.177 5.177 0 0 0 -5.174-5.174 5.177 5.177 0 0 0 -5.174 5.174 5.177 5.177 0 0 0 5.174 5.174zm0-2.435a2.736 2.736 0 0 1 -2.74-2.739 2.735 2.735 0 0 1 2.74-2.739 2.735 2.735 0 0 1 2.74 2.739 2.736 2.736 0 0 1 -2.74 2.74zm0-.608c1.175 0 2.13-.956 2.13-2.131s-.955-2.13-2.13-2.13-2.13.955-2.13 2.13.955 2.13 2.13 2.13z" fill="#999"/></svg>