<svg xmlns="http://www.w3.org/2000/svg" viewBox="-166.71 -2805.737 15.208 16"><path d="M-158.138-2803.336h.633a3.597 3.597 0 0 1 3.601 3.602v.432a2.796 2.796 0 0 1 2.402 2.77 2.804 2.804 0 0 1-2.802 2.801 2.804 2.804 0 0 1-2.801-2.801 2.796 2.796 0 0 1 2.401-2.77v-.432a2.805 2.805 0 0 0-2.801-2.801h-.633l.92.92c.16.16.16.408 0 .568a.396.396 0 0 1-.567 0l-1.601-1.6a.396.396 0 0 1 0-.569l1.6-1.6c.16-.16.409-.16.569 0 .16.16.16.408 0 .568l-.92.92zm-6.17 8.036v-4.858a2.796 2.796 0 0 1-2.402-2.77 2.806 2.806 0 0 1 2.801-2.809 2.805 2.805 0 0 1 2.802 2.802 2.796 2.796 0 0 1-2.401 2.769v4.858a2.796 2.796 0 0 1 2.4 2.77 2.804 2.804 0 0 1-2.8 2.801 2.804 2.804 0 0 1-2.802-2.801 2.796 2.796 0 0 1 2.401-2.77zm-1.602 2.77a2.002 2.002 0 1 0 4.004-.002 2.002 2.002 0 0 0-4.004.002zm0-10.405a2.002 2.002 0 1 0 4.004-.002 2.002 2.002 0 0 0-4.004.001zm11.606 8.404a2.002 2.002 0 1 0-.001-4.004 2.002 2.002 0 0 0 .001 4.004z" fill="#999"/></svg>