<svg height="18" viewBox="13.503 -2806.737 24 18" width="24" xmlns="http://www.w3.org/2000/svg"><path d="M25.56-2804.737c1.072 0 1.943.87 1.943 1.944v10.113c0 1.072-.87 1.943-1.943 1.943H15.446a1.944 1.944 0 0 1-1.943-1.943v-10.114a1.95 1.95 0 0 1 1.92-1.943h10.129zm-10.083.777c-.668 0-1.189.521-1.189 1.167v10.113c0 .645.513 1.166 1.158 1.166H25.56c.645 0 1.166-.521 1.166-1.166v-10.113c0-.646-.521-1.166-1.166-1.166zm3.39 7.922c.132.17.109.412-.062.544s-.412.109-.545-.062l-1.554-1.944a.376.376 0 0 1 0-.482l1.554-1.943a.385.385 0 0 1 .545-.062c.17.132.194.38.062.544l-1.36 1.702zm3.28-3.405a.385.385 0 0 1 .062-.544.385.385 0 0 1 .544.062l1.555 1.943a.376.376 0 0 1 0 .482l-1.555 1.944a.385.385 0 0 1-.544.062.385.385 0 0 1-.062-.544l1.36-1.703z" fill="#999"/></svg>