<?xml version="1.0" encoding="UTF-8" standalone="no"?>
<!DOCTYPE svg PUBLIC "-//W3C//DTD SVG 1.1//EN" "http://www.w3.org/Graphics/SVG/1.1/DTD/svg11.dtd">
<svg xmlns:dc="http://purl.org/dc/elements/1.1/" xmlns:xl="http://www.w3.org/1999/xlink" version="1.1" xmlns="http://www.w3.org/2000/svg" viewBox="-666.9827 -2807.737 24 18" width="24" height="18">
  <defs/>
  <g id="SOURCES" stroke-dasharray="none" stroke="none" stroke-opacity="1" fill="none" fill-opacity="1">
    <title>SOURCES</title>
    <g id="SOURCES_New">
      <title>New</title>
      <g id="Group_10505">
        <g id="Graphic_10302"/>
        <g id="Group_10303">
          <title>file-download</title>
          <g id="Graphic_10304">
            <path d="M -655.7827 -2802.566 L -655.7827 -2793.487 C -655.7827 -2792.521 -656.5667 -2791.737 -657.5327 -2791.737 L -665.2327 -2791.737 C -666.1987 -2791.737 -666.9827 -2792.521 -666.9827 -2793.487 L -666.9827 -2803.987 C -666.9827 -2804.953 -666.1987 -2805.737 -665.2327 -2805.737 L -658.9537 -2805.737 C -658.8627 -2805.737 -658.7647 -2805.709 -658.6877 -2805.632 L -655.8877 -2802.832 C -655.8107 -2802.755 -655.7827 -2802.657 -655.7827 -2802.566 Z M -659.2827 -2805.037 L -665.2327 -2805.037 C -665.8137 -2805.037 -666.2827 -2804.568 -666.2827 -2803.987 L -666.2827 -2793.487 C -666.2827 -2792.906 -665.8137 -2792.437 -665.2327 -2792.437 L -657.5327 -2792.437 C -656.9517 -2792.437 -656.4827 -2792.906 -656.4827 -2793.487 L -656.4827 -2802.237 L -658.9327 -2802.237 C -659.1287 -2802.237 -659.2827 -2802.391 -659.2827 -2802.587 Z M -658.5827 -2804.54 L -658.5827 -2802.937 L -656.9797 -2802.937 Z M -661.3827 -2795.734 L -659.8777 -2797.239 C -659.7377 -2797.379 -659.5207 -2797.379 -659.3807 -2797.239 C -659.2407 -2797.099 -659.2407 -2796.882 -659.3807 -2796.742 L -661.4317 -2794.691 C -661.4947 -2794.593 -661.5997 -2794.53 -661.7257 -2794.53 C -661.8517 -2794.53 -661.9567 -2794.593 -662.0197 -2794.691 L -664.0707 -2796.742 C -664.2107 -2796.882 -664.2107 -2797.099 -664.0707 -2797.239 C -663.9307 -2797.379 -663.7137 -2797.379 -663.5737 -2797.239 L -662.0687 -2795.734 L -662.0687 -2800.487 C -662.0687 -2800.683 -661.9147 -2800.837 -661.7187 -2800.837 C -661.5227 -2800.837 -661.3687 -2800.683 -661.3687 -2800.487 L -661.3687 -2795.734 Z" fill="#999"/>
          </g>
        </g>
      </g>
    </g>
  </g>
</svg>
