<svg height="18" viewBox="-666.983 -2807.737 24 18" width="24" xmlns="http://www.w3.org/2000/svg"><path d="M-655.783-2802.566v9.079a1.75 1.75 0 0 1-1.75 1.75h-7.7a1.75 1.75 0 0 1-1.75-1.75v-10.5c0-.966.784-1.75 1.75-1.75h6.28c.09 0 .188.028.265.105l2.8 2.8a.369.369 0 0 1 .105.266zm-3.5-2.471h-5.95c-.58 0-1.05.469-1.05 1.05v10.5c0 .581.47 1.05 1.05 1.05h7.7c.581 0 1.05-.469 1.05-1.05v-8.75h-2.45a.347.347 0 0 1-.35-.35zm.7.497v1.603h1.603zm-2.8 8.806l1.505-1.505c.14-.14.357-.14.497 0s.14.357 0 .497l-2.05 2.051c-.064.098-.169.161-.295.161s-.23-.063-.294-.161l-2.05-2.051c-.14-.14-.14-.357 0-.497s.356-.14.496 0l1.505 1.505v-4.753c0-.196.154-.35.35-.35s.35.154.35.35v4.753z" fill="#999"/></svg>