<svg height="18" viewBox="-666.983 -2807.737 24 18" width="24" xmlns="http://www.w3.org/2000/svg"><path d="m-655.7827-2802.566v9.079c0 .966-.784 1.75-1.75 1.75h-7.7c-.966 0-1.75-.784-1.75-1.75v-10.5c0-.966.784-1.75 1.75-1.75h6.279c.091 0 .189.028.266.105l2.8 2.8c.077.077.105.175.105.266zm-3.5-2.471h-5.95c-.581 0-1.05.469-1.05 1.05v10.5c0 .581.469 1.05 1.05 1.05h7.7c.581 0 1.05-.469 1.05-1.05v-8.75h-2.45c-.196 0-.35-.154-.35-.35zm.7.497v1.603h1.603zm-2.8 8.806 1.505-1.505c.14-.14.357-.14.497 0s.14.357 0 .497l-2.051 2.051c-.063.098-.168.161-.294.161s-.231-.063-.294-.161l-2.051-2.051c-.14-.14-.14-.357 0-.497s.357-.14.497 0l1.505 1.505v-4.753c0-.196.154-.35.35-.35s.35.154.35.35v4.753z" fill="#999"/></svg>