<svg viewBox="-630.983 -2807.737 24 18" xmlns="http://www.w3.org/2000/svg"><path d="m-623.983-2805.037a6.3 6.3 0 0 0 0 12.6h.35a.547.547 0 0 0 .532-.413c.091-.35.007-.707-.21-.966l-1.288-1.547a.349.349 0 0 1 .203-.567l4.256-.854a3.065 3.065 0 0 0 2.464-3.003 5.252 5.252 0 0 0 -5.25-5.25h-1.05zm.294 9.681.91 1.092c.364.434.497 1.015.357 1.561a1.26 1.26 0 0 1 -1.218.966h-.35c-3.857 0-6.993-3.136-6.993-7s3.136-7 7-7h1.05a5.954 5.954 0 0 1 5.95 5.95 3.763 3.763 0 0 1 -3.024 3.689l-3.675.735zm3.906-4.781c.385 0 .7-.315.7-.7s-.315-.7-.7-.7-.7.315-.7.7.315.7.7.7zm-2.8-2.1c.385 0 .7-.315.7-.7s-.315-.7-.7-.7-.7.315-.7.7.315.7.7.7zm-3.5.7c.385 0 .7-.315.7-.7s-.315-.7-.7-.7-.7.315-.7.7.315.7.7.7zm-2.1 2.8c.385 0 .7-.315.7-.7s-.315-.7-.7-.7-.7.315-.7.7.315.7.7.7z" fill="#999"/></svg>