<svg height="18" viewBox="-630.983 -2807.737 24 18" width="24" xmlns="http://www.w3.org/2000/svg"><path d="m-623.98274-2805.037c-3.479 0-6.3 2.821-6.3 6.3s2.821 6.3 6.3 6.3h.35c.252 0 .469-.168.532-.413.091-.35.007-.707-.21-.966l-1.288-1.547c-.168-.203-.063-.518.203-.567l4.256-.854c1.435-.287 2.464-1.547 2.464-3.003 0-2.898-2.352-5.25-5.25-5.25h-1.05zm.294 9.681.91 1.092c.364.434.497 1.015.357 1.561-.147.574-.644.966-1.218.966h-.35c-3.857 0-6.993-3.136-6.993-7s3.136-7 7-7h1.05c3.283 0 5.95 2.667 5.95 5.95 0 1.792-1.267 3.339-3.024 3.689l-3.675.735zm3.906-4.781c.385 0 .7-.315.7-.7s-.315-.7-.7-.7-.7.315-.7.7.315.7.7.7zm-2.8-2.1c.385 0 .7-.315.7-.7s-.315-.7-.7-.7-.7.315-.7.7.315.7.7.7zm-3.5.7c.385 0 .7-.315.7-.7s-.315-.7-.7-.7-.7.315-.7.7.315.7.7.7zm-2.1 2.8c.385 0 .7-.315.7-.7s-.315-.7-.7-.7-.7.315-.7.7.315.7.7.7z" fill="#999"/></svg>