<svg height="18" viewBox="13.503 -2806.737 24 18" width="24" xmlns="http://www.w3.org/2000/svg"><path d="m25.559666-2804.737c1.072738 0 1.943364.8707 1.943364 1.9435v10.1133c0 1.0727-.870626 1.9432-1.943364 1.9432h-10.11327c-1.072737 0-1.943365-.8705-1.943365-1.9432v-10.1133c0-1.065.862854-1.9278 1.920045-1.9435h10.128817zm-10.082176.7775c-.668518 0-1.18934.5208-1.18934 1.166v10.1133c0 .6452.513049 1.166 1.158246 1.166h10.11327c.645197 0 1.166019-.5208 1.166019-1.166v-10.1133c0-.6452-.520822-1.166-1.166019-1.166zm3.389228 7.9211c.132149.171.108828.412-.062188.5442s-.411993.1088-.544142-.0622l-1.554692-1.9434c-.116602-.1399-.116602-.342 0-.4819l1.554692-1.9433c.132149-.171.3809-.1944.544142-.0623.171016.1323.194337.3809.062188.5443l-1.360355 1.7022zm3.2804-3.4046c-.132148-.1712-.108828-.412.062187-.5443.171017-.1321.411995-.1087.544143.0623l1.554692 1.9433c.1166.1399.1166.342 0 .4819l-1.554692 1.9434c-.132148.171-.3809.1944-.544143.0622-.171015-.1322-.194335-.3808-.062187-.5442l1.360355-1.7024z" fill="#999"/></svg>