<svg height="18" viewBox="-594.983 -2807.737 24 18" width="24" xmlns="http://www.w3.org/2000/svg"><path d="m-590.87374-2799.227-2.842 1.463c-.35.182-.567.539-.567.931v.546c0 .581.469 1.05 1.05 1.05.196 0 .35.154.35.35s-.154.35-.35.35c-.966 0-1.75-.784-1.75-1.75v-.546c0-.658.364-1.253.952-1.554l2.352-1.211c-.749-.651-1.197-1.61-1.197-2.639-.007-1.932 1.561-3.5 3.493-3.5 1.176 0 2.247.581 2.898 1.533.112.161.07.378-.091.483-.161.112-.378.07-.483-.091-.518-.763-1.379-1.225-2.317-1.225-1.547 0-2.8 1.253-2.8 2.8 0 .987.518 1.89 1.344 2.394.168.098.217.315.119.483-.035.063-.091.105-.154.133zm2.863 2.989-2.856 1.302c-.378.168-.616.546-.616.959v.497c0 .581.469 1.05 1.05 1.05h7.7c.581 0 1.05-.469 1.05-1.05v-.497c0-.413-.238-.784-.616-.959l-2.856-1.302c-.434.196-.917.301-1.428.301s-.994-.105-1.428-.301zm-.728-.441c-.819-.644-1.344-1.638-1.344-2.758 0-1.932 1.568-3.5 3.5-3.5s3.5 1.568 3.5 3.5c0 1.12-.525 2.121-1.344 2.758l2.422 1.099c.623.287 1.029.91 1.029 1.596v.497c0 .966-.784 1.75-1.75 1.75h-7.707c-.966 0-1.75-.784-1.75-1.75v-.497c0-.686.399-1.309 1.029-1.596l2.422-1.099zm2.156.042c1.547 0 2.8-1.253 2.8-2.8s-1.253-2.8-2.8-2.8-2.8 1.253-2.8 2.8 1.253 2.8 2.8 2.8z" fill="#999"/></svg>