<svg height="18" viewBox="-562.274 -2807.74 24 18" width="24" xmlns="http://www.w3.org/2000/svg"><path d="M-559.752-2797.884h3.76l-1.88-5.235zm-.304.857l-1.44 4.01c-.08.222-.311.334-.52.248a.44.44 0 0 1-.231-.557l4-11.138a.389.389 0 0 1 .743 0l4 11.138a.44.44 0 0 1-.233.557c-.208.086-.44-.026-.52-.248l-1.44-4.01zm12.95-1.885a.408.408 0 0 1 .032.171v4.713c0 .24.176.428.4.428.224 0 .4.189.4.428 0 .24-.176.429-.4.429-.424 0-.8-.24-1.016-.6-.36.368-.848.6-1.384.6h-1.6c-1.535 0-2.399-.737-2.399-2.142s.792-1.902 2.936-2.339c.053-.012.109-.023.168-.034.351-.077.575-.12.8-.18.831-.223 1.231-.591 1.287-1.148-.072-1.285-.704-1.868-1.991-1.868-1.408 0-2 .428-2 1.285 0 .24-.176.428-.4.428-.224 0-.4-.188-.4-.428 0-1.422 1.008-2.142 2.8-2.142 1.623 0 2.575.831 2.767 2.399zm-.768 4.027v-2.228a3.387 3.387 0 0 1-1.104.506c-.24.06-.472.12-.84.197a9.27 9.27 0 0 1-.167.034c-1.768.36-2.288.66-2.288 1.5s.472 1.285 1.6 1.285h1.6c.663 0 1.2-.574 1.2-1.285z" fill="#999"/></svg>