<svg height="18" viewBox="-380.74 -2807.237 24 18" width="24" xmlns="http://www.w3.org/2000/svg"><path d="m-380.3336-2803.3138c-.2275 0-.40625-.2032-.40625-.4615 0-.2585.17875-.4617.40625-.4617h12.1875c.2275 0 .40625.2032.40625.4617 0 .2583-.17875.4615-.40625.4615zm0 3.6923c-.2275 0-.40625-.2031-.40625-.4615 0-.2585.17875-.4616.40625-.4616h12.1875c.2275 0 .40625.2031.40625.4616 0 .2584-.17875.4615-.40625.4615zm0 3.6923c-.2275 0-.40625-.2031-.40625-.4615 0-.2585.17875-.4616.40625-.4616h12.1875c.2275 0 .40625.2031.40625.4616 0 .2584-.17875.4615-.40625.4615zm0 3.6922c-.2275 0-.40625-.203-.40625-.4614 0-.2586.17875-.4616.40625-.4616h7.3125c.2275 0 .40625.203.40625.4616 0 .2584-.17875.4614-.40625.4614z" fill="#999"/></svg>