<svg xmlns="http://www.w3.org/2000/svg" viewBox="-380.74 -2807.237 24 18"><path d="M-380.334-2803.314c-.227 0-.406-.203-.406-.461 0-.259.179-.462.406-.462h12.188c.227 0 .406.203.406.462 0 .258-.179.461-.406.461zm0 3.692c-.227 0-.406-.203-.406-.461s.179-.462.406-.462h12.188c.227 0 .406.204.406.462s-.179.461-.406.461zm0 3.693c-.227 0-.406-.203-.406-.462 0-.258.179-.461.406-.461h12.188c.227 0 .406.203.406.461 0 .259-.179.462-.406.462zm0 3.692c-.227 0-.406-.203-.406-.461 0-.259.179-.462.406-.462h7.313c.227 0 .406.203.406.462 0 .258-.179.461-.406.461z" fill="#999"/></svg>