<svg height="18" viewBox="-488.74 -2807.737 24 18" width="24" xmlns="http://www.w3.org/2000/svg"><path d="m-480.36085-2797.561c-.014.042-.042.091-.077.126s-.077.063-.126.077l-3.493 1.4c-.287.112-.567-.168-.455-.455l1.4-3.493c.014-.042.042-.091.077-.126s.077-.063.126-.077l3.493-1.4c.287-.112.567.168.455.455zm-1.806-2.1 1.351 1.351.903-2.247-2.247.903zm.854 1.848-1.351-1.351-.903 2.247 2.247-.903zm-.427 6.076c-3.864 0-7-3.136-7-7s3.136-7 7-7 7 3.136 7 7-3.136 7-7 7zm0-.7c3.479 0 6.3-2.821 6.3-6.3s-2.821-6.3-6.3-6.3-6.3 2.821-6.3 6.3 2.821 6.3 6.3 6.3z" fill="#999"/></svg>