<svg xmlns="http://www.w3.org/2000/svg" viewBox="-488.74 -2807.737 24 18"><path d="M-480.36-2797.561a.34.34 0 0 1-.078.126.293.293 0 0 1-.126.077l-3.493 1.4a.35.35 0 0 1-.455-.455l1.4-3.493a.34.34 0 0 1 .077-.126.293.293 0 0 1 .126-.077l3.493-1.4a.35.35 0 0 1 .455.455zm-1.807-2.1 1.351 1.351.903-2.247-2.247.903zm.854 1.848-1.35-1.351-.904 2.247 2.247-.903zm-.427 6.076c-3.864 0-7-3.136-7-7s3.136-7 7-7 7 3.136 7 7-3.136 7-7 7zm0-.7a6.3 6.3 0 1 0 0-12.601 6.3 6.3 0 0 0 0 12.601z" fill="#999"/></svg>