<svg height="18" viewBox="-416.74 -2807.737 24 18" width="24" xmlns="http://www.w3.org/2000/svg"><path d="m-404.2954-2804.1813h1.16666c.21778 0 .38889.1711.38889.3889 0 .2177-.17111.3889-.38889.3889h-1.16666v1.1665c0 .218-.1711.389-.3889.389-.21778 0-.3889-.171-.3889-.389v-1.1665h-1.16665c-.21778 0-.38889-.1712-.38889-.3889 0-.2178.17111-.3889.38889-.3889h1.16665v-1.1667c0-.2178.17112-.389.3889-.389.2178 0 .3889.1712.3889.389zm-11.6667 7.7778h4.2778c.2178 0 .3889.1711.3889.3888 0 .6457.5211 1.1667 1.16666 1.1667h.77778c.64556 0 1.16666-.521 1.16666-1.1667 0-.2177.1711-.3888.3889-.3888h4.27777v-4.2778c0-.2177.17113-.3889.38889-.3889.21778 0 .38889.1712.38889.3889v7c0 1.0733-.87111 1.9443-1.94445 1.9443h-10.1111c-1.07334 0-1.94445-.871-1.94445-1.9443v-10.1111c0-1.0734.87111-1.9446 1.94445-1.9446h7c.21777 0 .3889.1712.3889.389s-.17113.389-.3889.389h-7c-.64556 0-1.1667.521-1.1667 1.1666zm0 .7777v1.9445c0 .6455.52114 1.1666 1.1667 1.1666h10.1111c.64556 0 1.16667-.5211 1.16667-1.1666v-1.9445h-3.92777c-.1789.8868-.96445 1.5556-1.90556 1.5556h-.77778c-.94111 0-1.72666-.6688-1.90556-1.5556z" fill="#999"/></svg>