<svg xmlns="http://www.w3.org/2000/svg" viewBox="-310.71 -2806.937 24 18"><path d="m-301.296-2797.135 2.94 1.334a2.14 2.14 0 0 1 1.248 1.937v.603a2.125 2.125 0 0 1-2.124 2.124h-9.354a2.125 2.125 0 0 1-2.124-2.124v-.603c0-.833.484-1.589 1.249-1.938l2.94-1.333a4.245 4.245 0 0 1-1.632-3.348 4.237 4.237 0 0 1 4.24-4.248 4.25 4.25 0 0 1 2.617 7.596zm-4.35.535-3.467 1.58a1.27 1.27 0 0 0-.747 1.164v.603c0 .706.569 1.275 1.274 1.275h9.346c.705 0 1.274-.57 1.274-1.275v-.603c0-.501-.288-.951-.747-1.164l-3.467-1.58a4.198 4.198 0 0 1-1.733.365c-.62 0-1.206-.127-1.733-.365zm1.733-.484a3.398 3.398 0 1 0 0-6.797 3.398 3.398 0 1 0 0 6.797zm6.066-5.226a.436.436 0 0 1 0-.603.436.436 0 0 1 .604 0 3.462 3.462 0 0 1 0 4.843.42.42 0 0 1-.604 0 .42.42 0 0 1 0-.603 2.61 2.61 0 0 0 0-3.654zm1.725-1.682a.428.428 0 0 1-.034-.603.428.428 0 0 1 .603-.034 5.566 5.566 0 0 1 0 8.275.429.429 0 0 1-.603-.034.421.421 0 0 1 .034-.603 4.72 4.72 0 0 0 0-7.018z" fill="#999"/></svg>