<svg height="18" viewBox="-416.74 -2807.737 24 18" width="24" xmlns="http://www.w3.org/2000/svg"><path d="M-404.295-2804.181h1.166c.218 0 .39.17.39.389a.385.385 0 0 1-.39.388h-1.166v1.167a.385.385 0 0 1-.39.389.385.385 0 0 1-.388-.389v-1.167h-1.167a.385.385 0 0 1-.389-.388c0-.218.171-.39.39-.39h1.166v-1.166c0-.218.17-.389.389-.389.218 0 .389.171.389.389zm-11.667 7.777h4.278c.218 0 .389.172.389.39 0 .645.52 1.166 1.166 1.166h.778c.646 0 1.167-.521 1.167-1.167 0-.217.17-.389.389-.389h4.277v-4.277c0-.218.171-.39.39-.39.217 0 .388.172.388.39v7a1.945 1.945 0 0 1-1.944 1.944h-10.111a1.945 1.945 0 0 1-1.945-1.944v-10.111c0-1.074.871-1.945 1.945-1.945h7c.217 0 .388.171.388.389s-.17.389-.388.389h-7c-.646 0-1.167.521-1.167 1.167zm0 .778v1.945c0 .645.521 1.166 1.167 1.166h10.11c.646 0 1.167-.52 1.167-1.166v-1.945h-3.927a1.945 1.945 0 0 1-1.906 1.556h-.778a1.945 1.945 0 0 1-1.905-1.556z" fill="#999"/></svg>