<svg height="18" viewBox="-310.71 -2806.937 24 18" width="24" xmlns="http://www.w3.org/2000/svg"><path d="m-301.29613-2797.1354 2.93969 1.3339c.75616.3485 1.24894 1.1045 1.24894 1.9371v.6034c0 1.1723-.95158 2.124-2.12405 2.124h-9.35435c-1.17246 0-2.12403-.9517-2.12403-2.124v-.6034c0-.8326.48428-1.5886 1.24893-1.9371l2.9397-1.3339c-.99406-.7816-1.63128-1.9881-1.63128-3.3476-.00849-2.345 1.89466-4.248 4.23961-4.248 2.34497 0 4.24811 1.903 4.24811 4.248 0 1.3595-.63722 2.5744-1.63127 3.3476zm-4.35007.5354-3.46645 1.58c-.45879.204-.74765.663-.74765 1.164v.6034c0 .7051.56923 1.2744 1.2744 1.2744h9.34585c.70518 0 1.27443-.5693 1.27443-1.2744v-.6034c0-.501-.28888-.9515-.74768-1.164l-3.46644-1.58c-.52676.2377-1.113.3652-1.73323.3652s-1.20646-.1275-1.73323-.3652zm1.73323-.4844c1.87767 0 3.39847-1.5209 3.39847-3.3986 0-1.8776-1.5208-3.3984-3.39847-3.3984-1.87766 0-3.39848 1.5208-3.39848 3.3984 0 1.8777 1.52082 3.3986 3.39848 3.3986zm6.0663-5.2252c-.16143-.17-.16143-.4334 0-.6034.16992-.1613.4333-.1613.60323 0 1.31691 1.3425 1.31691 3.5006 0 4.843-.16143.17-.43331.17-.60323 0-.16993-.1614-.16993-.4333 0-.6032.99407-1.0111.99407-2.6424 0-3.6534zm1.72473-1.6824c-.17842-.1528-.18692-.4247-.03399-.603.15293-.1785.42483-.187.60323-.034 2.2855 2.056 2.4724 5.582.40782 7.8674-.12744.1446-.26338.2804-.40782.4078-.1784.1528-.4418.1445-.60323-.034-.16142-.1784-.14443-.4418.03399-.6032.11894-.1104.23789-.221.34834-.3483 1.75022-1.9372 1.5888-4.9194-.34834-6.6697z" fill="#999"/></svg>