<svg height="24.75" viewBox="-885.962 -2877.423 24.75 24.75" width="24.75" xmlns="http://www.w3.org/2000/svg"><g fill="none"><circle cx="-873.587" cy="-2865.048" fill="#666" r="8"/><circle cx="-873.587" cy="-2865.048" r="8"/><circle cx="-873.587" cy="-2865.048" fill="#fff" r="8"/><circle cx="-873.587" cy="-2865.048" r="8"/><g fill="#5c76a1"><path d="m-873.5871-2857.048c-4.419 0-8-3.581-8-8s3.581-8 8-8c4.4191 0 8 3.581 8 8s-3.5809 8-8 8zm0-.762c4 0 7.2381-3.238 7.2381-7.238s-3.2381-7.238-7.2381-7.238-7.2381 3.238-7.2381 7.238 3.2381 7.238 7.2381 7.238z"/><path d="m-871.1719-2867.4328c.16-.1372.4039-.1219.541.0381s.1219.4037-.0381.541l-2.6667 2.2857c-.1447.122-.3504.122-.4952 0l-2.6667-2.2857c-.16-.1373-.1752-.381-.0381-.541.1372-.16.381-.1753.541-.0381l2.4152 2.0724 2.4153-2.0724zm0 3.0478c.16-.1373.4039-.122.541.038s.1219.4038-.0381.541l-2.6667 2.2856c-.1447.1219-.3504.1219-.4952 0l-2.6667-2.2856c-.16-.1372-.1752-.381-.0381-.541.1372-.16.381-.1753.541-.038l2.4152 2.0722 2.4153-2.0722z"/></g></g></svg>