<svg viewBox="-854.177 -2877.423 24.75 24.75" xmlns="http://www.w3.org/2000/svg"><g fill="none"><circle cx="-841.802" cy="-2865.048" fill="#666" r="8"/><circle cx="-841.802" cy="-2865.048" r="8"/><circle cx="-841.802" cy="-2865.048" fill="#fff" r="8"/><circle cx="-841.802" cy="-2865.048" r="8"/><g fill="#5c76a1"><path d="m-844.218-2865.14a.385.385 0 0 1 -.54-.037.385.385 0 0 1 .038-.541l2.666-2.286a.381.381 0 0 1 .495 0l2.667 2.285a.385.385 0 0 1 -.503.58l-2.415-2.073-2.415 2.073zm0 3.048a.385.385 0 0 1 -.54-.038.385.385 0 0 1 .038-.541l2.666-2.286a.381.381 0 0 1 .495 0l2.667 2.286c.16.137.175.381.038.541a.385.385 0 0 1 -.54.038l-2.416-2.072-2.415 2.072z"/><path d="m-841.802-2857.048c-4.42 0-8-3.581-8-8s3.58-8 8-8a8 8 0 0 1 8 8 8 8 0 0 1 -8 8zm0-.762c4 0 7.238-3.238 7.238-7.238s-3.238-7.238-7.238-7.238-7.238 3.238-7.238 7.238 3.238 7.238 7.238 7.238z"/></g></g></svg>