<?xml version="1.0" encoding="UTF-8" standalone="no"?>
<!DOCTYPE svg PUBLIC "-//W3C//DTD SVG 1.1//EN" "http://www.w3.org/Graphics/SVG/1.1/DTD/svg11.dtd">
<svg xmlns="http://www.w3.org/2000/svg" xmlns:dc="http://purl.org/dc/elements/1.1/" version="1.1" xmlns:xl="http://www.w3.org/1999/xlink" viewBox="-885.9621 -2877.423 24.75 24.75" width="24.75" height="24.75">
  <defs/>
  <g id="SOURCES" stroke-dasharray="none" stroke-opacity="1" stroke="none" fill="none" fill-opacity="1">
    <title>SOURCES</title>
    <g id="SOURCES_Light">
      <title>Light</title>
      <g id="Graphic_12360">
        <circle cx="-873.5871" cy="-2865.048" r="8.00000702080157" fill="#666"/>
        <circle cx="-873.5871" cy="-2865.048" r="8.00000702080157" stroke="black" stroke-linecap="round" stroke-linejoin="round" stroke-width="0"/>
      </g>
      <g id="Graphic_12359"/>
      <g id="Graphic_12358">
        <circle cx="-873.5871" cy="-2865.048" r="8.00000702080157" fill="white"/>
        <circle cx="-873.5871" cy="-2865.048" r="8.00000702080157" stroke="black" stroke-linecap="round" stroke-linejoin="round" stroke-width="0"/>
      </g>
      <g id="Group_12398">
        <g id="Group_12392">
          <title>minus-circle</title>
          <g id="Graphic_12393">
            <path d="M -873.5871 -2857.048 C -878.0061 -2857.048 -881.5871 -2860.629 -881.5871 -2865.048 C -881.5871 -2869.467 -878.0061 -2873.048 -873.5871 -2873.048 C -869.168 -2873.048 -865.5871 -2869.467 -865.5871 -2865.048 C -865.5871 -2860.629 -869.168 -2857.048 -873.5871 -2857.048 Z M -873.5871 -2857.81 C -869.5871 -2857.81 -866.349 -2861.048 -866.349 -2865.048 C -866.349 -2869.048 -869.5871 -2872.286 -873.5871 -2872.286 C -877.5871 -2872.286 -880.8252 -2869.048 -880.8252 -2865.048 C -880.8252 -2861.048 -877.5871 -2857.81 -873.5871 -2857.81 Z" fill="#5c76a1"/>
          </g>
        </g>
        <g id="Group_12390">
          <title>chevron-double-down</title>
          <g id="Graphic_12391">
            <path d="M -871.1719 -2867.4328 C -871.0119 -2867.57 -870.768 -2867.5547 -870.6309 -2867.3947 C -870.4938 -2867.2347 -870.509 -2866.991 -870.669 -2866.8537 L -873.3357 -2864.568 C -873.4804 -2864.446 -873.6861 -2864.446 -873.8309 -2864.568 L -876.4976 -2866.8537 C -876.6576 -2866.991 -876.6728 -2867.2347 -876.5357 -2867.3947 C -876.3985 -2867.5547 -876.1547 -2867.57 -875.9947 -2867.4328 L -873.5795 -2865.3604 L -871.1642 -2867.4328 Z M -871.1719 -2864.385 C -871.0119 -2864.5223 -870.768 -2864.507 -870.6309 -2864.347 C -870.4938 -2864.187 -870.509 -2863.9432 -870.669 -2863.806 L -873.3357 -2861.5204 C -873.4804 -2861.3985 -873.6861 -2861.3985 -873.8309 -2861.5204 L -876.4976 -2863.806 C -876.6576 -2863.9432 -876.6728 -2864.187 -876.5357 -2864.347 C -876.3985 -2864.507 -876.1547 -2864.5223 -875.9947 -2864.385 L -873.5795 -2862.3128 L -871.1642 -2864.385 Z" fill="#5c76a1"/>
          </g>
        </g>
      </g>
    </g>
  </g>
</svg>
