<svg xmlns="http://www.w3.org/2000/svg" viewBox="-885.962 -2877.423 24.75 24.75"><g fill="none"><circle cx="-873.587" cy="-2865.048" r="8" fill="#666"/><circle cx="-873.587" cy="-2865.048" r="8"/><circle cx="-873.587" cy="-2865.048" r="8" fill="#fff"/><circle cx="-873.587" cy="-2865.048" r="8"/><path d="M-873.587-2857.048a8 8 0 0 1-8-8 8 8 0 0 1 8-8 8 8 0 0 1 8 8 8 8 0 0 1-8 8zm0-.762c4 0 7.238-3.238 7.238-7.238s-3.238-7.238-7.238-7.238-7.238 3.238-7.238 7.238 3.238 7.238 7.238 7.238z" fill="#5c76a1"/><path d="M-871.172-2867.433a.385.385 0 0 1 .541.038.385.385 0 0 1-.038.541l-2.667 2.286a.38.38 0 0 1-.495 0l-2.667-2.286a.385.385 0 0 1-.038-.54.385.385 0 0 1 .541-.039l2.415 2.073 2.416-2.073zm0 3.048a.385.385 0 0 1 .541.038.385.385 0 0 1-.038.541l-2.667 2.286a.381.381 0 0 1-.495 0l-2.667-2.286a.385.385 0 0 1-.038-.541.385.385 0 0 1 .541-.038l2.415 2.072 2.416-2.072z" fill="#5c76a1"/></g></svg>