<?xml version="1.0" encoding="UTF-8" standalone="no"?>
<!DOCTYPE svg PUBLIC "-//W3C//DTD SVG 1.1//EN" "http://www.w3.org/Graphics/SVG/1.1/DTD/svg11.dtd">
<svg xmlns="http://www.w3.org/2000/svg" xmlns:dc="http://purl.org/dc/elements/1.1/" version="1.1" xmlns:xl="http://www.w3.org/1999/xlink" viewBox="-854.1774 -2877.423 24.75 24.75" width="24.75" height="24.75">
  <defs/>
  <g id="SOURCES" stroke-dasharray="none" stroke-opacity="1" stroke="none" fill="none" fill-opacity="1">
    <title>SOURCES</title>
    <g id="SOURCES_Light">
      <title>Light</title>
      <g id="Graphic_12366">
        <circle cx="-841.8024" cy="-2865.048" r="8.00000702080158" fill="#666"/>
        <circle cx="-841.8024" cy="-2865.048" r="8.00000702080158" stroke="black" stroke-linecap="round" stroke-linejoin="round" stroke-width="0"/>
      </g>
      <g id="Graphic_12365"/>
      <g id="Graphic_12364">
        <circle cx="-841.8024" cy="-2865.048" r="8.00000702080158" fill="white"/>
        <circle cx="-841.8024" cy="-2865.048" r="8.00000702080158" stroke="black" stroke-linecap="round" stroke-linejoin="round" stroke-width="0"/>
      </g>
      <g id="Group_12399">
        <g id="Group_12396">
          <title>chevron-double-up</title>
          <g id="Graphic_12397">
            <path d="M -844.2177 -2865.1394 C -844.3777 -2865.0023 -844.6215 -2865.0175 -844.7586 -2865.1775 C -844.8958 -2865.3375 -844.8805 -2865.5813 -844.7205 -2865.7185 L -842.0539 -2868.0042 C -841.9091 -2868.126 -841.7034 -2868.126 -841.5586 -2868.0042 L -838.892 -2865.7185 C -838.732 -2865.5813 -838.7167 -2865.3375 -838.8539 -2865.1775 C -838.991 -2865.0175 -839.2348 -2865.0023 -839.3948 -2865.1394 L -841.8101 -2867.2118 L -844.2253 -2865.1394 Z M -844.2177 -2862.0918 C -844.3777 -2861.9547 -844.6215 -2861.97 -844.7586 -2862.13 C -844.8958 -2862.29 -844.8805 -2862.5337 -844.7205 -2862.671 L -842.0539 -2864.9566 C -841.9091 -2865.0785 -841.7034 -2865.0785 -841.5586 -2864.9566 L -838.892 -2862.671 C -838.732 -2862.5337 -838.7167 -2862.29 -838.8539 -2862.13 C -838.991 -2861.97 -839.2348 -2861.9547 -839.3948 -2862.0918 L -841.8101 -2864.1642 L -844.2253 -2862.0918 Z" fill="#5c76a1"/>
          </g>
        </g>
        <g id="Group_12394">
          <title>minus-circle</title>
          <g id="Graphic_12395">
            <path d="M -841.8024 -2857.048 C -846.2215 -2857.048 -849.8024 -2860.629 -849.8024 -2865.048 C -849.8024 -2869.467 -846.2215 -2873.048 -841.8024 -2873.048 C -837.3834 -2873.048 -833.8024 -2869.467 -833.8024 -2865.048 C -833.8024 -2860.629 -837.3834 -2857.048 -841.8024 -2857.048 Z M -841.8024 -2857.81 C -837.8024 -2857.81 -834.5643 -2861.048 -834.5643 -2865.048 C -834.5643 -2869.048 -837.8024 -2872.286 -841.8024 -2872.286 C -845.8024 -2872.286 -849.0405 -2869.048 -849.0405 -2865.048 C -849.0405 -2861.048 -845.8024 -2857.81 -841.8024 -2857.81 Z" fill="#5c76a1"/>
          </g>
        </g>
      </g>
    </g>
  </g>
</svg>
