<svg height="24.75" viewBox="-854.177 -2877.423 24.75 24.75" width="24.75" xmlns="http://www.w3.org/2000/svg"><g fill="none"><circle cx="-841.802" cy="-2865.048" fill="#666" r="8"/><circle cx="-841.802" cy="-2865.048" r="8"/><circle cx="-841.802" cy="-2865.048" fill="#fff" r="8"/><circle cx="-841.802" cy="-2865.048" r="8"/><g fill="#5c76a1"><path d="m-844.2177-2865.1394c-.16.1371-.4038.1219-.5409-.0381-.1372-.16-.1219-.4038.0381-.541l2.6666-2.2857c.1448-.1218.3505-.1218.4953 0l2.6666 2.2857c.16.1372.1753.381.0381.541-.1371.16-.3809.1752-.5409.0381l-2.4153-2.0724-2.4152 2.0724zm0 3.0476c-.16.1371-.4038.1218-.5409-.0382-.1372-.16-.1219-.4037.0381-.541l2.6666-2.2856c.1448-.1219.3505-.1219.4953 0l2.6666 2.2856c.16.1373.1753.381.0381.541-.1371.16-.3809.1753-.5409.0382l-2.4153-2.0724-2.4152 2.0724z"/><path d="m-841.8024-2857.048c-4.4191 0-8-3.581-8-8s3.5809-8 8-8c4.419 0 8 3.581 8 8s-3.581 8-8 8zm0-.762c4 0 7.2381-3.238 7.2381-7.238s-3.2381-7.238-7.2381-7.238-7.2381 3.238-7.2381 7.238 3.2381 7.238 7.2381 7.238z"/></g></g></svg>