<svg height="24.75" viewBox="-812.811 -2877.423 24.75 24.75" width="24.75" xmlns="http://www.w3.org/2000/svg"><g fill="none"><circle cx="-800.436" cy="-2865.048" fill="#666" r="8"/><circle cx="-800.436" cy="-2865.048" r="8"/><circle cx="-800.436" cy="-2865.048" fill="#fff" r="8"/><circle cx="-800.436" cy="-2865.048" r="8"/><path d="m-800.05495-2865.429h2.66665c.2104 0 .381.1706.381.381s-.1706.381-.381.381h-2.66665v2.6666c0 .2104-.17055.381-.38095.381s-.381-.1706-.381-.381v-2.6666h-2.6666c-.2104 0-.381-.1706-.381-.381s.1706-.381.381-.381h2.6666v-2.6666c0-.2104.1706-.381.381-.381s.38095.1706.38095.381zm-.38095 8.381c-4.4183 0-8-3.5817-8-8s3.5817-8 8-8 8 3.5817 8 8-3.5817 8-8 8zm0-.762c3.9975 0 7.2381-3.2405 7.2381-7.238s-3.2406-7.238-7.2381-7.238-7.2381 3.2405-7.2381 7.238 3.2406 7.238 7.2381 7.238z" fill="#5c76a1"/></g></svg>