<svg height="24.75" viewBox="-812.811 -2877.423 24.75 24.75" width="24.75" xmlns="http://www.w3.org/2000/svg"><g fill="none"><circle cx="-800.436" cy="-2865.048" fill="#666" r="8"/><circle cx="-800.436" cy="-2865.048" r="8"/><circle cx="-800.436" cy="-2865.048" fill="#fff" r="8"/><circle cx="-800.436" cy="-2865.048" r="8"/><path d="M-800.055-2865.429h2.667a.381.381 0 0 1 0 .762h-2.667v2.667a.381.381 0 1 1-.762 0v-2.667h-2.666a.381.381 0 0 1 0-.762h2.666v-2.667a.381.381 0 0 1 .762 0zm-.38 8.381a8 8 0 1 1-.001-16 8 8 0 0 1 0 16zm0-.762a7.238 7.238 0 1 0 0-14.476 7.238 7.238 0 0 0 0 14.476z" fill="#5c76a1"/></g></svg>