<svg viewBox="-788.811 -2877.423 24.75 24.75" xmlns="http://www.w3.org/2000/svg"><g fill="none"><circle cx="-776.436" cy="-2865.048" fill="#666" r="8"/><circle cx="-776.436" cy="-2865.048" r="8"/><circle cx="-776.436" cy="-2865.048" fill="#fff" r="8"/><circle cx="-776.436" cy="-2865.048" r="8"/><g fill="#5c76a1"><path d="m-776.436-2857.048a8 8 0 0 1 -8-8 8 8 0 0 1 8-8 8 8 0 0 1 8 8 8 8 0 0 1 -8 8zm0-.762c4 0 7.238-3.238 7.238-7.238s-3.238-7.238-7.238-7.238-7.238 3.238-7.238 7.238 3.238 7.238 7.238 7.238z"/><path d="m-779.484-2866.221a.377.377 0 0 1 -.38-.381c0-.214.167-.381.38-.381h6.096c.213 0 .38.167.38.38a.377.377 0 0 1 -.38.382zm0 3.108a.377.377 0 0 1 -.38-.38c0-.214.167-.382.38-.382h6.096c.213 0 .38.168.38.381a.376.376 0 0 1 -.38.381z"/></g></g></svg>