<svg xmlns="http://www.w3.org/2000/svg" viewBox="-763.133 -2877.423 24.75 24.75"><g fill="none"><circle cx="-750.758" cy="-2865.048" r="8" fill="#666"/><circle cx="-750.758" cy="-2865.048" r="8"/><circle cx="-750.758" cy="-2865.048" r="8" fill="#fff"/><circle cx="-750.758" cy="-2865.048" r="8"/><path d="M-750.758-2857.048a8 8 0 0 1-8-8 8 8 0 0 1 8-8 8 8 0 0 1 8 8 8 8 0 0 1-8 8zm0-.762c4 0 7.238-3.238 7.238-7.238s-3.238-7.238-7.238-7.238-7.238 3.238-7.238 7.238 3.238 7.238 7.238 7.238zm-3.047-6.857a.377.377 0 0 1-.381-.381c0-.213.167-.381.38-.381h6.096c.213 0 .38.168.38.381a.377.377 0 0 1-.38.381z" fill="#5c76a1"/></g></svg>