<svg height="24.75" viewBox="-763.133 -2877.423 24.75 24.75" width="24.75" xmlns="http://www.w3.org/2000/svg"><g fill="none"><circle cx="-750.758" cy="-2865.048" fill="#666" r="8"/><circle cx="-750.758" cy="-2865.048" r="8"/><circle cx="-750.758" cy="-2865.048" fill="#fff" r="8"/><circle cx="-750.758" cy="-2865.048" r="8"/><path d="m-750.7578-2857.048c-4.41905 0-8-3.581-8-8s3.58095-8 8-8c4.419 0 8 3.581 8 8s-3.581 8-8 8zm0-.762c4 0 7.2381-3.238 7.2381-7.238s-3.2381-7.238-7.2381-7.238-7.2381 3.238-7.2381 7.238 3.2381 7.238 7.2381 7.238zm-3.0476-6.857c-.2134 0-.381-.1677-.381-.381s.1676-.381.381-.381h6.0952c.21335 0 .381.1677.381.381s-.16765.381-.381.381z" fill="#5c76a1"/></g></svg>