<svg height="24.75" viewBox="-788.811 -2877.423 24.75 24.75" width="24.75" xmlns="http://www.w3.org/2000/svg"><g fill="none"><circle cx="-776.436" cy="-2865.048" fill="#666" r="8"/><circle cx="-776.436" cy="-2865.048" r="8"/><circle cx="-776.436" cy="-2865.048" fill="#fff" r="8"/><circle cx="-776.436" cy="-2865.048" r="8"/><g fill="#5c76a1"><path d="M-776.436-2857.048c-4.419 0-8-3.581-8-8s3.581-8 8-8c4.42 0 8 3.581 8 8s-3.58 8-8 8zm0-.762c4 0 7.238-3.238 7.238-7.238s-3.238-7.238-7.238-7.238-7.238 3.238-7.238 7.238 3.238 7.238 7.238 7.238z"/><path d="M-779.484-2866.221c-.213 0-.38-.168-.38-.381s.167-.381.38-.381h6.096c.213 0 .38.167.38.38s-.167.382-.38.382zm0 3.108c-.213 0-.38-.167-.38-.38s.167-.382.38-.382h6.096c.213 0 .38.168.38.381s-.167.381-.38.381z"/></g></g></svg>