<svg xmlns="http://www.w3.org/2000/svg" viewBox="-652.809 -2881.392 24.75 24.75"><g fill="none"><path d="m-632.583-2870.692-7.561-6.225a.455.455 0 0 0-.57 0l-7.56 6.225a.448.448 0 0 0-.063.622.45.45 0 0 0 .623.063l.16-.134v6.901c0 1.227.996 2.223 2.224 2.223h2.669a.44.44 0 0 0 .444-.445v-5.335a.44.44 0 0 1 .445-.445h2.669a.44.44 0 0 1 .444.445v5.335a.44.44 0 0 0 .445.445h2.669a2.224 2.224 0 0 0 2.223-2.223v-6.9l.16.133c.187.16.472.133.623-.063a.432.432 0 0 0-.062-.622z" fill="#fff"/><path d="M-633.323-2870.136v6.897a2.223 2.223 0 0 1-2.223 2.222h-2.667a.44.44 0 0 1-.445-.444v-5.333a.44.44 0 0 0-.444-.444h-2.667a.44.44 0 0 0-.445.444v5.333a.44.44 0 0 1-.444.444h-2.667a2.223 2.223 0 0 1-2.223-2.222v-6.897l-.16.134a.432.432 0 0 1-.622-.063.432.432 0 0 1 .062-.622l7.548-6.23c.16-.133.4-.133.569 0l7.557 6.221c.186.16.213.436.062.622a.449.449 0 0 1-.622.063l-.16-.134zm-.88-.729-6.233-5.128-6.232 5.128v7.626c0 .738.596 1.333 1.334 1.333h2.222v-4.888c0-.738.596-1.333 1.334-1.333h2.667c.738 0 1.334.595 1.334 1.333v4.888h2.222c.738 0 1.334-.595 1.334-1.333v-7.626z" fill="#518737"/></g></svg>