<svg height="24.75" viewBox="-596.838 -2881.392 24.75 24.75" width="24.75" xmlns="http://www.w3.org/2000/svg"><g fill="none"><circle cx="-584.463" cy="-2869.017" fill="#666" r="8"/><circle cx="-584.463" cy="-2869.017" r="8"/><circle cx="-584.463" cy="-2869.017" fill="#fff" r="8"/><circle cx="-584.463" cy="-2869.017" r="8"/><path d="m-590.6997-2874.076c1.50376-1.8508 3.7728-2.972 6.22865-2.972 4.42235 0 8.0083 3.586 8.0083 8.0083 0 4.4224-3.58595 8.0083-8.0083 8.0083s-7.73245-3.3012-7.9905-7.5189c-.01779-.2491.16905-.4537.41821-.4717.24914-.0177.45384.169.4716.4183.23134 3.7461 3.33679 6.6825 7.10959 6.6825s7.11849-3.1855 7.11849-7.1185-3.19444-7.1185-7.12739-7.1185c-2.19785 0-4.2266 1.0055-5.56131 2.6695h2.44696c.24916 0 .4449.1957.4449.4447 0 .2493-.19574.445-.4449.445h-3.5592c-.2492 0-.4449-.1957-.4449-.445v-3.559c0-.2492.1957-.445.4449-.445.2491 0 .4449.1958.4449.445z" fill="#5a76a1"/></g></svg>