<svg viewBox="-688.231 -2880.108 24.75 24.75" xmlns="http://www.w3.org/2000/svg"><g fill="none"><circle cx="-675.856" cy="-2867.733" fill="#666" r="8"/><circle cx="-675.856" cy="-2867.733" r="8"/><circle cx="-675.856" cy="-2867.733" fill="#fff" r="8"/><circle cx="-675.856" cy="-2867.733" r="8"/><path d="m-675.856-2868.274 2.019-2.019a.377.377 0 0 1 .54 0 .377.377 0 0 1 0 .541l-2.019 2.02 2.02 2.018a.377.377 0 0 1 0 .541.377.377 0 0 1 -.541 0l-2.02-2.019-2.019 2.02a.377.377 0 0 1 -.54 0 .377.377 0 0 1 0-.542l2.019-2.019-2.02-2.019a.377.377 0 0 1 0-.54.377.377 0 0 1 .542 0zm0 8.541c-4.42 0-8-3.58-8-8a8 8 0 0 1 8-8 8 8 0 0 1 8 8c0 4.42-3.581 8-8 8zm0-.762c4 0 7.238-3.238 7.238-7.238s-3.238-7.238-7.238-7.238-7.239 3.238-7.239 7.238 3.239 7.238 7.239 7.238z" fill="#a04c4e"/></g></svg>