<svg height="24.75" viewBox="-652.809 -2881.392 24.75 24.75" width="24.75" xmlns="http://www.w3.org/2000/svg"><g fill="none"><path d="m-632.5832-2870.692-7.5609-6.225c-.1601-.1333-.4003-.1333-.5693 0l-7.5609 6.225c-.1868.16-.21345.4356-.0622.6224.1601.1866.4358.2134.6226.0622l.16014-.1334v6.9008c0 1.227.99626 2.223 2.22376 2.223h2.6686c.24905 0 .44474-.1956.44474-.4446v-5.3354c0-.249.19566-.4448.44476-.4448h2.66855c.24905 0 .44475.1958.44475.4448v5.3354c0 .249.1957.4446.4448.4446h2.6685c1.22755 0 2.2238-.996 2.2238-2.223v-6.9008l.1601.1334c.1868.1601.4715.1334.6227-.0622.1601-.1868.1334-.4714-.0623-.6224z" fill="#fff"/><path d="m-633.3233-2870.1357v6.8967c0 1.2266-.9957 2.222-2.2226 2.222h-2.66705c-.24895 0-.44455-.1955-.44455-.4443v-5.3327c0-.2488-.19555-.4443-.4445-.4443h-2.66704c-.24896 0-.44451.1955-.44451.4443v5.3327c0 .2488-.19559.4443-.44455.4443h-2.667c-1.2269 0-2.2226-.9954-2.2226-2.222v-6.8967l-.16.1333c-.1867.16-.4712.1334-.6223-.0622-.16005-.1866-.1334-.471.0622-.6221l7.5478-6.2303c.16-.1333.4001-.1333.569 0l7.5567 6.2214c.18666.16.2133.4356.0622.6221-.16.1865-.4356.2133-.6223.0622l-.16004-.1333zm-.8802-.7288-6.232-5.1282-6.23206 5.1282v.0711 7.5544c0 .7378.59566 1.3333 1.33356 1.3333h2.2225v-4.8883c0-.7376.5957-1.333 1.3336-1.333h2.667c.7379 0 1.3336.5954 1.3336 1.333v4.8883h2.2225c.7379 0 1.33355-.5955 1.33355-1.3333v-7.5544s0-.0533 0-.0711z" fill="#518737"/></g></svg>