<?xml version="1.0" encoding="UTF-8" standalone="no"?>
<!DOCTYPE svg PUBLIC "-//W3C//DTD SVG 1.1//EN" "http://www.w3.org/Graphics/SVG/1.1/DTD/svg11.dtd">
<svg xmlns="http://www.w3.org/2000/svg" xmlns:dc="http://purl.org/dc/elements/1.1/" version="1.1" xmlns:xl="http://www.w3.org/1999/xlink" viewBox="-596.8377 -2881.392 24.75 24.75" width="24.75" height="24.75">
  <defs/>
  <g id="SOURCES" stroke-dasharray="none" stroke-opacity="1" stroke="none" fill="none" fill-opacity="1">
    <title>SOURCES</title>
    <g id="SOURCES_Light">
      <title>Light</title>
      <g id="Group_12480">
        <g id="Graphic_12483">
          <circle cx="-584.4627" cy="-2869.017" r="8.00000702080164" fill="#666"/>
          <circle cx="-584.4627" cy="-2869.017" r="8.00000702080164" stroke="black" stroke-linecap="round" stroke-linejoin="round" stroke-width="0"/>
        </g>
        <g id="Graphic_12482"/>
        <g id="Graphic_12481">
          <circle cx="-584.4627" cy="-2869.017" r="8.00000702080164" fill="white"/>
          <circle cx="-584.4627" cy="-2869.017" r="8.00000702080164" stroke="black" stroke-linecap="round" stroke-linejoin="round" stroke-width="0"/>
        </g>
      </g>
      <g id="Group_12478">
        <title>refresh-left</title>
        <g id="Graphic_12479">
          <path d="M -590.6997 -2874.076 C -589.19594 -2875.9268 -586.9269 -2877.048 -584.47105 -2877.048 C -580.0487 -2877.048 -576.46275 -2873.462 -576.46275 -2869.0397 C -576.46275 -2864.6173 -580.0487 -2861.0314 -584.47105 -2861.0314 C -588.8934 -2861.0314 -592.2035 -2864.3326 -592.46155 -2868.5503 C -592.47934 -2868.7994 -592.2925 -2869.004 -592.04334 -2869.022 C -591.7942 -2869.0397 -591.5895 -2868.853 -591.57174 -2868.6037 C -591.3404 -2864.8576 -588.23495 -2861.9212 -584.46215 -2861.9212 C -580.68935 -2861.9212 -577.34366 -2865.1067 -577.34366 -2869.0397 C -577.34366 -2872.9727 -580.5381 -2876.1582 -584.47105 -2876.1582 C -586.6689 -2876.1582 -588.69765 -2875.1527 -590.03236 -2873.4887 L -587.5854 -2873.4887 C -587.33624 -2873.4887 -587.1405 -2873.293 -587.1405 -2873.044 C -587.1405 -2872.7947 -587.33624 -2872.599 -587.5854 -2872.599 L -591.1446 -2872.599 C -591.3938 -2872.599 -591.5895 -2872.7947 -591.5895 -2873.044 L -591.5895 -2876.603 C -591.5895 -2876.8522 -591.3938 -2877.048 -591.1446 -2877.048 C -590.8955 -2877.048 -590.6997 -2876.8522 -590.6997 -2876.603 Z" fill="#5a76a1"/>
        </g>
      </g>
    </g>
  </g>
</svg>
