<?xml version="1.0" encoding="UTF-8" standalone="no"?>
<!DOCTYPE svg PUBLIC "-//W3C//DTD SVG 1.1//EN" "http://www.w3.org/Graphics/SVG/1.1/DTD/svg11.dtd">
<svg xmlns="http://www.w3.org/2000/svg" xmlns:dc="http://purl.org/dc/elements/1.1/" version="1.1" xmlns:xl="http://www.w3.org/1999/xlink" viewBox="-652.80934 -2881.392 24.75 24.75" width="24.75" height="24.75">
  <defs/>
  <g id="SOURCES" stroke-dasharray="none" stroke-opacity="1" stroke="none" fill="none" fill-opacity="1">
    <title>SOURCES</title>
    <g id="SOURCES_Light">
      <title>Light</title>
      <g id="Graphic_12474"/>
      <g id="Graphic_12477">
        <path d="M -632.5832 -2870.692 L -640.1441 -2876.917 C -640.3042 -2877.0503 -640.5444 -2877.0503 -640.7134 -2876.917 L -648.2743 -2870.692 C -648.4611 -2870.532 -648.48775 -2870.2564 -648.3365 -2870.0696 C -648.1764 -2869.883 -647.9007 -2869.8562 -647.7139 -2870.0074 L -647.55376 -2870.1408 L -647.55376 -2863.24 C -647.55376 -2862.013 -646.5575 -2861.017 -645.33 -2861.017 L -642.6614 -2861.017 C -642.41235 -2861.017 -642.21666 -2861.2126 -642.21666 -2861.4616 L -642.21666 -2866.797 C -642.21666 -2867.046 -642.021 -2867.2418 -641.7719 -2867.2418 L -639.10335 -2867.2418 C -638.8543 -2867.2418 -638.6586 -2867.046 -638.6586 -2866.797 L -638.6586 -2861.4616 C -638.6586 -2861.2126 -638.4629 -2861.017 -638.2138 -2861.017 L -635.5453 -2861.017 C -634.31775 -2861.017 -633.3215 -2862.013 -633.3215 -2863.24 L -633.3215 -2870.1408 L -633.1614 -2870.0074 C -632.9746 -2869.8473 -632.6899 -2869.874 -632.5387 -2870.0696 C -632.3786 -2870.2564 -632.4053 -2870.541 -632.601 -2870.692 Z" fill="white"/>
      </g>
      <g id="Group_12475">
        <title>home</title>
        <g id="Graphic_12476">
          <path d="M -633.3233 -2870.1357 L -633.3233 -2863.239 C -633.3233 -2862.0124 -634.319 -2861.017 -635.5459 -2861.017 L -638.21295 -2861.017 C -638.4619 -2861.017 -638.6575 -2861.2125 -638.6575 -2861.4613 L -638.6575 -2866.794 C -638.6575 -2867.0428 -638.85305 -2867.2383 -639.102 -2867.2383 L -641.76904 -2867.2383 C -642.018 -2867.2383 -642.21355 -2867.0428 -642.21355 -2866.794 L -642.21355 -2861.4613 C -642.21355 -2861.2125 -642.40914 -2861.017 -642.6581 -2861.017 L -645.3251 -2861.017 C -646.552 -2861.017 -647.5477 -2862.0124 -647.5477 -2863.239 L -647.5477 -2870.1357 L -647.7077 -2870.0024 C -647.8944 -2869.8424 -648.1789 -2869.869 -648.33 -2870.0646 C -648.49005 -2870.2512 -648.4634 -2870.5356 -648.2678 -2870.6867 L -640.72 -2876.917 C -640.56 -2877.0503 -640.3199 -2877.0503 -640.151 -2876.917 L -632.5943 -2870.6956 C -632.40764 -2870.5356 -632.381 -2870.26 -632.5321 -2870.0735 C -632.6921 -2869.887 -632.9677 -2869.8602 -633.1544 -2870.0113 L -633.31444 -2870.1446 Z M -634.2035 -2870.8645 L -640.4355 -2875.9927 L -646.66756 -2870.8645 C -646.66756 -2870.8645 -646.66756 -2870.82 -646.66756 -2870.7934 L -646.66756 -2863.239 C -646.66756 -2862.5012 -646.0719 -2861.9057 -645.334 -2861.9057 L -643.1115 -2861.9057 L -643.1115 -2866.794 C -643.1115 -2867.5316 -642.5158 -2868.127 -641.7779 -2868.127 L -639.1109 -2868.127 C -638.373 -2868.127 -637.7773 -2867.5316 -637.7773 -2866.794 L -637.7773 -2861.9057 L -635.5548 -2861.9057 C -634.8169 -2861.9057 -634.22125 -2862.5012 -634.22125 -2863.239 L -634.22125 -2870.7934 C -634.22125 -2870.7934 -634.22125 -2870.8467 -634.22125 -2870.8645 Z" fill="#518737"/>
        </g>
      </g>
    </g>
  </g>
</svg>
