<?xml version="1.0" encoding="UTF-8" standalone="no"?>
<!DOCTYPE svg PUBLIC "-//W3C//DTD SVG 1.1//EN" "http://www.w3.org/Graphics/SVG/1.1/DTD/svg11.dtd">
<svg xmlns="http://www.w3.org/2000/svg" xmlns:dc="http://purl.org/dc/elements/1.1/" version="1.1" xmlns:xl="http://www.w3.org/1999/xlink" viewBox="-688.2315 -2880.1077 24.75 24.75" width="24.75" height="24.75">
  <defs/>
  <g id="SOURCES" stroke-dasharray="none" stroke-opacity="1" stroke="none" fill="none" fill-opacity="1">
    <title>SOURCES</title>
    <g id="SOURCES_Light">
      <title>Light</title>
      <g id="Group_12463">
        <g id="Graphic_12466">
          <circle cx="-675.8565" cy="-2867.7327" r="8.00000702080167" fill="#666"/>
          <circle cx="-675.8565" cy="-2867.7327" r="8.00000702080167" stroke="black" stroke-linecap="round" stroke-linejoin="round" stroke-width="0"/>
        </g>
        <g id="Graphic_12465"/>
        <g id="Graphic_12464">
          <circle cx="-675.8565" cy="-2867.7327" r="8.00000702080167" fill="white"/>
          <circle cx="-675.8565" cy="-2867.7327" r="8.00000702080167" stroke="black" stroke-linecap="round" stroke-linejoin="round" stroke-width="0"/>
        </g>
      </g>
      <g id="Group_12461">
        <title>close-circle</title>
        <g id="Graphic_12462">
          <path d="M -675.8565 -2868.2736 L -673.8374 -2870.2927 C -673.68505 -2870.445 -673.44886 -2870.445 -673.2965 -2870.2927 C -673.1441 -2870.1403 -673.1441 -2869.904 -673.2965 -2869.7517 L -675.3155 -2867.7327 L -673.2965 -2865.7136 C -673.1441 -2865.5612 -673.1441 -2865.325 -673.2965 -2865.1727 C -673.44886 -2865.0203 -673.68505 -2865.0203 -673.8374 -2865.1727 L -675.8565 -2867.1917 L -677.8755 -2865.1727 C -678.0279 -2865.0203 -678.2641 -2865.0203 -678.4165 -2865.1727 C -678.56886 -2865.325 -678.56886 -2865.5612 -678.4165 -2865.7136 L -676.3974 -2867.7327 L -678.4165 -2869.7517 C -678.56886 -2869.904 -678.56886 -2870.1403 -678.4165 -2870.2927 C -678.2641 -2870.445 -678.0279 -2870.445 -677.8755 -2870.2927 L -675.8565 -2868.2736 Z M -675.8565 -2859.7327 C -680.2755 -2859.7327 -683.8565 -2863.3136 -683.8565 -2867.7327 C -683.8565 -2872.1517 -680.2755 -2875.7327 -675.8565 -2875.7327 C -671.4374 -2875.7327 -667.8565 -2872.1517 -667.8565 -2867.7327 C -667.8565 -2863.3136 -671.4374 -2859.7327 -675.8565 -2859.7327 Z M -675.8565 -2860.4946 C -671.8565 -2860.4946 -668.6184 -2863.7327 -668.6184 -2867.7327 C -668.6184 -2871.7327 -671.8565 -2874.9707 -675.8565 -2874.9707 C -679.8565 -2874.9707 -683.0946 -2871.7327 -683.0946 -2867.7327 C -683.0946 -2863.7327 -679.8565 -2860.4946 -675.8565 -2860.4946 Z" fill="#a04c4e"/>
        </g>
      </g>
    </g>
  </g>
</svg>
