<svg height="24.75" viewBox="-596.838 -2881.392 24.75 24.75" width="24.75" xmlns="http://www.w3.org/2000/svg"><g fill="none"><circle cx="-584.463" cy="-2869.017" fill="#666" r="8"/><circle cx="-584.463" cy="-2869.017" r="8"/><circle cx="-584.463" cy="-2869.017" fill="#fff" r="8"/><circle cx="-584.463" cy="-2869.017" r="8"/><path d="M-590.7-2874.076a8.009 8.009 0 1 1 6.229 13.045c-4.422 0-7.732-3.302-7.99-7.52a.441.441 0 0 1 .418-.471.441.441 0 0 1 .471.418c.232 3.746 3.337 6.683 7.11 6.683s7.118-3.186 7.118-7.119-3.194-7.118-7.127-7.118a7.121 7.121 0 0 0-5.561 2.67h2.447a.44.44 0 0 1 .444.444.44.44 0 0 1-.444.445h-3.56a.44.44 0 0 1-.445-.445v-3.559a.44.44 0 0 1 .445-.445.44.44 0 0 1 .445.445z" fill="#5a76a1"/></g></svg>