<svg height="24.75" viewBox="-688.231 -2880.108 24.75 24.75" width="24.75" xmlns="http://www.w3.org/2000/svg"><g fill="none"><circle cx="-675.856" cy="-2867.733" fill="#666" r="8"/><circle cx="-675.856" cy="-2867.733" r="8"/><circle cx="-675.856" cy="-2867.733" fill="#fff" r="8"/><circle cx="-675.856" cy="-2867.733" r="8"/><path d="m-675.8565-2868.2736 2.0191-2.0191c.15235-.1523.38854-.1523.5409 0 .1524.1524.1524.3887 0 .541l-2.019 2.019 2.019 2.0191c.1524.1524.1524.3886 0 .5409-.15236.1524-.38855.1524-.5409 0l-2.0191-2.019-2.019 2.019c-.1524.1524-.3886.1524-.541 0-.15236-.1523-.15236-.3885 0-.5409l2.0191-2.0191-2.0191-2.019c-.15236-.1523-.15236-.3886 0-.541.1524-.1523.3886-.1523.541 0zm0 8.5409c-4.419 0-8-3.5809-8-8 0-4.419 3.581-8 8-8 4.4191 0 8 3.581 8 8 0 4.4191-3.5809 8-8 8zm0-.7619c4 0 7.2381-3.2381 7.2381-7.2381s-3.2381-7.238-7.2381-7.238-7.2381 3.238-7.2381 7.238 3.2381 7.2381 7.2381 7.2381z" fill="#a04c4e"/></g></svg>